<?xml version="1.0" encoding="utf-8"?>
<!-- Generator: Adobe Illustrator 15.1.0, SVG Export Plug-In . SVG Version: 6.00 Build 0)  -->
<!DOCTYPE svg PUBLIC "-//W3C//DTD SVG 1.1//EN" "http://www.w3.org/Graphics/SVG/1.1/DTD/svg11.dtd">
<svg version="1.1" id="Layer_1" xmlns="http://www.w3.org/2000/svg" xmlns:xlink="http://www.w3.org/1999/xlink" x="0px" y="0px"
	 width="416.592px" height="358.088px" viewBox="0 0 416.592 358.088" enable-background="new 0 0 416.592 358.088"
	 xml:space="preserve">
<g>
	<rect x="88.142" y="105.94" width="47.425" height="192.244"/>
	<rect x="153.353" y="176.232" width="47.426" height="121.952"/>
	<rect x="214.329" y="209.261" width="47.426" height="88.923"/>
	<rect x="277.845" y="237.208" width="47.426" height="60.976"/>
	<g>
		<path d="M55.96,63.596c0,77.913,0,155.827,0,233.741c0,3.275,5.082,3.275,5.082,0c0-77.914,0-155.828,0-233.741
			C61.042,60.319,55.96,60.319,55.96,63.596L55.96,63.596z"/>
	</g>
	<g>
		<path d="M60.194,299.878c95.98,0,191.962,0,287.943,0c3.276,0,3.276-5.082,0-5.082c-95.981,0-191.963,0-287.943,0
			C56.918,294.796,56.918,299.878,60.194,299.878L60.194,299.878z"/>
	</g>
	<polygon points="346.408,305.065 346.408,291.303 358.898,298.184 	"/>
	<polygon points="65.374,65.819 51.627,65.184 59.076,53.023 	"/>
</g>
</svg>
