<?xml version="1.0" encoding="utf-8"?>
<!-- Generator: Adobe Illustrator 15.1.0, SVG Export Plug-In . SVG Version: 6.00 Build 0)  -->
<!DOCTYPE svg PUBLIC "-//W3C//DTD SVG 1.1//EN" "http://www.w3.org/Graphics/SVG/1.1/DTD/svg11.dtd">
<svg version="1.1" id="Layer_1" xmlns="http://www.w3.org/2000/svg" xmlns:xlink="http://www.w3.org/1999/xlink" x="0px" y="0px"
	 width="416.592px" height="358.088px" viewBox="0 0 416.592 358.088" enable-background="new 0 0 416.592 358.088"
	 xml:space="preserve">
<g>
	<g>
		<path d="M371.653,307.316H44.938V52.649h326.716L371.653,307.316L371.653,307.316z M49.218,303.035h318.155V56.93H49.218V303.035z
			"/>
	</g>
	<g>
		<rect x="47.078" y="94.38" width="322.437" height="4.28"/>
	</g>
	<g>
		<rect x="47.078" y="134.506" width="322.437" height="4.28"/>
	</g>
	<g>
		<rect x="47.078" y="174.632" width="322.437" height="4.28"/>
	</g>
	<g>
		<rect x="47.078" y="214.758" width="322.437" height="4.28"/>
	</g>
	<g>
		<rect x="47.078" y="254.885" width="322.437" height="4.28"/>
	</g>
	<g>
		<rect x="131.253" y="54.79" width="4.28" height="250.386"/>
	</g>
	<g>
		<rect x="212.041" y="136.646" width="4.28" height="168.529"/>
	</g>
	<g>
		<rect x="212.041" y="54.79" width="4.28" height="41.73"/>
	</g>
	<g>
		<rect x="301.923" y="216.898" width="4.28" height="88.277"/>
	</g>
	<g>
		<rect x="301.923" y="54.79" width="4.28" height="121.982"/>
	</g>
	<g>
		<rect x="221.493" y="62.992" width="75.615" height="23.897"/>
	</g>
	<g>
		<rect x="142.311" y="103.831" width="153.37" height="23.897"/>
	</g>
	<g>
		<rect x="142.311" y="144.847" width="63.487" height="23.898"/>
	</g>
	<g>
		<rect x="311.375" y="144.847" width="58.139" height="23.898"/>
	</g>
	<g>
		<rect x="311.375" y="223.672" width="58.139" height="23.897"/>
	</g>
	<g>
		<rect x="311.375" y="271.646" width="58.139" height="23.898"/>
	</g>
	<g>
		<rect x="142.311" y="267.186" width="63.487" height="28.358"/>
	</g>
	<g>
		<rect x="221.493" y="182.296" width="146.593" height="28.356"/>
	</g>
	<g>
		<circle cx="64.377" cy="75.655" r="7.312"/>
	</g>
	<g>
		<circle cx="64.377" cy="118.099" r="7.312"/>
	</g>
	<g>
		<circle cx="64.377" cy="158.402" r="7.312"/>
	</g>
	<g>
		<circle cx="64.377" cy="198.706" r="7.312"/>
	</g>
	<g>
		<circle cx="64.377" cy="239.01" r="7.312"/>
	</g>
	<g>
		<circle cx="64.377" cy="283.593" r="7.312"/>
	</g>
	<g>
		<path d="M123.407,74.05H75.968c-2.76,0-2.76,4.28,0,4.28h47.438C126.167,78.33,126.167,74.05,123.407,74.05z"/>
	</g>
	<g>
		<path d="M123.407,115.958H75.968c-2.76,0-2.76,4.279,0,4.279h47.438C126.167,120.239,126.167,115.958,123.407,115.958z"/>
	</g>
	<g>
		<path d="M123.407,157.867H75.968c-2.76,0-2.76,4.279,0,4.279h47.438C126.167,162.147,126.167,157.867,123.407,157.867z"/>
	</g>
	<g>
		<path d="M123.407,199.776H75.968c-2.76,0-2.76,4.28,0,4.28h47.438C126.167,204.056,126.167,199.776,123.407,199.776z"/>
	</g>
	<g>
		<path d="M123.407,241.685H75.968c-2.76,0-2.76,4.28,0,4.28h47.438C126.167,245.965,126.167,241.685,123.407,241.685z"/>
	</g>
	<g>
		<path d="M123.407,283.593H75.968c-2.76,0-2.76,4.28,0,4.28h47.438C126.167,287.874,126.167,283.593,123.407,283.593z"/>
	</g>
</g>
</svg>
