<?xml version="1.0" encoding="utf-8"?>
<!-- Generator: Adobe Illustrator 15.1.0, SVG Export Plug-In . SVG Version: 6.00 Build 0)  -->
<!DOCTYPE svg PUBLIC "-//W3C//DTD SVG 1.1//EN" "http://www.w3.org/Graphics/SVG/1.1/DTD/svg11.dtd">
<svg version="1.1" id="Layer_1" xmlns="http://www.w3.org/2000/svg" xmlns:xlink="http://www.w3.org/1999/xlink" x="0px" y="0px"
	 width="416.591px" height="358.088px" viewBox="0 0 416.591 358.088" enable-background="new 0 0 416.591 358.088"
	 xml:space="preserve">
<g>
	<g>
		<path d="M207.14,185.173L85.101,104.106l0.985-1.67c24.829-42.114,70.408-69.106,118.952-70.443l2.102-0.058V185.173z
			 M90.608,102.851l112.439,74.689V36.158C157.331,38.139,114.569,63.497,90.608,102.851z"/>
	</g>
	<g>
		
			<rect x="101.453" y="113.685" transform="matrix(0.4491 0.8935 -0.8935 0.4491 198.6917 -90.7921)" width="143.041" height="4.093"/>
	</g>
	<path d="M217.726,35.537l-2.046,275.915c73.504-3.127,132.141-63.684,132.141-137.958C347.82,99.221,291.23,38.664,217.726,35.537z
		"/>
	<path d="M80.623,117.496c-7.606,17.118-11.853,36.06-11.853,55.999c0,76.275,61.833,138.109,138.109,138.109V197.792
		L80.623,117.496z"/>
</g>
</svg>
