<?xml version="1.0" encoding="utf-8"?>
<!-- Generator: Adobe Illustrator 15.1.0, SVG Export Plug-In . SVG Version: 6.00 Build 0)  -->
<!DOCTYPE svg PUBLIC "-//W3C//DTD SVG 1.1//EN" "http://www.w3.org/Graphics/SVG/1.1/DTD/svg11.dtd">
<svg version="1.1" id="Layer_1" xmlns="http://www.w3.org/2000/svg" xmlns:xlink="http://www.w3.org/1999/xlink" x="0px" y="0px"
	 width="455.589px" height="168px" viewBox="0 0 455.589 168" enable-background="new 0 0 455.589 168" xml:space="preserve">
<g>
	<g opacity="0.66">
		<path d="M395.098,104.399H61.568c-15.569,0-28.235-10.465-28.235-23.33s12.666-23.331,28.235-23.331h333.529
			c15.569,0,28.235,10.466,28.235,23.331S410.667,104.399,395.098,104.399z M61.568,59.131c-14.8,0-26.843,9.841-26.843,21.938
			c0,12.096,12.042,21.938,26.843,21.938h333.529c14.8,0,26.843-9.842,26.843-21.938c0-12.097-12.042-21.938-26.843-21.938H61.568z"
			/>
	</g>
	<g>
		<path d="M386.146,98.364H70.467c-14.756,0-26.761-7.602-26.761-16.945c0-9.345,12.005-16.947,26.761-16.947h315.679
			c14.757,0,26.763,7.602,26.763,16.947C412.909,90.762,400.903,98.364,386.146,98.364z M70.467,65.864
			c-13.988,0-25.368,6.978-25.368,15.555c0,8.576,11.379,15.553,25.368,15.553h315.679c13.989,0,25.369-6.977,25.369-15.553
			c0-8.577-11.38-15.555-25.369-15.555H70.467z"/>
	</g>
	<g opacity="0.66">
		<path d="M211.619,65.167H70.467c-14.394,0-26.064,7.277-26.064,16.251c0,8.972,11.67,16.249,26.064,16.249h141.152V65.167z"/>
	</g>
</g>
</svg>
