<?xml version="1.0" encoding="utf-8"?>
<!-- Generator: Adobe Illustrator 15.1.0, SVG Export Plug-In . SVG Version: 6.00 Build 0)  -->
<!DOCTYPE svg PUBLIC "-//W3C//DTD SVG 1.1//EN" "http://www.w3.org/Graphics/SVG/1.1/DTD/svg11.dtd">
<svg version="1.1" id="Layer_1" xmlns="http://www.w3.org/2000/svg" xmlns:xlink="http://www.w3.org/1999/xlink" x="0px" y="0px"
	 width="455.589px" height="168px" viewBox="0 0 455.589 168" enable-background="new 0 0 455.589 168" xml:space="preserve">
<g>
	<g opacity="0.66">
		<polygon points="57.196,65.381 57.196,65.381 57.196,65.381 57.196,65.381 57.196,65.381 57.196,65.381 57.196,65.381 
			57.196,65.381 		"/>
	</g>
	<polygon opacity="0.66" points="313.737,47.924 313.737,47.924 313.737,47.924 313.737,47.924 313.737,47.924 313.737,47.924 
		313.737,47.924 313.737,47.924 	"/>
	<g opacity="0.66">
		<path d="M388.573,113.052H67.016c-15.01,0-27.222-10.089-27.222-22.493s12.211-22.493,27.222-22.493h321.557
			c15.009,0,27.222,10.089,27.222,22.493S403.582,113.052,388.573,113.052z M67.016,69.41c-14.27,0-25.879,9.488-25.879,21.15
			c0,11.663,11.609,21.15,25.879,21.15h321.557c14.269,0,25.878-9.488,25.878-21.15c0-11.662-11.609-21.15-25.878-21.15H67.016z"/>
	</g>
	<g>
		<path d="M379.943,107.234H75.595c-14.226,0-25.8-7.329-25.8-16.337c0-9.009,11.574-16.338,25.8-16.338h304.348
			c14.227,0,25.801,7.329,25.801,16.338C405.744,99.905,394.169,107.234,379.943,107.234z M75.595,75.901
			c-13.486,0-24.458,6.728-24.458,14.996c0,8.269,10.971,14.995,24.458,14.995h304.348c13.486,0,24.458-6.726,24.458-14.995
			c0-8.268-10.972-14.996-24.458-14.996H75.595z"/>
	</g>
	<g opacity="0.66">
		<path d="M104.923,75.229H75.595c-13.877,0-25.128,7.016-25.128,15.667c0,8.65,11.251,15.666,25.128,15.666h29.328V75.229z"/>
	</g>
</g>
</svg>
