<?xml version="1.0" encoding="utf-8"?>
<!-- Generator: Adobe Illustrator 15.1.0, SVG Export Plug-In . SVG Version: 6.00 Build 0)  -->
<!DOCTYPE svg PUBLIC "-//W3C//DTD SVG 1.1//EN" "http://www.w3.org/Graphics/SVG/1.1/DTD/svg11.dtd">
<svg version="1.1" id="Layer_1" xmlns="http://www.w3.org/2000/svg" xmlns:xlink="http://www.w3.org/1999/xlink" x="0px" y="0px"
	 width="455.589px" height="168px" viewBox="0 0 455.589 168" enable-background="new 0 0 455.589 168" xml:space="preserve">
<g>
	<g>
		<path d="M390.132,103.75H72.428c-14.83,0-26.896-9.969-26.896-22.224c0-12.254,12.065-22.223,26.896-22.223h317.705
			c14.83,0,26.895,9.969,26.895,22.223C417.027,93.781,404.962,103.75,390.132,103.75z M72.428,60.63
			c-14.098,0-25.569,9.375-25.569,20.896c0,11.522,11.471,20.897,25.569,20.897h317.705c14.098,0,25.569-9.375,25.569-20.897
			c0-11.522-11.471-20.896-25.569-20.896H72.428z"/>
	</g>
	<g>
		<path d="M381.605,98.001H80.904c-14.056,0-25.491-7.241-25.491-16.142c0-8.901,11.436-16.143,25.491-16.143h300.701
			c14.057,0,25.492,7.242,25.492,16.143C407.098,90.76,395.662,98.001,381.605,98.001z M80.904,67.043
			c-13.325,0-24.165,6.647-24.165,14.816c0,8.169,10.84,14.815,24.165,14.815h300.701c13.325,0,24.166-6.646,24.166-14.815
			c0-8.169-10.841-14.816-24.166-14.816H80.904z"/>
	</g>
	<g>
		<path d="M300.361,66.38H80.904c-13.711,0-24.828,6.932-24.828,15.479c0,8.546,11.117,15.479,24.828,15.479h219.457V66.38z"/>
	</g>
</g>
</svg>
