<?xml version="1.0" encoding="utf-8"?>
<!-- Generator: Adobe Illustrator 15.1.0, SVG Export Plug-In . SVG Version: 6.00 Build 0)  -->
<!DOCTYPE svg PUBLIC "-//W3C//DTD SVG 1.1//EN" "http://www.w3.org/Graphics/SVG/1.1/DTD/svg11.dtd">
<svg version="1.1" id="Layer_1" xmlns="http://www.w3.org/2000/svg" xmlns:xlink="http://www.w3.org/1999/xlink" x="0px" y="0px"
	 width="455.589px" height="168px" viewBox="0 0 455.589 168" enable-background="new 0 0 455.589 168" xml:space="preserve">
<g>
	<g>
		<path d="M390.07,100.75H60.531c-15.383,0-27.897-10.34-27.897-23.051s12.515-23.051,27.897-23.051H390.07
			c15.383,0,27.898,10.34,27.898,23.051S405.453,100.75,390.07,100.75z M60.531,56.024c-14.624,0-26.521,9.723-26.521,21.675
			s11.898,21.675,26.521,21.675H390.07c14.624,0,26.521-9.724,26.521-21.675s-11.897-21.675-26.521-21.675H60.531z"/>
	</g>
	<g>
		<path d="M406.979,78.044c0,8.865-11.531,16.055-25.754,16.055H69.323c-14.222,0-25.752-7.19-25.752-16.055l0,0
			c0-8.866,11.531-16.056,25.752-16.056h311.902C395.448,61.988,406.979,69.178,406.979,78.044L406.979,78.044z"/>
	</g>
</g>
</svg>
