<?xml version="1.0" encoding="utf-8"?>
<!-- Generator: Adobe Illustrator 15.1.0, SVG Export Plug-In . SVG Version: 6.00 Build 0)  -->
<!DOCTYPE svg PUBLIC "-//W3C//DTD SVG 1.1//EN" "http://www.w3.org/Graphics/SVG/1.1/DTD/svg11.dtd">
<svg version="1.1" id="Layer_1" xmlns="http://www.w3.org/2000/svg" xmlns:xlink="http://www.w3.org/1999/xlink" x="0px" y="0px"
	 width="455.589px" height="430.085px" viewBox="0 0 455.589 430.085" enable-background="new 0 0 455.589 430.085"
	 xml:space="preserve">
<g>
	<g>
		<path d="M229.715,116.992c-98.833,0-178.954,78.192-178.954,174.644c0,6.61,0.411,13.124,1.143,19.545h355.622
			c0.731-6.421,1.143-12.935,1.143-19.545C408.669,195.184,328.548,116.992,229.715,116.992z M383.462,300.041H69.95
			c-0.648-5.319-1.01-10.723-1.01-16.2c0-79.96,70.636-144.782,157.766-144.782c87.13,0,157.766,64.821,157.766,144.782
			C384.472,289.318,384.11,294.722,383.462,300.041z"/>
	</g>
	<g>
		<path d="M132.872,242.658c-9.317-4.837-18.979-9.147-27.305-15.24c-8.041,14.814-12.558,31.303-12.558,48.703
			c0,2.534,0.128,5.036,0.315,7.529h32.261c-0.244-2.482-0.399-4.99-0.399-7.529C125.186,264.276,127.932,252.982,132.872,242.658z"
			/>
	</g>
	<g>
		<path d="M289.22,205.469l-1.113-0.669c-17.378-10.467-37.822-16.003-59.123-16.003c-10.302,0-20.528,1.325-30.394,3.931
			l-1.251,0.33l-2.822-11.945c-0.443-1.884-0.781-3.886-1.14-6.009c-0.594-3.502-1.207-7.123-2.328-10.3l-0.465-1.32l1.362-0.328
			c12.039-2.879,24.5-4.342,37.039-4.342c26.963,0,53.079,6.699,75.527,19.373l1.217,0.685l-0.808,1.143
			c-5.874,8.28-10.913,16.944-15.065,24.323L289.22,205.469z M228.984,186.274c21.306,0,41.782,5.428,59.307,15.703
			c3.867-6.842,8.462-14.673,13.762-22.273c-21.793-12.019-47.025-18.368-73.069-18.368c-11.878,0-23.685,1.332-35.12,3.96
			c0.921,3.015,1.468,6.248,2,9.388c0.35,2.079,0.682,4.044,1.106,5.852l2.229,9.428
			C208.887,187.515,218.901,186.274,228.984,186.274z"/>
	</g>
	<g>
		<path d="M324.763,244.982l-0.488-1.044c-6.763-14.491-17.979-27.209-32.433-36.78l-0.978-0.648l0.576-1.022
			c4.204-7.477,9.307-16.257,15.267-24.667l0.68-0.958l1.005,0.61c21.574,13.107,38.174,31.125,48.005,52.104l0.554,1.188
			l-1.207,0.51c-5.022,2.118-10.371,3.802-15.543,5.433c-3.096,0.976-6.295,1.983-9.312,3.054c-0.965,0.34-1.928,0.694-2.889,1.044
			L324.763,244.982z M294.212,205.71c14.025,9.516,25.005,21.963,31.854,36.117l1.069-0.389c0.97-0.354,1.941-0.712,2.914-1.057
			c3.059-1.083,6.28-2.098,9.396-3.078c4.697-1.48,9.541-3.005,14.102-4.847c-9.528-19.698-25.207-36.669-45.458-49.212
			C302.746,190.889,298.108,198.805,294.212,205.71z"/>
	</g>
	<g>
		<path d="M365.813,284.91h-34.822l0.135-1.384c0.266-2.694,0.394-5.118,0.394-7.406c0-9.568-1.847-19.035-5.49-28.133l-0.485-1.212
			l3.906-1.418c1.983-0.719,3.963-1.438,5.95-2.143c2.722-0.965,5.507-1.852,8.302-2.739c4.275-1.359,8.696-2.763,12.856-4.47
			l1.158-0.475l0.482,1.157c5.322,12.718,8.019,25.988,8.019,39.433c0,2.305-0.101,4.729-0.318,7.625L365.813,284.91z
			 M333.765,282.388h29.704c0.155-2.325,0.229-4.342,0.229-6.268c0-12.706-2.473-25.251-7.349-37.312
			c-3.901,1.535-7.952,2.82-11.88,4.071c-2.769,0.876-5.527,1.753-8.224,2.711c-1.98,0.702-3.955,1.421-5.93,2.138l-1.468,0.535
			c3.448,9.023,5.197,18.392,5.197,27.857C334.043,278.093,333.952,280.154,333.765,282.388z"/>
	</g>
	<g>
		<g>
			<path d="M233.681,287.106L233.681,287.106c-4.576,0-9.132-1.33-13.188-3.847l-0.167,0.231l-1.066-1.049
				c-2.731-1.94-76.069-79.113-84.421-87.908l-5.344-5.625l6.849,3.645c4.253,2.261,104.141,55.394,105.581,56.295
				c0.34,0.212,0.663,0.443,0.988,0.675l0.909,0.517l1.32,0.705l-0.224,0.291c8.57,7.224,11.068,18.717,5.741,27.212
				C247.177,283.797,240.83,287.106,233.681,287.106z M220.738,280.383l0.502,0.342c0.163,0.116,0.325,0.231,0.495,0.34
				c3.672,2.3,7.805,3.52,11.945,3.52l0,0c6.277,0,11.824-2.87,14.838-7.677c4.832-7.706,2.197-18.306-6.127-24.665l-0.946-0.667
				c-0.281-0.2-0.564-0.402-0.859-0.589c-1.421-0.852-61.6-32.894-98.572-52.562c25.306,26.618,76.343,80.15,78.727,81.951
				L220.738,280.383z"/>
		</g>
		<g>
			<path d="M236.102,267.917c-2.426,3.872-7.502,5.063-11.339,2.66c-3.837-2.406-4.978-7.497-2.549-11.368
				c2.426-3.872,7.504-5.059,11.341-2.658C237.387,258.957,238.53,264.045,236.102,267.917z"/>
		</g>
	</g>
	<g>
		<g>
			<path d="M167.465,204.819c8.029-5.046,16.937-9.142,26.498-12.068c-0.847-3.579-1.699-7.157-2.527-10.743
				c-1.123-4.859-1.556-11.462-3.517-16.526c-18.193,4.918-34.704,13.039-48.69,23.547L167.465,204.819z"/>
		</g>
		<g>
			<path d="M131.335,195.421c-9.403,8.287-17.378,17.764-23.572,28.147c0,0,25.251,13.472,27.377,14.678
				c3.825-6.891,8.679-13.277,14.363-19.045L131.335,195.421z"/>
		</g>
	</g>
</g>
</svg>
