<?xml version="1.0" encoding="utf-8"?>
<!-- Generator: Adobe Illustrator 15.1.0, SVG Export Plug-In . SVG Version: 6.00 Build 0)  -->
<!DOCTYPE svg PUBLIC "-//W3C//DTD SVG 1.1//EN" "http://www.w3.org/Graphics/SVG/1.1/DTD/svg11.dtd">
<svg version="1.1" id="Layer_1" xmlns="http://www.w3.org/2000/svg" xmlns:xlink="http://www.w3.org/1999/xlink" x="0px" y="0px"
	 width="455.589px" height="430.085px" viewBox="0 0 455.589 430.085" enable-background="new 0 0 455.589 430.085"
	 xml:space="preserve">
<g>
	<g>
		<path d="M230.942,99.852c-101.045,0-182.959,79.94-182.959,178.553c0,6.758,0.42,13.421,1.168,19.982h363.582
			c0.747-6.562,1.168-13.225,1.168-19.982C413.901,179.792,331.987,99.852,230.942,99.852z M388.129,287H67.6
			c-0.662-5.443-1.032-10.965-1.032-16.567c0-81.748,72.217-148.02,161.297-148.02c89.08,0,161.297,66.272,161.297,148.02
			C389.162,276.035,388.792,281.557,388.129,287z"/>
	</g>
	<g>
		<path d="M131.931,228.327c-9.525-4.942-19.403-9.352-27.917-15.578c-8.221,15.145-12.839,32.005-12.839,49.792
			c0,2.589,0.131,5.152,0.322,7.7h32.982c-0.249-2.543-0.408-5.106-0.408-7.7C124.073,250.43,126.88,238.888,131.931,228.327z"/>
	</g>
	<g>
		<path d="M191.806,166.325c-1.148-4.97-1.591-11.721-3.596-16.897c-35.72,9.656-65.192,31.29-81.949,59.386
			c6.469,4.703,14.385,7.735,21.403,11.401c2.226,1.164,4.414,2.372,6.587,3.606c11.962-21.554,33.617-38.394,60.139-46.514
			C193.523,173.647,192.651,169.989,191.806,166.325z"/>
	</g>
	<g>
		<path d="M306.777,163.536c-21.964-12.398-48.279-19.635-76.583-19.635c-13.022,0-25.617,1.541-37.567,4.401
			c1.876,5.315,2.384,11.701,3.583,16.81c0.856,3.641,1.72,7.282,2.581,10.923c9.928-2.624,20.466-4.059,31.403-4.059
			c22.763,0,43.83,6.134,61.111,16.543C296.111,179.978,301.097,171.548,306.777,163.536z"/>
	</g>
	<g>
		<path d="M328.787,229.093c1.725-0.619,3.439-1.262,5.165-1.874c8.201-2.908,17.167-5.197,25.34-8.646
			c-9.986-21.312-26.975-39.589-48.581-52.716c-5.706,8.047-10.711,16.518-15.538,25.104
			C310.036,200.801,321.719,213.95,328.787,229.093z"/>
	</g>
	<g>
		<g>
			<path d="M225.846,272.215v-0.385c-0.05,0.002-0.101,0.002-0.151,0.002h-0.002c-11.449,0-20.854-7.271-22.357-17.29
				c-0.828-5.507,0.836-11.042,4.686-15.584c3.774-4.452,9.213-7.428,15.329-8.385l-0.035-0.317l1.589,0.126
				c0.053,0.021,0.164,0.01,0.302,0.01c6.426,0,118.93,11.472,123.717,11.96l7.891,0.806l-7.74,1.732
				c-4.804,1.077-117.673,26.383-119.386,26.64c-0.383,0.061-0.766,0.096-1.148,0.131l-1.128,0.209L225.846,272.215z
				 M225.045,232.971l-0.539,0.061c-0.201,0.02-0.4,0.035-0.604,0.067c-5.57,0.839-10.51,3.511-13.914,7.526
				c-3.362,3.966-4.819,8.772-4.104,13.534c1.372,9.138,10.52,15.648,21.179,15.055l1.244-0.121c0.33-0.03,0.66-0.061,0.995-0.11
				c1.664-0.282,69.679-15.506,111.459-24.867c-26.416-2.682-110.228-11.145-115.554-11.145H225.045z"/>
		</g>
		<g>
			<path d="M221.504,252.865c-0.695-4.618,2.448-8.924,7.025-9.614c4.572-0.688,8.848,2.501,9.545,7.121
				c0.698,4.618-2.45,8.924-7.027,9.611C226.473,260.67,222.2,257.482,221.504,252.865z"/>
		</g>
	</g>
	<g>
		<path d="M361.115,222.723c-7.045,2.885-14.577,4.867-21.689,7.393c-2.946,1.042-5.877,2.12-8.815,3.183
			c0.564,1.405,1.073,2.835,1.559,4.271l30.77,5.061l-27.227,10.45c0.383,3.112,0.604,6.265,0.604,9.462
			c0,2.594-0.159,5.157-0.408,7.7h32.982c0.191-2.548,0.322-5.111,0.322-7.7C369.212,248.562,366.322,235.171,361.115,222.723z"/>
	</g>
</g>
</svg>
