<?xml version="1.0" encoding="utf-8"?>
<!-- Generator: Adobe Illustrator 15.1.0, SVG Export Plug-In . SVG Version: 6.00 Build 0)  -->
<!DOCTYPE svg PUBLIC "-//W3C//DTD SVG 1.1//EN" "http://www.w3.org/Graphics/SVG/1.1/DTD/svg11.dtd">
<svg version="1.1" id="Layer_1" xmlns="http://www.w3.org/2000/svg" xmlns:xlink="http://www.w3.org/1999/xlink" x="0px" y="0px"
	 width="455.589px" height="430.085px" viewBox="0 0 455.589 430.085" enable-background="new 0 0 455.589 430.085"
	 xml:space="preserve">
<g>
	<g>
		<path d="M238.334,117.134c-99.662,0-180.454,78.845-180.454,176.108c0,6.665,0.415,13.236,1.152,19.708h358.603
			c0.738-6.472,1.152-13.043,1.152-19.708C418.788,195.979,337.996,117.134,238.334,117.134z M393.369,301.721H77.229
			c-0.653-5.369-1.018-10.815-1.018-16.342c0-80.628,71.228-145.993,159.088-145.993c87.86,0,159.088,65.365,159.088,145.993
			C394.388,290.905,394.022,296.352,393.369,301.721z"/>
	</g>
	<g>
		<path d="M143.456,241.144l-1.118-0.633c-2.131-1.209-4.274-2.392-6.457-3.534c-2.136-1.115-4.356-2.171-6.593-3.233
			c-5.004-2.382-10.18-4.843-14.675-8.111l-0.939-0.683l0.594-0.996c16.763-28.103,46.5-49.664,81.587-59.151l1.105-0.298
			l0.412,1.068c1.329,3.427,1.964,7.386,2.578,11.215c0.325,2.021,0.633,3.934,1.023,5.623c0.7,3.038,1.42,6.07,2.138,9.102
			l0.683,2.883l-1.14,0.348c-25.604,7.843-46.955,24.343-58.575,45.278L143.456,241.144z M117.062,224.246
			c4.087,2.809,8.774,5.037,13.319,7.2c2.265,1.075,4.515,2.148,6.678,3.276c1.831,0.958,3.636,1.944,5.426,2.95
			c11.889-20.665,33.016-36.979,58.287-45.005l-0.137-0.569c-0.717-3.037-1.438-6.072-2.141-9.117
			c-0.41-1.773-0.723-3.725-1.055-5.792c-0.527-3.288-1.071-6.676-2.052-9.621C161.846,176.921,133.41,197.499,117.062,224.246z"/>
	</g>
	<g>
		<path d="M298.337,206.353l-1.123-0.676c-17.523-10.557-38.139-16.135-59.618-16.135c-10.388,0-20.7,1.332-30.648,3.961
			l-1.261,0.335l-2.846-12.05c-0.447-1.897-0.787-3.919-1.15-6.055c-0.599-3.532-1.217-7.188-2.347-10.391l-0.47-1.331l1.374-0.328
			c12.139-2.906,24.706-4.376,37.349-4.376c27.189,0,53.524,6.752,76.161,19.53l1.227,0.695l-0.815,1.147
			c-5.923,8.354-11.004,17.086-15.191,24.532L298.337,206.353z M237.596,186.999c21.485,0,42.132,5.469,59.805,15.83
			c3.899-6.894,8.533-14.792,13.877-22.46c-21.976-12.119-47.419-18.517-73.682-18.517c-11.978,0-23.883,1.341-35.414,3.991
			c0.929,3.04,1.48,6.3,2.017,9.467c0.353,2.099,0.688,4.08,1.115,5.898l2.248,9.512
			C217.332,188.251,227.429,186.999,237.596,186.999z"/>
	</g>
	<g>
		<path d="M334.178,246.195l-0.492-1.051c-6.819-14.613-18.129-27.44-32.705-37.088l-0.986-0.653l0.581-1.031
			c4.239-7.542,9.385-16.393,15.395-24.872l0.686-0.969l1.013,0.616c21.755,13.217,38.494,31.386,48.408,52.541l0.559,1.197
			l-1.217,0.514c-5.064,2.138-10.458,3.837-15.673,5.479c-3.122,0.983-6.348,1.999-9.39,3.077c-0.974,0.348-1.945,0.7-2.913,1.058
			L334.178,246.195z M303.371,206.594c14.143,9.596,25.214,22.152,32.121,36.422l1.078-0.392c0.979-0.358,1.957-0.715,2.938-1.063
			c3.084-1.095,6.333-2.119,9.475-3.109c4.736-1.49,9.621-3.03,14.22-4.888c-9.608-19.857-25.418-36.974-45.84-49.62
			C311.976,191.648,307.3,199.635,303.371,206.594z"/>
	</g>
	<g>
		<path d="M375.573,286.462h-35.114l0.137-1.396c0.268-2.717,0.397-5.161,0.397-7.471c0-9.648-1.863-19.192-5.536-28.371
			l-0.489-1.222l3.941-1.425c1.997-0.728,3.994-1.453,5.998-2.163c2.745-0.976,5.553-1.868,8.372-2.764
			c4.311-1.369,8.769-2.787,12.964-4.505l1.167-0.477l0.487,1.162c5.367,12.83,8.086,26.206,8.086,39.765
			c0,2.325-0.102,4.769-0.32,7.689L375.573,286.462z M343.255,283.919h29.953c0.156-2.347,0.231-4.381,0.231-6.323
			c0-12.812-2.493-25.463-7.411-37.624c-3.934,1.544-8.019,2.846-11.98,4.103c-2.791,0.889-5.573,1.773-8.292,2.737
			c-1.997,0.708-3.988,1.43-5.98,2.156l-1.48,0.536c3.477,9.104,5.24,18.547,5.24,28.093
			C343.536,279.583,343.444,281.664,343.255,283.919z"/>
	</g>
	<g>
		<path d="M243.688,291.186l-1.423-0.312c-3.375-0.194-107.365-26.844-119.211-29.881l-7.58-1.945l7.805-0.556
			c4.843-0.345,118.64-8.456,120.356-8.456c0.415,0,0.824,0.025,1.234,0.049l0.268,0.015l2.243-0.167l-0.032,0.365
			c11.198,1.574,19.493,10.058,19.493,20.176c0,11.245-10.366,20.399-23.124,20.438L243.688,291.186z M242.63,288.324l0.41,0.021
			c0.196,0.01,0.395,0.024,0.596,0.024c11.394,0,20.662-8.029,20.662-17.896c0-9.169-7.93-16.818-18.444-17.792l-0.576-0.054
			l-0.124,0.01l-0.44-0.015c-0.357-0.024-0.715-0.044-1.078-0.044c-1.667,0.03-70.242,4.893-112.367,7.893
			c35.876,9.184,108.153,27.582,111.155,27.844l0.002,0.01H242.63z"/>
	</g>
	<g>
		<ellipse cx="240.609" cy="269.44" rx="8.265" ry="8.345"/>
	</g>
	<g>
		<path d="M133.552,267.968l-19.773-9.058l22.962-5.136c1.1-3.39,2.402-6.708,3.939-9.924c-9.395-4.875-19.138-9.224-27.534-15.365
			c-8.108,14.938-12.663,31.567-12.663,49.11c0,2.554,0.129,5.081,0.318,7.595h32.531c-0.246-2.508-0.402-5.036-0.402-7.595
			C132.928,274.34,133.152,271.132,133.552,267.968z"/>
	</g>
</g>
</svg>
