<?xml version="1.0" encoding="utf-8"?>
<!-- Generator: Adobe Illustrator 15.1.0, SVG Export Plug-In . SVG Version: 6.00 Build 0)  -->
<!DOCTYPE svg PUBLIC "-//W3C//DTD SVG 1.1//EN" "http://www.w3.org/Graphics/SVG/1.1/DTD/svg11.dtd">
<svg version="1.1" id="Layer_1" xmlns="http://www.w3.org/2000/svg" xmlns:xlink="http://www.w3.org/1999/xlink" x="0px" y="0px"
	 width="455.589px" height="430.085px" viewBox="0 0 455.589 430.085" enable-background="new 0 0 455.589 430.085"
	 xml:space="preserve">
<g>
	<g>
		<path d="M238.771,122.829c-93.865,0-169.959,74.259-169.959,165.865c0,6.278,0.391,12.466,1.085,18.562h337.748
			c0.694-6.096,1.085-12.284,1.085-18.562C408.729,197.088,332.636,122.829,238.771,122.829z M384.789,296.679H87.035
			c-0.615-5.057-0.959-10.187-0.959-15.391c0-75.939,67.085-137.502,149.836-137.502s149.836,61.563,149.836,137.502
			C385.748,286.493,385.404,291.623,384.789,296.679z"/>
	</g>
	<g>
		<path d="M146.795,242.175c-8.849-4.591-18.024-8.687-25.933-14.472c-7.637,14.069-11.927,29.731-11.927,46.255
			c0,2.404,0.122,4.785,0.299,7.152h30.639c-0.232-2.362-0.379-4.743-0.379-7.152C139.495,262.708,142.103,251.985,146.795,242.175z
			"/>
	</g>
	<g>
		<path d="M202.415,184.579c-1.067-4.618-1.479-10.888-3.34-15.697c-33.182,8.97-60.56,29.067-76.126,55.166
			c6.009,4.369,13.363,7.186,19.882,10.591c2.068,1.081,4.101,2.203,6.119,3.349c11.113-20.022,31.229-35.666,55.865-43.209
			C204.01,191.381,203.201,187.982,202.415,184.579z"/>
	</g>
	<g>
		<path d="M309.218,181.987c-20.404-11.518-44.849-18.24-71.142-18.24c-12.097,0-23.797,1.432-34.898,4.088
			c1.743,4.938,2.215,10.87,3.329,15.616c0.795,3.382,1.598,6.764,2.397,10.146c9.223-2.437,19.012-3.771,29.172-3.771
			c21.145,0,40.716,5.698,56.769,15.368C299.31,197.261,303.94,189.43,309.218,181.987z"/>
	</g>
	<g>
		<path d="M368.028,282.308h-33.072l0.129-1.314c0.252-2.559,0.374-4.86,0.374-7.035c0-9.088-1.754-18.076-5.213-26.722l-0.461-1.15
			l3.712-1.343c1.881-0.686,3.761-1.368,5.649-2.038c2.584-0.919,5.23-1.759,7.885-2.603c4.061-1.289,8.259-2.625,12.21-4.243
			l1.099-0.449l0.458,1.095c5.055,12.084,7.616,24.682,7.616,37.453c0,2.189-0.096,4.49-0.302,7.241L368.028,282.308z
			 M337.59,279.914h28.211c0.147-2.211,0.218-4.126,0.218-5.955c0-12.067-2.349-23.982-6.979-35.437
			c-3.705,1.455-7.553,2.68-11.284,3.864c-2.629,0.837-5.249,1.67-7.81,2.578c-1.88,0.667-3.756,1.347-5.632,2.03l-1.394,0.505
			c3.275,8.575,4.936,17.469,4.936,26.46C337.854,275.83,337.768,277.79,337.59,279.914z"/>
	</g>
	<g>
		<g>
			<path d="M232.862,282.992L232.862,282.992c-6.456,0-12.098-2.803-15.482-7.688c-6.025-8.706-2.914-21.347,6.931-28.218
				l-0.128-0.229l1.286-0.529c2.713-1.659,97.521-36.795,108.323-40.795l6.91-2.561l-5.743,4.615
				c-3.564,2.868-87.323,70.176-88.649,71.093c-0.306,0.218-0.629,0.414-0.952,0.61l-0.8,0.606l-1.158,0.921l-0.159-0.318
				C239.959,282.13,236.396,282.992,232.862,282.992z M226.71,248.388l-0.5,0.322c-0.152,0.092-0.307,0.183-0.454,0.288
				c-8.825,6.111-11.697,17.297-6.406,24.94c2.931,4.229,7.854,6.657,13.513,6.657l0,0c3.527,0,7.092-0.959,10.312-2.774l0.936-0.58
				c0.281-0.168,0.559-0.336,0.831-0.528c1.282-0.922,51.765-41.461,82.767-66.373c-32.7,12.13-98.527,36.648-100.99,38.054
				L226.71,248.388z"/>
		</g>
		<g>
			<path d="M231.845,266.464c-2.47-3.565-1.612-8.444,1.925-10.891c3.532-2.447,8.402-1.539,10.874,2.03
				c2.47,3.564,1.612,8.438-1.925,10.89C239.187,270.941,234.317,270.033,231.845,266.464z"/>
		</g>
	</g>
	<g>
		<g>
			<path d="M335.113,201.317c-6.608-6.428-14.06-12.205-22.242-17.173c-5.3,7.476-9.95,15.344-14.434,23.32
				c2.334,1.546,4.552,3.211,6.71,4.926L335.113,201.317z"/>
		</g>
		<g>
			<path d="M340.359,206.762l-20.321,20.542c3.806,4.865,7.054,10.077,9.625,15.583c1.602-0.575,3.195-1.172,4.797-1.74
				c7.618-2.702,15.948-4.828,23.54-8.032C353.544,223.604,347.573,214.752,340.359,206.762z"/>
		</g>
	</g>
</g>
</svg>
