<?xml version="1.0" encoding="UTF-8" standalone="no"?>
<!-- Created with Inkscape (http://www.inkscape.org/) -->

<svg
   xmlns:dc="http://purl.org/dc/elements/1.1/"
   xmlns:cc="http://creativecommons.org/ns#"
   xmlns:rdf="http://www.w3.org/1999/02/22-rdf-syntax-ns#"
   xmlns:svg="http://www.w3.org/2000/svg"
   xmlns="http://www.w3.org/2000/svg"
   xmlns:sodipodi="http://sodipodi.sourceforge.net/DTD/sodipodi-0.dtd"
   xmlns:inkscape="http://www.inkscape.org/namespaces/inkscape"
   width="52.336857mm"
   height="34.590637mm"
   viewBox="0 0 52.336857 34.590637"
   version="1.1"
   id="svg1026"
   inkscape:version="0.92.2 5c3e80d, 2017-08-06"
   sodipodi:docname="logo.svg">
  <defs
     id="defs1020" />
  <sodipodi:namedview
     id="base"
     pagecolor="#ffffff"
     bordercolor="#666666"
     borderopacity="1.0"
     inkscape:pageopacity="0.0"
     inkscape:pageshadow="2"
     inkscape:zoom="2.8"
     inkscape:cx="49.977292"
     inkscape:cy="57.518608"
     inkscape:document-units="mm"
     inkscape:current-layer="layer1"
     showgrid="false"
     inkscape:window-width="1920"
     inkscape:window-height="1029"
     inkscape:window-x="0"
     inkscape:window-y="24"
     inkscape:window-maximized="1" />
  <metadata
     id="metadata1023">
    <rdf:RDF>
      <cc:Work
         rdf:about="">
        <dc:format>image/svg+xml</dc:format>
        <dc:type
           rdf:resource="http://purl.org/dc/dcmitype/StillImage" />
        <dc:title />
      </cc:Work>
    </rdf:RDF>
  </metadata>
  <g
     inkscape:label="Layer 1"
     inkscape:groupmode="layer"
     id="layer1"
     transform="translate(171.31129,120.95008)">
    <g
       aria-label="{рдо}"
       style="font-style:normal;font-weight:normal;font-size:68.21354675px;line-height:125%;font-family:sans-serif;letter-spacing:0px;word-spacing:0px;fill:#ffffff;fill-opacity:1;stroke:none;stroke-width:0.46493247px;stroke-linecap:butt;stroke-linejoin:miter;stroke-opacity:1"
       id="text975"
       transform="matrix(0.56907912,0,0,0.56907912,-290.84254,-51.182359)">
      <path
         d="m 250.78111,-107.60633 v 15.143407 h 12.0738 v -15.143407 z m 0,26.057574 c -0.27285,0.31833 -0.75035,0.63666 -1.43248,0.95499 -0.68213,0.272854 -1.54617,0.409281 -2.59212,0.409281 -1.04594,0 -2.0464,-0.181903 -3.00139,-0.545708 -0.90951,-0.363805 -1.72808,-0.886776 -2.45569,-1.568912 -0.72761,-0.682135 -1.3188,-1.500698 -1.77355,-2.455687 -0.40928,-0.95499 -0.61392,-2.023669 -0.61392,-3.206037 0,-1.500698 0.40928,-2.614853 1.22784,-3.342464 0.81856,-0.773087 1.75081,-1.15963 2.79676,-1.15963 h 0.5457 v -15.143407 h -6.13716 c -1.01395,-0.0576 -1.16582,-0.97405 -1.16169,-1.19895 v -3.38171 c -0.002,-0.29559 0.2642,-1.11679 1.16582,-1.14928 h 37.38893 c 0.25342,-0.0174 1.11426,0.21395 1.1556,1.17409 v 3.34863 c 0.0138,0.26956 -0.17511,1.17415 -1.23001,1.20722 h -4.44178 v 36.450422 c -0.0135,0.157866 -0.0797,1.162529 -1.23521,1.203455 h -4.95785 c -0.7252,0.0039 -1.20908,-0.649966 -1.174,-1.291153 v -15.421166 h -12.0738 z"
         style="font-style:normal;font-variant:normal;font-weight:600;font-stretch:normal;font-family:'Ek Mukta';-inkscape-font-specification:'Ek Mukta Semi-Bold';fill:#f2f2f2;fill-opacity:1;stroke-width:0.46493247px"
         id="path989"
         inkscape:connector-curvature="0"
         sodipodi:nodetypes="cccccccscscscscccccccccccccccccc" />
      <g
         aria-label="{"
         style="font-style:normal;font-weight:normal;font-size:65.00912476px;line-height:125%;font-family:sans-serif;letter-spacing:0px;word-spacing:0px;fill:#b3b3b3;fill-opacity:1;stroke:none;stroke-width:0.46493247px;stroke-linecap:butt;stroke-linejoin:miter;stroke-opacity:1"
         id="text1006">
        <path
           d="m 219.53462,-82.031884 q 0,4.355611 0.13002,7.476049 0.13002,3.120438 0.78011,5.070712 0.7151,2.015283 2.08029,2.92541 1.43021,0.975137 3.96556,0.975137 h 0.32505 q 1.4302,0 1.4302,1.430201 v 0.910128 q 0,1.4302 -1.4302,1.4302 h -0.32505 q -3.83554,0 -6.04585,-1.300182 -2.1453,-1.235173 -3.25045,-3.70552 -1.10516,-2.405338 -1.3652,-5.850821 -0.26003,-3.510493 -0.26003,-7.996123 0,-3.835538 -0.97514,-5.655794 -0.97514,-1.820255 -2.99042,-3.120438 -0.91013,-0.585082 -1.23517,-1.105155 -0.32505,-0.520073 -0.32505,-1.300182 v -0.78011 q 0,-0.780109 0.32505,-1.300182 0.32504,-0.520073 1.23517,-1.105155 2.01528,-1.300183 2.99042,-3.120438 0.97514,-1.820256 0.97514,-5.655793 0,-4.48563 0.26003,-7.93111 0.26004,-3.5105 1.3652,-5.91583 1.10515,-2.40534 3.25045,-3.64052 2.21031,-1.30018 6.04585,-1.30018 h 0.32505 q 1.4302,0 1.4302,1.4302 v 0.91013 q 0,1.4302 -1.4302,1.4302 h -0.32505 q -2.53535,0 -3.96556,0.97514 -1.36519,0.91013 -2.08029,2.92541 -0.65009,1.95027 -0.78011,5.07071 -0.13002,3.05543 -0.13002,7.41104 0,3.835539 -1.17016,6.305886 -1.17016,2.405337 -3.70552,3.900547 2.53536,1.49521 3.70552,3.965557 1.17016,2.405337 1.17016,6.240876 z"
           style="font-style:normal;font-variant:normal;font-weight:300;font-stretch:normal;font-family:Rubik;-inkscape-font-specification:'Rubik Light';fill:#b3b3b3;fill-opacity:1;stroke-width:0.46493247px"
           id="path1606" />
      </g>
      <g
         aria-label="{"
         transform="scale(-1,1)"
         style="font-style:normal;font-weight:normal;font-size:65.00912476px;line-height:125%;font-family:sans-serif;letter-spacing:0px;word-spacing:0px;fill:#b3b3b3;fill-opacity:1;stroke:none;stroke-width:0.46493247px;stroke-linecap:butt;stroke-linejoin:miter;stroke-opacity:1"
         id="text1010">
        <path
           d="m -292.51959,-82.031884 q 0,4.355611 0.13002,7.476049 0.13002,3.120438 0.78011,5.070712 0.7151,2.015283 2.08029,2.92541 1.4302,0.975137 3.96556,0.975137 h 0.32504 q 1.4302,0 1.4302,1.430201 v 0.910128 q 0,1.4302 -1.4302,1.4302 h -0.32504 q -3.83554,0 -6.04585,-1.300182 -2.1453,-1.235173 -3.25046,-3.70552 -1.10515,-2.405338 -1.36519,-5.850821 -0.26004,-3.510493 -0.26004,-7.996123 0,-3.835538 -0.97513,-5.655794 -0.97514,-1.820255 -2.99042,-3.120438 -0.91013,-0.585082 -1.23518,-1.105155 -0.32504,-0.520073 -0.32504,-1.300182 v -0.78011 q 0,-0.780109 0.32504,-1.300182 0.32505,-0.520073 1.23518,-1.105155 2.01528,-1.300183 2.99042,-3.120438 0.97513,-1.820256 0.97513,-5.655793 0,-4.48563 0.26004,-7.93111 0.26004,-3.5105 1.36519,-5.91583 1.10516,-2.40534 3.25046,-3.64052 2.21031,-1.30018 6.04585,-1.30018 h 0.32504 q 1.4302,0 1.4302,1.4302 v 0.91013 q 0,1.4302 -1.4302,1.4302 h -0.32504 q -2.53536,0 -3.96556,0.97514 -1.36519,0.91013 -2.08029,2.92541 -0.65009,1.95027 -0.78011,5.07071 -0.13002,3.05543 -0.13002,7.41104 0,3.835539 -1.17016,6.305886 -1.17017,2.405337 -3.70552,3.900547 2.53535,1.49521 3.70552,3.965557 1.17016,2.405337 1.17016,6.240876 z"
           style="font-style:normal;font-variant:normal;font-weight:300;font-stretch:normal;font-family:Rubik;-inkscape-font-specification:'Rubik Light';fill:#b3b3b3;fill-opacity:1;stroke-width:0.46493247px"
           id="path1609" />
      </g>
    </g>
  </g>
</svg>
