<?xml version="1.0" encoding="utf-8"?>
<!-- Generator: Adobe Illustrator 15.1.0, SVG Export Plug-In . SVG Version: 6.00 Build 0)  -->
<!DOCTYPE svg PUBLIC "-//W3C//DTD SVG 1.1//EN" "http://www.w3.org/Graphics/SVG/1.1/DTD/svg11.dtd">
<svg version="1.1" id="Layer_1" xmlns="http://www.w3.org/2000/svg" xmlns:xlink="http://www.w3.org/1999/xlink" x="0px" y="0px"
	 width="841.89px" height="595.28px" viewBox="0 0 841.89 595.28" enable-background="new 0 0 841.89 595.28" xml:space="preserve">
<g>
	<g>
		<path d="M290.84,502.427c4.047,0.427,8.124,0.026,12.175-0.137c4.377-0.176,8.757-0.275,13.138-0.372
			c8.761-0.194,17.521-0.361,26.272-0.889c0.716-0.042,0.72-1.16,0-1.116c-8.749,0.527-17.512,0.696-26.272,0.887
			c-4.38,0.097-8.761,0.208-13.138,0.374c-4.055,0.151-8.125,0.562-12.175,0.137C290.124,501.233,290.132,502.352,290.84,502.427
			L290.84,502.427z"/>
	</g>
	<g>
		<path d="M264.523,500.927c8.73,0.32,17.548-0.066,26.276-0.302c0.718-0.02,0.722-1.138,0-1.116
			c-8.728,0.234-17.546,0.622-26.276,0.302C263.803,499.784,263.805,500.902,264.523,500.927L264.523,500.927z"/>
	</g>
	<g>
		<g>
			<path d="M350.477,117.042c-0.336,3.934-6.886,6.532-10.279,5.514c-0.691-0.208-0.986,0.87-0.297,1.077
				c4.173,1.252,11.29-1.86,11.692-6.591C351.657,116.323,350.537,116.329,350.477,117.042L350.477,117.042z"/>
		</g>
		<g>
			<path d="M341.491,124.135c1.028,0.782-0.546,3.852-0.947,4.684c-1.08,2.256-4.072,5.311-6.778,5.262
				c-0.722-0.012-0.722,1.105,0,1.118c3.254,0.058,6.563-3.347,7.866-6.069c0.752-1.573,2.188-4.614,0.421-5.958
				C341.48,122.734,340.925,123.705,341.491,124.135L341.491,124.135z"/>
		</g>
		<g>
			<path d="M336.349,134.43c0.216,0.168,0.21,1.081,0.212,1.329c0.004,0.869-0.506,1.704-1.066,2.322
				c-0.904,0.998-2.887,1.456-4.007,0.593c-0.572-0.44-1.128,0.532-0.566,0.964c1.686,1.298,4.307,0.398,5.591-1.019
				c0.716-0.791,1.07-1.816,1.165-2.86c0.052-0.555-0.065-1.751-0.539-2.119C336.578,133.203,335.781,133.987,336.349,134.43
				L336.349,134.43z"/>
		</g>
		<g>
			<path d="M331.364,140.049c0.119,0.533-0.512,0.855-0.887,1.059c-0.591,0.317-1.286,0.283-1.884,0.017
				c-1.567-0.699-1.628-2.44-0.625-3.621c0.464-0.546-0.321-1.341-0.789-0.791c-0.776,0.913-1.191,1.839-1.003,3.044
				c0.169,1.083,1.22,2.16,2.234,2.498c1.581,0.526,4.504-0.379,4.03-2.502C332.284,139.049,331.206,139.347,331.364,140.049
				L331.364,140.049z"/>
		</g>
		<g>
			<path d="M327.367,137.564c-0.356-2.25-3.095-3.79-5.264-3.264c-2.448,0.595-4.055,2.705-4.334,5.179
				c-0.265,2.356,0.437,4.568,2.464,5.912c2.013,1.334,4.544,0.68,5.773-1.297c0.383-0.614-0.583-1.174-0.964-0.564
				c-1.155,1.855-3.309,1.731-4.864,0.443c-1.17-0.967-1.409-2.63-1.343-4.044c0.079-1.652,0.949-3.204,2.325-4.101
				c1.797-1.172,4.778-0.175,5.129,2.034C326.4,138.571,327.479,138.269,327.367,137.564L327.367,137.564z"/>
		</g>
		<g>
			<path d="M322.935,139.199c-0.135-0.173,0.063-0.393,0.262-0.297c0.144,0.068,0.154,0.349,0.162,0.483
				c0.029,0.462-0.108,1.169-0.537,1.43c-0.614,0.375-0.052,1.34,0.566,0.965c1.043-0.636,1.334-2.235,0.875-3.301
				c-0.679-1.592-3.385-0.13-2.292,1.285C322.403,140.325,323.373,139.77,322.935,139.199L322.935,139.199z"/>
		</g>
		<g>
			<path d="M323.752,145.831c5.137,2.842,3.354,14.156-2.334,15.367c-0.705,0.149-0.406,1.226,0.296,1.077
				c6.68-1.42,8.574-14.104,2.602-17.409C323.685,144.516,323.123,145.481,323.752,145.831L323.752,145.831z"/>
		</g>
		<g>
			<path d="M323.685,160.873c3.018,2.845-2.038,6.748-4.123,7.969c-2.702,1.582-5.92,2.021-8.994,1.939
				c-2.889-0.078-5.783-0.989-8.358-2.251c-3.076-1.506-4.334-4-4.479-7.307c-0.033-0.718-1.151-0.721-1.118,0
				c0.154,3.516,1.324,5.952,4.315,7.872c3.591,2.307,8.32,3.046,12.498,2.737c3.73-0.276,7.327-1.929,10.023-4.494
				c1.813-1.725,3.124-5.276,1.024-7.255C323.951,159.589,323.16,160.377,323.685,160.873L323.685,160.873z"/>
		</g>
		<g>
			<path d="M288.665,143.498c-6.366,7.503-1.432,21.293,8.965,21.501c0.722,0.014,0.72-1.103,0-1.117
				c-9.369-0.187-13.926-12.817-8.176-19.594C289.916,143.741,289.131,142.947,288.665,143.498L288.665,143.498z"/>
		</g>
		<g>
			<path d="M291.81,118.459c-5.897,1.778-9.005,7.675-9.59,13.489c-0.502,4.988,1.628,12.635,7.643,12.841
				c0.722,0.024,0.72-1.093,0-1.117c-5.512-0.188-6.73-7.44-6.524-11.724c0.25-5.263,3.578-10.847,8.769-12.413
				C292.795,119.329,292.501,118.25,291.81,118.459L291.81,118.459z"/>
		</g>
		<g>
			<path d="M310.161,92.6c-13.078-1.659-23.124,15.286-19.271,26.698c0.229,0.679,1.309,0.388,1.078-0.297
				c-3.642-10.783,5.82-26.854,18.193-25.282C310.875,93.809,310.867,92.689,310.161,92.6L310.161,92.6z"/>
		</g>
		<g>
			<path d="M309.835,92.88c0.116-2.941,1.646-6.131,4.527-7.213c2.298-0.863,5.918-0.207,7.694,1.417
				c0.531,0.485,1.322-0.303,0.791-0.79c-2.384-2.179-6.445-2.582-9.405-1.469c-3.047,1.144-4.605,5.068-4.725,8.056
				C308.688,93.601,309.807,93.598,309.835,92.88L309.835,92.88z"/>
		</g>
		<g>
			<path d="M320.382,85.487c1.852-5.666,11.75-7.674,16.761-7.522c6.072,0.185,15.428,5.136,17.218,11.386
				c0.198,0.691,1.276,0.397,1.078-0.297c-1.929-6.736-10.986-11.331-17.396-12.137c-3.92-0.492-7.935,0.538-11.509,2.086
				c-2.937,1.273-6.17,2.947-7.229,6.188C319.082,85.876,320.161,86.169,320.382,85.487L320.382,85.487z"/>
		</g>
		<g>
			<path d="M379.9,107.638c0.72,0,0.72-1.117,0-1.117S379.181,107.638,379.9,107.638L379.9,107.638z"/>
		</g>
		<g>
			<path d="M379.831,107.638c4.538,0.094,3.351,8.214,1.072,10.29c-0.535,0.485,0.258,1.273,0.789,0.79
				c3.046-2.772,3.77-12.081-1.861-12.197C379.109,106.506,379.109,107.624,379.831,107.638L379.831,107.638z"/>
		</g>
		<g>
			<path d="M382.266,117.324c2.731,1.004,1.107,7.462-1.041,8.407c-0.658,0.29-0.089,1.252,0.564,0.965
				c3.12-1.374,4.484-9.085,0.773-10.449C381.885,115.998,381.596,117.079,382.266,117.324L382.266,117.324z"/>
		</g>
		<g>
			<path d="M323.718,175.035c-2.485-1.308-4.794-2.863-6.903-4.721c-0.537-0.474-1.33,0.313-0.789,0.79
				c2.178,1.92,4.559,3.544,7.128,4.896C323.793,176.334,324.356,175.37,323.718,175.035L323.718,175.035z"/>
		</g>
		<g>
			<path d="M375.262,111.829c2.209,5.199,4.113,10.406,5.167,15.98c1.582,8.342,0.052,16.897-2.714,24.826
				c-2.482,7.121-6.588,13.681-12.304,18.637c-7.071,6.133-16.534,8.438-25.726,8.027c-0.72-0.032-0.718,1.086,0,1.118
				c9.055,0.403,17.955-1.798,25.231-7.316c6.226-4.72,10.487-11.534,13.333-18.712c3.101-7.825,4.681-16.612,3.561-24.986
				c-0.851-6.349-3.099-12.286-5.585-18.138C375.945,110.603,374.983,111.173,375.262,111.829L375.262,111.829z"/>
		</g>
		<g>
			<path d="M362.558,149.246c1.074-1.292,5.568-1.506,5.177,0.975c-0.306,1.947-2.571,3.567-4.477,3.339
				c-0.714-0.085-0.704,1.033,0,1.117c2.641,0.316,5.635-2.205,5.622-4.909c-0.018-3.207-5.57-3.17-7.112-1.312
				C361.311,149.005,362.098,149.8,362.558,149.246L362.558,149.246z"/>
		</g>
		<g>
			<path d="M344.286,152.563c0.585,4.848,4.673,8.193,9.042,9.816c4.036,1.499,10.649,2.923,13.978-0.715
				c0.487-0.531-0.302-1.323-0.789-0.79c-2.642,2.886-7.854,1.924-11.18,1.019c-4.423-1.202-9.342-4.434-9.935-9.331
				C345.317,151.858,344.199,151.85,344.286,152.563L344.286,152.563z"/>
		</g>
		<g>
			<path d="M342.59,154.9c0.366-1.163,3.133-3.11,4.278-2.081c0.535,0.48,1.328-0.308,0.791-0.79
				c-1.846-1.658-5.514,0.558-6.147,2.574C341.295,155.292,342.375,155.585,342.59,154.9L342.59,154.9z"/>
		</g>
		<g>
			<path d="M342.105,142.161c5.916-1.226,11.944-0.553,17.814,0.606c0.704,0.138,1.004-0.938,0.296-1.077
				c-6.07-1.2-12.291-1.875-18.407-0.606C341.104,141.23,341.403,142.308,342.105,142.161L342.105,142.161z"/>
		</g>
		<g>
			<path d="M343.054,140.87c-1.12-6.312,2.23-13.172,9.174-13.687c6.619-0.49,8.566,10.118,6.519,14.624
				c-0.294,0.65,0.668,1.219,0.966,0.564c2.294-5.052,0.346-16.055-6.748-16.281c-8.11-0.26-12.26,7.923-10.987,15.076
				C342.104,141.875,343.181,141.574,343.054,140.87L343.054,140.87z"/>
		</g>
		<g>
			<path d="M366.848,141.528c-0.007,0.017-0.015,0.033-0.023,0.05c-0.219,0.451,0.133,0.92,0.629,0.82
				c4.425-0.888,9.117-0.85,13.611-0.775c0.722,0.013,0.72-1.104,0-1.117c-4.6-0.077-9.377-0.095-13.907,0.815
				c0.21,0.273,0.421,0.546,0.631,0.821c0.008-0.018,0.015-0.034,0.023-0.05C368.124,141.446,367.162,140.878,366.848,141.528
				L366.848,141.528z"/>
		</g>
		<g>
			<path d="M369.217,141.042c-3.36-4.15,1.351-13.308,6.394-13.64c5.89-0.388,5.208,9.652,4.588,13.095
				c-0.125,0.704,0.951,1.005,1.078,0.297c0.882-4.888,0.999-14.95-6.353-14.464c-5.926,0.39-10.035,11.133-6.498,15.501
				C368.878,142.392,369.664,141.596,369.217,141.042L369.217,141.042z"/>
		</g>
		<g>
			<path d="M375.36,140.424c-0.102-2.228-0.046-4.218,1.188-6.168c0.777-1.226,2.113-2.009,3.218-0.56
				c0.593,0.777,0.795,1.832,0.729,2.783c-0.05,0.72,1.068,0.715,1.116,0c0.135-1.994-1.534-5.937-4.17-4.539
				c-3.037,1.61-3.335,5.478-3.197,8.484C374.277,141.142,375.395,141.145,375.36,140.424L375.36,140.424z"/>
		</g>
		<g>
			<path d="M354.74,140.939c-0.646-1.742-0.747-3.483-0.187-5.27c0.41-1.306,1.634-3.822,3.381-3.073
				c1.973,0.846,1.636,5.224,1.384,6.912c-0.104,0.704,0.972,1.007,1.08,0.296c0.323-2.178,0.603-8.493-2.933-8.492
				c-1.751,0.001-2.794,1.475-3.514,2.902c-1.11,2.199-1.136,4.738-0.289,7.021C353.913,141.906,354.992,141.617,354.74,140.939
				L354.74,140.939z"/>
		</g>
		<g>
			<path d="M371.113,123.116c1.21-1.16,3.233-0.729,4.378,0.245c0.544,0.465,1.339-0.322,0.789-0.789
				c-1.617-1.377-4.282-1.852-5.958-0.245C369.802,122.826,370.593,123.616,371.113,123.116L371.113,123.116z"/>
		</g>
		<g>
			<path d="M349.744,124.269c1.62-1.271,6.02-1.53,6.992,0.801c0.271,0.655,1.355,0.369,1.078-0.296
				c-1.332-3.198-6.488-3.155-8.861-1.294C348.385,123.923,349.184,124.708,349.744,124.269L349.744,124.269z"/>
		</g>
		<g>
			<path d="M290.062,167.662c17.395,4.859,35.222,8.226,52.468,13.629c0.691,0.216,0.981-0.862,0.296-1.077
				c-17.247-5.404-35.072-8.771-52.468-13.629C289.664,166.391,289.37,167.469,290.062,167.662L290.062,167.662z"/>
		</g>
		<g>
			<path d="M289.466,166.987c-1.034,2.496-1.488,5.483-1.865,8.147c-0.098,0.705,0.978,1.007,1.078,0.296
				c0.375-2.664,0.831-5.65,1.861-8.147C290.817,166.618,289.735,166.331,289.466,166.987L289.466,166.987z"/>
		</g>
		<g>
			<path d="M291.725,172.753c2.747,0.204,5.493,0.564,8.188,1.132c0.702,0.148,1-0.929,0.296-1.078
				c-2.791-0.587-5.643-0.959-8.484-1.171C291.005,171.583,291.011,172.701,291.725,172.753L291.725,172.753z"/>
		</g>
		<g>
			<path d="M285.646,199.11c-13.861,36.239-22.991,73.915-34.695,110.85c-0.219,0.688,0.858,0.981,1.074,0.296
				c11.707-36.935,20.837-74.61,34.698-110.849C286.981,198.733,285.901,198.444,285.646,199.11L285.646,199.11z"/>
		</g>
		<g>
			<path d="M251.005,310.391c3.349,5.115,10.435,7.506,15.924,9.354c9.263,3.118,19.019,4.833,28.706,5.967
				c10.16,1.188,20.506,1.603,30.705,0.639c6.827-0.643,14.65-1.79,20.218-6.136c0.254-0.2,0.493-0.416,0.731-0.635
				c0.533-0.485-0.26-1.274-0.789-0.789c-5.194,4.738-13.478,5.773-20.16,6.443c-9.554,0.958-19.259,0.55-28.792-0.43
				c-9.559-0.983-19.117-2.688-28.316-5.494c-5.724-1.748-13.765-4.144-17.26-9.484C251.578,309.227,250.61,309.786,251.005,310.391
				L251.005,310.391z"/>
		</g>
		<g>
			<path d="M352.754,201.494c-1.94,18.207-2.702,36.579-3.686,54.854c-1.126,20.933-2.179,41.881-2.733,62.839
				c-0.021,0.72,1.097,0.718,1.116,0c0.554-20.958,1.613-41.907,2.735-62.839c0.978-18.275,1.746-36.648,3.684-54.854
				C353.947,200.776,352.827,200.784,352.754,201.494L352.754,201.494z"/>
		</g>
		<g>
			<path d="M280.135,177.674c8.484-3.869,18.114-0.794,26.666,1.266c0.698,0.169,0.997-0.908,0.296-1.077
				c-8.892-2.143-18.716-5.171-27.525-1.154C278.917,177.008,279.485,177.97,280.135,177.674L280.135,177.674z"/>
		</g>
		<g>
			<path d="M338.087,181.175c5.943,0.947,11.744,2.452,17.398,4.511c0.68,0.247,0.968-0.833,0.296-1.077
				c-5.654-2.06-11.453-3.564-17.398-4.512C337.677,179.986,337.375,181.062,338.087,181.175L338.087,181.175z"/>
		</g>
		<g>
			<path d="M279.185,177.003c-12.951,21.727-24.935,44-37.343,66.036c-0.356,0.628,0.61,1.191,0.964,0.564
				c12.408-22.036,24.392-44.309,37.345-66.036C280.521,176.946,279.554,176.384,279.185,177.003L279.185,177.003z"/>
		</g>
		<g>
			<path d="M355.529,185.733c0.466,0.551,0.722,1.724,0.978,2.437c0.643,1.797,1.228,3.614,1.811,5.431
				c1.811,5.647,3.501,11.333,5.156,17.027c4.111,14.124,8.012,28.336,11.243,42.688c0.158,0.704,1.236,0.405,1.076-0.296
				c-3.286-14.595-7.268-29.038-11.448-43.398c-1.678-5.769-3.404-11.526-5.248-17.246c-0.708-2.19-1.24-5.613-2.779-7.432
				C355.854,184.393,355.067,185.187,355.529,185.733L355.529,185.733z"/>
		</g>
		<g>
			<path d="M355.052,262.811c-1.93,0.329-3.866,0.542-5.826,0.588c-0.718,0.017-0.72,1.134,0,1.117
				c2.058-0.048,4.096-0.283,6.125-0.627C356.059,263.768,355.758,262.691,355.052,262.811L355.052,262.811z"/>
		</g>
		<g>
			<path d="M349.865,257.597c3.863-2.842,8.509-4.981,13.205-5.914c2.648-0.526,5.385-0.487,8.058-0.237
				c0.997,0.094,1.958,0.202,2.875,0.626c2.773,1.283-2.204,4.569-2.723,4.91c-0.601,0.393-0.041,1.36,0.564,0.964
				c1.959-1.282,4.282-2.846,3.878-5.472c-0.285-1.846-3.233-2.013-4.594-2.145c-7.841-0.755-15.499,1.647-21.825,6.303
				C348.728,257.054,349.286,258.024,349.865,257.597L349.865,257.597z"/>
		</g>
		<g>
			<path d="M270.231,246.15c-7.389-4.002-16.159-5.495-24.5-4.427c-0.762,0.097-4.565,0.334-3.994,2.079
				c0.899,2.741,4.24,3.5,6.719,4.092c0.701,0.167,0.997-0.91,0.296-1.077c-1.397-0.333-2.718-0.71-4.024-1.322
				c-0.922-0.335-1.303-1.081-1.143-2.237c0.437-0.094,0.874-0.181,1.314-0.258c2.933-0.547,5.874-0.428,8.841-0.314
				c5.608,0.214,11.001,1.761,15.926,4.428C270.301,247.458,270.865,246.492,270.231,246.15L270.231,246.15z"/>
		</g>
		<g>
			<path d="M354.272,251.267c-0.141,0-0.281-0.053-0.391-0.159c-0.219-0.213-0.225-0.568-0.012-0.789
				c0.073-0.074,1.79-1.828,4.115-2.701c0.287-0.108,0.612,0.038,0.72,0.327c0.109,0.289-0.037,0.611-0.325,0.72
				c-2.084,0.781-3.691,2.416-3.707,2.433C354.563,251.21,354.419,251.267,354.272,251.267z"/>
		</g>
		<g>
			<path d="M380.703,316.598c-2.213,0-4.477-0.222-6.657-0.733c-11.553-2.71-19.579-59.294-19.914-61.701
				c-0.042-0.306,0.169-0.588,0.476-0.631c0.294-0.047,0.587,0.169,0.629,0.476c0.083,0.582,8.25,58.231,19.065,60.768
				c9.727,2.281,19.643-1.301,20.835-3.531c0.162-0.302,0.129-0.5-0.115-0.728c-2.461-2.3-6.559,0.05-6.6,0.073
				c-0.266,0.154-0.61,0.065-0.764-0.2c-0.156-0.268-0.065-0.608,0.2-0.766c0.196-0.116,4.864-2.787,7.926,0.075
				c0.614,0.571,0.735,1.325,0.339,2.072C394.847,314.157,388.053,316.598,380.703,316.598z"/>
		</g>
		<g>
			<path d="M368.867,250.752c0.098,2.38,0.768,4.812,1.218,7.139c0.77,3.992,1.58,7.975,2.338,11.968
				c2.331,12.301,5.643,24.388,8.661,36.531c0.173,0.699,1.251,0.403,1.078-0.297c-2.929-11.783-6.29-23.531-8.468-35.486
				c-0.667-3.672-1.418-7.329-2.138-10.991c-0.564-2.878-1.449-5.921-1.57-8.864C369.954,250.035,368.838,250.032,368.867,250.752
				L368.867,250.752z"/>
		</g>
		<g>
			<path d="M381.484,306.196c3.603-0.475,7.036-1.633,10.576-2.419c0.703-0.154,0.406-1.232-0.296-1.076
				c-3.438,0.761-6.78,1.917-10.279,2.378C380.78,305.171,380.772,306.289,381.484,306.196L381.484,306.196z"/>
		</g>
		<g>
			<path d="M392.042,303.777c2.839,1.13,5.653,2.322,8.484,3.473c3.395,1.378,6.897,3.11,10.589,3.321
				c0.72,0.043,0.716-1.075,0-1.116c-3.564-0.206-7.009-1.958-10.292-3.283c-2.833-1.145-5.643-2.341-8.484-3.471
				C391.669,302.435,391.381,303.515,392.042,303.777L392.042,303.777z"/>
		</g>
		<g>
			<path d="M410.646,310.371c1.04,3.43-15.258,2.437-16.875,2.319c-0.72-0.052-0.714,1.066,0,1.118
				c2.375,0.17,19.681,1.971,17.953-3.733C411.516,309.386,410.438,309.681,410.646,310.371L410.646,310.371z"/>
		</g>
		<g>
			<path d="M395.907,305.338c1.913,0.536,3.926,0.758,5.88,1.09c0.879,0.15,8.258,1.162,7.055,2.932
				c-0.408,0.597,0.562,1.154,0.964,0.563c2.896-4.263-11.401-5.045-13.603-5.662C395.509,304.066,395.214,305.145,395.907,305.338
				L395.907,305.338z"/>
		</g>
		<g>
			<path d="M226.43,316.607c-4.938,0-9.273-1.348-11.873-3.045c-1.499-0.978-2.331-2.017-2.406-3.006
				c-0.042-0.591,0.187-1.132,0.668-1.56c3.127-2.79,7.731-0.018,7.925,0.101c0.264,0.161,0.345,0.506,0.185,0.77
				c-0.16,0.262-0.504,0.347-0.768,0.185c-0.042-0.024-4.098-2.455-6.598-0.223c-0.291,0.262-0.31,0.492-0.298,0.643
				c0.046,0.604,0.756,1.408,1.901,2.155c3.239,2.117,9.81,3.741,16.574,2.312c0.96-0.202,2.102-0.974,3.392-2.29
				c12.036-12.28,31.94-66.766,32.139-67.316c0.105-0.29,0.425-0.439,0.716-0.333c0.291,0.105,0.441,0.426,0.335,0.716
				c-0.818,2.251-20.187,55.264-32.391,67.717c-1.466,1.497-2.762,2.348-3.958,2.6C230.083,316.43,228.216,316.607,226.43,316.607z"
				/>
		</g>
		<g>
			<path d="M249.5,243.321c-0.237,2.538-2.182,6.088-3.146,8.625c-2.373,6.244-4.783,12.475-7.169,18.715
				c-4.411,11.536-9.384,23.123-12.669,35.047c-0.19,0.696,0.887,0.991,1.08,0.297c3.284-11.924,8.257-23.51,12.668-35.046
				c2.384-6.24,4.792-12.472,7.167-18.716c1.032-2.709,2.914-5.991,3.188-8.921C250.683,242.604,249.565,242.61,249.5,243.321
				L249.5,243.321z"/>
		</g>
		<g>
			<path d="M227.355,304.716c-3.542-0.545-6.902-1.777-10.374-2.626c-0.701-0.171-0.997,0.906-0.296,1.077
				c3.47,0.85,6.832,2.081,10.374,2.626C227.761,305.901,228.063,304.826,227.355,304.716L227.355,304.716z"/>
		</g>
		<g>
			<path d="M216.406,302.083c-2.641,0.982-5.26,2.021-7.891,3.025c-3.501,1.339-7.258,3.169-11.032,3.304
				c-0.718,0.023-0.72,1.144,0,1.116c3.491-0.123,6.776-1.63,10.012-2.843c3.077-1.153,6.128-2.379,9.209-3.525
				C217.371,302.912,217.084,301.831,216.406,302.083L216.406,302.083z"/>
		</g>
		<g>
			<path d="M196.872,309.03c-1.792,5.476,15.056,4.361,17.462,4.255c0.718-0.034,0.72-1.15,0-1.118
				c-1.855,0.083-17.456,0.434-16.384-2.839C198.175,308.64,197.093,308.349,196.872,309.03L196.872,309.03z"/>
		</g>
		<g>
			<path d="M212.509,303.557c-2.236,0.572-16.528,1.01-13.707,5.363c0.391,0.603,1.357,0.043,0.964-0.563
				c-1.11-1.717,5.807-2.56,6.45-2.66c2.186-0.341,4.442-0.513,6.59-1.063C213.502,304.455,213.206,303.378,212.509,303.557
				L212.509,303.557z"/>
		</g>
		<g>
			<path d="M326.618,183.337c5.832,0.65,11.638,1.5,17.458,2.234c0.714,0.09,0.704-1.029,0-1.117
				c-5.82-0.734-11.626-1.584-17.458-2.234C325.902,182.14,325.912,183.258,326.618,183.337L326.618,183.337z"/>
		</g>
		<g>
			<path d="M339.049,323.035c-4.713,23.388-9.397,46.781-14.061,70.177c-5.708,28.634-11.821,57.241-16.788,86.016
				c-0.148,0.868-0.608,2.161-0.393,3.051c0.169,0.7,1.245,0.403,1.078-0.297c-0.298-1.235,0.812-4.838,1.109-6.447
				c0.995-5.418,2.04-10.826,3.087-16.232c3.185-16.455,6.443-32.896,9.709-49.335c5.593-28.16,11.232-56.313,16.898-84.46
				c0.146-0.724,0.292-1.447,0.437-2.175C340.267,322.629,339.189,322.331,339.049,323.035L339.049,323.035z"/>
		</g>
		<g>
			<path d="M262.645,317.797c-0.733,23.979-1.466,47.959-2.2,71.938c-0.868,28.39-1.734,56.779-2.604,85.167
				c-0.017,0.607-0.037,1.216-0.054,1.826c-0.021,0.722,1.095,0.718,1.116,0c0.733-23.98,1.466-47.959,2.198-71.939
				c0.87-28.39,1.736-56.777,2.604-85.167c0.019-0.608,0.037-1.217,0.058-1.824C263.784,317.075,262.666,317.077,262.645,317.797
				L262.645,317.797z"/>
		</g>
		<g>
			<path d="M298.238,358.881c-4.735,39.952-10.416,79.824-13.973,119.91c-0.044,0.492-0.087,0.983-0.131,1.476
				c-0.06,0.718,1.057,0.712,1.118,0c3.47-40.364,9.203-80.522,14.026-120.737c0.025-0.216,0.052-0.433,0.077-0.648
				C299.439,358.165,298.323,358.175,298.238,358.881L298.238,358.881z"/>
		</g>
		<g>
			<path d="M284.337,480.265c5.889,5.368,17.423,5.728,24.373,2.652c0.658-0.293,0.09-1.255-0.562-0.966
				c-6.436,2.85-17.558,2.502-23.022-2.478C284.595,478.991,283.804,479.778,284.337,480.265L284.337,480.265z"/>
		</g>
		<g>
			<path d="M257.864,477.009c6.317,8.289,17.822,8.654,26.425,3.835c0.627-0.352,0.065-1.316-0.566-0.964
				c-8.008,4.486-18.957,4.357-24.895-3.434C258.397,475.881,257.425,476.435,257.864,477.009L257.864,477.009z"/>
		</g>
		<g>
			<path d="M292.307,484.067c2.465,3.963,7.219,7.795,12.125,7.301c4.288-0.436,2.91-5.786,1.507-8.153
				c-0.366-0.619-1.334-0.058-0.964,0.562c0.672,1.136,1.182,2.254,1.322,3.587c0.325,3.047-2.86,3.146-5.004,2.62
				c-3.185-0.782-6.328-3.759-8.02-6.48C292.894,482.894,291.925,483.454,292.307,484.067L292.307,484.067z"/>
		</g>
		<g>
			<path d="M290.235,483.27c0.42,6.097-0.217,12.193,0.069,18.295c0.035,0.718,1.151,0.72,1.118,0
				c-0.287-6.102,0.349-12.198-0.071-18.295C291.304,482.553,290.186,482.549,290.235,483.27L290.235,483.27z"/>
		</g>
		<g>
			<path d="M307.834,482.269c1.73,2.167,4.7,2.623,7.217,3.381c4.092,1.234,8.287,2.104,12.406,3.237
				c2.997,0.826,19.781,5.664,14.781,11.096c-0.487,0.529,0.302,1.322,0.791,0.791c4.563-4.958-4.704-9.315-8.307-10.709
				c-3.932-1.521-8.047-2.58-12.131-3.597c-2.423-0.603-4.842-1.205-7.242-1.894c-2.296-0.66-5.167-1.146-6.727-3.095
				C308.175,480.915,307.39,481.712,307.834,482.269L307.834,482.269z"/>
		</g>
		<g>
			<path d="M264.937,482.091c0.025-0.082,0.054-0.163,0.079-0.244c-0.364-0.05-0.729-0.1-1.095-0.148
				c0.294,6.179-0.252,12.428,0.046,18.671c0.033,0.716,1.151,0.72,1.116,0c-0.298-6.243,0.249-12.492-0.046-18.671
				c-0.029-0.639-0.895-0.75-1.097-0.147c-0.027,0.08-0.054,0.161-0.083,0.244C263.63,482.48,264.71,482.771,264.937,482.091
				L264.937,482.091z"/>
		</g>
		<g>
			<path d="M267.768,483.302c1.744,4.151,6.401,6.521,10.803,6.193c4.878-0.363,4.621-4.794,2.001-7.754
				c-0.478-0.541-1.267,0.254-0.791,0.789c1.38,1.559,3.054,4.3-0.023,5.573c-1.371,0.57-3.037,0.331-4.431,0.021
				c-2.739-0.61-5.383-2.506-6.482-5.121C268.572,482.352,267.491,482.636,267.768,483.302L267.768,483.302z"/>
		</g>
		<g>
			<path d="M311.641,338.346c5.25,1.233,11.355,1.953,16.353-0.521c0.645-0.32,0.079-1.284-0.564-0.967
				c-4.694,2.325-10.578,1.563-15.493,0.41C311.237,337.104,310.94,338.182,311.641,338.346L311.641,338.346z"/>
		</g>
		<g>
			<path d="M321.046,342.351c1.457,0.279,2.893,0.19,4.299-0.281c0.682-0.227,0.389-1.307-0.296-1.077
				c-1.215,0.407-2.444,0.523-3.707,0.278C320.638,341.136,320.34,342.212,321.046,342.351L321.046,342.351z"/>
		</g>
		<g>
			<path d="M273.239,335.311c2.762,1.651,6.344,1.226,9.371,0.708c0.708-0.123,0.406-1.197-0.298-1.078
				c-2.713,0.466-6.034,0.886-8.507-0.595C273.184,333.975,272.622,334.94,273.239,335.311L273.239,335.311z"/>
		</g>
		<g>
			<path d="M273.519,338.942c1.413,0.675,2.881,0.387,4.38,0.262c0.712-0.06,0.718-1.178,0-1.118
				c-1.241,0.104-2.639,0.454-3.814-0.108C273.438,337.668,272.87,338.63,273.519,338.942L273.519,338.942z"/>
		</g>
		<path d="M380.986,135.35c0.223-0.366,0.356-0.781,0.356-1.176c0-1.33-1.024-2.085-2.232-2.235
			c-3.724-0.458-4.524,3.795-4.842,6.518c-0.058,0.492,0.1,0.92,0.372,1.27c0.27,0.943,1.137,1.497,2.144,1.618
			c0.8,0.095,1.615,0.009,2.419,0c1.288-0.016,2.144-1.009,2.234-2.235C381.53,137.837,381.403,136.55,380.986,135.35z"/>
		<path d="M359.973,138.488c-0.015-0.793-0.167-1.573-0.55-2.262c0.058-0.133,0.109-0.275,0.146-0.434
			c0.349-1.495,0.11-2.7-1.155-3.653c-1.184-0.89-2.929-0.033-3.707,0.958c-1.276,1.626-1.468,3.914-1.484,5.919
			c-0.01,1.333,1.036,2.083,2.236,2.234c0.358,0.045,0.708,0.121,1.062,0.189c0.308,0.264,0.604,0.455,1.016,0.579
			c1.157,0.349,2.44-0.405,2.749-1.561c0.007-0.035,0.017-0.069,0.027-0.104C360.489,139.695,360.341,139.018,359.973,138.488z"/>
		<g>
			<path d="M353.414,86.1c8.971-4.173,20.841-0.506,21.501,10.538c0.042,0.716,1.161,0.721,1.118,0
				c-0.302-5.03-3.021-9.291-7.38-11.794c-4.721-2.709-11.084-1.905-15.805,0.292C352.196,85.439,352.766,86.402,353.414,86.1
				L353.414,86.1z"/>
		</g>
		<g>
			<path d="M374.221,97.489c4.821-0.209,6.59,6.373,4.917,9.82c-1.73,3.568-6.03,5.593-9.536,6.896
				c-8.262,3.07-17.57,3.353-25.913,0.529c-0.686-0.232-0.974,0.847-0.297,1.077c10.162,3.44,22.832,2.585,32.06-3.205
				c3.072-1.925,6.091-5.343,5.537-9.233c-0.448-3.155-3.141-7.16-6.769-7.002C373.503,96.403,373.499,97.52,374.221,97.489
				L374.221,97.489z"/>
		</g>
		<g>
			<path d="M478.104,184.026c-1.955,8.839-7.019,17.479-11.592,25.231c-1.532,2.595-7.125,9.971-9.457,3.922
				c-1.165-3.025-0.135-6.898,0.433-9.955c0.129-0.705-0.947-1.006-1.078-0.297c-0.656,3.537-1.589,7.544-0.248,11.025
				c1.284,3.333,4.859,2.934,7.202,1.106c3.634-2.836,5.569-7.889,7.724-11.827c3.208-5.863,6.638-12.329,8.095-18.908
				C479.338,183.621,478.261,183.322,478.104,184.026L478.104,184.026z"/>
		</g>
		<g>
			<path d="M456.501,210.149c-1.407-1.92-4.969-2.26-7.075-1.466c-2.361,0.891-3.156,4.003-3.256,6.232
				c-0.238,5.351,5.908,9.766,9.702,4.736c0.435-0.575-0.537-1.13-0.965-0.564c-1.59,2.106-4.084,2.198-6.005,0.44
				c-1.245-1.137-1.585-3.019-1.616-4.612c-0.03-1.715,0.604-3.362,1.727-4.637c1.233-1.403,5.393-1.108,6.522,0.436
				C455.956,211.289,456.927,210.731,456.501,210.149L456.501,210.149z"/>
		</g>
		<g>
			<path d="M453.714,213.923c0.023-0.182,0.025-0.318-0.019-0.498c-0.058-0.219-0.301-0.438-0.539-0.41
				c-1.832,0.21-2.125,3.031-0.22,3.401c0.705,0.137,1.005-0.94,0.297-1.078c-0.339-0.065-0.501-0.219-0.503-0.571
				c-0.002-0.233,0.154-0.605,0.426-0.636c-0.181-0.138-0.36-0.273-0.541-0.411c-0.044-0.177-0.012,0.142-0.02,0.201
				C452.506,214.637,453.624,214.628,453.714,213.923L453.714,213.923z"/>
		</g>
		<g>
			<path d="M461.124,218.372c0.599-0.116,1.051-0.45,1.382-0.955c0.398-0.604-0.569-1.163-0.964-0.564
				c-0.18,0.271-0.402,0.381-0.715,0.442C460.121,217.434,460.422,218.511,461.124,218.372L461.124,218.372z"/>
		</g>
		<g>
			<path d="M473.114,187.506c3.991-0.575,7.306-4.122,9.78-7.046c3.138-3.707,5.478-8.047,7.777-12.298
				c0.343-0.634-0.621-1.198-0.964-0.564c-1.861,3.439-3.772,6.838-6.033,10.033c-2.485,3.509-6.346,8.147-10.859,8.798
				C472.105,186.532,472.408,187.608,473.114,187.506L473.114,187.506z"/>
		</g>
		<g>
			<path d="M488.348,170.805c-1.415,3.922,0.135,10.061,2.748,13.257c1.412,1.726,3.006,2.588,5.229,1.945
				c1.899-0.55,2.378-3.16,2.782-4.756c0.178-0.699-0.9-0.995-1.077-0.297c-0.46,1.823-0.724,3.995-3.233,4.214
				c-2.225,0.194-3.68-2.972-4.348-4.586c-1.172-2.831-2.096-6.508-1.024-9.48C489.67,170.422,488.592,170.132,488.348,170.805
				L488.348,170.805z"/>
		</g>
		<g>
			<path d="M498.104,180.916c0.296,3.096,2.413,5.932,5.296,7.106c3.285,1.34,4.764-1.85,4.854-4.591
				c0.023-0.721-1.095-0.719-1.118,0c-0.086,2.659-1.36,4.655-4.097,3.199c-2.05-1.089-3.598-3.415-3.816-5.713
				C499.154,180.206,498.034,180.199,498.104,180.916L498.104,180.916z"/>
		</g>
		<g>
			<path d="M507.229,182.592c0.333,6.193,8.141,10.687,13.438,6.791c2.518-1.851,1.994-5.679,1.178-8.24
				c-1.148-3.613-4.332-6.21-7.631-7.786c-0.645-0.309-1.213,0.654-0.563,0.965c4.661,2.225,8.643,6.726,7.562,12.253
				c-0.638,3.247-4.821,3.325-7.27,2.73c-3.16-0.766-5.424-3.509-5.597-6.713C508.308,181.876,507.189,181.872,507.229,182.592
				L507.229,182.592z"/>
		</g>
		<g>
			<path d="M513.134,174.611c3.124-4.366-2.859-7.542-6.186-8.928c-5.194-2.166-12.835-4.099-18.395-2.252
				c-0.682,0.226-0.39,1.305,0.296,1.077c4.506-1.497,10.131-0.146,14.53,1.118c2.974,0.854,12.047,3.869,8.79,8.42
				C511.75,174.634,512.721,175.191,513.134,174.611L513.134,174.611z"/>
		</g>
		<g>
			<path d="M520.465,189.602c0.866,0.151,1.092,2.579,1.142,3.189c0.077,0.936-0.054,1.892-0.224,2.81
				c-0.202,1.094-1.126,4.449-2.646,4.237c-0.702-0.099-1.008,0.978-0.296,1.077c2.359,0.33,3.37-2.678,3.897-4.497
				c0.484-1.669,1.039-7.439-1.576-7.893C520.057,188.401,519.757,189.478,520.465,189.602L520.465,189.602z"/>
		</g>
		<g>
			<path d="M489.127,163.338c-5.638-2.275-10.959-5.25-17.185-3.595c-5.216,1.388-10.12,5.537-14.056,9.069
				c-8.745,7.847-15.277,18.068-20.559,28.467c-8.812,17.352-16.216,38.454-13.505,58.181c0.099,0.711,1.174,0.407,1.076-0.297
				c-2.529-18.406,4.346-38.532,12.329-55.165c4.826-10.058,10.878-19.684,18.666-27.717c3.822-3.94,8.166-7.356,12.979-10.001
				c7.135-3.921,13.166-0.604,19.956,2.135C489.5,164.686,489.787,163.604,489.127,163.338L489.127,163.338z"/>
		</g>
		<g>
			<path d="M423.791,255.265c0.165,3.646,4.061,6.013,7.423,5.004c3.235-0.969,4.352-5.348,4.588-8.251
				c0.058-0.718-1.061-0.713-1.118,0c-0.187,2.281-0.847,4.631-2.457,6.324c-2.44,2.562-7.166,0.278-7.319-3.077
				C424.874,254.547,423.758,254.544,423.791,255.265L423.791,255.265z"/>
		</g>
		<g>
			<path d="M433.498,258.239c-0.012-0.009-0.026-0.018-0.04-0.025c-0.435-0.257-0.934,0.162-0.82,0.631
				c0.632,2.653,3.882,3.591,6.223,2.751c2.718-0.976,3.16-4.307,3.018-6.786c-0.042-0.716-1.158-0.72-1.118,0
				c0.107,1.863-0.021,3.88-1.451,5.243c-1.62,1.545-5.069,0.699-5.595-1.505c-0.273,0.211-0.547,0.42-0.819,0.631
				c0.013,0.008,0.028,0.017,0.042,0.024C433.558,259.571,434.12,258.605,433.498,258.239L433.498,258.239z"/>
		</g>
		<g>
			<path d="M440.593,259.282c1.257,1.991,3.745,2.549,5.506,0.866c1.463-1.398,1.838-3.871,1.888-5.792
				c0.02-0.72-1.097-0.719-1.116,0c-0.038,1.391-0.284,2.8-0.904,4.056c-0.943,1.913-3.196,2.225-4.409,0.306
				C441.172,258.111,440.205,258.671,440.593,259.282L440.593,259.282z"/>
		</g>
		<g>
			<path d="M516.252,190.861c5.228,17.352-2.893,38.319-19.34,46.433c-14.656,7.229-36.678-1.26-42.005-16.952
				c-0.229-0.678-1.309-0.387-1.077,0.297c5.408,15.931,26.582,24.296,41.812,18.422c18.265-7.044,27.125-30.454,21.688-48.497
				C517.122,189.876,516.042,190.169,516.252,190.861L516.252,190.861z"/>
		</g>
		<g>
			<path d="M504.27,266.074c0.672,1.668,1.897,2.808,3.78,2.495c1.776-0.295,3.021-2.088,3.442-3.706
				c0.184-0.697-0.895-0.993-1.077-0.296c-0.652,2.5-3.79,4.383-5.067,1.21C505.082,265.118,504,265.405,504.27,266.074
				L504.27,266.074z"/>
		</g>
		<g>
			<path d="M476.08,239.404c-0.612,2.302,1.312,5.155,2.669,6.873c1.784,2.26,4.833,3.94,7.753,3.587
				c2.098-0.255,3.308-2.056,3.682-3.975c0.49-2.531-0.757-4.691-2.948-5.841c-0.638-0.336-1.201,0.629-0.562,0.964
				c4.354,2.286,2.5,8.807-2.573,7.568c-1.824-0.446-3.341-1.735-4.562-3.094c-1.131-1.261-2.857-3.997-2.38-5.787
				C477.345,239.003,476.265,238.708,476.08,239.404L476.08,239.404z"/>
		</g>
		<g>
			<path d="M499.518,214.066c0.777-1.354,4.181-1.965,4.217,0.235c0.025,1.445-2.137,2.763-3.311,3.134
				c-0.685,0.217-0.393,1.295,0.297,1.078c1.899-0.601,4.663-2.631,4.03-4.94c-0.341-1.234-1.758-1.805-2.906-1.858
				c-1.309-0.061-2.645,0.662-3.291,1.788C498.193,214.127,499.158,214.69,499.518,214.066L499.518,214.066z"/>
		</g>
		<g>
			<path d="M483.951,217.275c0.023,1.95,2.315,3.498,3.688,4.562c2.004,1.554,4.29,2.611,6.702,3.36
				c5.313,1.653,11.54,1.011,15.354-3.337c0.475-0.539-0.314-1.333-0.789-0.79c-3.305,3.767-8.189,4.35-12.882,3.406
				c-2.24-0.452-4.365-1.377-6.314-2.549c-1.307-0.788-4.619-2.898-4.641-4.652C485.061,216.555,483.942,216.554,483.951,217.275
				L483.951,217.275z"/>
		</g>
		<g>
			<path d="M483.372,219.31c0.372-1.502,2.181-2.482,3.644-1.984c0.684,0.233,0.976-0.846,0.296-1.077
				c-2.022-0.689-4.507,0.7-5.017,2.765C482.123,219.711,483.201,220.009,483.372,219.31L483.372,219.31z"/>
		</g>
		<g>
			<path d="M487.672,225.804c0.375,0.914,1.191,1.289,2.146,1.318c0.722,0.022,0.718-1.095,0-1.118
				c-0.383-0.011-0.902-0.091-1.067-0.498C488.48,224.849,487.398,225.136,487.672,225.804L487.672,225.804z"/>
		</g>
		<g>
			<path d="M481.167,208.177c5.421-1.305,10.985-0.024,16.253,1.397c0.696,0.188,0.993-0.89,0.298-1.077
				c-5.466-1.475-11.228-2.751-16.848-1.397C480.17,207.268,480.466,208.346,481.167,208.177L481.167,208.177z"/>
		</g>
		<g>
			<path d="M504.9,210.711c3.938,0.081,7.722,0.466,11.383,2.019c0.654,0.278,1.224-0.684,0.562-0.965
				c-3.86-1.639-7.781-2.085-11.944-2.171C504.181,209.579,504.183,210.697,504.9,210.711L504.9,210.711z"/>
		</g>
		<g>
			<path d="M507.275,210.152c0.065-4.343,2.298-9.769,7.428-9.831c4.142-0.051,2.38,9.06,1.378,11.132
				c-0.314,0.646,0.65,1.212,0.964,0.564c1.326-2.738,3.031-11.469-1.312-12.626c-2.385-0.636-4.646,0.689-6.407,2.195
				c-2.46,2.102-3.119,5.499-3.168,8.566C506.147,210.873,507.264,210.872,507.275,210.152L507.275,210.152z"/>
		</g>
		<g>
			<path d="M487.025,206.661c0.065-4.502,3.027-9.914,8.054-10.108c5.59-0.217,3.55,9.421,2.37,12.263
				c-0.277,0.666,0.804,0.953,1.077,0.297c1.449-3.49,3.158-13.19-2.94-13.641c-5.876-0.435-9.604,6.058-9.679,11.188
				C485.896,207.382,487.014,207.381,487.025,206.661L487.025,206.661z"/>
		</g>
		<g>
			<path d="M491.328,194.905c2.025-1.789,6.169-1.113,8.08,0.559c0.541,0.471,1.334-0.315,0.791-0.79
				c-2.4-2.098-7.143-2.786-9.66-0.559C489.999,194.594,490.792,195.381,491.328,194.905L491.328,194.905z"/>
		</g>
		<g>
			<path d="M511.294,198.105c1.975-1.252,4.726-0.381,6.588,0.685c0.628,0.358,1.188-0.607,0.564-0.964
				c-2.214-1.266-5.393-2.158-7.714-0.684C510.124,197.525,510.685,198.493,511.294,198.105L511.294,198.105z"/>
		</g>
		<g>
			<path d="M475.572,239.109c-3.913-0.449-6.711-3.803-10.672-4.15c-2.577-0.226-4.887,1.353-6.623,3.073
				c-2.207,2.188-3.714,5.083-5.139,7.805c-2.042,3.901-4.126,7.777-6.016,11.756c-8.863,18.66-14.002,38.854-18.086,59.022
				c-0.143,0.704,0.934,1.002,1.076,0.296c3.807-18.792,8.572-37.461,16.291-55.067c2.978-6.79,6.316-13.8,10.339-20.052
				c1.865-2.899,4.47-5.712,8.157-5.715c3.811-0.004,6.83,3.708,10.672,4.15C476.286,240.31,476.278,239.19,475.572,239.109
				L475.572,239.109z"/>
		</g>
		<g>
			<path d="M488.134,241.138c3.053,0.734,5.906-2.031,8.695,0.519c2.138,1.953,2.589,5.667,3.152,8.346
				c1.935,9.166,4.479,18.407,7.556,27.252c0.237,0.676,1.316,0.385,1.08-0.297c-3.289-9.444-5.785-19.248-7.936-29.008
				c-0.585-2.66-1.358-5.527-3.437-7.425c-2.829-2.585-5.759,0.271-8.815-0.462C487.729,239.893,487.434,240.97,488.134,241.138
				L488.134,241.138z"/>
		</g>
		<g>
			<path d="M503.435,309.209c0.302,2.278,0.603,4.562,0.908,6.84c0.094,0.704,1.212,0.712,1.116,0
				c-0.305-2.278-0.604-4.562-0.906-6.84C504.458,308.505,503.34,308.497,503.435,309.209L503.435,309.209z"/>
		</g>
		<g>
			<path d="M495.963,252.75c1.854,14.008,3.707,28.015,5.562,42.022c0.092,0.704,1.21,0.712,1.116,0
				c-1.854-14.008-3.707-28.014-5.562-42.022C496.986,252.047,495.869,252.038,495.963,252.75L495.963,252.75z"/>
		</g>
		<g>
			<path d="M466.346,236.32c4.675,1.398,5.383,6.818,5.805,10.984c0.07,0.71,1.189,0.717,1.116,0
				c-0.476-4.722-1.394-10.496-6.625-12.061C465.951,235.035,465.656,236.114,466.346,236.32L466.346,236.32z"/>
		</g>
		<g>
			<path d="M491.843,249.188c0.009,1.689-1.007,3.051-2.446,3.848c-0.632,0.349-0.067,1.314,0.562,0.965
				c1.78-0.984,3.014-2.741,3.003-4.812C492.955,248.469,491.839,248.468,491.843,249.188L491.843,249.188z"/>
		</g>
		<g>
			<path d="M478.971,287.108c-6.479-0.047-11.977,5.729-14.346,11.283c-0.77,1.807-1.64,5.112-0.129,6.818
				c1.682,1.901,4.019,1.368,5.972,0.165c0.612-0.377,0.052-1.343-0.563-0.964c-1.211,0.745-2.408,1.326-3.894,0.681
				c-1.723-0.746-1.138-3.555-0.845-4.821c0.512-2.216,1.852-4.271,3.226-6.042c2.463-3.178,6.416-6.032,10.579-6.002
				C479.692,288.231,479.69,287.114,478.971,287.108L478.971,287.108z"/>
		</g>
		<g>
			<path d="M461.401,260.016c5.685,9.409,11.104,18.948,17.46,27.934c0.411,0.583,1.38,0.026,0.964-0.564
				c-6.354-8.985-11.774-18.524-17.458-27.934C461.994,258.836,461.027,259.396,461.401,260.016L461.401,260.016z"/>
		</g>
		<g>
			<path d="M447.715,279.406c4.893,9.61,10.434,18.227,17.404,26.463c0.468,0.551,1.255-0.244,0.791-0.79
				c-6.917-8.173-12.381-16.709-17.23-26.237C448.353,278.2,447.389,278.766,447.715,279.406L447.715,279.406z"/>
		</g>
		<g>
			<path d="M478.822,288.205c0.789,0.259,0.063,1.669-0.242,2.066c-0.438,0.571,0.531,1.127,0.966,0.565
				c0.834-1.083,1.199-3.176-0.427-3.708C478.432,286.904,478.14,287.983,478.822,288.205L478.822,288.205z"/>
		</g>
		<g>
			<path d="M502.341,291.717c-0.313-2.509-0.429-4.966,0.162-7.447c0.335-1.404,1.085-2.57,2.06-3.607
				c0.203-0.217,3.027-2.453,3.192-2.323c1.804,1.417,3.604,2.839,5.404,4.26c5.175,4.089,10.418,8.121,15.439,12.399
				c0.544,0.464,1.339-0.322,0.791-0.79c-6.806-5.799-13.942-11.236-20.973-16.759c-0.146-0.115-0.351-0.224-0.545-0.144
				c-6.312,2.604-7.433,8.158-6.647,14.412C501.313,292.422,502.432,292.43,502.341,291.717L502.341,291.717z"/>
		</g>
		<g>
			<path d="M476.417,288.717c1.468,2.727,4.33,4.313,6.975,5.717c0.635,0.338,1.199-0.626,0.562-0.964
				c-2.473-1.314-5.194-2.762-6.572-5.317C477.038,287.519,476.074,288.083,476.417,288.717L476.417,288.717z"/>
		</g>
		<g>
			<path d="M480.793,292.858c16.115,1.479,32.077,4.229,48.2,5.633c0.72,0.063,0.712-1.055,0-1.117
				c-16.123-1.404-32.085-4.154-48.2-5.633C480.073,291.674,480.081,292.792,480.793,292.858L480.793,292.858z"/>
		</g>
		<g>
			<path d="M529.32,298.396c1.812-1.791,3.811-3.388,5.446-5.353c0.458-0.549-0.327-1.344-0.789-0.79
				c-1.638,1.965-3.634,3.562-5.446,5.354C528.017,298.114,528.808,298.904,529.32,298.396L529.32,298.396z"/>
		</g>
		<g>
			<path d="M550.666,295.768c0.633,0.003-0.62,2.059-0.733,2.205c-0.507,0.644-1.182,1.141-1.859,1.59
				c-1.263,0.838-2.7,1.399-4.12,1.905c-0.674,0.239-0.384,1.319,0.296,1.076c2.359-0.839,4.78-1.866,6.473-3.782
				c0.819-0.929,2.274-4.101-0.056-4.112C549.945,294.646,549.945,295.764,550.666,295.768L550.666,295.768z"/>
		</g>
		<g>
			<path d="M548.989,300.609c0.635-0.064-0.093,1.082-0.192,1.208c-0.293,0.359-0.672,0.641-1.051,0.898
				c-0.702,0.475-1.495,0.827-2.304,1.079c-0.686,0.215-0.393,1.294,0.296,1.078c1.465-0.458,2.997-1.212,3.977-2.423
				c0.751-0.929,1.064-3.141-0.726-2.958C548.281,299.564,548.273,300.682,548.989,300.609L548.989,300.609z"/>
		</g>
		<g>
			<path d="M534.59,293.093c2.021-0.781,3.839-1.989,5.956-2.524c0.19-0.048,2.087-0.499,1.521,0.616
				c-0.256,0.503-0.735,0.931-1.132,1.319c-0.91,0.892-2.013,1.573-2.944,2.449c-0.525,0.495,0.268,1.283,0.791,0.79
				c1.235-1.162,6.049-3.896,4.189-6.102c-0.652-0.771-2.504-0.204-3.254-0.015c-1.917,0.484-3.594,1.682-5.424,2.39
				C533.627,292.273,533.916,293.354,534.59,293.093L534.59,293.093z"/>
		</g>
		<g>
			<path d="M547.463,303.856c2.244,1.068-1.287,2.594-2.265,2.961c-2.014,0.756-4.373,0.617-6.477,0.464
				c-2.868-0.21-5.777-0.816-8.532-1.643c-0.863-0.26-2.673,0.503-3.563,0.672c-1.625,0.309-3.259,0.569-4.896,0.813
				c-3.993,0.596-8.018,0.999-12.044,1.292c-8.532,0.62-17.196,0.643-25.68-0.551c-6.596-0.928-14.252-2.667-18.887-7.838
				c-0.48-0.536-1.268,0.256-0.789,0.79c4.946,5.519,13.158,7.31,20.186,8.237c9.898,1.308,19.972,1.04,29.889,0.079
				c4.022-0.389,8.033-0.936,12.012-1.652c1.002-0.18,2.829-0.951,3.777-0.678c1.639,0.471,3.307,0.826,4.985,1.129
				c4.261,0.769,8.708,1.057,12.6-1.104c1.736-0.964,2.254-2.983,0.249-3.937C547.379,302.584,546.812,303.547,547.463,303.856
				L547.463,303.856z"/>
		</g>
		<g>
			<path d="M542.99,298.474l-0.275-1.083c0.065-0.017,6.588-1.689,8.788-3.667c0.853-0.769,0.868-1.189,0.839-1.222
				c-0.113-0.13-0.868-0.149-1.695,0.528c-1.901,1.555-10.016,2.078-10.936,2.132l-0.065-1.116
				c3.464-0.205,9.064-0.875,10.295-1.881c1.182-0.966,2.607-1.139,3.248-0.391c0.22,0.256,0.801,1.214-0.938,2.779
				C549.846,296.716,543.27,298.403,542.99,298.474z"/>
		</g>
		<g>
			<path d="M563.979,314.482h-35.054c-0.311,0-0.561-0.25-0.561-0.559v-7.519c0-0.31,0.25-0.559,0.561-0.559
				c0.308,0,0.558,0.249,0.558,0.559v6.961h33.938v-41.482h-33.869v24.915c0,0.309-0.25,0.558-0.56,0.558
				c-0.309,0-0.559-0.25-0.559-0.558v-25.473c0-0.309,0.25-0.559,0.559-0.559h34.986c0.309,0,0.559,0.25,0.559,0.559v42.598
				C564.538,314.232,564.288,314.482,563.979,314.482z"/>
		</g>
		<g>
			<path d="M417.75,314.482c-0.308,0-0.558-0.25-0.558-0.559v-42.133h-43.948c-0.31,0-0.56-0.249-0.56-0.558s0.25-0.559,0.56-0.559
				h44.506c0.31,0,0.56,0.25,0.56,0.559v42.691C418.31,314.232,418.06,314.482,417.75,314.482z"/>
		</g>
		<g>
			<path d="M356.996,271.791h-7.412c-0.308,0-0.558-0.249-0.558-0.558s0.25-0.559,0.558-0.559h7.412c0.308,0,0.558,0.25,0.558,0.559
				S357.304,271.791,356.996,271.791z"/>
		</g>
		<g>
			<path d="M655.462,316.604H347.429c-0.31,0-0.56-0.248-0.56-0.559c0-0.308,0.25-0.558,0.56-0.558h308.033
				c0.308,0,0.558,0.25,0.558,0.558C656.02,316.355,655.77,316.604,655.462,316.604z"/>
		</g>
		<g>
			<path d="M214.955,314.055h-39.664c-0.31,0-0.56-0.25-0.56-0.558c0-0.31,0.25-0.559,0.56-0.559h39.664
				c0.31,0,0.56,0.249,0.56,0.559C215.515,313.805,215.265,314.055,214.955,314.055z"/>
		</g>
		<g>
			<path d="M253.597,314.055h-17.319c-0.308,0-0.558-0.25-0.558-0.558c0-0.31,0.25-0.559,0.558-0.559h17.319
				c0.308,0,0.558,0.249,0.558,0.559C254.155,313.805,253.905,314.055,253.597,314.055z"/>
		</g>
		<g>
			<path d="M650.433,324.302H350.102c-0.616,0-1.116-0.501-1.116-1.116c0-0.618,0.5-1.118,1.116-1.118h300.331
				c0.618,0,1.118,0.5,1.118,1.118C651.551,323.801,651.051,324.302,650.433,324.302z"/>
		</g>
		<g>
			<path d="M654.923,316.469c1.634,3.783-3.188,6.281-6.213,6.061c-0.304-0.021-0.558,0.271-0.558,0.56c0,23.975,0,47.951,0,71.928
				c0,28.386,0,56.771,0,85.158c0,0.607,0,1.216,0,1.824c0.185-0.187,0.371-0.372,0.558-0.559c-14.088,0-28.174,0-42.26,0
				c-32.474,0-64.947,0-97.421,0c-36.181,0-72.359,0-108.542,0c-25.207,0-50.413,0-75.619,0c-3.903,0-7.804,0-11.704,0
				c-0.722,0-0.722,1.118,0,1.118c14.086,0,28.172,0,42.258,0c32.474,0,64.947,0,97.421,0c36.18,0,72.36,0,108.541,0
				c25.206,0,50.413,0,75.621,0c3.901,0,7.802,0,11.703,0c0.304,0,0.559-0.256,0.559-0.56c0-23.977,0-47.953,0-71.93
				c0-28.384,0-56.771,0-85.155c0-0.608,0-1.217,0-1.825c-0.187,0.185-0.372,0.372-0.559,0.559c4.005,0.292,9.132-3.218,7.177-7.745
				C655.602,315.244,654.64,315.814,654.923,316.469L654.923,316.469z"/>
		</g>
		
			<line fill="none" stroke="#000000" stroke-width="2" stroke-linecap="round" stroke-linejoin="round" stroke-miterlimit="10" x1="258.345" y1="321.792" x2="190.095" y2="321.792"/>
		<g>
			<path d="M260.995,482.693h-75.927c-0.31,0-0.56-0.248-0.56-0.558c0-0.309,0.25-0.559,0.56-0.559h75.927
				c0.308,0,0.558,0.25,0.558,0.559C261.553,482.445,261.303,482.693,260.995,482.693z"/>
		</g>
		<g>
			<path d="M642.053,316.604h-5.587c-0.308,0-0.558-0.248-0.558-0.559v-98.211c0-0.309,0.25-0.559,0.558-0.559
				c0.31,0,0.558,0.25,0.558,0.559v97.653h4.472v-97.653c0-0.309,0.248-0.559,0.558-0.559c0.309,0,0.559,0.25,0.559,0.559v98.211
				C642.611,316.355,642.361,316.604,642.053,316.604z"/>
		</g>
		<g>
			<g>
				<path d="M604.621,185.534c0.945,8.829,0.406,17.616,0.295,26.468c-0.01,0.721,1.108,0.721,1.118,0
					c0.109-8.853,0.648-17.639-0.296-26.468C605.663,184.825,604.545,184.818,604.621,185.534L604.621,185.534z"/>
			</g>
			<g>
				<path d="M605.741,185.713c-0.032-2.563,2.797-3.278,4.885-3.307c0.72-0.01,0.72-1.127,0-1.117
					c-2.73,0.038-6.043,1.195-6.003,4.424C604.633,186.433,605.749,186.434,605.741,185.713L605.741,185.713z"/>
			</g>
			<g>
				<path d="M610.053,182.406c16.913-1.336,33.834-1.886,50.798-1.956c0.72-0.002,0.72-1.12,0-1.117
					c-16.964,0.069-33.885,0.619-50.798,1.956C609.339,181.345,609.333,182.463,610.053,182.406L610.053,182.406z"/>
			</g>
			<g>
				<path d="M665.829,211.761c-0.942-8.817-0.404-17.588-0.292-26.427c0.008-0.721-1.109-0.72-1.118,0
					c-0.112,8.839-0.651,17.61,0.294,26.427C664.788,212.469,665.906,212.477,665.829,211.761L665.829,211.761z"/>
			</g>
			<g>
				<path d="M664.711,211.582c0.031,2.563-2.798,3.278-4.887,3.306c-0.72,0.011-0.722,1.128,0,1.117
					c2.731-0.038,6.046-1.194,6.003-4.423C665.819,210.861,664.701,210.861,664.711,211.582L664.711,211.582z"/>
			</g>
			<g>
				<path d="M604.916,212.002c-0.025,3.224,3.38,5.855,6.426,5.958c0.723,0.025,0.721-1.092,0-1.118
					c-2.441-0.083-5.327-2.245-5.308-4.841C606.038,211.281,604.922,211.282,604.916,212.002L604.916,212.002z"/>
			</g>
			<g>
				<path d="M661.108,180.455c2.563-0.032,3.281,2.789,3.311,4.88c0.009,0.72,1.128,0.721,1.118,0
					c-0.037-2.733-1.201-6.037-4.429-5.997C660.389,179.346,660.387,180.463,661.108,180.455L661.108,180.455z"/>
			</g>
			<g>
				<path d="M660.398,214.888c-16.244,1.287-32.474,1.889-48.768,1.955c-0.72,0.003-0.72,1.12,0,1.118
					c16.294-0.066,32.523-0.669,48.768-1.956C661.112,215.949,661.116,214.831,660.398,214.888L660.398,214.888z"/>
			</g>
		</g>
		<g>
			<g>
				<path d="M608.833,187.371c0.806,7.594,0.35,15.146,0.252,22.759c-0.008,0.721,1.108,0.72,1.118,0
					c0.098-7.613,0.552-15.166-0.254-22.759C609.874,186.663,608.756,186.655,608.833,187.371L608.833,187.371z"/>
			</g>
			<g>
				<path d="M609.951,187.525c-0.027-2.156,2.371-2.741,4.122-2.764c0.722-0.011,0.722-1.128,0-1.118
					c-2.393,0.033-5.273,1.059-5.239,3.882C608.842,188.246,609.96,188.246,609.951,187.525L609.951,187.525z"/>
			</g>
			<g>
				<path d="M613.58,184.761c14.545-1.148,29.093-1.622,43.679-1.682c0.72-0.003,0.72-1.12,0-1.117
					c-14.586,0.061-29.134,0.534-43.679,1.681C612.866,183.7,612.862,184.818,613.58,184.761L613.58,184.761z"/>
			</g>
			<g>
				<path d="M661.618,209.923c-0.805-7.581-0.351-15.122-0.252-22.723c0.012-0.721-1.106-0.72-1.116,0
					c-0.1,7.602-0.555,15.142,0.252,22.723C660.577,210.631,661.695,210.639,661.618,209.923L661.618,209.923z"/>
			</g>
			<g>
				<path d="M660.5,209.769c0.027,2.157-2.371,2.741-4.122,2.765c-0.72,0.01-0.722,1.127,0,1.117
					c2.39-0.033,5.277-1.058,5.238-3.882C661.606,209.048,660.488,209.048,660.5,209.769L660.5,209.769z"/>
			</g>
			<g>
				<path d="M609.085,210.13c-0.02,2.816,2.94,5.112,5.604,5.202c0.722,0.024,0.718-1.093,0-1.117
					c-2.058-0.07-4.502-1.896-4.486-4.085C610.209,209.409,609.091,209.41,609.085,210.13L609.085,210.13z"/>
			</g>
			<g>
				<path d="M657.482,183.083c2.155-0.027,2.742,2.364,2.768,4.117c0.01,0.72,1.128,0.721,1.116,0
					c-0.032-2.393-1.062-5.27-3.884-5.235C656.761,181.974,656.761,183.091,657.482,183.083L657.482,183.083z"/>
			</g>
			<g>
				<path d="M656.87,212.534c-13.969,1.104-27.924,1.623-41.933,1.681c-0.72,0.003-0.72,1.12,0,1.117
					c14.009-0.059,27.964-0.576,41.933-1.681C657.584,213.595,657.59,212.477,656.87,212.534L656.87,212.534z"/>
			</g>
		</g>
		<g>
			<path d="M631.038,234.445c-0.976,4.27-3.194,8.481-4.88,12.511c-2.176,5.202-4.352,10.405-6.479,15.628
				c-4.365,10.716-8.422,21.553-11.825,32.616c-0.211,0.691,0.866,0.984,1.078,0.297c3.299-10.732,7.229-21.241,11.433-31.649
				c2.105-5.219,4.283-10.411,6.457-15.604c1.82-4.349,4.241-8.888,5.294-13.501C632.278,234.041,631.2,233.743,631.038,234.445
				L631.038,234.445z"/>
		</g>
		<g>
			<path d="M633.833,235.423c-8.067,19.934-15.237,40.215-23.186,60.197c-0.266,0.669,0.816,0.958,1.078,0.296
				c7.948-19.98,15.117-40.262,23.186-60.196C635.18,235.052,634.099,234.764,633.833,235.423L633.833,235.423z"/>
		</g>
		<g>
			<path d="M631.928,234.989c0.674-0.77,2.355-0.22,1.822,0.905c-0.306,0.647,0.656,1.215,0.965,0.564
				c0.479-1.013,0.25-2.062-0.745-2.645c-0.886-0.519-2.146-0.402-2.833,0.385C630.665,234.739,631.452,235.533,631.928,234.989
				L631.928,234.989z"/>
		</g>
		<g>
			<path d="M607.912,295.066c-0.637,0.905,0.803,1.553,1.455,1.691c1.078,0.228,2.273-0.159,2.498-1.353
				c0.135-0.704-0.942-1.004-1.077-0.297c-0.101,0.535-0.52,0.66-1.026,0.59c-0.227-0.032-0.458-0.096-0.664-0.197
				c-0.064-0.031-0.157-0.083-0.199-0.118c-0.091-0.076-0.062,0.305-0.021,0.25C609.295,295.04,608.324,294.483,607.912,295.066
				L607.912,295.066z"/>
		</g>
		<g>
			<path d="M617.212,280.413c2.133,5.61,1.459,12.002,0.404,17.776c-1.069,5.854-2.592,12.652-7.058,16.876
				c-0.525,0.495,0.268,1.284,0.791,0.791c4.46-4.221,5.882-10.549,7.139-16.344c1.346-6.208,2.105-13.333-0.198-19.397
				C618.036,279.449,616.956,279.738,617.212,280.413L617.212,280.413z"/>
		</g>
		<g>
			<path d="M621.143,270.468c2.034,0.515,2.621,5.271,2.973,7.028c0.934,4.661,1.017,9.477,0.772,14.208
				c-0.412,8.006-1.6,18.166-7.811,23.921c-0.53,0.49,0.262,1.279,0.789,0.791c6.75-6.253,7.747-17.087,8.193-25.746
				c0.258-5.025-0.038-10.232-1.226-15.135c-0.457-1.88-1.155-5.578-3.396-6.143C620.74,269.214,620.441,270.292,621.143,270.468
				L621.143,270.468z"/>
		</g>
		<g>
			<path d="M623.061,308.493c2.791-1.895,5.564-1.542,7.533,1.189c1.28,1.778,1.893,4.215,1.376,6.354
				c-0.169,0.701,0.909,0.997,1.078,0.297c0.692-2.883-0.339-5.847-2.167-8.099c-2.236-2.754-5.634-2.575-8.384-0.705
				C621.904,307.931,622.463,308.901,623.061,308.493L623.061,308.493z"/>
		</g>
		<g>
			<path d="M600.061,294.697c-0.025,4.324-0.936,8.38-3.144,12.122c-0.367,0.623,0.599,1.185,0.965,0.565
				c2.298-3.896,3.271-8.186,3.297-12.687C601.183,293.976,600.064,293.976,600.061,294.697L600.061,294.697z"/>
		</g>
		<g>
			<path d="M573.268,316.053c4.123-5.031,11.338-7.821,17.644-8.612c6.855-0.859,15.922,2.187,18.987,8.86
				c0.301,0.654,1.263,0.087,0.965-0.563c-3.005-6.544-11.33-9.615-18.09-9.543c-7.054,0.075-15.76,3.534-20.297,9.067
				C572.024,315.814,572.81,316.609,573.268,316.053L573.268,316.053z"/>
		</g>
		<g>
			<path d="M580.739,232.639c17.329,0.659,34.656,1.318,51.985,1.979c0.72,0.027,0.716-1.09,0-1.117
				c-17.329-0.66-34.656-1.319-51.985-1.979C580.018,231.494,580.021,232.611,580.739,232.639L580.739,232.639z"/>
		</g>
		<g>
			<path d="M564.111,287.227c2.877,0.957,5.956,1.454,8.914,2.086c5.214,1.115,10.439,2.174,15.664,3.227
				c7.177,1.446,14.357,2.869,21.542,4.266c0.705,0.136,1.005-0.94,0.297-1.077c-7.185-1.398-14.365-2.821-21.54-4.266
				c-5.228-1.052-10.453-2.116-15.664-3.227c-2.959-0.631-6.04-1.13-8.917-2.086C563.722,285.922,563.43,287.002,564.111,287.227
				L564.111,287.227z"/>
		</g>
		<g>
			<path d="M580.888,231.541c-1.604-0.223-2.737,2.872-3.267,3.922c-2.009,3.975-3.65,8.151-5.3,12.285
				c-3.097,7.759-5.866,15.639-8.88,23.429c-0.26,0.673,0.819,0.961,1.077,0.297c2.581-6.676,4.972-13.424,7.567-20.096
				c1.598-4.11,3.237-8.208,5.035-12.237c0.331-0.743,2.754-6.623,3.47-6.524C581.296,232.717,581.6,231.64,580.888,231.541
				L580.888,231.541z"/>
		</g>
		<g>
			<path d="M564.251,280.384c15.418,2.607,30.74,5.739,46.089,8.729c0.704,0.138,1.004-0.94,0.298-1.077
				c-15.349-2.99-30.672-6.123-46.09-8.73C563.844,279.188,563.541,280.265,564.251,280.384L564.251,280.384z"/>
		</g>
		<g>
			<path d="M581.457,235.562c-4.865,13.731-10.565,27.143-15.549,40.829c-0.248,0.68,0.834,0.969,1.078,0.297
				c4.982-13.687,10.684-27.098,15.549-40.829C582.777,235.179,581.695,234.889,581.457,235.562L581.457,235.562z"/>
		</g>
		<g>
			<path d="M581.996,236.27c14.627,0.764,29.27,1.094,43.889,1.997c0.722,0.043,0.716-1.074,0-1.118
				c-14.619-0.902-29.262-1.232-43.889-1.996C581.276,235.115,581.28,236.232,581.996,236.27L581.996,236.27z"/>
		</g>
		<g>
			<path d="M625.5,237.926c-5.934,15.558-11.871,31.114-17.834,46.66c-0.26,0.673,0.822,0.962,1.078,0.296
				c5.964-15.545,11.897-31.102,17.833-46.659C626.833,237.549,625.754,237.26,625.5,237.926L625.5,237.926z"/>
		</g>
		<g>
			<path d="M566.112,277.265c13.959,2.762,27.918,5.598,41.944,8.008c0.705,0.12,1.005-0.956,0.297-1.078
				c-14.026-2.411-27.985-5.247-41.944-8.007C565.704,276.048,565.404,277.125,566.112,277.265L566.112,277.265z"/>
		</g>
		<g>
			<path d="M603.524,239.613c-4.572,12.806-9.059,25.688-12.849,38.751c-0.2,0.694,0.878,0.987,1.078,0.297
				c3.789-13.063,8.273-25.945,12.849-38.751C604.845,239.23,603.766,238.939,603.524,239.613L603.524,239.613z"/>
		</g>
		<g>
			<path d="M604.893,251.333c3.336,0.547,6.421,2.059,9.785,2.464c0.716,0.086,0.706-1.032,0-1.117
				c-3.259-0.395-6.255-1.895-9.488-2.424C604.485,250.141,604.183,251.217,604.893,251.333L604.893,251.333z"/>
		</g>
		<g>
			<path d="M604.684,254.477c1.955,0.504,4.02,0.603,5.935,1.257c0.686,0.234,0.977-0.846,0.297-1.077
				c-1.913-0.654-3.98-0.753-5.936-1.257C604.283,253.219,603.986,254.296,604.684,254.477L604.684,254.477z"/>
		</g>
		<g>
			<path d="M613.56,242.491c-0.61,0.466-0.953,1.264-0.228,1.815c0.545,0.414,1.355,0.175,1.632-0.435
				c0.349-0.77,0.053-1.954-0.962-1.8c-0.883,0.133-1.162,1.444-0.783,2.093c0.363,0.622,1.328,0.06,0.964-0.564
				c-0.084-0.145-0.008-0.305,0.097-0.422c0.111-0.128-0.238,0.089-0.301-0.113c0.025,0.085,0.023,0.236-0.013,0.321
				c0-0.002-0.002,0.007,0.028,0.022c-0.111-0.05,0.021,0.007,0.029,0.113c0.006,0.059,0.086-0.053,0.098-0.064
				C614.688,243.025,614.131,242.054,613.56,242.491L613.56,242.491z"/>
		</g>
		<g>
			<path d="M618.334,241.95c-0.433,0.396-0.748,1.17-0.527,1.744c0.271,0.7,1.118,0.751,1.631,0.299
				c0.355-0.313,0.581-1.023,0.396-1.472c-0.311-0.759-1.07-0.48-1.5-0.012c-0.486,0.529,0.303,1.321,0.789,0.79
				c0.063-0.069,0.123-0.141,0.202-0.191c-0.619,0.393-0.554-0.468-0.55-0.213c0,0.095-0.062,0.213-0.118,0.303
				c0.075-0.121,0.166,0.252,0.2,0.049c0.031-0.19,0.125-0.377,0.266-0.507C619.656,242.253,618.863,241.465,618.334,241.95
				L618.334,241.95z"/>
		</g>
		<g>
			<path d="M584.581,248.002c1.693,0.123,3.293,0.588,4.931,1.007c1.834,0.469,3.731,0.663,5.604,0.929
				c0.704,0.1,1.008-0.977,0.298-1.078c-3.61-0.512-7.211-1.713-10.833-1.975C583.861,246.833,583.867,247.95,584.581,248.002
				L584.581,248.002z"/>
		</g>
		<g>
			<path d="M581.019,252.89c2.227,0.1,4.314,0.782,6.455,1.335c1.82,0.47,3.706,0.641,5.549,1.02
				c0.702,0.144,1.002-0.933,0.296-1.077c-2.121-0.436-4.259-0.687-6.358-1.229c-1.982-0.512-3.886-1.073-5.941-1.166
				C580.299,251.741,580.301,252.858,581.019,252.89L581.019,252.89z"/>
		</g>
		<g>
			<path d="M581.431,257.758c2.498,0.487,4.988,0.992,7.401,1.816c0.381,0.131,0.662-0.204,0.706-0.538
				c0.035-0.261-0.04-0.431-0.232-0.605c-0.535-0.48-1.328,0.308-0.791,0.79c-0.031-0.062-0.062-0.123-0.095-0.185
				c0.237-0.18,0.472-0.359,0.709-0.539c-2.414-0.824-4.904-1.33-7.402-1.816C581.022,256.543,580.722,257.62,581.431,257.758
				L581.431,257.758z"/>
		</g>
		<g>
			<path d="M581.011,261.6c1.099,0.221,2.207,0.329,3.323,0.438c1.203,0.119,3.051,0.24,4.165,0.754
				c0.145-0.34,0.287-0.681,0.432-1.022c-0.052-0.02-0.103-0.041-0.152-0.062c-0.666-0.275-0.951,0.807-0.296,1.077
				c0.05,0.021,0.1,0.041,0.149,0.062c0.585,0.241,1.003-0.757,0.432-1.021c-0.864-0.398-2.069-0.505-3.009-0.677
				c-1.572-0.289-3.177-0.312-4.748-0.629C580.603,260.38,580.305,261.457,581.011,261.6L581.011,261.6z"/>
		</g>
		<g>
			<path d="M587.162,239.559c-0.566,0.433-0.913,1.213-0.697,1.923c0.299,0.973,1.378,0.534,1.808-0.054
				c0.396-0.544,0.175-1.338-0.337-1.706c-0.824-0.591-1.366,0.611-1.449,1.217c-0.097,0.704,0.979,1.008,1.077,0.297
				c0.021-0.157,0.047-0.305,0.087-0.457c0.014-0.058,0.039-0.11,0.073-0.158c-0.097,0.106-0.214,0.128-0.353,0.065
				c-0.054-0.027-0.022,0.081-0.044,0.151c-0.01,0.042-0.099,0.095-0.125,0.114c0.083-0.058,0.329,0.283,0.319,0.144
				c-0.012-0.172,0.058-0.462,0.204-0.573C588.289,240.092,587.733,239.12,587.162,239.559L587.162,239.559z"/>
		</g>
		<g>
			<path d="M575.922,277.052c0.724,0.078,1.439,0.201,2.163,0.28c0.716,0.077,0.709-1.041,0-1.118
				c-0.724-0.078-1.439-0.201-2.163-0.279C575.206,275.858,575.214,276.976,575.922,277.052L575.922,277.052z"/>
		</g>
		<g>
			<path d="M582.408,278.359c0.3,0.061,0.605,0.08,0.906,0.139c0.704,0.14,1.005-0.937,0.296-1.077c-0.3-0.06-0.605-0.08-0.906-0.14
				C582,277.143,581.699,278.219,582.408,278.359L582.408,278.359z"/>
		</g>
		<path d="M604.175,290.69c-0.335-0.505-0.803-0.734-1.324-0.84c-0.157-0.156-0.398-0.233-0.652-0.105
			c-0.014,0.007-0.028,0.018-0.044,0.025c-0.139-0.006-0.277-0.009-0.418-0.009c-0.583,0-0.685,0.721-0.327,1.002
			c0.006,0.183,0.083,0.368,0.293,0.537c0.558,0.447,1.495,0.462,2.138,0.209C604.156,291.387,604.391,291.017,604.175,290.69z"/>
		<path d="M598.013,289.28c-0.593-0.354-1.259-0.426-1.887-0.232c-0.155,0.007-0.302,0.068-0.405,0.174
			c-0.043,0.023-0.089,0.032-0.131,0.058c-0.57,0.339-0.139,1.172,0.419,1.014c0.585,0.479,1.572,0.419,2.119-0.137
			C598.38,289.898,598.326,289.465,598.013,289.28z"/>
		<g>
			<path d="M518.195,206.064c0.406-1.393-0.215-2.831-1.593-3.35c-1.176-0.443-2.395,0.594-3.025,1.46
				c-0.86,1.175-1.517,2.583-1.813,4.013c-0.188,0.92-0.169,2.718,0.77,3.238c0.63,0.35,1.193-0.615,0.562-0.964
				c-0.422-0.235-0.264-1.548-0.246-1.973c0.028-0.654,0.396-1.397,0.654-1.98c0.343-0.779,0.791-1.517,1.372-2.142
				c1.116-1.207,2.706-0.184,2.242,1.401C516.918,206.461,517.996,206.754,518.195,206.064L518.195,206.064z"/>
		</g>
		<g>
			<path d="M499.408,201.772c-0.058-2.678-2.724-3.721-4.514-1.698c-1.703,1.924-2.869,6.034-1.649,8.358
				c0.335,0.638,1.3,0.073,0.965-0.564c-0.822-1.565-0.075-3.364,0.431-4.916c0.222-0.676,0.529-1.301,0.908-1.899
				c0.878-1.391,2.7-1.151,2.741,0.719C498.305,202.492,499.424,202.493,499.408,201.772L499.408,201.772z"/>
		</g>
		<path d="M499.254,202.025c-0.058-0.354-0.238-0.611-0.468-0.808c-0.192-0.576-0.543-1.078-1.132-1.332
			c-1.188-0.511-2.475-0.039-3.179,1.026c-1.03,1.561-0.989,3.81-0.888,5.61c0.042,0.724,0.478,1.445,1.231,1.616
			c0.339,0.077,0.67,0.14,0.985,0.17c0.793,0.804,2.464,0.782,2.892-0.642C499.238,205.854,499.569,203.905,499.254,202.025z"/>
		<path d="M517.89,205.752c-0.052-0.408-0.187-0.777-0.417-1.072c-0.103-1.116-1.244-2.136-2.452-1.353
			c-2.454,1.59-4.813,6.859-0.936,8.249c0.133,0.047,0.254,0.057,0.379,0.075c0.882,0.888,2.87,0.504,2.938-1.15
			C517.467,208.894,518.094,207.387,517.89,205.752z"/>
		<path d="M384.266,122.414c0.531-1.757,0.633-3.73-0.525-4.788c-0.283-0.258-0.589-0.392-0.895-0.436
			c-0.039-0.131-0.075-0.264-0.114-0.396c0.689-1.71,1.095-3.573,0.756-5.417c-0.26-1.412-1.268-3.868-2.933-4.168
			c-0.444-0.08-0.822-0.086-1.155-0.043c0.175-0.557,0.304-1.14,0.36-1.764c0.331-3.597-1.186-6.2-3.58-7.816
			c-0.027-0.339-0.048-0.674-0.108-1.031c-0.202-1.188-0.795-2.27-1.582-3.238c-0.45-1.758-1.22-3.413-2.486-4.805
			c-1.594-1.75-3.538-2.635-5.622-2.967c-4.218-2.112-9.301-2.483-13.641-0.385c-7.958-10.038-24.329-10.219-33.013-0.537
			c-1.39-0.227-2.806-0.244-4.271,0.156c-4.165,1.134-6.696,4.229-7.502,8.049c-0.358,0.079-0.72,0.174-1.093,0.304
			c-5.826,2.022-10.514,5.142-13.744,10.503c-2.952,4.899-2.467,9.577-1.594,14.487c-7.321,4.229-11.623,15.989-6.392,22.262
			c0.479,0.876,1.057,1.696,1.8,2.388c0.138,0.127,0.346,0.314,0.583,0.523c-0.745,1.902-1.89,3.977-1.89,5.961
			c0,3.856,1.753,8.382,4.556,11.078c2.088,2.009,4.431,3.358,6.852,4.055c0.008,0.015,0.014,0.031,0.021,0.046
			c2.325,4.856,6.996,6.527,11.982,6.954c3.676,0.314,7.893-0.405,11.099-2.27c3.256-1.893,4.878-5.255,4.811-8.618
			c0.938-1.873,1.579-3.92,2.279-5.945c1.496-4.318-1.665-9.156-5.853-10.308c-0.968-0.266-1.913-0.345-2.821-0.276
			c-0.02-0.292-0.035-0.639-0.039-1.076c-0.014-1.715,0.033-3.447,0.117-5.166c0.531-0.163,0.962-0.592,1.153-1.157
			c0.116-0.342,0.177-0.496,0.322-0.74c0.419-0.054,0.853-0.189,1.291-0.442c0.905-0.521,2.416-0.783,3.784-0.619
			c0.471,0.671,1.008,1.271,1.576,1.843c-1.199,1.972-0.296,5.24,2.725,5.24c0.979,0,1.724-0.355,2.263-0.888
			c0.008-0.009,0.02-0.017,0.027-0.027c0.398-0.407,0.668-0.915,0.814-1.466c1.039,0.023,2.042-0.237,2.895-1.067
			c1.29-1.258,1.445-3.132,0.514-4.479c0.016-0.015,0.031-0.023,0.046-0.039c0.09-0.091,0.177-0.182,0.264-0.274
			c0.211-0.018,0.423-0.055,0.631-0.12c1.996-0.62,3.901-2.134,4.298-4.297c0.05-0.278,0.065-0.555,0.062-0.829
			c0.805-1.683,0.905-3.482,0.354-4.977c1.493,0.19,2.933-0.202,4.234-0.977c0.552-0.026,1.076-0.186,1.63-0.432
			c1.821-0.807,3.024-2.382,3.28-4.316c5.875,0.423,12.1-0.837,17.689-2.335c2.646-0.709,5.512-1.855,7.702-3.631
			c0.035,0.092,0.063,0.182,0.112,0.275c1.738,3.388,2.344,7.195,3.545,10.78c0.079,0.236,0.19,0.432,0.315,0.61
			c-0.01,0.015-0.017,0.03-0.027,0.045c-1.224,1.788,1.68,3.462,2.895,1.691c0.308-0.449,0.625-1.051,0.899-1.724
			C384.121,123.108,384.244,122.784,384.266,122.414z"/>
		<g>
			<path d="M517.207,209.873c-0.513,10.651-1.671,21.283-2.25,31.935c-0.335,6.119-0.714,12.293-0.464,18.423
				c0.048,1.218,0.017,2.736,0.597,3.851c0.688,1.325,3.458,1.707,3.945,0.037c0.125-0.433-0.416-0.938-0.82-0.63
				c-2.213,0.016-3.16-0.84-2.841-2.566c0.023-0.721-1.095-0.719-1.116,0c-0.078,2.566,1.838,5.569,4.52,3.531
				c-0.273-0.21-0.547-0.42-0.82-0.63c-0.581,1.997-1.965-0.364-2.086-0.898c-0.154-0.687-0.187-1.404-0.231-2.104
				c-0.131-2.081-0.102-4.172-0.069-6.255c0.097-6.133,0.455-12.264,0.83-18.385c0.539-8.769,1.501-17.534,1.923-26.308
				C518.357,209.152,517.241,209.155,517.207,209.873L517.207,209.873z"/>
		</g>
		<g>
			<path d="M515.423,267.416c-1.938,0.138-3.376-1.571-4.173-3.168c-0.258-0.516-1.033-0.248-1.041,0.282
				c-0.039,2.522,1.878,4.239,4.365,4.168c2.227-0.064,4.63-2.488,4.48-4.728c-0.049-0.715-1.167-0.72-1.117,0
				c0.264,3.924-6.68,5.143-6.612,0.559c-0.347,0.093-0.693,0.188-1.039,0.282c0.97,1.943,2.806,3.887,5.137,3.721
				C516.139,268.482,516.143,267.365,515.423,267.416L515.423,267.416z"/>
		</g>
		<path d="M517.822,265.118c-0.181-0.083-0.476-0.151-0.752-0.241c-0.027-0.058-0.057-0.116-0.112-0.161
			c-0.327-0.259-0.482-0.352-0.875-0.493c-0.182-0.065-0.339-0.026-0.456,0.066c-0.075-1.255-0.412-2.445-0.726-3.64
			c0.319-1.409,0.577-3.191,0.417-4.715c0.039-5.042,0.293-10.249,0.333-15.417c0.058-0.063,0.108-0.144,0.123-0.259
			c0.516-3.548,0.398-7.122,0.579-10.694c0.182-3.596,1.138-7.653,0.395-11.235c0.176-1.157,0.38-2.302,0.634-3.421
			c0.159-0.701-0.902-0.997-1.078-0.296c-0.268,1.068-0.533,2.178-0.833,3.28c-0.152,0.049-0.289,0.156-0.354,0.351
			c-0.327,1.056-0.733,2.054-0.942,3.118c-0.372,0.123-0.701,0.359-0.874,0.725c-0.304,0.645-0.67,1.291-0.945,1.962
			c-0.367,0.173-0.679,0.496-0.829,1.021c-0.063,0.222-0.137,0.44-0.204,0.661c-0.559-0.021-1.097,0.214-1.372,0.825
			c-0.097,0.212-0.2,0.419-0.299,0.629c-0.111,0.136-0.215,0.286-0.29,0.469c-0.487,1.178-1.08,2.309-1.721,3.411
			c-0.446-0.07-0.922,0.04-1.34,0.46c-1.207,1.212-2.417,2.376-3.722,3.434c-0.765,0.556-1.528,1.113-2.302,1.655
			c-0.17-0.14-0.4-0.198-0.614-0.058c-0.379,0.248-0.747,0.505-1.11,0.767c-0.712,0.426-1.467,0.768-2.232,1.1
			c-0.454,0.038-0.924,0.17-1.407,0.438c-0.569,0.315-0.173,1.164,0.431,1.021c0.043-0.008,0.087-0.01,0.131-0.017
			c0.014,0.146,0.093,0.286,0.277,0.38c0.226,0.115,0.438,0.242,0.65,0.369c1.609,2.028,2.71,4.347,3.94,6.606
			c0.282,2.311,0.859,4.56,1.533,6.791c-0.29,0.356-0.429,0.839-0.266,1.421c0.557,1.914,0.896,4.013,1.721,5.832
			c0.268,0.958,0.521,1.92,0.724,2.897c0.106,0.515,0.379,0.849,0.724,1.032c-0.171,1.403,1.047,2.351,2.365,2.371
			c0.755,0.169,1.629-0.125,2.202-0.593c0.556-0.452,0.91-1.082,1.138-1.808c0.104-0.139,0.202-0.282,0.3-0.423
			c0.514,1.09,1.413,2.279,2.563,2.257c1.428,0.701,3.064,0.557,4.59-1.002C518.169,265.757,518.159,265.271,517.822,265.118z"/>
		<path d="M521.97,190.023c-0.044-0.165-0.081-0.328-0.141-0.489c-0.088-0.245-0.246-0.442-0.438-0.588
			c0.208-0.217,0.414-0.451,0.606-0.716c1.674-2.3,0.508-6.409-1.18-8.34c-1.253-1.433-2.762-2.581-4.024-4.002
			c-1.061-1.195-2.171-1.96-3.792-1.979c-0.094-0.001-0.188,0.019-0.278,0.044c0.01-0.134-0.014-0.264-0.014-0.397
			c0.646-0.399,1.114-1.096,1.061-1.881c-0.06-0.913-0.351-1.784-1.07-2.396c-0.77-0.653-1.59-0.886-2.562-1.014
			c-0.527-0.559-1.084-1.071-1.622-1.525c-2.765-2.339-5.792-2.568-9.271-2.537c-0.06,0.001-0.113,0.014-0.171,0.018
			c-0.262-0.394-0.646-0.729-1.189-0.916c-2.359-0.817-5.722-0.703-8.263,0.338c-0.028,0.001-0.056,0.001-0.082,0.001
			c-0.281,0.004-0.525,0.056-0.749,0.133c-2.23-0.826-4.098-2.215-6.48-2.706c-2.646-0.547-5.417-1.326-8.135-1.058
			c-0.317,0.032-0.608,0.127-0.872,0.262c-0.478-0.52-1.199-0.78-2.096-0.462c-2.672,0.951-4.937,2.794-6.929,4.926
			c-5.424,2.018-8.982,6.417-12.396,10.913c-3.652,4.814-6.896,9.712-9.649,15.001c-0.608,0.123-1.167,0.5-1.552,1.054
			c-0.286,0.413-0.398,0.929-0.429,1.429c-0.029,0.102-0.039,0.207-0.071,0.308c-0.008,0.022-0.012,0.03-0.018,0.047
			c-0.028,0.061-0.058,0.121-0.091,0.18c-0.105,0.195-0.234,0.375-0.369,0.55c-0.289,0.375-0.371,0.836-0.315,1.292
			c-7.417,10.758-11.842,23.365-14.367,36.565c-1.255,6.558-3.341,16.19-0.938,22.669c0.214,0.575,0.501,1.06,0.836,1.472
			c0.617,1.847,1.977,3.429,3.916,3.73c1.937,0.3,3.332-0.454,4.326-1.675c1.059,1.998,3.08,3.241,5.517,2.57
			c0.991-0.272,1.707-0.777,2.25-1.42c0.724,0.632,1.757,0.946,3.333,0.718c1.487-0.215,2.516-1.55,3.247-3.169
			c0.427-0.069,0.825-0.301,1.128-0.732c0.179,0.012,0.355-0.06,0.464-0.274c3.629-7.26,5.994-15.616,13.123-20.114
			c0.491-0.048,0.862-0.264,1.134-0.566c0.246,0.09,0.495,0.181,0.745,0.247c1.396,0.372,1.984-1.784,0.595-2.155
			c-0.333-0.088-0.646-0.209-0.949-0.351c-0.26-0.825-0.926-1.536-2.003-1.645c-0.021-0.002-0.043,0-0.064-0.002
			c-0.04-0.077-0.062-0.156-0.123-0.229c-1.882-2.271-3.972-4.435-5.569-6.917c0.02-1.092-0.504-2.163-1.405-2.622
			c-0.044-0.103-0.098-0.199-0.141-0.303c-0.435-1.075-1.934-0.878-2.182-0.047c-1.786-0.707-3.366-1.035-4.668-2.815
			c-0.535-0.734-0.952-1.545-1.326-2.381c-0.194-1.635-0.001-3.267,0.809-4.813c0.703-1.342,2.121-2.429,3.636-2.605
			c0.585-0.068,3.053,0.104,3.309,0.47c0.345,0.49,0.787,0.77,1.255,0.901c-0.039,2.479,0.603,4.429,2.444,5.113
			c0.054,0.062,0.084,0.141,0.146,0.196c0.166,0.141,0.328,0.287,0.519,0.388c0.084,0.045,0.175,0.076,0.264,0.11
			c0.365,0.262,0.808,0.421,1.283,0.421c0.922,0,1.725-0.583,2.063-1.392c1.059-0.519,1.926-1.354,2.675-2.359
			c0.358-0.158,0.691-0.409,0.963-0.794c2.471-3.521,3.916-7.534,5.92-11.314c2.437-4.593,4.665-9.282,6.929-13.966
			c0.256-0.528,0.288-1.039,0.185-1.502c0.86-0.824,1.691-1.696,2.486-2.632c2.389-2.813,4.877-5.856,6.509-9.236
			c0.06,0.747,0.152,1.498,0.293,2.246c-0.16,0.75,0.01,1.591,0.525,2.132c0.473,1.516,1.139,2.963,2.061,4.224
			c0.295,0.403,0.649,0.882,1.049,1.357c-0.197,0.822,0.069,1.703,1.084,2.188c1.957,0.936,3.354,0.335,4.352-0.95
			c0.175-0.189,0.315-0.386,0.406-0.593c0.348-0.577,0.625-1.252,0.864-1.953c0.073,0.02,0.142,0.042,0.213,0.062
			c0.864,2.075,1.97,4.172,3.8,5.494c1.324,0.956,3.212,0.583,4.247-0.594c0.404-0.462,0.67-0.983,0.853-1.533
			c2.02,3.007,6.003,5.894,9.658,5.806c-0.002,0.029-0.01,0.053-0.01,0.083c-0.002,0.715,0.202,1.369,0.479,2.002
			c-0.141,0.177-0.226,0.396-0.2,0.651c0.188,1.982,0.558,3.933,0.948,5.883c0.198,1.006,1.556,1.022,2.04,0.268
			c0.069-0.106,0.123-0.217,0.182-0.327c0.401-0.043,0.758-0.28,0.839-0.778c0.094-0.563,0.098-1.107,0.062-1.645
			c0.034-0.038,0.075-0.07,0.105-0.114c1.034-1.469,0.849-3.923,0.058-5.779C521.902,190.944,522.112,190.54,521.97,190.023z"/>
		<path d="M660.404,188.11c0.022-0.037,0.054-0.066,0.076-0.105c0.662-1.137,0.636-2.301,0.077-3.474
			c-0.385-0.809-1.275-1.32-2.118-1.616c-0.938-0.943-2.341-0.777-3.344-0.013c-1.555,0.037-3.106,0.135-4.653,0.259
			c-0.368-0.188-0.799-0.301-1.312-0.291c-1.265,0.026-2.5,0.276-3.73,0.433c-1.312-0.167-2.621-0.347-3.924-0.504
			c-4.365-0.532-8.776-0.206-13.154-0.026c-5.188,0.213-13.909-0.56-18.038,3.15c-0.791,0.709-0.968,1.627-0.75,2.474
			c-0.042,0.192-0.065,0.398-0.069,0.618c-0.067,6.736-0.89,13.533,0.349,20.191c0,0.063-0.01,0.129-0.01,0.191
			c0,6.203,7.742,5.792,11.939,5.254c2.012-0.258,4.048-0.483,6.09-0.688c3.892,0.157,7.781,0.217,11.687,0.005
			c6.012-0.328,12.188-1.261,18.178-1.303c1.206-0.008,1.999-0.646,2.397-1.483c0.539-0.604,0.846-1.432,0.668-2.426
			C659.528,201.84,661.697,194.88,660.404,188.11z"/>
		<path fill="#FFFFFF" d="M653.561,198.353c-0.32-1.023-1.548-1.502-2.847-1.79c-0.027-1.416-0.058-2.824-0.172-4.227
			c0.521,0.005,0.922,0.188,1.051,0.629c0.143,0.493,0.928,0.32,0.782-0.178c-0.266-0.91-1.011-1.27-1.912-1.268
			c-0.078-0.75-0.187-1.498-0.332-2.246c-0.101-0.507-0.884-0.33-0.783,0.176c0.142,0.719,0.248,1.439,0.324,2.161
			c-0.338,0.068-0.687,0.169-1.029,0.309c-0.021-0.739-0.042-1.476-0.056-2.209c-0.012-0.514-0.812-0.553-0.803-0.037
			c0.018,0.875,0.044,1.753,0.071,2.635c-1.267,0.719-2.284,1.817-2.225,2.849c0.058,1.076,1.205,1.546,2.379,1.81
			c0.05,1.802,0.084,3.604,0.067,5.395c-0.356,0.092-0.722,0.164-1.09,0.226c-0.284,0.05-3.458-0.443-2.352-1.145
			c0.433-0.273,0.067-0.986-0.371-0.709c-0.856,0.541-0.959,1.107-0.299,1.904c0.862,1.041,2.604,0.835,3.753,0.637
			c0.108-0.019,0.226-0.044,0.353-0.073c-0.014,0.652-0.033,1.305-0.063,1.954c-0.023,0.516,0.775,0.553,0.801,0.036l0.008-0.158
			c0-0.004-0.002-0.007-0.002-0.012c0.03-0.681,0.048-1.366,0.06-2.053c0.398-0.132,0.835-0.3,1.275-0.5
			c0.073,1.192,0.156,2.383,0.224,3.573c0.031,0.511,0.831,0.553,0.801,0.037c-0.077-1.333-0.162-2.666-0.241-3.998
			C652.586,201.186,654.037,199.873,653.561,198.353z M647.798,196.04c-2.153-0.545-1.336-1.884,0.089-2.794
			c0.03,0.944,0.063,1.889,0.094,2.836C647.919,196.068,647.854,196.055,647.798,196.04z M648.785,196.226
			c-0.036-1.139-0.075-2.276-0.113-3.41c0.359-0.167,0.728-0.293,1.075-0.377c0.11,1.317,0.143,2.642,0.168,3.968
			C649.521,196.338,649.136,196.281,648.785,196.226z M649.106,202.013c-0.075,0.033-0.15,0.058-0.226,0.086
			c0.008-1.653-0.019-3.315-0.068-4.979c0.421,0.07,0.81,0.125,1.118,0.183c0.004,0.23,0.007,0.462,0.011,0.694
			c0.025,1.187,0.085,2.374,0.154,3.561C649.765,201.72,649.432,201.872,649.106,202.013z M650.881,201.122
			c-0.063-1.207-0.119-2.415-0.146-3.623c0.354,0.098,0.703,0.205,1.047,0.336c1.594,0.607,0.924,1.724-0.03,2.637
			C651.491,200.72,651.193,200.928,650.881,201.122z"/>
		<path fill="#FFFFFF" d="M635.48,197.891c-0.004-0.002-0.008-0.004-0.014-0.006c0.037-1.302,0.031-2.606,0.06-3.909
			c0.395,0.151,0.612,0.444,0.231,0.994c-0.297,0.424,0.346,0.905,0.641,0.481c0.555-0.799,0.418-1.755-0.593-2.208
			c-0.083-0.038-0.171-0.059-0.258-0.086c0.03-0.811,0.075-1.62,0.171-2.426c0.062-0.513-0.734-0.603-0.797-0.091
			c-0.094,0.786-0.14,1.576-0.173,2.368c-0.308-0.011-0.616,0.016-0.92,0.077c0.062-0.894,0.135-1.786,0.246-2.676
			c0.065-0.514-0.731-0.605-0.797-0.092c-0.123,0.997-0.206,1.997-0.272,2.999c-0.104,0.037-0.208,0.073-0.311,0.112
			c-1.682,0.655-2.966,2.67-0.924,3.807c0.297,0.165,0.638,0.31,0.999,0.446c-0.032,0.727-0.071,1.453-0.119,2.179
			c-0.056,0.83-0.133,1.662-0.183,2.493c-0.61-0.571-0.874-1.369-0.301-2.277c0.275-0.436-0.365-0.918-0.641-0.481
			c-0.999,1.581-0.347,2.93,0.898,3.709c-0.032,1.246,0.043,2.486,0.398,3.706c0.125,0.424,0.695,0.225,0.767-0.115
			c0.054-0.173,0.073-0.351,0.062-0.531c0.004-0.199-0.115-0.332-0.26-0.395c-0.15-0.749-0.204-1.514-0.202-2.286
			c0.383,0.146,0.793,0.233,1.208,0.284c-0.022,0.555-0.046,1.112-0.06,1.668c-0.011,0.513,0.785,0.609,0.799,0.091
			c0.012-0.577,0.046-1.155,0.067-1.731c1.378-0.064,2.704-0.717,3.267-2.216C639.228,199.759,636.981,198.538,635.48,197.891z
			 M632.263,196.596c-1.324-0.66-0.464-1.781,0.437-2.285c0.079-0.044,0.168-0.071,0.252-0.109c-0.052,0.88-0.096,1.761-0.139,2.642
			C632.628,196.765,632.441,196.686,632.263,196.596z M633.777,193.917c0.052-0.014,0.102-0.031,0.154-0.043
			c0.109-0.026,0.433-0.055,0.791-0.039c-0.031,1.244-0.031,2.491-0.051,3.734c-0.354-0.136-0.708-0.267-1.062-0.4
			C633.664,196.083,633.716,195,633.777,193.917z M633.209,202.864c0.057-1.228,0.208-2.459,0.289-3.652
			c0.027-0.416,0.046-0.833,0.069-1.248c0.36,0.122,0.726,0.245,1.089,0.376c-0.042,1.634-0.142,3.267-0.223,4.9
			C634.02,203.184,633.595,203.058,633.209,202.864z M635.238,203.24c0.071-1.532,0.146-3.063,0.204-4.595
			c1.004,0.431,1.88,0.994,2.286,1.911C638.44,202.163,636.628,203.075,635.238,203.24z"/>
		<path fill="#FFFFFF" d="M624.083,198.7h-8.195c-0.72,0-0.72,1.117,0,1.117h8.195C624.803,199.817,624.803,198.7,624.083,198.7z"/>
		<path fill="#FFFFFF" d="M624.364,201.121h-3.168c-0.72,0-0.72,1.117,0,1.117h3.168
			C625.084,202.238,625.084,201.121,624.364,201.121z"/>
		<path d="M622.402,270.775c0.053-0.26-0.134-0.446-0.365-0.529c0.079-0.524-0.904-0.729-1.084-0.178
			c-1.055,3.262-2.776,6.422-3.353,9.781c-0.026,0.161,0.049,0.286,0.154,0.384c-0.008,0.597-0.004,1.192,0.042,1.788
			c-0.004,0.012-0.007,0.025-0.011,0.037c0.381,0.271,0.673,0.616,0.881,1.015c0.194-0.052,0.345-0.18,0.312-0.406
			c-0.024-0.173-0.036-0.347-0.052-0.521c0.599-1.557,0.949-3.159,1.429-4.747C621.025,275.18,621.948,273.037,622.402,270.775z"/>
		<path d="M641.162,216.938c-1.451,0.646-3.025,0.976-4.417,1.765c-0.22,0.124-0.275,0.317-0.25,0.505
			c-0.002,0.006-0.006,0.008-0.008,0.014c-0.194,0.585-0.187,1.257-0.279,1.863c-0.069,0.456,0.358,0.905,0.819,0.63
			c1.313-0.782,2.888-1.08,4.111-2.015c0.121-0.093,0.224-0.195,0.315-0.301c0.329,0.13,0.785-0.033,0.785-0.494v-1.77
			C642.239,216.538,641.331,216.374,641.162,216.938z"/>
		<path d="M606.95,310.735c-1.093-0.689-5.893-3.676-8.664-3.645c0.558,0.199,1.124,0.372,1.693,0.519
			c-0.004,0.001-0.006,0.004-0.008,0.006c2.694,0.501,5.21,1.994,7.391,3.686c1.513,1.176,2.486,2.589,3.364,4.115
			c0.279-0.333,0.531-0.691,0.773-1.057C610.12,312.978,608.574,311.761,606.95,310.735z"/>
		<path d="M618.449,313.436c-1.795-0.02-3.581-0.262-5.377-0.279c-0.458-0.006-0.621,0.44-0.5,0.771
			c-0.508,0.016-0.645,0.585-0.418,0.905h-0.688c-0.72,0-0.72,1.116,0,1.116h5.656c0.398,0,0.569-0.341,0.527-0.646
			c0.151-0.02,0.306-0.039,0.46-0.071c0.363-0.083,0.456-0.408,0.365-0.684C619.168,314.526,619.16,313.443,618.449,313.436z"/>
	</g>
</g>
</svg>
