<?xml version="1.0" encoding="utf-8"?>
<!-- Generator: Adobe Illustrator 15.1.0, SVG Export Plug-In . SVG Version: 6.00 Build 0)  -->
<!DOCTYPE svg PUBLIC "-//W3C//DTD SVG 1.1//EN" "http://www.w3.org/Graphics/SVG/1.1/DTD/svg11.dtd">
<svg version="1.1" id="Layer_1" xmlns="http://www.w3.org/2000/svg" xmlns:xlink="http://www.w3.org/1999/xlink" x="0px" y="0px"
	 width="841.89px" height="595.28px" viewBox="0 0 841.89 595.28" enable-background="new 0 0 841.89 595.28" xml:space="preserve">
<g>
	<g>
		<path d="M406.288,299.801c6.256-5.387,13.121-10.472,19.964-15.093c1.062-0.718,0.062-2.451-1.01-1.727
			c-6.991,4.72-13.973,9.898-20.369,15.406C403.894,299.229,405.316,300.637,406.288,299.801L406.288,299.801z"/>
	</g>
	<g>
		<path d="M426.621,284.239c2.27-2.494,3.586-5.654,5.789-8.192c0.91-1.048,5.432-3.751,3.883-0.16
			c-0.633,1.468-2.074,2.599-2.93,3.952c-0.691,1.094,1.039,2.097,1.727,1.01c1.344-2.125,3.273-3.541,3.512-6.191
			c0.164-1.839-1.557-2.83-3.15-2.713c-5.121,0.377-7.334,7.684-10.244,10.881C424.34,283.776,425.75,285.194,426.621,284.239
			L426.621,284.239z"/>
	</g>
	<g>
		<path d="M433.117,282.496c1.506-0.247,17.463-5.702,16.957-2.194c-0.371,2.564-5.996,3.778-7.988,4.516
			c-2.438,0.902-4.961,1.582-7.5,2.125c-1.262,0.27-0.727,2.197,0.531,1.929c4.021-0.86,8.086-2.097,11.846-3.781
			c1.951-0.875,5.57-2.546,5.117-5.331c-0.482-2.977-4.381-2.723-6.627-2.597c-4.549,0.255-8.484,2.685-12.867,3.405
			C431.314,280.776,431.855,282.703,433.117,282.496L433.117,282.496z"/>
	</g>
	<g>
		<path d="M442.055,287.308c2.221-0.313,4.467-0.464,6.709-0.546c1.949-0.07,6.732,1.127,2.822,2.581
			c-4.883,1.814-10.408,1.874-15.547,2.188c-1.281,0.078-1.289,2.078,0,2c4.4-0.27,8.775-0.559,13.102-1.447
			c1.736-0.355,5.883-1.145,6.555-3.248c1.846-5.787-11.742-3.801-14.172-3.457C440.25,285.559,440.793,287.487,442.055,287.308
			L442.055,287.308z"/>
	</g>
	<g>
		<path d="M441.676,293.316c1.08-0.077,2.189,0.015,3.27,0.076c0.617,0.035,8.457,2.385,6.676,3.644
			c-1.941,1.373-5.262,1.129-7.521,1.07c-2.635-0.068-5.258-0.588-7.857-0.977c-1.262-0.189-1.805,1.738-0.531,1.929
			c4.359,0.652,8.639,1.385,13.055,0.822c1.979-0.252,4.744-0.791,5.33-3.014c0.561-2.135-2.969-3.849-4.424-4.381
			c-2.527-0.923-5.297-1.364-7.996-1.17C440.398,291.409,440.389,293.409,441.676,293.316L441.676,293.316z"/>
	</g>
	<g>
		<path d="M442.314,300.391c0.752,0.195,1.498,0.398,2.238,0.631c0.654,0.207,1.271,0.484,1.875,0.803
			c1.344,0.709,0.199,1.906-0.92,1.977c-3.59,0.227-7.184,0.131-10.762-0.207c-1.283-0.121-1.271,1.879,0,2
			c3.404,0.322,6.797,0.396,10.213,0.227c1.658-0.082,3.418-0.121,4.318-1.723c1.934-3.439-4.395-5.108-6.432-5.634
			C441.596,298.139,441.066,300.068,442.314,300.391L442.314,300.391z"/>
	</g>
	<g>
		<path d="M436.467,305.172c-5.613,8.02-14.879,8.842-23.97,8.088c-1.286-0.105-1.275,1.895,0,2
			c9.968,0.826,19.644-0.43,25.697-9.078C438.936,305.123,437.199,304.125,436.467,305.172L436.467,305.172z"/>
	</g>
	<g>
		<path d="M415.825,314.646c-4.99,3.465-9.756,7.465-13.191,12.525c-0.727,1.07,1.007,2.07,1.727,1.01
			c3.232-4.76,7.782-8.551,12.475-11.809C417.886,315.645,416.887,313.91,415.825,314.646L415.825,314.646z"/>
	</g>
	<g>
		<path d="M496.711,288.245c-0.635-2.295-0.445-4.854,0.182-7.127c0.354-1.273,2.326-4.172,2.971-1.65
			c0.768,3.006-0.057,7.016-0.914,9.944c-0.363,1.24,1.566,1.767,1.928,0.531c0.646-2.203,0.938-4.556,1.107-6.839
			c0.143-1.887,0.33-4.848-1.309-6.207c-1.812-1.502-4.143,0.473-5.045,2.039c-1.574,2.726-1.67,6.871-0.848,9.84
			C495.127,290.018,497.057,289.491,496.711,288.245L496.711,288.245z"/>
	</g>
	<g>
		<path d="M495.076,288.647c-4.414,2.836-10.023,0.32-14.787,2.096c-1.744,0.649-3.797,2.51-2.273,4.339
			c1.494,1.792,5.535,1.69,7.594,1.81c2.68,0.155,5.787,0.33,8.404-0.416c1.238-0.354,0.711-2.283-0.531-1.93
			c-3.723,1.062-8.848,0.621-12.551-0.254c-1.287-0.305-1.861-0.43-0.551-1.367c1.617-1.157,4.064-0.964,5.941-0.938
			c3.402,0.049,6.783,0.301,9.764-1.613C497.166,289.679,496.164,287.948,495.076,288.647L495.076,288.647z"/>
	</g>
	<g>
		<path d="M487.73,295.379c-3.619,1.312-8.051,0.064-11.527,1.946c-2.035,1.101-2.59,3.772-0.572,5.272
			c2.623,1.951,6.654,1.729,9.736,1.623c3.217-0.109,6.695-0.379,9.812-1.246c1.242-0.346,0.715-2.275-0.531-1.93
			c-4.574,1.273-10.084,1.629-14.775,0.998c-1.137-0.152-2.682-0.422-3.395-1.424c-1.133-1.594,2.416-2.048,3.223-2.195
			c2.783-0.506,5.879-0.144,8.561-1.116C489.465,296.872,488.945,294.939,487.73,295.379L487.73,295.379z"/>
	</g>
	<g>
		<path d="M485.664,302.094c-2.867,0.096-6.895,0.557-8.932,2.797c-1.365,1.5,0.08,3.049,1.482,3.637
			c2.803,1.174,6.678,0.592,9.596,0.355c2.537-0.207,5.232-0.418,7.703-1.074c1.246-0.332,0.717-2.262-0.531-1.93
			c-3.43,0.912-7.205,1.094-10.732,1.213c-1.682,0.057-4.557,0.369-5.977-0.758c-0.562-0.445,6.686-2.217,7.391-2.24
			C486.949,304.051,486.953,302.051,485.664,302.094L485.664,302.094z"/>
	</g>
	<g>
		<path d="M481.91,307.646c-4.643,2.822-1.037,5.906,2.854,6.055c4.814,0.184,10.406-1.287,14.822-3.16
			c1.184-0.504,0.162-2.225-1.01-1.727c-2.414,1.023-5.104,1.598-7.654,2.15c-1.816,0.393-3.654,0.654-5.512,0.732
			c-1.588,0.068-5.535-0.473-2.49-2.324C484.02,308.705,483.016,306.975,481.91,307.646L481.91,307.646z"/>
	</g>
	<g>
		<path d="M501.846,284.545c-0.047-0.014-0.096-0.027-0.145-0.041c-0.807-0.229-1.633,0.727-1.129,1.469
			c6.393,9.443,1.172,25.677-9.758,29.24c-1.221,0.396-0.697,2.328,0.531,1.928c12.109-3.945,18.123-21.585,10.953-32.177
			c-0.377,0.49-0.754,0.98-1.129,1.47c0.047,0.014,0.096,0.028,0.145,0.042C502.559,286.829,503.084,284.899,501.846,284.545
			L501.846,284.545z"/>
	</g>
	<g>
		<path d="M473.484,324.43c6.973-2.893,14.168-5.178,20.934-8.557c1.154-0.576,0.141-2.301-1.01-1.727
			c-6.609,3.301-13.645,5.529-20.455,8.355C471.779,322.988,472.293,324.924,473.484,324.43L473.484,324.43z"/>
	</g>
	<g>
		<path d="M451.83,297.843c0,5.889,0,11.778,0,17.667c0,0.969,1.5,0.969,1.5,0c0-5.889,0-11.777,0-17.667
			C453.33,296.875,451.83,296.875,451.83,297.843L451.83,297.843z"/>
	</g>
	<g>
		<path d="M451.83,290.032c0,1.625,0,3.25,0,4.875c0,0.967,1.5,0.967,1.5,0c0-1.625,0-3.25,0-4.875
			C453.33,289.064,451.83,289.064,451.83,290.032L451.83,290.032z"/>
	</g>
	<g>
		<path d="M452.039,273.719c-0.014,3.848-0.195,7.693-0.209,11.541c-0.002,0.968,1.498,0.968,1.5,0
			c0.014-3.848,0.195-7.693,0.209-11.541C453.541,272.751,452.041,272.751,452.039,273.719L452.039,273.719z"/>
	</g>
	<g>
		<path d="M494.664,289.677c0.055-6.222,0.111-12.444,0.166-18.667c0.01-0.968-1.49-0.967-1.5,0
			c-0.055,6.223-0.111,12.445-0.166,18.667C493.154,290.645,494.654,290.644,494.664,289.677L494.664,289.677z"/>
	</g>
	<g>
		<path d="M452.789,316.594c10.312-0.785,20.576-2.02,30.824-3.402c0.955-0.129,0.547-1.574-0.398-1.445
			c-10.117,1.363-20.246,2.572-30.426,3.348C451.83,315.166,451.824,316.666,452.789,316.594L452.789,316.594z"/>
	</g>
	<g>
		<path d="M453.039,273.844c13.631-0.823,27.293-1.096,40.875-2.625c0.949-0.107,0.959-1.609,0-1.5
			c-13.582,1.529-27.244,1.802-40.875,2.625C452.078,272.402,452.072,273.903,453.039,273.844L453.039,273.844z"/>
	</g>
	<g>
		<path d="M433.465,310.9c6.305,1.777,12.611,3.555,18.916,5.334c0.934,0.262,1.328-1.186,0.398-1.447
			c-6.305-1.777-12.611-3.555-18.916-5.334C432.93,309.191,432.535,310.639,433.465,310.9L433.465,310.9z"/>
	</g>
	<g>
		<path d="M427.664,268.094c0,3.75,0,7.5,0,11.25c0,0.967,1.5,0.967,1.5,0c0-3.75,0-7.5,0-11.25
			C429.164,267.126,427.664,267.126,427.664,268.094L427.664,268.094z"/>
	</g>
	<g>
		<path d="M428.215,269.436c8.037,1.596,16.084,3.172,24.168,4.521c0.945,0.157,1.352-1.288,0.398-1.446
			c-8.084-1.348-16.131-2.924-24.168-4.521C427.668,267.802,427.266,269.248,428.215,269.436L428.215,269.436z"/>
	</g>
	<g>
		<path d="M428.613,268.692c3.311-0.476,6.635-0.834,9.967-1.121c0.955-0.082,0.963-1.582,0-1.5
			c-3.467,0.299-6.922,0.68-10.365,1.175C427.26,267.383,427.668,268.828,428.613,268.692L428.613,268.692z"/>
	</g>
	<g>
		<path d="M484.201,269.053c3.26,0.671,6.525,1.348,9.812,1.873c0.947,0.151,1.352-1.294,0.398-1.446
			c-3.287-0.526-6.551-1.202-9.812-1.873C483.654,267.413,483.254,268.858,484.201,269.053L484.201,269.053z"/>
	</g>
	<g>
		<g>
			<path d="M449.33,325.178c-0.021,1.721-0.328,3.445-0.166,5.166c0.09,0.953,1.59,0.963,1.5,0
				c-0.162-1.721,0.145-3.445,0.166-5.166C450.842,324.209,449.342,324.211,449.33,325.178L449.33,325.178z"/>
		</g>
		<g>
			<path d="M450.402,326.428c1.93,0.781,4.438,0.762,6.479,0.84c1.785,0.07,4.539,0.273,5.959-1.074
				c1.689-1.602-1.449-2.6-2.457-2.789c-3.389-0.633-6.951-0.354-10.293,0.389c-0.945,0.211-0.545,1.656,0.398,1.447
				c2.541-0.564,5.109-0.777,7.705-0.596c0.928,0.064,1.846,0.197,2.752,0.408c1.387,0.324-0.367,0.557-0.873,0.623
				c-2.752,0.367-6.658,0.363-9.271-0.695C449.902,324.619,449.518,326.07,450.402,326.428L450.402,326.428z"/>
		</g>
		<g>
			<path d="M461.73,325.635c0,1.418,0,2.834,0,4.25c0,0.969,1.5,0.969,1.5,0c0-1.416,0-2.832,0-4.25
				C463.23,324.668,461.73,324.668,461.73,325.635L461.73,325.635z"/>
		</g>
		<g>
			<path d="M449.785,330.803c1.977,0.93,4.109,0.891,6.254,0.953c2.193,0.064,4.383-0.029,6.379-1.016
				c0.867-0.428,0.105-1.721-0.758-1.295c-2.725,1.346-8.35,1.365-11.117,0.062C449.672,329.1,448.91,330.393,449.785,330.803
				L449.785,330.803z"/>
		</g>
	</g>
	<g>
		<g>
			<path d="M473.725,324.291c-0.021,1.721-0.328,3.447-0.168,5.166c0.09,0.955,1.59,0.963,1.5,0
				c-0.16-1.719,0.146-3.445,0.168-5.166C475.236,323.324,473.736,323.324,473.725,324.291L473.725,324.291z"/>
		</g>
		<g>
			<path d="M474.795,325.543c1.93,0.779,4.438,0.76,6.48,0.84c1.783,0.068,4.537,0.271,5.957-1.074
				c1.691-1.604-1.449-2.602-2.455-2.789c-3.391-0.635-6.953-0.355-10.295,0.389c-0.943,0.209-0.543,1.656,0.398,1.447
				c2.541-0.566,5.109-0.777,7.705-0.598c0.93,0.064,1.848,0.197,2.754,0.41c1.385,0.322-0.369,0.555-0.875,0.623
				c-2.752,0.365-6.656,0.361-9.271-0.695C474.297,323.732,473.91,325.184,474.795,325.543L474.795,325.543z"/>
		</g>
		<g>
			<path d="M486.123,324.75c0,1.416,0,2.832,0,4.25c0,0.967,1.5,0.967,1.5,0c0-1.418,0-2.834,0-4.25
				C487.623,323.781,486.123,323.781,486.123,324.75L486.123,324.75z"/>
		</g>
		<g>
			<path d="M474.178,329.918c1.977,0.93,4.109,0.891,6.256,0.953c2.191,0.062,4.383-0.031,6.377-1.016
				c0.867-0.428,0.107-1.723-0.758-1.295c-2.725,1.346-8.348,1.365-11.117,0.062C474.066,328.213,473.305,329.506,474.178,329.918
				L474.178,329.918z"/>
		</g>
	</g>
	<g>
		<g>
			<path d="M462.408,321.625c-0.018,1.395-0.266,2.795-0.135,4.191c0.09,0.953,1.59,0.963,1.5,0
				c-0.131-1.396,0.117-2.797,0.135-4.191C463.92,320.656,462.42,320.658,462.408,321.625L462.408,321.625z"/>
		</g>
		<g>
			<path d="M463.381,322.775c1.576,0.639,3.627,0.623,5.295,0.688c1.494,0.059,3.748,0.211,4.934-0.914
				c1.473-1.395-1.107-2.32-2.055-2.498c-2.777-0.52-5.691-0.295-8.428,0.314c-0.943,0.211-0.543,1.656,0.398,1.447
				c2.049-0.457,4.121-0.625,6.213-0.479c0.742,0.051,1.473,0.158,2.197,0.326c0.352,0.082,0.664-0.121,0.258,0.029
				c-0.291,0.107-0.625,0.158-0.93,0.199c-2.221,0.295-5.373,0.295-7.484-0.561C462.883,320.965,462.496,322.418,463.381,322.775
				L463.381,322.775z"/>
		</g>
		<g>
			<path d="M472.469,321.996c0,1.15,0,2.299,0,3.449c0,0.967,1.5,0.967,1.5,0c0-1.15,0-2.299,0-3.449
				C473.969,321.029,472.469,321.029,472.469,321.996L472.469,321.996z"/>
		</g>
		<g>
			<path d="M462.846,326.311c1.629,0.766,3.379,0.742,5.146,0.793c1.807,0.053,3.604-0.031,5.246-0.844
				c0.867-0.428,0.107-1.721-0.758-1.295c-2.162,1.068-6.678,1.086-8.877,0.051C462.734,324.607,461.973,325.9,462.846,326.311
				L462.846,326.311z"/>
		</g>
	</g>
	<g>
		<g>
			<path d="M435.863,323.465c-0.021,1.646-0.314,3.299-0.16,4.945c0.09,0.955,1.592,0.963,1.5,0
				c-0.154-1.646,0.139-3.299,0.16-4.945C437.375,322.498,435.875,322.498,435.863,323.465L435.863,323.465z"/>
		</g>
		<g>
			<path d="M436.912,324.693c1.85,0.748,4.254,0.73,6.211,0.805c1.719,0.068,4.359,0.26,5.727-1.037
				c1.643-1.555-1.373-2.537-2.365-2.723c-3.25-0.609-6.668-0.342-9.871,0.371c-0.945,0.211-0.545,1.656,0.398,1.447
				c2.43-0.541,4.885-0.742,7.367-0.57c0.887,0.062,1.762,0.189,2.627,0.391c1.275,0.299-0.33,0.467-0.828,0.533
				c-2.631,0.352-6.367,0.348-8.867-0.664C436.414,322.885,436.027,324.336,436.912,324.693L436.912,324.693z"/>
		</g>
		<g>
			<path d="M447.734,323.904c0,1.355,0,2.713,0,4.068c0,0.969,1.5,0.969,1.5,0c0-1.355,0-2.713,0-4.068
				C449.234,322.936,447.734,322.936,447.734,323.904L447.734,323.904z"/>
		</g>
		<g>
			<path d="M436.314,328.879c1.896,0.893,3.943,0.855,6.004,0.916c2.105,0.062,4.205-0.029,6.121-0.977
				c0.867-0.428,0.107-1.721-0.758-1.295c-2.598,1.283-7.971,1.301-10.609,0.061C436.201,327.174,435.439,328.467,436.314,328.879
				L436.314,328.879z"/>
		</g>
	</g>
	<g>
		<g>
			<path d="M409.354,411.131c-0.021,1.721-0.328,3.445-0.167,5.166c0.09,0.953,1.59,0.963,1.5,0
				c-0.161-1.721,0.146-3.445,0.167-5.166C410.866,410.162,409.366,410.164,409.354,411.131L409.354,411.131z"/>
		</g>
		<g>
			<path d="M410.425,412.381c1.93,0.781,4.438,0.762,6.479,0.84c1.784,0.07,4.538,0.273,5.958-1.074
				c1.689-1.602-1.45-2.6-2.457-2.789c-3.39-0.633-6.952-0.354-10.294,0.389c-0.944,0.211-0.544,1.656,0.398,1.447
				c2.541-0.564,5.109-0.777,7.705-0.596c0.929,0.064,1.847,0.197,2.753,0.408c1.386,0.324-0.368,0.557-0.874,0.623
				c-2.752,0.367-6.657,0.363-9.271-0.695C409.926,410.572,409.541,412.023,410.425,412.381L410.425,412.381z"/>
		</g>
		<g>
			<path d="M421.753,411.588c0,1.418,0,2.834,0,4.25c0,0.969,1.5,0.969,1.5,0c0-1.416,0-2.832,0-4.25
				C423.254,410.621,421.753,410.621,421.753,411.588L421.753,411.588z"/>
		</g>
		<g>
			<path d="M409.808,416.756c1.977,0.93,4.109,0.891,6.255,0.953c2.192,0.064,4.383-0.029,6.378-1.016
				c0.867-0.428,0.105-1.721-0.758-1.295c-2.725,1.346-8.349,1.365-11.117,0.062C409.696,415.053,408.934,416.346,409.808,416.756
				L409.808,416.756z"/>
		</g>
	</g>
	<g>
		<g>
			<path d="M428.902,409.859c-0.021,1.721-0.328,3.447-0.166,5.166c0.09,0.955,1.59,0.963,1.5,0
				c-0.162-1.719,0.145-3.445,0.166-5.166C430.414,408.893,428.914,408.893,428.902,409.859L428.902,409.859z"/>
		</g>
		<g>
			<path d="M429.975,411.111c1.93,0.779,4.438,0.76,6.479,0.84c1.785,0.068,4.539,0.271,5.959-1.074
				c1.689-1.604-1.449-2.602-2.457-2.789c-3.389-0.635-6.951-0.355-10.293,0.389c-0.945,0.209-0.545,1.656,0.398,1.447
				c2.541-0.566,5.109-0.777,7.705-0.598c0.928,0.064,1.846,0.197,2.752,0.41c1.387,0.322-0.367,0.555-0.873,0.623
				c-2.752,0.365-6.658,0.361-9.271-0.695C429.475,409.301,429.09,410.752,429.975,411.111L429.975,411.111z"/>
		</g>
		<g>
			<path d="M441.303,410.318c0,1.416,0,2.832,0,4.25c0,0.967,1.5,0.967,1.5,0c0-1.418,0-2.834,0-4.25
				C442.803,409.35,441.303,409.35,441.303,410.318L441.303,410.318z"/>
		</g>
		<g>
			<path d="M429.357,415.486c1.977,0.93,4.109,0.891,6.254,0.953c2.193,0.062,4.383-0.031,6.379-1.016
				c0.867-0.428,0.105-1.723-0.758-1.295c-2.725,1.346-8.35,1.365-11.117,0.062C429.244,413.781,428.482,415.074,429.357,415.486
				L429.357,415.486z"/>
		</g>
	</g>
	<g>
		<g>
			<path d="M293.207,422.986c-0.021,1.721-0.328,3.447-0.166,5.166c0.089,0.955,1.59,0.963,1.5,0
				c-0.162-1.719,0.146-3.445,0.166-5.166C294.718,422.02,293.218,422.02,293.207,422.986L293.207,422.986z"/>
		</g>
		<g>
			<path d="M294.279,424.238c1.93,0.779,4.438,0.76,6.479,0.84c1.784,0.068,4.539,0.271,5.959-1.074
				c1.69-1.604-1.45-2.602-2.457-2.789c-3.39-0.635-6.951-0.355-10.293,0.389c-0.945,0.209-0.545,1.656,0.398,1.447
				c2.541-0.566,5.109-0.777,7.704-0.598c0.929,0.064,1.847,0.197,2.753,0.41c1.387,0.322-0.367,0.555-0.873,0.623
				c-2.752,0.365-6.658,0.361-9.271-0.695C293.78,422.428,293.394,423.879,294.279,424.238L294.279,424.238z"/>
		</g>
		<g>
			<path d="M305.607,423.445c0,1.416,0,2.832,0,4.25c0,0.967,1.5,0.967,1.5,0c0-1.418,0-2.834,0-4.25
				C307.107,422.477,305.607,422.477,305.607,423.445L305.607,423.445z"/>
		</g>
		<g>
			<path d="M293.662,428.613c1.976,0.93,4.109,0.891,6.254,0.953c2.193,0.062,4.383-0.031,6.378-1.016
				c0.868-0.428,0.106-1.723-0.757-1.295c-2.725,1.346-8.35,1.365-11.118,0.062C293.548,426.908,292.787,428.201,293.662,428.613
				L293.662,428.613z"/>
		</g>
	</g>
	<g>
		<g>
			<path d="M312.755,421.717c-0.021,1.721-0.328,3.445-0.166,5.166c0.089,0.953,1.59,0.963,1.5,0
				c-0.162-1.721,0.146-3.445,0.166-5.166C314.267,420.748,312.767,420.75,312.755,421.717L312.755,421.717z"/>
		</g>
		<g>
			<path d="M313.828,422.967c1.93,0.781,4.438,0.762,6.479,0.84c1.784,0.07,4.539,0.273,5.959-1.074
				c1.69-1.602-1.45-2.6-2.457-2.789c-3.39-0.633-6.951-0.354-10.293,0.389c-0.945,0.211-0.545,1.656,0.398,1.447
				c2.541-0.564,5.109-0.777,7.704-0.596c0.929,0.064,1.847,0.197,2.753,0.408c1.387,0.324-0.367,0.557-0.873,0.623
				c-2.752,0.367-6.658,0.363-9.271-0.695C313.329,421.158,312.943,422.609,313.828,422.967L313.828,422.967z"/>
		</g>
		<g>
			<path d="M325.156,422.174c0,1.418,0,2.834,0,4.25c0,0.969,1.5,0.969,1.5,0c0-1.416,0-2.832,0-4.25
				C326.656,421.207,325.156,421.207,325.156,422.174L325.156,422.174z"/>
		</g>
		<g>
			<path d="M313.21,427.342c1.976,0.93,4.109,0.891,6.254,0.953c2.193,0.064,4.383-0.029,6.378-1.016
				c0.868-0.428,0.106-1.721-0.757-1.295c-2.725,1.346-8.35,1.365-11.118,0.062C313.097,425.639,312.335,426.932,313.21,427.342
				L313.21,427.342z"/>
		</g>
	</g>
	<g>
		<g>
			<path d="M280.593,415.596c-0.021,1.721-0.328,3.447-0.167,5.166c0.089,0.955,1.591,0.963,1.5,0
				c-0.161-1.719,0.146-3.445,0.167-5.166C282.105,414.629,280.605,414.629,280.593,415.596L280.593,415.596z"/>
		</g>
		<g>
			<path d="M281.665,416.848c1.93,0.779,4.438,0.76,6.479,0.84c1.783,0.068,4.539,0.271,5.959-1.074
				c1.689-1.604-1.451-2.602-2.457-2.789c-3.391-0.635-6.952-0.355-10.294,0.389c-0.944,0.209-0.544,1.656,0.398,1.447
				c2.541-0.566,5.11-0.777,7.704-0.598c0.93,0.064,1.848,0.197,2.754,0.41c1.386,0.322-0.368,0.555-0.874,0.623
				c-2.751,0.365-6.657,0.361-9.271-0.695C281.166,415.037,280.78,416.488,281.665,416.848L281.665,416.848z"/>
		</g>
		<g>
			<path d="M292.993,416.055c0,1.416,0,2.832,0,4.25c0,0.967,1.5,0.967,1.5,0c0-1.418,0-2.834,0-4.25
				C294.493,415.086,292.993,415.086,292.993,416.055L292.993,416.055z"/>
		</g>
		<g>
			<path d="M281.048,421.223c1.975,0.93,4.108,0.891,6.254,0.953c2.193,0.062,4.383-0.031,6.377-1.016
				c0.868-0.428,0.107-1.723-0.756-1.295c-2.726,1.346-8.35,1.365-11.119,0.062C280.935,419.518,280.173,420.811,281.048,421.223
				L281.048,421.223z"/>
		</g>
	</g>
	<g>
		<g>
			<path d="M300.142,414.326c-0.021,1.721-0.328,3.445-0.167,5.166c0.089,0.953,1.591,0.963,1.5,0
				c-0.161-1.721,0.146-3.445,0.167-5.166C301.654,413.357,300.154,413.359,300.142,414.326L300.142,414.326z"/>
		</g>
		<g>
			<path d="M301.213,415.576c1.93,0.781,4.438,0.762,6.479,0.84c1.783,0.07,4.539,0.273,5.959-1.074
				c1.689-1.602-1.451-2.6-2.457-2.789c-3.391-0.633-6.952-0.354-10.294,0.389c-0.944,0.211-0.544,1.656,0.398,1.447
				c2.541-0.564,5.11-0.777,7.704-0.596c0.93,0.064,1.848,0.197,2.754,0.408c1.386,0.324-0.368,0.557-0.874,0.623
				c-2.751,0.367-6.657,0.363-9.271-0.695C300.714,413.768,300.329,415.219,301.213,415.576L301.213,415.576z"/>
		</g>
		<g>
			<path d="M312.542,414.783c0,1.418,0,2.834,0,4.25c0,0.969,1.5,0.969,1.5,0c0-1.416,0-2.832,0-4.25
				C314.042,413.816,312.542,413.816,312.542,414.783L312.542,414.783z"/>
		</g>
		<g>
			<path d="M300.597,419.951c1.975,0.93,4.108,0.891,6.254,0.953c2.193,0.064,4.383-0.029,6.377-1.016
				c0.868-0.428,0.107-1.721-0.756-1.295c-2.726,1.346-8.35,1.365-11.119,0.062C300.484,418.248,299.722,419.541,300.597,419.951
				L300.597,419.951z"/>
		</g>
	</g>
	<g>
		<g>
			<path d="M534.684,403.285c1.902,0.303,3.832,0.475,5.758,0.51c1.502,0.027,4.336,0.133,5.125-1.52
				c1.941-4.068-9.068-3.197-10.684-3.068c-0.959,0.076-0.965,1.576,0,1.5c1.607-0.127,3.223-0.174,4.836-0.145
				c0.465,0.01,5.215,0.617,4.332,1.234c-1.176,0.82-3.408,0.521-4.748,0.463c-1.41-0.061-2.828-0.199-4.221-0.422
				C534.137,401.688,533.73,403.133,534.684,403.285L534.684,403.285z"/>
		</g>
		<g>
			<path d="M544.447,401.857c0,1.416,0,2.832,0,4.25c0,0.967,1.5,0.967,1.5,0c0-1.418,0-2.834,0-4.25
				C545.947,400.889,544.447,400.889,544.447,401.857L544.447,401.857z"/>
		</g>
		<g>
			<path d="M534.695,407.812c3.436,0.209,7.23,0.695,10.439-0.85c0.871-0.42,0.109-1.713-0.758-1.295
				c-2.91,1.4-6.568,0.834-9.682,0.645C533.729,406.254,533.734,407.754,534.695,407.812L534.695,407.812z"/>
		</g>
	</g>
	<g>
		<g>
			<path d="M548.846,400.818c-0.021,1.631-0.314,3.266-0.16,4.896c0.09,0.953,1.59,0.963,1.5,0c-0.154-1.631,0.139-3.266,0.16-4.896
				C550.357,399.85,548.857,399.852,548.846,400.818L548.846,400.818z"/>
		</g>
		<g>
			<path d="M549.895,402.041c1.855,0.742,4.25,0.723,6.209,0.797c1.721,0.066,4.355,0.26,5.729-1.029
				c1.648-1.549-1.385-2.527-2.365-2.709c-3.252-0.602-6.666-0.338-9.871,0.369c-0.945,0.207-0.545,1.654,0.398,1.447
				c2.43-0.535,4.885-0.736,7.365-0.564c0.887,0.061,1.764,0.186,2.627,0.387c1.268,0.291-0.326,0.447-0.828,0.514
				c-2.631,0.348-6.361,0.344-8.865-0.658C549.395,400.234,549.008,401.686,549.895,402.041L549.895,402.041z"/>
		</g>
		<g>
			<path d="M560.715,401.252c0,1.342,0,2.686,0,4.029c0,0.967,1.5,0.967,1.5,0c0-1.344,0-2.688,0-4.029
				C562.215,400.283,560.715,400.283,560.715,401.252L560.715,401.252z"/>
		</g>
		<g>
			<path d="M549.295,406.184c1.9,0.885,3.945,0.85,6.004,0.908c2.105,0.061,4.203-0.029,6.121-0.967
				c0.869-0.426,0.109-1.719-0.758-1.295c-2.602,1.271-7.965,1.291-10.609,0.059C549.182,404.484,548.42,405.775,549.295,406.184
				L549.295,406.184z"/>
		</g>
	</g>
	<g>
		<g>
			<path d="M496.438,365.979c-0.021,1.631-0.314,3.266-0.16,4.896c0.09,0.953,1.59,0.963,1.5,0c-0.154-1.631,0.139-3.266,0.16-4.896
				C497.949,365.01,496.449,365.012,496.438,365.979L496.438,365.979z"/>
		</g>
		<g>
			<path d="M497.486,367.201c1.855,0.742,4.25,0.723,6.209,0.797c1.721,0.066,4.355,0.26,5.729-1.029
				c1.648-1.549-1.385-2.527-2.365-2.709c-3.252-0.602-6.666-0.338-9.871,0.369c-0.945,0.207-0.545,1.654,0.398,1.447
				c2.43-0.535,4.885-0.736,7.365-0.564c0.887,0.061,1.764,0.186,2.627,0.387c1.268,0.291-0.326,0.447-0.828,0.514
				c-2.631,0.348-6.361,0.344-8.865-0.658C496.986,365.395,496.6,366.846,497.486,367.201L497.486,367.201z"/>
		</g>
		<g>
			<path d="M508.307,366.412c0,1.342,0,2.686,0,4.029c0,0.967,1.5,0.967,1.5,0c0-1.344,0-2.688,0-4.029
				C509.807,365.443,508.307,365.443,508.307,366.412L508.307,366.412z"/>
		</g>
		<g>
			<path d="M496.887,371.344c1.9,0.885,3.945,0.85,6.004,0.908c2.105,0.061,4.203-0.029,6.121-0.967
				c0.869-0.426,0.109-1.719-0.758-1.295c-2.602,1.271-7.965,1.291-10.609,0.059C496.773,369.645,496.012,370.936,496.887,371.344
				L496.887,371.344z"/>
		</g>
	</g>
	<g>
		<g>
			<path d="M515.607,365.139c-0.02,1.631-0.314,3.268-0.16,4.896c0.092,0.955,1.592,0.963,1.5,0
				c-0.154-1.629,0.141-3.266,0.16-4.896C517.119,364.172,515.619,364.172,515.607,365.139L515.607,365.139z"/>
		</g>
		<g>
			<path d="M516.656,366.363c1.855,0.742,4.25,0.721,6.211,0.797c1.721,0.066,4.354,0.26,5.727-1.029
				c1.65-1.549-1.385-2.527-2.365-2.709c-3.252-0.604-6.664-0.338-9.871,0.367c-0.943,0.209-0.543,1.654,0.398,1.447
				c2.43-0.535,4.887-0.734,7.367-0.564c0.887,0.061,1.762,0.188,2.627,0.387c1.268,0.293-0.326,0.447-0.828,0.514
				c-2.633,0.348-6.363,0.346-8.867-0.656C516.156,364.557,515.77,366.008,516.656,366.363L516.656,366.363z"/>
		</g>
		<g>
			<path d="M527.477,365.572c0,1.344,0,2.688,0,4.029c0,0.969,1.5,0.969,1.5,0c0-1.342,0-2.686,0-4.029
				C528.977,364.605,527.477,364.605,527.477,365.572L527.477,365.572z"/>
		</g>
		<g>
			<path d="M516.059,370.506c1.898,0.885,3.943,0.85,6.004,0.908c2.104,0.061,4.203-0.031,6.121-0.969
				c0.867-0.424,0.107-1.717-0.758-1.295c-2.604,1.273-7.965,1.291-10.609,0.061C515.945,368.805,515.182,370.098,516.059,370.506
				L516.059,370.506z"/>
		</g>
	</g>
	<g>
		<g>
			<path d="M506.17,360.035c-0.02,1.631-0.314,3.268-0.16,4.896c0.092,0.955,1.592,0.963,1.5,0c-0.154-1.629,0.141-3.266,0.16-4.896
				C507.682,359.068,506.182,359.068,506.17,360.035L506.17,360.035z"/>
		</g>
		<g>
			<path d="M507.219,361.26c1.855,0.742,4.25,0.721,6.211,0.797c1.721,0.066,4.354,0.26,5.727-1.029
				c1.65-1.549-1.385-2.527-2.365-2.709c-3.252-0.604-6.664-0.338-9.871,0.367c-0.943,0.209-0.543,1.654,0.398,1.447
				c2.43-0.535,4.887-0.734,7.367-0.564c0.887,0.061,1.762,0.188,2.627,0.387c1.268,0.293-0.326,0.447-0.828,0.514
				c-2.633,0.348-6.363,0.346-8.867-0.656C506.719,359.453,506.332,360.904,507.219,361.26L507.219,361.26z"/>
		</g>
		<g>
			<path d="M518.039,360.469c0,1.008,0,2.016,0,3.021c0,0.969,1.5,0.969,1.5,0c0-1.006,0-2.014,0-3.021
				C519.539,359.502,518.039,359.502,518.039,360.469L518.039,360.469z"/>
		</g>
		<g>
			<path d="M506.621,365.402c1.719,0.82,3.523,0.801,5.389,0.904c1.785,0.1,3.072,0.322,4.727-0.52
				c0.863-0.439,0.104-1.732-0.758-1.295c-1.357,0.691-2.527,0.457-3.969,0.314c-1.582-0.154-3.15,0.008-4.631-0.699
				C506.51,363.693,505.748,364.986,506.621,365.402L506.621,365.402z"/>
		</g>
	</g>
	<g>
		<g>
			<path d="M495.248,362.596c1.621,0.141,6.559,0.951,6.723-1.686c0.174-2.812-4.871-2.365-6.576-2.344
				c-0.967,0.012-0.969,1.512,0,1.5c0.494-0.006,5.385,0.064,5.086,0.736c-0.27,0.607-2.064,0.471-2.572,0.469
				c-0.891-0.002-1.775-0.098-2.66-0.176C494.283,361.012,494.291,362.514,495.248,362.596L495.248,362.596z"/>
		</g>
		<g>
			<path d="M500.533,361.035c0,1.008,0,2.016,0,3.021c0,0.969,1.5,0.969,1.5,0c0-1.006,0-2.014,0-3.021
				C502.033,360.068,500.533,360.068,500.533,361.035L500.533,361.035z"/>
		</g>
	</g>
	<g>
		<g>
			<path d="M537.729,395.469c0,1.443,0,2.889,0,4.332c0,0.969,1.5,0.969,1.5,0c0-1.443,0-2.889,0-4.332
				C539.229,394.5,537.729,394.5,537.729,395.469L537.729,395.469z"/>
		</g>
		<g>
			<path d="M538.777,396.691c1.855,0.742,4.25,0.723,6.209,0.797c1.721,0.066,4.355,0.26,5.729-1.029
				c1.648-1.549-1.385-2.527-2.365-2.709c-3.252-0.602-6.666-0.338-9.871,0.369c-0.945,0.207-0.545,1.654,0.398,1.447
				c2.43-0.535,4.885-0.736,7.365-0.564c0.887,0.061,1.764,0.186,2.627,0.387c1.268,0.291-0.326,0.447-0.828,0.514
				c-2.631,0.348-6.361,0.344-8.865-0.658C538.277,394.885,537.891,396.336,538.777,396.691L538.777,396.691z"/>
		</g>
		<g>
			<path d="M549.598,395.902c0,1.342,0,2.686,0,4.029c0,0.967,1.5,0.967,1.5,0c0-1.344,0-2.688,0-4.029
				C551.098,394.934,549.598,394.934,549.598,395.902L549.598,395.902z"/>
		</g>
		<g>
			<path d="M549.924,400.877c0.969,0,0.969-1.5,0-1.5C548.957,399.377,548.957,400.877,549.924,400.877L549.924,400.877z"/>
		</g>
	</g>
	<g>
		<g>
			<path d="M419.887,403.486c-0.017,1.664-0.266,3.33-0.135,4.994c0.075,0.957,1.576,0.965,1.5,0
				c-0.131-1.664,0.118-3.33,0.135-4.994C421.397,402.518,419.897,402.52,419.887,403.486L419.887,403.486z"/>
		</g>
		<g>
			<path d="M420.681,404.643c1.497,0.723,3.454,0.771,5.077,0.871c1.668,0.104,3.822,0.207,5.209-0.889
				c1.529-1.209-0.473-2.492-1.531-2.785c-2.826-0.787-6.049-0.451-8.829,0.285c-0.935,0.248-0.537,1.695,0.398,1.447
				c2.04-0.541,4.112-0.75,6.213-0.576c0.746,0.061,1.477,0.193,2.195,0.395c1.061,0.295-0.131,0.441-0.555,0.529
				c-2.035,0.422-5.512,0.35-7.42-0.572C420.572,402.93,419.811,404.223,420.681,404.643L420.681,404.643z"/>
		</g>
		<g>
			<path d="M429.947,403.93c0,1.369,0,2.738,0,4.109c0,0.967,1.5,0.967,1.5,0c0-1.371,0-2.74,0-4.109
				C431.447,402.961,429.947,402.961,429.947,403.93L429.947,403.93z"/>
		</g>
		<g>
			<path d="M420.326,408.947c1.591,0.891,3.37,0.861,5.147,0.924c1.816,0.062,3.648-0.045,5.246-0.984
				c0.832-0.49,0.078-1.787-0.758-1.295c-2.096,1.232-6.732,1.262-8.877,0.061C420.238,407.178,419.482,408.475,420.326,408.947
				L420.326,408.947z"/>
		</g>
	</g>
	<g>
		<g>
			<path d="M399.94,405.148c-0.017,1.664-0.266,3.33-0.135,4.994c0.075,0.957,1.576,0.965,1.5,0
				c-0.131-1.664,0.118-3.33,0.135-4.994C401.45,404.18,399.95,404.182,399.94,405.148L399.94,405.148z"/>
		</g>
		<g>
			<path d="M400.734,406.305c1.496,0.723,3.453,0.771,5.077,0.871c1.668,0.104,3.821,0.207,5.209-0.889
				c1.529-1.209-0.474-2.492-1.531-2.785c-2.826-0.787-6.05-0.451-8.829,0.285c-0.935,0.248-0.537,1.695,0.398,1.447
				c2.039-0.541,4.111-0.75,6.213-0.576c0.746,0.061,1.477,0.193,2.196,0.395c1.061,0.295-0.131,0.441-0.555,0.529
				c-2.036,0.422-5.512,0.35-7.421-0.572C400.625,404.592,399.864,405.885,400.734,406.305L400.734,406.305z"/>
		</g>
		<g>
			<path d="M410,405.592c0,1.369,0,2.738,0,4.109c0,0.967,1.5,0.967,1.5,0c0-1.371,0-2.74,0-4.109
				C411.5,404.623,410,404.623,410,405.592L410,405.592z"/>
		</g>
		<g>
			<path d="M400.378,410.609c1.591,0.891,3.369,0.861,5.146,0.924c1.817,0.062,3.648-0.045,5.246-0.984
				c0.832-0.49,0.078-1.787-0.758-1.295c-2.096,1.232-6.732,1.262-8.877,0.061C400.291,408.84,399.535,410.137,400.378,410.609
				L400.378,410.609z"/>
		</g>
	</g>
	<g>
		<g>
			<path d="M450.369,265.102c-0.02,1.52-0.291,3.045-0.148,4.564c0.09,0.954,1.59,0.963,1.5,0c-0.143-1.52,0.129-3.045,0.148-4.564
				C451.881,264.134,450.381,264.135,450.369,265.102L450.369,265.102z"/>
		</g>
		<g>
			<path d="M451.381,266.292c1.711,0.691,3.936,0.675,5.746,0.745c1.605,0.062,4.051,0.235,5.324-0.975
				c1.557-1.476-1.238-2.429-2.207-2.609c-3.012-0.563-6.174-0.317-9.141,0.343c-0.945,0.211-0.545,1.656,0.398,1.447
				c2.236-0.498,4.498-0.684,6.783-0.524c0.812,0.057,1.615,0.173,2.408,0.358c1.08,0.252-0.221,0.309-0.748,0.379
				c-2.424,0.323-5.863,0.32-8.166-0.611C450.881,264.481,450.496,265.933,451.381,266.292L451.381,266.292z"/>
		</g>
		<g>
			<path d="M461.322,265.506c0,1.252,0,2.504,0,3.755c0,0.968,1.5,0.968,1.5,0c0-1.251,0-2.503,0-3.755
				C462.822,264.54,461.322,264.54,461.322,265.506L461.322,265.506z"/>
		</g>
		<g>
			<path d="M450.812,270.148c1.762,0.829,3.658,0.798,5.57,0.853c1.953,0.058,3.9-0.03,5.678-0.908
				c0.867-0.428,0.107-1.723-0.758-1.295c-2.375,1.174-7.316,1.192-9.732,0.056C450.701,268.444,449.939,269.737,450.812,270.148
				L450.812,270.148z"/>
		</g>
	</g>
	<g>
		<g>
			<path d="M471.918,264.32c-0.02,1.521-0.289,3.044-0.148,4.563c0.09,0.955,1.59,0.963,1.5,0c-0.141-1.52,0.129-3.043,0.148-4.563
				C473.43,263.352,471.93,263.353,471.918,264.32L471.918,264.32z"/>
		</g>
		<g>
			<path d="M472.928,265.508c1.713,0.693,3.936,0.676,5.748,0.746c1.605,0.062,4.049,0.234,5.324-0.975
				c1.557-1.477-1.238-2.428-2.207-2.609c-3.012-0.564-6.174-0.317-9.141,0.343c-0.945,0.21-0.545,1.655,0.398,1.446
				c2.236-0.497,4.498-0.682,6.783-0.523c0.812,0.057,1.615,0.173,2.408,0.357c1.08,0.252-0.221,0.309-0.748,0.379
				c-2.424,0.324-5.863,0.322-8.168-0.609C472.43,263.7,472.043,265.151,472.928,265.508L472.928,265.508z"/>
		</g>
		<g>
			<path d="M482.871,264.724c0,1.251,0,2.503,0,3.755c0,0.967,1.5,0.967,1.5,0c0-1.252,0-2.504,0-3.755
				C484.371,263.756,482.871,263.756,482.871,264.724L482.871,264.724z"/>
		</g>
		<g>
			<path d="M472.363,269.366c1.76,0.828,3.656,0.798,5.568,0.854c1.953,0.057,3.9-0.031,5.68-0.909
				c0.867-0.428,0.105-1.722-0.758-1.295c-2.379,1.173-7.316,1.192-9.732,0.056C472.25,267.661,471.488,268.954,472.363,269.366
				L472.363,269.366z"/>
		</g>
	</g>
	<g>
		<g>
			<path d="M461.922,261.963c-0.016,1.233-0.236,2.471-0.119,3.703c0.09,0.955,1.59,0.963,1.5,0
				c-0.117-1.232,0.104-2.47,0.119-3.703C463.434,260.997,461.934,260.997,461.922,261.963L461.922,261.963z"/>
		</g>
		<g>
			<path d="M462.666,263.458c1.299,0.709,3.09,0.77,4.529,0.871c1.412,0.098,3.777,0.242,4.771-1.027
				c1.086-1.389-0.506-2.371-1.697-2.698c-2.471-0.679-5.238-0.384-7.648,0.338c-0.926,0.276-0.531,1.725,0.398,1.446
				c1.76-0.527,3.555-0.746,5.387-0.582c0.607,0.054,1.203,0.172,1.791,0.334c0.986,0.271,0.305,0.457-0.285,0.595
				c-1.742,0.407-4.883,0.306-6.488-0.571C462.574,261.7,461.816,262.995,462.666,263.458L462.666,263.458z"/>
		</g>
		<g>
			<path d="M470.559,262.292c0,1.015,0,2.03,0,3.046c0,1.289,2,1.289,2,0c0-1.016,0-2.031,0-3.046
				C472.559,261.002,470.559,261.002,470.559,262.292L470.559,262.292z"/>
		</g>
		<g>
			<path d="M462.352,266.18c1.455,0.684,3.012,0.666,4.59,0.711c1.613,0.047,3.213-0.033,4.68-0.756
				c0.867-0.428,0.105-1.723-0.758-1.295c-1.219,0.601-2.596,0.574-3.922,0.551c-1.266-0.021-2.664,0.043-3.832-0.506
				C462.24,264.475,461.479,265.768,462.352,266.18L462.352,266.18z"/>
		</g>
	</g>
	<g>
		<g>
			<path d="M439.463,262.415c-0.018,1.439-0.275,2.885-0.139,4.324c0.09,0.954,1.59,0.963,1.5,0
				c-0.137-1.439,0.121-2.885,0.139-4.324C440.975,261.446,439.475,261.448,439.463,262.415L439.463,262.415z"/>
		</g>
		<g>
			<path d="M440.27,264.05c1.496,0.816,3.568,0.883,5.225,0.999c1.615,0.113,4.346,0.292,5.482-1.162
				c1.203-1.537-0.643-2.588-1.924-2.94c-2.865-0.787-6.07-0.442-8.865,0.394c-0.926,0.277-0.531,1.725,0.398,1.447
				c2.064-0.619,4.174-0.876,6.322-0.686c0.961,0.086,4.256,0.756,1.793,1.333c-2.068,0.484-5.768,0.361-7.674-0.68
				C440.178,262.292,439.42,263.586,440.27,264.05L440.27,264.05z"/>
		</g>
		<g>
			<path d="M449.84,262.797c0,1.186,0,2.372,0,3.558c0,0.968,1.5,0.968,1.5,0c0-1.186,0-2.372,0-3.558
				C451.34,261.831,449.84,261.831,449.84,262.797L449.84,262.797z"/>
		</g>
		<g>
			<path d="M439.902,267.229c1.676,0.787,3.479,0.76,5.297,0.813c1.859,0.054,3.709-0.032,5.4-0.866
				c0.867-0.428,0.105-1.722-0.758-1.295c-2.24,1.105-6.904,1.123-9.182,0.053C439.791,265.524,439.029,266.817,439.902,267.229
				L439.902,267.229z"/>
		</g>
	</g>
	<g>
		<path d="M452.33,452.344c0-39.498,0-78.994,0-118.49c0-0.969-1.5-0.969-1.5,0c0,39.496,0,78.992,0,118.49
			C450.83,453.311,452.33,453.311,452.33,452.344L452.33,452.344z"/>
	</g>
	<g>
		<path d="M495.996,447.344c0-38.809,0-77.615,0-116.424c0-0.967-1.5-0.967-1.5,0c0,38.809,0,77.615,0,116.424
			C494.496,448.311,495.996,448.311,495.996,447.344L495.996,447.344z"/>
	</g>
	<g>
		<path d="M424.83,328.01c0,24.334,0,48.668,0,73c0,0.969,1.5,0.969,1.5,0c0-24.332,0-48.666,0-73
			C426.33,327.043,424.83,327.043,424.83,328.01L424.83,328.01z"/>
	</g>
	<g>
		<path d="M533.414,372.344c0,23.832,0,47.666,0,71.5c0,0.967,1.5,0.967,1.5,0c0-23.834,0-47.668,0-71.5
			C534.914,371.375,533.414,371.375,533.414,372.344L533.414,372.344z"/>
	</g>
	<g>
		<path d="M567.914,441.305c-0.002-11.221-0.055-22.439-0.057-33.66c0-0.967-1.5-0.967-1.5,0c0.002,11.221,0.055,22.439,0.057,33.66
			C566.414,442.271,567.914,442.271,567.914,441.305L567.914,441.305z"/>
	</g>
	<g>
		<path d="M412.164,458.344c0-12.666,0-25.334,0-38c0-1.289-2-1.289-2,0c0,12.666,0,25.334,0,38
			C410.164,459.633,412.164,459.633,412.164,458.344L412.164,458.344z"/>
	</g>
	<g>
		<path d="M386.914,445.344c0-12.027,0-24.057,0-36.084c0-0.967-1.5-0.967-1.5,0c0,12.027,0,24.057,0,36.084
			C385.414,446.311,386.914,446.311,386.914,445.344L386.914,445.344z"/>
	</g>
	<g>
		<path d="M411.164,420.717c52.043-3.131,103.93-8.709,155.944-12.322c0.959-0.066,0.967-1.566,0-1.5
			c-52.014,3.613-103.9,9.191-155.944,12.322C410.203,419.273,410.197,420.775,411.164,420.717L411.164,420.717z"/>
	</g>
	<g>
		<path d="M534.326,400.594c1.385-0.09,2.77-0.172,4.154-0.268c1.279-0.09,1.287-2.09,0-2c-1.385,0.096-2.77,0.178-4.154,0.268
			C533.047,398.676,533.039,400.676,534.326,400.594L534.326,400.594z"/>
	</g>
	<g>
		<path d="M410.75,407.838c3.238-0.209,6.476-0.418,9.714-0.627c0.96-0.061,0.967-1.562,0-1.5c-3.238,0.209-6.476,0.418-9.714,0.627
			C409.791,406.398,409.785,407.9,410.75,407.838L410.75,407.838z"/>
	</g>
	<g>
		<path d="M386.135,409.369c4.812-0.287,9.624-0.59,14.436-0.891c0.961-0.059,0.967-1.561,0-1.5
			c-4.812,0.301-9.623,0.604-14.436,0.891C385.174,407.928,385.168,409.428,386.135,409.369L386.135,409.369z"/>
	</g>
	<g>
		<path d="M451.58,378.271c27.6-1.781,55.195-3.609,82.789-5.473c0.959-0.064,0.965-1.564,0-1.5
			c-27.594,1.863-55.189,3.691-82.789,5.473C450.621,376.832,450.615,378.334,451.58,378.271L451.58,378.271z"/>
	</g>
	<g>
		<path d="M451.906,334.506c14.447-0.934,28.895-1.879,43.34-2.834c0.961-0.064,0.967-1.564,0-1.5
			c-14.445,0.955-28.893,1.9-43.34,2.834C450.945,333.066,450.939,334.568,451.906,334.506L451.906,334.506z"/>
	</g>
	<g>
		<path d="M411.056,459.488c52.069-5.494,104.073-11.625,156.108-17.434c0.949-0.107,0.961-1.607,0-1.5
			c-52.035,5.809-104.039,11.939-156.108,17.434C410.104,458.09,410.094,459.59,411.056,459.488L411.056,459.488z"/>
	</g>
	<g>
		<path d="M425.381,368.826c8.719,2.998,17.287,6.406,26.057,9.262c0.922,0.299,1.314-1.148,0.398-1.447
			c-8.77-2.854-17.338-6.264-26.057-9.262C424.863,367.064,424.473,368.514,425.381,368.826L425.381,368.826z"/>
	</g>
	<g>
		<path d="M425.381,328.734c8.668,1.947,17.334,3.895,26,5.842c0.943,0.211,1.342-1.234,0.398-1.447
			c-8.666-1.947-17.332-3.895-26-5.842C424.838,327.076,424.438,328.521,425.381,328.734L425.381,328.734z"/>
	</g>
	<g>
		<path d="M486.965,328.859c2.582,0.891,5.275,1.363,7.896,2.117c0.932,0.268,1.326-1.18,0.398-1.447
			c-2.621-0.754-5.314-1.227-7.896-2.117C486.447,327.096,486.057,328.545,486.965,328.859L486.965,328.859z"/>
	</g>
	<g>
		<path d="M425.477,328.156c3.646-0.008,7.291-0.109,10.936-0.186c0.967-0.021,0.969-1.521,0-1.5
			c-3.645,0.076-7.289,0.178-10.936,0.186C424.51,326.658,424.508,328.158,425.477,328.156L425.477,328.156z"/>
	</g>
	<g>
		<path d="M385.756,446.043c8.385,4.312,16.419,9.248,24.921,13.344c0.867,0.418,1.629-0.875,0.758-1.295
			c-8.503-4.096-16.537-9.031-24.921-13.344C385.656,444.307,384.896,445.602,385.756,446.043L385.756,446.043z"/>
	</g>
	<g>
		<path d="M385.964,409.984c8.333,3.457,16.666,6.916,25,10.373c0.894,0.371,1.278-1.082,0.398-1.447
			c-8.333-3.457-16.666-6.916-25-10.373C385.469,408.166,385.084,409.619,385.964,409.984L385.964,409.984z"/>
	</g>
	<g>
		<path d="M442.047,413.691c2.871,1.256,5.742,2.51,8.611,3.766c1.17,0.512,2.189-1.211,1.01-1.727
			c-2.871-1.256-5.74-2.512-8.611-3.766C441.887,411.453,440.867,413.176,442.047,413.691L442.047,413.691z"/>
	</g>
	<g>
		<path d="M430.193,408.508c0.773,0.34,1.549,0.678,2.322,1.016c0.5,0.219,1.068,0.152,1.367-0.357
			c0.252-0.43,0.143-1.15-0.357-1.369c-0.775-0.338-1.549-0.678-2.322-1.016c-0.5-0.219-1.07-0.152-1.369,0.359
			C429.584,407.568,429.693,408.289,430.193,408.508L430.193,408.508z"/>
	</g>
	<g>
		<path d="M561.086,405.646c1.871,0.914,3.881,1.512,5.822,2.266c0.902,0.352,1.291-1.1,0.398-1.447
			c-1.441-0.561-2.887-1.176-4.373-1.615c-0.154-0.045-0.305-0.107-0.133-0.029c-0.322-0.146-0.639-0.312-0.957-0.469
			C560.977,403.928,560.217,405.221,561.086,405.646L561.086,405.646z"/>
	</g>
	<g>
		<path d="M545.305,402.369c1.447,0.227,3.836,0.48,5.035-0.6c0.959-0.865-0.459-2.275-1.414-1.414
			c-0.115,0.102-0.787,0.119-1.057,0.135c-0.684,0.043-1.354,0.057-2.033-0.049C544.574,400.246,544.033,402.172,545.305,402.369
			L545.305,402.369z"/>
	</g>
	<g>
		<path d="M528.527,370.129c1.91,0.758,3.734,1.719,5.688,2.375c0.918,0.309,1.311-1.139,0.398-1.447
			c-1.951-0.654-3.777-1.615-5.688-2.375C528.025,368.326,527.639,369.777,528.527,370.129L528.527,370.129z"/>
	</g>
	<g>
		<path d="M292.414,432.781c0,13.451,0,26.902,0,40.354c0,0.967,1.5,0.967,1.5,0c0-13.451,0-26.902,0-40.354
			C293.914,431.812,292.414,431.812,292.414,432.781L292.414,432.781z"/>
	</g>
	<g>
		<path d="M334.83,428.242c0,13.471,0,26.943,0,40.414c0,0.967,1.5,0.967,1.5,0c0-13.471,0-26.943,0-40.414
			C336.33,427.275,334.83,427.275,334.83,428.242L334.83,428.242z"/>
	</g>
	<g>
		<path d="M272.498,419.676c0,13.576,0,27.152,0,40.727c0,0.969,1.5,0.969,1.5,0c0-13.574,0-27.15,0-40.727
			C273.998,418.709,272.498,418.709,272.498,419.676L272.498,419.676z"/>
	</g>
	<g>
		<path d="M293.744,473.826c14.029-1.432,28.062-2.822,42.104-4.143c0.955-0.09,0.963-1.59,0-1.5
			c-14.041,1.32-28.074,2.711-42.104,4.143C292.791,472.424,292.781,473.924,293.744,473.826L293.744,473.826z"/>
	</g>
	<g>
		<path d="M293.164,433.182c14.211-1.365,28.441-2.271,42.684-3.213c0.96-0.064,0.967-1.564,0-1.5
			c-14.242,0.941-28.473,1.848-42.684,3.213C292.209,431.773,292.201,433.273,293.164,433.182L293.164,433.182z"/>
	</g>
	<g>
		<path d="M294.244,418.816c2.158-0.197,4.314-0.396,6.472-0.594c0.955-0.088,0.964-1.59,0-1.5
			c-2.157,0.197-4.313,0.396-6.472,0.594C293.289,417.404,293.281,418.906,294.244,418.816L294.244,418.816z"/>
	</g>
	<g>
		<path d="M274.289,420.648c2.285-0.211,4.568-0.42,6.854-0.629c0.955-0.088,0.963-1.59,0-1.5c-2.285,0.209-4.568,0.418-6.854,0.629
			C273.333,419.236,273.326,420.736,274.289,420.648L274.289,420.648z"/>
	</g>
	<g>
		<path d="M272.682,460.941c6.825,4.084,13.454,8.479,20.103,12.84c0.812,0.533,1.562-0.766,0.758-1.295
			c-6.65-4.361-13.277-8.756-20.104-12.84C272.607,459.148,271.853,460.445,272.682,460.941L272.682,460.941z"/>
	</g>
	<g>
		<path d="M273.91,420.545c6.616,3.789,12.727,8.297,19.084,12.488c0.811,0.533,1.561-0.766,0.757-1.295
			c-6.356-4.191-12.468-8.701-19.083-12.488C273.826,418.77,273.071,420.064,273.91,420.545L273.91,420.545z"/>
	</g>
	<g>
		<path d="M325.531,424.1c3.224,1.598,6.447,3.193,9.671,4.791c0.864,0.428,1.624-0.865,0.757-1.295
			c-3.224-1.598-6.447-3.193-9.671-4.791C325.423,422.377,324.664,423.67,325.531,424.1L325.531,424.1z"/>
	</g>
	<g>
		<path d="M312.787,418.068c2.125,1.053,4.249,2.104,6.373,3.156c1.152,0.57,2.166-1.154,1.01-1.727
			c-2.125-1.053-4.249-2.105-6.373-3.156C312.644,415.771,311.63,417.496,312.787,418.068L312.787,418.068z"/>
	</g>
	<g>
		<path d="M240.664,424.178c0,11.889,0,23.777,0,35.666c0,0.969,1.5,0.969,1.5,0c0-11.889,0-23.777,0-35.666
			C242.164,423.209,240.664,423.209,240.664,424.178L240.664,424.178z"/>
	</g>
	<g>
		<path d="M241.414,461.012c10.611-0.279,21.223-0.557,31.834-0.834c0.965-0.025,0.967-1.525,0-1.5
			c-10.611,0.277-21.223,0.555-31.834,0.834C240.449,459.537,240.446,461.037,241.414,461.012L241.414,461.012z"/>
	</g>
	<g>
		<path d="M241.414,425.344c10.549-0.264,21.098-0.527,31.646-0.791c0.966-0.025,0.969-1.525,0-1.5
			c-10.549,0.264-21.098,0.527-31.646,0.791C240.449,423.869,240.446,425.369,241.414,425.344L241.414,425.344z"/>
	</g>
	<g>
		<path d="M225.41,415.318c5.353,3.061,10.625,6.207,15.834,9.506c0.82,0.52,1.571-0.779,0.757-1.295
			c-5.208-3.299-10.481-6.445-15.833-9.506C225.326,413.541,224.571,414.838,225.41,415.318L225.41,415.318z"/>
	</g>
	<g>
		<path d="M225.441,449.697c5.156,3.795,10.478,7.361,15.594,11.211c0.773,0.582,1.52-0.721,0.758-1.295
			c-5.117-3.85-10.438-7.416-15.596-11.211C225.417,447.828,224.669,449.131,225.441,449.697L225.441,449.697z"/>
	</g>
	<g>
		<path d="M226.539,449.094c0-11.418,0-22.834,0-34.25c0-0.969-1.5-0.969-1.5,0c0,11.416,0,22.832,0,34.25
			C225.039,450.061,226.539,450.061,226.539,449.094L226.539,449.094z"/>
	</g>
	<g>
		<path d="M226.164,415.26c13.056,0,26.111,0,39.167,0c0.968,0,0.968-1.5,0-1.5c-13.056,0-26.111,0-39.167,0
			C225.197,413.76,225.197,415.26,226.164,415.26L226.164,415.26z"/>
	</g>
	<g>
		<path d="M264.953,415.158c2.676,1.938,5.582,3.531,8.314,5.387c0.803,0.545,1.553-0.754,0.757-1.295
			c-2.732-1.855-5.639-3.449-8.315-5.387C264.923,413.295,264.176,414.596,264.953,415.158L264.953,415.158z"/>
	</g>
	<g>
		<path d="M271.476,428.156c-3.039,0.146-4.713,3.334-5.062,6.062c-0.441,3.439,2.488,5.822,5.766,4.838
			c1.232-0.369,0.707-2.299-0.531-1.928c-4.879,1.465-3.628-6.807-0.172-6.973C272.759,430.094,272.765,428.094,271.476,428.156
			L271.476,428.156z"/>
	</g>
	<g>
		<path d="M272.539,445.07c-3.91-0.326-5.941,2.514-6.363,6.082c-0.211,1.777,0.776,3.959,2.242,4.975
			c1.791,1.24,3.681,0.754,5.141-0.732c0.904-0.922-0.51-2.336-1.414-1.414c-2.455,2.5-4.309-1.254-3.854-3.527
			c0.46-2.299,1.84-3.584,4.249-3.383C273.825,447.178,273.814,445.176,272.539,445.07L272.539,445.07z"/>
	</g>
	<g>
		<path d="M271.8,446.816c0.134-0.02,0.253,0.043,0.359,0.111c0.818,0.521,1.57-0.777,0.758-1.295
			c-0.474-0.301-0.975-0.338-1.516-0.264c-0.406,0.057-0.621,0.568-0.523,0.924C270.997,446.725,271.396,446.873,271.8,446.816
			L271.8,446.816z"/>
	</g>
	<g>
		<path d="M255.492,445.629c-3.243-0.768-6.066,2.848-6.913,5.547c-1.094,3.49,1.2,6.406,4.71,6.689
			c3.909,0.318,6.496-3.852,6.931-7.189c0.204-1.572-0.319-3.506-1.676-4.445c-1.713-1.186-3.666-0.879-5.583-0.414
			c-1.254,0.303-0.722,2.232,0.531,1.928c1.17-0.281,2.412-0.611,3.581-0.107c1.392,0.602,1.26,2.562,1.021,3.748
			c-0.466,2.316-2.376,4.389-4.806,4.48c-2.746,0.107-3.287-2.545-2.648-4.582c0.453-1.449,2.514-4.152,4.32-3.727
			C256.214,447.854,256.747,445.926,255.492,445.629L255.492,445.629z"/>
	</g>
	<g>
		<path d="M255.492,430.08c-3.243-0.768-6.066,2.848-6.913,5.547c-1.094,3.49,1.2,6.406,4.71,6.689
			c3.909,0.318,6.496-3.852,6.931-7.189c0.204-1.572-0.319-3.506-1.676-4.445c-1.713-1.186-3.666-0.879-5.583-0.414
			c-1.254,0.303-0.722,2.232,0.531,1.928c1.17-0.281,2.412-0.611,3.581-0.107c1.392,0.602,1.26,2.562,1.021,3.748
			c-0.466,2.316-2.376,4.389-4.806,4.48c-2.746,0.107-3.287-2.545-2.648-4.582c0.453-1.449,2.514-4.152,4.32-3.727
			C256.214,432.305,256.747,430.377,255.492,430.08L255.492,430.08z"/>
	</g>
	<g>
		<path d="M567.121,420.748c7.82-0.561,15.639-1.121,23.459-1.682c1.279-0.092,1.289-2.092,0-2
			c-7.82,0.561-15.639,1.121-23.459,1.682C565.842,418.84,565.834,420.842,567.121,420.748L567.121,420.748z"/>
	</g>
	<g>
		<path d="M335.581,437.344c16.86-1.209,33.722-2.418,50.582-3.627c1.278-0.092,1.288-2.092,0-2
			c-16.86,1.209-33.722,2.418-50.582,3.627C334.302,435.436,334.292,437.436,335.581,437.344L335.581,437.344z"/>
	</g>
	<g>
		<path d="M404.617,297.412c-2.183,12.297-5.304,26.258,0.019,38.245c0.771,1.738,3.354,6.109,5.734,3.729
			c3.516-3.516,1.466-12.738,0.841-16.975c-0.188-1.271-2.114-0.729-1.928,0.531c0.386,2.623,0.621,5.203,0.701,7.85
			c0.024,0.797-0.341,7.967-1.696,6.865c-3.314-2.689-3.812-9.211-4.202-13.008c-0.934-9.094,0.886-17.838,2.459-26.706
			C406.769,296.682,404.841,296.143,404.617,297.412L404.617,297.412z"/>
	</g>
	<g>
		<path d="M404.909,297.147c-4.334,2.613-8.019,6.472-11.981,9.613c-5.286,4.189-10.895,7.957-16.555,11.615
			c-10.354,6.693-21.076,12.799-31.464,19.439c-1.083,0.691-0.081,2.424,1.01,1.727c10.388-6.641,21.073-12.801,31.464-19.438
			c5.228-3.34,10.332-6.865,15.271-10.619c4.438-3.373,8.503-7.74,13.265-10.611C407.021,298.209,406.016,296.48,404.909,297.147
			L404.909,297.147z"/>
	</g>
	<g>
		<path d="M332.207,382.217c3.286,3.543,10.414-1.189,13.707-2.691c7.906-3.607,15.676-7.508,23.271-11.73
			c14.619-8.129,28.197-17.898,41.183-28.41c1.003-0.812-0.422-2.219-1.414-1.414c-11.261,9.115-22.964,17.59-35.416,25.012
			c-5.864,3.494-11.901,6.695-18.006,9.748c-3.511,1.756-7.063,3.426-10.628,5.068c-1.902,0.877-9.096,5.363-11.283,3.004
			C332.742,379.855,331.331,381.273,332.207,382.217L332.207,382.217z"/>
	</g>
	<g>
		<path d="M307.711,308.41c-0.099-0.91-0.198-1.822-0.298-2.734c-0.088-1.275-2.065-1.293-2,0
			c0.775,15.334,6.287,30.588,11.066,45.039c3.854,11.656,8.445,22.016,15.987,31.809c0.774,1.008,2.514,0.014,1.727-1.01
			c-7.099-9.217-11.655-18.932-15.319-29.924c-4.899-14.693-10.673-30.312-11.461-45.914c-0.666,0-1.334,0-2,0
			c0.089,1.281,0.175,1.996,0.369,3.266C305.977,310.215,307.904,309.672,307.711,308.41L307.711,308.41z"/>
	</g>
	<g>
		<path d="M340.039,293.094c0.449,9.958,3.475,19.435,6.785,28.765c1.373,3.865,2.48,9.104,4.988,12.498
			c0.758,1.025,2.494,0.029,1.727-1.01c-2.075-2.811-3.003-7.059-4.166-10.275c-3.505-9.697-6.866-19.594-7.334-29.978
			C341.981,291.809,339.98,291.803,340.039,293.094L340.039,293.094z"/>
	</g>
	<g>
		<path d="M339.217,238.172c-6.454,11.292-17.394,18.684-26.097,28.059c-9.711,10.462-12.034,22.963-13.703,36.771
			c-4.411,36.484,2.922,73.16,5.996,109.441c0.107,1.275,2.109,1.285,2,0c-2.98-35.164-9.565-70.287-6.392-105.68
			c0.763-8.509,1.794-17.591,4.747-25.663c2.298-6.282,6.801-11.542,11.428-16.237c8.233-8.354,17.827-15.325,23.747-25.682
			C341.585,238.061,339.857,237.053,339.217,238.172L339.217,238.172z"/>
	</g>
	<g>
		<path d="M392.899,350.807c1.128,18.744,1.718,37.508,1.672,56.285c-0.003,1.291,1.997,1.291,2,0
			c0.046-18.777-0.544-37.541-1.672-56.285C394.822,349.525,392.822,349.518,392.899,350.807L392.899,350.807z"/>
	</g>
	<g>
		<path d="M380.034,265.61c5.411,13.959,7.771,29.457,9.456,44.267c0.144,1.266,2.146,1.279,2,0
			c-1.706-15-4.048-30.664-9.528-44.798C381.5,263.889,379.566,264.405,380.034,265.61L380.034,265.61z"/>
	</g>
	<g>
		<path d="M400.148,264.058c4.956,1.19,9.514,3.544,13.8,6.257c5.49,3.475,5.823,9.267,7.002,15.045
			c0.257,1.264,2.185,0.727,1.927-0.531c-1.091-5.358-1.523-10.719-5.709-14.658c-4.176-3.931-10.979-6.717-16.488-8.041
			C399.426,261.829,398.894,263.756,400.148,264.058L400.148,264.058z"/>
	</g>
	<g>
		<path d="M339.217,239.182c4.142,5.963,11.22,10.538,17.133,14.617c7.326,5.055,15.401,8.85,23.923,11.384
			c1.239,0.368,1.765-1.562,0.531-1.929c-7.341-2.184-14.174-5.349-20.682-9.373c-6.539-4.044-14.72-9.289-19.179-15.709
			C340.214,237.121,338.48,238.12,339.217,239.182L339.217,239.182z"/>
	</g>
	<g>
		<path d="M379.457,263.87c-6.534,6.062-9.143,15.893-10.043,24.475c-0.135,1.281,1.867,1.269,2,0
			c0.847-8.066,3.332-17.377,9.457-23.061C381.818,264.405,380.4,262.993,379.457,263.87L379.457,263.87z"/>
	</g>
	<g>
		<path d="M333.884,247.015c8.03,17.337,20.922,30.769,36.024,42.192c1.029,0.778,2.024-0.96,1.01-1.727
			c-14.821-11.211-27.429-24.467-35.308-41.476C335.069,244.836,333.345,245.853,333.884,247.015L333.884,247.015z"/>
	</g>
	<g>
		<path d="M398.825,262.704c-2.009,6.969-5.753,13.869-12.166,17.652c-1.109,0.654-0.104,2.383,1.01,1.727
			c6.861-4.048,10.932-11.377,13.084-18.848C401.111,261.993,399.181,261.465,398.825,262.704L398.825,262.704z"/>
	</g>
	<g>
		<path d="M391.289,280.094c5.032,0.051,9.549,1.035,13.62,4.113c1.03,0.777,2.024-0.96,1.01-1.727
			c-4.34-3.281-9.275-4.332-14.63-4.387C389.999,278.081,390,280.081,391.289,280.094L391.289,280.094z"/>
	</g>
	<g>
		<path d="M400.409,265.083c2.211,0.938,2.975,5.594,3.497,7.633c0.836,3.27,1.452,7.047,0.544,10.363
			c-0.342,1.245,1.588,1.773,1.928,0.531c1.095-3.994,0.231-8.396-0.772-12.32c-0.594-2.323-1.654-6.859-4.187-7.934
			C400.246,262.858,399.225,264.581,400.409,265.083L400.409,265.083z"/>
	</g>
	<g>
		<path d="M381.659,287.856c-2.382,1.14-2,5.26-1.273,7.261c0.415,1.141,1.223,2.217,2.497,2.382
			c1.276,0.165,2.346-0.654,2.75-1.829c0.658-1.912,0.834-7.333-1.828-8.04c-3.294-0.875-3.58,3.967-3.766,6.09
			c-0.112,1.285,1.889,1.273,2,0c0.041-0.464,0.473-4.525,1.145-4.188c0.525,0.266,0.656,1.686,0.739,2.174
			c0.161,0.951,0.139,1.992-0.064,2.934c-0.456,2.109-1.638-0.187-1.842-1.072c-0.223-0.965-0.478-3.444,0.652-3.984
			C383.832,289.026,382.816,287.301,381.659,287.856L381.659,287.856z"/>
	</g>
	<g>
		<path d="M384.852,364.939c-2.382,1.141-2,5.262-1.273,7.262c0.415,1.141,1.223,2.217,2.497,2.383
			c1.276,0.164,2.346-0.656,2.75-1.83c0.658-1.912,0.834-7.334-1.828-8.039c-3.294-0.875-3.58,3.965-3.766,6.088
			c-0.112,1.285,1.889,1.275,2,0c0.041-0.463,0.473-4.523,1.145-4.186c0.525,0.264,0.656,1.686,0.739,2.174
			c0.161,0.951,0.139,1.992-0.064,2.932c-0.456,2.109-1.638-0.186-1.842-1.072c-0.223-0.965-0.478-3.443,0.652-3.984
			C387.025,366.109,386.009,364.387,384.852,364.939L384.852,364.939z"/>
	</g>
	<g>
		<path d="M393.354,331.539c-1.491,2.17,0.901,5.535,2.528,6.895c0.891,0.742,2.085,1.301,3.246,0.889
			c1.285-0.459,1.847-1.777,1.591-3.057c-0.427-2.127-2.768-6.225-5.379-6.025c-3.693,0.283-1.252,5.457-0.43,7.191
			c0.552,1.164,2.275,0.148,1.727-1.01c-0.348-0.734-0.689-1.467-0.961-2.234c-0.062-0.176-0.621-2.049-0.149-1.947
			c1.473,0.32,2.766,2.846,3.163,4.119c0.604,1.938-1.487,0.635-2.086,0.01c-0.681-0.709-2.24-2.777-1.523-3.82
			C395.813,331.482,394.08,330.482,393.354,331.539L393.354,331.539z"/>
	</g>
	<g>
		<path d="M384.881,394.664c-2.382,1.139-2,5.26-1.273,7.26c0.415,1.141,1.223,2.217,2.497,2.383c1.276,0.164,2.346-0.654,2.75-1.83
			c0.658-1.912,0.834-7.332-1.828-8.039c-3.294-0.875-3.58,3.967-3.766,6.09c-0.112,1.285,1.889,1.273,2,0
			c0.041-0.465,0.473-4.525,1.145-4.188c0.525,0.266,0.656,1.686,0.739,2.174c0.161,0.951,0.139,1.992-0.064,2.934
			c-0.456,2.109-1.638-0.188-1.842-1.072c-0.223-0.965-0.478-3.445,0.652-3.984C387.054,395.834,386.039,394.109,384.881,394.664
			L384.881,394.664z"/>
	</g>
	<g>
		<path d="M385.883,311.838c-2.974,6.025-0.78,13.584,0.093,19.912c0.924,6.693,2.599,13.566,8.055,18.006
			c0.991,0.807,2.415-0.6,1.414-1.414c-4.876-3.967-6.352-9.834-7.339-15.779c-0.977-5.887-3.216-14.203-0.496-19.715
			C388.179,311.695,386.454,310.682,385.883,311.838L385.883,311.838z"/>
	</g>
	<g>
		<path d="M360.248,194.344c0.152-4.939-3.314-9.349-8.434-9.738c-6.24-0.476-10.097,4.029-11.631,9.647
			c-1.547,5.66-0.275,12.532,4.992,15.709c4.929,2.973,11.592,0.632,14.102-4.28c0.586-1.146-1.14-2.158-1.727-1.01
			c-2.195,4.295-7.092,5.562-11.365,3.563c-4.514-2.112-4.959-8.205-4.285-12.469c0.709-4.472,3.449-8.682,8.23-9.211
			c4.674-0.517,8.256,3.316,8.117,7.789C358.207,195.634,360.207,195.63,360.248,194.344L360.248,194.344z"/>
	</g>
	<g>
		<path d="M350.217,196.672c-1.294,1.805-1.579,4.547,0.691,5.702c1.147,0.583,2.159-1.142,1.01-1.727
			c-1.263-0.642-0.62-2.065,0.025-2.965C352.697,196.631,350.961,195.634,350.217,196.672L350.217,196.672z"/>
	</g>
	<g>
		<path d="M353.884,209.682c4.662,9.733-2.736,27.074-14.804,26.162c-1.287-0.097-1.278,1.903,0,2
			c13.714,1.038,21.799-18.172,16.53-29.171C355.054,207.51,353.33,208.525,353.884,209.682L353.884,209.682z"/>
	</g>
	<g>
		<path d="M360.909,243.649c27.946,21.047,70.24,20.412,92.242-8.917c17.488-23.314,23.641-57.865,13.379-85.403
			c-0.445-1.198-2.379-0.68-1.928,0.531c9.723,26.094,4.35,58.141-11.074,80.958c-8.594,12.712-20.77,20.613-35.618,24.123
			c-19.801,4.68-39.983-0.962-55.991-13.019C360.887,241.145,359.892,242.883,360.909,243.649L360.909,243.649z"/>
	</g>
	<g>
		<path d="M358.283,194.443c1.938,12.054,14.759-0.162,18.105-4.574c8.039-10.6,12.606-26.17,11.859-39.358
			c-0.072-1.282-2.073-1.289-2,0c0.567,10.011-2.188,19.498-6.149,28.593c-1.498,3.438-3.296,6.679-5.438,9.755
			c-1.88,2.701-12.966,14.282-14.449,5.053C360.007,192.641,358.08,193.182,358.283,194.443L358.283,194.443z"/>
	</g>
	<g>
		<path d="M386.707,158.884c4.17,3.695,11.132,3.994,16.413,4.552c9.476,1.002,19.306,0.529,28.732-0.747
			c16.707-2.262,37.264-6.198,45.258-23.007c0.551-1.158-1.172-2.174-1.727-1.01c-7.26,15.268-25.178,19.091-40.406,21.568
			c-9.588,1.561-19.371,1.909-29.063,1.437c-5.254-0.256-13.646-0.532-17.793-4.207C387.159,156.618,385.74,158.027,386.707,158.884
			L386.707,158.884z"/>
	</g>
	<g>
		<path d="M462.586,125.541c5.381-3.252,12.67-1.696,18.33-0.038c6.316,1.85,11.053,5.637,12.434,12.31
			c3.121,15.095-11.912,26.042-23.773,31.168c-1.182,0.51-0.162,2.233,1.01,1.727c13.738-5.938,27.91-17.862,24.457-34.564
			c-1.326-6.409-6.664-10.108-12.438-12.191c-6.303-2.275-14.973-3.798-21.029-0.137C460.475,124.48,461.479,126.21,462.586,125.541
			L462.586,125.541z"/>
	</g>
	<g>
		<path d="M478.814,166.975c1.963,0.419-0.775,7.582-1.172,8.445c-1.285,2.799-3.676,6.29-7.062,6.423c-1.285,0.051-1.289,2.051,0,2
			c4.537-0.18,7.412-4.414,9.133-8.164c0.961-2.092,3.467-9.814-0.367-10.633C478.088,164.778,477.555,166.706,478.814,166.975
			L478.814,166.975z"/>
	</g>
	<g>
		<path d="M365.55,121.089c-0.084,0.195-0.167,0.391-0.25,0.586c-0.29,0.679,0.205,1.859,1.129,1.469
			c23.759-10.023,47.92-19.075,74.217-15.382c11.221,1.576,22.064,5.813,31.842,11.466c9.184,5.31,17.207,13.311,16.676,24.615
			c-0.061,1.29,1.939,1.284,2,0c1.012-21.517-25.799-32.327-42.928-36.633c-28.594-7.19-56.33,3.032-82.338,14.005
			c0.376,0.49,0.752,0.979,1.129,1.469c0.084-0.195,0.167-0.391,0.25-0.586C367.777,120.926,366.054,119.906,365.55,121.089
			L365.55,121.089z"/>
	</g>
	<g>
		<path d="M366.664,122.219c0.031-2.077-1.293-5.636-4.016-5.089c-2.83,0.568-3.504,4.029-3.734,6.464
			c0.621-0.168,1.242-0.336,1.863-0.505c-1.797-2.649-5.738-8.265-9.554-5.917c-3.175,1.954-0.286,9.02,0.476,11.563
			c0.369,1.232,2.301,0.707,1.93-0.531c-0.759-2.533-1.607-5.093-1.68-7.758c-0.135-5.017,6.258,2.41,7.102,3.653
			c0.58,0.854,1.77,0.489,1.863-0.505c0.111-1.184,0.366-2.322,0.869-3.405c1.137-2.446,2.902,0.632,2.881,2.03
			C364.644,123.509,366.644,123.507,366.664,122.219L366.664,122.219z"/>
	</g>
	<g>
		<path d="M351.914,125.094c-19.453,0.276-28.215,23.344-31.072,39.198c-3.673,20.381-1.809,41.036,8.018,59.451
			c0.607,1.138,2.334,0.128,1.727-1.01c-9.189-17.223-10.915-35.885-8.277-54.998c2.159-15.639,10.16-40.365,29.605-40.641
			C353.203,127.075,353.205,125.075,351.914,125.094L351.914,125.094z"/>
	</g>
	<g>
		<path d="M327.824,222.234c1.271,4.094-3.068,8.313-1.594,12.303c1.438,3.89,6.563,0.446,7.672-1.813
			c0.566-1.153-1.158-2.167-1.727-1.01c-0.643,1.311-4.284,4.197-4.217,0.972c0.025-1.234,0.665-2.542,1.045-3.702
			c0.678-2.072,1.414-5.141,0.75-7.281C329.373,220.475,327.441,221,327.824,222.234L327.824,222.234z"/>
	</g>
	<g>
		<path d="M332.449,232.203c-0.433,2.529,0.632,5.792,3.652,6.008c2.996,0.214,5.004-2.615,6.426-4.862
			c0.691-1.094-1.039-2.096-1.727-1.01c-0.809,1.278-1.686,2.555-2.944,3.43c-2.204,1.533-3.829-0.987-3.478-3.035
			C334.593,231.474,332.667,230.934,332.449,232.203L332.449,232.203z"/>
	</g>
	<g>
		<path d="M395.075,249.704c-2.465,8.997,7.596,14.887,15.213,15.258c9.293,0.451,18.156-5.973,20.589-14.852
			c0.342-1.246-1.588-1.774-1.928-0.531c-1.873,6.831-7.254,11.165-13.968,12.897c-7.178,1.853-20.636-2.538-17.979-12.241
			C397.344,248.989,395.415,248.46,395.075,249.704L395.075,249.704z"/>
	</g>
	<g>
		<path d="M405.075,232.359c2.507,11.2,21.832,11.035,27.921,3.566c0.807-0.99-0.6-2.415-1.414-1.414
			c-5.076,6.225-22.385,7.116-24.58-2.684C406.721,230.569,404.793,231.103,405.075,232.359L405.075,232.359z"/>
	</g>
	<g>
		<path d="M408.289,229.969c-2.796,0.213-5.189,2.025-5.714,4.859c-0.233,1.26,1.693,1.798,1.928,0.531
			c0.357-1.926,1.823-3.241,3.786-3.391C409.566,231.871,409.576,229.871,408.289,229.969L408.289,229.969z"/>
	</g>
	<g>
		<path d="M435.062,205.564c3.668-0.908,7.227-0.154,10.09,2.346c0.967,0.844,2.389-0.564,1.414-1.414
			c-3.418-2.984-7.639-3.949-12.035-2.86C433.279,203.945,433.811,205.874,435.062,205.564L435.062,205.564z"/>
	</g>
	<g>
		<path d="M435.676,202.67c3.668-0.908,7.227-0.154,10.09,2.346c0.967,0.844,2.389-0.564,1.414-1.414
			c-3.418-2.984-7.639-3.949-12.035-2.86C433.893,201.051,434.424,202.98,435.676,202.67L435.676,202.67z"/>
	</g>
	<g>
		<path d="M435.449,191.453c-1.459,7.375-2.916,14.75-4.375,22.125c-0.248,1.259,1.678,1.796,1.928,0.531
			c1.459-7.375,2.918-14.75,4.375-22.125C437.627,190.725,435.699,190.188,435.449,191.453L435.449,191.453z"/>
	</g>
	<g>
		<path d="M394.7,186.328c-1.092,5.806-1.702,11.691-3.375,17.375c-0.365,1.24,1.564,1.766,1.928,0.531
			c1.674-5.683,2.284-11.569,3.375-17.375C396.865,185.599,394.937,185.062,394.7,186.328L394.7,186.328z"/>
	</g>
	<g>
		<path d="M395.539,186.969c13.637,1.646,27.249,3.481,40.875,5.215c1.277,0.163,1.262-1.839,0-2
			c-13.627-1.734-27.239-3.569-40.875-5.215C394.26,184.814,394.275,186.816,395.539,186.969L395.539,186.969z"/>
	</g>
	<g>
		<path d="M392.023,205.423c13.012,3.745,26.312,7.577,39.75,9.385c1.26,0.169,1.805-1.757,0.531-1.929
			c-13.439-1.809-26.739-5.641-39.75-9.385C391.312,203.137,390.786,205.067,392.023,205.423L392.023,205.423z"/>
	</g>
	<g>
		<path d="M447.939,194.448c-1.451,6.696-2.9,13.392-4.35,20.088c-0.273,1.257,1.654,1.792,1.928,0.531
			c1.449-6.696,2.9-13.392,4.35-20.088C450.139,193.722,448.211,193.188,447.939,194.448L447.939,194.448z"/>
	</g>
	<g>
		<path d="M478.574,200.766c-1.09,5.709-2.18,11.418-3.27,17.128c-0.24,1.26,1.688,1.797,1.928,0.531
			c1.09-5.709,2.18-11.418,3.27-17.128C480.744,200.037,478.816,199.5,478.574,200.766L478.574,200.766z"/>
	</g>
	<g>
		<path d="M479.805,200.067c-10.117-2.417-20.322-4.433-30.455-6.772c-1.256-0.29-1.789,1.639-0.531,1.929
			c10.133,2.339,20.338,4.355,30.455,6.772C480.527,202.295,481.059,200.367,479.805,200.067L479.805,200.067z"/>
	</g>
	<g>
		<path d="M476.27,217.159c-10.455-0.521-21.213-1.051-31.451-3.322c-1.256-0.279-1.789,1.649-0.531,1.929
			c10.418,2.31,21.348,2.864,31.982,3.393C477.559,219.223,477.553,217.223,476.27,217.159L476.27,217.159z"/>
	</g>
	<g>
		<path d="M440.533,212.207c3.271,1.443,2.654,8.041,0.787,10.335c-2.293,2.819-6.838,1.282-9.402-0.187
			c-1.121-0.643-2.127,1.086-1.01,1.727c3.596,2.061,9.518,3.431,12.299-0.715c2.205-3.287,2.662-10.978-1.664-12.886
			C440.375,209.965,439.355,211.688,440.533,212.207L440.533,212.207z"/>
	</g>
	<g>
		<path d="M358.378,191.432c11.811,1.84,23.626,3.649,35.454,5.38c1.261,0.185,1.804-1.743,0.531-1.929
			c-11.827-1.73-23.644-3.54-35.454-5.38C357.648,189.307,357.107,191.233,358.378,191.432L358.378,191.432z"/>
	</g>
	<g>
		<path d="M354.028,187.161c13.646,1.436,27.252,3.237,40.907,4.602c1.283,0.128,1.271-1.873,0-2
			c-13.655-1.364-27.261-3.166-40.907-4.602C352.746,185.026,352.759,187.027,354.028,187.161L354.028,187.161z"/>
	</g>
	<g>
		<path d="M401.289,220.719c10.21,0.115,20.049,2.062,29.735,5.214c1.229,0.4,1.752-1.531,0.531-1.929
			c-9.858-3.208-19.884-5.168-30.266-5.286C399.999,218.704,400,220.704,401.289,220.719L401.289,220.719z"/>
	</g>
	<g>
		<path d="M400.582,219.012c-1.937,1.674-4.013,3.169-6.048,4.719c-1.012,0.77-0.017,2.509,1.01,1.727
			c2.17-1.653,4.387-3.245,6.452-5.031C402.973,219.581,401.552,218.172,400.582,219.012L400.582,219.012z"/>
	</g>
	<g>
		<path d="M394.914,225.844c11.493,0.265,22.942,0.875,33.985,4.339c1.232,0.387,1.758-1.544,0.531-1.929
			c-11.213-3.518-22.842-4.141-34.516-4.411C393.624,223.814,393.626,225.814,394.914,225.844L394.914,225.844z"/>
	</g>
	<g>
		<path d="M430.32,224.839c-0.674,1.292-1.348,2.583-2.02,3.875c-0.596,1.142,1.129,2.153,1.727,1.01
			c0.674-1.292,1.348-2.583,2.02-3.875C432.643,224.707,430.918,223.695,430.32,224.839L430.32,224.839z"/>
	</g>
	<g>
		<path d="M433.176,225.589c-0.668,1.333-1.334,2.667-2,4c-0.576,1.15,1.148,2.164,1.727,1.01c0.666-1.333,1.334-2.667,2-4
			C435.477,225.449,433.752,224.435,433.176,225.589L433.176,225.589z"/>
	</g>
	<g>
		<path d="M431.773,231.058c6.156,1.375,10.326,5.312,15.018,9.243c0.98,0.823,2.402-0.584,1.414-1.414
			c-4.949-4.148-9.408-8.308-15.9-9.757C431.049,228.849,430.514,230.777,431.773,231.058L431.773,231.058z"/>
	</g>
	<g>
		<path d="M434.039,227.094c2.98-0.172,5.635,1.693,8.135,3.107c2.699,1.525,5.283,3.191,7.408,5.475
			c0.879,0.946,2.291-0.471,1.414-1.414c-2.479-2.666-5.562-4.517-8.709-6.295c-2.578-1.457-5.191-3.05-8.248-2.873
			C432.756,225.168,432.75,227.168,434.039,227.094L434.039,227.094z"/>
	</g>
	<g>
		<path d="M448.314,209.642c4.975,1.328,10.004,2.43,15,3.667c1.252,0.31,1.783-1.619,0.531-1.929
			c-4.996-1.236-10.025-2.338-15-3.667C447.6,207.38,447.07,209.309,448.314,209.642L448.314,209.642z"/>
	</g>
	<g>
		<path d="M449.793,208.609c1.285-4.521,2.57-9.043,3.854-13.565c0.975-3.428,3.088-5.968,6.174-7.71
			c1.348-0.762,8.312-3.143,9.098-0.474c0.363,1.235,2.293,0.709,1.928-0.531c-0.678-2.305-3.543-2.542-5.561-2.509
			c-4.158,0.068-8.127,2.232-10.82,5.301c-2.162,2.465-2.836,5.71-3.705,8.768c-0.965,3.396-1.93,6.793-2.895,10.19
			C447.512,209.321,449.441,209.848,449.793,208.609L449.793,208.609z"/>
	</g>
	<g>
		<path d="M400.773,200.308c9.382,1.502,18.618,3.854,28,5.25c1.26,0.188,1.803-1.739,0.531-1.929
			c-9.381-1.395-18.618-3.748-28-5.25C400.043,198.178,399.501,200.104,400.773,200.308L400.773,200.308z"/>
	</g>
	<g>
		<path d="M403.044,199.443c2.092-8.961,7.359-21.64,18.405-21.348c11.191,0.295,6.132,20.277,4.724,25.948
			c-0.312,1.251,1.617,1.783,1.928,0.531c1.861-7.485,6.469-26.737-5.893-28.405c-12.268-1.655-18.875,13.235-21.092,22.742
			C400.824,200.166,402.751,200.699,403.044,199.443L403.044,199.443z"/>
	</g>
	<g>
		<path d="M455.846,179.558c4.221-1.426,9.365-1.562,13.027,1.326c1.002,0.79,2.428-0.616,1.414-1.414
			c-4.242-3.347-9.992-3.523-14.973-1.841C454.1,178.04,454.621,179.972,455.846,179.558L455.846,179.558z"/>
	</g>
	<g>
		<path d="M413.013,172.475c6.607-2.267,13.756-1.211,18.528,4.159c0.857,0.966,2.268-0.454,1.414-1.414
			c-5.207-5.862-13.231-7.159-20.473-4.674C411.269,170.962,411.791,172.895,413.013,172.475L413.013,172.475z"/>
	</g>
	<g>
		<path d="M457.789,210.156c0.061-3.317,0.615-6.401,2.158-9.364c0.643-1.236,6.35-7.873,7.791-4.694
			c0.531,1.173,2.254,0.155,1.727-1.01c-1.525-3.365-6.33-0.703-8.215,0.812c-4.117,3.31-5.371,9.278-5.461,14.256
			C455.766,211.447,457.766,211.444,457.789,210.156L457.789,210.156z"/>
	</g>
	<g>
		<path d="M418.877,201.516c-0.704-2.552-0.172-5.369,0.614-7.844c0.691-2.178,5.819-11.025,7.833-4.812
			c0.396,1.222,2.328,0.699,1.928-0.531c-1.594-4.916-5.559-4.471-8.633-0.976c-3.177,3.611-4.959,10.028-3.669,14.695
			C417.292,203.289,419.222,202.761,418.877,201.516L418.877,201.516z"/>
	</g>
	<path d="M426.52,186.731c-0.891-0.706-2.178-0.873-3.207,0.178c-3.279,3.352-9.09,10.25-5,14.869
		c0.952,1.075,2.84,1.47,4.544,1.287c1.244,1.129,3.605,1.052,4.135-1.057c1.051-4.194,2.172-8.475,2.088-12.831
		C429.051,187.642,427.775,186.756,426.52,186.731z"/>
	<path d="M468.184,197.153c1.162-2.394-2.787-4.456-4.596-2.071c-3.496,4.612-6.383,8.502-7.008,14.429
		c-0.111,1.054,0.842,2.186,1.836,2.411c0.973,0.22,1.889,0.511,2.832,0.833c0.998,0.341,2.355-0.197,2.824-1.149
		c1.977-4.012,2.842-8.38,4.252-12.597C468.568,198.276,468.475,197.649,468.184,197.153z"/>
	<path d="M429.676,224.185c-8.172-4.685-20.875-5.118-29.927-3.585c-1.482,0.251-1.968,1.435-1.754,2.572
		c-0.082,0-0.165,0.005-0.247,0.005c-0.645,0.003-0.645,1.003,0,1c0.209-0.001,0.419-0.009,0.628-0.012
		c0.519,0.852,1.47,1.465,2.703,1.256c3.138-0.531,6.919-0.765,10.761-0.595c0.059,0.078,0.144,0.143,0.275,0.167
		c3.514,0.639,7.028,1.238,10.581,1.604c1.617,0.513,3.125,1.142,4.457,1.905C429.953,230.109,432.471,225.788,429.676,224.185z"/>
	<path d="M450.842,235.646c-0.625-2.326-2.881-3.471-4.857-4.525c-1.291-0.688-2.453-1.532-3.826-2.072
		c-0.389-0.152-0.781-0.287-1.176-0.423c-0.537-0.333-1.094-0.639-1.703-0.877c-0.352-0.137-0.695-0.143-1.012-0.057
		c-0.74-0.266-1.473-0.549-2.178-0.908c-2.293-1.167-4.318,2.285-2.02,3.454c1.355,0.689,2.783,1.158,4.207,1.64
		c0.352,0.295,0.701,0.59,1.057,0.88c0.439,0.359,0.924,0.49,1.387,0.472c2.496,2.181,4.588,5.325,8.193,4.947
		C450.191,238.043,451.207,237.001,450.842,235.646z"/>
	<path d="M425.652,249.312c-0.072,0.211-0.16,0.446-0.264,0.696c-0.766-0.451-1.857-0.287-2.537,0.411
		c0.02-0.136,0.051-0.274,0.062-0.409c0.209-2.572-3.793-2.552-4,0c0.027-0.336-0.136,0.518-0.188,0.674
		c-0.081,0.25-0.213,0.498-0.388,0.824c-0.05,0.093-0.107,0.168-0.158,0.258c-0.049,0.04-0.097,0.082-0.143,0.129
		c-0.089-0.185-0.208-0.348-0.346-0.492c1.073-2.17-2.165-4.048-3.449-1.98c-0.276-0.4-0.681-0.717-1.131-0.84
		c-1.119-0.309-2.082,0.375-2.46,1.396c-0.301,0.813-0.622,1.619-0.935,2.428c0.132-0.908,0.276-1.814,0.363-2.729
		c0.104-1.087-0.988-2-2-2c-0.876,0-1.505,0.516-1.809,1.231c-0.188-0.143-0.405-0.257-0.66-0.326
		c-0.512-0.141-1.1-0.043-1.577,0.23c-0.125-0.134-0.267-0.258-0.444-0.363c-0.52-0.304-1.26-0.339-1.857-0.097
		c-0.422-1.292-2.478-1.704-3.505-0.548c-0.968-0.273-2.098,0.082-2.409,1.34c-0.378,1.526-0.727,3.12-0.571,4.699
		c0.082,0.834,0.531,1.564,1.267,1.857c0.049,0.105,0.101,0.211,0.173,0.318c2.408,3.545,5.203,5.908,9.362,7.086
		c0.703,0.199,1.359-0.024,1.829-0.453c2.812,3.41,7.148,2.32,10.911-0.434c4.955-0.836,9.285-7.629,10.72-11.844
		C430.342,247.926,426.479,246.885,425.652,249.312z"/>
	<path d="M368.007,191.415c-1.389,0.281-2.906,0.323-4.314-0.008c-0.574-0.309-1.178-0.53-1.748-0.617
		c-0.902-0.138-1.766,0.078-2.258,0.919c-0.209,0.357-0.285,0.814-0.24,1.259c-0.396,1.426,0.067,3.014,1.219,3.966
		c0.998,0.824,2.617,1.067,3.866,0.535c0.095-0.021,0.188-0.036,0.288-0.071c1.838-0.652,3.722-1.222,5.133-2.64
		C371.435,193.27,369.91,191.031,368.007,191.415z"/>
	<path d="M483.045,126.451c-0.334-0.063-0.658-0.058-0.973-0.013c-2.271-4.817-5.832-8.565-11.104-9.166
		c-4.176-3.997-9.682-5.737-15.43-7.286c-4.219-1.137-8.646-2.088-13.078-2.375c-2.295-0.383-4.605-0.661-6.924-0.843
		c-4.932-1.064-10.016-1.028-15.238-0.765c-7.847,0.395-17.659,0.879-24.742,4.522c-0.555,0.285-0.998,0.668-1.359,1.106
		c-1.678,0.496-3.343,1.067-4.998,1.699c-0.471-0.129-0.998-0.154-1.584-0.005c-6.472,1.648-16.337,3.174-21.948,7.914
		c-0.037-0.105-0.072-0.219-0.111-0.318c-1.229-3.109-5.688-2.724-5.893,0.797c-0.027,0.478-0.032,0.953-0.033,1.427
		c-1.041-0.686-2.167-1.56-2.889-2.528c-0.148-0.264-0.305-0.526-0.488-0.789c-2.236-3.193-6.787-0.485-5.18,3.028
		c0.155,0.341,0.354,0.68,0.571,1.017c0.56,1.206,0.743,2.478,0.963,3.786c-0.083,0.078-0.17,0.152-0.251,0.232
		c-0.368-0.56-0.911-1.009-1.646-1.192c-5.898-1.467-11.945,2.329-16.039,6.319c-4.851,4.727-7.234,11.94-9.676,18.085
		c-4.454,11.212-7.659,24.993-4.52,37.124c-0.843,6.953,0.346,13.351,2.861,20.345c1.41,3.921,2.971,9.227,5.902,12.833
		c-0.428,0.437-0.734,0.986-0.84,1.623c-0.497,3.02-0.906,5.552-1.754,8.517c-0.812,2.836,2.949,5.144,5.014,2.918
		c1.375-1.481,0.789-1.212,1.623,0.102c0.533,0.84,1.057,1.374,2.01,1.721c2.807,1.021,6.328,0.574,8.943-0.763
		c3.707-1.896,6.072-4.344,7.711-7.208c1.605-0.142,2.527-1.44,2.717-2.972c-0.043,0.347,0.146-0.69,0.174-0.812
		c0.013-0.055,0.031-0.108,0.045-0.163c0.071-0.236,0.141-0.472,0.215-0.707c0.017-0.05,0.023-0.1,0.039-0.149
		c0.056-0.166,0.11-0.332,0.17-0.497c0.08-0.222,0.115-0.447,0.129-0.673c0.099-0.491,0.174-0.987,0.229-1.5
		c0.066-0.63-0.146-1.218-0.514-1.707c0.314-1.414,0.605-2.871,0.906-4.371c0.246-1.223-0.199-2.213-0.933-2.872
		c0.519-1.251-0.038-2.891-1.71-2.675c-5.485,0.707-9.991-1.302-11.851-6.755c-1.864-5.466,0.19-11.604,5.11-14.518
		c2.485-1.472,5.566-1.918,8.68-1.869c0.09,0.026,0.177,0.055,0.279,0.07c2.067,0.307,4.135,0.492,6.202,0.601
		c0.935,0.16,1.837,0.332,2.675,0.501c3.821,0.769,7.929,1.537,11.686,0.148c1.041-0.385,1.679-1.333,1.397-2.46
		c-0.04-0.16-0.08-0.32-0.12-0.479c0.566-0.185,1.1-0.538,1.532-1.1c0.141-0.183,0.272-0.377,0.408-0.566
		c0.75-0.369,1.347-1.046,1.644-1.9c0.229-0.659,0.431-1.327,0.641-1.992c2.338-4.867,3.651-10.705,4.546-15.581
		c0.229-1.253,0.422-2.514,0.603-3.776c0.346,0.166,0.741,0.277,1.193,0.302c2.737,0.153,5.325,1.081,8.097,1.263
		c0.383,0.439,0.894,0.787,1.48,1.005c1.479,0.549,3.114,0.626,4.673,0.482c0.721-0.066,1.383-0.329,1.906-0.742
		c1.426,0.249,2.86,0.481,4.306,0.706c4.378,0.681,8.89,0.947,13.218,0.186c0.346,0.108,0.741,0.152,1.196,0.1
		c1.035-0.119,2.068-0.258,3.104-0.401c7.404,0.622,16.791-0.812,23.637-5.077c2.943-0.056,5.947-1.45,8.607-2.765
		c0.656-0.325,1.295-0.677,1.926-1.041c1.893-0.12,3.699-0.77,5.395-1.732c0.387,1.83,1.014,3.491,1.908,5.196
		c0.01,0.019,0.021,0.032,0.031,0.05c0.539,2.857,1.168,5.694,1.393,8.603c0.098,1.271,0.793,2.178,1.693,2.622
		c0.148,3.506,0.895,7.256-0.42,10.581c-1.098,2.778,3.125,5.15,5.014,2.918c4.707-5.557,7.17-11.519,4.76-18.13
		c3.221-0.413,5.924-3.07,7.938-5.534c1.943-2.376,3.871-5.191,4.865-8.211c1.057-1.923,1.77-4.042,2.02-6.327
		C495.654,135.643,491.172,127.991,483.045,126.451z"/>
	<g>
		<path d="M430.998,326.676c0-3.832,0-7.666,0-11.498c0-0.969-1.5-0.969-1.5,0c0,3.832,0,7.666,0,11.498
			C429.498,327.645,430.998,327.645,430.998,326.676L430.998,326.676z"/>
	</g>
</g>
</svg>
