<?xml version="1.0" encoding="utf-8"?>
<!-- Generator: Adobe Illustrator 15.1.0, SVG Export Plug-In . SVG Version: 6.00 Build 0)  -->
<!DOCTYPE svg PUBLIC "-//W3C//DTD SVG 1.1//EN" "http://www.w3.org/Graphics/SVG/1.1/DTD/svg11.dtd">
<svg version="1.1" id="Layer_1" xmlns="http://www.w3.org/2000/svg" xmlns:xlink="http://www.w3.org/1999/xlink" x="0px" y="0px"
	 width="841.89px" height="595.28px" viewBox="0 0 841.89 595.28" enable-background="new 0 0 841.89 595.28" xml:space="preserve">
<g>
	<path fill="#423F40" d="M247.251,311.094c-0.113-4.382-7.287-5.354-8.728-9.145c-0.158-0.416-0.492-0.62-0.84-0.666
		c-0.59-0.418-1.604,0.091-1.541,0.848c0.17,2.036,0.59,4.081,1.176,6.107c0.85,5.025,4.699,18.145,8.933,13.912
		c0.974-0.975,0.925-2.504,0.97-3.764C247.307,316.011,247.312,313.472,247.251,311.094z"/>
	<g>
		<path d="M258.069,251.927c-4.737,5.406-10.298,9.846-17.276,11.907c-1.234,0.365-0.708,2.295,0.531,1.929
			c7.3-2.156,13.197-6.758,18.159-12.421C260.33,252.375,258.921,250.955,258.069,251.927L258.069,251.927z"/>
	</g>
	<g>
		<path d="M242.059,264.798c-0.043-6.874-7.985-20.064-15.914-13.485c-3.213,2.665-3.05,8.404-0.863,11.568
			c2.535,3.668,8.166,4.445,11.152,1.042c0.846-0.965-0.562-2.386-1.414-1.414c-2.749,3.133-7.533,1.271-8.902-2.259
			c-1.236-3.191-0.012-7.535,3.457-8.569c5.936-1.769,10.457,8.717,10.484,13.119C240.067,266.087,242.067,266.088,242.059,264.798
			L242.059,264.798z"/>
	</g>
	<g>
		<path d="M230.309,256.631c-0.104,1.47,0.073,2.845,1.496,3.613c1.135,0.613,2.145-1.113,1.01-1.727
			c-0.734-0.397-0.56-1.122-0.506-1.887C232.4,255.344,230.4,255.353,230.309,256.631L230.309,256.631z"/>
	</g>
	<g>
		<path d="M232.703,265.063c3.132,19.532-2.662,41.954,9.66,59.149c0.743,1.038,2.479,0.041,1.727-1.01
			c-12.148-16.953-6.363-39.368-9.457-58.671C234.429,263.261,232.502,263.802,232.703,265.063L232.703,265.063z"/>
	</g>
	<g>
		<path d="M271.227,210.465c-0.467,4.368,11.41,9.043,14.109,10.164c9.869,4.096,20.32,6.213,30.937,7.142
			c8.808,0.771,19.269,1.496,27.382-2.641c6.778-3.456,9.598-12.236,6.513-19.093c-8.741-19.431-33.956-24.409-52.853-26.444
			c-22.598-2.435-46.211,2.142-65.76,13.843c-1.105,0.661-0.1,2.391,1.01,1.727c16.133-9.656,34.533-14.023,53.25-14.148
			c18.298-0.122,40.18,3.182,54.496,15.456c7.809,6.696,13.76,18.773,3.41,26.278c-6.429,4.662-16.815,3.591-24.307,3.235
			c-8.922-0.424-17.78-2.005-26.316-4.617c-4.278-1.309-8.4-3.066-12.356-5.15c-1.446-0.761-7.72-3.838-7.515-5.75
			C273.363,209.183,271.361,209.196,271.227,210.465L271.227,210.465z"/>
	</g>
	<g>
		<path d="M341.549,263.584c-2.677,24.056-16.902,45.277-40.354,53.251c-23.688,8.055-50.127-1.628-66.335-19.734
			c-0.862-0.963-2.271,0.457-1.414,1.414c17.012,19.004,43.592,27.879,68.281,20.249c24.434-7.552,39.1-30.719,41.822-55.18
			C343.691,262.304,341.689,262.317,341.549,263.584L341.549,263.584z"/>
	</g>
	<g>
		<path d="M329.676,216.755c7.281,8.112,10.551,18.466,11.832,29.121c0.151,1.264,2.153,1.279,2,0
			c-1.35-11.225-4.752-21.996-12.418-30.535C330.227,214.379,328.817,215.798,329.676,216.755L329.676,216.755z"/>
	</g>
	<g>
		<path d="M243.141,187.703c-16.318-3.162-31.506,14.402-39.729,26.14c-11.482,16.39-15.479,36.898-18.185,56.349
			c-5.729,41.179-5.362,86.226,24.978,118.292c0.888,0.938,2.3-0.479,1.414-1.414c-28.691-30.325-29.951-72.62-25.06-111.772
			c2.302-18.42,5.624-37.189,14.41-53.751c4.228-7.969,10.192-15.159,16.81-21.247c6.369-5.861,15.656-12.445,24.83-10.667
			C243.869,189.876,244.406,187.948,243.141,187.703L243.141,187.703z"/>
	</g>
	<g>
		<path d="M341.146,266.906c2.146,19.623-3.458,37.85-8.46,56.581c-0.333,1.247,1.596,1.775,1.929,0.531
			c5.052-18.919,10.698-37.299,8.531-57.112C343.007,265.638,341.006,265.625,341.146,266.906L341.146,266.906z"/>
	</g>
	<g>
		<path d="M250.195,312.303c6.191,12.727,16.775,21.768,29.192,28.191c1.144,0.592,2.155-1.133,1.01-1.727
			c-12.142-6.282-22.419-15.024-28.476-27.475C251.358,310.133,249.634,311.148,250.195,312.303L250.195,312.303z"/>
	</g>
	<g>
		<path d="M246.727,309.965c0,4.055,0,8.111,0,12.166c0,1.29,2,1.29,2,0c0-4.055,0-8.111,0-12.166
			C248.727,308.675,246.727,308.675,246.727,309.965L246.727,309.965z"/>
	</g>
	<g>
		<path d="M246.678,322.563c1.677,5.625,3.693,11.159,7.264,15.874c3.219,4.248,7.714,7.441,11.946,10.599
			c1.035,0.772,2.03-0.966,1.01-1.727c-3.687-2.749-7.269-5.53-10.397-8.912c-4.162-4.497-6.178-10.61-7.893-16.365
			C248.239,320.799,246.309,321.324,246.678,322.563L246.678,322.563z"/>
	</g>
	<g>
		<path d="M267.881,348.428c2.532-4.195,7.998-9.711,13.326-7.065c3.701,1.838,4.995,7.146,5.596,10.826
			c0.208,1.271,2.135,0.729,1.93-0.531c-0.847-5.179-2.991-10.969-8.381-12.8c-5.666-1.924-11.646,4.335-14.197,8.561
			C265.486,348.525,267.216,349.529,267.881,348.428L267.881,348.428z"/>
	</g>
	<g>
		<path d="M289.018,349.298c0.367-9.86,12.465-10.823,17.137-3.37c0.684,1.09,2.414,0.086,1.727-1.01
			c-5.759-9.188-20.424-7.431-20.863,4.38C286.97,350.588,288.97,350.584,289.018,349.298L289.018,349.298z"/>
	</g>
	<g>
		<path d="M302.803,316.907c-2.255,9.376-7.495,17.38-13.023,25.136c-0.75,1.053,0.985,2.051,1.727,1.01
			c5.631-7.9,10.932-16.072,13.227-25.614C305.033,316.186,303.105,315.653,302.803,316.907L302.803,316.907z"/>
	</g>
	<g>
		<path d="M309.893,313.423c0.255,11.062,0.166,21.35-2.34,32.234c-0.289,1.255,1.64,1.788,1.93,0.531
			c2.542-11.044,2.67-21.511,2.41-32.766C311.863,312.135,309.863,312.133,309.893,313.423L309.893,313.423z"/>
	</g>
	<g>
		<path d="M308.013,345.685c-0.2,0.091-0.048-0.034,0.072,0.031c0.06,0.032,0.119,0.152,0-0.041
			c-0.063-0.103-0.067-0.151-0.103-0.268c-0.383-1.228-2.314-0.703-1.93,0.531c0.195,0.626,0.484,1.12,1.022,1.504
			c0.587,0.419,1.353,0.238,1.947-0.031c0.497-0.225,0.612-0.935,0.358-1.368C309.084,345.537,308.51,345.459,308.013,345.685
			L308.013,345.685z"/>
	</g>
	<g>
		<path d="M268.928,344.438c1.273,6.087,8.445,8.071,13.809,8.667c6.943,0.771,14.406-1.486,17.645-8.053
			c0.568-1.152-1.156-2.166-1.727-1.01c-2.627,5.327-7.799,7.008-13.411,7.17c-5.008,0.145-13.178-1.523-14.386-7.306
			C270.594,342.645,268.665,343.18,268.928,344.438L268.928,344.438z"/>
	</g>
	<g>
		<path d="M299.678,341.282c-0.14,0.509-0.359,0.991-0.5,1.5c-0.343,1.245,1.587,1.773,1.93,0.531c0.14-0.509,0.359-0.991,0.5-1.5
			C301.95,340.568,300.021,340.04,299.678,341.282L299.678,341.282z"/>
	</g>
	<g>
		<path d="M242.893,352.548c-1.29,18.449-3.708,36.944-1.594,55.429c0.146,1.266,2.146,1.28,2,0
			c-2.114-18.484,0.304-36.979,1.594-55.429C244.982,351.26,242.982,351.269,242.893,352.548L242.893,352.548z"/>
	</g>
	<g>
		<path d="M244.09,364.303c0.872-1.965,2.537-3.316,4.177-4.631c1.007-0.807-0.418-2.212-1.414-1.414
			c-1.766,1.414-3.552,2.922-4.489,5.035C241.844,364.461,243.566,365.479,244.09,364.303L244.09,364.303z"/>
	</g>
	<g>
		<path d="M247.461,321.167c-10.592,3.56-21.67,7.464-31.16,13.438c-1.089,0.685-0.086,2.416,1.01,1.727
			c9.361-5.893,20.23-9.724,30.682-13.235C249.208,322.688,248.687,320.755,247.461,321.167L247.461,321.167z"/>
	</g>
	<g>
		<path d="M215.035,336.199c-5.895,30.562-7.836,63.934,3.016,93.596c0.439,1.201,2.373,0.683,1.93-0.531
			c-10.721-29.301-8.841-62.335-3.017-92.533C217.207,335.471,215.279,334.934,215.035,336.199L215.035,336.199z"/>
	</g>
	<g>
		<path d="M218.756,430.495c20.518,8.142,43.591,12.96,65.721,12.083c1.285-0.051,1.289-2.051,0-2
			c-21.973,0.87-44.809-3.925-65.189-12.011C218.088,428.091,217.572,430.025,218.756,430.495L218.756,430.495z"/>
	</g>
	<g>
		<path d="M235.721,406.327c13.809,6.28,28.752,8.141,43.794,6.934c1.276-0.103,1.286-2.104,0-2
			c-14.659,1.177-29.313-0.533-42.784-6.66C235.566,404.07,234.549,405.794,235.721,406.327L235.721,406.327z"/>
	</g>
	<g>
		<path d="M278.303,412.282c-2.268,9.188,0.308,21.772,5.704,29.509c0.731,1.049,2.467,0.051,1.727-1.01
			c-5.054-7.244-7.622-19.381-5.501-27.968C280.541,411.562,278.612,411.03,278.303,412.282L278.303,412.282z"/>
	</g>
	<g>
		<path d="M283.555,441.161c4.148,1.808,4.359-4.929,3.469-7.379c-0.438-1.202-2.371-0.684-1.929,0.531
			c0.252,0.692,0.623,5.624-0.53,5.121C283.395,438.925,282.375,440.647,283.555,441.161L283.555,441.161z"/>
	</g>
	<g>
		<path d="M281.044,433.678c6.104,2.489,13.648,1.361,19.683-0.802c5.804-2.081,9.071-8.096,10.193-13.844
			c0.245-1.26-1.682-1.797-1.93-0.531c-1.179,6.043-4.357,10.854-10.272,12.976c-5.163,1.852-12.007,2.366-17.143,0.273
			C280.381,431.263,279.866,433.198,281.044,433.678L281.044,433.678z"/>
	</g>
	<g>
		<path d="M300.158,426.387c6.377-1.912,11.697-6.133,12.068-13.183c0.067-1.289-1.934-1.283-2,0
			c-0.322,6.127-5.137,9.616-10.6,11.255C298.395,424.828,298.92,426.759,300.158,426.387L300.158,426.387z"/>
	</g>
	<g>
		<path d="M301.814,420.255c6.007-2.636,11.193-6.431,12.293-13.275c0.202-1.261-1.725-1.803-1.93-0.531
			c-1.02,6.354-5.833,9.648-11.373,12.08C299.625,419.045,300.645,420.769,301.814,420.255L301.814,420.255z"/>
	</g>
	<g>
		<path d="M300.324,415.678c4.494-1.294,8.33-3.144,11.42-6.693c2.104-2.416,3.883-5.964,1.271-8.644
			c-0.9-0.925-2.314,0.49-1.414,1.414c2.193,2.251-0.924,5.543-2.519,7.162c-2.533,2.572-5.876,3.85-9.29,4.833
			C298.557,414.105,299.083,416.036,300.324,415.678L300.324,415.678z"/>
	</g>
	<g>
		<path d="M311.388,400.31c-6.038,4.411-12.892,8.122-20.62,8.238c-1.289,0.02-1.291,2.02,0,2c8.105-0.122,15.288-3.879,21.63-8.512
			C313.428,401.284,312.432,399.547,311.388,400.31L311.388,400.31z"/>
	</g>
	<g>
		<path d="M291.619,409.517c-0.04-0.559,0.061-1.031,0.277-1.547c0.211-0.504-0.225-1.1-0.699-1.229
			c-0.576-0.159-1.019,0.196-1.229,0.698c-0.275,0.655-0.399,1.367-0.349,2.078c0.04,0.543,0.426,1,1,1
			C291.135,410.517,291.659,410.061,291.619,409.517L291.619,409.517z"/>
	</g>
	<g>
		<path d="M279.857,415.251c0.654-2.887,1.168-6.354,2.773-8.886c0.693-1.093-1.038-2.095-1.727-1.01
			c-1.707,2.691-2.28,6.3-2.977,9.364C277.643,415.976,279.571,416.509,279.857,415.251L279.857,415.251z"/>
	</g>
	<g>
		<path d="M282.475,406.567c2.242-1.735,4.376-3.179,6.264-5.347c1.854-2.128,3.233-4.597,4.244-7.22
			c0.464-1.205-1.471-1.722-1.93-0.531c-2.021,5.253-5.69,8.354-9.992,11.684C280.041,405.941,281.469,407.347,282.475,406.567
			L282.475,406.567z"/>
	</g>
	<g>
		<path d="M292.6,394.63c1.249-1.234,1.585,2.669,1.594,2.921c0.037,1.027-0.211,2.041-0.465,3.026
			c-0.578,2.239-1.916,4.293-3.418,6.014c-0.844,0.967,0.564,2.388,1.414,1.414c2.761-3.162,4.592-7.015,4.439-11.276
			c-0.094-2.637-2.367-6.095-4.979-3.513C290.268,394.124,291.682,395.537,292.6,394.63L292.6,394.63z"/>
	</g>
	<g>
		<path d="M267.69,413.73c0.009-0.046,0.019-0.092,0.027-0.138c0.252-1.276-1.476-1.733-1.929-0.532
			c-3.484,9.229-0.924,19.617,2.5,28.448c0.461,1.189,2.395,0.673,1.928-0.531c-3.311-8.54-5.869-18.457-2.499-27.385
			c-0.644-0.178-1.286-0.354-1.929-0.532c-0.01,0.046-0.018,0.093-0.027,0.139C265.514,414.459,267.44,414.995,267.69,413.73
			L267.69,413.73z"/>
	</g>
	<g>
		<path d="M273.81,432.214c-3.946,0.275-0.83,7.057,1.786,4.762c1.528-1.34,0.33-4.092-1.346-4.652
			c-1.196-0.401-2.113,0.708-2.249,1.768c-0.112,0.877,0.165,1.873,0.612,2.628c0.655,1.108,2.385,0.104,1.727-1.01
			c-0.167-0.281-0.298-0.604-0.347-0.98c-0.03-0.233-0.018-0.443,0.028-0.601c-0.039,0.134-0.223,0.158-0.337,0.104
			c0.324,0.152,0.511,0.65,0.599,1.007c0.026,0.108-0.024,0.204-0.009,0.171c-0.015,0.031-0.188,0.276-0.04,0.097
			c-0.152,0.185,0.166-0.088-0.016,0.019c0.082-0.052,0.174-0.076,0.271-0.071c-0.205,0.021,0.232,0.06,0.027,0.002
			c0.238,0.066,0.077,0.031,0-0.017c-0.205-0.125,0.156,0.142-0.03-0.031c-0.06-0.056-0.112-0.117-0.165-0.179
			c0.146,0.171-0.028-0.05-0.046-0.077c-0.049-0.074-0.249-0.479-0.187-0.323c-0.066-0.164-0.114-0.336-0.151-0.51
			c-0.06-0.273,0.013,0.204-0.005-0.064c-0.006-0.077,0-0.155,0.006-0.232c-0.02,0.257,0.005,0.051,0.026-0.016
			c-0.082,0.25,0.095-0.038-0.081,0.157c-0.162,0.182,0.064-0.01-0.145,0.073c0.051-0.021,0.279-0.038,0.069-0.023
			C275.089,434.124,275.098,432.124,273.81,432.214L273.81,432.214z"/>
	</g>
	<g>
		<path d="M236.906,435.827c-4.326,20.235-8.652,40.471-12.979,60.706c-0.269,1.258,1.66,1.792,1.93,0.531
			c4.325-20.235,8.651-40.471,12.977-60.706C239.104,435.101,237.176,434.566,236.906,435.827L236.906,435.827z"/>
	</g>
	<g>
		<path d="M338.178,435.878c5.583,17.979,11.167,35.957,16.75,53.936c0.382,1.228,2.312,0.704,1.93-0.531
			c-5.584-17.979-11.168-35.957-16.752-53.936C339.725,434.119,337.794,434.643,338.178,435.878L338.178,435.878z"/>
	</g>
	<g>
		<path d="M331.559,344.631c-0.976,8.727-0.299,17.549-1.547,26.276c-0.181,1.261,1.746,1.804,1.928,0.531
			c1.273-8.907,0.624-17.903,1.619-26.808C333.702,343.351,331.701,343.364,331.559,344.631L331.559,344.631z"/>
	</g>
	<g>
		<path d="M311.227,321.465c11.827,0.125,22.859,2.822,33.161,8.696c1.122,0.64,2.13-1.089,1.01-1.727
			c-10.583-6.034-22.021-8.842-34.171-8.97C309.936,319.451,309.938,321.451,311.227,321.465L311.227,321.465z"/>
	</g>
	<g>
		<path d="M344.353,330.005c3.96,3.413,4.522,9.263,5.052,14.145c0.572,5.286,1.185,10.565,1.758,15.852
			c1.523,14.04,2.664,28.114,4.934,42.062c0.206,1.271,2.133,0.729,1.928-0.531c-2.549-15.664-3.686-31.497-5.5-47.253
			c-0.913-7.927-0.146-19.99-6.757-25.688C344.795,327.754,343.374,329.162,344.353,330.005L344.353,330.005z"/>
	</g>
	<g>
		<path d="M354.893,394.132c0.091,1.864,1.453,3.371,2.793,4.54c0.967,0.844,2.388-0.564,1.414-1.414
			c-0.879-0.767-2.146-1.867-2.207-3.126C356.83,392.849,354.83,392.842,354.893,394.132L354.893,394.132z"/>
	</g>
	<g>
		<path d="M344.381,426.136c4.406,6.054,12.789,4.495,18.113,0.188c5.239-4.237,9.258-10.495,13.151-15.906
			c10.353-14.387,20.438-29.576,28.443-45.419c0.58-1.148-1.145-2.161-1.727-1.01c-6.469,12.802-14.49,24.957-22.487,36.838
			c-4.291,6.375-8.717,12.698-13.617,18.624c-4.322,5.228-14.204,13.844-20.15,5.675
			C345.357,424.095,343.621,425.091,344.381,426.136L344.381,426.136z"/>
	</g>
	<g>
		<path d="M357.006,394.303c9.709-13.66,16.994-28.456,24.667-43.333c0.591-1.145-1.136-2.156-1.727-1.01
			c-7.673,14.877-14.959,29.673-24.667,43.333C354.53,394.347,356.266,395.345,357.006,394.303L357.006,394.303z"/>
	</g>
	<g>
		<path d="M371.998,365.88c6.153,6.336,15.09,10.435,23.649,12.257c1.258,0.269,1.793-1.659,0.531-1.928
			c-8.22-1.751-16.848-5.649-22.767-11.743C372.512,363.539,371.1,364.955,371.998,365.88L371.998,365.88z"/>
	</g>
	<g>
		<path d="M380.524,351.376c4.921,6.073,14.671,15.151,23.259,13.651c0.625-0.108,0.929-0.961,0.598-1.469
			c-0.9-1.382-1.604-1.95-3.149-2.707c-1.153-0.564-2.168,1.16-1.01,1.727c1.053,0.342,1.863,1.006,2.433,1.99
			c0.199-0.49,0.398-0.979,0.598-1.469c-7.6,1.326-17.014-7.832-21.313-13.138C381.126,348.959,379.72,350.384,380.524,351.376
			L380.524,351.376z"/>
	</g>
	<g>
		<path d="M382.095,350.613c0.402-0.697,2.881,1.236,3.263,1.535c1.002,0.788,2.428-0.617,1.414-1.414
			c-1.525-1.199-4.913-3.717-6.403-1.131C379.723,350.723,381.451,351.73,382.095,350.613L382.095,350.613z"/>
	</g>
	<path d="M396.345,366.27c-0.058-0.038-0.117-0.062-0.176-0.088c-0.186-0.248-0.465-0.424-0.776-0.384
		c-1.298,0.169-2.213,1.019-2.374,2.335c-0.137,1.117,0.629,2.171,1.791,2.179c1.331,0.009,2.382-1.242,2.352-2.52
		C397.146,367.172,396.866,366.61,396.345,366.27z"/>
	<g>
		<path d="M387.273,355.48c0.992-5.91,2.671-11.678,3.036-17.683c0.078-1.288-1.922-1.281-2,0
			c-0.354,5.823-2.002,11.421-2.964,17.151C385.134,356.21,387.061,356.75,387.273,355.48L387.273,355.48z"/>
	</g>
	<g>
		<path d="M389.73,338.328c6.88-3.974,12.983-9.008,16.775-16.108c0.607-1.138-1.119-2.147-1.727-1.01
			c-3.64,6.815-9.458,11.579-16.059,15.392C387.604,337.246,388.611,338.975,389.73,338.328L389.73,338.328z"/>
	</g>
	<g>
		<path d="M405.991,322.846c3.506-1.175-0.01,7.611-0.438,8.342c-1.65,2.82-4.551,4.321-7.51,5.396
			c-1.202,0.436-0.684,2.369,0.531,1.928c4.597-1.669,8.282-4.336,10.069-9.052c0.928-2.448,1.989-10.276-3.185-8.543
			C404.243,321.324,404.765,323.257,405.991,322.846L405.991,322.846z"/>
	</g>
	<g>
		<path d="M417.976,327.048c-3.192,0.032-6.033,1.127-8.792,2.67c-1.181,0.66-4.821,2.787-4.062,4.727
			c1.653,4.229,9.993,2.08,13.274,1.053c3.382-1.06,8.611-5.341,6.56-9.524c-1.812-3.696-7.499-2.099-10.495-1.139
			c-1.224,0.392-0.7,2.322,0.531,1.928c1.974-0.632,3.97-1.093,6.055-1.032c2.786,0.081,2.33,2.694,1.396,4.512
			c-0.887,1.725-2.86,2.684-4.579,3.327c-2.681,1.004-5.705,1.111-8.539,1.176c-4.027,0.094,0.713-3.213,1.826-3.835
			c2.095-1.172,4.431-1.837,6.825-1.861C419.265,329.035,419.266,327.035,417.976,327.048L417.976,327.048z"/>
	</g>
	<g>
		<path d="M410.643,335.215c-2.356,0.179-7.266,2.205-6.979,5.188c0.274,2.853,6.305,2.156,8.001,1.928
			c3.689-0.496,7.939-1.623,10.422-4.605c1.606-1.932,1.818-4.562-1.095-5.058c-1.261-0.214-1.801,1.714-0.531,1.929
			c1.907,0.324-0.608,2.662-1.073,3.006c-1.606,1.188-3.61,1.811-5.517,2.314c-1.972,0.522-4.02,0.631-6.048,0.545
			c-4.52-0.194,1.433-3.141,2.819-3.246C411.92,337.118,411.93,335.117,410.643,335.215L410.643,335.215z"/>
	</g>
	<g>
		<path d="M406.877,340.917c-2.138,0.319-5.523,2.301-3.743,4.845c1.611,2.305,6.837,1.427,9.053,1.113
			c3.531-0.502,7.38-2.148,9.505-5.125c1.488-2.084,1.614-4.305-1.382-4.535c-1.287-0.1-1.277,1.901,0,2
			c1.089,0.084-1.104,2.381-1.394,2.674c-1.354,1.371-3.482,2.077-5.262,2.618c-1.851,0.562-3.801,0.688-5.722,0.678
			c-0.658-0.009-1.311-0.075-1.957-0.197c-1.884-0.304,0.411-1.989,1.433-2.142C408.681,342.656,408.138,340.729,406.877,340.917
			L406.877,340.917z"/>
	</g>
	<g>
		<path d="M406.294,345.75c-1.82,0.438-5.397,2.662-4.677,5.041c1.068,3.526,6.571,2.342,9.119,1.596
			c3.176-0.93,5.954-2.637,7.988-5.236c1.231-1.571,1.562-3.771-0.998-3.853c-1.29-0.04-1.286,1.96,0,2
			c-0.282-0.009-1.575,1.786-2.01,2.218c-0.953,0.941-2.183,1.532-3.373,2.114c-2.101,1.026-4.453,1.565-6.783,1.503
			c-3.634-0.1-0.384-3.058,1.265-3.453C408.079,347.378,407.547,345.449,406.294,345.75L406.294,345.75z"/>
	</g>
	<g>
		<path d="M411.929,350.282c-1.854,7.073-10.737,11.377-17.619,10.85c-1.287-0.099-1.277,1.902,0,2
			c7.763,0.595,17.476-4.409,19.547-12.318C414.184,349.564,412.255,349.035,411.929,350.282L411.929,350.282z"/>
	</g>
	<g>
		<path d="M267.311,281.13c13.383,12.971,36.434,15.286,50.789,2.625c0.969-0.854-0.451-2.264-1.414-1.414
			c-13.531,11.935-35.396,9.552-47.961-2.625C267.799,278.818,266.383,280.231,267.311,281.13L267.311,281.13z"/>
	</g>
	<g>
		<path d="M270.138,277.185c-3.399,1.856-5.269,4.94-5.745,8.738c-0.16,1.277,1.842,1.262,2,0c0.388-3.093,2.021-5.519,4.755-7.012
			C272.279,278.293,271.27,276.566,270.138,277.185L270.138,277.185z"/>
	</g>
	<g>
		<path d="M287.763,300.536c2.015,1.376,4.122,1.716,6.385,0.75c1.183-0.505,0.163-2.228-1.01-1.727
			c-1.587,0.677-3.011,0.175-4.365-0.75C287.704,298.08,286.705,299.814,287.763,300.536L287.763,300.536z"/>
	</g>
	<g>
		<path d="M299.922,262.24c2.532-3.367,9.314-2.646,9.375,2.135c0.071,5.533-6.795,7.964-11.238,7.812c-1.29-0.044-1.285,1.956,0,2
			c3.64,0.125,7.041-0.881,9.875-3.192c2.176-1.774,3.995-5.339,3.233-8.189c-1.536-5.744-9.71-5.913-12.972-1.576
			C297.42,262.262,299.158,263.257,299.922,262.24L299.922,262.24z"/>
	</g>
	<g>
		<g>
			<path d="M311.553,250.407c-2.376,11.4,4.455,21.384,16.384,21.532c10.781,0.133,17.471-6.949,17.739-17.481
				C346.17,235.088,316.567,232.439,311.553,250.407c-0.347,1.245,1.583,1.772,1.93,0.531c3.903-13.991,25.559-14.673,29.771-0.454
				c2.523,8.514-2.406,17.005-10.803,19.005c-12.117,2.885-21.473-6.544-18.969-18.551
				C313.744,249.68,311.816,249.145,311.553,250.407z"/>
		</g>
		<g>
			<path d="M314.016,251.081c-1.875,9.158,3.12,17.66,12.837,18.344c9.575,0.674,15.938-5.363,16.272-14.743
				C343.716,238.059,318.375,235.716,314.016,251.081c-0.176,0.622,0.789,0.885,0.965,0.266
				c3.645-12.848,23.609-13.086,26.896,0.175c1.932,7.798-2.698,14.976-10.312,16.602c-10.788,2.304-18.739-6.243-16.583-16.777
				C315.109,250.717,314.145,250.449,314.016,251.081z"/>
		</g>
	</g>
	<g>
		<g>
			<path d="M264.99,250.172c-2.377,11.4,4.455,21.384,16.383,21.532c10.781,0.133,17.471-6.949,17.74-17.481
				C299.607,234.853,270.004,232.204,264.99,250.172c-0.348,1.245,1.582,1.772,1.928,0.531c3.904-13.991,25.561-14.673,29.773-0.454
				c2.522,8.514-2.406,17.005-10.803,19.005c-12.119,2.885-21.473-6.544-18.971-18.551
				C267.181,249.445,265.253,248.909,264.99,250.172z"/>
		</g>
		<g>
			<path d="M267.453,250.846c-1.875,9.158,3.119,17.66,12.836,18.344c9.575,0.674,15.938-5.363,16.271-14.743
				C297.152,237.823,271.811,235.48,267.453,250.846c-0.178,0.622,0.788,0.885,0.963,0.266c3.645-12.848,23.611-13.086,26.896,0.175
				c1.932,7.798-2.699,14.976-10.312,16.602c-10.788,2.304-18.74-6.243-16.584-16.777
				C268.545,250.482,267.582,250.214,267.453,250.846z"/>
		</g>
	</g>
	<g>
		<path d="M298.895,255.729c4.126-2.785,10.102-2.022,13.27,1.859c0.408,0.5,1.111-0.212,0.707-0.707
			c-3.432-4.205-10.018-5.03-14.48-2.016C297.859,255.225,298.359,256.092,298.895,255.729L298.895,255.729z"/>
	</g>
	<g>
		<path d="M298.874,253.008c3.857-1.276,7.927-1.84,11.611,0.256c1.116,0.635,2.237-1.022,1.117-1.66
			c-4.174-2.374-8.706-2.02-13.137-0.555C297.256,251.449,297.648,253.413,298.874,253.008L298.874,253.008z"/>
	</g>
	<g>
		<path d="M226.268,250.173c5.267-0.214,10.704,0.791,15.914,1.413c7.762,0.927,15.512,1.949,23.278,2.837
			c1.28,0.146,1.267-1.855,0-2c-7.767-0.888-15.518-1.899-23.278-2.837c-5.207-0.629-10.65-1.626-15.914-1.413
			C224.982,248.225,224.978,250.225,226.268,250.173L226.268,250.173z"/>
	</g>
	<g>
		<path d="M226.31,240.131c-0.564,4.827-2.083,9.663-5.207,13.459c-0.812,0.987,0.595,2.411,1.414,1.414
			c3.495-4.248,5.161-9.469,5.793-14.874C228.459,238.852,226.457,238.866,226.31,240.131L226.31,240.131z"/>
	</g>
	<g>
		<path d="M317.78,256.614c6.534-1.274,12.858-1.029,19.264,0.815c1.242,0.357,1.769-1.572,0.531-1.929
			c-6.729-1.937-13.459-2.153-20.326-0.815C315.983,254.932,316.521,256.859,317.78,256.614L317.78,256.614z"/>
	</g>
	<g>
		<path d="M318.248,244.561c-1.332,3.573-1.875,7.283-1.733,11.088c0.048,1.286,2.048,1.29,2,0
			c-0.136-3.641,0.763-8.519,2.035-11.935C321.001,242.504,318.248,244.561,318.248,244.561L318.248,244.561z"/>
	</g>
	<g>
		<path d="M337.285,239.582c-3.995-5.726-11.182-5.384-15.774-0.522c-0.885,0.937,0.526,2.354,1.414,1.414
			c3.634-3.847,9.354-4.584,12.634,0.118C336.291,241.641,338.025,240.643,337.285,239.582L337.285,239.582z"/>
	</g>
	<g>
		<path d="M272.285,254.19c6.535-1.274,12.859-1.029,19.264,0.815c1.242,0.357,1.769-1.572,0.531-1.929
			c-6.729-1.937-13.459-2.153-20.326-0.815C270.488,252.508,271.025,254.436,272.285,254.19L272.285,254.19z"/>
	</g>
	<g>
		<path d="M273.875,243.597c-0.209,0.292-0.544,0.496-1.014,0.496h-0.031c-0.007,0-0.013-0.002-0.02-0.002
			c-0.005,0.006-0.014,0.008-0.02,0.014c-0.271,0.314-0.69,0.46-1.104,0.438c-0.522,2.808-0.768,5.65-0.667,8.535
			c0.052,1.482,2.053,1.488,2,0c-0.11-3.163,0.168-6.249,0.849-9.316C273.881,243.703,273.869,243.654,273.875,243.597z"/>
	</g>
	<g>
		<path d="M293.674,241.15c-3.43-10.023-14.466-10.381-19.729-1.58c-0.663,1.11,1.066,2.115,1.727,1.01
			c4.315-7.217,13.182-7.348,16.072,1.102C292.16,242.895,294.092,242.374,293.674,241.15L293.674,241.15z"/>
	</g>
	<g>
		<path d="M322.266,234.505c3.121-3.031,10.852-3.409,13.098,0.881c0.598,1.143,2.324,0.132,1.727-1.01
			c-2.863-5.471-12.219-5.19-16.238-1.286C319.926,233.991,321.342,235.404,322.266,234.505L322.266,234.505z"/>
	</g>
	<g>
		<path d="M277.647,230.828c4.503-2.631,10.677-2.316,14.288,1.677c0.867,0.958,2.277-0.46,1.414-1.414
			c-4.2-4.646-11.468-5.054-16.712-1.99C275.525,229.751,276.531,231.48,277.647,230.828L277.647,230.828z"/>
	</g>
	<g>
		<path d="M330.561,241.278c-3.132,3.124-4.541,9.514-2.031,13.399c0.697,1.079,2.429,0.077,1.727-1.01
			c-2.014-3.118-0.779-8.484,1.719-10.976C332.889,241.781,331.475,240.367,330.561,241.278L330.561,241.278z"/>
	</g>
	<g>
		<path d="M282.811,240.841c-1.831,1.823-2.271,4.2-2.746,6.642c-0.32,1.644-0.742,4.083,0.761,5.241
			c1.022,0.788,2.017-0.952,1.01-1.727c-0.502-0.387,0.19-3.132,0.292-3.742c0.303-1.817,0.756-3.663,2.098-5
			C285.139,241.344,283.725,239.93,282.811,240.841L282.811,240.841z"/>
	</g>
	<g>
		<path d="M293.559,377.631c7.701-0.304,15.408-1.465,23.1-2.031c8.359-0.616,16.707-1.26,25-2.505
			c1.271-0.19,0.729-2.117-0.531-1.928c-8.748,1.312-17.561,1.924-26.377,2.573c-7.06,0.52-14.121,1.612-21.191,1.891
			C292.273,375.682,292.27,377.682,293.559,377.631L293.559,377.631z"/>
	</g>
	<g>
		<path d="M302.227,375.465c-0.029-1.909-0.061-3.768,0.166-5.667c-0.334,0.333-0.666,0.667-1,1c13.429-1.447,26.643,1.417,40,2.333
			c1.288,0.088,1.279-1.912,0-2c-13.357-0.916-26.571-3.78-40-2.333c-0.594,0.064-0.93,0.411-1,1
			c-0.227,1.899-0.195,3.758-0.166,5.667C300.245,376.753,302.245,376.755,302.227,375.465L302.227,375.465z"/>
	</g>
	<g>
		<path d="M292.559,376.631c0.86,10.723,1.776,21.438,3.083,32.117c0.154,1.263,2.156,1.278,2,0
			c-1.307-10.679-2.223-21.395-3.083-32.117C294.457,375.354,292.456,375.345,292.559,376.631L292.559,376.631z"/>
	</g>
	<g>
		<path d="M297.393,433.131c-0.037,4.564-0.48,9.108-0.666,13.667c-0.053,1.29,1.947,1.285,2,0
			c0.186-4.559,0.629-9.103,0.666-13.667C299.403,431.841,297.403,431.842,297.393,433.131L297.393,433.131z"/>
	</g>
	<g>
		<path d="M297.227,447.631c17.85,0.617,34.566-5.46,49.171-15.47c1.056-0.724,0.058-2.458-1.01-1.727
			c-14.333,9.824-30.632,15.802-48.161,15.196C295.936,445.586,295.939,447.587,297.227,447.631L297.227,447.631z"/>
	</g>
	<g>
		<path d="M337.56,372.965c0.024,20.158,0.77,40.308,3.021,60.349c0.142,1.267,2.144,1.28,2,0
			c-2.251-20.041-2.996-40.19-3.021-60.349C339.559,371.675,337.559,371.675,337.56,372.965L337.56,372.965z"/>
	</g>
	<g>
		<path d="M341.393,371.798c-0.999,9.452,0.119,19.078,0.432,28.55c0.342,10.363,1.928,20.657,3.068,30.95
			c0.141,1.268,2.143,1.281,2,0c-1.074-9.698-2.428-19.363-2.984-29.111c-0.572-9.99-1.57-20.419-0.516-30.389
			C343.528,370.516,341.527,370.529,341.393,371.798L341.393,371.798z"/>
	</g>
	<g>
		<path d="M301.768,391.923c10.414,0.22,20.711-0.179,30.891-2.536c1.256-0.29,0.724-2.219-0.531-1.928
			c-10.011,2.317-20.127,2.68-30.359,2.464C300.477,389.896,300.479,391.896,301.768,391.923L301.768,391.923z"/>
	</g>
	<g>
		<path d="M312.143,388.798c0.25,0,0.5,0,0.75,0c1.289,0,1.289-2,0-2c-0.25,0-0.5,0-0.75,0
			C310.854,386.798,310.854,388.798,312.143,388.798L312.143,388.798z"/>
	</g>
	<g>
		<path d="M304.018,401.173c10.281-0.029,20.203-2.237,30.016-5.161c1.233-0.367,0.707-2.297-0.531-1.928
			c-9.643,2.872-19.374,5.061-29.484,5.089C302.729,399.177,302.728,401.177,304.018,401.173L304.018,401.173z"/>
	</g>
	<g>
		<path d="M318.018,403.798c0.125,0,0.25,0,0.375,0c1.289,0,1.289-2,0-2c-0.125,0-0.25,0-0.375,0
			C316.729,401.798,316.729,403.798,318.018,403.798L318.018,403.798z"/>
	</g>
	<g>
		<path d="M312.143,416.173c7.96,0.912,15.536-1.622,23.016-4.036c1.223-0.394,0.699-2.325-0.531-1.928
			c-7.312,2.359-14.696,4.856-22.484,3.964C310.862,414.026,310.877,416.027,312.143,416.173L312.143,416.173z"/>
	</g>
	<g>
		<path d="M316.768,420.298c0.596-0.001,1.182-0.032,1.766-0.161c1.26-0.276,0.726-2.205-0.531-1.928
			c-0.408,0.089-0.818,0.088-1.234,0.089C315.479,418.3,315.478,420.3,316.768,420.298L316.768,420.298z"/>
	</g>
	<g>
		<path d="M308.002,430.137c8.801,1.768,17.688-0.433,25.771-3.976c1.179-0.517,0.159-2.239-1.01-1.727
			c-7.552,3.31-16.004,5.425-24.229,3.774C307.274,427.956,306.738,429.884,308.002,430.137L308.002,430.137z"/>
	</g>
	<g>
		<path d="M309.752,434.262c2.745,0.717,5.434,0.175,8.156-0.375c1.264-0.255,0.728-2.183-0.531-1.928
			c-2.361,0.477-4.709,0.997-7.094,0.375C309.034,432.008,308.505,433.937,309.752,434.262L309.752,434.262z"/>
	</g>
	<g>
		<path d="M645.894,397.465c0-73.167,0-146.333,0-219.5c0-1.29-2-1.29-2,0c0,73.167,0,146.333,0,219.5
			C643.894,398.755,645.894,398.755,645.894,397.465L645.894,397.465z"/>
	</g>
	<g>
		<path d="M657.643,175.964c-120.167,0-240.333,0-360.5,0c-1.289,0-1.289,2,0,2c120.167,0,240.333,0,360.5,0
			C658.933,177.964,658.933,175.964,657.643,175.964L657.643,175.964z"/>
	</g>
	<g>
		<path d="M658.56,151.298c-120.167,0-240.333,0-360.5,0c-1.29,0-1.29,2,0,2c120.167,0,240.333,0,360.5,0
			C659.85,153.298,659.85,151.298,658.56,151.298L658.56,151.298z"/>
	</g>
	<g>
		<path d="M657.518,152.673c0,8.042,0,16.083,0,24.125c0,1.29,2,1.29,2,0c0-8.042,0-16.083,0-24.125
			C659.518,151.383,657.518,151.383,657.518,152.673L657.518,152.673z"/>
	</g>
	<g>
		<path d="M658.143,175.923c-0.083,0-0.167,0-0.25,0c-1.29,0-1.29,2,0,2c0.083,0,0.167,0,0.25,0
			C659.433,177.923,659.433,175.923,658.143,175.923L658.143,175.923z"/>
	</g>
	<g>
		<path d="M296.143,152.548c0,7.889,0,15.778,0,23.667c0,1.29,2,1.29,2,0c0-7.889,0-15.778,0-23.667
			C298.143,151.258,296.143,151.258,296.143,152.548L296.143,152.548z"/>
	</g>
	<g>
		<path d="M297.227,171.631c120.11,0,240.222,0,360.333,0c1.29,0,1.29-2,0-2c-120.111,0-240.223,0-360.333,0
			C295.937,169.631,295.937,171.631,297.227,171.631L297.227,171.631z"/>
	</g>
	<g>
		<path d="M304.56,177.798c0,1.333,0,2.667,0,4c0,1.29,2,1.29,2,0c0-1.333,0-2.667,0-4
			C306.56,176.508,304.56,176.508,304.56,177.798L304.56,177.798z"/>
	</g>
	<g>
		<path d="M380.393,403.798c46.895-0.936,93.791-1.824,140.688-2.664c28.468-0.51,56.937-1.004,85.407-1.418
			c15.784-0.229,31.618-0.742,47.405-0.418c1.29,0.026,1.288-1.974,0-2c-19.191-0.395-38.446,0.278-57.635,0.57
			c-33.411,0.51-66.822,1.107-100.232,1.72c-38.545,0.707-77.089,1.44-115.633,2.21
			C379.104,401.823,379.103,403.823,380.393,403.798L380.393,403.798z"/>
	</g>
	<g>
		<path d="M374.238,411.668c53.679-1.034,107.358-2.034,161.039-2.954c39.331-0.674,78.843-2.343,118.182-1.535
			c1.29,0.026,1.288-1.974,0-2c-19.862-0.408-39.791,0.288-59.65,0.585c-34.636,0.519-69.269,1.126-103.902,1.747
			c-38.557,0.691-77.112,1.414-115.668,2.157C372.951,409.692,372.948,411.692,374.238,411.668L374.238,411.668z"/>
	</g>
	<g>
		<path d="M376.748,407.638c57.576-1.104,115.158-2.004,172.738-2.87c34.754-0.522,69.647-1.852,104.406-1.136
			c0.646,0.014,0.644-0.986,0-1c-20.526-0.423-41.116,0.249-61.64,0.523c-35.492,0.475-70.982,1.036-106.473,1.613
			c-36.345,0.591-72.689,1.172-109.032,1.869C376.104,406.65,376.103,407.65,376.748,407.638L376.748,407.638z"/>
	</g>
	<g>
		<path d="M654.893,406.144c0-2.615,0-5.23,0-7.846c0-1.29-2-1.29-2,0c0,2.615,0,5.23,0,7.846
			C652.893,407.434,654.893,407.434,654.893,406.144L654.893,406.144z"/>
	</g>
	<path fill="none" stroke="#000000" stroke-width="2" stroke-miterlimit="10" d="M476.268,409.531
		c-7.249,0-13.125,4.792-13.125,10.702c0,5.911,5.876,10.703,13.125,10.703s13.125-4.792,13.125-10.703
		C489.393,414.323,483.517,409.531,476.268,409.531z M476.268,426.739c-4.406,0-7.978-2.913-7.978-6.506
		c0-3.592,3.571-6.505,7.978-6.505s7.978,2.913,7.978,6.505C484.245,423.826,480.674,426.739,476.268,426.739z"/>
	<path d="M339.557,245.359c-0.104-0.513-0.49-0.712-0.893-0.698c-0.113-0.366-0.414-0.665-0.912-0.665
		c-0.101,0-0.18,0.031-0.265,0.054c-0.21-0.398-0.647-0.668-1.095-0.668h-0.017c-0.794-1.143-2.278-1.388-3.649-1.333
		c-0.041,0.001-0.073,0.018-0.111,0.023c-0.314-0.028-0.646,0.067-0.939,0.343c-1.939,1.817-2.856,4.804-2.618,7.59
		c-0.182,1.263-0.045,2.476,0.731,3.483c0.09,0.414,0.363,0.768,0.854,0.85c0.02,0.003,0.038,0.007,0.058,0.011
		c0.051,0.037,0.091,0.077,0.145,0.113c0.323,0.218,0.678,0.215,0.995,0.098c1.308,0.262,2.603,0.578,3.909,0.848
		c0.301,0.483,0.907,0.67,1.424,0.561c-0.049,0.168-0.09,0.337-0.143,0.505c-0.382,1.218,1.549,1.734,1.928,0.524
		C340.158,253.17,340.344,249.287,339.557,245.359z"/>
	<path d="M293.221,246.355c-0.015-0.594-0.457-0.899-0.924-0.929c-0.484-0.958-1.393-1.441-2.334-1.888
		c-0.607-0.421-1.262-0.774-1.988-1.028c-0.006-0.002-0.012-0.002-0.019-0.005c-1.128-0.639-2.36-1.075-3.813-1.123
		c-0.752-0.025-1.146,0.505-1.197,1.083c-0.01,0.013-0.014,0.029-0.021,0.042c-0.324,0.063-0.619,0.243-0.777,0.578
		c-0.855,1.818-1.423,4.342-1.084,6.344c0.051,0.294,0.134,0.545,0.237,0.77c-0.112,0.562,0.15,1.203,0.844,1.473
		c1.085,0.422,2.192,0.59,3.333,0.796c1.326,0.24,2.539,0.881,3.775,1.404c0.004,0.002,0.006,0.004,0.01,0.006v-0.001
		c0.1,0.042,0.199,0.088,0.299,0.128c0.052,0.021,0.102,0.031,0.151,0.044c0.354,0.692,1.226,0.929,1.816,0.516
		c0.221,0.817,1.612,1.027,1.937,0c0.748-2.372,1.092-4.813,1.102-7.299C294.57,246.466,293.805,246.165,293.221,246.355z"/>
	<path d="M342.006,284.947c0.111-0.613-0.072-1.225-0.535-1.586c0.012-0.055,0.025-0.109,0.035-0.164
		c0.061-0.327,0.021-0.62-0.081-0.874c0.138-0.376,0.276-0.754,0.407-1.137c0.648-1.885,0.844-3.913,0.978-5.889
		c0.13-1.932-2.87-1.919-3,0c-0.233,3.45-1.804,6.582-2.368,9.901c-0.512,0.335-0.94,0.84-1.191,1.551
		c-3.388,9.59-11.744,17.619-19.621,23.625c-0.266,0.201-0.469,0.431-0.645,0.67c-0.393-0.125-0.824-0.106-1.161,0.145
		c-0.106,0.08-0.205,0.158-0.3,0.24c-0.002-0.002-0.003-0.004-0.004-0.005c-0.19,0.179-0.19,0.175-0.321,0.265
		c-0.546,0.377-0.84,1.004-0.7,1.625c-0.458,0.212-0.908,0.443-1.369,0.643c-0.499,0.217-0.854,0.508-1.108,0.84
		c-1.391,1.603-0.177,4.944,2.372,5.084c0.734,0.041,1.469,0.083,2.203,0.124c0.471,0.448,1.093,0.778,1.881,0.876
		c3.51,0.437,7.281,0.459,10.795,1.242c0.626,0.322,1.193,0.715,1.666,1.213c1.674,1.762,5.43,0.547,5.121-2.121
		c-0.094-0.813-0.15-1.766-0.236-2.764c0.078-0.164,0.154-0.332,0.213-0.522c1.455-4.764,2.861-9.519,3.852-14.384
		c0.191-0.25,0.361-0.528,0.482-0.866c1.314-3.667,2.205-7.392,2.357-11.297c0.021-0.57-0.102-1.045-0.307-1.446
		c0.213-0.526,0.426-1.053,0.615-1.59c0.331-0.937,0.189-1.73-0.217-2.338C341.881,285.654,341.941,285.3,342.006,284.947z"/>
	<path d="M350.018,209.867c-0.072-0.279-0.17-0.53-0.285-0.759c-0.033-0.136-0.063-0.274-0.098-0.409
		c0.014-0.49,0.014-0.968,0.004-1.407c-0.119-5.709-5.009-10.461-9.604-13.141c-0.487-0.284-1.01-0.408-1.53-0.42
		c-4.94-4.333-10.844-7.641-17.465-8.021c-3.039-1.373-6.179-2.329-9.4-3.01c-5.167-1.708-10.736-2.254-16.121-1.902
		c-0.389,0.025-0.731,0.116-1.053,0.233c-13.491-2.823-28.977-0.213-41.352,4.682c-4.082,1.147-8.078,2.552-11.909,4.363
		c-0.325-0.235-0.699-0.421-1.131-0.528c-2.767-0.686-5.44-0.262-7.954,0.843c-6.176,0.052-11.448,4.857-15.729,9.899
		c-6.113,3.755-11.41,10.482-15.078,16.444c-3.091,5.024-5.914,11.633-7.148,17.917c-2.295,4.971-3.568,10.761-4.849,15.434
		c-1.609,5.875-2.479,11.906-2.857,17.979c-1.361,3.702-3.272,29.957-2.669,32.192c-0.891,4.779-0.886,9.811-0.539,14.588
		c0.809,11.16,1.711,23.183,4.598,34.018c0.332,1.244,1.062,2.045,1.95,2.469c1.386,6.509,4.222,12.313,7.716,17.926
		c0.625,1.477,1.386,2.891,2.362,4.186c0.111,0.147,0.229,0.281,0.351,0.408c0.413,0.663,0.835,1.32,1.274,1.967
		c0.266,0.391,0.588,0.7,0.938,0.957c0.268,0.766,0.625,1.49,1.078,2.164c1.176,2.613,2.529,5.188,4.648,7.149
		c1.376,1.273,3.217,0.288,3.414-1.414c0.266-2.295-0.041-4.516-0.491-6.733c0.157-1.755,0.233-3.513,0.161-5.262
		c0.063-0.918,0.132-1.837,0.205-2.755c0.009-0.109,0-0.207-0.006-0.307c0.002-0.004,0.004-0.008,0.006-0.013
		c1.754-4.78,1.48-9.852,1.584-14.863c0.105-5.061,1.51-10.413,3.147-15.184c3.026-8.815,15.259-10.34,22.66-13.861
		c0.489-0.233,0.862-0.527,1.144-0.857c1.763-1.121,2.625-3.484,0.564-5.141c-0.061-0.049-0.111-0.107-0.171-0.158
		c0.402-0.984,0.417-2.121-0.22-3.008c-0.818-1.141-1.134-2.35-1.471-3.699c-0.428-1.717-1.082-3.406-1.426-5.131
		c-0.241-1.212-0.928-1.936-1.771-2.28c-0.129-1.584-0.225-3.104-0.354-4.456c-1.062-11.048-0.111-22.222-0.062-33.292
		c0.014-3.011-3.082-3.997-5.158-2.989c-0.465-0.297-1.049-0.409-1.623-0.273c-0.008,0.001-0.01,0.002-0.017,0.004
		c-0.137,0.007-0.274,0.008-0.411,0.008c-0.162,0-0.318,0.026-0.47,0.064c-2.439-3.49-2.54-8-0.867-11.92
		c0.221-0.518,0.327-1.026,0.351-1.518c0.225-0.107,0.456-0.2,0.703-0.269c0.621-0.172,0.357-1.137-0.266-0.964
		c-0.18,0.05-0.352,0.122-0.523,0.19c-0.111-0.515-0.314-0.997-0.591-1.43c0.172-0.605,0.313-1.216,0.444-1.83
		c0.078,0.02,0.148,0.05,0.24,0.051c13.232,0.095,26.342,1.964,39.5,3.145c1.285,0.115,1.274-1.886,0-2
		c-0.876-0.079-1.752-0.167-2.628-0.25c6.541-9.808,11.756-21.384,10.771-33.35c0.123-0.103,0.224-0.224,0.286-0.368
		c2.841,1.647,5.602,3.473,8.534,4.949c4.129,2.077,8.555,3.539,12.997,4.766c7.676,2.119,16.198,3.708,24.294,3.169
		c0.4,0.393,0.953,0.687,1.69,0.815c3.415,0.594,6.755,0.531,10.085,0.089c5.076,0.017,10.933-2.07,14.307-5.729
		c0.69-0.604,1.283-1.284,1.779-2.024c0.927-1.18,1.453-2.584,1.688-4.089C350.598,213.951,350.539,211.859,350.018,209.867z"/>
	<path d="M254.819,252.078c-0.062,0.021-0.116,0.05-0.178,0.072c-0.319-0.321-0.759-0.552-1.332-0.602
		c-4.726-0.41-9.438-1.288-14.167-1.542c-0.784-0.042-1.319,0.281-1.623,0.756c-0.818-0.387-1.695-0.611-2.627-0.589
		c-1.932,0.044-1.326,3.096,0.609,3.051c3.611-0.083,5.791,6.533,5.194,9.55c-0.354,1.793,2.218,2.595,2.804,1.054
		c0.483,0.142,1.012,0.114,1.485-0.178c1.981-1.222,4.077-2.226,5.946-3.625c1.873-1.402,3.339-3.174,5.429-4.291
		C258.347,254.671,256.979,251.344,254.819,252.078z"/>
	<g>
		<path d="M409.923,325.969c21.834-31.333,43.667-62.667,65.5-94c0.739-1.061-0.995-2.06-1.727-1.01
			c-21.834,31.333-43.667,62.667-65.5,94C407.457,326.021,409.191,327.02,409.923,325.969L409.923,325.969z"/>
	</g>
	<g>
		<path d="M412.673,329.594c21.834-31.333,43.667-62.667,65.5-94c0.739-1.061-0.995-2.06-1.727-1.01
			c-21.834,31.333-43.667,62.667-65.5,94C410.207,329.646,411.941,330.645,412.673,329.594L412.673,329.594z"/>
	</g>
	<g>
		<path d="M400.013,336.115c-0.538,1.469-2.182,3.035-3.081,4.317c-1.334,1.902-2.603,3.851-3.902,5.776
			c-0.724,1.072,1.01,2.072,1.727,1.01c1.301-1.926,2.581-3.865,3.902-5.777c1.071-1.548,2.63-3.01,3.282-4.795
			C402.385,335.434,400.452,334.914,400.013,336.115L400.013,336.115z"/>
	</g>
	<g>
		<path d="M394.564,347.828c-0.119,0.07,0.21,0.068,0.397,0.15c0.435,0.191,0.844,0.464,1.207,0.766
			c0.283,0.234,0.553,0.498,0.751,0.809c0.134,0.207-0.041,0.132,0.126,0.021c-0.232,0.153-1.077-0.195-1.481-0.441
			c-0.571-0.348-1.165-1.016-1.041-1.736c0.218-1.26-1.709-1.801-1.928-0.531c-0.285,1.648,0.512,2.961,1.822,3.904
			c1.058,0.761,2.828,1.252,3.926,0.318c1.299-1.104,0.354-2.726-0.619-3.634c-0.979-0.913-2.807-2.157-4.17-1.353
			C392.445,346.756,393.451,348.484,394.564,347.828L394.564,347.828z"/>
	</g>
	<g>
		<path d="M398.59,350.969c3.068-5.059,6.604-9.986,9.972-14.863c0.735-1.064-0.999-2.062-1.727-1.01
			c-3.369,4.878-6.903,9.805-9.972,14.863C396.192,351.065,397.922,352.07,398.59,350.969L398.59,350.969z"/>
	</g>
	<g>
		<path d="M475.017,232.296c0.513-0.65,1.129-1.257,2.007-0.844c0.47,0.221,0.433,0.779,0.352,1.212
			c-0.195,1.056-0.837,2.107-1.606,2.843c-0.935,0.893,0.482,2.305,1.414,1.414c1.418-1.355,2.521-3.532,2.144-5.521
			c-0.192-1.013-1.077-1.643-1.984-1.96c-1.453-0.508-2.863,0.33-3.739,1.441C472.813,231.883,474.219,233.309,475.017,232.296
			L475.017,232.296z"/>
	</g>
	<g>
		<path d="M488.62,212.298c-37.153,0-67.272,30.119-67.272,67.272c0,8.079,1.446,15.813,4.058,22.989
			c0.214-0.394,0.422-0.79,0.631-1.187c-2.38-6.829-3.688-14.161-3.688-21.803c0-18.302,7.417-34.867,19.411-46.862
			c11.994-11.994,28.56-19.411,46.861-19.411c18.303,0,34.867,7.417,46.862,19.411c11.993,11.995,19.41,28.56,19.41,46.862
			s-7.417,34.867-19.41,46.861c-11.995,11.994-28.56,19.41-46.862,19.411c-18.302-0.001-34.867-7.417-46.861-19.411
			c-5.664-5.664-10.288-12.357-13.611-19.762c-0.207,0.343-0.417,0.686-0.638,1.021c10.65,23.105,34,39.15,61.11,39.151
			c37.154-0.001,67.272-30.118,67.272-67.272C555.893,242.417,525.774,212.298,488.62,212.298z"/>
		<path d="M489.393,285.298c0-24.111,0-48.222,0-72.333c0-0.645-1-0.645-1,0c0,24.111,0,48.222,0,72.333
			C488.393,285.943,489.393,285.943,489.393,285.298z"/>
		<path d="M489.226,286.464c22.11,0.326,44.223,0.005,66.334,0c0.645,0,0.645-1,0-1c-22.111,0.005-44.224,0.326-66.334,0
			C488.58,285.455,488.581,286.455,489.226,286.464z"/>
	</g>
</g>
</svg>
