<?xml version="1.0" encoding="utf-8"?>
<!-- Generator: Adobe Illustrator 15.1.0, SVG Export Plug-In . SVG Version: 6.00 Build 0)  -->
<!DOCTYPE svg PUBLIC "-//W3C//DTD SVG 1.1//EN" "http://www.w3.org/Graphics/SVG/1.1/DTD/svg11.dtd">
<svg version="1.1" id="Layer_1" xmlns="http://www.w3.org/2000/svg" xmlns:xlink="http://www.w3.org/1999/xlink" x="0px" y="0px"
	 width="841.89px" height="595.28px" viewBox="0 0 841.89 595.28" enable-background="new 0 0 841.89 595.28" xml:space="preserve">
<g>
	<g>
		<path d="M290.202,306.474c-6.731-0.074-18.711-2.575-24.149,2.863c-5.804,5.804,14.435,6.397,16.378,6.46
			c1.628,0.052,1.623-2.473,0-2.524c-3.394-0.108-6.759-0.198-10.121-0.724c-0.021-0.004-4.959-1.076-3.653-1.943
			c1.425-0.947,3.314-1.26,4.961-1.565c5.406-1.001,11.132-0.102,16.583-0.042C291.83,309.015,291.829,306.491,290.202,306.474
			L290.202,306.474z"/>
	</g>
	<g>
		<path d="M282.431,313.272c-5.337,0.683-10.875,0.397-16.13,1.592c-2.008,0.458-6.457,2.981-4.091,5.572
			c2.108,2.307,6.792,1.941,9.581,1.941c3.648-0.001,7.367-0.235,10.976-0.797c1.605-0.249,0.921-2.683-0.67-2.434
			c-4.98,0.775-10.472,1.129-15.472,0.442c-5.44-0.748,1.475-2.592,3.52-2.822c4.086-0.461,8.195-0.447,12.287-0.971
			C284.021,315.593,284.042,313.066,282.431,313.272L282.431,313.272z"/>
	</g>
	<g>
		<path d="M282.431,319.102c-3.737-0.086-19.801,1.808-17.191,8.528c1.07,2.755,5.471,2.375,7.769,2.237
			c3.558-0.214,7.019-1.146,10.557-1.442c1.609-0.135,1.623-2.66,0-2.524c-4.89,0.409-9.957,2.274-14.883,1.316
			c-3.8-0.739,3.94-3.97,4.839-4.236c2.841-0.842,5.937-1.422,8.91-1.354C284.059,321.663,284.056,319.139,282.431,319.102
			L282.431,319.102z"/>
	</g>
	<g>
		<path d="M282.348,327.66c1.755,5.478,7.059,11.815,13.175,12.099c1.628,0.075,1.621-2.448,0-2.524
			c-4.898-0.227-9.352-5.909-10.742-10.244C284.287,325.445,281.849,326.106,282.348,327.66L282.348,327.66z"/>
	</g>
	<g>
		<path d="M292.262,275.56c-8.773,5.53-13.713,14.433-17.505,23.814c-0.611,1.51,1.832,2.159,2.433,0.671
			c3.532-8.734,8.173-17.153,16.347-22.306C294.91,276.874,293.644,274.688,292.262,275.56L292.262,275.56z"/>
	</g>
	<g>
		<path d="M281.755,375.185c-1.749,7.026-1.359,14.31-1.422,21.5c-0.079,9.016-0.013,18.032,0.114,27.049
			c0.256,18.044,0.907,36.082,1.694,54.11c0.07,1.62,2.596,1.628,2.524,0c-0.716-16.39-1.293-32.782-1.611-49.183
			c-0.159-8.204-0.226-16.409-0.228-24.614c-0.002-9.204-0.873-19.212,1.362-28.192
			C284.581,374.274,282.147,373.605,281.755,375.185L281.755,375.185z"/>
	</g>
	<g>
		<path d="M288.397,339.587c0.441-1.22,0.854-2.448,1.294-3.668c0.234-0.647-0.256-1.381-0.881-1.552
			c-0.703-0.194-1.319,0.233-1.552,0.881c-0.44,1.219-0.854,2.448-1.294,3.668c-0.234,0.647,0.258,1.381,0.881,1.552
			C287.548,340.661,288.164,340.233,288.397,339.587L288.397,339.587z"/>
	</g>
	<g>
		<g>
			<path d="M427.562,187.25c2.249-2.575,5.34-2.599,8.227-1.139c4.876,2.463,3.224,9.403,1.453,13.155
				c-2.504,5.313-8.564,11.839-14.62,12.382c-1.607,0.144-1.622,2.669,0,2.524c8.647-0.775,18.537-11.451,18.848-20.225
				c0.156-4.454-1.343-8.469-5.468-10.554c-3.483-1.76-7.737-0.777-10.225,2.071C424.711,186.686,426.49,188.479,427.562,187.25
				L427.562,187.25z"/>
		</g>
		<g>
			<path d="M376.662,275.599c5.966-5.506,12.573-10.346,19.165-15.066c6.45-4.618,13.331-9.76,20.818-12.565
				c1.51-0.566,0.856-3.006-0.67-2.434c-7.747,2.902-14.724,8.081-21.421,12.82c-6.781,4.796-13.565,9.821-19.676,15.461
				C373.678,274.92,375.467,276.701,376.662,275.599L376.662,275.599z"/>
		</g>
		<g>
			<path d="M374.68,275.945c2.467,3.937,4.935,7.874,7.402,11.81c0.862,1.375,3.047,0.11,2.179-1.274
				c-2.467-3.937-4.935-7.874-7.402-11.81C375.997,273.295,373.812,274.561,374.68,275.945L374.68,275.945z"/>
		</g>
		<g>
			<path d="M353.994,250.296c1.171,7.998,2.342,15.995,3.513,23.991c0.234,1.606,2.666,0.921,2.433-0.67
				c-1.171-7.998-2.342-15.995-3.513-23.991C356.193,248.02,353.761,248.706,353.994,250.296L353.994,250.296z"/>
		</g>
		<g>
			<path d="M415.093,246.416c-0.847,2.387-0.341,5.445-0.09,7.891c0.271,2.652,0.588,5.576,1.834,7.976
				c0.749,1.444,2.928,0.169,2.179-1.274c-1.129-2.174-1.316-5.015-1.562-7.403c-0.203-1.992-0.615-4.583,0.072-6.519
				C418.072,245.548,415.633,244.892,415.093,246.416L415.093,246.416z"/>
		</g>
		<g>
			<path d="M384.261,287.755c4.003-6.02,11.259-10.3,17.039-14.422c5.403-3.853,11.054-7.341,16.833-10.6
				c1.417-0.799,0.145-2.98-1.274-2.179c-7.074,3.989-13.85,8.396-20.411,13.181c-5.077,3.701-10.851,7.462-14.365,12.746
				C381.178,287.84,383.365,289.104,384.261,287.755L384.261,287.755z"/>
		</g>
		<g>
			<path d="M347.337,295.287c4.742-0.526,9.386,0.232,13.773,2.093c1.48,0.629,2.768-1.545,1.274-2.179
				c-4.806-2.039-9.832-3.018-15.048-2.438C345.738,292.94,345.72,295.467,347.337,295.287L347.337,295.287z"/>
		</g>
		<g>
			<path d="M361.664,296.929c-0.951,3.947-2.542,7.681-4.567,11.192c-0.815,1.413,1.367,2.684,2.179,1.274
				c2.127-3.688,3.823-7.651,4.822-11.796C364.479,296.018,362.045,295.347,361.664,296.929L361.664,296.929z"/>
		</g>
		<g>
			<path d="M346.075,294.188c-0.546,4.464-1.247,8.994-0.277,13.449c0.345,1.591,2.779,0.916,2.433-0.67
				c-0.912-4.197-0.146-8.577,0.369-12.779C348.797,292.575,346.27,292.593,346.075,294.188L346.075,294.188z"/>
		</g>
		<g>
			<path d="M354.502,378.046c-3.231,27.56-4.727,54.615-4.362,82.364c0.021,1.627,2.545,1.629,2.524,0
				c-0.365-27.749,1.13-54.805,4.362-82.364C357.216,376.432,354.689,376.45,354.502,378.046L354.502,378.046z"/>
		</g>
		<g>
			<path d="M378.148,280.575c-8.573,13.166-12.2,27.845-14.806,43.221c-0.27,1.591,2.162,2.272,2.433,0.67
				c2.568-15.139,6.1-29.637,14.552-42.617C381.218,280.48,379.032,279.216,378.148,280.575L378.148,280.575z"/>
		</g>
		<g>
			<path d="M322.555,368.526c-4.202,30.036-4.896,60.771-4.796,91.075c0.005,1.627,2.529,1.629,2.524,0
				c-0.099-30.068,0.536-60.601,4.705-90.405C325.211,367.605,322.779,366.919,322.555,368.526L322.555,368.526z"/>
		</g>
		<g>
			<path d="M345.247,271.778c-5.735,19.478-11.793,38.769-16.157,58.618c-0.349,1.587,2.084,2.261,2.433,0.671
				c4.366-19.85,10.423-39.14,16.157-58.619C348.141,270.883,345.706,270.22,345.247,271.778L345.247,271.778z"/>
		</g>
		<g>
			<path d="M352.771,266.708c-5.274,2.382-10.002,5.771-14.145,9.799c-1.168,1.136,0.618,2.919,1.785,1.785
				c4-3.888,8.545-7.104,13.634-9.404C355.527,268.217,354.243,266.043,352.771,266.708L352.771,266.708z"/>
		</g>
		<g>
			<path d="M340.404,277.643c1.756-7.698,3.513-15.396,5.268-23.096c0.362-1.584-2.072-2.257-2.433-0.67
				c-1.756,7.698-3.513,15.396-5.268,23.096C337.609,278.557,340.043,279.23,340.404,277.643L340.404,277.643z"/>
		</g>
		<g>
			<path d="M345.093,255.301c3.228-1.732,6.455-3.463,9.683-5.196c1.435-0.77,0.16-2.949-1.274-2.179
				c-3.228,1.732-6.455,3.463-9.683,5.196C342.384,253.891,343.658,256.07,345.093,255.301L345.093,255.301z"/>
		</g>
		<g>
			<path d="M411.855,156.345c-2.602,11.17-2.14,35.167,13.196,36.73c1.619,0.165,1.604-2.361,0-2.524
				c-13.123-1.338-12.943-24.17-10.763-33.536C414.658,155.432,412.224,154.76,411.855,156.345L411.855,156.345z"/>
		</g>
		<g>
			<path d="M419.949,186.855c0.3,1.043,0.971,1.717,2.015,2.015c1.568,0.448,2.233-1.988,0.671-2.434
				c-0.253-0.072-0.18,0-0.253-0.251C421.935,184.623,419.498,185.287,419.949,186.855L419.949,186.855z"/>
		</g>
		<g>
			<path d="M343.916,143.129c0.417,13.58,20.805,18.976,31.385,20.389c17.502,2.339,36.252-0.63,49.993-12.373
				c1.24-1.059-0.555-2.836-1.784-1.785c-11.376,9.72-26.355,12.866-41.001,12.331c-10.241-0.373-35.64-4.583-36.069-18.563
				C346.391,141.506,343.867,141.501,343.916,143.129L343.916,143.129z"/>
		</g>
		<g>
			<path d="M346.247,154.777c-4.012-2.69-5.216-8.683-6.874-12.948c-1.648-4.239-3.424-8.413-5.41-12.505
				c-0.251,0.618-0.503,1.236-0.754,1.854c8.107-1.702,16.855-1.465,25.106-1.63c9.031-0.181,18.062,0.01,27.08,0.492
				c9.719,0.52,19.327,1.745,28.946,3.201c4.062,0.615,8.122,1.24,12.189,1.822c2.467,0.353,8.117-0.021,9.933,1.62
				c1.205,1.089,2.995-0.691,1.785-1.785c-1.148-1.039-2.328-1.286-3.908-1.427c-4.842-0.433-9.647-1.195-14.453-1.92
				c-9.84-1.486-19.656-3.014-29.591-3.715c-9.83-0.693-19.667-0.929-29.518-0.848c-9.274,0.078-19.13-0.156-28.239,1.756
				c-0.851,0.179-1.088,1.166-0.754,1.854c2.772,5.715,5.089,11.62,7.33,17.56c1.351,3.581,2.598,6.612,5.858,8.798
				C346.329,157.866,347.59,155.678,346.247,154.777L346.247,154.777z"/>
		</g>
		<g>
			<path d="M436.309,136.653c-0.173,4.305-0.19,8.519-1.681,12.617c-0.299,0.823,0.46,1.542,1.217,1.598
				c2.245,0.165,4.467,0.309,6.672,0.795c4.663,1.028,0.348,9.814-0.435,11.962c-2.497,6.861-6.138,13.192-8.319,20.185
				c-0.486,1.558,1.95,2.219,2.434,0.671c1.926-6.172,4.84-11.922,7.379-17.85c1.396-3.257,3.493-7.455,3.727-11.05
				c0.448-6.912-6.097-6.845-11.457-7.238c0.405,0.532,0.811,1.065,1.217,1.597c1.576-4.332,1.587-8.73,1.771-13.288
				C438.897,135.025,436.373,135.031,436.309,136.653L436.309,136.653z"/>
		</g>
		<g>
			<path d="M338.746,144.017c-4.008,1.542-9.561,2.168-8.437,7.525c0.741,3.53,2.681,7.032,3.756,10.476
				c1.875,5.998,3.991,11.906,6.388,17.714c0.611,1.482,3.054,0.833,2.433-0.671c-2.995-7.257-5.469-14.678-7.77-22.181
				c-0.627-2.047-1.708-3.962-2.374-6.009c-0.942-2.892,4.895-3.736,6.673-4.42C340.92,145.873,340.267,143.432,338.746,144.017
				L338.746,144.017z"/>
		</g>
		<g>
			<path d="M408.214,190.805c6.129-0.679,12.251-1.366,18.249-2.852c1.58-0.391,0.909-2.825-0.671-2.434
				c-5.779,1.432-11.67,2.107-17.578,2.761C406.614,188.458,406.597,190.984,408.214,190.805L408.214,190.805z"/>
		</g>
		<g>
			<path d="M409.628,188.385c6.118-1.038,12.255-1.87,18.444-2.329c1.613-0.12,1.625-2.645,0-2.524
				c-6.415,0.476-12.775,1.343-19.115,2.418C407.355,186.222,408.037,188.654,409.628,188.385L409.628,188.385z"/>
		</g>
		<g>
			<path d="M409.735,188.905c1.616,0.769,3.707,0.212,5.382-0.064c2.665-0.44,5.304-1.21,7.99-1.49c1.603-0.167,1.619-2.692,0-2.524
				c-1.914,0.199-3.801,0.641-5.684,1.019c-1.486,0.299-4.967,1.569-6.414,0.88C409.548,186.029,408.266,188.205,409.735,188.905
				L409.735,188.905z"/>
		</g>
		<g>
			<path d="M407.999,187.134c6.72,0.108,13.359-1.192,20.074-1.295c1.626-0.024,1.628-2.549,0-2.524
				c-6.715,0.102-13.354,1.402-20.074,1.294C406.37,184.584,406.373,187.108,407.999,187.134L407.999,187.134z"/>
		</g>
		<g>
			<path d="M367.134,185.721c-3.592,6.53-7.951,12.61-11.01,19.428c-0.29,0.646-0.175,1.329,0.452,1.727
				c4.523,2.87,9.797,3.639,15.047,4.059c1.623,0.13,1.611-2.395,0-2.524c-4.827-0.386-9.614-1.075-13.772-3.713
				c0.15,0.575,0.302,1.151,0.453,1.727c3.059-6.818,7.418-12.898,11.01-19.428C370.098,185.568,367.918,184.295,367.134,185.721
				L367.134,185.721z"/>
		</g>
		<g>
			<path d="M348.516,214.195c3.603,6.426,11.296,9.229,18.078,10.942c9.396,2.373,19.13-1.011,26.876-6.28
				c1.337-0.91,0.075-3.098-1.274-2.179c-6.504,4.424-13.491,6.929-21.418,6.582c-6.99-0.306-16.569-4.074-20.082-10.339
				C349.898,211.502,347.718,212.774,348.516,214.195L348.516,214.195z"/>
		</g>
		<g>
			<path d="M390.231,217.366c1.876,0.705,2.236,2.841,2.149,4.611c-0.079,1.627,2.445,1.62,2.524,0
				c0.148-3.032-1.021-5.925-4.003-7.046C389.375,214.357,388.722,216.798,390.231,217.366L390.231,217.366z"/>
		</g>
		<g>
			<path d="M383.929,172.887c5.936,0.023,11.813,0.351,17.636,1.574c1.588,0.333,2.263-2.1,0.671-2.434
				c-6.04-1.269-12.146-1.64-18.307-1.664C382.3,170.356,382.302,172.881,383.929,172.887L383.929,172.887z"/>
		</g>
		<g>
			<path d="M350.091,167.868c4.039-0.371,7.85,0.604,11.645,1.897c1.544,0.526,2.203-1.912,0.67-2.434
				c-3.992-1.361-8.071-2.378-12.315-1.988C348.483,165.492,348.47,168.017,350.091,167.868L350.091,167.868z"/>
		</g>
		<rect x="374.601" y="177.373" transform="matrix(0.99 0.1411 -0.1411 0.99 30.3426 -53.47)" width="35.024" height="19.59"/>
		
			<rect x="364.229" y="181.189" transform="matrix(0.9899 0.1421 -0.1421 0.9899 29.9413 -50.6803)" width="11.251" height="6.264"/>
		<path d="M435.837,150.129c0.994-3.412,1.142-7.205,1.196-10.562c0.01-0.768-0.262-1.35-0.676-1.764
			c0.005-0.168,0.024-0.333,0.027-0.502c0.015-1.811-1.472-2.667-2.896-2.467c-0.437-0.553-1.102-0.933-1.962-0.933h-0.646
			c-0.742,0-1.312,0.264-1.723,0.662c-0.264-0.188-0.592-0.33-0.988-0.408c-8.917-1.734-17.934-2.303-26.884-3.723
			c-6.467-1.025-13.227-2.514-19.686-0.976c-6.522-1.989-13.375-1.872-20.176-1.708c-0.91,0.022-1.611,0.514-2.049,1.182
			c-0.669,0.109-1.338,0.247-2.009,0.404c-7.516-0.794-15.167-1.979-22.536,0.125c-2.45,0.702-2.497,4.32,0,4.997
			c0.042,0.011,0.082,0.017,0.122,0.027c0.627,2.608,1.887,4.967,3.243,7.387c0.688,1.227,1.22,2.452,1.673,3.688
			c-0.048,0.002-0.09-0.006-0.139-0.001c-3.022,0.278-6.922,0.751-7.299,4.499c-0.202,2.006,0.764,3.877,1.398,5.726
			c1.017,2.97,1.741,6.031,2.731,9.01c0.129,0.684,0.508,1.32,1.159,1.756c0,0.163,0.015,0.329,0.057,0.492
			c0.133,0.514,0.354,0.982,0.64,1.399l-5.222-0.861l-3.189,19.328l34.557,5.704l3.19-19.328l-24.372-4.022
			c0.496-0.503,0.625-1.208,0.451-1.891c0.439-0.35,0.789-0.83,0.988-1.37c1.27-3.42,1.243-7.291,1.065-10.889
			c-0.007-0.131-0.029-0.25-0.05-0.371c0.01-0.111,0.015-0.222,0.026-0.333c0.821-0.543,1.358-1.503,1.065-2.736
			c-0.479-2.003-0.831-4.073-1.4-6.065c0.083,0.003,0.166,0.01,0.249,0.004c0.015,0.051,0.022,0.1,0.04,0.152
			c4.22,12.125,19.158,14.996,30.232,16.824c10.781,1.78,22.675-0.074,32.846-4.397c0.901-0.135,1.799-0.271,2.699-0.406
			c0.394,0.006,0.8-0.015,1.199-0.017c-0.054,0.685,0.068,1.354,0.412,1.999c-0.71,1.261-0.858,2.79-0.774,4.575
			c0.032,0.683,0.257,1.216,0.587,1.619c-0.877,4.499-1.457,8.954,0.314,13.479c0.245,0.627,0.652,1.062,1.13,1.344
			c-0.875,0.641-0.649,2.359,0.723,2.339l19.266-1.619c1.052,0.034,0.951-0.334,0.675-1.105c2.222-1.503,3.688-4.595,4.756-6.937
			c2.43-5.345,6.495-11.383,7.035-17.216C447.445,150.424,440.358,149.883,435.837,150.129z"/>
		<path d="M422.391,190.103c-0.267,0.09-0.481,0.023-0.639-0.111c-0.074,0.336,0.173,0.722,0.53,0.791
			c0.076,0.232,0.264,0.426,0.584,0.434c0.5,0.012,0.956-0.115,1.386-0.315c-0.021,0.049-0.05,0.093-0.069,0.143
			c-0.283,0.676,0.897,1.171,1.186,0.5c0.015-0.036,0.032-0.065,0.047-0.099c0.222,0.029,0.456-0.049,0.599-0.306
			c0.404-0.719,0.855-1.407,1.078-2.177C425.504,189.239,423.926,189.586,422.391,190.103z"/>
		<g>
			<path d="M423.979,186.448c-0.256,1.168-0.463,2.339-0.608,3.526c1.078-0.446,2.155-0.893,3.232-1.338
				c-0.576-0.503-1.188-0.838-1.939-1.001c-0.125-0.027-1.099-0.16-0.85-0.125c-0.109-0.016-0.757-0.219-0.557-0.062
				c-0.811-0.636-1.882-0.796-2.677,0c-0.663,0.663-0.814,2.04,0,2.677c0.624,0.488,1.23,0.836,2.013,1
				c0.125,0.026,1.111,0.162,0.855,0.125c0.138,0.02,0.276,0.047,0.413,0.08c0.369,0.08,0.161,0.067,0.063-0.018
				c1.33,1.161,3.031,0.306,3.232-1.338c0.104-0.847,0.291-1.687,0.472-2.52c0.221-1.007-0.288-2.044-1.322-2.329
				C425.354,184.864,424.2,185.44,423.979,186.448L423.979,186.448z"/>
		</g>
		<g>
			<path d="M416.972,185.027c4.777-1.699,10.976-1.431,16.013-1.633c2.433-0.098,2.442-3.884,0-3.786
				c-5.383,0.216-11.893-0.056-17.019,1.768C413.683,182.188,414.666,185.847,416.972,185.027L416.972,185.027z"/>
		</g>
		<g>
			<path d="M425.129,191.024c-5.258,4.669-10.312,9.458-15.757,13.914c-3.285,2.689-4.1,6.619-1.875,10.223
				c2.104,3.409,6.014,2.526,8.774,0.744c5.105-3.295,9.707-8.585,13.991-12.841c1.156-1.148-0.629-2.933-1.785-1.785
				c-2.694,2.677-5.44,5.284-8.312,7.771c-2.093,1.812-8.777,10.148-11.375,3.049c-1.438-3.931,5.757-8.023,8.105-10.054
				c3.435-2.971,6.624-6.221,10.02-9.237C428.133,191.726,426.342,189.947,425.129,191.024L425.129,191.024z"/>
		</g>
		<g>
			<path d="M426.984,192.683c2.286-1.342,7.055-2.264,6.386,2.038c-0.412,2.652-3.027,4.846-4.894,6.559
				c-1.201,1.103,0.588,2.883,1.785,1.785c2.963-2.718,6.83-6.549,5.326-10.965c-1.488-4.371-6.806-3.399-9.878-1.595
				C424.307,191.326,425.576,193.508,426.984,192.683L426.984,192.683z"/>
		</g>
		<g>
			<path d="M423.258,196.534c2.434,0.924,4.069,3.325,4.146,5.906c0.05,1.624,2.573,1.628,2.524,0c-0.113-3.78-2.486-7.005-6-8.341
				C422.404,193.521,421.752,195.961,423.258,196.534L423.258,196.534z"/>
		</g>
		<g>
			<path d="M428.386,196.008c0.588,0.877,1.93,0.982,2.504,0c0.562-0.957-0.125-2.132-1.231-2.082
				c0.213,0.057,0.425,0.114,0.637,0.172c-0.025-0.011-0.05-0.022-0.074-0.032c-0.631-0.275-1.35-0.193-1.727,0.452
				c-0.317,0.541-0.179,1.452,0.452,1.727c0.296,0.129,0.536,0.195,0.855,0.203c-0.362-0.208-0.726-0.417-1.09-0.625
				c0.01,0.017,0.019,0.033,0.028,0.049c-0.043-0.324-0.085-0.648-0.128-0.973c-0.009,0.046-0.019,0.091-0.028,0.137
				c0.192-0.251,0.386-0.503,0.579-0.754c-0.047,0.03-0.095,0.06-0.142,0.09c0.212-0.057,0.424-0.114,0.636-0.172
				c-0.033-0.003-0.066-0.007-0.101-0.01c0.297,0.123,0.595,0.247,0.893,0.37c0.038,0.058,0.077,0.116,0.115,0.174
				C429.664,193.39,427.476,194.652,428.386,196.008L428.386,196.008z"/>
		</g>
		<g>
			<path d="M433.34,207.892c0.11,3.327,1.65,6.48,5.04,7.43c2.572,0.721,6.044-0.389,5.742-3.544
				c-0.053-0.56-0.345-1.067-0.927-1.217c-4.519-1.166-8.381,3.586-7.542,7.867c0.312,1.597,2.745,0.919,2.434-0.67
				c-0.473-2.412,1.881-5.422,4.438-4.762c-0.31-0.405-0.618-0.812-0.928-1.217c0.152,1.584-1.883,1.296-2.921,1.006
				c-2.06-0.578-2.751-3.021-2.812-4.892C435.812,206.269,433.287,206.263,433.34,207.892L433.34,207.892z"/>
		</g>
		<g>
			<path d="M435.978,219.469c1.848,1.478,8.364,3.7,9.962,0.809c0.629-1.141,0.448-3.069-0.882-3.72
				c-2.036-0.997-4.136-0.136-6.012,0.86c-4.722,2.506-5.416,7.301-0.218,9.735c1.853,0.868,4.739,1.109,6.383-0.385
				c1.381-1.257,1.049-2.962-0.759-3.627c-3.206-1.181-11.833-0.39-10.352,4.994c0.853,3.104,9.747,6.699,10.948,2.333
				c0.524-1.905-1.718-3.272-3.381-3.336c-2.933-0.113-5.937,0.908-7.564,3.461c-3.113,4.884,5.206,7.982,8.606,7.335
				c1.599-0.305,0.919-2.737-0.671-2.435c-2.182,0.416-4.854-0.427-5.768-2.645c0.357-1.646,1.294-2.619,2.811-2.92
				c1.355-0.486,2.995,0.102,0.859-0.347c-2.324-0.489-4.768-2.834-1.325-4.156c1.451-0.557,3.004-0.457,4.479-0.103
				c-1.118-0.268-6.952-0.449-5.43-3.458c0.617-1.22,2.177-2.014,3.323-2.623c1.368-0.726,2.944-0.162,0.84-0.308
				c-1.217-0.084-3.085-0.465-4.065-1.25C436.505,216.679,434.706,218.453,435.978,219.469L435.978,219.469z"/>
		</g>
		<g>
			<path d="M443.627,235.264c-1.854-2.501-6.315-2.503-8.57-0.401c-3.171,2.957,0.192,6.646,3.319,7.926
				c1.626,0.666,3.763,1.099,5.19-0.329c0.95-0.951,1.123-2.676-0.029-3.599c-3.494-2.799-8.74-0.996-10.67,2.878
				c-1.867,3.749,2.672,7.904,6.171,8.114c2.702,0.161,6.475-2.023,2.84-4.154c-2.882-1.689-8.379-1.795-9.881,1.864
				c-1.889,4.601,3.133,8.769,7.289,9.468c1.591,0.269,2.272-2.163,0.67-2.433c-2.26-0.381-7.826-3.311-5.291-6.512
				c1.133-1.43,2.816-1.11,4.207-0.798c1.91,0.428,2.561,0.555-0.391-0.117c-2.151-0.489-4.594-3.007-2.646-5.439
				c0.815-0.786,1.773-1.318,2.873-1.598c1.631,0.785,1.567,0.75-0.191-0.104c-4.872-2.65,1.197-5.829,2.931-3.491
				C442.405,237.83,444.598,236.574,443.627,235.264L443.627,235.264z"/>
		</g>
		<g>
			<path d="M440.514,256.384c3.136-2.657-2.2-5.333-4.453-5.356c-4.755-0.05-6.086,6.729-2.496,9.247
				c1.564,1.097,4.114,1.871,5.707,0.277c1.225-1.225,0.536-2.882-0.835-3.661c-2.297-1.307-9.235-2.591-8.631,2.082
				c0.371,2.859,4.121,5.562,6.915,5.341c3.275-0.26,3.028-4.295,0.707-5.644c-2.82-1.637-7.447-0.817-9.182,1.982
				c-0.945,1.528-0.373,4.055,0.743,5.331c0.703,0.804,1.458,1.438,2.49,1.801c0.769,0.27,1.542,0.489,2.326,0.709
				c1.403,0.391,5.274,3.759,2.427,5.5c-1.385,0.848-0.118,3.032,1.275,2.179c3.335-2.041,2.382-5.046,0.452-7.878
				c-0.83-1.216-2.139-1.786-3.482-2.236c-0.944-0.316-1.832-0.485-2.742-0.933c-1.892-0.931-1.783-3.253-0.301-4.156
				c1.288-0.785,3.377-0.693,4.718-0.118c0.859,0.367,0.389,1.049-0.374,0.877c-0.805-0.18-1.57-0.759-2.187-1.276
				c-2.105-1.762-0.721-2.779,1.685-2.22c4.312,1.003-3.984-3.006,0.485-4.623c0.334-0.122,3.295,0.712,2.967,0.991
				C437.485,255.653,439.279,257.429,440.514,256.384L440.514,256.384z"/>
		</g>
		<g>
			<path d="M340.581,187.016c-5.611,9.911-5.769,25.351-4.992,36.378c0.885,12.57,9.67,23.386,21.212,27.828
				c10.882,4.189,25.106,1.443,35.472-2.876c10.299-4.293,18.534-12.208,22.123-22.849c0.523-1.547-1.917-2.205-2.433-0.67
				c-6.815,20.207-31.467,28.275-50.993,24.927c-13.547-2.323-22.094-15.54-23.001-28.424c-0.703-9.965-0.209-24.208,4.792-33.04
				C343.563,186.872,341.382,185.601,340.581,187.016L340.581,187.016z"/>
		</g>
		<g>
			<path d="M422.54,212.953c-3.203,11.713-7.928,22.942-10.578,34.812c-0.354,1.585,2.08,2.259,2.433,0.67
				c2.651-11.869,7.377-23.098,10.578-34.812C425.402,212.051,422.967,211.385,422.54,212.953L422.54,212.953z"/>
		</g>
		<g>
			<path d="M418.106,261.463c-0.221,0.023-0.44,0.048-0.661,0.071c0.297,0.719,0.595,1.437,0.892,2.156
				c-0.717,0.785-2.316-0.562-0.371,0.981c0.862,0.684,1.803,1.263,2.728,1.854c2.744,1.754,5.599,3.337,8.415,4.971
				c8.89,5.152,16.376,12.392,25.273,17.577c1.41,0.822,2.68-1.36,1.274-2.179c-8.635-5.032-15.91-12.012-24.474-17.109
				c-2.722-1.62-5.483-3.168-8.194-4.807c-1.643-0.993-3.33-2.923-5.077-3.541c-0.402-0.142-0.944,0.014-1.228,0.324
				c-0.044,0.048-0.087,0.096-0.132,0.144c-0.667,0.731-0.284,2.283,0.893,2.155c0.22-0.023,0.44-0.048,0.661-0.072
				C419.706,263.812,419.723,261.287,418.106,261.463L418.106,261.463z"/>
		</g>
		<g>
			<path d="M453.758,288.306c-2.446,18.714-6.162,36.752-14.917,53.637c-8.089,15.599-20.184,28.602-33.931,39.376
				c-1.281,1.004,0.519,2.777,1.785,1.785c14.039-11.003,25.839-24.15,34.325-39.889c9.19-17.038,12.779-35.914,15.263-54.91
				C456.493,286.695,453.967,286.716,453.758,288.306L453.758,288.306z"/>
		</g>
		<g>
			<path d="M292.873,344.462c13.2,14.835,33.12,24.041,51.327,30.979c18.922,7.213,41.771,13.307,61.938,7.988
				c1.573-0.414,0.905-2.85-0.67-2.434c-19.845,5.232-41.946-1.07-60.597-7.987c-17.753-6.586-37.405-15.936-50.213-30.33
				C293.572,341.459,291.794,343.251,292.873,344.462L292.873,344.462z"/>
		</g>
		<g>
			<path d="M317.823,328.596c26.731,7.376,53.463,14.751,80.195,22.127c1.571,0.434,2.238-2.002,0.67-2.434
				c-26.731-7.375-53.463-14.751-80.195-22.126C316.922,325.729,316.256,328.165,317.823,328.596L317.823,328.596z"/>
		</g>
		<g>
			<path d="M294.854,344.207c4.05-9.421,14.071-13.904,23.64-15.611c1.601-0.284,0.92-2.717-0.671-2.433
				c-10.141,1.809-20.868,6.81-25.148,16.77C292.039,344.412,294.213,345.698,294.854,344.207L294.854,344.207z"/>
		</g>
		<g>
			<path d="M319.14,326.365c-4.857-7.825-9.714-15.651-14.573-23.477c-0.856-1.38-3.041-0.114-2.179,1.274
				c4.857,7.825,9.715,15.651,14.574,23.477C317.817,329.019,320.001,327.753,319.14,326.365L319.14,326.365z"/>
		</g>
		<g>
			<path d="M303.327,302.309c-7.592-1.172-15.065-2.95-22.739-3.545c-2.994-0.232-8.755-0.94-10.695,2.162
				c-1.586,2.538,3.37,5.292,4.945,6.019c4.625,2.132,10.404,1.796,15.364,2.055c1.627,0.085,1.619-2.439,0-2.524
				c-2.396-0.126-4.792-0.203-7.186-0.372c-2.009-0.142-3.882-0.497-5.817-0.99c-2.067-0.526-4.733-3.649-1.244-3.886
				c8.927-0.604,17.944,2.167,26.702,3.517C304.247,304.988,304.931,302.556,303.327,302.309L303.327,302.309z"/>
		</g>
		<g>
			<path d="M297.282,301.594c-0.535-0.952-0.63-2.119-0.318-3.157c0.354-1.178,1.597-0.184,2.062,0.266
				c1.475,1.426,2.296,3.417,3.361,5.137c0.854,1.38,3.039,0.114,2.179-1.274c-1.558-2.517-2.979-6.23-6.116-7.114
				c-4.289-1.207-4.778,4.873-3.348,7.417C295.9,304.287,298.081,303.016,297.282,301.594L297.282,301.594z"/>
		</g>
		<g>
			<path d="M335.708,333.541c10.74-3.015,21.48-6.03,32.22-9.047c1.565-0.438,0.9-2.874-0.67-2.433
				c-10.74,3.015-21.48,6.03-32.22,9.047C333.472,331.547,334.137,333.982,335.708,333.541L335.708,333.541z"/>
		</g>
		<g>
			<path d="M279.739,341.981c5.722-0.791,11.445-1.584,17.167-2.376c1.607-0.223,0.92-2.654-0.67-2.434
				c-5.723,0.791-11.445,1.584-17.167,2.376C277.461,339.771,278.147,342.202,279.739,341.981L279.739,341.981z"/>
		</g>
		<g>
			<path d="M367.023,323.613c2.116,5.375,2.423,11.343,0.485,16.816c-0.545,1.538,1.895,2.193,2.433,0.67
				c2.069-5.846,1.777-12.412-0.486-18.157C368.867,321.446,366.425,322.097,367.023,323.613L367.023,323.613z"/>
		</g>
		<g>
			<path d="M264.879,327.451c-3.661,10.294-6.779,20.525-7.295,31.498c-0.231,4.928-0.035,12.627,4.706,15.7
				c3.218,2.087,6.612,1.895,10.367,1.949c6.337,0.093,12.675-0.411,18.968-1.11c11.935-1.326,23.69-4.013,35.286-7.064
				c1.573-0.413,0.905-2.849-0.67-2.433c-19.107,5.027-38.511,8.618-58.345,7.971c-16.849-0.552-3.136-38.658-0.583-45.84
				C267.859,326.585,265.42,325.929,264.879,327.451L264.879,327.451z"/>
		</g>
		<g>
			<path d="M293.127,277.866c15.948-6.446,32.759-10.312,49.002-15.894c1.53-0.525,0.873-2.964-0.67-2.433
				c-16.243,5.581-33.055,9.446-49.002,15.894C290.968,276.034,291.618,278.477,293.127,277.866L293.127,277.866z"/>
		</g>
		<g>
			<path d="M305.342,303.481c1.224-3.195,2.448-6.391,3.67-9.587c0.583-1.522-1.857-2.175-2.433-0.67
				c-1.224,3.195-2.448,6.39-3.67,9.586C302.326,304.333,304.766,304.986,305.342,303.481L305.342,303.481z"/>
		</g>
		<g>
			<path d="M406.892,315.901c3.672-6.324,7.343-12.649,11.015-18.974c0.819-1.411-1.363-2.681-2.179-1.274
				c-3.672,6.324-7.343,12.649-11.015,18.974C403.893,316.038,406.076,317.308,406.892,315.901L406.892,315.901z"/>
		</g>
		<g>
			<path d="M430.272,355.757c-9.795,41.548-15.821,84.177-21.523,126.457c-0.214,1.591,2.217,2.277,2.433,0.67
				c5.704-42.28,11.73-84.908,21.523-126.456C433.079,354.845,430.646,354.174,430.272,355.757L430.272,355.757z"/>
		</g>
		<g>
			<path d="M350.51,461.303c15.764,16.586,37.055,22.655,59.456,22.509c1.627-0.012,1.628-2.536,0-2.524
				c-21.765,0.143-42.339-5.638-57.671-21.769C351.172,458.336,349.39,460.125,350.51,461.303L350.51,461.303z"/>
		</g>
		<g>
			<path d="M283.793,480.356c14.269-2.021,26.28-8.021,35.684-19.054c1.05-1.231-0.727-3.025-1.785-1.784
				c-9.148,10.732-20.717,16.441-34.57,18.405C281.517,478.15,282.203,480.582,283.793,480.356L283.793,480.356z"/>
		</g>
		<g>
			<path d="M345.868,307.832c-1.511,6.979-3.022,13.959-4.533,20.94c-0.344,1.586,2.089,2.262,2.433,0.671
				c1.511-6.98,3.022-13.96,4.533-20.941C348.645,306.916,346.212,306.24,345.868,307.832L345.868,307.832z"/>
		</g>
		<g>
			<path d="M347.636,310.681c3.296-1.185,6.685-1.819,10.124-0.865c1.571,0.436,2.237-2,0.67-2.434
				c-3.859-1.071-7.749-0.471-11.465,0.865C345.445,308.793,346.1,311.232,347.636,310.681L347.636,310.681z"/>
		</g>
		<g>
			<path d="M356.833,309.03c-0.016,5.307-0.209,10.604-1.034,15.854c-0.25,1.592,2.182,2.275,2.433,0.671
				c0.86-5.477,1.109-10.987,1.125-16.525C359.362,307.401,356.838,307.403,356.833,309.03L356.833,309.03z"/>
		</g>
		<g>
			<path d="M332.916,370.543c-4.05,18.352-5.841,36.511-6.741,55.259c-0.078,1.628,2.447,1.62,2.524,0
				c0.887-18.504,2.652-36.471,6.649-54.589C335.699,369.627,333.266,368.952,332.916,370.543L332.916,370.543z"/>
		</g>
		<g>
			<path d="M348.412,377.462c-0.896,15.829-1.791,31.657-2.687,47.486c-0.092,1.627,2.433,1.618,2.524,0
				c0.896-15.829,1.791-31.657,2.687-47.486C351.029,375.835,348.503,375.844,348.412,377.462L348.412,377.462z"/>
		</g>
		<g>
			<g>
				<path d="M370.707,324.432c8.212-4.17,16.426-8.34,24.638-12.511c1.452-0.736,0.174-2.914-1.274-2.179
					c-8.212,4.17-16.426,8.339-24.638,12.51C367.981,322.989,369.259,325.167,370.707,324.432L370.707,324.432z"/>
			</g>
			<g>
				<path d="M394.787,312.3c7.74,3.225,15.776,5.663,23.076,9.862c1.429,0.822,2.74,1.756,3.963,2.859
					c-0.476,1.289-1.473,1.699-2.99,1.226c-1.356-0.123-2.672-0.414-3.949-0.87c-3.663-1.117-7.025-3.344-10.376-5.146
					c-1.433-0.772-2.708,1.407-1.274,2.179c4.389,2.36,9.122,5.625,14.203,6.202c2.243,0.255,7.388,0.341,7.388-3.07
					c0-3.412-6.717-6.176-8.911-7.34c-6.5-3.447-13.684-5.515-20.458-8.335C393.955,309.24,393.307,311.684,394.787,312.3
					L394.787,312.3z"/>
			</g>
			<g>
				<path d="M403.236,322.41c4.772,2.837,9.882,5.146,14.201,8.688c1.117,0.916,2.094,1.979,2.935,3.152
					c1.583,2.205-0.602,1.483-2.022,1.061c-3.81-1.131-7.287-3.299-10.724-5.236c-1.42-0.8-2.692,1.38-1.274,2.179
					c4.273,2.408,8.581,4.971,13.419,6.049c1.772,0.395,4.747-0.321,3.982-2.805c-2.408-7.828-12.889-11.489-19.242-15.266
					C403.108,319.396,401.838,321.579,403.236,322.41L403.236,322.41z"/>
			</g>
			<g>
				<path d="M406.095,332.056c2.99,2.38,6.125,4.487,9.252,6.671c1.002,0.698,7.782,6.674,3.355,5.274
					c-4.935-1.559-9.921-5.438-13.846-8.743c-1.236-1.041-3.032,0.734-1.785,1.785c2.628,2.213,5.506,4.169,8.401,6.01
					c2.426,1.541,6.18,4.24,9.268,3.753c3.203-0.504,2.046-4.268,0.721-6.005c-3.363-4.41-9.297-7.119-13.581-10.529
					C406.621,329.268,404.822,331.043,406.095,332.056L406.095,332.056z"/>
			</g>
			<g>
				<path d="M403.327,337.24c2.597,1.487,4.851,3.619,6.903,5.773c0.724,0.761,5.618,7.187,1.955,6.134
					c-4.7-1.352-8.232-6.076-12.08-8.866c-1.32-0.957-2.579,1.234-1.274,2.18c2.695,1.955,5.072,4.348,7.753,6.335
					c2.043,1.514,5.529,4.134,8.182,2.583c2.916-1.705,0.613-5.869-0.719-7.719c-2.408-3.347-5.854-6.542-9.446-8.6
					C403.187,334.25,401.916,336.432,403.327,337.24L403.327,337.24z"/>
			</g>
			<g>
				<path d="M398.492,340.619c-4.278,3.52-12.133,4.551-17.287,2.923c-1.557-0.492-2.217,1.944-0.67,2.433
					c6.087,1.924,14.756,0.531,19.742-3.57C401.535,341.369,399.738,339.594,398.492,340.619L398.492,340.619z"/>
			</g>
			<g>
				<path d="M402.245,314.596c2.509-1.477,5.135-6.528,1.13-7.982c-3.111-1.131-6.52,1.515-9.138,2.853
					c-1.45,0.741-0.173,2.919,1.274,2.18c1.575-0.805,3.058-1.771,4.726-2.389c0.621-0.229,1.813-0.672,2.424-0.198
					c1.148,0.891-0.971,2.935-1.691,3.358C399.569,313.241,400.839,315.423,402.245,314.596L402.245,314.596z"/>
			</g>
		</g>
		<g>
			<path d="M319.507,448.073c10.577,0,21.155,0,31.732,0c1.628,0,1.628-2.524,0-2.524c-10.578,0-21.155,0-31.732,0
				C317.879,445.549,317.879,448.073,319.507,448.073L319.507,448.073z"/>
		</g>
		<g>
			<path d="M319.021,458.273c10.47,0,20.939,0,31.41,0c1.628,0,1.628-2.524,0-2.524c-10.47,0-20.939,0-31.41,0
				C317.394,455.749,317.394,458.273,319.021,458.273L319.021,458.273z"/>
		</g>
		<g>
			<path d="M326.348,426.673c3.499,5.075,6.346,10.67,9.286,16.082c0.472,0.868,1.683,0.764,2.179,0
				c3.565-5.487,7.192-11.003,10.265-16.785c0.764-1.437-1.415-2.711-2.179-1.274c-3.074,5.782-6.699,11.298-10.265,16.785
				c0.726,0,1.453,0,2.179,0c-2.939-5.412-5.787-11.007-9.286-16.082C327.61,424.068,325.421,425.328,326.348,426.673
				L326.348,426.673z"/>
		</g>
		<g>
			<path d="M325.423,447.944c0.099,2.807,0.106,5.613,0.106,8.421c0,1.628,2.524,1.628,2.524,0c0-2.808-0.007-5.614-0.106-8.421
				C327.891,446.321,325.367,446.316,325.423,447.944L325.423,447.944z"/>
		</g>
		<g>
			<path d="M344.092,457.238c0.254-1.667,0.367-3.327,0.367-5.013c0-1.56-0.353-3.071-0.43-4.604c-0.082-1.62-2.607-1.628-2.524,0
				c0.153,3.034,0.62,5.871,0.154,8.945C341.417,458.158,343.85,458.843,344.092,457.238L344.092,457.238z"/>
		</g>
		<g>
			<path d="M331.255,453.209c1.876-0.516,3.571-0.385,5.401,0.241c1.544,0.529,2.201-1.909,0.67-2.433
				c-2.238-0.767-4.456-0.87-6.742-0.242C329.017,451.206,329.683,453.642,331.255,453.209L331.255,453.209z"/>
		</g>
		<g>
			<path d="M369.244,274.059c-0.061,6.45,1.563,12.759,1.403,19.212c-0.041,1.628,2.483,1.625,2.524,0
				c0.16-6.454-1.463-12.763-1.402-19.212C371.783,272.43,369.259,272.432,369.244,274.059L369.244,274.059z"/>
		</g>
		<g>
			<path d="M371.468,274.501c14.116-8.437,28.232-16.874,42.348-25.311c1.395-0.834,0.127-3.017-1.274-2.179
				c-14.116,8.437-28.232,16.873-42.348,25.311C368.798,273.155,370.066,275.338,371.468,274.501L371.468,274.501z"/>
		</g>
		<g>
			<path d="M362.089,284.91c3.139-3.428,6.278-6.854,9.418-10.282c1.097-1.198-0.683-2.988-1.785-1.785
				c-3.14,3.427-6.279,6.854-9.418,10.282C359.208,284.323,360.988,286.112,362.089,284.91L362.089,284.91z"/>
		</g>
		<g>
			<path d="M352.882,273.314c0.64,3.038,1.236,6.086,1.988,9.098c0.708,2.836-0.807,6.185-1.168,9.052
				c-0.203,1.612,2.323,1.593,2.524,0c0.344-2.73,1.773-5.858,1.271-8.647c-0.612-3.404-1.468-6.786-2.183-10.173
				C354.98,271.051,352.547,271.727,352.882,273.314L352.882,273.314z"/>
		</g>
		<g>
			<path d="M352.667,272.087c-3.238,3.274-6.475,6.548-9.712,9.822c-1.145,1.158,0.638,2.943,1.785,1.785
				c3.238-3.274,6.475-6.548,9.712-9.822C355.597,272.714,353.813,270.929,352.667,272.087L352.667,272.087z"/>
		</g>
		<g>
			<path d="M355.255,272.439c-0.007-1.295-0.101-2.59-0.109-3.885c-0.01-1.627-2.534-1.628-2.524,0
				c0.009,1.295,0.103,2.59,0.11,3.885C352.741,274.066,355.265,274.067,355.255,272.439L355.255,272.439z"/>
		</g>
		<g>
			<path d="M360.107,283.38c-2.078,3.014-4.155,6.026-6.233,9.039c-0.927,1.345,1.262,2.604,2.179,1.275
				c2.078-3.014,4.156-6.026,6.233-9.04C363.213,283.31,361.024,282.05,360.107,283.38L360.107,283.38z"/>
		</g>
		<g>
			<path d="M369.723,279.536c-4.173,4.569-8.347,9.139-12.52,13.708c-1.096,1.199,0.685,2.989,1.785,1.785
				c4.173-4.569,8.347-9.139,12.52-13.708C372.603,280.121,370.822,278.332,369.723,279.536L369.723,279.536z"/>
		</g>
		<g>
			<path d="M370.585,284.5c-3.166,3.632-6.331,7.266-9.498,10.898c-1.065,1.221,0.713,3.015,1.785,1.785
				c3.167-3.632,6.332-7.266,9.498-10.898C373.435,285.063,371.656,283.27,370.585,284.5L370.585,284.5z"/>
		</g>
		<g>
			<path d="M347.224,278.269c0.27,4.776,0.541,9.553,0.811,14.329c0.091,1.619,2.617,1.627,2.524,0
				c-0.27-4.776-0.541-9.553-0.811-14.329C349.657,276.65,347.131,276.642,347.224,278.269L347.224,278.269z"/>
		</g>
		<g>
			<path d="M350.628,275.437c0.27,5.72,0.539,11.441,0.808,17.161c0.077,1.621,2.601,1.628,2.524,0
				c-0.27-5.72-0.539-11.441-0.809-17.161C353.076,273.815,350.552,273.808,350.628,275.437L350.628,275.437z"/>
		</g>
		<g>
			<path d="M352.299,250.312c0.107,6.08,0.215,12.161,0.322,18.241c0.028,1.626,2.553,1.628,2.524,0
				c-0.107-6.08-0.214-12.161-0.322-18.241C354.795,248.687,352.271,248.684,352.299,250.312L352.299,250.312z"/>
		</g>
	</g>
	<g opacity="0.69">
		<g>
			<path d="M445.757,151.147v-53.19L573.859,87.66v60.769l-0.617,0.014L445.757,151.147z M447.019,99.122v50.736l125.579-2.665
				V89.028L447.019,99.122z"/>
		</g>
		<g>
			<rect x="509.177" y="38.7" transform="matrix(0.041 0.9992 -0.9992 0.041 590.9839 -411.3965)" width="1.262" height="126.947"/>
		</g>
		<g>
			<path d="M573.859,221.721l-0.647-0.017l-127.455-3.38V160.62l128.103-4.143V221.721z M447.019,217.095l125.579,3.33v-62.644
				l-125.579,4.061V217.095z"/>
		</g>
		<g>
			
				<rect x="509.177" y="102.692" transform="matrix(0.0325 0.9995 -0.9995 0.0325 659.2961 -348.7928)" width="1.262" height="126.909"/>
		</g>
		<g>
			<path d="M573.859,297.952L445.757,279.31v-51.835l128.103,3.187V297.952z M447.019,278.218l125.579,18.274v-64.6l-125.579-3.124
				V278.218z"/>
		</g>
		<g>
			
				<rect x="446.333" y="237.684" transform="matrix(0.9991 0.0413 -0.0413 0.9991 10.2726 -20.8426)" width="126.95" height="1.262"/>
		</g>
		<g>
			<path d="M573.859,373.405l-128.103-26.13l0.017-21.475l8.396-35.412l119.69,17.964V373.405z M447.019,346.244l125.579,25.616
				v-62.42L455.13,291.809l-8.111,34.211V346.244z"/>
		</g>
		<g>
			<rect x="451.837" y="308.574" transform="matrix(0.9887 0.15 -0.15 0.9887 52.1935 -73.4454)" width="122.082" height="1.261"/>
		</g>
		<g>
			<path d="M573.859,438.76l-128.103-32.823V356.4l0.755,0.153l127.348,25.687V438.76z M447.019,404.958l125.579,32.175v-53.859
				l-125.579-25.33V404.958z"/>
		</g>
		<g>
			
				<rect x="445.078" y="376.085" transform="matrix(0.9798 0.2001 -0.2001 0.9798 85.7101 -94.4105)" width="129.461" height="1.263"/>
		</g>
		<g>
			<polygon points="573.859,485.275 572.598,485.275 572.598,449.791 447.019,416.365 447.019,448.043 445.757,448.043 
				445.757,414.724 446.551,414.935 573.859,448.82 			"/>
		</g>
		<g>
			<path d="M589.005,485.279l-1.262-0.008c0.052-10.549,0.099-21.1,0.138-31.649l1.262,0.005
				C589.104,464.177,589.057,474.728,589.005,485.279z"/>
		</g>
		<g>
			<path d="M589.192,440.438l-1.262-0.005c0.057-17.584,0.099-35.167,0.13-52.75l1.263,0.002
				C589.291,405.269,589.249,422.852,589.192,440.438z"/>
		</g>
		<g>
			<path d="M589.34,375.375l-1.262-0.002c0.027-21.1,0.039-42.2,0.034-63.302h1.263C589.38,333.173,589.367,354.273,589.34,375.375z
				"/>
		</g>
		<g>
			<path d="M588.11,299.825c-0.008-22.222-0.029-44.442-0.06-66.664l1.263-0.001c0.029,22.221,0.052,44.443,0.059,66.665H588.11z"/>
		</g>
		<g>
			<path d="M588.036,220.882c-0.024-20.77-0.062-41.54-0.105-62.311l1.262-0.002c0.044,20.771,0.081,41.541,0.106,62.312
				L588.036,220.882z"/>
		</g>
		<g>
			<path d="M587.898,144.508c-0.045-19.31-0.097-38.619-0.155-57.929l1.262-0.004c0.06,19.31,0.111,38.62,0.155,57.931
				L587.898,144.508z"/>
		</g>
		<g>
			<path d="M432.505,444.261l-1.263-0.008c0.062-10.595,0.113-21.19,0.158-31.785l1.262,0.005
				C432.618,423.067,432.566,433.666,432.505,444.261z"/>
		</g>
		<g>
			<path d="M432.714,399.229l-1.262-0.005c0.052-14.421,0.091-28.84,0.115-43.263l1.263,0.002
				C432.806,370.386,432.766,384.808,432.714,399.229z"/>
		</g>
		<g>
			<path d="M431.4,149.326c-0.045-16.846-0.097-33.693-0.158-50.539l1.263-0.005c0.062,16.847,0.113,33.693,0.157,50.54
				L431.4,149.326z"/>
		</g>
		<g>
			<path d="M475.52,138.513c-2.44,0-2.44,3.786,0,3.786C477.962,142.299,477.962,138.513,475.52,138.513z"/>
		</g>
		<g>
			<path d="M475.678,126.049c-2.44,0-2.44,3.786,0,3.786C478.12,129.835,478.12,126.049,475.678,126.049z"/>
		</g>
		<g>
			<path d="M475.046,112.955c-2.44,0-2.44,3.786,0,3.786C477.489,116.741,477.489,112.955,475.046,112.955z"/>
		</g>
		<g>
			<path d="M475.52,202.564c-2.44,0-2.44,3.787,0,3.787C477.962,206.351,477.962,202.564,475.52,202.564z"/>
		</g>
		<g>
			<path d="M475.678,190.101c-2.44,0-2.44,3.786,0,3.786C478.12,193.887,478.12,190.101,475.678,190.101z"/>
		</g>
		<g>
			<path d="M475.046,177.007c-2.44,0-2.44,3.786,0,3.786C477.489,180.793,477.489,177.007,475.046,177.007z"/>
		</g>
		<g>
			<path d="M475.52,271.665c-2.44,0-2.44,3.786,0,3.786C477.962,275.451,477.962,271.665,475.52,271.665z"/>
		</g>
		<g>
			<path d="M475.678,259.202c-2.44,0-2.44,3.786,0,3.786C478.12,262.988,478.12,259.202,475.678,259.202z"/>
		</g>
		<g>
			<path d="M475.046,246.106c-2.44,0-2.44,3.787,0,3.787C477.489,249.893,477.489,246.106,475.046,246.106z"/>
		</g>
		<g>
			<path d="M475.52,338.24c-2.44,0-2.44,3.787,0,3.787C477.962,342.027,477.962,338.24,475.52,338.24z"/>
		</g>
		<g>
			<path d="M475.678,325.777c-2.44,0-2.44,3.786,0,3.786C478.12,329.563,478.12,325.777,475.678,325.777z"/>
		</g>
		<g>
			<path d="M475.046,312.683c-2.44,0-2.44,3.787,0,3.787C477.489,316.47,477.489,312.683,475.046,312.683z"/>
		</g>
		<g>
			<path d="M475.52,402.292c-2.44,0-2.44,3.786,0,3.786C477.962,406.078,477.962,402.292,475.52,402.292z"/>
		</g>
		<g>
			<path d="M475.678,389.829c-2.44,0-2.44,3.786,0,3.786C478.12,393.615,478.12,389.829,475.678,389.829z"/>
		</g>
		<g>
			<path d="M475.046,376.734c-2.44,0-2.44,3.786,0,3.786C477.489,380.521,477.489,376.734,475.046,376.734z"/>
		</g>
		<g>
			<path d="M475.52,461.295c-2.44,0-2.44,3.787,0,3.787C477.962,465.082,477.962,461.295,475.52,461.295z"/>
		</g>
		<g>
			<path d="M475.678,448.832c-2.44,0-2.44,3.786,0,3.786C478.12,452.618,478.12,448.832,475.678,448.832z"/>
		</g>
		<g>
			<path d="M475.046,435.738c-2.44,0-2.44,3.786,0,3.786C477.489,439.524,477.489,435.738,475.046,435.738z"/>
		</g>
		<g>
			
				<rect x="444.339" y="438.104" transform="matrix(0.9687 0.2482 -0.2482 0.9687 124.8475 -112.8065)" width="130.938" height="1.263"/>
		</g>
		<g>
			<path d="M494.752,138.192c-0.168,0-0.328-0.066-0.446-0.185c-0.127-0.126-0.193-0.3-0.184-0.479l0.996-18.904
				c0.016-0.318,0.266-0.574,0.584-0.597l56.774-4.119c0.176-0.016,0.357,0.052,0.487,0.179c0.129,0.127,0.198,0.303,0.188,0.484
				l-1.062,20.166c-0.018,0.323-0.274,0.58-0.598,0.597l-56.708,2.858C494.772,138.192,494.763,138.192,494.752,138.192z
				 M496.35,119.245l-0.931,17.65l55.44-2.794l0.995-18.883L496.35,119.245z"/>
		</g>
		<g>
			<polygon points="500.16,118.888 505.006,137.044 510.609,136.762 505.337,117.96 			"/>
		</g>
		<g>
			<polygon points="509.374,117.899 514.221,136.056 519.823,135.773 514.551,116.971 			"/>
		</g>
		<g>
			<polygon points="519.097,117.293 523.913,136.04 529.517,135.738 524.275,116.325 			"/>
		</g>
		<g>
			<polygon points="528.609,116.652 533.421,135.487 539.023,135.183 533.788,115.679 			"/>
		</g>
		<g>
			<polygon points="537.801,116.084 542.618,134.855 548.221,134.553 542.98,115.114 			"/>
		</g>
		<g>
			<polygon points="545.953,115.271 551.586,132.34 552.522,114.538 			"/>
		</g>
		<g>
			<polygon points="495.824,123.242 499.903,137.302 494.752,137.561 			"/>
		</g>
		<g>
			<path d="M494.752,202.244c-0.168,0-0.328-0.066-0.446-0.186c-0.127-0.126-0.193-0.3-0.184-0.479l0.996-18.905
				c0.016-0.318,0.266-0.574,0.584-0.596l56.774-4.119c0.176-0.014,0.357,0.051,0.487,0.179c0.129,0.127,0.198,0.303,0.188,0.484
				l-1.062,20.165c-0.018,0.323-0.274,0.581-0.598,0.597l-56.708,2.858C494.772,202.244,494.763,202.244,494.752,202.244z
				 M496.35,183.297l-0.931,17.65l55.44-2.794l0.995-18.883L496.35,183.297z"/>
		</g>
		<g>
			<polygon points="500.16,182.94 505.006,201.096 510.609,200.814 505.337,182.012 			"/>
		</g>
		<g>
			<polygon points="509.374,181.951 514.221,200.107 519.823,199.825 514.551,181.023 			"/>
		</g>
		<g>
			<polygon points="519.097,181.345 523.913,200.091 529.517,199.79 524.275,180.377 			"/>
		</g>
		<g>
			<polygon points="528.609,180.704 533.421,199.538 539.023,199.234 533.788,179.73 			"/>
		</g>
		<g>
			<polygon points="537.801,180.136 542.618,198.907 548.221,198.604 542.98,179.166 			"/>
		</g>
		<g>
			<polygon points="545.953,179.323 551.586,196.392 552.522,178.589 			"/>
		</g>
		<g>
			<polygon points="495.824,187.293 499.903,201.354 494.752,201.613 			"/>
		</g>
		<g>
			<path d="M548.812,274.012c-0.001,0-0.002,0-0.005,0l-56.777-0.404c-0.179-0.001-0.348-0.078-0.467-0.212
				c-0.118-0.133-0.175-0.311-0.155-0.488l2.08-18.816c0.035-0.316,0.3-0.557,0.617-0.562l56.918-0.85
				c0.206-0.004,0.355,0.072,0.478,0.207c0.122,0.134,0.18,0.314,0.16,0.494l-2.222,20.07
				C549.404,273.77,549.134,274.012,548.812,274.012z M492.739,272.35l55.509,0.396l2.079-18.793l-55.645,0.831L492.739,272.35z"/>
		</g>
		<g>
			<polygon points="498.506,254.646 502.302,273.05 507.91,273.09 503.729,254.018 			"/>
		</g>
		<g>
			<polygon points="507.762,254.188 511.559,272.592 517.169,272.632 512.983,253.559 			"/>
		</g>
		<g>
			<polygon points="517.504,254.141 521.233,273.134 526.844,273.154 522.73,253.472 			"/>
		</g>
		<g>
			<polygon points="527.036,254.047 530.759,273.126 536.371,273.146 532.265,253.374 			"/>
		</g>
		<g>
			<polygon points="536.246,254.009 539.976,273.025 545.588,273.045 541.475,253.338 			"/>
		</g>
		<g>
			<polygon points="544.433,253.665 549.074,271.029 551.033,253.31 			"/>
		</g>
		<g>
			<polygon points="493.926,258.743 497.192,273.015 492.035,272.976 			"/>
		</g>
		<g>
			<path d="M545.056,349.343c-0.035,0-0.071-0.002-0.108-0.01l-55.944-9.712c-0.175-0.029-0.33-0.133-0.425-0.285
				c-0.095-0.151-0.122-0.335-0.074-0.508l5.141-18.221c0.087-0.305,0.396-0.498,0.7-0.45l56.284,8.497
				c0.181,0.027,0.34,0.129,0.437,0.281c0.099,0.152,0.127,0.34,0.078,0.514l-5.48,19.435
				C545.586,349.159,545.334,349.343,545.056,349.343z M489.909,338.498l54.694,9.495l5.131-18.198l-55.028-8.308L489.909,338.498z"
				/>
		</g>
		<g>
			<polygon points="498.501,321.979 499.229,340.758 504.755,341.717 503.757,322.216 			"/>
		</g>
		<g>
			<polygon points="507.708,323.046 508.433,341.822 513.962,342.783 512.961,323.28 			"/>
		</g>
		<g>
			<polygon points="517.324,324.597 517.891,343.944 523.423,344.884 522.59,324.794 			"/>
		</g>
		<g>
			<polygon points="526.745,326.068 527.285,345.5 532.819,346.439 532.011,326.261 			"/>
		</g>
		<g>
			<polygon points="535.837,327.54 536.396,346.913 541.928,347.852 541.102,327.734 			"/>
		</g>
		<g>
			<polygon points="543.969,328.543 545.696,346.435 550.535,329.277 			"/>
		</g>
		<g>
			<polygon points="493.312,325.27 494.192,339.883 489.111,339 			"/>
		</g>
		<g>
			<path d="M544.329,414.758c-0.036,0-0.072-0.002-0.109-0.01l-55.943-9.712c-0.175-0.03-0.331-0.134-0.426-0.285
				s-0.122-0.335-0.073-0.508l5.141-18.222c0.087-0.303,0.393-0.495,0.7-0.449l56.284,8.496c0.18,0.027,0.339,0.13,0.437,0.281
				c0.099,0.153,0.127,0.341,0.077,0.515l-5.479,19.434C544.858,414.574,544.607,414.758,544.329,414.758z M489.182,403.913
				l54.694,9.495l5.131-18.198l-55.028-8.309L489.182,403.913z"/>
		</g>
		<g>
			<polygon points="497.773,387.394 498.501,406.172 504.027,407.131 503.029,387.63 			"/>
		</g>
		<g>
			<polygon points="506.98,388.461 507.705,407.237 513.234,408.198 512.233,388.695 			"/>
		</g>
		<g>
			<polygon points="516.597,390.012 517.164,409.359 522.695,410.299 521.862,390.209 			"/>
		</g>
		<g>
			<polygon points="526.019,391.483 526.559,410.915 532.092,411.854 531.283,391.676 			"/>
		</g>
		<g>
			<polygon points="535.109,392.955 535.669,412.327 541.2,413.267 540.375,393.149 			"/>
		</g>
		<g>
			<polygon points="543.241,393.958 544.97,411.85 549.809,394.692 			"/>
		</g>
		<g>
			<polygon points="492.585,390.685 493.465,405.297 488.385,404.415 			"/>
		</g>
		<g>
			<path d="M547.405,477.784c-0.036,0-0.071-0.003-0.108-0.01l-55.944-9.713c-0.175-0.029-0.33-0.133-0.425-0.284
				c-0.096-0.151-0.122-0.335-0.074-0.508l5.141-18.222c0.086-0.303,0.392-0.498,0.7-0.45l56.284,8.497
				c0.18,0.027,0.339,0.13,0.437,0.281c0.099,0.153,0.127,0.34,0.077,0.514l-5.479,19.435
				C547.935,477.601,547.684,477.784,547.405,477.784z M492.259,466.939l54.694,9.495l5.131-18.198l-55.028-8.309L492.259,466.939z"
				/>
		</g>
		<g>
			<polygon points="500.851,450.422 501.577,469.198 507.104,470.157 506.105,450.659 			"/>
		</g>
		<g>
			<polygon points="510.058,451.487 510.782,470.266 516.311,471.225 515.311,451.724 			"/>
		</g>
		<g>
			<polygon points="519.674,453.04 520.24,472.386 525.771,473.327 524.938,453.237 			"/>
		</g>
		<g>
			<polygon points="529.095,454.509 529.635,473.941 535.169,474.88 534.36,454.704 			"/>
		</g>
		<g>
			<polygon points="538.186,455.983 538.745,475.354 544.277,476.293 543.451,456.178 			"/>
		</g>
		<g>
			<polygon points="546.318,456.986 548.046,474.875 552.885,457.719 			"/>
		</g>
		<g>
			<polygon points="495.661,453.713 496.541,468.326 491.461,467.44 			"/>
		</g>
		<g opacity="0.55">
			<path d="M561.029,116.11v15.776c0,3.255,5.049,3.255,5.049,0V116.11C566.078,112.854,561.029,112.854,561.029,116.11z"/>
		</g>
		<g opacity="0.55">
			<path d="M561.029,182.346v15.776c0,3.256,5.049,3.256,5.049,0v-15.776C566.078,179.09,561.029,179.09,561.029,182.346z"/>
		</g>
		<g opacity="0.55">
			<path d="M558.505,257.271v15.776c0,3.256,5.049,3.256,5.049,0v-15.776C563.554,254.016,558.505,254.016,558.505,257.271z"/>
		</g>
		<g opacity="0.55">
			<path d="M558.505,333.828v15.776c0,3.254,5.049,3.254,5.049,0v-15.776C563.554,330.572,558.505,330.572,558.505,333.828z"/>
		</g>
		<g opacity="0.55">
			<path d="M555.98,401.861v15.775c0,3.257,5.049,3.257,5.049,0v-15.775C561.029,398.604,555.98,398.604,555.98,401.861z"/>
		</g>
		<g opacity="0.55">
			<path d="M555.98,465.439v15.776c0,3.253,5.049,3.253,5.049,0v-15.776C561.029,462.183,555.98,462.183,555.98,465.439z"/>
		</g>
	</g>
	<g>
		<path d="M402.37,490.23c0-2.42,0-4.838,0-7.258c0-1.628-2.524-1.628-2.524,0c0,2.42,0,4.838,0,7.258
			C399.845,491.858,402.37,491.858,402.37,490.23L402.37,490.23z"/>
	</g>
	<g>
		<path d="M293.152,484.847c-0.327-1.818-0.277-3.818,0-5.641c0.243-1.591-2.189-2.274-2.433-0.67c-0.353,2.304-0.416,4.68,0,6.98
			C291.006,487.118,293.439,486.438,293.152,484.847L293.152,484.847z"/>
	</g>
</g>
</svg>
