<?xml version="1.0" encoding="utf-8"?>
<!-- Generator: Adobe Illustrator 15.1.0, SVG Export Plug-In . SVG Version: 6.00 Build 0)  -->
<!DOCTYPE svg PUBLIC "-//W3C//DTD SVG 1.1//EN" "http://www.w3.org/Graphics/SVG/1.1/DTD/svg11.dtd">
<svg version="1.1" id="Layer_1" xmlns="http://www.w3.org/2000/svg" xmlns:xlink="http://www.w3.org/1999/xlink" x="0px" y="0px"
	 width="841.891px" height="595.279px" viewBox="0 0 841.891 595.279" enable-background="new 0 0 841.891 595.279"
	 xml:space="preserve">
<g>
	<g>
		<path fill="#231F20" d="M487.11,239.89c0.624,15.659,8.512,29.343,20.108,39.617c13.615,12.061,33.919,15.991,51.604,14.076
			c17.079-1.848,33.907-11.021,45.465-23.592c10.981-11.94,15.61-27.881,15.654-43.839c0.005-1.512-2.342-1.512-2.346,0
			c-0.042,15.059-4.248,29.276-13.922,40.982c-10.224,12.373-26.035,20.605-41.624,23.613
			c-33.008,6.367-71.165-14.962-72.593-50.857C489.397,238.381,487.05,238.378,487.11,239.89L487.11,239.89z"/>
	</g>
	<g>
		<path fill="#231F20" d="M487.256,229.918c-0.302-3.671-3.738-5.546-7.174-5.372c-3.757,0.194-6.456,3.997-6.736,7.511
			c-0.667,8.383,8.142,14.912,15.713,10.791c1.329-0.724,0.146-2.753-1.184-2.029c-4.947,2.696-10.197-0.345-11.88-5.398
			c-0.849-2.555-0.177-5.201,1.532-7.216c1.902-2.247,7.106-1.636,7.384,1.713C485.035,231.413,487.382,231.427,487.256,229.918
			L487.256,229.918z"/>
	</g>
	<g>
		<path fill="#231F20" d="M481.67,232.49c0.112-0.188,0.044-0.097,0.18-0.231c-0.07,0.071-0.129,0.107-0.236,0.114
			c-0.074,0-0.322-0.127-0.098-0.007c0.114,0.07,0.128,0.081,0.044,0.02c0.062,0.057,0.119,0.118,0.174,0.178
			c0.262,0.278,0.396,0.728,0.391,1.02c-0.03,1.516,2.317,1.512,2.346,0c0.023-1.197-0.625-2.408-1.579-3.115
			c-1.179-0.872-2.545-0.322-3.248,0.838C478.856,232.604,480.886,233.781,481.67,232.49L481.67,232.49z"/>
	</g>
	<g>
		<path fill="#231F20" d="M620.068,219.124c-0.104-3.987,5.214-4.493,7.544-2.341c1.863,1.717,2.418,4.383,2.065,6.804
			c-0.749,5.164-5.616,8.57-10.594,6.824c-1.432-0.5-2.042,1.767-0.624,2.263c7.641,2.679,14.504-4.399,13.565-12.001
			c-0.423-3.417-3.153-7.38-6.877-7.581c-3.632-0.198-7.531,2.042-7.428,6.032C617.76,220.636,620.106,220.64,620.068,219.124
			L620.068,219.124z"/>
	</g>
	<g>
		<path fill="#231F20" d="M625.352,219.597c-0.885-1.124-2.318-1.184-3.338-0.215c-0.886,0.842-1.202,2.187-1.036,3.354
			c0.089,0.634,0.887,0.972,1.443,0.818c0.674-0.184,0.909-0.812,0.818-1.442c0.037,0.251,0.021-0.137,0.023-0.154
			c-0.01,0.205,0.044-0.191,0.044-0.194c0.063-0.262,0.137-0.402,0.314-0.674c-0.097,0.147,0.135-0.124,0.135-0.127
			c-0.156,0.151,0.199-0.047-0.056,0.04c-0.109,0.037-0.196-0.003-0.292-0.047c0.119,0.057,0.171,0.158,0.285,0.298
			c0.396,0.503,1.246,0.413,1.658,0C625.845,220.764,625.75,220.096,625.352,219.597L625.352,219.597z"/>
	</g>
	<g>
		<path fill="#231F20" d="M484.953,230.719c0.679,2.948,2.89,8.252,6.768,5.546c1.471-1.026,1.609-3.256,1.687-4.866
			c0.21-4.305,0.028-8.621-0.186-12.923c-0.075-1.505-2.423-1.512-2.348,0c0.194,3.913,0.351,7.816,0.196,11.732
			c0.004,0.396,0,0.795-0.01,1.19c-0.004,0.393-0.521,5.271-2.643,2.183c-0.684-1-0.936-2.327-1.203-3.487
			C486.876,228.62,484.612,229.244,484.953,230.719L484.953,230.719z"/>
	</g>
	<g>
		<path fill="#231F20" d="M492.946,222.055c8.364-2.465,13.533-10.932,10.988-19.438c-0.433-1.445-2.697-0.828-2.262,0.624
			c2.178,7.286-2.183,14.438-9.35,16.547C490.874,220.217,491.491,222.481,492.946,222.055L492.946,222.055z"/>
	</g>
	<g>
		<path fill="#231F20" d="M503.701,207.287c5.992-1.475,14.405-10.079,8.635-16.235c-1.036-1.106-2.692,0.557-1.66,1.66
			c1.927,2.055,0.865,4.959-0.3,7.122c-1.479,2.746-4.348,4.463-7.298,5.19C501.609,205.386,502.233,207.65,503.701,207.287
			L503.701,207.287z"/>
	</g>
	<g>
		<path fill="#231F20" d="M513.576,196.923c5.843-1.857,8.883-7.31,5.298-12.772c-0.826-1.261-2.858-0.085-2.024,1.184
			c2.728,4.158,0.553,7.91-3.896,9.325C511.515,195.119,512.131,197.383,513.576,196.923L513.576,196.923z"/>
	</g>
	<g>
		<path fill="#231F20" d="M519.542,189.1c5.15-1.04,9.85-5.068,8.544-10.73c-0.339-1.476-2.603-0.85-2.262,0.622
			c1.014,4.399-3.124,7.08-6.904,7.845C517.435,187.139,518.064,189.399,519.542,189.1L519.542,189.1z"/>
	</g>
	<g>
		<path fill="#231F20" d="M526.234,178.981c3.655,7.415,12.234,10.167,20.028,10.136c8.601-0.033,15.692-5.562,19.741-12.777
			c0.741-1.321-1.285-2.505-2.025-1.186c-3.361,5.989-8.201,9.882-14.946,11.329c-7.504,1.611-17.276-1.601-20.771-8.688
			C527.593,176.439,525.569,177.626,526.234,178.981L526.234,178.981z"/>
	</g>
	<g>
		<path fill="#231F20" d="M559.284,183.38c2.517,3.457,7.105,3.276,10.953,2.702c5.08-0.758,9.136-4.124,10.943-8.849
			c0.541-1.417-1.729-2.023-2.262-0.624c-1.318,3.44-3.856,5.502-7.257,6.706c-2.756,0.974-8.312,1.68-10.351-1.12
			C560.429,180.986,558.392,182.153,559.284,183.38L559.284,183.38z"/>
	</g>
	<g>
		<path fill="#231F20" d="M578.369,180.888c3.937,1.502,8.566-0.592,12.245-2.059c3.81-1.518,6.979-3.9,9.025-7.478
			c0.752-1.314-1.276-2.497-2.025-1.184c-1.979,3.457-5.049,5.372-8.661,6.813c-2.904,1.157-6.932,2.8-9.962,1.643
			C577.574,178.084,576.969,180.352,578.369,180.888L578.369,180.888z"/>
	</g>
	<g>
		<path fill="#231F20" d="M591.678,175.909c-3.831,2.042-3.09,7.626,0.123,9.808c3.222,2.189,8.412,1.18,11.829,0.061
			c1.432-0.47,0.818-2.736-0.623-2.264c-2.348,0.771-4.782,1.157-7.253,0.996c-1.354-0.087-2.849-0.557-3.7-1.672
			c-1.08-1.412-0.828-4.032,0.81-4.904C594.2,177.222,593.013,175.197,591.678,175.909L591.678,175.909z"/>
	</g>
	<g>
		<path fill="#231F20" d="M596.625,185.674c-2.949,3.172-2.156,8.557,0.702,11.484c3.454,3.531,9.541,2.75,13.736,1.331
			c1.425-0.483,0.813-2.75-0.624-2.263c-2.976,1.006-6.107,1.492-9.172,0.593c-3.627-1.066-5.741-6.522-2.984-9.486
			C599.312,186.227,597.657,184.564,596.625,185.674L596.625,185.674z"/>
	</g>
	<g>
		<path fill="#231F20" d="M604.753,198.623c-2.297,3.279,0.192,7.658,3.011,9.633c3.476,2.438,8.946,2.622,12.479,0.282
			c1.254-0.832,0.081-2.864-1.186-2.025c-2.415,1.603-5.289,1.536-7.983,0.734c-2.704-0.805-6.411-4.416-4.295-7.44
			C607.648,198.563,605.613,197.393,604.753,198.623L604.753,198.623z"/>
	</g>
	<g>
		<path fill="#231F20" d="M610.989,209.169c-0.515,1.71-0.179,3.43,1.071,4.725c1.237,1.277,3.09,1.559,4.771,1.314
			c0.634-0.094,0.973-0.885,0.818-1.442c-0.185-0.674-0.81-0.912-1.441-0.822c-1.982,0.292-3.551-1.18-2.958-3.152
			C613.688,208.341,611.424,207.723,610.989,209.169L610.989,209.169z"/>
	</g>
	<g>
		<path fill="#231F20" d="M613.629,214.057c-0.359,2.391-0.378,6.15,1.907,7.682c2.832,1.898,4.806-1.727,4.896-4.145
			c0.058-1.512-2.29-1.505-2.347,0c-0.025,0.694-0.229,1.321-0.582,1.918c-0.404,0.684-0.755,0.265-1.074-0.255
			c-0.767-1.247-0.746-3.175-0.538-4.577C616.115,213.202,613.853,212.566,613.629,214.057L613.629,214.057z"/>
	</g>
	<g>
		<path fill="#231F20" d="M476.99,238.864c-8.82-0.433-13.15,10.971-8.347,17.607c0.88,1.21,2.915,0.044,2.026-1.187
			c-3.757-5.184-0.823-14.425,6.32-14.073C478.503,241.285,478.496,238.938,476.99,238.864L476.99,238.864z"/>
	</g>
	<g>
		<path fill="#231F20" d="M469.357,254.865c-2.612,1.375-3.709,5.747-3.146,8.503c0.661,3.232,3.316,4.607,6.378,4.976
			c1.5,0.181,1.483-2.169,0-2.347c-1.843-0.221-3.459-0.919-4.022-2.807c-0.531-1.771,0.285-5.412,1.976-6.3
			C471.882,256.186,470.695,254.161,469.357,254.865L469.357,254.865z"/>
	</g>
	<g>
		<path fill="#231F20" d="M470.519,266.185c-3.447,1.442-4.577,5.808-4.266,9.241c0.381,4.208,3.798,7.015,7.491,8.423
			c1.416,0.54,2.021-1.73,0.623-2.263c-2.449-0.933-4.447-2.445-5.445-4.943c-0.89-2.23-0.407-7.095,2.219-8.195
			C472.515,267.875,471.914,265.602,470.519,266.185L470.519,266.185z"/>
	</g>
	<g>
		<path fill="#231F20" d="M470.677,280.972c-5.885,4.225-1.198,12.675,4.993,13.332c1.505,0.161,1.488-2.19,0-2.347
			c-3.798-0.402-7.69-6.173-3.808-8.96C473.079,282.122,471.909,280.087,470.677,280.972L470.677,280.972z"/>
	</g>
	<g>
		<path fill="#231F20" d="M473.511,292.967c-1.698,4.278,0.105,9.03,4.317,10.884c3.784,1.666,8.526,0.791,12.232-0.641
			c1.396-0.543,0.789-2.81-0.622-2.264c-2.788,1.076-5.788,1.7-8.778,1.284c-4.282-0.597-6.48-4.627-4.888-8.641
			C476.334,292.182,474.063,291.578,473.511,292.967L473.511,292.967z"/>
	</g>
	<g>
		<path fill="#231F20" d="M481.389,303.837c0.681,9.503,10.979,8.647,17.653,5.976c1.386-0.554,0.782-2.823-0.624-2.261
			c-4.914,1.965-14.13,3.994-14.682-3.715C483.63,302.338,481.283,302.328,481.389,303.837L481.389,303.837z"/>
	</g>
	<g>
		<path fill="#231F20" d="M627.032,232.409c5.147,0.483,6.202,8.39,6.014,12.226c-0.218,4.517-2.632,8.685-6.11,11.441
			c-1.186,0.939,0.486,2.585,1.659,1.656c4.844-3.833,6.979-9.64,6.831-15.712c-0.118-4.849-3.03-11.451-8.394-11.958
			C625.525,229.921,625.539,232.268,627.032,232.409L627.032,232.409z"/>
	</g>
	<g>
		<path fill="#231F20" d="M629.359,257.008c2.391,0.848,2.57,5.261,2.568,7.27c-0.005,2.874-1.586,5.234-3.525,7.196
			c-1.064,1.08,0.595,2.739,1.66,1.66c3.02-3.055,4.438-6.492,4.146-10.8c-0.201-2.958-1.195-6.515-4.225-7.588
			C628.552,254.238,627.944,256.508,629.359,257.008L629.359,257.008z"/>
	</g>
	<g>
		<path fill="#231F20" d="M631.447,269.327c1.683,3.719,0.609,9.385-3.394,11.109c-1.387,0.594-0.189,2.615,1.186,2.025
			c5.254-2.257,6.391-9.557,4.234-14.318C632.85,266.768,630.828,267.962,631.447,269.327L631.447,269.327z"/>
	</g>
	<g>
		<path fill="#231F20" d="M629.08,281.174c2.522,6.153-5.555,15.347-11.435,10.005c-1.118-1.016-2.781,0.637-1.66,1.657
			c7.523,6.837,18.845-3.782,15.355-12.286C630.774,279.168,628.505,279.772,629.08,281.174L629.08,281.174z"/>
	</g>
	<g>
		<path fill="#231F20" d="M618.38,294.355c-0.236,3.48-3.892,5.214-6.923,5.258c-3.009,0.043-5.867-1.65-7.794-3.84
			c-1.003-1.14-2.655,0.53-1.66,1.66c4.902,5.569,18.05,6.877,18.724-3.078C620.829,292.842,618.482,292.852,618.38,294.355
			L618.38,294.355z"/>
	</g>
	<g>
		<path fill="#231F20" d="M609.431,166.701c1.272-1.522,3.608-1.72,5.447-1.398c1.923,0.339,2.986,2.237,3.597,3.9
			c1.06,2.887,1.009,6.448,0.092,9.362c-0.456,1.447,1.81,2.062,2.262,0.624c1.361-4.315,1.06-9.924-1.658-13.664
			c-2.466-3.394-8.652-3.766-11.398-0.481C606.809,166.195,608.46,167.865,609.431,166.701L609.431,166.701z"/>
	</g>
	<g>
		<path fill="#231F20" d="M621.624,173.163c6.502-1.817,7.414,8.779,5.324,12.749c-0.704,1.338,1.321,2.525,2.025,1.184
			c3.055-5.799,0.834-18.655-7.974-16.195C619.545,171.307,620.164,173.572,621.624,173.163L621.624,173.163z"/>
	</g>
	<g>
		<path fill="#231F20" d="M628.837,186.049c0.774,0.54,0.646,2.183,0.534,2.978c-0.09,0.634,0.146,1.257,0.82,1.445
			c0.557,0.151,1.353-0.188,1.441-0.822c0.287-2.002,0.208-4.362-1.612-5.626C628.774,183.157,627.602,185.194,628.837,186.049
			L628.837,186.049z"/>
	</g>
	<g>
		<path fill="#231F20" d="M628.564,191.35c3.347-0.862,4.724,2.558,4.705,5.241c-0.016,2.267-1.2,4.631-3.065,5.912
			c-1.238,0.852-0.066,2.887,1.185,2.025c3.007-2.065,4.669-5.881,4.149-9.516c-0.549-3.839-3.529-6.973-7.597-5.925
			C626.477,189.466,627.097,191.729,628.564,191.35L628.564,191.35z"/>
	</g>
	<g>
		<path fill="#231F20" d="M633.04,202.989c1.219,0.677,0.635,3.5,0.372,4.493c-0.475,1.787-1.714,3.135-3.538,3.484
			c-1.487,0.285-0.854,2.545,0.622,2.263c2.882-0.553,4.591-2.907,5.31-5.616c0.55-2.069,0.547-5.466-1.581-6.649
			C632.9,200.226,631.717,202.255,633.04,202.989L633.04,202.989z"/>
	</g>
	<g>
		<path fill="#231F20" d="M631.336,212.854c0.994,1.022,0.039,3.943-1.156,4.463c-1.384,0.604-0.188,2.625,1.186,2.025
			c2.622-1.144,3.616-6.103,1.629-8.148C631.939,210.108,630.281,211.767,631.336,212.854L631.336,212.854z"/>
	</g>
	<g>
		<path fill="#231F20" d="M498.39,171.949c-3.794-2.696-9.727-3.455-12.816,0.734c-2.875,3.896-2.629,9.245-2.131,13.82
			c0.161,1.487,2.51,1.504,2.348,0c-0.364-3.341-0.523-6.734,0.417-9.997c1.511-5.238,7.136-5.274,10.997-2.532
			C498.442,174.855,499.612,172.818,498.39,171.949L498.39,171.949z"/>
	</g>
	<g>
		<path fill="#231F20" d="M484.324,177.555c-3.964-0.426-7.456,1.767-8.851,5.447c-1.42,3.75,0.709,8.183,3.181,10.929
			c1.014,1.127,2.667-0.536,1.659-1.66c-1.755-1.951-2.823-4.285-2.867-6.927c-0.062-3.699,3.541-5.801,6.878-5.442
			C485.826,180.064,485.812,177.717,484.324,177.555L484.324,177.555z"/>
	</g>
	<g>
		<path fill="#231F20" d="M476.256,186.503c-4.283,0.089-8.407,3.442-8.523,7.969c-0.12,4.688,3.043,8.282,7.198,10.056
			c1.376,0.59,2.573-1.432,1.185-2.025c-2.723-1.164-4.903-2.981-5.851-5.868c-1.279-3.89,2.204-7.706,5.991-7.786
			C477.768,188.819,477.77,186.471,476.256,186.503L476.256,186.503z"/>
	</g>
	<g>
		<path fill="#231F20" d="M469.023,199.559c-2.147,1.75-2.382,5.197-1.86,7.719c0.566,2.75,3.058,4.433,5.604,5.097
			c1.465,0.379,2.087-1.884,0.623-2.263c-1.93-0.503-3.371-1.482-3.966-3.457c-0.505-1.677-0.126-4.309,1.257-5.436
			C471.855,200.26,470.185,198.61,469.023,199.559L469.023,199.559z"/>
	</g>
	<g>
		<path fill="#231F20" d="M469.261,209.937c-8.439,6.227-1.487,20.155,8.53,17.788c1.472-0.349,0.849-2.612-0.624-2.263
			c-7.308,1.727-13.066-8.819-6.723-13.5C471.649,211.073,470.48,209.034,469.261,209.937L469.261,209.937z"/>
	</g>
	<g>
		<path fill="#231F20" d="M557.791,241.459c1.799-3.396,9.645-5.69,11.066-0.751c1.015,3.521-4.51,7.487-7.308,8.222
			c-1.462,0.382-0.842,2.646,0.623,2.26c4.775-1.25,10.804-6.958,8.511-12.272c-2.586-5.996-12.506-3.203-14.918,1.358
			C555.057,241.614,557.083,242.797,557.791,241.459L557.791,241.459z"/>
	</g>
	<g>
		<path fill="#231F20" d="M527.633,251.606c-0.768,3.313,4.248,5.768,6.495,7.146c5.272,3.229,11.469,4.466,17.572,4.698
			c14.118,0.537,28.409-6.435,38.32-16.128c1.085-1.06-0.576-2.72-1.659-1.66c-7.91,7.736-17.794,12.782-28.654,14.831
			c-5.796,1.093-11.776,0.721-17.451-0.785c-1.307-0.345-12.995-4.734-12.361-7.478C530.236,250.758,527.974,250.13,527.633,251.606
			L527.633,251.606z"/>
	</g>
	<g>
		<path fill="#231F20" d="M586.919,245.815c1.681,0.526,2.225,2.585,2.376,4.148c0.143,1.492,2.491,1.505,2.348,0
			c-0.257-2.679-1.302-5.536-4.1-6.415C586.094,243.095,585.48,245.362,586.919,245.815L586.919,245.815z"/>
	</g>
	<g>
		<path fill="#231F20" d="M530.11,249.339c-2.608,0.711-3.671,4.077-4.035,6.451c-0.228,1.479,2.032,2.116,2.262,0.624
			c0.218-1.412,0.761-4.366,2.397-4.812C532.193,251.207,531.572,248.94,530.11,249.339L530.11,249.339z"/>
	</g>
	<g>
		<path fill="#231F20" d="M576.397,262.178c-1.16,2.143-4.439,3.424-6.79,2.981c-1.479-0.278-2.109,1.982-0.624,2.263
			c3.365,0.634,7.756-0.945,9.439-4.057C579.143,262.031,577.116,260.847,576.397,262.178L576.397,262.178z"/>
	</g>
	<g>
		<path fill="#231F20" d="M498.699,179.464c20.289,0.469,40.166-0.986,60.313-3.338c17.797-2.077,35.535-4.689,51.941-12.271
			c1.372-0.635,0.178-2.659-1.186-2.027c-17.382,8.036-36.362,10.309-55.191,12.465c-18.665,2.136-37.095,3.259-55.878,2.823
			C497.184,177.081,497.186,179.428,498.699,179.464L498.699,179.464z"/>
	</g>
	<g>
		<path fill="#231F20" d="M602.76,135.829c1.081,9.127,2.833,18.325,6.127,26.932c0.535,1.398,2.806,0.792,2.262-0.624
			c-3.214-8.399-4.987-17.399-6.044-26.309C604.93,134.344,602.582,134.327,602.76,135.829L602.76,135.829z"/>
	</g>
	<g>
		<path fill="#231F20" d="M494.192,159.241c1.187,6.443,2.295,12.899,3.375,19.361c0.248,1.489,2.51,0.855,2.262-0.624
			c-1.078-6.461-2.188-12.919-3.375-19.361C496.182,157.13,493.921,157.762,494.192,159.241L494.192,159.241z"/>
	</g>
	<g>
		<path fill="#231F20" d="M480.313,162.057c8.23-0.94,16.228-3.066,24.365-4.539c10.204-1.846,20.484-3.204,30.778-4.428
			c17.928-2.132,35.9-3.863,53.704-6.914c1.49-0.255,0.856-2.518-0.624-2.263c-18.333,3.144-36.849,4.902-55.308,7.097
			c-8.275,0.984-16.531,2.114-24.753,3.472c-9.419,1.556-18.67,4.143-28.163,5.229C478.83,159.881,478.811,162.23,480.313,162.057
			L480.313,162.057z"/>
	</g>
	<g>
		<path fill="#231F20" d="M589.784,146.058c11.75-7.626,23.499-15.253,35.248-22.88c1.265-0.821,0.089-2.854-1.186-2.025
			c-11.749,7.625-23.498,15.253-35.247,22.878C587.335,144.853,588.51,146.885,589.784,146.058L589.784,146.058z"/>
	</g>
	<g>
		<path fill="#231F20" d="M480.124,161.702c20.049-11.806,40.684-22.591,60.576-34.669c1.291-0.783,0.112-2.815-1.186-2.027
			c-19.893,12.078-40.525,22.863-60.576,34.671C477.635,160.445,478.816,162.473,480.124,161.702L480.124,161.702z"/>
	</g>
	<g>
		<path fill="#231F20" d="M539.643,127.214c28.267-1.292,56.53-2.583,84.797-3.875c1.506-0.07,1.514-2.417,0-2.347
			c-28.267,1.291-56.53,2.583-84.797,3.876C538.136,124.935,538.13,127.282,539.643,127.214L539.643,127.214z"/>
	</g>
	<g>
		<path fill="#231F20" d="M497.719,174.769c28.377-1.415,57.408-3.139,85.38-8.255c1.486-0.272,0.855-2.533-0.623-2.264
			c-27.758,5.079-56.594,6.767-84.757,8.172C496.214,172.499,496.206,174.846,497.719,174.769L497.719,174.769z"/>
	</g>
	<g>
		<path fill="#231F20" d="M615.315,127.534c-1.424,5.898-0.21,12.044,0.521,17.979c0.781,6.341,2.508,12.378,5.186,18.171
			c0.634,1.371,2.655,0.178,2.024-1.186c-2.278-4.933-3.685-9.943-4.61-15.282c-1.034-5.965-2.297-13.102-0.859-19.059
			C617.932,126.687,615.669,126.063,615.315,127.534L615.315,127.534z"/>
	</g>
	<g>
		<path fill="#231F20" d="M619.547,124.756c-0.079,11.61,5.68,21.945,11.801,31.442c0.816,1.266,2.849,0.092,2.027-1.186
			c-5.895-9.147-11.559-19.062-11.482-30.257C621.904,123.242,619.556,123.242,619.547,124.756L619.547,124.756z"/>
	</g>
	<g>
		<path fill="#231F20" d="M623.463,163.036c0.116-3.393,0.498-6.736,1.229-10.053c0.325-1.475-1.937-2.102-2.262-0.624
			c-0.776,3.518-1.192,7.075-1.314,10.676C621.064,164.551,623.411,164.546,623.463,163.036L623.463,163.036z"/>
	</g>
	<g>
		<path fill="#231F20" d="M622.957,153.802c2.997,1.076,5.995,2.153,8.994,3.229c1.427,0.511,2.037-1.757,0.624-2.263
			c-2.998-1.076-5.997-2.153-8.996-3.228C622.152,151.029,621.542,153.296,622.957,153.802L622.957,153.802z"/>
	</g>
	<g>
		<path fill="#231F20" d="M514.42,236.218c10.612-3.118,21.727-2.816,32.678-2.927c1.512-0.017,1.514-2.364,0-2.348
			c-11.162,0.114-22.487-0.167-33.3,3.011C512.349,234.381,512.965,236.644,514.42,236.218L514.42,236.218z"/>
	</g>
	<g>
		<path fill="#231F20" d="M514.495,234.297c-1.899-12.098,2.014-26.919,16.496-28.244c13.256-1.213,15.208,16.833,14.933,26.064
			c-0.043,1.512,2.302,1.509,2.348,0c0.349-11.726-2.575-28.136-17.28-28.411c-6.516-0.121-12.271,4.859-15.855,9.778
			c-4.448,6.106-4.009,14.398-2.902,21.437C512.467,236.413,514.726,235.779,514.495,234.297L514.495,234.297z"/>
	</g>
	<g>
		<path fill="#231F20" d="M524.019,231.581c-1.522-1.871-0.463-5.526,0.367-7.454c1.188-2.753,3.875-4.886,6.851-5.281
			c6.148-0.818,7.947,8.46,6.443,12.665c-0.514,1.428,1.755,2.039,2.262,0.624c2.297-6.415-1.485-16.598-9.513-15.528
			c-6.492,0.865-12.687,10.965-8.068,16.635C523.317,234.414,524.967,232.744,524.019,231.581L524.019,231.581z"/>
	</g>
	<g>
		<path fill="#231F20" d="M570.59,230.609c10.612-3.119,21.725-2.813,32.676-2.927c1.513-0.017,1.514-2.361,0-2.347
			c-11.161,0.117-22.486-0.168-33.3,3.011C568.517,228.771,569.135,231.038,570.59,230.609L570.59,230.609z"/>
	</g>
	<g>
		<path fill="#231F20" d="M570.663,228.691c-1.899-12.102,2.016-26.919,16.496-28.243c13.256-1.214,15.208,16.829,14.933,26.06
			c-0.043,1.516,2.304,1.512,2.348,0c0.349-11.722-2.575-28.132-17.28-28.408c-6.516-0.124-12.271,4.859-15.854,9.774
			c-4.448,6.106-4.011,14.402-2.904,21.44C568.635,230.806,570.896,230.169,570.663,228.691L570.663,228.691z"/>
	</g>
	<g>
		<path fill="#231F20" d="M580.189,225.971c-1.523-1.868-0.465-5.522,0.365-7.454c1.188-2.753,3.875-4.886,6.851-5.281
			c6.148-0.818,7.947,8.463,6.443,12.668c-0.512,1.428,1.757,2.036,2.262,0.624c2.297-6.417-1.485-16.598-9.513-15.528
			c-6.492,0.862-12.687,10.961-8.068,16.632C579.485,228.804,581.135,227.135,580.189,225.971L580.189,225.971z"/>
	</g>
	<g>
		<path fill="#231F20" d="M521.746,201.048c3.94-3.451,9.919-3.004,14.347-0.771c1.347,0.681,2.535-1.344,1.184-2.025
			c-5.436-2.74-12.406-3.052-17.188,1.136C518.946,200.387,520.613,202.04,521.746,201.048L521.746,201.048z"/>
	</g>
	<g>
		<path fill="#231F20" d="M576.802,197.124c4.212-2.686,9.424-3.826,14.069-1.542c1.354,0.667,2.542-1.358,1.186-2.025
			c-5.406-2.655-11.476-1.623-16.438,1.54C574.346,195.907,575.523,197.939,576.802,197.124L576.802,197.124z"/>
	</g>
	<g>
		<path fill="#231F20" d="M537.496,290.777c-16.593,3.474-34.596,8.771-45.175,23.153c-11.624,15.8-12.702,37.377-7.466,55.732
			c0.414,1.452,2.679,0.835,2.262-0.624c-5.167-18.11-4.077-39.728,8.056-54.954c10.429-13.084,27.345-17.778,42.946-21.044
			C539.601,292.732,538.972,290.469,537.496,290.777L537.496,290.777z"/>
	</g>
	<g>
		<path fill="#231F20" d="M545.058,371.155c-4.689,6.283-5.271,14.626-5.303,22.204c-0.04,9.845-0.699,20.595,3.606,29.769
			c1.738,3.702,6.743,12.048,12.226,8.205c6.802-4.771,6.986-15.756,6.91-23.213c-0.017-1.513-2.363-1.513-2.347,0
			c0.049,4.721,0.052,22.656-8.345,21.463c-7.554-1.069-9.146-16.782-9.569-22.386c-0.813-10.699-1.913-25.799,4.847-34.858
			C547.989,371.124,545.951,369.954,545.058,371.155L545.058,371.155z"/>
	</g>
	<g>
		<path fill="#231F20" d="M546.742,372.778c1.373-2.056,2.315,0.302,2.594,1.512c0.288,1.258,0.302,2.579,0.305,3.859
			c0.002,1.516,2.35,1.516,2.346,0c-0.003-2.243-0.104-4.66-1.187-6.679c-1.408-2.623-4.601-2.096-6.083,0.124
			C543.874,372.858,545.907,374.031,546.742,372.778L546.742,372.778z"/>
	</g>
	<g>
		<path fill="#231F20" d="M515.362,336.379c-4.128,19.616,14.427,35.241,32.421,35.61c1.514,0.033,1.511-2.313,0-2.348
			c-16.401-0.335-33.971-14.525-30.159-32.639C517.935,335.528,515.672,334.901,515.362,336.379L515.362,336.379z"/>
	</g>
	<g>
		<path fill="#231F20" d="M484.072,366.437c7.422,31.408,32.925,67.103,68.599,65.62c1.509-0.063,1.514-2.411,0-2.347
			c-34.625,1.441-59.151-33.498-66.337-63.897C485.987,364.341,483.723,364.964,484.072,366.437L484.072,366.437z"/>
	</g>
	<g>
		<path fill="#231F20" d="M541.818,413.544c5.831-0.288,11.812-3.031,17.344-4.791c6.146-1.955,12.125-4.296,17.862-7.25
			c1.345-0.69,0.157-2.713-1.186-2.025c-5.571,2.87-11.357,5.063-17.301,7.012c-5.214,1.71-11.216,4.437-16.72,4.708
			C540.312,411.275,540.304,413.621,541.818,413.544L541.818,413.544z"/>
	</g>
	<g>
		<path fill="#231F20" d="M542.424,382.314c5.628-0.805,11.384-3.316,16.741-5.201c5.515-1.932,10.826-4.346,15.902-7.239
			c1.314-0.748,0.133-2.776-1.185-2.025c-5.543,3.159-11.348,5.604-17.364,7.712c-4.705,1.653-9.776,3.783-14.719,4.49
			C540.305,380.265,540.943,382.525,542.424,382.314L542.424,382.314z"/>
	</g>
	<g>
		<path fill="#231F20" d="M573.248,369.136c-1.753,8.386-3.857,22.959,2.061,30.241c5.311,6.539,7.855-2.454,7.283-7.246
			c-0.178-1.481-2.526-1.502-2.347,0c0.228,1.908,0.073,3.739-0.374,5.61c-1.649,1.78-2.818,1.435-3.508-1.029
			c-1.224-1.938-1.651-4.638-1.946-6.844c-0.838-6.268-0.192-13.956,1.093-20.109C575.82,368.284,573.556,367.654,573.248,369.136
			L573.248,369.136z"/>
	</g>
	<g>
		<path fill="#231F20" d="M557.92,375.614c-1.424,9.959-1.799,22.896,5.216,31.061c0.987,1.149,2.639-0.517,1.658-1.656
			c-6.376-7.424-5.894-19.804-4.612-28.78C560.394,374.759,558.133,374.121,557.92,375.614L557.92,375.614z"/>
	</g>
	<g>
		<path fill="#231F20" d="M569.245,395.066c0.12-1.013-0.652-1.898-1.674-1.922c-0.91-0.023-1.713,0.49-2.071,1.328
			c-0.652,1.525-0.326,3.487,1.128,4.416c1.347,0.858,2.767-0.211,3.075-1.576c0.276-1.217-0.166-2.943-1.613-3.155
			c-0.632-0.094-1.259,0.145-1.443,0.818c-0.154,0.557,0.185,1.348,0.819,1.441c0.093,0.014,0.299,0.111,0.04-0.017
			c-0.125-0.113-0.142-0.124-0.048-0.037c-0.096-0.134-0.109-0.147-0.04-0.036c0.087,0.144-0.042-0.178,0.029,0.134
			c-0.068-0.299-0.003,0.077-0.005,0.157c-0.003,0.319,0.054-0.237-0.003,0.071c-0.012,0.063-0.146,0.436-0.023,0.157
			c-0.126,0.285,0.057-0.01-0.049,0.11c-0.094,0.084-0.075,0.07,0.057-0.043c0.094-0.058,0.198-0.077,0.309-0.071
			c-0.196,0.024,0.104,0.037,0.171,0.067c-0.192-0.08-0.132-0.07-0.249-0.181c0.209,0.197-0.072-0.212-0.018-0.058
			c-0.026-0.073-0.095-0.392-0.092-0.358c-0.033-0.281-0.015-0.667,0.032-0.778c0.071-0.167,0.189-0.144-0.089-0.047
			c-0.343,0.124-0.519-1.025-0.591-0.422c-0.075,0.637,0.592,1.173,1.174,1.173C568.768,396.239,569.17,395.699,569.245,395.066
			L569.245,395.066z"/>
	</g>
	<g>
		<path fill="#231F20" d="M575.167,395.199c5.822-2.807,11.918-5.022,17.503-8.312c1.303-0.768,0.122-2.793-1.186-2.025
			c-5.585,3.29-11.681,5.506-17.503,8.312C572.62,393.831,573.81,395.854,575.167,395.199L575.167,395.199z"/>
	</g>
	<g>
		<path fill="#231F20" d="M575.558,369.387c0.25-0.141,0.163-0.161-0.258-0.063c-0.203-0.03-0.227-0.175-0.077,0.131
			c0.278,0.576,1.086,0.725,1.606,0.419c0.583-0.339,0.699-1.026,0.419-1.603c-0.537-1.106-1.794-1.66-2.876-0.909
			c-0.524,0.362-0.763,1.02-0.42,1.604C574.258,369.485,575.031,369.753,575.558,369.387L575.558,369.387z"/>
	</g>
	<g>
		<path fill="#231F20" d="M575.265,371.929c5.78-2.921,11.655-5.646,17.208-8.996c1.293-0.781,0.114-2.811-1.186-2.025
			c-5.553,3.35-11.426,6.075-17.208,8.996C572.728,370.584,573.918,372.61,575.265,371.929L575.265,371.929z"/>
	</g>
	<g>
		<path fill="#231F20" d="M593.089,362.316c1.031-2.438,2.217-4.806,3.052-7.32c0.478-1.441-1.789-2.055-2.262-0.623
			c-0.771,2.32-1.863,4.506-2.815,6.756C590.48,362.507,592.5,363.703,593.089,362.316L593.089,362.316z"/>
	</g>
	<g>
		<path fill="#231F20" d="M595.961,355.415c1.784-1.429,3.888-2.404,5.715-3.793c1.768-1.338,3.347-2.873,4.771-4.566
			c0.968-1.15-0.684-2.82-1.659-1.66c-1.45,1.724-3.055,3.259-4.853,4.624c-1.805,1.368-3.862,2.32-5.633,3.735
			C593.121,354.7,594.792,356.35,595.961,355.415L595.961,355.415z"/>
	</g>
	<g>
		<path fill="#231F20" d="M591.835,386.314c4.441,4.815,14.892-0.627,19.552-2.475c7.751-3.075,17.532-7.863,17.406-17.423
			c-0.021-1.512-2.367-1.512-2.348,0c0.106,7.96-7.899,11.589-14.119,14.485c-3.204,1.492-15.479,7.391-18.833,3.752
			C592.465,383.537,590.808,385.2,591.835,386.314L591.835,386.314z"/>
	</g>
	<g>
		<path fill="#231F20" d="M603.931,357.591c5.085,0.604,10.349-1.167,15.144-2.723c3.842-1.247,7.246-3.226,9.557-6.582
			c0.86-1.254-1.175-2.425-2.025-1.188c-4.028,5.854-15.956,8.939-22.675,8.145C602.43,355.07,602.447,357.416,603.931,357.591
			L603.931,357.591z"/>
	</g>
	<g>
		<path fill="#231F20" d="M628.077,349.192c0.709,0.707,0.674,1.539-0.103,2.484c-0.44,0.989-1.237,1.808-1.96,2.596
			c-1.022,1.116-2.175,2.126-3.333,3.095c-2.688,2.25-5.962,3.766-9.148,5.153c-1.385,0.601-0.188,2.622,1.185,2.025
			c5.295-2.304,10.868-5.389,14.316-10.2c1.284-1.79,2.166-3.735,1.567-5.945c-0.403-1.505-1.824-2.019-3.148-1.472
			C626.073,347.494,626.677,349.765,628.077,349.192L628.077,349.192z"/>
	</g>
	<g>
		<path fill="#231F20" d="M627.857,356.156c0.943-0.137-0.849,3.585-1.055,3.913c-0.861,1.372-2.127,2.502-3.328,3.564
			c-2.665,2.364-5.928,4.067-8.988,5.852c-1.306,0.765-0.125,2.793,1.185,2.025c4.814-2.807,9.885-5.593,13.157-10.258
			c1.551-2.209,2.909-8.021-1.595-7.356C625.741,354.114,626.379,356.374,627.857,356.156L627.857,356.156z"/>
	</g>
	<g>
		<path fill="#231F20" d="M627.307,363.271c-0.329-0.137-0.785,1.657-0.949,2.002c-0.375,0.781-0.849,1.516-1.345,2.227
			c-1.539,2.2-3.815,3.863-6.054,5.284c-1.272,0.812-0.096,2.844,1.186,2.029c3.058-1.945,5.855-4.266,7.727-7.417
			c1.019-1.714,2.729-5.288,0.06-6.388C626.531,360.431,625.927,362.701,627.307,363.271L627.307,363.271z"/>
	</g>
	<g>
		<path fill="#231F20" d="M605.916,314.543c-0.349,13.949-0.699,27.901-1.049,41.851c-0.039,1.513,2.309,1.509,2.347,0
			c0.349-13.949,0.699-27.901,1.05-41.851C608.301,313.031,605.955,313.034,605.916,314.543L605.916,314.543z"/>
	</g>
	<g>
		<path fill="#231F20" d="M603.808,385.778c-0.604,5.68-0.948,11.4-0.978,17.11c-0.008,1.513,2.339,1.513,2.348,0
			c0.028-5.71,0.374-11.431,0.978-17.11C606.317,384.275,603.967,384.288,603.808,385.778L603.808,385.778z"/>
	</g>
	<g>
		<path fill="#231F20" d="M617.722,313.531c-1.829,1.156-4.439,1.187-6.53,1.24c-0.478,0.01-0.954-0.007-1.429-0.04
			c-1.601-0.084-1.425,0.063-0.342-0.65c1.797-1.184,4.609-1.422,6.68-1.858c2.33-0.485,4.679-0.794,7.055-0.945
			c0.968-0.063,6.668-0.101,3.923,1.64c-2.475,1.569-5.738,2.568-8.619,3.099c-1.487,0.271-0.856,2.531,0.624,2.26
			c2.692-0.489,11.62-2.451,11.62-6.297c0-5.771-13.926-2.287-16.642-1.717c-1.586,0.332-11.618,3.062-6.998,6.199
			c2.666,1.808,9.293,0.708,11.844-0.905C620.181,314.751,619.007,312.72,617.722,313.531L617.722,313.531z"/>
	</g>
	<g>
		<path fill="#231F20" d="M628.547,312.246c-0.825,11.874-2.121,23.704-3.127,35.561c-0.129,1.505,2.218,1.495,2.346,0
			c1.007-11.856,2.303-23.687,3.128-35.561C630.999,310.735,628.652,310.748,628.547,312.246L628.547,312.246z"/>
	</g>
	<g>
		<path fill="#231F20" d="M603.272,404.011c3.417,3.276,7.803,5.493,12.45,6.361c1.479,0.278,2.109-1.981,0.623-2.26
			c-4.265-0.802-8.271-2.75-11.414-5.761C603.841,401.306,602.179,402.962,603.272,404.011L603.272,404.011z"/>
	</g>
	<g>
		<path fill="#231F20" d="M615.346,380.791c-0.073,9.321-0.161,18.646-0.439,27.965c-0.043,1.513,2.303,1.509,2.348,0
			c0.278-9.318,0.365-18.644,0.439-27.965C617.707,379.279,615.36,379.279,615.346,380.791L615.346,380.791z"/>
	</g>
	<g>
		<path fill="#231F20" d="M618.232,317.33c1.514,0,1.514-2.348,0-2.348S616.719,317.33,618.232,317.33L618.232,317.33z"/>
	</g>
	<g>
		<path fill="#231F20" d="M619.488,315.13c0-0.077,0-0.157,0-0.237c0-1.513-2.346-1.513-2.346,0c0,12.55-0.549,25.118-0.823,37.665
			c-0.033,1.513,2.313,1.513,2.347,0c0.275-12.547,0.822-25.115,0.822-37.665c0-1.513-2.346-1.513-2.346,0c0,0.08,0,0.16,0,0.237
			C617.142,316.646,619.488,316.646,619.488,315.13L619.488,315.13z"/>
	</g>
	<g>
		<path fill="#231F20" d="M615.459,403.431c1.771,4.191,9.115,1.999,11.449-0.496c1.033-1.103-0.623-2.766-1.659-1.659
			c-1.354,1.448-6.677,3.551-7.765,0.972C616.897,400.857,614.878,402.053,615.459,403.431L615.459,403.431z"/>
	</g>
	<g>
		<path fill="#231F20" d="M623.731,375.021c0.374,9.029,0.726,18.06,1.174,27.086c0.075,1.506,2.422,1.513,2.347,0
			c-0.447-9.026-0.8-18.057-1.174-27.086C626.016,373.515,623.669,373.508,623.731,375.021L623.731,375.021z"/>
	</g>
	<g>
		<path fill="#231F20" d="M606.089,351.954c6.963,2.481,14.537,1.761,20.706-2.395c1.247-0.838,0.073-2.873-1.186-2.024
			c-5.7,3.839-12.469,4.446-18.896,2.155C605.284,349.181,604.674,351.448,606.089,351.954L606.089,351.954z"/>
	</g>
	<g>
		<path fill="#231F20" d="M605.824,348.115c6.778,3.319,14.38,3.477,21.116-0.027c1.343-0.697,0.155-2.723-1.186-2.025
			c-5.955,3.099-12.755,2.961-18.745,0.027C605.656,345.426,604.466,347.451,605.824,348.115L605.824,348.115z"/>
	</g>
	<g>
		<path fill="#231F20" d="M550.031,293.865c1.466,27.865,2.933,55.732,4.399,83.6c0.079,1.505,2.428,1.512,2.348,0
			c-1.467-27.868-2.935-55.735-4.401-83.6C552.298,292.36,549.951,292.353,550.031,293.865L550.031,293.865z"/>
	</g>
	<g>
		<path fill="#231F20" d="M567.486,292.611c5.695,24.377,11.444,48.748,16.943,73.171c0.332,1.476,2.594,0.849,2.262-0.623
			c-5.498-24.425-11.246-48.795-16.943-73.172C569.404,290.515,567.14,291.139,567.486,292.611L567.486,292.611z"/>
	</g>
	<g>
		<path fill="#231F20" d="M589.283,388.241c2.151,10.69,4.302,21.38,6.453,32.069c0.299,1.482,2.56,0.855,2.262-0.623
			c-2.149-10.69-4.301-21.383-6.453-32.069C591.248,386.136,588.984,386.763,589.283,388.241L589.283,388.241z"/>
	</g>
	<g>
		<path fill="#231F20" d="M572.096,291.028c15.51-3.893,35.461,5.352,41.269,20.642c0.531,1.401,2.8,0.795,2.262-0.624
			c-6.272-16.517-27.293-26.513-44.154-22.281C570.006,289.134,570.63,291.397,572.096,291.028L572.096,291.028z"/>
	</g>
	<g>
		<path fill="#231F20" d="M627.181,333.472c11.377,24.998,19.42,51.803,27.419,78.037c0.438,1.445,2.704,0.828,2.261-0.62
			c-8.059-26.439-16.188-53.412-27.654-78.604C628.582,330.91,626.559,332.104,627.181,333.472L627.181,333.472z"/>
	</g>
	<g>
		<path fill="#231F20" d="M598.279,313.146c2.131,7.128,4.477,14.19,6.904,21.225c0.489,1.422,2.756,0.812,2.262-0.623
			c-2.426-7.035-4.771-14.094-6.904-21.226C600.108,311.076,597.844,311.694,598.279,313.146L598.279,313.146z"/>
	</g>
	<g>
		<path fill="#231F20" d="M577.661,324.586c2.411-6.639,7.947-10.935,14.824-12.186c1.489-0.271,0.856-2.531-0.624-2.26
			c-7.715,1.398-13.786,6.445-16.462,13.821C574.882,325.388,577.148,325.994,577.661,324.586L577.661,324.586z"/>
	</g>
	<g>
		<path fill="#231F20" d="M577.473,290.448c4.748,7.015,9.225,14.217,13.688,21.417c0.794,1.281,2.826,0.104,2.025-1.187
			c-4.463-7.196-8.939-14.402-13.688-21.414C578.655,288.017,576.622,289.191,577.473,290.448L577.473,290.448z"/>
	</g>
	<g>
		<path fill="#231F20" d="M532.119,312.11c3.751,0.506,7.41,3.635,10.455,5.784c3.555,2.511,6.812,5.485,9.084,9.224
			c0.784,1.288,2.814,0.111,2.025-1.187c-2.285-3.759-5.438-6.646-8.901-9.312c-3.38-2.599-7.714-6.19-12.039-6.773
			C531.262,309.645,530.625,311.905,532.119,312.11L532.119,312.11z"/>
	</g>
	<g>
		<path fill="#231F20" d="M540.01,292.252c-2.149,2.535-3.321,6.308-4.678,9.291c-1.333,2.935-2.634,5.882-3.915,8.843
			c-0.595,1.371,1.428,2.568,2.025,1.184c1.186-2.732,2.392-5.459,3.615-8.175c1.326-2.947,2.496-6.985,4.61-9.483
			C542.641,292.765,540.99,291.095,540.01,292.252L540.01,292.252z"/>
	</g>
	<g>
		<path fill="#231F20" d="M552.526,320.801c3.182,3.074,6.921,3.172,11.126,2.464c3.301-0.553,8.945-2.431,10.468-5.733
			c0.629-1.361-1.393-2.556-2.025-1.184c-0.999,2.166-4.428,3.192-6.491,3.96c-3.763,1.401-8.362,1.783-11.419-1.167
			C553.096,318.091,551.436,319.747,552.526,320.801L552.526,320.801z"/>
	</g>
	<g>
		<path fill="#231F20" d="M578.332,320.774c3.135,12.977,6.126,25.986,10.17,38.719c0.456,1.438,2.721,0.824,2.262-0.624
			c-4.042-12.731-7.035-25.742-10.168-38.719C580.24,318.678,577.976,319.302,578.332,320.774L578.332,320.774z"/>
	</g>
	<g>
		<path fill="#231F20" d="M546.023,320.851c0.913,13.949,1.825,27.898,2.737,41.844c0.099,1.506,2.446,1.512,2.348,0
			c-0.912-13.945-1.826-27.895-2.738-41.844C548.271,319.349,545.924,319.342,546.023,320.851L546.023,320.851z"/>
	</g>
	<g>
		<path fill="#231F20" d="M446.873,232.261c0,51.5,0,102.998,0,154.495c0,0.755,1.174,0.755,1.174,0c0-51.497,0-102.994,0-154.495
			C448.047,231.507,446.873,231.507,446.873,232.261L446.873,232.261z"/>
	</g>
	<g>
		<path fill="#231F20" d="M453.132,242.628c0,47.725,0,95.45,0,143.174c0,0.959,1.173,0.959,1.173,0c0-47.725,0-95.449,0-143.174
			C454.304,241.67,453.132,241.67,453.132,242.628L453.132,242.628z"/>
	</g>
	<g>
		<path fill="#231F20" d="M458.666,254.865c-0.114,0-0.199-0.043-0.3-0.064v131.831c0,0.942,1.462,0.942,1.462,0V255.014
			c0-0.105-0.025-0.354-0.059-0.652C459.524,254.664,459.155,254.865,458.666,254.865z"/>
	</g>
	<g>
		<path fill="#231F20" d="M319.175,231.581c0,51.266,0,102.539,0,153.804c0,0.758,1.173,0.758,1.173,0c0-51.266,0-102.538,0-153.804
			C320.348,230.823,319.175,230.823,319.175,231.581L319.175,231.581z"/>
	</g>
	<g>
		<path fill="#231F20" d="M313.015,240.182c0,34.128,0,110.385,0,144.509c0,0.755,1.173-41.377,1.173-42.132
			c0-34.124,0-68.249,0-102.377C314.188,239.427,313.015,239.427,313.015,240.182L313.015,240.182z"/>
	</g>
	<g>
		<path fill="#231F20" d="M309.135,386.002c0-43.339,0-86.68,0-130.021c0-0.981-1.628-0.981-1.628,0c0,43.341,0,86.682,0,130.021
			C307.507,386.981,309.135,386.981,309.135,386.002L309.135,386.002z"/>
	</g>
	<g>
		<path fill="#231F20" d="M197.929,387.343c77.997,0,155.994,0,233.993,0c19.781,0,39.562,0,59.345,0c0.756,0,0.756-1.174,0-1.174
			c-77.516,0-155.03,0-232.545,0c-20.263,0-40.527,0-60.792,0C197.172,386.169,197.172,387.343,197.929,387.343L197.929,387.343z"/>
	</g>
	<g>
		<path fill="#231F20" d="M217.092,392.426c76.721,0,153.442,0,230.162,0c15.192,0,30.384,0,45.577,0c0.756,0,0.756-1.173,0-1.173
			c-76.612,0-153.224,0-229.834,0c-15.302,0-30.602,0-45.904,0C216.336,391.253,216.336,392.426,217.092,392.426L217.092,392.426z"
			/>
	</g>
	<g>
		<path fill="#231F20" d="M414.607,231.675c13.428,0,26.857,0,40.284,0c0.757,0,0.757-1.17,0-1.17c-13.427,0-26.856,0-40.284,0
			C413.851,230.505,413.851,231.675,414.607,231.675L414.607,231.675z"/>
	</g>
	<g>
		<path fill="#231F20" d="M315.263,231.675c12.598,0,25.194,0,37.792,0c0.756,0,0.756-1.17,0-1.17c-12.598,0-25.194,0-37.792,0
			C314.507,230.505,314.507,231.675,315.263,231.675L315.263,231.675z"/>
	</g>
	<g>
		<path fill="#231F20" d="M455.869,230.505c-0.012-3.715-0.176-7.434,0-11.149c0.035-0.755-1.137-0.751-1.173,0
			c-0.177,3.715-0.013,7.434,0,11.149C454.699,231.259,455.873,231.259,455.869,230.505L455.869,230.505z"/>
	</g>
	<g>
		<path fill="#231F20" d="M353.054,218.769c-12.532,0-25.064,0-37.595,0c-0.758,0-0.758,1.173,0,1.173c12.531,0,25.063,0,37.595,0
			C353.81,219.942,353.81,218.769,353.054,218.769L353.054,218.769z"/>
	</g>
	<g>
		<path fill="#231F20" d="M454.891,218.769c-13.427,0-26.856,0-40.284,0c-0.756,0-0.756,1.173,0,1.173c13.428,0,26.857,0,40.284,0
			C455.648,219.942,455.648,218.769,454.891,218.769L454.891,218.769z"/>
	</g>
	<g>
		<path fill="#231F20" d="M314.677,219.553c0,3.745,0,7.498,0,11.243c0,0.758,1.173,0.758,1.173,0c0-3.745,0-7.498,0-11.243
			C315.85,218.796,314.677,218.796,314.677,219.553L314.677,219.553z"/>
	</g>
	<g>
		<path fill="#231F20" d="M447.528,240.001c2.047,0,4.095,0,6.142,0c0.756,0,0.756-1.174,0-1.174c-2.047,0-4.095,0-6.142,0
			C446.772,238.827,446.772,240.001,447.528,240.001L447.528,240.001z"/>
	</g>
	<g>
		<path fill="#231F20" d="M453.085,239.404c-0.112,0.473-0.067,0.946-0.023,1.425c0.052,0.557,0.012,1.117,0.097,1.673
			c0.116,0.748,1.246,0.429,1.132-0.312c-0.061-0.396-0.017-0.808-0.042-1.21c-0.025-0.413-0.129-0.855-0.03-1.264
			C454.394,238.981,453.262,238.669,453.085,239.404L453.085,239.404z"/>
	</g>
	<g>
		<path fill="#231F20" d="M454.089,247.679c2.627-0.028,5.248-0.018,7.873,0.007c1.712,0.015,3.675,0.198,5.354-0.007
			c1.16-0.141,0.667-1.058-0.489-0.918c-1.766,0.214-4.043-0.02-5.845-0.035c-2.297-0.022-4.596-0.025-6.893,0.001
			C452.9,246.744,452.896,247.696,454.089,247.679L454.089,247.679z"/>
	</g>
	<g>
		<path fill="#231F20" d="M205.066,244.876c35.982,0,71.966,0,107.949,0c0.756,0,0.756-1.174,0-1.174c-35.982,0-71.966,0-107.949,0
			C204.31,243.702,204.31,244.876,205.066,244.876L205.066,244.876z"/>
	</g>
	<g>
		<path fill="#231F20" d="M204.969,256.609c38.262,0,76.528,0,114.792,0c0.756,0,0.756-1.17,0-1.17c-38.264,0-76.53,0-114.792,0
			C204.211,255.438,204.211,256.609,204.969,256.609L204.969,256.609z"/>
	</g>
	<g>
		<path fill="#231F20" d="M319.761,248.528c42.589,0,85.177,0,127.767,0c0.757,0,0.757-1.174,0-1.174c-42.589,0-85.177,0-127.767,0
			C319.005,247.354,319.005,248.528,319.761,248.528L319.761,248.528z"/>
	</g>
	<g>
		<path fill="#231F20" d="M313.601,240.842c1.982,0,3.962,0.014,5.94,0.147c0.756,0.054,0.749-1.12,0-1.173
			c-1.979-0.134-3.958-0.147-5.94-0.147C312.845,239.669,312.845,240.842,313.601,240.842L313.601,240.842z"/>
	</g>
	<g>
		<path fill="#231F20" d="M453.911,254.362c5.075,0,10.145,0,15.218,0c1.015,0,1.015-1.174,0-1.174c-5.073,0-10.143,0-15.218,0
			C452.898,253.188,452.898,254.362,453.911,254.362L453.911,254.362z"/>
	</g>
	<g>
		<path fill="#231F20" d="M204.872,256.511c0.756,0,0.756-1.174,0-1.174C204.114,255.338,204.114,256.511,204.872,256.511
			L204.872,256.511z"/>
	</g>
	<g>
		<path fill="#231F20" d="M204.186,244.39c0.013,3.715,0.181,7.427,0.196,11.146c0.003,0.755,1.177,0.755,1.174,0
			c-0.015-3.718-0.183-7.43-0.196-11.146C205.358,243.632,204.184,243.632,204.186,244.39L204.186,244.39z"/>
	</g>
	<g>
		<path fill="#231F20" d="M210.052,302.224c0-15.172,0-30.342,0-45.515c0-0.758-1.174-0.758-1.174,0c0,15.173,0,30.342,0,45.515
			C208.879,302.979,210.052,302.979,210.052,302.224L210.052,302.224z"/>
	</g>
	<g>
		<path fill="#231F20" d="M351.051,298.989c0,21.368,0,42.735,0,64.104c0,0.927,1.173,0.927,1.173,0c0-21.368,0-42.735,0-64.104
			C352.224,298.061,351.051,298.061,351.051,298.989L351.051,298.989z"/>
	</g>
	<g>
		<path fill="#231F20" d="M414.998,299.156c0,21.07,0,42.146,0,63.221c0,0.956,1.174,0.956,1.174,0c0-21.075,0-42.15,0-63.221
			C416.172,298.198,414.998,298.198,414.998,299.156L414.998,299.156z"/>
	</g>
	<g>
		<path fill="#231F20" d="M419.887,362.701c-24.119,0-48.238,0-72.357,0c-0.756,0-0.756,1.173,0,1.173c24.119,0,48.238,0,72.357,0
			C420.643,363.874,420.643,362.701,419.887,362.701L419.887,362.701z"/>
	</g>
	<g>
		<path fill="#231F20" d="M419.887,367.198c-24.119,0-48.238,0-72.357,0c-0.756,0-0.756,1.174,0,1.174c24.119,0,48.238,0,72.357,0
			C420.643,368.371,420.643,367.198,419.887,367.198L419.887,367.198z"/>
	</g>
	<g>
		<path fill="#231F20" d="M435.482,372.479c-33.325,0-66.653,0-99.979,0c-0.756,0-0.756,1.174,0,1.174c33.326,0,66.655,0,99.979,0
			C436.238,373.653,436.238,372.479,435.482,372.479L435.482,372.479z"/>
	</g>
	<g>
		<path fill="#231F20" d="M441.203,378.639c-37.874,0-75.747,0-113.621,0c-0.756,0-0.756,1.173,0,1.173c37.874,0,75.747,0,113.621,0
			C441.959,379.812,441.959,378.639,441.203,378.639L441.203,378.639z"/>
	</g>
	<g>
		<path fill="#231F20" d="M320.544,252.015c41.979,0,83.958,0,125.938,0c0.756,0,0.756-1.174,0-1.174c-41.979,0-83.958,0-125.938,0
			C319.786,250.841,319.786,252.015,320.544,252.015L320.544,252.015z"/>
	</g>
	<g>
		<path fill="#231F20" d="M353.004,297.708h-32.068c-0.758,0-0.758,1.173,0,1.173h31.71
			C352.739,298.483,352.851,298.09,353.004,297.708z"/>
		<path fill="#231F20" d="M446.875,297.708h-32.521c0.074,0.176,0.123,0.375,0.123,0.607v0.489c0.013,0.027,0.032,0.051,0.043,0.077
			h32.354C447.631,298.881,447.631,297.708,446.875,297.708z"/>
	</g>
	<g>
		<path fill="#231F20" d="M384.491,362.394c0-28.097,0-56.194,0-84.292c0-0.934-1.173-0.934-1.173,0c0,28.098,0,56.195,0,84.292
			C383.318,363.328,384.491,363.328,384.491,362.394L384.491,362.394z"/>
	</g>
	<g>
		<path fill="#231F20" d="M326.704,379.323c0,2.414,0,4.825,0,7.239c0,0.755,1.174,0.755,1.174,0c0-2.414,0-4.825,0-7.239
			C327.878,378.568,326.704,378.568,326.704,379.323L326.704,379.323z"/>
	</g>
	<g>
		<path fill="#231F20" d="M334.939,373.106c-0.397,1.851-0.32,3.749-0.315,5.63c0.002,0.758,1.175,0.758,1.174,0
			c-0.007-1.771-0.101-3.574,0.271-5.318C336.227,372.68,335.096,372.365,334.939,373.106L334.939,373.106z"/>
	</g>
	<g>
		<path fill="#231F20" d="M435.239,373.066c0,1.827,0,3.651,0,5.476c0,0.758,1.172,0.758,1.172,0c0-1.824,0-3.648,0-5.476
			C436.411,372.311,435.239,372.311,435.239,373.066L435.239,373.066z"/>
	</g>
	<g>
		<path fill="#231F20" d="M441.692,386.656c0-2.347,0.016-4.694,0.194-7.038c0.059-0.754-1.116-0.751-1.174,0
			c-0.179,2.344-0.194,4.691-0.194,7.038C440.518,387.413,441.692,387.413,441.692,386.656L441.692,386.656z"/>
	</g>
	<g>
		<path fill="#231F20" d="M419.887,368.666c0.756,0,0.756-1.174,0-1.174S419.131,368.666,419.887,368.666L419.887,368.666z"/>
	</g>
	<g>
		<path fill="#231F20" d="M419.496,368.079c0,1.401,0,2.804,0,4.205c0,0.754,1.172,0.754,1.172,0c0-1.401,0-2.804,0-4.205
			C420.668,367.325,419.496,367.325,419.496,368.079L419.496,368.079z"/>
	</g>
	<g>
		<path fill="#231F20" d="M346.65,367.983c-0.012,1.629-0.191,3.259-0.097,4.889c0.044,0.751,1.217,0.754,1.174,0
			c-0.094-1.63,0.085-3.26,0.097-4.889C347.83,367.225,346.656,367.225,346.65,367.983L346.65,367.983z"/>
	</g>
	<g>
		<path fill="#231F20" d="M352.662,298.997c11.704-26.502,53.179-27.814,62.663,1.336c0.271,0.835,1.497,0.477,1.221-0.367
			c-9.82-30.187-52.755-29.345-64.98-1.665C351.215,299.099,352.306,299.803,352.662,298.997L352.662,298.997z"/>
	</g>
	<g>
		<g>
			<path fill="#231F20" d="M390.774,347.032c0-14.214,0-28.432,0-42.648c0-0.891-1.174-0.891-1.174,0c0,14.217,0,28.435,0,42.648
				C389.6,347.926,390.774,347.926,390.774,347.032L390.774,347.032z"/>
		</g>
		<g>
			<path fill="#231F20" d="M389.868,304.759c5.053,0,10.105,0,15.156,0c0.758,0,0.758-1.38,0-1.38c-5.051,0-10.103,0-15.156,0
				C389.112,303.379,389.112,304.759,389.868,304.759L389.868,304.759z"/>
		</g>
		<g>
			<path fill="#231F20" d="M405.611,348.298c0-14.531,0-29.063,0-43.598c0-0.89-1.174-0.89-1.174,0c0,14.534,0,29.066,0,43.598
				C404.437,349.188,405.611,349.188,405.611,348.298L405.611,348.298z"/>
		</g>
		<g>
			<path fill="#231F20" d="M390.187,348.673c4.875,0,9.751,0,14.626,0c0.756,0,0.756-1.385,0-1.385c-4.875,0-9.751,0-14.626,0
				C389.43,347.288,389.43,348.673,390.187,348.673L390.187,348.673z"/>
		</g>
	</g>
	<g>
		<g>
			<path fill="#231F20" d="M361.048,347.032c0-14.214,0-28.432,0-42.648c0-0.891-1.173-0.891-1.173,0c0,14.217,0,28.435,0,42.648
				C359.875,347.926,361.048,347.926,361.048,347.032L361.048,347.032z"/>
		</g>
		<g>
			<path fill="#231F20" d="M360.143,304.759c5.053,0,10.104,0,15.158,0c0.756,0,0.756-1.38,0-1.38c-5.053,0-10.104,0-15.158,0
				C359.386,303.379,359.386,304.759,360.143,304.759L360.143,304.759z"/>
		</g>
		<g>
			<path fill="#231F20" d="M375.887,348.298c0-14.531,0-29.063,0-43.598c0-0.89-1.174-0.89-1.174,0c0,14.534,0,29.066,0,43.598
				C374.714,349.188,375.887,349.188,375.887,348.298L375.887,348.298z"/>
		</g>
		<g>
			<path fill="#231F20" d="M360.461,348.673c4.875,0,9.751,0,14.626,0c0.756,0,0.756-1.385,0-1.385c-4.875,0-9.751,0-14.626,0
				C359.705,347.288,359.705,348.673,360.461,348.673L360.461,348.673z"/>
		</g>
	</g>
	<g>
		<g>
			<path fill="#231F20" d="M275.289,287.048c0-5.266,0-10.534,0-15.802c0-0.482-0.942-0.482-0.942,0c0,5.268,0,10.536,0,15.802
				C274.346,287.531,275.289,287.531,275.289,287.048L275.289,287.048z"/>
		</g>
		<g>
			<path fill="#231F20" d="M274.464,271.505c5.628,0,11.254,0,16.883,0c0.609,0,0.609-0.75,0-0.75c-5.628,0-11.255,0-16.883,0
				C273.854,270.755,273.854,271.505,274.464,271.505L274.464,271.505z"/>
		</g>
		<g>
			<path fill="#231F20" d="M291.82,287.518c0-5.385,0-10.769,0-16.154c0-0.483-0.945-0.483-0.945,0c0,5.385,0,10.769,0,16.154
				C290.874,287.999,291.82,287.999,291.82,287.518L291.82,287.518z"/>
		</g>
		<g>
			<path fill="#231F20" d="M274.82,287.774c5.43,0,10.861,0,16.291,0c0.608,0,0.608-0.75,0-0.75c-5.43,0-10.861,0-16.291,0
				C274.209,287.025,274.209,287.774,274.82,287.774L274.82,287.774z"/>
		</g>
	</g>
	<g>
		<g>
			<path fill="#231F20" d="M255.011,287.345c0-5.266,0-10.534,0-15.803c0-0.481-0.946-0.481-0.946,0c0,5.27,0,10.537,0,15.803
				C254.065,287.828,255.011,287.828,255.011,287.345L255.011,287.345z"/>
		</g>
		<g>
			<path fill="#231F20" d="M254.183,271.802c5.63,0,11.256,0,16.884,0c0.609,0,0.609-0.75,0-0.75c-5.628,0-11.254,0-16.884,0
				C253.574,271.052,253.574,271.802,254.183,271.802L254.183,271.802z"/>
		</g>
		<g>
			<path fill="#231F20" d="M271.538,287.814c0-5.385,0-10.77,0-16.153c0-0.483-0.944-0.483-0.944,0c0,5.383,0,10.768,0,16.153
				C270.594,288.297,271.538,288.297,271.538,287.814L271.538,287.814z"/>
		</g>
		<g>
			<path fill="#231F20" d="M254.538,288.071c5.43,0,10.862,0,16.292,0c0.609,0,0.609-0.75,0-0.75c-5.43,0-10.862,0-16.292,0
				C253.929,287.322,253.929,288.071,254.538,288.071L254.538,288.071z"/>
		</g>
	</g>
	<g>
		<g>
			<path fill="#231F20" d="M234.193,287.343c0-5.266,0-10.532,0-15.801c0-0.483-0.944-0.483-0.944,0c0,5.27,0,10.536,0,15.801
				C233.249,287.826,234.193,287.826,234.193,287.343L234.193,287.343z"/>
		</g>
		<g>
			<path fill="#231F20" d="M233.366,271.8c5.628,0,11.256,0,16.883,0c0.61,0,0.61-0.75,0-0.75c-5.627,0-11.255,0-16.883,0
				C232.758,271.051,232.758,271.8,233.366,271.8L233.366,271.8z"/>
		</g>
		<g>
			<path fill="#231F20" d="M250.722,287.813c0-5.384,0-10.769,0-16.154c0-0.481-0.944-0.481-0.944,0c0,5.385,0,10.77,0,16.154
				C249.779,288.296,250.722,288.296,250.722,287.813L250.722,287.813z"/>
		</g>
		<g>
			<path fill="#231F20" d="M233.72,288.071c5.432,0,10.862,0,16.294,0c0.608,0,0.608-0.751,0-0.751c-5.432,0-10.863,0-16.294,0
				C233.112,287.32,233.112,288.071,233.72,288.071L233.72,288.071z"/>
		</g>
	</g>
	<g>
		<g>
			<path fill="#231F20" d="M274.344,309.233c0-5.267,0-10.534,0-15.802c0-0.483-0.942-0.483-0.942,0c0,5.268,0,10.535,0,15.802
				C273.401,309.715,274.344,309.715,274.344,309.233L274.344,309.233z"/>
		</g>
		<g>
			<path fill="#231F20" d="M273.518,293.689c5.628,0,11.255,0,16.883,0c0.609,0,0.609-0.749,0-0.749c-5.628,0-11.254,0-16.883,0
				C272.908,292.94,272.908,293.689,273.518,293.689L273.518,293.689z"/>
		</g>
		<g>
			<path fill="#231F20" d="M290.874,309.701c0-5.385,0-10.769,0-16.153c0-0.483-0.946-0.483-0.946,0c0,5.385,0,10.769,0,16.153
				C289.928,310.183,290.874,310.183,290.874,309.701L290.874,309.701z"/>
		</g>
		<g>
			<path fill="#231F20" d="M273.874,309.958c5.431,0,10.861,0,16.291,0c0.609,0,0.609-0.749,0-0.749c-5.43,0-10.86,0-16.291,0
				C273.263,309.209,273.263,309.958,273.874,309.958L273.874,309.958z"/>
		</g>
	</g>
	<g>
		<g>
			<path fill="#231F20" d="M254.065,309.53c0-5.267,0-10.534,0-15.804c0-0.481-0.945-0.481-0.945,0c0,5.27,0,10.537,0,15.804
				C253.12,310.012,254.065,310.012,254.065,309.53L254.065,309.53z"/>
		</g>
		<g>
			<path fill="#231F20" d="M253.237,293.986c5.63,0,11.256,0,16.885,0c0.608,0,0.608-0.749,0-0.749c-5.628,0-11.255,0-16.885,0
				C252.629,293.237,252.629,293.986,253.237,293.986L253.237,293.986z"/>
		</g>
		<g>
			<path fill="#231F20" d="M270.593,309.998c0-5.385,0-10.77,0-16.153c0-0.483-0.944-0.483-0.944,0c0,5.384,0,10.769,0,16.153
				C269.649,310.482,270.593,310.482,270.593,309.998L270.593,309.998z"/>
		</g>
		<g>
			<path fill="#231F20" d="M253.593,310.255c5.431,0,10.862,0,16.293,0c0.608,0,0.608-0.75,0-0.75c-5.431,0-10.862,0-16.293,0
				C252.984,309.505,252.984,310.255,253.593,310.255L253.593,310.255z"/>
		</g>
	</g>
	<g>
		<g>
			<path fill="#231F20" d="M233.248,309.528c0-5.267,0-10.532,0-15.802c0-0.483-0.944-0.483-0.944,0c0,5.27,0,10.535,0,15.802
				C232.303,310.01,233.248,310.01,233.248,309.528L233.248,309.528z"/>
		</g>
		<g>
			<path fill="#231F20" d="M232.421,293.984c5.628,0,11.256,0,16.883,0c0.61,0,0.61-0.75,0-0.75c-5.626,0-11.255,0-16.883,0
				C231.812,293.235,231.812,293.984,232.421,293.984L232.421,293.984z"/>
		</g>
		<g>
			<path fill="#231F20" d="M249.777,309.997c0-5.384,0-10.769,0-16.154c0-0.481-0.944-0.481-0.944,0c0,5.386,0,10.771,0,16.154
				C248.833,310.48,249.777,310.48,249.777,309.997L249.777,309.997z"/>
		</g>
		<g>
			<path fill="#231F20" d="M232.775,310.255c5.432,0,10.862,0,16.294,0c0.609,0,0.609-0.751,0-0.751c-5.432,0-10.862,0-16.294,0
				C232.166,309.504,232.166,310.255,232.775,310.255L232.775,310.255z"/>
		</g>
	</g>
	<g>
		<path fill="#231F20" d="M199.765,386.307c-1.7-10.817,19.998-19.552,24.194-8.195c0.258,0.704,1.394,0.399,1.13-0.312
			c-4.747-12.855-28.391-3.494-26.456,8.818C198.751,387.364,199.881,387.048,199.765,386.307L199.765,386.307z"/>
	</g>
	<g>
		<path fill="#231F20" d="M223.369,375.513c1.237-2.599,4.24-3.611,6.929-3.865c3.4-0.329,5.841,2.396,7.214,5.137
			c0.229,0.459,0.951,0.332,1.072-0.141c0.937-3.655,4.251-5.352,7.606-6.352c4.26-1.273,10.005,1.536,9.526,6.683
			c-0.07,0.755,1.104,0.748,1.172,0c0.426-4.563-4.295-8.453-8.577-8.282c-4.5,0.182-9.699,3.115-10.859,7.639
			c0.357-0.047,0.716-0.094,1.073-0.138c-1.557-3.108-3.901-5.298-7.434-5.713c-3.194-0.376-7.338,1.509-8.735,4.439
			C222.031,375.601,223.044,376.194,223.369,375.513L223.369,375.513z"/>
	</g>
	<g>
		<path fill="#231F20" d="M257.207,375.926c0.999-1.063,2.408,0.037,3.082,0.878c0.362,0.456,0.944,0.021,1.001-0.415
			c0.34-2.575,3.537-2.693,5.077-1.482c0.903,0.714,1.316,1.951,1.592,3.011c0.191,0.731,1.323,0.42,1.132-0.312
			c-0.535-2.046-1.997-4.728-4.491-4.654c-2.244,0.063-4.171,1.08-4.483,3.438c0.333-0.138,0.669-0.275,1.001-0.413
			c-1.123-1.411-3.323-2.387-4.74-0.882C255.859,375.648,256.687,376.476,257.207,375.926L257.207,375.926z"/>
	</g>
	<g>
		<path fill="#231F20" d="M268.542,376.492c1.995-4.396,6.44-6.938,10.913-8.231c2.169-0.631,4.402-0.769,6.604-0.262
			c3.509,0.812,5.241,4.805,2.682,7.682c0.307,0.238,0.614,0.477,0.922,0.711c0.932-1.261,2.667-1.841,4.106-2.267
			c0.852-0.255,1.747-0.339,2.627-0.198c2.362,0.383-0.674,3.702-1.105,4.202c-0.491,0.569,0.265,1.338,0.83,0.828
			c1.148-1.04,2.78-1.449,4.28-1.627c1.427-0.164,3.737,0.188,2.278,3.065c-0.409,0.812-1.13,1.458-1.814,2.031
			c-0.443,0.373,0.027,1.188,0.57,0.983c0.528-0.198,1.051-0.362,1.595-0.514c0.59-0.157,1.19-0.241,1.8-0.258
			c1.27,1.448,1.35,2.555,0.24,3.31c-0.557,0.517,0.275,1.345,0.83,0.831c1.401-1.304,2.711-3.125,1.02-4.734
			c-1.388-1.324-4.329-0.318-5.796,0.231c0.191,0.328,0.38,0.657,0.572,0.982c1.877-1.576,4.231-5.07,1.213-6.753
			c-2.163-1.207-5.933,0.097-7.618,1.623c0.278,0.274,0.553,0.553,0.83,0.828c1.511-1.751,4.069-4.956,0.585-6.16
			c-2.475-0.858-6.577,1.003-8.058,3.005c-0.397,0.536,0.483,1.203,0.922,0.711c1.71-1.925,1.966-4.507,0.863-6.811
			c-1.18-2.465-4.539-3.129-6.961-3.205c-6.093-0.191-13.404,3.806-15.944,9.401C267.219,376.583,268.231,377.18,268.542,376.492
			L268.542,376.492z"/>
	</g>
	<g>
		<path fill="#231F20" d="M205.65,339.105c10.579,6.441,21.601-7.229,22.723-16.729c1.517-12.846-10.6-21.446-22.344-20.679
			c-6.309,0.413-12.487,3.136-16.232,8.333c-3.725,5.17-3.972,12.329-3.018,18.375c1.696,10.753,10.271,18.613,21.373,17.939
			c5.586-0.336,10.646-3.243,14.197-7.478c0.482-0.577-0.344-1.412-0.83-0.832c-6.812,8.125-18.799,9.627-27.064,2.736
			c-9.065-7.562-9.672-25.259-0.942-33.146c9.994-9.037,28.228-5.328,32.855,7.424c2.127,5.868,0.478,12.541-3.276,17.346
			c-3.818,4.886-10.815,9.368-16.85,5.697C205.594,337.697,205.004,338.713,205.65,339.105L205.65,339.105z"/>
	</g>
	<g>
		<path fill="#231F20" d="M203.893,346.519c0.439,9.955,1.697,19.935-0.411,29.789c-0.158,0.738,0.974,1.053,1.133,0.312
			c2.127-9.963,0.895-20.039,0.451-30.102C205.033,345.765,203.859,345.761,203.893,346.519L203.893,346.519z"/>
	</g>
	<g>
		<path fill="#231F20" d="M211.226,345.345c-0.015,9.164-0.189,18.288,1.657,27.314c0.152,0.741,1.282,0.426,1.13-0.312
			c-1.824-8.93-1.63-17.942-1.613-27.003C212.401,344.587,211.228,344.587,211.226,345.345L211.226,345.345z"/>
	</g>
	<g>
		<path fill="#231F20" d="M198.696,352.846c-0.025-0.01-0.052-0.02-0.079-0.033c0.087,0.329,0.173,0.657,0.26,0.982
			c-0.112,0.114,1.412,1.137,1.412,1.137c0.581,0.463,1.066,1.05,1.542,1.613c1.063,1.254,2.143,2.534,2.706,4.097
			c0.255,0.708,1.388,0.406,1.132-0.308c-0.771-2.144-2.362-3.984-3.905-5.627c-0.565-0.601-2.776-2.683-3.717-1.743
			c-0.342,0.342-0.136,0.817,0.26,0.982c0.025,0.01,0.05,0.02,0.077,0.029C199.083,354.265,199.385,353.128,198.696,352.846
			L198.696,352.846z"/>
	</g>
	<g>
		<path fill="#231F20" d="M198.97,351.998c2.471,0.352,4.382,3.209,5.589,5.157c0.399,0.64,1.414,0.05,1.013-0.594
			c-1.363-2.193-3.509-5.298-6.291-5.697C198.541,350.761,198.222,351.891,198.97,351.998L198.97,351.998z"/>
	</g>
	<g>
		<path fill="#231F20" d="M202.132,351.833c-0.731-6.974-14.314-6.793-12.807,1.325c0.582,3.135,3.028,5.382,5.93,6.347
			c2.689,0.896,6.009,0.544,6.968-2.491c0.228-0.721-0.905-1.032-1.133-0.312c-0.725,2.297-3.135,2.26-5.097,1.794
			c-2.067-0.493-3.595-1.687-4.686-3.484c-1.524-2.515-1.356-5.63,1.697-6.743c2.58-0.941,7.61,0.269,7.955,3.564
			C201.037,352.578,202.211,352.585,202.132,351.833L202.132,351.833z"/>
	</g>
	<g>
		<path fill="#231F20" d="M352.468,213.491c0,6.747,0,13.493,0,20.239c0,0.758,1.174,0.758,1.174,0c0-6.747,0-13.493,0-20.239
			C353.641,212.733,352.468,212.733,352.468,213.491L352.468,213.491z"/>
	</g>
	<g>
		<path fill="#231F20" d="M414.021,213.491c0,6.747,0,13.493,0,20.239c0,0.758,1.173,0.758,1.173,0c0-6.747,0-13.493,0-20.239
			C415.194,212.733,414.021,212.733,414.021,213.491L414.021,213.491z"/>
	</g>
	<g>
		<path fill="#231F20" d="M353.054,214.077c20.518,0,41.035,0,61.553,0c0.756,0,0.756-1.173,0-1.173c-20.518,0-41.035,0-61.553,0
			C352.298,212.904,352.298,214.077,353.054,214.077L353.054,214.077z"/>
	</g>
	<g>
		<path fill="#231F20" d="M353.054,234.317c20.518,0,41.035,0,61.553,0c0.756,0,0.756-1.174,0-1.174c-20.518,0-41.035,0-61.553,0
			C352.298,233.143,352.298,234.317,353.054,234.317L353.054,234.317z"/>
	</g>
	<g>
		<path fill="#231F20" d="M359.794,217.548c-0.235,3.239-0.434,6.492-0.144,9.734c0.065,0.744,1.137,0.764,1.172,0
			c0.008-0.154,0.015-0.309,0.021-0.459c0.037-0.758-1.137-0.754-1.172,0c-0.007,0.151-0.015,0.305-0.021,0.459
			c0.391,0,0.781,0,1.172,0c-0.289-3.243-0.091-6.495,0.146-9.734C361.023,216.794,359.849,216.797,359.794,217.548L359.794,217.548
			z"/>
	</g>
	<g>
		<path fill="#231F20" d="M363.018,222.454c-0.054,1.378-0.03,2.753,0.374,4.081c0.181,0.597,0.924,0.523,1.133,0
			c0.236-0.593,1.13-4.872,2.171-3.917c0.612,0.56,0.555,1.955,0.582,2.699c0.032,0.875-0.023,1.747-0.067,2.623
			c-0.037,0.754,1.137,0.751,1.173,0c0.084-1.72,0.654-5.63-1.383-6.509c-2.517-1.09-3.051,3.397-3.61,4.795
			c0.379,0,0.754,0,1.133,0c-0.377-1.234-0.384-2.498-0.333-3.772C364.222,221.696,363.048,221.699,363.018,222.454L363.018,222.454
			z"/>
	</g>
	<g>
		<path fill="#231F20" d="M373.096,220.573c-0.993,0.165-4.545,1.727-2.701,3.112c0.808,0.607,1.977,0.52,2.929,0.721
			c0.404,0.087,1.226,0.254,1.274,0.771c0.084,0.869-1.395,1.204-1.987,0.956c-0.695-0.292-0.999,0.845-0.31,1.13
			c1.863,0.785,4.884-1.784,2.802-3.36c-0.812-0.617-1.886-0.731-2.867-0.845c-0.734-0.087-1.489-0.067-0.662-0.65
			c0.538-0.382,1.189-0.597,1.834-0.705C374.152,221.578,373.835,220.448,373.096,220.573L373.096,220.573z"/>
	</g>
	<g>
		<path fill="#231F20" d="M377.774,221.756c-0.098,2.22-0.089,4.426,0.333,6.612c0.144,0.745,1.274,0.43,1.132-0.312
			c-0.402-2.083-0.384-4.188-0.292-6.301C378.979,221.002,377.805,221.005,377.774,221.756L377.774,221.756z"/>
	</g>
	<g>
		<path fill="#231F20" d="M381.792,227.628c2.927,0.406,3.257-6.562,3.484-8.413c0.07-0.57-0.86-0.815-1.093-0.295
			c-0.957,2.129-2.401,7.015,0.289,8.607c3.841,2.273,5.095-2.451,6.012-5.154c-0.377-0.104-0.754-0.208-1.132-0.312
			c-0.375,1.311-1.558,4.373,0.52,4.946c2.037,0.56,2.59-3.182,3.228-4.292c-0.364-0.097-0.729-0.198-1.093-0.295
			c0.18,1.824-0.615,5.402,2.396,5.05c2.517-0.295,2.815-4.969,3.92-6.582c-0.357-0.151-0.714-0.302-1.071-0.453
			c-0.703,1.807-1.726,3.729,0.219,5.03c1.962,1.314,3.97-1.667,4.84-2.938c-0.338-0.198-0.676-0.393-1.014-0.59
			c-0.849,1.241-2.417,3.859-0.242,4.855c2.104,0.966,4.257,0.137,6.188-0.902c0.667-0.355,0.075-1.368-0.592-1.013
			c-0.719,0.389-1.452,0.704-2.228,0.962c-1.332,0.54-2.284-0.185-2.859-2.169c0.233-0.393,0.481-0.771,0.746-1.144
			c0.428-0.624-0.588-1.21-1.014-0.59c-0.479,0.701-0.973,1.365-1.559,1.979c-1.839-0.302-2.441-0.986-1.804-2.056
			c0.158-0.365,0.309-0.738,0.448-1.113c0.255-0.657-0.719-0.965-1.071-0.453c-0.718,1.046-1.03,2.347-1.454,3.527
			c-0.18,0.517-0.399,1.013-0.661,1.492c-0.429,1.1-1.105,1.026-2.025-0.211c-0.101-0.889,0.097-1.791,0.01-2.683
			c-0.054-0.55-0.781-0.842-1.093-0.298c-0.357,0.624-0.572,1.308-0.816,1.981c-0.592,1.64-1.428,0.731-1.179-0.365
			c0.104-0.459,0.262-0.909,0.393-1.365c0.209-0.731-0.891-1.02-1.132-0.312c-0.496,1.462-2.057,7.682-4.74,3.907
			c-1.18-1.664-0.167-4.785,0.583-6.458c-0.364-0.097-0.728-0.198-1.093-0.295c-0.105,0.875-0.907,7.434-1.998,7.283
			C381.365,226.394,381.045,227.524,381.792,227.628L381.792,227.628z"/>
	</g>
	<g>
		<path fill="#231F20" d="M378.9,223.952c4.01-0.748,8.101-0.841,12.111-1.586c0.746-0.137,0.429-1.268-0.31-1.13
			c-4.012,0.744-8.101,0.838-12.113,1.586C377.845,222.96,378.161,224.09,378.9,223.952L378.9,223.952z"/>
	</g>
	<path fill="#231F20" d="M595.643,222.437c0.027-4.583-2.112-10.22-7.521-10.083c-5.965,0.147-9.445,6.904-9.197,12.135
		c0.104,2.247,2.739,2.823,4.014,1.72c0.558,0.104,1.113,0.124,1.663,0.084c0.206,0.184,0.445,0.345,0.739,0.459
		c2.707,1.073,6.55-0.332,8.994-1.556c0.762-0.382,1.101-1.09,1.12-1.831C595.572,223.094,595.642,222.786,595.643,222.437z"/>
	<path fill="#231F20" d="M537.278,222.313c0.305-0.597,0.321-1.334-0.182-2.085c-0.915-1.375-3.051-2.119-4.636-1.499
		c-2.622-0.647-5.471,0.188-7.621,2.056c-2.661,2.31-3.436,7.88-1.017,10.522c2.416,2.642,8.088,0.6,10.845-0.298
		c0.052-0.02,0.097-0.047,0.148-0.067c0.855,1.948,4.418,1.603,4.509-1.023C539.416,227.296,538.755,224.519,537.278,222.313z"/>
	<path fill="#231F20" d="M634.219,204.545c-0.006-0.178-0.039-0.332-0.064-0.493c0.064-0.798-0.206-1.58-0.702-2.23
		c1.418-2.656,1.861-5.804,0.521-8.547c-0.898-1.841-2.475-3.111-4.378-3.631c0.23-0.771,0.33-1.562,0.254-2.333
		c0.358-2.349,0.368-4.758-0.067-7.196c-0.855-4.775-4.565-9.003-9.12-8.034c-0.151-1.001-0.359-1.981-0.631-2.92
		c-0.725-2.508-2.875-4.767-5.396-4.631c-2.203-0.895-5.21-0.399-8.165,0.495c-0.244,0.035-0.499,0.092-0.763,0.193
		c-0.281,0.104-0.558,0.218-0.838,0.327c-2.396,0.828-4.639,1.795-6.245,2.342c-0.028,0.01-0.054,0.019-0.082,0.027
		c-0.77-0.305-1.695-0.275-2.503,0.359c-5.12,4.014-12.415,2.8-18.325,4.822c-0.07,0.023-0.121,0.07-0.188,0.101
		c-0.119-0.017-0.236-0.047-0.362-0.037c-3.104,0.231-6.14,0.942-9.241,1.173c-0.056,0.003-0.103,0.02-0.157,0.028
		c-0.728-0.008-1.474,0.273-2.014,0.988c-0.344,0.449-0.771,0.862-1.214,1.269c-0.212-1.011-0.954-1.859-2.188-1.698
		c-1.114,0.144-2.211,0.364-3.299,0.614c-0.49-0.355-1.125-0.533-1.871-0.384c-7.653,1.526-16.634,0.515-23.985,3.332
		c-0.67-0.248-1.351-0.485-2.049-0.691c-2.907-0.865-4.141,3.665-1.245,4.527c0.768,0.228,1.499,0.466,2.213,0.711
		c0.104,0.087,0.223,0.147,0.332,0.225c0.03,0.674,0.365,1.329,1.146,1.76c4.112,2.27,9.246,2.803,13.894,1.744
		c0.378-0.008,0.75-0.01,1.144-0.037c3.686-0.258,7.65-1.8,10.972-4.015c1.948,5.494,9.055,3.593,14.249-0.089
		c1.896-0.912,3.631-2.186,5.05-3.668c0.075,0.044,0.147,0.091,0.228,0.127c0.28,0.506,0.736,0.942,1.373,1.187
		c3.057,1.18,6.499-0.11,9.617-1.946c-0.982,2.75,0.352,6.093,3.27,7.214c1.362,0.525,2.803,0.636,4.255,0.5
		c-0.258,0.729-0.436,1.502-0.53,2.29c-0.157,0.379-0.295,0.754-0.392,1.113c-1.391,5.174,1.916,8.647,5.979,8.694
		c1.191,0.386,2.468,0.453,3.767,0.292c-1.217,3.192-0.008,6.126,2.371,7.947c0.478,0.563,0.994,1.06,1.536,1.442
		c0.66,0.466,1.362,0.828,2.087,1.113c-0.636,2.78,0.702,4.644,2.765,5.519c-0.264,0.335-0.454,0.748-0.513,1.254
		c-0.165,1.441-0.188,2.786,0.377,4.145c0.959,2.297,4.634,2.226,4.61-0.627c-0.015-1.834,0.191-3.064,2.039-3.718
		c2.12-0.755,5.324-1.083,6.861,0.832c1.894,2.364,5.192-0.979,3.318-3.316c-0.51-0.634-1.109-1.126-1.761-1.522
		C632.587,210.181,634.324,207.821,634.219,204.545z"/>
	<path fill="#231F20" d="M523.189,177.409c-3.979-0.035-7.82,0.605-11.738,1.239c-2.013,0.327-9.306,1.682-10.888-0.375
		c-2.705-3.514-3.323-10.254-9.844-8.219c-4.423,1.382-6.362,4.913-6.761,9.019c-2.387-0.319-4.851,0.355-6.195,2.721
		c-1.038,1.828-1.447,3.652-1.441,5.494c-1.697,0.132-3.253,1.082-4.651,3.066c-4.259,1.036-3.195,6.78-0.83,9.999
		c-0.36,0.238-0.734,0.51-1.126,0.832c-2.572,2.103-1.674,5.741-0.371,8.148c0.222,0.409,0.515,0.794,0.835,1.163
		c-3.925,3.001-5.645,9.003-1.574,13.037c2.646,2.625,5.835,3.611,9.508,3.715c1.809,0.05,4.28-1.07,5.558,0.778
		c1.146,1.663,1.759,3.89,2.601,5.72c1.653,3.591,6.161,1.234,6.561-1.777c0.457-3.474,0.456-6.911,0.439-10.408
		c5.729-1.026,8.666-6.82,9.226-12.725c0.28-0.604,0.535-1.23,0.768-1.891c0.128-0.359,0.173-0.714,0.166-1.056
		c4.664-1.274,8.742-6.401,9.585-11.213c1.192,0.191,2.439-0.017,3.429-0.711c2.193-1.542,2.636-4.5,2.755-7.078
		c0.28-0.057,0.528-0.107,0.712-0.145c2.326-0.466,4.282-1.48,5.77-3.325C527.534,181.12,526.498,177.438,523.189,177.409z"/>
	<path fill="#231F20" d="M624.636,231.092c-0.987,0.02-1.782,0.389-2.369,0.969c-0.954-0.164-1.979,0.094-2.856,1.04
		c-1.976,2.123-2.079,5.918-2.544,8.618c-0.705,4.101-1.311,7.943-2.695,11.867c-1.852,3.058-3.927,6.022-6.067,8.976
		c-5.786,7.97-11.354,17.315-21.363,20.283c-1.173,0.349-1.886,1.083-2.233,1.945c-1.603,0.62-3.212,1.23-4.81,1.861
		c-0.583,0.231-0.494,0.939-0.021,1.1c-0.016,0.369,0.295,0.751,0.726,0.621c0.173-0.054,0.341-0.118,0.512-0.174h0.655
		c0.094,0.117,0.236,0.198,0.438,0.194c0.968-0.02,1.932-0.09,2.897-0.144c0.728,1.093,2.028,1.797,3.708,1.385
		c0.063-0.014,0.124-0.037,0.188-0.05c0.466,0.781,1.184,1.401,2.047,1.616c5.109,1.281,8.367,2.796,12.584,6.079
		c2.828,2.2,5.632,3.678,9.248,3.802c4.587,0.158,6.833-3.202,7.442-6.978c6.872-0.319,13.382-6.78,10.689-13.114
		c2.489-2.608,3.738-5.754,2.696-9.764c-0.138-0.53-0.385-0.962-0.688-1.321c1.593-4.644,1.339-10.23-2.027-13.234
		c2.046-3.273,3.385-6.955,3.604-10.656C634.751,240.054,631.894,230.93,624.636,231.092z"/>
	<path fill="#231F20" d="M531.197,289.647c-0.753-0.134-1.476-0.164-2.183-0.134c-0.354-0.245-0.809-0.386-1.375-0.342
		c-1.732,0.134-3.44-0.141-5.169-0.188c-0.65-0.583-1.474-0.982-2.437-1.069c-0.268-0.459-0.646-0.875-1.177-1.194
		c-4.412-2.652-9.277-5.633-13.623-9.157c0.045-0.637-0.111-1.294-0.563-1.901c-2.47-3.316-5.803-6.022-8.862-8.909
		c-0.858-1.348-1.59-2.787-2.126-4.329c-0.28-0.812-0.755-1.398-1.326-1.794c-1.988-5.01-3.13-10.288-3.241-15.458
		c-0.075-3.554-4.404-4.315-6.231-2.297c-0.438-0.298-0.909-0.553-1.437-0.708c-0.729-0.215-1.384-0.312-1.972-0.315
		c-0.629-0.945-1.709-1.549-3.267-1.375c-9.35,1.056-11.102,9.52-6.885,15.974c-2.396,3.018-1.373,6.831,1.296,10.066
		c-2.086,2.971-3.826,6.341-2.675,10.056c0.666,2.146,1.744,3.608,3.075,4.832c-0.767,0.69-1.329,1.663-1.462,2.877
		c-0.441,4.084,1.665,7.46,4.949,9.398c-0.407,5.563,3.405,8.875,8.765,10.301c-0.089,0.61-0.075,1.237,0.096,1.881
		c0.97,3.642,4.184,4.306,7.508,4.624c4.54,0.436,8.912-3.343,12.24-5.841c5.384-4.041,11.264-7.706,17.989-8.775
		c0.446-0.074,0.82-0.211,1.16-0.376c0.395,0.131,0.836,0.165,1.305,0.047c2-0.503,4.275-1.744,6.38-1.368
		C532.909,294.697,534.173,290.173,531.197,289.647z"/>
</g>
</svg>
