<?xml version="1.0" encoding="utf-8"?>
<!-- Generator: Adobe Illustrator 15.1.0, SVG Export Plug-In . SVG Version: 6.00 Build 0)  -->
<!DOCTYPE svg PUBLIC "-//W3C//DTD SVG 1.1//EN" "http://www.w3.org/Graphics/SVG/1.1/DTD/svg11.dtd">
<svg version="1.1" id="Layer_1" xmlns="http://www.w3.org/2000/svg" xmlns:xlink="http://www.w3.org/1999/xlink" x="0px" y="0px"
	 width="841.89px" height="595.28px" viewBox="0 0 841.89 595.28" enable-background="new 0 0 841.89 595.28" xml:space="preserve">
<g>
	<g>
		<path d="M262.019,189.469c28.319-4.952,55.157-12.659,79.792-27.933c14.643-9.079,43.894-31.459,34.485-51.945
			c-3.46-7.532-14.128-10.187-21.463-11.117c-13.876-1.761-27.761,0.024-41.177,3.709c-27.464,7.547-52.337,24.277-72.95,43.552
			c-1.44,1.346,0.721,3.5,2.157,2.157c18.059-16.886,38.84-30.868,62.034-39.638c11.529-4.358,23.687-6.879,35.993-7.399
			c10.222-0.433,23.169,0.286,30.969,7.765c10.501,10.073-4.663,27.217-11.672,34.52c-8.111,8.45-18.068,14.992-28.248,20.656
			c-22.144,12.32-45.984,18.404-70.73,22.731C259.272,186.865,260.094,189.805,262.019,189.469L262.019,189.469z"/>
	</g>
	<g>
		<path d="M241.939,144.63c-8.783,6.184-6.898,20.188-1.881,28.255c1.035,1.666,3.676,0.136,2.633-1.541
			c-4.013-6.453-6.503-18.948,0.788-24.082C245.074,146.142,243.553,143.495,241.939,144.63L241.939,144.63z"/>
	</g>
	<g>
		<path d="M273.407,186.542c0.964,7.722,0.183,15.136-1.66,22.687c-0.919,3.771-2.271,7.521-3.96,11.01
			c-0.884,1.825-7.541-8.572-8.006-9.213c-5.162-7.093-13.402-7.347-19.564-1.685c-12.228,11.234-0.02,43.762,15.202,29.886
			c1.457-1.328-0.708-3.479-2.157-2.157c-7.229,6.588-13.178-2.403-14.891-8.292c-1.791-6.15-0.068-12.48,4.002-17.279
			c6.955-8.199,14.824,0.6,18.549,6.898c0.84,1.421,2.839,5.622,4.856,6.004c4.85,0.919,6.167-5.923,7.427-9.427
			c3.242-9.024,4.439-18.933,3.252-28.433C276.217,184.617,273.164,184.594,273.407,186.542L273.407,186.542z"/>
	</g>
	<g>
		<path d="M239.148,166.143c-6.435-7.101-16.969-1.067-21.729,4.909c-7.117,8.933-7.228,22.277-6.145,33.04
			c2.718,26.987,17.866,52.057,40.261,67.152c1.637,1.102,3.163-1.542,1.54-2.634c-18.127-12.219-30.18-30.251-36.112-51.164
			c-2.509-8.84-3.534-18.024-2.907-27.188c0.383-5.579,1.941-10.974,4.719-15.82c2.96-5.165,12.575-12.362,18.216-6.137
			C238.315,169.761,240.466,167.597,239.148,166.143L239.148,166.143z"/>
	</g>
	<g>
		<path d="M371.789,133.665c9.995,0.016,21.52,0.15,25.887,11.034c4.233,10.553-6.036,22.64-12.539,29.681
			c-1.332,1.442,0.819,3.604,2.157,2.157c8.52-9.224,17.75-21.615,12.508-34.68c-4.363-10.876-18.21-11.228-28.013-11.242
			C369.821,130.611,369.821,133.662,371.789,133.665L371.789,133.665z"/>
	</g>
	<g>
		<path d="M251.011,242.543c1.603,0.425,1.552,8.918,1.603,10.315c0.193,5.308-0.128,11.115-2.26,16.044
			c-0.773,1.786,1.854,3.341,2.633,1.54c2.728-6.304,2.948-13.482,2.55-20.247c-0.162-2.751-0.191-9.658-3.716-10.594
			C249.917,239.096,249.112,242.039,251.011,242.543L251.011,242.543z"/>
	</g>
	<g>
		<path d="M298.111,292.616c4.314,0.334,8.627,0.402,12.952,0.286c1.963-0.053,1.967-3.104,0-3.051
			c-4.325,0.116-8.638,0.049-12.952-0.286C296.147,289.412,296.163,292.464,298.111,292.616L298.111,292.616z"/>
	</g>
	<g>
		<path d="M252.615,266.518c5.104,12.645,20.137,20.606,32.554,23.998c1.901,0.52,2.705-2.423,0.811-2.94
			c-11.172-3.053-25.773-10.345-30.423-21.868C254.83,263.908,251.878,264.692,252.615,266.518L252.615,266.518z"/>
	</g>
	<g>
		<path d="M363.55,145.559c1.951-0.796,8.402,7.463,9.599,8.795c4.133,4.602,6.875,10.156,9.163,15.867
			c5.53,13.801,6.161,29.318,3.882,43.866c-4.648,29.666-25.975,56.412-53.766,67.565c-1.802,0.723-1.017,3.673,0.811,2.941
			c31.011-12.445,52.274-41.743,56.602-74.611c2.2-16.713-0.691-34.075-8.442-49.028c-2.229-4.295-12.776-20.738-18.659-18.337
			C360.944,143.351,361.73,146.303,363.55,145.559L363.55,145.559z"/>
	</g>
	<g>
		<path d="M300.461,285.202c-0.113-0.323-0.226-0.646-0.339-0.97c-0.93,0.394-1.859,0.784-2.789,1.177
			c9.788,14.244,39.021,5.483,42.333-10.319c0.402-1.918-2.538-2.736-2.942-0.811c-2.665,12.709-28.277,21.933-36.758,9.59
			c-0.926-1.35-3.393-0.549-2.789,1.173c0.115,0.325,0.228,0.647,0.341,0.97C298.167,287.855,301.115,287.062,300.461,285.202
			L300.461,285.202z"/>
	</g>
	<g>
		<path d="M358.824,265.731c0.019,16.42-9.371,30.78-19.764,42.773c-1.282,1.481,0.866,3.646,2.157,2.157
			c10.942-12.627,20.678-27.669,20.657-44.931C361.873,263.765,358.822,263.764,358.824,265.731L358.824,265.731z"/>
	</g>
	<g>
		<path d="M365.934,258.128c2.309,9.108-2.619,21.684-6.194,29.957c-3.972,9.199-9.944,17.477-16.485,24.996
			c-1.286,1.478,0.863,3.644,2.157,2.156c7.363-8.46,13.968-17.806,18.117-28.297c3.373-8.526,7.701-20.34,5.345-29.622
			C368.391,255.413,365.448,256.221,365.934,258.128L365.934,258.128z"/>
	</g>
	<g>
		<path d="M259.743,234.74c4.228,17.222,16.223,32.236,26.806,46.079c10.723,14.025,23.52,26.56,39.984,33.469
			c1.813,0.762,2.596-2.193,0.811-2.941c-16.566-6.951-28.996-20.08-39.722-34.112c-9.897-12.944-20.997-27.252-24.938-43.306
			C262.215,232.019,259.273,232.83,259.743,234.74L259.743,234.74z"/>
	</g>
	<g>
		<path d="M254.333,238.63c4.826,19.901,19.008,38.098,31.897,53.578c12.131,14.565,25.96,23.483,43.275,30.465
			c1.826,0.737,2.613-2.216,0.81-2.941c-16.047-6.472-28.565-14.619-40.233-27.714c-13.308-14.932-28.027-34.489-32.809-54.198
			C256.81,235.907,253.868,236.718,254.333,238.63L254.333,238.63z"/>
	</g>
	<g>
		<path d="M254.911,236.688c-7.953,0-14.702-9.922-6.564-15.112c7.461-4.759,16.391,4.829,11.55,11.989
			c-1.105,1.635,1.539,3.159,2.634,1.54c3.095-4.578,2.032-9.73-1.286-13.849c-3.465-4.3-8.902-4.829-13.689-2.715
			c-4.841,2.138-7.175,7.496-5.559,12.438c1.71,5.236,7.607,8.76,12.915,8.76C256.877,239.738,256.877,236.688,254.911,236.688
			L254.911,236.688z"/>
	</g>
	<g>
		<path d="M257.203,232.99c2.769-1.848,2.682-5.909,1.359-8.627c-0.859-1.769-3.49-0.222-2.634,1.54
			c0.529,1.089,0.949,3.643-0.265,4.453C254.035,231.442,255.56,234.085,257.203,232.99L257.203,232.99z"/>
	</g>
	<g>
		<path d="M341.915,226.056c1.968-3.6,10.604-3.262,9.491,1.946c-0.794,3.713-5.17,7.52-9.073,6.96
			c-1.925-0.275-2.753,2.664-0.811,2.942c6.261,0.897,12.675-4.6,13.074-10.887c0.497-7.795-12.29-8.039-15.315-2.502
			C338.338,226.243,340.972,227.783,341.915,226.056L341.915,226.056z"/>
	</g>
	<g>
		<path d="M313.003,250.541c11.848,14.045,43.507,7.528,51.332-7.936c0.886-1.75-1.745-3.295-2.634-1.54
			c-6.956,13.745-35.948,19.876-46.542,7.318C313.891,246.877,311.743,249.047,313.003,250.541L313.003,250.541z"/>
	</g>
	<g>
		<path d="M317.896,245.521c-3.742-0.001-7.001,3.088-7.955,6.586c-0.517,1.901,2.426,2.707,2.943,0.811
			c0.596-2.192,2.622-4.347,5.011-4.346C319.862,248.572,319.862,245.522,317.896,245.521L317.896,245.521z"/>
	</g>
	<g>
		<path d="M334.412,265.015c2.052,1.174,4.754,0.924,6.752-0.255c1.692-0.999,0.158-3.636-1.54-2.633
			c-1.056,0.623-2.563,0.888-3.672,0.254C334.242,261.403,332.705,264.04,334.412,265.015L334.412,265.015z"/>
	</g>
	<g>
		<path d="M303.079,217.362c0.097-10.613,4.69-21.498,13.402-27.937c14.547-10.752,18.836,15.167,18.084,23.992
			c-0.167,1.961,2.885,1.945,3.051,0c0.809-9.49-2.108-32.039-16.857-29.009c-13.671,2.807-20.617,20.619-20.73,32.953
			C300.01,219.33,303.061,219.329,303.079,217.362L303.079,217.362z"/>
	</g>
	<g>
		<path d="M356.415,210.884c0.089-8.721,4.171-17.054,10.538-22.941c4.68-4.328,10.284-3.422,14.007,1.654
			c3.233,4.406,3.513,10.713,3.446,15.946c-0.025,1.969,3.025,1.965,3.05,0c0.126-9.782-3.993-27.14-17.459-22.971
			c-10.525,3.259-16.531,18.406-16.633,28.312C353.345,212.852,356.396,212.851,356.415,210.884L356.415,210.884z"/>
	</g>
	<g>
		<path d="M311.039,185.062c5.814-3.734,15.866-5.43,21.721-1.016c1.571,1.186,3.091-1.465,1.54-2.634
			c-6.682-5.038-18.174-3.241-24.801,1.017C307.85,183.488,309.378,186.13,311.039,185.062L311.039,185.062z"/>
	</g>
	<g>
		<path d="M362.897,181.004c5.381-3.637,12.472-3.428,17.783,0.236c1.624,1.121,3.146-1.525,1.541-2.634
			c-6.139-4.235-14.658-4.43-20.863-0.236C359.738,179.465,361.264,182.109,362.897,181.004L362.897,181.004z"/>
	</g>
	<g>
		<path d="M385.017,192.216c-3.681-1.787-7.28-0.455-10.122,2.234c-3.37,3.187-4.454,8.157-4.75,12.59
			c-0.131,1.965,2.921,1.952,3.051,0c0.193-2.902,0.776-5.635,2.176-8.203c1.49-2.733,4.883-5.551,8.104-3.988
			C385.238,195.705,386.786,193.075,385.017,192.216L385.017,192.216z"/>
	</g>
	<g>
		<path d="M334.919,195.911c-4.286-1.499-9.192,0.384-11.816,4.041c-3.1,4.317-3.118,9.58-2.032,14.596
			c0.417,1.923,3.358,1.107,2.944-0.81c-0.687-3.169-0.832-6.249,0.126-9.375c1.255-4.101,5.839-6.953,9.968-5.509
			C335.971,199.504,336.765,196.556,334.919,195.911L334.919,195.911z"/>
	</g>
	<g>
		<path d="M269.83,281.135c-15.867-0.209-28.061,7.239-39.758,17.341c-1.491,1.287,0.676,3.436,2.157,2.157
			c11.096-9.583,22.527-16.647,37.601-16.448C271.799,284.211,271.796,281.161,269.83,281.135L269.83,281.135z"/>
	</g>
	<g>
		<path d="M358.245,294.392c4.421,2.228,8.583,4.878,12.461,7.957c1.522,1.208,3.697-0.935,2.157-2.157
			c-4.087-3.244-8.416-6.083-13.078-8.434C358.033,290.875,356.488,293.507,358.245,294.392L358.245,294.392z"/>
	</g>
	<g>
		<path d="M330.796,287.849c7.728,0.173,15.129,1.594,22.367,4.296c1.846,0.688,2.637-2.262,0.811-2.944
			c-7.491-2.794-15.189-4.225-23.178-4.403C328.829,284.754,328.832,287.805,330.796,287.849L330.796,287.849z"/>
	</g>
	<g>
		<path d="M229.609,299.266c-14.523,58.669-26.232,118.117-30.562,178.482c-0.141,1.965,2.911,1.953,3.051,0
			c4.31-60.098,15.995-119.267,30.451-177.673C233.023,298.166,230.081,297.356,229.609,299.266L229.609,299.266z"/>
	</g>
	<g>
		<path d="M255.057,347.2c-7.415,16.562-7.323,37.582-8.842,55.389c-2.136,25.033-2.645,50.18-3.06,75.288
			c-0.033,1.969,3.018,1.966,3.051,0c0.367-22.108,0.894-44.214,2.375-66.279c0.705-10.489,1.793-20.932,2.979-31.376
			c1.209-10.645,1.689-21.561,6.131-31.48C258.489,346.963,255.861,345.409,255.057,347.2L255.057,347.2z"/>
	</g>
	<g>
		<path d="M254.285,364.646c0.002-0.021-0.17,0.3,0.047-0.054c0.124-0.196,0.267-0.385,0.405-0.572
			c0.372-0.499,0.784-0.971,1.184-1.444c0.9-1.063,1.822-2.113,2.802-3.104c1.386-1.399-0.771-3.559-2.157-2.157
			c-1.045,1.058-2.023,2.184-2.982,3.315c-0.716,0.849-2.05,2.046-2.24,3.206C251.027,365.761,253.966,366.584,254.285,364.646
			L254.285,364.646z"/>
	</g>
	<g>
		<path d="M262.324,440.96c6.971,2.559,14.537,2.362,21.657,0.51c1.902-0.495,1.093-3.438-0.811-2.941
			c-6.633,1.726-13.546,1.871-20.036-0.509C261.283,437.34,260.494,440.289,262.324,440.96L262.324,440.96z"/>
	</g>
	<g>
		<path d="M260.291,448.586c5.771,2.273,11.822,2.05,17.842,1.02c1.937-0.331,1.114-3.271-0.81-2.941
			c-5.504,0.942-10.955,1.056-16.222-1.019C259.269,444.925,258.481,447.875,260.291,448.586L260.291,448.586z"/>
	</g>
	<g>
		<path d="M292.55,299.67c2.176,62.858,4.166,125.998,10.091,188.631c0.186,1.94,3.236,1.957,3.051,0
			c-5.925-62.633-7.915-125.772-10.091-188.631C295.534,297.707,292.482,297.702,292.55,299.67L292.55,299.67z"/>
	</g>
	<g>
		<path d="M275.123,288.803c-0.168,21.054-5.382,41.147-7.054,61.964c-0.139,1.727,2.618,2.069,2.995,0.405
			c2.413-3.594,5.638-3.855,9.678-0.78c1.574,1.772,2.644,3.812,3.207,6.119c1.361,4.108,2.609,9.402,0.535,13.507
			c-0.886,1.751,1.746,3.295,2.633,1.54c3.527-6.974,0.583-17.573-4.218-23.323c-3.708-4.438-13.384-3.995-14.775,2.128
			c0.998,0.135,1.996,0.271,2.995,0.404c1.676-20.848,6.887-40.873,7.055-61.964C278.189,286.833,275.139,286.836,275.123,288.803
			L275.123,288.803z"/>
	</g>
	<g>
		<path d="M284.721,371.864c7.013,8.872,9.38,20.974,11.918,31.74c0.453,1.916,3.393,1.103,2.943-0.81
			c-2.681-11.372-5.303-23.723-12.705-33.087C285.658,368.164,283.516,370.34,284.721,371.864L284.721,371.864z"/>
	</g>
	<g>
		<path d="M328.739,313.325c0.006-0.021,0.577,0.211,0.883,0.482c0.648,0.575,0.973,1.454,1.202,2.262
			c0.487,1.722,0.036,3.667-1.561,4.59c-1.701,0.986-0.166,3.623,1.54,2.635c3.328-1.928,4.025-6.311,2.38-9.621
			c-0.776-1.563-1.865-2.645-3.506-3.246c-1.753-0.641-3.435,0.349-3.879,2.089C325.312,314.423,328.253,315.232,328.739,313.325
			L328.739,313.325z"/>
	</g>
	<g>
		<path d="M327.078,312.92c1.968,0,1.968-3.051,0-3.051C325.111,309.869,325.111,312.92,327.078,312.92L327.078,312.92z"/>
	</g>
	<g>
		<path d="M327.483,312.866c3.607-1.424,7.419-2.332,11.297-1.62c1.923,0.353,2.744-2.588,0.81-2.941
			c-4.442-0.816-8.754-0.025-12.917,1.62C324.866,310.639,325.653,313.59,327.483,312.866L327.483,312.866z"/>
	</g>
	<g>
		<path d="M339.611,311.344c1.806,0.327,3.059,2.696,2.836,4.418c-0.106,0.825,0.774,1.525,1.525,1.525
			c0.912,0,1.42-0.701,1.525-1.525c0.38-2.954-2.07-6.816-5.076-7.359C338.499,308.055,337.676,310.996,339.611,311.344
			L339.611,311.344z"/>
	</g>
	<g>
		<path d="M327.269,321.977c0.399,5.226,2.993,10.418,6.644,14.139c1.379,1.406,3.535-0.75,2.157-2.156
			c-3.06-3.118-5.415-7.584-5.75-11.982C330.171,320.028,327.119,320.014,327.269,321.977L327.269,321.977z"/>
	</g>
	<g>
		<path d="M337.128,334.966c0.456-1.814,5.229-2.842,6.603-1.71c1.505,1.242,3.675-0.903,2.157-2.157
			c-3.098-2.556-10.63-1.213-11.701,3.057C333.708,336.064,336.65,336.874,337.128,334.966L337.128,334.966z"/>
	</g>
	<g>
		<path d="M342.618,315.78c0.037,5.586,0.552,11.105,1.485,16.611c0.328,1.938,3.267,1.114,2.94-0.811
			c-0.885-5.24-1.339-10.486-1.375-15.801C345.655,313.814,342.604,313.814,342.618,315.78L342.618,315.78z"/>
	</g>
	<g>
		<path d="M344.007,364.11c2.617,38.663,5.94,77.275,8.715,115.927c0.14,1.951,3.192,1.963,3.051,0
			c-2.775-38.651-6.098-77.264-8.715-115.927C346.925,362.159,343.873,362.147,344.007,364.11L344.007,364.11z"/>
	</g>
	<g>
		<path d="M379.617,430.515c2.711,17.667,5.419,35.332,8.243,52.978c0.31,1.939,3.249,1.114,2.94-0.81
			c-2.823-17.648-5.531-35.315-8.241-52.978C382.262,427.766,379.322,428.591,379.617,430.515L379.617,430.515z"/>
	</g>
	<g>
		<path d="M363.455,324.098c4.811,31.948,9.658,63.891,14.541,95.823c0.295,1.939,3.235,1.114,2.94-0.81
			c-4.883-31.937-9.727-63.877-14.541-95.824C366.104,321.348,363.164,322.176,363.455,324.098L363.455,324.098z"/>
	</g>
	<g>
		<path d="M372.951,384.332c5.608,12.6,14.572,36.561,31.569,37.135c9.407,0.319,17.74-4.152,25.594-8.865
			c10.617-6.373,20.184-14.237,29.695-22.114c1.517-1.257-0.653-3.401-2.157-2.157c-13.782,11.416-29.218,25.359-47.09,29.705
			c-19.053,4.636-29.039-21.905-34.978-35.243C374.786,380.999,372.157,382.551,372.951,384.332L372.951,384.332z"/>
	</g>
	<g>
		<path d="M370.313,301.684c10.373,28.534,24.211,55.882,37.936,82.915c0.891,1.754,3.523,0.211,2.633-1.541
			c-13.604-26.796-27.346-53.904-37.626-82.184C372.589,299.041,369.64,299.832,370.313,301.684L370.313,301.684z"/>
	</g>
	<g>
		<path d="M408.993,381.791c13.792-4.799,27.482-14.289,39.07-23.034c1.549-1.168,0.031-3.819-1.54-2.634
			c-11.335,8.555-24.835,18.026-38.34,22.727C406.336,379.492,407.129,382.441,408.993,381.791L408.993,381.791z"/>
	</g>
	<g>
		<path d="M446.404,357.946c10.104,8.47,12.327,18.893,12.047,31.716c-0.042,1.967,3.009,1.964,3.051,0
			c0.297-13.605-2.292-24.946-12.94-33.873C447.063,354.535,444.894,356.682,446.404,357.946L446.404,357.946z"/>
	</g>
	<g>
		<path d="M437.561,366.574c3.586,2.234,4.408,8.506,5.487,12.269c1.514,5.272,1.886,10.712,1.575,16.158
			c-0.112,1.966,2.938,1.957,3.05,0c0.416-7.257-0.676-14.098-2.914-20.997c-1.266-3.896-1.952-7.754-5.658-10.063
			C437.426,362.897,435.895,365.537,437.561,366.574L437.561,366.574z"/>
	</g>
	<g>
		<path d="M294.588,316.457c3.463,5.947,5.858,12.385,8.045,18.89c0.471,1.401,2.517,1.508,2.94,0
			c1.677-5.96,7.12-9.693,9.007-15.61c0.601-1.878-2.346-2.677-2.942-0.811c-1.876,5.886-7.309,9.575-9.005,15.611
			c0.98,0,1.96,0,2.94,0c-2.268-6.748-4.758-13.451-8.352-19.621C296.232,313.218,293.596,314.752,294.588,316.457L294.588,316.457z
			"/>
	</g>
	<g>
		<path d="M306.502,311.193c3.387,5.393,7.921,11.468,9.242,17.775c0.941,4.492,1.417,9.104,1.981,13.656
			c2.005,16.173,3.617,32.401,5.258,48.616c2.845,28.104,4.271,56.711,8.678,84.625c0.305,1.939,3.245,1.114,2.94-0.81
			c-4.534-28.72-5.964-58.175-8.898-87.09c-1.64-16.161-3.265-32.332-5.318-48.446c-0.502-3.935-0.974-7.9-1.787-11.787
			c-1.344-6.403-6.033-12.621-9.463-18.08C308.091,307.992,305.451,309.522,306.502,311.193L306.502,311.193z"/>
	</g>
	<g>
		<path d="M328.127,287.278c-0.839,7.664-2.785,15.123-4.33,22.663c-0.394,1.922,2.547,2.738,2.94,0.812
			c1.601-7.813,3.57-15.532,4.44-23.474C331.391,285.323,328.338,285.344,328.127,287.278L328.127,287.278z"/>
	</g>
	<g>
		<path d="M321.318,319.474c-1.406,5.176-3.524,10.129-4.385,15.444c-0.313,1.925,2.627,2.749,2.94,0.81
			c0.861-5.314,2.98-10.269,4.385-15.442C324.775,318.384,321.833,317.578,321.318,319.474L321.318,319.474z"/>
	</g>
	<g>
		<path d="M331.996,287.301c2.764,6.652,4.563,13.565,6.101,20.59c0.42,1.921,3.36,1.107,2.94-0.811
			c-1.537-7.026-3.333-13.938-6.101-20.59C334.192,284.701,331.238,285.484,331.996,287.301L331.996,287.301z"/>
	</g>
	<g>
		<path d="M322.914,326.487c1.315-1.372,3.142-2.02,4.825-0.905c1.646,1.09,3.173-1.553,1.541-2.634
			c-2.802-1.854-6.304-0.933-8.522,1.382C319.396,325.751,321.551,327.911,322.914,326.487L322.914,326.487z"/>
	</g>
	<g>
		<path d="M312.738,353.03c-1.028,3.213-1.329,8.995,1.752,11.24c1.397,1.017,2.824-0.422,3.328-1.62
			c0.578-1.377,0.771-2.952,0.835-4.433c0.094-2.101-0.533-7.78-3.971-5.786c-2.921,1.694-1.759,7.189-1.181,9.799
			c0.425,1.922,3.367,1.107,2.94-0.811c-0.39-1.764-0.7-3.732-0.429-5.534c0.042-0.275,0.092-0.647,0.292-0.862
			c-1.037-0.543-1.405-0.611-1.105-0.205c0.066,0.188,0.123,0.38,0.166,0.575c0.219,0.843,0.234,1.752,0.243,2.618
			c0.006,0.709-0.096,1.419-0.226,2.112c-0.076,0.408-0.185,0.809-0.307,1.205c-0.278,0.897,1.153,0.595,0.779-0.015
			c-1.197-1.955-0.835-5.404-0.174-7.473C316.281,351.965,313.334,351.166,312.738,353.03L312.738,353.03z"/>
	</g>
	<g>
		<path d="M318.905,394.194c-3.331,1.835-3.331,9.398-0.691,11.8c0.644,0.587,1.514,0.571,2.157,0
			c2.793-2.471,1.874-7.353,1.028-10.508c-0.407-1.52-2.476-1.389-2.941,0c-0.638,1.9-0.688,3.885-0.691,5.872
			c-0.003,1.966,3.047,1.966,3.051,0c0.003-1.73,0.027-3.405,0.581-5.062c-0.98,0-1.96,0-2.941,0c0.542,2.022,1.588,5.92-0.244,7.54
			c0.72,0,1.439,0,2.157,0c-1.179-1.072-1.461-6.164,0.074-7.01C322.167,395.879,320.628,393.243,318.905,394.194L318.905,394.194z"
			/>
	</g>
	<g>
		<path d="M322.447,445.773c-2.344,0.844-2.126,4.437-2.078,6.436c0.053,2.139,0.112,5.38,2.445,6.343
			c4.57,1.886,3.023-9.382,1.99-11.187c-0.721-1.261-2.309-0.78-2.787,0.363c-0.724,1.73-0.596,3.533-0.437,5.362
			c0.17,1.945,3.224,1.96,3.051,0c-0.137-1.57-0.296-3.06,0.328-4.552c-0.93,0.122-1.859,0.244-2.789,0.366
			c0.557,0.968,0.603,2.356,0.691,3.443c0.063,0.793,0.293,3.11-0.098,3.584c0.11-0.134,1.013-0.411,1.189-0.172
			c-0.146-0.197-0.173-0.501-0.23-0.73c-0.193-0.793-0.241-1.615-0.286-2.425c-0.05-0.902-0.033-1.809,0.029-2.712
			c0.021-0.304,0.064-0.599,0.121-0.899c0.126-0.688,0.378-0.532-0.328-0.279C325.094,448.056,324.303,445.107,322.447,445.773
			L322.447,445.773z"/>
	</g>
	<g>
		<path d="M335.472,334.141c3.143,12.256,6.941,24.366,11.052,36.327c6.137,17.854,12.979,37.559,24.906,52.483
			c15.25,19.082,42.585,25.411,65.383,18.762c26.625-7.77,39.683-30.369,43.787-56.386c0.304-1.921-2.634-2.749-2.94-0.81
			c-1.921,12.182-5.419,23.841-12.416,34.123c-8.244,12.118-22.353,18.985-36.344,21.908c-23.827,4.972-48.374-7.41-60.628-27.694
			c-14.446-23.913-22.947-52.578-29.858-79.524C337.925,331.426,334.983,332.233,335.472,334.141L335.472,334.141z"/>
	</g>
	<g>
		<path d="M343.203,331.532c2.777,13.466,6.456,26.79,10.639,39.88c5.723,17.917,12.715,40.293,27.593,52.892
			c8.84,7.486,23.316,10.966,34.458,12.741c10.221,1.627,20.638,0.497,29.888-4.242c17.009-8.72,24.245-29.147,27.709-46.673
			c0.379-1.923-2.559-2.742-2.939-0.812c-3.42,17.288-10.097,35.753-26.31,44.848c-10.216,5.732-22.575,5.179-33.639,2.789
			c-11.504-2.484-24.103-6.596-31.935-15.774c-12.304-14.416-18.353-34.871-23.783-52.656c-3.393-11.115-6.392-22.417-8.739-33.803
			C345.747,328.796,342.807,329.612,343.203,331.532L343.203,331.532z"/>
	</g>
	<g>
		<path d="M347.845,308.569c3.992,11.245,6.92,22.845,11.287,33.96c0.711,1.811,3.662,1.021,2.942-0.81
			c-4.365-11.115-7.295-22.717-11.289-33.961C350.132,305.919,347.183,306.711,347.845,308.569L347.845,308.569z"/>
	</g>
	<g>
		<path d="M340.307,288.904c1.257,4.128,2.919,8.1,4.628,12.06c0.777,1.801,3.405,0.246,2.633-1.54
			c-1.604-3.719-3.139-7.455-4.321-11.331C342.676,286.216,339.732,287.017,340.307,288.904L340.307,288.904z"/>
	</g>
	<g>
		<path d="M360.604,341.362c-7.839-0.68-11.01,15.044-1.78,14.742c1.961-0.062,1.967-3.112,0-3.05
			c-4.955,0.161-2.269-8.994,1.78-8.643C362.564,344.582,362.548,341.53,360.604,341.362L360.604,341.362z"/>
	</g>
	<g>
		<path d="M348.908,379.369c-1.329,11.744-1.205,23.521-1.18,35.318c0.003,1.969,3.054,1.969,3.051,0
			c-0.025-11.798-0.149-23.574,1.18-35.318C352.181,377.415,349.127,377.437,348.908,379.369L348.908,379.369z"/>
	</g>
	<g>
		<path d="M357.746,353.502c-2.656,3.324-4.426,7.094-5.778,11.109c-0.628,1.87,2.318,2.666,2.942,0.81
			c1.172-3.482,2.686-6.873,4.993-9.763C361.116,354.14,358.973,351.965,357.746,353.502L357.746,353.502z"/>
	</g>
	<g>
		<path d="M454.584,363.867c4.517-7.163,14.368-8.882,22.162-9.457c9.744-0.718,18.235,3.089,27.467,5.202
			c1.916,0.438,2.729-2.504,0.811-2.944c-15.786-3.61-41.851-12.146-53.073,5.659C450.896,363.997,453.538,365.525,454.584,363.867
			L454.584,363.867z"/>
	</g>
	<g>
		<path d="M503.43,359.292c1.955,4.16-8.174,2.39-9.018,2.197c-2.24-0.511-5.285-1.717-7.604-0.858
			c-3.896,1.442-6.81,4.275-8.064,8.289c-0.589,1.882,2.354,2.682,2.941,0.811c0.998-3.185,3.613-5.931,7.209-6.258
			c1.874-0.17,4.547,0.922,6.42,1.35c2.213,0.504,4.457,0.495,6.677,0.091c3.297-0.601,5.466-4.189,4.072-7.162
			C505.227,355.972,502.599,357.521,503.43,359.292L503.43,359.292z"/>
	</g>
	<g>
		<path d="M478.998,369.35c1.54,4.464,6.572,1.979,9.497,0.484c1.021-0.524,1.612-0.858,2.804-0.909
			c2.579-0.113,4.052,2.273,2.753,4.447c-1.409,2.362-5.276,3.322-7.761,3.889c-1.919,0.438-1.105,3.378,0.811,2.943
			c4.966-1.132,12.548-4.507,10.055-10.885c-1.064-2.719-4.368-3.752-7.043-3.359c-1.272,0.188-7.698,3.96-8.175,2.579
			C481.301,366.69,478.352,367.486,478.998,369.35L478.998,369.35z"/>
	</g>
	<g>
		<path d="M459.869,384.583c8.684,5.672,22.698,0.655,28.796-6.594c1.257-1.494-0.891-3.663-2.156-2.156
			c-5.224,6.202-17.509,11.074-25.1,6.116C459.756,380.871,458.228,383.514,459.869,384.583L459.869,384.583z"/>
	</g>
	<g>
		<path d="M464.204,356.025c9.297-5.592,20.097-6.084,30.349-3.024c1.889,0.563,2.692-2.381,0.81-2.942
			c-11.002-3.283-22.733-2.661-32.698,3.333C460.98,354.404,462.515,357.042,464.204,356.025L464.204,356.025z"/>
	</g>
	<g>
		<path d="M488.483,369.338c1.987-1.346,5.443,0.021,7.691-0.032c2.747-0.065,4.294-1.866,4.407-4.524
			c0.086-1.967-2.967-1.96-3.051,0c-0.099,2.332-3.185,1.408-4.776,1.215c-1.941-0.236-4.107-0.447-5.812,0.709
			C485.326,367.802,486.848,370.447,488.483,369.338L488.483,369.338z"/>
	</g>
	<g>
		<path d="M496.673,354.104c-0.134-3.606,1.746-4.303,5.643-2.089c0.84,1.402,1.26,3.263,1.698,4.832
			c0.777,2.796,0.975,5.705,0.983,8.593c0.006,3.193-0.724,6.315-2.06,9.202c-1.28,2.773-6.035,6.783-6.985,1.459
			c-0.346-1.933-3.286-1.11-2.94,0.812c0.857,4.808,4.722,6.231,8.84,3.771c5.264-3.142,6.204-11.338,6.192-16.774
			c-0.015-5.414-1.241-13.635-6.199-16.778c-4.575-2.901-8.022,3.412-8.222,6.974C493.512,356.069,496.562,356.061,496.673,354.104
			L496.673,354.104z"/>
	</g>
	<g>
		<path d="M498.133,349.652c7.621-9.408,11.619,6.821,12.273,12.004c0.424,3.362-0.184,6.807-1.057,10.036
			c-1.178,4.35-10.187,15.456-13.684,6.506c-0.709-1.811-3.658-1.023-2.94,0.812c2.056,5.267,6.98,6.112,11.869,3.961
			c6.482-2.851,8.499-11.7,8.94-17.958c0.59-8.371-6.941-30.625-17.56-17.517C494.752,349.01,496.896,351.184,498.133,349.652
			L498.133,349.652z"/>
	</g>
	<g>
		<path d="M497.502,309.458c-3.665,4.429-8.488,22.225,2.153,21.904c9.006-0.271,18.399-11.344,25.054-16.268
			c10.23-7.569,21.767-13.419,34.145-16.433c1.913-0.466,1.103-3.407-0.811-2.942c-13.728,3.342-25.922,10.117-37.221,18.478
			c-4.236,3.134-17.506,17.663-23.16,13.228c-3.971-3.117-0.477-12.819,1.996-15.811
			C500.903,310.114,498.759,307.942,497.502,309.458L497.502,309.458z"/>
	</g>
	<g>
		<path d="M500.543,330.724c-0.924,2.481-1.508,5.053-2.098,7.626c-0.44,1.916,2.5,2.729,2.94,0.811
			c0.594-2.574,1.174-5.145,2.098-7.627C504.172,329.687,501.223,328.897,500.543,330.724L500.543,330.724z"/>
	</g>
	<g>
		<path d="M489.804,308.584c-7.303,3.885-13.261,8.08-16.851,15.737c-4.507,9.622-7.62,20.604-10.825,30.728
			c-0.597,1.882,2.347,2.68,2.939,0.812c2.524-7.962,5.601-15.725,8.258-23.641c3.478-10.356,8.417-15.892,18.019-21.002
			C493.08,310.293,491.537,307.659,489.804,308.584L489.804,308.584z"/>
	</g>
	<g>
		<path d="M483.765,327.482c-2.884,8.335-6.203,16.51-8.616,25.003c-0.539,1.896,2.405,2.7,2.941,0.812
			c2.415-8.493,5.731-16.669,8.615-25.005C487.349,326.429,484.402,325.635,483.765,327.482L483.765,327.482z"/>
	</g>
	<g>
		<path d="M454.974,392.498c-2.886,13.132-8.468,25.332-12.966,37.942c-0.662,1.858,2.285,2.651,2.941,0.81
			c4.498-12.609,10.079-24.81,12.966-37.941C458.335,391.394,455.394,390.577,454.974,392.498L454.974,392.498z"/>
	</g>
	<g>
		<path d="M445.21,435.669c-6.237,16.03-8.702,32.904-7.726,50.055c0.112,1.958,3.162,1.966,3.051,0
			c-0.962-16.892,1.477-33.461,7.614-49.244C448.865,434.645,445.914,433.857,445.21,435.669L445.21,435.669z"/>
	</g>
	<g>
		<path d="M494.323,388.137c-6.427,0.065-12.847,4.255-17.95,7.772c-1.605,1.108-0.083,3.754,1.541,2.634
			c4.635-3.196,10.572-7.296,16.409-7.355C496.289,391.17,496.291,388.119,494.323,388.137L494.323,388.137z"/>
	</g>
	<g>
		<path d="M557.113,361.444c3.402,40.269,2.136,80.678-1.525,120.881c-0.179,1.96,2.875,1.942,3.051,0
			c3.661-40.203,4.928-80.612,1.525-120.881C560.001,359.499,556.95,359.484,557.113,361.444L557.113,361.444z"/>
	</g>
	<g>
		<path d="M553.366,372.438c3.846,3.009,4.879,7.62,5.272,12.268c0.167,1.945,3.218,1.963,3.051,0
			c-0.456-5.392-1.692-10.927-6.166-14.425C553.994,369.084,551.816,371.228,553.366,372.438L553.366,372.438z"/>
	</g>
	<g>
		<path d="M557.709,298.932c5.413-2.029,14.006,5.473,17.336,8.674c5.577,5.356,8.973,12.738,11.502,19.909
			c5.434,15.416,6.855,32.601,8.512,48.724c3.61,35.13,2.467,70.479,1.332,105.705c-0.062,1.969,2.988,1.964,3.051,0
			c1.322-41.043,2.312-82.104-3.367-122.897c-2.178-15.628-4.478-31.68-12.59-45.503c-3.179-5.419-7.646-9.853-12.795-13.387
			c-3.083-2.118-9.774-5.669-13.79-4.166C555.076,296.674,555.865,299.624,557.709,298.932L557.709,298.932z"/>
	</g>
	<g>
		<path d="M480.02,235.291c-5.105-5.551-15.342-3.104-16.346,4.603c-0.942,7.242,9.834,10.042,15.101,9.005
			c1.931-0.379,1.111-3.32-0.81-2.942c-3.647,0.719-9.712-0.683-11.101-4.618c-0.873-2.47,1.275-4.87,3.444-5.618
			c2.547-0.88,5.722-0.265,7.555,1.728C479.197,238.898,481.349,236.735,480.02,235.291L480.02,235.291z"/>
	</g>
	<g>
		<path d="M468.86,271.588c5.595-1.776,11.172-2.448,16.73-0.191c1.823,0.741,2.609-2.212,0.81-2.942
			c-6.005-2.439-12.303-1.729-18.351,0.191C466.182,269.239,466.979,272.185,468.86,271.588L468.86,271.588z"/>
	</g>
	<g>
		<path d="M489.047,230.077c10.334-0.115,20.514,0.676,30.673,2.615c1.922,0.367,2.743-2.573,0.811-2.942
			c-10.421-1.989-20.875-2.842-31.483-2.724C487.08,227.048,487.08,230.099,489.047,230.077L489.047,230.077z"/>
	</g>
	<g>
		<path d="M445.981,229.26c9.377-1.79,18.949-1.649,28.36-0.19c1.925,0.298,2.75-2.641,0.811-2.942
			c-9.983-1.547-20.038-1.708-29.981,0.19C443.239,226.687,444.06,229.627,445.981,229.26L445.981,229.26z"/>
	</g>
	<g>
		<path d="M448.817,226.328c0.11-9.607,2.382-22.027,12.852-25.568c6.062-2.052,9.58,4.536,10.77,9.256
			c1.385,5.499,0.521,11.37-1.195,16.669c-0.607,1.877,2.339,2.674,2.94,0.81c3.144-9.704,3.565-29.13-10.486-30.069
			c-5.506-0.367-10.206,4.587-13.062,8.642c-4.053,5.755-4.791,13.447-4.869,20.26C445.744,228.296,448.795,228.294,448.817,226.328
			L448.817,226.328z"/>
	</g>
	<g>
		<path d="M491.725,226.049c-1.647-8.857,5.253-18.036,12.266-22.683c6.241-4.134,9.259,2.417,10.471,7.35
			c1.46,5.951,0.069,12.468-1.399,18.256c-0.486,1.908,2.458,2.716,2.94,0.811c1.916-7.541,2.928-15.199,0.602-22.77
			c-1.239-4.042-4.669-8.855-9.527-7.981c-11.112,1.999-20.288,17.108-18.291,27.827
			C489.145,228.792,492.085,227.972,491.725,226.049L491.725,226.049z"/>
	</g>
	<g>
		<path d="M500.32,194.496c5.297-1.127,10.977-0.148,15.729,2.388c1.736,0.925,3.276-1.708,1.539-2.634
			c-5.502-2.936-11.96-3.998-18.08-2.696C497.585,191.964,498.401,194.904,500.32,194.496L500.32,194.496z"/>
	</g>
	<g>
		<path d="M461.915,190.529c3.728-1.725,8.852-1.937,12.006,1.033c1.431,1.347,3.594-0.806,2.157-2.157
			c-4.227-3.979-10.686-3.832-15.702-1.51C458.595,188.72,460.143,191.35,461.915,190.529L461.915,190.529z"/>
	</g>
	<g>
		<path d="M450.629,225.978c-0.473-4.578,4.694-7.545,8.406-8.761c5.556-1.82,11.776,2.491,12.471,8.189
			c0.234,1.927,3.288,1.95,3.051,0c-0.886-7.249-7.306-12.208-14.512-11.491c-5.622,0.56-13.113,5.792-12.467,12.062
			C447.777,227.916,450.83,227.935,450.629,225.978L450.629,225.978z"/>
	</g>
	<g>
		<path d="M492.901,226.335c-0.941-2.318,4.854-5.287,6.357-5.908c5.911-2.441,14.011,1.6,12.534,8.768
			c-0.396,1.919,2.543,2.737,2.939,0.811c1.687-8.181-5.592-14.048-13.316-13.232c-3.777,0.399-13.579,5.149-11.455,10.372
			C490.69,228.944,493.644,228.159,492.901,226.335L492.901,226.335z"/>
	</g>
	<g>
		<path d="M476.722,249.523c7.96,8.243,23.973,10.246,34.761,11.124c1.963,0.16,1.948-2.892,0-3.051
			c-9.879-0.804-25.316-2.684-32.604-10.23C477.508,245.948,475.354,248.108,476.722,249.523L476.722,249.523z"/>
	</g>
	<g>
		<path d="M476.9,259.168c11.414,6.562,24.482,8.28,36.369,1.525c1.711-0.971,0.173-3.606-1.54-2.633
			c-10.945,6.219-22.812,4.499-33.289-1.525C476.733,255.552,475.196,258.188,476.9,259.168L476.9,259.168z"/>
	</g>
	<g>
		<path d="M473.344,246.874c-11.258,5.13-22.774,9.781-35.457,8.562c-1.959-0.188-1.939,2.864,0,3.051
			c13.203,1.27,25.277-3.638,36.997-8.979C476.672,248.692,475.119,246.064,473.344,246.874L473.344,246.874z"/>
	</g>
	<g>
		<path d="M436.67,256.73c1.926,4.929,8.924,5.758,13.532,6.198c9.029,0.863,18.184,0.147,26.079-4.651
			c1.677-1.02,0.146-3.659-1.541-2.634c-5.567,3.383-11.538,4.416-17.976,4.594c-3.462,0.096-15.402,0.16-17.154-4.318
			C438.903,254.109,435.952,254.896,436.67,256.73L436.67,256.73z"/>
	</g>
	<g>
		<path d="M475.122,257.643c0.173,0.125,0.346,0.296,0.471,0.47c0.485,0.673,1.316,0.998,2.086,0.547
			c0.664-0.39,1.036-1.412,0.548-2.087c-0.456-0.628-0.936-1.109-1.563-1.563c-0.677-0.488-1.698-0.119-2.089,0.547
			C474.125,256.325,474.449,257.158,475.122,257.643L475.122,257.643z"/>
	</g>
	<g>
		<path d="M448.49,262.657c-1.632,8.598-2.859,18.865,4.265,25.392c6.086,5.575,15.477,2.842,18.542-4.388
			c0.76-1.788-1.868-3.346-2.634-1.541c-3.032,7.15-11.293,7.487-15.827,1.516c-4.148-5.457-2.573-14.003-1.403-20.168
			C451.795,261.546,448.857,260.725,448.49,262.657L448.49,262.657z"/>
	</g>
	<g>
		<path d="M469.084,282.487c-1.413,8.269,9.429,12.011,12.473,3.67c-0.929,0.122-1.858,0.242-2.787,0.363
			c1.56,2.396,1.889,5.859,5.448,5.859c2.788,0,3.962-3.05,4.394-5.269c-0.979,0-1.96,0-2.939,0
			c1.408,7.042,11.447,11.868,16.119,4.722c4.592-7.025,3-16.666,2.699-24.576c-0.074-1.961-3.125-1.968-3.051,0
			c0.164,4.294,0.495,8.557,0.34,12.859c-0.095,2.673-0.519,5.289-1.358,7.828c-2.172,6.541-10.501,4.884-11.81-1.644
			c-0.292-1.457-2.657-1.467-2.939,0c-0.936,4.797-4.108-1.072-4.27-1.32c-0.751-1.152-2.333-0.882-2.786,0.366
			c-3.938,3.619-6.134,2.935-6.593-2.049C472.352,281.372,469.411,280.55,469.084,282.487L469.084,282.487z"/>
	</g>
	<g>
		<path d="M443.725,261.132c-4.651,12.258,1.297,31.128,9.847,40.445c9.443,10.291,25.248,11.104,38.145,9.723
			c1.937-0.206,1.954-3.26,0-3.051c-11.162,1.197-22.576,0.696-32.23-5.626c-10.996-7.199-17.44-28.501-12.821-40.681
			C447.365,260.1,444.414,259.311,443.725,261.132L443.725,261.132z"/>
	</g>
	<g>
		<path d="M506.97,262.49c-0.037,14.415,6.487,46.914-16.397,45.885c-1.966-0.087-1.958,2.963,0,3.051
			c25.59,1.152,19.408-32.704,19.447-48.936C510.025,260.522,506.975,260.523,506.97,262.49L506.97,262.49z"/>
	</g>
	<g>
		<path d="M503.322,306.86c16.451,5.302,37.993,0.711,51.315-10.336c13.421-11.127,19.492-27.256,20.589-44.33
			c0.128-1.965-2.925-1.953-3.051,0c-0.959,14.973-5.89,29.065-16.806,39.677c-12.538,12.192-34.742,17.364-51.237,12.047
			C502.256,303.314,501.457,306.259,503.322,306.86L503.322,306.86z"/>
	</g>
	<g>
		<path d="M562.5,240.812c-4.299-9.586,14.32-15.195,14.982-3.783c0.324,5.611-3.972,12.778-10.303,11.598
			c-1.921-0.358-2.743,2.581-0.811,2.942c9.71,1.81,16.159-9.482,13.579-18c-3.818-12.606-25.769-3.893-20.082,8.783
			C560.667,244.143,563.298,242.59,562.5,240.812L562.5,240.812z"/>
	</g>
	<g>
		<path d="M568.494,240.499c0.286,0.313,0.375,0.58,0.143,0.948c-1.055,1.67,1.588,3.199,2.633,1.541
			c0.975-1.547,0.57-3.353-0.619-4.645C569.316,236.891,567.165,239.053,568.494,240.499L568.494,240.499z"/>
	</g>
	<g>
		<path d="M538.638,206.746c-6.405,10.481-0.608,23.978,11.403,25.947c-0.759-0.125-1.496,5.599-1.392,6.378
			c0.346,2.557,0.921,4.351,2.938,5.971c3.444,2.766,8.822,0.165,11.762-2.017c1.562-1.158,0.042-3.808-1.54-2.634
			c-4.931,3.658-11.66,3.594-9.587-4.783c0.337-1.357,1.406-3.864,0.125-5.146c-1.299-1.298-4.864-1.177-6.36-1.842
			c-7.46-3.324-8.467-14.196-4.716-20.333C542.302,206.602,539.662,205.07,538.638,206.746L538.638,206.746z"/>
	</g>
	<g>
		<path d="M548.113,209.73c-10.28-3.805-8.496-19.739-5.046-27.105c2.195-4.693,5.884-8.487,10.206-11.25
			c7.701-4.923,14.66,1.298,18.286,7.676c0.972,1.709,3.607,0.173,2.633-1.541c-8.809-15.494-23.71-12.023-32.615,1.528
			c-6.113,9.303-7.03,28.914,5.727,33.634C549.15,213.357,549.943,210.408,548.113,209.73L548.113,209.73z"/>
	</g>
	<g>
		<path d="M560.608,168.427c6.357-7.57,22.132-10.041,29.788-3.249c7.145,6.337,6.068,19.087,2.646,26.949
			c-0.778,1.784,1.85,3.34,2.634,1.54c4.266-9.793,4.563-22.438-3.123-30.646c-8.129-8.687-27.128-5.054-34.102,3.249
			C557.194,167.766,559.342,169.936,560.608,168.427L560.608,168.427z"/>
	</g>
	<g>
		<path d="M597.383,179.37c11.431,3.951,11.332,23.351,6.971,31.952c-0.888,1.75,1.742,3.294,2.633,1.54
			c5.384-10.618,4.562-31.819-8.793-36.434C596.33,175.784,595.535,178.731,597.383,179.37L597.383,179.37z"/>
	</g>
	<g>
		<path d="M601.214,209.086c6.116,3.451,6.69,13.306,5.287,19.295c-1.832,7.822-11.392,16.782-19.873,14.906
			c-1.919-0.424-2.732,2.517-0.811,2.941c9.491,2.1,19.909-6.298,22.937-15.043c2.696-7.791,2.037-20.198-6-24.732
			C601.038,205.485,599.5,208.12,601.214,209.086L601.214,209.086z"/>
	</g>
	<g>
		<path d="M571.985,266.749c15.027-0.558,22.353-15.046,22.626-28.599c0.039-1.969-3.012-1.965-3.051,0
			c-0.237,11.775-6.268,25.054-19.575,25.549C570.025,263.771,570.019,266.822,571.985,266.749L571.985,266.749z"/>
	</g>
	<g>
		<path d="M441.912,229.378c-0.394-16.917,2.126-35.661,9.207-51.149c6.388-13.969,21.244-24.37,34.632-30.838
			c30.415-14.697,69.81-10.652,89.369,19.075c1.074,1.636,3.717,0.109,2.633-1.54c-19.909-30.261-58.126-34.866-89.845-21.812
			c-15.011,6.178-29.207,16.852-37.902,30.714c-9.506,15.154-11.552,38.062-11.145,55.55
			C438.907,231.342,441.957,231.346,441.912,229.378L441.912,229.378z"/>
	</g>
	<g>
		<path d="M439.658,227.426c-9.946,6.766-8.855,25.981-7.068,36.198c2.425,13.865,10.551,26.76,22.828,33.802
			c1.71,0.98,3.247-1.656,1.541-2.633c-10.731-6.156-17.209-16.387-20.541-28.102c-1.591-5.595-2.002-11.44-1.79-17.227
			c0.197-5.421,1.58-16.01,6.57-19.405C442.814,228.96,441.289,226.315,439.658,227.426L439.658,227.426z"/>
	</g>
	<path d="M514.271,224.933c-1.891-4.812-6.253-6.918-11.306-6.613c-1.117,0.067-2.067,0.572-2.74,1.298h-0.004
		c-0.297,0.091-0.58,0.212-0.875,0.312c-1.862,0.096-3.709,0.306-5.53,0.814c-4.141,1.158-3.318,7.516,1.017,7.49
		c3.774-0.022,7.546-0.191,11.32-0.236c0.37,0.354,0.831,0.652,1.392,0.863c0.679,0.254,1.358,0.508,2.035,0.762
		C512.167,230.596,515.299,227.552,514.271,224.933z"/>
	<path d="M470.678,220.49c-0.093-0.016-0.186-0.024-0.278-0.04c-0.153-0.259-0.342-0.514-0.583-0.759
		c-5.348-5.467-15.783-3.975-20.225,1.789c-1.928,2.502,0.771,5.547,3.294,5.737c5.229,0.394,10.585-0.272,15.763,0.626
		C473.46,228.679,475.516,221.33,470.678,220.49z"/>
	<path d="M606.627,186.146c-1.072-4.415-3.337-8.307-7.15-9.791c-1.111-0.432-2.195-0.47-3.202-0.226
		c-0.039-1.677-0.215-3.349-0.548-4.987c-1.299-6.419-8.539-13.352-14.574-9.948c-8.467-2.081-18.989,0.249-21.629,7.632
		c-12.128,0.839-18.872,13.563-19.837,24.562c-0.438,5.025,0.711,9.757,2.973,13.866c-1.717-0.285-3.513,0.466-3.968,2.679
		c-1.776,8.645,0.682,16.126,9.127,19.813c4.231,1.849-0.956,16.187,8.908,13.474c8.448-2.324,3.295-14.024,13.803-14.804
		c9.181-0.681,12.776,10.199,7.212,16.515c-1.463,1.663-2.401,3.202-3.116,4.741c-0.825-0.099-1.736,0.368-1.748,1.441
		c-0.019,1.408-0.225,2.784-0.454,4.17c-0.026,0.163-0.021,0.323-0.012,0.481c-0.047,0.137-0.104,0.284-0.154,0.423
		c1.015,1.26,1.399,2.987,1.036,4.691c-0.25,1.178-0.676,2.303-0.986,3.463c0.555,0.381,1.252,0.584,2.095,0.499
		c9.474-0.956,14.104-10.287,16.277-19.963c1.239,0.252,2.563,0.098,3.703-0.596c1.508-0.916,2.938-1.997,4.207-3.223
		c9.703-6.284,12.352-21.448,7.142-31.64C609.103,202.314,610.095,192.534,606.627,186.146z"/>
	<path d="M508.629,288.475c-0.182-0.382-0.462-0.626-0.775-0.807c0.167-0.981,0.298-1.96,0.411-2.908
		c0.805-6.82,1.314-13.549-0.298-20.272c-0.315-1.32-1.418-1.767-2.451-1.594c-0.015-0.067-0.033-0.132-0.057-0.195
		c0.646-0.088,1.293-0.173,1.927-0.29c2.901-0.537,1.669-4.946-1.216-4.413c-2.973,0.551-6.079,0.719-9.148,0.478
		c-0.077-0.788-0.584-1.472-1.647-1.622c-2.252-0.317-5.345-0.371-8.267-0.825c-3.402-1.522-6.456-3.75-8.836-6.785
		c-0.686-0.876-1.57-0.956-2.312-0.592c-3.537-0.436-6.939,1.598-10.192,2.945c-5.348,2.214-10.659,4.623-16.343,5.187
		c-1.69-0.037-3.368-0.069-4.993-0.012c-3.013,0.105-2.873,4.252,0,4.576c0.467,0.053,0.93,0.076,1.392,0.102
		c-3.766,8.181-2.196,21.259,1.908,29.08c0.936,1.785,2.29,2.88,3.873,3.521c1.251,4.06,4.489,7.637,8.482,9.049
		c2.118,3.128,6.071,4.485,10.134,4.951c0.353,0.611,0.972,1.08,1.856,1.153c6.718,0.562,13.126,0.629,19.272-0.921
		c0.348,0.356,0.729,0.686,1.183,0.991c0.995,0.668,2.133,0.245,2.869-0.521c6.929,0.318,11.431-6.314,12.972-13.02
		C509.496,293.45,509.79,290.906,508.629,288.475z M503.689,284.76c-0.236,2.991-2.509,7.2-5.333,9.309
		c-0.331-0.221-0.739-0.366-1.237-0.374c-1.501-0.022-3.008,0.356-4.322,1.065c-0.834-0.508-1.638-1.345-2.377-2.601
		c-0.625-1.06-1.129-1.77-1.979-2.624c-1.132-1.135-2.726-0.696-3.593,0.464c-1.269-0.339-2.538-0.68-3.805-1.019
		c-0.518-1.221-2.117-1.292-3.13-0.821c-2.175-0.488-4.353-0.979-6.531-1.467c-0.708-1.029-1.986-1.479-3.128-0.821
		c-2.187,1.262-5.216,2.906-8.222,3.668c-1.675-0.548-3.378-1.031-5.24-1.184c-0.165-0.013-0.319,0.012-0.472,0.04
		c-4.571-7.45-4.809-17.118-4.105-26.097c0.028-0.353-0.058-0.659-0.188-0.941c0.346-0.035,0.689-0.083,1.031-0.129
		c3.721-0.047,7.427-0.147,11.143-0.711c4.727-0.718,9.452-2.784,13.941-4.75c1.067,1.007,2.204,1.978,2.599,2.215
		c1.909,1.152,4.093,1.776,6.354,2.184c4.979,2.214,10.611,3.09,16.117,2.899c-0.09,0.374-0.132,0.768-0.072,1.176
		c0.158,1.131,0.286,2.39,0.298,3.586c0.018,1.688,1.523,2.407,2.8,2.164C504.698,274.907,504.082,279.741,503.689,284.76z"/>
	<path d="M386.038,205.491c0.036-2.417,0.049-4.836,0.05-7.254c0-1.097-0.594-1.929-1.406-2.438
		c-0.346-1.105-1.271-1.989-2.789-1.947c-6.168,0.173-10.55,6.911-10.982,13.1C375.929,206.187,380.969,205.716,386.038,205.491z"/>
	<path d="M336.516,200.241c-0.006-1.099-1.023-1.857-2.221-2.155c-0.858-0.808-2.333-1.281-3.894-0.733
		c-4.292,1.505-7.061,4.103-8.293,7.57c-1.014,2.855-1.312,6.569,1.31,8.948c1.849,1.679,4.429,1.13,6.244-0.112
		c1.365,0.593,3.161,0.272,4.15-0.829C337.039,209.337,336.539,204.392,336.516,200.241z"/>
	<path d="M385.262,134.428c-0.051,0.002-0.095,0.015-0.146,0.02c-1.114-0.449-2.266-0.79-3.429-1.02
		c-2.352-0.8-4.762-1.028-7.41-0.55c-0.657-0.171-1.35-0.095-1.968,0.322c0.194-0.332,0.407-0.654,0.595-0.989
		c3.469-6.172,7.401-15.796,3.439-22.56c-2.226-3.799-5.61-5.202-8.842-4.878c-0.396-0.295-0.792-0.591-1.235-0.871
		c-11.524-7.296-28.75-4.134-41.213-1.515c-1.388,0.292-2.768,0.626-4.143,0.979c-0.541-0.085-1.111-0.13-1.744-0.08
		c-10.86,0.855-20.529,5.097-29.412,10.859c-1.202-0.052-2.492,0.281-3.796,1.137c-1.34,0.877-2.633,1.792-3.908,2.725
		c-6.59,3.148-13.033,6.581-19.236,10.444c-13.141,8.185-29.973,22.85-23.89,39.192c-0.256-0.146-0.517-0.274-0.768-0.432
		c-2.794-1.742-6.402-2.905-9.702-2.169c-5.036,1.123-8.354,4.947-10.395,9.788c-0.713,0.154-1.374,0.607-1.817,1.466
		c-5.014,9.745-4.488,20.833-1.68,31.59c-0.054,0.258-0.085,0.531-0.07,0.837c0.253,5.337,1.548,10.182,3.442,14.76
		c0.981,2.692,2.144,5.324,3.426,7.917c2.698,6.194,5.643,12.118,10.073,17.178c-0.092,0.607,0.024,1.264,0.444,1.914
		c2.085,3.21,4.546,5.815,7.342,8.435c0.196,0.183,0.407,0.322,0.623,0.439c1.342,1.24,2.751,2.412,4.199,3.547
		c1.084,1.16,2.258,2.207,3.658,2.98c0.03,0.151,0.044,0.309,0.077,0.458c0.821,3.847,6.703,2.215,5.884-1.622
		c-0.161-0.758-0.262-1.56-0.342-2.378c0.833-4.568,1.055-9.304-0.04-13.828c-0.03-0.123-0.078-0.229-0.12-0.341
		c0.07-0.871,0.089-1.755,0.037-2.661c-0.076-1.298-0.984-2.335-2.083-2.8c-1.304-1.691-3.475-2.709-6.877-2.92
		c-0.198-0.012-0.379-0.002-0.558,0.013c-2.04-4.371-4.74-8.66-6.224-12.836c-0.327-0.917-1.135-1.596-2.051-1.936
		c-0.011-0.309-0.018-0.616-0.027-0.926c0.389-0.469,0.645-1.084,0.661-1.856c0.046-2.112,0.788-4.031,2.063-5.706
		c0.607-0.801,0.551-1.874,0.131-2.769c0.482-1.658,1.153-3.035,1.969-4.142c0.244,0.104,0.53,0.078,0.761-0.19
		c0.949-1.103,2.125-1.94,3.241-2.86c0.061-0.049,0.091-0.105,0.128-0.159c6.439-2.518,15.073,2.395,15.322,8.844
		c0.058,1.521,1.539,2.472,2.879,2.952c0.739,4.592,7.984,6.114,8.805,0.861c1.682-10.756,2.574-21.523,2.783-32.387
		c17.103-3.75,34.288-10.046,50.003-18.476c15.649-3.373,30.539-12.642,41.079-25.047c0.462,1.53,1.948,2.729,3.614,2.116
		c0.164,0.234,0.35,0.465,0.563,0.693c0.457,0.488,0.934,0.938,1.415,1.376c1.916,4.515,5.321,8.666,9.217,11.796
		c0.426,0.585,0.842,1.177,1.248,1.778c1.663,3.435,1.791,7.149,2.333,10.906c0.391,2.691,4.403,2.862,5.577,0.729
		c0.917-1.668,1.665-3.37,2.309-5.096c3.247-1.145,4.966-4.078,5.866-7.437c0.172-0.196,0.333-0.415,0.469-0.687
		C402.542,149.861,397.646,133.818,385.262,134.428z"/>
	<g>
		<g>
			<path d="M335.856,213.808c0.179,5.821-0.289,11.638-0.106,17.459c0.062,1.962,3.112,1.968,3.051,0
				c-0.183-5.821,0.284-11.638,0.106-17.459C338.848,211.845,335.797,211.839,335.856,213.808L335.856,213.808z"/>
		</g>
		<g>
			<path d="M302.166,220.363c11.431-3.943,23.125-5.428,35.185-5.412c1.968,0.003,1.968-3.048,0-3.051
				c-12.344-0.017-24.294,1.483-35.995,5.521C299.505,218.059,300.301,221.007,302.166,220.363L302.166,220.363z"/>
		</g>
		<g>
			<path d="M299.273,218.741c-1.993,5.87-0.757,12.205,1.016,17.97c0.577,1.875,3.521,1.075,2.942-0.81
				c-1.622-5.274-2.842-10.971-1.017-16.35C302.848,217.684,299.901,216.889,299.273,218.741L299.273,218.741z"/>
		</g>
		<g>
			<path d="M301.76,237.832c12.2-0.612,24.095-1.89,35.995-4.758c1.913-0.46,1.101-3.402-0.81-2.941
				c-11.623,2.802-23.272,4.052-35.185,4.649C299.803,234.879,299.792,237.929,301.76,237.832L301.76,237.832z"/>
		</g>
	</g>
	<g>
		<g>
			<path d="M389.659,206.085c0.179,5.821-0.289,11.638-0.106,17.459c0.062,1.962,3.112,1.968,3.051,0
				c-0.183-5.821,0.285-11.638,0.106-17.459C392.65,204.123,389.6,204.117,389.659,206.085L389.659,206.085z"/>
		</g>
		<g>
			<path d="M355.968,212.641c11.431-3.943,23.125-5.428,35.185-5.412c1.968,0.003,1.968-3.047,0-3.05
				c-12.344-0.017-24.295,1.484-35.996,5.52C353.308,210.337,354.104,213.285,355.968,212.641L355.968,212.641z"/>
		</g>
		<g>
			<path d="M353.076,211.019c-1.993,5.87-0.757,12.205,1.016,17.97c0.576,1.875,3.521,1.075,2.941-0.81
				c-1.622-5.275-2.842-10.972-1.017-16.35C356.65,209.961,353.704,209.167,353.076,211.019L353.076,211.019z"/>
		</g>
		<g>
			<path d="M355.563,230.109c12.199-0.611,24.095-1.89,35.995-4.757c1.912-0.461,1.101-3.403-0.811-2.942
				c-11.623,2.802-23.271,4.052-35.185,4.648C353.606,227.157,353.595,230.208,355.563,230.109L355.563,230.109z"/>
		</g>
	</g>
	<g>
		<path d="M338.698,222.633c2.536-4.041,10.005-5.529,13.296-1.551c1.254,1.517,3.401-0.653,2.157-2.157
			c-4.582-5.541-14.583-3.417-18.086,2.167C335.016,222.765,337.657,224.295,338.698,222.633L338.698,222.633z"/>
	</g>
	<g>
		<path d="M265.144,212.868c10.972,5.158,22.013,10.344,32.541,16.365c1.71,0.979,3.247-1.658,1.541-2.633
			c-10.53-6.022-21.569-11.208-32.541-16.365C264.915,209.403,263.365,212.032,265.144,212.868L265.144,212.868z"/>
	</g>
	<g>
		<path d="M267.036,207.938c11.08,3.248,21.036,10.021,31.412,14.94c1.767,0.838,3.316-1.791,1.541-2.633
			c-10.622-5.036-20.794-11.921-32.142-15.249C265.954,204.441,265.15,207.386,267.036,207.938L267.036,207.938z"/>
	</g>
</g>
</svg>
