<?xml version="1.0" encoding="utf-8"?>
<!-- Generator: Adobe Illustrator 15.1.0, SVG Export Plug-In . SVG Version: 6.00 Build 0)  -->
<!DOCTYPE svg PUBLIC "-//W3C//DTD SVG 1.1//EN" "http://www.w3.org/Graphics/SVG/1.1/DTD/svg11.dtd">
<svg version="1.1" id="Layer_1" xmlns="http://www.w3.org/2000/svg" xmlns:xlink="http://www.w3.org/1999/xlink" x="0px" y="0px"
	 width="841.89px" height="595.28px" viewBox="0 0 841.89 595.28" enable-background="new 0 0 841.89 595.28" xml:space="preserve">
<g>
	<g>
		<path d="M436.043,175.292c-6.498,6.623-7.907,16.957-8.866,25.807c-1.44,13.293-1.569,26.632-0.081,39.927
			c2.597,23.233,11.423,46.34,32.443,58.561c19.145,11.131,42.583,10.045,62.85,2.969c19.776-6.903,31.068-22.317,39.798-40.592
			c0.576-1.206-1.22-2.263-1.798-1.051c-8.271,17.312-18.583,31.72-36.928,39.028c-19.686,7.848-42.063,8.297-61.215-1.26
			c-21.807-10.884-30.182-34.964-33.067-57.654c-1.349-10.594-1.333-21.352-0.646-31.991c0.662-10.283,1.362-24.502,8.983-32.27
			C438.457,175.806,436.984,174.332,436.043,175.292L436.043,175.292z"/>
	</g>
	<g>
		<path d="M554.381,245.465c-1.917-13.256,21.438-20.356,25.73-6.798c3.375,10.655-6.926,29.576-19.732,24.619
			c-1.254-0.485-1.793,1.529-0.554,2.008c16.043,6.21,26.536-17.679,21.244-29.976c-6.044-14.044-30.682-3.024-28.698,10.7
			C552.563,247.344,554.571,246.778,554.381,245.465L554.381,245.465z"/>
	</g>
	<g>
		<path d="M561.603,241.649c1.667-0.485,3.149-0.38,4.067,1.231c0.843,1.483,0.735,3.475,0.525,5.102
			c-0.172,1.331,1.913,1.312,2.083,0c0.291-2.243,0.155-4.711-1.117-6.654c-1.38-2.107-3.871-2.341-6.112-1.688
			C559.762,240.017,560.31,242.026,561.603,241.649L561.603,241.649z"/>
	</g>
	<g>
		<path d="M532.456,232.289c6.103,4.214,12.651,7.508,19.692,9.836c1.279,0.423,1.822-1.587,0.553-2.008
			c-6.875-2.272-13.238-5.515-19.192-9.625C532.399,229.725,531.359,231.531,532.456,232.289L532.456,232.289z"/>
	</g>
	<g>
		<path d="M498.113,161.488c-2.58,21.447,8.981,46.114,23.368,61.434c0.921,0.98,2.391-0.497,1.473-1.473
			c-14.02-14.93-25.272-39.056-22.759-59.961C500.355,160.156,498.271,160.172,498.113,161.488L498.113,161.488z"/>
	</g>
	<g>
		<path d="M432.04,158.414c-3.658,1.848-14.429,8.161-12.286,13.741c2.185,5.686,10.43,5.093,15.395,4.983
			c25.286-0.56,50.999-6.597,75.153-13.56c1.288-0.371,0.74-2.381-0.554-2.008c-20.396,5.879-41.033,10.125-62.14,12.423
			c-5.677,0.618-11.335,1.217-17.055,1.048c-4.617-0.135-11.5-2.137-6.597-8.093c2.374-2.883,5.828-5.066,9.135-6.737
			C434.291,159.607,433.235,157.81,432.04,158.414L432.04,158.414z"/>
	</g>
	<g>
		<path d="M431.599,160.998c17.458-9.489,35.237-18.481,54.346-24.109c16.263-4.79,33.095-8.393,50.128-7.811
			c9.254,0.316,19.448,2.175,26.588,8.451c7.479,6.573,6.188,16.521,1.098,23.978c-0.76,1.112,1.045,2.152,1.797,1.05
			c7.927-11.611,4.562-24.263-7.742-30.866c-15.169-8.142-36.224-4.995-52.268-1.86c-26.89,5.251-51.089,16.373-74.999,29.369
			C429.366,159.841,430.417,161.639,431.599,160.998L431.599,160.998z"/>
	</g>
	<g>
		<path d="M425.654,175.537c-6.958,4.883-7.684,14.89-8.088,22.72c-0.367,7.093,0.759,15.692,8.338,18.32
			c1.271,0.442,1.813-1.57,0.553-2.008c-11.583-4.016-7.864-31.542,0.25-37.235C427.797,176.57,426.757,174.763,425.654,175.537
			L425.654,175.537z"/>
	</g>
	<g>
		<path d="M568.461,154.103c13.606-0.665,22.885,15.964,27.1,26.667c4.371,11.1,5.937,23.216,5.604,35.083
			c-0.689,24.402-12.31,49.785-36.784,57.965c-1.268,0.425-0.725,2.435,0.554,2.008c26.253-8.774,37.625-35.615,38.357-61.562
			c0.37-13.151-2.259-26.425-7.559-38.447c-4.484-10.172-14.56-24.419-27.272-23.797
			C567.124,152.085,567.117,154.169,568.461,154.103L568.461,154.103z"/>
	</g>
	<g>
		<path d="M558.282,269.46c1.712,6.366,5.138,11.747,9.075,16.962c0.799,1.059,2.607,0.022,1.798-1.051
			c-3.827-5.067-7.197-10.267-8.863-16.464C559.944,267.611,557.935,268.162,558.282,269.46L558.282,269.46z"/>
	</g>
	<g>
		<path d="M567.357,286.286c-4.743,6.254-7.71,13.417-11.416,20.285c-4.721,8.748-9.509,17.461-14.063,26.297
			c-0.614,1.191,1.182,2.244,1.798,1.053c4.142-8.033,8.489-15.957,12.781-23.906c4.117-7.629,7.437-15.739,12.698-22.677
			C569.969,286.266,568.157,285.229,567.357,286.286L567.357,286.286z"/>
	</g>
	<g>
		<path d="M557.992,272.867c-7.395,3.043-11.874,12.162-17.053,17.835c-9.605,10.525-20.18,20.113-29.745,30.677
			c-0.899,0.992,0.569,2.469,1.472,1.471c7.879-8.697,16.358-16.811,24.556-25.202c3.249-3.327,6.66-6.68,9.505-10.362
			c3.32-4.299,6.541-10.239,11.819-12.41C559.771,274.373,559.235,272.356,557.992,272.867L557.992,272.867z"/>
	</g>
	<g>
		<path d="M513.832,324.445c9.964,1.221,18.409,7.182,27.854,10.156c1.284,0.402,1.83-1.607,0.553-2.012
			c-9.662-3.039-18.196-8.977-28.406-10.227C512.5,322.199,512.517,324.283,513.832,324.445L513.832,324.445z"/>
	</g>
	<g>
		<path d="M510.926,321.836c-6.178,20.184-5.457,43.562,0.815,63.609c0.399,1.277,2.411,0.732,2.01-0.555
			c-6.151-19.652-6.875-42.703-0.815-62.5C513.328,321.102,511.317,320.557,510.926,321.836L510.926,321.836z"/>
	</g>
	<g>
		<path d="M514.292,342.105c-1.269,1.912-1.066,5.039-0.923,7.205c0.104,1.584,0.389,5.041,2.578,5.178
			c2.446,0.15,2.459-3.131,2.47-4.781c0.01-1.602,0.112-5.793-1.748-6.613c-1.219-0.535-2.279,1.258-1.054,1.797
			c0.662,0.291,0.685,3.561,0.713,4.387c0.027,0.809,0.008,1.633-0.115,2.43c-0.122,0.787,0.055,0.863-0.198,0.396
			c-0.73-1.355-0.633-3.352-0.622-4.838c0.008-1.256-0.027-3.014,0.698-4.105C516.836,342.035,515.031,340.994,514.292,342.105
			L514.292,342.105z"/>
	</g>
	<g>
		<path d="M467.633,242.699c-8.438-1.163-14.047,8.462-10.192,15.606c3.563,6.604,13.148,7.193,18.192,2.238
			c0.961-0.944-0.513-2.416-1.472-1.473c-3.727,3.659-9.351,3.512-13.263,0.196c-5.688-4.823-1.517-15.62,6.181-14.56
			C468.392,244.888,468.959,242.88,467.633,242.699L467.633,242.699z"/>
	</g>
	<g>
		<path d="M455.461,278.749c20.345,6.658,44.569,2.456,57.844-15.36c0.804-1.078-1.007-2.114-1.799-1.051
			c-12.718,17.067-36.132,20.737-55.492,14.402C454.732,276.321,454.189,278.333,455.461,278.749L455.461,278.749z"/>
	</g>
	<g>
		<path d="M505.474,261.256c2.521-0.268,5.031-0.214,7.235,1.178c2.205,1.391,2.976,4.217,3.379,6.617
			c0.225,1.324,2.23,0.761,2.01-0.553c-0.481-2.851-1.525-5.828-3.964-7.591c-2.533-1.833-5.637-2.054-8.66-1.733
			C504.153,259.313,504.138,261.397,505.474,261.256L505.474,261.256z"/>
	</g>
	<g>
		<path d="M565.117,325.393c-10.562,23.277-21.51,46.834-40.877,64.203c-1.003,0.9,0.476,2.367,1.473,1.473
			c19.494-17.48,30.568-41.184,41.202-64.623C567.466,325.232,565.672,324.172,565.117,325.393L565.117,325.393z"/>
	</g>
	<g>
		<path d="M598.44,340.6c1.91,11.162-2.228,24.17-5.306,34.846c-2.979,10.328-6.981,20.342-10.788,30.383
			c-6.995,18.447-15.647,34.154-32.962,44.691c-1.145,0.697-0.099,2.498,1.053,1.799c16.522-10.055,25.551-24.68,32.52-42.311
			c4.422-11.189,8.709-22.488,12.186-34.01c3.283-10.875,7.264-24.51,5.308-35.953C600.225,338.725,598.217,339.285,598.44,340.6
			L598.44,340.6z"/>
	</g>
	<g>
		<path d="M523.746,392.695c12.727,4.674,22.25,21.039,25.988,33.477c1.506,5.014,2.577,10.209,2.767,15.447
			c0.11,3.016-0.178,7.223-3.477,8.557c-5.409,2.186-7.19-7.076-7.894-10.043c-0.31-1.307-2.318-0.754-2.01,0.553
			c1.293,5.449,3.988,14.111,11.304,11.156c5.438-2.197,4.354-11.365,3.669-15.732c-2.657-16.953-12.676-39.135-29.795-45.424
			C523.036,390.223,522.496,392.234,523.746,392.695L523.746,392.695z"/>
	</g>
	<g>
		<path d="M568.749,288.223c9.954,4.834,19.969,9.487,30.249,13.587c1.25,0.498,1.786-1.518,0.555-2.008
			c-10.114-4.037-19.96-8.623-29.752-13.376C568.598,285.839,567.541,287.637,568.749,288.223L568.749,288.223z"/>
	</g>
	<g>
		<path d="M598.376,301.332c8.779,16.502,15.891,34.004,22.368,51.51c13.46,36.383,23.086,74.717,24.678,113.592
			c0.055,1.336,2.139,1.342,2.084,0c-1.604-39.133-11.35-77.49-24.754-114.145c-6.464-17.682-13.723-35.367-22.578-52.008
			C599.544,299.094,597.745,300.146,598.376,301.332L598.376,301.332z"/>
	</g>
	<g>
		<path d="M494.852,436.682c2.865,22.613,5.757,45.225,7.745,67.938c0.118,1.324,2.201,1.336,2.084,0
			c-1.99-22.713-4.882-45.324-7.747-67.938C496.768,435.367,494.683,435.352,494.852,436.682L494.852,436.682z"/>
	</g>
	<g>
		<path d="M486.29,347.66c0.678,16.133,2.311,32.166,4.064,48.211c0.144,1.32,2.229,1.334,2.083,0
			c-1.754-16.045-3.387-32.078-4.064-48.211C488.316,346.32,486.233,346.316,486.29,347.66L486.29,347.66z"/>
	</g>
	<g>
		<path d="M491.351,323.279c-5.98,5.807-11.785,10.088-12.136,18.818c-0.535,13.414-5.554,26.35-7.701,39.535
			c-0.213,1.311,1.795,1.877,2.01,0.553c1.664-10.221,4.674-20.143,6.585-30.311c0.724-3.855,1.11-7.77,1.267-11.686
			c0.263-6.57,7.142-11.254,11.449-15.438C493.79,323.816,492.315,322.344,491.351,323.279L491.351,323.279z"/>
	</g>
	<g>
		<path d="M439.107,358.074c6.807,4.008,12.336,9.777,18.318,14.861c5.873,4.994,12.133,9.627,18.246,14.324
			c12.181,9.359,24.775,17.934,38.15,25.5c1.172,0.664,2.22-1.137,1.053-1.797c-13.934-7.883-26.995-16.871-39.649-26.66
			c-6.029-4.664-12.144-9.281-17.951-14.219c-5.603-4.766-10.736-10.053-17.113-13.809C439,355.592,437.953,357.393,439.107,358.074
			L439.107,358.074z"/>
	</g>
	<g>
		<path d="M525.598,394.488c-4.465,5.262-9.249,10.381-15.011,14.242c-1.109,0.742-0.068,2.549,1.052,1.797
			c5.917-3.961,10.846-9.162,15.431-14.566C527.934,394.943,526.468,393.463,525.598,394.488L525.598,394.488z"/>
	</g>
	<g>
		<path d="M447.907,395.275c16.552,25.268,41.438,43.498,70.54,51.621c1.296,0.361,1.845-1.648,0.553-2.01
			c-28.577-7.975-53.035-25.842-69.294-50.666C448.975,393.105,447.169,394.146,447.907,395.275L447.907,395.275z"/>
	</g>
	<g>
		<path d="M550.863,428.305c-8.423,7.443-20.737,15.227-32.14,16.547c-1.318,0.152-1.333,2.236,0,2.084
			c12.069-1.398,24.696-9.277,33.612-17.158C553.346,428.887,551.866,427.42,550.863,428.305L550.863,428.305z"/>
	</g>
	<g>
		<path d="M519.67,436.725c3.349,0.639,6.504-0.576,7.601-3.988c0.41-1.283-1.601-1.828-2.01-0.553
			c-0.728,2.27-2.839,2.953-5.038,2.531C518.91,434.465,518.352,436.473,519.67,436.725L519.67,436.725z"/>
	</g>
	<g>
		<path d="M439.209,355.73c-7.706-4.148-16.199-5.205-24.848-5.133c-5.081,0.045-11.481,0.221-15.891,3.078
			c-2.925,1.896-1.219,5.064,0.956,6.592c4.395,3.09,12.382,0.732,17.242,0.119c1.314-0.166,1.331-2.248,0-2.082
			c-3.21,0.404-6.396,0.904-9.63,1.088c-0.818,0.049-11.572-1.287-6.63-4.492c1.555-1.01,3.828-1.283,5.625-1.594
			c10.502-1.812,22.691-0.855,32.123,4.223C439.339,358.166,440.391,356.367,439.209,355.73L439.209,355.73z"/>
	</g>
	<g>
		<path d="M417.077,358.713c-5.15,0.432-10.298,0.152-15.227,1.914c-1.998,0.717-6.379,2.414-6.269,5.182
			c0.295,7.496,13.545,2.332,17.152,1.336c1.294-0.354,0.743-2.365-0.553-2.008c-2.109,0.582-4.188,1.254-6.31,1.787
			c-1.47,0.369-2.961,0.604-4.474,0.707c-1.968,0.133-4.713-1.584-2.338-3.338c5.069-3.748,12.138-3.002,18.019-3.496
			C418.406,360.686,418.416,358.6,417.077,358.713L417.077,358.713z"/>
	</g>
	<g>
		<path d="M412.588,365.816c-3.86,0.891-7.599,2.092-10.984,4.184c-1.541,0.951-3.881,2.838-3.302,4.943
			c0.729,2.645,4.932,2.586,7.004,2.479c3.854-0.195,7.578-1.811,11.074-3.314c1.23-0.529,0.168-2.324-1.052-1.799
			c-2.165,0.932-4.342,1.77-6.612,2.41c-0.874,0.246-8.753,1.633-8.385-0.588c0.285-1.717,3.494-3.055,4.805-3.713
			c2.502-1.26,5.293-1.965,8.007-2.592C414.45,367.525,413.896,365.516,412.588,365.816L412.588,365.816z"/>
	</g>
	<g>
		<path d="M416.121,372.477c-4.265,0.867-10.555,6.947-7.534,11.574c1.339,2.053,4.533,1.85,6.582,1.49
			c3.59-0.637,6.603-3.516,9.032-6.025c0.935-0.965-0.537-2.439-1.473-1.473c-2.799,2.893-6.059,5.812-10.349,5.645
			c-3.565-0.139-2.316-3.604-1.132-5.383c1.223-1.842,3.26-3.381,5.427-3.818C417.989,374.217,417.432,372.209,416.121,372.477
			L416.121,372.477z"/>
	</g>
	<g>
		<path d="M423.547,379.193c3.499,11.219,17.494,15.088,28.047,13.947c1.32-0.145,1.334-2.23,0-2.084
			c-9.551,1.033-22.823-2.104-26.037-12.416C425.157,377.359,423.146,377.908,423.547,379.193L423.547,379.193z"/>
	</g>
	<g>
		<path d="M423.988,350.16c-1.802-1.357-3.044-5.969-0.219-6.857c1.517-0.477,3.253,1.793,4.055,2.75
			c2.233,2.672,3.604,5.891,5.476,8.793c0.724,1.125,2.528,0.082,1.798-1.053c-2.566-3.98-4.698-10.307-9.429-12.25
			c-2.005-0.824-4.394,0.08-5.238,2.156c-1.115,2.738,0.199,6.523,2.504,8.258C424.009,352.768,425.045,350.957,423.988,350.16
			L423.988,350.16z"/>
	</g>
	<g>
		<path d="M387.638,404.174c3.397,6.449,9.546,10.621,15.232,14.914c7.563,5.713,15.807,10.48,24.296,14.662
			c16.381,8.072,34.267,12.967,52.421,14.697c1.337,0.129,1.325-1.955,0-2.082c-17.113-1.631-33.587-6.277-49.218-13.393
			c-7.205-3.283-14.071-7.268-20.678-11.615c-7.219-4.748-16.126-10.398-20.255-18.236
			C388.81,401.934,387.013,402.984,387.638,404.174L387.638,404.174z"/>
	</g>
	<g>
		<path d="M373.942,375.006c3.019,1.084,5.832,1.357,8.634,3.41c3.105,2.271,6.282,4.447,9.458,6.617
			c6.219,4.25,12.582,8.248,19.022,12.154c14.256,8.646,29.142,16.277,45.422,20.24c1.305,0.316,1.857-1.689,0.554-2.01
			c-16.963-4.129-32.223-12.326-47.052-21.318c-6.386-3.873-12.623-7.943-18.788-12.158c-3.158-2.156-6.271-4.377-9.358-6.637
			c-2.822-2.064-4.194-1.178-7.339-2.309C373.229,372.541,372.688,374.555,373.942,375.006L373.942,375.006z"/>
	</g>
	<g>
		<path d="M458.874,411.133c-1.028,1.213-2.256,2.236-3.262,3.467c-0.359,0.439-0.432,1.041,0,1.473
			c0.371,0.371,1.111,0.439,1.473,0c1.006-1.229,2.233-2.254,3.261-3.467C461.21,411.588,459.744,410.107,458.874,411.133
			L458.874,411.133z"/>
	</g>
	<g>
		<path d="M455.343,416.225c3.038,13.818,17.165,26.959,29.222,33.234c1.19,0.621,2.242-1.178,1.052-1.797
			c-11.577-6.027-25.338-18.68-28.263-31.992C457.064,414.361,455.057,414.916,455.343,416.225L455.343,416.225z"/>
	</g>
	<g>
		<path d="M493.772,438.047c-2.253,3.922-5.745,6.742-9.011,9.777c-0.985,0.916,0.49,2.387,1.473,1.473
			c3.401-3.16,6.991-6.117,9.336-10.197C496.241,437.932,494.44,436.883,493.772,438.047L493.772,438.047z"/>
	</g>
	<g>
		<path d="M353.214,377.359c-2.406,0.543-3.969,2.734-3.747,5.188c0.242,2.654,2.519,4.189,5.065,4.035
			c1.334-0.082,1.343-2.164,0-2.084c-1.511,0.094-2.853-0.535-3.003-2.186c-0.135-1.484,0.835-2.625,2.239-2.943
			C355.078,379.074,354.523,377.066,353.214,377.359L353.214,377.359z"/>
	</g>
	<g>
		<path d="M354.256,384.768c-2.117,0.832-3.836,2.645-3.673,5.053c0.178,2.607,2.639,3.805,4.991,3.705
			c1.338-0.059,1.344-2.143,0-2.082c-1.313,0.053-2.605-0.25-2.915-1.684c-0.291-1.348,1.046-2.549,2.15-2.982
			C356.044,386.289,355.508,384.273,354.256,384.768L354.256,384.768z"/>
	</g>
	<g>
		<path d="M354.714,391.773c-1.632,1.176-2.516,3.154-1.722,5.109c1.01,2.496,3.83,3.223,6.284,3.078
			c1.335-0.078,1.343-2.16,0-2.082c-1.49,0.086-3.296-0.059-4.191-1.436c-0.644-0.99-0.224-2.223,0.682-2.873
			C356.845,392.793,355.806,390.984,354.714,391.773L354.714,391.773z"/>
	</g>
	<g>
		<path d="M369.067,403.018c8.976,3.092,17.193,3.115,25.278-2.258c1.112-0.738,0.071-2.545-1.052-1.799
			c-7.622,5.066-15.279,4.941-23.672,2.047C368.347,400.572,367.805,402.584,369.067,403.018L369.067,403.018z"/>
	</g>
	<g>
		<path d="M353.491,379.408c2.879-0.207,5.72-0.797,8.589-1.123c1.557-0.176,3.109-0.256,4.676-0.264
			c0.224-0.002,7.62,0.811,5.97,2.697c-1.609,1.838-5.194,2.59-7.413,3.094c-3.942,0.895-7.934,0.822-11.939,0.656
			c-1.344-0.057-1.338,2.025,0,2.084c5.524,0.23,11.063,0.088,16.305-1.859c1.657-0.617,5.568-2.047,5.548-4.328
			c-0.026-2.895-3.816-3.994-6.164-4.25c-5.304-0.578-10.33,0.838-15.572,1.209C352.159,377.42,352.15,379.504,353.491,379.408
			L353.491,379.408z"/>
	</g>
	<g>
		<path d="M369.729,384.371c5.126,2.479-4.049,4.832-5.739,5.344c-3.316,1-6.711,1.652-10.179,1.744
			c-1.341,0.035-1.344,2.117,0,2.082c5.347-0.141,11.34-1.361,16.222-3.594c4.37-2,5.407-5.121,0.749-7.375
			C369.577,381.99,368.521,383.785,369.729,384.371L369.729,384.371z"/>
	</g>
	<g>
		<path d="M367.061,391.029c0.698-0.168,8.996-0.693,6.276,1.98c-1.396,1.369-3.618,2.172-5.387,2.854
			c-3.693,1.424-8.229,2.533-12.099,1.271c-1.28-0.418-1.826,1.596-0.554,2.01c5.769,1.879,14.481-0.492,19.09-4.312
			c1.662-1.375,2.036-2.729,0.745-4.576c-1.778-2.545-6.117-1.842-8.625-1.236C365.201,389.336,365.755,391.342,367.061,391.029
			L367.061,391.029z"/>
	</g>
	<g>
		<path d="M356.579,399.762c2.279,6.018,14.33,2.92,18.488,1.111c1.531-0.668,2.384-2.861,0.724-3.918
			c-2.011-1.279-4.708-1.221-7.011-1.291c-1.344-0.039-1.34,2.043,0,2.084c0.914,0.027,1.823,0.068,2.734,0.139
			c1.95,0.152,3.805,0.863,0.895,1.766c-2.303,0.713-12.427,3.236-13.82-0.445C358.117,397.965,356.103,398.502,356.579,399.762
			L356.579,399.762z"/>
	</g>
	<g>
		<g>
			<path d="M467.108,220.071c-1.173,4.304-0.279,9.07,0.575,13.355c0.73,3.664,1.655,8.085,4.032,11.09
				c0.833,1.055,2.296-0.431,1.474-1.473c-2.115-2.674-2.79-6.934-3.497-10.171c-0.842-3.856-1.635-8.359-0.575-12.249
				C469.47,219.325,467.462,218.776,467.108,220.071L467.108,220.071z"/>
		</g>
		<g>
			<path d="M468.389,221.351c12.95-4.351,25.907-6.966,39.231-9.895c1.311-0.288,0.754-2.296-0.555-2.008
				c-13.322,2.928-26.281,5.543-39.229,9.894C466.569,219.767,467.113,221.779,468.389,221.351L468.389,221.351z"/>
		</g>
		<g>
			<path d="M506.628,210.96c2.438,7.334,5.548,14.941,3.355,22.707c-0.363,1.295,1.646,1.844,2.01,0.553
				c2.31-8.184-0.777-16.058-3.355-23.813C508.217,209.139,506.204,209.682,506.628,210.96L506.628,210.96z"/>
		</g>
		<g>
			<path d="M472.452,244.822c13.192,0.38,27.819-2.887,39.063-9.864c1.137-0.705,0.094-2.509-1.053-1.798
				c-10.892,6.759-25.231,9.947-38.011,9.58C471.108,242.701,471.113,244.784,472.452,244.822L472.452,244.822z"/>
		</g>
	</g>
	<g>
		<g>
			<path d="M415.069,230.687c-1.173,4.307-0.278,9.07,0.577,13.358c0.729,3.663,1.654,8.082,4.031,11.09
				c0.833,1.053,2.296-0.431,1.473-1.473c-2.114-2.675-2.79-6.935-3.496-10.172c-0.842-3.856-1.636-8.358-0.575-12.25
				C417.432,229.943,415.423,229.393,415.069,230.687L415.069,230.687z"/>
		</g>
		<g>
			<path d="M416.351,231.968c12.95-4.351,25.907-6.966,39.23-9.895c1.312-0.289,0.755-2.296-0.554-2.008
				c-13.322,2.928-26.281,5.543-39.229,9.894C414.531,230.385,415.075,232.398,416.351,231.968L416.351,231.968z"/>
		</g>
		<g>
			<path d="M454.59,221.578c2.438,7.334,5.547,14.942,3.356,22.707c-0.364,1.295,1.645,1.844,2.01,0.553
				c2.309-8.184-0.778-16.058-3.357-23.813C456.178,219.756,454.165,220.299,454.59,221.578L454.59,221.578z"/>
		</g>
		<g>
			<path d="M420.414,255.438c13.191,0.381,27.82-2.886,39.062-9.862c1.138-0.708,0.094-2.509-1.052-1.798
				c-10.892,6.757-25.231,9.945-38.011,9.577C419.07,253.317,419.074,255.4,420.414,255.438L420.414,255.438z"/>
		</g>
	</g>
	<g>
		<path d="M473.884,212.664c5.997-4.961,17.755-8.287,25.284-5.547c1.266,0.461,1.805-1.553,0.554-2.008
			c-8.297-3.02-20.726,0.635-27.312,6.082C471.374,212.048,472.856,213.512,473.884,212.664L473.884,212.664z"/>
	</g>
	<g>
		<path d="M431.442,219.438c5.998-4.962,17.755-8.287,25.284-5.548c1.266,0.461,1.806-1.552,0.554-2.007
			c-8.297-3.021-20.724,0.634-27.312,6.082C428.934,218.822,430.415,220.286,431.442,219.438L431.442,219.438z"/>
	</g>
	<g>
		<path d="M476.461,235.845c7.624-1.442,15.259-2.774,22.739-4.86c1.293-0.36,0.743-2.37-0.553-2.008
			c-7.481,2.085-15.117,3.416-22.739,4.86C474.589,234.086,475.148,236.094,476.461,235.845L476.461,235.845z"/>
	</g>
	<g>
		<path d="M481.684,232.753c-1.489-2.769,1.211-6.824,4.161-7.13c1.345-0.142,2.61,0.587,3.335,1.681
			c0.877,1.323,0.312,2.815-0.528,3.974c-0.791,1.09,1.019,2.127,1.798,1.051c2.72-3.753,0.374-8.473-4.197-8.797
			c-4.84-0.342-8.554,6.205-6.366,10.272C480.521,234.988,482.319,233.936,481.684,232.753L481.684,232.753z"/>
	</g>
	<g>
		<path d="M435.386,242.708c-1.92-2.518-0.097-6.82,2.764-7.759c3.163-1.039,5.26,2.326,3.881,4.975
			c-0.62,1.191,1.179,2.243,1.799,1.052c2.073-3.984-0.562-8.609-5.241-8.218c-4.702,0.393-7.895,7.209-5.001,11
			C434.39,244.812,436.201,243.777,435.386,242.708L435.386,242.708z"/>
	</g>
	<g>
		<path d="M468.85,234.017c-2.812-2.246-8.16-1.75-9.881,1.687c-0.601,1.197,1.197,2.252,1.799,1.051
			c1.066-2.131,4.779-2.727,6.608-1.266C468.414,236.319,469.898,234.856,468.85,234.017L468.85,234.017z"/>
	</g>
	<g>
		<path d="M468.243,230.382c-3.111-2.34-7.527-1.259-10.028,1.465c-0.908,0.987,0.562,2.465,1.472,1.473
			c1.929-2.1,5.102-2.947,7.504-1.14C468.264,232.991,469.301,231.18,468.243,230.382L468.243,230.382z"/>
	</g>
	<g>
		<path d="M433.499,244.437c7.222-1.198,14.274-3.048,21.264-5.207c1.28-0.396,0.734-2.406-0.553-2.008
			c-6.989,2.159-14.043,4.007-21.265,5.208C431.622,242.648,432.187,244.656,433.499,244.437L433.499,244.437z"/>
	</g>
	<g>
		<path d="M492.063,309.945c4.451,2.1,7.632,8.037,9.962,12.217c3.607,6.471,4.764,13.83,4.913,21.141
			c0.027,1.34,2.109,1.342,2.083,0c-0.148-7.238-1.398-13.988-4.396-20.605c-2.268-5.008-6.336-12.111-11.51-14.549
			C491.907,307.58,490.85,309.375,492.063,309.945L492.063,309.945z"/>
	</g>
	<g>
		<path d="M491.368,308.148c-8.399,4.215-16.538,8.688-23.587,14.977c-1.004,0.895,0.476,2.361,1.474,1.473
			c6.919-6.174,14.927-10.518,23.166-14.652C493.622,309.344,492.566,307.549,491.368,308.148L491.368,308.148z"/>
	</g>
	<g>
		<path d="M469.142,325.443c10.138-3.65,22.204-3.48,30.812,3.434c1.035,0.834,2.52-0.631,1.473-1.473
			c-9.219-7.404-21.886-7.914-32.837-3.971C467.335,323.887,467.875,325.9,469.142,325.443L469.142,325.443z"/>
	</g>
	<g>
		<path d="M371.312,401.049c-0.07,3.641,0.467,7.229,1.078,10.805c0.227,1.324,2.234,0.76,2.01-0.553
			c-0.582-3.398-1.072-6.797-1.005-10.252C373.42,399.703,371.337,399.705,371.312,401.049L371.312,401.049z"/>
	</g>
	<g>
		<path d="M368.188,401.973c0.018,3.938,0.222,7.869,0.347,11.805c0.042,1.34,2.125,1.342,2.083,0
			c-0.125-3.936-0.33-7.867-0.347-11.805C370.265,400.631,368.182,400.629,368.188,401.973L368.188,401.973z"/>
	</g>
	<g>
		<path d="M365.062,402.203c-0.35,3.975-0.691,7.947-1.041,11.922c-0.118,1.338,1.966,1.326,2.083,0
			c0.35-3.975,0.691-7.947,1.041-11.922C367.264,400.867,365.179,400.877,365.062,402.203L365.062,402.203z"/>
	</g>
	<g>
		<path d="M362.899,402.738c-0.366,1.785-0.815,3.545-0.961,5.367c-0.109,1.342,1.975,1.33,2.083,0
			c0.131-1.633,0.558-3.213,0.888-4.814C365.178,401.98,363.171,401.424,362.899,402.738L362.899,402.738z"/>
	</g>
	<g>
		<path d="M304.771,464c0-129.006,0-258.014,0-387.021c0-1.343-2.083-1.343-2.083,0c0,129.007,0,258.015,0,387.021
			C302.688,465.346,304.771,465.346,304.771,464L304.771,464z"/>
	</g>
	<g>
		<path d="M311.252,464c0-129.006,0-258.014,0-387.021c0-1.343-2.083-1.343-2.083,0c0,129.007,0,258.015,0,387.021
			C309.169,465.346,311.252,465.346,311.252,464L311.252,464z"/>
	</g>
	<g>
		<path d="M302.803,464c0.276,2.383,2.279,3.854,4.576,4.08c1.071,0.104,2.19-0.375,2.963-1.086
			c0.864-0.795,0.797-2.164,0.793-3.227c-0.005-1.344-2.088-1.344-2.083,0c0.002,0.512,0.034,1.029-0.079,1.531
			c-0.14,0.621-1.094,0.703-1.595,0.697c-1.042-0.014-2.366-0.908-2.493-1.996C304.733,462.682,302.649,462.664,302.803,464
			L302.803,464z"/>
	</g>
	<g>
		<path d="M204.787,442.66c0-120.504,0-241.01,0-361.516c0-1.343-2.083-1.343-2.083,0c0,120.505,0,241.012,0,361.516
			C202.704,444.006,204.787,444.006,204.787,442.66L204.787,442.66z"/>
	</g>
	<g>
		<path d="M211.267,442.66c0-120.504,0-241.01,0-361.516c0-1.343-2.083-1.343-2.083,0c0,120.505,0,241.012,0,361.516
			C209.184,444.006,211.267,444.006,211.267,442.66L211.267,442.66z"/>
	</g>
	<g>
		<path d="M202.818,442.66c0.277,2.383,2.281,3.854,4.577,4.08c1.07,0.105,2.19-0.375,2.963-1.086
			c0.863-0.795,0.798-2.164,0.792-3.229c-0.005-1.342-2.088-1.342-2.083,0c0.003,0.514,0.035,1.031-0.079,1.533
			c-0.138,0.621-1.093,0.703-1.593,0.697c-1.043-0.014-2.367-0.908-2.494-1.996C204.749,441.342,202.664,441.326,202.818,442.66
			L202.818,442.66z"/>
	</g>
	<g>
		<path d="M207.936,445.963c8.27,18.633,23.515,30.049,43.67,32.641c18.705,2.404,39.136-3.646,52.861-16.658
			c0.976-0.926-0.499-2.396-1.473-1.475c-13.202,12.518-31.742,17.547-49.626,16.229c-20.062-1.479-35.574-13.627-43.634-31.787
			C209.191,443.686,207.396,444.746,207.936,445.963L207.936,445.963z"/>
	</g>
	<g>
		<path d="M210.225,419.531c30.965,2.111,61.931,4.219,92.897,6.33c1.341,0.088,1.333-1.994,0-2.084
			c-30.966-2.109-61.932-4.217-92.897-6.328C208.885,417.361,208.893,419.443,210.225,419.531L210.225,419.531z"/>
	</g>
	<g>
		<path d="M209.245,221.066c8.931,17.128,23.704,27.603,42.903,29.687c18.666,2.027,38.717-4.604,52.319-17.508
			c0.976-0.926-0.499-2.396-1.473-1.473c-12.646,11.995-29.989,17.535-47.238,17.132c-19.772-0.46-35.684-11.573-44.714-28.888
			C210.421,218.825,208.625,219.878,209.245,221.066L209.245,221.066z"/>
	</g>
	<g>
		<path d="M209.832,194.604c31.277,0.138,62.555,0.275,93.833,0.413c1.344,0.006,1.342-2.077,0-2.083
			c-31.278-0.138-62.555-0.275-93.833-0.413C208.489,192.515,208.489,194.598,209.832,194.604L209.832,194.604z"/>
	</g>
	<g>
		<path d="M279.242,247.825c8.246-2.484,16.504-4.935,24.764-7.377c1.286-0.38,0.738-2.389-0.553-2.007
			c-8.26,2.441-16.518,4.891-24.765,7.376C277.406,246.203,277.953,248.213,279.242,247.825L279.242,247.825z"/>
	</g>
	<g>
		<g>
			<path d="M310.487,194.774c37.743-5.604,75.482-11.242,113.253-16.645c1.327-0.189,0.76-2.196-0.553-2.009
				c-37.772,5.402-75.512,11.042-113.254,16.645C308.609,192.962,309.174,194.969,310.487,194.774L310.487,194.774z"/>
		</g>
		<g>
			<path d="M310.876,179.702c22.822-3.336,45.657-6.586,68.553-9.371c1.316-0.16,1.332-2.246,0-2.083
				c-23.081,2.807-46.101,6.082-69.106,9.445C308.998,177.887,309.563,179.894,310.876,179.702L310.876,179.702z"/>
		</g>
		<g>
			<path d="M295.723,181.928c2.761-0.406,5.522-0.813,8.283-1.219c1.325-0.194,0.76-2.202-0.553-2.008
				c-2.762,0.406-5.522,0.812-8.284,1.219C293.845,180.116,294.41,182.122,295.723,181.928L295.723,181.928z"/>
		</g>
		<g>
			<path d="M210.227,193.714c17.783-2.143,35.529-4.554,53.26-7.084c1.325-0.189,0.759-2.196-0.553-2.009
				c-17.547,2.504-35.108,4.89-52.707,7.01C208.91,191.79,208.895,193.875,210.227,193.714L210.227,193.714z"/>
		</g>
		<g>
			<path d="M310.487,238.538c36.121-9.637,72.241-19.271,108.361-28.907c1.296-0.346,0.746-2.355-0.553-2.009
				c-36.121,9.636-72.241,19.272-108.361,28.908C308.637,236.876,309.188,238.885,310.487,238.538L310.487,238.538z"/>
		</g>
		<g>
			<path d="M310.487,231.823c35.93-8.987,71.861-17.974,107.791-26.962c1.303-0.326,0.75-2.334-0.553-2.008
				c-35.93,8.987-71.86,17.976-107.791,26.964C308.63,230.141,309.184,232.149,310.487,231.823L310.487,231.823z"/>
		</g>
	</g>
	<g>
		<g>
			<path d="M449.452,365.285c8.697-3.662,17.394-7.32,26.09-10.979c1.219-0.514,0.683-2.531-0.554-2.01
				c-8.696,3.66-17.394,7.32-26.089,10.979C447.68,363.789,448.216,365.807,449.452,365.285L449.452,365.285z"/>
		</g>
		<g>
			<path d="M397.083,387.322c4.071-1.715,8.142-3.426,12.213-5.141c1.219-0.512,0.684-2.529-0.553-2.01
				c-4.071,1.715-8.142,3.43-12.213,5.141C395.311,385.828,395.847,387.844,397.083,387.322L397.083,387.322z"/>
		</g>
		<g>
			<path d="M310.854,423.609c16.362-6.887,32.724-13.77,49.084-20.656c1.219-0.514,0.684-2.531-0.553-2.01
				c-16.362,6.887-32.723,13.77-49.085,20.656C309.082,422.111,309.618,424.129,310.854,423.609L310.854,423.609z"/>
		</g>
		<g>
			<path d="M390.075,342.555c5.41-2.258,10.818-4.514,16.226-6.768c1.222-0.51,0.687-2.527-0.553-2.008
				c-5.41,2.254-10.818,4.512-16.226,6.766C388.301,341.055,388.835,343.072,390.075,342.555L390.075,342.555z"/>
		</g>
		<g>
			<path d="M431.797,326.502c5.41-2.258,10.818-4.514,16.226-6.768c1.223-0.51,0.687-2.525-0.553-2.01
				c-5.409,2.256-10.817,4.514-16.226,6.768C430.023,325.002,430.558,327.02,431.797,326.502L431.797,326.502z"/>
		</g>
		<g>
			<path d="M310.736,375.158c10.962-4.836,21.923-9.67,32.886-14.506c1.226-0.539,0.166-2.334-1.053-1.799
				c-10.961,4.838-21.923,9.67-32.886,14.506C308.458,373.898,309.519,375.695,310.736,375.158L310.736,375.158z"/>
		</g>
		<g>
			<path d="M297.368,380.734c2.213-0.922,4.427-1.848,6.638-2.77c1.221-0.51,0.687-2.525-0.553-2.01
				c-2.213,0.926-4.426,1.848-6.638,2.77C295.594,379.234,296.128,381.252,297.368,380.734L297.368,380.734z"/>
		</g>
		<g>
			<path d="M210.501,416.965c16.106-6.719,32.214-13.438,48.32-20.156c1.22-0.508,0.686-2.523-0.553-2.01
				c-16.107,6.719-32.213,13.438-48.32,20.156C208.728,415.465,209.262,417.48,210.501,416.965L210.501,416.965z"/>
		</g>
		<g>
			<path d="M472.519,382.951c1.344,0,1.344-2.084,0-2.084S471.175,382.951,472.519,382.951L472.519,382.951z"/>
		</g>
		<g>
			<path d="M426.561,405.395c7.417-3.605,14.836-7.209,22.254-10.814c1.207-0.586,0.15-2.381-1.053-1.799
				c-7.417,3.605-14.835,7.209-22.253,10.814C424.302,404.182,425.358,405.977,426.561,405.395L426.561,405.395z"/>
		</g>
		<g>
			<path d="M310.736,461.676c30.261-14.705,60.521-29.408,90.783-44.111c1.207-0.59,0.151-2.385-1.052-1.799
				c-30.26,14.703-60.521,29.406-90.783,44.111C308.477,460.463,309.534,462.258,310.736,461.676L310.736,461.676z"/>
		</g>
		<g>
			<path d="M284.701,474.326c6.508-3.162,13.016-6.326,19.524-9.488c1.207-0.586,0.15-2.381-1.052-1.799
				c-6.508,3.162-13.016,6.326-19.524,9.488C282.441,473.113,283.498,474.908,284.701,474.326L284.701,474.326z"/>
		</g>
		<g>
			<path d="M465.234,378.174c2.97-1.432,5.938-2.867,8.909-4.299c1.209-0.582,0.151-2.379-1.053-1.799
				c-2.968,1.432-5.938,2.867-8.908,4.299C462.974,376.959,464.03,378.754,465.234,378.174L465.234,378.174z"/>
		</g>
		<g>
			<path d="M418.975,401.229c6.457-3.215,12.915-6.432,19.373-9.648c1.201-0.596,0.146-2.395-1.053-1.799
				c-6.457,3.217-12.914,6.434-19.372,9.648C416.721,400.029,417.776,401.824,418.975,401.229L418.975,401.229z"/>
		</g>
		<g>
			<path d="M310.736,453.43c28.04-13.523,56.079-27.047,84.119-40.568c1.209-0.584,0.152-2.379-1.053-1.799
				c-28.039,13.523-56.078,27.047-84.119,40.57C308.475,452.215,309.532,454.01,310.736,453.43L310.736,453.43z"/>
		</g>
	</g>
	<g>
		<path d="M303.739,233.597c1.344,0,1.344-2.083,0-2.083S302.395,233.597,303.739,233.597L303.739,233.597z"/>
	</g>
	<g>
		<g>
			<path d="M262.662,401.406c8.416-4.064,18.133-2.111,23.613,5.654c0.511,0.725,1.717,0.033,1.199-0.699
				c-5.937-8.418-16.371-10.568-25.511-6.154C261.156,400.596,261.861,401.795,262.662,401.406L262.662,401.406z"/>
		</g>
		<g>
			<path d="M281.571,401.264c2.579-4.445,7.425-5.828,12.261-6.193c0.887-0.064,0.894-1.453,0-1.389
				c-5.341,0.402-10.624,1.994-13.459,6.883C279.922,401.34,281.122,402.035,281.571,401.264L281.571,401.264z"/>
		</g>
		<g>
			<path d="M288.702,397.471c-0.279,0.305-0.511,0.641-0.74,0.986c-0.499,0.744,0.704,1.439,1.199,0.699
				c0.165-0.244,0.324-0.486,0.523-0.703C290.289,397.793,289.309,396.809,288.702,397.471L288.702,397.471z"/>
		</g>
		<g>
			<path d="M271.517,401.195c2.875-1.299,5.759,0.578,7.698,2.633c0.616,0.652,1.596-0.33,0.982-0.982
				c-2.436-2.584-5.897-4.422-9.38-2.85C270.002,400.365,270.708,401.562,271.517,401.195L271.517,401.195z"/>
		</g>
		<g>
			<path d="M275.867,398.277c0.133-20.758-1.023-41.648,1.799-62.287c0.744-5.438,1.398-12.236,5.011-16.621
				c1.172-1.426,4.074-2.436,4.213,0.396c0.066,1.338-0.355,2.668-0.498,3.988c-0.11,1.02-0.484,3.76,1.106,3.979
				c1.638,0.229,5.327-2.857,5.312,0.691c-0.01,2.385-1.524,4.992-2.392,7.15c-1.317,3.283-2.633,7.527,2.266,7.637
				c5.658,0.127,0.654,12.359-0.134,14.455c-1.833,4.875-3.868,9.639-5.533,14.578c-1.645,4.877-2.776,9.889-4.331,14.785
				c-1.352,4.26-3.124,8.303-3.307,12.83c0.462,0,0.926,0,1.389,0c0-0.053,0-0.107,0-0.158c0-0.896-1.389-0.896-1.389,0
				c0,0.051,0,0.105,0,0.158c0,0.9,1.352,0.891,1.389,0c0.208-5.145,2.533-9.803,3.929-14.68c1.566-5.477,3.069-10.912,4.938-16.301
				c2.595-7.486,8.646-16.59,6.724-24.861c-0.724-3.121-5.004-0.953-5.801-2.967c-0.791-1.992,1.458-5.736,2.183-7.529
				c0.891-2.209,3.211-8.053-1.203-8.189c-0.944-0.027-1.821,0.125-2.688,0.512c-1.9,0.85-1.245-0.893-1.005-2.494
				c0.273-1.824,1.124-4.689-0.396-6.207c-3.354-3.355-7.212,3.162-8.175,5.447c-2.136,5.084-2.716,10.873-3.378,16.307
				c-1.363,11.168-1.537,22.455-1.527,33.693c0.009,8.562,0.165,17.125,0.109,25.688
				C274.473,399.174,275.861,399.172,275.867,398.277L275.867,398.277z"/>
		</g>
		<g>
			<path d="M294.322,357.496c0.967-1.123,3.587-3.041,3.758-0.207c0.074,1.221-0.336,2.455-0.859,3.537
				c-0.894,1.85-2.437,3.336-3.363,5.191c-2.235,4.479,2.656,3.746,3.89,6.67c1.999,4.736-5.932,10.416-8.685,13.271
				c-3.789,3.924-6.722,9.023-8.394,14.189c-0.277,0.854,1.064,1.217,1.339,0.369c2.494-7.711,7.654-12.93,13.085-18.607
				c2.149-2.248,6.846-8.578,2.853-11.439c-1.096-0.783-3.486-1.115-3.096-3.162c0.285-1.492,1.615-2.973,2.493-4.164
				c1.32-1.793,2.056-3.617,2.125-5.855c0.034-1.084-0.348-2.92-1.578-3.293c-1.927-0.578-3.431,1.219-4.55,2.518
				C292.76,357.189,293.738,358.176,294.322,357.496L294.322,357.496z"/>
		</g>
		<g>
			<path d="M276,347.65c-0.236-0.895-0.579-2.488-1.592-2.859c-0.948-0.346-2.727-0.574-3.139-1.6
				c-0.59-1.465-0.319-3.455-0.304-5.004c0.032-3.205,0.043-6.473-0.796-9.592c-0.633-2.355-2.275-4.061-4.792-3.244
				c-2.861,0.934-3.378,4.008-3.631,6.613c-0.217,2.25,0.901,11.514-3.063,9.732c-3.27-1.473-5.991-5.77-9.731-2.197
				c-2.332,2.227-0.452,7.068,0.564,9.414c1.352,3.121,2.765,6.129,4.502,9.064c1.911,3.227,4.587,6.141,5.146,9.965
				c0.224-0.293,0.447-0.586,0.67-0.879c-3.143,0.215-5.826-0.193-6.32,3.666c-0.461,3.59,3.366,7.354,5.495,9.754
				c1.885,2.127,3.697,4.234,5.292,6.594c1.411,2.088-1.59,2.637-1.445,4.277c0.289,3.279,3.201,4.928,5.185,7.256
				c0.582,0.68,1.559-0.307,0.981-0.982c-1.099-1.289-6.441-5.197-4.046-7.096c1.443-1.143,1.328-2.668,0.523-4.154
				c-1.545-2.861-4.092-5.275-6.225-7.682c-1.371-1.549-2.575-3.162-3.584-4.963c-1.985-3.549,0.903-5.062,4.144-5.281
				c0.49-0.035,0.738-0.414,0.67-0.879c-0.724-4.939-4.713-9.113-7.055-13.4c-1.413-2.588-7.137-12.732-2.128-14.523
				c3.666-1.314,5.746,4.617,9.45,3.77c1.729-0.396,1.932-3.014,2.069-4.375c0.333-3.277-0.085-6.613,0.763-9.836
				c0.443-1.68,2.627-3.762,4.294-2.16c1.231,1.184,1.379,3.809,1.534,5.369c0.305,3.088,0.02,6.193,0.18,9.281
				c0.056,1.078,0.294,2.75,1.194,3.486c1.343,1.096,3.282,0.656,3.855,2.834C274.888,348.885,276.227,348.516,276,347.65
				L276,347.65z"/>
		</g>
		<g>
			<path d="M253.367,354.301c-3.853-3.488-10.808-6.256-12.419,0.818c-0.202,0.891,0.226,1.912,0.758,2.6
				c0.662,0.854,1.383,1.598,1.802,2.633c0.807,1.996-1.29,1.889-2.361,2.15c-2.477,0.611-4.879,2.664-4.438,5.441
				c1.169,7.375,17.898,8.611,13.373,17.559c-1.287,2.547,0.582,4.977,2.671,6.428c1.895,1.318,3.914,2.404,5.591,4.012
				c1.427,1.367,2.609,3.016,4.159,4.25c0.693,0.551,1.683-0.426,0.982-0.982c-1.922-1.529-3.358-3.609-5.218-5.217
				c-3.005-2.598-8.616-4.018-6.337-9.162c2.128-4.809-3.909-8.891-7.322-11.029c-2.716-1.699-10.7-5.811-4.5-9.379
				c1.65-0.949,4.182-0.463,4.939-2.49c1.021-2.727-3.183-4.59-2.571-7.273c1.253-5.5,7.619-1.447,9.909,0.625
				C253.047,355.881,254.033,354.902,253.367,354.301L253.367,354.301z"/>
		</g>
		<g>
			<path d="M261.853,347.385c6.106,16.328,7.244,33.729,7.723,50.998c0.024,0.895,1.413,0.898,1.389,0
				c-0.483-17.387-1.624-34.928-7.772-51.367C262.882,346.186,261.538,346.543,261.853,347.385L261.853,347.385z"/>
		</g>
		<g>
			<path d="M278.555,399.41c0.744-11.236,1.062-22.498,1.845-33.734c0.699-10.012,1.038-21.242,5.018-30.615
				c0.346-0.814-0.851-1.523-1.199-0.701c-3.835,9.029-4.314,19.668-5.061,29.322c-0.921,11.896-1.203,23.828-1.992,35.729
				C277.106,400.305,278.496,400.297,278.555,399.41L278.555,399.41z"/>
		</g>
		<g>
			<path d="M281.35,396.59c0.48-4.223,3.456-8.807,5.837-12.256c2.502-3.623,5.833-6.645,9.243-9.391
				c0.698-0.561-0.292-1.537-0.982-0.982c-3.846,3.098-7.283,6.516-10.091,10.586c-2.369,3.432-4.917,7.842-5.396,12.043
				C279.859,397.48,281.249,397.469,281.35,396.59L281.35,396.59z"/>
		</g>
		<g>
			<path d="M247.104,363.346c-0.133-0.029-0.262-0.057-0.398-0.062c-0.711-0.027-0.922,0.947-0.352,1.295
				c0.281,0.17,0.629,0.262,0.933,0.375c0.818,0.311,1.535,0.875,2.212,1.416c1.616,1.295,2.923,2.967,4.233,4.555
				c0.57,0.691,1.546-0.295,0.982-0.982c-1.419-1.725-2.84-3.438-4.592-4.842c-0.578-0.463-1.218-0.957-1.9-1.258
				c-0.374-0.162-0.82-0.252-1.167-0.463c-0.117,0.432-0.233,0.861-0.35,1.293c0.009,0.006,0.019,0.008,0.029,0.014
				C247.606,364.885,247.977,363.545,247.104,363.346L247.104,363.346z"/>
		</g>
	</g>
	<g>
		<g>
			<path d="M367.037,375.586c0.122-19.562-0.955-39.248,1.708-58.699c0.69-5.047,1.328-11.195,4.547-15.344
				c0.651-0.84,3.671-3.143,4.026-0.146c0.16,1.342-0.309,2.717-0.455,4.041c-0.073,0.674-0.471,3.955,1.114,3.844
				c1.772-0.127,5.369-2.486,4.857,1.131c-0.308,2.184-1.443,4.312-2.251,6.342c-1.415,3.543-2.144,6.959,2.636,7.082
				c5.949,0.152-4.66,23.975-5.471,26.35c-1.558,4.568-2.738,9.211-4.068,13.844c-1.258,4.377-3.22,8.424-3.421,13.043
				c0.463,0,0.926,0,1.389,0c0-0.049,0-0.098,0-0.146c0-0.895-1.389-0.895-1.389,0c0,0.049,0,0.098,0,0.146
				c0,0.9,1.35,0.893,1.389,0c0.229-5.275,2.774-10.031,4.01-15.096c1.348-5.521,3.133-11.012,5.163-16.316
				c2.287-5.975,8.038-15.26,5.163-21.895c-1.132-2.615-5.879,0.115-5.008-3.852c0.571-2.604,1.939-5.029,2.787-7.549
				c1.229-3.648-0.378-6.594-4.524-4.98c-1.796,0.701-0.442-5.223-0.606-6.604c-0.224-1.888-1.816-2.344-3.453-2.107
				c-4.608,0.667-6.063,8.476-6.805,11.974c-3.921,18.5-2.832,37.994-2.723,56.771c0.015,2.723,0.013,5.443-0.004,8.166
				C365.643,376.484,367.032,376.482,367.037,375.586L367.037,375.586z"/>
		</g>
		<g>
			<path d="M384.389,337.252c0.396-0.459,2.547-3.305,3.308-1.357c0.398,1.023,0.089,2.322-0.176,3.32
				c-0.519,1.951-2.259,3.592-3.275,5.287c-1.851,3.092-0.385,4.508,2.341,5.727c3.546,1.594-0.882,7.242-2.169,8.699
				c-1.557,1.76-3.351,3.307-4.988,4.99c-3.599,3.707-6.363,8.529-7.956,13.418c-0.278,0.854,1.063,1.219,1.34,0.369
				c2.417-7.418,7.429-12.289,12.586-17.795c2.464-2.629,5.883-8.012,1.888-10.879c-1.458-1.045-2.97-1.57-1.843-3.83
				c0.568-1.139,1.436-2.148,2.178-3.176c1.117-1.547,1.612-3.32,1.613-5.213c0.004-4.594-3.952-2.719-5.828-0.543
				C382.825,336.941,383.803,337.93,384.389,337.252L384.389,337.252z"/>
		</g>
		<g>
			<path d="M367.159,327.945c-0.434-1.59-0.813-2.453-2.368-3.025c-2.892-1.061-2.392-3.234-2.366-5.863
				c0.03-3.037,0.04-6.135-0.766-9.088c-0.601-2.197-2.126-3.756-4.475-3.055c-2.748,0.82-3.263,3.775-3.509,6.232
				c-0.18,1.785-0.14,3.594-0.201,5.385c-0.079,2.297-0.287,5.242-3.262,3.393c-2.738-1.701-5.545-4.738-8.636-1.578
				c-2.09,2.133-0.381,6.568,0.579,8.789c1.228,2.846,2.509,5.59,4.076,8.273c1.827,3.125,4.47,5.963,5.01,9.65
				c0.224-0.293,0.446-0.586,0.669-0.879c-2.157,0.15-5.485-0.406-5.882,2.678c-0.487,3.789,2.395,6.959,4.714,9.613
				c1.635,1.873,3.317,3.662,4.735,5.717c1.334,1.932-0.252,3.016-0.74,4.703c-0.781,2.705,3.462,5.416,4.864,7.041
				c0.586,0.678,1.563-0.311,0.981-0.982c-1.266-1.471-6.036-4.848-3.417-6.924c1.177-0.934,0.679-2.6,0.111-3.652
				c-1.379-2.555-3.64-4.744-5.553-6.885c-1.393-1.559-2.648-3.189-3.675-5.012c-1.863-3.312,0.849-4.699,3.862-4.908
				c0.49-0.031,0.738-0.414,0.67-0.879c-0.709-4.838-4.703-8.982-6.955-13.211c-0.987-1.855-7.361-16.457,0.795-12.67
				c2.062,0.955,3.846,3.973,6.484,3.168c1.6-0.49,1.756-2.883,1.885-4.211c0.305-3.137-0.118-6.348,0.791-9.408
				c0.714-2.408,3.535-3.014,4.562-0.547c0.599,1.439,0.708,3.105,0.817,4.641c0.208,2.902-0.146,5.836,0.208,8.729
				c0.148,1.211,0.628,2.152,1.559,2.912c1.107,0.904,2.521,0.125,3.092,2.221C366.056,329.18,367.395,328.811,367.159,327.945
				L367.159,327.945z"/>
		</g>
		<g>
			<path d="M345.857,334.186c-3.584-3.238-9.202-5.709-11.576,0.012c-1.109,2.672,4.396,6.777,0.783,7.514
				c-2.841,0.578-4.87,2.191-4.973,5.164c-0.094,2.693,2.667,4.488,4.673,5.65c3.559,2.059,10.492,5.543,8.15,10.605
				c-1.123,2.428-0.396,4.457,1.796,6.119c1.953,1.479,4.121,2.568,5.893,4.289c1.293,1.258,2.384,2.742,3.792,3.879
				c0.69,0.555,1.679-0.418,0.981-0.982c-1.85-1.492-3.162-3.561-5.05-5.018c-1.315-1.018-2.745-1.848-4.126-2.77
				c-2.585-1.725-2.142-4.242-1.355-6.713c1.332-4.184-5.124-8.201-7.989-9.842c-1.336-0.762-2.664-1.443-3.858-2.434
				c-2.737-2.266-1.136-5.359,1.691-6.428c1.403-0.531,2.76-0.244,3.351-1.826c0.936-2.504-2.935-4.41-2.419-6.84
				c1.1-5.199,7.182-1.27,9.254,0.6C345.539,335.766,346.523,334.785,345.857,334.186L345.857,334.186z"/>
		</g>
		<g>
			<path d="M353.772,327.723c5.74,15.359,6.813,31.719,7.265,47.967c0.024,0.893,1.413,0.895,1.388,0
				c-0.455-16.365-1.532-32.863-7.313-48.336C354.801,326.52,353.458,326.881,353.772,327.723L353.772,327.723z"/>
		</g>
		<g>
			<path d="M369.566,376.656c0.698-10.559,0.998-21.133,1.731-31.684c0.657-9.436,0.976-20.006,4.72-28.84
				c0.346-0.814-0.851-1.525-1.199-0.701c-3.601,8.494-4.059,18.477-4.764,27.557c-0.869,11.209-1.135,22.451-1.877,33.668
				C368.118,377.549,369.508,377.543,369.566,376.656L369.566,376.656z"/>
		</g>
		<g>
			<path d="M372.195,374.002c0.504-4.074,3.34-8.453,5.676-11.775c2.318-3.297,5.38-6.047,8.499-8.561
				c0.697-0.561-0.292-1.537-0.982-0.982c-3.552,2.863-6.726,6.01-9.354,9.748c-2.317,3.299-4.726,7.521-5.228,11.57
				C370.696,374.889,372.086,374.879,372.195,374.002L372.195,374.002z"/>
		</g>
		<g>
			<path d="M339.946,342.688c-0.129-0.031-0.253-0.057-0.386-0.062c-0.71-0.033-0.921,0.949-0.35,1.293
				c0.266,0.16,0.597,0.25,0.887,0.361c0.762,0.287,1.432,0.814,2.062,1.318c1.521,1.221,2.751,2.791,3.984,4.287
				c0.57,0.691,1.546-0.295,0.982-0.98c-1.337-1.623-2.673-3.236-4.32-4.559c-0.548-0.438-1.151-0.904-1.797-1.189
				c-0.352-0.154-0.771-0.238-1.098-0.438c-0.117,0.432-0.234,0.863-0.35,1.295c0.005,0.002,0.012,0.008,0.018,0.014
				C340.449,344.225,340.819,342.889,339.946,342.688L339.946,342.688z"/>
		</g>
	</g>
	<g>
		<g>
			<path d="M263.572,186.292c8.416-4.065,18.133-2.113,23.613,5.654c0.512,0.726,1.717,0.035,1.199-0.699
				c-5.938-8.419-16.371-10.568-25.512-6.154C262.065,185.481,262.771,186.679,263.572,186.292L263.572,186.292z"/>
		</g>
		<g>
			<path d="M282.48,186.148c2.687-4.65,7.754-6.597,12.782-4.554c0.83,0.338,1.186-1.006,0.368-1.339
				c-5.584-2.27-11.379,0.05-14.349,5.192C280.833,186.224,282.033,186.923,282.48,186.148L282.48,186.148z"/>
		</g>
		<g>
			<path d="M289.612,182.355c-0.279,0.304-0.511,0.642-0.741,0.985c-0.499,0.747,0.704,1.441,1.199,0.7
				c0.165-0.244,0.325-0.486,0.523-0.703C291.199,182.68,290.219,181.695,289.612,182.355L289.612,182.355z"/>
		</g>
		<g>
			<path d="M272.426,186.081c2.875-1.299,5.759,0.577,7.699,2.633c0.615,0.652,1.596-0.332,0.982-0.982
				c-2.436-2.583-5.898-4.424-9.38-2.85C270.912,185.25,271.618,186.447,272.426,186.081L272.426,186.081z"/>
		</g>
		<g>
			<path d="M276.777,183.163c0.132-20.758-1.022-41.65,1.799-62.288c0.743-5.437,1.398-12.236,5.011-16.622
				c1.172-1.423,4.074-2.435,4.213,0.397c0.066,1.338-0.355,2.669-0.498,3.99c-0.109,1.02-0.484,3.759,1.107,3.979
				c1.638,0.227,5.327-2.86,5.312,0.69c-0.009,2.386-1.524,4.991-2.392,7.151c-1.317,3.283-2.632,7.527,2.266,7.637
				c5.658,0.126,0.654,12.359-0.134,14.457c-1.832,4.873-3.868,9.638-5.533,14.577c-1.646,4.878-2.776,9.889-4.33,14.785
				c-1.352,4.261-3.125,8.301-3.308,12.829c0.463,0,0.927,0,1.389,0c0-0.053,0-0.105,0-0.158c0-0.896-1.389-0.896-1.389,0
				c0,0.053,0,0.105,0,0.158c0,0.899,1.353,0.891,1.389,0c0.208-5.144,2.533-9.802,3.928-14.68c1.566-5.476,3.069-10.911,4.938-16.3
				c2.594-7.485,8.645-16.589,6.724-24.859c-0.724-3.122-5.004-0.956-5.801-2.969c-0.791-1.993,1.458-5.736,2.183-7.53
				c0.891-2.206,3.211-8.053-1.203-8.187c-0.944-0.028-1.822,0.123-2.688,0.511c-1.9,0.849-1.245-0.895-1.005-2.495
				c0.274-1.824,1.125-4.688-0.396-6.208c-3.354-3.354-7.212,3.162-8.175,5.45c-2.136,5.083-2.716,10.872-3.378,16.305
				c-1.363,11.167-1.537,22.458-1.526,33.694c0.008,8.562,0.164,17.125,0.108,25.688
				C275.382,184.059,276.771,184.058,276.777,183.163L276.777,183.163z"/>
		</g>
		<g>
			<path d="M295.232,142.381c0.967-1.123,3.587-3.041,3.758-0.207c0.075,1.221-0.336,2.456-0.858,3.538
				c-0.894,1.85-2.437,3.336-3.363,5.191c-2.235,4.478,2.657,3.744,3.89,6.668c1.999,4.737-5.932,10.419-8.685,13.271
				c-3.789,3.925-6.722,9.023-8.395,14.191c-0.277,0.854,1.064,1.218,1.34,0.369c2.494-7.712,7.654-12.931,13.085-18.607
				c2.149-2.247,6.846-8.577,2.853-11.439c-1.096-0.785-3.486-1.116-3.096-3.164c0.285-1.491,1.615-2.971,2.492-4.164
				c1.319-1.792,2.056-3.618,2.125-5.855c0.034-1.084-0.349-2.922-1.579-3.292c-1.927-0.579-3.431,1.217-4.549,2.517
				C293.67,142.075,294.647,143.061,295.232,142.381L295.232,142.381z"/>
		</g>
		<g>
			<path d="M276.909,132.535c-0.235-0.895-0.579-2.486-1.592-2.857c-0.948-0.347-2.727-0.575-3.139-1.6
				c-0.59-1.466-0.319-3.455-0.304-5.004c0.033-3.206,0.044-6.474-0.796-9.593c-0.633-2.353-2.276-4.061-4.792-3.242
				c-2.862,0.931-3.378,4.007-3.631,6.612c-0.217,2.25,0.9,11.515-3.063,9.731c-3.27-1.471-5.992-5.768-9.732-2.195
				c-2.331,2.226-0.451,7.067,0.564,9.415c1.352,3.122,2.765,6.129,4.502,9.064c1.91,3.226,4.586,6.141,5.146,9.963
				c0.224-0.293,0.446-0.586,0.67-0.878c-3.144,0.214-5.827-0.193-6.321,3.667c-0.461,3.588,3.366,7.354,5.495,9.753
				c1.885,2.127,3.697,4.233,5.292,6.595c1.412,2.088-1.589,2.636-1.444,4.276c0.289,3.28,3.2,4.929,5.185,7.255
				c0.582,0.683,1.56-0.305,0.982-0.981c-1.099-1.287-6.442-5.197-4.047-7.094c1.443-1.142,1.328-2.669,0.523-4.156
				c-1.544-2.86-4.091-5.275-6.225-7.681c-1.371-1.548-2.575-3.163-3.584-4.963c-1.985-3.546,0.904-5.06,4.145-5.281
				c0.489-0.034,0.737-0.415,0.669-0.879c-0.724-4.938-4.712-9.113-7.054-13.4c-1.414-2.589-7.137-12.732-2.128-14.525
				c3.666-1.312,5.747,4.619,9.45,3.771c1.729-0.396,1.933-3.014,2.069-4.375c0.333-3.278-0.085-6.615,0.764-9.836
				c0.443-1.68,2.627-3.762,4.293-2.161c1.231,1.184,1.379,3.81,1.534,5.369c0.305,3.088,0.02,6.192,0.18,9.283
				c0.056,1.077,0.294,2.749,1.195,3.484c1.343,1.096,3.281,0.658,3.854,2.834C275.797,133.769,277.138,133.401,276.909,132.535
				L276.909,132.535z"/>
		</g>
		<g>
			<path d="M254.277,139.185c-3.853-3.486-10.809-6.255-12.419,0.82c-0.202,0.888,0.227,1.911,0.758,2.597
				c0.662,0.854,1.383,1.599,1.802,2.635c0.808,1.995-1.29,1.888-2.36,2.151c-2.477,0.609-4.878,2.662-4.439,5.439
				c1.17,7.376,17.899,8.612,13.375,17.561c-1.287,2.545,0.582,4.975,2.671,6.428c1.894,1.317,3.914,2.401,5.591,4.01
				c1.426,1.367,2.609,3.016,4.159,4.25c0.693,0.552,1.683-0.424,0.982-0.981c-1.922-1.53-3.358-3.608-5.219-5.218
				c-3.005-2.598-8.615-4.015-6.337-9.162c2.128-4.809-3.908-8.889-7.321-11.027c-2.716-1.701-10.7-5.812-4.501-9.38
				c1.65-0.949,4.183-0.463,4.939-2.488c1.021-2.729-3.183-4.593-2.571-7.274c1.253-5.5,7.619-1.45,9.909,0.623
				C253.957,140.767,254.943,139.787,254.277,139.185L254.277,139.185z"/>
		</g>
		<g>
			<path d="M262.763,132.27c6.106,16.328,7.244,33.728,7.723,50.999c0.024,0.894,1.413,0.896,1.388,0
				c-0.482-17.387-1.623-34.928-7.772-51.368C263.792,131.07,262.448,131.43,262.763,132.27L262.763,132.27z"/>
		</g>
		<g>
			<path d="M279.464,184.295c0.745-11.236,1.062-22.498,1.846-33.733c0.698-10.012,1.038-21.242,5.018-30.617
				c0.346-0.813-0.85-1.523-1.199-0.7c-3.835,9.031-4.313,19.668-5.061,29.323c-0.921,11.895-1.203,23.826-1.992,35.727
				C278.016,185.19,279.406,185.183,279.464,184.295L279.464,184.295z"/>
		</g>
		<g>
			<path d="M282.259,181.476c0.48-4.223,3.456-8.807,5.837-12.257c2.502-3.625,5.833-6.645,9.243-9.39
				c0.699-0.562-0.292-1.538-0.981-0.982c-3.846,3.096-7.282,6.514-10.091,10.585c-2.369,3.432-4.917,7.841-5.396,12.043
				C280.769,182.365,282.159,182.354,282.259,181.476L282.259,181.476z"/>
		</g>
		<g>
			<path d="M248.013,148.232c-0.132-0.03-0.261-0.059-0.398-0.064c-0.711-0.027-0.922,0.946-0.352,1.293
				c0.281,0.171,0.629,0.263,0.933,0.378c0.818,0.31,1.535,0.872,2.212,1.415c1.617,1.295,2.924,2.965,4.234,4.556
				c0.569,0.691,1.546-0.297,0.982-0.982c-1.42-1.725-2.84-3.439-4.592-4.841c-0.578-0.464-1.218-0.959-1.9-1.259
				c-0.374-0.164-0.82-0.253-1.167-0.465c-0.116,0.432-0.233,0.863-0.35,1.294c0.009,0.005,0.019,0.009,0.03,0.015
				C248.517,149.77,248.887,148.43,248.013,148.232L248.013,148.232z"/>
		</g>
	</g>
	<g>
		<g>
			<path d="M379.961,170.741c8.416-4.064,18.133-2.113,23.613,5.655c0.511,0.726,1.716,0.034,1.198-0.7
				c-5.938-8.419-16.371-10.568-25.511-6.154C378.455,169.932,379.16,171.129,379.961,170.741L379.961,170.741z"/>
		</g>
		<g>
			<path d="M398.87,170.598c2.687-4.651,7.754-6.597,12.781-4.554c0.831,0.337,1.187-1.006,0.369-1.339
				c-5.584-2.27-11.379,0.05-14.349,5.192C397.222,170.674,398.422,171.373,398.87,170.598L398.87,170.598z"/>
		</g>
		<g>
			<path d="M406.001,166.806c-0.279,0.304-0.511,0.642-0.74,0.985c-0.499,0.747,0.704,1.441,1.199,0.7
				c0.165-0.245,0.324-0.486,0.523-0.703C407.587,167.13,406.607,166.145,406.001,166.806L406.001,166.806z"/>
		</g>
		<g>
			<path d="M388.815,170.531c2.875-1.299,5.76,0.577,7.699,2.633c0.616,0.652,1.596-0.331,0.982-0.982
				c-2.436-2.584-5.897-4.424-9.38-2.85C387.3,169.7,388.007,170.897,388.815,170.531L388.815,170.531z"/>
		</g>
		<g>
			<path d="M393.166,167.613c0.133-20.758-1.023-41.651,1.799-62.288c0.744-5.437,1.398-12.236,5.011-16.622
				c1.172-1.423,4.074-2.435,4.214,0.397c0.066,1.338-0.355,2.669-0.498,3.99c-0.11,1.02-0.484,3.759,1.107,3.979
				c1.638,0.227,5.327-2.86,5.312,0.69c-0.01,2.386-1.524,4.991-2.392,7.151c-1.317,3.283-2.633,7.527,2.266,7.637
				c5.658,0.126,0.654,12.359-0.134,14.456c-1.833,4.874-3.868,9.638-5.533,14.577c-1.645,4.877-2.776,9.889-4.33,14.786
				c-1.353,4.261-3.125,8.3-3.308,12.829c0.462,0,0.926,0,1.389,0c0-0.053,0-0.106,0-0.158c0-0.896-1.389-0.896-1.389,0
				c0,0.052,0,0.105,0,0.158c0,0.899,1.352,0.891,1.389,0c0.208-5.144,2.533-9.802,3.929-14.68c1.566-5.476,3.069-10.911,4.938-16.3
				c2.595-7.486,8.646-16.589,6.724-24.859c-0.724-3.122-5.004-0.956-5.801-2.969c-0.791-1.994,1.458-5.736,2.183-7.53
				c0.891-2.207,3.211-8.053-1.203-8.187c-0.944-0.028-1.821,0.124-2.688,0.511c-1.9,0.849-1.245-0.895-1.005-2.495
				c0.274-1.824,1.124-4.688-0.396-6.208c-3.354-3.354-7.212,3.163-8.175,5.45c-2.136,5.083-2.716,10.872-3.378,16.305
				c-1.363,11.167-1.537,22.458-1.527,33.694c0.009,8.562,0.165,17.125,0.109,25.688
				C391.771,168.509,393.16,168.508,393.166,167.613L393.166,167.613z"/>
		</g>
		<g>
			<path d="M411.621,126.832c0.967-1.123,3.587-3.041,3.758-0.208c0.074,1.222-0.336,2.457-0.859,3.539
				c-0.894,1.85-2.437,3.336-3.363,5.191c-2.235,4.478,2.656,3.744,3.89,6.667c1.999,4.738-5.932,10.419-8.685,13.271
				c-3.789,3.924-6.722,9.023-8.394,14.191c-0.277,0.855,1.064,1.218,1.339,0.369c2.494-7.712,7.654-12.931,13.085-18.607
				c2.149-2.247,6.846-8.577,2.853-11.439c-1.096-0.785-3.486-1.116-3.096-3.164c0.285-1.492,1.615-2.971,2.493-4.164
				c1.319-1.792,2.056-3.618,2.125-5.856c0.034-1.083-0.349-2.921-1.579-3.291c-1.927-0.579-3.431,1.217-4.55,2.517
				C410.059,126.525,411.037,127.511,411.621,126.832L411.621,126.832z"/>
		</g>
		<g>
			<path d="M393.298,116.984c-0.236-0.895-0.579-2.485-1.592-2.857c-0.948-0.347-2.727-0.575-3.139-1.601
				c-0.59-1.466-0.319-3.455-0.304-5.004c0.032-3.206,0.043-6.474-0.796-9.593c-0.633-2.353-2.275-4.061-4.792-3.243
				c-2.861,0.931-3.378,4.007-3.631,6.612c-0.217,2.251,0.901,11.515-3.063,9.731c-3.27-1.472-5.991-5.768-9.731-2.196
				c-2.332,2.226-0.452,7.067,0.564,9.415c1.352,3.122,2.765,6.13,4.502,9.064c1.911,3.226,4.586,6.141,5.146,9.964
				c0.224-0.293,0.447-0.586,0.67-0.879c-3.144,0.214-5.826-0.192-6.321,3.667c-0.461,3.588,3.366,7.355,5.495,9.754
				c1.885,2.127,3.697,4.233,5.292,6.595c1.411,2.088-1.59,2.636-1.445,4.275c0.289,3.281,3.201,4.93,5.185,7.255
				c0.582,0.682,1.559-0.305,0.981-0.982c-1.099-1.287-6.441-5.196-4.046-7.094c1.443-1.142,1.328-2.669,0.523-4.157
				c-1.545-2.86-4.092-5.275-6.225-7.681c-1.371-1.547-2.575-3.162-3.584-4.963c-1.985-3.546,0.903-5.06,4.145-5.281
				c0.489-0.034,0.737-0.415,0.67-0.879c-0.724-4.938-4.713-9.113-7.055-13.4c-1.413-2.588-7.137-12.732-2.128-14.525
				c3.666-1.313,5.746,4.619,9.45,3.771c1.729-0.396,1.932-3.015,2.069-4.375c0.333-3.278-0.085-6.616,0.763-9.836
				c0.443-1.681,2.627-3.762,4.294-2.16c1.231,1.184,1.379,3.809,1.534,5.369c0.305,3.088,0.02,6.192,0.18,9.283
				c0.056,1.077,0.294,2.749,1.195,3.484c1.342,1.095,3.282,0.658,3.854,2.834C392.187,118.219,393.526,117.851,393.298,116.984
				L393.298,116.984z"/>
		</g>
		<g>
			<path d="M370.666,123.635c-3.853-3.486-10.808-6.254-12.419,0.82c-0.202,0.888,0.227,1.911,0.758,2.597
				c0.662,0.854,1.383,1.599,1.802,2.635c0.807,1.995-1.29,1.888-2.361,2.151c-2.477,0.608-4.878,2.662-4.438,5.439
				c1.17,7.376,17.899,8.612,13.374,17.561c-1.287,2.545,0.582,4.975,2.671,6.428c1.895,1.316,3.914,2.401,5.591,4.01
				c1.427,1.367,2.609,3.016,4.159,4.25c0.693,0.552,1.683-0.425,0.982-0.982c-1.922-1.53-3.358-3.609-5.218-5.218
				c-3.006-2.599-8.616-4.016-6.337-9.162c2.128-4.809-3.909-8.889-7.322-11.027c-2.716-1.702-10.7-5.812-4.5-9.38
				c1.65-0.949,4.182-0.463,4.939-2.488c1.021-2.728-3.183-4.593-2.572-7.274c1.253-5.5,7.619-1.45,9.91,0.622
				C370.346,125.216,371.332,124.237,370.666,123.635L370.666,123.635z"/>
		</g>
		<g>
			<path d="M379.151,116.72c6.107,16.328,7.244,33.728,7.723,50.999c0.024,0.894,1.413,0.896,1.389,0
				c-0.483-17.387-1.624-34.929-7.772-51.367C380.181,115.52,378.836,115.879,379.151,116.72L379.151,116.72z"/>
		</g>
		<g>
			<path d="M395.854,168.745c0.744-11.236,1.062-22.498,1.845-33.733c0.699-10.012,1.038-21.242,5.018-30.617
				c0.346-0.814-0.851-1.523-1.199-0.7c-3.835,9.03-4.314,19.667-5.061,29.323c-0.921,11.895-1.203,23.826-1.993,35.727
				C394.405,169.64,395.795,169.633,395.854,168.745L395.854,168.745z"/>
		</g>
		<g>
			<path d="M398.648,165.926c0.48-4.223,3.456-8.807,5.837-12.257c2.502-3.625,5.833-6.645,9.243-9.39
				c0.698-0.562-0.292-1.538-0.982-0.982c-3.846,3.096-7.283,6.514-10.091,10.584c-2.369,3.433-4.917,7.841-5.396,12.044
				C397.158,166.815,398.548,166.804,398.648,165.926L398.648,165.926z"/>
		</g>
		<g>
			<path d="M364.402,132.682c-0.133-0.03-0.262-0.059-0.398-0.064c-0.711-0.027-0.922,0.946-0.352,1.293
				c0.281,0.171,0.629,0.263,0.933,0.379c0.818,0.309,1.535,0.872,2.212,1.414c1.616,1.295,2.923,2.964,4.233,4.555
				c0.57,0.692,1.546-0.297,0.982-0.981c-1.419-1.726-2.84-3.439-4.592-4.842c-0.578-0.464-1.218-0.958-1.9-1.259
				c-0.374-0.164-0.82-0.253-1.167-0.465c-0.117,0.431-0.233,0.863-0.35,1.293c0.009,0.006,0.019,0.01,0.029,0.015
				C364.905,134.22,365.276,132.88,364.402,132.682L364.402,132.682z"/>
		</g>
	</g>
	<g>
		<path d="M512.216,227.543c14.55,3.49,29.08,7.027,43.849,9.482c1.312,0.219,1.876-1.788,0.553-2.008
			c-14.767-2.458-29.298-5.994-43.847-9.485C511.463,225.221,510.91,227.228,512.216,227.543L512.216,227.543z"/>
	</g>
	<g>
		<path d="M510.347,219.569c6.78,3.375,15.011,4.259,22.264,6.452c8.839,2.677,17.625,5.52,26.485,8.128
			c1.291,0.381,1.839-1.63,0.554-2.009c-8.06-2.372-16.065-4.912-24.093-7.394c-7.752-2.397-16.919-3.374-24.158-6.976
			C510.2,217.174,509.144,218.97,510.347,219.569L510.347,219.569z"/>
	</g>
	<path d="M489.589,227.715c-0.755-2.278-2.947-2.929-5.151-1.971c-2.062,0.896-3.812,3.444-3.653,5.712
		c0.135,1.899,2.688,2.178,3.326,0.823c2.604,0.758,6.433,0.011,6.395-3.08C490.495,228.456,490.104,227.965,489.589,227.715z"/>
	<path d="M440.679,234.586c-1.872-1.217-4.139-0.317-5.668,0.971c-1.879,1.584-3.482,4.692-0.982,6.463
		c1.435,1.014,3.862,0.613,5.266-0.239c0.315-0.192,0.617-0.444,0.865-0.74c0.983,0.586,2.673,0.106,2.784-1.426
		C443.089,237.622,442.39,235.702,440.679,234.586z"/>
	<path d="M467.951,231.617c-2.12-2.362-5.927-1.866-8.352-0.271c-1.861,1.227-0.125,4.232,1.752,2.998
		c1.128-0.742,3.08-1.458,4.145-0.271C466.994,235.742,469.442,233.279,467.951,231.617z"/>
	<path d="M598.555,187.583c-1.692-7.741-4.7-14.491-9.227-21c-3.881-5.579-8.439-11.663-15.504-12.546
		c-0.209-0.025-0.392-0.01-0.587-0.015c-1.384-0.497-2.859-0.713-4.446-0.505c-0.426,0.055-0.827,0.151-1.213,0.27
		c0.065-0.633,0.12-1.267,0.124-1.9c0.008-0.038,0.028-0.071,0.036-0.109c1.662-8.119-1.494-17.167-10.35-19.135
		c-0.83-0.185-1.6-0.182-2.297-0.036c-8.062-5.109-18.914-5.591-28.883-4.76c-0.658-0.44-1.451-0.716-2.376-0.713
		c-10.767,0.029-21.071,2.966-31.065,6.813c-8.429,1.066-16.521,3.613-23.315,8.806c-4.958,1.695-9.865,3.535-14.676,5.631
		c-6.038,2.633-11.891,5.556-17.583,8.875c-0.517,0.301-1.037,0.596-1.56,0.89c-4.355,2.004-8.333,4.508-10.989,8.021
		c-4.823,1.029-4.54,8.968,0.94,8.873c0.551-0.009,1.104-0.05,1.656-0.068c0.24,0.252,0.532,0.455,0.848,0.631
		c-0.076,0.049-0.155,0.089-0.229,0.148c-4.815,3.811-7.698,9.324-8.488,15.416c-0.298,2.295-0.445,4.559-0.243,6.835
		c-1.183,6.191-0.392,12.003,4.218,16.075c1.506,1.332,4.221,0.526,4.147-1.717c-0.074-2.271-0.662-4.458-1.34-6.64
		c0.192-1.119,0.065-2.734,0.162-3.596c0.235-2.063,0.617-4.119,0.996-6.16c1.334-7.173,4.391-14.029,8.127-20.319
		c18.021-1.636,35.861-4.55,53.465-8.667c3.628-0.565,7.245-1.183,10.857-1.831c-1.654,6.883,1.21,15.151,3.132,21.599
		c0.507,1.701,1.133,3.355,1.809,4.991c-0.845,1.395-1.023,3.18,0.054,5.025c1.865,3.2,4.014,6.189,6.239,9.12
		c-0.001,0.019-0.006,0.037-0.007,0.056c-0.214,3.011,1.774,5.968,3.782,8.022c0.437,0.446,0.947,0.774,1.49,1.022
		c2.378,4.46,5.408,7.777,10.78,9.711c9.834,3.54,20.551,6.033,30.645,8.831c2.533,0.703,4.482-0.411,5.549-2.126
		c4.538-0.239,9.157-0.12,13.364,1.806c6.959,3.189,6.104,11.644,4.182,17.695c-0.168,0.529-0.22,1.065-0.192,1.595
		c-1.619,2.315-3.549,4.345-5.833,6.292c-2.945,2.512-8.054,6.426-12.065,4.918c-4.236-1.592-6.232,4.472-3.021,6.815
		c-0.24,1.383,0.152,2.815,1.178,3.597c0.361,0.489,0.842,0.881,1.395,1.158c1.168,0.727,2.686,0.8,3.965,0.097
		c0.685-0.376,1.207-0.97,1.546-1.653c8.759-2.613,16.104-9.371,21.619-16.477c0.37-0.477,0.612-0.979,0.744-1.486
		c3.608-2.715,4.962-7.403,6.438-11.806c0.862-2.574,1.301-5.156,1.444-7.741c0.021-0.008,0.039-0.015,0.061-0.024
		c1.532-0.667,2.686-2.69,3.008-4.212c0.16-0.751,0.164-1.505,0.045-2.225c0.022-0.994-0.294-2.063-0.742-2.829
		c-0.025-0.045-0.062-0.081-0.09-0.125c0.667-3.645,0.734-7.456,0.926-11.168C601.688,206.192,600.568,196.787,598.555,187.583z"/>
	<path d="M554.012,234.713c-2.064-0.286-4.68-0.053-7.166-0.159c-1.796-0.338-3.563-0.826-5.332-1.462
		c-0.099-0.035-0.189-0.048-0.285-0.07c-0.14-0.103-0.284-0.203-0.415-0.319c-2.005-1.773-4.963,1.162-2.946,2.945
		c1.985,1.755,4.243,2.386,6.608,2.635c1.646,0.385,3.31,0.675,4.999,0.827c-0.031,1.642,2.4,2.698,3.605,1.398
		c0.799-0.86,1.509-1.772,2.177-2.735C555.962,236.756,555.303,234.892,554.012,234.713z"/>
	<g>
		<path d="M410.1,335.893c-2.647-4.213-4.976-8.432-6.587-13.146c-0.513-1.504-2.236-7.576,1.193-5.406
			c1.859,1.174,3.231,3.26,5.536,3.602c0.461,0.068,0.849-0.178,0.879-0.67c0.151-2.467-0.88-4.373-1.965-6.531
			c-1.337-2.658-2.099-5.797-2.689-8.695c-0.593-2.918-0.648-6.412,1.332-8.839c0.985-1.208,1.776,1.376,2.007,2.005
			c1.043,2.852,1.56,5.909,2.285,8.852c0.431,1.742,0.828,4.328,2.385,5.477c0.323,0.238,0.75,0.035,0.949-0.25
			c1.303-1.852,1.444-4.723,1.853-6.875c0.692-3.65,1.312-7.529,3.119-10.822c0.823-1.5,2.293-2.704,4.059-1.934
			c1.355,0.591,1.188,2.753,1.121,3.93c-0.218,3.814-1.659,7.625-2.699,11.269c-0.534,1.869-3.265,11.715,2.216,8.959
			c1.078-0.543,1.959-1.625,2.792-2.461c0.534-0.537,1.073-1.041,1.71-1.455c1.971-1.287,1.837,3.498,1.735,4.029
			c-0.777,4.053-4.916,7.217-3.52,11.627c0.271,0.852,1.611,0.488,1.34-0.369c-1.543-4.871,4.859-8.645,3.659-13.58
			c-0.557-2.281-2.056-4.393-4.416-2.564c-1.305,1.012-2.325,2.326-3.631,3.334c-2.57,1.979-1.663-2.668-1.471-3.586
			c0.852-4.078,2.333-8.002,3.208-12.078c0.462-2.159,1.197-5.569-0.409-7.456c-1.512-1.78-3.992-1.447-5.614-0.044
			c-2.504,2.17-3.227,6.533-3.889,9.566c-0.636,2.91-0.6,7.303-2.361,9.811c0.316-0.084,0.633-0.166,0.949-0.25
			c-1.021-0.754-1.309-2.975-1.608-4.107c-0.499-1.896-0.907-3.816-1.372-5.719c-0.491-2.008-1.042-5.899-3.182-6.948
			c-2.551-1.25-3.938,3.952-4.162,5.317c-0.472,2.859,0.287,5.945,1.026,8.688c0.99,3.67,4.084,7.971,3.856,11.701
			c0.292-0.223,0.586-0.445,0.878-0.67c-2.735-0.404-4.33-4.256-7.14-4.256c-1.984,0-2.358,1.943-2.277,3.529
			c0.318,6.191,4.548,12.693,7.707,17.719C409.375,337.35,410.578,336.652,410.1,335.893L410.1,335.893z"/>
	</g>
	<g>
		<path d="M418.758,326.754c0-0.773,0-1.543,0-2.316c0-0.895-1.389-0.895-1.389,0c0,0.773,0,1.543,0,2.316
			C417.369,327.648,418.758,327.648,418.758,326.754L418.758,326.754z"/>
	</g>
	<g>
		<path d="M423.523,332.658c2.279-3.27,7.497-3.336,10.481-1.018c0.699,0.543,1.688-0.43,0.981-0.98
			c-3.725-2.896-9.826-2.77-12.662,1.299C421.811,332.693,423.015,333.387,423.523,332.658L423.523,332.658z"/>
	</g>
	<g>
		<path d="M407.072,339.619c2.433-1.555,4.753-3.033,7.752-2.912c0.896,0.035,0.892-1.354,0-1.389
			c-3.248-0.129-5.803,1.412-8.452,3.102C405.62,338.9,406.315,340.102,407.072,339.619L407.072,339.619z"/>
	</g>
	<g>
		<path d="M242.978,410.15c6.539-3.842,14.857-4.559,21.692-1.041c0.795,0.41,1.498-0.789,0.7-1.199
			c-7.274-3.746-16.112-3.061-23.092,1.043C241.506,409.404,242.205,410.607,242.978,410.15L242.978,410.15z"/>
	</g>
	<g>
		<path d="M268.666,411.461c0.173,0,0.347,0,0.521,0c0.895,0,0.895-1.389,0-1.389c-0.173,0-0.347,0-0.521,0
			C267.771,410.072,267.771,411.461,268.666,411.461L268.666,411.461z"/>
	</g>
	<g>
		<path d="M283.778,412.826c0.967-0.312,1.95-0.525,2.951-0.695c0.881-0.148,0.507-1.486-0.369-1.34
			c-1.002,0.172-1.984,0.383-2.951,0.693C282.561,411.762,282.924,413.102,283.778,412.826L283.778,412.826z"/>
	</g>
	<g>
		<path d="M290.334,409.695c0.058-0.057,0.115-0.113,0.173-0.174c0.634-0.631-0.348-1.613-0.981-0.982
			c-0.058,0.061-0.115,0.117-0.173,0.174C288.719,409.35,289.7,410.33,290.334,409.695L290.334,409.695z"/>
	</g>
	<g>
		<path d="M314.57,405.041c4.196-8.879,21.312-14.053,29.113-7.322c0.674,0.582,1.661-0.396,0.982-0.982
			c-8.454-7.293-26.681-2.162-31.294,7.605C312.99,405.146,314.188,405.852,314.57,405.041L314.57,405.041z"/>
	</g>
	<g>
		<path d="M335.151,388.801c0.335-0.152,0.671-0.234,1.039-0.252c0.891-0.047,0.895-1.436,0-1.391
			c-0.622,0.033-1.174,0.186-1.738,0.443C333.637,387.977,334.344,389.172,335.151,388.801L335.151,388.801z"/>
	</g>
	<g>
		<path d="M325.254,383.861c0.058,0,0.115,0,0.173,0c0.896,0,0.896-1.389,0-1.389c-0.058,0-0.115,0-0.173,0
			C324.358,382.473,324.358,383.861,325.254,383.861L325.254,383.861z"/>
	</g>
	<g>
		<path d="M336.016,378.828c0.895,0,0.895-1.389,0-1.389C335.121,377.439,335.121,378.828,336.016,378.828L336.016,378.828z"/>
	</g>
	<g>
		<path d="M328.725,406.08c0-0.057,0-0.115,0-0.174c0-0.895-1.388-0.895-1.388,0c0,0.059,0,0.117,0,0.174
			C327.337,406.975,328.725,406.975,328.725,406.08L328.725,406.08z"/>
	</g>
	<g>
		<path d="M386.771,370.936c1.45-0.578,2.956-0.678,4.326,0.16c0.765,0.469,1.461-0.734,0.7-1.199
			c-1.66-1.018-3.616-1.012-5.395-0.301C385.581,369.924,385.938,371.266,386.771,370.936L386.771,370.936z"/>
	</g>
	<g>
		<path d="M389.25,365.773c0.362-0.158,0.731-0.037,1.086,0.07c0.859,0.262,1.224-1.078,0.369-1.34
			c-0.765-0.232-1.418-0.252-2.155,0.07C387.731,364.934,388.438,366.129,389.25,365.773L389.25,365.773z"/>
	</g>
	<g>
		<path d="M446.56,349.926c5.589-5.504,14.405-7.379,22.006-6.301c0.875,0.123,1.253-1.215,0.369-1.34
			c-8.104-1.15-17.385,0.779-23.356,6.658C444.939,349.572,445.922,350.555,446.56,349.926L446.56,349.926z"/>
	</g>
	<g>
		<path d="M447.179,336.219c1.507-0.48,3.069-0.703,4.63-0.926c0.884-0.127,0.505-1.465-0.369-1.342
			c-1.561,0.223-3.123,0.447-4.63,0.926C445.959,335.146,446.323,336.49,447.179,336.219L447.179,336.219z"/>
	</g>
	<g>
		<path d="M462.733,334.158c0.895,0,0.895-1.389,0-1.389C461.838,332.77,461.838,334.158,462.733,334.158L462.733,334.158z"/>
	</g>
	<g>
		<path d="M318.66,186.75c3.991-2.012,10.621-2.824,14.087,0.585c0.639,0.629,1.621-0.353,0.982-0.982
			c-3.953-3.887-11.203-3.106-15.769-0.802C317.161,185.955,317.863,187.152,318.66,186.75L318.66,186.75z"/>
	</g>
	<g>
		<path d="M348.169,179.807c2.974-1.281,6.3-2.21,9.368-0.695c0.799,0.396,1.503-0.802,0.7-1.199
			c-3.567-1.763-7.284-0.807-10.768,0.695C346.649,178.961,347.357,180.157,348.169,179.807L348.169,179.807z"/>
	</g>
	<g>
		<path d="M368.305,177.376c0.647-0.296,1.386-0.251,2.08-0.252c0.895,0,0.895-1.39,0-1.389c-0.972,0.001-1.885,0.031-2.78,0.442
			C366.792,176.551,367.498,177.748,368.305,177.376L368.305,177.376z"/>
	</g>
	<g>
		<path d="M261.722,189.275c2.254,0.001,4.524-0.02,6.759,0.323c0.875,0.134,1.251-1.204,0.369-1.339
			c-2.362-0.362-4.742-0.372-7.128-0.372C260.827,187.887,260.827,189.275,261.722,189.275L261.722,189.275z"/>
	</g>
	<g>
		<path d="M335.668,178.513c0.604-0.032,1.143-0.315,1.736-0.347c0.891-0.048,0.895-1.438,0-1.389
			c-0.603,0.033-1.143,0.315-1.736,0.347C334.778,177.172,334.774,178.562,335.668,178.513L335.668,178.513z"/>
	</g>
	<g>
		<path d="M351.986,184.068c0.895,0,0.895-1.389,0-1.389C351.09,182.679,351.09,184.068,351.986,184.068L351.986,184.068z"/>
	</g>
	<g>
		<path d="M380.801,177.819c0.115,0,0.231,0,0.347,0c0.895,0,0.895-1.389,0-1.389c-0.115,0-0.232,0-0.347,0
			C379.905,176.43,379.905,177.819,380.801,177.819L380.801,177.819z"/>
	</g>
</g>
</svg>
