<?xml version="1.0" encoding="utf-8"?>
<!-- Generator: Adobe Illustrator 15.1.0, SVG Export Plug-In . SVG Version: 6.00 Build 0)  -->
<!DOCTYPE svg PUBLIC "-//W3C//DTD SVG 1.1//EN" "http://www.w3.org/Graphics/SVG/1.1/DTD/svg11.dtd">
<svg version="1.1" id="Layer_1" xmlns="http://www.w3.org/2000/svg" xmlns:xlink="http://www.w3.org/1999/xlink" x="0px" y="0px"
	 width="841.89px" height="595.28px" viewBox="0 0 841.89 595.28" enable-background="new 0 0 841.89 595.28" xml:space="preserve">
<g>
	<g>
		<path d="M395.222,294.64c-26.727,47.306-53.455,94.61-80.18,141.914c-9.5,16.813-19,33.624-28.498,50.438
			c-0.7,1.24,1.205,2.35,1.904,1.114c26.728-47.305,53.455-94.608,80.181-141.914c9.5-16.811,18.998-33.625,28.497-50.438
			C397.827,294.515,395.921,293.404,395.222,294.64L395.222,294.64z"/>
	</g>
	<g>
		<path d="M372.056,290.725c-11.037,18.965-22.073,37.928-33.109,56.891c-0.718,1.232,1.19,2.341,1.904,1.114
			c11.037-18.964,22.073-37.929,33.109-56.892C374.677,290.606,372.771,289.497,372.056,290.725L372.056,290.725z"/>
	</g>
	<g>
		<path d="M371.801,283.102c-12.472,20.799-24.943,41.6-37.415,62.401c-0.733,1.223,1.174,2.33,1.904,1.113
			c12.471-20.801,24.943-41.602,37.415-62.4C374.438,282.993,372.53,281.884,371.801,283.102L371.801,283.102z"/>
	</g>
	<g>
		<path d="M303.777,336.447c-22.52,39.858-45.04,79.716-67.56,119.573c-0.699,1.241,1.205,2.353,1.904,1.113
			c22.521-39.857,45.04-79.715,67.559-119.573C306.381,336.319,304.477,335.208,303.777,336.447L303.777,336.447z"/>
	</g>
	<g>
		<path d="M281.739,318.169c-20.168,35.695-40.335,71.39-60.502,107.083c-0.701,1.241,1.205,2.353,1.904,1.114
			c20.168-35.694,40.334-71.389,60.501-107.084C284.343,318.042,282.438,316.931,281.739,318.169L281.739,318.169z"/>
	</g>
	<g>
		<path d="M236.617,457.532c17.705,8.679,35.408,17.356,53.113,26.034c1.271,0.625,2.39-1.276,1.114-1.904
			c-17.706-8.678-35.409-17.355-53.113-26.033C236.458,455.004,235.34,456.906,236.617,457.532L236.617,457.532z"/>
	</g>
	<g>
		<path d="M236.613,465.375c18.628,9.049,37.257,18.1,55.886,27.148c1.273,0.617,2.392-1.284,1.114-1.904
			c-18.629-9.052-37.258-18.1-55.886-27.148C236.453,462.851,235.335,464.753,236.613,465.375L236.613,465.375z"/>
	</g>
	<g>
		<path d="M270.769,397.073c17.318,9.365,34.635,18.729,51.952,28.095c1.251,0.677,2.365-1.228,1.114-1.904
			c-17.317-9.364-34.635-18.729-51.952-28.095C270.631,394.493,269.518,396.396,270.769,397.073L270.769,397.073z"/>
	</g>
	<g>
		<path d="M358.4,360.823c-12.501-5.607-25.087-11.034-37.389-17.063c-6.409-3.143-13.324-5.729-18.482-10.007
			c-6.353-5.269-12.706-10.54-19.058-15.808c-1.087-0.9-2.656,0.65-1.56,1.56c6.352,5.268,12.705,10.539,19.058,15.807
			c5.061,4.196,11.153,6.542,17.051,9.433c12.933,6.339,26.126,12.089,39.267,17.982C358.572,363.305,359.695,361.402,358.4,360.823
			L358.4,360.823z"/>
	</g>
	<g>
		<path d="M323.834,423.264c-14.428-7.803-28.857-15.604-43.285-23.408c-4.91-2.656-8.022-4.011-11.27-7.902
			c-5.363-6.429-10.726-12.859-16.09-19.288c-0.912-1.092-2.463,0.476-1.56,1.56c5.188,6.218,10.375,12.437,15.563,18.655
			c3.418,4.096,6.05,5.53,10.813,8.106c14.904,8.06,29.809,16.122,44.714,24.182C323.972,425.845,325.086,423.94,323.834,423.264
			L323.834,423.264z"/>
	</g>
	<g>
		<path d="M221.237,426.366c5.065,10.222,10.129,20.444,15.194,30.669c0.631,1.273,2.534,0.155,1.903-1.114
			c-5.064-10.222-10.128-20.446-15.193-30.669C222.51,423.979,220.607,425.098,221.237,426.366L221.237,426.366z"/>
	</g>
	<g>
		<path d="M282.133,319.677c15.822,7.826,31.645,15.65,47.467,23.476c1.271,0.626,2.389-1.274,1.114-1.904
			c-15.823-7.825-31.645-15.649-47.467-23.475C281.977,317.146,280.859,319.048,282.133,319.677L282.133,319.677z"/>
	</g>
	<g>
		<path d="M329.6,343.152c9.229,6.523,18.458,13.051,27.687,19.574c1.165,0.823,2.265-1.089,1.113-1.903
			c-9.229-6.526-18.458-13.051-27.686-19.575C329.549,340.424,328.449,342.338,329.6,343.152L329.6,343.152z"/>
	</g>
	<g>
		<path d="M239.465,457.805c-1.083,2.02-2.165,4.04-3.248,6.061c-0.671,1.254,1.232,2.367,1.904,1.113
			c1.083-2.021,2.165-4.04,3.247-6.061C242.041,457.664,240.136,456.551,239.465,457.805L239.465,457.805z"/>
	</g>
	<g>
		<path d="M225.358,441.149c3.37,7.759,6.739,15.52,10.109,23.277c0.565,1.302,2.465,0.18,1.904-1.113
			c-3.37-7.758-6.738-15.519-10.109-23.277C226.698,438.733,224.798,439.858,225.358,441.149L225.358,441.149z"/>
	</g>
	<g>
		<path d="M227.355,440.814c0.465-0.652,0.932-1.306,1.398-1.956c0.35-0.491,0.087-1.228-0.396-1.51
			c-0.554-0.326-1.16-0.093-1.508,0.396c-0.467,0.65-0.933,1.303-1.398,1.956c-0.351,0.488-0.087,1.225,0.396,1.508
			C226.401,441.533,227.006,441.301,227.355,440.814L227.355,440.814z"/>
	</g>
	<g>
		<path d="M392.115,271.292c-2.056-0.675-5.113,1.126-6.916,2.041c-3.962,2.01-6.404,5.302-8.16,9.312
			c-1.253,2.862-2.569,6.459-1.247,9.542c1.178,2.742,3.337,2.931,5.414,0.982c1.039-0.976-0.523-2.533-1.56-1.56
			c-2.676,2.511-1.938-4.162-1.709-4.957c0.698-2.416,1.725-4.679,3.061-6.804c1.382-2.197,3.402-3.642,5.67-4.792
			c0.962-0.489,3.693-2.022,4.86-1.639C392.884,273.864,393.46,271.734,392.115,271.292L392.115,271.292z"/>
	</g>
	<g>
		<path d="M381.385,283.366c-0.892,3.277-2.966,7.496-1.553,10.891c1.22,2.925,4.12,1.57,5.131-0.668
			c0.581-1.286-1.319-2.408-1.904-1.113c-0.225,0.498-0.787,1.942-1.257,0.816c-0.424-1.019-0.132-2.382,0.05-3.414
			c0.357-2.018,1.124-3.952,1.66-5.926C383.886,282.578,381.758,281.995,381.385,283.366L381.385,283.366z"/>
	</g>
	<g>
		<path d="M385.356,284.112c-1.882,2.944-2.37,7.161-1.989,10.575c0.318,2.867,3.223,4.793,5.18,2.117
			c0.843-1.148-1.073-2.246-1.904-1.113c-0.643,0.879-1.144-1.797-1.155-1.978c-0.065-0.98,0.018-1.969,0.109-2.944
			c0.177-1.894,0.63-3.928,1.663-5.544C388.029,284.024,386.12,282.919,385.356,284.112L385.356,284.112z"/>
	</g>
	<g>
		<path d="M389.009,284.453c-1.74,3.347-2.769,7.447-1.773,11.171c0.312,1.167,1.177,2.627,2.55,2.627
			c1.37,0,2.387-1.284,3.252-2.171c0.996-1.017-0.564-2.576-1.56-1.56c-0.495,0.509-0.967,1.051-1.552,1.458
			c-0.489,0.34-0.873-3.386-0.871-3.653c0.02-2.313,0.8-4.725,1.858-6.76C391.568,284.306,389.665,283.191,389.009,284.453
			L389.009,284.453z"/>
	</g>
	<g>
		<path d="M392.672,293.01c-0.381-4.121,3.611-4.493,6.018-6.802c1.607-1.542,3.025-4.073,2.126-6.287
			c-0.526-1.301-2.661-0.732-2.126,0.586c1.371,3.379-3.666,5.452-5.747,6.795c-1.979,1.278-2.684,3.455-2.477,5.708
			C390.595,294.414,392.803,294.427,392.672,293.01L392.672,293.01z"/>
	</g>
	<g>
		<path d="M391.965,294.763c1.291,0.532,2.601,1.025,3.916,1.499c1.342,0.48,1.914-1.649,0.586-2.127
			c-1.314-0.472-2.625-0.965-3.916-1.5c-0.557-0.23-1.211,0.246-1.356,0.771C391.021,294.039,391.41,294.533,391.965,294.763
			L391.965,294.763z"/>
	</g>
	<g>
		<path d="M395.741,287.844c0.172,0.261,0.191,0.494,0.045,0.771c-0.665,1.256,1.239,2.372,1.904,1.113
			c0.5-0.943,0.564-2.083-0.045-2.998C396.861,285.556,394.949,286.658,395.741,287.844L395.741,287.844z"/>
	</g>
	<g>
		<path d="M393.923,290.11c0.945,0.309,7.619,2.966,7.153,3.808c-0.332,0.599-0.663,1.2-0.995,1.799
			c-1.579,2.856-3.159,5.714-4.738,8.57c-6.047,10.938-12.094,21.875-18.141,32.812c-17.051,30.84-34.101,61.68-51.152,92.516
			c-11.316,20.468-22.631,40.934-33.947,61.398c-0.688,1.246,1.217,2.357,1.904,1.113c26.184-47.356,52.368-94.713,78.55-142.069
			c8.144-14.73,16.287-29.458,24.431-44.189c1.836-3.319,3.672-6.64,5.509-9.961c2.457-4.446-4.687-6.847-7.988-7.924
			C393.153,287.541,392.577,289.671,393.923,290.11L393.923,290.11z"/>
	</g>
	<g>
		<path d="M375.143,290.92c-1.38,1.267-0.582-5.993-0.692-5.257c0.4-2.671,1.73-5.116,3.188-7.34
			c2.855-4.359,7.683-6.412,12.568-7.478c1.389-0.303,0.8-2.43-0.585-2.127c-8.34,1.82-14.368,6.75-16.98,15.004
			c-0.71,2.245-0.914,13.326,4.061,8.757C377.753,291.515,376.189,289.959,375.143,290.92L375.143,290.92z"/>
	</g>
	<g>
		<path d="M391.437,273.327c4.399,1.434,7.326,6.163,8.421,10.441c0.352,1.378,2.479,0.792,2.125-0.586
			c-1.294-5.063-4.808-10.302-9.96-11.982C390.667,270.758,390.09,272.889,391.437,273.327L391.437,273.327z"/>
	</g>
	<g>
		<path d="M400.478,285.09c15.37-3.074,30.739-6.148,46.108-9.223c1.395-0.278,0.803-2.403-0.586-2.125
			c-15.371,3.074-30.739,6.147-46.108,9.222C398.497,283.243,399.089,285.368,400.478,285.09L400.478,285.09z"/>
	</g>
	<g>
		<path d="M492.039,227.373c-15.313,15.745-32.286,29.851-46.525,46.652c-0.913,1.078,0.638,2.646,1.56,1.559
			c14.239-16.801,31.212-30.907,46.525-46.652C494.59,227.912,493.033,226.352,492.039,227.373L492.039,227.373z"/>
	</g>
	<g>
		<path d="M474.578,210.462c-13.835,13.884-27.026,28.382-40.504,42.608c-0.979,1.031,0.579,2.593,1.56,1.559
			c13.478-14.226,26.669-28.724,40.504-42.608C477.143,211.014,475.583,209.454,474.578,210.462L474.578,210.462z"/>
	</g>
	<g>
		<path d="M390.828,272.362c6.175-2.383,12.119-5.583,18.249-8.119c8.897-3.681,17.94-7.004,26.986-10.297
			c1.327-0.482,0.754-2.613-0.585-2.126c-8.403,3.057-16.78,6.177-25.076,9.517c-6.802,2.739-13.342,6.267-20.16,8.899
			C388.929,270.741,389.499,272.875,390.828,272.362L390.828,272.362z"/>
	</g>
	<g>
		<path d="M405.681,266.159c5.353,0.794,5.876,10.947,5.669,15.065c-0.071,1.421,2.135,1.415,2.206,0
			c0.258-5.131-0.681-16.21-7.289-17.193C404.877,263.825,404.278,265.951,405.681,266.159L405.681,266.159z"/>
	</g>
	<g>
		<path d="M390.081,269.723c13.537-8.062,27.864-14.574,42.378-20.658c1.29-0.542,0.724-2.676-0.587-2.127
			c-14.69,6.158-29.202,12.72-42.905,20.881C387.747,268.546,388.855,270.452,390.081,269.723L390.081,269.723z"/>
	</g>
	<g>
		<path d="M443.729,220.954c-4.31,8.786-8.62,17.569-12.93,26.353c-0.625,1.273,1.277,2.391,1.904,1.114
			c4.31-8.784,8.62-17.568,12.93-26.353C446.259,220.797,444.356,219.677,443.729,220.954L443.729,220.954z"/>
	</g>
	<g>
		<path d="M431.016,277.639c-1.079,8.928-1.904,17.872-2.378,26.854c-0.076,1.421,2.131,1.415,2.206,0
			c0.473-8.981,1.298-17.925,2.377-26.854C433.391,276.229,431.183,276.245,431.016,277.639L431.016,277.639z"/>
	</g>
	<g>
		<path d="M451.363,200.744c-3.717,6.938-5.96,14.875-8.343,22.347c-3,9.41-5.577,18.977-7.688,28.625
			c-0.304,1.387,1.822,1.975,2.126,0.586c1.814-8.292,4.028-16.479,6.454-24.615c2.563-8.6,5.099-17.89,9.354-25.83
			C453.939,200.604,452.035,199.49,451.363,200.744L451.363,200.744z"/>
	</g>
	<g>
		<path d="M493.694,179.562c3.911,3.468,7.609,7.207,10.973,11.208c7.216,8.583,6.361,21.222,5.879,31.826
			c-0.552,12.1-2.27,24.204-3.592,36.239c-1.446,13.149-3.097,26.275-5.272,39.328c-0.232,1.391,1.893,1.985,2.125,0.585
			c4.284-25.68,7.85-52.124,9.035-78.143c0.431-9.446,0.836-21.174-4.907-29.209c-3.547-4.965-8.126-9.355-12.681-13.393
			C494.193,177.062,492.627,178.617,493.694,179.562L493.694,179.562z"/>
	</g>
	<g>
		<path d="M502.377,293.768c0.02,7.627,2.481,14.783,4.083,22.166c0.301,1.39,2.427,0.799,2.126-0.586
			c-1.559-7.189-3.985-14.146-4.003-21.58C504.58,292.346,502.374,292.344,502.377,293.768L502.377,293.768z"/>
	</g>
	<g>
		<path d="M428.96,305.271c9.03,9.189,23.146,11.823,35.38,13.682c14.47,2.197,29.335,1.535,43.443-2.391
			c1.368-0.379,0.787-2.507-0.585-2.126c-12.655,3.521-25.618,4.179-38.646,2.848c-12.751-1.303-28.692-4.069-38.032-13.571
			C429.521,302.695,427.964,304.257,428.96,305.271L428.96,305.271z"/>
	</g>
	<g>
		<path d="M445.189,274.805c-1.079,12.865-1.402,25.75-1.113,38.658c0.033,1.419,2.238,1.424,2.206,0
			c-0.289-12.908,0.033-25.793,1.113-38.658C447.516,273.386,445.309,273.398,445.189,274.805L445.189,274.805z"/>
	</g>
	<g>
		<path d="M458.834,206.274c-2.821,9.476-5.351,19.043-7.581,28.676c-0.322,1.382,1.804,1.971,2.125,0.585
			c2.232-9.632,4.761-19.2,7.582-28.676C461.366,205.493,459.237,204.914,458.834,206.274L458.834,206.274z"/>
	</g>
	<g>
		<path d="M459.14,212.797c2.041-7.355,8.012-13.087,13.454-18.064c6.775-6.196,14.549-11.149,22.863-14.999
			c1.288-0.596,0.168-2.497-1.113-1.904c-9.122,4.223-17.271,9.82-24.678,16.594c-5.271,4.821-10.694,10.727-12.652,17.787
			C456.632,213.584,458.761,214.167,459.14,212.797L459.14,212.797z"/>
	</g>
	<g>
		<path d="M467.472,199.854c4.937-1.8,10.802-0.667,14.551,3.07c1.008,1.005,2.567-0.555,1.56-1.56
			c-4.268-4.254-11.043-5.698-16.695-3.638C465.561,198.209,466.133,200.341,467.472,199.854L467.472,199.854z"/>
	</g>
	<g>
		<path d="M484.03,202.885c4.022-6.983,12.471-11.435,19.379-15.079c1.258-0.664,0.144-2.567-1.113-1.904
			c-7.222,3.809-15.954,8.552-20.17,15.87C481.414,203.005,483.32,204.117,484.03,202.885L484.03,202.885z"/>
	</g>
	<g>
		<path d="M455.844,188.181c2.189,5.156,3.681,10.534,3.708,16.168c0.008,1.421,2.214,1.423,2.206,0
			c-0.03-6.04-1.663-11.756-4.01-17.283C457.193,185.762,455.294,186.887,455.844,188.181L455.844,188.181z"/>
	</g>
	<g>
		<path d="M460.504,205.355c-3.897-5.303-11.895-7.106-17.591-4.164c-1.264,0.653-0.148,2.555,1.113,1.904
			c4.635-2.393,11.617-0.65,14.573,3.373C459.433,207.602,461.349,206.503,460.504,205.355L460.504,205.355z"/>
	</g>
	<g>
		<path d="M444.533,202.437c0.852-3.614,4.218-7.062,6.721-9.622c2.743-2.805,6.026-4.989,9.494-6.788
			c1.263-0.655,0.147-2.558-1.114-1.904c-4.003,2.076-7.551,4.689-10.704,7.914c-2.546,2.603-5.674,6.208-6.522,9.814
			C442.081,203.234,444.208,203.822,444.533,202.437L444.533,202.437z"/>
	</g>
	<g>
		<path d="M503.48,315.641c-0.104-0.002-0.207-0.002-0.311-0.004c-0.517-0.007-0.899,0.347-1.062,0.81
			c-1.336,3.786-0.696,9.04-0.838,12.983c-0.264,7.414-0.161,14.838,0.086,22.25c0.5,15.004,1.949,29.972,3.737,44.871
			c3.476,28.96,9.552,56.959,18.521,84.72c0.436,1.349,2.565,0.771,2.125-0.585c-8.914-27.597-14.909-55.358-18.439-84.135
			c-1.661-13.545-2.905-27.145-3.569-40.777c-0.162-3.33-0.273-37.93-0.249-37.927C504.902,317.861,504.901,315.655,503.48,315.641
			L503.48,315.641z"/>
	</g>
	<g>
		<path d="M460.287,350.838c2.306,27.438,11.09,54.302,20.319,80.081c6.803,19.004,14.403,37.756,22.698,56.159
			c0.584,1.294,2.484,0.172,1.904-1.114c-8.219-18.232-15.692-36.816-22.476-55.63c-9.206-25.537-17.956-52.302-20.241-79.496
			C462.374,349.432,460.168,349.42,460.287,350.838L460.287,350.838z"/>
	</g>
	<g>
		<path d="M470.052,401c-2.858,28.468-3.555,56.939-2.047,85.511c0.075,1.415,2.281,1.423,2.206,0
			c-1.508-28.571-0.812-57.043,2.046-85.511C472.399,399.585,470.192,399.598,470.052,401L470.052,401z"/>
	</g>
	<g>
		<path d="M433.82,309.207c-0.641,14.516-2.36,28.978-2.504,43.516c-0.148,15.081,0.588,30.162,1.842,45.188
			c2.399,28.757,7.168,57.279,12.832,85.556c0.279,1.396,2.405,0.804,2.126-0.586c-5.771-28.809-10.487-57.819-12.932-87.112
			c-1.195-14.316-1.733-28.681-1.662-43.045c0.072-14.534,1.864-29.005,2.503-43.516
			C436.088,307.783,433.882,307.789,433.82,309.207L433.82,309.207z"/>
	</g>
	<g>
		<path d="M479.763,320.527c2.855,10.305,12.32,16.47,22.164,19.173c1.373,0.376,1.956-1.752,0.586-2.129
			c-9.093-2.496-17.974-8.064-20.624-17.629C481.51,318.571,479.382,319.153,479.763,320.527L479.763,320.527z"/>
	</g>
	<g>
		<path d="M479.35,329.212c0.548,1.538,1.626,2.685,2.987,3.555c1.202,0.769,2.307-1.14,1.113-1.904
			c-0.848-0.543-1.628-1.267-1.975-2.235c-0.201-0.566-0.743-0.939-1.356-0.771C479.572,328.007,479.147,328.646,479.35,329.212
			L479.35,329.212z"/>
	</g>
	<g>
		<path d="M434.4,320.907c4.265-0.841,7.521-2.562,10.4-5.82c0.938-1.062-0.617-2.628-1.56-1.56
			c-2.64,2.988-5.519,4.482-9.427,5.253C432.42,319.055,433.011,321.181,434.4,320.907L434.4,320.907z"/>
	</g>
	<g>
		<path d="M438.248,325.985c0.563-0.183,1.133-0.354,1.643-0.663c1.211-0.738,0.104-2.646-1.114-1.904
			c-0.349,0.214-0.728,0.315-1.114,0.439C436.314,324.295,436.892,326.423,438.248,325.985L438.248,325.985z"/>
	</g>
	<g>
		<path d="M503.964,487.584c8.048,2.104,15.369-0.686,21.395-6.128c1.058-0.954-0.508-2.51-1.56-1.56
			c-5.429,4.904-11.979,7.461-19.249,5.562C503.173,485.098,502.589,487.227,503.964,487.584L503.964,487.584z"/>
	</g>
	<g>
		<path d="M446.273,483.953c6.484,5.653,15.135,4.942,23.128,3.619c1.401-0.229,0.805-2.355-0.586-2.125
			c-7.076,1.169-15.2,1.988-20.982-3.054C446.766,481.462,445.2,483.018,446.273,483.953L446.273,483.953z"/>
	</g>
	<g>
		<path d="M504.071,487.328c1.276,4.07,6.245,3.65,9.652,3.148c3.945-0.582,10.076-2.599,9.01-7.689
			c-0.291-1.392-2.416-0.801-2.125,0.586c0.945,4.525-13.062,7.668-14.411,3.369C505.773,485.389,503.644,485.967,504.071,487.328
			L504.071,487.328z"/>
	</g>
	<g>
		<path d="M449.316,484.915c-1.577,3.675,1.152,5.837,4.581,6.571c4.272,0.918,9.224-0.43,12.918-2.582
			c1.229-0.715,0.119-2.621-1.113-1.904c-1.989,1.159-4.095,1.835-6.347,2.272c-1.406,0.274-9.863,0.786-8.135-3.243
			C451.775,484.736,449.876,483.612,449.316,484.915L449.316,484.915z"/>
	</g>
	<g>
		<path d="M521.531,483.741c0.89,5.113,0.813,10.182,0.376,15.341c-0.12,1.419,2.087,1.406,2.206,0
			c0.454-5.366,0.469-10.615-0.456-15.927C523.415,481.756,521.289,482.353,521.531,483.741L521.531,483.741z"/>
	</g>
	<g>
		<path d="M503.934,486.081c-8.413,4.933-18.626,5.67-26.878,10.935c-2.491,1.587-3.502,4.952-0.114,6.082
			c4.533,1.513,9.742,0.941,14.431,0.689c10.729-0.578,21.317-2.007,31.931-3.642c1.402-0.215,0.805-2.342-0.586-2.126
			c-12.621,1.942-25.342,3.75-38.141,3.789c-2.136,0.006-4.282-0.107-6.363-0.607c-3.705-0.891,3.566-4.222,4.686-4.7
			c7.319-3.13,15.23-4.461,22.148-8.517C506.272,487.267,505.163,485.358,503.934,486.081L503.934,486.081z"/>
	</g>
	<g>
		<path d="M447.254,484.631c-8.413,4.931-18.625,5.67-26.878,10.934c-3.267,2.084-2.917,5.147,0.572,6.312
			c4.354,1.452,9.677,0.654,14.174,0.439c11.105-0.532,22.078-2.165,33.053-3.862c1.402-0.217,0.805-2.341-0.585-2.126
			c-13.139,2.031-26.367,3.987-39.691,4.03c-2.137,0.007-4.283-0.107-6.365-0.609c-3.705-0.89,3.567-4.22,4.687-4.699
			c7.317-3.13,15.228-4.459,22.147-8.515C449.594,485.814,448.484,483.909,447.254,484.631L447.254,484.631z"/>
	</g>
	<g>
		<path d="M467.087,487.125c-0.011,3.424-0.141,6.845-0.307,10.266c-0.071,1.423,2.136,1.415,2.204,0
			c0.168-3.421,0.297-6.842,0.309-10.266C469.297,485.701,467.091,485.703,467.087,487.125L467.087,487.125z"/>
	</g>
	<g>
		<path d="M428.897,120.515c-3.119,9.12-3.185,19.686-2.494,29.175c0.769,10.601,3.557,21.242,12.062,28.201
			c16.65,13.625,46.312,10.825,61.015-4.283c0.992-1.019-0.566-2.58-1.559-1.559c-14.461,14.858-42.731,16.691-58.855,3.498
			c-8.324-6.811-10.071-18.575-10.64-28.668c-0.475-8.418-0.154-17.731,2.597-25.778
			C431.485,119.751,429.354,119.177,428.897,120.515L428.897,120.515z"/>
	</g>
	<g>
		<path d="M482.494,130.825c-3.016,6.855,3.785,13.966,10.602,13.422c1.408-0.112,1.419-2.319,0-2.205
			c-2.635,0.209-4.937-0.635-6.832-2.476c-1.757-1.707-2.889-5.303-1.865-7.627C484.967,130.649,483.066,129.525,482.494,130.825
			L482.494,130.825z"/>
	</g>
	<g>
		<path d="M494.75,143.053c-0.415-3.228,3.339-4.99,6.131-4.432c1.804,0.361,2.396,2.109,2.406,3.739
			c0.02,3.269-2.594,7.237-6.217,5.98c-1.348-0.468-1.921,1.664-0.586,2.127c5.812,2.017,9.66-4.769,8.858-9.771
			c-1.177-7.341-13.692-4.598-12.798,2.357C492.723,144.443,494.931,144.461,494.75,143.053L494.75,143.053z"/>
	</g>
	<g>
		<path d="M496.754,148.239c-4.245,1.753-5.431,7.461-4.564,11.622c1.131,5.443,5.203,10.016,11.128,9.28
			c1.392-0.173,1.409-2.38,0-2.205c-4.561,0.567-7.547-2.489-8.791-6.647c-0.875-2.924-0.476-8.564,2.813-9.923
			C498.636,149.83,498.068,147.695,496.754,148.239L496.754,148.239z"/>
	</g>
	<g>
		<path d="M516.886,124.273c1.821,17.556-6.733,37.199-19.917,48.75c-1.072,0.939,0.494,2.493,1.56,1.56
			c13.578-11.896,22.439-32.219,20.563-50.309C518.946,122.873,516.739,122.859,516.886,124.273L516.886,124.273z"/>
	</g>
	<g>
		<path d="M437.557,99.879c-6.272,0.427-17.953,2.833-17.832,11.055c0.056,3.836,4.125,6.885,6.83,8.96
			c4.788,3.675,10.811,5.721,16.576,7.23c11.92,3.121,24.468,3.063,36.696,3.066c14.105,0.003,28.573-0.417,41.67-6.22
			c1.298-0.575,0.175-2.475-1.113-1.904c-11.064,4.902-23.222,5.686-35.171,5.886c-9.284,0.155-18.613,0.147-27.867-0.693
			c-9.895-0.898-20.035-3.061-28.511-8.454c-4.995-3.179-9.927-8.781-3.488-13.193c3.441-2.359,8.129-3.25,12.21-3.528
			C438.968,101.988,438.978,99.782,437.557,99.879L437.557,99.879z"/>
	</g>
	<g>
		<path d="M515.996,118.568c1.614-0.602,5.969-1.118,6.795,1.045c0.405,1.06-2.402,2.395-3.041,2.737
			c-2.801,1.5-6.533,3-9.751,3.216c-1.411,0.095-1.42,2.301,0,2.206c4.467-0.3,10.064-2.418,13.502-5.26
			c1.413-1.167,2.138-3.224,0.719-4.701c-2.134-2.224-6.06-2.396-8.809-1.37C514.09,116.934,514.661,119.066,515.996,118.568
			L515.996,118.568z"/>
	</g>
	<g>
		<path d="M436.203,100.688c-3.94,10.784,15.525,16.189,22.524,18.027c18.658,4.9,38.554,3.736,57.269-0.147
			c1.393-0.289,0.803-2.415-0.585-2.127c-16.003,3.32-32.321,4.345-48.506,1.744c-6.049-0.973-32.496-6.181-28.576-16.911
			C438.819,99.936,436.687,99.364,436.203,100.688L436.203,100.688z"/>
	</g>
	<g>
		<path d="M492.361,84.024c12.26,5.209,25.494,18.515,23.447,32.925c-0.197,1.39,1.927,1.99,2.126,0.586
			c2.195-15.443-11.123-29.748-24.46-35.415C492.182,81.57,491.056,83.469,492.361,84.024L492.361,84.024z"/>
	</g>
	<g>
		<path d="M437.637,104.791c7.407-11.305,17.334-18.529,30.46-21.91c1.376-0.354,0.793-2.481-0.586-2.126
			c-13.67,3.521-24.062,11.148-31.777,22.922C434.951,104.871,436.862,105.975,437.637,104.791L437.637,104.791z"/>
	</g>
	<g>
		<path d="M455.508,105.282c0.688-10.631,10.581-21.271,18.558-27.415c1.108-0.854,0.015-2.772-1.114-1.904
			c-8.694,6.698-18.901,17.771-19.648,29.319C453.211,106.704,455.417,106.694,455.508,105.282L455.508,105.282z"/>
	</g>
	<g>
		<path d="M453.757,106.693c0.924,0.563,1.783,1.217,2.666,1.838c0.492,0.347,1.224,0.091,1.509-0.395
			c0.323-0.552,0.095-1.164-0.396-1.509c-0.883-0.622-1.742-1.276-2.666-1.838C453.652,104.046,452.545,105.955,453.757,106.693
			L453.757,106.693z"/>
	</g>
	<g>
		<path d="M458.777,108.148c1.685-6.398,7.924-11.808,12.602-16.213c5.937-5.592,12.959-9.827,20.554-12.739
			c1.314-0.504,0.745-2.637-0.586-2.126c-7.467,2.862-14.106,6.915-20.186,12.102c-5.45,4.649-12.621,11.216-14.51,18.391
			C456.287,108.939,458.415,109.523,458.777,108.148L458.777,108.148z"/>
	</g>
	<g>
		<path d="M459.034,108.872c6.643-12.508,21.281-20.782,34.393-24.649c1.361-0.401,0.783-2.53-0.585-2.127
			c-13.656,4.029-28.803,12.65-35.712,25.662C456.464,109.014,458.368,110.128,459.034,108.872L459.034,108.872z"/>
	</g>
	<g>
		<path d="M490.577,78.427c0.523,1.567,0.991,3.163,1.18,4.81c0.16,1.396,2.367,1.412,2.206,0c-0.212-1.854-0.669-3.629-1.26-5.396
			C492.255,76.499,490.125,77.074,490.577,78.427L490.577,78.427z"/>
	</g>
	<g>
		<path d="M474.222,77.916c5.768-0.878,11.328-0.316,17.001,0.922c1.386,0.303,1.975-1.824,0.585-2.127
			c-6.081-1.327-11.987-1.863-18.171-0.922C472.234,76.002,472.832,78.127,474.222,77.916L474.222,77.916z"/>
	</g>
	<g>
		<path d="M480.873,101.954c0.961,1.021,1.97,2.014,2.792,3.154c0.823,1.142,2.737,0.042,1.903-1.114
			c-0.934-1.297-2.042-2.438-3.136-3.6C481.457,99.356,479.9,100.919,480.873,101.954L480.873,101.954z"/>
	</g>
	<g>
		<path d="M485.449,105.779c7.239-5.253,15.436-7.843,24.325-8.396c1.413-0.088,1.422-2.293,0-2.206
			c-9.256,0.576-17.89,3.219-25.438,8.697C483.197,104.702,484.296,106.617,485.449,105.779L485.449,105.779z"/>
	</g>
	<g>
		<path d="M482.312,101.432c4.608-6.362,13.694-9.809,21.122-11.123c1.399-0.248,0.805-2.373-0.586-2.127
			c-8.074,1.429-17.467,5.272-22.44,12.136C479.57,101.473,481.485,102.572,482.312,101.432L482.312,101.432z"/>
	</g>
	<g>
		<path d="M495.645,119.802c0.489-4.485,2.509-8.919,5.607-12.201c1.979-2.097,5.047-3.978,7.94-2.497
			c2.359,1.208,2.953,4.875,2.995,7.184c0.025,1.421,2.231,1.424,2.205,0c-0.104-5.63-3.434-11.363-9.771-9.543
			c-6.713,1.927-10.502,10.826-11.182,17.056C493.286,121.215,495.492,121.2,495.645,119.802L495.645,119.802z"/>
	</g>
	<g>
		<path d="M507.276,109.217c0.057,0.023,0.084,0.378,0.086,0.453c0.049,1.419,2.254,1.424,2.206,0
			c-0.041-1.19-0.593-2.125-1.706-2.58c-0.557-0.228-1.212,0.243-1.356,0.771C506.331,108.493,506.721,108.99,507.276,109.217
			L507.276,109.217z"/>
	</g>
	<g>
		<path d="M428.72,127.935c2.974,0.388,5.695-0.604,7.947-2.528c1.084-0.925-0.484-2.479-1.56-1.56
			c-1.837,1.569-4.001,2.194-6.388,1.883C427.312,125.546,427.33,127.754,428.72,127.935L428.72,127.935z"/>
	</g>
	<g>
		<path d="M451.847,153.146c-1.001-0.983-2.401-1.431-3.765-0.996c-1.402,0.448-2.288,1.876-2.283,3.307
			c0.011,2.759,3.055,4.839,5.556,3.729c1.298-0.576,0.175-2.477-1.113-1.904c-1.055,0.468-2.037-0.885-2.232-1.745
			c-0.123-0.547,0.293-1.047,0.733-1.29c0.517-0.284,1.187,0.107,1.545,0.458C451.303,155.702,452.863,154.143,451.847,153.146
			L451.847,153.146z"/>
	</g>
	<g>
		<path d="M440.931,167.061c6.337,6.233,21.436,6.2,27.089-1.057c0.863-1.107-0.685-2.681-1.559-1.56
			c-4.841,6.213-18.497,6.44-23.971,1.057C441.476,164.503,439.915,166.062,440.931,167.061L440.931,167.061z"/>
	</g>
	<g>
		<path d="M466.352,164.511c1.129,0.116,1.422,1.011,1.333,2.022c-0.053,0.6,0.541,1.103,1.103,1.103
			c0.641,0,1.05-0.504,1.103-1.103c0.093-1.054-0.152-2.094-0.816-2.928c-0.676-0.846-1.678-1.192-2.722-1.299
			c-0.599-0.061-1.103,0.548-1.103,1.103C465.249,164.056,465.754,164.45,466.352,164.511L466.352,164.511z"/>
	</g>
	<g>
		<path d="M454.929,152.433c4.74-1.222,9.776-1.72,14.577-0.551c1.381,0.336,1.967-1.791,0.585-2.127
			c-5.185-1.263-10.623-0.771-15.749,0.551C452.966,150.661,453.549,152.789,454.929,152.433L454.929,152.433z"/>
	</g>
	<g>
		<path d="M433.699,151.675c4.376-1.505,8.71-1.261,13.061,0.207c1.352,0.456,1.928-1.675,0.586-2.127
			c-4.688-1.582-9.521-1.828-14.232-0.207C431.776,150.008,432.352,152.138,433.699,151.675L433.699,151.675z"/>
	</g>
	<g>
		<path d="M456.22,150.129c-0.001-3.701,1.226-7.086,3.604-9.925c1.426-1.7,4.353-4.305,6.521-2.34
			c2.856,2.589,2.731,8.801,1.562,12.11c-0.476,1.344,1.655,1.917,2.126,0.586c1.567-4.435,1.248-12.43-3.295-15.128
			c-2.559-1.52-5.396,0.428-7.311,2.042c-3.63,3.059-5.416,8.019-5.414,12.655C454.015,151.551,456.22,151.551,456.22,150.129
			L456.22,150.129z"/>
	</g>
	<g>
		<path d="M435.323,148.814c-1.837-4.27,2.046-10.792,6.158-12.055c3.523-1.082,4.848,3.005,4.904,5.636
			c0.055,2.529-0.715,5.069-1.292,7.509c-0.327,1.383,1.8,1.97,2.127,0.585c0.869-3.677,1.884-7.429,0.989-11.199
			c-0.7-2.954-3.574-5.39-6.687-4.781c-6.067,1.187-10.566,9.696-8.104,15.417C433.979,151.23,435.879,150.106,435.323,148.814
			L435.323,148.814z"/>
	</g>
	<g>
		<path d="M440.385,133.686c2.516-0.955,5.023-0.877,7.214,0.785c1.135,0.86,2.231-1.057,1.114-1.904
			c-2.605-1.977-5.916-2.146-8.914-1.008C438.482,132.059,439.053,134.191,440.385,133.686L440.385,133.686z"/>
	</g>
	<g>
		<path d="M461.062,134.306c1.716-0.646,3.6-0.718,5.217,0.233c1.229,0.723,2.338-1.184,1.113-1.904
			c-2.094-1.231-4.667-1.302-6.915-0.457C459.157,132.675,459.729,134.808,461.062,134.306L461.062,134.306z"/>
	</g>
	<g>
		<path d="M458.96,139.898c-2.475,0.68-3.056,4.669-2.87,6.811c0.222,2.577,2.134,4.457,4.555,2.667
			c2.71-2.003,3.43-5.997,2.447-9.101c-0.367-1.156-1.398-1.915-2.615-1.837c-1.309,0.083-2.148,1.283-2.667,2.354
			c-0.97,2.006-1.986,6.18,0.407,7.655c2.793,1.723,4.203-2.351,4.482-4.375c0.267-1.938-0.322-5.08-2.969-3.581
			c-1.745,0.989-2.597,4.919-1.726,6.597c0.785,1.514,2.63,0.7,3.288-0.399c0.731-1.222,1.043-3.592,0.222-4.838
			c-0.394-0.596-1.201-0.736-1.731-0.223c-1.379,1.335-1.781,3.664-1.387,5.484c0.302,1.39,2.428,0.801,2.127-0.586
			c-0.231-1.062,0.019-2.563,0.819-3.339c-0.578-0.074-1.155-0.148-1.732-0.223c0.273,0.415,0.134,1.18,0.062,1.641
			c-0.053,0.329-0.146,0.667-0.283,0.971c-0.219,0.478,0.479,0.454,0.466,0.01c-0.02-0.681,0.245-1.391,0.464-2.025
			c0.109-0.315,0.258-0.608,0.412-0.902c0.369-0.699,0.287,0.068-0.226-0.604c0.549,0.72-0.149,2.736-0.382,3.488
			c-0.202,0.656-0.691,1.373-1.034,0.293c-0.239-0.755-0.072-1.531,0.095-2.276c0.087-0.378,1.151-3.655,1.754-2.742
			c0.934,1.417,0.213,4.355-0.516,5.628c-0.119,0.206-1.396,1.754-1.702,1.499c-0.451-0.375-0.443-1.364-0.466-1.883
			c-0.039-0.857,0.241-3.749,1.292-4.038C460.915,141.649,460.333,139.521,458.96,139.898L458.96,139.898z"/>
	</g>
	<g>
		<path d="M437.662,138.313c-3.974,1.29-4.781,9.174-0.738,10.859c2.629,1.095,4.37-2.835,4.613-4.716
			c0.263-2.036,0.06-7.352-3.043-7.247c-3.852,0.13-4.705,11.784-0.18,10.909c2.594-0.5,3.087-3.83,2.925-6.021
			c-0.166-2.247-2.299-4.186-4.032-1.94c-1.321,1.711-1.972,6.682,0.972,7.035c2.876,0.344,2.717-5.331,1.384-6.665
			c-0.445-0.446-1.108-0.396-1.56,0c-1.641,1.44-1.728,4.321-1.387,6.311c0.238,1.4,2.364,0.804,2.126-0.586
			c-0.209-1.229-0.185-3.284,0.82-4.166c-0.521,0-1.04,0-1.56,0c0.354,0.355,0.271,1.243,0.266,1.694
			c-0.005,0.38-0.065,0.799-0.224,1.148c-0.007,0.015,0.53,0.609,0.361-0.101c-0.188-0.793,0.047-1.756,0.25-2.522
			c0.1-0.375,0.251-0.707,0.455-1.036c-0.224,0.36-0.333-0.193-0.134,0.531c0.272,0.994,0.182,3.715-0.997,4.143
			c-0.435,0.158-0.367-3.379-0.303-3.775c0.115-0.704,0.345-1.409,0.64-2.056c0.267-0.589,0.258-0.661,0.558-0.113
			c0.238,0.436,0.332,0.968,0.435,1.448c0.334,1.581,0.308,5.034-1.652,5.627c-1.107,0.334-1.674-5.9,0.591-6.635
			C439.595,140.003,439.02,137.873,437.662,138.313L437.662,138.313z"/>
	</g>
	<path d="M457.771,149.026c-0.056-0.003-0.245-0.39-0.283-0.451c-0.097-0.159-0.232-0.235-0.375-0.254
		c0.027-0.647-1.011-0.626-1.1,0.05c-0.001,0.009-0.004,0.018-0.005,0.026c-0.14,0.346-0.243,0.699-0.162,1.036
		c-0.001,0.014-0.004,0.027-0.005,0.041c-0.019,0.319,0.185,0.487,0.422,0.519c0.419,0.251,1.079,0.164,1.508,0.136
		C458.48,150.083,458.481,149.069,457.771,149.026z"/>
	<path d="M436.301,148.13c-0.07-0.008-0.125-0.016-0.18-0.028c-0.032-0.016-0.066-0.029-0.101-0.044
		c-0.01-0.129-0.026-0.257-0.046-0.385c0.371-0.246,0.427-0.89-0.113-0.971c-0.232-0.035-0.405-0.035-0.637,0
		c-0.173,0.026-0.324,0.189-0.381,0.363c-0.133,0.071-0.243,0.183-0.281,0.332c-0.211,0.844,0.163,1.254,0.774,1.556
		c0.286,0.214,0.618,0.241,0.964,0.28C437.008,149.312,436.999,148.209,436.301,148.13z"/>
	<path d="M464,141.778c-0.173-1.66-0.687-4.585-2.964-3.967c-0.686,0.186-0.394,1.25,0.294,1.063
		c1.552-0.421,1.641,3.64,1.674,4.257c0.124,2.246-1.086,4.84-3.202,5.797c-0.647,0.292-0.085,1.242,0.556,0.952
		C463.453,148.483,464.316,144.847,464,141.778z"/>
	<path d="M439.325,136.708c-0.691,0.165-0.398,1.229,0.293,1.063c1.507-0.359,2.641,8.679-0.087,9.689
		c-0.661,0.245-0.374,1.311,0.294,1.063C443.569,147.138,442.965,135.84,439.325,136.708z"/>
	<path d="M518.073,132.926c0.482-1.532,0.748-3.153,0.799-4.853c0.069-2.294-2.954-4.413-4.978-2.857
		c-1.622,1.248-3.539,1.968-5.566,2.399c-3.135,0.382-6.269,0.669-9.443,0.733c-1.064,0.035-1.864,0.473-2.397,1.108
		c-3.134-0.062-6.139-0.692-9.234,0.25c-0.341,0.104-0.636,0.26-0.906,0.437c-0.975-1.267-3.389-1.357-3.926,0.651
		c-1.291,4.833,3.527,13.788,9.191,12.776c1.179-0.211,1.643-1.087,1.586-1.994c0.536-0.275,1.02-0.676,1.375-1.22
		c1.758-2.691,7.229-5.184,9.725-1.93c3.133,4.081-1.582,8.318-4.743,11.155c-0.808-0.336-1.767-0.321-2.753,0.309
		c-2.997,1.912-3.814,4.932-3.267,7.926c-0.322,0.498-0.506,1.072-0.44,1.686c0.36,3.422,2.348,7.151,5.875,8.153
		c0.883,0.25,1.795,0.092,2.544-0.349c0.35-0.015,0.699-0.032,1.092-0.084c1.664-0.223,2.828-1.537,3.151-2.938
		c1.026,0.023,2.06-0.438,2.739-1.595c1.988-3.386,4.159-6.699,5.655-10.343c1.772-4.317,2.342-8.875,3.638-13.33
		c0.302-1.036,0.118-1.919-0.339-2.598c0.139-0.296,0.271-0.595,0.419-0.885C518.341,134.604,518.351,133.704,518.073,132.926z"/>
	<path d="M431.614,121.318h-0.413c-1.805,0-3.31,1.505-3.31,3.309c0,1.803,1.505,3.308,3.31,3.308h0.413
		c1.804,0,3.309-1.505,3.309-3.308C434.923,122.823,433.418,121.318,431.614,121.318z"/>
	<g>
		<path d="M452.292,163.546c4.586,0.287,8.608-2.181,12.889-3.466c8.411-2.525,8.096,5.596,8.065,11.371
			c-0.008,1.422,2.198,1.422,2.205,0c0.023-4.681,0.807-11.413-4.313-13.672c-6.009-2.653-12.819,3.939-18.846,3.563
			C450.871,161.251,450.879,163.458,452.292,163.546L452.292,163.546z"/>
	</g>
	<g>
		<path d="M448.984,161.157c-4.027-0.153-10.896-4.483-12.961,1.517c-1.378,4.007-0.136,8.891,1.237,12.745
			c0.474,1.33,2.605,0.757,2.125-0.586c-1.069-3.005-1.809-6.215-1.682-9.418c0.264-6.654,7.451-2.197,11.28-2.052
			C450.407,163.417,450.401,161.21,448.984,161.157L448.984,161.157z"/>
	</g>
	<g>
		<path d="M470.9,185.966c1.424,0,1.424-2.206,0-2.206C469.479,183.76,469.479,185.966,470.9,185.966L470.9,185.966z"/>
	</g>
	<g>
		<path d="M473.246,171.45c0.119,4.116-1.159,11.993-6.176,12.721c-1.402,0.204-0.805,2.329,0.586,2.127
			c6.11-0.887,7.942-9.78,7.795-14.848C475.41,170.031,473.203,170.026,473.246,171.45L473.246,171.45z"/>
	</g>
	<path d="M471.19,177.693c-5.164,3.399-8.309,2.237-9.433-3.487c-0.088-1.002-1.518-1.619-2.055-0.557
		c-0.065,0.13-0.123,0.249-0.183,0.372c-0.002-0.005-0.006-0.011-0.009-0.016c-0.212-1.21-1.758-0.877-2.126,0
		c-1.104,1.036-1.749,0.918-1.936-0.355c-0.362-0.802-1.496-0.629-1.904,0c-0.309,0.477-1.062,2.43-2.14,0.827
		c-0.595-0.883-2.055-0.589-2.055,0.557c-1.759,1.758-3.736,2.317-5.933,1.679c-1.464-0.381-2.657-1.169-3.58-2.367
		c-0.957-1.056-2.512,0.508-1.56,1.56c1.627,1.796,3.578,2.82,5.785,3.101c0.051,0.289,0.237,0.536,0.571,0.68
		c-0.056,0.482,0.15,0.998,0.747,1.19c0.492,0.159,0.981,0.325,1.469,0.494c1.385,0.523,2.725,1.159,4.137,1.621
		c0.243,0.079,0.447,0.062,0.63,0.008c2.215,0.695,4.462,1.237,6.831,1.317c0.043,0.001,0.076-0.013,0.117-0.016
		c2.787,1.865,8.361,0.34,10.929-0.575c0.312-0.112,0.514-0.306,0.636-0.529c0.438-0.254,0.878-0.562,1.32-0.95
		c0.439-0.385,0.424-0.867,0.191-1.245c0.554-0.557,1.052-1.269,1.452-2.194C473.653,177.516,471.754,176.392,471.19,177.693z"/>
	<circle fill="#FFFFFF" cx="293.577" cy="491.118" r="14.7"/>
	<path d="M293.055,471.345c-10.64,0-19.267,8.628-19.267,19.27c0,10.641,8.626,19.267,19.267,19.267
		c10.642,0,19.269-8.626,19.269-19.267C312.324,479.973,303.697,471.345,293.055,471.345z M293.055,503.479
		c-7.104,0-12.865-5.762-12.865-12.865c0-7.105,5.761-12.864,12.865-12.864c7.106,0,12.865,5.759,12.865,12.864
		C305.92,497.718,300.161,503.479,293.055,503.479z"/>
	<path d="M293.055,481.454c-5.058,0-9.159,4.101-9.159,9.16c0,5.058,4.101,9.158,9.159,9.158c5.06,0,9.16-4.101,9.16-9.158
		C302.215,485.555,298.115,481.454,293.055,481.454z M293.055,496.729c-3.377,0-6.115-2.737-6.115-6.115
		c0-3.379,2.737-6.117,6.115-6.117c3.378,0,6.117,2.738,6.117,6.117C299.172,493.992,296.434,496.729,293.055,496.729z"/>
	<g>
		<path d="M324.091,495.948c15.949,0.024,31.864,1.089,47.788,1.837c0.71,0.034,0.708-1.068,0-1.104
			c-15.924-0.747-31.839-1.812-47.788-1.837C323.38,494.845,323.38,495.948,324.091,495.948L324.091,495.948z"/>
	</g>
	<g>
		<path d="M327.033,491.168c2.267,0,4.518-0.041,6.763-0.386c0.7-0.109,0.402-1.172-0.292-1.063
			c-2.146,0.328-4.306,0.347-6.471,0.347C326.321,490.065,326.321,491.168,327.033,491.168L327.033,491.168z"/>
	</g>
	<g>
		<path d="M483.154,261.693c-7.051,9.561-15.447,17.967-24.176,25.988c-0.525,0.48,0.257,1.26,0.779,0.78
			c8.801-8.087,17.238-16.572,24.348-26.212C484.529,261.675,483.57,261.126,483.154,261.693L483.154,261.693z"/>
	</g>
	<g>
		<path d="M479.478,279.337c-1.345,1.997-2.822,3.89-4.325,5.771c-0.44,0.549,0.334,1.334,0.779,0.779
			c1.562-1.953,3.101-3.918,4.498-5.994C480.827,279.302,479.87,278.75,479.478,279.337L479.478,279.337z"/>
	</g>
	<g>
		<path d="M415.234,239.893c-9.02,8.172-19.526,14.407-29.296,21.602c-0.566,0.417-0.017,1.374,0.556,0.952
			c9.847-7.25,20.431-13.538,29.521-21.774C416.541,240.195,415.759,239.417,415.234,239.893L415.234,239.893z"/>
	</g>
	<g>
		<path d="M401.914,242.577c-1,1.318-2.16,2.479-3.478,3.479c-0.559,0.424-0.011,1.383,0.556,0.952
			c1.479-1.123,2.752-2.394,3.874-3.873C403.297,242.567,402.338,242.019,401.914,242.577L401.914,242.577z"/>
	</g>
</g>
</svg>
