<?xml version="1.0" encoding="utf-8"?>
<!-- Generator: Adobe Illustrator 15.1.0, SVG Export Plug-In . SVG Version: 6.00 Build 0)  -->
<!DOCTYPE svg PUBLIC "-//W3C//DTD SVG 1.1//EN" "http://www.w3.org/Graphics/SVG/1.1/DTD/svg11.dtd">
<svg version="1.1" id="Layer_1" xmlns="http://www.w3.org/2000/svg" xmlns:xlink="http://www.w3.org/1999/xlink" x="0px" y="0px"
	 width="841.89px" height="595.28px" viewBox="0 0 841.89 595.28" enable-background="new 0 0 841.89 595.28" xml:space="preserve">
<g>
	<path fill="#3A3637" d="M312.266,261.224c-2.741-1.021-3.899-2.827-5.582-5.101c-1.795-2.426-5.81-0.234-4.389,2.211
		c-0.392,0.391-0.634,0.962-0.587,1.729c0.083,1.321,0.38,2.552,0.73,3.825c0.306,1.121,0.069,2.006,0.086,3.12
		c0.036,2.285,2.6,2.91,4.004,1.892c0.81-0.147,1.553-0.717,1.934-1.699c-0.131,0.339,0.29-0.095,0.439-0.186
		c0.341-0.207,0.707-0.326,1.079-0.456c0.745-0.257,1.521-0.43,2.285-0.607C314.814,265.356,314.38,262.013,312.266,261.224z"/>
	<path fill="#3A3637" d="M258.885,302.553c-2.4-3.778-2.842-8.391-3.5-12.72c-0.76-4.995-1.96-9.922-2.984-14.874
		c-0.029-0.235-0.052-0.472-0.07-0.709c-0.027-0.366,0.088-0.36-0.105-0.13l-0.003-0.022c0.222-0.267,0.258-0.679-0.145-0.871
		c-0.007-0.004-0.017-0.007-0.024-0.011c-0.012-0.007-0.025-0.007-0.036-0.013c-0.228-0.652-1.292-0.33-1.146,0.409
		c0.058,0.302,0.125,0.602,0.187,0.906c0.049,0.606,0.218,1.255,0.271,1.64c0.199,1.447,0.389,2.934,0.768,4.347
		c0.05,0.195,0.165,0.316,0.304,0.381c0.458,2.128,0.887,4.26,1.285,6.4c-0.314-0.134-0.714,0.083-0.825,0.4
		c-0.851,2.42-1.134,5.396-0.714,8.161c-0.029,0.158-0.054,0.322-0.072,0.476c-0.023,0.034-0.052,0.06-0.07,0.104
		c-0.015,0.028-0.02,0.05-0.031,0.078c-0.202,0.092-0.359,0.275-0.359,0.536v0.586c-0.069,0.415-0.063,0.842,0,1.405
		c0.042,0.367,0.327,0.564,0.61,0.584c0.509,1.835,1.145,3.618,1.862,5.399c0.291,0.724,1.479,0.409,1.18-0.325
		c-0.562-1.398-1.072-2.798-1.515-4.219c0.302,0.375,0.913,0.268,1.056-0.204c0.721-2.355,0.219-4.727-0.826-6.905
		c-0.155-0.327-0.504-0.359-0.777-0.229c0.01-1.387,0.186-2.755,0.515-4.013c0.101,0.09,0.209,0.141,0.321,0.139
		c0.049,0.302,0.114,0.599,0.161,0.9c0.707,4.452,1.151,9.123,3.623,13.013C258.249,303.837,259.308,303.222,258.885,302.553z"/>
	<path fill="#3A3637" d="M314.183,210.141c-1.258-0.528-2.442-0.134-3.508,0.521c-0.521-0.269-1.191-0.216-1.551,0.452
		c-0.298,0.549-0.512,1.009-0.577,1.64c-0.058,0.557,0.419,1.02,0.9,1.18c2.127,0.719,4.295-0.09,5.468-1.992
		C315.375,211.201,314.885,210.436,314.183,210.141z"/>
	<path d="M354.276,162.735c0.02-0.047,0.046-0.083,0.056-0.141c0.014-0.044,0.03-0.091,0.045-0.138
		c0.537-0.579-0.327-1.446-0.866-0.866c-0.009,0.009-0.013,0.02-0.022,0.029c-1.054-1-2.684-1.274-4.011,0.15
		c-0.413,0.443-0.793,0.9-1.163,1.365c-0.658-0.562-1.538-0.889-2.592-0.723c-0.238,0.038-0.473,0.087-0.708,0.132
		c-0.475,0.235-0.974,0.423-1.477,0.608c-1.75,1.044-4.409,1.869-4.998,2.097c-8.483,3.264-17.389,5.687-26.219,7.809
		c-0.206,0.051-0.38,0.009-0.524-0.072c-4.87,1.789-9.735,3.435-14.848,4.438c-6.01,1.181-11.973-1.094-18.02-0.414
		c-0.399,0.046-0.768,0.16-1.106,0.317c-0.989-0.476-2.173-0.365-3.103,0.786c-5.84,7.245-11.633,19.605-13.9,31.985
		c-0.334,0.5-0.586,1.115-0.71,1.864c-1.39,8.363-4.95,16.094-6.949,24.305c-1.999,8.203-1.748,17.149-1.978,25.538
		c-0.133,4.854,0.031,9.605,0.376,14.344c-0.551,1.888-0.902,3.79-1.109,5.712c-0.196,0.546-0.32,1.161-0.32,1.871v4.782
		c-0.004,0.751-0.004,1.507,0,2.267c0.006,1.482,0.56,2.604,1.387,3.39c0.268,1.579,0.575,3.149,0.952,4.706
		c-0.177,5.577-0.231,11.151,0.418,16.719c0.26,2.227,1.979,4.06,3.929,4.704c4.417,4.189,9.487,6.503,14.888,7.902
		c6.914,4.056,15.493,5.061,23.385,6.023c2.222,0.271,4.613,0.303,6.596-0.445c1.5,0.072,3.004,0.054,4.512-0.108
		c0.338-0.037,0.66-0.098,0.967-0.185c4.284,3.102,9.443-1.382,7.25-6.272c-3.061-6.822-5.79-13.99-8.017-21.358
		c1.621-7.53,0.273-15.238-1.092-22.743c-1.755-9.654-2.022-19.007-2.478-28.792c-0.043-0.943-0.32-1.727-0.723-2.387
		c0.04-1.239,0.065-2.474,0.084-3.707c1.394-5.402,3.966-10.64,3.603-16.227c0.208-0.411,0.331-0.896,0.304-1.475
		c-0.024-0.503-0.1-0.943-0.206-1.349c0.407-1.731-0.541-3.883-2.858-3.961c-6.194-0.214-10.265-5.277-10.182-11.292
		c0.087-6.188,6.488-8.305,11.627-9.132c0.661,0.576,1.558,0.905,2.639,0.707c1.135-0.21,2.26-0.467,3.38-0.738
		c0.334,0.145,0.707,0.231,1.115,0.233c2.818,0.01,5.242-0.205,7.426-0.678c0.457,0.316,1.043,0.502,1.766,0.474
		c2.816-0.108,4.797-1.374,6.596-3.029c7.174-3.637,11.344-9.486,14.889-15.903c1.123-1.139,2.254-2.267,3.306-3.473
		c1.605-1.838,2.431-4.385,4.132-6.066c0.978-0.967,1.079-2.113,0.696-3.091c0.336-0.537,0.67-1.075,1.008-1.614
		c0.544-0.871,0.53-1.789,0.194-2.581c0.688-1.001,1.41-1.979,2.186-2.926C354.704,165.013,354.729,163.755,354.276,162.735z"/>
	<path d="M428.639,165.206c-0.385-0.746-0.936-1.173-1.54-1.375c-1.219-1.862-2.938-2.741-5.354-1.913
		c-0.701-0.951-1.833-1.543-3.154-1.084c-1.289,0.446-2.286,1.005-3.032,1.663c-0.489,0.062-0.974,0.25-1.405,0.528
		c-0.117-0.13-0.284-0.197-0.494-0.15c-0.005-0.007,0-0.005-0.005-0.013c-0.384-0.69-1.441-0.074-1.06,0.619
		c0.136,0.246,0.312,0.437,0.524,0.549c-0.545,0.821-0.729,1.887-0.19,3.002c2.531,5.238,4.489,10.52,5.098,16.313
		c0.312,2.964,1.824,8.304,0.417,11.069c-0.353,0.694-0.41,1.367-0.278,1.979c-0.461,0.526-0.753,1.195-0.753,1.929v0.148
		c0,1.634,1.394,2.997,3.064,2.997c1.669,0,3.064-1.362,3.064-2.997v-0.148c0-0.171-0.023-0.336-0.053-0.5
		c0.085-0.121,0.174-0.241,0.247-0.385c0.039-0.076,0.067-0.154,0.105-0.231c0.064-0.016,0.134-0.029,0.199-0.048
		c1.428,0.312,2.937-0.255,3.221-2.083c0.18-1.148,0.31-2.287,0.399-3.422c0.354-0.179,0.666-0.438,0.935-0.739
		c0.942-0.215,1.793-0.844,2.189-1.979C433.614,180.822,432.534,172.784,428.639,165.206z"/>
	<g>
		<path d="M410.358,162.482c11.032,22.674,7.925,52.003-3.27,74.086c-11.366,22.425-32.132,37.677-57.487,39.297
			c-1.569,0.102-1.58,2.552,0,2.452c26.478-1.692,47.462-17.37,59.604-40.512c11.88-22.639,14.58-53.313,3.268-76.559
			C411.783,159.823,409.667,161.067,410.358,162.482L410.358,162.482z"/>
	</g>
	<g>
		<path d="M424.648,161.759c5.242,4.924,6.211,14.277,5.242,21.021c-1.18,8.215-6.662,15.026-12.749,20.272
			c-1.2,1.034,0.54,2.761,1.732,1.733c6.94-5.981,12.928-14.021,13.682-23.472c0.567-7.107-0.732-16.178-6.173-21.288
			C425.23,158.945,423.496,160.675,424.648,161.759L424.648,161.759z"/>
	</g>
	<g>
		<path d="M314.805,209.783c-0.717,3.012-3.149,4.418-6.156,4.092c-1.571-0.167-1.555,2.285,0,2.452
			c4.045,0.436,7.568-1.896,8.521-5.893C317.535,208.897,315.17,208.247,314.805,209.783L314.805,209.783z"/>
	</g>
	<g>
		<path d="M354.699,159.417c-4.208,18.119-16.343,34.309-31.674,44.626c-1.304,0.878-0.08,3.002,1.236,2.117
			c15.849-10.665,28.447-27.347,32.799-46.092C357.417,158.531,355.055,157.876,354.699,159.417L354.699,159.417z"/>
	</g>
	<g>
		<path d="M309.371,213.283c0.854-5.448-2.937-9.546-8.398-9.596c-5.904-0.055-9.511,6.2-9.255,11.498
			c0.492,10.162,14.976,17.87,20.746,7.277c0.757-1.39-1.361-2.627-2.115-1.238c-4.255,7.811-13.516,2.633-15.76-3.979
			c-1.316-3.87,0.314-8.586,3.953-10.542c4.172-2.242,9.177,1.388,8.466,5.929C306.765,214.178,309.127,214.841,309.371,213.283
			L309.371,213.283z"/>
	</g>
	<g>
		<path d="M302.421,214.236c-1.998,1.975-0.953,4.978,1.319,6.212c1.388,0.756,2.626-1.359,1.238-2.115
			c-0.855-0.467-1.681-1.519-0.824-2.365C305.279,214.855,303.545,213.124,302.421,214.236L302.421,214.236z"/>
	</g>
	<g>
		<path d="M274.433,171.459c-4.615,2.789,0.014,5.383,3.241,6.359c9.09,2.746,20.865-0.155,29.885-2.077
			c12.354-2.63,24.616-6.545,36.615-10.459c11.384-3.711,22.485-8.333,32.6-14.79c1.327-0.847,0.1-2.97-1.236-2.116
			c-15.354,9.801-32.826,15.046-50.186,20.053c-8.962,2.586-17.883,5.086-27.105,6.572c-4.989,0.803-10.027,1.084-15.073,1.062
			c-0.43-0.002-9.143-1.499-7.503-2.49C277.019,172.757,275.788,170.638,274.433,171.459L274.433,171.459z"/>
	</g>
	<g>
		<path d="M403.488,126.553c-5.201,6.917-11.63,12.746-18.966,17.33c-1.336,0.837-0.106,2.957,1.238,2.118
			c7.707-4.821,14.379-10.943,19.842-18.209C406.555,126.526,404.424,125.307,403.488,126.553L403.488,126.553z"/>
	</g>
	<g>
		<path d="M379.781,146.525c-0.204,0.206-0.409,0.408-0.613,0.615c-1.119,1.117,0.614,2.849,1.733,1.731
			c0.205-0.203,0.408-0.409,0.613-0.611C382.633,147.14,380.9,145.408,379.781,146.525L379.781,146.525z"/>
	</g>
	<g>
		<path d="M278.069,171.578c-2.645-14.434,5.618-27.959,14.255-38.805c8.544-10.73,18.748-19.624,31.595-24.731
			c26.501-10.535,62.178-3.843,79.569,19.75c0.927,1.256,3.055,0.036,2.114-1.238c-18.383-24.939-54.322-31.158-82.334-20.874
			c-14,5.139-24.709,15.355-33.843,26.825c-8.856,11.122-16.398,25.105-13.718,39.726
			C275.991,173.781,278.353,173.122,278.069,171.578L278.069,171.578z"/>
	</g>
	<g>
		<path d="M363.37,157.524c16.51,6.068,35.834,6.437,53.171,5.276c8.509-0.567,16.944-1.999,24.825-5.34
			c3.641-1.543,7.825-3.962,8.988-8.015c2.232-7.802-11.209-13.369-16.251-15.563c-9.009-3.922-19.622-7.639-29.557-7.935
			c-1.581-0.049-1.577,2.402,0,2.451c7.856,0.235,15.963,3.011,23.292,5.628c5.021,1.795,21.375,7.169,20.15,14.769
			c-0.795,4.938-9.647,7.375-13.376,8.577c-8.107,2.616-16.982,3.075-25.44,3.335c-14.873,0.459-31.065-0.371-45.152-5.546
			C362.533,154.616,361.898,156.984,363.37,157.524L363.37,157.524z"/>
	</g>
	<g>
		<path d="M306.19,225.705c-5.681,16.699-4.876,35.707-3.659,53.074c1.303,18.506,5.251,36.828,12.273,54.015
			c0.589,1.442,2.961,0.813,2.365-0.651c-6.976-17.066-10.707-35.02-12.187-53.363c-1.372-17.038-1.992-36.073,3.572-52.424
			C309.064,224.855,306.696,224.216,306.19,225.705L306.19,225.705z"/>
	</g>
	<g>
		<path d="M276.781,174.828c-6.88,5.258-9.641,14.761-12.809,22.476c-5.48,13.344-9.421,27.129-11.945,41.333
			c-4.746,26.73-3.693,54.169,0.266,80.922c0.231,1.559,2.592,0.893,2.364-0.651c-3.802-25.682-4.618-51.702-0.633-77.411
			c1.848-11.913,4.951-23.601,8.971-34.956c1.743-4.924,3.863-9.694,5.84-14.526c2.169-5.304,4.47-11.471,9.181-15.072
			C279.255,175.998,278.037,173.866,276.781,174.828L276.781,174.828z"/>
	</g>
	<g>
		<path d="M253.311,320.22c17.863,13.25,41.202,18.857,63.004,13.427c1.531-0.379,0.882-2.743-0.651-2.36
			c-21.21,5.282-43.769-0.317-61.115-13.181C253.278,317.162,252.056,319.291,253.311,320.22L253.311,320.22z"/>
	</g>
	<g>
		<path d="M352.708,108.258c-5.108,16.135-5.377,36.577-0.522,52.796c0.454,1.511,2.82,0.866,2.366-0.65
			c-4.702-15.694-4.419-35.887,0.521-51.493C355.552,107.399,353.186,106.758,352.708,108.258L352.708,108.258z"/>
	</g>
	<g>
		<path d="M342.497,140.327c-0.609,3.154,0.118,6.267,1.226,9.229c0.545,1.468,2.917,0.833,2.362-0.651
			c-0.936-2.507-1.745-5.236-1.226-7.928C345.157,139.434,342.795,138.775,342.497,140.327L342.497,140.327z"/>
	</g>
	<g>
		<path d="M374.353,129.783c1.894-3.731,0.423-8.742-1.705-12.058c-1.833-2.856-6.428-5.074-8.843-1.49
			c-2.328,3.461-1.312,9.051,0.629,12.467c2.338,4.115,8.273,4.284,9.582-0.593c0.412-1.527-1.955-2.176-2.363-0.651
			c-1.197,4.449-5.139,0.472-5.949-1.93c-0.768-2.285-1.441-6.13,0.313-8.136c2.135-2.444,4.86,1.986,5.567,3.487
			c1.009,2.14,1.781,5.442,0.651,7.666C371.521,129.949,373.637,131.191,374.353,129.783L374.353,129.783z"/>
	</g>
	<g>
		<path d="M287.796,166.038c7.022,1.686,13.729-0.053,20.259-2.757c1.439-0.597,0.81-2.97-0.65-2.364
			c-6.084,2.52-12.378,4.338-18.958,2.758C286.912,163.305,286.259,165.667,287.796,166.038L287.796,166.038z"/>
	</g>
	<g>
		<path d="M302.463,252.909c3.225,10.63,14.296,13.741,24.142,15.357c1.545,0.253,2.207-2.108,0.65-2.364
			c-8.864-1.454-19.482-3.93-22.428-13.646C304.37,250.747,302.003,251.391,302.463,252.909L302.463,252.909z"/>
	</g>
	<g>
		<path d="M304.307,271.73c15.626-14.511,39.655,4.365,45.287,20.292c0.524,1.479,2.892,0.843,2.363-0.65
			c-6.271-17.735-32.274-37.258-49.382-21.375C301.413,271.074,303.151,272.803,304.307,271.73L304.307,271.73z"/>
	</g>
	<g>
		<path d="M346.403,285.706c6.956,5.184,14.226,7.122,22.468,3.458c7.486-3.33,8.851-11.339,6.998-18.552
			c-0.393-1.529-2.758-0.88-2.364,0.651c2.021,7.867-0.586,14.059-8.324,16.746c-6.635,2.305-12.376-0.571-17.539-4.418
			C346.373,282.646,345.153,284.775,346.403,285.706L346.403,285.706z"/>
	</g>
	<g>
		<path d="M379.773,274.047c0.493,2.292-0.054,4.537-0.818,6.703c-0.528,1.493,1.842,2.132,2.364,0.65
			c0.918-2.603,1.408-5.271,0.815-8.003C381.801,271.853,379.439,272.506,379.773,274.047L379.773,274.047z"/>
	</g>
	<g>
		<path d="M330.14,305.811c2.539,13.264,9.729,26.102,16.217,37.803c6.892,12.434,15.176,24.078,25.073,34.298
			c1.101,1.136,2.832-0.601,1.733-1.735c-9.292-9.591-16.95-20.415-23.64-31.946c-6.921-11.931-14.412-25.44-17.022-39.07
			C332.205,303.605,329.843,304.267,330.14,305.811L330.14,305.811z"/>
	</g>
	<g>
		<path d="M287.331,333.937c16.241,42.822,52.934,80.542,98.972,88.807c1.545,0.279,2.206-2.082,0.651-2.36
			c-21.381-3.839-40.597-13.654-56.744-28.115c-17.418-15.596-32.231-37.146-40.516-58.982
			C289.139,331.825,286.77,332.457,287.331,333.937L287.331,333.937z"/>
	</g>
	<g>
		<path d="M408.648,323.163c-3.279,12.183-10.785,21.926-18.219,31.879c-7.523,10.068-16.034,19.207-25.707,27.241
			c-1.214,1.011,0.528,2.735,1.734,1.734c9.353-7.769,17.483-16.564,24.903-26.178c8.071-10.455,16.172-21.102,19.654-34.026
			C411.424,322.285,409.06,321.637,408.648,323.163L408.648,323.163z"/>
	</g>
	<g>
		<path d="M446.553,348.78c-4.294,15.397-13.255,28.256-23.599,40.208c-10.685,12.347-23.139,23.271-37.257,31.517
			c-1.365,0.796-0.13,2.914,1.238,2.116c14.365-8.388,26.756-19.476,37.751-31.901c10.699-12.089,19.854-25.595,24.229-41.289
			C449.343,347.909,446.977,347.262,446.553,348.78L446.553,348.78z"/>
	</g>
	<g>
		<path d="M419.811,325.863c0.596-6.832-15.154-8.148-10.736,1.873c6.311,14.323,23.419,22.921,38.661,22.599
			c1.578-0.036,1.58-2.484,0-2.452c-8.376,0.178-16.583-2.703-23.746-6.907c-4.249-2.495-7.73-6.049-10.492-10.087
			c-0.54-0.795-5.462-9.149,0.229-8.091c1.148,0.217,3.753,1.688,3.632,3.065C417.223,327.44,419.675,327.426,419.811,325.863
			L419.811,325.863z"/>
	</g>
	<g>
		<path d="M450.649,317.107c-1.319,4.509-2.021,9.1-3.575,13.582c-2.106,6.066-5.08,11.848-8.149,17.476
			c-0.755,1.39,1.359,2.625,2.115,1.237c2.485-4.556,4.869-9.19,6.811-14.009c2.345-5.813,3.423-11.688,5.162-17.635
			C453.457,316.236,451.09,315.593,450.649,317.107L450.649,317.107z"/>
	</g>
	<g>
		<path d="M432.776,271.253c-1.899,10.204-2.527,20.075-5.692,30.082c-3.554,11.231-8.452,22.013-13.403,32.685
			c-0.66,1.424,1.453,2.672,2.117,1.236c4.739-10.216,9.276-20.506,12.954-31.163c1.874-5.434,3.521-11.022,4.519-16.686
			c0.903-5.132,0.914-10.375,1.869-15.503C435.426,270.36,433.065,269.698,432.776,271.253L432.776,271.253z"/>
	</g>
	<g>
		<path d="M443.64,343.636c1.361,0.217,2.558,1.319,3.472,2.281c0.462,0.48,0.896,1.048,1.068,1.699
			c0.04,0.145-0.813,0.234-1.048,0.249c-1.57,0.095-1.58,2.545,0,2.451c1.243-0.072,2.516-0.34,3.211-1.475
			c0.589-0.965,0.194-2.172-0.297-3.08c-1.051-1.931-3.521-4.132-5.754-4.49C442.747,341.022,442.081,343.387,443.64,343.636
			L443.64,343.636z"/>
	</g>
	<g>
		<path d="M399.811,343.788c6.334,13.527,20.791,19.066,35.066,18.376c1.574-0.076,1.581-2.527,0-2.451
			c-13.471,0.651-26.95-4.346-32.949-17.165C401.257,341.12,399.144,342.363,399.811,343.788L399.811,343.788z"/>
	</g>
	<g>
		<path d="M320.839,384.524c-0.136-0.203-0.273-0.409-0.409-0.611c-0.777-1.168-2.538-0.435-2.239,0.943
			c1.728,7.979,4.593,15.549,7.693,23.082c2.89,7.029,5.208,14.306,8.573,21.128c0.7,1.417,2.812,0.174,2.117-1.24
			c-3.271-6.63-5.49-13.72-8.328-20.537c-3.129-7.517-5.965-15.116-7.693-23.084c-0.747,0.314-1.493,0.629-2.24,0.943
			c0.136,0.204,0.273,0.409,0.409,0.611C319.595,387.069,321.719,385.844,320.839,384.524L320.839,384.524z"/>
	</g>
	<g>
		<path d="M399.234,273.417c0.117,9.452,3.37,18.201,6.896,26.857c3.608,8.852,6.643,17.879,11.396,26.209
			c0.783,1.373,2.902,0.137,2.116-1.237c-4.321-7.573-7.076-15.719-10.376-23.748c-3.715-9.038-7.458-18.167-7.581-28.081
			C401.667,271.837,399.216,271.834,399.234,273.417L399.234,273.417z"/>
	</g>
	<g>
		<path d="M339.914,232.266c4.928,8.662,17.055,11.019,26.145,11.641c10.783,0.733,22.586-2.069,30.008-10.321
			c1.054-1.171-0.674-2.91-1.733-1.734c-6.418,7.137-15.7,9.439-24.993,9.674c-8.908,0.227-22.463-1.976-27.311-10.5
			C341.248,229.654,339.132,230.889,339.914,232.266L339.914,232.266z"/>
	</g>
	<g>
		<path d="M339.899,237.313c0.213-3.757,2.119-7.129,5.841-8.316c1.498-0.477,0.859-2.845-0.651-2.364
			c-4.805,1.529-7.364,5.795-7.641,10.68C337.358,238.893,339.81,238.886,339.899,237.313L339.899,237.313z"/>
	</g>
	<g>
		<path d="M347.459,244.922c1.414,1.487,3.418,1.63,5.327,1.233c1.547-0.322,0.891-2.683-0.651-2.364
			c-1.057,0.22-2.156,0.225-2.944-0.604C348.101,242.04,346.371,243.777,347.459,244.922L347.459,244.922z"/>
	</g>
	<g>
		<path d="M379.882,218.626c0.622-5.734,8.535-9.586,13.113-5.64c3.306,2.85,0.864,8.409-1.251,11.084
			c-2.531,3.199-6.487,4.595-10.349,5.321c-1.552,0.294-0.895,2.654,0.651,2.365c5.289-0.998,9.965-3.341,12.91-8
			c2.473-3.909,2.841-8.894-0.229-12.502c-5.62-6.608-16.541,0.416-17.297,7.372C377.259,220.195,379.712,220.179,379.882,218.626
			L379.882,218.626z"/>
	</g>
	<g>
		<path d="M398.949,253.764c7.4-1.946,11.986,9.575,15.115,14.618c5.179,8.342,10.221,16.771,15.036,25.33
			c0.773,1.377,2.893,0.143,2.114-1.238c-5.956-10.585-12.422-20.853-18.633-31.286c-3.057-5.133-7.483-11.576-14.285-9.786
			C396.769,251.802,397.417,254.167,398.949,253.764L398.949,253.764z"/>
	</g>
	<g>
		<path d="M448.689,327.118c2.075,4.62,5.586,8.246,8.398,12.415c3.276,4.851,6.576,9.674,10.164,14.306
			c0.968,1.246,2.688-0.499,1.733-1.732c-3.46-4.465-6.627-9.132-9.781-13.813c-2.8-4.15-6.331-7.812-8.399-12.411
			C450.159,324.443,448.047,325.689,448.689,327.118L448.689,327.118z"/>
	</g>
	<g>
		<path d="M463.414,296.067c-2.514,10.328-9.34,20.976-20.08,23.962c-1.521,0.422-0.875,2.787,0.651,2.363
			c11.559-3.214,19.074-14.503,21.79-25.675C466.151,295.184,463.787,294.532,463.414,296.067L463.414,296.067z"/>
	</g>
	<g>
		<path d="M434.927,273.288c0.499-4.577,6.084-8.896,9.967-10.277c5.378-1.909,11.578-2.365,16.639,0.575
			c1.369,0.795,2.604-1.322,1.237-2.116c-9.539-5.542-28.886-1.116-30.292,11.818C432.305,274.856,434.757,274.842,434.927,273.288
			L434.927,273.288z"/>
	</g>
	<g>
		<path d="M452.679,268.812c1.2-4.013,7.529-5.036,10.977-4.412c4.959,0.896,8.889,5.46,10.022,10.157
			c0.369,1.537,2.733,0.886,2.362-0.651c-1.505-6.239-6.635-10.947-12.931-12.085c-4.505-0.813-11.392,1.652-12.793,6.341
			C449.861,269.679,452.228,270.323,452.679,268.812L452.679,268.812z"/>
	</g>
	<g>
		<path d="M457.572,273.798c3.95-5.083,12.889-3.121,16.151,1.667c0.885,1.297,3.01,0.072,2.116-1.237
			c-4.06-5.954-15.026-8.567-20.001-2.164C454.883,273.295,456.604,275.044,457.572,273.798L457.572,273.798z"/>
	</g>
	<g>
		<path d="M474.605,292.708c-0.836,0.816-2.059,1.331-3.192,0.971c-1.651-0.521-0.813-3.569-0.504-4.644
			c0.438-1.522-1.929-2.168-2.362-0.651c-0.711,2.471-1.083,5.997,1.634,7.416c2.044,1.07,4.609,0.155,6.156-1.359
			C477.471,293.336,475.735,291.604,474.605,292.708L474.605,292.708z"/>
	</g>
	<g>
		<path d="M463.658,277.314c2.732-3.298,6.723-3.176,10.278-1.282c4.13,2.201,5.418,7.124,4.9,11.471
			c-0.187,1.565,2.267,1.547,2.451,0c0.651-5.473-1.4-10.643-6.115-13.587c-4.264-2.665-9.981-2.28-13.248,1.665
			C460.924,276.788,462.648,278.532,463.658,277.314L463.658,277.314z"/>
	</g>
	<g>
		<path d="M442.193,362.271c6.887,10,14.102,19.747,21.447,29.41c0.941,1.244,3.072,0.021,2.114-1.236
			c-7.346-9.664-14.561-19.413-21.445-29.413C443.421,359.741,441.295,360.964,442.193,362.271L442.193,362.271z"/>
	</g>
	<g>
		<path d="M448.926,368.31c1.252-4.981,7.843-9.822,11.98-12.263c1.576-0.93,3.17-1.778,4.931-2.317
			c2.717-0.831-1.125,4.154-1.699,4.707c-1.143,1.1,0.593,2.831,1.733,1.735c1.779-1.714,3.911-4.085,3.639-6.728
			c-0.272-2.661-3.313-2.387-5.141-1.829c-3.054,0.936-6.218,3.04-8.664,5.014c-3.391,2.732-8.031,6.605-9.143,11.029
			C446.178,369.192,448.542,369.842,448.926,368.31L448.926,368.31z"/>
	</g>
	<g>
		<path d="M459.965,355.53c7.454,10.7,17.797,19.472,26.056,29.558c1.002,1.226,2.726-0.521,1.733-1.731
			c-8.121-9.921-18.346-18.543-25.675-29.063C461.183,353.006,459.059,354.229,459.965,355.53L459.965,355.53z"/>
	</g>
	<g>
		<path d="M286.404,441.879c29.55-7.317,59.088-14.696,88.681-21.847c1.536-0.369,0.883-2.733-0.653-2.36
			c-29.59,7.15-59.128,14.525-88.679,21.846C284.221,439.898,284.869,442.262,286.404,441.879L286.404,441.879z"/>
	</g>
	<g>
		<path d="M390.263,418.771c0.135,0.958,0.31,1.909,0.539,2.849c0.376,1.536,2.738,0.886,2.363-0.65
			c-0.229-0.94-0.404-1.892-0.536-2.85c-0.093-0.661-0.929-1.016-1.507-0.856C390.415,417.458,390.173,418.109,390.263,418.771
			L390.263,418.771z"/>
	</g>
	<g>
		<path d="M395.717,416.186c9.188,4.736,18.311,9.572,27.873,13.527c1.46,0.604,2.09-1.768,0.65-2.363
			c-9.361-3.872-18.291-8.641-27.287-13.278C395.55,413.348,394.312,415.462,395.717,416.186L395.717,416.186z"/>
	</g>
	<g>
		<path d="M423.132,429.775c0.392,3.795,0.783,7.588,1.173,11.384c0.162,1.555,2.614,1.569,2.452,0
			c-0.391-3.796-0.783-7.589-1.173-11.384C425.423,428.221,422.97,428.202,423.132,429.775L423.132,429.775z"/>
	</g>
	<g>
		<path d="M388.302,421.638c12.091,7.053,24.26,13.991,36.611,20.577c1.396,0.745,2.633-1.37,1.238-2.114
			c-12.352-6.591-24.522-13.524-36.613-20.578C388.169,418.724,386.937,420.842,388.302,421.638L388.302,421.638z"/>
	</g>
	<g>
		<path d="M424.233,429.695c29.241-6.848,58.823-12.188,87.869-19.883c1.527-0.405,0.878-2.77-0.651-2.365
			c-29.046,7.697-58.627,13.04-87.87,19.884C422.043,427.693,422.695,430.057,424.233,429.695L424.233,429.695z"/>
	</g>
	<g>
		<path d="M426.925,442.081c28.621-7.383,56.914-16.647,85.155-25.35c1.506-0.463,0.863-2.831-0.652-2.364
			c-28.24,8.702-56.532,17.968-85.154,25.354C424.745,440.115,425.395,442.479,426.925,442.081L426.925,442.081z"/>
	</g>
	<g>
		<path d="M510.53,407.806c0.05,2.853-0.174,4.771,0,7.743c0.09,1.572,2.543,1.58,2.45,0c-0.176-3.015,0.056-4.631,0-7.743
			C512.951,406.226,510.501,406.222,510.53,407.806L510.53,407.806z"/>
	</g>
	<g>
		<path d="M413.295,402.408c10.407-2.233,21.043-3.406,31.507-5.38c10.63-2.003,21.229-4.175,31.777-6.568
			c1.542-0.347,0.888-2.712-0.65-2.36c-10.551,2.394-21.151,4.544-31.777,6.568c-10.463,1.988-21.101,3.145-31.507,5.375
			C411.099,400.377,411.755,402.737,413.295,402.408L413.295,402.408z"/>
	</g>
	<g>
		<path d="M475.636,390.341c11.733,6.019,23.299,12.36,34.957,18.521c1.396,0.741,2.636-1.378,1.236-2.115
			c-11.657-6.164-23.225-12.505-34.957-18.523C475.469,387.503,474.229,389.617,475.636,390.341L475.636,390.341z"/>
	</g>
	<g>
		<path d="M517.795,315.523c0.515,32.704-0.271,65.414,0,98.121c0.012,1.58,2.463,1.58,2.448,0c-0.27-32.707,0.518-65.417,0-98.121
			C520.221,313.944,517.77,313.94,517.795,315.523L517.795,315.523z"/>
	</g>
	<g>
		<path d="M518.109,316.75c12.791-0.673,25.548-3.156,38.227-4.913c15.6-2.158,31.142-4.714,46.68-7.264
			c1.556-0.257,0.895-2.617-0.651-2.363c-13.983,2.291-27.968,4.562-41.992,6.598c-13.94,2.024-28.191,4.754-42.263,5.49
			C516.537,314.382,516.529,316.833,518.109,316.75L518.109,316.75z"/>
	</g>
	<g>
		<path d="M601.464,304.104c-0.356,10.975,0.395,22.092,0.623,33.063c0.422,20.499,0.866,41,1.35,61.498
			c0.038,1.576,2.489,1.58,2.451,0c-0.472-19.966-0.902-39.929-1.317-59.892c-0.239-11.504-1.027-23.164-0.655-34.67
			C603.966,302.524,601.515,302.527,601.464,304.104L601.464,304.104z"/>
	</g>
	<g>
		<path d="M512.812,414.923c0.683,1.462-0.993,1.581,0.861,1.078c0.868-0.23,1.752-0.409,2.632-0.593
			c2.705-0.563,5.434-1.026,8.155-1.501c7.591-1.312,15.202-2.505,22.803-3.748c19.297-3.156,38.434-7.14,57.727-10.313
			c1.557-0.254,0.894-2.618-0.651-2.361c-21.813,3.586-43.467,8-65.286,11.544c-2.473,0.4-29.99,3.636-28.356,7.132
			C511.362,417.592,513.476,416.348,512.812,414.923L512.812,414.923z"/>
	</g>
	<g>
		<path d="M509.113,315.191c2.89,0.502,5.779,1.009,8.671,1.512c1.545,0.271,2.204-2.091,0.649-2.36
			c-2.89-0.507-5.779-1.01-8.669-1.516C508.22,312.556,507.559,314.92,509.113,315.191L509.113,315.191z"/>
	</g>
	<g>
		<path d="M488.372,311.568c3.027,0.528,6.057,1.061,9.089,1.588c1.544,0.271,2.205-2.09,0.65-2.364
			c-3.029-0.528-6.059-1.059-9.088-1.587C487.477,308.934,486.817,311.294,488.372,311.568L488.372,311.568z"/>
	</g>
	<g>
		<path d="M487.472,310.388c-0.06,28.024-1.812,56.017-1.661,84.049c0.007,1.579,2.459,1.579,2.451,0
			c-0.151-28.032,1.603-56.024,1.662-84.049C489.927,308.808,487.476,308.808,487.472,310.388L487.472,310.388z"/>
	</g>
	<g>
		<path d="M488.697,311.099c30.335-3.61,60.686-7.313,91.096-10.233c1.561-0.149,1.574-2.6,0-2.45
			c-30.41,2.92-60.761,6.622-91.096,10.233C487.146,308.833,487.13,311.287,488.697,311.099L488.697,311.099z"/>
	</g>
	<g>
		<path d="M579.793,300.865c7.632,0.979,15.266,1.955,22.896,2.932c1.564,0.202,1.546-2.253,0-2.452
			c-7.631-0.976-15.265-1.951-22.896-2.93C578.229,298.215,578.247,300.669,579.793,300.865L579.793,300.865z"/>
	</g>
	<polygon points="518.951,333.108 487.206,371.968 487.858,379.625 518.951,339.735 	"/>
	<path d="M531.105,402.379c-0.185-0.238-0.463-0.404-0.846-0.455c-0.067-0.225-0.251-0.401-0.56-0.391
		c-2.633,0.094-3.771,3.821-1.606,5.357C530.661,408.709,533.431,403.988,531.105,402.379z"/>
	<path d="M599.93,391.881c-0.71-1.49-2.126-1.959-3.562-1.525c-2.842,0.567-4.277,5.697-1.277,7.013
		C598.118,398.703,601.236,394.613,599.93,391.881z"/>
	<g>
		<path d="M545.23,406.201c4.837-12.809,31.09-18.604,38.813-6.144c0.833,1.342,2.952,0.109,2.118-1.235
			c-8.946-14.433-37.729-8.012-43.295,6.724C542.307,407.028,544.677,407.661,545.23,406.201L545.23,406.201z"/>
	</g>
	<g>
		<path d="M501.054,411.287c0.192-10.451,8.688-21.033,18.253-24.569c1.471-0.542,0.834-2.914-0.65-2.363
			c-10.651,3.936-19.839,15.299-20.053,26.933C498.574,412.866,501.025,412.863,501.054,411.287L501.054,411.287z"/>
	</g>
	<g>
		<path d="M494.415,413.229c0.436-14.978,10.608-28.824,24.93-33.4c1.499-0.478,0.857-2.846-0.651-2.361
			c-15.377,4.909-26.264,19.667-26.729,35.762C491.918,414.808,494.37,414.805,494.415,413.229L494.415,413.229z"/>
	</g>
	<g>
		<path d="M545.498,356.297c12.302-2.047,24.648-4.439,37.051-5.777c-0.406-0.405-0.816-0.817-1.225-1.227
			c0.121,1.739,0.242,3.476,0.361,5.21c-0.074-1.081,1.255-0.933-1.332-0.47c-4.127,0.737-8.253,1.479-12.38,2.216
			c-7.659,1.374-15.316,2.748-22.973,4.121c0.517,0.391,1.033,0.785,1.55,1.18c-0.052-2.145-0.103-4.289-0.153-6.433
			c-0.036-1.58-2.486-1.583-2.451,0c0.052,2.144,0.102,4.288,0.154,6.433c0.02,0.849,0.762,1.322,1.55,1.181
			c12.536-2.244,25.073-4.492,37.607-6.738c0.504-0.09,0.936-0.679,0.9-1.182c-0.129-1.84-0.255-3.677-0.384-5.518
			c-0.04-0.606-0.527-1.298-1.226-1.226c-12.621,1.363-25.183,3.782-37.702,5.868C543.29,354.191,543.951,356.557,545.498,356.297
			L545.498,356.297z"/>
	</g>
	<g>
		<path d="M546.021,337.2c12.301-2.049,24.649-4.439,37.052-5.776c-0.407-0.409-0.816-0.816-1.226-1.226
			c0.122,1.734,0.242,3.474,0.362,5.21c-0.075-1.085,1.255-0.938-1.334-0.474c-4.127,0.741-8.254,1.478-12.378,2.219
			c-7.659,1.374-15.318,2.744-22.975,4.118c0.517,0.394,1.033,0.788,1.55,1.182c-0.05-2.144-0.101-4.29-0.153-6.434
			c-0.036-1.577-2.487-1.581-2.45,0c0.052,2.144,0.103,4.29,0.152,6.434c0.021,0.851,0.764,1.324,1.552,1.183
			c12.537-2.248,25.073-4.494,37.608-6.742c0.503-0.09,0.935-0.68,0.9-1.183c-0.128-1.837-0.257-3.676-0.383-5.513
			c-0.044-0.611-0.528-1.302-1.227-1.226c-12.622,1.359-25.185,3.778-37.704,5.864C543.813,335.097,544.477,337.457,546.021,337.2
			L546.021,337.2z"/>
	</g>
	<g>
		<path d="M546.021,375.446c12.301-2.051,24.649-4.439,37.052-5.777c-0.407-0.408-0.816-0.817-1.226-1.226
			c0.122,1.735,0.242,3.475,0.362,5.209c-0.075-1.084,1.255-0.936-1.334-0.473c-4.127,0.74-8.254,1.482-12.378,2.219
			c-7.659,1.375-15.318,2.748-22.975,4.118c0.517,0.394,1.033,0.788,1.55,1.183c-0.05-2.144-0.101-4.288-0.153-6.436
			c-0.036-1.576-2.487-1.58-2.45,0c0.052,2.147,0.103,4.292,0.152,6.436c0.021,0.849,0.764,1.322,1.552,1.182
			c12.537-2.248,25.073-4.493,37.608-6.742c0.503-0.091,0.935-0.676,0.9-1.179c-0.128-1.84-0.257-3.677-0.383-5.517
			c-0.044-0.607-0.528-1.302-1.227-1.227c-12.622,1.364-25.185,3.782-37.704,5.868C543.813,373.342,544.477,375.706,546.021,375.446
			L546.021,375.446z"/>
	</g>
	<path d="M518.523,382.601c0.336-1.869-1.55-3.987-3.541-2.64c-9.724,6.572-21.018,15.163-20.342,27.989
		c-2.744,1.266-1.485,5.879,1.396,4.678c0.613-0.256,1.226-0.51,1.839-0.767c0.923-0.383,1.944-1.203,1.801-2.363
		c-0.315-2.51-0.087-4.819,0.539-6.963c0.717-0.199,1.358-0.698,1.671-1.576c2.315-6.508,8.624-12.946,15.444-14.526
		C519.31,385.974,519.47,383.865,518.523,382.601z"/>
	<g>
		<path d="M468.961,391.204c0.207-9.627,9.746-17.916,18.253-20.573c1.502-0.47,0.859-2.838-0.651-2.364
			c-9.6,3-19.82,12.176-20.053,22.938C466.473,392.788,468.924,392.784,468.961,391.204L468.961,391.204z"/>
	</g>
	<g>
		<path d="M462.321,392.846c0.477-13.9,12.138-24.587,24.928-28.039c1.525-0.409,0.879-2.773-0.65-2.361
			c-13.873,3.746-26.214,15.412-26.729,30.4C459.815,394.426,462.267,394.422,462.321,392.846L462.321,392.846z"/>
	</g>
	<path d="M486.429,366.968c0.337-1.58-1.55-3.369-3.541-2.229c-9.723,5.556-21.019,12.812-20.341,23.649
		c-2.744,1.07-1.486,4.968,1.396,3.952c0.612-0.217,1.226-0.43,1.839-0.646c0.924-0.326,1.944-1.021,1.8-1.999
		c-0.314-2.12-0.087-4.072,0.541-5.887c0.715-0.166,1.357-0.586,1.67-1.327c2.315-5.502,8.624-10.939,15.443-12.276
		C487.214,369.817,487.376,368.035,486.429,366.968z"/>
	<g>
		<path d="M505.158,309.505c-4.406-1.229-8.06,1.627-9.348,5.767c-1.242,3.979,1.086,9.42,5.701,9.735
			c5.493,0.372,9.342-5.391,8.584-10.419c-0.795-5.271-7.036-6.493-10.886-3.836c-1.292,0.889-0.068,3.015,1.237,2.115
			c2.869-1.978,6.386-1.232,7.284,2.375c0.945,3.792-3.577,8.803-7.386,6.844c-5.233-2.686-1.445-11.782,4.161-10.221
			C506.031,312.292,506.68,309.928,505.158,309.505L505.158,309.505z"/>
	</g>
	<g>
		<path d="M505.393,311.106c-2.014,2.097-3.553,4.771-5.051,7.244c-0.714,1.18-2.548,3.555-2.005,5.08
			c0.526,1.479,2.895,0.842,2.362-0.651c-0.189-0.531,2.009-3.607,2.461-4.334c1.182-1.909,2.405-3.98,3.965-5.604
			C508.22,311.703,506.488,309.968,505.393,311.106L505.393,311.106z"/>
	</g>
	<g>
		<path d="M308.189,211.119c12.34,0.472,24.684,0.067,37.026,0.286c1.583,0.027,1.58-2.424,0-2.451
			c-12.342-0.219-24.687,0.187-37.026-0.286C306.609,208.608,306.613,211.06,308.189,211.119L308.189,211.119z"/>
	</g>
	<g>
		<path d="M305.178,206.982c13.353-0.076,26.655-1.307,39.995-1.743c1.577-0.053,1.582-2.505,0-2.451
			c-13.34,0.436-26.642,1.667-39.995,1.742C303.596,204.54,303.594,206.991,305.178,206.982L305.178,206.982z"/>
	</g>
	<g>
		<path d="M344.189,197.231c0.022,6.605,0.284,13.207,0.306,19.812c0.006,1.58,2.457,1.58,2.451,0
			c-0.022-6.605-0.284-13.207-0.305-19.812C346.633,195.649,344.182,195.648,344.189,197.231L344.189,197.231z"/>
	</g>
	<g>
		<path d="M345.721,218.881c10.977-0.477,21.957-0.952,32.936-1.43c1.572-0.069,1.58-2.52,0-2.451
			c-10.979,0.477-21.959,0.952-32.936,1.43C344.147,216.497,344.14,218.95,345.721,218.881L345.721,218.881z"/>
	</g>
	<g>
		<path d="M345.619,198.352c12.849-1.265,25.755,0.022,38.63,0c1.58,0,1.58-2.451,0-2.451c-12.875,0.021-25.782-1.266-38.63,0
			C344.061,196.056,344.046,198.508,345.619,198.352L345.619,198.352z"/>
	</g>
	<g>
		<path d="M383.023,197.844c0.034,4.322,0.08,8.644,0.114,12.966c0.013,1.58,2.464,1.582,2.452,0
			c-0.035-4.322-0.08-8.644-0.114-12.966C385.46,196.265,383.009,196.263,383.023,197.844L383.023,197.844z"/>
	</g>
	<g>
		<path d="M385.327,207.062c1.097-0.847,4.09-2.325,4.777-0.288c0.504,1.488,2.872,0.85,2.365-0.652
			c-1.263-3.738-5.786-3.178-8.38-1.174C382.855,205.897,384.074,208.03,385.327,207.062L385.327,207.062z"/>
	</g>
	<g>
		<path d="M389.973,197.813c-0.014,4.15,0.117,8.312,0.184,12.461c0.024,1.578,2.475,1.58,2.452,0
			c-0.067-4.15-0.197-8.311-0.185-12.461C392.427,196.233,389.976,196.233,389.973,197.813L389.973,197.813z"/>
	</g>
	<g>
		<path d="M418.845,197.492c-0.177,5.51-0.804,11.021-0.764,16.538c0.01,1.58,2.461,1.581,2.451,0
			c-0.04-5.517,0.587-11.028,0.765-16.538C421.347,195.909,418.895,195.916,418.845,197.492L418.845,197.492z"/>
	</g>
	<g>
		<path d="M391.198,199.07c9.793-0.122,19.591-0.24,29.384-0.36c1.578-0.018,1.581-2.469,0-2.451
			c-9.793,0.119-19.591,0.24-29.384,0.359C389.619,196.639,389.616,199.09,391.198,199.07L391.198,199.07z"/>
	</g>
	<g>
		<path d="M395.201,214.816c8.027,0.199,16.072,0.48,24.104,0.439c1.58-0.009,1.58-2.46,0-2.451
			c-8.033,0.042-16.077-0.24-24.104-0.439C393.62,212.327,393.622,214.778,395.201,214.816L395.201,214.816z"/>
	</g>
	<g>
		<path d="M396.681,202.846c-0.469-6.879,1.155-15.61,5.944-20.791c4.756-5.148,7.16,5.25,7.71,7.398
			c1.115,4.377,1.005,8.946,0.428,13.384c-0.204,1.563,2.25,1.546,2.452,0c0.775-5.96,0.327-11.693-1.474-17.429
			c-0.779-2.485-2.541-7.305-5.869-7.276c-9.905,0.083-12.125,17.615-11.641,24.713
			C394.337,204.415,396.788,204.426,396.681,202.846L396.681,202.846z"/>
	</g>
	<g>
		<path d="M354.952,205.203c-0.105-8.351,1.099-17.609,8.292-22.938c5.624-4.165,10.131-0.05,12.761,4.938
			c2.815,5.336,2.802,11.844,1.875,17.637c-0.25,1.545,2.113,2.208,2.362,0.652c1.405-8.774-0.291-29.121-13.752-27.314
			c-11.741,1.574-14.105,17.868-13.989,27.025C352.519,206.781,354.97,206.783,354.952,205.203L354.952,205.203z"/>
	</g>
	<g>
		<path d="M354.122,206.401c8.33,0.631,16.621,0.956,24.938-0.009c1.551-0.18,1.569-2.635,0-2.451
			c-8.317,0.965-16.608,0.64-24.938,0.009C352.544,203.831,352.555,206.284,354.122,206.401L354.122,206.401z"/>
	</g>
	<g>
		<path d="M395.166,204.484c6.169,0.433,11.689,0.978,17.754-0.72c1.52-0.427,0.872-2.791-0.651-2.364
			c-5.898,1.652-11.134,1.054-17.104,0.632C393.589,201.92,393.6,204.372,395.166,204.484L395.166,204.484z"/>
	</g>
	<g>
		<path d="M362.16,177.211c4.66-3.975,11.422-3.446,16.184,0.039c1.278,0.935,2.5-1.193,1.238-2.116
			c-5.706-4.177-13.699-4.308-19.153,0.345C359.225,176.505,360.967,178.23,362.16,177.211L362.16,177.211z"/>
	</g>
	<g>
		<path d="M394.491,177.211c4.66-3.975,11.423-3.446,16.184,0.039c1.278,0.935,2.498-1.193,1.236-2.116
			c-5.707-4.177-13.699-4.308-19.152,0.345C391.553,176.505,393.296,178.23,394.491,177.211L394.491,177.211z"/>
	</g>
	<g>
		<path d="M379.678,191.104c-0.616-5.933-8.067-4.292-10.639-0.704c-3.137,4.369-3.798,10.811-1.602,15.721
			c0.646,1.441,2.756,0.192,2.115-1.236c-1.237-2.765-1.083-5.99-0.425-8.879c0.387-1.707,1.155-3.312,2.281-4.651
			c0.974-1.158,5.477-3.545,5.819-0.251C377.389,192.658,379.841,192.672,379.678,191.104L379.678,191.104z"/>
	</g>
	<g>
		<path d="M412.511,190.388c-0.262-4.953-7.074-3.279-9.365-0.932c-3.558,3.636-3.034,10.27-0.833,14.418
			c0.741,1.396,2.857,0.157,2.117-1.238c-1.403-2.643-1.682-5.719-0.987-8.611c0.38-1.582,1.291-2.941,2.631-3.854
			c0.706-0.48,3.91-1.2,3.986,0.217C410.143,191.961,412.594,191.968,412.511,190.388L412.511,190.388z"/>
	</g>
	<g>
		<path d="M454.664,239.943c8.611,7.803,17.225,15.604,25.838,23.407c0.584,0.527,1.453-0.336,0.866-0.868
			c-8.612-7.801-17.226-15.603-25.838-23.404C454.946,238.547,454.078,239.413,454.664,239.943L454.664,239.943z"/>
	</g>
	<g>
		<path d="M456.272,233.51c5.327,4.732,10.654,9.464,15.982,14.195c0.591,0.523,1.46-0.342,0.866-0.866
			c-5.326-4.732-10.653-9.464-15.982-14.196C456.549,232.119,455.681,232.984,456.272,233.51L456.272,233.51z"/>
	</g>
	<g>
		<path d="M241.576,243.637c-1.827,9.488-3.445,18.998-4.452,28.61c-1.347,12.823-1.949,26.297,1.184,38.915
			c0.189,0.766,1.372,0.44,1.18-0.326c-3.109-12.526-2.428-25.857-1.139-38.588c0.96-9.504,2.603-18.907,4.405-28.285
			C242.904,243.19,241.724,242.861,241.576,243.637L241.576,243.637z"/>
	</g>
	<g>
		<path d="M227.295,258.14c-1.563,14.605-3.163,30.666,1.587,44.843c0.251,0.744,1.434,0.427,1.182-0.326
			c-4.714-14.063-3.095-30.022-1.544-44.517C228.604,257.356,227.377,257.363,227.295,258.14L227.295,258.14z"/>
	</g>
	<g>
		<path d="M473.049,284.021c4.83,4.566,9.659,9.131,14.492,13.694c1.147,1.084,2.883-0.644,1.731-1.731
			c-4.83-4.566-9.659-9.13-14.49-13.694C473.635,281.205,471.897,282.935,473.049,284.021L473.049,284.021z"/>
	</g>
	<g>
		<path d="M467.891,287.61c5.158,4.876,10.317,9.751,15.477,14.625c1.147,1.084,2.885-0.644,1.733-1.732
			c-5.16-4.875-10.318-9.751-15.479-14.625C468.477,284.791,466.738,286.522,467.891,287.61L467.891,287.61z"/>
	</g>
	<g>
		<path d="M486.615,307.962c0.794-1.193,2.802-3.121,4.038-4.469c1.513-1.656,3.086-3.283,4.519-5.011
			c1-1.208-0.724-2.952-1.733-1.734c-1.521,1.839-3.195,3.562-4.805,5.32c-1.364,1.497-3.009,2.961-4.135,4.656
			C483.62,308.044,485.744,309.27,486.615,307.962L486.615,307.962z"/>
	</g>
	<g>
		<path d="M488.406,298.075c1.761,0.172,3.523,0.344,5.286,0.515c1.572,0.154,1.558-2.299,0-2.45
			c-1.763-0.172-3.525-0.344-5.286-0.515C486.833,295.471,486.848,297.922,488.406,298.075L488.406,298.075z"/>
	</g>
	<g>
		<path d="M483.332,302.178c0.274,1.742,0.551,3.48,0.825,5.223c0.245,1.559,2.605,0.894,2.361-0.65
			c-0.274-1.742-0.547-3.484-0.823-5.228C485.45,299.967,483.089,300.63,483.332,302.178L483.332,302.178z"/>
	</g>
	<g>
		<path d="M473.558,281.741c-8.182-0.628-8.739,9.6-10.328,15.107c-0.438,1.522,1.926,2.168,2.362,0.651
			c1.246-4.32,1.452-13.807,7.966-13.308C475.134,284.311,475.122,281.859,473.558,281.741L473.558,281.741z"/>
	</g>
	<g>
		<path d="M417.15,253.245c6.44,4.65,12.292,10.068,18.731,14.718c1.285,0.93,2.505-1.2,1.236-2.114
			c-6.438-4.653-12.288-10.069-18.73-14.718C417.104,250.201,415.882,252.331,417.15,253.245L417.15,253.245z"/>
	</g>
	<g>
		<path d="M421.688,236.468c10.224,7.779,20.305,15.971,30.331,24.011c1.222,0.977,2.968-0.745,1.733-1.735
			c-10.205-8.182-20.426-16.479-30.826-24.394C421.669,233.392,420.449,235.523,421.688,236.468L421.688,236.468z"/>
	</g>
	<g>
		<path d="M418.388,251.13c-4.012-2.595-9.132-7.107-6.077-12.274c1.742-2.945,6.583-4.813,9.366-2.293
			c1.17,1.058,2.909-0.671,1.734-1.734c-3.868-3.499-9.734-1.667-12.715,2.093c-4.995,6.298,1.218,12.936,6.454,16.322
			C418.485,254.105,419.711,251.984,418.388,251.13L418.388,251.13z"/>
	</g>
	<path d="M449.29,255.859c-2.32-1.271-4.284-2.856-6.785-3.546c-0.082-0.087-0.157-0.177-0.254-0.262
		c-5.867-5.11-12.604-13.089-19.938-15.904c-0.172-0.066-0.342-0.106-0.512-0.131c-0.197-1.074-0.914-2.034-2.146-2.32
		c-3.647-0.848-6.08,1.315-7.314,4.28c-1.054,1.537-1.423,3.438-0.949,6.229c0.344,2.01,1.846,3.687,3.758,5.111
		c0.015,0.443,0.112,0.897,0.332,1.34c1.408,2.867,4.296,3.968,7.087,5.163c0.159,0.068,0.319,0.165,0.48,0.24
		c0.906,0.595,1.83,1.15,2.776,1.636c2.874,1.997,5.729,4.741,8.007,6.753c1.273,1.128,3.066,1.208,4.332,0
		c0.304-0.288,0.601-0.582,0.902-0.874c2.107-0.198,5.269-0.869,7.018-2.488c0.037,0.021,0.073,0.043,0.111,0.065
		C449.666,263.049,452.757,257.756,449.29,255.859z M422.957,242.606c0.992,1.35,3.137,2.473,4.386,3.589
		c1.979,1.767,3.906,3.588,6.071,5.13c0.774,0.553,0.033,1.847-0.752,1.287c-2.272-1.618-4.282-3.526-6.372-5.365
		c-1.432-1.255-3.485-2.346-4.618-3.89C421.103,242.582,422.396,241.84,422.957,242.606z M435.521,260.885
		c-3.819-2.589-7.109-6.023-10.868-8.746c-1.993-1.445-4.851-4.622-7.132-5.478c-0.891-0.332-0.506-1.774,0.396-1.437
		c2.644,0.991,5.242,3.984,7.487,5.627c3.74,2.734,7.061,6.164,10.869,8.746C437.063,260.134,436.32,261.426,435.521,260.885z"/>
	<path d="M412.249,199.123c-0.112-0.828,0.03-1.735-0.03-2.578c-0.089-1.213-0.427-2.314-1.045-3.362
		c-0.018-0.033-0.042-0.056-0.06-0.087c0.566-1.529,0.094-3.485-1.923-4.08c-3.885-1.141-6.613,3.458-7.324,6.6
		c-0.459,2.019-0.252,4.06,1.09,5.693c1.291,1.577,3.391,1.792,5.283,1.476c0.622,0.213,1.295,0.264,1.869,0.104
		C411.88,202.403,412.471,200.774,412.249,199.123z"/>
	<path d="M379.371,200.352c-0.143-1.768-0.313-3.52-0.797-5.174c0.769-0.654,1.177-1.672,0.74-2.95
		c-1.43-4.183-5.575-4.474-8.342-1.334c-1.992,2.26-3.991,5.571-4.595,8.556c-0.401,1.968-0.268,4.535,1.673,5.657
		c1.934,1.118,4.035,0.884,6.139,0.479c0.36-0.068,0.685-0.184,0.991-0.318c1.818,0.929,4.396,0.134,4.396-2.574v-1.226
		C379.575,201.049,379.493,200.684,379.371,200.352z"/>
	<g>
		<path d="M342.273,169.623c-4.128,13.958-15.934,24.776-28.517,31.343c-0.702,0.365-0.083,1.425,0.616,1.059
			c12.87-6.716,24.863-17.819,29.082-32.078C343.68,169.188,342.497,168.867,342.273,169.623L342.273,169.623z"/>
	</g>
	<g>
		<path d="M316.824,197.429c0.551-0.389,1.029-0.846,1.504-1.322c0.558-0.559-0.308-1.424-0.868-0.866
			c-0.397,0.398-0.793,0.805-1.252,1.129C315.566,196.823,316.179,197.886,316.824,197.429L316.824,197.429z"/>
	</g>
	<g>
		<path d="M298.779,229.424c-7.578,13.279-6.055,29.547-5.598,44.224c0.564,18.16,2.853,36.051,10.296,52.801
			c0.32,0.72,1.375,0.098,1.057-0.618c-7.167-16.132-9.595-33.553-10.103-51.072c-0.427-14.785-2.234-31.327,5.405-44.716
			C300.23,229.356,299.169,228.738,298.779,229.424L298.779,229.424z"/>
	</g>
	<g>
		<path d="M297.998,322.562c-3.309-4.812-4.359-11.546-5.519-17.168c-1.364-6.62-2.06-13.36-2.362-20.104
			c-0.037-0.789-1.262-0.792-1.226,0c0.307,6.869,1.081,13.68,2.406,20.43c1.126,5.733,2.269,12.556,5.643,17.462
			C297.385,323.828,298.448,323.217,297.998,322.562L297.998,322.562z"/>
	</g>
	<g>
		<path d="M287.438,302.079c-0.193-1.363-0.387-2.726-0.613-4.085c-0.126-0.777-1.307-0.447-1.18,0.325
			c0.224,1.359,0.417,2.723,0.613,4.086C286.368,303.186,287.55,302.853,287.438,302.079L287.438,302.079z"/>
	</g>
	<g>
		<path d="M418.223,167.312c1.879,0.607,2.887,4.884,3.414,6.436c0.879,2.575,1.32,5.292,1.567,7.993
			c0.472,5.177-0.345,10.412-2.04,15.304c-0.257,0.748,0.925,1.066,1.184,0.325c1.974-5.699,2.733-11.883,1.84-17.875
			c-0.466-3.13-1.232-6.194-2.516-9.097c-0.687-1.558-1.351-3.691-3.124-4.266C417.794,165.888,417.475,167.07,418.223,167.312
			L418.223,167.312z"/>
	</g>
	<g>
		<path d="M425.739,180.048c-0.011,1.027-0.14,2.039-0.284,3.055c-0.112,0.774,1.07,1.106,1.183,0.326
			c0.159-1.123,0.314-2.245,0.327-3.38C426.974,179.259,425.748,179.26,425.739,180.048L425.739,180.048z"/>
	</g>
</g>
</svg>
