<?xml version="1.0" encoding="utf-8"?>
<!-- Generator: Adobe Illustrator 15.1.0, SVG Export Plug-In . SVG Version: 6.00 Build 0)  -->
<!DOCTYPE svg PUBLIC "-//W3C//DTD SVG 1.1//EN" "http://www.w3.org/Graphics/SVG/1.1/DTD/svg11.dtd">
<svg version="1.1" id="Layer_1" xmlns="http://www.w3.org/2000/svg" xmlns:xlink="http://www.w3.org/1999/xlink" x="0px" y="0px"
	 width="841.89px" height="595.28px" viewBox="0 0 841.89 595.28" enable-background="new 0 0 841.89 595.28" xml:space="preserve">
<g>
	<g>
		<path fill="#030202" d="M439.932,275.992c1.561-3.308,5.305-5.131,8.688-5.985c3.23-0.817,7.48,0.552,6.446,4.538
			c-1.178,4.535-8.321,10.191-13.141,9.155c-1.379-0.297-1.966,1.815-0.583,2.113c6.543,1.409,16.144-6.052,16.122-12.82
			c-0.014-3.958-4.366-5.613-7.676-5.381c-4.423,0.311-9.806,3.15-11.749,7.274C437.439,276.157,439.327,277.271,439.932,275.992
			L439.932,275.992z"/>
	</g>
	<g>
		<path fill="#030202" d="M392.546,284.58c4.22,9.604,12.435,15.025,21.913,18.827c9.638,3.865,21.683,6.604,31.758,3.052
			c1.323-0.467,0.754-2.585-0.582-2.114c-9.429,3.324-19.811,0.67-28.96-2.448c-9.547-3.252-18.087-8.982-22.236-18.423
			C393.871,282.181,391.983,283.297,392.546,284.58L392.546,284.58z"/>
	</g>
	<g>
		<path fill="#030202" d="M400.349,282.349c-5.134-3.721-11.202,2.611-12.663,7.323c-0.419,1.354,1.696,1.928,2.113,0.583
			c1.062-3.425,5.598-8.798,9.442-6.013C400.39,285.072,401.481,283.169,400.349,282.349L400.349,282.349z"/>
	</g>
	<g>
		<path fill="#030202" d="M392.854,275.987c-2.59,0.121-4.337,2.498-5.514,4.562c-0.702,1.23,1.192,2.334,1.893,1.107
			c0.73-1.281,1.95-3.399,3.622-3.477C394.261,278.114,394.268,275.922,392.854,275.987L392.854,275.987z"/>
	</g>
	<g>
		<path fill="#030202" d="M399.933,267.629c11.28,0.776,22.563,1.553,33.844,2.329c1.413,0.098,1.402-2.096,0-2.192
			c-11.28-0.776-22.563-1.553-33.844-2.329C398.521,265.339,398.53,267.532,399.933,267.629L399.933,267.629z"/>
	</g>
	<g>
		<path fill="#030202" d="M455.288,271.465c9.057,0.456,17.939,2.633,26.589-1.109c1.293-0.56,0.176-2.448-1.107-1.893
			c-8.183,3.54-16.949,1.238-25.481,0.809C453.875,269.201,453.882,271.395,455.288,271.465L455.288,271.465z"/>
	</g>
	<g>
		<path fill="#030202" d="M454.359,268.022c-1.084-6.912,2.99-15.147,6.378-20.862c4.106-6.924,11.235-13.869,19.583-14.711
			c13.941-1.408,2.218,31.683,0.113,36.327c-0.578,1.277,1.311,2.392,1.893,1.106c3.796-8.372,6.423-17.085,6.699-26.318
			c0.158-5.236-0.747-11.757-6.658-13.165c-7.609-1.813-16.302,5.878-20.472,11.321c-5.41,7.059-11.093,17.688-9.649,26.885
			C452.465,269.999,454.575,269.405,454.359,268.022L454.359,268.022z"/>
	</g>
	<g>
		<path fill="#030202" d="M401.028,266.533c1.247-16.037,14.835-34.462,30.474-39.025c12.362-3.607,12.382,13.154,11.165,20.637
			c-1.222,7.521-5.344,14.176-9.837,20.165c-0.851,1.132,1.055,2.222,1.893,1.107c6.249-8.326,10.431-17.157,10.728-27.691
			c0.167-5.962-1.642-16.135-9.253-16.695c-9.936-0.73-18.748,6.993-24.783,14.041c-6.517,7.61-11.793,17.373-12.578,27.462
			C398.727,267.942,400.919,267.933,401.028,266.533L401.028,266.533z"/>
	</g>
	<g>
		<path fill="#030202" d="M422.911,221.212c5.495-3.205,16.68-3.31,20.058,3.261c0.647,1.256,2.54,0.147,1.894-1.107
			c-3.939-7.663-16.521-7.859-23.058-4.046C420.584,220.03,421.688,221.926,422.911,221.212L422.911,221.212z"/>
	</g>
	<g>
		<path fill="#030202" d="M469.603,225.523c3.92-1.2,11.574-2.124,13.357,2.797c0.478,1.319,2.597,0.75,2.113-0.583
			c-2.273-6.276-10.769-5.946-16.053-4.328C467.672,223.823,468.247,225.939,469.603,225.523L469.603,225.523z"/>
	</g>
	<g>
		<path fill="#030202" d="M342.887,301.563c1.323,13.567,18.719,23.817,30.583,26.635c1.375,0.326,1.958-1.786,0.583-2.113
			c-5.735-1.362-10.844-3.833-15.681-7.167c-5.505-3.791-12.607-10.319-13.293-17.354
			C344.942,300.17,342.749,300.157,342.887,301.563L342.887,301.563z"/>
	</g>
	<g>
		<path fill="#030202" d="M353.756,244.472c0.186-11.917-17.059-10.828-22.172-3.114c-3.688,5.566-4.292,12.181-1.261,18.179
			c3.251,6.429,11.299,8.724,17.409,5.338c1.236-0.685,0.13-2.579-1.107-1.893c-6.305,3.494-12.905-0.434-15.357-6.648
			c-1.658-4.198-0.605-8.997,1.498-12.795c2.093-3.783,5.665-5.658,9.837-5.913c4.435-0.27,9.037,1.869,8.96,6.846
			C351.542,245.886,353.735,245.884,353.756,244.472L353.756,244.472z"/>
	</g>
	<g>
		<path fill="#030202" d="M345.826,249.582c-4.177-1.047-5.723,4.654-3.704,7.502c0.809,1.143,2.712,0.049,1.893-1.107
			c-0.81-1.142-0.945-4.826,1.229-4.282C346.616,252.04,347.196,249.924,345.826,249.582L345.826,249.582z"/>
	</g>
	<g>
		<path fill="#030202" d="M351.603,243.907c-0.786,4.09,0.505,12.877,6.491,11.736c4.241-0.807,4.001-8.896,2.931-11.827
			c-0.482-1.317-2.601-0.748-2.114,0.583c0.87,2.379,0.984,6.614-0.708,8.671c-1.475,1.792-3.467-1.132-3.939-2.342
			c-0.747-1.912-0.934-4.224-0.546-6.238C353.983,243.108,351.87,242.519,351.603,243.907L351.603,243.907z"/>
	</g>
	<g>
		<path fill="#030202" d="M359.42,244.015c-0.374,5.907,8.571,6.236,10.94,1.828c2.755-5.125-0.883-13.702-4.775-17.31
			c-1.036-0.959-2.589,0.587-1.55,1.55c2.646,2.452,4.029,6.139,4.729,9.601c0.382,1.885,0.31,3.923-0.611,5.636
			c-1.276,2.374-6.738,1.804-6.541-1.306C361.701,242.603,359.509,242.612,359.42,244.015L359.42,244.015z"/>
	</g>
	<g>
		<path fill="#030202" d="M410.849,189.938c-0.912,12.904-10.628,24.862-20.116,32.939c-9.806,8.348-22.297,12.124-35.058,11.272
			c-1.412-0.094-1.402,2.1,0,2.192c12.821,0.855,25.353-2.83,35.406-10.944c10.525-8.493,20.973-21.478,21.961-35.459
			C413.14,188.526,410.948,188.536,410.849,189.938L410.849,189.938z"/>
	</g>
	<g>
		<path fill="#030202" d="M410.62,189.801c0.584,7.063,12.232,7.821,17.067,5.152c6.653-3.674,3.102-13.665-1.221-17.574
			c-1.045-0.946-2.602,0.6-1.55,1.55c3.444,3.115,6.211,9.62,2.447,13.534c-2.844,2.955-14.137,2.353-14.552-2.662
			C412.697,188.402,410.503,188.391,410.62,189.801L410.62,189.801z"/>
	</g>
	<g>
		<path fill="#030202" d="M428.884,189.133c4.778,21.151,58.491,35.975,59.427,6.149c0.045-1.415-2.147-1.411-2.192,0
			c-0.846,26.95-50.91,11.907-55.121-6.731C430.685,187.172,428.571,187.756,428.884,189.133L428.884,189.133z"/>
	</g>
	<g>
		<path fill="#030202" d="M477.591,208.841c-2.027,4.269,0.968,8.403,4.821,10.268c4.083,1.974,8.958,1.073,12.428-1.631
			c1.116-0.869-0.449-2.409-1.55-1.55c-2.466,1.922-5.436,2.375-8.446,1.722c-3.145-0.683-7.073-4.096-5.36-7.701
			C480.087,208.679,478.196,207.565,477.591,208.841L477.591,208.841z"/>
	</g>
	<g>
		<path fill="#030202" d="M482.466,219.534c0.227,10.114,13.442,11.665,18.439,3.876c6.324-9.859,2.537-20.701-9.197-22.837
			c-1.381-0.252-1.972,1.861-0.582,2.115c8.178,1.488,12.128,7.02,10.009,15.195c-0.996,3.84-3.685,7.027-7.475,8.267
			c-4.446,1.457-8.904-2.231-9.002-6.617C484.626,218.123,482.434,218.12,482.466,219.534L482.466,219.534z"/>
	</g>
	<g>
		<path fill="#030202" d="M496.84,203.097c4.685-6.374,2.323-15.709-5.354-18.504c-7.911-2.878-17.062-0.441-24.007,3.851
			c-1.201,0.741-0.101,2.638,1.107,1.893c4.974-3.073,10.602-4.772,16.457-4.794c8.746-0.033,15.774,8.461,9.904,16.449
			C494.108,203.131,496.012,204.223,496.84,203.097L496.84,203.097z"/>
	</g>
	<g>
		<path fill="#030202" d="M483.926,184.823c0.835-9.405-3.691-19.621-11.059-25.534c-5.508-4.423-13.28-3.469-15.849,3.41
			c-0.495,1.327,1.625,1.895,2.112,0.582c3.67-9.824,13.691-2.017,17.27,3.003c3.814,5.353,5.915,11.995,5.333,18.539
			C481.609,186.231,483.802,186.219,483.926,184.823L483.926,184.823z"/>
	</g>
	<g>
		<path fill="#030202" d="M461.323,158.68c-1.16-6.447-7.461-11.122-12.616-14.505c-5.77-3.785-12.486-5.531-19.281-6.21
			c-13.553-1.356-28.029,2.983-38.627,11.462c-1.104,0.883,0.458,2.424,1.55,1.55c9.572-7.66,21.793-11.087,33.94-10.988
			c5.956,0.049,11.863,1.385,17.282,3.832c6.086,2.748,14.378,8.438,15.64,15.442C459.461,160.652,461.574,160.062,461.323,158.68
			L461.323,158.68z"/>
	</g>
	<g>
		<path fill="#030202" d="M399.098,144.441c-3.689-8.258-16.051-11.721-24.204-10.831c-8.106,0.885-16.115,8.741-13.426,17.248
			c0.426,1.343,2.542,0.77,2.115-0.582c-2.858-9.036,7.022-14.445,14.524-14.704c6.397-0.221,16.306,3.728,19.097,9.976
			C397.781,146.837,399.669,145.721,399.098,144.441L399.098,144.441z"/>
	</g>
	<g>
		<path fill="#030202" d="M361.903,143.208c-9.798-3.742-19.588-1.441-26.244,6.727c-5.213,6.397-9.062,16.956-3.23,23.971
			c0.904,1.089,2.447-0.472,1.55-1.55c-5.427-6.531-0.37-16.45,4.19-22.048c5.768-7.077,15.042-8.083,23.152-4.986
			C362.644,145.827,363.211,143.707,361.903,143.208L361.903,143.208z"/>
	</g>
	<g>
		<path fill="#030202" d="M331.016,167.799c-6.666-4.466-16.021,2.122-20.443,7.03c-6.027,6.688-8.874,16.79-2.535,24.105
			c0.927,1.07,2.471-0.487,1.55-1.55c-5.73-6.614-2.311-15.022,2.535-21.005c3.5-4.32,12.24-10.404,17.786-6.688
			C331.088,170.481,332.184,168.582,331.016,167.799L331.016,167.799z"/>
	</g>
	<g>
		<path fill="#030202" d="M305.155,193.102c-6.642,3.919-9.679,13.695-10.116,20.957c-0.52,8.691,7.14,11.56,14.34,9.546
			c1.359-0.379,0.781-2.494-0.583-2.113c-17.357,4.852-11.926-20.955-2.535-26.498C307.478,194.277,306.375,192.382,305.155,193.102
			L305.155,193.102z"/>
	</g>
	<g>
		<path fill="#030202" d="M302.968,222.914c-11.471,0.443-20.101,13.993-22.211,24.121c-1.032,4.95,0.667,9.791,4.936,12.516
			c3.983,2.542,9.597,0.669,13.444-1.069c1.287-0.581,0.171-2.471-1.107-1.893c-3.559,1.608-7.459,2.714-11.231,1.068
			c-5.765-2.515-4.2-10.204-2.621-14.687c2.665-7.568,10.125-17.53,18.791-17.864C304.377,225.053,304.382,222.86,302.968,222.914
			L302.968,222.914z"/>
	</g>
	<g>
		<path fill="#030202" d="M293.88,258.86c-5.353,5.058-9.145,18.224-3.92,24.473c7.125,8.525,17.078,2.045,23.557-3.648
			c1.064-0.936-0.494-2.479-1.55-1.55c-5.282,4.642-12.929,10.643-19.608,4.664c-5.453-4.881-1.61-17.966,3.071-22.389
			C296.459,259.438,294.906,257.891,293.88,258.86L293.88,258.86z"/>
	</g>
	<g>
		<path fill="#030202" d="M303.919,285.287c-1.426,5.982,2.714,10.952,7.213,14.367c6.305,4.782,14.634,2.304,20.341-1.985
			c1.116-0.838,0.025-2.743-1.107-1.893c-4.166,3.132-8.69,4.944-13.957,3.897c-5.583-1.108-11.786-7.888-10.375-13.804
			C306.362,284.495,304.248,283.912,303.919,285.287L303.919,285.287z"/>
	</g>
	<g>
		<path fill="#030202" d="M320.665,302.013c5.944,3.688,15.175,0.718,20.314-3.078c1.826-1.349,4.833-4.39,4.086-7.037
			c-0.9-3.194-4.084-4.198-7.003-5.001c-1.365-0.375-1.944,1.741-0.582,2.115c2.453,0.673,7.695,1.844,3.977,6.5
			c-1.714,2.147-4.43,3.521-6.928,4.504c-3.682,1.449-9.267,2.27-12.757,0.104C320.566,299.371,319.467,301.269,320.665,302.013
			L320.665,302.013z"/>
	</g>
	<g>
		<path fill="#030202" d="M341.06,266.943c8.176-0.325,8.158,10.256,5.824,15.365c-1.828,4.001-5.463,7.095-9.118,9.358
			c-1.199,0.742-0.099,2.639,1.107,1.893c5.55-3.437,11.559-9.371,11.742-16.392c0.149-5.756-2.868-12.682-9.555-12.415
			C339.651,264.808,339.646,267,341.06,266.943L341.06,266.943z"/>
	</g>
	<g>
		<path fill="#030202" d="M487.214,226.111c1.797,28.223-8.612,59.38-27.927,80.193c-19.281,20.781-46.53,36.706-75.186,25.626
			c-1.32-0.51-1.887,1.609-0.583,2.113c29.112,11.256,56.079-4.531,76.195-25.011c20.606-20.981,31.547-53.812,29.692-82.922
			C489.318,224.708,487.124,224.699,487.214,226.111L487.214,226.111z"/>
	</g>
	<g>
		<path fill="#030202" d="M361.143,321.746c-0.022-0.051-0.045-0.103-0.068-0.153c-0.319-0.718-1.574-0.718-1.893,0
			c-1.199,2.696,3.224,9.009,4.419,11.16c3.053,5.504,7.613,9.956,13.016,13.119c4.186,2.451,9.528,3.439,13.742,0.668
			c3.586-2.358,4.498-7.341,3.096-11.104c-0.491-1.312-2.61-0.745-2.116,0.583c1.898,5.088-1.396,9.826-6.806,10.039
			c-4.342,0.169-8.659-2.97-11.825-5.579c-2.963-2.442-5.231-5.577-7.215-8.833c-0.742-1.217-4.933-7.789-4.419-8.947
			c-0.632,0-1.261,0-1.893,0c0.022,0.052,0.045,0.103,0.068,0.154C359.824,324.143,361.712,323.027,361.143,321.746L361.143,321.746
			z"/>
	</g>
	<g>
		<path fill="#030202" d="M309.915,310.641c7.452-5.434,17.758-5.651,26.56-4.274c10.024,1.569,16.6,10.262,18.143,19.787
			c0.227,1.394,2.338,0.8,2.115-0.582c-1.648-10.174-8.224-18.074-18.175-20.984c-9.159-2.679-21.948-1.528-29.75,4.161
			C307.679,309.571,308.771,311.476,309.915,310.641L309.915,310.641z"/>
	</g>
	<g>
		<path fill="#030202" d="M312.451,298.303c-7.853,3.175-12.981,12.449-17.031,19.339c-7.662,13.036-13.571,27.139-19.04,41.206
			c-12.099,31.12-22.52,64.195-26.486,97.458c-0.167,1.402,2.027,1.386,2.192,0c3.725-31.247,13.445-62.155,24.381-91.546
			c5.375-14.448,11.375-28.749,18.75-42.301c3.988-7.329,9.514-18.687,17.815-22.042
			C314.327,299.895,313.761,297.774,312.451,298.303L312.451,298.303z"/>
	</g>
	<g>
		<path fill="#030202" d="M404.281,353.452c-4.953,19.982-9.906,39.966-14.86,59.949c-0.339,1.373,1.775,1.955,2.115,0.583
			c4.952-19.982,9.906-39.967,14.859-59.95C406.734,352.662,404.621,352.079,404.281,353.452L404.281,353.452z"/>
	</g>
	<g>
		<path fill="#030202" d="M400.145,337.812c9.101-0.257,9.655,6.635,11.108,13.588c1.385,6.633,2.016,13.417,2.823,20.137
			c1.019,8.482,2.208,16.823,4.282,25.119c0.344,1.371,2.458,0.789,2.115-0.582c-3.053-12.212-3.959-24.656-5.753-37.086
			c-0.82-5.675-1.203-12.89-3.811-18.103c-2.263-4.527-5.92-5.403-10.765-5.266C398.733,335.658,398.73,337.851,400.145,337.812
			L400.145,337.812z"/>
	</g>
	<g>
		<path fill="#030202" d="M429.541,380.392c-7.657,13.005-16.641,23.958-28.826,32.972c-1.123,0.831-0.031,2.735,1.107,1.893
			c12.511-9.254,21.749-20.404,29.612-33.758C432.153,380.277,430.259,379.175,429.541,380.392L429.541,380.392z"/>
	</g>
	<g>
		<path fill="#030202" d="M430.642,382.07c9.146-3.796,17.811-7.185,24.668-14.669c0.953-1.039-0.593-2.595-1.55-1.55
			c-6.618,7.221-14.875,10.441-23.7,14.105C428.772,380.49,429.338,382.612,430.642,382.07L430.642,382.07z"/>
	</g>
	<g>
		<path fill="#030202" d="M455.089,367.436c3.39-1.822,1.606,4.521,1.443,5.075c-0.813,2.758-2.843,5.337-4.622,7.522
			c-2.546,3.127-5.683,5.807-9.232,7.707c-1.246,0.667-0.139,2.56,1.107,1.893c6.563-3.516,12.081-9.637,14.86-16.54
			c1.516-3.758,0.828-10.503-4.663-7.55C452.736,366.212,453.843,368.105,455.089,367.436L455.089,367.436z"/>
	</g>
	<g>
		<path fill="#030202" d="M445.812,388.271c7.808-0.074,15.153-0.516,22.362-3.776c1.286-0.581,0.169-2.47-1.107-1.893
			c-6.808,3.08-13.9,3.406-21.255,3.477C444.399,386.092,444.397,388.284,445.812,388.271L445.812,388.271z"/>
	</g>
	<g>
		<path fill="#030202" d="M467.466,382.07c4.117,0.586,0.529,6.21-0.481,7.481c-1.522,1.915-3.724,3.181-5.87,4.261
			c-4.045,2.034-8.778,2.857-13.226,3.438c-1.381,0.181-1.397,2.375,0,2.192c7.108-0.927,14.524-2.54,19.927-7.566
			c2.807-2.611,6.495-11.027,0.233-11.919C466.667,379.76,466.072,381.872,467.466,382.07L467.466,382.07z"/>
	</g>
	<g>
		<path fill="#030202" d="M464.242,394.258c2.695,2.353-5.218,8.694-6.449,9.529c-3.676,2.487-8.188,3.534-12.576,3.329
			c-1.412-0.066-1.406,2.126,0,2.192c6.196,0.29,11.962-1.896,16.659-5.894c2.293-1.951,7.256-7.791,3.916-10.708
			C464.732,391.781,463.176,393.326,464.242,394.258L464.242,394.258z"/>
	</g>
	<g>
		<path fill="#030202" d="M454.918,406.859c0.291,1.549-2.936,3.358-3.982,4.002c-2.34,1.438-5.121,2.179-7.842,2.352
			c-1.402,0.091-1.411,2.283,0,2.192c3.714-0.237,7.204-1.41,10.278-3.514c1.865-1.275,4.128-3.122,3.659-5.615
			C456.77,404.889,454.656,405.479,454.918,406.859L454.918,406.859z"/>
	</g>
	<g>
		<path fill="#030202" d="M448.615,412.922c-2.235,8.105-13.478,4.791-19.155,5.019c-1.409,0.057-1.413,2.249,0,2.192
			c2.811-0.113,5.545,0.727,8.364,0.798c2.327,0.058,4.654-0.616,6.794-1.454c2.852-1.114,5.274-2.944,6.11-5.972
			C451.104,412.14,448.989,411.561,448.615,412.922L448.615,412.922z"/>
	</g>
	<g>
		<path fill="#030202" d="M428.685,418.262c-6.041,7.369-12.704,14.008-19.44,20.73c-1.002,1,0.549,2.55,1.55,1.551
			c6.736-6.722,13.399-13.362,19.44-20.731C431.123,418.729,429.582,417.168,428.685,418.262L428.685,418.262z"/>
	</g>
	<g>
		<path fill="#030202" d="M460.859,419.4c4.442-4.602,8.722-9.362,13.428-13.702c1.043-0.96-0.512-2.507-1.55-1.55
			c-4.706,4.34-8.986,9.101-13.429,13.702C458.328,418.867,459.876,420.42,460.859,419.4L460.859,419.4z"/>
	</g>
	<g>
		<path fill="#030202" d="M495.202,405.296c7.427-2.343,14.147-7.183,20.032-12.157c1.082-0.914-0.477-2.457-1.55-1.55
			c-5.562,4.7-12.029,9.373-19.064,11.594C493.277,403.606,493.852,405.724,495.202,405.296L495.202,405.296z"/>
	</g>
	<g>
		<path fill="#030202" d="M514.74,393.493c0.598-0.388,1.248-0.63,1.95-0.727c0.377-0.049-1.203,3.441-1.396,3.754
			c-1.169,1.907-2.957,3.479-4.577,4.992c-2.409,2.254-4.984,4.284-7.446,6.474c-1.058,0.94,0.499,2.485,1.55,1.55
			c4.683-4.16,10.405-7.911,13.327-13.619c2.208-4.312-0.605-6.39-4.515-4.316C512.383,392.263,513.492,394.154,514.74,393.493
			L514.74,393.493z"/>
	</g>
	<g>
		<path fill="#030202" d="M505.513,409.297c6.051-4.058,12.129-8.068,17.905-12.516c1.103-0.849,0.013-2.755-1.107-1.893
			c-5.776,4.446-11.854,8.458-17.904,12.516C503.239,408.187,504.335,410.087,505.513,409.297L505.513,409.297z"/>
	</g>
	<g>
		<path fill="#030202" d="M522.869,397.056c3.009-1.577,1.914,1.548,0.996,3.017c-1.021,1.633-2.483,3.008-3.871,4.324
			c-2.888,2.743-6.055,5.341-9.467,7.392c-1.21,0.728-0.109,2.623,1.106,1.894c5.442-3.269,11.246-7.905,14.645-13.333
			c2.622-4.191-0.167-7.465-4.516-5.186C520.51,395.819,521.619,397.712,522.869,397.056L522.869,397.056z"/>
	</g>
	<g>
		<path fill="#030202" d="M514.282,412.037c4.526-2.357,9.018-4.765,13.336-7.49c1.192-0.752,0.094-2.649-1.106-1.893
			c-4.316,2.725-8.811,5.132-13.336,7.49C511.923,410.797,513.029,412.689,514.282,412.037L514.282,412.037z"/>
	</g>
	<g>
		<path fill="#030202" d="M527.437,404.729c1.01-0.712,1.609,0.31,1.074,1.232c-0.411,0.71-0.997,1.292-1.569,1.868
			c-1.13,1.136-2.528,1.998-3.89,2.827c-2.433,1.482-5.029,2.67-7.41,4.237c-1.173,0.774-0.077,2.674,1.106,1.893
			c4.404-2.9,9.753-4.677,13.107-8.943c0.959-1.221,2.34-3.533,1.12-5.021c-1.238-1.512-3.253-0.967-4.646,0.015
			C525.184,403.644,526.278,405.545,527.437,404.729L527.437,404.729z"/>
	</g>
	<g>
		<path fill="#030202" d="M518.77,415.617c1.889-0.735,3.724-1.542,5.543-2.428c1.047-0.507,2.109-0.945,3.23-1.258
			c1.505-0.419,1.415-0.158,0.472,0.873c-3.124,3.413-7.735,4.951-11.825,6.839c-1.282,0.592-0.167,2.481,1.107,1.893
			c3.374-1.558,6.992-2.839,9.944-5.147c1.388-1.085,3.498-2.561,3.766-4.449c0.786-5.547-11.298,0.972-12.819,1.565
			C516.886,414.012,517.451,416.133,518.77,415.617L518.77,415.617z"/>
	</g>
	<g>
		<path fill="#030202" d="M516.008,419.827c-4.234,1.799-9.185,2.479-13.643,3.51c-6.219,1.438-12.453,2.81-18.664,4.282
			c-1.377,0.325-0.793,2.439,0.582,2.112c10.657-2.523,22.716-3.712,32.831-8.012C518.412,421.168,517.292,419.279,516.008,419.827
			L516.008,419.827z"/>
	</g>
	<g>
		<path fill="#030202" d="M471.517,408.328c7.909-8.577,16.385-0.801,25.695-3.605c1.352-0.406,0.775-2.522-0.582-2.113
			c-5.44,1.638-10.702-0.996-16.181-1.024c-4.233-0.022-7.715,2.188-10.482,5.192C469.01,407.814,470.556,409.369,471.517,408.328
			L471.517,408.328z"/>
	</g>
	<g>
		<path fill="#030202" d="M483.217,427.9c-4.367,3.644-8.499,7.539-12.946,11.092c-1.104,0.883,0.458,2.424,1.55,1.551
			c4.447-3.554,8.579-7.449,12.946-11.093C485.853,428.544,484.294,427.001,483.217,427.9L483.217,427.9z"/>
	</g>
	<g>
		<path fill="#030202" d="M452.886,419.636c5.997-2.057,11.77,3.18,14.67,7.969c2.488,4.108,2.28,9.232,1.734,13.812
			c-0.167,1.402,2.027,1.387,2.192,0c0.717-6.008,0.3-11.704-3.248-16.779c-3.415-4.888-9.865-9.195-15.931-7.113
			C450.975,417.979,451.546,420.097,452.886,419.636L452.886,419.636z"/>
	</g>
	<g>
		<path fill="#030202" d="M470.412,442.91c0.351-0.2,0.587-0.434,0.685-0.837c0.271-1.096-1.017-1.791-1.83-1.066
			c-4.43,3.946-8.859,7.892-13.287,11.838c-1.058,0.941,0.499,2.486,1.551,1.55c4.427-3.945,8.856-7.892,13.286-11.837
			c-0.61-0.355-1.223-0.711-1.832-1.066c0.106-0.158,0.214-0.316,0.32-0.474C468.078,441.718,469.183,443.611,470.412,442.91
			L470.412,442.91z"/>
	</g>
	<g>
		<path fill="#030202" d="M451.82,417.851c-10.018,8.825-21.026,16.488-31.059,25.303c-1.064,0.935,0.492,2.479,1.55,1.55
			c10.032-8.813,21.041-16.478,31.059-25.303C454.432,418.464,452.875,416.92,451.82,417.851L451.82,417.851z"/>
	</g>
	<g>
		<path fill="#030202" d="M426.418,422.344c1.736,4.307,2.986,8.769,4.202,13.245c0.368,1.362,2.483,0.783,2.113-0.583
			c-1.216-4.477-2.467-8.938-4.203-13.245C428.008,420.467,425.887,421.032,426.418,422.344L426.418,422.344z"/>
	</g>
	<g>
		<path fill="#030202" d="M531.335,452.836H407.561c-1.414,0-1.414,2.192,0,2.192h122.918
			C530.771,454.306,531.057,453.574,531.335,452.836z"/>
	</g>
	<g>
		<path fill="#030202" d="M317.625,455.027h-72.29c-0.051,0.731-0.103,1.461-0.154,2.192h72.444
			C319.04,457.22,319.04,455.027,317.625,455.027z"/>
	</g>
	<g>
		<path fill="#030202" d="M394.48,411.141c7.663,1.823,11.425,12.652,13.239,19.275c2.233,8.154,1.244,16.73-1.49,24.609
			c-0.465,1.339,1.655,1.909,2.115,0.582c3.366-9.701,3.569-19.543,0.433-29.332c-2.095-6.535-6.391-15.506-13.714-17.248
			C393.688,408.7,393.105,410.814,394.48,411.141L394.48,411.141z"/>
	</g>
	<g>
		<path fill="#030202" d="M393.402,409.355c-12.982,14.465-30.286,23.623-47.599,31.892c-1.275,0.609-0.162,2.498,1.107,1.893
			c17.476-8.347,34.94-17.636,48.042-32.234C395.895,409.856,394.349,408.301,393.402,409.355L393.402,409.355z"/>
	</g>
	<g>
		<path fill="#030202" d="M396.794,345.451c-2.385,3.574-6.344,4.627-10.427,4.801c-1.409,0.061-1.414,2.254,0,2.192
			c4.909-0.21,9.484-1.637,12.319-5.887C399.474,345.378,397.574,344.282,396.794,345.451L396.794,345.451z"/>
	</g>
	<g>
		<path fill="#030202" d="M346.67,329.682c-6.577,35.718-4.633,73.79,9.067,107.669c0.522,1.293,2.644,0.729,2.113-0.582
			c-13.55-33.512-15.575-71.158-9.064-106.504C349.039,328.883,346.927,328.293,346.67,329.682L346.67,329.682z"/>
	</g>
	<g>
		<path fill="#030202" d="M301.727,337.355c-5.406,20.692-4.605,42.759-1.734,63.795c2.777,20.349,7.997,40.803,18.471,58.634
			c0.715,1.218,2.611,0.114,1.893-1.106c-9.835-16.743-14.896-35.814-17.797-54.888c-3.282-21.579-4.274-44.589,1.283-65.853
			C304.2,336.568,302.084,335.988,301.727,337.355L301.727,337.355z"/>
	</g>
	<g>
		<path fill="#030202" d="M318.829,460.285c9.125,13.364,24.504,15.995,39.719,14.938c18.088-1.257,35.116-9.411,49.938-19.399
			c1.166-0.784,0.07-2.686-1.106-1.893c-12.777,8.609-26.63,15.323-41.851,18.195c-15.933,3.007-34.925,1.526-44.808-12.947
			C319.929,458.02,318.029,459.114,318.829,460.285L318.829,460.285z"/>
	</g>
	<g>
		<path fill="#030202" d="M393.906,423.374c7.146,5.557,7.183,16.117,4.65,24.055c-0.43,1.352,1.686,1.924,2.114,0.583
			c2.75-8.619,2.516-20.177-5.214-26.188C394.353,420.968,392.79,422.507,393.906,423.374L393.906,423.374z"/>
	</g>
	<g>
		<path fill="#030202" d="M474.608,378.936c0,8.038,0,16.077,0,24.116c0,1.414,2.192,1.414,2.192,0c0-8.039,0-16.078,0-24.116
			C476.801,377.521,474.608,377.521,474.608,378.936L474.608,378.936z"/>
	</g>
	<g>
		<path fill="#030202" d="M475.704,379.301c22.075,0,44.153,0,66.229,0c1.413,0,1.413-2.192,0-2.192c-22.075,0-44.153,0-66.229,0
			C474.291,377.108,474.291,379.301,475.704,379.301L475.704,379.301z"/>
	</g>
	<g>
		<path fill="#030202" d="M521.274,419.722c7.076,0,14.154,0,21.229,0c1.413,0,1.413-2.192,0-2.192c-7.075,0-14.153,0-21.229,0
			C519.861,417.529,519.861,419.722,521.274,419.722L521.274,419.722z"/>
	</g>
	<g>
		<path fill="#030202" d="M543.057,379.15c7.962-4.302,16.2-8.027,24.208-12.239c1.25-0.658,0.144-2.55-1.107-1.893
			c-8.007,4.212-16.245,7.938-24.208,12.239C540.706,377.931,541.812,379.823,543.057,379.15L543.057,379.15z"/>
	</g>
	<g>
		<path fill="#030202" d="M543.964,419.4c7.841-6.423,15.681-12.847,23.521-19.27c1.095-0.896-0.464-2.438-1.55-1.55
			c-7.84,6.423-15.681,12.847-23.521,19.27C541.32,418.747,542.881,420.289,543.964,419.4L543.964,419.4z"/>
	</g>
	<g>
		<path fill="#030202" d="M565.613,365.965c0,11.131,0,22.261,0,33.392c0,1.414,2.192,1.414,2.192,0c0-11.131,0-22.261,0-33.392
			C567.806,364.551,565.613,364.551,565.613,365.965L565.613,365.965z"/>
	</g>
	<g>
		<path fill="#030202" d="M504.961,365.892c20.591,0.026,41.157,1.144,61.749,1.169c1.415,0.003,1.415-2.189,0-2.192
			c-20.592-0.025-41.158-1.143-61.749-1.169C503.545,363.697,503.545,365.89,504.961,365.892L504.961,365.892z"/>
	</g>
	<g>
		<path fill="#030202" d="M476.899,378.786c8.897-5.306,19.174-8.943,28.613-13.202c1.287-0.58,0.171-2.47-1.106-1.893
			c-9.439,4.258-19.717,7.896-28.614,13.202C474.578,377.616,475.681,379.512,476.899,378.786L476.899,378.786z"/>
	</g>
	<g>
		<path fill="#030202" d="M541.408,378.936c0,13.093,0,26.188,0,39.28c0,1.414,2.192,1.414,2.192,0c0-13.093,0-26.188,0-39.28
			C543.601,377.521,541.408,377.521,541.408,378.936L541.408,378.936z"/>
	</g>
	<g>
		<path fill="#030202" d="M519.958,420.188c2.826,1.827-3.094,2.934-3.239,2.946c-1.124,0.095-2.278-0.013-3.402-0.056
			c-2.837-0.107-5.66-0.057-8.495,0.068c-1.406,0.062-1.413,2.254,0,2.192c3.103-0.137,6.183-0.156,9.283-0.039
			c1.833,0.07,3.999,0.226,5.714-0.586c2.587-1.225,4.117-4.563,1.246-6.419C519.872,417.526,518.773,419.424,519.958,420.188
			L519.958,420.188z"/>
	</g>
	<g>
		<path fill="#030202" d="M426.039,267.856c-0.621-5.946,1.31-11.175,4.622-16.045c1.295-1.902,3.021-3.531,4.958-4.75
			c5.969-3.76,6.069,5.1,4.609,8.275c-0.586,1.276,1.304,2.39,1.893,1.107c1.187-2.58,2.413-6.567,0.727-9.247
			c-1.608-2.552-4.496-3.876-7.401-2.477c-8.065,3.882-12.488,14.632-11.6,23.137C423.989,269.249,426.185,269.263,426.039,267.856
			L426.039,267.856z"/>
	</g>
	<g>
		<path fill="#030202" d="M471.902,270.227c-2.18-3.834,0.056-9.542,2.742-12.612c1.539-1.759,4.812-4.888,7.32-2.867
			c2.074,1.674,0.756,5.424-0.009,7.429c-0.505,1.323,1.616,1.889,2.113,0.583c0.991-2.597,2.015-6.538-0.032-8.946
			c-2.178-2.563-4.927-2.213-7.617-0.618c-5.467,3.245-9.787,12.203-6.41,18.138C470.707,272.562,472.603,271.458,471.902,270.227
			L471.902,270.227z"/>
	</g>
	<g>
		<path fill="#030202" d="M469.917,373.176c-2.757,3.817-5.157,7.871-7.964,11.659c-0.842,1.138,1.062,2.229,1.893,1.107
			c2.807-3.789,5.207-7.844,7.964-11.66C472.639,373.134,470.735,372.041,469.917,373.176L469.917,373.176z"/>
	</g>
	<g>
		<path fill="#030202" d="M461.775,368.204c-4.938,5.857-9.123,12.278-13.977,18.2c-0.888,1.083,0.653,2.645,1.551,1.55
			c4.854-5.922,9.041-12.344,13.976-18.2C464.231,368.681,462.688,367.122,461.775,368.204L461.775,368.204z"/>
	</g>
	<g>
		<path fill="#030202" d="M461.276,370.473c1.749-1.122,3.731-0.969,5.644-0.387c1.047,0.319,1.918,1.013,2.693,1.755
			c0.278,0.268,2.201,2.769,1.188,3.068c-1.354,0.399-0.777,2.516,0.582,2.113c4.006-1.184,0.569-6.176-1.295-7.676
			c-2.668-2.149-7.001-2.64-9.919-0.767C458.985,369.341,460.084,371.239,461.276,370.473L461.276,370.473z"/>
	</g>
	<g>
		<path fill="#030202" d="M467.496,358.331c-2.578,3.427-4.995,7.104-7.821,10.329c-0.929,1.058,0.617,2.615,1.551,1.55
			c2.95-3.364,5.474-7.196,8.163-10.771C470.24,358.307,468.335,357.217,467.496,358.331L467.496,358.331z"/>
	</g>
	<g>
		<path fill="#030202" d="M477.704,362.921c-2.036,4.105-4.419,8.047-6.748,11.99c-0.72,1.22,1.175,2.322,1.893,1.106
			c2.329-3.942,4.712-7.885,6.748-11.989C480.224,362.766,478.333,361.655,477.704,362.921L477.704,362.921z"/>
	</g>
	<g>
		<path fill="#030202" d="M469.008,359.851c1.16-0.459,2.554-0.443,3.774-0.396c1.815,0.073,4.868,1.724,4.56,3.98
			c-0.188,1.382,1.923,1.978,2.113,0.582c0.773-5.652-6.694-7.994-11.03-6.28C467.128,358.25,467.693,360.371,469.008,359.851
			L469.008,359.851z"/>
	</g>
	<g>
		<path fill="#030202" d="M471.089,351.148c2.927,6.103,11.124,3.297,15.819,1.201c8.495-3.791,15.369-9.134,21.763-15.884
			c8.944-9.444,15.322-20.836,20.904-32.482c4.716-9.842,8.309-20.934,5.024-31.759c-0.409-1.349-2.526-0.773-2.113,0.583
			c3.128,10.315-0.419,20.692-4.804,30.069c-4.633,9.909-10.028,19.34-16.918,27.867c-5.06,6.263-11.005,11.925-17.918,16.084
			c-4.108,2.472-16.629,9.962-19.865,3.214C472.369,348.768,470.479,349.88,471.089,351.148L471.089,351.148z"/>
	</g>
	<g>
		<path fill="#030202" d="M542.708,272.655c-5.848-6.472-16.451-5.747-23.773-3.017c-12.891,4.808-24.319,16.004-32.847,26.434
			c-13.194,16.138-27.092,42.34-19.727,63.781c0.456,1.329,2.573,0.758,2.113-0.582c-6.581-19.165,4.866-41.839,15.708-57.114
			c7.495-10.56,17.096-19.665,28.062-26.536c7.786-4.879,21.366-9.769,28.913-1.417
			C542.105,275.256,543.651,273.699,542.708,272.655L542.708,272.655z"/>
	</g>
	<g>
		<path fill="#030202" d="M537.201,271.178c8.624,3.658,6.705,15.671,5.252,22.99c-1.679,8.458-4.719,16.869-8.575,24.574
			c-11.038,22.064-31.551,41.368-56.109,46.556c-1.384,0.291-0.797,2.405,0.582,2.113c25.938-5.479,47.454-26.313,58.529-49.851
			c4.117-8.748,7.448-18.438,8.57-28.069c0.848-7.29,0.743-16.86-7.143-20.206C537.021,268.741,535.903,270.628,537.201,271.178
			L537.201,271.178z"/>
	</g>
	<g>
		<path fill="#030202" d="M535.7,282.567c-0.685-6.421-6.861-6.802-11.957-5.07c-10.26,3.485-19.168,10.903-26.325,18.838
			c-13.901,15.413-26.792,36.34-20.069,57.657c0.424,1.344,2.541,0.77,2.113-0.582c-5.394-17.102,2.363-32.648,12.261-46.326
			c4.749-6.562,9.938-12.575,16.149-17.79c3.218-2.702,24.456-17.788,25.636-6.727C533.658,283.958,535.85,283.972,535.7,282.567
			L535.7,282.567z"/>
	</g>
	<path fill="#030202" d="M440.753,246.542c-1.99-1.008-3.978-0.511-5.77,0.603c-3.103-0.25-5.5,3.61-6.586,6.063
		c-0.438,0.991-0.895,2.062-1.333,3.177c-1.291,2.346-2.24,4.918-2.255,7.478c-0.187,1.007-0.319,2-0.351,2.944
		c-0.05,1.535,1.43,2.345,2.774,2.114c2.492-0.431,5.146,1.061,7.333-0.856c1.976-1.734,2.766-4.31,3.654-6.704
		c0.124-0.338,0.165-0.649,0.139-0.933c0.251-0.37,0.51-0.741,0.752-1.105C440.634,257.049,444.809,248.597,440.753,246.542z"/>
	<path fill="#030202" d="M484.748,258.448c-0.071-0.566-0.343-1.066-0.713-1.448c-0.018-0.077-0.023-0.151-0.05-0.231
		c-1.697-5.357-7.68-2.77-10.036,0.522c-2.043,2.852-4.685,7.278-4.368,10.934c0.35,4.005,4.108,3.607,6.47,1.804
		c2.441-0.485,4.385-0.879,6.008-3.243C483.54,264.628,485.088,261.125,484.748,258.448z"/>
	<path fill="#030202" d="M499.987,205.076c-0.736-1.597-2.381-2.461-4.096-2.631c2.351-4.078,3.038-9.424-0.418-12.729
		c-0.481-0.461-1.034-0.807-1.614-1.067c-2.516-2.872-6.635-4.165-10.449-3.638c-0.391-0.254-0.797-0.502-1.251-0.735
		c-0.075-1.479-0.231-2.933-0.521-4.359c0.312-5.917-0.774-11.783-5.793-14.526c-3.284-4.853-8.545-8.245-14.488-6.674
		c-2.935-8.48-10.979-13.949-20.199-16.781c-6.43-3.768-14.319-5.439-20.078-2.349c-8.42-0.368-17.357,0.967-22.694,5.916
		c-0.184,0.17-0.331,0.353-0.482,0.534c-1.182-5.048-5.397-7.855-10.465-8.759c-0.385-0.197-0.773-0.392-1.171-0.57
		c-4.785-2.145-12.167-3.463-16.918-0.465c-0.609,0.384-1.126,0.782-1.593,1.188c-2.355,0.705-4.306,2.756-5.721,5.233
		c-6.137-1.34-14.153,0.524-18.812,3.078c-7.91,4.337-11.344,13.543-13.844,21.661c-0.032,0.105-0.059,0.211-0.09,0.316
		c-1.251-0.514-2.495-0.789-3.898-0.802c-1.367-0.014-2.576,0.75-3.256,1.855c-3.198,0.469-6.185,2.324-8.542,4.494
		c-1.676,1.544-2.947,3.36-3.918,5.336c-2.4,1.414-3.575,4.299-4.076,7.216c-0.441,2.561-0.668,6.012,0.375,8.718
		c-0.758,0.308-1.481,0.774-2.133,1.398c-0.13,0.049-0.258,0.08-0.39,0.144c-5.694,2.76-7.78,9.283-6.898,15.335
		c-0.418,4.66,1.007,9.433,4.557,12.216c-5.892,2.91-10.954,7.01-14.683,12.687c-3.483,5.304-6.646,15.175-1.943,20.666
		c2.225,2.597,5.484,3.665,9.047,3.658c-1.944,2.351-3.348,5.142-3.994,8.333c-1.164,5.764-0.088,14.807,6.825,16.535
		c2.953,0.738,5.777,0.524,8.686,0.018c-1.542,5.816,4.994,12.316,9.7,14.169c2.492,0.981,5.06,1.39,7.492,1.226
		c0.375,1.241,1.394,2.216,3.014,2.059c4.256-0.412,11.97-2.143,15.469-5.989c2.296-1.148,3.744-2.86,2.774-5.437
		c-0.235-0.623-0.581-1.226-1.009-1.747c2.651-2.323,4.421-5.545,5.668-8.835c0.346-0.912,0.226-1.733-0.166-2.398
		c0.265-1.391,0.337-2.83,0.345-4.213c0.028-5.123-2.936-9.964-8.556-8.543c-1.045-1.287-2.37-1.581-3.815-1.309
		c-8.221-7.226-9.448-23.664,2.499-27.776c0.208,0.033,0.414,0.072,0.632,0.066c2.008-0.049,3.849-0.618,5.77-0.978
		c0.904,0.355,1.81,0.708,2.668,1.17c1.624,0.875,2.975,1.98,4.571,2.844c0.511,4.247-0.904,9.188,1.902,12.876
		c2.954,3.883,9.624,0.066,6.624-3.873c-0.729-0.959-0.914-2.261-0.923-3.604c2.279,3.103,5.423,4.753,8.525,1.33
		c3.01-3.323,1.927-7.292,0.521-11.047c4.686-1.965,9.625-3.053,14.195-5.333c3.739-1.865,7.076-4.601,10.155-7.391
		c6.397-5.794,11.278-13.287,15.895-20.506c0.815-1.275,0.758-2.515,0.218-3.51c1-2.304,1.755-4.702,2.233-7.175
		c4.577,4.236,11.051,5.906,16.136,0.697c0.869-0.891,1.55-1.896,2.062-2.971c0.812,1.23,1.724,2.378,2.667,3.39
		c3.698,6.172,9.236,10.594,15.629,12.956c0.615,0.85,1.514,1.552,2.736,1.972c3.009,1.032,6.081,1.61,9.127,1.752
		c0.67,0.156,1.352,0.285,2.036,0.386c4.383,2.432,10.187,2.503,15.085,0.656c0.398,2.172,1.314,4.204,2.952,5.691
		c1.12,1.015,2.593,1.956,4.201,2.613c-0.02,2.334,0.627,4.6,2.394,6.382c2.593,2.62,6.761,2.581,9.754,0.725
		C503.058,221.616,502.982,211.575,499.987,205.076z"/>
	<path fill="#030202" d="M477.65,362.873c0.152-0.362,0.298-0.729,0.433-1.103c0.185-0.509-0.565-0.945-0.916-0.533
		c-0.013,0.017-0.026,0.034-0.039,0.051c-0.151-0.051-0.325-0.05-0.479,0.037c0-0.133-0.032-0.264-0.146-0.361l0,0
		c0.002-0.006,0.004-0.01,0.004-0.016c0.138-0.463-0.43-0.867-0.809-0.617c-0.966-0.697-2.023-1.226-3.205-1.496
		c-0.169-0.038-0.35,0.018-0.484,0.122c-0.396-0.136-0.798-0.253-1.229-0.327c-0.287-0.05-0.589,0.156-0.683,0.409
		c-0.185-0.223-0.536-0.308-0.81-0.062c-0.379,0.341-0.73,0.704-1.07,1.076c-0.152-0.026-0.311,0.01-0.438,0.157
		c-1.654,1.963-3.369,3.909-4.631,6.146c-0.017-0.001-0.034-0.003-0.051-0.004c-0.479-0.03-0.691,0.582-0.42,0.904
		c-0.086,0.178-0.178,0.351-0.259,0.532c-0.235,0.535,0.4,1.147,0.86,0.663c0.229-0.239,0.45-0.406,0.668-0.544
		c1.253,1.219,3.535,2.558,5.331,2.168c0.441,0.416,0.856,0.829,1.242,1.186c0.255,0.234,0.559,0.178,0.747-0.002
		c0.049,0.037,0.101,0.064,0.156,0.079c0.023,0.034,0.047,0.067,0.072,0.101c0.011,0.019,0.023,0.035,0.034,0.053
		c0,0,0.003-0.001,0.003-0.002c0.025,0.032,0.045,0.064,0.072,0.098c-0.043,0.098-0.09,0.191-0.131,0.289
		c-0.004,0.008-0.008,0.015-0.013,0.022l0.002,0.001c-0.017,0.044-0.038,0.086-0.058,0.13c-0.237,0.59,0.696,0.941,1.002,0.422
		c0.09-0.151,0.174-0.306,0.262-0.457c0.218,0.095,0.479,0.059,0.629-0.229c0.152-0.289,0.311-0.573,0.465-0.86
		c0.03-0.031,0.062-0.057,0.083-0.099c1.3-2.435,2.67-4.816,4.18-7.125C478.252,363.34,477.979,362.958,477.65,362.873z"/>
	<g>
		<path fill="#FFFFFF" d="M538.04,288.505c0.623,8.244-3.301,15.853-7.989,22.362c-0.416,0.575,0.537,1.121,0.945,0.554
			c4.794-6.654,8.776-14.494,8.141-22.916C539.085,287.805,537.986,287.8,538.04,288.505L538.04,288.505z"/>
	</g>
	<path fill="#030202" d="M475.576,344.289c-0.037,2.524,0.385,4.979,1.383,6.738c0.229,0.401,0.492,0.739,0.777,1.04
		C476.774,349.568,476.194,346.91,475.576,344.289z"/>
	<g>
		<path fill="#030202" d="M532.969,278.179c-5.695-3.319-12.289-1.798-17.895,0.926c-8.174,3.974-15.049,10.667-20.928,17.468
			c-6.408,7.413-11.88,15.743-15.988,24.644c-3.257,7.055-6.07,15.227-5.07,23.107c0.088,0.691,1.185,0.7,1.097,0
			c-0.955-7.533,1.661-15.229,4.678-22.019c3.852-8.671,9.181-16.728,15.246-24c5.497-6.592,11.875-12.753,19.335-17.087
			c5.641-3.275,12.903-5.628,18.973-2.093C533.028,279.482,533.578,278.535,532.969,278.179L532.969,278.179z"/>
	</g>
	<g>
		<path fill="#030202" d="M473.238,346.758c0.186,2.237,0.801,4.366,1.719,6.408c0.289,0.645,1.233,0.087,0.946-0.553
			c-0.833-1.856-1.4-3.822-1.569-5.855C474.276,346.06,473.18,346.054,473.238,346.758L473.238,346.758z"/>
	</g>
	<path opacity="0.64" fill="#030202" d="M483.014,347.865c-0.998-1.009-1.896-2.062-2.771-3.13
		c-0.013-0.465-0.009-0.931-0.007-1.396c-0.263,2.657-0.43,5.328-0.496,8.01c-0.007,0.234-0.127,0.391-0.28,0.484
		c0.421,0.46,1.511,0.195,1.394-0.542c-0.244-1.54-0.392-3.099-0.495-4.668c2.248,1.702,4.858,3.875,7.969,5.241
		C486.679,350.467,484.474,349.349,483.014,347.865z"/>
	<path opacity="0.64" fill="#030202" d="M480.852,338.439c-0.114,0.756-0.229,1.511-0.323,2.27c2.561,1.955,5.348,3.774,8.35,5.413
		c1.106,0.604,2.537,1.606,4.128,2.347c-2.341-2.056-5.096-3.83-7.539-5.854C483.844,341.273,482.352,339.854,480.852,338.439z"/>
	<path opacity="0.64" fill="#030202" d="M484.897,319.138c1.698-4.026,3.828-8.043,6.13-11.766c0.214-0.347,0.433-0.695,0.657-1.045
		c-9.274,11.567-13.72,26.226-12.917,40.018C479.41,337.006,481.234,327.821,484.897,319.138z"/>
	<path opacity="0.64" fill="#030202" d="M481.854,332.888c-0.172,0.79-0.317,1.585-0.465,2.378c3.479,2.385,7.348,4.456,11.12,6.652
		c1.895,1.104,3.62,2.491,5.757,3.453c-4.802-4.485-11.325-8.1-16.32-12.49C481.913,332.881,481.883,332.887,481.854,332.888z"/>
	<path opacity="0.64" fill="#030202" d="M490.203,317.625c-0.681-0.621-1.341-1.251-1.97-1.896c-0.131,0-0.264,0.017-0.395,0.032
		c-0.225,0.445-0.437,0.895-0.654,1.343c0.848,0.624,1.661,1.271,2.464,1.924C489.83,318.559,490.013,318.09,490.203,317.625z"/>
	<path opacity="0.64" fill="#030202" d="M491.164,318.479c-0.182,0.452-0.361,0.904-0.535,1.359
		c2.225,1.853,4.381,3.749,6.761,5.503c2.317,1.711,4.627,3.914,7.425,5.528C501.287,326.238,495.827,322.55,491.164,318.479z"/>
	<path opacity="0.64" fill="#030202" d="M500.351,311.21c0.985,0.721,1.987,1.431,3.004,2.138c0.506,0.349,0.998,0.709,1.488,1.068
		c-0.433-0.443-0.887-0.872-1.3-1.327c-1.936-2.135-3.802-4.305-5.708-6.454c-0.4,0.492-0.785,0.995-1.158,1.511
		C497.896,309.162,499.12,310.183,500.351,311.21z"/>
	<path opacity="0.64" fill="#030202" d="M499.39,304.865c0.052,0.06,0.107,0.118,0.161,0.178c2.351,1.979,5.146,3.71,7.729,5.493
		c1.025,0.711,2.027,1.474,3.029,2.247c-1.068-1.027-2.126-2.061-3.192-3.09c-2.11-2.051-4.308-4.029-6.606-5.95
		C500.124,304.107,499.752,304.482,499.39,304.865z"/>
	<path opacity="0.64" fill="#030202" d="M493.43,310.948c0.304-0.529,0.616-1.053,0.941-1.567c-0.646-0.538-1.299-1.071-1.92-1.625
		c0.492-0.638,1.008-1.26,1.53-1.877c0.58,0.493,1.174,0.986,1.76,1.479c0.396-0.546,0.808-1.079,1.235-1.602
		c-0.552-0.49-1.072-1.001-1.564-1.528c0.571-0.621,1.16-1.228,1.762-1.825c0.473,0.513,0.932,1.035,1.396,1.553
		c0.323-0.338,0.653-0.671,0.994-0.995c-0.167-0.135-0.328-0.274-0.495-0.409c-0.374-0.278-0.734-0.566-1.104-0.853
		c-0.056-0.034-0.111-0.069-0.167-0.104c0.002-0.015-0.004-0.03-0.002-0.045c-2.946,1.695-4.909,4.891-6.541,7.839
		c0.103-0.144,0.195-0.293,0.3-0.436C492.222,309.644,492.798,310.407,493.43,310.948z"/>
	<path opacity="0.64" fill="#030202" d="M498.178,312.37c-0.98-0.718-1.934-1.452-2.866-2.199c-0.326,0.521-0.641,1.051-0.944,1.588
		c1.832,1.59,3.635,3.21,5.712,4.642c2.749,1.9,5.562,3.763,8.389,5.614C505.461,318.612,501.871,315.445,498.178,312.37z"/>
	<path opacity="0.64" fill="#030202" d="M498.041,319.741c-1.79-1.61-3.564-3.228-5.293-4.872c-0.119,0.253-0.239,0.508-0.355,0.763
		c2.386,1.848,4.777,3.691,7.137,5.554c2.067,1.636,4.003,3.377,6.341,4.822C503.685,323.693,500.42,321.882,498.041,319.741z"/>
	<path opacity="0.64" fill="#030202" d="M488.426,322.342c-0.899-0.772-1.758-1.567-2.541-2.4c-0.321,0.75-0.636,1.501-0.923,2.268
		c0.95,0.648,1.891,1.309,2.837,1.962C488.002,323.561,488.214,322.952,488.426,322.342z"/>
	<path opacity="0.64" fill="#030202" d="M489.419,323.175c-0.198,0.571-0.394,1.143-0.584,1.715c2.081,1.45,4.149,2.908,6.183,4.381
		c3.029,2.19,5.815,4.634,9.515,6.325C500.711,330.838,494.484,327.297,489.419,323.175z"/>
	<path opacity="0.64" fill="#030202" d="M492.239,332.165c-1.503-1.266-3.034-2.519-4.541-3.785
		c-0.249,0.782-0.497,1.558-0.743,2.329c0.524,0.382,1.054,0.761,1.604,1.118c3.691,2.39,7.52,5.399,12.167,7.263
		c-0.862-0.793-1.961-1.51-2.676-2.111C496.127,335.362,494.159,333.779,492.239,332.165z"/>
	<path opacity="0.64" fill="#030202" d="M486.696,327.529c-0.93-0.792-1.85-1.59-2.738-2.406c-0.332,1.02-0.639,2.046-0.928,3.075
		c1.058,0.504,1.989,1.12,2.889,1.761C486.176,329.154,486.435,328.344,486.696,327.529z"/>
	<path fill="#030202" d="M530.356,281.459c-0.126-0.694-1.184-0.399-1.058,0.292c1.113,6.064-1.706,12.498-4.877,17.527
		c-0.377,0.601,0.571,1.149,0.946,0.555C528.714,294.522,531.525,287.838,530.356,281.459z"/>
	<path fill="#030202" d="M522.291,302.706c0.003,0.1-0.045,0.17-0.139,0.212c-0.596,0.376-0.047,1.324,0.553,0.946
		c0.438-0.275,0.64-0.647,0.683-1.158C523.447,302.001,522.352,302.007,522.291,302.706z"/>
</g>
</svg>
