<?xml version="1.0" encoding="utf-8"?>
<!-- Generator: Adobe Illustrator 15.1.0, SVG Export Plug-In . SVG Version: 6.00 Build 0)  -->
<!DOCTYPE svg PUBLIC "-//W3C//DTD SVG 1.1//EN" "http://www.w3.org/Graphics/SVG/1.1/DTD/svg11.dtd">
<svg version="1.1" id="Layer_1" xmlns="http://www.w3.org/2000/svg" xmlns:xlink="http://www.w3.org/1999/xlink" x="0px" y="0px"
	 width="841.89px" height="595.28px" viewBox="0 0 841.89 595.28" enable-background="new 0 0 841.89 595.28" xml:space="preserve">
<g>
	<path d="M427.912,179.626c-5.816-12.705-19.605-21.123-33.23-22.566c-0.351-0.037-0.668-0.013-0.965,0.039
		c-0.043-0.122-0.069-0.24-0.122-0.363c-0.808-1.864-2.31-3.422-4.07-4.408c-0.694-0.528-1.458-0.989-2.325-1.384
		c-0.453-0.4-0.918-0.784-1.409-1.128c-3.063-4.173-5.616-8.086-11.265-10.241c-1.184-0.452-2.318-0.219-3.245,0.388
		c-2.668-1.277-5.534-2.172-8.485-2.794c-4.428-1.405-9.142-2.031-13.772-1.805c-3.371-0.794-6.87-1.236-10.767-1.263
		c-8.942-0.06-18.083,2.653-26.571,5.221c-7.801,2.361-15.723,5.437-22.245,10.414c-0.686,0.524-1.17,1.186-1.475,1.902
		c-1.047,0.621-2.082,1.257-3.104,1.91c-2.387,0.975-4.165,2.197-6.014,4.151c-0.461,0.488-0.751,1.038-0.925,1.609
		c-0.249,0.124-0.491,0.264-0.709,0.435c-3.709,2.447-6.084,9.535-7.478,12.691c-3.481,7.885-6.41,15.908-10.199,23.668
		c-3.637,7.448-7.1,14.96-9.574,22.884c-0.715,2.285-1.278,4.609-1.754,6.955c-1.9,4.029-3.343,8.336-4.88,12.413
		c-2.77,7.344-5.285,14.784-7.888,22.188c-3.73,10.614-8.293,21.137-10.508,32.183c-2.674,1.107-5.457,1.933-8.301,2.548
		c-1.574,0.342-8.997,1.476-9.859-0.169c-2.551-4.864-9.899-0.56-7.354,4.298c0.177,0.334,0.369,0.646,0.576,0.941
		c-0.592,1.115-0.715,2.492,0.034,3.924c3.133,5.982,6.861,11.414,12.159,15.521c-1.217,1.291-1.799,3.291-0.908,5.158
		c2.241,4.691,6.491,7.385,11.331,8.768c0.339,0.498,0.807,0.943,1.448,1.275c8.009,4.148,16.293,3.617,24.013,0.494
		c5.458-0.594,10.663-2.092,15.081-5.576c11.451-9.035,20.721-23.049,22.811-37.605c0.011-0.07,0.001-0.132,0.009-0.2
		c1.885-4.402,3.611-8.865,5.256-13.277c4.308-11.546,7.376-23.915,6.747-36.312c-0.062-1.223-0.621-2.214-1.417-2.932
		c0.229-1.88-0.636-3.749-3.026-4.113c-2.747-0.418-4.77-1.586-6.201-3.215c-1.86-3.228-2.328-8.239-2.723-11.353
		c0.133-1.203,0.35-2.4,0.653-3.555c1.074-4.067,3.42-7.185,7.837-7.359c4.358-0.172,9.071,2.955,10.604,7
		c0.393,1.031,1.049,1.749,1.823,2.217c0.089,0.833,0.437,1.771,1.115,2.843c0.209,0.333,0.476,0.56,0.769,0.702
		c0.21,0.888,0.514,1.751,0.851,2.542c0.716,1.675,3.525,0.82,3.401-0.921c-0.08-1.119,0.523-1.425,1.156-1.921
		c0.117,0.732,0.224,1.466,0.328,2.203c0.333,2.322,3.848,1.331,3.519-0.97c-0.375-2.631-0.789-5.231-1.594-7.762
		c0.27-0.164,0.538-0.35,0.803-0.539c2.898-0.157,5.745-0.618,8.539-1.311c6.287,0.773,12.426-2.14,18.183-4.448
		c5.957-2.39,11.385-5.742,16.36-9.722c4.006-2.082,7.646-4.847,10.96-8.052c2.844-2.749,5.168-6.096,7.135-9.507
		c1.91-3.311,3.039-7.29,5.943-9.902c0.204-0.184,0.366-0.377,0.521-0.571c0.175,1.43,0.646,2.781,1.334,4.054
		c0.725,2.164,1.57,4.116,2.335,5.572c2.556,4.859,8.013,8.458,12.453,11.402c5.123,3.398,11.676,5.814,17.413,2.593
		c1.777-0.999,2.115-2.792,1.522-4.29c0.813-0.915,1.223-2.165,0.764-3.329c-0.012-0.026-0.026-0.056-0.038-0.083
		c0.238-0.703,0.318-1.471,0.19-2.197c-0.005-0.017-0.011-0.035-0.013-0.052c0.319,0.67,0.606,1.37,0.844,2.114
		c0.152,0.483,0.261,0.961,0.346,1.438c-0.564,5.801-3.222,11.086-10.067,10.547c-1.566-0.124-1.556,2.31,0,2.433
		c0.121,0.009,0.232,0.007,0.351,0.014c-0.179,0.521-0.248,1.032-0.25,1.608c-0.002,0.354,0.15,0.634,0.369,0.839
		c0.011,0.023,0.014,0.053,0.027,0.074c0.002,0.033,0.008,0.066,0.008,0.1c0.035,0.768,0.64,1.155,1.237,1.169
		c-0.385,0.632-0.715,1.352-0.954,2.221c-1.252,4.544,5.789,6.471,7.037,1.939c0.084-0.304,0.154-0.501,0.217-0.656
		c1.58-0.606,2.765-1.625,3.994-2.753c2.5-2.298,4.355-5.942,5.662-9.001C430.744,191.886,430.496,185.273,427.912,179.626z"/>
	<g>
		<path d="M386.485,156.598c-3.161,6.594-4.314,13.969-7.703,20.614c-3.898,7.642-9.55,14.156-16.111,19.617
			c-13.019,10.839-30.217,15.321-46.59,17.959c-1.547,0.249-0.889,2.593,0.646,2.346c16.388-2.641,32.417-7.24,45.926-17.223
			c6.571-4.858,11.903-11.07,16.235-17.957c2.208-3.511,3.91-7.311,5.479-11.14c1.715-4.186,2.277-8.939,4.218-12.989
			C389.26,156.418,387.162,155.184,386.485,156.598L386.485,156.598z"/>
	</g>
	<g>
		<path d="M381.953,171.979c2.35,11.186,15.618,24.035,26.665,26.463c4.367,0.96,9.16-1.473,10.845-5.662
			c2.422-6.022-0.244-11.13-4.763-15.293c-1.15-1.062-2.876,0.655-1.721,1.72c4.773,4.4,7.86,11.203,1.158,16.114
			c-4.143,3.036-10.224-1.034-13.628-3.33c-6.583-4.44-14.537-12.695-16.211-20.658C383.976,169.798,381.631,170.45,381.953,171.979
			L381.953,171.979z"/>
	</g>
	<g>
		<path d="M388.417,159.348c16.129-3.061,31.713,6.426,37.718,21.45c5.078,12.695,1.014,26.466-12.619,30.892
			c-1.486,0.481-0.85,2.832,0.646,2.346c14.66-4.758,19.181-18.63,14.773-32.618c-5.418-17.186-23.664-27.736-41.166-24.416
			C386.229,157.294,386.884,159.638,388.417,159.348L388.417,159.348z"/>
	</g>
	<g>
		<path d="M315.107,216.157c0.218,3.998,1.775,8.304-0.035,12.158c0.637-0.082,1.273-0.165,1.909-0.247
			c-1.473-1.559-2.797-6.957-5.948-6.09c-2.988,0.822-1.252,6.287-1.197,8.269c0.755-0.206,1.512-0.409,2.267-0.615
			c-4.891-6.829-7.253-17.928-15.711-21.26c-6.679-2.63-10.699,4.152-11.54,9.594c-0.959,6.215,0.104,13.951,5.016,18.272
			c5.634,4.953,14.199,1.385,16.784-4.756c0.608-1.445-1.749-2.069-2.347-0.646c-1.984,4.712-6.247,5.71-10.721,4.671
			c-3.788-0.88-5.297-5.106-6.021-8.389c-0.853-3.867-0.721-8.102,0.374-11.892c2.548-8.83,11.267-3.292,14.331,1.905
			c2.708,4.591,4.588,9.338,7.734,13.729c0.66,0.92,2.304,0.689,2.267-0.613c-0.048-1.718-0.352-3.417-0.433-5.136
			c0.03,0.65,2.708,3.919,3.425,4.678c0.506,0.535,1.579,0.46,1.911-0.246c2.066-4.397,0.622-8.741,0.367-13.386
			C317.455,214.596,315.021,214.588,315.107,216.157L315.107,216.157z"/>
	</g>
	<g>
		<path d="M295.473,224.336c-0.13-0.276,0.573-0.899,0.759-1.038c0.501-0.375,1.085-0.504,1.699-0.491
			c1.668,0.037,1.321,2.581,0.945,3.531c-0.576,1.46,1.777,2.088,2.346,0.646c1.118-2.828-0.038-6.227-3.291-6.609
			c-2.625-0.309-5.812,2.523-4.558,5.19C294.039,226.983,296.136,225.747,295.473,224.336L295.473,224.336z"/>
	</g>
	<g>
		<path d="M210.135,321.598c3.361,17.572,26.158,18.238,39.637,14.957c12.871-3.133,21.859-12.803,28.562-23.742
			c7.757-12.66,12.439-27.256,15.826-41.625c2.598-11.021,4.663-22.676,4.409-34.044c-0.034-1.566-2.467-1.57-2.433,0
			c0.484,21.718-5.819,45.208-14.805,64.796c-4.978,10.852-11.855,21.602-22.094,28.133c-6.432,4.104-14.584,5.553-22.071,5.871
			c-9.733,0.414-22.614-4.172-24.685-14.992C212.186,319.412,209.841,320.064,210.135,321.598L210.135,321.598z"/>
	</g>
	<g>
		<path d="M201.369,291.03c-3.158,1.416-2.65,9.304-2.184,12.204c0.989,6.154,4.137,11.195,8.599,15.463
			c8.75,8.363,22.767,12.352,34.461,9.021c1.506-0.428,0.864-2.775-0.646-2.346c-10.037,2.857-20.674-0.186-29.087-5.959
			c-4.601-3.154-8.208-7.697-10.101-12.938c-0.888-2.461-1.046-5.082-0.952-7.67c0.012-0.367,0.504-5.39,1.139-5.676
			C204.024,292.49,202.787,290.395,201.369,291.03L201.369,291.03z"/>
	</g>
	<g>
		<path d="M200.732,292.843c4.616,5.703,13.742,4.064,19.91,2.378c7.897-2.159,15.43-6.913,20.735-13.124
			c1.013-1.185-0.699-2.914-1.72-1.719c-4.406,5.157-10.036,8.766-16.275,11.335c-5.696,2.346-16.285,5.145-20.93-0.591
			C201.465,289.904,199.755,291.636,200.732,292.843L200.732,292.843z"/>
	</g>
	<g>
		<path d="M277.16,157.966c-25.444,41.191-37.67,88.439-54.252,133.487c-0.544,1.476,1.808,2.106,2.345,0.647
			c16.512-44.855,28.676-91.894,54.008-132.906C280.088,157.856,277.982,156.635,277.16,157.966L277.16,157.966z"/>
	</g>
	<g>
		<path d="M276.903,162.92c5.322-8.944,14.265-13.282,23.434-17.344c9.749-4.319,19.304-7.919,29.859-9.706
			c23.708-4.012,49.201,3.17,64.502,22.42c0.976,1.228,2.685-0.505,1.72-1.72c-15.531-19.542-40.576-26.399-64.598-23.377
			c-11.586,1.458-22.131,5.591-32.71,10.281c-9.603,4.258-18.762,8.896-24.306,18.216
			C273.999,163.043,276.103,164.266,276.903,162.92L276.903,162.92z"/>
	</g>
	<g>
		<path d="M382.707,274.111c-4.588,11.396-6.76,24.171-8.078,36.375c-0.793,7.35,1.826,19.559,11.683,13.914
			c1.36-0.779,0.135-2.879-1.228-2.1c-11.796,6.754-7.174-17.828-6.527-21.557c1.538-8.858,3.124-17.609,6.496-25.987
			C385.638,273.3,383.285,272.674,382.707,274.111L382.707,274.111z"/>
	</g>
	<g>
		<path d="M353.823,322.473c-1.72,8.42,4.219,16.314,13.06,16.705c9.915,0.438,16.026-6.857,19.861-15.213
			c0.65-1.416-1.447-2.652-2.1-1.229c-2.568,5.594-5.935,10.865-11.845,13.316c-8.545,3.547-18.52-3.682-16.631-12.934
			C356.482,321.59,354.138,320.936,353.823,322.473L353.823,322.473z"/>
	</g>
	<g>
		<path d="M342.876,331.938c2.583,10.33,17.209,10.08,21.228,0.9c0.624-1.422-1.471-2.664-2.1-1.229
			c-3.138,7.166-14.671,8.129-16.784-0.318C344.84,329.771,342.494,330.416,342.876,331.938L342.876,331.938z"/>
	</g>
	<g>
		<path d="M408.15,197.642c8.354,30.3-4.077,60.893-29.583,78.69c-26.172,18.263-60.316,17.623-86.673,0.267
			c-1.315-0.867-2.532,1.241-1.229,2.1c27.818,18.319,62.945,18.006,90.299-1.082c25.913-18.083,37.938-50.136,29.53-80.621
			C410.079,195.485,407.732,196.127,408.15,197.642L408.15,197.642z"/>
	</g>
	<g>
		<path d="M333.829,291.621c5.305,25.094,10.697,50.172,15.442,75.379c0.289,1.541,2.634,0.887,2.346-0.646
			c-4.745-25.207-10.138-50.283-15.442-75.379C335.851,289.439,333.505,290.091,333.829,291.621L333.829,291.621z"/>
	</g>
	<g>
		<path d="M304.907,285.542c0.609,6.431,3.069,15.704,10.093,18.002c8.96,2.932,12.693-5.045,11.91-12.814
			c-0.156-1.546-2.591-1.561-2.433,0c0.342,3.398,0.392,7.083-2.126,9.732c-2.145,2.252-5.913,1.303-8.17-0.045
			c-4.741-2.833-6.361-9.83-6.84-14.875C307.194,283.995,304.759,283.98,304.907,285.542L304.907,285.542z"/>
	</g>
	<g>
		<path d="M313.044,306.836c1.99,3.42,7.488,3.789,8.912-0.291c0.52-1.484-1.832-2.117-2.345-0.645
			c-0.731,2.09-3.605,1.189-4.467-0.293C314.356,304.252,312.253,305.479,313.044,306.836L313.044,306.836z"/>
	</g>
	<g>
		<path d="M241.66,337.711c-3.221,18.863-3.994,38.238-5.141,57.309c-1.268,21.092-2.175,42.197-3.434,63.287
			c-0.094,1.566,2.339,1.559,2.433,0c1.226-20.527,2.129-41.07,3.334-61.596c1.14-19.408,1.876-39.16,5.154-58.354
			C244.269,336.824,241.924,336.168,241.66,337.711L241.66,337.711z"/>
	</g>
	<g>
		<path d="M337.98,366.076c-5.16,9.209-5.326,22.082-5.484,32.377c-0.174,11.258,1.587,22.547,5.27,33.184
			c0.873,2.525,4.486,10.674,8.368,6.559c4.666-4.949,3.182-16.006,2.918-22.252c-0.065-1.562-2.498-1.568-2.433,0
			c0.246,5.777,0.386,12.123-0.672,17.828c-2.329,2.184-3.842,2.273-4.54,0.27c-0.722-1.271-1.185-2.727-1.663-4.105
			c-1.14-3.291-2.005-6.666-2.77-10.062c-1.894-8.441-2.23-17.188-1.938-25.801c0.29-8.561,0.769-19.137,5.042-26.77
			C340.85,365.934,338.747,364.707,337.98,366.076L337.98,366.076z"/>
	</g>
	<g>
		<path d="M339.747,367.67c0.069-0.277,0.154-0.562,0.235-0.721c0.161-0.303-0.141,0.123,0.059-0.092
			c-0.137,0.092-0.152,0.105-0.045,0.039c-0.102,0.062-0.213,0.094-0.334,0.09c0.197-0.02-0.193-0.061-0.249-0.084
			c0.059,0.025,0.273,0.184,0.042,0.004c0.078,0.061,0.146,0.133,0.213,0.205c0.087,0.105,0.09,0.107,0.015,0.006
			c0.044,0.066,0.087,0.131,0.128,0.195c0.532,0.809,0.793,1.988,0.631,2.752c-0.326,1.531,2.02,2.182,2.345,0.646
			c0.393-1.834-0.173-3.906-1.399-5.32c-0.542-0.625-1.447-1.023-2.261-0.75c-1.031,0.348-1.485,1.406-1.725,2.383
			C337.027,368.547,339.373,369.191,339.747,367.67L339.747,367.67z"/>
	</g>
	<g>
		<path d="M336.807,375.645c22.151-13.371,46.79-21.873,68.929-35.275c1.34-0.811,0.119-2.914-1.227-2.102
			c-22.14,13.4-46.78,21.904-68.931,35.277C334.238,374.355,335.46,376.461,336.807,375.645L336.807,375.645z"/>
	</g>
	<g>
		<path d="M337.82,423.287c4.626-2.336,8.798-5.971,12.891-9.082c6.55-4.982,12.894-10.229,19.115-15.615
			c12.813-11.094,24.848-23.084,36.157-35.705c1.043-1.164-0.672-2.891-1.721-1.719c-10.826,12.078-22.335,23.484-34.48,34.236
			c-6.561,5.809-13.354,11.354-20.299,16.699c-4.065,3.131-8.275,6.752-12.892,9.086
			C335.191,421.895,336.423,423.992,337.82,423.287L337.82,423.287z"/>
	</g>
	<g>
		<path d="M404.009,362.58c4.962,4.709,13.726,4.549,17.774-1.26c0.9-1.291-1.21-2.504-2.101-1.227
			c-3.145,4.512-10.198,4.33-13.955,0.768C404.592,359.781,402.869,361.5,404.009,362.58L404.009,362.58z"/>
	</g>
	<g>
		<path d="M405.446,340.49c10.787-2.941,21.917-5.025,32.742-8.107c1.506-0.428,0.865-2.775-0.646-2.346
			c-10.832,3.086-21.941,5.162-32.741,8.107C403.287,338.559,403.93,340.906,405.446,340.49L405.446,340.49z"/>
	</g>
	<g>
		<path d="M438.705,332.133c1.158-0.867,2.305-1.725,3.547-2.469c0.721-0.432,1.516-0.777,2.354-0.887
			c2.939-0.383,1.021,3.695,0.119,4.703c-2.508,2.803-8.529,2.502-11.928,2.543c-1.568,0.021-1.57,2.455,0,2.434
			c5.748-0.074,14.166-0.168,15.836-7.121c0.518-2.146-1.156-4.902-3.477-4.975c-2.965-0.09-5.436,1.99-7.678,3.67
			C436.24,330.961,437.451,333.076,438.705,332.133L438.705,332.133z"/>
	</g>
	<g>
		<path d="M349.237,359.398c9.877-3.635,19.141-9.277,28.756-13.592c11.065-4.965,22.659-8.301,34.041-12.41
			c1.464-0.529,0.833-2.881-0.645-2.344c-10.126,3.652-20.488,6.596-30.401,10.828c-10.91,4.654-21.292,11.086-32.396,15.172
			C347.131,357.588,347.761,359.939,349.237,359.398L349.237,359.398z"/>
	</g>
	<g>
		<path d="M411.122,333.549c5.846-0.814,11.207-2.643,16.429-5.359c1.633-0.852,3.176-1.852,4.818-2.688
			c3.102-1.576,3.727,1.061,1.924,3.219c-0.857,1.029-1.916,1.881-3.125,2.453c-1.42,0.666-0.184,2.766,1.229,2.1
			c3.121-1.469,10.229-9.322,3.723-11.088c-2.449-0.666-5.736,1.557-7.693,2.701c-5.619,3.287-11.505,5.418-17.951,6.316
			C408.927,331.418,409.588,333.762,411.122,333.549L411.122,333.549z"/>
	</g>
	<g>
		<path d="M442.549,338.1c2.867,2.982,7.279,3.918,11.035,5.281c0.795,0.293,6.768,2.906,5.643,4.281
			c-1.471,1.805-6.361-0.156-7.887-0.877c-1.41-0.668-2.645,1.43-1.229,2.098c2.832,1.344,5.939,2.166,9.061,1.459
			c1.941-0.438,3.018-2.199,2.291-4.059c-2.518-6.443-12.873-5.416-17.195-9.904C443.18,335.25,441.459,336.973,442.549,338.1
			L442.549,338.1z"/>
	</g>
	<g>
		<path d="M440.676,337.385c5.959,7.928,12.375,15.465,20.146,21.697c1.211,0.973,2.943-0.734,1.719-1.719
			c-7.602-6.102-13.932-13.447-19.766-21.207C441.846,334.92,439.732,336.129,440.676,337.385L440.676,337.385z"/>
	</g>
	<g>
		<path d="M459.955,358.311c2.664,1.848-0.881,2.734-1.584,2.791c-0.695,0.053-1.359-0.174-2.004-0.381
			c-1.438-0.461-2.779-1.5-3.945-2.42c-1.754-1.385-3.248-3.08-5.061-4.385c-1.277-0.92-2.488,1.191-1.229,2.1
			c3.697,2.662,6.496,6.781,11.336,7.455c4.637,0.643,8.178-4.166,3.717-7.26C459.891,355.316,458.678,357.426,459.955,358.311
			L459.955,358.311z"/>
	</g>
	<g>
		<path d="M429.291,346.436c0.375,1.311,2.311,1.297,3.4,1.541c2.795,0.629,5.658,0.953,8.518,1.074
			c1.568,0.066,1.562-2.367,0-2.432c-3.293-0.141-7.297-0.297-10.393-1.578c0.283,0.281,0.566,0.564,0.85,0.848
			c-0.008-0.035-0.02-0.066-0.029-0.1C431.207,344.283,428.857,344.924,429.291,346.436L429.291,346.436z"/>
	</g>
	<g>
		<path d="M440.539,348.754c1.412,3.088,4.113,5.926,6.555,8.254c0.943,0.895,4.893,4.078,2.891,5.533
			c-1.18,0.859-3.432-0.072-4.48-0.73c-1.334-0.836-2.553,1.271-1.229,2.1c2.98,1.871,8.729,2.107,8.688-2.658
			c-0.021-2.373-2.609-4.504-4.148-5.967c-2.299-2.186-4.854-4.871-6.174-7.76C441.986,346.1,439.891,347.338,440.539,348.754
			L440.539,348.754z"/>
	</g>
	<g>
		<path d="M425.574,350.787c2.828,0.428,5.559,1.26,8.322,1.973c1.52,0.391,2.164-1.957,0.645-2.346
			c-2.762-0.713-5.492-1.547-8.322-1.971C424.688,348.213,424.025,350.555,425.574,350.787L425.574,350.787z"/>
	</g>
	<g>
		<path d="M433.428,352.201c1.82,3.223,5.387,5.641,7.852,8.363c0.211,0.232,2.312,2.447,2.23,2.479
			c-0.996,0.357-2.367,0.148-3.387,0.002c-2.969-0.424-5.953-2.164-7.951-4.332c-1.066-1.154-2.783,0.57-1.721,1.719
			c2.404,2.611,5.945,4.52,9.48,5.023c2.082,0.299,5.176,0.568,6.117-1.779c0.826-2.055-3.02-4.84-4.23-6.08
			c-2.002-2.049-4.869-4.109-6.291-6.623C434.758,349.605,432.654,350.832,433.428,352.201L433.428,352.201z"/>
	</g>
	<g>
		<path d="M422.588,355.592c2.09,0.816,4.322,0.914,6.533,1.135c1.561,0.158,1.545-2.275,0-2.432
			c-2.006-0.203-3.988-0.307-5.887-1.049C421.77,352.676,421.143,355.027,422.588,355.592L422.588,355.592z"/>
	</g>
	<g>
		<path d="M427.67,355.66c0.744,2.182,2.082,3.961,3.557,5.705c0.354,0.42,2.438,1.918,1.285,2.348
			c-0.709,0.264-1.602,0.035-2.303-0.123c-2.76-0.615-6.268-2.246-8.312-4.266c-1.116-1.105-2.839,0.615-1.72,1.719
			c2.772,2.738,7.643,5,11.518,5.197c1.732,0.09,3.75-1.008,3.75-2.947c0-1.182-0.898-2.102-1.682-2.861
			c-1.58-1.533-3.027-3.307-3.75-5.418C429.51,353.537,427.16,354.17,427.67,355.66L427.67,355.66z"/>
	</g>
	<g>
		<path d="M297.673,303.332c1.144,26.998,20.827,48.764,41.852,63.635c1.285,0.91,2.498-1.201,1.229-2.102
			c-20.282-14.344-39.545-35.463-40.648-61.533C300.04,301.771,297.606,301.764,297.673,303.332L297.673,303.332z"/>
	</g>
	<g>
		<path d="M272.533,343.324c-0.008,42.174,28.369,85.42,70.331,95.789c1.522,0.379,2.169-1.969,0.646-2.344
			c-40.925-10.115-68.55-52.322-68.543-93.445C274.966,341.754,272.533,341.754,272.533,343.324L272.533,343.324z"/>
	</g>
	<g>
		<path d="M357.277,407.137c0.038,15.207,1.165,30.336,2.037,45.51c0.09,1.559,2.522,1.568,2.433,0
			c-0.872-15.174-2-30.303-2.037-45.51C359.706,405.564,357.273,405.564,357.277,407.137L357.277,407.137z"/>
	</g>
	<g>
		<path d="M374.435,392.893c0,19.309,0,38.619,0,57.932c0,1.568,2.434,1.568,2.434,0c0-19.312,0-38.623,0-57.932
			C376.868,391.322,374.435,391.322,374.435,392.893L374.435,392.893z"/>
	</g>
	<g>
		<path d="M386.167,385.137c89.609,0,179.218,0,268.826,0c1.568,0,1.568-2.434,0-2.434c-89.607,0-179.217,0-268.826,0
			C384.598,382.703,384.598,385.137,386.167,385.137L386.167,385.137z"/>
	</g>
	<g>
		<path d="M520.361,384.533c7.885-10.488,20.137-18.068,33.447-18.42c12.654-0.332,24.16,7.078,29.957,18.084
			c0.729,1.391,2.83,0.16,2.102-1.227c-6.402-12.16-18.434-18.99-32.059-19.289c-14.002-0.307-27.436,8.838-35.545,19.623
			C517.318,384.561,519.432,385.771,520.361,384.533L520.361,384.533z"/>
	</g>
	<g>
		<path d="M547.535,349.537c-1.578,5.447-3.225,10.877-4.477,16.412c-0.348,1.527,1.998,2.176,2.344,0.646
			c1.254-5.535,2.9-10.961,4.479-16.412C550.32,348.676,547.973,348.033,547.535,349.537L547.535,349.537z"/>
	</g>
	<g>
		<path d="M549.455,350.324c2.375-3.4,5.412-6.264,8.477-9.029c1.166-1.055-0.561-2.77-1.719-1.721
			c-3.229,2.914-6.357,5.943-8.859,9.521C546.453,350.385,548.562,351.6,549.455,350.324L549.455,350.324z"/>
	</g>
	<g>
		<path d="M556.158,340.586c-0.018,8.148-0.266,16.291-0.582,24.432c-0.062,1.568,2.373,1.564,2.434,0
			c0.316-8.141,0.564-16.283,0.58-24.432C558.596,339.018,556.162,339.018,556.158,340.586L556.158,340.586z"/>
	</g>
	<g>
		<path d="M531.307,319.182c4.975,10.574,10.451,20.889,15.928,31.209c0.734,1.387,2.834,0.158,2.1-1.229
			c-5.477-10.32-10.951-20.635-15.928-31.209C532.738,316.535,530.641,317.77,531.307,319.182L531.307,319.182z"/>
	</g>
	<g>
		<path d="M534.916,303.959c6.535,12.811,13.793,25.217,20.818,37.758c0.766,1.369,2.867,0.143,2.1-1.229
			c-7.023-12.543-14.281-24.947-20.818-37.758C536.303,301.332,534.205,302.562,534.916,303.959L534.916,303.959z"/>
	</g>
	<g>
		<path d="M538.883,281.891c-3.287,13.5-5.682,27.208-8.754,40.755c-0.348,1.527,1.996,2.176,2.344,0.646
			c3.074-13.549,5.467-27.256,8.752-40.755C541.598,281.013,539.252,280.367,538.883,281.891L538.883,281.891z"/>
	</g>
	<g>
		<path d="M532.355,282.866c2.574,0.092,5.135,0.33,7.699,0.564c1.562,0.144,1.549-2.291,0-2.433
			c-2.564-0.234-5.125-0.472-7.699-0.564C530.787,280.377,530.791,282.81,532.355,282.866L532.355,282.866z"/>
	</g>
	<g>
		<path d="M523.168,323.984c2.672,0.227,5.346,0.463,8.016,0.686c1.564,0.133,1.551-2.301,0-2.432
			c-2.67-0.225-5.344-0.459-8.016-0.686C521.605,321.42,521.617,323.855,523.168,323.984L523.168,323.984z"/>
	</g>
	<g>
		<path d="M546.174,198.757c-7.266,49.034-18.746,97.487-28.799,145.991c-0.318,1.533,2.025,2.184,2.346,0.646
			c10.051-48.504,21.531-96.958,28.797-145.992C548.746,197.87,546.402,197.209,546.174,198.757L546.174,198.757z"/>
	</g>
	<g>
		<path d="M535.066,197.01c-7.266,49.033-18.746,97.487-28.797,145.992c-0.318,1.531,2.027,2.182,2.344,0.646
			c10.053-48.505,21.531-96.959,28.799-145.993C537.643,196.122,535.299,195.461,535.066,197.01L535.066,197.01z"/>
	</g>
	<g>
		<path d="M557.406,363.75c18.387-4.047,47.932-4.27,51.176,20.17c0.205,1.531,2.641,1.551,2.434,0
			c-3.479-26.205-33.994-26.975-54.258-22.516C555.227,361.74,555.877,364.086,557.406,363.75L557.406,363.75z"/>
	</g>
	<g>
		<path d="M500.408,379.041c10.336,3.252,20.932-0.863,30.416-4.965c1.436-0.623,0.195-2.721-1.229-2.102
			c-8.863,3.832-18.873,7.762-28.541,4.721C499.553,376.223,498.918,378.572,500.408,379.041L500.408,379.041z"/>
	</g>
	<g>
		<path d="M536.189,198.924c3.35-0.034,6.602,0.829,9.936,1.014c1.566,0.087,1.559-2.346,0-2.433
			c-3.334-0.185-6.584-1.048-9.936-1.014C534.621,196.508,534.619,198.94,536.189,198.924L536.189,198.924z"/>
	</g>
	<g>
		<path d="M507.062,345.299c3.793,0.381,7.461,1.172,11.205,1.834c1.533,0.273,2.191-2.07,0.646-2.344
			c-3.963-0.703-7.84-1.521-11.852-1.924C505.502,342.709,505.52,345.143,507.062,345.299L507.062,345.299z"/>
	</g>
	<g>
		<path d="M503.807,365.422c-4.457,4.48-4.998,12.535-5.033,18.498c-0.008,1.57,2.424,1.568,2.436,0
			c0.029-5.23,0.381-12.822,4.316-16.777C506.633,366.029,504.912,364.311,503.807,365.422L503.807,365.422z"/>
	</g>
	<g>
		<path d="M397.687,371.354c18.239-0.104,36.635-2.203,54.807-3.6c18.914-1.453,38.191-2.234,56.953-5.164
			c1.549-0.242,0.887-2.584-0.646-2.344c-18.543,2.893-37.613,3.631-56.307,5.074c-18.17,1.402-36.569,3.496-54.807,3.6
			C396.118,368.926,396.117,371.359,397.687,371.354L397.687,371.354z"/>
	</g>
	<g>
		<path d="M394.038,375.713c18.158-0.096,36.458-2.07,54.554-3.391c18.824-1.375,38.035-2.047,56.705-4.957
			c1.545-0.238,0.887-2.586-0.646-2.344c-18.451,2.877-37.455,3.504-56.059,4.867c-18.096,1.324-36.396,3.295-54.554,3.391
			C392.469,373.285,392.468,375.719,394.038,375.713L394.038,375.713z"/>
	</g>
	<g>
		<path d="M508.672,362.682c0.188,0.234,0.148,0.246,0.068,0.348c-0.348,0.443-0.869,0.713-1.357,0.969
			c-0.955,0.5-2.008,0.814-3.041,1.113c-1.506,0.43-0.863,2.777,0.646,2.344c2.678-0.766,8.354-2.869,5.402-6.492
			C509.398,359.744,507.689,361.477,508.672,362.682L508.672,362.682z"/>
	</g>
	<g>
		<path d="M180.992,353.746c-0.984,15.031,1.099,30.52,6.683,44.559c1.828,4.596,10.915,16.299,13.277,5.795
			c3.08-13.682-0.353-30.055-2.786-43.646c-1.002-5.602-6.743-27.578-15.271-16.545c-0.945,1.225,0.763,2.959,1.72,1.719
			c6.841-8.85,11.815,18.9,12.428,23.098c1.542,10.584,2.334,20.916,1.841,31.605c-0.063,1.42-0.205,2.811-0.519,4.201
			c-1.027,4.564-6.675-3.551-7.061-4.205c-2.057-3.51-3.114-7.666-4.229-11.549c-3.267-11.393-4.424-23.217-3.651-35.031
			C183.528,352.182,181.093,352.191,180.992,353.746L180.992,353.746z"/>
	</g>
	<g>
		<path d="M186.074,344.221c10.345-4.408,20.746-8.684,31.091-13.094c1.438-0.613,0.198-2.707-1.228-2.1
			c-10.346,4.41-20.746,8.686-31.092,13.092C183.406,342.734,184.647,344.828,186.074,344.221L186.074,344.221z"/>
	</g>
	<g>
		<path d="M189.688,402.309c2.346,5.979,9.968,8.102,15.776,7.895c10.917-0.395,22.051-6.119,32.327-9.434
			c1.487-0.48,0.852-2.83-0.646-2.346c-6.603,2.125-13.118,4.436-19.684,6.672c-6.922,2.357-21.707,6.053-25.428-3.434
			C191.467,400.221,189.113,400.848,189.688,402.309L189.688,402.309z"/>
	</g>
	<g>
		<path d="M182.582,344.443c-1.533,4.064-1.701,8.424-1.868,12.717c-0.06,1.568,2.374,1.562,2.434,0
			c0.157-4.092,0.319-8.197,1.781-12.07C185.484,343.619,183.132,342.992,182.582,344.443L182.582,344.443z"/>
	</g>
	<g>
		<path d="M208.672,408.867c2.763,17.646,5.887,35.025,10.415,52.316c0.397,1.518,2.744,0.875,2.345-0.646
			c-4.528-17.291-7.65-34.672-10.415-52.318C210.774,406.674,208.432,407.332,208.672,408.867L208.672,408.867z"/>
	</g>
	<g>
		<path d="M215.45,406.965c2.81,17.949,6.036,35.607,10.67,53.184c0.399,1.516,2.745,0.875,2.347-0.645
			c-4.634-17.58-7.861-35.234-10.669-53.186C217.555,404.771,215.21,405.43,215.45,406.965L215.45,406.965z"/>
	</g>
	<g>
		<path d="M335.732,245.628c10.553,14.732,29.384,23.999,47.413,17.45c1.462-0.532,0.831-2.883-0.646-2.347
			c-16.972,6.166-34.711-2.431-44.666-16.331C336.927,243.138,334.815,244.35,335.732,245.628L335.732,245.628z"/>
	</g>
	<g>
		<path d="M339.778,240.802c-4.35,0.185-6.158,4.814-6.392,8.571c-0.099,1.567,2.336,1.559,2.433,0
			c0.143-2.306,1.127-6.018,3.959-6.139C341.341,243.168,341.349,240.735,339.778,240.802L339.778,240.802z"/>
	</g>
	<g>
		<path d="M381.033,245.863c0.868-1.727,2.297-3.089,4.305-3.27c2.398-0.215,3.689,2.977,3.745,4.85
			c0.108,3.603-3.35,6.395-6.584,6.972c-1.543,0.275-0.888,2.619,0.646,2.346c5.275-0.94,9.312-6.065,8.1-11.445
			c-1.534-6.803-9.592-6.105-12.312-0.682C378.233,246.034,380.331,247.266,381.033,245.863L381.033,245.863z"/>
	</g>
	<g>
		<path d="M345.721,235.214c10.339,0.033,20.679,0.067,31.019,0.101c0-0.811,0-1.622,0-2.433c-0.304,0-0.608,0-0.912,0
			c-1.569,0-1.569,2.433,0,2.433c0.304,0,0.608,0,0.912,0c1.569,0,1.569-2.427,0-2.433c-10.339-0.034-20.679-0.067-31.019-0.102
			C344.151,232.776,344.151,235.209,345.721,235.214L345.721,235.214z"/>
	</g>
	<g>
		<path d="M383.329,235.265c7.231,0.034,14.463,0.067,21.694,0.101c0-0.81,0-1.622,0-2.433c-0.213,0-0.426,0-0.638,0
			c-1.57,0-1.57,2.433,0,2.433c0.211,0,0.424,0,0.638,0c1.569,0,1.568-2.425,0-2.433c-7.231-0.034-14.462-0.068-21.694-0.101
			C381.76,232.825,381.761,235.257,383.329,235.265L383.329,235.265z"/>
	</g>
	<g>
		<path d="M348.718,233.601c1.368-8.042,6.047-15.757,13.324-19.704c13.302-7.218,15.584,11.213,13.684,19.411
			c-0.355,1.527,1.992,2.174,2.344,0.646c2.15-9.268,1.089-22.617-10.733-23.708c-11.197-1.032-19.406,13.549-20.965,22.709
			C346.111,234.488,348.455,235.145,348.718,233.601L348.718,233.601z"/>
	</g>
	<g>
		<path d="M363.06,208.185c4.029-2.456,11.504-2.029,14.948,1.331c1.122,1.095,2.845-0.624,1.72-1.721
			c-4.233-4.13-12.918-4.743-17.896-1.71C360.495,206.899,361.717,209.004,363.06,208.185L363.06,208.185z"/>
	</g>
	<g>
		<path d="M394.891,208.489c3.208-1.549,7.021-1.502,9.473,1.331c1.029,1.188,2.742-0.541,1.72-1.72
			c-3.191-3.685-8.275-3.713-12.422-1.71C392.25,207.071,393.484,209.168,394.891,208.489L394.891,208.489z"/>
	</g>
	<g>
		<path d="M385.253,233.592c0.194-7.415,4.514-14.543,10.971-18.223c4.641-2.646,8.255,0.218,9.958,4.613
			c1.771,4.57-0.335,9.426-2.211,13.553c-0.643,1.417,1.453,2.654,2.101,1.229c2.323-5.11,3.943-9.843,2.456-15.428
			c-1.067-4.007-3.921-6.882-8.018-7.411c-4.572-0.589-8.9,3.421-11.666,6.467c-3.772,4.152-5.877,9.632-6.023,15.2
			C382.779,235.162,385.212,235.157,385.253,233.592L385.253,233.592z"/>
	</g>
	<g>
		<path d="M377.485,219.319c-1.82-3.471-6.132-1.648-8.582,0.096c-4.31,3.071-5.586,8.688-5.551,13.674
			c0.013,1.568,2.445,1.569,2.434,0c-0.023-3.257,0.487-6.324,2.183-9.146c0.836-1.393,5.915-6.254,7.416-3.396
			C376.113,221.937,378.214,220.707,377.485,219.319L377.485,219.319z"/>
	</g>
	<g>
		<path d="M409.026,224.773c-0.186-3.922-3.548-7.378-7.602-5.239c-4.883,2.577-5.895,9.637-6.127,14.576
			c-0.074,1.569,2.359,1.562,2.433,0c0.166-3.534,0.803-7.231,2.627-10.31c1.896-3.197,6.038-3.227,6.235,0.973
			C406.665,226.335,409.098,226.342,409.026,224.773L409.026,224.773z"/>
	</g>
	<path d="M406.875,223.556c0.127-1.311-0.631-2.642-2.31-2.483c-2.755,0.262-4.783,1.514-5.844,4.117
		c-0.674,1.654-0.687,3.78-1.578,5.147c-0.96,1.472,0.28,3.814,2.1,3.66c2.358-0.199,5.184-0.413,6.509-2.726
		c1.118-1.944,0.946-4.077,1.311-6.206C407.16,224.496,407.077,223.988,406.875,223.556z"/>
	<path d="M375.066,218.792c-6.135-0.499-10.771,6.949-10.34,12.468c0.083,1.046,0.678,2.1,1.786,2.346
		c1.891,0.417,4.332,0.622,6.119-0.395c1.112,0.893,2.902,0.958,3.625-0.572c1.294-2.747,1.456-6.609,0.51-9.551
		C378.001,221.842,377.428,218.984,375.066,218.792z"/>
	<path d="M377.955,324.764c0.806-0.381-0.373-3.51-0.889-5.361c-0.005-0.59-0.016-1.182-0.023-1.775
		c-0.075-5.553,0.416-10.686-1.163-15.83c0.008-0.084,0.017-0.168,0.025-0.252c0.222-1.33,0.448-2.657,0.698-3.979
		c0.625-2.375,1.505-4.681,1.783-7.141c0.002-0.002,0.002-0.005,0.002-0.007l0,0c0.005-0.055,0.017-0.107,0.023-0.162
		c0.02-0.195-0.048-0.337-0.156-0.435c1.178-3.155,2.65-6.188,4.371-8.976c2.198-3.559-1.468-6.3-4.367-3.362
		c-4.99,5.054-10.838,6.353-17.504,8.729c-6.585,2.348-14.734,4.688-21.725,4.195c-3.24-0.228-4.23,3.171-3.002,5.414
		c-0.02,0.168-0.042,0.334-0.04,0.517c0.112,5.077,2.013,9.827,3.554,14.659c0.528,2.059,1.064,4.115,1.599,6.17
		c0.517,2.66,1.007,5.451,1.77,8.135c0.136,0.689,0.292,1.371,0.477,2.041c-0.243,0.924-0.319,1.668-0.252,2.75
		c0.089,1.436,0.796,2.471,1.75,3.045c0.305,0.373,0.67,0.658,1.082,0.848c0.998,1.807,2.378,3.361,4.449,4.43
		c1.544,0.795,3.246,0.295,4.376-0.744c1.25-0.039,2.447-0.477,3.455-1.484c0.252-0.252,0.461-0.512,0.646-0.779
		c1.651,0.889,3.574,1.539,5.854,1.912c7.517,1.23,14.269-3.176,18.335-9.186C385.406,324.705,380.675,323.48,377.955,324.764z"/>
	<path d="M389.186,153.249c-0.152-0.736-0.484-1.383-0.91-1.972c0.066-0.193,0.037-0.411-0.16-0.578
		c-0.849-0.717-1.665-1.472-2.572-2.118c-0.004-0.004-0.009-0.007-0.013-0.011l-0.001,0c-0.042-0.03-0.078-0.066-0.121-0.095
		c-0.326-0.225-0.682-0.024-0.838,0.27c-0.023-0.008-0.044-0.02-0.069-0.027c-0.753-0.219-1.074,0.955-0.323,1.173
		c0.895,0.26,1.66,0.774,2.433,1.279c0.661,0.688,1.206,1.461,1.4,2.401C388.171,154.34,389.344,154.015,389.186,153.249z"/>
	<path d="M353.45,136.863c-0.524-0.475-1.116-0.818-1.744-1.087c0.179-0.349,0.008-0.88-0.512-0.915
		c-0.951-0.066-2.936-1.354-3.749-0.428c-0.499-0.026-0.967-0.022-1.269-0.028c-0.691-0.014-0.823,1.017-0.161,1.194
		c0.8,0.216,1.686,0.351,2.57,0.517c0.147,0.194,0.388,0.322,0.642,0.244c0.074-0.023,0.16-0.042,0.242-0.062
		c1.16,0.265,2.267,0.653,3.12,1.426C353.167,138.25,354.031,137.391,353.45,136.863z"/>
</g>
</svg>
