<?xml version="1.0" encoding="utf-8"?>
<!-- Generator: Adobe Illustrator 15.1.0, SVG Export Plug-In . SVG Version: 6.00 Build 0)  -->
<!DOCTYPE svg PUBLIC "-//W3C//DTD SVG 1.1//EN" "http://www.w3.org/Graphics/SVG/1.1/DTD/svg11.dtd">
<svg version="1.1" id="Layer_1" xmlns="http://www.w3.org/2000/svg" xmlns:xlink="http://www.w3.org/1999/xlink" x="0px" y="0px"
	 width="841.89px" height="595.28px" viewBox="0 0 841.89 595.28" enable-background="new 0 0 841.89 595.28" xml:space="preserve">
<g>
	<g>
		<path d="M406.617,157.086c7.401-1.251,15.005-1.462,22.424-0.225c1.449,0.242,2.071-1.974,0.61-2.218
			c-7.852-1.31-15.81-1.1-23.645,0.225C404.547,155.115,405.167,157.331,406.617,157.086L406.617,157.086z"/>
	</g>
	<g>
		<path d="M439.96,157.661c7.018-1.302,14.118-1.164,21.02,0.719c1.433,0.391,2.04-1.828,0.61-2.218
			c-7.299-1.991-14.82-2.096-22.24-0.718C437.892,155.714,438.512,157.93,439.96,157.661L439.96,157.661z"/>
	</g>
	<g>
		<path d="M409.146,154.234c-1.452-6.322,3.155-12.27,8.961-14.189c8.804-2.91,10.379,9.669,9.907,15.357
			c-0.123,1.479,2.178,1.467,2.299,0c0.624-7.508-1.697-18.751-11.445-17.845c-7.896,0.734-13.638,9.888-11.94,17.288
			C407.259,156.291,409.476,155.678,409.146,154.234L409.146,154.234z"/>
	</g>
	<g>
		<path d="M441.379,155.905c-0.56-5.784,1.969-10.964,7.027-13.9c3.976-2.307,8.007-0.424,10.305,3.126
			c2.151,3.324,1.327,8.011,0.993,11.708c-0.134,1.477,2.167,1.464,2.299,0c0.447-4.939,0.819-9.584-1.98-13.909
			c-1.946-3.008-5.378-4.378-8.836-4.184c-8.089,0.454-12.792,10.083-12.106,17.159
			C439.222,157.368,441.522,157.381,441.379,155.905L441.379,155.905z"/>
	</g>
	<g>
		<path d="M448.045,137.688c3.43-2.194,7.537-2.186,10.774,0.396c1.146,0.915,2.785-0.702,1.626-1.626
			c-4.032-3.215-9.191-3.55-13.562-0.754C445.64,136.499,446.791,138.489,448.045,137.688L448.045,137.688z"/>
	</g>
	<g>
		<path d="M415.029,136.071c3-2.542,7.285-2.593,10.063,0.288c1.031,1.069,2.655-0.559,1.626-1.626
			c-3.69-3.827-9.383-3.621-13.315-0.288C412.271,135.405,413.905,137.023,415.029,136.071L415.029,136.071z"/>
	</g>
	<g>
		<path d="M434.972,157.106c-5.591-1.47-9.889,5.667-6.497,10.149c2.865,3.786,8.893,3.217,10.992-0.986
			c0.661-1.323-1.322-2.488-1.984-1.161c-1.265,2.532-4.062,3.04-6.373,1.549c-3.456-2.228-0.686-8.368,3.251-7.333
			C435.796,159.701,436.404,157.483,434.972,157.106L434.972,157.106z"/>
	</g>
	<g>
		<path d="M434.338,172.653c-5.896-0.902-11.411-3.084-17.396-3.605c-1.894-0.165-6.027,0.891-4.644,3.706
			c1.255,2.554,5.1,3.446,7.611,4.065c4.626,1.142,10.191,1.106,14.488-1.059c1.324-0.667,0.16-2.651-1.161-1.985
			c-5.005,2.522-12.085,1.638-17.104-0.657c-2.084-0.954-1.139-1.816,0.811-1.771c1.574,0.037,3.359,0.376,4.869,0.638
			c4.04,0.701,7.847,2.262,11.917,2.885C435.177,175.092,435.8,172.877,434.338,172.653L434.338,172.653z"/>
	</g>
	<g>
		<path d="M434.338,174.871c3.605-0.551,7.012-1.699,10.537-2.587c1.755-0.442,3.558-0.64,5.352-0.858
			c0.93-0.113,4.562-0.071,2.355,1.347c-4.652,2.985-13.013,3.391-17.753,1.002c-1.32-0.666-2.486,1.318-1.161,1.985
			c4.339,2.186,9.399,1.969,14.087,1.147c2.197-0.385,6.697-1.479,7.804-3.729c1.297-2.64-1.191-3.964-3.515-4.153
			c-6.157-0.5-12.335,2.712-18.316,3.627C432.265,172.876,432.889,175.092,434.338,174.871L434.338,174.871z"/>
	</g>
	<g>
		<path d="M416.987,182.617c3.583,4.895,11.353,5.555,16.893,5.794c6.953,0.3,15.598-1.039,20.136-6.862
			c0.899-1.155-0.715-2.795-1.626-1.626c-4.013,5.15-11.106,6.103-17.225,6.207c-4.744,0.08-13.06-0.395-16.192-4.673
			C418.107,180.273,416.109,181.418,416.987,182.617L416.987,182.617z"/>
	</g>
	<g>
		<path d="M422.162,186.307c0.587,4.905,5.931,8.001,10.563,8.436c6.572,0.617,12.344-2.723,15.089-8.724
			c0.611-1.338-1.369-2.508-1.985-1.161c-2.029,4.435-5.686,7.197-10.584,7.698c-3.701,0.377-10.269-1.943-10.783-6.249
			C424.288,184.853,421.986,184.836,422.162,186.307L422.162,186.307z"/>
	</g>
	<g>
		<path d="M431.569,197.892c1.422,0.797,3.155,0.748,4.675,0.265c1.407-0.447,0.806-2.668-0.611-2.218
			c-0.922,0.292-2.02,0.463-2.902-0.032C431.436,195.18,430.276,197.167,431.569,197.892L431.569,197.892z"/>
	</g>
	<g>
		<path d="M402.045,122.019c-7.642,5.842-10.575,18.832-11.587,27.832c-1.326,11.765-0.097,23.244,4.884,34.046
			c4.502,9.762,12.378,17.861,21.888,22.787c11.09,5.745,23.231,5.111,35.088,2.662c1.451-0.3,0.836-2.516-0.611-2.218
			c-11.553,2.386-22.425,2.665-33.316-2.43c-8.921-4.172-15.702-11.939-20.312-20.461c-4.75-8.78-6.126-18.795-5.814-28.649
			c0.302-9.516,2.746-25.318,10.941-31.584C404.367,123.116,403.224,121.118,402.045,122.019L402.045,122.019z"/>
	</g>
	<g>
		<path d="M391.639,150.438c-1.436-2.99-5.137-5.065-7.993-2.343c-2.251,2.145-2.519,5.516-2.322,8.447
			c0.354,5.305,3.954,13.915,10.622,10.56c1.325-0.667,0.161-2.65-1.161-1.985c-4.026,2.026-6.075-3.312-6.81-6.337
			c-0.483-1.987-0.561-4.129-0.189-6.139c0.616-3.323,4.067-4.79,5.868-1.042C390.296,152.936,392.278,151.768,391.639,150.438
			L391.639,150.438z"/>
	</g>
	<g>
		<path d="M417.81,89.219c-16.362,0.495-36.356,13.189-35.344,31.293c0.402,7.213,6.688,10.178,13.144,10.138
			c9.101-0.056,18.18-6.139,24.882-11.731c1.141-0.951-0.497-2.569-1.626-1.626c-7.622,6.36-34.556,20.903-34.144,0.745
			c0.316-15.481,19.244-26.101,33.088-26.521C419.289,91.474,419.293,89.174,417.81,89.219L417.81,89.219z"/>
	</g>
	<g>
		<path d="M416.947,115.807c0.377,8.663,14.103,10.546,20.634,10.749c10.896,0.339,22.415-4.64,27.067-14.911
			c0.607-1.34-1.374-2.51-1.985-1.161c-3.797,8.381-11.899,12.426-20.7,13.561c-5.36,0.691-22.364-0.124-22.716-8.238
			C419.183,114.33,416.882,114.324,416.947,115.807L416.947,115.807z"/>
	</g>
	<g>
		<path d="M454.602,119.4c-0.3,6.715,7.286,8.637,12.721,8.742c7.738,0.15,15.281-4.652,21.004-9.366
			c1.146-0.943-0.49-2.561-1.625-1.625c-3.924,3.231-8.101,5.777-12.902,7.499c-4.368,1.566-17.257,2.812-16.897-5.249
			C456.968,117.917,454.668,117.924,454.602,119.4L454.602,119.4z"/>
	</g>
	<g>
		<path d="M472.417,125.594c-3.621,2.389-3.943,7.539-2.103,11.157c2.146,4.22,8.041,6.176,12.456,5.789
			c1.466-0.128,1.478-2.429,0-2.299c-3.181,0.28-6.322-0.674-8.811-2.687c-2.751-2.225-3.749-7.751-0.382-9.974
			C474.811,126.767,473.659,124.774,472.417,125.594L472.417,125.594z"/>
	</g>
	<g>
		<path d="M405.449,96.261c-0.75-6.275,5.417-13.291,10.545-16.173c7.456-4.19,14.862,0.254,16.372,8.143
			c0.278,1.456,2.494,0.838,2.217-0.611c-1.558-8.142-7.826-12.592-16.015-10.933c-7.632,1.546-16.371,11.607-15.418,19.574
			C403.324,97.715,405.625,97.732,405.449,96.261L405.449,96.261z"/>
	</g>
	<g>
		<path d="M427.425,86.207c6.492-9.562,24.437-11.821,34.928-10.274c12.192,1.799,22.019,12.848,20.85,25.359
			c-0.139,1.477,2.162,1.464,2.3,0c1.299-13.916-9.51-24.974-22.539-27.576c-11.397-2.276-30.572,1.091-37.523,11.33
			C424.604,86.276,426.598,87.425,427.425,86.207L427.425,86.207z"/>
	</g>
	<g>
		<path d="M476.597,94.667c7.879-5.615,19.793-1.137,24.561,6.285c4.82,7.503,3.548,17.956-0.695,25.341
			c-0.74,1.288,1.247,2.446,1.985,1.161c5.298-9.221,5.655-21.177-0.855-29.902c-5.419-7.26-18.531-10.305-26.156-4.871
			C474.239,93.534,475.386,95.53,476.597,94.667L476.597,94.667z"/>
	</g>
	<g>
		<path d="M499.873,120.119c15.271,0.138,18.466,26.779,7.469,34.219c-1.221,0.825-0.072,2.819,1.16,1.985
			c12.968-8.771,9.025-38.344-8.629-38.503C498.391,117.806,498.392,120.105,499.873,120.119L499.873,120.119z"/>
	</g>
	<g>
		<path d="M509.265,154.706c3.838,4.274-0.14,12.072-5.385,12.881c-1.462,0.226-0.839,2.442,0.61,2.218
			c7.098-1.095,11.297-11.271,6.4-16.725C509.898,151.975,508.276,153.606,509.265,154.706L509.265,154.706z"/>
	</g>
	<g>
		<path d="M506.197,168.409c0.406,3.252-0.148,6.374-2.535,8.765c-1.881,1.883-6.432,2.625-8.509,0.75
			c-1.097-0.992-2.729,0.63-1.626,1.625c2.721,2.458,6.98,1.917,10.066,0.476c4.202-1.962,5.421-7.469,4.903-11.616
			C508.316,166.958,506.014,166.94,506.197,168.409L506.197,168.409z"/>
	</g>
	<g>
		<path d="M389.06,121.139c-4.423,1.913-4.788,7.882-5.132,12.058c-0.469,5.699,1.406,11.261,6.857,13.688
			c1.342,0.598,2.514-1.383,1.161-1.985c-4.499-2.003-5.697-5.876-5.764-10.474c-0.051-3.514,0.365-9.713,4.039-11.302
			C391.578,122.536,390.406,120.556,389.06,121.139L389.06,121.139z"/>
	</g>
	<g>
		<path d="M428.02,143.415c-6.782-4.553-9.685,6.749-9.589,11.477c0.03,1.481,2.33,1.483,2.299,0
			c-0.056-2.751,1.444-12.636,6.129-9.491C428.093,146.229,429.243,144.236,428.02,143.415L428.02,143.415z"/>
	</g>
	<g>
		<path d="M459.219,143.442c-7.332-2.719-9.111,6.644-8.57,11.744c0.154,1.458,2.455,1.474,2.299,0
			c-0.372-3.507,0.005-11.624,5.66-9.526C460.001,146.177,460.597,143.954,459.219,143.442L459.219,143.442z"/>
	</g>
	<g>
		<path d="M484.335,140.4c-7.722,1.155-10.293,6.862-10.905,13.866c-0.561,6.432,3.388,9.781,9.036,11.803
			c1.398,0.501,1.996-1.721,0.61-2.217c-4.4-1.575-7.334-3.685-7.388-8.624c-0.067-6.278,2.53-11.603,9.257-12.61
			C486.409,142.398,485.784,140.183,484.335,140.4L484.335,140.4z"/>
	</g>
	<g>
		<path d="M476.503,206.542c-1.989,3.586-3.954,7.462-6.57,10.649c-0.933,1.136,0.684,2.773,1.626,1.625
			c2.751-3.351,4.837-7.341,6.93-11.113C479.208,206.405,477.222,205.246,476.503,206.542L476.503,206.542z"/>
	</g>
	<g>
		<path d="M481.444,143.56c17.804-6.546,11.2,23.593,8.812,31.591c-0.426,1.424,1.793,2.028,2.216,0.611
			c2.879-9.637,8.695-41.896-11.639-34.419C479.454,141.849,480.05,144.072,481.444,143.56L481.444,143.56z"/>
	</g>
	<g>
		<path d="M465.728,196.435c-0.623,1.105-1.248,2.209-1.875,3.312c-0.733,1.292,1.253,2.45,1.985,1.161
			c0.626-1.103,1.253-2.207,1.875-3.312C468.441,196.301,466.455,195.143,465.728,196.435L465.728,196.435z"/>
	</g>
	<g>
		<path d="M479.507,163.648c-0.786,2.765-1.604,5.52-2.489,8.255c-0.459,1.414,1.762,2.015,2.217,0.611
			c0.887-2.734,1.704-5.49,2.489-8.255C482.13,162.83,479.911,162.224,479.507,163.648L479.507,163.648z"/>
	</g>
	<g>
		<path d="M465.602,199.682c-3.951-2.32-8.979,0.884-11.865,3.649c-3.596,3.447-4.322,9.014-3.012,13.597
			c1.349,4.714,5.712,7.995,10.569,7.71c5.673-0.331,10.796-5.523,13.415-10.161c0.729-1.292-1.257-2.451-1.985-1.161
			c-3.787,6.707-13.652,13.589-19.091,4.589c-1.943-3.216-1.496-7.412,0.073-10.641c1.446-2.979,7.175-7.687,10.735-5.597
			C465.723,202.419,466.88,200.432,465.602,199.682L465.602,199.682z"/>
	</g>
	<g>
		<path d="M493.652,175.369c-5.594-3.173-14.297-4.613-20.54-2.445c-1.693,0.588-2.505,2.246-1.432,3.755
			c1.287,1.807,4.475,2.671,6.513,3.167c1.44,0.35,2.051-1.868,0.61-2.217c-1.262-0.307-2.475-0.759-3.659-1.29
			c-2.954-1.326,1.951-1.843,2.94-1.881c4.938-0.19,10.057,0.429,14.406,2.897C493.783,178.087,494.941,176.1,493.652,175.369
			L493.652,175.369z"/>
	</g>
	<g>
		<path d="M484.85,179.469c-3.574-1.167-7.489-2.797-11.325-2.341c-1.732,0.207-4.521,0.693-5.596,2.259
			c-3.348,4.876,8.812,6.881,11.078,7.932c1.337,0.62,2.505-1.362,1.161-1.985c-1.545-0.717-3.18-1.156-4.812-1.628
			c-0.608-0.176-6.87-2.219-5.048-3.333c4.165-2.546,9.842-0.021,13.93,1.313C485.652,182.147,486.253,179.927,484.85,179.469
			L484.85,179.469z"/>
	</g>
	<g>
		<path d="M480.168,185.333c-3.257-1.434-7.027-2.271-10.593-2.073c-2.063,0.114-5.528,1.563-4.768,4.272
			c0.675,2.396,3.673,3.298,5.777,3.937c2.595,0.786,5.403,1.309,8.113,1.468c1.482,0.087,1.474-2.213,0-2.3
			c-3.475-0.204-7.495-0.918-10.562-2.604c-2.846-1.565,1.131-2.499,2.603-2.51c2.73-0.021,5.77,0.694,8.269,1.795
			C480.352,187.911,481.522,185.93,480.168,185.333L480.168,185.333z"/>
	</g>
	<g>
		<path d="M473.518,189.837c-2.975-0.774-13.692-1.085-9.893,4.843c1.364,2.128,4.343,3.136,6.585,3.964
			c2.69,0.994,5.495,1.637,8.279,2.3c1.442,0.343,2.054-1.874,0.611-2.218c-3.477-0.828-6.985-1.646-10.267-3.096
			c-0.817-0.36-4.899-2.304-3.128-3.596c1.713-1.248,5.335-0.466,7.201,0.019C474.343,192.429,474.951,190.21,473.518,189.837
			L473.518,189.837z"/>
	</g>
	<g>
		<path d="M475.482,199.243c-1.329,7.469,3.568,15.134,10.48,17.894c1.378,0.55,1.971-1.675,0.611-2.217
			c-5.664-2.26-9.966-8.935-8.875-15.065C477.957,198.404,475.742,197.785,475.482,199.243L475.482,199.243z"/>
	</g>
	<g>
		<path d="M491.982,176.942c3.042,6.242,2.993,13.995,3.634,20.809c0.729,7.766,1.025,15.562,0.713,23.356
			c-0.06,1.482,2.239,1.478,2.299,0c0.343-8.513-0.114-16.982-0.91-25.458c-0.621-6.619-0.793-13.8-3.75-19.868
			C493.318,174.448,491.336,175.615,491.982,176.942L491.982,176.942z"/>
	</g>
	<g>
		<path d="M478.412,210.95c0.044,6.696,0.867,13.354,1.059,20.04c0.754-0.103,1.506-0.205,2.258-0.306
			c-0.001-0.005-0.003-0.01-0.005-0.015c-0.545-1.358-2.771-0.766-2.217,0.611c0.001,0.006,0.003,0.01,0.006,0.015
			c0.453,1.129,2.298,1.087,2.258-0.305c-0.192-6.687-1.015-13.344-1.059-20.04C480.701,209.468,478.402,209.467,478.412,210.95
			L478.412,210.95z"/>
	</g>
	<g>
		<path d="M478.885,224.33c-2.482,1.184-6.93,4.462-5.943,7.693c1.326,4.343,10.645-0.665,12.662-1.587
			c3.734-1.711,7.321-3.824,10.547-6.375c1.904-1.507,4.714-3.133,5.975-5.267c2.401-4.07-2.041-3.74-4.664-2.819
			c-1.391,0.487-0.792,2.709,0.61,2.217c3.84-1.346-0.228,1.658-1.442,2.593c-2.936,2.26-5.857,4.334-9.093,6.137
			c-3.39,1.888-7.368,3.894-11.232,4.342c-2.739,0.318,2.961-4.575,3.742-4.948C481.383,225.677,480.217,223.694,478.885,224.33
			L478.885,224.33z"/>
	</g>
	<g>
		<path d="M500.012,217.579c1.337,7.424,2.695,14.815,4.489,22.146c0.351,1.439,2.568,0.829,2.216-0.611
			c-1.792-7.332-3.15-14.722-4.488-22.146C501.965,215.511,499.75,216.13,500.012,217.579L500.012,217.579z"/>
	</g>
	<g>
		<path d="M472.899,231.933c0.312,5.642,1.734,11.401,2.685,16.968c0.248,1.459,2.464,0.838,2.216-0.611
			c-0.915-5.367-2.299-10.918-2.602-16.357C475.116,230.459,472.817,230.451,472.899,231.933L472.899,231.933z"/>
	</g>
	<g>
		<path d="M476.691,249.746c10.308,1.33,22.639-1.945,29.73-9.861c0.985-1.101-0.635-2.732-1.626-1.625
			c-6.694,7.472-18.392,10.44-28.104,9.187C475.225,247.257,475.242,249.559,476.691,249.746L476.691,249.746z"/>
	</g>
	<g>
		<path d="M479.848,248.701c-1.067,10.202,5.63,22.838,11.589,30.692c5.755,7.585,15.174,14.583,25.017,11.128
			c11.742-4.122,12.127-21.623,11.966-31.655c-0.249-15.544-3.664-31.513-9.855-45.765c-3.585-8.255-10.456-20.718-21.244-19.114
			c-1.463,0.218-0.839,2.433,0.61,2.217c9.487-1.411,15.52,11.103,18.649,18.057c5.301,11.78,8.037,24.947,9.173,37.759
			c0.894,10.072,1.273,22.424-4.189,31.388c-6.609,10.848-19.223,4.152-25.919-2.627c-3.825-3.874-6.552-8.729-8.833-13.622
			c-2.47-5.302-5.28-12.558-4.663-18.459C482.302,247.226,480.001,247.242,479.848,248.701L479.848,248.701z"/>
	</g>
	<g>
		<path d="M506.004,242.231c0.038-0.049,0.076-0.099,0.114-0.147c-0.64-0.169-1.28-0.338-1.921-0.507
			c2.706,9.451,5.172,18.815,9.487,27.729c0.646,1.335,2.628,0.167,1.984-1.161c-4.235-8.752-6.601-17.913-9.254-27.18
			c-0.216-0.752-1.366-1.217-1.922-0.506c-0.038,0.048-0.077,0.098-0.115,0.147C503.477,241.76,505.093,243.399,506.004,242.231
			L506.004,242.231z"/>
	</g>
	<g>
		<path d="M511.276,262.065c1.378,1.498,3.023,2.704,4.832,3.629c1.318,0.674,2.481-1.31,1.161-1.985
			c-1.65-0.844-3.109-1.904-4.367-3.27C511.896,259.346,510.275,260.976,511.276,262.065L511.276,262.065z"/>
	</g>
	<g>
		<path d="M483.202,235.67c-0.919-0.052-1.815,0.312-2.286,1.132c-0.424,0.736-0.371,1.639-0.192,2.437
			c0.312,1.402,1.277,3.171,2.848,3.338c0.943,0.101,1.568-0.836,1.77-1.625c0.286-1.121,0.264-2.57-0.159-3.649
			c-0.385-0.984-1.276-1.752-2.392-1.417c-0.864,0.26-1.463,1.089-1.683,1.933c-0.328,1.276,0.297,2.52,1.419,3.155
			c1.292,0.732,2.449-1.254,1.161-1.985c-0.066-0.036-0.132-0.074-0.194-0.117c0.187,0.119-0.052-0.053-0.08-0.081
			c-0.088-0.099-0.085-0.093,0.006,0.017c-0.036-0.049-0.156-0.309-0.043-0.032c-0.021-0.052-0.037-0.106-0.051-0.16
			c-0.076-0.269,0.013,0.258-0.005-0.017c-0.003-0.053-0.003-0.107,0.001-0.161c0.009-0.276-0.053,0.258,0.004-0.009
			c0.013-0.051,0.027-0.101,0.043-0.151c0.079-0.258-0.113,0.228,0.003-0.01c0.022-0.045,0.048-0.087,0.074-0.13
			c0.133-0.222-0.169,0.191-0.007,0c0.032-0.033,0.063-0.067,0.097-0.098c0.173-0.168-0.22,0.146-0.024,0.024
			c0.089-0.055-0.275,0.045-0.189,0.041c-0.228,0.011-0.235-0.045-0.38-0.162c0.082,0.083,0.07,0.061-0.033-0.069
			c0.054,0.069,0.093,0.149,0.132,0.227c-0.101-0.197,0.071,0.285,0.09,0.376c0.044,0.201,0.053,0.417,0.064,0.64
			c0.014,0.264,0.007,0.527-0.009,0.791c-0.005,0.08-0.012,0.161-0.021,0.239c0.023-0.241-0.015,0.074-0.021,0.105
			c-0.017,0.09-0.171,0.521-0.025,0.182c-0.125,0.293,0.021,0.022,0.151-0.073c-0.025,0.019,0.328-0.082,0.302-0.083
			c0.233,0.04,0.293,0.046,0.178,0.017c-0.188-0.05,0.277,0.136,0.097,0.038c-0.25-0.137,0.188,0.18-0.04-0.027
			c-0.083-0.074-0.154-0.16-0.227-0.243c-0.075-0.094-0.06-0.074,0.047,0.061c-0.045-0.061-0.086-0.124-0.128-0.187
			c-0.072-0.112-0.138-0.227-0.202-0.343c-0.064-0.122-0.123-0.247-0.18-0.373c0.132,0.294-0.04-0.125-0.063-0.194
			c-0.044-0.131-0.08-0.264-0.112-0.398c-0.02-0.081-0.08-0.525-0.038-0.164c-0.015-0.125-0.017-0.249-0.014-0.374
			c0.006-0.336-0.06,0.208,0.015-0.104c0.07-0.304-0.122,0.186,0.028-0.077c0.066-0.099,0.042-0.069-0.071,0.085
			c0.058-0.067,0.225-0.177-0.046,0.017c0.24-0.172-0.208,0.039,0.1-0.044c0.257-0.07-0.273,0.016,0.013-0.002
			c0.091-0.006,0.184,0,0.275,0.005C484.684,238.053,484.676,235.753,483.202,235.67L483.202,235.67z"/>
	</g>
	<g>
		<path d="M517.531,288.013c-0.839,14.077-5.36,27.221-13.328,38.855c-0.841,1.228,1.153,2.376,1.985,1.161
			c8.193-11.963,12.78-25.549,13.642-40.016C519.919,286.531,517.618,286.54,517.531,288.013L517.531,288.013z"/>
	</g>
	<g>
		<path d="M421.617,272.968c-1.984,12.045-3.618,24.733-2.86,36.952c0.091,1.472,2.392,1.48,2.3,0
			c-0.746-12.004,0.829-24.512,2.776-36.341C424.072,272.128,421.857,271.507,421.617,272.968L421.617,272.968z"/>
	</g>
	<g>
		<path d="M426.146,254.831c-0.082,0.521-0.178,1.04-0.279,1.557c-0.12,0.615,0.165,1.24,0.804,1.415
			c0.568,0.157,1.293-0.188,1.413-0.804c0.103-0.517,0.197-1.035,0.278-1.558c0.098-0.619-0.148-1.234-0.803-1.414
			C427.008,253.875,426.241,254.21,426.146,254.831L426.146,254.831z"/>
	</g>
	<g>
		<path d="M427.355,232.414c0.678,12.117-0.949,25.836-5.096,37.249c-0.507,1.397,1.715,1.993,2.217,0.611
			c4.188-11.523,5.863-25.63,5.179-37.86C429.572,230.939,427.272,230.932,427.355,232.414L427.355,232.414z"/>
	</g>
	<g>
		<path d="M419.602,311.734c7.447,1.917,15.046,0.237,22.153-2.252c1.39-0.486,0.792-2.709-0.611-2.218
			c-6.711,2.352-13.883,4.067-20.932,2.253C418.775,309.146,418.167,311.365,419.602,311.734L419.602,311.734z"/>
	</g>
	<g>
		<path d="M452.049,310.575c14.863,11.548,34.688,16.649,53.143,18.022c1.479,0.109,1.47-2.189,0-2.3
			c-17.785-1.323-37.172-6.205-51.518-17.349C452.519,308.051,450.879,309.666,452.049,310.575L452.049,310.575z"/>
	</g>
	<g>
		<path d="M455.365,307.157c15.717,10.07,33.903,16.779,52.693,17.044c1.483,0.021,1.482-2.277,0-2.299
			c-18.404-0.26-36.146-6.872-51.532-16.73C455.273,304.368,454.121,306.36,455.365,307.157L455.365,307.157z"/>
	</g>
	<g>
		<path d="M424.578,208.789c-7.327,14.881-13.982,30.093-22.133,44.553c-0.73,1.293,1.257,2.452,1.985,1.161
			c8.152-14.462,14.808-29.673,22.133-44.553C427.215,208.624,425.232,207.458,424.578,208.789L424.578,208.789z"/>
	</g>
	<g>
		<path d="M402.144,250.426c1.737-0.184,3.072-1.145,4.605-1.882c1.336-0.642,0.169-2.625-1.161-1.985
			c-1.099,0.528-2.197,1.435-3.444,1.567c-0.623,0.065-1.149,0.473-1.149,1.15C400.994,249.854,401.52,250.491,402.144,250.426
			L402.144,250.426z"/>
	</g>
	<g>
		<path d="M386,223.261c6.647,8.237,13.056,16.651,19.93,24.704c0.964,1.129,2.583-0.505,1.626-1.626
			c-6.874-8.053-13.283-16.467-19.93-24.704C386.695,220.48,385.079,222.118,386,223.261L386,223.261z"/>
	</g>
	<g>
		<path d="M383.617,224.561c0.991-0.438,2.015-0.728,3.06-1.004c1.433-0.379,0.824-2.598-0.611-2.219
			c-1.247,0.33-2.429,0.714-3.61,1.237c-0.573,0.254-0.703,1.078-0.412,1.574C382.387,224.734,383.045,224.816,383.617,224.561
			L383.617,224.561z"/>
	</g>
	<g>
		<path d="M384.976,222.717c-1.19,4.404-3.764,7.922-7.185,10.88c-1.831,1.582-4.023,2.793-6.253,3.708
			c-0.124,0.051-2.812,1.029-2.722,0.375c0.137-1,0.914-1.974,1.476-2.77c0.859-1.213-1.137-2.361-1.985-1.161
			c-1.132,1.601-2.354,3.558-1.455,5.516c0.99,2.164,4.889,0.424,6.188-0.108c6.747-2.764,12.251-8.789,14.153-15.829
			C387.581,221.896,385.362,221.287,384.976,222.717L384.976,222.717z"/>
	</g>
	<g>
		<path d="M366.638,238.275c0.368,1.987,2.208,3.766,3.409,5.312c2.223,2.864,4.83,5.422,7.235,8.13
			c0.986,1.111,2.607-0.521,1.626-1.626c-1.807-2.033-3.685-4.001-5.486-6.039c-1.442-1.63-4.15-4.14-4.566-6.389
			C368.586,236.207,366.37,236.827,366.638,238.275L366.638,238.275z"/>
	</g>
	<g>
		<path d="M377.999,252.15c9.243,0.097,15.794-8.266,16.862-16.863c0.183-1.47-2.119-1.452-2.3,0
			c-0.915,7.369-6.675,14.646-14.562,14.564C376.516,249.835,376.517,252.135,377.999,252.15L377.999,252.15z"/>
	</g>
	<g>
		<path d="M381.221,251.964c3.056,4.026,6.477,7.808,9.935,11.489c3.195,3.399,7.529,8.625,12.53,9.265
			c12.226,1.563,20.191-15.174,25.231-23.725c0.755-1.28-1.232-2.437-1.984-1.161c-4.569,7.75-12.764,25.293-24.045,22.338
			c-4.605-1.206-8.901-7.019-11.972-10.349c-2.669-2.896-5.325-5.879-7.709-9.019C382.324,249.638,380.325,250.781,381.221,251.964
			L381.221,251.964z"/>
	</g>
	<g>
		<path d="M440.34,209.795c-3.083,4.407-8.123,6.757-11.702,10.69c-0.543,0.598-0.386,1.738,0.508,1.922
			c2.783,0.568,5.462,1.513,8.177,2.341c2.99,0.913,5.838,0.98,8.879,1.491c0.78,0.131,1.382-0.313,1.455-1.108
			c0.202-2.208-0.371-4.606-0.655-6.787c-0.206-1.586-0.412-3.172-0.588-4.762c-0.061-0.549-0.108-1.098-0.15-1.648
			c-0.06-0.771,0.298-1.265-0.423-0.854c1.287-0.734,0.13-2.722-1.16-1.985c-1.668,0.952-0.508,5.042-0.338,6.438
			c0.373,3.075,1.299,6.49,1.015,9.598c0.485-0.371,0.97-0.74,1.455-1.109c-2.611-0.438-5.196-0.492-7.785-1.174
			c-3.115-0.82-6.108-2.012-9.271-2.659c0.17,0.641,0.338,1.282,0.508,1.922c3.731-4.099,8.839-6.548,12.062-11.155
			C443.177,209.737,441.183,208.59,440.34,209.795L440.34,209.795z"/>
	</g>
	<g>
		<path d="M462.315,224.939c1.486,0.111,2.802,1.448,3.931,2.296c1.58,1.186,3.352,2.146,5.165,2.913
			c0.796,0.337,1.696-0.045,1.73-0.993c0.144-4.126,0.8-8.226,0.575-12.36c-0.08-1.475-2.381-1.483-2.3,0
			c0.225,4.134-0.432,8.234-0.575,12.36c0.577-0.331,1.153-0.662,1.73-0.992c-2.027-0.858-3.916-1.977-5.677-3.297
			c-1.432-1.076-2.75-2.089-4.58-2.227C460.836,222.528,460.846,224.829,462.315,224.939L462.315,224.939z"/>
	</g>
	<g>
		<path d="M446.728,226.512c0.413,0.203,0.765,1.312,0.99,1.754c0.505,0.99,0.995,1.99,1.487,2.987
			c0.86,1.738,1.672,3.514,2.607,5.213c0.715,1.299,2.701,0.14,1.985-1.161c-1.074-1.953-2.003-3.996-2.992-5.993
			c-0.646-1.304-1.536-4.107-2.917-4.785C446.562,223.876,445.396,225.859,446.728,226.512L446.728,226.512z"/>
	</g>
	<g>
		<path d="M465.035,226.754c-1.229,2.524-1.985,5.894-1.954,8.701c0.017,1.482,2.316,1.483,2.3,0
			c-0.027-2.378,0.595-5.394,1.639-7.54C467.667,226.586,465.684,225.421,465.035,226.754L465.035,226.754z"/>
	</g>
	<g>
		<path d="M463.081,235.455c0.021,4.4,0.374,9.294-0.893,13.563c-0.423,1.425,1.796,2.029,2.217,0.611
			c1.327-4.47,0.998-9.572,0.976-14.174C465.374,233.972,463.074,233.971,463.081,235.455L463.081,235.455z"/>
	</g>
	<g>
		<path d="M453.11,234.776c-0.014-0.005-0.028-0.009-0.041-0.014c0,0.739,0,1.478,0,2.216c3.33-0.984,7.033-0.478,10.443-0.447
			c1.482,0.014,1.481-2.286,0-2.299c-3.617-0.034-7.52-0.517-11.055,0.53c-1.139,0.337-1.052,1.844,0,2.216
			c0.014,0.005,0.027,0.01,0.042,0.016C453.901,237.491,454.498,235.269,453.11,234.776L453.11,234.776z"/>
	</g>
	<g>
		<path d="M451.225,236.245c-0.053,4.24-0.689,8.398-1.468,12.558c-0.271,1.449,1.943,2.068,2.216,0.611
			c0.818-4.358,1.495-8.724,1.551-13.168C453.543,234.761,451.242,234.763,451.225,236.245L451.225,236.245z"/>
	</g>
	<g>
		<path d="M450.356,250.172c3.853,2.049,8.827,1.563,12.887,0.404c1.424-0.407,0.817-2.625-0.611-2.219
			c-3.42,0.977-7.844,1.568-11.114-0.171C450.209,247.491,449.047,249.476,450.356,250.172L450.356,250.172z"/>
	</g>
	<g>
		<path d="M454.799,248.636c0.633,0.222,1.289,0.319,1.959,0.328c1.482,0.022,1.48-2.278,0-2.299
			c-0.479-0.007-0.895-0.086-1.348-0.247c-0.592-0.208-1.257,0.231-1.414,0.804C453.821,247.857,454.209,248.427,454.799,248.636
			L454.799,248.636z"/>
	</g>
	<g>
		<path d="M461.932,249.898c-1.046,18.398-2.908,36.843-5.994,55.026c-0.247,1.45,1.97,2.071,2.217,0.611
			c3.12-18.385,5.021-37.037,6.076-55.638C464.315,248.416,462.016,248.424,461.932,249.898L461.932,249.898z"/>
	</g>
	<g>
		<path d="M451.871,249.898c-0.957,9.227-3.727,18.091-5.931,27.069c-2.222,9.053-4.518,18.088-6.977,27.081
			c-0.392,1.433,1.826,2.04,2.217,0.611c2.46-8.993,4.747-18.029,6.978-27.081c2.262-9.183,5.034-18.242,6.013-27.68
			C454.323,248.424,452.022,248.438,451.871,249.898L451.871,249.898z"/>
	</g>
	<g>
		<path d="M438.964,304.659c1.765,5.011,3.528,10.077,4.757,15.249c0.342,1.442,2.559,0.831,2.216-0.611
			c-1.227-5.172-2.991-10.238-4.756-15.249C440.692,302.659,438.471,303.257,438.964,304.659L438.964,304.659z"/>
	</g>
	<g>
		<path d="M445.642,320.271c3.903-4.801,7.836-9.586,11.929-14.229c0.977-1.106-0.644-2.739-1.626-1.625
			c-4.093,4.642-8.025,9.427-11.929,14.228C443.09,319.785,444.706,321.423,445.642,320.271L445.642,320.271z"/>
	</g>
	<g>
		<path d="M366.638,191.709c0.762,4.167,1.408,8.316,3.054,12.246c0.68,1.628,1.796,3.014,2.858,4.401
			c1.682,2.201,1.851,4.713,2.297,7.323c0.825,4.805,6.237,7.945,9.903,10.704c1.186,0.893,2.33-1.106,1.161-1.985
			c-1.979-1.489-3.852-3.123-5.727-4.737c-2.955-2.549-2.834-5.538-3.761-9.112c-0.817-3.147-3.842-5.595-5.104-8.612
			c-1.417-3.383-1.81-7.257-2.464-10.839C368.59,189.641,366.373,190.261,366.638,191.709L366.638,191.709z"/>
	</g>
	<g>
		<path d="M359.412,193.704c-0.004,3.212-0.029,6.449,1.094,9.503c0.507,1.38,2.731,0.784,2.219-0.611
			c-1.058-2.874-1.017-5.873-1.013-8.893C361.713,192.221,359.414,192.221,359.412,193.704L359.412,193.704z"/>
	</g>
	<g>
		<path d="M337.464,192.396c9.289,4.684,18.295,10.265,27.966,14.202c1.373,0.559,1.965-1.667,0.611-2.219
			c-9.473-3.854-18.307-9.375-27.416-13.968C337.305,189.746,336.14,191.729,337.464,192.396L337.464,192.396z"/>
	</g>
	<g>
		<path d="M337.966,190.008c-2.399-1.008-5.174-0.678-7.556,0.239c-1.484,0.571-3.16,2.089-2.675,3.874
			c1.285,4.722,8.846,5.819,12.688,7.303c1.384,0.535,1.979-1.689,0.611-2.218c-2.982-1.151-6.129-1.87-8.918-3.474
			c-0.736-0.423-1.438-0.948-1.944-1.637c-0.893-1.215,1.363-1.839,2.062-2.035c1.724-0.483,3.46-0.532,5.122,0.166
			C338.723,192.8,339.312,190.573,337.966,190.008L337.966,190.008z"/>
	</g>
	<g>
		<path d="M340.338,201.5c4.595,3.174,8.397,7.423,13.15,10.371c1.264,0.784,2.417-1.206,1.161-1.985
			c-4.746-2.945-8.557-7.198-13.15-10.372C340.275,198.669,339.127,200.663,340.338,201.5L340.338,201.5z"/>
	</g>
	<g>
		<path d="M338.381,199.4c-1.978,2.646,0.243,6.831,1.668,9.255c2.1,3.569,5.652,5.898,9.463,7.285
			c1.396,0.507,1.993-1.714,0.611-2.218c-2.672-0.972-4.915-2.413-6.833-4.515c-1.48-1.622-4.57-6.445-2.924-8.647
			C341.256,199.372,339.26,198.228,338.381,199.4L338.381,199.4z"/>
	</g>
	<g>
		<path d="M340.338,208.022c-1.768,0.289-2.725,1.895-2.722,3.607c0.003,1.72,1.375,3.194,2.576,4.252
			c2.875,2.536,6.515,3.844,9.835,5.644c1.305,0.706,2.466-1.28,1.161-1.985c-2.106-1.143-4.315-2.07-6.398-3.264
			c-0.721-0.413-7.695-5.406-3.841-6.037C342.41,210,341.788,207.784,340.338,208.022L340.338,208.022z"/>
	</g>
	<g>
		<path d="M342.023,216.461c-9.107,9.106,21.799,15.594,25.227,16.677c1.418,0.448,2.02-1.773,0.611-2.218
			c-2.341-0.739-29.567-7.48-24.212-12.833C344.698,217.038,343.073,215.412,342.023,216.461L342.023,216.461z"/>
	</g>
	<g>
		<path d="M366.755,232.609c1.498,2.221,3.557,4.177,5.318,6.187c0.979,1.117,2.598-0.517,1.625-1.626
			c-1.581-1.803-3.757-3.941-4.958-5.722C367.916,230.227,365.922,231.376,366.755,232.609L366.755,232.609z"/>
	</g>
	<g>
		<path d="M339.771,193.234c8.968-2.61,18.004-4.96,27.036-7.332c1.433-0.376,0.824-2.594-0.611-2.218
			c-9.032,2.372-18.069,4.723-27.036,7.332C337.739,191.43,338.343,193.649,339.771,193.234L339.771,193.234z"/>
	</g>
	<g>
		<path d="M324.506,198.118c1.782-0.626,3.57-1.233,5.365-1.822c1.403-0.46,0.802-2.682-0.611-2.218
			c-1.794,0.589-3.584,1.196-5.365,1.822C322.505,196.389,323.102,198.611,324.506,198.118L324.506,198.118z"/>
	</g>
	<g>
		<path d="M346.895,197.156c8.524-2.187,17.182-3.866,25.517-6.727c1.395-0.479,0.795-2.701-0.611-2.218
			c-8.336,2.861-16.993,4.541-25.517,6.728C344.848,195.307,345.458,197.525,346.895,197.156L346.895,197.156z"/>
	</g>
	<g>
		<path d="M323.379,196.304c-2.831,1.446-2.495,4.971,0.434,5.919c3.866,1.25,9.325-1.053,12.934-2.095
			c1.423-0.41,0.817-2.629-0.611-2.217c-2.525,0.729-5.06,1.392-7.636,1.91c-0.795,0.16-1.565,0.271-2.373,0.315
			c-0.729,0.041-4.387-0.417-1.586-1.848C325.861,197.614,324.697,195.63,323.379,196.304L323.379,196.304z"/>
	</g>
	<g>
		<path d="M362.3,185.123c-1.797,2.356-0.044,6.226,2.603,7.055c1.419,0.444,2.021-1.776,0.611-2.217
			c-1.368-0.429-2.092-2.544-1.229-3.676C365.183,185.104,363.185,183.96,362.3,185.123L362.3,185.123z"/>
	</g>
	<g>
		<path d="M363.789,186.908c7.224-2.51,14.642-4.364,21.989-6.467c1.423-0.408,0.817-2.626-0.611-2.218
			c-7.348,2.104-14.765,3.957-21.989,6.468C361.785,185.174,362.385,187.396,363.789,186.908L363.789,186.908z"/>
	</g>
	<g>
		<path d="M365.751,192.513c2.996-0.447,6.052-1.929,8.958-2.802c3.86-1.159,7.717-2.32,11.547-3.569
			c1.404-0.458,0.804-2.679-0.611-2.218c-3.831,1.25-7.687,2.413-11.547,3.569c-2.907,0.872-5.962,2.355-8.958,2.802
			C363.677,190.514,364.3,192.729,365.751,192.513L365.751,192.513z"/>
	</g>
	<g>
		<path d="M384.944,180.481c0.919,0.024,2.526-0.176,2.671,1.083c0.1,0.859-0.756,1.492-1.381,1.908
			c-1.542,1.026-3.445,1.547-5.236,1.936c-1.448,0.316-0.834,2.532,0.611,2.218c2.578-0.562,5.765-1.466,7.462-3.634
			c0.834-1.067,1.141-2.551,0.507-3.804c-0.934-1.845-2.784-1.958-4.635-2.006C383.461,178.143,383.465,180.442,384.944,180.481
			L384.944,180.481z"/>
	</g>
	<g>
		<path d="M360.471,186.518c0.003-2.174,8.27-4.151,9.713-4.588c4.972-1.505,10.132-2.058,15.288-1.448
			c1.471,0.174,1.454-2.128,0-2.299c-7.051-0.834-13.88,0.647-20.492,3.059c-2.429,0.886-6.803,2.125-6.809,5.276
			C358.167,188.001,360.467,188,360.471,186.518L360.471,186.518z"/>
	</g>
	<g>
		<path d="M504.342,326.88c-4.35,6.85-8.923,13.049-15.134,18.329c-6.505,5.529-13.997,9.849-21.474,13.904
			c-15.66,8.493-31.688,16.979-48.553,22.81c-1.394,0.481-0.795,2.703,0.61,2.217c17.099-5.911,33.176-14.55,49.104-23.041
			c7.728-4.121,15.131-8.741,21.938-14.264c6.463-5.242,11.074-11.835,15.493-18.794
			C507.125,326.784,505.134,325.631,504.342,326.88L504.342,326.88z"/>
	</g>
	<g>
		<path d="M427.883,379.001c-6.933,15.248-14.333,30.248-20.848,45.689c-7.267,17.225-14.183,34.6-22.268,51.465
			c-0.638,1.331,1.345,2.497,1.985,1.161c7.233-15.091,13.543-30.584,19.984-46.023c7.213-17.293,15.381-34.085,23.132-51.132
			C430.477,378.822,428.496,377.652,427.883,379.001L427.883,379.001z"/>
	</g>
	<g>
		<path d="M398.564,361.371c-18.706,33.533-34.021,68.588-48.551,104.09c-0.562,1.372,1.664,1.964,2.219,0.61
			c14.453-35.32,29.708-70.179,48.317-103.539C401.272,361.235,399.286,360.076,398.564,361.371L398.564,361.371z"/>
	</g>
	<g>
		<path d="M400.137,362.944c16.219-12.294,33.436-23.153,50.159-34.732c1.21-0.837,0.062-2.831-1.161-1.984
			c-16.723,11.578-33.939,22.437-50.158,34.731C397.811,361.843,398.955,363.842,400.137,362.944L400.137,362.944z"/>
	</g>
	<g>
		<path d="M490.833,325.921c-3.714,5.113-5.322,14.264-0.827,19.358c0.982,1.113,2.604-0.519,1.626-1.626
			c-3.788-4.294-1.859-12.378,1.186-16.571C493.691,325.879,491.695,324.732,490.833,325.921L490.833,325.921z"/>
	</g>
	<g>
		<path d="M483.489,340.729c-0.13,1.273,0.188,2.521,0.876,3.599c0.795,1.245,2.787,0.093,1.985-1.161
			c-0.494-0.773-0.655-1.524-0.562-2.438c0.063-0.624-0.571-1.149-1.15-1.149C483.965,339.58,483.554,340.106,483.489,340.729
			L483.489,340.729z"/>
	</g>
	<g>
		<path d="M399.885,377.684c1.015,5.722,6.804,4.776,10.744,2.699c1.312-0.691,0.149-2.676-1.161-1.985
			c-2.659,1.401-6.647,2.727-7.364-1.325C401.844,375.614,399.629,376.234,399.885,377.684L399.885,377.684z"/>
	</g>
	<g>
		<path d="M422.354,310.986c-12.993,6.105-25.71,12.852-38.912,18.508c-1.36,0.583-0.187,2.562,1.161,1.985
			c13.201-5.655,25.919-12.401,38.913-18.508C424.857,312.34,423.688,310.358,422.354,310.986L422.354,310.986z"/>
	</g>
	<g>
		<path d="M384.317,329.174c-7.465,3.276-6.031,13.32-5.292,19.97c1.254,11.297,5.634,22.075,8.693,32.948
			c0.4,1.426,2.619,0.819,2.217-0.611c-2.291-8.145-5.084-16.137-7.111-24.356c-1.603-6.498-5.536-22.371,2.654-25.966
			C386.833,330.564,385.661,328.584,384.317,329.174L384.317,329.174z"/>
	</g>
	<g>
		<path d="M350.31,466.579c8.579,9.432,23.402,10.923,35.441,11.402c1.483,0.06,1.478-2.241,0-2.3
			c-11.395-0.454-25.686-1.792-33.815-10.729C350.937,463.854,349.315,465.485,350.31,466.579L350.31,466.579z"/>
	</g>
	<g>
		<path d="M406.429,426.741c3.464,14.882,7.794,29.519,12.56,44.031c0.46,1.402,2.681,0.802,2.219-0.61
			c-4.768-14.513-9.097-29.15-12.561-44.031C408.311,424.687,406.093,425.299,406.429,426.741L406.429,426.741z"/>
	</g>
	<g>
		<path d="M426.708,381.286c7.297,24.732,14.722,49.459,22.975,73.891c0.472,1.396,2.692,0.798,2.217-0.61
			c-8.252-24.432-15.677-49.159-22.976-73.891C428.506,379.257,426.286,379.86,426.708,381.286L426.708,381.286z"/>
	</g>
	<g>
		<path d="M421.136,471.939c11.611-1.75,23.118-6.884,30.467-16.255c0.904-1.152-0.711-2.793-1.626-1.626
			c-7.132,9.093-18.193,13.967-29.452,15.664C419.062,469.943,419.687,472.158,421.136,471.939L421.136,471.939z"/>
	</g>
	<g>
		<path d="M387.766,335.281c-2.811,1.962-3.107,5.816-2.397,8.915c0.332,1.445,2.549,0.832,2.219-0.61
			c-0.453-1.969-0.526-5.018,1.339-6.319C390.133,336.425,388.985,334.431,387.766,335.281L387.766,335.281z"/>
	</g>
	<g>
		<path d="M422.646,470.251c-1.511,2.049-3.303,4.659-1.528,7.06c1.905,2.578,6.555,1.625,9.073,0.875
			c7.787-2.32,12.949-9.957,16.253-16.869c0.637-1.331-1.346-2.498-1.985-1.161c-1.95,4.081-4.087,7.499-7.258,10.754
			c-2.208,2.267-4.662,3.924-7.62,5.059c-1.699,0.651-3.495,0.809-5.286,0.523c-3.332-0.531-0.235-4.305,0.337-5.08
			C425.513,470.216,423.516,469.071,422.646,470.251L422.646,470.251z"/>
	</g>
	<g>
		<path d="M379.456,476.183c-2.534,6.26-4.705,12.675-7.002,19.024c-0.505,1.398,1.718,1.994,2.218,0.611
			c2.296-6.35,4.468-12.766,7.003-19.025C382.232,475.418,380.006,474.826,379.456,476.183L379.456,476.183z"/>
	</g>
	<g>
		<path d="M353.933,467.965c-2.419,0.52-17.217,4.545-10.93,9.479c2.084,1.636,5.592,1.532,8.091,1.537
			c5.405,0.008,10.844-1.195,15.827-3.23c1.354-0.552,0.763-2.777-0.61-2.216c-5.287,2.156-10.905,3.251-16.62,3.13
			c-2.322-0.049-7.835-1.197-3.313-4.012c2.354-1.467,5.496-1.897,8.166-2.473C355.992,469.869,355.377,467.652,353.933,467.965
			L353.933,467.965z"/>
	</g>
	<g>
		<path d="M352.208,465.951c-9.145,3.129-18.36,2.879-27.864,2.205c-6.923-0.49-18.102-2.33-24.46,1.528
			c-7.609,4.618,1.971,10.61,6.098,12.534c10.21,4.759,21.601,7.297,32.557,9.65c11.489,2.469,23.266,4.505,35.025,5.031
			c1.482,0.066,1.476-2.233,0-2.3c-19.611-0.879-39.842-5.147-58.451-11.303c-3.838-1.271-7.633-2.735-11.182-4.683
			c-1.143-0.627-2.219-1.364-3.184-2.24c-4.355-3.951,4.728-5.821,6.949-6.113c15.255-2.007,30.087,3.054,45.124-2.094
			C354.213,467.69,353.613,465.47,352.208,465.951L352.208,465.951z"/>
	</g>
	<g>
		<path d="M447.363,457.967c2.077,7.646,5.36,14.948,7.688,22.521c0.435,1.414,2.654,0.811,2.217-0.61
			c-2.328-7.574-5.611-14.877-7.689-22.521C449.19,455.927,446.974,456.534,447.363,457.967L447.363,457.967z"/>
	</g>
	<g>
		<path d="M420.443,469.724c-8.326,13.264-24.228,17.139-33.771,29.168c-5.644,7.112,4.596,9.111,9.375,8.389
			c10.339-1.564,20.315-5.692,29.876-9.767c10.66-4.545,21.315-9.684,30.959-16.148c1.226-0.82,0.075-2.813-1.161-1.985
			c-15.672,10.505-34.069,18.684-52.17,23.89c-3.592,1.032-7.303,1.902-11.051,2.02c-1.155,0.036-2.368-0.064-3.423-0.567
			c-5.199-2.474,6.389-11.266,7.553-12.142c9.446-7.102,19.322-11.375,25.799-21.695
			C423.219,469.625,421.229,468.472,420.443,469.724L420.443,469.724z"/>
	</g>
	<g>
		<path d="M508.515,200.417c11.45-2.462,22.708-5.781,34.537-4.148c11.823,1.632,21.803,13.208,10.479,22.922
			c-1.127,0.967,0.508,2.586,1.626,1.626c9.259-7.943,6.55-19.522-4.126-24.655c-13.302-6.396-29.728-0.843-43.126,2.038
			C506.454,198.512,507.068,200.729,508.515,200.417L508.515,200.417z"/>
	</g>
	<g>
		<path d="M553.666,210.501c-3.389,11.305-3.906,24.332-4.832,36.078c-0.117,1.48,2.184,1.469,2.3,0
			c0.908-11.523,1.436-24.41,4.749-35.467C556.311,209.688,554.091,209.084,553.666,210.501L553.666,210.501z"/>
	</g>
	<g>
		<path d="M526.893,248.174c7.729,0.334,15.374,0.018,23.091-0.445c1.474-0.087,1.482-2.388,0-2.299
			c-7.717,0.462-15.361,0.779-23.091,0.444C525.41,245.809,525.416,248.109,526.893,248.174L526.893,248.174z"/>
	</g>
	<g>
		<path d="M542.606,246.784c-1.342,28.138-2.683,56.274-4.024,84.411c-0.07,1.483,2.229,1.477,2.3,0
			c1.342-28.137,2.683-56.273,4.024-84.411C544.977,245.301,542.678,245.308,542.606,246.784L542.606,246.784z"/>
	</g>
	<g>
		<path d="M548.834,246.785c-1.342,39.028-2.683,78.056-4.024,117.083c-0.051,1.483,2.249,1.479,2.3,0
			c1.342-39.027,2.683-78.056,4.024-117.083C551.184,245.301,548.885,245.306,548.834,246.785L548.834,246.785z"/>
	</g>
	<g>
		<path d="M505.622,328.369c7.134-0.435,14.139-1.285,21.262-0.239c2.551,0.376,5.042,0.999,7.501,1.761
			c4.152,1.289,13.767,8.338,4.85,11.024c-1.415,0.425-0.812,2.646,0.611,2.216c8.901-2.68,6.271-9.544-0.31-13.508
			c-9.961-6.003-23.006-4.219-33.914-3.553C504.149,326.16,504.141,328.461,505.622,328.369L505.622,328.369z"/>
	</g>
	<g>
		<path d="M478.974,355.043c19.854,1.052,40.323-0.996,58.184-10.303c1.315-0.685,0.153-2.67-1.16-1.985
			c-17.503,9.119-37.58,11.02-57.023,9.988C477.491,352.665,477.498,354.965,478.974,355.043L478.974,355.043z"/>
	</g>
	<g>
		<path d="M443.481,374.93c16.798,5.809,35.888,4.916,53.282,3.041c16.824-1.814,34.675-5.133,49.776-13.109
			c1.312-0.693,0.149-2.677-1.161-1.985c-15.22,8.038-33.288,11.143-50.218,12.969c-16.653,1.795-35.024,2.416-51.069-3.132
			C442.688,372.227,442.089,374.448,443.481,374.93L443.481,374.93z"/>
	</g>
	<g>
		<path d="M484.256,392.708c0,24.508,0,49.016,0,73.522c0,1.483,2.3,1.483,2.3,0c0-24.507,0-49.015,0-73.522
			C486.556,391.225,484.256,391.225,484.256,392.708L484.256,392.708z"/>
	</g>
	<g>
		<path d="M498.245,391.389c0,24.64,0,49.281,0,73.922c0,1.482,2.3,1.482,2.3,0c0-24.641,0-49.282,0-73.922
			C500.545,389.905,498.245,389.905,498.245,391.389L498.245,391.389z"/>
	</g>
	<g>
		<path d="M473.142,379.007c0,3.642,0,7.282,0,10.923c0,1.483,2.3,1.483,2.3,0c0-3.641,0-7.281,0-10.923
			C475.441,377.524,473.142,377.524,473.142,379.007L473.142,379.007z"/>
	</g>
	<g>
		<path d="M508.688,375.653c0,4.22,0.001,8.438,0.001,12.657c0,1.483,2.3,1.483,2.3,0c0-4.219-0.001-8.438-0.001-12.657
			C510.988,374.17,508.688,374.17,508.688,375.653L508.688,375.653z"/>
	</g>
	<g>
		<path d="M474.012,390.98c10.886,4.431,25.814,2.882,36.408-1.677c1.358-0.585,0.187-2.564-1.161-1.985
			c-9.934,4.274-24.43,5.6-34.636,1.446C473.248,388.205,472.656,390.43,474.012,390.98L474.012,390.98z"/>
	</g>
	<g>
		<path d="M483.556,463.97c-0.02,3.541,3.342,5.297,6.486,5.675c4.812,0.575,8.623-1.039,12.147-4.213
			c1.104-0.994-0.527-2.615-1.625-1.626c-2.495,2.247-4.884,3.52-8.288,3.679c-2.282,0.106-6.437-0.545-6.421-3.515
			C485.863,462.486,483.563,462.487,483.556,463.97L483.556,463.97z"/>
	</g>
	<g>
		<path d="M451.986,494.104c12.197,2.891,25.243,3.345,37.725,3.727c14.262,0.436,28.579-0.574,42.49-3.826
			c1.444-0.337,0.832-2.555-0.61-2.217c-13.069,3.055-26.367,3.963-39.758,3.79c-12.904-0.166-26.646-0.708-39.235-3.689
			C451.156,491.546,450.544,493.764,451.986,494.104L451.986,494.104z"/>
	</g>
	<g>
		<path d="M450.485,501.727c12.686,3.187,26.689,3.384,39.715,3.692c13.991,0.332,28.029-0.776,41.648-4.07
			c1.442-0.348,0.83-2.565-0.61-2.216c-12.79,3.092-25.822,4.093-38.953,4.019c-13.394-0.076-28.173-0.373-41.188-3.642
			C449.658,499.148,449.047,501.366,450.485,501.727L450.485,501.727z"/>
	</g>
	<g>
		<path d="M529.942,492.377c1.139,0.97,2.243,2.055,2.351,3.63c0.087,1.289-0.715,2.524-1.39,3.552
			c-0.817,1.242,1.175,2.394,1.985,1.16c1.019-1.548,1.806-3.221,1.677-5.114c-0.138-2.01-1.536-3.61-2.997-4.854
			C530.446,489.795,528.812,491.414,529.942,492.377L529.942,492.377z"/>
	</g>
	<g>
		<path d="M455.721,488.905c-1.7,1.143-3.362,2.396-4.829,3.831c-2.191,2.14-2.354,5.255-1.602,8.079
			c0.379,1.432,2.598,0.824,2.216-0.61c-0.765-2.879-0.099-4.917,2.067-6.818c1.035-0.909,2.165-1.728,3.309-2.497
			C458.105,490.068,456.956,488.075,455.721,488.905L455.721,488.905z"/>
	</g>
	<g>
		<path d="M483.713,462.271c-2.632,4.692-7.562,8.612-11.402,12.265c-6.336,6.028-12.984,11.816-20.059,16.965
			c-1.186,0.863-0.041,2.859,1.16,1.985c6.827-4.968,13.208-10.518,19.392-16.259c4.374-4.062,9.926-8.502,12.895-13.795
			C486.425,462.137,484.438,460.979,483.713,462.271L483.713,462.271z"/>
	</g>
	<g>
		<path d="M499.164,463.432c2.896,5.174,8.287,9.452,12.53,13.453c6.367,6.008,13.039,11.764,20.147,16.882
			c1.206,0.869,2.353-1.127,1.161-1.985c-6.957-5.009-13.417-10.682-19.683-16.521c-4.095-3.818-9.394-8.028-12.171-12.989
			C500.425,460.978,498.438,462.136,499.164,463.432L499.164,463.432z"/>
	</g>
	<g>
		<path d="M301.239,294.054c12.011-6.512,24.82-10.842,37.525-15.74c1.369-0.528,0.775-2.753-0.611-2.219
			c-12.898,4.974-25.884,9.362-38.076,15.973C298.773,292.776,299.934,294.761,301.239,294.054L301.239,294.054z"/>
	</g>
	<g>
		<path d="M337.606,278.229c0.62,3.348,1.271,6.032,0.193,9.374c-0.456,1.415,1.765,2.017,2.218,0.611
			c1.211-3.755,0.504-6.826-0.193-10.595C339.555,276.161,337.339,276.781,337.606,278.229L337.606,278.229z"/>
	</g>
	<g>
		<path d="M301.989,303.13c6.209-0.938,12.45-3.957,18.264-6.193c6.47-2.489,12.996-5.007,19.236-8.036
			c1.334-0.647,0.169-2.63-1.161-1.985c-6.475,3.144-13.252,5.713-19.966,8.297c-5.405,2.078-11.214,4.829-16.984,5.7
			C299.916,301.133,300.539,303.349,301.989,303.13L301.989,303.13z"/>
	</g>
	<g>
		<path d="M299.67,292.026c-0.598,3.703,0.17,6.691,0.904,10.301c0.296,1.453,2.513,0.835,2.219-0.61
			c-0.64-3.147-1.427-5.844-0.905-9.08C302.121,291.187,299.906,290.564,299.67,292.026L299.67,292.026z"/>
	</g>
	<g>
		<path d="M250.629,272.829c18.486,1.366,34.015,11.325,49.57,20.496c1.28,0.754,2.437-1.233,1.161-1.985
			c-15.962-9.409-31.781-19.409-50.731-20.81C249.149,270.419,249.159,272.718,250.629,272.829L250.629,272.829z"/>
	</g>
	<g>
		<path d="M249.172,283.311c7.435,2.67,14.553,6.467,21.894,9.438c8.357,3.381,16.863,6.37,25.458,9.086
			c1.417,0.448,2.02-1.772,0.611-2.217c-7.943-2.511-15.785-5.284-23.541-8.324c-8.03-3.147-15.712-7.294-23.811-10.203
			C248.383,280.59,247.786,282.812,249.172,283.311L249.172,283.311z"/>
	</g>
	<g>
		<path d="M249.542,271.294c-1.032,3.632-1.576,7.135-1.215,10.907c0.139,1.462,2.441,1.477,2.3,0
			c-0.341-3.564,0.158-6.865,1.134-10.296C252.166,270.476,249.947,269.871,249.542,271.294L249.542,271.294z"/>
	</g>
	<g>
		<path d="M251.209,272.671c12.979-7.568,27.514-14.048,42.751-13.568c1.483,0.047,1.479-2.252,0-2.299
			c-15.679-0.493-30.561,6.097-43.913,13.882C248.769,271.432,249.926,273.419,251.209,272.671L251.209,272.671z"/>
	</g>
	<g>
		<path d="M292.605,258.874c8.459,1.561,16.617,4,24.506,7.436c3.774,1.641,7.439,3.537,11.09,5.429
			c2.466,1.276,8.158,3.067,9.148,5.772c0.504,1.381,2.728,0.785,2.217-0.611c-0.995-2.724-1.979-2.806-4.754-4.273
			c-4.851-2.565-9.702-5.113-14.666-7.452c-8.57-4.039-17.624-6.801-26.931-8.519C291.767,256.388,291.148,258.604,292.605,258.874
			L292.605,258.874z"/>
	</g>
	<g>
		<path d="M339.138,288.739c18.506-7.307,37.071-14.318,55.391-22.101c1.022-0.433,0.142-1.919-0.869-1.489
			c-18.185,7.724-36.613,14.673-54.979,21.928C337.657,287.48,338.103,289.148,339.138,288.739L339.138,288.739z"/>
	</g>
	<g>
		<path d="M236.38,327.899c20.245-7.829,40.452-15.759,60.641-23.729c1.023-0.403,0.577-2.071-0.458-1.663
			c-20.19,7.97-40.396,15.899-60.641,23.728C234.896,326.633,235.341,328.301,236.38,327.899L236.38,327.899z"/>
	</g>
	<g>
		<g>
			<path d="M265.892,271.635c3.513,1.533,7.026,3.066,10.54,4.599c1.345,0.587,2.518-1.394,1.161-1.985
				c-3.513-1.532-7.026-3.066-10.54-4.599C265.708,269.062,264.536,271.043,265.892,271.635L265.892,271.635z"/>
		</g>
		<g>
			<path d="M274.199,267.485c3.427,1.544,6.854,3.086,10.28,4.629c1.341,0.604,2.511-1.378,1.161-1.985
				c-3.427-1.543-6.854-3.086-10.28-4.629C274.02,264.896,272.85,266.877,274.199,267.485L274.199,267.485z"/>
		</g>
		<g>
			<path d="M266.573,271.443c2.929-1.319,5.858-2.639,8.787-3.958c1.351-0.607,0.18-2.589-1.161-1.985
				c-2.928,1.319-5.856,2.638-8.787,3.958C264.062,270.066,265.232,272.047,266.573,271.443L266.573,271.443z"/>
		</g>
		<g>
			<path d="M277.446,276.027c2.73-1.304,5.462-2.608,8.194-3.913c1.337-0.64,0.171-2.622-1.161-1.985
				c-2.73,1.304-5.462,2.608-8.194,3.913C274.948,274.681,276.115,276.664,277.446,276.027L277.446,276.027z"/>
		</g>
	</g>
	<g>
		<g>
			<path d="M293.555,283.706c2.417,1.055,4.834,2.109,7.25,3.163c1.345,0.587,2.518-1.394,1.161-1.985
				c-2.417-1.054-4.833-2.109-7.25-3.163C293.371,281.133,292.2,283.113,293.555,283.706L293.555,283.706z"/>
		</g>
		<g>
			<path d="M299.271,280.851c2.357,1.061,4.715,2.123,7.071,3.184c1.341,0.604,2.512-1.377,1.161-1.985
				c-2.357-1.061-4.715-2.123-7.071-3.184C299.091,278.262,297.92,280.244,299.271,280.851L299.271,280.851z"/>
		</g>
		<g>
			<path d="M294.387,283.574c2.015-0.907,4.029-1.814,6.044-2.723c1.351-0.607,0.18-2.589-1.161-1.985
				c-2.016,0.907-4.03,1.815-6.044,2.723C291.875,282.197,293.047,284.178,294.387,283.574L294.387,283.574z"/>
		</g>
		<g>
			<path d="M301.865,286.727c1.88-0.896,3.759-1.794,5.638-2.691c1.337-0.639,0.169-2.622-1.161-1.985
				c-1.878,0.897-3.758,1.794-5.638,2.691C299.368,285.38,300.535,287.363,301.865,286.727L301.865,286.727z"/>
		</g>
	</g>
	<g>
		<path d="M288.56,267.433c0.759-0.455,1.561-0.862,2.41-1.122c0.707-0.215,0.405-1.325-0.306-1.108
			c-0.941,0.288-1.844,0.733-2.686,1.238C287.344,266.821,287.922,267.815,288.56,267.433L288.56,267.433z"/>
	</g>
	<g>
		<path d="M292.89,265.191c0.9-0.276,1.733-0.706,2.546-1.174c0.642-0.371,0.063-1.364-0.581-0.993
			c-0.729,0.42-1.465,0.811-2.271,1.06C291.877,264.299,292.178,265.41,292.89,265.191L292.89,265.191z"/>
	</g>
	<g>
		<path d="M297.556,263.354c0.463-0.121,0.908-0.294,1.37-0.416c0.716-0.189,0.411-1.299-0.306-1.109
			c-0.462,0.123-0.907,0.294-1.37,0.418C296.534,262.436,296.84,263.545,297.556,263.354L297.556,263.354z"/>
	</g>
	<g>
		<path d="M291.976,269.801c0.759-0.447,1.482-0.95,2.283-1.325c0.67-0.314,0.086-1.305-0.581-0.993
			c-0.799,0.375-1.523,0.877-2.283,1.325C290.757,269.186,291.335,270.181,291.976,269.801L291.976,269.801z"/>
	</g>
	<g>
		<path d="M296.539,267.219c0.604-0.263,1.113-0.708,1.727-0.948c0.683-0.267,0.386-1.378-0.306-1.108
			c-0.712,0.278-1.305,0.76-2.002,1.063C295.28,266.521,295.866,267.511,296.539,267.219L296.539,267.219z"/>
	</g>
	<g>
		<path d="M300.385,265.615c0.513-0.21,0.993-0.494,1.514-0.683c0.693-0.248,0.395-1.358-0.305-1.107
			c-0.523,0.188-1,0.47-1.514,0.68C299.404,264.783,299.701,265.896,300.385,265.615L300.385,265.615z"/>
	</g>
	<g>
		<path d="M295.712,272.588c0.779-0.575,1.619-1.058,2.427-1.59c0.617-0.406,0.042-1.401-0.579-0.992
			c-0.809,0.532-1.649,1.015-2.43,1.59C294.542,272.031,295.114,273.028,295.712,272.588L295.712,272.588z"/>
	</g>
	<g>
		<path d="M300.547,269.948c0.62-0.312,1.242-0.625,1.862-0.938c0.663-0.333,0.08-1.325-0.581-0.993
			c-0.621,0.312-1.241,0.625-1.861,0.938C299.304,269.289,299.887,270.282,300.547,269.948L300.547,269.948z"/>
	</g>
	<g>
		<path d="M304.493,267.605c0.527-0.209,1.03-0.454,1.516-0.743c0.637-0.379,0.059-1.375-0.579-0.993
			c-0.4,0.238-0.809,0.456-1.242,0.629C303.507,266.768,303.803,267.88,304.493,267.605L304.493,267.605z"/>
	</g>
	<g>
		<path d="M299.888,275.635c0.648-0.631,1.492-0.997,2.307-1.365c0.674-0.303,0.09-1.293-0.582-0.993
			c-0.91,0.411-1.814,0.84-2.539,1.545C298.543,275.34,299.357,276.152,299.888,275.635L299.888,275.635z"/>
	</g>
	<g>
		<path d="M304.899,272.557c0.642-0.382,1.318-0.691,1.999-0.999c0.676-0.303,0.089-1.294-0.58-0.993
			c-0.681,0.306-1.357,0.617-2.001,0.999C303.682,271.941,304.259,272.936,304.899,272.557L304.899,272.557z"/>
	</g>
	<g>
		<path d="M310.01,269.793c0.519-0.275,1.097-0.405,1.645-0.612c0.686-0.26,0.39-1.372-0.306-1.109
			c-0.643,0.242-1.31,0.405-1.921,0.729C308.773,269.148,309.354,270.141,310.01,269.793L310.01,269.793z"/>
	</g>
	<g>
		<path d="M305.53,277.701c0.914-0.429,1.788-0.93,2.659-1.437c0.64-0.373,0.062-1.368-0.58-0.993
			c-0.871,0.508-1.745,1.008-2.659,1.438C304.279,277.023,304.863,278.015,305.53,277.701L305.53,277.701z"/>
	</g>
	<g>
		<path d="M313.741,273.461c0.771-0.429,1.56-0.913,2.377-1.235c0.683-0.27,0.386-1.381-0.305-1.109
			c-0.919,0.363-1.79,0.874-2.652,1.352C312.512,272.829,313.092,273.822,313.741,273.461L313.741,273.461z"/>
	</g>
	<g>
		<path d="M460.27,202.707c-4.596,0.679-5.73,7.036-5.723,10.831c0.01,4.4,2.278,8.443,7.097,8.12c0.735-0.049,0.741-1.199,0-1.15
			c-4.594,0.308-5.94-3.728-5.948-7.607c-0.007-3.158,1.159-8.535,4.88-9.084C461.306,203.708,460.995,202.6,460.27,202.707
			L460.27,202.707z"/>
	</g>
	<g>
		<path d="M484.702,143.854c-3.868,1.474-5.188,5.522-5.672,9.336c-0.548,4.326,2.05,7.396,5.75,9.176
			c0.665,0.32,1.248-0.671,0.58-0.992c-2.92-1.405-4.979-3.366-5.229-6.736c-0.258-3.511,1.395-8.349,4.876-9.675
			C485.693,144.701,485.396,143.589,484.702,143.854L484.702,143.854z"/>
	</g>
	<g>
		<path d="M390.837,187.191c0.003,4.302-6.115,9.529-10.348,9.294c-0.741-0.041-0.738,1.109,0,1.15
			c4.873,0.27,11.502-5.507,11.498-10.444C391.986,186.449,390.836,186.449,390.837,187.191L390.837,187.191z"/>
	</g>
	<g>
		<path d="M390.654,193.385c-0.145,1.024-0.931,1.705-1.647,2.377c-0.542,0.508,0.273,1.319,0.813,0.813
			c0.852-0.798,1.771-1.67,1.942-2.884C391.866,192.966,390.757,192.654,390.654,193.385L390.654,193.385z"/>
	</g>
	<g>
		<path d="M367.9,174.329c1.592-0.365,3.459-0.75,5.018-0.058c0.671,0.298,1.256-0.692,0.581-0.993
			c-1.879-0.834-3.963-0.502-5.904-0.058C366.872,173.385,367.178,174.494,367.9,174.329L367.9,174.329z"/>
	</g>
	<g>
		<path d="M369.52,171.543c0.615-0.071,1.17,0.008,1.764,0.171c0.715,0.197,1.02-0.912,0.306-1.108
			c-0.684-0.188-1.36-0.295-2.069-0.213C368.792,170.478,368.784,171.628,369.52,171.543L369.52,171.543z"/>
	</g>
	<g>
		<path d="M310.763,194.303c-1.904,2.205-0.362,5.556,1.311,7.371c2.383,2.582,6.398,3.476,9.74,2.789
			c0.725-0.15,0.417-1.257-0.306-1.109c-2.442,0.503-4.844-0.001-6.995-1.219c-1.908-1.081-4.902-4.742-2.938-7.018
			C312.057,194.558,311.248,193.741,310.763,194.303L310.763,194.303z"/>
	</g>
	<g>
		<path d="M307.72,202.183c-0.427,3.39,3.631,4.472,6.252,4.671c0.74,0.056,0.734-1.094,0-1.15
			c-2.026-0.152-5.437-0.854-5.103-3.521C308.961,201.449,307.811,201.458,307.72,202.183L307.72,202.183z"/>
	</g>
	<g>
		<path d="M296.512,299.763c1.624-0.988,3.478-0.403,3.898,1.524c0.158,0.725,1.267,0.418,1.109-0.305
			c-0.577-2.644-3.354-3.573-5.587-2.212C295.299,299.154,295.877,300.148,296.512,299.763L296.512,299.763z"/>
	</g>
	<path d="M463.375,224.601c-2.078,3.095-2.628,6.836-2.665,10.494c-0.008,0.741,1.142,0.741,1.149,0
		c0.036-3.47,0.537-6.979,2.509-9.915C464.782,224.563,463.786,223.988,463.375,224.601z"/>
	<g>
		<path d="M460.957,224.074c-2.231,3.612-4.303,7.326-6.708,10.827c-0.421,0.613,0.576,1.187,0.993,0.581
			c2.404-3.501,4.477-7.215,6.707-10.826C462.34,224.022,461.346,223.445,460.957,224.074L460.957,224.074z"/>
	</g>
	<path d="M453.856,220.669c-5.155,1.972-10.71,6.371-10.053,12.293c-3.816,1.842-6.604,6.13-6.314,10.512
		c0.026,0.406,0.102,0.797,0.197,1.178c-3.396,2.067-5.739,6.614-6.666,10.511c-0.321,1.347-0.436,2.729-0.263,4.052
		c-2.314,1.328-4.142,3.588-5.699,5.766c-0.854,1.192-1.811,2.948-2.274,4.744c-3.467,0.621-6.574,2.667-9.19,5.379
		c-0.986,1.022-2.047,2.489-2.845,4.099c-3.58-0.356-7.097,1.295-9.921,3.371c-1.019,0.748-2.019,1.628-2.896,2.611
		c-1.514-0.48-3.192-0.489-4.943-0.22c-3.569,0.551-9.061,3.487-12.319,7.244c-4.386-2.12-10.378,0.4-14.821,3.762
		c-4.396-2.682-12.583-0.992-15.729,1.83c-1.111,0.997-2.122,2.044-3.001,3.165c-2.96-1.164-7.436-0.561-9.788-0.054
		c-2.08,0.448-3.91,1.517-5.425,2.947c-0.027-0.029-0.053-0.061-0.08-0.09c-4.589-4.953-11.711-2.524-16.066,1.154
		c-0.39,0.328-0.744,0.696-1.067,1.093c-0.767-0.486-1.506-0.86-2.132-1.084c-2.603-0.925-4.999-0.339-7.357,0.952
		c-1.408,0.771-5.4,4.58-6.891,1.031c-0.715-1.705,0.42-4.282,1.124-5.816c0.922-2.005-2.05-3.76-2.978-1.74
		c-2.03,4.422-3.095,10.294,2.547,12.18c2.917,0.975,5.693-1.188,7.938-2.675c2.119-1.404,4.214-0.904,6.05,0.245
		c-0.875,2.417-1.042,5.174-0.534,7.494c1,4.566,5.564,1.006,6.942-1.026c1.685-2.481,0.11-5.349-2.13-7.521
		c2.664-4.223,8.632-4.327,12.251-1.252c-0.859,1.396-1.499,2.92-1.873,4.463c-0.918,3.786,3.493,5.842,6.231,3.218
		c2.451-2.349,1.684-5.364,0.089-7.933c2.045-1.838,4.983-2.643,7.655-2.729c1.177-0.019,2.34,0.118,3.492,0.38
		c-0.523,1.116-0.934,2.3-1.174,3.593c-0.451,2.421,1.958,4.721,4.313,3.121c2.772-1.884,2.911-4.892,1.436-7.672
		c0.511-0.661,1.06-1.301,1.666-1.93c1.71-1.776,8.281-4.532,11.794-3.022c-0.699,0.688-1.318,1.377-1.823,2.038
		c-1.973,2.58-1.057,5.626,1.908,6.649c3.499,1.209,5.752-3.959,5.451-6.524c-0.099-0.848-0.338-1.584-0.678-2.229
		c2.398-1.928,5.669-2.868,8.652-3.093c0.524,0.702,1.003,1.314,1.443,1.859c-0.084,0.44-0.137,0.882-0.129,1.326
		c0.128,7.581,9.562,3,6.163-2.789c-0.197-0.333-0.405-0.638-0.621-0.926c0.658-0.729,1.39-1.398,2.103-2.033
		c2.593-2.311,6.106-4.187,9.604-4.414c0.208-0.013,0.445-0.001,0.69,0.024c-0.581,1.242-0.9,2.582-0.815,4
		c0.191,3.165,3.124,5.131,5.767,3.127c2.401-1.819,2.167-5.544,0.468-7.732c-0.161-0.207-0.337-0.375-0.507-0.557
		c1.251-1.213,2.775-2.235,3.931-2.972c1.521-0.969,3.084-1.259,4.823-1.322c-0.157,1.062-0.112,2.094,0.24,3.016
		c1.456,3.797,5.373,2.623,6.888-0.164c1.25-2.295-0.557-4.242-2.496-5.317c0.538-0.977,1.175-1.909,1.818-2.717
		c1.731-2.181,4.077-3.638,6.691-4.269c0.157,0.519,0.397,1.008,0.764,1.443c1.795,2.134,4.82,2.37,6.666,0.119
		c1.427-1.738,0.342-4.254-1.747-4.835c-0.51-0.143-1.012-0.239-1.51-0.318c0.987-2.009,2.123-4.287,2.481-4.729
		c0.396-0.49,1.431-1.583,2.532-2.534c0.151,0.234,0.306,0.468,0.489,0.69c1.366,1.655,4.71,1.682,5.329-0.703
		c0.502-1.933-0.583-4.424-2.92-4.366c-0.251,0.005-0.496,0.025-0.738,0.054c0.066-1.19,0.374-2.431,0.511-3.007
		c0.571-2.397,2.29-5.998,4.718-7.475c1.991,2.093,5.095,2.418,6.617-1.251c0.276-0.665-0.165-1.644-0.793-1.949
		c-1.577-0.766-3.056-0.999-4.421-0.835c0.052-0.846,0.29-1.946,0.745-3.34c0.735-1.692,1.959-3.219,3.517-4.071
		c1.929,2.48,5.694,1.998,6.701-1.589c0.264-0.943-0.318-1.826-1.205-2.122s-1.775-0.428-2.648-0.433
		c-0.43-2.058,0.251-3.759,2.08-5.092c1.422-1.324,3.049-2.3,4.88-2.934C456.828,223.209,455.937,219.873,453.856,220.669z
		 M331.495,310.413c0.08-0.195,0.176-0.382,0.262-0.573c0.061,0.143,0.139,0.271,0.192,0.419
		C331.12,311.61,330.97,311.662,331.495,310.413z M365.229,300.896c0.042,0.18,0.102,0.339,0.126,0.539
		C363.937,302.436,363.905,302.248,365.229,300.896z"/>
	<path d="M452.733,170.305c-5.208-0.044-10.288,1.221-15.262,2.649c-2.134,0.612-1.226,3.941,0.917,3.326
		c0.399-0.114,0.801-0.227,1.202-0.339c0.103,0.762,0.646,1.438,1.645,1.407c4.182-0.133,8.917-1.41,12.368-3.828
		C454.962,172.567,454.543,170.32,452.733,170.305z"/>
	<path d="M430.143,172.667c-0.73,0.15-1.449,0.178-2.163,0.135c-0.254-0.156-0.574-0.237-0.972-0.197
		c-0.112,0.011-0.236,0.025-0.358,0.039c-3.544-0.652-6.983-2.803-10.708-2.338c-1.224,0.153-2.243,1.368-1.489,2.595
		c2.495,4.056,8.46,3.571,12.556,3.154c0.059-0.006,0.109-0.023,0.166-0.034c1.258,0.208,2.543,0.249,3.885-0.028
		C433.236,175.543,432.312,172.218,430.143,172.667z"/>
	<path d="M461.14,153.416c-0.082-0.13-0.175-0.25-0.279-0.357c0.451-2.397,0.212-5.243-0.746-7.481
		c-0.416-0.975-1.448-1.036-2.232-0.608c-4.148-1.624-7.091,5.412-5.828,8.705c0.517,1.345,1.571,1.754,2.613,1.53
		c0.1,0.129,0.216,0.25,0.358,0.35c0.908,0.637,1.82,0.899,2.651,0.847c0.312,0.367,0.659,0.698,1.081,0.943
		c1.085,0.63,2.514,0.257,3.146-0.825C462.525,155.461,462.172,154.064,461.14,153.416z"/>
	<path d="M429.349,149.277c-0.016-0.092-0.054-0.173-0.081-0.261c0.014-0.09,0.034-0.177,0.039-0.269
		c0.097-1.648-0.262-3.345-1.45-4.553c-1.535-1.558-4.272-1.251-5.756,0.221c-2.092,2.074-2.68,5.892-2.177,8.689
		c0.208,1.156,1.599,2.226,2.771,2.11c1.187-0.117,2.277-0.251,3.403,0.185c1.742,0.673,3.686-1.035,3.64-2.771
		C429.709,151.501,429.531,150.387,429.349,149.277z"/>
	<path d="M511.373,124.916c-1.374-1.974-3.572-3.958-6.02-5.288c2.042-6.898,1.45-14.986-4.008-19.182
		c-3.118-5.908-9.544-9.215-16.382-8.552c-0.928-1.239-2.309-1.943-3.741-2.121c-0.021-1.492-0.4-2.977-1.236-4.329
		c-2.826-4.565-7.468-6.763-12.348-8.565c-11.438-4.222-27.83-2.85-37.461,5.487c-1.902-3.513-5.437-5.181-10.582-4.434
		c-7.084,1.03-12.367,8.466-14.282,14.933c-10.027,4.101-18.938,11.771-22.036,22.046c-1.17,3.88-0.961,9.525,2.43,12.336
		c-2.182,4.095-3.058,9.732-0.535,13.474c0.745,1.104,1.802,1.898,2.976,2.287c0.195,0.717,0.637,1.349,1.337,1.83
		c1.035,0.711,2.547,0.197,3.146-0.825c0.358-0.611,0.384-1.264,0.181-1.849c1.911-1.535,2.733-4.515,1.301-6.653
		c-0.003-0.138-0.015-0.275-0.012-0.414c-0.001-0.084,0.066-0.685,0.079-0.883c0.134-0.69,0.325-1.37,0.548-2.036
		c-0.396,1.177,1.158-1.552,0.008-0.183c0.683-0.812,1.151-1.749,1.357-2.715c1.627-0.251,3.252-0.675,4.855-1.178
		c5.338-1.672,12.441-5.273,17.766-10.106c3.988,3.886,9.066,5.889,14.452,6.369c0.989,0.572,2.113,0.952,3.262,1.069
		c5.015,0.51,10.263-0.376,14.978-2.049c1.33-0.472,2.596-1.03,3.801-1.666c0.727,1.458,1.973,2.669,3.503,3.483
		c2.429,2.878,7.113,3.401,11.322,2.81c-0.308,0.848-0.477,1.75-0.453,2.701c0.242,10.006,11.411,13.13,19.72,10.749
		c0.007,0.006,0.013,0.013,0.019,0.02c4.412,4.065,5.547,9.167,5.553,14.995c0.005,5.998-4.031,12.564-2.419,18.425
		c1.196,4.347,6.862,6.604,10.754,4.325c4.331-2.538,4.149-6.492,4.03-10.608c2.382-2.174,3.737-4.372,4.229-8.162
		c0.264-2.035,0.033-3.81-0.708-5.721c-0.096-0.244-0.174-0.443-0.245-0.621c0.697-1.115,1.613-2.129,2.368-3.208
		C517.877,143.775,516.032,131.607,511.373,124.916z"/>
</g>
</svg>
