<?xml version="1.0" encoding="utf-8"?>
<!-- Generator: Adobe Illustrator 15.1.0, SVG Export Plug-In . SVG Version: 6.00 Build 0)  -->
<!DOCTYPE svg PUBLIC "-//W3C//DTD SVG 1.1//EN" "http://www.w3.org/Graphics/SVG/1.1/DTD/svg11.dtd">
<svg version="1.1" id="Layer_1" xmlns="http://www.w3.org/2000/svg" xmlns:xlink="http://www.w3.org/1999/xlink" x="0px" y="0px"
	 width="841.89px" height="595.28px" viewBox="0 0 841.89 595.28" enable-background="new 0 0 841.89 595.28" xml:space="preserve">
<g>
	<g>
		<path d="M483.01,192.895c-1.941,3.244-3.827,6.5-5.312,9.981c-0.794,1.86-1.797,4.369-0.839,6.375
			c1.904,3.99,7.615,2.72,10.893,1.582c1.35-0.469,0.771-2.623-0.592-2.15c-2.09,0.725-8.034,2.536-8.435-1.119
			c-0.243-2.2,1.384-4.75,2.302-6.628c1.163-2.378,2.551-4.648,3.909-6.917C485.675,192.784,483.747,191.664,483.01,192.895
			L483.01,192.895z"/>
	</g>
	<g>
		<path d="M482.593,236.932c5.182,8.201,16.436,6.041,22.648,0.226c1.051-0.984-0.527-2.558-1.576-1.576
			c-5.104,4.777-14.765,7.164-19.148,0.225C483.752,234.595,481.822,235.713,482.593,236.932L482.593,236.932z"/>
	</g>
	<g>
		<path d="M467.387,218.105c13.914,10.044,39.177,5.992,50.394-6.583c0.953-1.069-0.617-2.651-1.577-1.576
			c-10.566,11.846-34.59,15.692-47.69,6.234C467.346,215.337,466.233,217.272,467.387,218.105L467.387,218.105z"/>
	</g>
	<g>
		<path d="M491.774,190.95c9.918,1.176,20.208-0.067,28.566-5.865c1.173-0.813,0.06-2.746-1.125-1.924
			c-8.074,5.6-17.878,6.694-27.441,5.56C490.349,188.552,490.365,190.783,491.774,190.95L491.774,190.95z"/>
	</g>
	<g>
		<path d="M449.972,190.937c8.182,4.234,18.09,2.859,26.773,1.088c1.409-0.288,0.811-2.436-0.593-2.15
			c-8.008,1.635-17.48,3.056-25.055-0.862C449.823,188.354,448.695,190.276,449.972,190.937L449.972,190.937z"/>
	</g>
	<g>
		<path d="M494.01,189.168c-2.403-6.027,1.999-12.843,7.034-16.024c8.481-5.356,13.809,4.229,13.905,11.583
			c0.019,1.436,2.247,1.438,2.229,0c-0.11-8.431-5.091-17.41-14.658-14.688c-7.463,2.124-13.603,12.337-10.658,19.72
			C492.388,191.079,494.544,190.504,494.01,189.168L494.01,189.168z"/>
	</g>
	<g>
		<path d="M453.235,189.725c-1.624-5.451,3.503-11.176,7.661-14.067c9.53-6.627,15.966,3.719,14.855,12.506
			c-0.179,1.423,2.052,1.406,2.23,0c1.146-9.073-3.986-18.701-14.266-16.277c-6.963,1.642-14.799,11.156-12.631,18.43
			C451.496,191.691,453.646,191.106,453.235,189.725L453.235,189.725z"/>
	</g>
	<g>
		<path d="M460.63,168.062c4.321-1.491,8.659-1.376,12.795,0.63c1.287,0.625,2.419-1.297,1.126-1.924
			c-4.666-2.264-9.611-2.546-14.513-0.856C458.686,166.377,459.268,168.531,460.63,168.062L460.63,168.062z"/>
	</g>
	<g>
		<path d="M499.547,167.504c3.802-0.804,7.57-0.82,11.123,0.909c1.286,0.626,2.418-1.296,1.126-1.924
			c-4.123-2.006-8.418-2.07-12.841-1.134C497.549,165.652,498.146,167.801,499.547,167.504L499.547,167.504z"/>
	</g>
	<g>
		<path d="M456.147,177.914c-4.887,2.244-7.331,16.284,0.487,15.04c5.097-0.811,8.321-6.425,8.178-11.268
			c-0.146-4.978-4.971-5.536-8.665-3.958c-1.317,0.562-0.181,2.481,1.127,1.924c3.749-1.601,5.918,0.497,5.132,4.417
			c-0.571,2.85-3.597,7.368-7.012,6.627c-2.122-0.459-1.644-4.254-1.36-5.698c0.383-1.957,1.323-4.279,3.24-5.16
			C458.58,179.239,457.446,177.319,456.147,177.914L456.147,177.914z"/>
	</g>
	<g>
		<path d="M495.902,176.056c-3.011,2.119-4.632,6.552-3.983,10.156c0.627,3.475,4.099,5.913,7.54,4.256
			c6.701-3.225,5.918-14.687-2.02-15.354c-1.434-0.121-1.421,2.11,0,2.229c5.543,0.466,5.423,8.13,1.595,10.826
			c-2.616,1.841-4.881-0.668-5.002-3.241c-0.114-2.414,0.963-5.516,2.996-6.947C498.193,177.16,497.082,175.226,495.902,176.056
			L495.902,176.056z"/>
	</g>
	<g>
		<path d="M459.081,137.498c-22.37,18.958-29.151,60.237-13.833,85.293c17.113,27.995,58.391,32.885,85.591,18.263
			c1.267-0.681,0.141-2.605-1.125-1.924c-27.161,14.601-66.486,8.801-83.29-18.688c-7.474-12.224-7.833-28.197-5.745-41.953
			c2.228-14.677,8.464-29.657,19.979-39.415C461.756,138.144,460.171,136.574,459.081,137.498L459.081,137.498z"/>
	</g>
	<g>
		<path d="M466.569,136.748c-5.832,12.337-15.684,24.132-30.124,26.099c-1.419,0.193-0.812,2.341,0.593,2.149
			c14.94-2.034,25.412-14.338,31.457-27.123C469.105,136.582,467.184,135.449,466.569,136.748L466.569,136.748z"/>
	</g>
	<g>
		<path d="M440.08,170.344c-6.115,2.989-7.966-10.178-7.972-13.054c-0.011-5.142,2.627-9.867,5.769-13.745
			c5.784-7.143,14.316-11.864,22.138-16.418c1.24-0.723,0.119-2.649-1.126-1.924c-10.736,6.251-22.792,13.161-27.678,25.24
			c-2.322,5.745-0.611,27.011,9.995,21.826C442.496,171.636,441.366,169.714,440.08,170.344L440.08,170.344z"/>
	</g>
	<g>
		<path d="M459.639,136.288c11.486,14.443,26.13,22.019,43.846,26.423c17.552,4.363,36.616,5.077,54.207,0.614
			c1.395-0.353,0.802-2.504-0.592-2.15c-17.354,4.404-35.699,3.422-53.023-0.614c-17.318-4.036-31.728-11.848-42.861-25.848
			C460.32,133.586,458.754,135.175,459.639,136.288L459.639,136.288z"/>
	</g>
	<g>
		<path d="M515.193,165.599c4.012,7.059,12.775,8.52,20.189,9.19c1.432,0.13,1.419-2.101,0-2.229
			c-6.579-0.595-14.686-1.788-18.264-8.086C516.409,163.224,514.482,164.347,515.193,165.599L515.193,165.599z"/>
	</g>
	<g>
		<path d="M527.343,173.877c1.05,2.594,3.436,3.825,6.071,4.401c-0.272-0.358-0.544-0.716-0.818-1.075
			c0.244,2.632,2.975,11.739,7.064,9.136c1.209-0.77,0.092-2.699-1.125-1.925c-1.381,0.879-3.605-6.088-3.709-7.211
			c-0.046-0.479-0.306-0.962-0.82-1.075c-1.732-0.38-3.784-1.04-4.516-2.844C528.959,171.971,526.801,172.544,527.343,173.877
			L527.343,173.877z"/>
	</g>
	<g>
		<path d="M540.172,185.081c-1.347-6.514,6.749-22.19,14.804-15.673c2.883,2.333,2.5,7.328,1.845,10.509
			c-0.283,1.368-0.827,2.66-1.501,3.877c-0.482,0.866-7.182,8.87-8.553,5.282c-0.507-1.329-2.661-0.752-2.148,0.592
			c2.357,6.173,9.778-0.852,11.898-3.639c3.418-4.495,4.044-11.706,1.311-16.63c-2.581-4.651-8.972-4.328-12.611-1.276
			c-4.868,4.082-8.528,11.094-7.192,17.55C538.314,187.081,540.463,186.484,540.172,185.081L540.172,185.081z"/>
	</g>
	<g>
		<path d="M547.939,177.907c1.652-0.427,1.425,2.631,0.877,3.472c-0.787,1.208,1.144,2.324,1.925,1.125
			c1.681-2.582,0.391-7.724-3.394-6.747C545.956,176.117,546.546,178.267,547.939,177.907L547.939,177.907z"/>
	</g>
	<g>
		<path d="M462.069,130.932c-3.836-9.981,13.522-15.876,20.238-18.351c9.21-3.394,18.744-6.103,28.396-7.869
			c13.231-2.423,27.888-2.739,39.995,3.889c13.346,7.308,20.496,25.887,4.677,34.668c-1.258,0.697-0.133,2.623,1.125,1.925
			c13.256-7.358,12.586-21.418,3.434-32.03c-10.515-12.194-28.628-13.225-43.442-11.551c-12.938,1.462-25.826,5.285-37.938,10.019
			c-7.456,2.913-22.702,9.31-18.633,19.892C460.43,132.851,462.586,132.275,462.069,130.932L462.069,130.932z"/>
	</g>
	<g>
		<path d="M561.99,141.954c7.463-8.712,14.012,19.906,14.26,23.547c0.098,1.425,2.327,1.436,2.229,0
			c-0.36-5.288-7.811-37.095-18.063-25.124C559.485,141.462,561.055,143.047,561.99,141.954L561.99,141.954z"/>
	</g>
	<g>
		<path d="M576.29,165.205c-7.471,20.213-15.051,41.674-30.689,57.141c-1.022,1.012,0.555,2.588,1.576,1.576
			c15.925-15.749,23.654-37.538,31.262-58.125C578.939,164.445,576.784,163.868,576.29,165.205L576.29,165.205z"/>
	</g>
	<g>
		<path d="M546.477,191.525c4.122,17.397-1.408,37.42-16.766,47.598c-1.191,0.79-0.077,2.722,1.127,1.925
			c16.211-10.745,22.151-31.702,17.787-50.115C548.294,189.534,546.144,190.127,546.477,191.525L546.477,191.525z"/>
	</g>
	<g>
		<path d="M559.024,206.392c-9.618,12.136-19.952,23.666-30.142,35.32c-0.941,1.077,0.628,2.66,1.576,1.576
			c10.19-11.654,20.522-23.184,30.142-35.32C561.483,206.854,559.918,205.265,559.024,206.392L559.024,206.392z"/>
	</g>
	<g>
		<path d="M529.107,243.462c5.883,3.187,10.616,9.928,11.889,16.47c0.273,1.412,2.421,0.812,2.148-0.592
			c-1.375-7.072-6.559-14.361-12.911-17.803C528.969,240.853,527.845,242.777,529.107,243.462L529.107,243.462z"/>
	</g>
	<g>
		<path d="M559.024,207.968c3.451,3.337,6.67,6.854,9.53,10.713c0.846,1.14,2.782,0.031,1.924-1.125
			c-2.974-4.014-6.287-7.692-9.878-11.164C559.567,205.392,557.99,206.967,559.024,207.968L559.024,207.968z"/>
	</g>
	<g>
		<path d="M569.007,217.47c-10.604,12.534-19.596,27.47-27.898,41.604c-0.73,1.242,1.197,2.363,1.924,1.125
			c8.203-13.962,17.076-28.772,27.551-41.153C571.506,217.956,569.937,216.371,569.007,217.47L569.007,217.47z"/>
	</g>
	<g>
		<path d="M531.178,244.205c1.191,41.601,2.385,83.201,3.578,124.8c0.042,1.436,2.271,1.439,2.229,0
			c-1.193-41.6-2.387-83.199-3.579-124.8C533.365,242.77,531.136,242.766,531.178,244.205L531.178,244.205z"/>
	</g>
	<g>
		<path d="M566.854,225.067c16.765,6.88,28.19,21.076,39.521,34.588c0.926,1.103,2.492-0.483,1.576-1.576
			c-11.639-13.881-23.311-28.105-40.505-35.163C566.115,222.372,565.542,224.529,566.854,225.067L566.854,225.067z"/>
	</g>
	<g>
		<path d="M606.088,259.165c4.435,26.545,4.469,53.493,4.119,80.327c-0.349,26.938-0.049,53.68-4.564,80.35
			c-0.239,1.404,1.908,2.006,2.148,0.592c4.535-26.777,4.647-53.859,4.646-80.941c-0.003-27.107,0.283-54.082-4.2-80.919
			C608,257.155,605.853,257.757,606.088,259.165L606.088,259.165z"/>
	</g>
	<g>
		<path d="M573.836,283.46c-0.009,43.801-0.507,87.604-1.937,131.383c-0.047,1.438,2.183,1.434,2.229,0
			c1.432-43.779,1.928-87.582,1.937-131.383C576.064,282.024,573.836,282.024,573.836,283.46L573.836,283.46z"/>
	</g>
	<g>
		<path d="M570.737,287.46c2.715,3.92,2.995,8.75,3.19,13.369c0.062,1.432,2.291,1.438,2.23,0
			c-0.212-4.992-0.563-10.26-3.497-14.494C571.849,285.161,569.916,286.274,570.737,287.46L570.737,287.46z"/>
	</g>
	<g>
		<path d="M605.724,258.004c-10.179,2.114-18.124,10.337-21.398,20.004c-0.463,1.365,1.691,1.947,2.148,0.592
			c3.038-8.964,10.43-16.491,19.842-18.446C607.723,259.863,607.125,257.713,605.724,258.004L605.724,258.004z"/>
	</g>
	<g>
		<path d="M573.273,398.249c9.751,6.07,24.583,8.805,35.688,5.547c1.377-0.402,0.792-2.555-0.592-2.148
			c-10.465,3.066-24.746,0.42-33.972-5.322C573.174,395.563,572.056,397.491,573.273,398.249L573.273,398.249z"/>
	</g>
	<g>
		<path d="M572.212,415.632c10.041,8.074,22.719,9.82,34.801,5.58c1.347-0.473,0.767-2.629-0.593-2.15
			c-11.273,3.957-23.207,2.574-32.632-5.006C572.679,413.163,571.091,414.729,572.212,415.632L572.212,415.632z"/>
	</g>
	<path d="M584.62,410.103c-0.208-0.607-0.567-1.082-1.001-1.391c-0.111-0.268-0.334-0.494-0.71-0.586
		c-2.263-0.549-3.872,1.658-3.653,3.76c0.204,1.977,2.548,3.674,4.393,2.385C584.941,413.368,585.097,411.493,584.62,410.103z"/>
	<g>
		<path d="M509.546,247.734c-11.094,66.24-15.866,133.236-16.402,200.359c-0.012,1.438,2.218,1.436,2.229,0
			c0.536-66.924,5.263-133.723,16.321-199.767C511.931,246.921,509.781,246.318,509.546,247.734L509.546,247.734z"/>
	</g>
	<g>
		<path d="M507.888,266.929c-5.5-4.279-14.149-2.322-18.712,2.508c-0.986,1.044,0.586,2.622,1.576,1.575
			c3.617-3.828,11.038-6.024,15.56-2.507C507.433,269.376,509.022,267.811,507.888,266.929L507.888,266.929z"/>
	</g>
	<g>
		<path d="M500.564,247.371c-4.381,6.895-8.811,14.602-11.954,22.141c-0.555,1.325,1.604,1.899,2.149,0.592
			c1.59-3.815,3.77-7.305,5.813-10.885c2.027-3.55,3.72-7.266,5.917-10.723C503.263,247.279,501.333,246.162,500.564,247.371
			L500.564,247.371z"/>
	</g>
	<g>
		<path d="M499.207,248.213c-5.631,5.575-11.681,10.673-17.807,15.69c-1.113,0.91,0.473,2.479,1.576,1.575
			c6.125-5.017,12.176-10.114,17.806-15.689C501.805,248.777,500.229,247.201,499.207,248.213L499.207,248.213z"/>
	</g>
	<g>
		<path d="M481.114,264.395c-4.239,27.92-7.183,56.004-10.028,84.094c-0.145,1.432,2.085,1.416,2.229,0
			c2.825-27.891,5.74-55.777,9.947-83.501C483.476,263.583,481.328,262.978,481.114,264.395L481.114,264.395z"/>
	</g>
	<g>
		<path d="M494.76,287.077c-4.738,10.949-6.23,23.734-8.497,35.391c-2.49,12.797-4.432,25.697-6.101,38.625
			c-3.571,27.656-5.465,55.5-4.917,83.391c0.028,1.436,2.257,1.438,2.229,0c-0.505-25.75,1.121-51.414,4.127-76.98
			c1.583-13.459,3.585-26.867,6.012-40.199c1.163-6.377,2.477-12.725,3.876-19.053c1.503-6.781,2.414-13.617,5.196-20.047
			C497.25,286.899,495.33,285.761,494.76,287.077L494.76,287.077z"/>
	</g>
	<g>
		<path d="M476.062,445.558c5.852,2.338,11.929,3.334,18.195,3.65c1.438,0.072,1.43-2.158,0-2.23
			c-6.077-0.305-11.938-1.305-17.604-3.568C475.318,442.874,474.744,445.032,476.062,445.558L476.062,445.558z"/>
	</g>
	<g>
		<path d="M451.772,359.128c8.983-3.74,17.812-7.809,26.308-12.566c1.254-0.701,0.131-2.629-1.125-1.926
			c-8.326,4.664-16.97,8.674-25.774,12.342C449.872,357.522,450.445,359.681,451.772,359.128L451.772,359.128z"/>
	</g>
	<g>
		<path d="M433.862,395.013c6.932,0.451,14.381-2.258,21.102-3.729c8.234-1.805,16.329-4.104,24.134-7.307
			c1.312-0.537,0.737-2.695-0.592-2.148c-7.208,2.955-14.636,5.092-22.211,6.869c-6.954,1.633-15.27,4.553-22.433,4.086
			C432.428,392.688,432.437,394.917,433.862,395.013L433.862,395.013z"/>
	</g>
	<g>
		<path d="M429.63,364.099c3.082,9.764,4.806,19.857,3.157,30.061c-0.227,1.404,1.922,2.008,2.151,0.592
			c1.716-10.629,0.057-21.057-3.159-31.244C431.35,362.142,429.195,362.726,429.63,364.099L429.63,364.099z"/>
	</g>
	<g>
		<path d="M430.258,364.321c7.085-2.682,14.205-5.396,20.329-9.959c1.138-0.848,0.03-2.783-1.126-1.924
			c-5.975,4.451-12.88,7.115-19.795,9.732C428.334,362.675,428.911,364.831,430.258,364.321L430.258,364.321z"/>
	</g>
	<g>
		<path d="M448.949,353.696c2.954,12.215,3.686,24.584,1.593,36.998c-0.236,1.404,1.912,2.006,2.15,0.592
			c2.159-12.809,1.453-25.58-1.593-38.182C450.762,351.708,448.611,352.3,448.949,353.696L448.949,353.696z"/>
	</g>
	<g>
		<path d="M446.308,380.339c-0.758-0.76-1.682-1.062-2.684-0.613c-0.834,0.371-1.275,1.43-1.526,2.234
			c-0.492,1.566-0.741,4.262,0.62,5.5c0.776,0.703,1.842,0.596,2.666,0.029c1.26-0.869,2.193-2.271,2.105-3.842
			c-0.077-1.365-0.907-2.781-2.249-3.219c-1.763-0.574-2.478,1.453-2.507,2.787c-0.033,1.438,2.197,1.436,2.229,0
			c0.004-0.188,0.007-0.369,0.04-0.553c0.044-0.229,0.244-0.355-0.063-0.121c-0.102,0.08-0.252,0.045-0.354,0.002
			c0.166,0.072,0.171,0.107,0.27,0.207c0.486,0.49,0.523,1.316,0.212,1.9c-0.172,0.328-0.471,0.6-0.738,0.848
			c-0.108,0.102-0.089,0.084-0.255,0.186c-0.255,0.16-0.02,0.031-0.151,0.068c0.183-0.053,0.311,0.074,0.321,0.084
			c-0.119-0.109,0.109,0.191-0.047-0.074c-0.152-0.262,0.006,0.057-0.056-0.131c-0.309-0.9-0.191-2.061,0.107-3.08
			c0.129-0.443,0.264-0.705,0.484-0.912c-0.236,0.221,0.216-0.049-0.121,0.072c0.067-0.025-0.076,0-0.176-0.018
			c0.146,0.025-0.151-0.105,0.113,0.051c0.106,0.062,0.004-0.012,0.184,0.168C445.747,382.935,447.322,381.358,446.308,380.339
			L446.308,380.339z"/>
	</g>
	<g>
		<path d="M443.721,382.515c-0.29,0.551-0.515,1.049-0.57,1.676c-0.111,1.256,1.939,1.521,2.189,0.297
			c0.046-0.227-0.105,0.184,0.057-0.141c0.088-0.176,0.182-0.363,0.223-0.555c0.229-1.119-1.006-1.824-1.863-1.086
			c-0.925,0.799-1.021,1.904-0.313,2.883c0.354,0.492,0.962,0.73,1.524,0.4c0.486-0.283,0.757-1.031,0.399-1.523
			c-0.05-0.072-0.231-0.387-0.214-0.332c0.081,0.252-0.115,0.404,0.18,0.148c-0.621-0.361-1.241-0.723-1.862-1.084
			c-0.046,0.227,0.104-0.184-0.057,0.143c-0.088,0.176-0.183,0.361-0.223,0.555c0.729,0.1,1.459,0.197,2.189,0.295
			c0.017-0.188,0.18-0.389,0.266-0.551C446.314,382.368,444.391,381.241,443.721,382.515L443.721,382.515z"/>
	</g>
	<g>
		<path d="M402.928,359.128c-3.991,2.639-8.444,3.021-12.664,4.961c-2.233,1.027-5.632,3.412-4.796,6.412
			c2.423,8.701,16.009,2.723,20.815,0.303c1.282-0.646,0.154-2.568-1.127-1.924c-3.042,1.531-6.071,2.85-9.406,3.58
			c-1.618,0.352-3.31,0.379-4.923,0.041c-3.007-0.631-3.77-3.748-1.125-5.629c1.936-1.373,4.639-1.803,6.894-2.414
			c2.648-0.715,5.175-1.896,7.458-3.406C405.246,360.263,404.13,358.331,402.928,359.128L402.928,359.128z"/>
	</g>
	<g>
		<path d="M404.645,370.229c1.029,4.518,6.732,5.668,10.659,4.959c1.414-0.254,0.812-2.402-0.593-2.148
			c-2.75,0.496-7.185-0.189-7.917-3.402C406.475,368.237,404.324,368.831,404.645,370.229L404.645,370.229z"/>
	</g>
	<g>
		<path d="M403.378,361.163c9.128,1.541,18.146,3.648,27.33,4.848c1.425,0.184,1.405-2.047,0-2.23
			c-8.985-1.172-17.81-3.262-26.738-4.764C402.563,358.778,401.961,360.925,403.378,361.163L403.378,361.163z"/>
	</g>
	<g>
		<path d="M397.132,383.806c-4.792,2.898-7.033,9.012-7.73,14.336c-0.279,2.123-0.643,10.838,3.961,9.076
			c5.502-2.105,8.132-11.516,8.81-16.664C402.647,386.946,402.208,380.749,397.132,383.806c-1.231,0.74-0.11,2.668,1.125,1.926
			c3.259-1.963,1.26,7.023,1.055,7.881c-0.595,2.486-1.736,4.826-2.905,7.08c-0.536,1.033-3.808,6.312-4.736,2.982
			c-1.597-5.725,1.682-14.977,6.586-17.943C399.485,384.989,398.365,383.06,397.132,383.806L397.132,383.806z"/>
	</g>
	<g>
		<path d="M396.858,400.101c-0.785,2.195-1.903,8.184,2.145,8.102c3.574-0.074,5.366-3.654,6.485-6.568
			c1.042-2.707,2.274-8.201-0.416-10.391c-2.28-1.854-4.99,1.604-6.003,3.301c-0.737,1.238,1.189,2.359,1.925,1.125
			c0.278-0.465,2.22-3.383,2.889-2.469c1.177,1.605,0.319,4.85-0.126,6.549c-0.521,1.971-1.453,4.039-2.916,5.486
			c-1.043,1.033-2.4,1.094-2.576-0.723c-0.126-1.293,0.314-2.623,0.742-3.82C399.494,399.335,397.339,398.757,396.858,400.101
			L396.858,400.101z"/>
	</g>
	<g>
		<path d="M393.216,391.497c0.476-3.561-0.84-7.959-5.195-6.08c-4.066,1.752-5.592,7.42-6.122,11.303
			c-0.462,3.365,0.186,8.623,4.295,9.408c3.414,0.65,4.689-4.82,5.213-7.111c0.318-1.398-1.832-1.992-2.15-0.592
			c-0.374,1.643-0.819,3.24-1.685,4.701c-1.475,2.488-3.134-1.348-3.401-2.33c-0.366-1.354-0.193-2.967-0.007-4.326
			c0.279-2.049,0.918-4.223,1.921-6.031c0.592-1.066,1.518-2.008,2.48-2.744c2.708-2.072,2.625,2.273,2.42,3.803
			C390.794,392.919,393.026,392.899,393.216,391.497L393.216,391.497z"/>
	</g>
	<g>
		<path d="M383.982,393.06c-0.001-1.926-1.263-4.744-3.678-4.201c-2.392,0.537-3.506,3.26-4.038,5.398
			c-0.579,2.336-0.398,4.887,1.134,6.799c1.744,2.174,4.751,0.943,6.255-0.75c0.952-1.07-0.619-2.652-1.576-1.574
			c-0.834,0.936-1.957,1.791-3.103,0.748c-0.878-0.801-0.806-2.438-0.741-3.502c0.069-1.186,0.479-2.389,1.02-3.436
			c0.265-0.518,0.629-0.998,1.095-1.357c1.093-0.838,1.403,1.439,1.403,1.875C381.754,394.497,383.983,394.497,383.982,393.06
			L383.982,393.06z"/>
	</g>
	<g>
		<path d="M431.913,392.321c-2.314,2.111-5.04,3.605-8.006,4.588c-1.357,0.451-0.777,2.604,0.593,2.15
			c3.338-1.107,6.385-2.789,8.99-5.164C434.555,392.925,432.973,391.353,431.913,392.321L431.913,392.321z"/>
	</g>
	<g>
		<path d="M528.384,241.473c-2.749,6.131-5.125,12.416-7.803,18.576c-0.566,1.306,1.354,2.441,1.925,1.126
			c2.677-6.16,5.054-12.446,7.803-18.576C530.892,241.298,528.971,240.164,528.384,241.473L528.384,241.473z"/>
	</g>
	<g>
		<path d="M522.199,261.853c3.232-1.657,6.747-1.725,10.005-0.096c1.282,0.642,2.411-1.281,1.126-1.924
			c-4.003-2.004-8.281-1.944-12.257,0.095C519.795,260.583,520.922,262.507,522.199,261.853L522.199,261.853z"/>
	</g>
	<g>
		<path d="M512.582,245.52c-0.036,0.045-0.072,0.091-0.11,0.138c-0.344,0.434-0.397,0.841-0.173,1.35
			c0.855,1.94,2.164,3.81,3.133,5.729c1.622,3.217,3.217,6.446,4.871,9.646c0.66,1.277,2.585,0.148,1.924-1.126
			c-1.47-2.845-2.898-5.709-4.332-8.573c-1.139-2.277-2.655-4.502-3.671-6.801c-0.058,0.45-0.116,0.901-0.174,1.351
			c0.036-0.046,0.073-0.092,0.108-0.137C515.044,245.983,513.478,244.395,512.582,245.52L512.582,245.52z"/>
	</g>
	<g>
		<path d="M520.894,259.86c-5.592-0.615-12.099-0.11-13.892,6.299c-0.388,1.386,1.762,1.975,2.148,0.592
			c1.509-5.391,7.267-5.153,11.743-4.662C522.322,262.247,522.307,260.015,520.894,259.86L520.894,259.86z"/>
	</g>
	<g>
		<path d="M522.356,262.631c0-0.086,0-0.173,0-0.258c0-1.438-2.229-1.438-2.229,0c0,4.358,0,8.718,0,13.076
			c0,1.438,2.229,1.438,2.229,0c0-4.358,0-8.718,0-13.076c0-1.438-2.229-1.438-2.229,0c0,0.085,0,0.172,0,0.258
			C520.127,264.07,522.356,264.07,522.356,262.631L522.356,262.631z"/>
	</g>
	<g>
		<path d="M514.096,278.429c-0.023-0.117-0.046-0.232-0.069-0.35c-0.244-1.223-2.325-0.957-2.189,0.297
			c0.577,5.32,1.927,10.494,2.826,15.76c0.242,1.416,2.39,0.812,2.149-0.592c-0.865-5.068-2.191-10.051-2.746-15.168
			c-0.729,0.1-1.46,0.197-2.189,0.295c0.023,0.117,0.046,0.232,0.07,0.35C512.228,280.429,514.377,279.831,514.096,278.429
			L514.096,278.429z"/>
	</g>
	<g>
		<path d="M514.95,294.628c3.752,3.031,8.843,1.85,12.915,0.105c1.317-0.566,0.18-2.484-1.126-1.926
			c-3.006,1.287-7.384,2.529-10.213,0.246C515.419,292.159,513.831,293.726,514.95,294.628L514.95,294.628z"/>
	</g>
	<g>
		<path d="M528.208,277.678c-0.447,5.27-1.237,10.497-1.882,15.745c-0.176,1.426,2.056,1.406,2.229,0
			c0.645-5.248,1.434-10.475,1.881-15.745C530.559,276.246,528.328,276.257,528.208,277.678L528.208,277.678z"/>
	</g>
	<g>
		<path d="M513.584,279.06c4.833-2.248,10.405-2.524,15.466-0.9c1.373,0.439,1.956-1.713,0.592-2.15
			c-5.652-1.812-11.811-1.372-17.183,1.126C511.156,277.741,512.288,279.661,513.584,279.06L513.584,279.06z"/>
	</g>
	<g>
		<path d="M529.893,261.233c-1.947,4.476-2.917,9.551-4.431,14.199c-0.447,1.369,1.705,1.954,2.148,0.593
			c1.449-4.449,2.344-9.385,4.206-13.666C532.385,261.054,530.465,259.919,529.893,261.233L529.893,261.233z"/>
	</g>
	<g>
		<path d="M531.693,266.794c-1.179,3.341-2.375,6.685-3.725,9.961c-0.547,1.33,1.61,1.904,2.148,0.592
			c1.35-3.276,2.547-6.619,3.724-9.96C534.321,266.027,532.168,265.448,531.693,266.794L531.693,266.794z"/>
	</g>
	<g>
		<path d="M509.719,263.276c1.902,4.528,3.807,9.057,5.712,13.585c0.547,1.304,2.706,0.732,2.148-0.592
			c-1.904-4.529-3.808-9.057-5.712-13.586C511.318,261.38,509.161,261.952,509.719,263.276L509.719,263.276z"/>
	</g>
	<g>
		<path d="M507.183,265.253c1.996,4.272,3.994,8.546,5.991,12.818c0.608,1.303,2.529,0.17,1.924-1.125
			c-1.996-4.271-3.993-8.546-5.991-12.817C508.499,262.827,506.578,263.959,507.183,265.253L507.183,265.253z"/>
	</g>
	<g>
		<path d="M514.623,295.394c-2.879,38.662-5.758,77.324-8.638,115.986c-0.106,1.436,2.123,1.426,2.229,0
			c2.879-38.662,5.758-77.324,8.638-115.986C516.96,293.958,514.729,293.968,514.623,295.394L514.623,295.394z"/>
	</g>
	<g>
		<path d="M526.466,293.493c0.128,25.17,0.298,50.346,0.801,75.512c0.028,1.436,2.259,1.439,2.23,0
			c-0.503-25.166-0.674-50.342-0.802-75.512C528.688,292.056,526.458,292.054,526.466,293.493L526.466,293.493z"/>
	</g>
	<g>
		<path d="M505.999,412.062c3.003,7.043,6.007,14.088,9.011,21.131c0.562,1.316,2.481,0.182,1.924-1.127
			c-3.002-7.043-6.007-14.086-9.011-21.129C507.361,409.618,505.441,410.755,505.999,412.062L505.999,412.062z"/>
	</g>
	<g>
		<path d="M521.027,372.425c-6.504,28.072-6.035,58.498-4.314,87.141c0.087,1.428,2.315,1.438,2.23,0
			c-1.711-28.43-2.221-58.693,4.232-86.547C523.5,371.618,521.352,371.024,521.027,372.425L521.027,372.425z"/>
	</g>
	<g>
		<path d="M522.658,374.394c-3.343,29.174-3.267,58.891-2.382,88.215c0.044,1.434,2.272,1.438,2.229,0
			c-0.885-29.324-0.959-59.041,2.383-88.215C525.051,372.966,522.819,372.983,522.658,374.394L522.658,374.394z"/>
	</g>
	<g>
		<path d="M523.121,373.394c-0.076,1.057-0.692-1.18-0.444-0.279c0.077,0.275,0.066,0.578,0.072,0.863
			c0.013,0.666-0.056,1.334-0.125,1.994c-0.104,1.002-0.317,1.992-0.409,2.994c-0.13,1.434,2.1,1.42,2.229,0
			c0.171-1.854,0.732-4.023,0.454-6.025c-0.405-2.891-3.813-2.232-4.007,0.453C520.788,374.829,523.019,374.819,523.121,373.394
			L523.121,373.394z"/>
	</g>
	<g>
		<path d="M523.14,373.284c16.997-3.32,33.995-6.641,50.992-9.961c1.411-0.275,0.812-2.422-0.592-2.148
			c-16.998,3.32-33.995,6.639-50.992,9.961C521.137,371.411,521.735,373.558,523.14,373.284L523.14,373.284z"/>
	</g>
	<g>
		<path d="M527.003,382.431c15.763-3.094,31.532-6.158,47.276-9.34c1.408-0.285,0.811-2.434-0.592-2.15
			c-15.745,3.184-31.516,6.248-47.277,9.34C525.001,380.558,525.599,382.706,527.003,382.431L527.003,382.431z"/>
	</g>
	<g>
		<path d="M611.471,366.458c7.534-1.342,15.029-2.879,22.521-4.432c1.408-0.291,0.812-2.439-0.592-2.148
			c-7.492,1.553-14.987,3.09-22.522,4.432C609.464,364.56,610.065,366.708,611.471,366.458L611.471,366.458z"/>
	</g>
	<g>
		<path d="M612.369,356.534c5.391-0.979,10.77-2.039,16.165-3.002c1.413-0.252,0.812-2.398-0.593-2.148
			c-5.396,0.963-10.773,2.021-16.165,3C610.363,354.642,610.964,356.79,612.369,356.534L612.369,356.534z"/>
	</g>
	<g>
		<path d="M617.526,355.595c2.655-0.496,5.31-0.994,7.964-1.492c0.998-0.188,1.996-0.373,2.994-0.561
			c-0.64,0.119,1.487,1.551,1.86,1.883c1.313,1.166,2.809,2.83,2.187,4.717c-0.452,1.367,1.7,1.949,2.148,0.592
			c0.813-2.465-0.556-4.518-2.165-6.303c-0.989-1.096-3.128-3.318-4.759-3.014c-3.607,0.678-7.215,1.354-10.822,2.029
			C615.522,353.712,616.122,355.858,617.526,355.595L617.526,355.595z"/>
	</g>
	<g>
		<path d="M632.072,362.597c0,25.807,0,51.615,0,77.424c0,1.438,2.23,1.438,2.23,0c0-25.809,0-51.617,0-77.424
			C634.303,361.157,632.072,361.157,632.072,362.597L632.072,362.597z"/>
	</g>
	<g>
		<path d="M605.675,446.804c9.258-1.926,18.503-4.021,27.808-5.709c1.414-0.256,0.813-2.404-0.592-2.148
			c-9.306,1.688-18.55,3.781-27.809,5.709C603.674,444.948,604.272,447.097,605.675,446.804L605.675,446.804z"/>
	</g>
	<g>
		<path d="M521.687,463.683c17.737-2.41,35.345-7.23,52.863-10.846c1.408-0.289,0.811-2.438-0.593-2.148
			c-17.52,3.615-35.126,8.434-52.862,10.846C519.675,461.728,520.281,463.874,521.687,463.683L521.687,463.683z"/>
	</g>
	<g>
		<path d="M516.708,459.177c-0.39,2.461,2.096,3.209,4.094,3.037c0.605-0.053,1.115-0.469,1.115-1.115
			c0-0.568-0.509-1.168-1.115-1.113c-0.488,0.041-1.019,0.025-1.354-0.039c-0.324-0.062-0.396-0.094-0.595-0.211
			c0.053,0.031,0.027,0.043-0.023-0.041c0.035,0.045,0.048,0.098,0.039,0.154c0.008-0.131,0.004-0.158-0.013-0.08
			c0.096-0.6-0.144-1.195-0.778-1.371C517.543,458.251,516.803,458.575,516.708,459.177L516.708,459.177z"/>
	</g>
	<g>
		<path d="M576.762,418.187c-0.947,9.217-14.035,8.814-16.677,17.486c-1.039,3.414,2.984,5.143,5.557,5.568
			c3.677,0.607,7.545-1.02,10.097-3.598c1.012-1.023-0.564-2.6-1.576-1.576c-1.479,1.494-3.131,2.303-5.149,2.832
			c-2.215,0.578-8.416,0.26-6.154-4.178c1.584-3.109,5.276-4.832,8.199-6.385c4.378-2.326,7.407-5.021,7.933-10.15
			C579.138,416.757,576.908,416.771,576.762,418.187L576.762,418.187z"/>
	</g>
	<g>
		<path d="M574.394,436.716c0.033,5.709,0.459,11.441-1.214,16.98c-0.417,1.379,1.734,1.965,2.148,0.592
			c1.731-5.73,1.329-11.662,1.294-17.572C576.613,435.278,574.384,435.278,574.394,436.716L574.394,436.716z"/>
	</g>
	<g>
		<path d="M565.722,454.741c2.997,4.527,7.62,6.146,12.498,3.447c4.492-2.486,7.202-8.137,6.025-13.131
			c-0.328-1.398-2.479-0.805-2.149,0.592c0.864,3.668-0.903,7.1-3.547,9.559c-3.69,3.434-8.252,2.412-10.903-1.592
			C566.857,452.423,564.924,453.538,565.722,454.741L565.722,454.741z"/>
	</g>
	<g>
		<path d="M579.004,455.948c1.677,3.957,6.949,1.684,8.946-0.66c2.63-3.088,3.652-7.781,3.719-11.746
			c0.024-1.438-2.205-1.434-2.229,0c-0.04,2.379-0.539,4.693-1.333,6.932c-0.472,1.332-1.187,2.598-2.104,3.674
			c-0.943,1.107-4.109,2.953-5.074,0.676C580.369,453.503,578.45,454.642,579.004,455.948L579.004,455.948z"/>
	</g>
	<g>
		<path d="M587.224,453.997c1.977,3.559,6.654,2.42,9.096,0.029c2.688-2.633,3.416-7.037,3.569-10.623
			c0.062-1.438-2.167-1.432-2.229,0c-0.099,2.273-0.478,4.547-1.38,6.648c-0.903,2.1-5.13,6.422-7.132,2.82
			C588.451,451.616,586.525,452.739,587.224,453.997L587.224,453.997z"/>
	</g>
	<g>
		<path d="M596.28,452.604c2.512,3.705,6.035,0.734,8.078-1.965c5.302-7.01-1.015-18.67-1.125-26.184
			c-0.021-1.436-2.251-1.438-2.23,0c0.056,3.795,0.868,7.354,1.767,11.033c0.695,2.848,1.171,5.66,1.171,8.604
			c-0.068,1.936-0.571,3.744-1.506,5.422c-0.868,1.582-2.278,2.236-4.23,1.965C597.402,450.298,595.47,451.409,596.28,452.604
			L596.28,452.604z"/>
	</g>
	<g>
		<path d="M601.713,421.942c-0.369,0.758-0.672,1.523-0.71,2.375c-0.062,1.438,2.169,1.43,2.23,0
			c0.019-0.438,0.215-0.861,0.404-1.25c0.267-0.545,0.153-1.201-0.399-1.523C602.745,421.253,601.98,421.397,601.713,421.942
			L601.713,421.942z"/>
	</g>
	<g>
		<path d="M495.147,435.841c6.845,1.367,14.445,1.885,21.427,2.268c1.437,0.08,1.429-2.15,0-2.229
			c-6.77-0.373-14.193-0.861-20.835-2.189C494.337,433.411,493.738,435.56,495.147,435.841L495.147,435.841z"/>
	</g>
	<g>
		<path d="M494.497,441.134c7.049,1.783,14.581,3.166,21.781,4.215c1.405,0.203,2.011-1.943,0.592-2.15
			c-7.198-1.047-14.732-2.432-21.78-4.213C493.695,438.632,493.104,440.782,494.497,441.134L494.497,441.134z"/>
	</g>
	<g>
		<path d="M494.516,441.917c-0.248,8.607-0.495,17.215-0.744,25.82c-0.041,1.439,2.188,1.436,2.229,0
			c0.248-8.605,0.495-17.213,0.743-25.82C496.785,440.479,494.557,440.483,494.516,441.917L494.516,441.917z"/>
	</g>
	<g>
		<path d="M570.366,390.177c-3.161,4.826-6.091,9.947-8.777,15.047c-0.317,0.602-0.069,1.486,0.665,1.637
			c1.871,0.387,3.873,0.475,5.713,0.906c-0.261-0.457-0.519-0.912-0.779-1.371c-2.064,4.898-4.199,9.703-7.133,14.154
			c-0.525,0.799,0.346,1.951,1.26,1.637c2.255-0.775,3.309-3.066,4.759-4.867c2.73-3.385,5.496-6.658,7.819-10.344
			c0.77-1.219-1.161-2.338-1.925-1.125c-1.891,3-4.066,5.756-6.317,8.49c-1.155,1.404-3.056,5.053-4.928,5.697
			c0.419,0.545,0.839,1.09,1.258,1.637c3.038-4.611,5.221-9.615,7.356-14.688c0.231-0.547-0.242-1.244-0.778-1.369
			c-1.884-0.443-3.803-0.512-5.712-0.906c0.223,0.545,0.444,1.09,0.666,1.637c2.688-5.098,5.616-10.221,8.777-15.045
			C573.081,390.095,571.149,388.979,570.366,390.177L570.366,390.177z"/>
	</g>
	<g>
		<path d="M571.62,391.081c-2.258,3.75-3.221,8.027-5.017,11.982c-0.264,0.584-0.109,1.52,0.667,1.637
			c1.68,0.26,3.302,0.791,4.98,0.279c1.372-0.416,0.787-2.568-0.592-2.148c-1.26,0.383-2.544-0.086-3.796-0.279
			c0.221,0.547,0.443,1.092,0.665,1.637c1.792-3.949,2.766-8.246,5.016-11.98C574.287,390.972,572.359,389.854,571.62,391.081
			L571.62,391.081z"/>
	</g>
	<g>
		<path d="M547.364,312.903c5.078,0,10.155,0,15.232,0c1.438,0,1.438-2.229,0-2.229c-5.077,0-10.154,0-15.232,0
			C545.927,310.675,545.927,312.903,547.364,312.903L547.364,312.903z"/>
	</g>
	<g>
		<path d="M549.779,309.747c1.55-0.014,3.094-0.174,4.645-0.186c1.436-0.012,1.438-2.242,0-2.23
			c-1.551,0.012-3.095,0.174-4.645,0.188C548.343,307.53,548.342,309.759,549.779,309.747L549.779,309.747z"/>
	</g>
	<g>
		<path d="M494.979,319.964c1.053,0,2.104,0,3.157,0c1.438,0,1.438-2.23,0-2.23c-1.053,0-2.104,0-3.157,0
			C493.54,317.733,493.54,319.964,494.979,319.964L494.979,319.964z"/>
	</g>
	<g>
		<path d="M491.896,323.269c1.433,0.379,2.912,0.41,4.385,0.41c1.438,0,1.438-2.229,0-2.229c-1.277-0.002-2.55-0.004-3.792-0.332
			C491.097,320.749,490.508,322.899,491.896,323.269L491.896,323.269z"/>
	</g>
	<g>
		<path d="M358.442,366.776c11.114-1.418,23.568-4.666,34.705-1.992c1.398,0.338,1.991-1.812,0.592-2.148
			c-11.37-2.73-23.948,0.465-35.297,1.91C357.037,364.726,357.019,366.958,358.442,366.776L358.442,366.776z"/>
	</g>
	<g>
		<path d="M359.698,393.479c4.22,4.646,10.62,4.865,16.486,4.969c1.438,0.025,1.434-2.203,0-2.229
			c-5.265-0.092-11.102-0.125-14.91-4.316C360.304,390.837,358.733,392.417,359.698,393.479L359.698,393.479z"/>
	</g>
	<g>
		<path d="M404.604,372.536c1.34,10.238,16.452,16.387,25.062,17.885c1.404,0.246,2.006-1.902,0.592-2.146
			c-4.614-0.807-8.837-2.355-12.929-4.645c-3.629-2.029-9.888-6.447-10.495-11.094C406.65,371.132,404.417,371.114,404.604,372.536
			L404.604,372.536z"/>
	</g>
	<g>
		<path d="M429.278,390.003c1.299,1.84,0.692,4.582-1.656,5.145c-1.397,0.334-0.805,2.482,0.592,2.148
			c3.665-0.879,5.11-5.416,2.989-8.418C430.38,387.714,428.445,388.825,429.278,390.003L429.278,390.003z"/>
	</g>
	<g>
		<path d="M402.608,386.327c6.07,7.797,15.487,11.359,25.217,11.008c1.434-0.051,1.438-2.279,0-2.229
			c-9.206,0.332-17.899-2.98-23.641-10.355C403.303,383.618,401.738,385.206,402.608,386.327L402.608,386.327z"/>
	</g>
	<g>
		<path d="M405.295,395.911c0.901,2.852,5.029,3.9,7.594,4.561c4.508,1.164,9.219-0.395,13.27-2.291
			c1.301-0.609,0.168-2.531-1.125-1.924c-3.027,1.418-5.938,2.309-9.309,2.334c-1.773,0.014-7.564-1.01-8.281-3.271
			C407.012,393.954,404.859,394.538,405.295,395.911L405.295,395.911z"/>
	</g>
	<g>
		<path d="M404.501,400.985c0.877,2.025,3.695,2.723,5.652,2.959c2.462,0.297,5.164-0.508,7.158-1.932
			c1.158-0.828,0.049-2.764-1.125-1.926c-1.456,1.039-3.054,1.545-4.837,1.658c-1.488,0.098-4.235-0.295-4.923-1.887
			C405.856,398.544,403.937,399.681,404.501,400.985L404.501,400.985z"/>
	</g>
	<g>
		<path d="M402.881,404.659c2.261,1.498,4.996,1.803,7.326,0.279c1.197-0.785,0.081-2.717-1.126-1.926
			c-1.7,1.113-3.444,0.803-5.075-0.277C402.805,401.938,401.689,403.868,402.881,404.659L402.881,404.659z"/>
	</g>
	<g>
		<path d="M358.768,361.808c-6.274,7.779-6.668,18.844-5.987,28.385c0.19,2.664,0.639,6.562,3.209,8.068
			c2.796,1.637,5.032-1.029,6.062-3.336c0.579-1.301-1.341-2.436-1.925-1.125c-2.368,5.307-4.712-0.316-5.034-2.738
			c-0.309-2.332-0.335-4.717-0.339-7.062c-0.018-6.996,1.07-15.01,5.59-20.615C361.239,362.276,359.671,360.688,358.768,361.808
			L358.768,361.808z"/>
	</g>
	<g>
		<path d="M355.846,393.653c0.574-0.271,1.27-0.41,1.897-0.492c0.396-0.049,1.607-0.137,1.78,0.092
			c0.857,1.129,2.795,0.02,1.924-1.123c-1.493-1.965-4.785-1.32-6.727-0.4C353.423,392.343,354.555,394.265,355.846,393.653
			L355.846,393.653z"/>
	</g>
	<g>
		<path d="M360.119,363.698c0.658-0.436,1.389-0.635,2.176-0.586c0.007,0,0.265,0.064,0.352,0.092
			c-0.052-0.018,0.112,0.119,0.054,0.033c-0.035-0.051,0.01,0.029,0.009,0.143c0,0.189-0.128,0.432-0.215,0.605
			c-0.636,1.281,1.287,2.412,1.924,1.123c0.752-1.518,0.719-3.307-1.065-4.008c-1.381-0.543-3.161-0.121-4.359,0.674
			C357.801,362.562,358.916,364.493,360.119,363.698L360.119,363.698z"/>
	</g>
	<g>
		<path d="M344.807,364.507c5.408-1.828,11.09-1.299,16.701-1.26c1.438,0.01,1.437-2.221,0-2.23
			c-5.812-0.039-11.695-0.551-17.293,1.342C342.859,362.815,343.44,364.968,344.807,364.507L344.807,364.507z"/>
	</g>
	<g>
		<path d="M338.571,398.015c5.932,0.891,11.8,1.398,17.781,0.666c1.408-0.172,1.424-2.402,0-2.229
			c-5.783,0.709-11.445,0.273-17.189-0.586C337.758,395.653,337.153,397.802,338.571,398.015L338.571,398.015z"/>
	</g>
	<g>
		<path d="M343.64,362.591c-6.304,10.518-8.151,22.773-5.848,34.645c0.274,1.41,2.422,0.812,2.149-0.592
			c-2.184-11.25-0.339-22.979,5.623-32.928C346.308,362.479,344.378,361.36,343.64,362.591L343.64,362.591z"/>
	</g>
	<g>
		<path d="M266.675,310.118c-0.022,7.662,3.986,14.225,8.471,20.164c4.776,6.32,10.495,12.527,16.578,17.605
			c6.369,5.314,14.123,8.623,21.908,11.258c9.892,3.346,20.582,5.797,31.065,5.029c1.424-0.104,1.434-2.332,0-2.229
			c-17.083,1.248-37.836-5.084-51.398-15.635c-5.331-4.148-9.968-9.662-14.323-14.797c-5.077-5.986-10.093-13.254-10.071-21.396
			C268.908,308.681,266.679,308.681,266.675,310.118L266.675,310.118z"/>
	</g>
	<g>
		<path d="M235.884,335.618c1.729,8.143,7.239,15.941,12.259,22.365c6.494,8.307,14.597,15.301,23.285,21.215
			c9.1,6.195,19.281,10.793,29.886,13.689c12.024,3.283,24.662,2.918,36.987,2.242c1.429-0.078,1.437-2.309,0-2.23
			c-10.944,0.6-21.889,0.859-32.692-1.287c-10.608-2.107-20.626-6.691-29.828-12.264c-8.952-5.42-16.845-12.354-23.759-20.18
			c-5.775-6.533-12.14-15.436-13.989-24.143C237.735,333.62,235.587,334.218,235.884,335.618L235.884,335.618z"/>
	</g>
	<g>
		<path d="M257.407,274.174c-12.738,9.165-25.675,20.819-33.398,34.637c-0.702,1.258,1.223,2.381,1.924,1.127
			c7.503-13.428,20.203-24.92,32.6-33.84C259.688,275.268,258.577,273.333,257.407,274.174L257.407,274.174z"/>
	</g>
	<g>
		<path d="M225.124,307.698c-4.019,6.207-3.241,16.84-2.746,23.842c0.685,9.73,2.993,19.34,5.563,28.719
			c5.957,21.723,14.549,42.223,24.212,62.531c0.617,1.297,2.539,0.166,1.924-1.127c-8.873-18.648-16.757-37.436-22.625-57.25
			c-2.52-8.5-4.653-17.105-6.032-25.867c-1.311-8.32-3.247-22.188,1.629-29.723C227.831,307.612,225.902,306.495,225.124,307.698
			L225.124,307.698z"/>
	</g>
	<g>
		<path d="M243.918,405.229c-1.473,17.086-8.343,33.549-12.101,50.227c-0.317,1.4,1.833,1.996,2.15,0.594
			c3.808-16.895,10.688-33.506,12.182-50.82C246.271,403.798,244.042,403.81,243.918,405.229L243.918,405.229z"/>
	</g>
	<g>
		<path d="M311.903,271.883c11.713,7.272,23.507,14.422,34.832,22.292c1.184,0.822,2.296-1.109,1.125-1.924
			c-11.326-7.871-23.118-15.023-34.83-22.292C311.803,269.199,310.685,271.128,311.903,271.883L311.903,271.883z"/>
	</g>
	<g>
		<path d="M364.946,396.222c1.62,13.441,2.777,26.928,4.085,40.402c0.138,1.416,2.367,1.43,2.229,0
			c-1.309-13.475-2.466-26.961-4.085-40.402C367.005,394.813,364.773,394.796,364.946,396.222L364.946,396.222z"/>
	</g>
	<g>
		<path d="M346.148,293.776c4.566,9.615,5.916,20.293,7.462,30.715c1.809,12.186,4.273,24.27,6.175,36.443
			c0.221,1.416,2.369,0.812,2.149-0.592c-1.902-12.176-4.344-24.262-6.173-36.443c-1.6-10.646-3.024-21.426-7.689-31.25
			C347.457,291.353,345.536,292.483,346.148,293.776L346.148,293.776z"/>
	</g>
	<g>
		<path d="M353.118,398.485c1.363,12.09,2.733,24.182,4.023,36.279c0.151,1.416,2.382,1.43,2.229,0
			c-1.29-12.098-2.661-24.189-4.023-36.279C355.188,397.073,352.957,397.058,353.118,398.485L353.118,398.485z"/>
	</g>
	<g>
		<path d="M344.881,308.817c0.971,17.832,2.504,35.621,4.298,53.389c0.143,1.414,2.374,1.43,2.229,0
			c-1.793-17.768-3.326-35.557-4.297-53.389C347.033,307.388,344.803,307.382,344.881,308.817L344.881,308.817z"/>
	</g>
	<g>
		<path d="M293.504,389.663c2.218,24.268,3.533,48.598,3.823,72.967c0.017,1.438,2.246,1.439,2.229,0
			c-0.288-24.369-1.604-48.699-3.823-72.967C295.604,388.243,293.373,388.229,293.504,389.663L293.504,389.663z"/>
	</g>
	<g>
		<path d="M278.046,281.099c3.462,20.893,7.082,41.805,9.76,62.812c0.178,1.406,2.41,1.424,2.229,0
			c-2.705-21.207-6.344-42.314-9.839-63.404C279.961,279.091,277.813,279.694,278.046,281.099L278.046,281.099z"/>
	</g>
	<g>
		<path d="M321.156,394.817c0.741,17.645,1.255,35.297,1.62,52.951c0.028,1.438,2.259,1.439,2.229,0
			c-0.365-17.654-0.878-35.307-1.62-52.951C323.325,393.384,321.096,393.38,321.156,394.817L321.156,394.817z"/>
	</g>
	<g>
		<path d="M310.236,269.994c3.643,29.792,7.236,59.66,9.142,89.621c0.092,1.428,2.321,1.438,2.229,0
			c-1.906-29.961-5.499-59.828-9.142-89.621C312.293,268.584,310.062,268.569,310.236,269.994L310.236,269.994z"/>
	</g>
	<g>
		<path d="M274.052,270.289c2.687,11.724,11.93,22.509,23.907,25.208c1.399,0.314,1.995-1.834,0.592-2.152
			c-11.262-2.535-19.826-12.639-22.35-23.649C275.882,268.294,273.732,268.889,274.052,270.289L274.052,270.289z"/>
	</g>
	<g>
		<path d="M309.069,269.696c-1.253,8.114-3.005,19.586-10.634,24.227c-1.226,0.746-0.104,2.674,1.126,1.924
			c8.25-5.018,10.304-16.799,11.658-25.558C311.436,268.883,309.289,268.279,309.069,269.696L309.069,269.696z"/>
	</g>
	<g>
		<path d="M298.667,294.062c-7.574,4.188-11.804,11.648-13.19,20.033c-0.234,1.406,1.915,2.008,2.149,0.592
			c1.297-7.838,5.06-14.771,12.166-18.699C301.05,295.292,299.927,293.366,298.667,294.062L298.667,294.062z"/>
	</g>
	<g>
		<path d="M299.927,296.558c6.603,0.398,12.366,5.471,15.06,11.289c0.604,1.305,2.525,0.17,1.925-1.123
			c-3.038-6.564-9.622-11.953-16.984-12.396C298.49,294.241,298.498,296.472,299.927,296.558L299.927,296.558z"/>
	</g>
	<g>
		<path d="M297.141,294.886c1.796,16.533,3.59,33.064,5.386,49.598c0.155,1.414,2.385,1.43,2.229,0
			c-1.796-16.533-3.59-33.064-5.386-49.598C299.216,293.472,296.984,293.456,297.141,294.886L297.141,294.886z"/>
	</g>
	<g>
		<path d="M276.75,204.001c-3.306-3.81-8.646-3.589-13.051-2.044c-5.148,1.806-7.312,5.868-8.109,10.999
			c-0.66,4.236-0.264,11.146,4.021,13.602c5.92,3.394,12.084,0.296,16.025-4.633c0.888-1.11-0.677-2.699-1.576-1.576
			c-3.175,3.972-8.955,7.812-13.777,3.91c-3.171-2.565-2.948-8.119-2.389-11.698c0.597-3.846,2.282-6.445,5.776-8.192
			c3.593-1.795,8.708-2.014,11.504,1.209C276.119,206.665,277.688,205.081,276.75,204.001L276.75,204.001z"/>
	</g>
	<g>
		<path d="M265.341,208.128c-1.521,2.559-1.372,5.374,0.546,7.667c0.923,1.104,2.491-0.481,1.576-1.576
			c-1.271-1.52-1.174-3.323-0.198-4.965C268.003,208.015,266.074,206.894,265.341,208.128L265.341,208.128z"/>
	</g>
	<g>
		<path d="M275.035,204.79c0.208,2.864,0.95,5.232,2.566,7.622c0.548,0.812,1.723,0.677,2.038-0.266
			c3.792-11.391,9.293-21.922,15.677-32.057c0.769-1.22-1.162-2.338-1.925-1.125c-6.487,10.297-12.052,21.022-15.902,32.589
			c0.679-0.089,1.359-0.178,2.037-0.267c-1.385-2.048-2.081-4.006-2.261-6.496C277.159,203.365,274.929,203.354,275.035,204.79
			L275.035,204.79z"/>
	</g>
	<g>
		<path d="M272.434,186.398c12.507-0.988,25.274-6.924,36.502-12.244c10.604-5.025,21.388-11.8,28.643-21.227
			c5.706-7.416,11.017-18.297,7.329-27.731c-2.813-7.198-11.646-9.125-18.417-9.944c-1.425-0.173-1.408,2.059,0,2.229
			c8.497,1.029,17.044,4.079,17.374,13.937c0.34,10.201-6.807,19.676-13.792,26.302c-7.415,7.032-16.604,11.947-25.82,16.168
			c-9.724,4.456-21.047,9.432-31.818,10.282C271.01,184.282,271,186.512,272.434,186.398L272.434,186.398z"/>
	</g>
	<g>
		<path d="M341.066,143.679c1.427,6.731,8.927,12.876,13.812,17.076c5.907,5.082,13.806,10.802,21.997,10.437
			c1.433-0.064,1.439-2.293,0-2.229c-8.047,0.359-15.69-5.714-21.446-10.664c-4.318-3.714-10.967-9.341-12.212-15.211
			C342.917,141.68,340.769,142.277,341.066,143.679L341.066,143.679z"/>
	</g>
	<g>
		<path d="M270.802,225.485c-1.054,7.704,0.416,15.76,1.293,23.441c0.84,7.378,2.711,14.288,6.136,20.886
			c0.663,1.276,2.586,0.149,1.925-1.124c-3.27-6.299-4.943-12.761-5.833-19.762c-0.937-7.367-2.382-15.456-1.373-22.849
			C273.142,224.672,270.995,224.066,270.802,225.485L270.802,225.485z"/>
	</g>
	<g>
		<path d="M289.611,267.147c12.032,5.189,26.136,1.422,37.822-2.961c11.508-4.315,22.158-10.67,29.716-20.545
			c16.233-21.208,19.857-50.375,16.3-76.208c-0.195-1.419-2.342-0.812-2.148,0.592c3.302,23.992,0.086,50.472-13.516,70.981
			c-6.636,10.006-16.105,16.579-26.923,21.386c-11.76,5.227-27.64,10.216-40.125,4.831
			C289.43,264.659,288.295,266.579,289.611,267.147L289.611,267.147z"/>
	</g>
	<g>
		<path d="M350.308,248.149c-2.152,7.157,0.952,14.229,7.014,18.349c1.193,0.81,2.307-1.122,1.126-1.925
			c-5.247-3.564-7.847-9.656-5.99-15.832C352.873,247.36,350.721,246.776,350.308,248.149L350.308,248.149z"/>
	</g>
	<g>
		<path d="M324.726,279.772c11.942,3.438,28.473-2.085,34.122-13.676c0.627-1.284-1.294-2.416-1.924-1.124
			c-5.218,10.707-20.571,15.828-31.606,12.651C323.933,277.226,323.345,279.378,324.726,279.772L324.726,279.772z"/>
	</g>
	<g>
		<path d="M344.955,133.412c13.71-0.357,22.649,7.187,29.591,18.438c6.54,10.599,10.407,25.943,0.941,35.991
			c-0.985,1.044,0.588,2.624,1.576,1.576c10.004-10.619,6.459-25.808,0.145-37.421c-6.866-12.622-17.548-21.197-32.253-20.812
			C343.52,131.22,343.516,133.449,344.955,133.412L344.955,133.412z"/>
	</g>
	<g>
		<path d="M228.162,268.688c-9.721-17.144-8.961-37.441-5.618-56.253c3.145-17.676,9.18-34.902,18.256-50.407
			c9.442-16.125,23.145-30.264,39.779-38.945c17.625-9.197,37.855-8.76,56.417-2.89c1.375,0.435,1.958-1.717,0.592-2.149
			c-18.281-5.782-37.089-6.06-54.874,1.566c-18.115,7.767-32.678,23.351-42.94,39.805c-10.215,16.377-16.32,35.225-19.682,54.135
			c-3.346,18.815-3.525,39.204,6.145,56.261C226.946,271.063,228.873,269.939,228.162,268.688L228.162,268.688z"/>
	</g>
	<g>
		<path d="M226.413,270.038c5.411,4.766,15.599,5.448,22.364,6.181c10.438,1.132,22.664,0.662,31.205-6.181
			c1.123-0.897-0.465-2.465-1.576-1.575c-7.777,6.229-18.839,6.377-28.311,5.65c-6.215-0.478-17.088-1.231-22.107-5.65
			C226.914,267.516,225.332,269.085,226.413,270.038L226.413,270.038z"/>
	</g>
	<g>
		<path d="M343.494,218.554c1.361-4.572,10.13-4.725,8.985,0.767c-0.703,3.373-4.79,6.495-7.848,7.615
			c-1.339,0.49-0.761,2.645,0.592,2.149c4.481-1.641,10.75-6.742,9.384-12.162c-0.706-2.795-4.038-4.329-6.67-4.128
			c-2.953,0.225-5.75,2.331-6.592,5.166C340.935,219.343,343.085,219.928,343.494,218.554L343.494,218.554z"/>
	</g>
	<g>
		<path d="M309.719,222.037c2.221,7.514,10.409,11.657,17.013,14.693c8.908,4.099,18.78,5.517,28.244,2.665
			c1.373-0.414,0.788-2.566-0.592-2.149c-9.071,2.733-17.949,1.182-26.527-2.44c-6.03-2.546-14.008-6.658-15.989-13.361
			C311.462,220.069,309.311,220.655,309.719,222.037L309.719,222.037z"/>
	</g>
	<g>
		<path d="M313.145,217.74c-3.952,1.443-5.492,6.48-6.072,10.253c-0.219,1.405,1.93,2.009,2.148,0.592
			c0.435-2.818,1.471-7.584,4.516-8.695C315.077,219.401,314.498,217.246,313.145,217.74L313.145,217.74z"/>
	</g>
	<g>
		<path d="M314.429,237.769c0.384,0.871,1.14,1.449,1.931,1.932c1.232,0.75,2.352-1.177,1.126-1.925
			c-0.499-0.304-0.892-0.585-1.133-1.132c-0.246-0.557-1.046-0.681-1.525-0.399C314.261,236.576,314.185,237.212,314.429,237.769
			L314.429,237.769z"/>
	</g>
	<g>
		<path d="M514.206,209.619c3.193-0.21,3.633,4.041,3.761,6.41c0.078,1.429,2.308,1.437,2.229,0
			c-0.194-3.622-1.328-8.945-5.989-8.639C512.778,207.485,512.77,209.714,514.206,209.619L514.206,209.619z"/>
	</g>
	<g>
		<path d="M301.228,208.134c10.528,0.023,21.051,0.348,31.58,0.371c1.438,0.003,1.438-2.226,0-2.229
			c-10.529-0.023-21.052-0.348-31.58-0.371C299.789,205.901,299.79,208.13,301.228,208.134L301.228,208.134z"/>
	</g>
	<g>
		<path d="M352.125,208.319c6.44,0.012,12.877,0.174,19.314,0.186c1.439,0.002,1.438-2.227,0-2.229
			c-6.438-0.012-12.875-0.174-19.314-0.186C350.689,206.088,350.689,208.317,352.125,208.319L352.125,208.319z"/>
	</g>
	<g>
		<path d="M353.016,206.444c-1.634-6.519,1.265-13.39,4.526-18.964c1.714-2.931,6.375-9.517,10.719-5.914
			c2.162,1.792,2.815,5.686,3.502,8.287c0.367,1.389,2.519,0.799,2.15-0.592c-1.53-5.781-5.621-15.171-12.921-9.211
			c-7.155,5.842-12.409,17.877-10.128,26.986C351.217,208.43,353.364,207.839,353.016,206.444L353.016,206.444z"/>
	</g>
	<g>
		<path d="M358.356,177.794c3.372-1.506,7.901-1.483,10.909,0.848c1.121,0.869,2.711-0.697,1.576-1.576
			c-3.884-3.009-9.216-3.159-13.612-1.196C355.919,176.455,357.054,178.375,358.356,177.794L358.356,177.794z"/>
	</g>
	<g>
		<path d="M304.478,208.226c1.438,0,1.438-2.229,0-2.229C303.04,205.997,303.04,208.226,304.478,208.226L304.478,208.226z"/>
	</g>
	<g>
		<path d="M304.438,207.036c1.66-8.628,6.941-16.283,14.201-21.188c13.35-9.021,17.555,11.014,13.392,20.422
			c-0.577,1.303,1.345,2.438,1.925,1.125c3.518-7.952,3.328-25.617-8.501-26.27c-4.763-0.263-9.442,3.604-12.725,6.571
			c-5.334,4.819-9.093,11.732-10.441,18.747C302.019,207.848,304.166,208.447,304.438,207.036L304.438,207.036z"/>
	</g>
	<g>
		<path d="M316.65,177.353c3.791-2.506,11.84-2.227,14.706,1.551c0.857,1.129,2.794,0.021,1.925-1.125
			c-3.682-4.853-12.767-5.651-17.756-2.351C314.332,176.218,315.448,178.149,316.65,177.353L316.65,177.353z"/>
	</g>
	<g>
		<path d="M372.792,187.283c-2.403-2.866-7.204-1.233-9.182,1.433c-3.768,5.079-5.084,12.342-4.705,18.559
			c0.085,1.428,2.315,1.437,2.229,0c-0.224-3.665,0.335-7.269,1.255-10.812c0.535-2.063,1.401-3.991,2.53-5.792
			c1.032-1.648,4.473-3.984,6.295-1.812C372.139,189.961,373.708,188.376,372.792,187.283L372.792,187.283z"/>
	</g>
	<g>
		<path d="M334.047,188.065c-1.79-3.759-7.01-2.459-8.891,0.622c-3.253,5.33-4.071,12.495-3.941,18.609
			c0.031,1.435,2.26,1.438,2.23,0c-0.08-3.701,0.348-7.267,1.17-10.878c0.323-1.42,0.763-2.808,1.24-4.182
			c0.548-1.581,4.299-7.176,6.268-3.045C332.74,190.488,334.663,189.356,334.047,188.065L334.047,188.065z"/>
	</g>
	<path d="M498.229,176.839c-1.494-0.268-3,0.383-3.429,1.946c-0.088,0.319-0.104,0.661-0.067,1.002
		c-1.485,2.19-2.12,4.695-1.63,7.469c0.612,3.463,4.695,4.648,6.989,1.993C502.739,186.185,503.494,177.785,498.229,176.839z"/>
	<path d="M458.616,177.993c-1.715-0.106-2.597,1.11-2.67,2.434c-1.558,1.336-2.643,3.379-3.292,5.203
		c-1.119,3.142,0.765,6.551,4.385,5.844C462.567,190.392,466.069,178.457,458.616,177.993z"/>
	<path d="M373.489,192.436c-0.009-4.306-4.773-7.319-8.158-3.816c-4.099,4.241-4.245,9.796-5.396,15.244
		c-0.398,1.888,0.823,3.353,2.688,3.527c1.234,0.116,2.417,0.075,3.637-0.048c0.491,0.532,1.164,0.873,1.936,0.792
		c6.311-0.659,4.589-9.202,5.108-13.561c0.044-0.356,0.012-0.667-0.054-0.95C373.402,193.284,373.49,192.889,373.489,192.436z"/>
	<path d="M335.128,193.737c-0.014-1.295-0.729-2.114-1.639-2.477c-0.48-3.597-4.038-5.443-6.933-2.28
		c-1.727,1.89-2.182,4.688-2.565,7.12c-0.343,2.19-0.076,5.419-1.394,7.283c-1.179,1.671,0.38,4.356,2.407,4.193
		c1.409-0.113,2.908-0.046,4.243-0.325c1.511,1.253,4.431,0.506,4.674-2.089c0.125-1.329,0.501-2.654,0.745-3.989
		C335.309,198.83,335.16,196.285,335.128,193.737z"/>
	<path d="M355.39,264.615c-2.136-1.189-3.32-4.523-4.153-6.694c-0.111-0.289-0.269-0.542-0.45-0.767
		c0.362-0.834,0.662-1.743,0.869-2.768c0.551-2.744-2.532-4.634-4.658-2.71c-6.761,6.11-14.637,10.196-23.431,12.518
		c-1.117,0.296-1.715,1.054-1.907,1.913c-2.661,0.52-5.36,0.845-8.079,0.913c-3.588,0.092-3.596,5.665,0,5.573
		c0.805-0.021,1.608-0.073,2.409-0.131c0.13,0.202,0.287,0.395,0.496,0.569c1.838,1.521,3.869,2.5,6.009,3.16
		c3.69,5.182,11.196,3.678,17.159,1.534c0.424,0.115,0.897,0.15,1.417,0.062c3.782-0.64,6.893-2.545,9.653-5.033
		c0.834,0.239,1.775,0.086,2.583-0.7c0.85-0.826,1.712-1.627,2.507-2.507c0.425-0.471,0.63-1.023,0.679-1.585
		C356.977,266.769,356.75,265.372,355.39,264.615z"/>
	<path d="M382.406,167.962c-0.033-0.256-0.101-0.488-0.183-0.708c0.23-3.704-1.195-7.134-2.974-10.424
		c-2.7-7.961-8.999-15.974-15.771-19.887c-1.295-0.749-2.542-0.787-3.603-0.393c-5.019-3.599-10.701-6.117-15.525-3.514
		c0.038-0.809,0.035-1.619-0.044-2.431c-0.353-3.687-2.569-6.563-4.806-9.347c-0.274-0.395-0.582-0.786-0.94-1.172
		c-1.268-1.363-2.711-1.663-3.984-1.304c-2.191-1.175-4.813-1.623-7.381-1.604c-7.633-3.335-17.874-3.456-25.181-1.233
		c-0.101,0.008-0.198,0.009-0.3,0.023c-11.464,1.574-22.554,5.905-31.647,12.989c-2.379,1.234-4.543,2.772-6.173,4.84
		c-2.261,1.563-4.369,3.329-6.104,5.312c-0.327,0.039-0.649,0.118-0.969,0.222c-0.453,0.094-0.899,0.243-1.312,0.493
		c-1.958,1.188-3.469,3.044-4.385,5.129c-0.369,0.84-0.617,1.618-0.592,2.467c-1.28,1.189-2.545,2.393-3.726,3.69
		c-3.239,3.559-5.853,7.752-8.252,11.9c-5.05,8.738-9.035,18.501-11.286,28.334c-1.149,5.025-2.824,9.902-4,14.92
		c-1.211,5.167-1.515,10.659-2.143,15.919c-0.681,5.712-0.958,11.407-0.843,17.158c0.009,0.475,0.035,0.94,0.072,1.398
		c-0.862,1.022-1.369,2.083-1.816,3.361c-0.383,1.091-0.122,2.463,0.449,3.435c0.522,0.892,1.251,1.463,2.107,1.809
		c0.062,0.048,0.123,0.095,0.188,0.139c0.606,6.422,2.115,12.927,5.894,17.984c0.099,0.307,0.177,0.618,0.278,0.926
		c0.936,2.82,3.707,3.534,5.903,2.813c0.017,0.01,0.029,0.025,0.046,0.036c2.392,1.513,5.034,2.025,7.753,2.679
		c0.695,0.165,1.343,0.163,1.942,0.052c1.766,0.855,3.607,1.797,5.599,1.797c1.134,0,2.053-0.252,2.801-0.667
		c4.997,0.747,10.572,1.114,15.293-0.849c0.738,0.675,1.707,1.071,2.856,0.94c3.346-0.383,5.284-1.363,6.566-4.431
		c1.713-0.267,3.152-1.815,2.696-4.075c-1.748-8.662-5.4-16.774-7.206-25.423c-0.297-1.42-0.364-3.084-0.485-4.763
		c0.239-2.565,0.665-5.112,1.283-7.604c1.036-4.186-5.415-5.962-6.45-1.777c-0.023,0.095-0.042,0.192-0.063,0.288
		c-3.4-1.03-6.531-0.936-8.95-3.788c-0.803-5.441,0.042-10.812,3.144-16.216c3.279-5.714,11.579-6.598,15.646-1.552
		c0.269,0.333,0.584,0.568,0.922,0.734c-0.121,0.553-0.242,1.104-0.354,1.658c-0.182,0.893,0.245,1.804,1.167,2.057
		c0.891,0.245,1.799-0.294,2.058-1.167c0.16-0.55,0.208-1.123,0.371-1.672c0.034-0.112,0.05-0.226,0.06-0.339
		c0.041-0.197,0.086-0.393,0.126-0.589c0.028-0.146,0.017-0.289,0.014-0.433c0.82-0.619,1.387-1.553,1.345-2.613
		c-0.002-0.052-0.008-0.099-0.01-0.151c0.445-0.519,0.738-1.206,0.753-2.078c0.005-0.231,0.025-0.459,0.037-0.688
		c0.793-0.332,1.494-0.984,1.956-2.078c2.177-5.154,4.072-10.435,6.55-15.434c0.192-0.356,0.393-0.71,0.585-1.067
		c13.988-5.39,27.332-12.657,38.051-23.279c0.11-0.108,0.184-0.224,0.279-0.335c2.972-2.473,5.606-5.28,7.849-8.395
		c1.699-1.756,3.215-4.152,4.231-6.41c-0.001,0.154-0.017,0.306-0.001,0.46c0.376,0.022,0.74,0.12,1.091,0.254
		c0.186,2.974,1.651,5.951,3.262,8.348c0.301,0.449,0.926,0.238,1.04-0.151c0.751,1.133,1.593,2.209,2.507,3.235
		c0.336,0.378,0.813,0.102,0.907-0.281c0.035,0.047,0.064,0.099,0.098,0.146c0.111,0.151,0.261,0.221,0.413,0.235
		c1.805,2.539,3.889,4.861,6.23,6.967c-0.09-0.286-0.178-0.567-0.274-0.862c-0.414-1.275-1.429-1.868-2.477-1.93
		c-0.287-0.972-0.687-1.889-1.146-2.788c0.063-0.121,0.088-0.263,0.054-0.405c0.014-0.011,0.024-0.025,0.038-0.038
		c1.33,1.656,2.597,3.349,4.066,4.886c1.998,2.726,4.985,4.563,8.15,5.993c0.884,0.568,1.815,1.083,2.817,1.52
		c0.721,0.314,1.419,0.439,2.084,0.437c0.265,0.098,0.531,0.195,0.792,0.291c0.08,0.029,0.166,0.041,0.246,0.063
		c-0.05,0.707,0.032,1.422,0.271,2.083c-0.012,0.126-0.028,0.252-0.028,0.381v0.14c0,1.102,0.432,2.109,1.113,2.894
		c0,1.824-0.009,3.646-0.139,5.465c-0.042,0.604,0.154,1.133,0.482,1.568c-0.009,0.275-0.024,0.55-0.035,0.825
		c-0.1,0.09-0.168,0.22-0.168,0.394c-0.01,1.769-0.134,3.532-0.279,5.294c-0.03,0.36,0.238,0.538,0.517,0.535
		c-0.024,0.379-0.051,0.758-0.099,1.137c-0.069,0.536,0.629,0.664,0.951,0.395c0.804-0.673,1.58-1.279,2.146-2.097
		c0.813-0.078,1.567-0.498,1.956-1.349c1.378-3.014,2.979-5.886,3.575-9.178c0.271-1.494,0.158-3.036,0.12-4.542
		C382.048,171.859,382.672,170.009,382.406,167.962z"/>
	<path d="M575.847,159.21c-0.204-1.047-0.466-2.12-0.826-3.096c-0.092-0.752-0.435-1.511-1.121-2.197
		c-0.13-0.13-0.261-0.26-0.392-0.392c-0.044-0.044-0.092-0.071-0.138-0.112c-0.12-1.108-0.285-2.223-0.511-3.347
		c-0.194-0.981-0.653-1.672-1.248-2.131c-0.533-1.784-1.304-3.383-2.426-4.632c-0.209-0.583-0.412-1.174-0.598-1.782
		c-0.891-2.93-3.744-3.343-5.691-2.154c-0.108-0.023-0.213-0.064-0.321-0.08c1.398-2.847,2.024-5.881,1.974-9.048
		c0.06-1.215,0.038-2.437-0.094-3.657c-0.102-0.936-0.378-1.814-0.783-2.598c-0.069-0.271-0.133-0.543-0.209-0.816
		c-1.961-7.046-5.471-13.932-12.573-16.634c-1.417-0.54-2.66-0.481-3.683-0.04c-7.541-3.504-18.076-4.813-23.41-3.765
		c-3.95-0.491-8.447,0.656-11.95,1.428c-10.024,2.209-19.674,4.005-29.154,8.14c-0.007,0.002-0.012,0.006-0.019,0.009
		c-6.801,1.4-16.295,3.828-20.138,9.934c-13.077,0.463-24.612,6.634-30.23,19.731c-3.231,7.533-3.801,15.493-1.438,23.322
		c1.246,4.128,3.739,11.236,9.253,9.974c0.095-0.022,0.17-0.059,0.254-0.089c0.13-1.093,0.315-2.183,0.699-3.208
		c0.029-0.294,0.091-0.578,0.184-0.85c-0.319-0.329-0.626-0.668-0.905-1.029c0.104-0.123,0.206-0.252,0.298-0.395
		c1.47-2.247,2.159-4.832,2.763-7.426c4.154-1.917,7.9-4.772,11.391-7.688c4.072-3.403,8.8-7.824,10.06-13.193
		c2.455,3.034,5.672,5.05,9.42,6.539c0.216,0.349,0.461,0.686,0.781,0.985c2.967,2.796,6.527,4.155,10.295,5.561
		c5.166,1.929,10.038,4.598,15.248,6.478c5.022,1.812,10.23,2.912,15.467,3.195c0.133,1.05,0.555,2.082,1.343,2.972
		c2.509,2.83,6.558,5.123,10.831,6.175c0.013,0.84,0.323,1.672,0.963,2.279c1.385,1.315,3.058,2.131,4.807,2.336
		c-0.038,1.825,0.515,3.707,1.207,5.341c0.149,0.357,0.425,0.614,0.751,0.794c0.116,0.231,0.229,0.463,0.363,0.692
		c0.916,1.569,3.701,1.423,4.073-0.532c0.689-3.62,0.478-7.373,1.319-10.944c0.659-0.151,1.309-0.52,1.89-1.193
		c2.461-2.849,5.595-4.397,9.37-4.555c3.936-0.164,5.541,4.896,5.835,7.954c0.505,5.262-2.328,13.096-8.041,14.229
		c-2.487,0.495-3.185,2.651-2.638,4.544c-0.016,0.171-0.044,0.334-0.04,0.519c0.102,4.768,0.996,9.695-0.049,14.358
		c-0.318,0.803-0.587,1.614-0.741,2.438c-0.235,1.264,0.016,2.312,0.543,3.106c-0.04,0.089-0.138,0.311-0.149,0.335
		c-0.118,0.25-0.244,0.496-0.367,0.743c-0.3,0.602-0.571,1.211-0.829,1.833c-0.337,0.819,0.082,1.739,0.743,2.294
		c-0.098,0.016-0.197,0.051-0.288,0.134c-0.473,0.431-0.855,0.62-0.906,1.322c-0.001,0.018,0.011,0.028,0.011,0.045
		c-0.108,0.192-0.206,0.395-0.306,0.603c-0.31,0.645,0.65,1.21,0.962,0.563c0.14-0.291,0.258-0.736,0.543-0.915
		c0.267-0.167,0.308-0.428,0.227-0.646c0.101-0.067,0.199-0.131,0.259-0.184c0.184-0.168,0.203-0.37,0.136-0.544
		c0.06,0.022,0.117,0.054,0.179,0.07c0.045,0.013,0.086,0.013,0.13,0.023c0.933,0.417,2.098,0.278,2.758-0.862
		c0.657-1.133,1.386-2.269,1.805-3.516c0.861-0.416,1.615-1.176,2.075-2.331c0.331-0.83,0.589-1.669,0.795-2.515
		c1.385-3.255,3.986-6.564,5.47-9.459c0.647-1.264,1.26-2.546,1.838-3.844c1.105-0.068,2.207-0.552,3.022-1.64
		c2.342-3.125,3.95-8.533,4.557-14.524c1.585-2.807,3.038-5.65,4.156-8.596c1.033-0.593,1.801-1.65,1.851-3.184
		c0.046-1.401,0.097-2.744,0.077-4.09c0.183-1.272,0.288-2.569,0.295-3.898C576.906,160.717,576.482,159.835,575.847,159.21z"/>
</g>
</svg>
