<?xml version="1.0" encoding="utf-8"?>
<!-- Generator: Adobe Illustrator 15.1.0, SVG Export Plug-In . SVG Version: 6.00 Build 0)  -->
<!DOCTYPE svg PUBLIC "-//W3C//DTD SVG 1.1//EN" "http://www.w3.org/Graphics/SVG/1.1/DTD/svg11.dtd">
<svg version="1.1" id="Layer_1" xmlns="http://www.w3.org/2000/svg" xmlns:xlink="http://www.w3.org/1999/xlink" x="0px" y="0px"
	 width="841.89px" height="595.28px" viewBox="0 0 841.89 595.28" enable-background="new 0 0 841.89 595.28" xml:space="preserve">
<g>
	<g>
		<path d="M474.603,151.239c0.008,23.16-1.958,46.08-18.666,63.752c-15.779,16.688-39.945,19.225-61.609,17.134
			c-1.396-0.135-1.383,2.041,0,2.175c22.203,2.142,45.556-0.76,62.251-16.865c18.141-17.5,20.207-42.453,20.199-66.196
			C476.777,149.838,474.603,149.838,474.603,151.239L474.603,151.239z"/>
	</g>
	<g>
		<path d="M482.642,151.788c4.001,6.853-0.148,18.191-7.597,20.934c-1.305,0.48-0.74,2.584,0.577,2.097
			c8.76-3.227,13.654-15.98,8.896-24.129C483.813,149.481,481.932,150.575,482.642,151.788L482.642,151.788z"/>
	</g>
	<g>
		<path d="M410.712,198.922c12.831,5.065,28.558,7.65,42.077,3.987c1.354-0.367,0.776-2.465-0.577-2.097
			c-13.192,3.573-28.397,0.956-40.922-3.987C409.982,196.309,409.421,198.414,410.712,198.922L410.712,198.922z"/>
	</g>
	<g>
		<path d="M410.542,196.844c-3.117,2.242-7.361,3.058-11.142,2.66c-1.394-0.146-1.378,2.03,0,2.175
			c4.108,0.432,8.853-0.521,12.239-2.958C412.768,197.911,411.683,196.024,410.542,196.844L410.542,196.844z"/>
	</g>
	<g>
		<path d="M398.553,201.775c3.969,6.119,11.547,7.676,18.282,8.837c7.809,1.345,15.239,0.266,21.211-5.175
			c1.038-0.946-0.505-2.479-1.537-1.538c-5.979,5.446-13.215,5.628-20.799,4.321c-5.564-0.959-12.024-2.523-15.281-7.544
			C399.672,199.506,397.788,200.595,398.553,201.775L398.553,201.775z"/>
	</g>
	<g>
		<path d="M432.703,208.972c6.091,6.407,19.219,3.292,25.331-1.37c1.1-0.837,0.017-2.729-1.098-1.877
			c-5.274,4.022-17.281,7.404-22.693,1.71C433.275,206.417,431.738,207.957,432.703,208.972L432.703,208.972z"/>
	</g>
	<g>
		<path d="M451.505,202.132c0.403,3.18,3.834,4.757,6.704,5.075c1.393,0.155,1.378-2.021,0-2.174
			c-1.492-0.166-4.303-1.121-4.531-2.9C453.502,200.761,451.326,200.744,451.505,202.132L451.505,202.132z"/>
	</g>
	<g>
		<path d="M425.783,215.004c1.415,2.614,5.309,2.369,7.604,1.206c1.253-0.635,0.149-2.51-1.098-1.877
			c-1.228,0.623-3.837,1.036-4.627-0.426C426.993,212.673,425.115,213.771,425.783,215.004L425.783,215.004z"/>
	</g>
	<g>
		<path d="M438.508,193.929c0.522-1.394,3.313-1.249,4.387-0.964c2.429,0.642,2.916,3.695,2.341,5.696
			c-1.159,4.024-5.924,4.441-9.321,3.921c-1.373-0.21-1.963,1.885-0.578,2.096c3.013,0.461,5.873,0.473,8.562-1.13
			c2.474-1.475,3.91-4.286,3.773-7.121c-0.131-2.766-2.222-5.038-4.809-5.722c-2.255-0.596-5.589,0.342-6.452,2.646
			C435.916,194.668,438.019,195.23,438.508,193.929L438.508,193.929z"/>
	</g>
	<g>
		<path d="M401.849,185.097c9.614,1.007,19.252,0.912,28.904,0.815c1.403-0.014,1.403-2.188,0-2.174
			c-9.652,0.096-19.291,0.191-28.904-0.815C400.454,182.777,400.469,184.953,401.849,185.097L401.849,185.097z"/>
	</g>
	<g>
		<path d="M403.751,183.647c0.285-8.731,5.144-15.925,13.3-19.237c12.95-5.259,16.548,10.308,11.79,19.494
			c-0.646,1.244,1.23,2.344,1.877,1.098c4.822-9.309,3.045-24.592-10.153-23.651c-11.197,0.797-18.651,11.954-18.988,22.297
			C401.531,185.051,403.705,185.046,403.751,183.647L403.751,183.647z"/>
	</g>
	<g>
		<path d="M431.341,168.924c-3.407-3.347-9.427-1.16-12.067,2.043c-3.092,3.751-3.617,9.68-0.966,13.772
			c0.759,1.171,2.642,0.083,1.878-1.098c-1.895-2.922-1.72-6.48-0.309-9.571c1.394-3.055,6.795-6.687,9.926-3.61
			C430.806,171.445,432.342,169.909,431.341,168.924L431.341,168.924z"/>
	</g>
	<g>
		<path d="M443.35,185.959c8.458,0.88,16.931,0.802,25.421,0.717c1.402-0.014,1.402-2.188,0-2.174
			c-8.49,0.084-16.963,0.163-25.421-0.718C441.956,183.639,441.97,185.816,443.35,185.959L443.35,185.959z"/>
	</g>
	<g>
		<path d="M445.155,184.553c0.266-7.692,4.55-13.983,11.755-16.848c11.246-4.469,14.121,9.18,10.066,17.007
			c-0.646,1.244,1.23,2.343,1.876,1.098c4.209-8.124,2.845-21.431-8.642-21.038c-10.104,0.346-16.91,10.581-17.23,19.78
			C442.93,185.956,445.105,185.951,445.155,184.553L445.155,184.553z"/>
	</g>
	<g>
		<path d="M469.381,171.512c-3.047-2.992-8.431-1.077-10.798,1.797c-2.757,3.342-3.237,8.619-0.871,12.271
			c0.759,1.172,2.645,0.083,1.875-1.099c-1.637-2.528-1.49-5.608-0.27-8.284c1.189-2.605,5.832-5.794,8.525-3.148
			C468.842,174.033,470.382,172.496,469.381,171.512L469.381,171.512z"/>
	</g>
	<g>
		<path d="M455.677,159.397c2.478-1.196,6.545-0.049,8.559,1.642c1.066,0.896,2.613-0.634,1.538-1.538
			c-2.827-2.377-7.748-3.644-11.194-1.981C453.316,158.127,454.422,160.002,455.677,159.397L455.677,159.397z"/>
	</g>
	<g>
		<path d="M414.086,156.588c4.874-2.596,10.566-1.591,15.302,0.815c1.247,0.634,2.348-1.242,1.096-1.877
			c-5.464-2.778-11.906-3.794-17.496-0.815C411.75,155.37,412.85,157.246,414.086,156.588L414.086,156.588z"/>
	</g>
	<g>
		<path d="M404.885,142.78c1.401,1.128,1.379,3.747,0.919,5.341c-0.695,2.41-3.674,3.931-5.994,3.948
			c-1.403,0.01-1.404,2.185,0,2.175c3.203-0.025,6.614-1.963,7.869-5.007c0.967-2.34,0.873-6.28-1.256-7.994
			C405.342,140.372,403.793,141.9,404.885,142.78L404.885,142.78z"/>
	</g>
	<g>
		<path d="M399.81,149.08c1.436,15.319-9.096,35.324-23.47,41.413c-1.286,0.545-0.178,2.417,1.098,1.877
			c15.04-6.371,26.048-27.273,24.545-43.29C401.855,147.696,399.678,147.683,399.81,149.08L399.81,149.08z"/>
	</g>
	<g>
		<path d="M377.837,190.987c-0.92-9.621-15.874-15.006-21.461-6.152c-5.432,8.61,1.312,19.617,11.601,15.537
			c1.288-0.51,0.726-2.615-0.579-2.097c-7.88,3.126-13.301-4.339-9.714-11.439c3.926-7.769,17.196-4.031,17.977,4.151
			C375.794,192.37,377.968,192.384,377.837,190.987L377.837,190.987z"/>
	</g>
	<g>
		<path d="M365.017,189.403c-1.127,1.076-1.236,2.97-0.091,4.074c1.006,0.976,2.547-0.561,1.538-1.537
			c-0.292-0.282-0.233-0.69,0.091-1C367.571,189.971,366.031,188.435,365.017,189.403L365.017,189.403z"/>
	</g>
	<g>
		<path d="M336.579,132.023c-10.674,9.459-12.562,28.623-10.831,41.879c1.869,14.302,9.571,27.79,22.792,34.248
			c1.256,0.613,2.358-1.262,1.098-1.877c-13.183-6.44-20.053-19.656-21.899-33.774c-1.59-12.183,0.678-30.344,10.377-38.938
			C339.167,132.629,337.624,131.097,336.579,132.023L336.579,132.023z"/>
	</g>
	<g>
		<path d="M346.849,207.269c2.459,2.051,6.967,1.496,9.388-0.337c3.396-2.573,3.694-6.978,1.97-10.604
			c-0.603-1.266-2.476-0.163-1.878,1.098c1.354,2.848,0.955,6.003-1.649,7.975c-1.384,1.05-4.877,1.51-6.292,0.331
			C347.317,204.841,345.77,206.371,346.849,207.269L346.849,207.269z"/>
	</g>
	<g>
		<path d="M354.209,206.572c0.646,7.203,6.401,13.284,11.652,17.791c5.477,4.701,12.288,6.688,19.416,6.198
			c1.391-0.096,1.4-2.272,0-2.175c-6.754,0.464-12.548-1.406-17.879-5.561c-4.83-3.765-10.45-9.951-11.015-16.253
			C356.259,205.187,354.084,205.175,354.209,206.572L354.209,206.572z"/>
	</g>
	<g>
		<path d="M412.428,233.327c-3.948,4.33-5.852,9.937-6.802,15.634c-0.231,1.372,1.866,1.959,2.096,0.579
			c0.886-5.309,2.552-10.626,6.244-14.676C414.909,233.831,413.375,232.288,412.428,233.327L412.428,233.327z"/>
	</g>
	<g>
		<path d="M332.711,132.996c47.66,6.081,95.32,12.162,142.979,18.243c1.388,0.178,1.371-1.999,0-2.175
			c-47.659-6.081-95.319-12.162-142.979-18.244C331.323,130.644,331.34,132.821,332.711,132.996L332.711,132.996z"/>
	</g>
	<g>
		<path d="M467.284,126.863c6.805,0.583,13.418,1.918,19.896,4.077c4.317,1.438,23.781,10.052,14.354,15.93
			c-6.249,3.897-16.552,2.925-23.572,2.426c-7.253-0.516-14.441-1.805-21.654-2.704c-1.389-0.173-1.373,2.004,0,2.175
			c11.081,1.38,22.109,3.471,33.326,2.854c5.391-0.298,15.843-1.08,16.821-7.979c0.885-6.217-9.4-10.832-13.665-12.81
			c-7.954-3.689-16.817-5.397-25.505-6.144C465.889,124.568,465.899,126.743,467.284,126.863L467.284,126.863z"/>
	</g>
	<g>
		<path d="M334.071,134.583c-1.66,1.722-0.595-8.758-0.736-8.032c0.817-4.161,2.616-8.179,4.312-12.031
			c3.076-6.982,6.501-13.8,10.5-20.299c0.738-1.199-1.142-2.29-1.876-1.098c-6.188,10.057-12.139,21.335-15.035,32.851
			c-0.842,3.352-1.029,6.441,0.322,9.622c0.871,2.055,2.725,1.901,4.05,0.526C336.583,135.111,335.047,133.572,334.071,134.583
			L334.071,134.583z"/>
	</g>
	<g>
		<path d="M347.759,94.609c22.212-10.903,48.457-17.078,73.195-13.373c22.53,3.375,45.168,19.857,45.243,44.54
			c0.006,1.402,2.181,1.402,2.175,0c-0.077-24.619-21.417-41.335-43.753-46.079c-25.846-5.489-54.707,1.623-77.958,13.035
			C345.402,93.35,346.504,95.225,347.759,94.609L347.759,94.609z"/>
	</g>
	<g>
		<path d="M400.8,136.543c10.23,2.015,21.379,1.503,31.723,0.669c11.271-0.908,22.304-3.649,33.01-7.194
			c1.325-0.438,0.755-2.54-0.579-2.097c-9.952,3.295-20.05,5.753-30.478,6.928c-10.605,1.194-22.603,1.663-33.098-0.405
			C400.01,134.176,399.426,136.273,400.8,136.543L400.8,136.543z"/>
	</g>
	<g>
		<path d="M403.053,130.694c8.077,2.75,17.155,3.317,25.615,3.801c9.691,0.555,19.408-0.156,28.899-2.172
			c1.371-0.292,0.789-2.388-0.578-2.097c-16.582,3.521-37.112,3.901-53.359-1.629C402.299,128.144,401.732,130.245,403.053,130.694
			L403.053,130.694z"/>
	</g>
	<g>
		<path d="M418.821,82.654c-7.721,3.149-13.017,10.268-17.729,16.87c-5.677,7.953-9.961,17.144-11.438,26.839
			c-0.209,1.372,1.887,1.961,2.096,0.578c1.282-8.408,4.711-16.032,9.158-23.226c4.357-7.046,10.562-15.73,18.491-18.965
			C420.68,84.229,420.119,82.125,418.821,82.654L418.821,82.654z"/>
	</g>
	<g>
		<path d="M389.246,130.306c-0.151,0.536-0.174,1.095-0.174,1.648c-0.002,1.403,2.173,1.403,2.174,0
			c0.002-0.366-0.003-0.716,0.097-1.071C391.727,129.532,389.627,128.958,389.246,130.306L389.246,130.306z"/>
	</g>
	<g>
		<path d="M340.668,127.838c9.296,1.892,18.711,2.866,28.153,3.708c1.397,0.125,1.384-2.05,0-2.174
			c-9.247-0.824-18.468-1.777-27.576-3.631C339.877,125.461,339.294,127.558,340.668,127.838L340.668,127.838z"/>
	</g>
	<g>
		<path d="M439.649,102.408c-6.274-2.049-9.688,5.151-9.844,10.309c-0.155,5.092,4.521,10.271,9.818,7.722
			c8.312-3.999,7.548-22.124-3.994-17.307c-1.272,0.532-0.716,2.638,0.577,2.097c8.599-3.589,8.092,8.282,3.767,12.407
			c-3.538,3.376-7.704-0.44-7.98-4.341c-0.277-3.858,2.2-10.384,7.079-8.792C440.41,104.941,440.977,102.841,439.649,102.408
			L439.649,102.408z"/>
	</g>
	<g>
		<path d="M411.512,236.57c2.712,6.296-1.338,15.556-2.888,21.806c-1.597,6.438-2.324,12.872-0.575,19.344
			c0.365,1.352,2.463,0.777,2.097-0.578c-2.471-9.145,0.652-17.833,2.724-26.702c1.157-4.957,2.623-10.082,0.519-14.967
			C412.834,234.188,410.962,235.296,411.512,236.57L411.512,236.57z"/>
	</g>
	<g>
		<path d="M409.965,264.036c2.299-6.453,13.113-6.258,18.066-3.971c1.263,0.585,2.367-1.289,1.096-1.878
			c-6.396-2.954-18.437-2.651-21.258,5.272C407.395,264.783,409.496,265.35,409.965,264.036L409.965,264.036z"/>
	</g>
	<g>
		<path d="M412.808,235.691c9.087,4.005,13.333,14.472,14.722,23.725c0.211,1.382,2.305,0.793,2.1-0.579
			c-1.466-9.75-6.168-20.812-15.723-25.023C412.634,233.253,411.528,235.126,412.808,235.691L412.808,235.691z"/>
	</g>
	<g>
		<path d="M359.289,225.291c13.038,2.982,22.509,13.852,30.575,23.956c6.686,8.376,14.455,17.915,18.004,28.155
			c0.456,1.318,2.556,0.752,2.096-0.578c-3.701-10.675-11.649-20.346-18.564-29.115c-8.251-10.465-18.103-21.443-31.534-24.516
			C358.502,222.881,357.922,224.977,359.289,225.291L359.289,225.291z"/>
	</g>
	<g>
		<path d="M359.029,223.53c-2.723,1.822-4.381,4.861-6.126,7.558c-2.341,3.615-4.067,7.574-5.418,11.652
			c-0.44,1.334,1.66,1.902,2.099,0.577c1.168-3.532,2.672-6.859,4.545-10.073c1.548-2.655,3.406-6.102,5.998-7.836
			C361.286,224.632,360.199,222.747,359.029,223.53L359.029,223.53z"/>
	</g>
	<g>
		<path d="M403.67,264.128c-8.704-11.741-20.881,1.558-25.231,10.2c-0.63,1.25,1.246,2.351,1.877,1.099
			c3.394-6.743,13.933-20.377,21.478-10.201C402.618,266.339,404.507,265.256,403.67,264.128L403.67,264.128z"/>
	</g>
	<g>
		<path d="M347.764,243.797c11.344,9.708,20.939,20.722,30.848,31.851c0.935,1.049,2.466-0.494,1.537-1.538
			c-9.908-11.127-19.503-22.142-30.847-31.85C348.243,241.352,346.7,242.883,347.764,243.797L347.764,243.797z"/>
	</g>
	<g>
		<path d="M409.68,280.801c5.351,13.041,10.925,26.03,15.857,39.236c0.486,1.301,2.589,0.738,2.096-0.578
			c-4.932-13.207-10.506-26.196-15.857-39.236C411.25,278.944,409.146,279.504,409.68,280.801L409.68,280.801z"/>
	</g>
	<g>
		<path d="M360.139,225.063c1.9-0.627,3.835-0.868,5.829-0.936c1.399-0.049,1.403-2.225,0-2.176
			c-2.177,0.075-4.332,0.329-6.407,1.015C358.236,223.404,358.803,225.504,360.139,225.063L360.139,225.063z"/>
	</g>
	<g>
		<path d="M420.962,242.306c4.547,3.408,10.125,5.187,15.042,7.974c1.223,0.693,2.318-1.186,1.098-1.877
			c-4.916-2.788-10.494-4.568-15.041-7.975C420.937,239.587,419.854,241.476,420.962,242.306L420.962,242.306z"/>
	</g>
	<g>
		<path d="M435.614,250.072c4.884,8.815,8.479,18.232,12.541,27.434c0.566,1.281,2.438,0.173,1.878-1.097
			c-4.061-9.202-7.658-18.62-12.542-27.435C436.812,247.747,434.934,248.843,435.614,250.072L435.614,250.072z"/>
	</g>
	<g>
		<path d="M347.764,242.259c-9.048,8.012-13.359,19.872-16.022,31.354c-2.845,12.267-3.678,25.189-2.915,37.74
			c1.885,31.018,11.481,60.127,27.5,86.597c0.727,1.198,2.607,0.104,1.878-1.098c-15.798-26.103-24.65-54.038-27.132-84.481
			c-0.959-11.774-0.046-23.837,2.182-35.416c2.312-12.027,6.635-24.825,16.046-33.158
			C350.356,242.865,348.812,241.333,347.764,242.259L347.764,242.259z"/>
	</g>
	<g>
		<path d="M351.83,389.517c-0.148,17.496,1.255,34.977,0.497,52.471c-0.062,1.402,2.113,1.396,2.172,0
			c0.76-17.494-0.644-34.975-0.493-52.471C354.016,388.114,351.843,388.116,351.83,389.517L351.83,389.517z"/>
	</g>
	<g>
		<path d="M482.142,384.589c6.856,16.454,7.887,33.911,7.914,51.529c0.001,1.404,2.176,1.404,2.175,0
			c-0.027-17.812-1.058-35.47-7.992-52.108C483.707,382.735,481.603,383.294,482.142,384.589L482.142,384.589z"/>
	</g>
	<g>
		<path d="M352.279,442.8c8.42,7.272,19.646,9.409,30.34,11.051c12.365,1.9,24.957,2.115,37.433,1.601
			c24.838-1.02,50.19-5.134,71.642-18.392c1.19-0.737,0.099-2.618-1.098-1.878c-20.135,12.443-43.349,16.404-66.627,17.891
			c-11.762,0.75-23.579,0.591-35.305-0.621c-11.781-1.217-25.582-3.186-34.847-11.188C352.763,440.35,351.215,441.883,352.279,442.8
			L352.279,442.8z"/>
	</g>
	<g>
		<path d="M482.087,440.625c1.73,18.793,1.496,37.694,1.041,56.539c-0.035,1.402,2.141,1.399,2.175,0
			c0.455-18.845,0.688-37.746-1.04-56.539C484.135,439.239,481.958,439.228,482.087,440.625L482.087,440.625z"/>
	</g>
	<g>
		<path d="M366.781,449.971c1.899,12.271,0.76,24.678-1.318,36.847c-0.235,1.371,1.859,1.958,2.096,0.577
			c2.151-12.577,3.283-25.319,1.321-38C368.664,448.011,366.568,448.602,366.781,449.971L366.781,449.971z"/>
	</g>
	<g>
		<path d="M457.201,460.998c1.059,9.63-0.237,19.277-0.068,28.929c0.026,1.401,2.201,1.402,2.174,0
			c-0.168-9.651,1.128-19.299,0.069-28.929C459.223,459.621,457.048,459.605,457.201,460.998L457.201,460.998z"/>
	</g>
	<g>
		<path d="M397.81,283.157c6.292,18.111,14.341,35.486,23.012,52.567c0.635,1.251,2.51,0.149,1.877-1.098
			c-8.586-16.913-16.562-34.113-22.793-52.048C399.45,281.263,397.348,281.829,397.81,283.157L397.81,283.157z"/>
	</g>
	<g>
		<path d="M353.773,294.574c1.868,9.798,5.847,19.508,9.45,28.781c2.735,7.046,5.757,13.998,9.152,20.75
			c4.771,9.484,9.817,19.056,15.477,28.05c0.743,1.185,2.626,0.093,1.878-1.099c-5.205-8.269-9.771-17.054-14.281-25.715
			c-3.811-7.323-7.084-14.891-10.13-22.563c-3.658-9.226-7.584-19.009-9.449-28.781
			C355.607,292.619,353.511,293.204,353.773,294.574L353.773,294.574z"/>
	</g>
	<g>
		<path d="M403.614,357.184c4.642-5.293,8.351-11.653,13.316-16.586c1.757-1.74,3.673-3.323,5.718-4.708
			c0.862-0.585,1.773-1.043,2.76-1.38c3.004-1.027,0.732,5.958,0.45,6.817c-1.42,4.343-4.318,8.312-6.513,12.292
			c-2.275,4.131-4.699,8.145-7.614,11.86c-2.783,3.55-6.334,6.403-10.183,8.713c-2.927,1.76-6.854,2.855-9.867,0.384
			c-1.976-1.619-2.342-4.951-2.521-7.292c-0.103-1.39-2.279-1.4-2.173,0c0.801,10.622,8.411,13.141,17.157,7.886
			c10.909-6.553,17.769-20.219,23.018-31.329c2.066-4.373,3.772-14.279-4.04-10.741c-9.262,4.197-14.751,15.369-21.046,22.546
			C401.157,356.695,402.689,358.239,403.614,357.184L403.614,357.184z"/>
	</g>
	<g>
		<path d="M424.121,347.526c12.176,3.036,24.671,4.644,36.877,7.671c13.048,3.236,25.994,6.839,39.2,9.407
			c1.369,0.269,1.952-1.828,0.575-2.096c-12.542-2.442-24.871-5.777-37.254-8.92c-12.842-3.26-25.992-4.963-38.82-8.16
			C423.339,345.091,422.761,347.186,424.121,347.526L424.121,347.526z"/>
	</g>
	<g>
		<path d="M396.865,376.56c0.384,4.448,5.044,5.616,8.789,6.318c7.576,1.419,15.544,1.642,23.212,2.052
			c23.262,1.246,47.08,0.682,70.299-1.101c1.392-0.108,1.399-2.283,0-2.175c-18.403,1.413-37.016,1.672-55.47,1.539
			c-9.161-0.069-18.318-0.523-27.444-1.326c-3.729-0.328-16.753-0.012-17.212-5.308C398.918,375.173,396.743,375.162,396.865,376.56
			L396.865,376.56z"/>
	</g>
	<g>
		<path d="M496.158,384.312c17.409,7.194,38.508,1.489,53.709-8.128c1.181-0.748,0.091-2.63-1.098-1.878
			c-14.756,9.335-35.12,14.899-52.032,7.911C495.44,381.681,494.88,383.785,496.158,384.312L496.158,384.312z"/>
	</g>
	<g>
		<path d="M499.984,363.953c3.964-2.048,7.917-4.106,11.826-6.254c1.229-0.674,0.133-2.552-1.099-1.877
			c-3.906,2.147-7.863,4.207-11.825,6.251C497.642,362.718,498.739,364.594,499.984,363.953L499.984,363.953z"/>
	</g>
	<g>
		<path d="M511.261,357.85c7.803,0.124,15.622-0.069,23.26-1.808c1.368-0.31,0.79-2.407-0.577-2.095
			c-7.449,1.693-15.076,1.85-22.683,1.727C509.859,355.651,509.861,357.826,511.261,357.85L511.261,357.85z"/>
	</g>
	<g>
		<path d="M534.386,355.771c2.771-0.583,4.934,1.314,2.554,3.473c-1.505,1.364-3.752,2.027-5.637,2.631
			c-3.164,1.013-6.457,1.589-9.728,2.131c-1.383,0.226-0.793,2.322,0.577,2.095c5.27-0.869,11.206-1.727,15.691-4.825
			c1.742-1.201,2.736-2.911,2.345-5.028c-0.554-3.018-4.049-3.062-6.382-2.571C532.436,353.964,533.017,356.06,534.386,355.771
			L534.386,355.771z"/>
	</g>
	<g>
		<path d="M524.44,365.447c3.255,1.763,7.912,1.72,11.503,2.08c6.804,0.686,13.65,0.582,20.443-0.164
			c1.378-0.152,1.394-2.329,0-2.176c-4.777,0.526-9.521,0.692-14.324,0.562c-4.867-0.129-12.173,0.178-16.524-2.179
			C524.306,362.902,523.208,364.779,524.44,365.447L524.44,365.447z"/>
	</g>
	<g>
		<path d="M555.418,367.188c4.862,0.964-6.301,5.979-5.46,5.638c-2.076,0.842-4.466,1.085-6.659,1.274
			c-4.176,0.358-8.46-0.28-12.601-0.757c-1.393-0.16-1.377,2.018,0,2.175c8.34,0.959,16.388,1.608,24.001-2.523
			c2.648-1.437,5.904-6.99,1.298-7.902C554.625,364.82,554.043,366.915,555.418,367.188L555.418,367.188z"/>
	</g>
	<g>
		<path d="M542.258,377.978c-5.529,3.354-13.116,3.844-19.088,1.419c-1.297-0.529-1.858,1.576-0.576,2.096
			c6.475,2.631,14.782,1.992,20.763-1.638C544.553,379.129,543.46,377.248,542.258,377.978L542.258,377.978z"/>
	</g>
	<g>
		<path d="M426.01,264.57c6.065,14.127,10.879,28.729,17.118,42.808c0.567,1.281,2.44,0.173,1.876-1.098
			c-6.238-14.08-11.049-28.677-17.118-42.808C427.335,262.187,425.46,263.295,426.01,264.57L426.01,264.57z"/>
	</g>
	<g>
		<path d="M578.497,255.866c-5.27,40.079-10.534,80.159-15.801,120.237c-0.183,1.387,1.994,1.371,2.174,0
			c5.268-40.078,10.533-80.158,15.8-120.237C580.853,254.478,578.674,254.495,578.497,255.866L578.497,255.866z"/>
	</g>
	<g>
		<path d="M452.382,243.213c-4.433,35.538-8.863,71.077-13.291,106.616c-0.177,1.39,2.004,1.374,2.174,0
			c4.428-35.539,8.859-71.078,13.288-106.616C454.729,241.824,452.552,241.841,452.382,243.213L452.382,243.213z"/>
	</g>
	<g>
		<path d="M453.468,244.3c42.181,3.665,84.307,8.042,126.433,12.29c1.396,0.14,1.382-2.035,0-2.174
			c-42.126-4.248-84.252-8.625-126.433-12.291C452.069,242.003,452.08,244.18,453.468,244.3L453.468,244.3z"/>
	</g>
	<g>
		<path d="M479.688,218.9c27.107,2.684,54.232,5.166,81.338,7.867c1.395,0.139,1.384-2.037,0-2.174
			c-27.105-2.7-54.23-5.184-81.338-7.867C478.293,216.587,478.305,218.764,479.688,218.9L479.688,218.9z"/>
	</g>
	<g>
		<path d="M547.553,376.335c5.372,0.612,10.511,0.729,15.906,0.854c1.401,0.033,1.398-2.142,0-2.174
			c-5.396-0.126-10.534-0.243-15.906-0.855C546.16,374.002,546.176,376.178,547.553,376.335L547.553,376.335z"/>
	</g>
	<g>
		<path d="M478.921,217.043c-8.462,8.541-17.442,16.529-26.222,24.733c-1.026,0.959,0.514,2.494,1.536,1.538
			c8.781-8.205,17.762-16.192,26.223-24.733C481.444,217.585,479.906,216.047,478.921,217.043L478.921,217.043z"/>
	</g>
	<g>
		<path d="M560.089,226.229c6.605,9.743,12.87,19.691,18.796,29.863c0.705,1.211,2.583,0.115,1.877-1.098
			c-5.927-10.17-12.188-20.12-18.797-29.863C561.185,223.978,559.299,225.064,560.089,226.229L560.089,226.229z"/>
	</g>
	<g>
		<path d="M530.064,221.977c-9.065,8.063-17.777,16.625-26.272,25.282c-0.979,1.001,0.555,2.54,1.538,1.537
			c8.495-8.657,17.208-17.218,26.272-25.282C532.653,222.581,531.107,221.049,530.064,221.977L530.064,221.977z"/>
	</g>
	<g>
		<path d="M477.114,322.38c3.923,6.027,7.501,12.271,11.415,18.304c0.763,1.17,2.646,0.079,1.879-1.099
			c-3.917-6.03-7.495-12.276-11.417-18.304C478.229,320.111,476.345,321.199,477.114,322.38L477.114,322.38z"/>
	</g>
	<g>
		<path d="M478.341,322.421c7.497-3.154,14.137-9.326,20.873-13.854c8.789-5.907,17.591-11.796,26.324-17.789
			c1.146-0.789,0.063-2.674-1.098-1.877c-7.564,5.191-15.18,10.307-22.797,15.419c-4.124,2.768-8.246,5.539-12.361,8.322
			c-3.843,2.597-7.189,5.858-11.519,7.682C476.492,320.859,477.049,322.965,478.341,322.421L478.341,322.421z"/>
	</g>
	<g>
		<path d="M489.759,341.182c7.495-3.154,14.135-9.328,20.871-13.854c8.789-5.908,17.593-11.796,26.327-17.788
			c1.146-0.787,0.061-2.673-1.1-1.879c-7.564,5.191-15.179,10.309-22.797,15.419c-4.123,2.769-8.248,5.54-12.36,8.322
			c-3.846,2.599-7.188,5.859-11.521,7.685C487.909,339.621,488.467,341.727,489.759,341.182L489.759,341.182z"/>
	</g>
	<g>
		<path d="M524.765,290.93c1.951,1.658,3.237,5.15,4.555,7.326c2.02,3.336,3.676,7.079,6.184,10.071
			c0.901,1.076,2.431-0.47,1.538-1.537c-2.503-2.987-4.161-6.851-6.185-10.192c-1.323-2.186-2.577-5.525-4.554-7.206
			C525.239,288.491,523.694,290.021,524.765,290.93L524.765,290.93z"/>
	</g>
	<g>
		<path d="M562.775,257.813c-9.267-0.404-11.021,16.114-1.401,17.24c6.192,0.724,10.831-6.812,10.604-12.211
			c-0.306-7.269-7.472-6.1-12.063-3.792c-1.252,0.628-0.15,2.505,1.099,1.877c1.615-0.81,3.277-1.528,5.091-1.712
			c2.975-0.301,3.809,2.626,3.693,5.042c-0.218,4.576-4.914,9.756-9.7,8.346c-5.714-1.684-3.002-12.862,2.679-12.614
			C564.177,260.05,564.171,257.875,562.775,257.813L562.775,257.813z"/>
	</g>
	<g>
		<path d="M463.266,258.726c7.378,1.36,14.835,2.049,22.309,2.622c1.399,0.107,1.387-2.069,0-2.175
			c-7.281-0.557-14.543-1.218-21.73-2.544C462.472,256.376,461.888,258.472,463.266,258.726L463.266,258.726z"/>
	</g>
	<g>
		<path d="M469.807,254.551c3.405-0.112,6.789,0.634,10.194,0.681c1.403,0.019,1.401-2.156,0-2.176
			c-3.405-0.046-6.789-0.792-10.194-0.679C468.409,252.423,468.405,254.599,469.807,254.551L469.807,254.551z"/>
	</g>
	<g>
		<path d="M468.582,266.647c1.357,0.125,2.717,0.136,4.08,0.136c1.402,0,1.402-2.175,0-2.175c-1.363,0-2.723-0.01-4.08-0.136
			C467.187,264.345,467.198,266.521,468.582,266.647L468.582,266.647z"/>
	</g>
	<g>
		<path d="M502.337,208.929c4.421,0,8.833,0.037,13.229,0.544c0.696,0.08,0.689-1.009,0-1.087
			c-4.396-0.507-8.809-0.542-13.229-0.544C501.635,207.841,501.635,208.929,502.337,208.929L502.337,208.929z"/>
	</g>
	<g>
		<path d="M508.862,206.754c0.803,0,1.598,0.013,2.392,0.161c0.685,0.129,0.978-0.918,0.288-1.048
			c-0.889-0.167-1.778-0.2-2.68-0.201C508.16,205.666,508.16,206.753,508.862,206.754L508.862,206.754z"/>
	</g>
	<g>
		<path d="M549.456,390.606c-0.546,0-1.088,0-1.633,0c-0.7,0-0.7,1.081,0,1.086c16.846,0.116,32.138-7.861,45.67-17.199
			c0.575-0.396,0.031-1.339-0.547-0.94c-13.377,9.233-28.467,17.167-45.123,17.054c0,0.36,0,0.724,0,1.086c0.545,0,1.087,0,1.633,0
			C550.155,391.692,550.155,390.606,549.456,390.606L549.456,390.606z"/>
	</g>
	<g>
		<path d="M572.833,394.41c0.992-0.023,1.89-0.354,2.72-0.889c0.588-0.378,0.044-1.319-0.548-0.938
			c-0.672,0.431-1.367,0.721-2.172,0.74C572.133,393.341,572.129,394.427,572.833,394.41L572.833,394.41z"/>
	</g>
	<g>
		<path d="M426.857,400.662c-1.074,0.007-2.084,0.078-3.135,0.292c-0.615,0.124-0.456,1.062,0.145,1.067
			c34.072,0.258,68.138-0.804,102.209-0.814c0.701,0,0.701-1.088,0-1.088c-34.071,0.012-68.137,1.073-102.209,0.816
			c0.048,0.355,0.096,0.711,0.145,1.068c0.985-0.2,1.855-0.25,2.846-0.255C427.558,401.747,427.56,400.659,426.857,400.662
			L426.857,400.662z"/>
	</g>
	<g>
		<path d="M451.051,412.896c18.379,0.877,36.795-0.254,55.181-0.272c0.703-0.002,0.703-1.089,0-1.089
			c-18.386,0.02-36.802,1.151-55.181,0.272C450.35,411.773,450.353,412.862,451.051,412.896L451.051,412.896z"/>
	</g>
	<g>
		<path d="M527.163,397.673c0.727,0,1.451,0,2.176,0c0.701,0,0.701-1.089,0-1.089c-0.725,0-1.449,0-2.176,0
			C526.465,396.584,526.465,397.673,527.163,397.673L527.163,397.673z"/>
	</g>
	<g>
		<path d="M298.571,319.528c3.382,16.04,13.232,30.435,27.703,38.382c0.618,0.338,1.164-0.602,0.55-0.939
			c-14.243-7.823-23.875-21.95-27.205-37.73C299.475,318.554,298.428,318.846,298.571,319.528L298.571,319.528z"/>
	</g>
	<g>
		<path d="M298.353,338.958c2.432,3.752,5.114,7.237,8.512,10.169c0.528,0.456,1.301-0.311,0.769-0.769
			c-3.327-2.871-5.961-6.271-8.342-9.948C298.914,337.824,297.972,338.368,298.353,338.958L298.353,338.958z"/>
	</g>
	<g>
		<path d="M428.758,184.112c-0.086,0.063-0.154,0.136-0.253,0.194C429.17,183.896,429.087,183.931,428.758,184.112z"/>
		<path d="M430.222,181.93c1.522-2.585,1.787-5.621,1.979-8.703c0.104-1.622-1.157-3.134-2.651-3.616
			c-0.597-0.538-1.394-0.896-2.42-0.914c-6.701-0.114-14.003,7.542-8.879,13.741c1.435,1.737,3.744,2.221,5.94,1.903
			c0.547,0.338,1.172,0.579,1.852,0.666c0.422,0.077,0.849,0.044,1.271-0.102c0.09-0.025,0.996-0.546,1.443-0.793
			C429.587,183.512,430.055,182.745,430.222,181.93z"/>
	</g>
	<path d="M469.33,175.459c0.007-0.08,0.023-0.157,0.023-0.238c0-2.124-1.732-3.74-3.805-3.805c-2.627-0.083-5.239,1.464-6.956,3.356
		c-2.099,2.31-3.271,6.203-0.797,8.726c1.806,1.843,5.215,2.758,7.672,1.839c3.557-1.332,3.829-4.869,4.25-8.122
		C469.8,176.583,469.63,175.99,469.33,175.459z"/>
	<path d="M484.483,154.836c-0.119-0.102-0.241-0.184-0.367-0.257c-0.407-1.258-1.041-2.411-1.987-3.367
		c-0.612-0.618-1.589-0.795-2.381-0.476c-0.97-1.621-4.049-1.257-4.052,1.107c0,5.981-0.072,11.893-1.553,17.725
		c-0.431,1.703,1.562,3.634,3.195,2.456c0.846-0.61,1.518-1.264,2.071-1.971c0.829,0.247,1.765,0.022,2.333-0.984
		c0.14-0.249,0.276-0.513,0.413-0.78C484.285,164.438,488.665,158.42,484.483,154.836z"/>
	<path d="M454.165,203.932c-2.53-0.702-2.523-1.963-5.346-1.351c-3.651,0.794-7.059,1.541-10.815,1.091
		c-0.909-0.107-1.547,0.385-1.874,1.072c-0.141,0.049-0.273,0.109-0.397,0.184c-0.104-0.025-0.204-0.041-0.302-0.05
		c-0.06-1.208-1.135-2.446-2.719-2.216c-5.5,0.803-11.178-0.518-16.416-2.13c-1.523-0.47-3.189-1.435-4.846-1.318
		c-2.854,0.202-5.549,1.046-8.425,1.196c-2.79,0.145-2.803,4.496,0,4.35c0.496-0.026,1.01-0.093,1.534-0.174
		c0.096,0.766,0.568,1.472,1.513,1.727c1.866,0.504,3.574,1.428,5.352,2.168c2.269,0.945,5.338,0.791,7.731,0.809
		c4.867,0.035,9.588-1.11,14.264-2.318c-0.031,0.759,0.252,1.544,0.947,2.021c4.618,3.17,11.802,3.301,16.692,0.725
		c0.386-0.202,0.643-0.465,0.821-0.756c0.964-0.317,1.907-0.667,2.805-1.056C456.498,207.125,455.821,204.392,454.165,203.932z"/>
	<path d="M402.988,140.361c-1.309-0.476-2.362-0.099-3.054,0.66c-3.722-1.577-9.424-1.244-12.494-1.592
		c-0.269-0.031-0.521-0.03-0.756-0.005c-5.202-1.308-10.584-1.974-15.89-2.691c-10.422-1.41-20.953-3.559-31.489-4.004
		c-0.98-0.462-2.186-0.542-3.23-0.014c-1.356,0.291-2.125,1.371-2.306,2.572c-5.213,7.77-6.877,18.095-6.613,27.892
		c-1.039,10.466,0.505,20.812,6.778,29.686c2.528,3.575,8.81,13.407,14.732,13.808c0.504,0.784,1.372,1.321,2.62,1.26
		c3.253-0.158,4.968-1.798,5.859-4.896c1.634-5.688-2.916-10.937-0.304-16.688c1.662-3.664,8.456-5.802,13.227-4.791
		c0.145,1.103,0.886,2.023,1.916,2.541c-0.013-0.006-0.024-0.011-0.038-0.016c0.373,0.162,0.729,0.35,1.07,0.569
		c0.504,0.324,1.075,0.452,1.643,0.442c0.19,0.566,0.292,1.197,0.276,1.907c-0.093,3.917,5.542,4.176,6.409,0.812
		c3.862-1.043,6.378-4.557,8.67-7.773c3.753-5.27,6.996-11.071,9.338-17.091c0.912-2.345,1.115-4.864,1.528-7.327
		c0.599-3.585,1.511-1.573,3.768-3.7C408.778,148.03,408.58,142.395,402.988,140.361z"/>
</g>
</svg>
