<?xml version="1.0" encoding="utf-8"?>
<!-- Generator: Adobe Illustrator 15.1.0, SVG Export Plug-In . SVG Version: 6.00 Build 0)  -->
<!DOCTYPE svg PUBLIC "-//W3C//DTD SVG 1.1//EN" "http://www.w3.org/Graphics/SVG/1.1/DTD/svg11.dtd">
<svg version="1.1" id="Layer_1" xmlns="http://www.w3.org/2000/svg" xmlns:xlink="http://www.w3.org/1999/xlink" x="0px" y="0px"
	 width="841.89px" height="595.28px" viewBox="0 0 841.89 595.28" enable-background="new 0 0 841.89 595.28" xml:space="preserve">
<g>
	<g>
		<path fill="#2B2829" d="M266.755,285.232c-1.476,3.341-1.892,6.586-1.941,10.225c-0.039,2.827,4.305,2.816,4.377,0
			c0.12-4.604,0.866-9.121,1.459-13.68c-1.359,0.369-2.72,0.736-4.08,1.104c1.798,3.04,4.164,5.331,7.17,7.169
			c2.421,1.481,4.573-2.264,2.209-3.779c-1.951-1.253-3.939-1.646-6.211-1.941c-2.557-0.332-2.807,3.571-0.582,4.3
			c4.678,1.531,9.093,3.416,14.079,3.544c2.861,0.074,2.765-4.131,0-4.378c-3.644-0.325-6.678-2.25-9.84-3.896
			c-0.562,1.333-1.125,2.667-1.687,4c1.981,0.801,3.826,1.88,5.804,2.679c2.212,0.895,4.642,0.839,6.808,1.844
			c0.173-1.334,0.348-2.668,0.521-4.001c-10.829,3.592-14.815,12.298-18.126,22.507c-0.885,2.724,3.236,3.751,4.222,1.163
			c2.674-7.031,5.28-14.17,5.732-21.742c0.114-1.926-2.459-2.874-3.737-1.547c-4.582,4.759-6.367,11.932-7.025,18.33
			c-0.239,2.335,2.984,2.752,4.079,1.105c3.459-5.203,3.634-13.158,3.035-19.164c-0.167-1.675-2.391-3.187-3.736-1.547
			c-3.021,3.679-3.465,8.369-3.869,12.967c-0.486,5.529-2.231,11.626-0.708,17.07c0.546,1.949,3.86,2.231,4.222,0
			c1.376-8.483,1.037-17.013,1.172-25.572c0.04-2.456-3.731-3.005-4.3-0.582c-2.099,8.959-1.586,18.084-1.537,27.214
			c0.025,4.72,0.566,9.393,1.186,14.067c0.53,3.995,0.524,7.787,2.212,11.479c1.174,2.564,4.947,0.338,3.782-2.211
			c-1.683-3.674-1.633-9.272-2.126-13.246s-0.666-7.94-0.686-11.942c-0.044-8.129-0.48-16.213,1.39-24.198
			c-1.433-0.193-2.866-0.387-4.299-0.581c-0.129,8.147,0.294,16.333-1.017,24.409c1.407,0,2.815,0,4.222,0
			c-1.195-4.269,0.299-8.877,0.658-13.205c0.333-4.011,0.082-9.271,2.792-12.574c-1.245-0.516-2.49-1.032-3.737-1.547
			c0.528,5.305,0.614,12.367-2.437,16.954c1.359,0.367,2.719,0.735,4.078,1.104c0.535-5.202,2.025-11.373,5.743-15.234
			c-1.245-0.515-2.491-1.032-3.736-1.548c-0.426,7.141-3.057,13.952-5.576,20.579c1.406,0.387,2.814,0.773,4.222,1.163
			c2.791-8.606,5.806-16.377,15.07-19.448c1.633-0.542,2.368-3.146,0.521-4.001c-2.088-0.968-4.106-1.229-6.359-1.68
			c-2.405-0.48-4.972-2.343-7.295-3.283c-2.317-0.937-3.86,2.87-1.687,4.001c3.952,2.058,7.544,4.092,12.048,4.494
			c0-1.459,0-2.919,0-4.378c-4.567-0.118-8.642-1.989-12.916-3.388c-0.194,1.433-0.387,2.866-0.582,4.299
			c1.468,0.054,2.803,0.5,4.002,1.343c0.736-1.259,1.473-2.521,2.209-3.779c-2.362-1.446-4.185-3.211-5.598-5.598
			c-1.212-2.048-3.815-0.925-4.08,1.104c-0.594,4.567-1.339,9.067-1.458,13.68c1.46,0,2.917,0,4.377,0
			c0.038-2.78,0.198-5.422,1.342-8.016C271.664,284.884,267.893,282.655,266.755,285.232L266.755,285.232z"/>
	</g>
	<g>
		<path fill="#2B2829" d="M272.397,342.667c-3.802-15.901-6.884-38.031,7.279-49.857c-1.031-1.032-2.063-2.064-3.095-3.095
			c-15.437,16.879-12.595,43.609-6.034,63.6c0.875,2.67,5.103,1.526,4.222-1.163c-6.02-18.343-9.395-43.702,4.908-59.341
			c1.931-2.112-0.949-4.887-3.095-3.095c-15.442,12.893-12.567,36.715-8.406,54.115
			C268.833,346.574,273.054,345.409,272.397,342.667L272.397,342.667z"/>
	</g>
	<g>
		<path d="M394.977,359.259c18.462-6.44,36.483-13.99,53.889-22.91c1.258-0.644,0.148-2.531-1.104-1.89
			c-17.239,8.832-35.081,16.312-53.366,22.69C393.072,357.61,393.641,359.727,394.977,359.259L394.977,359.259z"/>
	</g>
	<g>
		<path d="M449.505,335.649c0.842-3.053,2.877-5.491,4.313-8.266c0.647-1.251-1.242-2.358-1.89-1.105
			c-1.528,2.952-3.638,5.538-4.533,8.79C447.019,336.43,449.131,337.009,449.505,335.649L449.505,335.649z"/>
	</g>
	<g>
		<path d="M453.684,327.524c8.429-3.15,17.75-5.608,26.729-6.489c6.023-0.59-0.105,2.55-2.264,3.54
			c-5.221,2.396-10.799,3.866-16.291,5.482c-1.351,0.396-0.775,2.51,0.582,2.109c2.625-0.771,25.609-5.932,23.356-11.79
			c-1.162-3.021-7.977-1.246-10.138-0.861c-7.614,1.354-15.306,3.187-22.556,5.899C451.792,325.904,452.358,328.021,453.684,327.524
			L453.684,327.524z"/>
	</g>
	<g>
		<path d="M461.26,331.086c-1.724,1.242-2.046,4.209,0.353,5.008c2.424,0.811,6.603-2.12,8.199,0.514
			c0.958,1.579-2.462,3.674-3.433,4.202c-1.965,1.068-4.851,1.701-6.712,0.113c-1.069-0.911-2.625,0.631-1.548,1.548
			c3.805,3.244,10.108,1.025,12.872-2.623c1.195-1.577,1.492-3.386,0.237-5.006c-0.673-0.868-2.093-1.505-3.161-1.537
			c-0.847-0.025-1.627,0.096-2.449,0.286c-0.537,0.124-1.067,0.286-1.602,0.421c-0.241,0.045-0.483,0.09-0.725,0.133
			c-0.687,0.167-0.994-0.225-0.928-1.169C463.497,332.156,462.407,330.259,461.26,331.086L461.26,331.086z"/>
	</g>
	<g>
		<path d="M468.189,330.603c1.049,0.703,1.327,2.478,0.957,3.6c-0.442,1.345,1.672,1.915,2.11,0.582
			c0.692-2.098-0.109-4.831-1.963-6.071C468.119,327.927,467.024,329.822,468.189,330.603L468.189,330.603z"/>
	</g>
	<g>
		<path d="M471.518,328.307c0.538,3.057,2.805,7.935-0.774,9.893c-1.237,0.678-0.132,2.567,1.105,1.89
			c4.788-2.618,2.516-8.188,1.778-12.363C473.384,326.338,471.273,326.928,471.518,328.307L471.518,328.307z"/>
	</g>
	<g>
		<path d="M460.579,342.656c-3.109,2.85-6.653,4.613-10.824,5.282c-1.392,0.222-0.8,2.33,0.581,2.109
			c4.534-0.727,8.42-2.753,11.791-5.844C463.17,343.248,461.618,341.705,460.579,342.656L460.579,342.656z"/>
	</g>
	<g>
		<path d="M391.693,384.249c3.827-0.94,7.505-3.123,10.983-4.891c6.396-3.249,12.667-6.744,18.892-10.306
			c6.318-3.614,12.57-7.351,18.684-11.301c3.531-2.283,7.866-4.669,10.568-7.986c0.883-1.084-0.656-2.642-1.548-1.547
			c-2.599,3.19-6.729,5.427-10.125,7.642c-5.752,3.755-11.676,7.257-17.624,10.694c-5.994,3.462-12.056,6.81-18.195,10.01
			c-3.845,2.005-7.966,4.529-12.216,5.574C389.742,382.477,390.323,384.587,391.693,384.249L391.693,384.249z"/>
	</g>
	<g>
		<path d="M383.754,346.171c2.819,4.604,5.694,9.176,9.747,12.808c1.047,0.938,2.602-0.604,1.547-1.548
			c-3.92-3.514-6.678-7.915-9.405-12.365C384.909,343.864,383.015,344.963,383.754,346.171L383.754,346.171z"/>
	</g>
	<g>
		<path d="M380.745,379.14c2.557,3.655,7.266,6.283,11.769,5.018c1.357-0.381,0.78-2.492-0.581-2.11
			c-3.51,0.985-7.304-1.16-9.298-4.012C381.833,376.887,379.935,377.979,380.745,379.14L380.745,379.14z"/>
	</g>
	<g>
		<path d="M387.829,378.548c0.866,0.316,1.74,0.3,2.633,0.137c0.588-0.104,0.913-0.81,0.765-1.345
			c-0.169-0.613-0.761-0.872-1.347-0.765c-0.517,0.094-0.979,0.043-1.471-0.137c-0.56-0.205-1.197,0.225-1.344,0.765
			C386.896,377.812,387.269,378.345,387.829,378.548L387.829,378.548z"/>
	</g>
	<g>
		<path d="M354.615,322.914c9.691,22.013,19.445,44.191,30.924,65.343c0.673,1.239,2.563,0.135,1.89-1.105
			c-11.477-21.148-21.232-43.328-30.924-65.343C355.938,320.52,354.053,321.636,354.615,322.914L354.615,322.914z"/>
	</g>
	<g>
		<path d="M373.306,358.085c1.178-3.334,3.249-6.113,5.742-8.589c1.103-1.096,2.375-1.977,3.702-2.772
			c0.671-0.387,1.368-0.72,2.093-0.996c0.287-0.089,0.573-0.179,0.859-0.269c2.371-0.807,3.238,0.63,2.601,4.312
			c-0.894,1.077,0.646,2.635,1.548,1.547c3.997-4.817,0.002-9.447-5.59-7.701c-6.073,1.896-11.023,8.107-13.066,13.888
			C370.724,358.838,372.839,359.406,373.306,358.085L373.306,358.085z"/>
	</g>
	<g>
		<path d="M356.257,296.101c10.218,17.491,22.575,33.64,32.286,51.437c0.675,1.24,2.567,0.135,1.89-1.104
			c-9.711-17.798-22.066-33.946-32.286-51.438C357.436,293.778,355.543,294.879,356.257,296.101L356.257,296.101z"/>
	</g>
	<g>
		<path d="M338.323,286.986c6.402,0.153,13.005,5.242,17.917,8.959c1.126,0.853,2.214-1.049,1.105-1.89
			c-5.271-3.991-12.128-9.093-19.022-9.259C336.911,284.765,336.914,286.953,338.323,286.986L338.323,286.986z"/>
	</g>
	<g>
		<path d="M296.227,319.917c1.792,11.002,6.927,21.151,10.779,31.531c3.407,9.185,6.903,18.353,12.041,26.734
			c0.737,1.201,2.63,0.103,1.89-1.105c-5.355-8.736-8.896-18.327-12.447-27.899c-3.653-9.85-8.45-19.396-10.151-29.842
			C298.111,317.944,296.001,318.536,296.227,319.917L296.227,319.917z"/>
	</g>
	<g>
		<path d="M319.563,377.396c-8.398,2.174-15.73,10.543-20.679,17.261c-2.228,3.027-4.938,7.824-3.85,11.776
			c0.797,2.9,3.184,2.796,5.399,1.692c1.263-0.63,0.154-2.518-1.105-1.89c-4.408,2.195,0.002-8.229,0.55-9.14
			c1.564-2.602,3.662-4.885,5.733-7.091c3.967-4.222,8.804-9.016,14.533-10.499C321.511,379.153,320.932,377.041,319.563,377.396
			L319.563,377.396z"/>
	</g>
	<g>
		<path d="M320.111,379.096c0.821,0.128,0.671,0.788,0.5,1.572c-0.174,0.8-0.492,1.576-0.881,2.292
			c-0.672,1.242,1.217,2.347,1.89,1.105c1.092-2.012,2.574-6.537-0.928-7.08C319.312,376.771,318.719,378.879,320.111,379.096
			L320.111,379.096z"/>
	</g>
	<g>
		<path d="M297.572,290.388c-9.117-2.891-17.809,1.83-22.707,9.6c-5.855,9.288-5.799,22.259-5.061,32.765
			c1.895,26.938,12.245,51.611,25.165,74.979c0.684,1.235,2.574,0.132,1.89-1.105c-10.915-19.742-19.542-39.836-23.396-62.151
			c-1.896-10.98-2.678-22.415-0.383-33.389c2.337-11.169,11.203-22.617,23.911-18.587
			C298.341,292.928,298.914,290.813,297.572,290.388L297.572,290.388z"/>
	</g>
	<g>
		<path d="M297.595,400.221c6.074,15.024,21.022,30.097,38.556,26.431c1.382-0.288,0.796-2.398-0.582-2.109
			c-16.254,3.396-30.266-11.056-35.864-24.902C299.184,398.349,297.065,398.91,297.595,400.221L297.595,400.221z"/>
	</g>
	<g>
		<path d="M315.105,379.939c-0.262,1.607,1.913,4.068,2.686,5.41c2.826,4.908,6.477,9.317,9.929,13.789
			c0.849,1.1,2.753,0.011,1.89-1.104c-2.663-3.45-5.358-6.868-7.821-10.464c-1.058-1.543-2.043-3.146-2.939-4.788
			c-0.37-0.678-1.483-3.183-1.633-2.262C317.441,379.14,315.332,378.548,315.105,379.939L315.105,379.939z"/>
	</g>
	<g>
		<path d="M324.779,399.793c11.082-0.083,21.905-3.281,32.728-5.34c12.349-2.347,24.738-4.431,36.922-7.561
			c1.368-0.35,0.787-2.46-0.582-2.109c-10.825,2.779-21.812,4.765-32.796,6.791c-11.945,2.202-24.075,5.938-36.272,6.03
			C323.368,397.615,323.368,399.804,324.779,399.793L324.779,399.793z"/>
	</g>
	<g>
		<path d="M328.883,427.312c8.917-0.158,17.891-3.177,26.311-5.823c9.616-3.024,19.127-6.532,28.335-10.641
			c1.287-0.573,0.171-2.458-1.105-1.89c-9.042,4.033-18.389,7.396-27.812,10.418c-8.187,2.625-17.053,5.593-25.729,5.746
			C327.475,425.146,327.471,427.336,328.883,427.312L328.883,427.312z"/>
	</g>
	<g>
		<path d="M381.958,410.861c5.975,3.234,11.889,2.852,17.749-0.457c1.229-0.693,0.126-2.585-1.105-1.89
			c-5.175,2.922-10.23,3.33-15.538,0.457C381.822,408.299,380.717,410.188,381.958,410.861L381.958,410.861z"/>
	</g>
	<g>
		<path d="M393.882,387.167c6.911-1.841,11.737,0.269,16.803,5.057c3.869,3.66,7.584,7.612,10.861,11.809
			c0.867,1.111,2.406-0.449,1.546-1.548c-7.418-9.499-16.531-20.963-29.792-17.428C391.939,385.42,392.516,387.532,393.882,387.167
			L393.882,387.167z"/>
	</g>
	<g>
		<path d="M420.554,403.446c-0.175-0.347-1.584-0.223-1.932-0.273c-1.674-0.248-3.243-1.093-4.701-1.907
			c-2.836-1.584-5.248-3.896-7.792-5.896c-1.096-0.861-2.657,0.676-1.547,1.548c4.063,3.193,8.181,7.355,13.456,8.364
			c2.144,0.41,5.969,0.147,4.405-2.941C421.807,401.082,419.919,402.189,420.554,403.446L420.554,403.446z"/>
	</g>
	<g>
		<path d="M417.162,404.735c0.866,3.743-4.081,1.672-5.936,0.949c-2.531-0.988-5.491-2.377-7.466-4.295
			c-1.013-0.983-2.563,0.564-1.548,1.548c2.931,2.845,19.364,11.182,17.06,1.216C418.953,402.777,416.844,403.36,417.162,404.735
			L417.162,404.735z"/>
	</g>
	<g>
		<path d="M413.421,409.387c0.665,3.016-5.814,0.137-6.466-0.197c-1.791-0.921-3.465-2.095-5.06-3.319
			c-1.12-0.859-2.208,1.043-1.105,1.89c2.856,2.193,6.064,4.313,9.638,5.054c2.788,0.574,5.806-0.819,5.103-4.009
			C415.228,407.427,413.118,408.01,413.421,409.387L413.421,409.387z"/>
	</g>
	<g>
		<path d="M405.944,410.937c0.541,1.455-2.758,0.227-3.065,0.079c-1.02-0.492-2.082-1.204-2.779-2.107
			c-0.849-1.104-2.751-0.016-1.89,1.104c1.447,1.881,3.747,3.384,6.111,3.772c2.121,0.349,4.63-1.015,3.732-3.431
			C407.566,409.045,405.45,409.611,405.944,410.937L405.944,410.937z"/>
	</g>
	<g>
		<path d="M408.776,390.012c1.866-0.021,3.955-0.372,5.684,0.507c0.468,0.237,0.866,0.644,1.163,1.07
			c0.436,0.62,0.34,0.804-0.366,0.992c-1.361,0.361-0.784,2.474,0.582,2.109c2.604-0.69,2.672-2.994,1.178-4.862
			c-1.969-2.463-5.459-2.037-8.24-2.005C407.366,387.838,407.366,390.026,408.776,390.012L408.776,390.012z"/>
	</g>
	<g>
		<path d="M267.229,475.17c21.863-16.98,44.525-32.88,67.361-48.517c1.157-0.793,0.062-2.69-1.105-1.89
			c-22.992,15.741-45.793,31.763-67.803,48.858C264.568,474.488,266.129,476.024,267.229,475.17L267.229,475.17z"/>
	</g>
	<g>
		<path d="M270.969,386.68c7.665,21.476,15.704,43.931,29.076,62.604c0.814,1.137,2.715,0.045,1.89-1.105
			c-13.276-18.541-21.246-40.761-28.855-62.081C272.61,384.779,270.494,385.348,270.969,386.68L270.969,386.68z"/>
	</g>
	<g>
		<path d="M256.554,388.318c6.837,24.79,16.351,48.835,30.271,70.542c0.759,1.182,2.654,0.088,1.89-1.105
			c-13.823-21.555-23.261-45.401-30.05-70.018C258.29,386.378,256.179,386.955,256.554,388.318L256.554,388.318z"/>
	</g>
	<g>
		<path d="M594.414,213.643c-14.822,24.902-25.911,52.151-37.431,78.686c-11.836,27.26-22.949,54.83-33.662,82.55
			c-0.511,1.318,1.605,1.883,2.109,0.581c10.903-28.203,22.246-56.232,34.286-83.97c11.242-25.895,22.124-52.443,36.587-76.742
			C597.026,213.531,595.135,212.431,594.414,213.643L594.414,213.643z"/>
	</g>
	<g>
		<path d="M583.356,224.168c-11.701,22.244-21.544,45.571-31.522,68.625c-10.068,23.266-19.61,46.76-28.847,70.369
			c-0.256,0.658,0.802,0.94,1.057,0.29c9.202-23.521,18.731-46.915,28.734-70.106c9.95-23.062,19.824-46.386,31.522-68.625
			C584.628,224.097,583.684,223.544,583.356,224.168L583.356,224.168z"/>
	</g>
	<g>
		<path d="M606.062,219.39c-13.757,24.517-24.877,50.278-36.188,75.977c-12.383,28.133-24.798,56.254-38.051,83.992
			c-0.607,1.266,1.28,2.377,1.89,1.104c12.947-27.093,25.091-54.552,37.187-82.031c11.601-26.35,22.947-52.799,37.053-77.938
			C608.644,219.262,606.752,218.159,606.062,219.39L606.062,219.39z"/>
	</g>
	<g>
		<path d="M595.649,215.25c2.183-0.873,4.249-1,6.419-0.07c1.915,0.821,4.094,2.458,3.844,4.761c-0.152,1.403,2.039,1.388,2.188,0
			c0.297-2.739-1.723-4.734-3.866-6.094c-2.817-1.785-6.107-1.933-9.166-0.708C593.772,213.658,594.337,215.775,595.649,215.25
			L595.649,215.25z"/>
	</g>
	<g>
		<path d="M523.422,374.604c-1.097,5.35,5.854,10.063,10.119,6.263c1.056-0.94-0.498-2.483-1.548-1.548
			c-2.582,2.303-7.114-0.953-6.462-4.134C525.813,373.807,523.704,373.222,523.422,374.604L523.422,374.604z"/>
	</g>
	<g>
		<path d="M522.52,229.495c25.136-6.589,50.84-10.491,76.386-15.065c1.389-0.249,0.799-2.357-0.582-2.111
			c-25.548,4.574-51.252,8.477-76.385,15.065C520.574,227.741,521.153,229.853,522.52,229.495L522.52,229.495z"/>
	</g>
	<g>
		<path d="M524.418,236.471c19.524-4.833,39.352-8.211,59.158-11.647c0.695-0.12,0.4-1.175-0.29-1.055
			c-19.807,3.436-39.635,6.813-59.159,11.647C523.44,235.585,523.731,236.641,524.418,236.471L524.418,236.471z"/>
	</g>
	<g>
		<path d="M477.115,325.782c-4.405,9.229-8.83,18.449-13.25,27.671c-0.607,1.266,1.28,2.377,1.89,1.105
			c4.42-9.224,8.845-18.443,13.25-27.671C479.61,325.62,477.723,324.509,477.115,325.782L477.115,325.782z"/>
	</g>
	<g>
		<path d="M521.284,227.886c-7.204,14.679-12.768,30.133-19.467,45.049c-6.992,15.575-14.309,31.008-21.643,46.424
			c-0.604,1.268,1.284,2.379,1.89,1.104c7.334-15.418,14.625-30.859,21.645-46.425c6.721-14.904,12.263-30.373,19.465-45.048
			C523.793,227.729,521.906,226.619,521.284,227.886L521.284,227.886z"/>
	</g>
	<g>
		<path d="M523.978,235.711c-8.024,18.09-15.333,36.437-23.71,54.381c-8.767,18.78-17.811,37.43-26.773,56.119
			c-0.303,0.633,0.64,1.188,0.945,0.552c8.706-18.152,17.471-36.276,26.019-54.504c8.661-18.473,16.198-37.358,24.464-55.995
			C525.204,235.625,524.262,235.067,523.978,235.711L523.978,235.711z"/>
	</g>
	<g>
		<path d="M467.798,362.854c19.907,6.615,40.131,12.235,59.999,18.977c1.341,0.455,1.911-1.658,0.582-2.109
			c-19.867-6.742-40.09-12.361-59.999-18.978C467.037,360.298,466.467,362.412,467.798,362.854L467.798,362.854z"/>
	</g>
	<g>
		<path d="M464.844,355.51c19.729,6.996,39.718,13.219,59.553,19.902c1.342,0.451,1.913-1.663,0.581-2.109
			c-19.834-6.687-39.822-12.909-59.552-19.903C464.092,352.928,463.523,355.041,464.844,355.51L464.844,355.51z"/>
	</g>
	<g>
		<path d="M473.821,347.015c16.437,5.707,32.972,11.126,49.432,16.765c0.669,0.229,0.955-0.827,0.29-1.056
			c-16.459-5.637-32.995-11.058-49.431-16.765C473.443,345.728,473.159,346.786,473.821,347.015L473.821,347.015z"/>
	</g>
	<g>
		<path d="M463.989,353.239c-1.614,3.497,0.25,8.152,3.809,9.615c1.307,0.536,1.868-1.582,0.582-2.11
			c-2.166-0.892-3.47-4.296-2.501-6.399C466.467,353.072,464.581,351.959,463.989,353.239L463.989,353.239z"/>
	</g>
	<g>
		<path d="M569.125,299.373c-0.543,0.938-0.881,1.937-0.971,3.016c-0.054,0.642,0.543,1.033,1.094,1.095
			c2.232,0.25,4.301,0.579,5.793,2.415c0.516-0.517,1.03-1.032,1.548-1.547c-1.599-1.599-3.191-3.2-4.651-4.925
			c-0.259,0.622-0.518,1.244-0.773,1.868c0.372,0,0.741,0,1.113,0c1.413,0,1.413-2.189,0-2.189c-0.646,0-1.289,0-1.935,0
			c0.097,0.717,0.194,1.433,0.291,2.148c2.328-0.372,4.431,2.014,5.331,3.876c0.314-0.55,0.628-1.097,0.944-1.646
			c-1.46-0.075-2.451-1.308-3.463-2.221c-1.151-1.041-2.381-1.685-3.924-1.884c-1.398-0.179-1.381,2.012,0,2.189
			c1.526,0.196,2.577,1.445,3.657,2.418c1.081,0.972,2.259,1.611,3.729,1.686c0.89,0.045,1.283-0.948,0.945-1.647
			c-1.396-2.888-4.446-5.418-7.802-4.88c-1.247,0.2-0.911,2.15,0.29,2.15c0.646,0,1.289,0,1.935,0c1.413,0,1.413-2.189,0-2.189
			c-0.372,0-0.741,0-1.113,0c-1.016,0-1.37,1.165-0.774,1.868c1.46,1.726,3.053,3.326,4.651,4.925
			c1.018,1.021,2.42-0.477,1.548-1.547c-1.861-2.292-4.562-2.747-7.341-3.057c0.364,0.363,0.729,0.729,1.095,1.094
			c0.058-0.686,0.329-1.32,0.671-1.91C571.722,299.256,569.83,298.153,569.125,299.373L569.125,299.373z"/>
	</g>
	<g>
		<path d="M575.268,305.672c4.793,0.052,5.607,6.215,6.201,9.806c1.043,6.32-1.182,12.998-3.283,18.872
			c-3.176,8.886-7.253,17.397-9.105,26.711c-1.334,6.706-0.811,14.287,4.809,18.89c5.336,4.369,13.095-1.126,17.652-3.938
			c8.519-5.252,20.527-13.068,30.634-7.278c7.023,4.023,3.381,14.555,1.91,20.459c-1.419,5.711-2.311,12.676-6.675,16.993
			c-2.332,2.305-6.244,0.263-9.112,1.802c-1.843,0.988-2.251,3.459-2.386,5.304c-0.103,1.408,2.088,1.397,2.188,0
			c0.432-5.942,6.064-2.544,9.277-4.453c2.088-1.239,3.382-3.064,4.515-5.175c2.785-5.189,3.422-11.23,5.134-16.792
			c1.636-5.308,2.754-13.053-1.188-17.687c-5.271-6.199-14.58-4.936-21.448-2.546c-8.693,3.022-16.736,12.402-26.131,12.624
			c-8.277,0.197-7.895-12.502-7.067-17.621c0.793-4.93,2.602-9.696,4.31-14.365c3.563-9.728,9.805-20.738,8.208-31.499
			c-0.744-5.027-2.131-12.227-8.441-12.295C573.855,303.469,573.857,305.657,575.268,305.672L575.268,305.672z"/>
	</g>
	<g>
		<path d="M451.569,423.012c1.012-0.005,2.022-0.028,3.033-0.032c0.467-0.005,0.933,0.002,1.398,0.013
			c0.201,0.004,0.399,0.015,0.601,0.025c0.624,0.032,0.12,0.043,0.045-0.004c-0.327-0.327-0.654-0.654-0.981-0.981
			c0.026,0.043,0.054,0.086,0.079,0.126c0.142-1.104,0.284-2.21,0.428-3.315c-0.034,0.03-0.068,0.061-0.101,0.09
			c0.402-0.235,0.804-0.47,1.206-0.705c0.804-0.169-0.147,0.002-0.289,0.009c-0.346,0.019-0.692,0.008-1.039,0
			c-0.316-0.011-0.299-0.005-0.588-0.071c0.648,0.15,0.048,0.009-0.153-0.083c-1.355-0.622-2.935-0.397-3.743,0.981
			c-0.696,1.19-0.374,3.12,0.981,3.745c2.163,0.991,5.624,1.637,7.595-0.097c0.899-0.789,1.043-2.323,0.428-3.315
			c-1.674-2.701-6.197-1.868-8.899-1.857C448.041,417.552,448.041,423.024,451.569,423.012L451.569,423.012z"/>
	</g>
	<g>
		<path d="M597.018,411.032c-1.319,0.733-0.611,2.031,0.385,2.798c1.483,1.142,4.215,0.954,5.942,0.902
			c2.642-0.077,9.769-0.389,10.619-3.767c0.171-0.684-0.885-0.975-1.056-0.29c-0.537,2.135-5.562,2.562-7.268,2.78
			c-1.478,0.188-2.97,0.233-4.455,0.174c-0.027-0.003-4.775-1.007-3.616-1.652C598.187,411.635,597.633,410.69,597.018,411.032
			L597.018,411.032z"/>
	</g>
	<g>
		<path d="M597.406,411.124c1.945-1.573,6.099-1.739,8.4-1.855c2.427-0.121,5.312,0.09,7.242,1.719
			c0.535,0.451,1.312-0.318,0.774-0.773c-2.231-1.884-5.216-2.075-8.017-2.039c-2.751,0.034-6.953,0.378-9.174,2.176
			C596.083,410.795,596.863,411.564,597.406,411.124L597.406,411.124z"/>
	</g>
	<g>
		<path d="M596.259,409.799c-2.001,0.526-3.771,2.084-4.429,4.051c-0.688,2.059,1.913,3.159,3.381,3.648
			c2.976,0.988,6.483,0.663,9.558,0.518c3.54-0.164,7-0.934,9.901-3.044c0.563-0.41,0.019-1.361-0.552-0.944
			c-3.777,2.746-8.332,2.929-12.834,2.994c-1.949,0.028-3.886-0.094-5.782-0.579c-1.917-0.491-3.146-2.219-1.58-3.99
			c0.685-0.776,1.638-1.339,2.628-1.597C597.231,410.676,596.94,409.619,596.259,409.799L596.259,409.799z"/>
	</g>
	<g>
		<path d="M614.325,409.643c2.073,0.246,2.396,2.634,0.818,3.769c-0.568,0.406-0.023,1.357,0.552,0.945
			c2.503-1.798,1.794-5.434-1.37-5.808C613.624,408.465,613.633,409.56,614.325,409.643L614.325,409.643z"/>
	</g>
	<g>
		<path d="M375.533,429.524c13.101-0.586,26.159-2.64,39.209-3.903c13.554-1.311,27.087-2.781,40.684-3.574
			c1.402-0.083,1.411-2.271,0-2.188c-13.595,0.793-27.134,2.247-40.684,3.574c-13.045,1.28-26.11,3.317-39.209,3.903
			C374.129,427.399,374.123,429.589,375.533,429.524L375.533,429.524z"/>
	</g>
	<g>
		<path d="M374.395,427.475c-3.71,3.963,2.434,7.614,6.063,7.706c1.413,0.034,1.409-2.155,0-2.189
			c-1.599-0.04-6.532-1.814-4.515-3.969C376.905,427.994,375.362,426.442,374.395,427.475L374.395,427.475z"/>
	</g>
	<g>
		<path d="M380.095,434.999c11.413,0.036,22.908-2.328,34.289-3.224c12.521-0.987,25.053-1.841,37.578-2.796
			c1.398-0.107,1.408-2.298,0-2.189c-11.825,0.902-23.656,1.726-35.483,2.632c-12.047,0.924-24.323,3.427-36.383,3.388
			C378.682,432.806,378.684,434.994,380.095,434.999L380.095,434.999z"/>
	</g>
	<g>
		<path d="M453.194,423.003c0.985,1.239-0.447,3.447-1.706,3.826c-1.349,0.406-0.773,2.518,0.582,2.109
			c2.983-0.896,4.696-4.938,2.672-7.483C453.863,420.35,452.324,421.91,453.194,423.003L453.194,423.003z"/>
	</g>
	<g>
		<path d="M382.147,409.923c-1.89,3.202-3.455,6.545-5.032,9.905c-1.464,3.117-3.363,6.148-3.914,9.587
			c-0.22,1.381,1.89,1.974,2.112,0.582c0.517-3.241,2.292-6.129,3.691-9.063c1.601-3.352,3.143-6.701,5.032-9.905
			C384.754,409.81,382.863,408.709,382.147,409.923L382.147,409.923z"/>
	</g>
	<g>
		<path d="M406.104,388.261c6.295-1.162,12.706-1.31,19.043-2.147c1.379-0.183,1.396-2.375,0-2.189
			c-6.534,0.863-13.135,1.026-19.625,2.228C404.136,386.408,404.724,388.518,406.104,388.261L406.104,388.261z"/>
	</g>
	<g>
		<path d="M424.203,385.57c8.573,11.553,17.145,23.104,25.719,34.655c0.831,1.12,2.731,0.03,1.89-1.104
			c-8.572-11.552-17.146-23.103-25.72-34.656C425.263,383.345,423.36,384.435,424.203,385.57L424.203,385.57z"/>
	</g>
	<g>
		<path d="M420.484,379.538c12.098,2.451,24.267,1.363,36.213-1.392c1.377-0.316,0.794-2.429-0.581-2.11
			c-11.568,2.668-23.336,3.765-35.051,1.392C419.688,377.147,419.101,379.258,420.484,379.538L420.484,379.538z"/>
	</g>
	<g>
		<path d="M421.185,378.652c6.12-8.71,28.624-13.697,33.627-1.471c0.525,1.287,2.645,0.725,2.109-0.581
			c-5.803-14.181-30.323-9.45-37.626,0.947C418.481,378.706,420.379,379.799,421.185,378.652L421.185,378.652z"/>
	</g>
	<g>
		<path d="M418.613,378.522c-0.436,1.062-0.363,2.27,0.387,3.17c0.75,0.902,2.014,1.176,3.131,1.032
			c0.592-0.077,1.094-0.44,1.094-1.094c0-0.541-0.5-1.172-1.094-1.095c-0.308,0.038-0.63,0.068-0.923,0.011
			c-0.244-0.05-0.383-0.118-0.507-0.229c-0.207-0.188,0.037,0.094-0.109-0.142c-0.03-0.049-0.07-0.194-0.062-0.124
			c-0.045-0.351,0.056-0.611,0.192-0.949c0.229-0.554-0.242-1.203-0.763-1.347C419.332,377.584,418.84,377.971,418.613,378.522
			L418.613,378.522z"/>
	</g>
	<g>
		<path d="M421.221,382.695c11.217,0.442,22.284,1.836,33.347-0.787c1.373-0.325,0.791-2.435-0.581-2.109
			c-10.874,2.575-21.752,1.144-32.766,0.707C419.809,380.45,419.815,382.64,421.221,382.695L421.221,382.695z"/>
	</g>
	<g>
		<path d="M455.347,377.532c0.268,1.193-0.43,2.848-1.99,2.519c-1.451-0.31-2.066,1.762-0.613,2.071
			c3.375,0.716,5.47-2.326,4.833-5.16C457.271,375.604,455.043,376.182,455.347,377.532L455.347,377.532z"/>
	</g>
	<g>
		<path d="M444.016,368.82c-1.39,1.363-2.174,3.15-2.287,5.089c-0.081,1.411,2.107,1.404,2.188,0
			c0.079-1.361,0.678-2.591,1.646-3.542C446.572,369.378,445.024,367.832,444.016,368.82L444.016,368.82z"/>
	</g>
	<g>
		<path d="M442.453,375.175c3.572,0.12,7,0.316,9.943,2.565c1.123,0.857,2.211-1.046,1.105-1.89
			c-3.234-2.469-7.122-2.732-11.049-2.864C441.042,372.939,441.047,375.128,442.453,375.175L442.453,375.175z"/>
	</g>
	<g>
		<path d="M386.245,418.107c-0.169,1.206-0.518,2.422-0.958,3.558c-0.218,0.556,0.233,1.199,0.763,1.344
			c0.62,0.171,1.131-0.207,1.347-0.763c0.44-1.135,0.789-2.35,0.958-3.557c0.082-0.59-0.134-1.174-0.765-1.347
			C387.072,417.199,386.326,417.516,386.245,418.107L386.245,418.107z"/>
	</g>
	<g>
		<path d="M391.052,415.867c-0.139,1.965-1.052,3.73-1.387,5.66c-0.242,1.379,1.868,1.972,2.11,0.582
			c0.372-2.136,1.31-4.058,1.466-6.242C393.339,414.457,391.15,414.468,391.052,415.867L391.052,415.867z"/>
	</g>
	<g>
		<path d="M395.233,414.021c-0.023,0.271-0.113,0.543-0.137,0.821c-0.051,0.594,0.537,1.094,1.094,1.094
			c0.637,0,1.043-0.5,1.095-1.094c0.023-0.273,0.113-0.545,0.137-0.821c0.051-0.596-0.537-1.094-1.095-1.094
			C395.692,412.927,395.284,413.427,395.233,414.021L395.233,414.021z"/>
	</g>
	<g>
		<path d="M395.096,419.63c-0.009,0.128-0.068,0.286-0.124,0.403c-0.25,0.543-0.158,1.176,0.393,1.499
			c0.477,0.28,1.247,0.149,1.497-0.394c0.231-0.496,0.382-0.962,0.423-1.509c0.045-0.597-0.53-1.095-1.095-1.095
			C395.562,418.535,395.141,419.035,395.096,419.63L395.096,419.63z"/>
	</g>
	<g>
		<path d="M399.748,415.389c-0.013,1.783-0.261,3.551-0.274,5.336c-0.008,1.41,2.181,1.41,2.189,0
			c0.013-1.785,0.261-3.553,0.273-5.336C401.947,413.976,399.758,413.978,399.748,415.389L399.748,415.389z"/>
	</g>
	<g>
		<path d="M403.755,415.509c-0.137,0.594-0.175,1.187-0.177,1.795c-0.002,1.411,2.187,1.411,2.188,0
			c0.002-0.414,0.006-0.81,0.099-1.214C406.177,414.716,404.065,414.132,403.755,415.509L403.755,415.509z"/>
	</g>
	<g>
		<path d="M407.175,414.688c-0.145,0.353-0.175,0.733-0.177,1.111c-0.009,1.411,2.18,1.411,2.189,0
			c0.002-0.22,0.017-0.331,0.098-0.529c0.225-0.554-0.239-1.202-0.765-1.347C407.894,413.749,407.4,414.134,407.175,414.688
			L407.175,414.688z"/>
	</g>
	<g>
		<path d="M410.829,414.705c0.025,1.552,0.455,3.014,0.725,4.531c0.244,1.388,2.354,0.797,2.11-0.581
			c-0.233-1.323-0.622-2.6-0.646-3.95C412.994,413.294,410.805,413.292,410.829,414.705L410.829,414.705z"/>
	</g>
	<g>
		<path d="M413.701,414.705c0.002,0.47,0.043,0.932,0.178,1.385c0.397,1.351,2.512,0.773,2.109-0.581
			c-0.083-0.284-0.096-0.511-0.098-0.804C415.886,413.294,413.697,413.292,413.701,414.705L413.701,414.705z"/>
	</g>
	<g>
		<path d="M416.067,413.217c0.295,1.719,0.845,3.362,1.231,5.062c0.312,1.377,2.422,0.794,2.11-0.581
			c-0.387-1.699-0.937-3.343-1.231-5.062C417.938,411.246,415.828,411.836,416.067,413.217L416.067,413.217z"/>
	</g>
	<g>
		<path d="M418.626,410.19c0,0.227,0,0.455,0,0.684c0,1.411,2.188,1.411,2.188,0c0-0.229,0-0.457,0-0.684
			C420.815,408.777,418.626,408.777,418.626,410.19L418.626,410.19z"/>
	</g>
	<g>
		<path d="M421.649,389.537c0.596,0.908,1.125,1.838,1.812,2.685c0.376,0.464,1.158,0.39,1.548,0c0.455-0.455,0.376-1.086,0-1.547
			c-0.562-0.695-0.981-1.497-1.471-2.243C422.769,387.259,420.873,388.353,421.649,389.537L421.649,389.537z"/>
	</g>
	<g>
		<path d="M425.644,395.433c0.459,1.165,1.16,2.125,1.888,3.134c0.348,0.482,0.946,0.716,1.498,0.394
			c0.477-0.28,0.741-1.014,0.391-1.499c-0.596-0.829-1.288-1.65-1.667-2.609c-0.218-0.557-0.725-0.937-1.347-0.766
			C425.879,394.231,425.423,394.877,425.644,395.433L425.644,395.433z"/>
	</g>
	<g>
		<path d="M430.13,402.67c0.532,0.909,1.19,1.729,1.778,2.6c0.787,1.163,2.683,0.068,1.89-1.105
			c-0.588-0.869-1.246-1.688-1.778-2.599C431.308,400.349,429.416,401.45,430.13,402.67L430.13,402.67z"/>
	</g>
	<g>
		<path d="M434.508,409.784c0.428,0.838,0.94,1.627,1.368,2.462c0.644,1.258,2.53,0.15,1.89-1.104
			c-0.428-0.836-0.94-1.625-1.368-2.463C435.756,407.422,433.866,408.531,434.508,409.784L434.508,409.784z"/>
	</g>
	<g>
		<path d="M438.582,416.853c-0.054-0.021-0.107-0.044-0.16-0.068c-0.167-0.218-0.336-0.436-0.503-0.653
			c0.011,0.031,0.023,0.063,0.037,0.096c0.205,0.558,0.732,0.932,1.344,0.764c0.539-0.147,0.973-0.785,0.766-1.345
			c-0.149-0.408-0.426-0.834-0.902-0.902c-0.59-0.083-1.173,0.135-1.345,0.766C437.676,416.028,437.99,416.77,438.582,416.853
			L438.582,416.853z"/>
	</g>
	<g>
		<path d="M419.488,392.56c0.227,1.003,0.748,1.947,1.204,2.86c0.63,1.263,2.52,0.153,1.889-1.105
			c-0.373-0.75-0.794-1.511-0.982-2.336C421.285,390.602,419.176,391.186,419.488,392.56L419.488,392.56z"/>
	</g>
	<g>
		<path d="M422.469,399.66c0.396,0.648,0.836,1.268,1.231,1.916c0.735,1.203,2.627,0.104,1.89-1.105
			c-0.396-0.647-0.836-1.266-1.231-1.915C423.625,397.354,421.732,398.453,422.469,399.66L422.469,399.66z"/>
	</g>
	<g>
		<path d="M426.054,405.83c0.293,0.732,0.584,1.466,0.93,2.176c0.263,0.536,1.012,0.678,1.499,0.394
			c0.54-0.319,0.653-0.962,0.391-1.499c-0.263-0.538-0.487-1.095-0.71-1.652c-0.222-0.554-0.722-0.937-1.347-0.765
			C426.291,404.628,425.831,405.273,426.054,405.83L426.054,405.83z"/>
	</g>
	<g>
		<path d="M429.063,412.943c0.316,0.904,0.773,1.735,1.203,2.587c0.638,1.261,2.526,0.151,1.89-1.105
			c-0.344-0.68-0.73-1.343-0.983-2.062c-0.196-0.564-0.741-0.933-1.347-0.766C429.281,411.746,428.864,412.379,429.063,412.943
			L429.063,412.943z"/>
	</g>
	<g>
		<path d="M420.965,407.869c0.254,0.536,0.43,1.104,0.684,1.642c0.256,0.538,1.017,0.675,1.498,0.394
			c0.548-0.321,0.647-0.958,0.392-1.499c-0.255-0.534-0.43-1.105-0.685-1.642c-0.254-0.539-1.015-0.673-1.496-0.391
			C420.811,406.693,420.71,407.33,420.965,407.869L420.965,407.869z"/>
	</g>
	<g>
		<path d="M423.317,414.038c0.257,0.63,0.535,1.246,0.685,1.915c0.304,1.377,2.413,0.793,2.109-0.581
			c-0.147-0.67-0.428-1.285-0.684-1.916c-0.225-0.554-0.721-0.938-1.347-0.765C423.557,412.837,423.091,413.484,423.317,414.038
			L423.317,414.038z"/>
	</g>
	<g>
		<path d="M296.326,291.671c3.991,3.299,7.866,6.733,11.856,10.032c3.799,3.142,8.051,5.521,11.491,9.121
			c0.977,1.021,2.522-0.528,1.548-1.548c-2.808-2.938-6.057-5.237-9.361-7.573c-4.934-3.487-9.335-7.734-13.986-11.58
			C296.794,289.232,295.237,290.771,296.326,291.671L296.326,291.671z"/>
	</g>
	<g>
		<path d="M291.777,298.381c5.03,6.528,10.057,13.059,15.127,19.557c0.868,1.111,2.406-0.449,1.548-1.548
			c-4.956-6.351-9.869-12.733-14.786-19.114C292.818,296.175,290.916,297.262,291.777,298.381L291.777,298.381z"/>
	</g>
	<g>
		<path d="M308.487,317.81c1.627-3.433,7.717-8.497,11.637-6.036c1.199,0.752,2.297-1.142,1.105-1.89
			c-5.004-3.141-12.478,2.278-14.631,6.82C305.997,317.974,307.884,319.086,308.487,317.81L308.487,317.81z"/>
	</g>
	<g>
		<path d="M319.483,310.751c0.993,4.218,3.081,8.179,4.418,12.312c1.435,4.438,2.823,8.854,4.721,13.12
			c0.573,1.287,2.459,0.174,1.89-1.104c-1.82-4.092-3.146-8.337-4.5-12.597c-1.302-4.103-3.439-8.155-4.418-12.312
			C321.271,308.795,319.16,309.379,319.483,310.751L319.483,310.751z"/>
	</g>
	<g>
		<path d="M334.792,285.601c-3.339,7.961-6.679,15.922-10.019,23.884c-0.545,1.3,1.573,1.862,2.112,0.582
			c3.339-7.963,6.678-15.923,10.018-23.885C337.448,284.882,335.329,284.32,334.792,285.601L334.792,285.601z"/>
	</g>
	<g>
		<path d="M327.149,310.388c2.221-2.099,7.254-1.152,9.618,0.263c1.215,0.728,2.314-1.167,1.105-1.89
			c-3.259-1.949-9.283-2.746-12.271,0.079C324.574,309.812,326.126,311.358,327.149,310.388L327.149,310.388z"/>
	</g>
	<g>
		<path d="M336.226,285.425c0.25,8.091,0.75,16.259,0.456,24.352c-0.051,1.411,2.137,1.406,2.188,0
			c0.295-8.093-0.205-16.261-0.455-24.352C338.371,284.016,336.182,284.012,336.226,285.425L336.226,285.425z"/>
	</g>
	<g>
		<path d="M324.642,310.231c-0.519,7.939,1.293,15.808,2.924,23.524c0.292,1.381,2.401,0.795,2.111-0.582
			c-1.593-7.541-3.353-15.188-2.846-22.942C326.924,308.823,324.734,308.832,324.642,310.231L324.642,310.231z"/>
	</g>
	<g>
		<path d="M329.607,319.699c-0.258,1.471-0.027,3.345,1.54,3.979c0.703,0.287,1.42-0.062,1.847-0.626
			c0.432-0.57,0.43-1.406,0.34-2.08c-0.104-0.788-0.278-1.84-0.938-2.381c-0.627-0.511-1.521-0.518-2.068,0.133
			c-1.007,1.196-0.788,3.104,0.2,4.228c0.394,0.449,1.146,0.402,1.548,0c0.442-0.442,0.393-1.099,0-1.548
			c0.113,0.131-0.184-0.363-0.112-0.175c-0.025-0.068-0.045-0.137-0.063-0.207c-0.088-0.321,0.003,0.194-0.027-0.133
			c-0.007-0.075,0.021-0.552-0.012-0.323c0.021-0.151,0.064-0.299,0.115-0.444c-0.058,0.135-0.061,0.149-0.008,0.045
			c0.116-0.216-0.163,0.167-0.008,0.013c-0.142,0.144-0.321,0.216-0.539,0.214c-0.134-0.038-0.268-0.074-0.403-0.113
			c-0.136-0.117-0.159-0.135-0.07-0.047c-0.147-0.151,0.025,0.126,0.049,0.196c0.073,0.223,0.137,0.467,0.168,0.697
			c0.029,0.218,0.033,0.436,0.021,0.656c0.012-0.223-0.169,0.372-0.008,0.054c-0.064,0.101-0.046,0.079,0.055-0.066
			c0.135-0.146,0.298-0.16,0.48-0.184c-0.113-0.003-0.072,0.006,0.127,0.021c-0.207-0.04,0.232,0.129,0.038,0.009
			c0.128,0.104,0.147,0.118,0.058,0.036c-0.188-0.175,0.124,0.199-0.032-0.031c-0.033-0.05-0.063-0.104-0.091-0.156
			c-0.144-0.263,0.063,0.201-0.04-0.107c-0.022-0.07-0.041-0.141-0.058-0.211c-0.08-0.329,0.003,0.182-0.027-0.182
			c-0.019-0.231-0.009-0.464,0.029-0.685c0.103-0.586-0.15-1.176-0.766-1.345C330.42,318.788,329.71,319.111,329.607,319.699
			L329.607,319.699z"/>
	</g>
	<g>
		<path d="M455.426,420.769c24.715-0.171,49.431-4.134,74.084-5.784c12.304-0.824,24.62-1.436,36.937-2.041
			c3.685-0.182,35.768-3.276,35.809,0.349c0.015,1.41,2.203,1.41,2.188,0c-0.03-2.805-2.159-3.521-4.671-3.955
			c-5.393-0.93-11.732,0.349-17.177,0.622c-14.272,0.721-28.55,1.37-42.817,2.198c-28.079,1.626-56.235,6.229-84.353,6.423
			C454.015,418.591,454.015,420.779,455.426,420.769L455.426,420.769z"/>
	</g>
	<g>
		<path d="M561.581,318.793c1.309,0.646,2.674,1.146,4.036,1.665c4.788,1.827,6.885,4.341,5.975,9.713
			c-0.988,5.82-2.997,11.669-4.451,17.397c-3.632,14.317-7.458,28.583-11.35,42.832c-0.375,1.364,1.737,1.941,2.109,0.582
			c4.454-16.308,8.826-32.643,12.915-49.047c1.282-5.134,4.639-12.162,3.157-17.517c-1.352-4.885-7.302-5.552-11.286-7.516
			C561.425,316.281,560.315,318.169,561.581,318.793L561.581,318.793z"/>
	</g>
	<g>
		<path d="M559.576,323.964c1.652,0.639,3.319,1.205,4.948,1.908c3.822,1.652,2.854,5.694,2.095,9.06
			c-1.268,5.63-3.003,11.234-4.544,16.799c-3.643,13.163-7.645,26.228-11.462,39.342c-0.396,1.359,1.717,1.935,2.109,0.581
			c4.538-15.581,9.353-31.093,13.478-46.791c1.302-4.957,4.601-11.859,3.134-17.049c-1.099-3.897-5.799-4.653-9.177-5.96
			C558.841,321.345,558.274,323.461,559.576,323.964L559.576,323.964z"/>
	</g>
	<g>
		<path d="M557.3,337.205c-4.626,16.811-9.972,33.419-14.963,50.122c-0.404,1.355,1.708,1.93,2.109,0.581
			c4.991-16.703,10.34-33.312,14.963-50.121C559.783,336.426,557.672,335.846,557.3,337.205L557.3,337.205z"/>
	</g>
	<g>
		<path d="M553.943,336.412c0.832-0.335,1.733-0.408,2.602-0.168c0.96,0.267,0.818,0.982,0.498,1.766
			c-0.534,1.306,1.584,1.868,2.11,0.581c0.658-1.607,0.301-3.358-1.328-4.182c-1.325-0.669-3.1-0.655-4.463-0.106
			C552.069,334.824,552.634,336.942,553.943,336.412L553.943,336.412z"/>
	</g>
	<g>
		<path d="M518.362,405.845c8.268-5.592,16.538-11.186,24.808-16.78c1.161-0.786,0.068-2.683-1.104-1.89
			c-8.271,5.592-16.541,11.187-24.809,16.78C516.094,404.741,517.188,406.638,518.362,405.845L518.362,405.845z"/>
	</g>
	<g>
		<path d="M556.725,391.177c6.331,4.22,12.663,8.439,18.994,12.658c1.178,0.787,2.272-1.111,1.105-1.89
			c-6.332-4.219-12.663-8.438-18.994-12.658C556.652,388.503,555.558,390.398,556.725,391.177L556.725,391.177z"/>
	</g>
	<g>
		<path d="M517.883,405.956c19.395,2.999,39.78,4.26,58.679-2.01c1.333-0.442,0.763-2.557-0.582-2.109
			c-18.511,6.139-38.512,4.946-57.515,2.009C517.084,403.632,516.491,405.74,517.883,405.956L517.883,405.956z"/>
	</g>
	<g>
		<path d="M542.497,389.109c4.491,3.277,10.117,4.656,15.333,2.326c1.286-0.575,0.173-2.461-1.105-1.89
			c-4.493,2.007-9.339,0.434-13.122-2.326C542.461,386.387,541.37,388.287,542.497,389.109L542.497,389.109z"/>
	</g>
	<g>
		<path d="M367.685,162.699c6.705,3.128,9.473,11.924,11.457,18.436c2.499,8.197,3.809,16.808,4.463,25.336
			c1.338,17.477-4.315,36.041-13.245,50.938c-11.867,19.797-32.009,28.719-54.152,31.671c-19.524,2.602-42.971-0.301-53.721-18.947
			c-0.703-1.223-2.595-0.12-1.89,1.105c10.698,18.554,33.017,22.141,52.689,20.358c22.558-2.045,43.233-10.622,56.609-29.472
			c11.023-15.533,17.173-36.64,15.899-55.654c-0.641-9.553-2.347-19.157-5.278-28.273c-2.052-6.385-5.236-14.36-11.726-17.388
			C367.52,160.217,366.407,162.103,367.685,162.699L367.685,162.699z"/>
	</g>
	<g>
		<path d="M285.392,257.248c9.43-12.209,12.793-28.219,5.921-42.415c-3.133-6.472-8.981-11.879-15.242-15.26
			c-5.958-3.217-12.702-2.42-18.99-0.826c-1.368,0.347-0.787,2.458,0.582,2.111c5.958-1.51,11.589-2.035,17.303,0.605
			c6.19,2.86,11.245,8.606,14.457,14.475c7.129,13.024,2.648,29.109-5.92,40.204C282.639,257.26,284.542,258.348,285.392,257.248
			L285.392,257.248z"/>
	</g>
	<g>
		<path d="M266.287,197.576c-12.02-0.689-23.206,8.065-30.409,16.967c-7.392,9.137-9.844,21.206-7.731,32.619
			c1.896,10.242,8.858,19.256,18.588,23.015c11.16,4.31,23.847,0.191,32.773-6.893c1.105-0.877-0.455-2.416-1.548-1.548
			c-8.782,6.971-19.783,9.733-30.644,6.33c-9.356-2.933-14.983-12.489-17.06-21.485c-2.355-10.211,0.566-20.895,6.353-29.383
			c6.242-9.153,18.268-18.086,29.678-17.432C267.698,199.846,267.69,197.656,266.287,197.576L266.287,197.576z"/>
	</g>
	<g>
		<path d="M274.822,251.745c6.444-8.126,9.019-18.169,4.985-27.993c-3.396-8.271-10.356-12.668-19.084-11.789
			c-1.391,0.14-1.405,2.331,0,2.189c8.66-0.873,14.341,3.77,17.603,11.714c3.41,8.302,0.245,17.652-5.051,24.331
			C272.407,251.291,273.946,252.851,274.822,251.745L274.822,251.745z"/>
	</g>
	<g>
		<path d="M266.623,212.122c-15.738-2.952-28.451,13.85-28.703,28.014c-0.312,17.509,17.583,25.434,31.553,16.483
			c1.184-0.759,0.087-2.654-1.105-1.89c-13.328,8.538-27.552,0.856-28.258-14.594c-0.582-12.708,12.239-28.472,25.933-25.903
			C267.42,214.492,268.008,212.382,266.623,212.122L266.623,212.122z"/>
	</g>
	<path d="M256.741,250.673c-4.972-3.356-8.315-9.513-8.315-16.574c0-5.968,2.383-11.301,6.123-14.837
		c-7.149,2.252-12.403,9.698-12.403,18.559c0,10.245,7.022,18.599,15.878,19.213C257.062,255.059,256.611,252.862,256.741,250.673z"
		/>
	<g>
		<path d="M275.028,200.06c1.995-17.848,13.186-33.38,26.676-44.622c15.481-12.901,33.415-17.388,53.218-17.76
			c1.41-0.027,1.412-2.216,0-2.189c-19.842,0.374-37.644,4.708-53.408,17.315c-14.637,11.707-26.548,28.236-28.674,47.256
			C272.683,201.461,274.874,201.446,275.028,200.06L275.028,200.06z"/>
	</g>
	<g>
		<path d="M257.335,199.694c3.796-38.743,54.758-89.036,94.39-62.167c1.171,0.795,2.266-1.103,1.105-1.89
			c-41.16-27.904-93.74,23.797-97.684,64.057C255.009,201.1,257.199,201.086,257.335,199.694L257.335,199.694z"/>
	</g>
	<path d="M278.867,178.212c-3.16-2.01-6.776-2.78-10.032-4.531c-0.774-0.417-1.44-0.639-2.045-0.698
		c-0.58-0.589-1.516-0.783-2.224,0.015c-1.986,2.232-3.406,4.758-4.161,7.656c-0.19,0.727,0.12,1.463,0.755,1.854
		c4.264,2.628,9.801,4.379,14.71,5.272c1.774,0.323,2.671-1.953,1.58-2.848c0.634-1.508,1.208-3.04,2.007-4.473
		C279.904,179.655,279.632,178.7,278.867,178.212z"/>
	<g>
		<path d="M288.388,211.777c2.773-2.213,8.344-2.928,11.676-4.199c3.571-1.362,6.836-3.485,10.006-5.587
			c7.409-4.911,13.916-11.178,19.679-17.908c9.314-10.876,17.985-26.336,16.782-41.116c-0.113-1.396-2.302-1.407-2.189,0
			c1.273,15.64-8.625,31.166-18.58,42.364c-5.786,6.509-12.545,12.149-19.908,16.78c-3.8,2.39-7.861,3.97-12.101,5.401
			c-2.189,0.738-5.073,1.25-6.913,2.718C285.737,211.111,287.297,212.648,288.388,211.777L288.388,211.777z"/>
	</g>
	<g>
		<path d="M344.127,154.829c7.754,11.056,22.099,15.198,34.617,10.17c1.293-0.52,0.729-2.637-0.581-2.111
			c-11.554,4.641-24.916,1.146-32.146-9.165C345.213,152.578,343.314,153.67,344.127,154.829L344.127,154.829z"/>
	</g>
	<g>
		<path d="M350.314,139.956c7.959-7.319,20.927-1.529,27.296,5.12c9.262,9.668,10.431,23.751,1.443,33.776
			c-0.938,1.047,0.605,2.601,1.548,1.548c10.196-11.373,8.159-25.69-1.443-36.871c-6.84-7.965-21.828-12.995-30.392-5.12
			C347.726,139.365,349.277,140.909,350.314,139.956L350.314,139.956z"/>
	</g>
	<g>
		<path d="M375.26,249.583c-1.593,27.169,1.857,57.416,19.473,79.299c0.885,1.099,2.424-0.46,1.547-1.548
			c-17.225-21.398-20.386-51.229-18.832-77.751C377.532,248.171,375.343,248.18,375.26,249.583L375.26,249.583z"/>
	</g>
	<g>
		<path d="M380.402,332.884c5.859,2.552,11.78,0.608,16.385-3.506c1.054-0.942-0.5-2.484-1.548-1.548
			c-3.781,3.38-8.834,5.297-13.731,3.164C380.227,330.436,379.111,332.321,380.402,332.884L380.402,332.884z"/>
	</g>
	<g>
		<path d="M235.832,160.501c-13.925,31.245-20.549,66.757-23.933,100.613c-3.655,36.562-2.022,73.611,4.3,109.785
			c0.243,1.39,2.353,0.8,2.111-0.581c-6.066-34.716-7.567-70.046-4.596-105.159c1.527-18.047,4.425-35.962,8.448-53.617
			c3.842-16.865,8.507-34.111,15.56-49.937C238.292,160.328,236.406,159.214,235.832,160.501L235.832,160.501z"/>
	</g>
	<g>
		<path d="M236.753,163.791c12.805-26.338,46.694-37.9,73.736-30.749c1.366,0.361,1.945-1.75,0.581-2.111
			c-27.929-7.385-62.979,4.546-76.207,31.754C234.25,163.95,236.137,165.06,236.753,163.791L236.753,163.791z"/>
	</g>
	<g>
		<path d="M216.48,371.383c10.143,8.587,22.179,13.3,35.12,15.769c10.761,2.055,22.912,2.125,31.86-5.006
			c1.105-0.881-0.455-2.418-1.547-1.548c-8.759,6.981-20.861,6.137-31.221,4.16c-11.971-2.285-23.314-7.007-32.664-14.923
			C216.957,368.929,215.4,370.47,216.48,371.383L216.48,371.383z"/>
	</g>
	<g>
		<path d="M265.856,278.021c-4.997,16.121-2.791,34.43-0.211,50.782c2.781,17.624,7.166,36.262,15.949,51.962
			c0.688,1.231,2.579,0.128,1.889-1.105c-8.229-14.71-12.282-31.958-15.219-48.422c-2.984-16.72-5.428-36.078-0.297-52.635
			C268.386,277.25,266.272,276.676,265.856,278.021L265.856,278.021z"/>
	</g>
	<g>
		<path d="M268.104,248.505c0.979-2.331-1.419-3.58-3.355-3.898c-2.316-0.38-4.516,0.635-5.836,2.549
			c-2.858,4.137,1.214,8.947,5.536,8.994c1.413,0.015,1.411-2.173,0-2.189c-2.621-0.028-4.698-2.084-4.057-4.784
			c0.314-1.32,1.464-2.066,2.69-2.416c0.756-0.215,3.388,0.029,2.912,1.163C265.447,249.224,267.565,249.786,268.104,248.505
			L268.104,248.505z"/>
	</g>
	<g>
		<path d="M260.158,252.352c14.512,7.023,28.428,16.269,43.947,20.996c1.354,0.412,1.928-1.701,0.582-2.112
			c-15.33-4.668-29.085-13.835-43.423-20.774C259.999,249.85,258.887,251.737,260.158,252.352L260.158,252.352z"/>
	</g>
	<g>
		<path d="M302.874,273.074c5.627,1.864,10.944,0.715,16.025-2.116c1.233-0.688,0.129-2.578-1.105-1.89
			c-4.6,2.563-9.24,3.583-14.338,1.894C302.112,270.518,301.541,272.632,302.874,273.074L302.874,273.074z"/>
	</g>
	<g>
		<path d="M262.379,248.175c15.046,5.199,28.478,14.318,43.914,18.469c1.366,0.366,1.944-1.746,0.582-2.112
			c-15.427-4.146-28.869-13.269-43.914-18.468C261.624,245.602,261.054,247.717,262.379,248.175L262.379,248.175z"/>
	</g>
	<g>
		<path d="M306.659,266.689c3.875,0.851,7.481-0.37,10.967-2.025c1.275-0.606,0.163-2.493-1.105-1.89
			c-2.917,1.386-6.021,2.519-9.28,1.805C305.865,264.277,305.28,266.388,306.659,266.689L306.659,266.689z"/>
	</g>
	<g>
		<path d="M317.454,263.699c0.013-0.104,0.708,0.655,0.761,0.737c0.314,0.49,0.491,1.058,0.654,1.612
			c0.184,0.631,0.313,1.3,0.4,1.95c0.034,0.286,0.049,0.575,0.047,0.863c-0.015,0.173-0.03,0.346-0.045,0.52
			c-0.284,0.426-0.24,0.541,0.13,0.342c-0.467-1.321-2.582-0.752-2.11,0.581c0.556,1.573,1.966,2.286,3.342,1.126
			c1.421-1.198,0.822-3.849,0.491-5.362c-0.305-1.395-0.924-3.381-2.275-4.118c-1.673-0.912-3.347-0.123-3.584,1.749
			C315.086,265.097,317.277,265.08,317.454,263.699L317.454,263.699z"/>
	</g>
	<g>
		<path d="M317.55,263.419c2.161-2.726,4.774-4.769,8.091-5.904c2.522-0.862,5.341-0.772,6.577,2.157
			c0.639,1.515,1.287,3.295,1.034,4.969c-0.376,2.492-5.069,3.622-6.999,4.376c-2.327,0.911-4.555,1.58-6.991,0.613
			c-1.312-0.521-1.877,1.597-0.582,2.11c3.682,1.462,7.05-0.186,10.482-1.53c3.323-1.302,6.49-2.988,6.315-6.981
			c-0.149-3.435-2.141-7.951-6.005-8.27c-5.378-0.444-10.254,2.855-13.471,6.913C315.137,262.966,316.673,264.525,317.55,263.419
			L317.55,263.419z"/>
	</g>
	<g>
		<path d="M310.415,247.485c11.135,1.343,21.52,1.862,32.442-1.072c9.226-2.479,17.678-7.319,25.061-13.293
			c1.098-0.888-0.461-2.427-1.547-1.548c-7.658,6.197-16.271,10.628-25.792,13.186c-10.057,2.702-19.988,1.766-30.163,0.539
			C309.016,245.127,309.032,247.318,310.415,247.485L310.415,247.485z"/>
	</g>
	<g>
		<path d="M334.054,263.059c6.739,0.817,12.986-0.255,18.364-4.545c5.656-4.513,8.491-13.012,8.018-20.012
			c-0.094-1.401-2.284-1.41-2.189,0c0.464,6.884-2.328,13.77-7.376,18.464c-4.482,4.167-11.083,4.6-16.816,3.904
			C332.654,260.7,332.671,262.891,334.054,263.059L334.054,263.059z"/>
	</g>
	<g>
		<path d="M318.922,248.471c-0.619,1.502,0.066,3.041,0.699,4.422c0.844,1.843,1.894,3.482,3.295,4.951
			c0.976,1.024,2.521-0.527,1.548-1.548c-0.91-0.953-1.649-1.977-2.287-3.128c-0.619-1.113-1.666-2.849-1.144-4.116
			C321.571,247.747,319.452,247.185,318.922,248.471L318.922,248.471z"/>
	</g>
	<g>
		<path d="M340.199,228.44c0.958-3.135,6.423-4.333,6.586-0.236c0.09,2.281-1.513,4.901-3.451,6.023
			c-1.22,0.707-0.119,2.599,1.105,1.89c3.319-1.921,5.542-6.639,3.996-10.301c-0.797-1.889-3.16-2.633-5.025-2.452
			c-2.495,0.243-4.605,2.152-5.322,4.495C337.675,229.212,339.788,229.787,340.199,228.44L340.199,228.44z"/>
	</g>
	<g>
		<path d="M304.686,227.016c10.056-2.097,20.185-3.839,30.097-6.566c1.359-0.374,0.783-2.486-0.582-2.111
			c-9.912,2.727-20.042,4.47-30.097,6.566C302.724,225.193,303.31,227.303,304.686,227.016L304.686,227.016z"/>
	</g>
	<g>
		<path d="M349.707,218.131c7.146-1.304,14.191-3.049,21.226-4.847c1.367-0.35,0.787-2.46-0.582-2.111
			c-7.036,1.798-14.08,3.543-21.226,4.847C347.739,216.273,348.328,218.383,349.707,218.131L349.707,218.131z"/>
	</g>
	<g>
		<path d="M308.119,225.009c-1.946-9.526,1.518-20.991,9.843-26.331c5.924-3.8,10.382-0.011,12.67,5.642
			c1.302,3.216,3.163,11.348,0.999,14.681c-0.771,1.188,1.125,2.284,1.89,1.105c2.928-4.51,0.438-13.362-1.4-17.906
			c-1.691-4.176-5.458-8.188-10.377-7.226c-12.96,2.536-18.083,19.127-15.736,30.616
			C306.292,226.973,308.401,226.387,308.119,225.009L308.119,225.009z"/>
	</g>
	<g>
		<path d="M351.195,216.785c-1.389-7.932,0.603-17.773,6.526-23.436c1.354-1.293,3.111-2.219,4.979-2.464
			c3.516-0.461,5.157,4.195,6.025,6.699c1.081,3.111,2.605,10.386,0.821,13.596c-0.687,1.235,1.204,2.338,1.89,1.105
			c2.264-4.069,0.562-11.054-0.599-15.282c-1.21-4.406-4.063-8.841-9.118-8.177c-11.507,1.51-14.165,19.811-12.636,28.542
			C349.327,218.755,351.437,218.165,351.195,216.785L351.195,216.785z"/>
	</g>
	<g>
		<path d="M351.819,186.606c3.452-3.497,9.465-6.033,13.997-3.112c1.19,0.767,2.286-1.128,1.105-1.89
			c-5.364-3.457-12.517-0.732-16.649,3.454C349.28,186.063,350.827,187.611,351.819,186.606L351.819,186.606z"/>
	</g>
	<g>
		<path d="M324.112,190.992c1.785-0.704,3.629-0.62,5.177,0.573c1.118,0.862,2.206-1.041,1.105-1.89
			c-1.95-1.503-4.613-1.683-6.864-0.794C322.233,189.393,322.799,191.51,324.112,190.992L324.112,190.992z"/>
	</g>
	<g>
		<path d="M367.964,193.219c-3.642,0.202-5.457,2.86-6.712,6.016c-1.992,5.012,0.2,10.545,2.392,15.058
			c0.618,1.269,2.505,0.159,1.89-1.105c-1.309-2.696-2.379-5.318-2.765-8.307c-0.431-3.331,0.939-9.237,5.195-9.473
			C369.367,195.331,369.375,193.141,367.964,193.219L367.964,193.219z"/>
	</g>
	<g>
		<path d="M329.95,200.099c-4.647-0.849-6.992,4.789-7.584,8.517c-0.754,4.763,0.589,10.053,4.735,12.818
			c1.178,0.786,2.272-1.11,1.105-1.89c-2.98-1.988-3.773-5.374-3.823-8.756c-0.036-2.349,1.307-9.251,4.985-8.579
			C330.747,202.461,331.337,200.353,329.95,200.099L329.95,200.099z"/>
	</g>
	<g>
		<path d="M527.917,248.12c-5.554,10.541-9.515,21.763-14.411,32.602c-0.289,0.637,0.656,1.195,0.944,0.552
			c4.897-10.837,8.86-22.063,14.411-32.601C529.19,248.049,528.246,247.496,527.917,248.12L527.917,248.12z"/>
	</g>
	<g>
		<path d="M528.342,249.035c12.648-1.554,25.046-4.495,37.495-7.134c0.69-0.146,0.397-1.201-0.291-1.055
			c-12.353,2.618-24.654,5.552-37.204,7.094C527.651,248.026,527.644,249.121,528.342,249.035L528.342,249.035z"/>
	</g>
	<g>
		<path d="M565.441,242.582c-0.259-0.244-0.103-0.168-0.243,0.309c-0.131,0.43-0.298,0.849-0.46,1.266
			c-0.603,1.551-1.3,3.067-1.99,4.582c-1.861,4.09-3.828,8.133-5.801,12.172c-3.427,7.019-6.976,13.976-10.401,20.993
			c-0.311,0.632,0.635,1.187,0.944,0.553c3.771-7.721,7.674-15.378,11.432-23.106c1.986-4.088,3.965-8.184,5.797-12.345
			c0.37-0.84,2.448-4.304,1.496-5.197C565.7,241.325,564.927,242.098,565.441,242.582L565.441,242.582z"/>
	</g>
	<g>
		<path d="M513.978,281.545c10.799-0.144,21.519,0.38,32.288,1.182c0.703,0.051,0.699-1.043,0-1.095
			c-10.77-0.802-21.489-1.325-32.288-1.182C513.272,280.459,513.272,281.554,513.978,281.545L513.978,281.545z"/>
	</g>
	<g>
		<path d="M525.54,252.023c-0.03,0.03-0.062,0.061-0.092,0.091c-0.498,0.5,0.275,1.273,0.773,0.774
			c0.03-0.031,0.062-0.061,0.092-0.091C526.812,252.297,526.038,251.523,525.54,252.023L525.54,252.023z"/>
	</g>
	<g>
		<path d="M526.2,252.957c12.192-1.622,24.44-2.744,36.663-4.104c0.695-0.077,0.701-1.172,0-1.095
			c-12.223,1.361-24.471,2.482-36.663,4.104C525.51,251.954,525.501,253.05,526.2,252.957L526.2,252.957z"/>
	</g>
	<g>
		<path d="M562.021,244.179c-0.485,0.555-1.026,1.034-1.622,1.465c-0.566,0.409-0.021,1.359,0.551,0.945
			c0.674-0.486,1.298-1.011,1.845-1.636C563.259,244.424,562.487,243.647,562.021,244.179L562.021,244.179z"/>
	</g>
	<g>
		<path d="M560.288,245.044c0.37,0.45,0.775,0.866,1.187,1.276c0.5,0.5,1.273-0.274,0.773-0.773
			c-0.41-0.412-0.816-0.828-1.187-1.277C560.613,243.725,559.844,244.504,560.288,245.044L560.288,245.044z"/>
	</g>
	<g>
		<path d="M510.513,287.432c11.34,0.653,22.68,1.306,34.02,1.96c0.705,0.041,0.701-1.054,0-1.094
			c-11.34-0.654-22.68-1.307-34.02-1.96C509.808,286.297,509.812,287.392,510.513,287.432L510.513,287.432z"/>
	</g>
	<g>
		<path d="M509.189,290.805c11.34,0.653,22.68,1.306,34.021,1.96c0.705,0.041,0.701-1.054,0-1.094
			c-11.342-0.654-22.682-1.307-34.021-1.96C508.484,289.67,508.488,290.765,509.189,290.805L509.189,290.805z"/>
	</g>
	<g>
		<path d="M507.869,294.178c11.339,0.653,22.679,1.306,34.019,1.96c0.706,0.041,0.701-1.054,0-1.094
			c-11.34-0.654-22.68-1.307-34.019-1.96C507.163,293.043,507.168,294.138,507.869,294.178L507.869,294.178z"/>
	</g>
	<g>
		<path d="M506.546,297.551c11.339,0.653,22.679,1.307,34.021,1.96c0.706,0.041,0.701-1.054,0-1.095
			c-11.342-0.653-22.682-1.307-34.021-1.96C505.84,296.416,505.845,297.511,506.546,297.551L506.546,297.551z"/>
	</g>
	<g>
		<path d="M505.225,300.925c11.34,0.652,22.68,1.306,34.02,1.96c0.705,0.041,0.701-1.054,0-1.094
			c-11.34-0.654-22.68-1.309-34.02-1.961C504.52,299.79,504.523,300.884,505.225,300.925L505.225,300.925z"/>
	</g>
	<g>
		<path d="M503.901,304.298c11.34,0.652,22.68,1.306,34.021,1.96c0.705,0.041,0.701-1.054,0-1.094
			c-11.342-0.654-22.682-1.309-34.021-1.961C503.196,303.163,503.2,304.257,503.901,304.298L503.901,304.298z"/>
	</g>
	<g>
		<path d="M502.58,307.671c11.34,0.652,22.68,1.306,34.02,1.96c0.705,0.041,0.701-1.054,0-1.094
			c-11.34-0.654-22.68-1.309-34.02-1.961C501.875,306.536,501.879,307.631,502.58,307.671L502.58,307.671z"/>
	</g>
	<g>
		<path d="M501.257,311.044c11.34,0.652,22.68,1.306,34.02,1.96c0.708,0.041,0.703-1.054,0-1.094
			c-11.34-0.654-22.68-1.309-34.02-1.961C500.552,309.909,500.556,311.004,501.257,311.044L501.257,311.044z"/>
	</g>
	<g>
		<path d="M499.937,314.417c11.34,0.652,22.679,1.306,34.019,1.96c0.706,0.041,0.701-1.054,0-1.094
			c-11.34-0.654-22.679-1.309-34.019-1.961C499.23,313.282,499.235,314.377,499.937,314.417L499.937,314.417z"/>
	</g>
	<g>
		<path d="M498.613,317.79c11.34,0.652,22.68,1.306,34.019,1.96c0.706,0.041,0.701-1.054,0-1.094
			c-11.339-0.654-22.679-1.309-34.019-1.961C497.907,316.655,497.912,317.75,498.613,317.79L498.613,317.79z"/>
	</g>
	<g>
		<path d="M497.292,321.163c11.34,0.652,22.68,1.307,34.02,1.96c0.705,0.041,0.701-1.054,0-1.094
			c-11.34-0.654-22.68-1.309-34.02-1.961C496.587,320.028,496.591,321.123,497.292,321.163L497.292,321.163z"/>
	</g>
	<g>
		<path d="M495.969,324.536c11.34,0.652,22.68,1.307,34.02,1.96c0.705,0.041,0.701-1.054,0-1.094
			c-11.34-0.654-22.68-1.309-34.02-1.961C495.264,323.401,495.268,324.496,495.969,324.536L495.969,324.536z"/>
	</g>
	<path d="M519.922,367.368c-0.218-0.504-0.594-0.908-1.047-1.212c0.011-0.227-0.097-0.457-0.374-0.545
		c-0.094-0.029-0.188-0.047-0.282-0.072c-0.169-0.194-0.455-0.244-0.676-0.146c-0.641-0.103-1.286-0.103-1.932,0.081
		c-0.357,0.101-0.483,0.487-0.327,0.804c0.752,1.507,2.725,2.189,4.312,1.894C519.978,368.1,520.051,367.664,519.922,367.368z"/>
	<path d="M511.665,363.438c-0.462-0.631-1.255-0.654-1.92-0.365c-0.421,0.184-0.678,0.538-0.799,0.942
		c-0.372,0.573-0.314,1.39,0.353,1.731C510.641,366.438,512.719,364.876,511.665,363.438z"/>
	<g>
		<path d="M527.917,331.297c-2.803,6.559-6.321,12.776-9.121,19.337c-0.273,0.642,0.667,1.199,0.944,0.552
			c2.801-6.559,6.319-12.776,9.121-19.337C529.135,331.208,528.192,330.649,527.917,331.297L527.917,331.297z"/>
	</g>
	<g>
		<path d="M494.644,327.742c11.248,1.46,22.496,2.92,33.745,4.378c0.697,0.092,0.688-1.005,0-1.094
			c-11.249-1.458-22.497-2.918-33.745-4.378C493.944,326.559,493.953,327.652,494.644,327.742L494.644,327.742z"/>
	</g>
	<g>
		<path d="M494.115,327.05c-2.047,5.473-4.54,10.752-6.876,16.104c-0.28,0.64,0.662,1.197,0.944,0.552
			c2.375-5.438,4.906-10.806,6.988-16.365C495.42,326.678,494.361,326.396,494.115,327.05L494.115,327.05z"/>
	</g>
	<g>
		<path d="M487.566,343.958c10.386,2.292,20.747,4.675,31.01,7.479c0.682,0.186,0.97-0.87,0.29-1.056
			c-10.263-2.803-20.623-5.188-31.01-7.479C487.171,342.75,486.878,343.805,487.566,343.958L487.566,343.958z"/>
	</g>
	<path d="M453.5,377.109c-6.007,2.555-11.812,1.933-18.113,1.8c-3.459-0.072-10.346,0.913-13.161-1.458
		c-2.142-1.809-5.256,1.272-3.095,3.096c3.609,3.041,9.604,2.609,14.026,2.704c7.883,0.164,15.107,0.806,22.553-2.362
		C458.301,379.785,456.067,376.018,453.5,377.109z"/>
	<path d="M331.019,204.604c1.056-1.584-0.082-4.251-2.214-3.372c-5.492,2.265-6.706,10.513-3.623,15.35
		c-0.418,0.669-0.458,1.54-0.057,2.275c0.788,1.447,2.298,2.141,3.896,2.178c0.919,0.022,1.715-0.595,2.035-1.413
		c1.468-0.39,2.648-1.65,2.995-3.66C334.667,212.383,332.98,207.615,331.019,204.604z"/>
	<path d="M369.619,197.836c-0.004-0.014-0.013-0.026-0.02-0.04c1.471-1.757-1.396-4.35-3.456-2.75
		c-4.096,3.181-5.808,11.187-2.444,15.545c0.067,0.901,0.666,1.783,1.586,1.976c1.121,0.233,2.26,0.163,3.353-0.182
		c0.876-0.277,1.687-1.125,1.608-2.111c-0.015-0.189-0.058-0.362-0.098-0.535c0.157-0.288,0.288-0.586,0.384-0.89
		C371.675,205.247,370.933,201.292,369.619,197.836z"/>
	<path d="M394.079,326.345c-0.923-1.185-1.843-2.343-2.719-3.527c-0.827-1.615-1.806-3.146-2.926-4.648
		c-0.025-0.052-0.06-0.099-0.085-0.152c-0.004,0.005-0.011,0.009-0.017,0.013c-0.154-0.207-0.292-0.417-0.453-0.622
		c-0.235-0.304-0.492-0.517-0.756-0.684c-0.545-1.133-1.099-2.264-1.657-3.393c-1.8-4.745-2.783-10.441-5.351-14.58
		c-0.271-1.002-0.549-2.004-0.829-3.006c-1.605-11.289-1.095-22.84-2.565-34.215c-0.147-1.141-0.909-2.047-1.841-2.548
		c0.483-0.794,0.964-1.587,1.449-2.368c1.499-2.402-2.289-4.598-3.779-2.208c-2.448,3.925-4.779,8.199-7.595,12.021
		c-2.489,2.111-4.501,4.69-6.855,6.924c-0.623,0.486-1.246,0.971-1.911,1.429c-0.297,0.205-0.52,0.446-0.68,0.706
		c-3.184,2.214-7.067,3.42-10.265,5.678c-0.676,0.478-0.965,1.236-0.954,1.974c-0.528-0.091-1.044-0.199-1.59-0.266
		c-2.797-0.345-2.764,4.037,0,4.378c3.576,0.44,6.722,1.561,9.696,3.058c1,1.252,2.306,2.398,3.642,3.383
		c-0.047,0.533,0.039,1.094,0.297,1.645c2.499,5.312,6.353,9.598,10.186,13.935c0.899,3.568,3.093,6.855,5.436,9.91
		c0.351,0.515,0.712,1.032,1.082,1.552c2.33,3.279,3.51,7.552,6.996,9.794c0.295,0.19,0.622,0.302,0.958,0.359
		c0.087,0.088,0.167,0.176,0.256,0.263c0.537,0.528,1.28,0.782,2.035,0.8c3.706,1.751,6.671,1.471,10.185-0.874
		C395.224,329.901,395.308,327.922,394.079,326.345z"/>
	<path d="M304.748,131.119c-0.346-0.501-0.913-0.85-1.721-0.829c-2.003,0.052-4.129,0.149-6.324,0.31
		c-0.505-0.472-1.181-0.83-2.087-0.974c-10.767-1.714-21.626,2.26-31.158,6.957c-8.996,4.432-18.837,11.179-22.922,20.73
		c-1.986,1.63-3.271,3.776-4.288,6.084c-7.024,12.059-12.255,27.047-13.009,40.926c-0.929,0.554-1.659,1.41-1.863,2.508
		c-0.26,1.39-0.403,2.761-0.589,4.119c-0.287,0.981-0.464,1.992-0.561,3.021c-0.067,0.265-0.136,0.531-0.218,0.795
		c-0.371,1.203-0.136,2.418,0.478,3.404c-1.248,4.32-2.379,8.67-2.939,13.26c-0.229,1.889-0.404,3.778-0.549,5.666
		c-1.859,4.927-1.745,11.118-2.04,15.984c-0.044,0.731-0.073,1.461-0.106,2.192c-3.643,4.292-3.39,11.331-3.339,16.566
		c0.051,5.023,0.248,10.061,0.489,15.095c-0.661,0.512-1.391,3.031-1.439,3.42l-0.014-0.002c-0.022,0.197-0.037,0.395-0.058,0.592
		c-0.049,0.438,3.149,57.396,3.925,57.885c0.481,6.854,1.188,13.666,2.31,20.391c0.403,2.42,2.104,3.303,3.89,3.142
		c6.207,6.657,15.73,9.972,24.321,12.114c9.746,2.428,21.501,3.629,31.075,0.115c0.515-0.19,0.938-0.455,1.312-0.755
		c0.203,0.075,0.398,0.156,0.609,0.227c2.717,0.904,5.6-2.005,4.711-4.713c-2.311-7.046-6.084-13.4-9.352-20.021
		c-0.052-0.106-0.098-0.218-0.15-0.323c-0.359-1.768-0.706-3.537-1.08-5.29c-1.419-6.671-3.702-13.086-4.993-19.803
		c-2.814-14.633-0.787-47.917-1.913-48.734c0.502-1.509,0.881-3.031,0.866-4.54c-0.034-3.627-1.792-6.175-4.062-8.864
		c-1.429-1.692-3.293-1.528-4.64-0.502c-0.152,0.019-0.297,0.026-0.455,0.064c-5.877,1.435-14.298-4.315-18.012-8.131
		c-5.67-5.823-8.474-14.238-9.152-22.171c-1.605-18.827,11.021-29.986,25.738-39.033c1.002-0.617,1.533-1.466,1.723-2.363
		c-0.23,0.009-0.462-0.005-0.696-0.034c0.201-0.413,0.322-0.896,0.322-1.458c-0.004-12.585,5.758-23.292,12.552-33.483
		c5.934-8.897,12.54-16.611,21.798-22.146c-3.346,3.527,0.667,0.389,4.733-3.501c0.308-0.139,0.614-0.265,0.916-0.359
		c1.072-0.334,1.892-1.143,2.235-2.137c0.083-0.037,0.19-0.084,0.213-0.095c0.102-0.041,0.204-0.083,0.305-0.123
		c0.216-0.086,0.427-0.185,0.641-0.275c1.168-0.043,6.678-1.532,6.678-2.725C306.858,132.133,305.904,131.162,304.748,131.119z"/>
	<path d="M385.43,156.358c-0.171-0.99-0.84-1.756-1.691-2.237c-0.391-2.626-1.103-5.182-2.469-7.598
		c-2.198-3.886-6.844-7.105-11.415-7.409c-4.199-2.811-9.958-3.854-14.635-2.667c-0.495-0.252-1.073-0.412-1.758-0.412
		c-9.875,0-19.928,2.303-29.287,6.239c-0.451-0.009-0.938,0.069-1.464,0.282c-8.114,3.282-15.581,7.223-22.517,12.59
		c-7.644,5.914-12.562,14.061-18.077,21.82c-0.465,0.654-0.658,1.297-0.681,1.907c-3.505,5.687-6.59,12.561-6.592,18.632
		c0,1.655,0.866,2.742,2.009,3.289c0.19,0.308,0.43,0.607,0.755,0.879c5.584,4.685,8.969,10.783,16.025,6.158
		c14.077-3.109,26.63-12.631,35.358-23.851c0.818-1.052,0.996-2.22,0.784-3.289c6.887-8.062,12.447-17.506,15.805-27.416
		c0.622,1.034,1.381,2.017,2.24,2.944c0.096,0.178,0.191,0.356,0.327,0.536c5.091,6.725,16.881,11.892,25.394,8.728
		c0.791,1.763,1.625,3.466,2.931,4.999c0.167,0.196,0.342,0.352,0.52,0.5v1.352c0,0.234,0.028,0.462,0.07,0.686
		c-0.177,1.171,0.165,2.413,1.052,3.3c1.475,1.476,3.939,1.476,5.417,0l0.182-0.183c1.011-1.012,1.312-2.483,0.938-3.788
		c0-0.005,0.002-0.01,0.002-0.016v-1.859c0.1-0.368,0.205-0.735,0.297-1.104c0.299-0.396,0.532-0.884,0.661-1.491
		C386.428,163.992,386.093,160.242,385.43,156.358z"/>
	<g>
		<path fill="#2B2829" d="M268.462,283.236c0.707,0,0.707-1.094,0-1.094S267.755,283.236,268.462,283.236L268.462,283.236z"/>
	</g>
</g>
</svg>
