<?xml version="1.0" encoding="UTF-8" standalone="no"?>
<!-- Created with Inkscape (http://www.inkscape.org/) -->

<svg
   xmlns:dc="http://purl.org/dc/elements/1.1/"
   xmlns:cc="http://creativecommons.org/ns#"
   xmlns:rdf="http://www.w3.org/1999/02/22-rdf-syntax-ns#"
   xmlns:svg="http://www.w3.org/2000/svg"
   xmlns="http://www.w3.org/2000/svg"
   xmlns:sodipodi="http://sodipodi.sourceforge.net/DTD/sodipodi-0.dtd"
   xmlns:inkscape="http://www.inkscape.org/namespaces/inkscape"
   id="svg2"
   version="1.1"
   inkscape:version="0.91 r13725"
   xml:space="preserve"
   width="645.44104"
   height="630.45996"
   viewBox="0 0 645.44104 630.45996"
   sodipodi:docname="beach-ball.svg"><metadata
     id="metadata8"><rdf:RDF><cc:Work
         rdf:about=""><dc:format>image/svg+xml</dc:format><dc:type
           rdf:resource="http://purl.org/dc/dcmitype/StillImage" /><dc:title></dc:title></cc:Work></rdf:RDF></metadata><defs
     id="defs6"><clipPath
       clipPathUnits="userSpaceOnUse"
       id="clipPath16"><path
         d="m 0,1000 1000,0 L 1000,0 0,0 0,1000 Z"
         id="path18"
         inkscape:connector-curvature="0" /></clipPath><clipPath
       clipPathUnits="userSpaceOnUse"
       id="clipPath56"><path
         d="m 0,1000 1000,0 L 1000,0 0,0 0,1000 Z"
         id="path58"
         inkscape:connector-curvature="0" /></clipPath></defs><sodipodi:namedview
     pagecolor="#ffffff"
     bordercolor="#666666"
     borderopacity="1"
     objecttolerance="10"
     gridtolerance="10"
     guidetolerance="10"
     inkscape:pageopacity="0"
     inkscape:pageshadow="2"
     inkscape:window-width="1319"
     inkscape:window-height="744"
     id="namedview4"
     showgrid="false"
     fit-margin-top="0"
     fit-margin-left="0"
     fit-margin-right="0"
     fit-margin-bottom="0"
     inkscape:zoom="0.53400704"
     inkscape:cx="240.43484"
     inkscape:cy="279.02467"
     inkscape:window-x="47"
     inkscape:window-y="24"
     inkscape:window-maximized="1"
     inkscape:current-layer="g10" /><g
     id="g10"
     inkscape:groupmode="layer"
     inkscape:label="beach ball"
     transform="matrix(1.25,0,0,-1.25,-302.27949,936.94456)"><g
       id="g12"
       transform="translate(-2.4894939,0)"><g
         id="g14"
         clip-path="url(#clipPath16)"><g
           id="g20"
           transform="translate(418.8462,408.9229)"><path
             d="m 0,0 c 0,0 -109.23,109.231 15.385,183.077 0,0 41.538,49.231 121.538,12.308 0,0 98.461,-56.923 69.231,-141.538 C 176.923,-30.769 66.154,-56.923 0,0"
             style="fill:#f4f4f4;fill-opacity:1;fill-rule:nonzero;stroke:none"
             id="path22"
             inkscape:connector-curvature="0" /></g><g
           id="g24"
           transform="translate(461.9229,398.1543)"><path
             d="m 0,0 c 0,0 3.077,121.538 67.692,158.461 0,0 16.923,-6.154 24.616,-6.154 0,0 33.847,-87.692 -43.077,-159.999 0,0 -35.385,-1.538 -49.231,7.692"
             style="fill:#ff8989;fill-opacity:1;fill-rule:nonzero;stroke:none"
             id="path26"
             inkscape:connector-curvature="0" /></g><g
           id="g28"
           transform="translate(408.0771,427.3848)"><path
             d="m 0,0 c 0,0 -67.692,135.385 107.692,158.461 l -1.539,10.769 c 0,0 -59.999,38.462 -129.23,-63.076 0,0 -13.846,-70.769 23.077,-106.154"
             style="fill:#ff8989;fill-opacity:1;fill-rule:nonzero;stroke:none"
             id="path30"
             inkscape:connector-curvature="0" /></g><g
           id="g32"
           transform="translate(620.3848,513.5386)"><path
             d="m 0,0 c 0,0 -12.308,40 -64.615,78.461 l 9.23,4.616 C -55.385,83.077 9.23,56.923 0,0"
             style="fill:#ff8989;fill-opacity:1;fill-rule:nonzero;stroke:none"
             id="path34"
             inkscape:connector-curvature="0" /></g><g
           id="g36"
           transform="translate(532.334,566.333)"><path
             d="M 0,0 C 0,0 -22,20 -2.667,22.667 16.666,25.333 40.667,4 36,-1.333 31.333,-6.667 10,-6.667 0,0"
             style="fill:#ffd7d7;fill-opacity:1;fill-rule:nonzero;stroke:none"
             id="path38"
             inkscape:connector-curvature="0" /></g><g
           id="g40"
           transform="translate(418.8462,408.9229)"><path
             d="m 0,0 c 0,0 -80,132.308 86.154,173.846 l 18.462,-16.923 c 0,0 -87.693,-72.307 -69.231,-167.692 L 0,0 Z"
             style="fill:#a6e4ff;fill-opacity:1;fill-rule:nonzero;stroke:none"
             id="path42"
             inkscape:connector-curvature="0" /></g><g
           id="g44"
           transform="translate(521.9229,385.8457)"><path
             d="M 0,0 C 0,0 84.616,78.463 41.539,169.231 L 55.385,180 c 0,0 52.307,-41.539 40,-112.308 C 95.385,67.692 70.769,-4.616 0,0"
             style="fill:#a6e4ff;fill-opacity:1;fill-rule:nonzero;stroke:none"
             id="path46"
             inkscape:connector-curvature="0" /></g><g
           id="g48"
           transform="translate(551,591.6665)"><path
             d="m 0,0 c 0,0 -2.666,16.667 -12.666,20 l -44.001,2 c 0,0 32,-9.333 34.667,-19.333 0,0 14,6.666 22,-2.667"
             style="fill:#a6e4ff;fill-opacity:1;fill-rule:nonzero;stroke:none"
             id="path50"
             inkscape:connector-curvature="0" /></g></g></g><g
       id="g52"
       transform="translate(-0.3773459,0)"><g
         id="g54"
         clip-path="url(#clipPath56)"><g
           id="g60"
           transform="translate(616.5596,559.4204)"><path
             style="fill:#534741;fill-opacity:1;fill-rule:nonzero;stroke:none"
             d="m 0,0 c 14.345818,-27.525366 15.010372,-60.049407 11.058509,-90.2206 -7.8361314,-46.78368 -47.610945,-88.50378 -96.057134,-91.77552 -36.573135,-2.46789 -73.811205,6.34961 -106.111075,23.45778 -24.97859,13.13471 -43.09108,37.26774 -49.77383,64.574222 -9.14454,30.681764 -4.66549,64.989688 13.04337,91.7913929 22.22926,36.6880711 63.21091,60.0631511 105.79766,62.5786711 35.647835,2.581519 73.207377,-7.40246 99.474786,-32.549585 C -13.700411,19.79365 -5.8762227,10.470487 0,0 Z m -0.347,-0.199 c -18.77327,32.676365 -54.622241,53.885254 -91.97375,56.794625 -48.0723,5.409103 -99.9388,-12.808688 -129.05937,-52.5646631 -19.56153,-24.6559889 -27.62974,-57.9544949 -20.17067,-88.6806079 5.46209,-27.557314 21.38747,-53.496314 46.13967,-67.653304 29.32357,-17.08678 63.54806,-25.56137 97.385323,-26.03355 30.603191,-1.05508 60.921631,12.68742 80.513797,36.1845 19.870841,22.39428 29.506752,52.426579 29.113313,82.140828 C 12.010759,-39.590446 9.514555,-18.392421 -0.347,-0.199 Z"
             id="path62"
             inkscape:connector-curvature="0" /></g><g
           id="g64"
           transform="translate(558.418,580.7788)"><path
             d="m 0,0 c -0.046,0.029 -0.464,0.287 -1.217,0.751 -0.804,0.484 -1.997,1.175 -3.579,1.929 -1.576,0.761 -3.552,1.569 -5.864,2.302 -2.303,0.754 -4.962,1.387 -7.812,1.875 -2.851,0.436 -5.929,0.805 -8.996,0.408 -0.773,-0.061 -1.5,-0.304 -2.266,-0.437 -0.33,-0.114 -0.662,-0.228 -0.995,-0.343 -0.338,-0.12 -0.648,-0.169 -1.076,-0.426 -0.403,-0.207 -0.808,-0.416 -1.216,-0.625 l -0.305,-0.157 c 0.271,0.157 0.056,0.032 0.109,0.061 l -0.031,-0.021 -0.064,-0.042 -0.126,-0.084 -0.511,-0.336 c -0.353,-0.218 -0.634,-0.48 -0.965,-0.711 -0.297,-0.249 -0.586,-0.506 -0.85,-0.771 -1.03,-1.093 -1.605,-2.234 -1.455,-3.557 0.133,-1.339 0.946,-2.868 2.081,-4.25 0.555,-0.702 1.188,-1.378 1.863,-2.033 0.661,-0.668 1.374,-1.309 2.113,-1.93 1.462,-1.267 3.041,-2.452 4.673,-3.573 3.259,-2.261 6.807,-4.134 10.468,-5.49 0.919,-0.33 1.816,-0.675 2.761,-0.934 0.947,-0.253 1.892,-0.494 2.838,-0.712 1.835,-0.413 3.746,-0.676 5.584,-0.84 3.679,-0.304 7.289,-0.259 10.29,0.398 1.493,0.325 2.787,0.88 3.621,1.637 0.849,0.741 1.281,1.761 1.448,2.986 0.057,0.3 0.039,0.58 0.072,0.873 0.019,0.298 -0.024,0.715 -0.032,1.061 0.016,0.28 -0.073,0.514 -0.091,0.782 -0.082,0.269 -0.161,0.543 -0.264,0.817 C 9.77,-10.278 9.081,-9.208 8.37,-8.259 7.662,-7.3 6.928,-6.433 6.203,-5.671 5.495,-4.892 4.801,-4.212 4.162,-3.611 2.879,-2.415 1.819,-1.527 1.097,-0.92 0.431,-0.361 0.055,-0.046 0,0 m 0.247,0.315 c 0,0.001 1.522,-1.297 4.352,-3.408 1.405,-1.074 3.151,-2.322 5.04,-4.013 0.939,-0.854 1.918,-1.817 2.778,-3.13 0.204,-0.338 0.393,-0.709 0.579,-1.089 0.136,-0.417 0.335,-0.85 0.401,-1.294 0.072,-0.37 0.174,-0.672 0.222,-1.11 0.035,-0.444 0.108,-0.911 0.093,-1.361 -0.017,-0.453 -0.007,-0.907 -0.111,-1.383 l -0.133,-0.713 c -0.073,-0.238 -0.153,-0.477 -0.238,-0.715 -0.357,-0.942 -0.923,-1.891 -1.706,-2.603 C 9.988,-21.995 8,-22.68 6.126,-22.997 c -3.813,-0.617 -7.581,0.066 -11.313,0.952 -1.877,0.455 -3.717,0.986 -5.629,1.563 -0.918,0.315 -1.847,0.611 -2.785,0.897 -0.939,0.279 -1.874,0.672 -2.826,0.975 -3.753,1.386 -7.519,2.917 -11.175,4.754 -3.63,1.865 -7.263,3.933 -10.212,7.109 -0.741,0.789 -1.422,1.665 -1.999,2.665 -0.574,0.994 -1.049,2.12 -1.251,3.376 -0.212,1.248 -0.097,2.624 0.36,3.815 0.445,1.191 1.12,2.223 1.875,3.073 0.762,0.839 1.574,1.563 2.425,2.157 l 0.637,0.437 0.16,0.109 0.08,0.054 0.039,0.027 c 0.077,0.045 -0.116,-0.062 0.182,0.108 l 0.304,0.161 c 0.405,0.213 0.809,0.426 1.209,0.637 0.354,0.215 0.922,0.398 1.427,0.581 0.512,0.177 1.03,0.365 1.537,0.513 0.976,0.163 1.944,0.422 2.894,0.476 3.82,0.318 7.3,-0.313 10.28,-1.316 2.993,-0.983 5.538,-2.273 7.709,-3.501 0.551,-0.291 1.067,-0.604 1.565,-0.904 0.499,-0.298 0.991,-0.559 1.444,-0.846 0.907,-0.576 1.752,-1.069 2.495,-1.553 1.504,-0.928 2.663,-1.69 3.457,-2.201 L 0.238,0.323 0.247,0.315 Z"
             style="fill:#534741;fill-opacity:1;fill-rule:nonzero;stroke:none"
             id="path66"
             inkscape:connector-curvature="0" /></g><g
           id="g68"
           transform="translate(417.189,416.3496)"><path
             style="fill:#534741;fill-opacity:1;fill-rule:nonzero;stroke:none"
             d="m 0,0 c -22.978693,27.065661 -26.199307,66.563617 -14.556,99.235 5.3664544,15.76841 14.57321754,30.61781 28.303734,40.35658 18.167493,15.17315 40.191665,26.94489 64.255483,28.06738 5.513622,0.47111 11.05577,0.46094 16.584783,0.40104 -2.976037,-3.69625 -0.910989,2.62959 0.218,4.17 2.142124,3.54004 5.58136,6.1901 9.376,7.766 -0.10951,-6.01011 -7.904838,4.34322 -11.627,3.549 -12.307026,4.62267 -25.500909,6.71869 -38.623,6.757 C 40.880775,186.96307 26.846226,181.25059 15.146047,173.40748 -12.323152,154.946 -33.219567,124.74402 -36.612,91.4 -37.878213,72.221878 -33.804451,52.821745 -26.766,35.052 -20.970772,21.324509 -11.805006,9.1011241 0,0 Z m 2.133,-2.147 c -15.877321,10.1486339 -27.834851,25.775396 -34.18975,43.4715 -6.481328,18.187746 -10.256979,38.012371 -7.264496,57.287105 5.840366,32.951825 28.800661,61.032905 57.068746,77.984895 11.424118,6.69132 23.753419,12.17582 36.656363,15.15406 3.036352,-0.0294 6.107868,-0.11798 9.189437,-0.29452 C 79.060647,190.5699 94.781276,187.46641 107.58,178.488 101.84452,176.14123 95.92356,171.64035 95.983,164.831 74.615563,165.14884 52.539633,161.52951 34.508547,149.34538 19.984363,139.36468 4.3069824,129.21044 -3.9951113,113.02912 -22.420366,79.799099 -23.879702,35.7872 -2.0918107,3.7615906 -0.72293796,1.7656275 0.73158628,-0.17293196 2.133,-2.147 Z"
             id="path70"
             inkscape:connector-curvature="0"
             sodipodi:nodetypes="ccccccccccccccccccscccccc" /></g><g
           id="g72"
           transform="translate(501.5879,386.9521)"><path
             style="fill:#534741;fill-opacity:1;fill-rule:nonzero;stroke:none"
             d="m 0,0 c 23.421281,11.153112 40.698142,32.436127 51.754,55.459 10.664566,22.929108 12.651356,48.95652 9.931344,73.86833 -1.525526,12.20432 -4.737843,24.27408 -10.211344,35.32267 2.823181,-1.82216 -4.033078,0.38198 -5.340463,0.56483 -6.433353,1.77723 -12.596973,4.4654 -18.395537,7.75817 2.910894,0.30253 -2.722709,-2.31219 -3.515,-3.274 -28.1581008,-20.93786 -48.87513,-51.86935 -56.834,-86.106 -5.801398,-24.556272 -9.012805,-49.977538 -6.667,-75.2 -2.327632,2.34023 3.57014,-0.5668527 5.004575,-0.6265946 C -23.042973,4.4026438 -11.573892,1.8538618 0,0 Z m 0.062,-0.411 c -14.188942,1.04457571 -28.163546,3.8975761 -41.89,7.56 -3.35393,26.352704 -0.640558,53.353688 6.694007,78.832638 8.081165,27.941342 24.556023,52.966642 44.807993,73.611362 5.708809,5.79647 11.958599,11.02877 18.514,15.837 8.062133,-4.21172 16.770529,-7.32347 25.808,-8.538 C 67.639548,140.93526 69.560491,110.09103 64.43456,81.599779 58.63334,52.108141 40.742392,25.213675 16.173,7.979 11.098776,4.6343366 5.7440437,1.7615597 0.062,-0.411 Z"
             id="path74"
             inkscape:connector-curvature="0" /></g><g
           id="g76"
           transform="translate(577.4971,569.2695)"><path
             style="fill:#534741;fill-opacity:1;fill-rule:nonzero;stroke:none"
             d="m 0,0 c 11.323176,-4.3300103 20.118004,-13.28008 27.504557,-22.619014 8.196742,-10.55829 14.548324,-22.557 18.575443,-35.306986 -2.095653,-0.288799 -5.195388,-1.862513 -4.125348,1.870195 -1.118287,16.532128 -3.828038,33.781895 -12.98708,47.942983 C 20.036238,5.7310648 6.9847244,16.414659 -7.1792758,24.589392 -9.9544229,26.333947 -12.923227,27.732059 -15.778,29.337 c 2.797618,0.75853 1.194344,-0.509763 -0.159535,-1.663197 -2.01357,-2.08818 -3.698804,-4.463369 -5.064465,-7.020803 -1.202459,2.322248 -0.319276,2.15838 1.496259,0.883133 C -15.744857,19.57637 -12.751412,17.150624 -9.834,14.091 -5.7978677,10.036422 -1.6785258,5.6054258 0,0 Z m -0.346,-0.227 c -3.4790141,6.8976402 -9.860236,11.595914 -15.74,16.35 -2.762702,1.661251 -5.653919,3.082125 -8.538,4.517 2.131256,4.647101 5.119458,8.870199 9.038754,12.179384 3.474014,-0.63868 7.3903432,-3.748502 10.756996,-5.578634 C 7.5534889,19.251388 17.87157,8.457958 26.975883,-3.0405752 33.59844,-11.351194 38.736196,-20.841807 41.65825,-31.086766 45.755579,-44.646241 46.12832,-58.873645 47.241,-72.891 42.25121,-59.53324 37.839643,-45.829958 30.348143,-33.596773 23.586101,-22.218387 15.439905,-11.310648 4.715,-3.379875 3.1218886,-2.1823083 1.3200769,-1.2738303 -0.346,-0.227 Z"
             id="path78"
             inkscape:connector-curvature="0" /></g></g></g></g></svg>