<?xml version="1.0" encoding="UTF-8" standalone="no"?>
<!-- Created with Inkscape (http://www.inkscape.org/) -->

<svg
   xmlns:dc="http://purl.org/dc/elements/1.1/"
   xmlns:cc="http://creativecommons.org/ns#"
   xmlns:rdf="http://www.w3.org/1999/02/22-rdf-syntax-ns#"
   xmlns:svg="http://www.w3.org/2000/svg"
   xmlns="http://www.w3.org/2000/svg"
   xmlns:sodipodi="http://sodipodi.sourceforge.net/DTD/sodipodi-0.dtd"
   xmlns:inkscape="http://www.inkscape.org/namespaces/inkscape"
   version="1.1"
   id="svg2"
   xml:space="preserve"
   width="691.78699"
   height="601.07062"
   viewBox="0 0 691.78701 601.07064"
   sodipodi:docname="beer-mug.svg"
   inkscape:version="0.92.2 5c3e80d, 2017-08-06"><metadata
     id="metadata8"><rdf:RDF><cc:Work
         rdf:about=""><dc:format>image/svg+xml</dc:format><dc:type
           rdf:resource="http://purl.org/dc/dcmitype/StillImage" /><dc:title></dc:title></cc:Work></rdf:RDF></metadata><defs
     id="defs6"><clipPath
       clipPathUnits="userSpaceOnUse"
       id="clipPath18"><path
         d="M 0,1000 H 1000 V 0 H 0 Z"
         id="path16"
         inkscape:connector-curvature="0" /></clipPath><clipPath
       clipPathUnits="userSpaceOnUse"
       id="clipPath42"><path
         d="M 0,1000 H 1000 V 0 H 0 Z"
         id="path40"
         inkscape:connector-curvature="0" /></clipPath><clipPath
       clipPathUnits="userSpaceOnUse"
       id="clipPath50"><path
         d="m 371.445,594.006 h 193.19 V 337.701 h -193.19 z"
         id="path48"
         inkscape:connector-curvature="0" /></clipPath><clipPath
       clipPathUnits="userSpaceOnUse"
       id="clipPath66"><path
         d="m 560.946,531.175 h 65.326 V 394.652 h -65.326 z"
         id="path64"
         inkscape:connector-curvature="0" /></clipPath><clipPath
       clipPathUnits="userSpaceOnUse"
       id="clipPath82"><path
         d="M 371.439,594.006 H 564.628 V 337.701 H 371.439 Z"
         id="path80"
         inkscape:connector-curvature="0" /></clipPath><clipPath
       clipPathUnits="userSpaceOnUse"
       id="clipPath102"><path
         d="M 0,1000 H 1000 V 0 H 0 Z"
         id="path100"
         inkscape:connector-curvature="0" /></clipPath><clipPath
       clipPathUnits="userSpaceOnUse"
       id="clipPath146"><path
         d="M 0,1000 H 1000 V 0 H 0 Z"
         id="path144"
         inkscape:connector-curvature="0" /></clipPath></defs><sodipodi:namedview
     pagecolor="#ffffff"
     bordercolor="#666666"
     borderopacity="1"
     objecttolerance="10"
     gridtolerance="10"
     guidetolerance="10"
     inkscape:pageopacity="0"
     inkscape:pageshadow="2"
     inkscape:window-width="1920"
     inkscape:window-height="1029"
     id="namedview4"
     showgrid="false"
     inkscape:zoom="0.58423832"
     inkscape:cx="199.48009"
     inkscape:cy="383.89444"
     inkscape:window-x="0"
     inkscape:window-y="24"
     inkscape:window-maximized="1"
     inkscape:current-layer="g10" /><g
     id="g10"
     inkscape:groupmode="layer"
     inkscape:label="cup'"
     transform="matrix(1.3333333,0,0,-1.3333333,-329.34466,959.513)"><g
       id="g1028"
       transform="translate(29.525623)"><g
         id="g12"><g
           clip-path="url(#clipPath18)"
           id="g14"><g
             transform="translate(548.7578,591.8765)"
             id="g20"><path
               inkscape:connector-curvature="0"
               id="path22"
               style="fill:#eaeaea;fill-opacity:1;fill-rule:nonzero;stroke:none"
               d="m 0,0 h -161.854 c 0,0 -15.75,-4.493 -12.673,-118.338 3.077,-113.846 12.673,-134.049 12.673,-134.049 l 170.404,4.818 5.18,234.231 C 13.73,-13.338 8.373,1.415 0,0" /></g><g
             transform="translate(550.5264,542.7695)"
             id="g24"><path
               inkscape:connector-curvature="0"
               id="path26"
               style="fill:#ffb868;fill-opacity:1;fill-rule:nonzero;stroke:none"
               d="m 0,0 h -166.128 l 1.47,-172.008 c 0,0 -7.35,-24.992 23.523,-23.522 30.873,1.469 135.906,-3.135 135.906,-3.135 0,0 15.519,1.665 11.109,45.769 C 1.47,-108.792 0,0 0,0" /></g><g
             transform="translate(554.2305,584.8203)"
             id="g28"><path
               inkscape:connector-curvature="0"
               id="path30"
               style="fill:#ff4d4d;fill-opacity:1;fill-rule:nonzero;stroke:none"
               d="m 0,0 -169.231,-1.983 3.077,-27.76 164.615,3.965 z" /></g><g
             transform="translate(565,522.769)"
             id="g32"><path
               sodipodi:nodetypes="cccccccccsccc"
               inkscape:connector-curvature="0"
               id="path34"
               style="fill:#49937e;fill-opacity:1;fill-rule:nonzero;stroke:none"
               d="m 0,0 1.429125,-10.78383 26.439281,3.7221009 c 0,0 20.353813,-4.4148969 17.276813,-24.4148969 -3.076,-20 1.008781,-57.754374 1.008781,-57.754374 0,0 7.693,-29.23 -23.077,-24.615 -30.769,4.615 -23.077,0 -23.077,0 l 3.077,-12.308 52.308,6.154 c 0,0 12.797137,15.4687 10.769,40 l -5.446374,65.876542 c 0,0 -4.181926,16.567658 -18.027926,19.644658 -13.846,3.078 -45.185,-0.52 -45.185,-0.52" /></g></g></g><g
         id="g36"><g
           clip-path="url(#clipPath42)"
           id="g38"><g
             id="g44"><g
               id="g46" /><g
               id="g58"><g
                 style="opacity:0.89999402"
                 id="g56"
                 clip-path="url(#clipPath50)"><g
                   id="g54"
                   transform="translate(562.2949,352.8262)"><path
                     inkscape:connector-curvature="0"
                     id="path52"
                     style="fill:#262626;fill-opacity:1;fill-rule:nonzero;stroke:none"
                     d="m 0,0 c 0,0 -0.01,3.36 -0.03,9.66 -0.019,6.3 -0.032,15.54 -0.148,27.3 -0.057,11.761 -0.326,26.041 -0.526,42.421 -0.233,16.38 -0.495,34.86 -0.78,55.02 -0.257,20.161 -0.337,42 -0.401,65.101 -0.017,5.775 -0.036,11.629 -0.054,17.555 -0.005,2.947 -0.01,5.912 -0.015,8.895 -0.031,2.514 -1.018,4.977 -2.667,6.923 -1.67,1.94 -4.023,3.285 -6.563,3.814 l -0.878,0.135 c -0.277,0.056 -0.737,0.048 -1.096,0.075 l -0.288,0.015 c -0.19,0.006 -0.065,0.008 -0.183,0.006 h -0.577 l -1.153,0.001 c -1.54,0.001 -3.083,0.001 -4.631,0.002 -6.189,0.018 -12.436,0.037 -18.736,0.056 -25.2,0.1 -51.24,0.204 -77.701,0.31 -13.23,0.087 -26.565,0.175 -39.952,0.264 -3.348,0.033 -6.698,0.066 -10.05,0.099 l -5.031,0.051 -2.517,0.025 -1.258,0.012 c -0.409,-0.001 -0.769,-0.027 -1.157,-0.037 -3.042,-0.198 -6.008,-1.527 -8.156,-3.718 -1.075,-1.089 -1.946,-2.382 -2.541,-3.793 -0.3,-0.702 -0.521,-1.45 -0.684,-2.183 -0.055,-0.367 -0.133,-0.706 -0.18,-1.096 l -0.077,-1.258 c -0.116,-13.421 -0.232,-26.842 -0.347,-40.211 -0.043,-13.387 -0.086,-26.722 -0.128,-39.952 -0.039,-26.461 0.148,-52.501 0.458,-77.701 0.133,-12.601 0.265,-24.99 0.394,-37.118 0.061,-6.064 0.122,-12.062 0.182,-17.987 0.017,-2.963 0.034,-5.909 0.051,-8.834 l 0.012,-2.192 0.007,-1.093 0.003,-0.546 0.028,-0.475 c 0.041,-1.262 0.313,-2.504 0.792,-3.658 0.468,-1.157 1.118,-2.236 1.916,-3.192 0.815,-0.943 1.771,-1.758 2.82,-2.416 1.044,-0.674 2.211,-1.133 3.402,-1.437 0.611,-0.181 1.164,-0.226 1.728,-0.326 l 1.052,-0.052 0.263,-0.013 c 0.106,-0.006 0.009,0 0.175,-0.002 l 0.527,0.001 c 5.611,-0.004 11.136,-0.008 16.57,-0.012 10.868,-0.033 21.368,-0.078 31.448,-0.188 20.16,-0.265 38.64,-0.507 55.02,-0.722 16.381,-0.196 30.661,-0.464 42.421,-0.515 5.88,-0.039 11.13,-0.074 15.697,-0.104 4.538,0.018 8.113,2.153 10.147,4.443 2.089,2.314 2.857,4.681 3.148,6.231 0.063,0.393 0.118,0.737 0.166,1.034 0.017,0.307 0.033,0.564 0.045,0.77 C -0.011,-0.199 0,0.011 0,0.011 Z m 0.4,-0.011 c 0,0 -0.01,-0.209 -0.031,-0.622 C 0.357,-0.84 0.344,-1.097 0.327,-1.404 0.279,-1.716 0.224,-2.077 0.16,-2.489 c -0.295,-1.609 -1.076,-4.053 -3.223,-6.456 -1.068,-1.189 -2.483,-2.335 -4.255,-3.196 -1.767,-0.859 -3.894,-1.422 -6.221,-1.443 -4.567,-0.03 -9.817,-0.064 -15.697,-0.104 -11.76,-0.051 -26.04,-0.319 -42.421,-0.515 -16.38,-0.215 -34.86,-0.457 -55.02,-0.722 -10.08,-0.11 -20.58,-0.155 -31.448,-0.188 -5.434,-0.004 -10.959,-0.008 -16.57,-0.012 l -0.527,10e-4 -0.351,0.007 -0.263,0.013 -1.055,0.054 c -0.827,0.113 -1.682,0.217 -2.43,0.437 -1.539,0.397 -3.045,1.004 -4.398,1.874 -1.359,0.855 -2.597,1.915 -3.652,3.148 -1.045,1.244 -1.874,2.673 -2.471,4.195 -0.606,1.522 -0.944,3.161 -0.982,4.804 l -0.026,0.613 0.003,0.546 0.007,1.093 0.012,2.192 c 0.017,2.925 0.034,5.871 0.051,8.834 0.06,5.925 0.121,11.923 0.182,17.987 0.129,12.128 0.261,24.517 0.394,37.118 0.31,25.2 0.497,51.24 0.458,77.701 -0.042,13.23 -0.085,26.565 -0.128,39.952 -0.115,13.407 -0.231,26.867 -0.346,40.326 l 0.052,1.258 c 0.04,0.445 0.124,0.932 0.19,1.396 0.181,0.91 0.424,1.782 0.765,2.635 0.676,1.697 1.683,3.26 2.939,4.586 2.507,2.665 6.027,4.334 9.678,4.645 0.451,0.024 0.928,0.061 1.358,0.07 l 1.258,0.013 2.517,0.025 5.031,0.051 c 3.352,0.033 6.702,0.066 10.05,0.099 13.387,0.088 26.722,0.177 39.952,0.264 26.461,0.105 52.501,0.209 77.701,0.31 6.3,0.019 12.547,0.037 18.736,0.055 1.548,0.001 3.091,0.002 4.631,0.003 h 1.153 0.577 l 0.393,-0.012 0.287,-0.013 c 0.405,-0.03 0.719,-0.013 1.198,-0.081 l 1.397,-0.203 c 3.461,-0.708 6.671,-2.543 8.967,-5.207 2.282,-2.662 3.662,-6.122 3.711,-9.619 0.005,-3.013 0.011,-6.01 0.016,-8.988 C 2.321,211.131 2.303,205.277 2.285,199.502 2.222,176.401 2.142,154.562 1.885,134.401 1.6,114.241 1.337,95.761 1.104,79.381 0.904,63.001 0.636,48.721 0.578,36.96 0.463,25.2 0.449,15.96 0.431,9.66 0.41,3.36 0.4,0 0.4,0 Z" /></g></g></g></g><g
             id="g60"><g
               id="g62" /><g
               id="g74"><g
                 style="opacity:0.89999402"
                 id="g72"
                 clip-path="url(#clipPath66)"><g
                   id="g70"
                   transform="translate(595.4277,395.5352)"><path
                     inkscape:connector-curvature="0"
                     id="path68"
                     d="m 0,0 c 12.311734,-0.11296751 22.470732,9.9418182 25.69371,21.293359 3.189132,9.937354 1.253721,20.465147 1.362534,30.690284 C 26.56363,68.519294 26.770936,85.067923 26.449,101.604 c -0.697676,12.2362 -7.638369,25.43397 -19.947,29.229 -5.69388645,1.69494 -11.5361446,0.8373 -17.485049,1.13423 -7.316651,0.0893 -14.633301,0.17851 -21.949951,0.26777 1.927146,2.78557 1.531218,0.10931 1.458072,-1.80805 -0.09502,-5.02698 -0.190048,-10.05397 -0.285072,-15.08095 -2.699459,1.90475 1.410678,0.91865 2.761425,1.10397 9.938048,-0.19986 19.8822982,-0.30955 29.816575,-0.51497 6.950038,-1.68129 9.733073,-9.64082 10.058922,-16.073955 C 10.989946,77.571578 11.843699,55.288613 11.95183,33.001398 11.581395,26.234067 8.2543315,17.94799 0.881,16.505 c -11.269254,-0.132523 -22.545867,0.261403 -33.814,0.552 1.904427,2.685434 0.874619,-1.44968 1.052898,-2.776627 C -32.009068,9.453582 -32.138034,4.626791 -32.267,-0.2 c -1.575951,1.4141098 2.862921,0.24388107 3.872859,0.54693351 C -18.931689,0.09662714 -9.4654438,0.01819503 0,0 Z m 0,-0.4 c -11.194947,-0.00794 -22.389814,-0.15171662 -33.58,-0.483 -0.18158,6.7406236 -0.35973,13.481341 -0.54,20.222 11.563587,0.365464 23.136099,0.547165 34.7,0.71 6.3415346,2.237335 8.0535051,9.924642 8.0076416,15.951273 C 8.8247333,57.686259 9.783694,79.371884 9.5541868,101.05645 9.0326115,106.55358 6.4242733,113.52578 0.34122114,114.65453 -11.133361,114.63604 -22.608507,114.32313 -34.083,114.153 c -0.131471,7.03502 -0.266264,14.06998 -0.398,21.105 12.117463,0.0636 24.240733,0.47648 36.3550469,0.28809 13.5048941,-0.69563 24.2108281,-12.2808 27.3566431,-24.89074 2.618541,-9.7031 1.275633,-19.810836 1.528602,-29.723376 C 30.567651,64.108215 30.540467,47.256779 29.525455,30.462601 28.056264,17.237441 19.611441,3.8026315 6.163125,0.34675 4.1508954,-0.15876878 2.0751398,-0.41555628 0,-0.4 Z"
                     style="fill:#262626;fill-opacity:1;fill-rule:nonzero;stroke:none" /></g></g></g></g><g
             id="g76"><g
               id="g78" /><g
               id="g90"><g
                 style="opacity:0.30000299"
                 id="g88"
                 clip-path="url(#clipPath82)"><g
                   id="g86"
                   transform="translate(562.2881,352.8262)"><path
                     inkscape:connector-curvature="0"
                     id="path84"
                     d="m 0,0 c -0.16878736,75.321193 -2.2538077,150.62603 -1.954,225.951 -0.1681609,10.6013 -12.292307,12.07259 -20.358586,10.97879 -51.35948,0.15719 -102.721904,0.36875 -154.078414,0.77321 -17.08755,-2.48555 -10.44244,-22.93149 -11.8339,-34.6865 -0.78709,-67.82459 0.2107,-135.649839 0.8559,-203.4695 0.61,-11.84958 14.39907,-11.952865 23.09306,-11.1035 50.80112,0.06226 101.598804,-1.460708 152.393378,-1.431389 C -5.3934999,-12.349581 0.08527179,-6.5387572 0,0 Z M 0.399,-0.011 C 0.5081841,-12.213703 -13.234234,-15.161076 -22.88926,-13.645426 -74.223744,-13.971517 -125.55559,-15.38095 -176.891,-15.05 c -12.00669,0.685995 -15.21956,13.4303301 -13.9105,23.30475 0.89613,72.920742 1.45218,145.85105 0.6375,218.77325 0.57504,9.61428 10.67336,14.58325 19.34688,13.37651 53.22861,0.34775 106.488556,0.91854 159.702356,0.57712 C -1.9210284,239.94944 3.8897056,230.31914 2.332,221.537 2.6328881,147.67859 0.53500338,73.84349 0.399,-0.011 Z"
                     style="fill:#262626;fill-opacity:1;fill-rule:nonzero;stroke:none" /></g></g></g></g><g
             transform="translate(375,552.1499)"
             id="g92"><path
               inkscape:connector-curvature="0"
               id="path94"
               style="fill:#262626;fill-opacity:1;fill-rule:nonzero;stroke:none"
               d="m 0,0 c 0,0 0.723,0.052 2.078,0.15 1.355,0.077 3.342,0.188 5.871,0.329 2.53,0.136 5.601,0.265 9.124,0.37 3.523,0.123 7.497,0.196 11.833,0.276 4.336,0.04 9.033,0.107 14.002,0.04 4.968,-0.059 10.207,-0.326 15.627,-0.507 5.42,-0.236 11.021,-0.366 16.712,-0.351 2.845,0.005 5.713,0.045 8.592,0.102 2.88,0.088 5.77,0.175 8.661,0.262 2.891,0.101 5.781,0.202 8.661,0.302 2.879,0.067 5.747,0.133 8.592,0.198 5.691,0.079 11.292,0.158 16.712,0.233 2.71,0.049 5.375,0.044 7.983,0.048 2.609,0.015 5.16,-0.004 7.644,-0.038 4.969,-0.037 9.666,-0.136 14.002,-0.226 4.336,-0.114 8.31,-0.215 11.834,-0.367 3.522,-0.145 6.593,-0.232 9.123,-0.373 2.529,-0.135 4.516,-0.24 5.871,-0.313 C 184.277,0.047 185,0 185,0 v -0.3 c 0,0 -0.723,-0.047 -2.078,-0.135 -1.355,-0.072 -3.342,-0.178 -5.871,-0.313 -2.53,-0.141 -5.601,-0.228 -9.123,-0.373 -3.524,-0.151 -7.498,-0.253 -11.834,-0.367 -4.336,-0.09 -9.033,-0.189 -14.002,-0.226 -2.484,-0.034 -5.035,-0.053 -7.644,-0.037 -2.608,0.003 -5.273,-0.001 -7.983,0.047 -5.42,0.076 -11.021,0.154 -16.712,0.233 -2.845,0.065 -5.713,0.132 -8.592,0.198 -2.88,0.1 -5.77,0.201 -8.661,0.302 -2.891,0.087 -5.781,0.175 -8.661,0.262 -2.879,0.057 -5.747,0.097 -8.592,0.102 -5.691,0.016 -11.292,-0.115 -16.712,-0.351 -5.42,-0.181 -10.659,-0.448 -15.627,-0.507 -4.969,-0.067 -9.666,0 -14.002,0.041 -4.336,0.079 -8.31,0.152 -11.833,0.275 -3.523,0.105 -6.594,0.234 -9.124,0.37 C 5.42,-0.638 3.433,-0.526 2.078,-0.45 0.723,-0.352 0,-0.3 0,-0.3 Z" /></g></g></g><g
         id="g96"><g
           clip-path="url(#clipPath102)"
           id="g98"><g
             transform="translate(569.0869,577.9053)"
             id="g104"><path
               inkscape:connector-curvature="0"
               id="path106"
               style="fill:#ffd19c;fill-opacity:1;fill-rule:nonzero;stroke:none"
               d="m 0,0 c 0,-11.598 -9.401,-20.999 -20.999,-20.999 h -154.492 c -11.598,0 -20.999,9.401 -20.999,20.999 0,11.598 9.401,20.999 20.999,20.999 H -20.999 C -9.401,20.999 0,11.598 0,0" /></g><g
             transform="translate(561.5869,593.4053)"
             id="g108"><path
               inkscape:connector-curvature="0"
               id="path110"
               style="fill:#ffd19c;fill-opacity:1;fill-rule:nonzero;stroke:none"
               d="m 0,0 c 0,-12.426 -10.073,-22.499 -22.499,-22.499 -12.425,0 -22.498,10.073 -22.498,22.499 0,12.426 10.073,22.499 22.498,22.499 C -10.073,22.499 0,12.426 0,0" /></g><g
             transform="translate(525.5889,607.9038)"
             id="g112"><path
               inkscape:connector-curvature="0"
               id="path114"
               style="fill:#ffd19c;fill-opacity:1;fill-rule:nonzero;stroke:none"
               d="m 0,0 c 0,-12.426 -10.073,-22.499 -22.499,-22.499 -12.426,0 -22.499,10.073 -22.499,22.499 0,12.426 10.073,22.499 22.499,22.499 C -10.073,22.499 0,12.426 0,0" /></g><g
             transform="translate(492.5908,599.6543)"
             id="g116"><path
               inkscape:connector-curvature="0"
               id="path118"
               style="fill:#ffd19c;fill-opacity:1;fill-rule:nonzero;stroke:none"
               d="m 0,0 c 0,-11.183 -9.066,-20.249 -20.249,-20.249 -11.183,0 -20.249,9.066 -20.249,20.249 0,11.183 9.066,20.249 20.249,20.249 C -9.066,20.249 0,11.183 0,0" /></g><g
             transform="translate(459.5923,601.9043)"
             id="g120"><path
               inkscape:connector-curvature="0"
               id="path122"
               style="fill:#ffd19c;fill-opacity:1;fill-rule:nonzero;stroke:none"
               d="m 0,0 c 0,-8.284 -6.715,-15 -15,-15 -8.283,0 -14.999,6.716 -14.999,15 0,8.284 6.716,14.999 14.999,14.999 C -6.715,14.999 0,8.284 0,0" /></g><g
             transform="translate(432.5937,606.4038)"
             id="g124"><path
               inkscape:connector-curvature="0"
               id="path126"
               style="fill:#ffd19c;fill-opacity:1;fill-rule:nonzero;stroke:none"
               d="m 0,0 c 0,-10.769 -8.73,-19.499 -19.499,-19.499 -10.769,0 -19.499,8.73 -19.499,19.499 0,10.769 8.73,19.499 19.499,19.499 C -8.73,19.499 0,10.769 0,0" /></g><g
             transform="translate(401.0952,600.4043)"
             id="g128"><path
               inkscape:connector-curvature="0"
               id="path130"
               style="fill:#ffd19c;fill-opacity:1;fill-rule:nonzero;stroke:none"
               d="m 0,0 c 0,-7.456 -6.044,-13.5 -13.5,-13.5 -7.455,0 -13.499,6.044 -13.499,13.5 0,7.455 6.044,13.499 13.499,13.499 C -6.044,13.499 0,7.455 0,0" /></g><g
             transform="translate(461.0923,508.1582)"
             id="g132"><path
               inkscape:connector-curvature="0"
               id="path134"
               style="fill:#ffd19c;fill-opacity:1;fill-rule:nonzero;stroke:none"
               d="m 0,0 c 0,-8.698 -7.051,-15.749 -15.75,-15.749 -8.697,0 -15.749,7.051 -15.749,15.749 v 41.998 c 0,8.698 7.052,15.75 15.749,15.75 8.699,0 15.75,-7.052 15.75,-15.75 z" /></g><g
             transform="translate(416.0947,465.4121)"
             id="g136"><path
               inkscape:connector-curvature="0"
               id="path138"
               style="fill:#ffd19c;fill-opacity:1;fill-rule:nonzero;stroke:none"
               d="m 0,0 c 0,-7.456 -6.044,-13.5 -13.5,-13.5 -7.455,0 -13.499,6.044 -13.499,13.5 v 103.494 c 0,7.455 6.044,13.499 13.499,13.499 7.456,0 13.5,-6.044 13.5,-13.499 z" /></g></g></g><g
         id="g140"><g
           clip-path="url(#clipPath146)"
           id="g142"><g
             transform="translate(569.0088,598.3247)"
             id="g148"><path
               inkscape:connector-curvature="0"
               id="path150"
               d="m 0,0 c 12.107293,-9.3282867 10.283245,-30.254443 -3.2760039,-37.325717 -8.7704221,-4.991333 -19.1222611,-2.425597 -28.6901581,-3.092523 -26.13528,-0.05392 -52.270559,-0.10784 -78.405838,-0.16176 1.64586,0.01973 2.17949,-5.43136 2.12057,-7.907862 -0.11952,-15.835742 0.38608,-31.71121 -0.26552,-47.518826 -1.7557,-13.040322 -19.55301,-19.125652 -28.91092,-9.866682 -8.21445,7.056486 -5.27543,18.408121 -5.8197,27.853677 0.22089,11.249179 -0.42776,22.557923 0.33147,33.771566 2.50104,5.174654 1.20531,3.478196 -3.95126,3.650543 -3.50154,8.61e-4 -7.00309,0.0017 -10.50464,0.0026 1.10148,-0.808386 0.12002,-6.645163 0.44695,-9.323399 -0.15322,-30.462874 0.17772,-60.946587 -0.32126,-91.396457 -1.29449,-13.60297 -21.75681,-17.27005 -27.70369,-4.97014 -3.26813,7.82442 -1.31632,16.57268 -1.83354,24.8584 0.0414,27.272855 0.0799,54.545762 0.002,81.818596 -6.85019,0.964333 -14.3734,7.380783 -16.655,14.796 -2.77607,7.209358 -0.61923,17.3173323 4.145,21.811 -7.70572,7.9506477 -2.75533,23.1849 8.481,24.605 3.47461,0.641163 7.13926,-0.05206 10.192,-1.813 -0.11864,4.577398 6.9103,12.223368 12.80705,13.833656 11.73549,4.578458 26.07667,-3.489988 28.29095,-15.881656 -0.0639,4.244482 10.37462,8.872015 15.879,7.143 7.48111,-0.739312 8.48757,-9.707527 13.396,-1.258 6.9504,5.590259 17.284937,6.2167 24.939,1.664 2.282703,7.942343 13.663658,15.402177 23.418,14.292 11.347569,-0.412985 21.422745,-9.733301 22.911,-20.956 2.846873,3.460914 10.590562,5.672686 15.940597,5.17095 C -10.625774,23.345572 -0.10322312,12.382904 0,0 Z m -0.097,-0.048 c 0.02224734,14.894088 -15.777557,26.864137 -30.1,22.765 -5.482262,-0.847899 -10.780981,-8.583474 -10.8315,1.413625 -5.528707,15.145954 -27.174584,19.95929 -38.549375,8.48825 -4.083659,-6.360869 -6.135464,-9.940998 -13.488125,-5.302875 -8.00989,1.406079 -16.45866,-2.272022 -21.117,-8.884 -6.46277,8.593864 -20.69212,7.36 -25.988,-1.786 -1.79065,13.193803 -17.62874,21.589714 -29.462,15.361 -7.67745,-0.02817 -7.70542,-14.873239 -13.58182,-11.798009 C -192.97113,24.36692 -204.88787,14.647496 -202.198,4.1 c -0.56307,-3.20238384 4.80868,-5.806123 2.46863,-8.231875 -9.4802,-11.738189 -2.82544,-31.307252 11.80962,-34.897375 3.46675,-0.998478 0.64887,-6.816946 1.54647,-9.785705 -0.003,-30.634969 -0.14581,-61.284195 0.18092,-91.909155 0.69658,-13.14197 20.35352,-17.39011 26.45336,-5.73589 3.55302,7.4248 1.4821,15.9521 2.01991,23.92895 -0.0617,27.617646 -0.0769,55.235365 -0.11191,82.85305 5.794,0.0013 11.588,0.0038 17.382,0.005 -3.39685,-7.59776 -1.26358,-16.137984 -1.85499,-24.173049 0.19322,-10.658147 -0.37504,-21.362465 0.29252,-31.99231 1.66254,-12.313301 18.47039,-18.057151 27.30622,-9.312511 8.04931,7.031875 4.86183,18.337275 5.49964,27.706612 -0.21107,11.01706 0.43873,22.091255 -0.27164,33.074416 -2.26989,4.391855 -1.09683,5.5236 3.70872,4.667345 31.146948,0.01393 62.301031,-0.284853 93.44353,-0.0755 14.5851809,0.985309 24.683002,17.975639 18.4731738,31.254541 C 4.7711535,-5.2593558 2.6088961,-2.333364 -0.097,-0.048 Z"
               style="fill:#303030;fill-opacity:1;fill-rule:nonzero;stroke:none" /></g></g></g></g></g></svg>