<?xml version="1.0" encoding="UTF-8" standalone="no"?>
<!-- Created with Inkscape (http://www.inkscape.org/) -->

<svg
   xmlns:dc="http://purl.org/dc/elements/1.1/"
   xmlns:cc="http://creativecommons.org/ns#"
   xmlns:rdf="http://www.w3.org/1999/02/22-rdf-syntax-ns#"
   xmlns:svg="http://www.w3.org/2000/svg"
   xmlns="http://www.w3.org/2000/svg"
   xmlns:sodipodi="http://sodipodi.sourceforge.net/DTD/sodipodi-0.dtd"
   xmlns:inkscape="http://www.inkscape.org/namespaces/inkscape"
   id="svg2"
   version="1.1"
   inkscape:version="0.92.2 5c3e80d, 2017-08-06"
   xml:space="preserve"
   width="662.5733"
   height="434.56027"
   viewBox="0 0 662.5733 434.56027"
   sodipodi:docname="bench.svg"><metadata
     id="metadata8"><rdf:RDF><cc:Work
         rdf:about=""><dc:format>image/svg+xml</dc:format><dc:type
           rdf:resource="http://purl.org/dc/dcmitype/StillImage" /><dc:title /></cc:Work></rdf:RDF></metadata><defs
     id="defs6"><clipPath
       clipPathUnits="userSpaceOnUse"
       id="clipPath22"><path
         d="M 0,600 1000,600 1000,0 0,0 0,600 Z"
         id="path24"
         inkscape:connector-curvature="0" /></clipPath><clipPath
       clipPathUnits="userSpaceOnUse"
       id="clipPath46"><path
         d="M 0,600 1000,600 1000,0 0,0 0,600 Z"
         id="path48"
         inkscape:connector-curvature="0" /></clipPath><clipPath
       clipPathUnits="userSpaceOnUse"
       id="clipPath150"><path
         d="M 0,600 1000,600 1000,0 0,0 0,600 Z"
         id="path152"
         inkscape:connector-curvature="0" /></clipPath><clipPath
       clipPathUnits="userSpaceOnUse"
       id="clipPath238"><path
         d="M 0,600 1000,600 1000,0 0,0 0,600 Z"
         id="path240"
         inkscape:connector-curvature="0" /></clipPath></defs><sodipodi:namedview
     pagecolor="#ffffff"
     bordercolor="#666666"
     borderopacity="1"
     objecttolerance="10"
     gridtolerance="10"
     guidetolerance="10"
     inkscape:pageopacity="0"
     inkscape:pageshadow="2"
     inkscape:window-width="1920"
     inkscape:window-height="1029"
     id="namedview4"
     showgrid="false"
     fit-margin-top="0"
     fit-margin-left="0"
     fit-margin-right="0"
     fit-margin-bottom="0"
     inkscape:zoom="1.6213437"
     inkscape:cx="192.60904"
     inkscape:cy="257.97039"
     inkscape:window-x="0"
     inkscape:window-y="24"
     inkscape:window-maximized="1"
     inkscape:current-layer="g10" /><g
     id="g10"
     inkscape:groupmode="layer"
     inkscape:label="bench"
     transform="matrix(1.25,0,0,-1.25,-293.71334,560.31761)"><g
       id="g18"
       transform="translate(6.4496,0)"><g
         id="g20"
         clip-path="url(#clipPath22)"><g
           id="g38"
           transform="translate(682.8359,201.6016)"><path
             d="m 0,0 c 0,-9.018 -84.746,-16.327 -189.287,-16.327 -104.538,0 -189.284,7.309 -189.284,16.327 0,9.017 84.746,13.326 189.284,13.326 C -84.746,13.326 0,9.017 0,0"
             style="fill:#ffd2c2;fill-opacity:1;fill-rule:nonzero;stroke:none"
             id="path40"
             inkscape:connector-curvature="0" /></g></g></g><g
       id="g42"
       transform="translate(4.9409314,0)"><g
         id="g44"
         clip-path="url(#clipPath46)"><g
           id="g50"
           transform="translate(634.6885,337.3198)"><path
             style="fill:#ff7846;fill-opacity:1;fill-rule:evenodd;stroke:none"
             d="M 0,0 C 9.4772117,6.1357651 0.87159216,18.826953 2.6049531,27.905877 3.4433068,32.315384 -4.008509,29.258556 -7.0603807,30.175851 -98.39992,30.358901 -189.73946,30.54195 -281.079,30.725 c -7.11282,-4.066944 -2.87812,-17.386732 -3.74295,-25.1416875 -0.0339,5.0435975 -0.56137,12.6010975 0.063,2.853407 -0.12351,-12.6988987 14.0894,-8.60186808 22.34734,-9.19571589 C -174.94074,-0.82682825 -87.469951,-0.35398968 0,0 Z"
             id="path52"
             inkscape:connector-curvature="0" /></g><g
           id="g54"
           transform="translate(630.7051,329.354)"><path
             style="fill:#ff7846;fill-opacity:1;fill-rule:evenodd;stroke:none"
             d="M 0,0 C 12.68186,0.11399809 8.3066051,-17.467857 8.447041,-25.835473 7.8662232,-36.777487 -8.3523717,-29.966722 -15.841164,-31.906221 -101.02954,-32.247326 -186.21775,-32.629111 -271.406,-33.001 c -11.83947,1.727023 -7.44098,16.140416 -8.2432,24.4375496 0.0664,12.2935623 16.52137,8.75120526 24.76948,9.45750899 C -169.9198,1.1447214 -84.958308,0.46260884 0,0 Z"
             id="path56"
             inkscape:connector-curvature="0" /></g><g
           id="g58"
           transform="translate(639.8096,268.4727)"><path
             d="m 0,0 c 0,0 4.385,1.705 2.477,7.965 0,0 -1.339,1.708 -8.167,1.708 l -281.079,0 c 0,0 -5.69,0.568 -5.69,-5.691 0,0 10e-4,-6.257 5.69,-5.689 C -281.079,-1.139 0,0 0,0"
             style="fill:#ff7846;fill-opacity:1;fill-rule:evenodd;stroke:none"
             id="path60"
             inkscape:connector-curvature="0" /></g><g
           id="g62"
           transform="translate(367.2651,199.0557)"><path
             d="m 0,0 c 0,0 -6.828,-7.396 -6.828,3.414 0,10.812 14.794,56.899 14.794,56.899 l -9.673,0.569 c 0,0 -4.552,5.689 0.569,6.259 5.121,0.569 252.63,1.137 252.63,1.137 0,0 6.827,-1.136 6.827,-3.982 0,-2.846 -10.81,-3.414 -10.81,-3.414 L 262.872,2.846 c 0,0 -0.001,-6.828 -6.26,-4.553 L 246.94,28.45 9.104,26.174 l 1.707,8.535 234.991,0 -7.397,25.035 -221.335,0 c 0,0 -10.242,-29.588 -2.845,-29.018 l 2.276,-2.845 c 0,0 -10.242,1.138 -9.673,-3.984 C 7.397,18.776 0,0 0,0"
             style="fill:#a84f2e;fill-opacity:1;fill-rule:evenodd;stroke:none"
             id="path64"
             inkscape:connector-curvature="0" /></g><g
           id="g66"
           transform="translate(628.5713,280.4219)"><path
             d="m 0,0 -0.854,14.082 -9.387,1.28 L -11.095,-0.427 0,0 Z"
             style="fill:#a84f2e;fill-opacity:1;fill-rule:evenodd;stroke:none"
             id="path68"
             inkscape:connector-curvature="0" /></g><g
           id="g70"
           transform="translate(627.291,330.7764)"><path
             d="M 0,0 0,7.255 -9.814,7.682 -9.388,-1.28 0,0 Z"
             style="fill:#a84f2e;fill-opacity:1;fill-rule:evenodd;stroke:none"
             id="path72"
             inkscape:connector-curvature="0" /></g><g
           id="g74"
           transform="translate(372.1016,339.3115)"><path
             d="M 0,0 -10.668,0 -10.662,-9.354 0.854,-9.815 0,0 Z"
             style="fill:#a84f2e;fill-opacity:1;fill-rule:evenodd;stroke:none"
             id="path76"
             inkscape:connector-curvature="0" /></g><g
           id="g78"
           transform="translate(372.1016,279.9951)"><path
             d="m 0,0 0,17.069 -9.388,0 L -10.242,-1.28 0,0 Z"
             style="fill:#a84f2e;fill-opacity:1;fill-rule:evenodd;stroke:none"
             id="path80"
             inkscape:connector-curvature="0" /></g></g></g><g
       id="g146"
       transform="translate(5.1828583,0)"><g
         id="g148"
         clip-path="url(#clipPath150)"><g
           id="g154"
           transform="translate(372.4419,329.9971)"><path
             d="m 0,0 c -0.108,1.545 -0.182,3.091 -0.242,4.637 -0.035,1.559 -0.1,3.118 -0.108,4.677 L 0.04,8.925 c -1.841,-0.031 -3.681,10e-4 -5.521,0.031 -1.841,0.019 -3.681,0.075 -5.521,0.153 l 0.205,0.205 c -0.023,-0.779 -0.064,-1.559 -0.071,-2.338 -0.003,-0.78 -0.036,-1.559 -0.012,-2.339 0.008,-1.559 0.098,-3.118 0.158,-4.677 l -0.28,0.28 c 1.84,0.078 3.68,0.055 5.521,0.014 0.92,-0.004 1.84,-0.056 2.76,-0.089 C -1.814,0.134 -0.907,0.07 0,0 m 0.04,-0.078 c -0.92,-0.071 -1.841,-0.135 -2.761,-0.167 -0.92,-0.033 -1.84,-0.085 -2.76,-0.089 -1.841,-0.041 -3.681,-0.064 -5.521,0.014 l -0.291,0.012 0.01,0.268 c 0.06,1.559 0.15,3.118 0.158,4.677 0.024,0.78 -0.009,1.559 -0.012,2.339 -0.007,0.779 -0.048,1.559 -0.071,2.338 l -0.005,0.197 0.211,0.009 c 1.84,0.078 3.68,0.134 5.521,0.153 1.84,0.03 3.68,0.062 5.521,0.031 L 0.431,9.697 0.429,9.314 C 0.421,7.755 0.356,6.196 0.321,4.637 0.26,3.078 0.187,1.519 0.077,-0.04 L 0.075,-0.075 0.04,-0.078 Z"
             style="fill:#3b3a39;fill-opacity:1;fill-rule:nonzero;stroke:none"
             id="path156"
             inkscape:connector-curvature="0" /></g><g
           id="g158"
           transform="translate(628.0576,329.5708)"><path
             d="m 0,0 c -0.107,1.545 -0.182,3.091 -0.242,4.637 -0.034,1.559 -0.1,3.118 -0.108,4.677 l 0.39,-0.39 c -1.84,-0.031 -3.681,0.001 -5.52,0.031 -1.84,0.02 -3.681,0.076 -5.521,0.154 l 0.205,0.205 c -0.022,-0.78 -0.063,-1.559 -0.07,-2.338 -0.003,-0.78 -0.037,-1.559 -0.012,-2.339 0.008,-1.559 0.098,-3.118 0.157,-4.677 l -0.28,0.28 C -9.161,0.318 -7.32,0.295 -5.48,0.254 -4.561,0.25 -3.641,0.198 -2.72,0.165 -1.813,0.133 -0.906,0.07 0,0 M 0.04,-0.078 C -0.88,-0.149 -1.8,-0.213 -2.72,-0.245 -3.641,-0.278 -4.561,-0.33 -5.48,-0.334 -7.32,-0.375 -9.161,-0.398 -11.001,-0.32 l -0.29,0.012 0.01,0.268 c 0.059,1.559 0.149,3.118 0.157,4.677 0.025,0.78 -0.009,1.559 -0.012,2.339 -0.007,0.779 -0.048,1.558 -0.07,2.338 l -0.006,0.196 0.211,0.009 c 1.84,0.078 3.681,0.134 5.521,0.154 1.839,0.03 3.68,0.062 5.52,0.031 L 0.432,9.697 0.43,9.314 C 0.422,7.755 0.356,6.196 0.322,4.637 0.261,3.078 0.187,1.519 0.077,-0.04 L 0.075,-0.075 0.04,-0.078 Z"
             style="fill:#3b3a39;fill-opacity:1;fill-rule:nonzero;stroke:none"
             id="path160"
             inkscape:connector-curvature="0" /></g><g
           id="g162"
           transform="translate(628.0586,278.7881)"><path
             style="fill:#3b3a39;fill-opacity:1;fill-rule:nonzero;stroke:none"
             d="m 0,0 c -0.29135016,6.2295931 -0.37462201,12.467252 -0.351,18.703 0.16390549,-0.191401 0.6715844,-0.527339 0.044912,-0.386302 -3.5655973,0.0377 -7.1318633,0.06122 -10.695912,0.181302 0.432174,0.548972 0.08432,-0.720387 0.176437,-0.966063 -0.135335,-4.344399 -0.01645,-8.6896598 0.117354,-13.0322865 0.02861,-1.5126702 0.04971,-3.0256981 0.03421,-4.5386505 -0.820377,0.59767934 0.668264,0.21856051 1.0521562,0.31125 C -6.4133574,0.25166932 -3.2040968,0.17193201 0,0 Z m 0.039,-0.076 c -3.7845186,-0.21283259 -7.5754936,-0.25999216 -11.365,-0.296 -0.07496,5.2374964 0.31351,10.469615 0.189662,15.707479 -0.01604,1.188683 -0.04583,2.377121 -0.07566,3.565521 3.8772154,0.134226 7.7570382,0.153991 11.636,0.196 C 0.46131145,12.705311 0.37169552,6.3114338 0.075,-0.074 L 0.039,-0.076 Z"
             id="path164"
             inkscape:connector-curvature="0" /></g><g
           id="g166"
           transform="translate(372.043,278.7715)"><path
             d="m 0,0 c -0.144,3.11 -0.245,6.222 -0.29,9.332 -0.033,1.562 -0.057,3.124 -0.055,4.686 -0.001,1.561 -0.025,3.124 -0.006,4.685 l 0.39,-0.39 c -3.681,0.04 -7.362,0.061 -11.042,0.185 l 0.205,0.205 c -0.039,-1.561 -0.077,-3.124 -0.082,-4.685 -0.027,-1.562 0.016,-3.124 0.032,-4.686 l 0.136,-4.686 c 0.03,-1.561 0.052,-3.124 0.036,-4.685 l -0.327,0.328 c 1.84,-0.03 3.68,-0.02 5.521,-0.082 C -3.655,0.162 -1.828,0.104 0,0 m 0.039,-0.076 c -1.841,-0.106 -3.681,-0.164 -5.521,-0.209 -1.841,-0.062 -3.681,-0.052 -5.521,-0.082 l -0.325,-0.005 -0.003,0.333 c -0.016,1.561 0.006,3.124 0.036,4.685 l 0.136,4.686 c 0.016,1.562 0.059,3.124 0.032,4.686 -0.004,1.561 -0.042,3.124 -0.082,4.685 l -0.005,0.198 0.211,0.007 c 3.68,0.124 7.361,0.146 11.042,0.185 l 0.384,0.004 0.005,-0.394 C 0.447,17.142 0.423,15.579 0.422,14.018 0.424,12.456 0.4,10.894 0.367,9.332 0.322,6.208 0.221,3.085 0.076,-0.039 L 0.074,-0.074 0.039,-0.076 Z"
             style="fill:#3b3a39;fill-opacity:1;fill-rule:nonzero;stroke:none"
             id="path168"
             inkscape:connector-curvature="0" /></g><g
           id="g170"
           transform="translate(548.8301,336.9395)"><path
             d="M 0,0 C 0,0 0.137,0.213 0.326,0.264 0.373,0.271 0.424,0.285 0.477,0.266 0.529,0.248 0.582,0.178 0.638,0.129 0.747,-0.001 0.872,0.007 1.002,0.113 1.134,0.231 1.259,0.246 1.377,0.276 1.495,0.3 1.602,0.258 1.692,0.205 1.873,0.086 1.986,-0.109 1.986,-0.109 L 1.982,-0.184 c 0,0 -0.134,-0.181 -0.326,-0.279 C 1.56,-0.507 1.449,-0.537 1.335,-0.5 1.221,-0.457 1.098,-0.429 0.98,-0.297 0.862,-0.178 0.738,-0.155 0.615,-0.273 0.555,-0.316 0.495,-0.379 0.44,-0.391 0.387,-0.405 0.337,-0.385 0.291,-0.373 0.108,-0.302 -0.004,-0.075 -0.004,-0.075 L 0,0 Z"
             style="fill:#3b3a39;fill-opacity:1;fill-rule:nonzero;stroke:none"
             id="path172"
             inkscape:connector-curvature="0" /></g><g
           id="g174"
           transform="translate(550.8135,336.8296)"><path
             style="fill:#3b3a39;fill-opacity:1;fill-rule:nonzero;stroke:none"
             d="M 0,0 C 20.38364,-0.11626559 41.911829,0.29891832 62.206,-0.333 67.92251,1.1789489 74.19898,-1.1434853 80.086939,-0.49753473 89.174224,-2.7239017 88.315131,6.7588855 88.107105,12.752438 87.808058,18.890579 88.835349,25.234304 87.3335,31.19225 83.203318,34.52434 77.127762,32.435403 72.099581,33.000564 9.6044317,32.872352 -52.89231,33.374195 -115.39006,33.117722 c -26.69042,-0.04815 -53.38122,-0.03253 -80.07144,-0.0726 -7.84094,-0.785577 -3.52472,-10.976219 -4.6135,-16.144125 -0.64695,-7.8647789 -1.70819,-20.6867845 10.403,-17.326 26.67631,1.0982819 53.39657,0.33892833 80.09211,0.53859311 C -73.740597,0.14344288 -37.697837,-0.0702107 -1.986,0.035 c -49.473088,-0.68496882 -98.95904,-0.42042966 -148.4374,-0.63926066 -14.55007,0.089948 -29.10208,-0.0692229 -43.6356,-0.42973934 -12.01006,1.21803752 -4.86195,17.504838 -6.79173,25.787547 -2.0211,7.436068 4.7238,10.294902 11.05969,8.996641 C -98.551489,33.492019 -7.3081812,33.261834 83.927125,33.646 90.994535,32.706001 88.15173,24.09204 88.714945,19.11911 88.399337,13.06737 89.395343,6.786979 87.787,0.928 82.365105,-2.7423616 74.842544,-0.34065527 68.626119,-0.53264258 63.883569,-0.19379218 59.505123,-1.0514968 54.457518,-0.48338437 36.350118,-0.34737203 17.730313,-0.31247769 0,0 Z"
             id="path176"
             inkscape:connector-curvature="0" /></g><g
           id="g178"
           transform="translate(549.6836,296.8252)"><path
             d="M 0,0 C 0,0 0.137,0.214 0.326,0.264 0.373,0.271 0.424,0.285 0.477,0.266 0.529,0.248 0.582,0.179 0.638,0.13 0.747,-0.001 0.872,0.008 1.002,0.113 1.134,0.231 1.259,0.246 1.377,0.276 1.495,0.301 1.602,0.259 1.692,0.205 1.873,0.086 1.986,-0.109 1.986,-0.109 L 1.982,-0.184 c 0,0 -0.134,-0.181 -0.326,-0.28 C 1.56,-0.507 1.449,-0.537 1.335,-0.5 1.221,-0.457 1.098,-0.429 0.98,-0.297 0.862,-0.178 0.738,-0.155 0.615,-0.273 0.555,-0.315 0.495,-0.379 0.44,-0.391 0.387,-0.404 0.337,-0.385 0.291,-0.372 c -0.183,0.07 -0.295,0.298 -0.295,0.298 L 0,0 Z"
             style="fill:#3b3a39;fill-opacity:1;fill-rule:nonzero;stroke:none"
             id="path180"
             inkscape:connector-curvature="0" /></g><g
           id="g182"
           transform="translate(551.667,296.7158)"><path
             style="fill:#3b3a39;fill-opacity:1;fill-rule:nonzero;stroke:none"
             d="m 0,0 c 20.679786,-0.1223392 41.871713,0.298765 62.206,-0.333 5.715591,1.5138237 11.993153,-0.8103579 17.880953,-0.16420272 9.08676,-2.22621898 8.228318,7.25636242 8.020152,13.24964372 -0.299006,6.138194 0.728242,12.481647 -0.77373,18.439934 -4.130559,3.331885 -10.206329,1.243061 -15.234797,1.808189 -62.4951552,-0.12821 -124.991903,0.37363 -187.489658,0.117158 -26.69029,-0.04895 -53.38096,-0.03106 -80.07104,-0.0721 -7.84023,-0.786688 -3.52403,-10.976717 -4.61288,-16.144625 -0.6471,-7.8651602 -1.70785,-20.6855554 10.403,-17.326 26.87078,1.10065949 53.7856,0.33908938 80.67562,0.53859058 C -73.351246,0.14329867 -37.505375,-0.07226883 -1.986,0.035 c -49.47309,-0.68496882 -98.95904,-0.42042969 -148.4374,-0.63926066 -14.55007,0.0900177 -29.10215,-0.0693285 -43.6356,-0.42973934 -12.01007,1.21803797 -4.86193,17.50484 -6.79174,25.787549 -2.02114,7.436029 4.72358,10.296163 11.0597,8.997238 C -98.551781,33.491301 -7.3087698,33.262071 83.92625,33.646125 90.994345,32.708001 88.1519,24.092841 88.714945,19.120106 88.399289,13.068375 89.395417,6.7879272 87.787,0.929 82.365697,-2.7415598 74.842447,-0.34085573 68.626119,-0.53257422 63.732743,-0.23223234 59.15252,-1.032053 53.930517,-0.47955364 35.977794,-0.33930696 17.82876,-0.3257152 0,0 Z"
             id="path184"
             inkscape:connector-curvature="0" /></g><g
           id="g186"
           transform="translate(549.9854,267.2266)"><path
             d="m 0,0 c 0,0 0.13,0.219 0.321,0.275 0.048,0.01 0.1,0.026 0.155,0.008 C 0.529,0.267 0.586,0.199 0.645,0.152 0.761,0.025 0.888,0.039 1.017,0.149 1.146,0.272 1.272,0.291 1.392,0.325 1.512,0.354 1.621,0.315 1.716,0.266 1.903,0.153 2.027,-0.038 2.027,-0.038 L 2.025,-0.112 c 0,0 -0.129,-0.187 -0.322,-0.291 C 1.607,-0.451 1.496,-0.484 1.378,-0.451 1.26,-0.413 1.134,-0.39 1.009,-0.262 0.885,-0.146 0.758,-0.129 0.637,-0.251 0.576,-0.295 0.518,-0.361 0.463,-0.375 0.408,-0.391 0.357,-0.373 0.31,-0.361 0.121,-0.297 -0.002,-0.074 -0.002,-0.074 L 0,0 Z"
             style="fill:#3b3a39;fill-opacity:1;fill-rule:nonzero;stroke:none"
             id="path188"
             inkscape:connector-curvature="0" /></g><g
           id="g190"
           transform="translate(552.0107,267.1885)"><path
             style="fill:#3b3a39;fill-opacity:1;fill-rule:nonzero;stroke:none"
             d="m 0,0 c 28.726565,0.10540635 57.363685,0.15971504 85.991,0.061 8.153075,0.56367212 4.008172,15.965813 -5.030513,10.910337 -87.077888,0.0814 -174.156164,0.252559 -261.234327,-0.01127 -7.83293,-0.218635 -15.77899,0.536869 -23.51129,-0.60532 -3.48363,-7.8532976 2.96331,-12.9778431 11.291,-10.276125 63.47532,0.41401106 127.106732,0.0516073 190.46713,-0.114625 -66.314901,-0.43078937 -132.64019,-0.40804636 -198.951,-0.462 -7.79022,1.27537202 -4.74806,17.219558 4.95884,12.147615 93.62463,-0.258393 187.2493443,-0.273437 280.874035,-0.05074 C 95.048198,13.391525 91.575623,-5.9678187 81.772,-0.546 54.629889,-0.14468687 27.142823,-0.42920361 0,0 Z"
             id="path192"
             inkscape:connector-curvature="0" /></g><g
           id="g194"
           transform="translate(629.623,203.1885)"><path
             style="fill:#3b3a39;fill-opacity:1;fill-rule:nonzero;stroke:none"
             d="m 0,0 c 1.7533385,-13.514534 -14.141409,-3.3297739 -11.458475,5.4787279 -3.50847,6.7607741 -1.292998,20.7126141 -12.095078,16.0662691 -76.480647,0.03099 -153.002617,-0.421767 -229.472227,0.01117 -3.40339,-6.800912 -4.25302,-15.2216316 -6.84874,-22.6218203 -1.59067,-10.6498667 -13.74831,-5.1353662 -9.58839,3.8188156 5.55069,17.6751437 9.97683,35.7718597 15.06891,53.6188407 -5.41297,-2.254716 -19.2963,1.465224 -9.59564,7.230502 85.79981,-0.195128 171.848341,0.366969 257.74364,0.0015 9.7690783,-5.331283 -5.437732,-8.982044 -9.544037,-8.085394 C -10.746895,36.992863 -5.2286828,18.508191 0,0 Z m -0.072,-0.021 c -5.4724195,18.831072 -10.946813,37.66157 -16.418,56.493 4.476808,-0.930579 18.5059563,-0.02773 11.06043,6.305553 -13.370144,1.095919 -26.981925,0.0125 -40.447854,0.349344 -72.629916,-0.108787 -145.259656,0.25553 -217.889576,0.129475 -9.32203,-5.514804 5.25059,-7.550883 9.31475,-7.389684 -1.72994,-9.741528 -5.26784,-19.478541 -7.64426,-29.22922 -2.00364,-10.398576 -7.4256,-20.7729867 -6.81193,-31.2803371 7.83747,-6.2945979 10.1274,9.1464873 11.40657,14.6052918 1.80149,6.9268303 2.16285,15.7372963 11.80118,12.2107833 75.58428,-0.07524 151.170665,-0.03894 226.75569,-0.282209 6.964902,-0.814081 5.515361,-15.414542 9.1414945,-21.67371928 C -9.0004904,-8.4093553 1.8333858,-11.268219 -0.072,-0.021 Z"
             id="path196"
             inkscape:connector-curvature="0" /></g><g
           id="g198"
           transform="translate(610.6553,233.5176)"><path
             style="fill:#3b3a39;fill-opacity:1;fill-rule:nonzero;stroke:none"
             d="M 0,0 C 0.51091758,1.3428532 -1.4491097,5.2668242 -1.84312,7.5736859 -3.4330946,13.644256 -5.9210768,20.136488 -6.776,25.875 c -72.968556,-0.336312 -145.93809,-0.291097 -218.907,-0.104 0.29581,-1.489787 -1.20251,-5.002313 -1.66543,-7.270713 -1.70555,-6.193938 -3.4123,-12.3875482 -5.11857,-18.581287 1.90308,0.49220121 5.6742,0.05870482 8.29287,0.19629921 C -159.91045,0.06794683 -95.646773,0.4757912 -31.383297,0.08957868 -20.922198,0.05971912 -10.461099,0.02985956 0,0 Z m 0,-0.074 c -65.672698,-0.26690694 -131.34543,-0.34714364 -197.01831,-0.09137609 -11.94356,0.0310036 -23.88713,-0.0297759 -35.83069,-0.0396239 2.38157,8.74787589 4.86317,17.92433199 7.166,26.42099999 73.00458,0.18579 146.009777,0.23095 219.014,-0.105 1.7794146,-8.838326 4.9325669,-17.5985052 7.095,-26.22999999 L 0,-0.074 Z"
             id="path200"
             inkscape:connector-curvature="0" /></g></g></g><g
       id="g234"
       transform="translate(9.81929,0)"><g
         id="g236"
         clip-path="url(#clipPath238)"><g
           id="g242"
           transform="translate(552.1201,317.8999)"><path
             d="m 0,0 c 0,0 0.881,12.101 11.547,16.434 0,0 4.884,-4.712 10.108,0.31 C 26.88,21.767 36.108,4.636 35.994,0.035 L 0,0 Z"
             style="fill:#ffffff;fill-opacity:1;fill-rule:evenodd;stroke:none"
             id="path244"
             inkscape:connector-curvature="0" /></g><g
           id="g246"
           transform="translate(586.8105,313.0269)"><path
             d="m 0,0 -33.315,0.262 4.836,-29.189 c 0,0 0,-4.471 10.208,-5.26 10.209,-0.789 13.166,2.894 14.509,8.679 L 0,0 Z"
             style="fill:#fff69c;fill-opacity:1;fill-rule:evenodd;stroke:none"
             id="path248"
             inkscape:connector-curvature="0" /></g><g
           id="g250"
           transform="translate(573.3623,290.7832)"><path
             d="m 0,0 c 0,0 0.664,-2.883 -0.998,-3.991 -1.661,-1.108 -6.205,-1.108 -5.651,3.768 L 0,0 Z"
             style="fill:#ffffff;fill-opacity:1;fill-rule:evenodd;stroke:none"
             id="path252"
             inkscape:connector-curvature="0" /></g><g
           id="g254"
           transform="translate(568.375,287.0137)"><path
             d="M 0,0 C 0,0 1.33,2.106 2.328,2.217 3.324,2.327 4.766,0.997 4.766,0.997 4.766,0.997 3.324,-2.55 0,0"
             style="fill:#ff8989;fill-opacity:1;fill-rule:evenodd;stroke:none"
             id="path256"
             inkscape:connector-curvature="0" /></g><g
           id="g258"
           transform="translate(585.0195,314.1914)"><path
             d="m 0,0 c 0,0 9.207,-1.023 4.093,3.836 l -38.619,0 c 0,0 -1.534,-3.324 3.325,-3.58 C -26.342,0 0,0 0,0"
             style="fill:#e6e6e8;fill-opacity:1;fill-rule:evenodd;stroke:none"
             id="path260"
             inkscape:connector-curvature="0" /></g><g
           id="g262"
           transform="translate(571.4648,336.186)"><path
             d="M 0,0 -1.278,10.486 -4.347,10.23 -3.324,-0.256 C -3.324,-0.256 0,-2.557 0,0"
             style="fill:#fff69c;fill-opacity:1;fill-rule:evenodd;stroke:none"
             id="path264"
             inkscape:connector-curvature="0" /></g><g
           id="g266"
           transform="translate(568.9072,346.6719)"><path
             d="M 0,0 C 0,0 1.023,1.278 -1.278,0.768 -3.58,0.255 -1.789,-1.023 0,0"
             style="fill:#8edd90;fill-opacity:1;fill-rule:evenodd;stroke:none"
             id="path268"
             inkscape:connector-curvature="0" /></g><g
           id="g270"
           transform="translate(576.8535,287.5684)"><path
             d="M 0,0 C 0,0 -0.666,2.326 1.995,3.657 4.654,4.986 4.986,-3.657 0,0"
             style="fill:#ff4d4d;fill-opacity:1;fill-rule:evenodd;stroke:none"
             id="path272"
             inkscape:connector-curvature="0" /></g><g
           id="g274"
           transform="translate(559.8418,287.2363)"><path
             d="M 0,0 C 0,0 -0.665,2.327 1.994,3.656 4.655,4.986 4.986,-3.658 0,0"
             style="fill:#ff4d4d;fill-opacity:1;fill-rule:evenodd;stroke:none"
             id="path276"
             inkscape:connector-curvature="0" /></g><g
           id="g278"
           transform="translate(549.7285,317.3979)"><path
             style="fill:#000000;fill-opacity:1;fill-rule:nonzero;stroke:none"
             d="M 0,0 C -0.21495766,-1.5110106 -0.10559716,-3.420026 1.835329,-2.9999537 3.1440824,-3.100833 2.9460577,-4.6094442 3.2290738,-5.5372553 5.1679173,-15.210368 6.7921092,-24.941554 8.3840223,-34.676242 8.6363482,-36.075828 8.8886741,-37.475414 9.141,-38.875 c 1.26046,0.21111 3.762457,0.02582 5.485849,0.09594 5.394268,0.0534 11.294396,0.07663 16.372016,0.173538 1.069854,0.551266 0.690512,-0.394407 0.76927,0.684724 0.617639,5.802899 1.864785,11.512833 2.831311,17.263112 1.042974,5.806238 2.201232,11.5908726 3.320554,17.382685 1.205242,0.5375022 3.257857,-0.3603 2.964,1.871 0.612749,1.0931365 -2.179214,2.9070553 -0.18625,1.442125 C 41.791312,-1.6104112 40.728723,-4.1979337 38.518,-3.398 38.001277,-3.3113762 38.205891,-4.6142072 37.966962,-5.2363135 36.351871,-15.036208 34.670329,-24.825727 32.896931,-34.597597 32.707459,-36.036421 32.516569,-37.475059 32.328,-38.914 30.945764,-39.501605 29.447218,-39.198005 27.993169,-39.236399 21.636298,-39.151013 15.279621,-39.015585 8.922,-39.02 6.6921366,-27.856981 4.5665442,-16.672407 2.7828813,-5.4282099 2.5680877,-4.6628466 2.7815337,-3.3447759 1.687,-3.294 -0.21391492,-3.6290105 -0.42478713,-1.7978611 -0.10474023,-0.31706055 L -0.074,0.005 0,0 Z"
             id="path280"
             inkscape:connector-curvature="0" /></g><g
           id="g282"
           transform="translate(567.8701,347.5757)"><path
             d="M 0,0 C -0.1,-0.053 -0.201,-0.096 -0.286,-0.167 -0.367,-0.249 -0.439,-0.338 -0.504,-0.432 -0.63,-0.631 -0.756,-0.843 -0.941,-1.024 L -1,-0.408 c 0.414,-0.127 0.804,-0.308 1.175,-0.529 l -0.272,0.013 c 0.39,0.11 0.8,0.159 1.213,0.2 0.206,0.022 0.406,0.06 0.599,0.121 l 0.142,0.052 c 0.021,0.024 0.045,0.035 0.064,0.069 0.051,0.084 0.051,0.123 0.051,0.189 L 1.965,-0.217 C 1.968,-0.281 1.943,-0.235 1.94,-0.252 1.941,-0.265 1.906,-0.245 1.878,-0.233 1.807,-0.212 1.873,-0.242 1.727,-0.21 l -0.019,0.002 -0.002,0.001 c 0.03,-0.004 -0.067,0.009 0.066,-0.009 l -0.002,0 L 1.766,-0.217 1.757,-0.218 1.721,-0.221 C 1.697,-0.225 1.673,-0.223 1.649,-0.224 L 1.507,-0.223 C 1.412,-0.21 1.317,-0.208 1.221,-0.181 1.029,-0.129 0.822,-0.057 0.612,-0.029 0.403,0.01 0.201,0.02 0,0 m -0.014,0.073 c 0.201,0.025 0.4,0.077 0.592,0.161 0.191,0.091 0.386,0.168 0.6,0.193 0.104,0.022 0.212,0.018 0.318,0.025 L 1.656,0.443 C 1.683,0.441 1.71,0.441 1.736,0.437 L 1.776,0.431 1.863,0.418 1.881,0.411 C 1.933,0.402 2.176,0.259 2.246,0.138 2.287,0.077 2.33,0.029 2.361,-0.082 2.372,-0.146 2.396,-0.142 2.382,-0.258 L 2.354,-0.331 C 2.305,-0.46 2.194,-0.596 2.113,-0.664 2.064,-0.705 1.997,-0.742 1.936,-0.775 L 1.789,-0.816 C 1.598,-0.879 1.414,-0.965 1.235,-1.067 0.881,-1.275 0.522,-1.474 0.144,-1.613 l -0.112,-0.04 -0.16,0.053 c -0.41,0.136 -0.802,0.312 -1.169,0.542 l -0.547,0.343 0.489,0.274 c 0.18,0.101 0.415,0.176 0.644,0.273 0.121,0.042 0.241,0.081 0.349,0.131 0.121,0.033 0.237,0.07 0.348,0.11"
             style="fill:#000000;fill-opacity:1;fill-rule:nonzero;stroke:none"
             id="path284"
             inkscape:connector-curvature="0" /></g><g
           id="g286"
           transform="translate(570.2158,346.0835)"><path
             d="m 0,0 c 0,0 0.108,-0.374 0.266,-1.033 0.147,-0.661 0.356,-1.605 0.547,-2.745 0.091,-0.572 0.195,-1.189 0.27,-1.848 0.078,-0.658 0.109,-1.359 0.164,-2.081 0.04,-0.725 0.119,-1.462 0.234,-2.215 l 0.091,-0.567 c 0.044,-0.188 0.007,-0.509 -0.249,-0.639 -0.232,-0.119 -0.429,-0.107 -0.612,-0.159 L 0.137,-11.4 c -0.374,-0.049 -0.769,-0.131 -1.228,-0.054 -0.214,0.024 -0.477,0.145 -0.65,0.318 -0.2,0.18 -0.282,0.391 -0.383,0.597 -0.255,0.815 -0.305,1.533 -0.441,2.249 -0.23,1.427 -0.387,2.768 -0.488,3.921 -0.227,2.303 -0.247,3.857 -0.247,3.857 l 0.074,0.01 c 0,0 0.409,-1.501 0.822,-3.778 0.22,-1.137 0.437,-2.47 0.608,-3.905 0.094,-0.709 0.138,-1.494 0.298,-2.142 0.1,-0.312 0.23,-0.5 0.537,-0.58 0.292,-0.098 0.68,-0.088 1.07,-0.083 0.347,0.034 0.826,0.048 1.085,0.11 0.251,0.08 0.094,0.567 0.062,0.921 -0.107,0.748 -0.252,1.488 -0.408,2.196 -0.146,0.709 -0.309,1.391 -0.415,2.046 -0.11,0.654 -0.18,1.276 -0.25,1.85 -0.129,1.15 -0.189,2.115 -0.229,2.79 -0.029,0.677 -0.028,1.066 -0.028,1.066 L 0,0 Z"
             style="fill:#000000;fill-opacity:1;fill-rule:nonzero;stroke:none"
             id="path288"
             inkscape:connector-curvature="0" /></g><g
           id="g290"
           transform="translate(573.7969,334.6128)"><path
             style="fill:#000000;fill-opacity:1;fill-rule:nonzero;stroke:none"
             d="m 0,0 c -1.2081771,-0.54550114 -2.3598864,-1.2421593 -3.613,-1.668 -1.7148617,-0.064726 -3.4419294,1.21932434 -4.634,2.006 -0.8429338,0.50896592 -1.6454313,-0.25387949 -2.442956,-0.49332222 -3.05008,-1.32279238 -5.734448,-3.50765378 -7.585569,-6.27370318 -1.433762,-2.1586553 -2.341911,-4.6299236 -2.876649,-7.1555406 -0.295967,-0.884913 -0.05628,-2.537742 -0.281685,-2.979928 -0.497583,0.520026 1.544584,0.06079 2.006523,0.20732 10.2164597,-0.113343 20.4343997,-0.355669 30.650859,-0.08839 0.800697,-0.107911 2.831498,0.293979 2.917276,-0.115745 -0.276287,0.512662 -0.101414,2.199533 -0.3839,3.138974 C 12.771701,-7.5808509 8.7485956,-2.3731076 3.3320605,0.03326953 2.2737387,0.58976211 0.94397509,1.0394732 0,0 Z M -0.042,0.063 C 0.83820338,1.1652954 2.3565231,0.83064032 3.4535898,0.29833594 10.160655,-2.2769735 14.857471,-9.2971998 14.604479,-16.487453 c 0.07889,-1.172913 -2.065009,-0.105475 -2.818536,-0.434839 -11.27291411,0.332253 -22.545564,-0.144024 -33.818943,-0.158708 -0.237246,2.301428 0.165797,4.61693 0.977797,6.772984 1.02302,2.9055641 2.725895,5.6013621 5.074531,7.6157191 1.999041,1.71268305 4.379431,2.96020788 6.883172,3.7489219 1.5328072,-0.0718817 2.4708612,-1.62254954 3.910625,-2.052 0.9227534,-0.576915 1.973602,-0.3783756 2.8695216,0.10261505 C -1.5589639,-0.57402664 -0.80044216,-0.25560793 -0.042,0.063 Z"
             id="path292"
             inkscape:connector-curvature="0" /></g><g
           id="g294"
           transform="translate(585.0068,314.0264)"><path
             style="fill:#000000;fill-opacity:1;fill-rule:nonzero;stroke:none"
             d="m 0,0 c -3.3343708,-0.34120405 -6.6986452,-0.38406968 -10.040013,-0.11726807 -3.250181,0.154808 -6.492001,-0.24698854 -9.742347,-0.23030355 -3.133314,-0.0519789 -6.270935,0.062008 -9.39164,0.34757162 0.73186,0.2646599 1.832674,0.16880709 2.692406,0.28003125 4.530391,0.28526949 9.072291,0.12715912 13.600492,-0.10927734 2.862275,-0.11918509 5.7133266,0.33913097 8.5760559,0.17133105 C -2.8675286,0.3083719 -1.4295761,0.23288212 0,0.075 L 0,0.01663006 0,0 Z"
             id="path296"
             inkscape:connector-curvature="0" /></g><g
           id="g298"
           transform="translate(578.46,294.5498)"><path
             d="m 0,0 c 0,-0.918 -0.744,-1.662 -1.663,-1.662 -0.918,0 -1.662,0.744 -1.662,1.662 0,0.918 0.744,1.663 1.662,1.663 C -0.744,1.663 0,0.918 0,0"
             style="fill:#000000;fill-opacity:1;fill-rule:evenodd;stroke:none"
             id="path300"
             inkscape:connector-curvature="0" /></g><g
           id="g302"
           transform="translate(565.4932,294.2187)"><path
             d="m 0,0 c 0,-0.919 -0.743,-1.664 -1.662,-1.664 -0.918,0 -1.662,0.745 -1.662,1.664 0,0.917 0.744,1.662 1.662,1.662 C -0.743,1.662 0,0.917 0,0"
             style="fill:#000000;fill-opacity:1;fill-rule:evenodd;stroke:none"
             id="path304"
             inkscape:connector-curvature="0" /></g><g
           id="g306"
           transform="translate(573.374,290.8965)"><path
             d="m 0,0 c 0.081,-0.269 0.175,-0.537 0.247,-0.812 0.027,-0.281 0.101,-0.564 0.075,-0.85 -0.01,-0.287 -0.032,-0.574 -0.126,-0.852 -0.05,-0.287 -0.215,-0.537 -0.342,-0.797 -0.172,-0.233 -0.336,-0.479 -0.569,-0.66 -0.204,-0.21 -0.467,-0.347 -0.713,-0.499 -0.26,-0.128 -0.525,-0.247 -0.807,-0.318 -0.276,-0.089 -0.569,-0.118 -0.856,-0.144 -0.29,-0.019 -0.579,-0.005 -0.866,0.043 -0.284,0.058 -0.569,0.118 -0.834,0.267 -0.282,0.127 -0.482,0.288 -0.694,0.51 -0.178,0.225 -0.392,0.423 -0.536,0.669 -0.121,0.258 -0.304,0.489 -0.372,0.768 -0.086,0.272 -0.179,0.541 -0.2,0.826 -0.093,0.561 -0.079,1.133 0.037,1.697 l 0.009,0.043 0.05,0.003 c 2.159,0.136 4.321,0.161 6.485,0.115 l 0.01,0 L 0,0 Z m -0.021,-0.017 c -2.156,-0.155 -4.313,-0.241 -6.472,-0.214 l 0.058,0.044 c -0.077,-0.261 -0.108,-0.542 -0.128,-0.818 0.005,-0.277 -0.014,-0.558 0.05,-0.831 0.029,-0.279 0.128,-0.54 0.22,-0.802 0.073,-0.269 0.261,-0.487 0.384,-0.732 0.145,-0.234 0.364,-0.414 0.541,-0.622 0.175,-0.176 0.437,-0.366 0.674,-0.449 0.233,-0.117 0.51,-0.168 0.773,-0.217 0.27,-0.039 0.541,-0.047 0.814,-0.024 0.268,0.029 0.543,0.064 0.8,0.149 0.266,0.064 0.514,0.176 0.759,0.293 0.23,0.139 0.478,0.264 0.667,0.459 0.214,0.169 0.38,0.381 0.55,0.593 0.127,0.235 0.294,0.46 0.353,0.729 0.101,0.256 0.135,0.527 0.157,0.803 0.041,0.274 -0.029,0.55 -0.028,0.828 -0.047,0.27 -0.115,0.539 -0.172,0.811"
             style="fill:#000000;fill-opacity:1;fill-rule:nonzero;stroke:none"
             id="path308"
             inkscape:connector-curvature="0" /></g><g
           id="g310"
           transform="translate(572.251,286.8584)"><path
             style="fill:#000000;fill-opacity:1;fill-rule:nonzero;stroke:none"
             d="M 0,0 C -0.11114863,-0.13199108 -0.15959013,-0.33654605 -0.32801177,-0.4046025 -1.0053891,-0.72672559 -1.7617607,-0.93619886 -2.5164045,-0.83464151 c -0.6006282,0.0664961 -1.1721615,0.28615494 -1.6968638,0.57951212 -0.3314877,0.0755986 0.051755,0.35795944 0.1187809,0.53774655 0.5249371,0.77156614 1.1675108,1.49305804 1.9836207,1.96287774 0.4695716,0.278117 1.0905367,0.3650915 1.57416317,0.070774 C -0.14439744,2.1014231 0.19232484,1.8015302 0.54903977,1.5346075 0.72800344,1.3913541 0.90388744,1.2442671 1.077,1.094 0.70845063,0.73891728 0.34700101,0.37625138 0,0 Z M -0.018,0.018 C 0.30721729,0.38122339 0.61794181,0.75717089 0.921,1.139 0.94546315,0.93146589 0.67505524,1.2413155 0.5855167,1.2623257 0.12362385,1.5671211 -0.29235153,1.93815 -0.76166611,2.2309016 -1.2454146,2.5030447 -1.8461397,2.3589375 -2.2784496,2.055142 -3.0589143,1.5112383 -3.588557,0.69412977 -4.0646293,-0.11234212 c -0.065431,-0.18777651 -0.1229251,0.22744499 0.029488,0.04209212 0.6126408,-0.31165868 1.2817209,-0.53205182 1.9734,-0.55231222 0.612021,-0.0374705 1.23442847,0.0596596 1.7997406,0.29956222 0.0786446,0.11539372 0.16303039,0.22713187 0.2440004,0.341 z"
             id="path312"
             inkscape:connector-curvature="0" /></g><g
           id="g314"
           transform="translate(577.9619,295.1592)"><path
             d="m 0,0 c 0,-0.306 -0.249,-0.554 -0.555,-0.554 -0.306,0 -0.553,0.248 -0.553,0.554 0,0.307 0.247,0.554 0.553,0.554 C -0.249,0.554 0,0.307 0,0"
             style="fill:#ffffff;fill-opacity:1;fill-rule:evenodd;stroke:none"
             id="path316"
             inkscape:connector-curvature="0" /></g><g
           id="g318"
           transform="translate(564.9951,294.8271)"><path
             d="m 0,0 c 0,-0.306 -0.248,-0.555 -0.554,-0.555 -0.306,0 -0.554,0.249 -0.554,0.555 0,0.307 0.248,0.554 0.554,0.554 C -0.248,0.554 0,0.307 0,0"
             style="fill:#ffffff;fill-opacity:1;fill-rule:evenodd;stroke:none"
             id="path320"
             inkscape:connector-curvature="0" /></g></g></g></g></svg>