<?xml version="1.0" encoding="UTF-8" standalone="no"?>
<!-- Created with Inkscape (http://www.inkscape.org/) -->

<svg
   xmlns:dc="http://purl.org/dc/elements/1.1/"
   xmlns:cc="http://creativecommons.org/ns#"
   xmlns:rdf="http://www.w3.org/1999/02/22-rdf-syntax-ns#"
   xmlns:svg="http://www.w3.org/2000/svg"
   xmlns="http://www.w3.org/2000/svg"
   xmlns:sodipodi="http://sodipodi.sourceforge.net/DTD/sodipodi-0.dtd"
   xmlns:inkscape="http://www.inkscape.org/namespaces/inkscape"
   id="svg2"
   version="1.1"
   inkscape:version="0.91 r13725"
   xml:space="preserve"
   width="969.40674"
   height="765.28961"
   viewBox="0 0 969.40674 765.28961"
   sodipodi:docname="boat.svg"><metadata
     id="metadata8"><rdf:RDF><cc:Work
         rdf:about=""><dc:format>image/svg+xml</dc:format><dc:type
           rdf:resource="http://purl.org/dc/dcmitype/StillImage" /><dc:title></dc:title></cc:Work></rdf:RDF></metadata><defs
     id="defs6"><clipPath
       clipPathUnits="userSpaceOnUse"
       id="clipPath16"><path
         d="m 0,1000 1000,0 L 1000,0 0,0 0,1000 Z"
         id="path18"
         inkscape:connector-curvature="0" /></clipPath><clipPath
       clipPathUnits="userSpaceOnUse"
       id="clipPath64"><path
         d="m 0,1000 1000,0 L 1000,0 0,0 0,1000 Z"
         id="path66"
         inkscape:connector-curvature="0" /></clipPath><clipPath
       clipPathUnits="userSpaceOnUse"
       id="clipPath108"><path
         d="m 0,1000 1000,0 L 1000,0 0,0 0,1000 Z"
         id="path110"
         inkscape:connector-curvature="0" /></clipPath><clipPath
       clipPathUnits="userSpaceOnUse"
       id="clipPath140"><path
         d="m 0,1000 1000,0 L 1000,0 0,0 0,1000 Z"
         id="path142"
         inkscape:connector-curvature="0" /></clipPath></defs><sodipodi:namedview
     pagecolor="#ffffff"
     bordercolor="#666666"
     borderopacity="1"
     objecttolerance="10"
     gridtolerance="10"
     guidetolerance="10"
     inkscape:pageopacity="0"
     inkscape:pageshadow="2"
     inkscape:window-width="1319"
     inkscape:window-height="744"
     id="namedview4"
     showgrid="false"
     fit-margin-top="0"
     fit-margin-left="0"
     fit-margin-right="0"
     fit-margin-bottom="0"
     inkscape:zoom="0.53400704"
     inkscape:cx="272.00345"
     inkscape:cy="339.86723"
     inkscape:window-x="47"
     inkscape:window-y="24"
     inkscape:window-maximized="1"
     inkscape:current-layer="g10" /><g
     id="g10"
     inkscape:groupmode="layer"
     inkscape:label="boat"
     transform="matrix(1.25,0,0,-1.25,-140.29662,1000.6141)"><g
       id="g4393"
       transform="translate(108.08195,0)"><g
         id="g12"><g
           clip-path="url(#clipPath16)"
           id="g14"><g
             transform="translate(639,427.1543)"
             id="g20"><path
               inkscape:connector-curvature="0"
               id="path22"
               style="fill:#ffb868;fill-opacity:1;fill-rule:nonzero;stroke:none"
               d="m 0,0 c 0,0 -38,-62 -114,-68 -76,-6 -134,42 -136,72 0,0 129,-16 250,-4" /></g><g
             transform="translate(647,434.1543)"
             id="g24"><path
               inkscape:connector-curvature="0"
               id="path26"
               style="fill:#a87945;fill-opacity:1;fill-rule:nonzero;stroke:none"
               d="M 0,0 -266,-5 -272,9 -1,10 0,0 Z" /></g><g
             transform="translate(516,449.1543)"
             id="g28"><path
               inkscape:connector-curvature="0"
               id="path30"
               style="fill:#a87945;fill-opacity:1;fill-rule:nonzero;stroke:none"
               d="M 0,0 -4,245 -6,2 0,0 Z" /></g><g
             transform="translate(634,449.1543)"
             id="g32"><path
               inkscape:connector-curvature="0"
               id="path34"
               style="fill:#ededed;fill-opacity:1;fill-rule:nonzero;stroke:none"
               d="m 0,0 c 0,0 -59,31 -114,21 0,0 42,127 -6,203 0,0 112,-64 120,-224" /></g><g
             transform="translate(626,508.1543)"
             id="g36"><path
               inkscape:connector-curvature="0"
               id="path38"
               style="fill:#78d6ff;fill-opacity:1;fill-rule:nonzero;stroke:none"
               d="M 0,0 -94,0 -93,6 1,6 0,0 Z" /></g><g
             transform="translate(607,573.1543)"
             id="g40"><path
               inkscape:connector-curvature="0"
               id="path42"
               style="fill:#78d6ff;fill-opacity:1;fill-rule:nonzero;stroke:none"
               d="M 0,0 -68,1 -68,8 -2,7 0,0 Z" /></g><g
             transform="translate(624,518.1543)"
             id="g44"><path
               inkscape:connector-curvature="0"
               id="path46"
               style="fill:#78d6ff;fill-opacity:1;fill-rule:nonzero;stroke:none"
               d="M 0,0 -2,8 -86,10 -86,1 0,0 Z" /></g><g
             transform="translate(609,562.1543)"
             id="g48"><path
               inkscape:connector-curvature="0"
               id="path50"
               style="fill:#78d6ff;fill-opacity:1;fill-rule:nonzero;stroke:none"
               d="M 0,0 -2,11 -67,6 -64,-4 0,0 Z" /></g><g
             transform="translate(505,470.1543)"
             id="g52"><path
               inkscape:connector-curvature="0"
               id="path54"
               style="fill:#ededed;fill-opacity:1;fill-rule:nonzero;stroke:none"
               d="m 0,0 c 0,0 -123,1 -130,19 0,0 111,96 129,167 0,0 8,-169 1,-186" /></g><g
             transform="translate(669.6152,330.4619)"
             id="g56"><path
               inkscape:connector-curvature="0"
               id="path58"
               style="fill:#78d6ff;fill-opacity:1;fill-rule:nonzero;stroke:none"
               d="m 0,0 c 0,0 -16.923,36.923 -32.308,36.923 -15.384,0 -41.538,-61.539 -100,-32.308 -58.462,29.232 -64.615,-9.23 -64.615,-9.23 0,0 -32.307,-32.308 -72.307,23.077 -40,55.385 -40,-35.385 -40,-35.385 0,0 19.999,-20 126.153,-12.307 C -76.923,-21.538 41.538,-53.847 0,0" /></g></g></g><g
         id="g60"><g
           clip-path="url(#clipPath64)"
           id="g62"><g
             transform="translate(511.2646,676.6587)"
             id="g68"><path
               inkscape:connector-curvature="0"
               id="path70"
               d="m 0,0 c -0.3561538,-71.295993 -1.5497939,-142.58734 -3.514,-213.857 -49.857566,0.46829 -100.54194,4.93841 -147.96168,20.84934 9.74514,10.03632 22.72535,19.21162 32.99051,29.78702 46.979167,45.3706 87.691498,98.092463 115.8198202,157.2212598 C -1.7557229,-4.009086 -0.86682044,-2.0093108 0,0 Z m -0.34,-1.632 c -31.291654,-76.241716 -86.647335,-140.54669 -150.815,-191.326 17.82638,-4.55215 35.79563,-9.33949 54.152382,-11.77347 30.451608,-4.59069 61.28642,-6.04723 92.053618,-6.15153 -3.1791226,4.83469 -0.1846034,19.83768 -0.8897249,28.62255 C -4.579352,-122.03534 -2.7556513,-61.821878 -0.34,-1.632 Z"
               style="fill:#3f3f3f;fill-opacity:1;fill-rule:nonzero;stroke:none" /></g><g
             transform="translate(656.6475,448.2637)"
             id="g72"><path
               inkscape:connector-curvature="0"
               id="path74"
               d="m 0,0 c -2.3289899,-11.880525 -7.8645819,-19.813681 -16.84711,-24.578941 -21.969745,-43.451211 -71.268342,-70.375374 -119.64188,-67.767501 -31.33836,-1.577229 -64.22637,1.879305 -90.9501,19.815086 -20.118,12.710095 -36.74969,30.982351 -47.18391,52.395356 -9.66209,-4.140791 -16.01942,19.7938509 -11.40401,20.50664937 C -190.67967,0.48893208 -95.341723,2.1809915 0,0 Z m -0.421,-0.301 c -96.015057,-2.1391891 -192.04987,-0.5032388 -288.072,-0.37500001 4.3541,-9.80678599 6.8615,-19.27789799 17.26916,-21.28760699 9.78169,-21.565805 28.6231,-38.641685 48.9527,-50.538237 23.37578,-13.904729 50.96531,-18.066042 77.7875,-16.796716 31.74155,-1.627391 64.621506,5.114337 90.35269,24.635114 16.290237,11.867566 29.825787,27.52426 39.08195,45.436446 10.6453741,-3.138489 10.6375672,12.5903034 14.628,18.926 z"
               style="fill:#3f3f3f;fill-opacity:1;fill-rule:nonzero;stroke:none" /></g><g
             transform="translate(513.4355,702.3418)"
             id="g76"><path
               inkscape:connector-curvature="0"
               id="path78"
               d="M 0,0 C 2.3560975,-72.595601 4.8742545,-145.18975 5.4085826,-217.82852 5.5611501,-230.27169 5.6873134,-242.7152 5.775,-255.159 c -9.3958226,-1.02355 -17.099291,-0.46328 -13.3197408,11.09496 2.1336284,71.29932 0.8766369,142.66849 4.3971117,213.933056 1.2297078,10.402313 -0.9713168,22.9418887 2.2242851,32.0462688 L -0.21058938,1.2450523 0,0 Z M -0.3,-0.014 C -4.2549055,-6.8083115 -1.1743765,-25.143197 -2.2751102,-36.335838 -1.9040685,-95.12868 -4.5142912,-153.86395 -5.8286928,-212.62627 -6.0814803,-226.49634 -6.2504082,-240.36792 -6.339,-254.24 c 7.9341372,0.007 13.0343832,0.60896 9.9229105,10.99971 C 0.98203247,-164.04805 0.04045499,-84.815897 -0.21364532,-5.5867185 -0.24246367,-3.7291462 -0.27156419,-1.8715782 -0.3,-0.014 Z"
               style="fill:#3f3f3f;fill-opacity:1;fill-rule:nonzero;stroke:none" /></g><g
             transform="translate(512.5908,675.6274)"
             id="g80"><path
               inkscape:connector-curvature="0"
               id="path82"
               d="m 0,0 c 29.525261,-61.994585 28.150415,-134.76411 9.1501171,-199.64058 -1.4754713,-8.42518 -6.6235847,-6.30611 3.3611499,-5.84423 34.837699,-0.97308 70.800795,-4.50979 102.533043,-19.91114 5.90034,-1.48382 0.93679,17.03749 2.60607,22.606 -0.7399,64.08713 -22.654981,131.102848 -71.967854,174.215405 C 32.108505,-16.72183 16.736587,-6.7595829 0,0 Z m -0.247,0.42 c 55.026986,-19.884199 94.204329,-71.335587 108.64303,-126.87994 9.05037,-33.16541 11.11751,-67.83258 9.96497,-102.06406 -30.698286,16.13596 -66.357972,18.54063 -100.369686,20.07401 -7.274685,0.4664 -19.0024353,-2.62318 -12.3520507,7.87824 C 24.701548,-135.36029 26.929368,-62.690536 -0.554,0.518 l 0.307,-0.098 0,0 z"
               style="fill:#3f3f3f;fill-opacity:1;fill-rule:nonzero;stroke:none" /></g><g
             transform="translate(533.7285,583.3779)"
             id="g84"><path
               inkscape:connector-curvature="0"
               id="path86"
               d="m 0,0 c 23.489476,1.4903167 47.053031,1.644036 70.570758,1.2348488 6.793327,1.0010491 6.01326,-8.6931258 8.927096,-12.8891788 1.477062,-3.592925 -6.043113,-0.760308 -8.655128,-1.4814 C 57.421513,-12.604817 44.00979,-13.379179 30.599283,-13.776941 20.192548,-13.958384 9.7827008,-13.737748 -0.616,-13.321 -0.44712726,-8.9250059 -0.55270352,-4.1677432 0,0 Z m 0.165,-0.31 c 0.0188112,-3.4908312 1.495497,-10.233446 0.39050658,-11.676335 3.15504292,0.931888 7.73788772,0.38243 11.45052042,0.699813 14.197825,0.459493 28.383838,-0.332992 42.570147,-0.726934 8.098155,-0.10553 16.196946,0.09207 24.288826,0.401461 -1.890072,-2.45037 -2.710533,4.3521055 -4.017773,5.579164 -0.902578,1.3917028 -2.651278,6.50484674 -1.971619,4.5254999 C 48.642999,-1.9181392 24.368155,-1.8630032 0.165,-0.31 Z"
               style="fill:#3f3f3f;fill-opacity:1;fill-rule:nonzero;stroke:none" /></g><g
             transform="translate(627.2764,515.9434)"
             id="g88"><path
               inkscape:connector-curvature="0"
               id="path90"
               d="M 0,0 C 0.04260597,-4.0503705 3.4000801,-10.868714 1.1144261,-13.104179 -32.960633,-14.3504 -67.074086,-14.151855 -101.152,-13.126 c 1.955542,4.1067508 0.35196,12.64263599 4.79442,13.57876545 C -72.653834,0.29809582 -48.963932,2.0056482 -25.258494,1.0812057 -16.868304,0.82876478 -8.2130717,0.75483961 0,0 Z m -0.286,-0.18 c -27.345902,-1.5805085 -54.752242,-1.3235014 -82.114534,-0.37438218 -4.608099,-0.12772809 -12.390749,0.5385101 -15.083198,-0.2676007 -0.89362,-2.95113932 -1.323445,-10.23060512 -2.120106,-10.75842012 33.671467,0.954602 67.386781,1.16832 101.057838,-0.0896 -1.89750781,-0.386784 -0.97596883,9.5593458 -1.74,11.49 z"
               style="fill:#3f3f3f;fill-opacity:1;fill-rule:nonzero;stroke:none" /></g><g
             transform="translate(533.7617,558.7007)"
             id="g92"><path
               inkscape:connector-curvature="0"
               id="path94"
               d="m 0,0 c 28.10398,1.2802389 56.245978,1.6805985 84.376,1.314 3.337116,-10.6438339 6.222144,-21.517755 7.856863,-32.538766 -6.533118,-0.305027 -13.37679,0.309977 -20.034664,0.239069 -24.966449,0.444188 -49.908938,-1.475096 -74.8761703,-0.641544 -2.4723937,2.064299 0.6923588,8.977524 0.4572183,12.983015 C -1.3062883,-12.453635 -1.0214536,-6.1547059 0,0 Z m 0.147,-0.306 c 0.005445,-9.920636 -0.40810008,-19.867318 -1.5307079,-29.71514 -2.6330136,1.279222 5.1912752,0.688122 7.1757641,0.880135 25.5475608,0.34908 51.0778438,-1.574015 76.6239708,-0.590175 2.196693,-0.203348 9.64474,0.870578 7.805595,-0.476665 C 87.852284,-20.239406 85.162101,-10.327766 81.878,-0.613 84.480757,-2.7475924 76.516319,-1.186248 74.904348,-1.7051636 49.978778,-1.8854651 25.047934,-1.4344254 0.147,-0.306 Z"
               style="fill:#3f3f3f;fill-opacity:1;fill-rule:nonzero;stroke:none" /></g><g
             transform="translate(635,428.0547)"
             id="g96"><path
               inkscape:connector-curvature="0"
               id="path98"
               d="M 0,0 C -49.937703,-1.8764007 -99.908239,0.66640407 -149.85629,-0.79750718 -181.90505,-1.0755737 -213.96353,-1.0202926 -246,0 -179.2098,2.8341985 -112.35541,-0.66398558 -45.544866,0.95674085 -30.359702,0.94647405 -15.16446,0.87640685 0,0 Z"
               style="fill:#3f3f3f;fill-opacity:1;fill-rule:nonzero;stroke:none" /></g><g
             transform="translate(357.1709,330.2168)"
             id="g100"><path
               inkscape:connector-curvature="0"
               id="path102"
               d="M 0,0 C 7.1850232,15.978792 20.962452,37.416929 41.393105,32.465023 61.319436,25.443728 73.045311,5.9023973 90.888826,-4.3208763 109.21099,-13.7515 115.27372,12.162716 130.06292,15.689674 c 28.45105,-0.142121 51.73475,-25.4887142 81.09688,-20.4452309 23.09739,2.2178088 34.25495,24.3363959 46.11111,41.1428549 11.9228,18.687953 38.68724,15.347302 50.67872,-1.329531 5.29747,-4.1553 18.88403,-27.5665756 8.02095,-11.696456 -10.0544,14.867767 -30.66186,32.059281 -48.52755,18.809511 C 250.48536,28.364745 245.20563,2.4496373 222.45183,-4.7612619 197.10862,-15.221184 172.6354,0.77543973 150.06926,10.544103 132.8008,22.28522 118.21451,8.7940547 108.1857,-4.4595351 92.803952,-14.725039 78.504587,1.7604874 67.665664,11.016614 56.283017,20.414821 42.730865,36.178913 26.357441,29.197717 13.982067,23.55113 6.9705204,10.968711 0,0 Z"
               style="fill:#3f3f3f;fill-opacity:1;fill-rule:nonzero;stroke:none" /></g></g></g><g
         id="g104"><g
           clip-path="url(#clipPath108)"
           id="g106"><g
             transform="translate(328,445)"
             id="g112"><path
               inkscape:connector-curvature="0"
               id="path114"
               style="fill:#78d6ff;fill-opacity:1;fill-rule:nonzero;stroke:none"
               d="m 0,0 c 0,0 52,40 27,97 l -192,1 c 0,0 5,-83 -16,-88 L 0,0 Z" /></g><g
             transform="translate(379,408)"
             id="g116"><path
               inkscape:connector-curvature="0"
               id="path118"
               style="fill:#ffb868;fill-opacity:1;fill-rule:nonzero;stroke:none"
               d="m 0,0 -5,-9 -11,-5 c 0,0 -23,-35 -45,-48 -22,-13 -143,-34 -182,48 l -1,5 -9,2 1,9 188,1 -4,-26 c 0,0 -4,-22 11,-24 15,-2 16,18 16,18 0,0 -1,14 -35,6 l 1,23 c 0,0 18,3 26,3 8,0 50,1 50,1 L 0,0 Z" /></g><g
             transform="translate(369,416)"
             id="g120"><path
               inkscape:connector-curvature="0"
               id="path122"
               style="fill:#a87945;fill-opacity:1;fill-rule:nonzero;stroke:none"
               d="m 0,0 -2,28 c 0,0 0,9 -4,-5 -4,-14 -5,-4 -5,-4 l -47,-1 0,10 c 0,0 -6,6 -7,-11 l -48,2 -5,211 -4,-214 -52,2 0,12 c 0,0 -4,4 -6,-13 l -53,2 0,13 c 0,0 -4,7 -4,-14 l -1,-23 -12,0 7,-10 246,-7 8,18 -243,5 2,11 51,0 0,-16 8,-1 -3,17 51,0 -2,-20 12,2 0,18 47,1 1,-21 6,0 -1,21 53,0 -1,-22 8,0 0,9 z" /></g><g
             transform="translate(295,567)"
             id="g124"><path
               inkscape:connector-curvature="0"
               id="path126"
               style="fill:#78d6ff;fill-opacity:1;fill-rule:nonzero;stroke:none"
               d="m 0,0 c 0,0 26,12 12,52 l -109,0 c 0,0 11,-50 -13,-53 L 0,0 Z" /></g><g
             transform="translate(418.1543,297.0762)"
             id="g128"><path
               inkscape:connector-curvature="0"
               id="path130"
               style="fill:#78d6ff;fill-opacity:1;fill-rule:nonzero;stroke:none"
               d="m 0,0 c 0,0 -16.923,36.923 -32.308,36.923 -15.384,0 -41.538,-61.539 -100,-32.308 -58.462,29.232 -64.615,-9.23 -64.615,-9.23 0,0 -32.307,-32.308 -72.307,23.077 -40,55.385 -40,-35.385 -40,-35.385 0,0 19.999,-20 126.153,-12.307 C -76.923,-21.538 41.538,-53.847 0,0" /></g><g
             transform="translate(105.71,296.8311)"
             id="g132"><path
               inkscape:connector-curvature="0"
               id="path134"
               d="M 0,0 C 7.1850359,15.979071 20.962959,37.417437 41.393902,32.464875 61.319264,25.44251 73.045796,5.9027363 90.888757,-4.3208381 109.21099,-13.751547 115.27341,12.16357 130.06309,15.689759 c 28.45097,-0.142501 51.73466,-25.4886784 81.09671,-20.4453159 23.09739,2.2178088 34.25495,24.3363959 46.11111,41.1428549 11.9228,18.687953 38.68724,15.347302 50.67872,-1.329531 5.29747,-4.1553 18.88403,-27.5665756 8.02095,-11.696456 -10.0544,14.867767 -30.66186,32.059281 -48.52755,18.809511 C 250.48536,28.364745 245.20563,2.4496373 222.45183,-4.7612619 197.10892,-15.221032 172.63582,0.77510617 150.06995,10.543804 132.80142,22.285378 118.21466,8.7944928 108.18579,-4.4595369 92.803907,-14.725244 78.504868,1.7607958 67.665659,11.016623 56.282996,20.414889 42.730719,36.178933 26.357266,29.197716 13.982463,23.550759 6.9699265,10.969046 0,0 Z"
               style="fill:#3f3f3f;fill-opacity:1;fill-rule:nonzero;stroke:none" /></g></g></g><g
         id="g136"><g
           clip-path="url(#clipPath140)"
           id="g138"><g
             transform="translate(174.5298,563.2588)"
             id="g144"><path
               inkscape:connector-curvature="0"
               id="path146"
               d="m 0,0 c 39.16671,1.116886 78.352012,1.5503299 117.534,1.389 9.55441,6.0520081 17.88318,15.032664 20.15921,26.456962 2.52063,10.300052 0.0407,20.969482 -3.8315,30.589704 C 94.594753,59.526679 55.332483,57.823637 16.066,57.93 19.614617,61.523323 20.409375,49.353005 21.8671,46.647024 25.597675,30.83918 19.590775,13.078712 5.9701932,3.8472268 4.0663987,2.4369832 2.0669626,1.1573176 0,0 Z M -0.652,-0.04 C 12.912753,8.0067272 22.611725,23.537617 20.398906,39.655562 21.297894,46.615743 13.874368,57.041005 15.495944,60.57161 55.216576,60.691512 94.932369,58.9263 134.652,60.081 143.78589,43.938844 143.73021,21.468713 130.02801,7.823262 123.45665,-1.0039269 113.26999,-3.2176216 102.85159,-1.7525817 68.221889,-1.7628351 33.591397,-1.303436 -1.024,-0.3 L -0.76964597,-0.12222568 -0.652,-0.04 Z"
               style="fill:#3f3f3f;fill-opacity:1;fill-rule:nonzero;stroke:none" /></g><g
             transform="translate(280.7368,622.3218)"
             id="g148"><path
               inkscape:connector-curvature="0"
               id="path150"
               d="m 0,0 c 7.7476663,-13.075143 9.658012,-30.511255 1.6706393,-43.926512 -4.1989665,-7.078791 -10.6325366,-12.617863 -17.7147623,-16.668509 -3.346167,-0.497292 -6.838581,0.0892 -10.243999,0.0421 -2.578534,0.28939 -7.975714,-0.110171 -8.753057,0.641256 8.128398,4.450334 16.014084,10.406363 19.882352,19.093941 5.4475099,11.865663 3.869329,25.823125 -0.743118,37.6789711 -0.991066,2.33363918 -3.078644,5.1165613 0.906094,4.03227913 C -9.9919107,0.70579541 -4.9824583,0.52485577 0,0 Z m -0.23,-0.229 c -5.2911129,-0.41363087 -10.593154,-0.67379771 -15.897,-0.854 1.879843,3.2546625 2.790391,-3.6887462 3.881515,-5.0685361 C -7.866,-17.531602 -7.9150082,-30.938317 -14.191591,-41.622141 -18.491953,-49.265405 -25.03607,-55.447288 -32.344,-60.195 c -0.76701,3.184853 5.157645,1.003152 7.249741,1.809821 2.379329,0.03089 6.883087,0.286936 7.927237,0.138434 6.385837,4.126742 12.3581962,9.469372 16.20566955,16.191759 C 6.5868006,-29.407283 5.2350647,-13.374774 -0.23,-0.229 Z"
               style="fill:#3f3f3f;fill-opacity:1;fill-rule:nonzero;stroke:none" /></g><g
             transform="translate(235.3428,622.3218)"
             id="g152"><path
               inkscape:connector-curvature="0"
               id="path154"
               d="m 0,0 c 7.7472079,-13.074895 9.6604506,-30.511354 1.672039,-43.926394 -4.3162446,-7.164851 -10.8426329,-12.97282 -18.203331,-16.826889 -6.315407,-0.04574 -12.680245,0.35089 -19.012708,0.547283 8.028516,4.409931 15.935706,10.09312 19.995229,18.57458 5.8058275,11.769454 4.401172,25.837296 -0.07483,37.7886743 -0.741849,2.3861488 -3.79572,5.9552382 0.626063,4.73629267 C -9.993035,0.70583141 -4.9830258,0.524816 0,0 Z m -0.23,-0.229 c -5.2914526,-0.41354166 -10.59382,-0.67380329 -15.898,-0.854 1.878248,3.2545696 2.790525,-3.6889667 3.881473,-5.0683875 4.3801918,-11.3798825 4.331308,-24.7871795 -1.945552,-35.4709305 -4.300583,-7.6432 -10.844556,-13.825408 -18.152921,-18.572682 -0.764695,3.185103 5.158843,1.003029 7.251622,1.809845 2.379224,0.03086 6.885533,0.287 7.927824,0.138358 6.566244,4.2389 12.6809348,9.778372 16.52901685,16.750361 C 6.552797,-28.915208 5.1523774,-13.188473 -0.23,-0.229 Z"
               style="fill:#3f3f3f;fill-opacity:1;fill-rule:nonzero;stroke:none" /></g><g
             transform="translate(124.4385,445.6982)"
             id="g156"><path
               inkscape:connector-curvature="0"
               id="path158"
               d="m 0,0 c 67.251326,1.1256389 134.51367,1.5545101 201.774,1.396 19.69543,11.689162 35.37827,31.752603 36.8699,55.212822 0.95028,15.320596 -2.35627,30.848924 -9.0889,44.620178 -34.3472,-0.52776 -69.15231,0.28602 -103.67434,-0.30573 -31.115452,-0.31383 -62.26223,-0.52419 -93.346409,-0.71889 -7.572925,3.4321 5.263633,-12.425614 3.884953,-18.320963 C 43.952969,54.930861 34.262998,23.924647 11.226519,7.5107435 7.6683697,4.7451277 3.8992136,2.2568839 0,0 Z M -0.625,-0.033 C 22.152033,13.149656 38.842494,38.40244 36.433608,65.3593 35.791882,78.475949 31.984571,91.371035 25.776,102.92 94.10479,103.10701 162.43098,101.32839 230.759,102.452 246.32598,74.37768 245.36383,35.362623 220.81224,12.571538 211.9993,3.1384918 200.86588,-4.353789 187.51455,-1.738908 124.66715,-1.8094939 61.818705,-1.359663 -1.02,-0.302 l 0.395,0.269 0,0 z"
               style="fill:#3f3f3f;fill-opacity:1;fill-rule:nonzero;stroke:none" /></g><g
             transform="translate(289.1338,447.665)"
             id="g160"><path
               inkscape:connector-curvature="0"
               id="path162"
               d="m 0,0 c 11.31006,8.7042098 22.568655,18.183743 30.133331,30.448231 7.989801,14.526112 7.666481,31.974651 4.952042,47.878394 C 33.647165,86.159809 31.392687,93.829829 28.578,101.27525 32.109531,97.393956 33.704572,91.996837 35.689605,87.170764 41.806683,70.019067 41.194786,50.448385 32.975251,34.080889 27.967075,22.149604 19.928812,11.3052 8.7547879,4.5095785 6.022906,2.9281919 2.7798294,0.51919853 0,0 Z"
               style="fill:#3f3f3f;fill-opacity:1;fill-rule:nonzero;stroke:none" /></g><g
             transform="translate(209.3286,445.6895)"
             id="g164"><path
               inkscape:connector-curvature="0"
               id="path166"
               d="M 0,0 C 10.455987,0.92059645 20.958073,1.1544184 31.45,1.191 38.385993,5.9457473 46.044133,10.242324 51.72524,16.709057 67.59338,33.621981 70.757799,58.806663 66.133047,80.776421 64.876541,87.965063 62.207921,94.762213 60.082,101.708 73.510744,79.485053 75.971238,49.309393 61.04767,27.153302 53.296353,15.832265 43.52547,5.4623031 31.599162,-1.4905084 21.057503,-1.4594649 10.505589,-1.2249596 0,-0.301 L 0,-0.050149 0,0 Z"
               style="fill:#3f3f3f;fill-opacity:1;fill-rule:nonzero;stroke:none" /></g><g
             transform="translate(216.9741,547.3975)"
             id="g168"><path
               inkscape:connector-curvature="0"
               id="path170"
               d="m 0,0 c 11.24327,-20.357792 14.796924,-45.981022 5.475754,-67.747038 -6.6682056,-15.23619 -19.268819,-27.319165 -33.694819,-35.273702 -11.548918,-0.35304 -23.094807,0.27879 -34.641935,0.39874 16.543503,9.081454 31.816001,23.082256 36.938886,41.822819 C -19.977317,-40.230686 -23.962597,-17.875003 -33.336,1.03 -22.220808,0.81412887 -11.101265,0.63270151 0,0 Z m -0.227,-0.227 c -10.446513,-0.44904554 -20.89927,-0.74928463 -31.354,-0.919 4.246257,-0.034122 4.150381,-6.4038307 5.639688,-9.483236 6.720274,-16.787823 7.222728,-36.225245 0.72662,-53.178156 -5.057813,-12.812022 -14.309521,-23.672741 -24.999091,-32.189838 -2.90713,-2.242062 -5.979767,-4.27259 -9.202502,-6.03251 4.15926,2.317209 9.172638,0.85161 13.716601,1.14956 4.539935,0.68748 9.100816,0.11858 13.659976,0.17154 5.002309,0.17683 8.594177,4.216962 12.546221,6.767405 15.7806423,12.125062 27.0237863,30.875445 27.7235783,51.01846 C 9.0933541,-28.26628 5.6999867,-13.578666 -0.227,-0.227 Z"
               style="fill:#3f3f3f;fill-opacity:1;fill-rule:nonzero;stroke:none" /></g><g
             transform="translate(367.2246,413.8301)"
             id="g172"><path
               inkscape:connector-curvature="0"
               id="path174"
               d="m 0,0 c 5.5357028,-0.21954963 12.437694,0.54626388 17.207,-0.226 -2.156978,-6.3217543 -4.480768,-13.021656 -7.792,-18.625 -8.3746798,2.630683 -7.9883967,-6.571872 -12.481,-11.752 -22.389104,-35.455903 -64.308802,-56.822711 -106.10767,-55.132332 -23.15983,-0.524689 -47.10096,-0.476243 -68.64557,9.239677 -26.61042,10.89635 -48.85796,31.738225 -61.82876,57.366655 1.61971,-1.715553 -8.797,-1.823884 -7.8289,3.797769 -2.56091,5.3866338 -4.60567,10.9947866 -6.5051,16.643231 6.39467,0.010436 12.78933,0.026374 19.184,0.039 -3.28945,-2.7175727 -0.66086,8.862177 -1.50764,12.045798 0.22022,7.537638 -0.43707,15.180642 0.28064,22.659202 2.43378,5.76165 9.72852,1.205677 8.21047,-3.738675 -0.76902,-2.738778 1.7352,-13.378379 -1.52347,-10.112325 17.27933,0.0087 34.55867,0.01733 51.838,0.026 -3.36105,-2.943915 -0.72635,8.593191 -1.56287,11.744374 -0.8244,6.247302 9.05061,6.318661 8.58787,0.298626 -0.69632,-3.413289 1.48686,-13.766839 -1.19076,-12.401001 3.13247,0.880493 10.21635,0.125412 14.86391,0.378778 11.38562,0.0021 22.77123,0.0041 34.15685,0.0062 -3.41447,-2.89816 -0.52222,8.789214 -1.29832,11.992829 0.69311,33.090723 1.38621,66.181454 2.07932,99.272174 2.51784,-3.23937 -8.92725,-0.6054 -12.11079,-1.44655 -29.99107,0.20894 -60.05391,-0.27089 -90.00034,0.43305 -5.09994,2.83176 0.63822,8.13975 4.66913,6.3645 32.98666,-0.0936 65.97333,-0.18518 98.96,-0.278 -2.1257,0.0573 -0.10811,9.67936 -0.61883,13.46482 0.42528,18.87806 0.85055,37.75612 1.27583,56.63418 -0.88568,-1.78328 -9.7585,-0.1969 -13.65541,-0.70979 -17.20165,0.33336 -34.57823,-0.4506 -51.67359,0.55879 -4.03493,6.07548 5.63819,4.94633 9.22802,4.83531 18.97366,-0.0207 37.94732,-0.0419 56.92098,-0.0623 -1.02925,2.53631 0.0389,9.92614 -0.16895,14.36399 -0.83502,3.71889 1.28009,17.45004 2.98373,7.31452 0.15561,-7.38184 0.31184,-14.76367 0.46722,-22.14551 2.56359,1.12627 10.22255,0.17704 14.74913,0.50373 15.770309,-0.26734 31.725932,0.62935 47.37987,-0.37173 4.025405,-6.2203 -5.997099,-4.98986 -9.595678,-4.91121 -17.647776,-0.0647 -35.295546,-0.13092 -52.943322,-0.19579 1.95495,-0.54396 0.49186,-9.72662 1.14191,-13.56858 0.43936,-18.87747 0.87873,-37.75495 1.31809,-56.63242 -0.49591,2.37123 9.60961,0.43317 13.3284,1.0912 30.666487,-0.004 61.382766,0.42129 92.0196,0.003 5.2679154,-2.32161 0.4342253,-8.20202 -3.709023,-6.585 -34.207334,-0.0615 -68.414676,0.0123 -102.621977,0.059 2.90047,1.94636 0.62155,-9.11938 1.49415,-12.26764 0.59161,-33.092786 1.18323,-66.185575 1.77485,-99.278363 -0.44694,2.337277 9.61653,0.358792 13.340389,0.983465 11.66787,-0.04016 23.335741,-0.08031 35.003611,-0.120465 -2.038743,0.0056 -0.274833,9.155834 -0.835,12.715 -0.09923,6.004167 8.232296,4.052517 7.095011,-0.84667 -0.04268,-3.245285 -0.03193,-11.583418 0.04565,-11.998511 C -39.604224,21.344879 -22.607112,21.26094 -5.61,21.177 c -1.1234534,1.924443 -0.1486357,8.8872 -0.4282595,12.833662 3.5210079,8.774515 8.16036,-1.486617 6.22744518,-6.462317 C 0.12612378,18.365563 0.06306189,9.1827817 0,0 Z M -0.3,-0.3 C -0.49981769,11.582962 -0.2355747,23.52814 -0.701,35.375 -7.0036129,39.602045 -4.8600939,28.969675 -5.1341183,25.272013 -2.6605522,17.880622 -10.388477,20.584448 -14.923311,20.129007 -29.34954,20.057575 -43.775773,19.986893 -58.202,19.915 c -0.364433,5.256728 0.646988,10.837358 -0.565,15.898 -3.425222,2.546047 -3.885563,-3.783234 -3.289,-6.071 -0.774564,-3.952977 2.71246,-12.139204 -4.23768,-9.960724 -15.68044,-0.0539 -31.360876,-0.10933 -47.04132,-0.162276 -0.82154,38.375669 -1.64202,76.751362 -2.465,115.127 35.54743,0.0942 71.559854,0.0354 106.826,0.12 1.8485787,2.44519 -4.096493,1.24382 -5.551349,1.492 -33.708363,0.0113 -67.416533,0.11032 -101.124651,0.233 -0.38931,24.29966 -0.7776,48.59933 -1.166,72.899 20.898704,0.12899 41.953256,-0.56036 62.759,0.062 1.147189,5.31059 -9.012189,1.60209 -12.464393,2.72326 -16.67987,0.024 -33.359737,0.0507 -50.039607,0.0737 -0.428,8.59951 0.23631,17.52573 -0.913,25.913 -1.16046,-8.37871 -0.49374,-17.30376 -0.927,-25.899 -21.97545,-0.17701 -44.05801,0.25243 -65.97,-0.288 -1.77065,-5.37715 8.61644,-1.77977 11.8857,-2.81556 18.0951,0.0526 36.1902,0.10787 54.2853,0.16156 -0.4052,-24.23635 -0.8118,-48.47268 -1.219,-72.709 -34.47416,-0.1419 -69.36687,-0.10177 -103.583,-0.36 0.47034,-3.4851 9.07633,-0.71275 12.75101,-1.57369 30.42825,0.0907 60.85665,0.11096 91.28499,0.15469 -0.70902,-38.612994 -1.41622,-77.226021 -2.126,-115.839 -17.508,0.0023 -35.016,0.0067 -52.524,0.009 -0.53532,5.367431 1.03282,11.572943 -0.687,16.486 -3.17469,0.202996 -1.02702,-6.016055 -1.6384,-8.387024 1.27142,-6.463611 -0.60285,-9.777975 -7.48532,-8.079003 -15.8141,0.0074 -31.62819,0.0169 -47.44228,0.02303 -0.44895,5.253995 0.7685,11.639507 -0.369,16.25 -2.84893,1.548285 -2.04095,-4.221932 -2.04371,-5.973025 -0.004,-10.358992 -0.0119,-20.7179828 -0.0153,-31.076975 -6.20867,0.012534 -12.41733,0.025353 -18.626,0.038 2.97896,3.8304759 3.63939,-7.7725129 6.0989,-10.415642 2.63987,-6.759023 1.07448,-5.114312 8.2611,-5.062358 19.25069,-39.878626 62.04349,-66.787743 106.371,-66.555 24.38219,-0.24872 49.700985,-1.447395 72.530099,8.697984 26.754656,10.542669 48.8733965,31.675265 62.105901,56.839016 6.4167816,-1.917609 7.063861,2.14338 9.200489,7.319898 0.413114,3.6480889 7.724831,12.3436816 0.943862,10.41572612 C 8.9589009,-0.35091726 4.3294505,-0.32545863 -0.3,-0.3 Z"
               style="fill:#3f3f3f;fill-opacity:1;fill-rule:nonzero;stroke:none" /></g><g
             transform="translate(138.0488,413.8418)"
             id="g176"><path
               inkscape:connector-curvature="0"
               id="path178"
               d="M 0,0 C 17.129984,1.3865908 34.338926,1.7323973 51.514464,1.1877517 49.748245,-1.1775691 50.309696,2.9272311 50.4242,4.0233962 50.4172,7.8391962 50.694929,11.658571 50.854,15.474 51.332251,13.725447 48.013894,15.089049 46.914145,14.945946 41.805926,15.024276 36.673398,15.10825 31.558405,14.864716 22.496837,14.504 13.435234,13.855995 4.3613468,14.226673 3.0838984,14.410168 0.4929679,14.016116 0.02833265,14.569953 1.7502318,15.937634 0.68291442,12.234929 0.72640966,11.300947 0.69298388,7.5336574 0.35125695,3.755619 0,0 Z M -0.312,-0.162 C -0.89137088,5.3994323 -1.1153354,10.989265 -1.336,16.574 9.7673177,17.062329 20.888545,16.737391 31.974467,16.035117 38.802336,15.814415 45.637885,15.96571 52.458,16.333 52.763258,10.383205 53.013595,4.4294834 53.097,-1.528 35.294568,-1.9879351 17.45479,-1.8027473 -0.298,-0.299 l -0.0116927,0.1144217 -2.31e-6,2.258e-5 L -0.312,-0.162 Z"
               style="fill:#3f3f3f;fill-opacity:1;fill-rule:nonzero;stroke:none" /></g><g
             transform="translate(195.3462,413.8428)"
             id="g180"><path
               inkscape:connector-curvature="0"
               id="path182"
               d="M 0,0 C 16.164244,1.3640656 32.470061,1.7192485 48.644959,1.2107991 46.514682,-1.8626488 47.844852,3.6476046 47.632539,4.9789643 47.80519,8.4853555 48.051949,11.987517 48.303,15.489 49.886246,13.82473 45.424789,15.134557 44.389,14.869979 34.236073,15.393322 24.094257,14.515969 13.955424,14.155932 9.2487256,14.075128 4.5415149,14.187348 -0.163,14.326 2.1664729,16.988133 0.33809217,10.821446 0.72463369,9.5063171 0.55753756,6.3325326 0.33746066,3.1605941 0,0 Z M -0.313,-0.163 C -0.89585043,5.4031259 -1.175166,10.996265 -1.336,16.589 8.5742893,17.00698 18.500302,16.815713 28.391644,16.098097 35.570937,15.785231 42.763639,15.936608 49.936,16.343 50.141557,10.382802 50.266323,4.4189805 50.235,-1.545 33.385538,-1.988895 16.49973,-1.7780087 -0.298,-0.3 L -0.30993275,-0.1910142 -0.313,-0.163 Z"
               style="fill:#3f3f3f;fill-opacity:1;fill-rule:nonzero;stroke:none" /></g><g
             transform="translate(255.4893,413.8428)"
             id="g184"><path
               inkscape:connector-curvature="0"
               id="path186"
               d="M 0,0 C 16.174203,1.3980824 32.429109,1.6494066 48.652996,1.2633338 47.69519,-0.77093767 47.08163,1.2200068 47.447454,2.4464999 47.610764,6.7866622 47.744154,11.133705 48,15.473 48.631593,13.806753 45.471727,15.00206 44.489256,14.913941 38.536591,15.091847 32.556441,15.062042 26.59913,14.749345 19.347243,14.399967 12.091532,13.936355 4.8276942,14.18992 3.062898,14.225695 1.2983834,14.273984 -0.466,14.326 1.4905755,16.242829 0.54941261,12.011286 0.50834667,10.943795 0.54358967,7.3013207 0.29163738,3.6393242 0,0 Z M -0.31,-0.166 C -1.0005446,5.3965601 -1.393134,10.99162 -1.662,16.589 8.8253469,17.0713 19.329388,16.709191 29.798749,16.032398 36.404995,15.811091 43.01925,15.967735 49.617,16.343 49.940414,10.385251 50.180585,4.422195 50.267,-1.544 33.409132,-1.9894284 16.514338,-1.7788159 -0.292,-0.3 l -0.0146834,0.10930988 -2.57e-6,1.912e-5 L -0.31,-0.166 Z"
               style="fill:#3f3f3f;fill-opacity:1;fill-rule:nonzero;stroke:none" /></g><g
             transform="translate(309.9395,413.8418)"
             id="g188"><path
               inkscape:connector-curvature="0"
               id="path190"
               d="M 0,0 C 17.118876,1.3874584 34.400317,1.7320848 51.514464,1.1877517 49.335829,-1.8469345 50.682484,3.7966815 50.405871,5.1530646 50.511481,8.5951405 50.687979,12.034462 50.854,15.474 52.239066,13.71081 47.148379,15.274587 45.852838,14.909266 35.330711,15.380335 24.826978,14.419704 14.317487,14.144529 9.4897965,14.087437 4.6624031,14.208847 -0.163,14.345 1.9922446,16.996013 0.42855908,11.46876 0.74158026,10.23747 0.57368677,6.8199303 0.34980119,3.4041444 0,0 Z M -0.312,-0.162 C -0.89225252,5.3993637 -1.1152344,10.989274 -1.336,16.574 9.31352,17.012663 19.977851,16.817708 30.609084,16.084265 37.890446,15.795195 45.183337,15.941229 52.458,16.333 52.762454,10.383171 53.014036,4.4294974 53.097,-1.528 35.294323,-1.9878886 17.454826,-1.802794 -0.298,-0.299 L -0.309695,-0.18455572 -0.312,-0.162 Z"
               style="fill:#3f3f3f;fill-opacity:1;fill-rule:nonzero;stroke:none" /></g><g
             transform="translate(178.5186,344.0996)"
             id="g192"><path
               inkscape:connector-curvature="0"
               id="path194"
               style="fill:#3f3f3f;fill-opacity:1;fill-rule:nonzero;stroke:none"
               d="m 0,0 c 2.916,-1.103 5.789,-2.29 8.635,-3.533 l -0.378,0.089 c 2.624,0.139 5.248,0.256 7.872,0.324 2.624,0.086 5.248,0.13 7.872,0.154 1.312,0.025 2.624,0.03 3.936,0.015 1.312,0.003 2.624,-0.023 3.936,-0.067 2.624,-0.065 5.248,-0.216 7.872,-0.362 2.624,-0.143 5.248,-0.302 7.872,-0.368 2.624,-0.086 5.248,-0.102 7.872,-0.073 5.248,0.034 10.495,0.326 15.743,0.575 5.248,0.264 10.497,0.334 15.744,0.443 2.624,0.038 5.248,0.1 7.872,0.11 2.624,0.004 5.248,0.026 7.872,-0.032 5.248,-0.053 10.496,-0.221 15.744,-0.427 2.624,-0.12 5.248,-0.243 7.871,-0.405 2.624,-0.175 5.248,-0.34 7.873,-0.583 l 0,-0.3 c -2.625,-0.243 -5.249,-0.408 -7.873,-0.583 -2.623,-0.163 -5.247,-0.285 -7.871,-0.405 -5.248,-0.206 -10.496,-0.374 -15.744,-0.427 -2.624,-0.058 -5.248,-0.036 -7.872,-0.032 -2.624,0.01 -5.248,0.072 -7.872,0.11 -5.247,0.109 -10.496,0.179 -15.744,0.443 -5.248,0.249 -10.495,0.541 -15.743,0.575 -2.624,0.029 -5.248,0.013 -7.872,-0.073 -2.624,-0.066 -5.248,-0.225 -7.872,-0.368 -2.624,-0.146 -5.248,-0.297 -7.872,-0.362 -1.312,-0.044 -2.624,-0.07 -3.936,-0.067 -1.312,-0.016 -2.624,-0.01 -3.936,0.015 -2.624,0.024 -5.248,0.068 -7.872,0.154 -2.624,0.068 -5.248,0.185 -7.872,0.324 L 8.014,-5.123 7.879,-5.047 C 5.176,-3.519 2.5,-1.937 -0.134,-0.268 L 0,0 Z" /></g><g
             transform="translate(158.4766,357.8223)"
             id="g196"><path
               inkscape:connector-curvature="0"
               id="path198"
               d="M 0,0 C 5.8078049,-6.4339137 15.138277,-2.3481805 22.612725,-2.9956215 47.879039,-2.7269592 73.144667,-4.6908944 98.402776,-3.1157913 124.72414,-2.4077341 151.08546,-2.4952629 177.373,-4.125 141.18655,-7.3801555 104.76224,-5.2133942 68.486867,-4.7730894 47.843792,-5.0971852 27.105398,-6.5457679 6.5133774,-4.8016401 3.9505602,-4.2483587 0.59748963,-2.4663152 0,0 Z"
               style="fill:#3f3f3f;fill-opacity:1;fill-rule:nonzero;stroke:none" /></g><g
             transform="translate(148.4551,367.4346)"
             id="g200"><path
               inkscape:connector-curvature="0"
               id="path202"
               style="fill:#3f3f3f;fill-opacity:1;fill-rule:nonzero;stroke:none"
               d="m 0,0 c 3.427,0.248 6.854,0.362 10.281,0.548 3.427,0.135 6.853,0.259 10.281,0.342 6.853,0.192 13.707,0.262 20.561,0.308 3.426,-0.003 6.854,-0.015 10.28,-0.094 L 61.684,0.783 71.965,0.44 c 3.427,-0.086 6.853,-0.126 10.28,-0.137 3.427,0.006 6.854,0.023 10.281,0.088 l 10.281,0.264 10.28,0.319 10.281,0.212 20.561,0.249 10.281,0.022 10.281,-0.099 0.765,-0.007 0.49,-0.664 0.89,-1.208 1.027,-1.099 c 0.387,-0.318 0.762,-0.655 1.156,-0.968 0.424,-0.268 0.835,-0.561 1.267,-0.82 0.454,-0.215 0.898,-0.459 1.36,-0.66 0.478,-0.159 0.95,-0.345 1.434,-0.49 l 1.486,-0.319 1.522,-0.139 1.602,0.063 1.45,0.237 c 0.487,0.121 0.98,0.289 1.475,0.427 0.48,0.182 0.947,0.4 1.427,0.597 0.458,0.239 0.897,0.515 1.352,0.769 0.424,0.299 0.832,0.624 1.254,0.935 l 1.136,1.084 1.001,1.22 0.318,0.387 0.382,-0.013 c 2.551,-0.086 5.102,-0.167 7.652,-0.3 2.551,-0.122 5.103,-0.23 7.653,-0.39 l 0,-0.301 c -2.55,-0.16 -5.102,-0.267 -7.653,-0.389 -2.55,-0.134 -5.101,-0.214 -7.652,-0.301 l 0.699,0.374 -1.036,-1.459 c -0.401,-0.442 -0.797,-0.893 -1.211,-1.327 -0.454,-0.391 -0.9,-0.797 -1.369,-1.174 -0.5,-0.334 -0.992,-0.689 -1.508,-1.004 -0.54,-0.271 -1.072,-0.567 -1.628,-0.813 -0.575,-0.199 -1.138,-0.418 -1.73,-0.594 -0.614,-0.133 -1.25,-0.28 -1.857,-0.384 l -1.757,-0.151 -1.838,0.075 c -0.608,0.082 -1.214,0.195 -1.821,0.302 -0.596,0.151 -1.181,0.352 -1.772,0.533 -0.574,0.223 -1.13,0.496 -1.695,0.748 -0.542,0.295 -1.062,0.633 -1.593,0.952 -0.5,0.363 -0.979,0.758 -1.467,1.141 -0.449,0.426 -0.881,0.873 -1.32,1.313 -0.391,0.481 -0.769,0.977 -1.147,1.472 l 1.256,-0.672 -10.281,-0.099 -10.281,0.023 -20.561,0.249 -10.281,0.212 -10.28,0.318 -10.281,0.265 c -3.427,0.064 -6.854,0.082 -10.281,0.087 -3.427,-0.011 -6.853,-0.051 -10.28,-0.137 L 61.684,-1.084 51.403,-1.404 C 47.977,-1.483 44.549,-1.496 41.123,-1.499 34.269,-1.453 27.415,-1.383 20.562,-1.19 17.134,-1.107 13.708,-0.983 10.281,-0.849 6.854,-0.663 3.427,-0.549 0,-0.301 L 0,0 Z" /></g><g
             transform="translate(137.3853,381.1709)"
             id="g204"><path
               inkscape:connector-curvature="0"
               id="path206"
               style="fill:#3f3f3f;fill-opacity:1;fill-rule:nonzero;stroke:none"
               d="m 0,0 c 1.82,0.144 3.641,0.247 5.461,0.343 1.82,0.093 3.641,0.218 5.461,0.28 3.641,0.161 7.281,0.267 10.922,0.364 3.64,0.075 7.281,0.156 10.922,0.174 3.64,0.043 7.28,0.051 10.921,-0.014 C 47.328,1.104 50.968,0.92 54.609,0.8 58.25,0.675 61.89,0.501 65.531,0.411 c 3.64,-0.094 7.281,-0.125 10.922,-0.097 3.64,0.009 7.281,0.087 10.922,0.207 l 10.921,0.36 c 3.641,0.145 7.282,0.185 10.922,0.283 l 10.922,0.159 c 3.64,0.039 7.281,0.118 10.922,0.123 3.64,0.007 7.281,0.023 10.921,-0.035 3.641,-0.03 7.282,-0.082 10.922,-0.166 3.641,-0.061 7.282,-0.181 10.922,-0.281 l 10.922,-0.421 1.101,-0.042 -0.482,-0.965 -0.524,-1.05 c -0.199,-0.342 -0.293,-0.725 -0.442,-1.09 -0.145,-0.368 -0.276,-0.741 -0.351,-1.129 l -0.138,-0.579 c -0.04,-0.193 -0.11,-0.383 -0.121,-0.583 l -0.136,-1.187 c -0.009,-0.089 -0.031,-0.221 -0.027,-0.276 l 0.004,-0.308 0.01,-0.616 0.003,-0.617 c -0.009,-0.209 0.042,-0.397 0.06,-0.597 l 0.155,-1.198 -0.29,-0.075 -0.322,1.218 c -0.046,0.204 -0.125,0.412 -0.143,0.615 l -0.081,0.612 -0.074,0.612 -0.037,0.306 c -0.018,0.149 -0.004,0.222 -0.007,0.338 l 0.012,1.269 c -0.01,0.214 0.04,0.422 0.061,0.633 l 0.082,0.634 c 0.039,0.427 0.136,0.842 0.25,1.254 0.116,0.41 0.181,0.842 0.354,1.236 l 0.464,1.205 0.619,-1.007 -10.922,-0.421 c -3.64,-0.1 -7.281,-0.219 -10.922,-0.281 -3.64,-0.084 -7.281,-0.136 -10.922,-0.166 -3.64,-0.058 -7.281,-0.042 -10.921,-0.035 -3.641,0.005 -7.282,0.084 -10.922,0.123 l -10.922,0.159 c -3.64,0.098 -7.281,0.138 -10.922,0.283 l -10.921,0.361 c -3.641,0.119 -7.282,0.197 -10.922,0.206 -3.641,0.028 -7.282,-0.003 -10.922,-0.097 -3.641,-0.09 -7.281,-0.264 -10.922,-0.389 -3.641,-0.12 -7.281,-0.303 -10.922,-0.347 -3.641,-0.065 -7.281,-0.057 -10.921,-0.014 -3.641,0.019 -7.282,0.099 -10.922,0.174 -3.641,0.098 -7.281,0.203 -10.922,0.364 -1.82,0.063 -3.641,0.188 -5.461,0.28 C 3.641,-0.548 1.82,-0.444 0,-0.301 L 0,0 Z" /></g><g
             transform="translate(360.3843,394.9775)"
             id="g208"><path
               inkscape:connector-curvature="0"
               id="path210"
               style="fill:#3f3f3f;fill-opacity:1;fill-rule:nonzero;stroke:none"
               d="m 0,0 c 0,0 -0.866,-0.029 -2.489,-0.083 -1.623,-0.04 -4.003,-0.098 -7.032,-0.171 -3.03,-0.079 -6.708,-0.096 -10.928,-0.158 -4.219,-0.068 -8.979,-0.08 -14.172,-0.098 -5.192,0.009 -10.817,0.003 -16.767,0.09 -5.949,0.08 -12.222,0.302 -18.712,0.468 -6.489,0.2 -13.195,0.34 -20.01,0.368 -3.408,0.002 -6.842,0.005 -10.29,0.008 -3.449,-0.034 -6.911,-0.069 -10.372,-0.103 -3.462,-0.043 -6.925,-0.086 -10.373,-0.129 -3.448,-0.02 -6.883,-0.041 -10.291,-0.061 -6.815,-0.005 -13.522,-0.011 -20.013,-0.016 -6.491,0.005 -12.765,0.036 -18.714,0.123 -5.949,0.062 -11.574,0.179 -16.766,0.286 -5.192,0.106 -9.951,0.189 -14.169,0.325 -4.218,0.125 -7.895,0.234 -10.923,0.324 -6.057,0.232 -9.518,0.365 -9.518,0.365 l 10e-4,0.199 c 0,0 3.463,0.085 9.522,0.234 3.029,0.048 6.708,0.105 10.927,0.172 4.219,0.077 8.98,0.094 14.172,0.128 5.193,0.035 10.819,0.074 16.769,0.052 5.949,0.005 12.223,-0.051 18.713,-0.136 6.49,-0.095 13.197,-0.194 20.011,-0.294 3.407,-0.068 6.841,-0.135 10.289,-0.204 3.448,-0.09 6.909,-0.182 10.37,-0.273 3.461,-0.082 6.922,-0.164 10.37,-0.246 3.448,-0.046 6.882,-0.091 10.29,-0.136 6.814,-0.066 13.522,-0.019 20.013,0.091 6.491,0.076 12.766,0.21 18.717,0.208 5.949,0.004 11.574,-0.08 16.766,-0.144 5.192,-0.088 9.951,-0.167 14.169,-0.293 4.218,-0.122 7.896,-0.19 10.924,-0.311 C -6.488,0.47 -4.108,0.379 -2.486,0.317 -0.864,0.24 0.001,0.199 0.001,0.199 L 0,0 Z" /></g><g
             transform="translate(362.001,380.4004)"
             id="g212"><path
               inkscape:connector-curvature="0"
               id="path214"
               style="fill:#3f3f3f;fill-opacity:1;fill-rule:nonzero;stroke:none"
               d="m 0,0 c -1.02,-0.102 -2.04,-0.181 -3.06,-0.249 l -3.061,-0.213 c -2.041,-0.124 -4.081,-0.215 -6.122,-0.303 -2.042,-0.064 -4.083,-0.153 -6.124,-0.185 -2.042,-0.047 -4.083,-0.089 -6.125,-0.088 l -0.849,0 -0.048,0.859 c -0.011,0.207 -0.131,0.641 -0.258,0.96 -0.139,0.346 -0.336,0.672 -0.542,0.998 -0.471,0.614 -1.004,1.219 -1.677,1.697 -1.313,0.994 -2.928,1.638 -4.578,2.138 -1.672,0.45 -3.405,0.773 -5.161,0.87 -1.749,0.153 -3.524,0.086 -5.275,0.025 -1.723,-0.14 -3.473,-0.543 -4.92,-1.405 -1.468,-0.859 -2.411,-2.235 -2.385,-3.932 -0.134,-1.785 -0.336,-3.544 -0.38,-5.259 -0.048,-1.719 0.11,-3.415 0.549,-4.997 0.451,-1.574 1.208,-3.039 2.336,-4.202 0.261,-0.306 0.6,-0.545 0.893,-0.822 0.154,-0.132 0.299,-0.273 0.458,-0.399 l 0.516,-0.337 c 0.348,-0.219 0.677,-0.462 1.037,-0.663 l 1.119,-0.553 c 1.489,-0.694 3.177,-1.272 4.75,-1.548 1.606,-0.296 3.26,-0.206 4.822,0.191 1.561,0.422 3.028,1.214 4.297,2.286 1.287,1.056 2.358,2.396 3.262,3.84 0.899,1.453 1.591,3.053 2.045,4.72 0.472,1.658 0.715,3.423 0.384,5.141 l 0.192,0.059 c 0.626,-1.717 0.547,-3.603 0.274,-5.387 -0.306,-1.795 -0.901,-3.541 -1.724,-5.184 -0.82,-1.645 -1.916,-3.182 -3.292,-4.47 -1.36,-1.305 -3.051,-2.306 -4.887,-2.897 -1.85,-0.554 -3.819,-0.679 -5.711,-0.385 -0.465,0.09 -1.006,0.152 -1.408,0.275 l -0.642,0.173 -0.161,0.043 -0.119,0.034 -0.082,0.029 -0.327,0.119 -1.308,0.481 -0.653,0.243 -0.631,0.317 -1.256,0.641 c -0.405,0.242 -0.788,0.536 -1.18,0.803 l -0.584,0.41 c -0.183,0.153 -0.355,0.325 -0.532,0.486 -0.342,0.339 -0.723,0.636 -1.028,1.011 -1.308,1.432 -2.176,3.237 -2.637,5.073 -0.472,1.847 -0.493,3.735 -0.362,5.55 0.124,1.828 0.49,3.577 0.756,5.313 0.05,0.416 0.185,0.933 0.301,1.404 0.204,0.457 0.379,0.925 0.697,1.31 0.578,0.794 1.354,1.416 2.194,1.82 1.681,0.828 3.485,1.167 5.285,1.292 1.791,0.021 3.566,0.125 5.354,0.019 0.896,0.005 1.787,-0.081 2.682,-0.169 0.9,-0.037 1.786,-0.227 2.684,-0.36 1.772,-0.376 3.561,-0.907 5.179,-1.93 1.591,-1.034 3.096,-2.481 3.41,-4.814 l -0.897,0.858 c 2.041,0.043 4.083,0.042 6.125,0.037 2.042,0.01 4.084,-0.037 6.127,-0.06 2.042,-0.046 4.084,-0.096 6.127,-0.178 l 3.064,-0.15 C -2.045,0.338 -1.024,0.279 -0.002,0.199 L 0,0 Z" /></g></g></g></g></g></svg>