<?xml version="1.0" encoding="UTF-8" standalone="no"?>
<!-- Created with Inkscape (http://www.inkscape.org/) -->

<svg
   xmlns:dc="http://purl.org/dc/elements/1.1/"
   xmlns:cc="http://creativecommons.org/ns#"
   xmlns:rdf="http://www.w3.org/1999/02/22-rdf-syntax-ns#"
   xmlns:svg="http://www.w3.org/2000/svg"
   xmlns="http://www.w3.org/2000/svg"
   xmlns:sodipodi="http://sodipodi.sourceforge.net/DTD/sodipodi-0.dtd"
   xmlns:inkscape="http://www.inkscape.org/namespaces/inkscape"
   version="1.1"
   id="svg2"
   xml:space="preserve"
   width="871.50818"
   height="856.10352"
   viewBox="0 0 871.50821 856.10355"
   sodipodi:docname="bulb.svg"
   inkscape:version="0.92.2 5c3e80d, 2017-08-06"><metadata
     id="metadata8"><rdf:RDF><cc:Work
         rdf:about=""><dc:format>image/svg+xml</dc:format><dc:type
           rdf:resource="http://purl.org/dc/dcmitype/StillImage" /><dc:title /></cc:Work></rdf:RDF></metadata><defs
     id="defs6"><clipPath
       clipPathUnits="userSpaceOnUse"
       id="clipPath18"><path
         d="M 0,1000 H 1000 V 0 H 0 Z"
         id="path16"
         inkscape:connector-curvature="0" /></clipPath><clipPath
       clipPathUnits="userSpaceOnUse"
       id="clipPath106"><path
         d="M 0,1000 H 1000 V 0 H 0 Z"
         id="path104"
         inkscape:connector-curvature="0" /></clipPath></defs><sodipodi:namedview
     pagecolor="#ffffff"
     bordercolor="#666666"
     borderopacity="1"
     objecttolerance="10"
     gridtolerance="10"
     guidetolerance="10"
     inkscape:pageopacity="0"
     inkscape:pageshadow="2"
     inkscape:window-width="1920"
     inkscape:window-height="1029"
     id="namedview4"
     showgrid="false"
     inkscape:zoom="0.68180752"
     inkscape:cx="265.89754"
     inkscape:cy="500.15108"
     inkscape:window-x="0"
     inkscape:window-y="24"
     inkscape:window-maximized="1"
     inkscape:current-layer="g10" /><g
     id="g10"
     inkscape:groupmode="layer"
     inkscape:label="bulb"
     transform="matrix(1.3333333,0,0,-1.3333333,-315.6516,1105.0016)"><g
       id="g1031"
       transform="translate(59.80894)"><g
         id="g12"><g
           clip-path="url(#clipPath18)"
           id="g14"><g
             transform="translate(468.4668,446.207)"
             id="g20"><path
               inkscape:connector-curvature="0"
               id="path22"
               style="fill:#f7f7f7;fill-opacity:1;fill-rule:nonzero;stroke:none"
               d="M 0,0 69.231,3.077 70.77,20 c 0,0 87.692,56.924 73.846,156.924 0,0 -24.616,76.923 -141.539,69.23 0,0 -98.461,-30.768 -76.923,-136.923 0,0 36.923,-72.307 75.384,-87.692 z" /></g><g
             transform="translate(470.0049,441.5918)"
             id="g24"><path
               inkscape:connector-curvature="0"
               id="path26"
               style="fill:#ff4d4d;fill-opacity:1;fill-rule:nonzero;stroke:none"
               d="m 0,0 67.693,7.692 3.077,-60 H 1.539 Z" /></g><g
             transform="translate(471.5439,361.6689)"
             id="g28"><path
               inkscape:connector-curvature="0"
               id="path30"
               style="fill:#ff4d4d;fill-opacity:1;fill-rule:nonzero;stroke:none"
               d="m 0,0 h 71 c 0,0 -9,-39 -16,-40 -7,-1 -44,1 -44,1 0,0 -13,29 -11,39" /></g><g
             transform="translate(472.21,530.3359)"
             id="g32"><path
               inkscape:connector-curvature="0"
               id="path34"
               style="fill:#fff168;fill-opacity:1;fill-rule:nonzero;stroke:none"
               d="m 0,0 c 0,0 7.334,-4.667 2.667,-6.667 -4.667,-2 -3.999,-9.334 -9.333,26 C -12,54.667 -8,92 4.667,94 c 12.667,2 8.667,2 8.667,2 0,0 16,14 23.333,-10 0,0 16.667,26 21.333,14 0,0 14.667,6.667 14.667,-24 0,-30.667 -34,-136 -38.667,-140 L 26.667,-62.667 3.667,-8 C 3.667,-8 3.334,-13.667 -1,-9.667 -5.333,-5.667 0,0 0,0" /></g></g></g><g
         id="g100"><g
           clip-path="url(#clipPath106)"
           id="g102"><g
             transform="translate(472.0249,446.0312)"
             id="g108"><path
               inkscape:connector-curvature="0"
               id="path110"
               d="m 0,0 c 6.9395892,1.2517566 14.107735,1.3986435 21.048244,0.08638665 4.235753,-0.73431222 8.543238,-0.39612126 12.7388,0.41632108 9.40999,1.63657987 18.93262,2.41154717 28.424832,3.38848637 0.918122,0.2641148 4.151189,0.5279881 1.924711,-0.7488006 -8.639321,-4.8304737 -18.852835,-5.8462232 -28.584558,-5.236146 -5.21013,0.4231397 -10.503518,1.062184 -15.676263,-0.060691 C 13.42363,-3.1269811 6.7696914,-2.4552642 0.53799968,-0.59015555 0.12399133,-0.44573992 -0.14108358,-0.50697874 0,0 Z"
               style="fill:#000000;fill-opacity:1;fill-rule:nonzero;stroke:none" /></g><g
             transform="translate(472.8784,364.8525)"
             id="g112"><path
               inkscape:connector-curvature="0"
               id="path114"
               d="m 0,0 c 5.8403941,0.75761746 11.817234,0.71806467 17.640354,-0.17234399 4.617547,-1.02584891 9.306265,-2.05267521 14.070412,-1.65903691 8.334587,0.7479528 16.701825,1.15286993 25.071205,1.17938676 3.516876,0.1850236 7.249336,-0.14417033 10.533357,1.33202539 C 68.287956,-0.24920852 64.719108,-2.1128471 63.527734,-2.546748 55.287567,-5.6685319 46.247945,-5.3506516 37.631462,-4.4077258 32.0476,-3.4772566 26.384633,-2.5067697 20.709389,-3.1926035 14.103998,-3.8737485 7.4163505,-2.7543264 1.1064395,-0.82083203 0.75490148,-0.54683021 -0.29558312,-0.67605563 0,0 Z"
               style="fill:#000000;fill-opacity:1;fill-rule:nonzero;stroke:none" /></g><g
             transform="translate(541.5029,392.4297)"
             id="g116"><path
               inkscape:connector-curvature="0"
               id="path118"
               d="m 0,0 c -1.6706308,-3.0782853 -5.4218347,-4.0776032 -8.5829395,-4.900291 -4.9045115,-1.2005756 -10.0009445,-1.0416282 -14.9539235,-0.2443848 -7.603851,1.079043 -15.226093,-0.5921104 -22.849439,-0.095482 -8.699381,0.1682004 -17.413375,1.5591836 -25.668698,4.325158 1.340075,1.14503254 4.405142,0.36326946 6.339395,0.70891406 7.667457,0.1559137 15.321176,-0.46814119 22.910774,-1.52471216 6.51818,-0.8194834 13.058142,-2.6191772 19.666866,-1.5440808 4.650601,0.829838 9.351238,1.2406951 14.0631818,1.5132305 C -6.1230124,-1.3966485 -2.8673649,-1.4567718 -0.305,0.258 -0.20333333,0.172 -0.10166667,0.086 0,0 Z"
               style="fill:#000000;fill-opacity:1;fill-rule:nonzero;stroke:none" /></g><g
             transform="translate(472.7817,623.5171)"
             id="g120"><path
               inkscape:connector-curvature="0"
               id="path122"
               style="fill:#000000;fill-opacity:1;fill-rule:nonzero;stroke:none"
               d="m 0,0 c -3.168,-1.152 -6.038,-3.072 -8.266,-5.589 -2.224,-2.528 -3.748,-5.607 -4.791,-8.801 -1.023,-3.214 -1.563,-6.569 -1.818,-9.935 -0.247,-3.368 -0.237,-6.758 -0.002,-10.131 0.446,-6.752 1.589,-13.443 3.027,-20.055 1.458,-6.613 3.258,-13.147 5.265,-19.616 2.016,-6.468 4.231,-12.872 6.596,-19.222 2.349,-6.354 4.827,-12.662 7.419,-18.923 2.568,-6.271 5.252,-12.495 8.028,-18.676 1.377,-3.095 2.782,-6.178 4.213,-9.247 1.432,-3.063 2.893,-6.137 4.389,-9.138 l 0.138,-0.277 0.075,-0.496 0.107,-0.716 c 0.012,-0.256 0.125,-0.426 0.172,-0.645 0.042,-0.228 0.156,-0.379 0.237,-0.555 0.067,-0.193 0.199,-0.309 0.299,-0.452 0.084,-0.163 0.25,-0.233 0.363,-0.36 0.117,-0.124 0.304,-0.176 0.442,-0.287 0.17,-0.074 0.357,-0.135 0.538,-0.211 0.214,-0.033 0.408,-0.098 0.631,-0.126 0.233,-0.009 0.451,-0.056 0.695,-0.048 0.247,0.015 0.485,-0.006 0.74,0.029 0.254,0.039 0.505,0.046 0.764,0.102 0.258,0.06 0.517,0.095 0.775,0.168 0.519,0.135 1.032,0.311 1.541,0.51 0.505,0.21 0.992,0.449 1.467,0.711 l 4.422,2.429 -1.287,-4.775 -0.185,-0.689 c -0.035,-0.117 -0.089,-0.254 -0.135,-0.38 -0.054,-0.134 -0.085,-0.242 -0.16,-0.396 -0.077,-0.155 -0.158,-0.308 -0.243,-0.457 -0.092,-0.161 -0.28,-0.399 -0.437,-0.576 -0.061,-0.08 -0.293,-0.276 -0.456,-0.385 -0.091,-0.064 -0.185,-0.121 -0.279,-0.174 -0.074,-0.048 -0.328,-0.147 -0.504,-0.189 -0.406,-0.091 -0.759,-0.139 -1.3,0.026 -0.248,0.076 -0.485,0.194 -0.684,0.33 -0.151,0.114 -0.289,0.245 -0.416,0.391 -0.123,0.142 -0.243,0.316 -0.318,0.456 -0.053,0.109 -0.102,0.224 -0.143,0.34 -0.086,0.24 -0.137,0.49 -0.143,0.643 -0.015,0.177 -0.019,0.365 -0.007,0.533 0.018,0.147 0.042,0.293 0.074,0.438 0.061,0.306 0.169,0.512 0.282,0.761 0.117,0.228 0.256,0.411 0.403,0.605 0.147,0.18 0.305,0.318 0.469,0.467 0.167,0.154 0.323,0.234 0.492,0.346 0.346,0.228 0.643,0.308 0.976,0.44 l 3.329,1.32 -0.562,-3.524 -0.343,-2.148 -0.624,-1.999 -0.786,-1.833 -0.844,-1.699 -0.819,-1.606 -0.726,-1.545 -0.568,-1.507 -0.357,-1.476 -4.107,1.08 2.422,6.543 3.994,-1.476 -2.421,-6.542 -3.971,1.515 12.08,31.498 c 0.994,2.631 2.049,5.235 2.976,7.896 l 2.86,7.95 5.718,15.9 2.873,7.945 1.444,3.97 1.277,3.968 2.557,8.009 c 0.45,1.328 0.802,2.684 1.173,4.036 l 1.108,4.054 1.109,4.056 c 0.374,1.351 0.75,2.702 1.043,4.073 l 1.924,8.191 c 0.684,2.722 1.207,5.48 1.743,8.235 l 1.624,8.265 -0.012,-0.104 c 0.157,1.653 0.343,3.299 0.56,4.935 l 0.705,4.885 0.72,4.854 c 0.228,1.615 0.432,3.229 0.612,4.843 l 0.227,2.422 0.151,2.421 0.06,2.42 -0.048,2.416 -0.17,2.406 -0.305,2.389 -0.451,2.365 -0.602,2.33 0.02,-0.059 c -0.305,0.631 -0.563,1.29 -0.911,1.898 l -0.56,0.889 -0.28,0.445 -0.334,0.404 -0.665,0.812 C 67.083,4.586 66.807,4.806 66.56,5.053 66.076,5.562 65.499,5.962 64.933,6.377 64.375,6.801 63.728,7.094 63.126,7.455 62.47,7.708 61.85,8.055 61.166,8.238 60.492,8.45 59.818,8.661 59.115,8.767 58.424,8.931 57.716,8.985 57.009,9.047 56.303,9.135 55.588,9.065 54.878,9.085 54.17,9.024 53.458,8.976 52.753,8.867 51.358,8.623 49.939,8.292 48.642,7.762 48.313,7.63 47.986,7.524 47.656,7.374 L 46.664,6.885 46.168,6.641 C 46.035,6.584 45.865,6.467 45.714,6.382 L 44.784,5.83 43.853,5.278 C 43.55,5.083 43.266,4.859 42.971,4.651 42.4,4.212 41.773,3.843 41.247,3.347 40.705,2.87 40.15,2.407 39.617,1.92 L 38.111,0.361 c -0.939,-1.097 -1.866,-2.21 -2.657,-3.424 L 34.841,-3.959 34.292,-4.896 C 33.926,-5.522 33.543,-6.137 33.24,-6.797 32.561,-8.079 32.006,-9.42 31.459,-10.764 l -0.716,-2.057 c -0.232,-0.687 -0.407,-1.394 -0.613,-2.09 -0.215,-0.694 -0.35,-1.41 -0.512,-2.118 -0.17,-0.707 -0.298,-1.422 -0.409,-2.141 -0.259,-1.43 -0.409,-2.878 -0.536,-4.325 -0.041,-0.725 -0.105,-1.449 -0.128,-2.175 l -0.035,-2.178 -0.001,-0.012 -0.004,-0.071 -0.11,-1.781 c 0.008,-0.597 -0.009,-1.193 0.017,-1.789 0.047,-0.595 0.068,-1.192 0.137,-1.784 0.085,-0.591 0.147,-1.185 0.259,-1.771 0.128,-0.582 0.231,-1.171 0.378,-1.747 0.166,-0.572 0.31,-1.151 0.492,-1.716 0.204,-0.558 0.39,-1.123 0.608,-1.673 0.244,-0.54 0.471,-1.087 0.726,-1.62 0.284,-0.516 0.554,-1.042 0.847,-1.551 l 0.971,-1.467 c 0.367,-0.454 0.719,-0.92 1.094,-1.365 0.409,-0.412 0.801,-0.841 1.218,-1.241 0.448,-0.363 0.881,-0.748 1.337,-1.097 0.484,-0.308 0.954,-0.64 1.444,-0.933 0.516,-0.249 1.022,-0.517 1.54,-0.756 l 1.616,-0.57 -0.913,-0.128 c 1.535,1.021 2.918,2.24 4.052,3.652 1.133,1.414 2.008,3.016 2.615,4.722 1.219,3.422 1.366,7.205 0.9,10.902 -0.469,3.711 -1.504,7.374 -2.833,10.926 -0.667,1.777 -1.412,3.528 -2.219,5.253 -0.404,0.87 -0.81,1.691 -1.251,2.574 l -0.125,0.25 -0.188,0.29 -0.376,0.58 -0.751,1.16 c -0.258,0.381 -0.481,0.786 -0.765,1.148 l -0.884,1.064 -0.88,1.065 -0.442,0.53 -0.5,0.478 -1.992,1.917 -2.19,1.693 c -0.702,0.602 -1.531,1.025 -2.306,1.525 -0.784,0.487 -1.556,0.997 -2.409,1.362 C 26.787,0.561 25.961,1 25.121,1.354 l -2.543,0.925 c -0.405,0.171 -0.87,0.294 -1.35,0.406 L 19.815,3.04 18.402,3.396 18.357,3.407 18.335,3.412 C 18.162,3.447 18.547,3.371 18.501,3.379 L 18.425,3.384 18.273,3.396 17.97,3.419 C 17.769,3.431 17.566,3.463 17.365,3.463 15.755,3.476 14.198,3.014 12.804,2.18 11.426,1.312 10.238,0.071 9.316,-1.364 8.417,-2.818 7.786,-4.458 7.479,-6.134 L 7.5,-5.951 c -0.134,-2.195 -0.236,-4.39 -0.296,-6.584 l -0.06,-3.287 0.021,-3.284 0.114,-3.278 0.219,-3.267 c 0.113,-1.084 0.204,-2.172 0.335,-3.254 l 0.453,-3.235 c 0.195,-1.068 0.364,-2.145 0.581,-3.211 0.245,-1.057 0.462,-2.124 0.73,-3.177 0.299,-1.042 0.569,-2.097 0.89,-3.133 0.356,-1.024 0.682,-2.062 1.061,-3.078 0.414,-1.002 0.801,-2.017 1.238,-3.011 0.474,-0.973 0.926,-1.961 1.42,-2.928 l 1.605,-2.833 1.787,-2.724 -1.221,0.35 1.286,0.609 c 0.227,0.087 0.414,0.225 0.598,0.364 l 0.568,0.404 c 0.196,0.129 0.385,0.265 0.528,0.445 l 0.476,0.5 c 0.167,0.159 0.321,0.33 0.431,0.536 l 0.374,0.582 c 0.141,0.186 0.237,0.398 0.32,0.619 l 0.275,0.65 c 0.109,0.209 0.146,0.452 0.211,0.682 l 0.184,0.698 c 0.066,0.231 0.076,0.482 0.117,0.722 l 0.104,0.73 c 0.036,0.495 0.054,0.997 0.084,1.496 l 0.009,0.155 0.033,0.108 0.996,3.21 c 0.264,1.088 0.505,2.184 0.76,3.277 0.188,1.106 0.344,2.218 0.519,3.329 0.104,1.118 0.182,2.241 0.275,3.363 l 0.04,3.38 -0.187,3.38 -0.399,3.369 -0.608,3.342 -0.005,0.027 -0.002,0.016 -0.206,1.491 c -0.086,0.494 -0.205,0.982 -0.305,1.473 -0.108,0.491 -0.272,0.967 -0.404,1.451 -0.136,0.484 -0.337,0.947 -0.502,1.421 -0.732,1.874 -1.718,3.65 -2.879,5.304 -1.159,1.658 -2.493,3.196 -3.931,4.63 -1.434,1.439 -2.961,2.788 -4.522,4.097 L 10.634,-0.04 10.038,0.298 C 9.836,0.405 9.647,0.54 9.436,0.624 9.003,0.765 8.593,0.983 8.143,1.065 L 7.471,1.2 C 7.25,1.259 7.02,1.266 6.791,1.274 L 6.104,1.308 C 5.875,1.331 5.645,1.283 5.415,1.274 4.955,1.243 4.495,1.208 4.04,1.106 L 3.356,0.98 C 3.126,0.948 2.906,0.869 2.681,0.815 2.233,0.687 1.782,0.597 1.336,0.438 Z m -0.13,0.378 1.339,0.447 c 0.44,0.16 0.912,0.259 1.366,0.392 0.231,0.056 0.456,0.137 0.692,0.173 l 0.701,0.132 c 0.464,0.107 0.94,0.147 1.418,0.181 0.239,0.011 0.475,0.06 0.716,0.039 L 6.823,1.711 C 7.063,1.703 7.304,1.696 7.539,1.636 L 8.25,1.498 C 8.726,1.412 9.163,1.187 9.622,1.037 9.846,0.948 10.046,0.81 10.259,0.698 L 10.89,0.344 10.896,0.34 10.91,0.329 c 3.149,-2.604 6.179,-5.419 8.624,-8.747 1.215,-1.665 2.261,-3.465 3.05,-5.381 0.18,-0.486 0.395,-0.96 0.545,-1.456 0.147,-0.497 0.324,-0.987 0.445,-1.492 0.114,-0.505 0.246,-1.008 0.344,-1.518 l 0.242,-1.539 -0.007,0.043 0.694,-3.372 0.517,-3.409 0.303,-3.441 0.072,-3.459 c -0.057,-1.152 -0.099,-2.307 -0.171,-3.461 -0.141,-1.146 -0.265,-2.298 -0.422,-3.445 -0.225,-1.134 -0.437,-2.274 -0.674,-3.408 l -0.923,-3.354 0.043,0.262 c -0.013,-0.544 -0.015,-1.086 -0.038,-1.631 l -0.088,-0.824 c -0.038,-0.275 -0.043,-0.55 -0.108,-0.824 l -0.186,-0.823 c -0.068,-0.274 -0.107,-0.553 -0.225,-0.817 l -0.309,-0.803 c -0.096,-0.271 -0.208,-0.535 -0.37,-0.779 l -0.448,-0.749 c -0.136,-0.259 -0.321,-0.484 -0.522,-0.696 l -0.582,-0.655 c -0.184,-0.232 -0.409,-0.412 -0.642,-0.583 l -0.69,-0.528 c -0.228,-0.18 -0.459,-0.355 -0.718,-0.47 l -1.519,-0.781 -0.714,-0.367 -0.507,0.717 -1.961,2.777 -1.776,2.902 c -0.55,0.991 -1.058,2.006 -1.588,3.01 -0.492,1.021 -0.932,2.067 -1.4,3.101 -0.432,1.048 -0.81,2.118 -1.217,3.177 -0.373,1.07 -0.692,2.158 -1.04,3.238 -0.316,1.087 -0.581,2.188 -0.873,3.283 -0.262,1.101 -0.477,2.212 -0.717,3.318 -0.215,1.111 -0.375,2.229 -0.56,3.345 -0.16,1.118 -0.279,2.24 -0.419,3.361 -0.119,1.121 -0.199,2.245 -0.3,3.369 l -0.191,3.372 c -0.085,2.25 -0.122,4.497 -0.098,6.743 0.04,2.243 0.124,4.483 0.238,6.719 l 0.005,0.091 0.016,0.093 c 0.37,2.15 1.141,4.204 2.269,6.065 1.155,1.843 2.686,3.503 4.592,4.724 1.919,1.196 4.231,1.854 6.511,1.822 0.284,-0.001 0.565,-0.038 0.848,-0.057 l 0.422,-0.037 0.212,-0.019 0.105,-0.01 0.21,-0.041 0.023,-0.006 0.044,-0.011 1.412,-0.359 1.412,-0.36 c 0.467,-0.11 0.94,-0.235 1.437,-0.433 l 2.934,-1.068 c 0.947,-0.401 1.842,-0.877 2.764,-1.314 0.935,-0.409 1.79,-0.969 2.654,-1.509 0.859,-0.549 1.754,-1.046 2.529,-1.715 0.799,-0.636 1.608,-1.259 2.393,-1.908 l 2.181,-2.153 0.543,-0.539 0.485,-0.593 0.962,-1.194 0.958,-1.195 c 0.309,-0.406 0.555,-0.858 0.836,-1.284 l 0.813,-1.299 0.406,-0.65 0.203,-0.325 0.199,-0.403 c 0.419,-0.859 0.852,-1.79 1.242,-2.693 0.794,-1.816 1.524,-3.662 2.175,-5.541 1.297,-3.755 2.299,-7.649 2.703,-11.667 0.399,-3.999 0.159,-8.2 -1.337,-12.089 -0.743,-1.935 -1.807,-3.762 -3.148,-5.348 -1.343,-1.585 -2.95,-2.919 -4.678,-4.004 l -0.474,-0.298 -0.44,0.169 -1.841,0.704 c -0.59,0.287 -1.165,0.608 -1.744,0.914 -0.554,0.348 -1.082,0.739 -1.62,1.108 -0.509,0.408 -0.987,0.853 -1.478,1.28 -0.457,0.46 -0.885,0.949 -1.325,1.423 -0.404,0.503 -0.781,1.027 -1.171,1.54 -0.353,0.537 -0.681,1.089 -1.019,1.633 -0.305,0.562 -0.583,1.138 -0.874,1.706 -0.26,0.581 -0.491,1.176 -0.736,1.763 -0.218,0.596 -0.401,1.204 -0.602,1.805 -0.179,0.608 -0.317,1.227 -0.476,1.839 -0.14,0.617 -0.234,1.243 -0.351,1.864 -0.101,0.623 -0.153,1.254 -0.234,1.88 -0.063,0.628 -0.077,1.26 -0.116,1.89 -0.017,0.632 0.01,1.264 0.013,1.896 0.035,0.632 0.099,1.263 0.148,1.893 l -0.004,-0.082 0.071,2.242 c 0.036,0.746 0.113,1.49 0.168,2.234 0.153,1.486 0.331,2.971 0.621,4.437 0.125,0.737 0.27,1.469 0.456,2.193 0.181,0.725 0.317,1.461 0.544,2.174 0.216,0.715 0.4,1.44 0.643,2.147 l 0.749,2.114 c 0.571,1.384 1.152,2.764 1.859,4.086 0.319,0.679 0.718,1.314 1.1,1.959 l 0.574,0.966 0.64,0.926 c 0.826,1.252 1.795,2.405 2.777,3.537 l 1.56,1.626 c 0.551,0.512 1.123,0.999 1.684,1.499 0.546,0.52 1.195,0.913 1.788,1.375 0.305,0.219 0.601,0.453 0.915,0.66 l 0.965,0.583 0.966,0.584 c 0.171,0.096 0.302,0.195 0.505,0.29 l 0.494,0.248 0.988,0.496 c 0.337,0.158 0.71,0.288 1.064,0.433 1.431,0.595 2.898,0.946 4.398,1.222 0.75,0.122 1.512,0.181 2.269,0.25 0.762,-0.012 1.525,0.063 2.286,-0.023 0.762,-0.059 1.525,-0.115 2.274,-0.284 0.759,-0.11 1.494,-0.331 2.228,-0.557 0.744,-0.196 1.43,-0.563 2.148,-0.84 C 64.414,8.343 65.123,8.022 65.744,7.562 66.371,7.11 67.008,6.67 67.551,6.114 67.828,5.844 68.132,5.6 68.384,5.307 l 0.744,-0.891 0.371,-0.447 0.314,-0.487 0.625,-0.977 c 0.386,-0.667 0.681,-1.382 1.028,-2.071 l 0.01,-0.019 0.011,-0.04 0.68,-2.416 0.522,-2.454 0.371,-2.479 0.229,-2.493 0.102,-2.497 -0.009,-2.495 -0.102,-2.488 -0.179,-2.477 c -0.148,-1.647 -0.321,-3.288 -0.518,-4.923 l -0.618,-4.886 c -0.211,-1.622 -0.406,-3.243 -0.588,-4.861 -0.174,-1.617 -0.318,-3.232 -0.431,-4.845 l -0.004,-0.052 -0.009,-0.052 -1.431,-8.353 c -0.471,-2.787 -0.931,-5.576 -1.552,-8.335 l -1.74,-8.304 c -0.273,-1.389 -0.63,-2.757 -0.986,-4.127 l -1.054,-4.11 -1.053,-4.113 c -0.352,-1.37 -0.687,-2.746 -1.119,-4.094 l -2.452,-8.129 c -0.418,-1.367 -0.796,-2.683 -1.248,-4.093 l -1.379,-3.993 -2.773,-7.98 -5.572,-15.951 -2.787,-7.976 c -0.902,-2.667 -1.939,-5.295 -2.911,-7.941 l -11.839,-31.715 -3.972,1.515 2.415,6.546 3.994,-1.476 -2.414,-6.545 -4.107,1.081 0.497,2.075 0.717,1.913 0.825,1.762 0.839,1.649 0.779,1.574 0.653,1.525 0.465,1.488 c 0.068,0.488 0.146,0.974 0.232,1.46 l 2.767,-2.205 c 0.002,-0.022 -0.071,-0.017 -0.02,-0.012 0.02,0.006 -10e-4,0.017 0.041,0.035 0.035,0.02 0.044,0.046 0.078,0.083 0.047,0.041 0.062,0.086 0.098,0.15 0.052,0.077 0.049,0.127 0.092,0.248 0.015,0.056 0.023,0.112 0.022,0.169 0.009,0.077 0.013,0.173 0.002,0.259 -0.013,0.059 -0.031,0.224 -0.087,0.376 -0.028,0.074 -0.061,0.145 -0.1,0.211 -0.051,0.101 -0.137,0.243 -0.232,0.348 -0.097,0.112 -0.207,0.207 -0.327,0.288 -0.156,0.12 -0.35,0.223 -0.555,0.283 -0.455,0.113 -0.718,0.101 -1.034,0.028 -0.134,-0.027 -0.338,-0.131 -0.376,-0.147 -0.058,-0.025 -0.116,-0.056 -0.169,-0.091 -0.094,-0.05 -0.239,-0.208 -0.247,-0.211 -0.05,-0.03 -0.111,-0.135 -0.111,-0.135 0,0.013 0.005,0.021 0.013,0.028 0.01,0.008 0.028,0.078 0.043,0.113 0.017,0.047 0.035,0.079 0.052,0.137 l 0.103,0.37 3.134,-2.345 c -0.644,-0.351 -1.303,-0.666 -1.979,-0.941 -0.68,-0.264 -1.376,-0.494 -2.093,-0.675 -0.356,-0.094 -0.73,-0.153 -1.095,-0.228 -0.366,-0.072 -0.755,-0.096 -1.132,-0.142 -0.377,-0.044 -0.781,-0.026 -1.17,-0.036 -0.392,-0.003 -0.808,0.061 -1.21,0.097 -0.407,0.055 -0.828,0.172 -1.239,0.266 -0.414,0.149 -0.832,0.302 -1.235,0.496 -0.391,0.244 -0.808,0.443 -1.158,0.755 -0.343,0.314 -0.726,0.602 -0.986,0.985 -0.282,0.366 -0.574,0.734 -0.749,1.137 -0.199,0.397 -0.412,0.799 -0.509,1.201 -0.106,0.397 -0.276,0.815 -0.308,1.201 l -0.161,1.177 0.212,-0.773 c -1.513,3.096 -2.948,6.175 -4.372,9.281 -1.419,3.104 -2.81,6.218 -4.173,9.344 -2.708,6.262 -5.292,12.575 -7.775,18.929 -4.908,12.729 -9.312,25.665 -12.886,38.844 -1.779,6.589 -3.36,13.236 -4.616,19.949 -1.229,6.715 -2.16,13.503 -2.385,20.338 -0.102,3.414 -0.089,6.838 0.24,10.246 0.326,3.402 0.94,6.796 2.044,10.043 1.093,3.237 2.666,6.372 4.965,8.943 2.3,2.561 5.261,4.504 8.493,5.651" /></g><g
             transform="translate(468.8242,464.542)"
             id="g124"><path
               inkscape:connector-curvature="0"
               id="path126"
               d="M 0,0 C 1.590838,-35.38982 1.7994035,-70.860913 4.0545937,-106.20231 5.6013039,-118.90764 8.8914993,-131.65907 15.385,-142.715 c 0.704503,-14.97903 18.863529,-23.4719 31.086,-15.282 11.269267,7.18344 10.687376,21.65468 17.967,31.481 5.634772,17.22526 6.773838,33.996792 5.681594,51.76932 C 69.382982,-48.288997 69.260421,-21.820108 68.878,4.644 91.063418,13.967131 104.60281,35.602261 118.91625,53.873297 135.29,74.053823 145.02423,99.240224 145.79228,125.29342 148.05969,156.25278 133.91902,188.28098 107.567,205.292 77.457689,224.30612 39.799571,232.47888 4.6255166,226.15267 -32.161937,219.54379 -61.078284,189.08545 -71.43475,153.9085 -80.021867,127.94199 -80.578466,98.467784 -67.267,73.917 -51.976186,43.860959 -27.018147,19.633881 0,0 Z m -0.396,-0.212 c -34.424978,23.585292 -67.455093,55.254886 -78.27,96.882 -6.532066,31.0499 2.19267,64.35902 19.330002,90.61864 20.318195,31.46369 59.30699817,46.95302 95.871115,42.74723 C 73.610836,226.24713 114.19462,212.36532 134.647,179.025 154.71609,144.99232 151.04124,100.07462 131.59075,66.652875 115.70963,43.776518 100.31166,18.88778 76.364125,3.63475 68.705438,4.95701 74.604831,-1.9570635 73.016966,-9.4799222 73.271931,-38.6256 74.659822,-67.803485 74.572375,-96.921625 c -0.369974,-14.346895 -7.121018,-35.574165 -12.25925,-42.606245 -2.129271,-16.19302 -18.617943,-30.08647 -35.04375,-23.96438 -15.665324,6.68053 -14.527903,22.04404 -21.5055,34.54189 -8.0054865,25.91026 -4.5971125,53.338918 -5.78024408,80.031236 C -0.17177042,-32.683652 -0.27104551,-16.447722 -0.396,-0.212 Z"
               style="fill:#000000;fill-opacity:1;fill-rule:nonzero;stroke:none" /></g><g
             transform="translate(483.5439,324.5361)"
             id="g128"><path
               inkscape:connector-curvature="0"
               id="path130"
               d="m 0,0 c 3.349953,1.2904095 7.0124259,1.7188522 10.584757,1.5390879 2.873376,-0.3534668 5.678209,-1.44645889 8.616524,-1.09450978 3.051874,0.26328043 6.009891,1.20311598 9.086619,1.27673238 5.396137,0.5636313 10.921134,0.02677 16.09286,-1.6148398 1.011699,-0.86903888 -1.774037,-0.98049238 -2.374924,-1.3005254 -4.64793,-1.1041043 -9.476179,-1.4333587 -14.225828,-0.885741 -4.074785,0.158074 -8.050496,1.85296722 -12.158106,1.10017656 C 13.032794,-1.4642018 10.446992,-2.2606662 7.7802188,-1.9522188 5.1360161,-1.7915613 2.4681867,-1.3972276 0,-0.4 0,-0.26666667 0,-0.13333333 0,0 Z"
               style="fill:#000000;fill-opacity:1;fill-rule:nonzero;stroke:none" /></g><g
             transform="translate(507.21,445.1357)"
             id="g132"><path
               inkscape:connector-curvature="0"
               id="path134"
               d="m 0,0 c -3.7750575,-0.90272404 -7.6441081,-1.2892662 -11.499,-1.671 -0.649445,5.2111144 -0.943388,10.4726147 -0.678041,15.721362 0.09894,3.519545 0.291688,7.037458 0.75682,10.529744 0.04341,0.391298 0.08681,0.782596 0.130221,1.173894 3.8424655,-0.540708 7.7482745,-0.847085 11.618,-0.413 C 0.71604359,21.336638 1.7599507,17.390343 1.6069717,13.341625 1.5523876,8.8787251 1.2387784,4.3805208 0.156,0.038 0.104,0.02533333 0.052,0.01266667 0,0 Z m -0.259,0.448 c -1.2658809,4.8018156 -1.6821858,9.793177 -1.7376646,14.74571 0.00695,3.134103 0.6657385,6.213618 0.9186646,9.32829 0.12950331,-0.20913 0.90002469,-0.715674 0.5897649,-0.720766 -3.2812051,0.29162 -6.5850035,0.06475 -9.8437649,-0.363234 0.365,0.37 0.73,0.74 1.095,1.11 0.6543504,-4.021294 0.9129026,-8.089077 1.132,-12.153 C -7.8297635,8.340969 -7.9807135,4.271593 -8.285,0.224 -8.8566667,0.788 -9.4283333,1.352 -10,1.916 -6.7298268,1.6079841 -3.4611536,1.1953647 -0.259,0.448 Z"
               style="fill:#000000;fill-opacity:1;fill-rule:nonzero;stroke:none" /></g><g
             transform="translate(368.3452,568.8667)"
             id="g136"><path
               inkscape:connector-curvature="0"
               id="path138"
               d="m 0,0 c -7.6652223,0.58833578 -15.212762,2.2185503 -22.626675,4.1999103 -5.017987,1.431497 -9.986351,3.0306723 -15.005372,4.4586366 -1.373671,-0.1288285 0.806368,1.2269833 -0.254953,1.6954531 1.426176,-0.938859 3.233507,-1.0802197 4.812587,-1.6998267 4.614297,-1.3698229 9.451972,-1.5497736 14.177326,-2.3055357 C -13.422926,5.3276708 -8.100757,3.5698996 -2.9652077,1.436517 -1.9601037,0.99322872 -0.97075357,0.51418657 0,0 Z m -0.989,0.071 c -6.3030444,0.15691882 -12.570085,1.239233 -18.633921,2.9351081 -4.743648,1.5222499 -9.294742,3.7110429 -14.243096,4.5357418 -1.70984,0.3794184 -3.495006,0.4469332 -5.167329,0.9606622 -1.650714,0.9753177 -0.267122,3.1387319 1.40326,2.5936049 3.917417,0.0363 7.753212,-0.938009 11.57452,-1.684284 C -17.996655,7.6718534 -10.159247,4.934255 -2.7179554,1.3928328 -2.1071527,1.0178504 -0.22365762,0.29233668 -0.41683931,0.07169776 -0.60755954,0.07146517 -0.79827977,0.07123259 -0.989,0.071 Z"
               style="fill:#000000;fill-opacity:1;fill-rule:nonzero;stroke:none" /></g><g
             transform="translate(391.8794,653.0811)"
             id="g140"><path
               inkscape:connector-curvature="0"
               id="path142"
               d="m 0,0 c -6.7549798,3.8146902 -12.97912,8.4941226 -19.032128,13.326096 -4.634695,3.846831 -9.076101,7.929327 -13.779696,11.691328 -1.242644,0.392453 0.992058,0.575723 0.441824,1.378576 0.250414,-1.169549 1.153186,-1.427098 2.205,-2.487875 3.515364,-3.123797 7.512594,-5.619743 11.588242,-7.936677 C -13.09512,12.738184 -8.2819617,8.4993106 -3.71675,4.0975156 -2.409431,2.7944915 -1.1578174,1.4380026 0,0 Z m -0.945,0.532 c -5.7481922,2.7546516 -11.072904,6.3411674 -16.08898,10.257386 -4.165681,3.466676 -7.69553,7.672766 -12.216729,10.716459 -1.325046,1.059848 -2.902963,1.805048 -4.181965,2.901051 -1.399996,0.855882 -1.424002,3.600156 0.690315,3.134213 2.940455,-0.918912 5.474646,-2.793928 8.002359,-4.501109 5.185593,-3.615004 10.127459,-7.582466 14.643632,-12.009775 C -6.5793824,7.6228938 -3.1782298,4.0743395 -0.185,0.192 c -0.25333333,0.11333333 -0.50666667,0.22666667 -0.76,0.34 z"
               style="fill:#000000;fill-opacity:1;fill-rule:nonzero;stroke:none" /></g><g
             transform="translate(458.2363,699.3994)"
             id="g144"><path
               inkscape:connector-curvature="0"
               id="path146"
               d="m 0,0 c -4.0560555,10.300391 -7.0939288,20.972317 -9.8802324,31.675594 -1.7449416,7.084968 -3.3142376,14.220612 -5.3565216,21.227295 -0.4778,1.096414 -0.686424,1.211232 0.513754,1.198111 0.64582,0.779458 -0.258493,-1.092783 0.124522,-1.063334 1.500141,-7.163216 3.848282,-14.111609 6.6464143,-20.865247 C -4.6539838,23.79538 -2.5885497,14.986278 -0.88494189,6.1645908 -0.503738,4.122667 -0.2327517,2.0633944 0,0 Z m -0.566,1.431 c -3.6955612,7.9052301 -6.5256672,16.201317 -8.864127,24.600789 -1.743481,7.095995 -2.710561,14.38881 -5.127855,21.312494 -0.532182,2.141142 -1.713162,4.131119 -2.027143,6.307467 -0.735831,2.475256 2.587635,3.39901 3.291172,0.913109 3.203803,-6.025316 4.8656475,-12.709681 6.8470624,-19.20025 C -3.5909704,25.03007 -1.6100405,14.451334 -0.38815894,3.8017278 -0.46247449,3.2940108 0.19116978,-0.00575172 -0.29902976,0.88577113 -0.38801984,1.0675141 -0.47700992,1.249257 -0.566,1.431 Z"
               style="fill:#000000;fill-opacity:1;fill-rule:nonzero;stroke:none" /></g><g
             transform="translate(640.0029,568.3242)"
             id="g148"><path
               inkscape:connector-curvature="0"
               id="path150"
               d="m 0,0 c 10.769032,5.4734678 22.511924,9.051581 34.494732,10.557385 1.479945,-0.01481 4.280182,0.765984 4.423827,-1.4088245 C 37.346989,6.6344787 33.48155,7.8063014 30.98881,6.6397596 25.580351,5.4674215 20.67258,2.7220631 15.242185,1.622821 10.002144,0.48321281 4.6586651,-0.39526646 -0.717,-0.385 -0.478,-0.25666667 -0.239,-0.12833333 0,0 Z m -0.885,-0.458 c 6.0534118,3.0807893 12.614827,5.1140577 19.266428,6.4161059 5.28124,0.7621963 10.680233,1.0389311 15.756624,2.8268074 1.171769,-0.034019 3.255985,2.0633817 2.817056,-0.079727 C 37.639655,7.8347859 34.14126,7.7741703 33.10463,7.1432849 24.97093,4.6280345 16.805635,2.1202026 8.3863466,0.73782815 5.3182859,0.18766485 2.2270172,-0.25533142 -0.885,-0.458 Z"
               style="fill:#000000;fill-opacity:1;fill-rule:nonzero;stroke:none" /></g><g
             transform="translate(616.2764,652.9233)"
             id="g152"><path
               inkscape:connector-curvature="0"
               id="path154"
               d="m 0,0 c 7.6538038,9.3973881 16.8236,17.559957 26.98642,24.155523 1.665351,0.954325 3.318674,2.065027 5.154887,2.617243 2.610024,-0.147529 1.486587,-3.257873 -0.271339,-3.887386 C 26.636989,19.797208 22.301899,15.490029 17.933146,11.328554 12.515883,6.6519743 6.4414154,2.7354709 0.02606306,-0.42102078 -0.85291353,-0.82224291 -0.09654617,-0.20430329 0,0 Z m -0.693,-0.842 c 4.9564949,5.8528117 10.836506,10.922257 17.234874,15.135552 4.650502,2.806868 9.424657,5.491186 13.445489,9.191038 0.883276,0.989893 2.399942,2.704613 2.128993,0.54423 C 29.807573,22.655161 27.99384,20.584978 25.884272,18.93047 17.569178,11.655211 8.9353768,4.6398873 -0.693,-0.842 Z"
               style="fill:#000000;fill-opacity:1;fill-rule:nonzero;stroke:none" /></g><g
             transform="translate(543.4053,701.9316)"
             id="g156"><path
               inkscape:connector-curvature="0"
               id="path158"
               d="m 0,0 c 0.97911813,10.531682 2.952069,20.96291 5.5462383,31.211061 1.9861066,6.934292 3.8333074,13.969786 6.8824057,20.530705 0.506213,1.476171 2.42972,4.235241 3.798278,2.026656 C 16.988323,51.53854 15.437817,49.49896 14.909463,47.410629 12.518564,40.780833 11.275175,33.83518 9.843127,26.958102 7.837641,18.620318 4.9612248,10.500918 1.6361616,2.6029343 1.1920085,1.7355596 0.23240518,-0.76041141 -0.06718042,-0.83350593 -0.04478695,-0.55567062 -0.02239347,-0.27783531 0,0 Z m -0.179,-1.532 c 1.05554896,9.0459288 3.289068,17.921719 5.935876,26.62155 2.3823484,7.056592 5.625242,13.82193 7.373933,21.089624 0.382494,2.321355 1.693187,4.878418 1.182191,6.618826 0.07613,-0.590035 1.981404,0.186262 0.884,-1.034 C 13.341318,45.653591 11.95791,39.408546 10.443221,33.2058 7.8082237,22.381309 4.7050893,11.654257 0.88398291,1.1859939 0.54025761,0.27587287 0.17769593,-0.62693097 -0.179,-1.532 Z"
               style="fill:#000000;fill-opacity:1;fill-rule:nonzero;stroke:none" /></g><g
             transform="translate(501.8809,302.4033)"
             id="g160"><path
               inkscape:connector-curvature="0"
               id="path162"
               d="m 0,0 c 6.7052454,-7.9280596 13.176914,-18.411162 10.489529,-29.189692 -1.467152,-5.534186 -9.79646233,-12.207753 -14.4892252,-6.411378 -3.1972281,6.361371 -0.5089349,13.919142 1.6429356,20.197879 C -0.62111269,-8.61415 7.8165768,-2.0755338 13.515019,-8.9719507 18.543677,-16.066211 18.522946,-25.43452 18.50588,-33.821898 17.911189,-53.75438 13.775358,-73.463376 7.649,-92.396 c 0.4423344,9.6054 2.548405,19.062482 3.610356,28.619906 1.970073,15.607868 4.702882,31.459855 2.70351,47.194274 0.06902,6.059111 -7.2836116,12.5705829 -11.9591717,6.243467 -4.4216889,-5.683634 -6.157448,-13.654819 -4.7572109,-20.699843 2.27055605,-7.684237 11.0520086,0.507845 10.4304116,5.672152 0.9903616,9.034151 -4.2236485,16.9622691 -7.58160995,24.89196997 l -0.07524543,0.37437044 z"
               style="fill:#000000;fill-opacity:1;fill-rule:nonzero;stroke:none" /></g></g></g></g></g></svg>