<?xml version="1.0" encoding="UTF-8" standalone="no"?>
<!-- Created with Inkscape (http://www.inkscape.org/) -->

<svg
   xmlns:dc="http://purl.org/dc/elements/1.1/"
   xmlns:cc="http://creativecommons.org/ns#"
   xmlns:rdf="http://www.w3.org/1999/02/22-rdf-syntax-ns#"
   xmlns:svg="http://www.w3.org/2000/svg"
   xmlns="http://www.w3.org/2000/svg"
   xmlns:sodipodi="http://sodipodi.sourceforge.net/DTD/sodipodi-0.dtd"
   xmlns:inkscape="http://www.inkscape.org/namespaces/inkscape"
   version="1.1"
   id="svg2"
   xml:space="preserve"
   width="1029.8149"
   height="549.56952"
   viewBox="0 0 1029.815 549.56952"
   sodipodi:docname="butterfly.svg"
   inkscape:version="0.92.2 5c3e80d, 2017-08-06"><metadata
     id="metadata8"><rdf:RDF><cc:Work
         rdf:about=""><dc:format>image/svg+xml</dc:format><dc:type
           rdf:resource="http://purl.org/dc/dcmitype/StillImage" /><dc:title></dc:title></cc:Work></rdf:RDF></metadata><defs
     id="defs6"><clipPath
       clipPathUnits="userSpaceOnUse"
       id="clipPath18"><path
         d="M 0,600 H 1000 V 0 H 0 Z"
         id="path16"
         inkscape:connector-curvature="0" /></clipPath><clipPath
       clipPathUnits="userSpaceOnUse"
       id="clipPath66"><path
         d="M 0,600 H 1000 V 0 H 0 Z"
         id="path64"
         inkscape:connector-curvature="0" /></clipPath><clipPath
       clipPathUnits="userSpaceOnUse"
       id="clipPath122"><path
         d="M 0,600 H 1000 V 0 H 0 Z"
         id="path120"
         inkscape:connector-curvature="0" /></clipPath><clipPath
       clipPathUnits="userSpaceOnUse"
       id="clipPath170"><path
         d="M 0,600 H 1000 V 0 H 0 Z"
         id="path168"
         inkscape:connector-curvature="0" /></clipPath></defs><sodipodi:namedview
     pagecolor="#ffffff"
     bordercolor="#666666"
     borderopacity="1"
     objecttolerance="10"
     gridtolerance="10"
     guidetolerance="10"
     inkscape:pageopacity="0"
     inkscape:pageshadow="2"
     inkscape:window-width="1920"
     inkscape:window-height="1029"
     id="namedview4"
     showgrid="false"
     inkscape:zoom="0.66840824"
     inkscape:cx="546.48321"
     inkscape:cy="266.35173"
     inkscape:window-x="0"
     inkscape:window-y="24"
     inkscape:window-maximized="1"
     inkscape:current-layer="g10" /><g
     id="g10"
     inkscape:groupmode="layer"
     inkscape:label="butterfly"
     transform="matrix(1.3333333,0,0,-1.3333333,-120.18342,683.2178)"><g
       id="g1246"
       transform="translate(47.295672)"><g
         id="g1142"><g
           id="g12"><g
             id="g14"
             clip-path="url(#clipPath18)"><g
               id="g20"
               transform="translate(170.5215,353.2334)"><path
                 d="m 0,0 c 0,0 -5.804,18.121 7.327,19.13 0,0 40.147,16.223 90.652,-72.666 0,0 5.052,-10.1 17.173,3.031 12.121,13.131 32.579,61.554 81.064,70.645 0,0 21.965,11.172 18.935,-5.999 -3.03,-17.171 -13.132,-28.283 -15.151,-46.464 -2.02,-18.182 1.11,-20.34 -12.021,-27.41 0,0 -27.373,-4.913 -35.454,-4.913 0,0 30.56,-10.163 38.641,-30.365 0,0 7.824,-29.232 -16.418,-42.363 -24.243,-13.131 -44.446,-15.151 -63.637,41.414 H 100 c 0,0 -12.121,-43.434 -38.384,-48.484 -26.262,-5.051 -41.158,28.221 -42.168,42.362 0,0 -16.418,20.265 39.137,39.456 0,0 -48.484,-7.071 -46.464,18.182 0,0 2.021,19.192 -3.03,28.282 C 4.04,-7.071 0,0 0,0"
                 style="fill:#ff8989;fill-opacity:1;fill-rule:nonzero;stroke:none"
                 id="path22"
                 inkscape:connector-curvature="0" /></g><g
               id="g24"
               transform="translate(268.501,299.6978)"><path
                 d="m 0,0 c 0,0 -31.313,49.495 -60.606,59.596 0,0 -22.223,19.193 -17.172,-15.151 0,0 -1.01,-45.454 35.354,-48.485 0,0 21.212,-0.001 11.111,-7.071 -10.101,-7.07 -50.505,-30.303 -33.333,-50.505 0,0 22.479,-20.263 37.63,-5.112 L 1.01,-37.374 c 0,0 -5.051,16.162 -1.01,37.374"
                 style="fill:#fff69c;fill-opacity:1;fill-rule:nonzero;stroke:none"
                 id="path26"
                 inkscape:connector-curvature="0" /></g><g
               id="g28"
               transform="translate(282.6421,299.6978)"><path
                 d="m 0,0 c 0,0 45.711,52.464 67.934,58.524 0,0 14.895,10.164 11.865,-8.019 -3.03,-18.182 -5.051,-36.363 -5.051,-36.363 0,0 -16.162,-21.213 -40.404,-20.203 0,0 -9.091,0 5.051,-10.101 14.141,-10.1 40.404,-30.302 29.293,-42.423 C 57.576,-70.707 38.385,-86.87 24.243,-68.687 10.102,-50.504 1.011,-36.364 1.011,-36.364 1.011,-36.364 4.04,-19.192 0,0"
                 style="fill:#fff69c;fill-opacity:1;fill-rule:nonzero;stroke:none"
                 id="path30"
                 inkscape:connector-curvature="0" /></g><g
               id="g32"
               transform="translate(222.5112,340.6675)"><path
                 d="M 0,0 C 0,0 -5.667,4.667 0,4 5.667,3.333 2.667,0 0,0"
                 style="fill:#a4f3dd;fill-opacity:1;fill-rule:nonzero;stroke:none"
                 id="path34"
                 inkscape:connector-curvature="0" /></g><g
               id="g36"
               transform="translate(228.1782,337.6675)"><path
                 d="M 0,0 C 0,0 -1.667,2.667 1.333,2.667 4.333,2.667 4.333,-1 0,0"
                 style="fill:#a4f3dd;fill-opacity:1;fill-rule:nonzero;stroke:none"
                 id="path38"
                 inkscape:connector-curvature="0" /></g><g
               id="g40"
               transform="translate(323.5112,336.751)"><path
                 d="M 0,0 C 0,0 -2.5,2.5 0.5,3.75 3.5,5 2.75,0.25 0,0"
                 style="fill:#a4f3dd;fill-opacity:1;fill-rule:nonzero;stroke:none"
                 id="path42"
                 inkscape:connector-curvature="0" /></g><g
               id="g44"
               transform="translate(330.0112,341.001)"><path
                 d="M 0,0 C 0,0 -4,1 0,4.25 4,7.5 5.25,2 0,0"
                 style="fill:#a4f3dd;fill-opacity:1;fill-rule:nonzero;stroke:none"
                 id="path46"
                 inkscape:connector-curvature="0" /></g><g
               id="g48"
               transform="translate(275.7612,308.251)"><path
                 d="m 0,0 c 0,0 -7.5,-7.25 -7.5,-32 0,-24.75 8,-43.5 8,-43.5 0,0 19.75,49.75 -0.5,75.5"
                 style="fill:#a4f3dd;fill-opacity:1;fill-rule:nonzero;stroke:none"
                 id="path50"
                 inkscape:connector-curvature="0" /></g><g
               id="g52"
               transform="translate(278.2612,321.251)"><path
                 d="m 0,0 c 0,0 2.25,28 21,38.5 0,0 2.5,0.75 1.25,-0.75 0,0 -17.75,-10 -21,-38.5 z"
                 style="fill:#ff8989;fill-opacity:1;fill-rule:nonzero;stroke:none"
                 id="path54"
                 inkscape:connector-curvature="0" /></g><g
               id="g56"
               transform="translate(253.7612,359.751)"><path
                 d="m 0,0 c 0,0 17.25,-8.5 21.75,-39.25 l -2,-0.25 c 0,0 -2.5,28.25 -21,39.25 0,0 -0.75,1 1.25,0.25"
                 style="fill:#ff8989;fill-opacity:1;fill-rule:nonzero;stroke:none"
                 id="path58"
                 inkscape:connector-curvature="0" /></g></g></g><g
           id="g60"><g
             id="g62"
             clip-path="url(#clipPath66)"><g
               id="g68"
               transform="translate(270.0112,298.001)"><path
                 d="m 0,0 -0.303,-30.427 -0.076,-7.606 c -0.021,-0.638 0.021,-1.259 -0.053,-1.91 -0.071,-0.634 -0.168,-1.263 -0.284,-1.888 -0.23,-1.251 -0.509,-2.491 -0.834,-3.719 -1.291,-4.917 -3.076,-9.685 -5.074,-14.351 -0.992,-2.335 -2.056,-4.647 -3.165,-6.924 -1.091,-2.292 -2.283,-4.546 -3.631,-6.703 -2.691,-4.306 -5.999,-8.307 -10.126,-11.334 -4.108,-3.037 -9.057,-4.934 -14.149,-5.393 -5.098,-0.491 -10.234,0.279 -15.114,1.719 -4.903,1.387 -9.533,3.745 -13.606,6.808 -4.085,3.058 -7.647,6.786 -10.633,10.912 -2.988,4.128 -5.415,8.661 -7.204,13.433 -1.784,4.775 -2.936,9.792 -3.234,14.904 -0.041,0.637 -0.044,1.267 -0.068,1.902 -0.01,0.655 0.031,1.302 0.112,1.948 0.177,1.288 0.562,2.54 1.087,3.721 1.057,2.366 2.645,4.437 4.415,6.281 3.587,3.668 7.863,6.538 12.272,9.063 4.426,2.515 9.043,4.67 13.74,6.608 4.706,1.927 9.481,3.658 14.36,5.126 l 0.109,-0.711 c -5.496,-0.12 -10.998,-0.214 -16.501,-0.015 -5.492,0.212 -11.038,0.581 -16.404,2.042 -2.659,0.763 -5.298,1.839 -7.501,3.609 -1.092,0.885 -2.062,1.925 -2.861,3.086 -0.783,1.172 -1.379,2.452 -1.849,3.767 -0.906,2.652 -1.277,5.426 -1.421,8.187 -0.144,2.765 -0.073,5.499 -0.321,8.224 l -0.165,2.044 -0.264,2.034 c -0.144,1.36 -0.44,2.697 -0.668,4.044 -0.563,2.675 -1.223,5.333 -2.077,7.936 -1.642,5.225 -3.79,10.286 -5.784,15.407 -2.004,5.123 -3.898,10.285 -5.363,15.618 -0.621,2.677 -0.834,5.627 0.304,8.264 0.575,1.296 1.497,2.445 2.647,3.272 1.146,0.835 2.465,1.385 3.815,1.738 2.716,0.696 5.534,0.686 8.278,0.416 2.753,-0.282 5.462,-0.855 8.119,-1.587 5.316,-1.479 10.43,-3.587 15.361,-6.03 4.905,-2.481 9.753,-5.155 14.119,-8.532 4.365,-3.364 8.377,-7.156 12.165,-11.142 3.781,-3.997 7.316,-8.217 10.714,-12.538 3.392,-4.326 6.635,-8.767 9.756,-13.29 3.114,-4.529 6.123,-9.129 9.018,-13.799 C -5.449,9.543 -2.643,4.817 0,0 m 0,0 c -2.671,4.801 -5.506,9.509 -8.426,14.161 -2.922,4.652 -5.958,9.232 -9.097,13.738 -6.302,8.992 -13.039,17.705 -20.584,25.679 -3.786,3.967 -7.793,7.737 -12.14,11.074 -4.342,3.344 -9.174,5.998 -14.067,8.46 -4.915,2.423 -10.01,4.511 -15.289,5.968 -2.638,0.721 -5.325,1.283 -8.041,1.556 -2.706,0.262 -5.477,0.26 -8.097,-0.418 -1.302,-0.343 -2.56,-0.873 -3.636,-1.662 -1.082,-0.781 -1.934,-1.85 -2.471,-3.064 -1.063,-2.468 -0.873,-5.309 -0.257,-7.926 1.457,-5.259 3.361,-10.429 5.369,-15.53 2.002,-5.11 4.164,-10.175 5.829,-15.434 0.865,-2.618 1.536,-5.298 2.11,-7.997 0.233,-1.359 0.534,-2.709 0.682,-4.082 l 0.27,-2.052 0.171,-2.062 c 0.256,-2.749 0.191,-5.522 0.339,-8.242 0.146,-2.716 0.519,-5.44 1.4,-7.996 0.456,-1.268 1.03,-2.492 1.777,-3.606 0.762,-1.102 1.684,-2.086 2.727,-2.928 2.101,-1.683 4.654,-2.726 7.259,-3.467 5.259,-1.422 10.772,-1.785 16.237,-1.983 5.479,-0.18 10.97,-0.12 16.458,-0.003 l 2.677,0.056 -2.568,-0.767 c -4.837,-1.445 -9.612,-3.163 -14.296,-5.072 -4.68,-1.919 -9.277,-4.054 -13.676,-6.543 -4.381,-2.496 -8.62,-5.335 -12.145,-8.925 -1.739,-1.804 -3.285,-3.82 -4.305,-6.093 -0.506,-1.134 -0.876,-2.328 -1.047,-3.554 -0.184,-1.215 -0.092,-2.471 -0.046,-3.743 0.283,-5.021 1.413,-10.002 3.169,-14.726 1.761,-4.727 4.155,-9.22 7.106,-13.315 2.949,-4.092 6.468,-7.788 10.502,-10.819 4.026,-3.038 8.578,-5.371 13.439,-6.757 4.825,-1.434 9.907,-2.204 14.929,-1.731 5.018,0.445 9.884,2.297 13.942,5.284 4.077,2.977 7.363,6.929 10.044,11.201 1.343,2.14 2.531,4.375 3.624,6.659 1.117,2.278 2.192,4.566 3.196,6.893 2.019,4.643 3.828,9.39 5.141,14.281 0.332,1.221 0.617,2.455 0.853,3.696 0.119,0.621 0.218,1.245 0.292,1.871 0.075,0.609 0.038,1.261 0.063,1.89 l 0.116,7.605 z"
                 style="fill:#2d2d2d;fill-opacity:1;fill-rule:nonzero;stroke:none"
                 id="path70"
                 inkscape:connector-curvature="0" /></g><g
               id="g72"
               transform="translate(259.4058,229.9229)"><path
                 d="m 0,0 c -1.62,-3.229 -3.457,-6.359 -5.654,-9.233 -2.189,-2.872 -4.735,-5.497 -7.684,-7.596 -2.932,-2.116 -6.276,-3.669 -9.8,-4.493 -3.521,-0.841 -7.188,-0.996 -10.782,-0.609 -3.598,0.372 -7.141,1.23 -10.555,2.411 -3.424,1.176 -6.653,2.878 -9.648,4.907 -2.979,2.055 -5.72,4.449 -8.166,7.116 -2.46,2.655 -4.623,5.58 -6.506,8.668 -1.88,3.093 -3.465,6.363 -4.723,9.758 -1.25,3.394 -2.197,6.909 -2.72,10.493 -0.271,1.788 -0.443,3.599 -0.485,5.407 -0.112,1.811 0.155,3.656 0.796,5.359 1.28,3.434 3.725,6.267 6.379,8.704 2.69,2.433 5.678,4.508 8.776,6.377 3.1,1.869 6.319,3.532 9.598,5.06 3.278,1.529 6.62,2.92 10.001,4.205 3.383,1.281 6.799,2.471 10.27,3.508 l 0.044,-0.291 c -5.494,-0.123 -10.992,-0.204 -16.489,-0.02 -5.485,0.202 -11.021,0.561 -16.362,2.005 -2.647,0.754 -5.266,1.818 -7.448,3.565 -1.081,0.874 -2.041,1.898 -2.833,3.045 -0.777,1.157 -1.37,2.425 -1.839,3.729 -0.904,2.629 -1.279,5.392 -1.427,8.145 -0.149,2.756 -0.084,5.497 -0.337,8.226 l -0.169,2.047 -0.268,2.036 c -0.147,1.363 -0.446,2.701 -0.677,4.051 -0.569,2.677 -1.234,5.337 -2.094,7.941 -1.654,5.228 -3.811,10.285 -5.815,15.402 -2.013,5.118 -3.916,10.277 -5.39,15.603 -0.625,2.674 -0.842,5.618 0.289,8.254 0.572,1.295 1.49,2.445 2.639,3.272 1.143,0.838 2.462,1.39 3.812,1.746 2.715,0.701 5.535,0.696 8.281,0.431 2.754,-0.277 5.465,-0.846 8.126,-1.573 5.321,-1.469 10.442,-3.57 15.38,-6.006 4.912,-2.472 9.769,-5.139 14.149,-8.513 4.376,-3.36 8.4,-7.148 12.199,-11.131 7.565,-8.008 14.287,-16.758 20.582,-25.773 3.134,-4.52 6.163,-9.112 9.079,-13.775 2.912,-4.666 5.744,-9.377 8.404,-14.202 l -0.622,-0.405 c -5.221,6.726 -10.579,13.354 -16.04,19.89 -5.469,6.529 -11.048,12.97 -16.864,19.187 -2.913,3.104 -5.886,6.152 -8.981,9.067 -3.089,2.921 -6.321,5.688 -9.865,8.025 -3.525,2.363 -7.229,4.473 -11.117,6.166 -1.944,0.84 -3.936,1.577 -5.976,2.128 -2.037,0.542 -4.135,0.928 -6.226,0.873 -1.041,-0.029 -2.081,-0.185 -3.034,-0.553 -0.952,-0.364 -1.8,-0.985 -2.324,-1.842 -0.536,-0.849 -0.747,-1.881 -0.747,-2.908 -0.011,-1.017 0.223,-2.087 0.355,-3.133 0.586,-4.208 1.485,-8.375 2.354,-12.543 0.882,-4.168 1.781,-8.336 2.572,-12.528 0.428,-2.088 0.737,-4.204 1.112,-6.305 0.341,-2.106 0.598,-4.22 0.902,-6.329 0.258,-2.087 1.022,-4.081 2.147,-5.861 1.115,-1.786 2.509,-3.395 4.047,-4.845 3.098,-2.889 6.728,-5.177 10.543,-7.024 7.658,-3.653 16.137,-5.642 24.63,-5.608 h 0.037 l 0.03,-0.011 c 0.441,-0.17 0.843,-0.383 1.222,-0.662 0.37,-0.278 0.731,-0.635 0.883,-1.131 0.16,-0.504 -0.021,-1.043 -0.294,-1.425 -0.274,-0.397 -0.625,-0.698 -0.995,-0.98 -1.49,-1.011 -3.012,-1.915 -4.506,-2.889 -2.998,-1.922 -5.955,-3.905 -8.857,-5.967 -5.787,-4.136 -11.408,-8.552 -16.408,-13.617 -2.482,-2.539 -4.817,-5.249 -6.687,-8.266 -0.924,-1.51 -1.733,-3.1 -2.281,-4.781 -0.552,-1.673 -0.833,-3.455 -0.643,-5.202 0.432,-3.518 1.945,-6.837 3.92,-9.768 1.988,-2.942 4.468,-5.535 7.202,-7.8 2.74,-2.262 5.747,-4.204 8.945,-5.752 3.196,-1.534 6.606,-2.715 10.138,-3.091 1.761,-0.178 3.558,-0.14 5.273,0.297 1.724,0.417 3.223,1.437 4.66,2.465 2.858,2.115 5.425,4.604 7.872,7.185 4.878,5.188 9.264,10.833 13.222,16.751 1.961,2.972 3.822,6.013 5.467,9.172 1.649,3.152 3.11,6.423 4.066,9.853 L 10.13,38.324 10.147,38.081 10.88,27.33 10.881,27.327 10.88,27.324 C 10.653,26.113 10.306,24.935 9.973,23.752 9.585,22.587 9.245,21.405 8.817,20.254 L 8.185,18.523 C 7.969,17.949 7.777,17.365 7.541,16.798 L 6.157,13.384 C 5.713,12.238 5.181,11.131 4.692,10.004 L 3.194,6.639 Z m 0,0 3.183,6.645 1.492,3.367 c 0.487,1.128 1.017,2.236 1.458,3.382 l 1.378,3.416 c 0.236,0.567 0.426,1.151 0.642,1.726 l 0.628,1.731 c 0.426,1.151 0.764,2.333 1.15,3.498 0.33,1.181 0.675,2.362 0.9,3.567 v -0.006 l -0.767,10.749 0.082,-0.008 C 9.193,34.626 7.737,31.347 6.092,28.188 4.452,25.021 2.594,21.974 0.637,18.995 -3.314,13.063 -7.692,7.404 -12.568,2.198 c -2.447,-2.59 -5.013,-5.089 -7.882,-7.222 -1.441,-1.035 -2.956,-2.074 -4.722,-2.505 -1.745,-0.449 -3.565,-0.489 -5.343,-0.312 -3.568,0.375 -6.999,1.557 -10.216,3.094 -3.218,1.552 -6.243,3.498 -9.002,5.768 -2.753,2.272 -5.253,4.877 -7.265,7.841 -1.997,2.953 -3.534,6.303 -3.98,9.882 -0.2,1.803 0.088,3.621 0.646,5.325 0.554,1.71 1.372,3.321 2.302,4.847 1.883,3.05 4.226,5.777 6.715,8.332 5.012,5.094 10.638,9.528 16.43,13.682 2.903,2.071 5.862,4.063 8.86,5.993 1.489,0.973 3.03,1.894 4.487,2.887 0.657,0.49 1.368,1.221 1.141,1.984 -0.252,0.742 -1.105,1.228 -1.868,1.536 l 0.068,-0.011 c -8.561,-0.048 -17.096,1.938 -24.822,5.607 -3.849,1.856 -7.518,4.157 -10.666,7.083 -1.563,1.468 -2.986,3.102 -4.132,4.931 -1.154,1.814 -1.955,3.895 -2.223,6.04 -0.307,2.108 -0.569,4.225 -0.913,6.325 -0.377,2.093 -0.687,4.195 -1.118,6.282 -0.797,4.183 -1.702,8.344 -2.592,12.513 -0.877,4.17 -1.784,8.341 -2.381,12.575 -0.135,1.065 -0.371,2.092 -0.366,3.211 -0.001,1.094 0.221,2.235 0.825,3.199 0.593,0.973 1.557,1.673 2.589,2.068 1.037,0.403 2.136,0.564 3.221,0.597 2.177,0.06 4.318,-0.334 6.392,-0.881 2.075,-0.557 4.092,-1.3 6.059,-2.146 3.932,-1.704 7.668,-3.824 11.222,-6.199 3.582,-2.353 6.853,-5.144 9.959,-8.07 3.114,-2.923 6.101,-5.974 9.025,-9.079 5.841,-6.22 11.437,-12.659 16.924,-19.186 C 0.286,81.655 5.657,75.035 10.9,68.306 L 10.278,67.9 c -2.654,4.793 -5.464,9.517 -8.365,14.173 -2.901,4.659 -5.916,9.247 -9.035,13.763 -6.264,9.006 -12.955,17.745 -20.472,25.732 -3.775,3.972 -7.77,7.745 -12.106,11.086 -4.328,3.347 -9.152,6.008 -14.037,8.478 -4.908,2.431 -9.996,4.527 -15.269,5.993 -2.636,0.726 -5.32,1.292 -8.034,1.57 -2.705,0.267 -5.474,0.271 -8.094,-0.403 -1.304,-0.34 -2.562,-0.868 -3.64,-1.655 -1.084,-0.779 -1.938,-1.847 -2.479,-3.062 -1.069,-2.47 -0.884,-5.316 -0.273,-7.937 1.448,-5.265 3.344,-10.439 5.343,-15.545 1.993,-5.114 4.144,-10.182 5.798,-15.439 0.859,-2.617 1.525,-5.296 2.093,-7.99 0.23,-1.359 0.528,-2.706 0.674,-4.078 l 0.265,-2.049 0.167,-2.059 c 0.25,-2.745 0.181,-5.51 0.324,-8.239 0.141,-2.726 0.51,-5.461 1.393,-8.038 0.457,-1.279 1.033,-2.517 1.788,-3.645 0.769,-1.117 1.701,-2.115 2.753,-2.969 2.123,-1.706 4.696,-2.761 7.313,-3.511 5.284,-1.439 10.806,-1.81 16.279,-2.02 5.485,-0.194 10.98,-0.121 16.47,-0.008 l 1.101,0.022 -1.056,-0.313 c -3.458,-1.027 -6.875,-2.21 -10.253,-3.483 -3.378,-1.277 -6.716,-2.66 -9.991,-4.18 -3.274,-1.52 -6.489,-3.173 -9.583,-5.032 -3.091,-1.857 -6.072,-3.92 -8.75,-6.335 -2.644,-2.417 -5.071,-5.226 -6.337,-8.609 -0.636,-1.683 -0.901,-3.483 -0.793,-5.284 0.039,-1.806 0.206,-3.6 0.473,-5.385 0.515,-3.571 1.453,-7.076 2.694,-10.463 1.248,-3.386 2.823,-6.65 4.693,-9.738 1.873,-3.083 4.026,-6.005 6.474,-8.657 2.435,-2.665 5.167,-5.057 8.134,-7.112 2.983,-2.029 6.201,-3.732 9.615,-4.912 3.409,-1.185 6.941,-2.046 10.533,-2.423 3.586,-0.394 7.246,-0.246 10.761,0.587 3.519,0.817 6.859,2.362 9.791,4.47 2.95,2.092 5.498,4.709 7.691,7.577 C -3.468,-6.354 -1.625,-3.227 0,0"
                 style="fill:#2d2d2d;fill-opacity:1;fill-rule:nonzero;stroke:none"
                 id="path74"
                 inkscape:connector-curvature="0" /></g><g
               id="g76"
               transform="translate(224.9565,341.4248)"><path
                 d="M 0,0 C 0,0 0.03,0.055 0.086,0.159 0.142,0.263 0.239,0.408 0.275,0.627 0.346,0.834 0.349,1.107 0.32,1.405 0.278,1.704 0.184,2.04 -0.013,2.355 -0.21,2.676 -0.443,2.979 -0.793,3.242 -1.109,3.518 -1.516,3.708 -1.937,3.852 -2.367,3.952 -2.83,4.036 -3.271,3.935 -3.724,3.832 -4.075,3.654 -4.377,3.272 -4.637,2.921 -4.739,2.47 -4.7,2.023 c 0.027,-0.451 0.238,-0.874 0.455,-1.256 0.234,-0.341 0.578,-0.719 0.911,-0.924 0.336,-0.253 0.715,-0.404 1.071,-0.498 0.359,-0.099 0.707,-0.094 1.006,-0.05 0.294,0.057 0.555,0.137 0.733,0.263 0.199,0.096 0.313,0.231 0.396,0.314 z m 0,0 c 0,0 -0.043,-0.046 -0.124,-0.132 -0.08,-0.086 -0.187,-0.224 -0.386,-0.33 -0.363,-0.252 -1.014,-0.431 -1.775,-0.301 -0.376,0.063 -0.788,0.184 -1.167,0.418 -0.42,0.224 -0.728,0.508 -1.073,0.907 -0.288,0.4 -0.569,0.862 -0.617,1.411 -0.068,0.533 0.034,1.121 0.365,1.598 0.324,0.42 0.912,0.734 1.43,0.804 0.538,0.108 1.064,-0.028 1.526,-0.193 C -1.368,3.981 -0.955,3.734 -0.645,3.41 -0.327,3.125 -0.075,2.745 0.086,2.408 0.425,1.714 0.437,1.039 0.299,0.621 0.254,0.401 0.152,0.257 0.092,0.156 0.032,0.054 0,0 0,0"
                 style="fill:#2d2d2d;fill-opacity:1;fill-rule:nonzero;stroke:none"
                 id="path78"
                 inkscape:connector-curvature="0" /></g><g
               id="g80"
               transform="translate(230.3452,337.7891)"><path
                 d="M 0,0 C -0.016,0.006 0.119,0.136 0.189,0.426 0.273,0.708 0.247,1.169 -0.024,1.595 -0.165,1.811 -0.32,2.004 -0.563,2.18 -0.779,2.36 -1.055,2.481 -1.336,2.569 -1.624,2.629 -1.93,2.676 -2.213,2.602 -2.506,2.518 -2.709,2.434 -2.915,2.18 -3.08,1.957 -3.135,1.674 -3.123,1.386 c 0.009,-0.292 0.14,-0.575 0.277,-0.831 0.141,-0.223 0.382,-0.496 0.595,-0.632 0.222,-0.175 0.474,-0.282 0.714,-0.352 0.486,-0.138 0.935,-0.033 1.181,0.127 C -0.097,-0.153 -0.011,0.014 0,0 m 0,0 c -0.011,0.013 -0.092,-0.154 -0.348,-0.313 -0.249,-0.165 -0.685,-0.302 -1.211,-0.223 -0.259,0.037 -0.545,0.116 -0.81,0.271 -0.3,0.156 -0.504,0.334 -0.756,0.615 -0.208,0.275 -0.41,0.595 -0.452,0.984 -0.061,0.378 0.024,0.803 0.262,1.145 0.221,0.291 0.656,0.541 1.023,0.575 C -1.907,3.124 -1.541,3.021 -1.221,2.9 -0.907,2.753 -0.625,2.577 -0.415,2.348 -0.204,2.15 -0.029,1.88 0.074,1.647 0.299,1.165 0.29,0.707 0.202,0.423 0.123,0.132 -0.016,0.007 0,0"
                 style="fill:#2d2d2d;fill-opacity:1;fill-rule:nonzero;stroke:none"
                 id="path82"
                 inkscape:connector-curvature="0" /></g><g
               id="g84"
               transform="translate(282.8452,299.6675)"><path
                 d="m 0,0 0.422,-41.666 v 0.01 c 0.748,-4.159 2.18,-8.18 3.675,-12.136 l 1.16,-2.958 c 0.396,-0.982 0.841,-1.944 1.259,-2.917 l 1.272,-2.911 c 0.436,-0.964 0.912,-1.914 1.367,-2.872 0.938,-1.903 1.794,-3.843 2.792,-5.707 0.994,-1.866 2.071,-3.688 3.253,-5.439 2.359,-3.5 5.189,-6.708 8.547,-9.26 3.346,-2.56 7.263,-4.367 11.397,-5.176 4.132,-0.831 8.416,-0.711 12.564,0.019 4.149,0.757 8.233,1.989 12.017,3.842 3.773,1.88 7.269,4.313 10.36,7.184 3.115,2.849 5.825,6.123 8.173,9.628 2.314,3.529 4.277,7.296 5.755,11.25 1.498,3.943 2.539,8.065 3.029,12.251 0.129,1.048 0.2,2.093 0.26,3.144 l 0.045,1.589 c -0.007,0.507 -0.023,1.031 -0.091,1.542 -0.257,2.053 -1.045,4.026 -2.154,5.791 -2.226,3.551 -5.463,6.381 -8.86,8.849 -3.426,2.464 -7.107,4.568 -10.882,6.469 -3.778,1.9 -7.664,3.588 -11.605,5.131 -3.941,1.535 -7.944,2.945 -11.99,4.149 l -2.578,0.768 2.687,-0.057 c 5.465,-0.116 10.934,-0.176 16.39,0.001 5.444,0.19 10.931,0.561 16.176,1.946 2.592,0.739 5.152,1.743 7.256,3.405 1.045,0.827 1.996,1.779 2.752,2.881 0.757,1.1 1.352,2.305 1.823,3.563 0.886,2.539 1.296,5.244 1.45,7.951 0.157,2.703 0.096,5.465 0.329,8.203 0.401,5.481 1.459,10.917 3.151,16.141 1.643,5.243 3.778,10.294 5.78,15.38 2.019,5.078 3.9,10.22 5.409,15.452 0.654,2.599 0.954,5.406 0.042,7.926 -0.459,1.243 -1.233,2.36 -2.252,3.208 -1.023,0.844 -2.242,1.445 -3.526,1.829 -2.579,0.778 -5.341,0.834 -8.039,0.618 C 85.907,78.795 83.226,78.266 80.592,77.572 75.322,76.173 70.233,74.126 65.324,71.746 60.43,69.333 55.63,66.675 51.229,63.454 46.845,60.203 42.803,56.504 38.963,52.622 31.292,44.832 24.441,36.265 17.987,27.439 14.772,23.015 11.669,18.508 8.666,13.936 5.669,9.359 2.753,4.728 0,0 m 0,0 c 2.725,4.745 5.613,9.395 8.582,13.99 2.976,4.592 6.053,9.119 9.244,13.566 3.196,4.443 6.505,8.806 9.962,13.051 3.461,4.241 7.055,8.381 10.901,12.284 3.843,3.901 7.89,7.621 12.292,10.899 4.427,3.254 9.236,5.929 14.145,8.361 4.926,2.4 10.034,4.468 15.342,5.889 2.653,0.704 5.359,1.245 8.106,1.479 2.737,0.223 5.55,0.178 8.23,-0.622 1.334,-0.397 2.62,-1.022 3.712,-1.92 1.088,-0.902 1.925,-2.104 2.415,-3.427 0.973,-2.686 0.651,-5.588 -0.01,-8.245 C 101.41,60.02 99.534,54.868 97.522,49.775 95.527,44.679 93.406,39.633 91.786,34.424 90.116,29.233 89.081,23.853 88.693,18.42 88.468,15.706 88.536,12.984 88.381,10.227 88.23,7.478 87.822,4.718 86.909,2.083 86.424,0.777 85.804,-0.486 85.011,-1.643 84.218,-2.802 83.218,-3.809 82.124,-4.678 79.917,-6.425 77.275,-7.46 74.629,-8.22 c -5.351,-1.424 -10.87,-1.801 -16.34,-2.004 -5.481,-0.195 -10.959,-0.104 -16.432,0.016 l 0.108,0.711 c 4.083,-1.224 8.086,-2.644 12.046,-4.195 3.954,-1.558 7.855,-3.261 11.653,-5.181 3.794,-1.919 7.498,-4.045 10.958,-6.544 3.431,-2.505 6.717,-5.377 9.01,-9.047 1.141,-1.824 1.964,-3.885 2.23,-6.046 0.07,-0.542 0.088,-1.078 0.093,-1.632 l -0.048,-1.59 c -0.063,-1.066 -0.138,-2.139 -0.272,-3.195 -0.504,-4.24 -1.565,-8.404 -3.087,-12.385 -1.501,-3.992 -3.49,-7.791 -5.834,-11.35 -2.378,-3.534 -5.121,-6.837 -8.275,-9.71 -3.13,-2.895 -6.671,-5.349 -10.495,-7.246 -3.843,-1.871 -7.963,-3.104 -12.154,-3.86 -4.195,-0.729 -8.538,-0.845 -12.735,0.009 -4.197,0.829 -8.177,2.677 -11.562,5.278 -3.4,2.593 -6.251,5.842 -8.62,9.373 -1.189,1.767 -2.269,3.604 -3.265,5.483 -1.003,1.877 -1.855,3.824 -2.775,5.732 -0.448,0.962 -0.917,1.912 -1.348,2.883 l -1.256,2.928 c -0.412,0.978 -0.851,1.946 -1.24,2.933 l -1.143,2.973 c -1.47,3.978 -2.876,8.004 -3.602,12.209 v 0.004 0.006 z"
                 style="fill:#2d2d2d;fill-opacity:1;fill-rule:nonzero;stroke:none"
                 id="path86"
                 inkscape:connector-curvature="0" /></g><g
               id="g88"
               transform="translate(293.8491,229.9229)"><path
                 style="fill:#2d2d2d;fill-opacity:1;fill-rule:nonzero;stroke:none"
                 d="m 0,0 c 5.51495,-12.525046 17.962702,-23.628963 32.438785,-22.0078 20.256797,1.114787 37.023739,17.7092619 42.135288,36.754731 2.49922,7.828186 3.513519,17.590676 -3.03548,23.775281 -8.078966,8.653185 -19.42806,13.230694 -30.160436,17.642818 -3.334561,1.357622 -15.791954,4.614015 -6.170986,3.867601 11.740031,0.0047 24.460121,-0.939085 35.066327,4.979598 8.181947,6.1932 6.162098,17.196117 7.099748,26.131564 2.005051,16.498037 11.013937,30.998787 14.755368,47.026167 1.023703,9.12044 -9.435815,12.42694 -16.678031,10.24176 -13.796586,-2.1534 -26.6546,-8.87146 -37.621135,-17.32696 C 19.802565,116.19579 6.6415608,96.480802 -5.7703838,76.918815 -7.1754413,73.842993 -14.003966,64.656093 -8.8867432,71.857409 2.5749213,86.172159 14.702373,99.99196 27.492539,113.1361 c 9.978634,9.61863 21.859032,18.74694 35.967773,20.64141 10.167154,0.96311 8.309323,-11.52193 5.9752,-17.84759 C 66.430118,105.4507 65.808348,94.477528 63.13719,83.925977 58.346052,72.931342 46.167417,67.512698 35.13004,64.823277 31.494388,62.066263 19.799835,66.355857 21.558,59.796 35.897101,50.244971 51.875851,40.856002 60.072966,25.052271 63.400116,15.313469 56.092974,5.7748243 48.658798,0.2316725 41.787622,-5.0248236 32.580971,-9.824213 23.825579,-6.9480941 13.000001,-0.7737183 6.0434899,10.082349 -0.96828777,20.027975 -4.7986436,25.913047 -8.2993009,32.135507 -10.171,38.947 -10.871346,33.641308 -12.311115,28.101783 -9.6775767,23.04702 -7.0915822,15.113616 -3.6397542,7.4969607 0,0 Z m 0,0 c -4.5488919,9.5919452 -9.2875236,19.260628 -11.44272,29.730085 0.74812,3.440469 0.644157,13.758684 2.7201367,5.277445 C -2.779433,20.251573 7.4082444,7.6000499 18.541015,-3.5616555 25.140741,-9.4103804 34.806425,-8.3616373 41.803111,-3.8979967 51.123564,0.96870056 60.412321,9.6222143 60.642733,20.800844 58.668687,32.444038 48.219094,39.677259 39.861613,46.870402 33.570571,51.710866 26.719366,55.755693 20.333,60.463 c 2.845313,7.335395 13.564139,1.432405 19.120778,5.983835 10.043553,3.276858 21.582954,9.243985 24.006315,20.460551 1.735609,13.830304 5.761965,27.260934 7.400907,41.106614 -1.990256,6.74987 -10.413268,5.80439 -15.425439,3.39606 C 33.686428,122.89977 19.53579,103.42732 4.2748829,86.808521 -1.1635305,81.289691 -4.6969816,73.803588 -11.150678,69.407744 c 14.0391208,23.25217 29.225893,46.698496 50.691059,63.809566 11.830661,8.54276 25.737624,15.14896 40.44095,16.21167 10.242714,1.57199 15.485447,-9.46047 10.974749,-17.7828 C 84.959999,114.88262 76.244317,98.233477 77.296086,79.890565 77.516763,71.077499 71.453153,62.427692 62.341588,61.466397 52.03594,58.967807 41.358198,59.750923 30.858,59.751 44.030275,56.297807 56.8193,50.57225 67.799965,42.462304 73.270924,38.16917 77.833502,31.628563 76.495857,24.335474 74.757727,2.1065408 57.328676,-19.570524 34.406378,-21.911025 23.09281,-23.486787 11.598457,-18.097713 5.2518866,-8.6965481 3.2335764,-5.9704307 1.510046,-3.0345462 0,0 Z"
                 id="path90"
                 inkscape:connector-curvature="0" /></g><g
               id="g92"
               transform="translate(328.2974,341.4248)"><path
                 d="M 0,0 C 0,0 -0.032,0.054 -0.092,0.156 -0.151,0.257 -0.254,0.401 -0.299,0.621 -0.437,1.039 -0.425,1.715 -0.085,2.408 0.076,2.746 0.327,3.125 0.646,3.41 0.956,3.733 1.369,3.981 1.821,4.183 2.284,4.347 2.81,4.483 3.348,4.374 3.866,4.304 4.454,3.991 4.778,3.57 5.109,3.093 5.211,2.505 5.142,1.972 5.095,1.424 4.814,0.961 4.525,0.561 4.181,0.162 3.873,-0.121 3.453,-0.346 3.073,-0.579 2.661,-0.7 2.285,-0.763 1.524,-0.893 0.873,-0.714 0.51,-0.462 0.311,-0.356 0.204,-0.218 0.124,-0.132 0.043,-0.046 0,0 0,0 m 0,0 0.128,-0.128 c 0.083,-0.083 0.197,-0.218 0.396,-0.314 0.178,-0.126 0.439,-0.206 0.733,-0.263 0.299,-0.044 0.647,-0.049 1.006,0.05 0.357,0.094 0.736,0.244 1.071,0.497 C 3.667,0.047 4.012,0.426 4.245,0.767 4.463,1.148 4.673,1.571 4.7,2.023 4.74,2.469 4.638,2.92 4.378,3.271 4.075,3.653 3.724,3.832 3.272,3.934 2.831,4.036 2.368,3.953 1.937,3.852 1.517,3.708 1.11,3.518 0.794,3.241 0.444,2.979 0.21,2.676 0.013,2.355 -0.183,2.04 -0.277,1.704 -0.32,1.405 -0.349,1.107 -0.345,0.834 -0.275,0.627 -0.238,0.408 -0.142,0.263 -0.086,0.159 -0.03,0.055 0,0 0,0"
                 style="fill:#2d2d2d;fill-opacity:1;fill-rule:nonzero;stroke:none"
                 id="path94"
                 inkscape:connector-curvature="0" /></g><g
               id="g96"
               transform="translate(322.9097,337.7891)"><path
                 d="M 0,0 C 0.016,0.007 -0.123,0.132 -0.202,0.423 -0.29,0.707 -0.299,1.165 -0.075,1.647 0.029,1.88 0.203,2.15 0.414,2.349 0.624,2.578 0.907,2.753 1.22,2.9 1.54,3.021 1.906,3.124 2.291,3.054 2.648,3.031 3.114,2.746 3.294,2.503 3.573,2.113 3.628,1.724 3.577,1.334 3.535,0.946 3.333,0.626 3.125,0.35 2.873,0.069 2.668,-0.108 2.369,-0.265 2.104,-0.42 1.818,-0.498 1.559,-0.536 1.033,-0.616 0.597,-0.478 0.348,-0.313 0.092,-0.154 0.011,0.013 0,0 m 0,0 c 0.011,0.014 0.097,-0.153 0.356,-0.302 0.246,-0.16 0.695,-0.265 1.181,-0.126 0.24,0.069 0.492,0.176 0.714,0.351 0.212,0.138 0.453,0.41 0.594,0.633 0.137,0.256 0.27,0.539 0.278,0.831 C 3.144,1.664 3.059,1.982 2.936,2.156 2.688,2.458 2.515,2.507 2.212,2.602 1.929,2.676 1.623,2.629 1.335,2.569 1.055,2.481 0.777,2.361 0.562,2.181 0.319,2.005 0.164,1.811 0.024,1.595 -0.247,1.168 -0.273,0.708 -0.189,0.426 -0.119,0.136 0.016,0.006 0,0"
                 style="fill:#2d2d2d;fill-opacity:1;fill-rule:nonzero;stroke:none"
                 id="path98"
                 inkscape:connector-curvature="0" /></g><g
               id="g100"
               transform="translate(276.0112,309.001)"><path
                 d="m 0,0 c 0.671,-1.521 1.409,-3.015 2.026,-4.56 0.616,-1.545 1.262,-3.08 1.781,-4.663 0.268,-0.787 0.564,-1.567 0.81,-2.362 l 0.72,-2.392 c 0.491,-1.591 0.856,-3.219 1.268,-4.833 0.328,-1.633 0.705,-3.258 0.944,-4.909 0.293,-1.641 0.491,-3.297 0.688,-4.952 0.163,-1.657 0.329,-3.318 0.401,-4.983 l 0.111,-2.498 0.03,-2.501 c -0.017,-1.667 -0.026,-3.336 -0.135,-5 -0.073,-1.666 -0.227,-3.327 -0.384,-4.988 l -0.289,-2.484 -0.358,-2.477 c -0.263,-1.646 -0.556,-3.289 -0.897,-4.921 -0.683,-3.266 -1.513,-6.502 -2.533,-9.681 -0.5,-1.593 -1.058,-3.167 -1.651,-4.729 -0.601,-1.561 -1.231,-3.1 -1.977,-4.621 l -0.41,-0.836 -0.277,0.89 -1.486,4.763 -1.364,4.798 -1.233,4.834 -1.085,4.869 c -0.304,1.635 -0.655,3.261 -0.922,4.903 -0.261,1.643 -0.556,3.279 -0.752,4.933 l -0.321,2.473 -0.25,2.483 c -0.183,1.653 -0.257,3.317 -0.372,4.975 -0.061,1.662 -0.144,3.324 -0.13,4.989 -0.028,1.663 0.041,3.327 0.103,4.989 l 0.15,2.49 0.232,2.485 c 0.186,1.654 0.403,3.304 0.691,4.943 0.294,1.637 0.648,3.264 1.053,4.878 0.431,1.605 0.88,3.209 1.444,4.773 0.553,1.568 1.168,3.114 1.884,4.614 C -1.766,-2.814 -0.983,-1.339 0,0 m 0,0 c -0.958,-1.357 -1.712,-2.843 -2.408,-4.346 -0.686,-1.509 -1.272,-3.063 -1.794,-4.634 -0.534,-1.57 -0.951,-3.174 -1.35,-4.781 -0.375,-1.614 -0.697,-3.238 -0.96,-4.873 -0.262,-1.635 -0.478,-3.276 -0.65,-4.923 l -0.215,-2.474 -0.134,-2.48 c -0.051,-1.655 -0.109,-3.31 -0.071,-4.967 -0.003,-1.656 0.09,-3.309 0.16,-4.963 0.126,-1.652 0.211,-3.307 0.403,-4.953 l 0.264,-2.469 0.336,-2.461 c 0.205,-1.645 0.509,-3.274 0.779,-4.907 0.276,-1.633 0.636,-3.251 0.949,-4.877 l 1.111,-4.843 1.259,-4.808 1.389,-4.771 1.51,-4.736 -0.688,0.054 c 1.436,2.952 2.607,6.076 3.637,9.219 1.033,3.148 1.878,6.358 2.577,9.598 0.349,1.622 0.65,3.251 0.923,4.887 l 0.371,2.459 0.303,2.469 c 0.166,1.649 0.33,3.3 0.413,4.957 0.119,1.653 0.138,3.313 0.166,4.971 l -0.014,2.488 -0.095,2.485 c -0.061,1.658 -0.215,3.312 -0.367,4.962 -0.186,1.649 -0.372,3.298 -0.654,4.934 -0.225,1.644 -0.597,3.262 -0.904,4.894 -0.38,1.614 -0.714,3.243 -1.174,4.838 l -0.675,2.399 c -0.23,0.797 -0.511,1.579 -0.764,2.37 C 3.144,-7.693 2.527,-6.149 1.941,-4.594 1.353,-3.039 0.644,-1.534 0,0"
                 style="fill:#2d2d2d;fill-opacity:1;fill-rule:nonzero;stroke:none"
                 id="path102"
                 inkscape:connector-curvature="0" /></g><g
               id="g104"
               transform="translate(282.7964,314.3838)"><path
                 d="m 0,0 c 0,0 -0.017,0.154 -0.049,0.443 -0.06,0.283 -0.014,0.724 -0.223,1.23 -0.089,0.255 -0.161,0.548 -0.289,0.846 -0.158,0.284 -0.329,0.59 -0.511,0.919 -0.216,0.305 -0.492,0.597 -0.757,0.922 -0.301,0.29 -0.667,0.546 -1.026,0.826 -0.816,0.438 -1.699,0.851 -2.769,0.897 -1.037,0.149 -2.129,-0.13 -3.147,-0.55 -1.003,-0.498 -1.864,-1.283 -2.533,-2.222 -0.616,-1.015 -0.914,-2.054 -0.965,-3.346 0.04,-1.093 0.345,-2.301 0.962,-3.272 0.67,-0.94 1.529,-1.728 2.533,-2.224 0.245,-0.129 0.51,-0.186 0.762,-0.284 0.251,-0.096 0.507,-0.185 0.794,-0.2 0.278,-0.036 0.552,-0.071 0.823,-0.107 0.231,-0.016 0.516,0.029 0.767,0.04 1.046,0.04 1.969,0.462 2.771,0.897 0.361,0.278 0.725,0.537 1.027,0.826 0.265,0.325 0.541,0.617 0.757,0.921 0.183,0.329 0.354,0.636 0.512,0.919 0.128,0.297 0.199,0.59 0.289,0.844 0.209,0.506 0.164,0.95 0.223,1.233 C -0.017,-0.154 0,0 0,0 m 0,0 c 0,0 -0.014,-0.154 -0.04,-0.443 -0.053,-0.285 0.002,-0.726 -0.196,-1.239 -0.084,-0.258 -0.149,-0.556 -0.273,-0.86 -0.154,-0.29 -0.32,-0.604 -0.497,-0.939 -0.211,-0.314 -0.485,-0.616 -0.747,-0.953 -0.305,-0.295 -0.655,-0.581 -1.012,-0.888 -0.793,-0.492 -1.73,-0.985 -2.825,-1.091 -0.279,-0.026 -0.531,-0.09 -0.843,-0.085 -0.273,0.019 -0.549,0.04 -0.828,0.06 -0.278,-0.001 -0.562,0.074 -0.853,0.162 -0.286,0.089 -0.595,0.144 -0.871,0.269 -1.122,0.468 -2.126,1.286 -2.877,2.331 -0.71,1.096 -1.092,2.327 -1.152,3.716 0.049,1.19 0.443,2.588 1.152,3.641 0.753,1.045 1.755,1.864 2.878,2.332 1.132,0.4 2.316,0.619 3.394,0.404 C -5.061,6.394 -4.548,6.18 -4.061,6.018 -3.573,5.852 -3.178,5.54 -2.763,5.324 -2.406,5.017 -2.056,4.731 -1.752,4.435 -1.489,4.098 -1.216,3.796 -1.005,3.482 -0.828,3.146 -0.662,2.832 -0.508,2.542 -0.385,2.239 -0.32,1.941 -0.236,1.684 -0.038,1.171 -0.092,0.728 -0.04,0.443 -0.014,0.154 0,0 0,0"
                 style="fill:#2d2d2d;fill-opacity:1;fill-rule:nonzero;stroke:none"
                 id="path106"
                 inkscape:connector-curvature="0" /></g><g
               id="g108"
               transform="translate(275.2769,320.458)"><path
                 style="fill:#2d2d2d;fill-opacity:1;fill-rule:nonzero;stroke:none"
                 d="m 0,0 c -0.38833261,-1.6368857 -1.9619141,0.0915374 -1.6403184,1.1830254 -1.481927,9.9717006 -5.0217823,19.8065856 -11.1630796,27.8763266 -2.726152,3.616276 -6.052244,6.782183 -9.880852,9.209148 -1.398043,0.68823 0.01164,2.847642 1.178541,1.84333 6.338667,-4.060643 11.207833,-10.096513 14.572584,-16.77558 C -3.2489015,16.059399 -1.0363466,8.073895 0,0 Z m 0,0 c -1.5056069,11.207605 -5.4186583,22.337262 -12.615688,31.182754 -2.678764,3.251595 -5.820385,6.128946 -9.387312,8.380246 -0.950015,0.14964 -0.158511,-1.027134 0.51146,-1.214704 C -13.708268,33.12423 -8.5367442,24.833619 -5.3422079,16.167343 -3.3834998,10.884451 -2.1483493,5.3576346 -1.3822812,-0.21573438 -1.1368608,-0.89778429 0.12333966,-0.82711626 0,0 Z"
                 id="path110"
                 inkscape:connector-curvature="0" /></g><g
               id="g112"
               transform="translate(279.2817,320.458)"><path
                 style="fill:#2d2d2d;fill-opacity:1;fill-rule:nonzero;stroke:none"
                 d="m 0,0 c -0.54539755,-1.5221591 -2.0507056,-0.15551897 -1.325,0.965875 1.48049593,10.456843 4.8555973,20.866803 11.1305,29.46475 2.880686,3.864159 6.407356,7.287573 10.512375,9.831875 1.629434,0.597936 1.984837,-1.998459 0.41892,-2.315587 C 13.524889,33.25365 8.3771319,25.95343 4.9647654,18.158184 2.4210709,12.394731 0.85134359,6.2319551 0,0 Z m 0,0 c 1.2995838,9.9355113 4.3787924,19.806656 10.007725,28.168299 2.866584,4.228684 6.50633,7.937219 10.810275,10.704701 0.79603,0.566107 -0.642463,1.079394 -1.087754,0.130965 C 12.143209,33.95514 6.7943583,26.138616 3.3074102,17.830832 0.8969775,12.075542 -0.70504482,5.9710714 -1.43225,-0.22325 -1.2727313,-0.99257358 -0.02320998,-0.71009001 0,0 Z"
                 id="path114"
                 inkscape:connector-curvature="0" /></g></g></g></g><g
         transform="translate(-120)"
         id="g1092"><g
           id="g116"><g
             id="g118"
             clip-path="url(#clipPath122)"><g
               id="g124"
               transform="translate(705.2246,220.8311)"><path
                 d="m 0,0 c 0,0 29.942,-15.664 68.442,-3.164 38.5,12.5 0.308,-4.086 0.308,-4.086 0,0 47,15 33,51 -14,36 -84.178,4.946 -95.308,-10.248 0,0 43.808,44.248 34.808,68.248 0,0 -5.5,11 -11,14.5 -5.5,3.5 -25.808,29.252 -25.808,29.252 0,0 -10.192,40.248 -29.192,21.748 -19,-18.5 -45.975,-62.581 -11.475,-125.081 C -36.225,42.169 -1.75,16.75 0,0"
                 style="fill:#6be273;fill-opacity:1;fill-rule:nonzero;stroke:none"
                 id="path126"
                 inkscape:connector-curvature="0" /></g><g
               id="g128"
               transform="translate(704.4736,226.4141)"><path
                 d="m 0,0 3.333,-6 c 0,0 59.333,-11.334 82,21.333 0,0 20.666,26.667 -12,36.667 L 56,44.667 C 56,44.667 72.666,34 57.333,24 42,14 50,1.333 0,0"
                 style="fill:#9deca2;fill-opacity:1;fill-rule:nonzero;stroke:none"
                 id="path130"
                 inkscape:connector-curvature="0" /></g><g
               id="g132"
               transform="translate(699.8066,231.7471)"><path
                 d="m 0,0 -8,9.334 c 0,0 41.334,23.334 58.667,22 C 68,30 28,-7.334 0,0"
                 style="fill:#9deca2;fill-opacity:1;fill-rule:nonzero;stroke:none"
                 id="path134"
                 inkscape:connector-curvature="0" /></g><g
               id="g136"
               transform="translate(679.1406,255.0811)"><path
                 d="m 0,0 c 0,0 29.334,65.333 26,82 0,0 12.666,0.667 20.666,-14 8,-14.667 -22,-69.334 -39.333,-75.334 z"
                 style="fill:#9deca2;fill-opacity:1;fill-rule:nonzero;stroke:none"
                 id="path138"
                 inkscape:connector-curvature="0" /></g><g
               id="g140"
               transform="translate(668.4736,261.0811)"><path
                 d="m 0,0 c 0,0 -5.334,86.667 13.333,100 0,0 13.334,7.333 13.334,-21.333 C 26.667,50 6,-20 0,0"
                 style="fill:#9deca2;fill-opacity:1;fill-rule:nonzero;stroke:none"
                 id="path142"
                 inkscape:connector-curvature="0" /></g><g
               id="g144"
               transform="translate(685.4756,380.0811)"><path
                 d="M 0,0 C 0,0 -2.001,6.333 6.666,7.667 15.333,9 17.666,-1 14.333,-4.667 11,-8.333 -0.333,-6.333 0,0"
                 style="fill:#9deca2;fill-opacity:1;fill-rule:nonzero;stroke:none"
                 id="path146"
                 inkscape:connector-curvature="0" /></g><g
               id="g148"
               transform="translate(702.1416,370.7476)"><path
                 d="M 0,0 C 0,0 -2.666,4.333 3.667,4.333 10,4.333 9.666,1 8,-2.667 6.334,-6.333 -0.334,-5 0,0"
                 style="fill:#9deca2;fill-opacity:1;fill-rule:nonzero;stroke:none"
                 id="path150"
                 inkscape:connector-curvature="0" /></g><g
               id="g152"
               transform="translate(673.4756,372.0811)"><path
                 d="M 0,0 C 0,0 -2,5.667 4,8.333 10,11 11.334,-4.333 0,0"
                 style="fill:#9deca2;fill-opacity:1;fill-rule:nonzero;stroke:none"
                 id="path154"
                 inkscape:connector-curvature="0" /></g><g
               id="g156"
               transform="translate(651.4746,273.748)"><path
                 d="m 0,0 c 0,0 -18.533,20.132 -11.798,42.563 0.143,0.478 0.298,0.957 0.465,1.437 l 0.667,-3 c 0,0 -3.333,-23 11,-39.667 C 0.334,1.333 2.333,-1 0,0"
                 style="fill:#6be273;fill-opacity:1;fill-rule:nonzero;stroke:none"
                 id="path158"
                 inkscape:connector-curvature="0" /></g><g
               id="g160"
               transform="translate(650.1416,272.4141)"><path
                 d="m 0,0 c 0,0 -21.666,19.001 -19.333,38.667 0,0 -0.668,1.666 -1.334,-1 -0.666,-2.667 -0.999,-17 20.334,-40 z"
                 style="fill:#6be273;fill-opacity:1;fill-rule:nonzero;stroke:none"
                 id="path162"
                 inkscape:connector-curvature="0" /></g></g></g><g
           id="g164"><g
             id="g166"
             clip-path="url(#clipPath170)"><g
               id="g172"
               transform="translate(672.6836,251.6338)"><path
                 style="fill:#2d2d2d;fill-opacity:1;fill-rule:nonzero;stroke:none"
                 d="m 0,0 c 16.234698,-24.066625 43.475071,-41.386305 72.935504,-41.951121 21.937732,-0.543931 45.990186,6.809857 59.410566,25.13433 7.74796,10.2463065 7.36578,25.2527345 -0.74657,35.179041 C 123.41334,30.651147 107.77882,36.413343 93.458859,33.570937 76.841536,30.74782 61.735355,22.192395 48.531,12.009 c 4.397685,5.430229 10.554506,11.148461 14.739971,17.429955 9.609843,12.812328 16.355133,30.793456 8.35808,46.063209 C 66.789163,84.99257 57.408042,91.209478 53.006086,101.03916 45.479552,115.21584 40.326193,132.54621 25.650641,141.19927 15.233522,145.77346 5.0421523,137.14128 -1.0449531,129.41017 -14.567514,111.56833 -21.618617,89.203903 -23.083113,67.010544 -23.809149,42.859186 -14.614303,18.982005 0,0 Z M -0.039,-0.031 C -18.994115,24.156935 -28.54602,56.892221 -20.531934,87.119857 -15.80316,106.14166 -8.1421322,126.06656 7.756,138.506 c 6.611132,5.50446 17.232866,6.09502 23.216,-0.7 C 46.958518,123.84578 49.017102,100.34239 64.386047,85.860297 74.594212,76.039293 78.24081,60.382797 73.066623,47.142223 68.223526,33.480584 58.670663,22.124463 48.542,12.019 c 4.165757,4.397995 10.914633,8.099246 16.544447,11.49575 15.589191,8.676715 35.292373,15.61634 52.531363,7.518055 14.1328,-7.047517 25.15747,-24.2498454 19.25016,-40.1204066 C 129.75002,-27.399463 110.25388,-37.311444 91.933016,-40.872695 61.936757,-46.88661 29.913355,-34.988985 9.74976,-12.2932 6.2020587,-8.4442303 2.9380405,-4.3358978 -0.039,-0.031 Z"
                 id="path174"
                 inkscape:connector-curvature="0" /></g><g
               id="g176"
               transform="translate(667.499,261.5937)"><path
                 style="fill:#2d2d2d;fill-opacity:1;fill-rule:nonzero;stroke:none"
                 d="m 0,0 c 2.257,-1.6503333 4.514,-3.3006667 6.771,-4.951 1.5170668,4.66383926 3.626862,9.9990031 5.231755,14.970965 C 18.868036,31.003564 25.47235,52.259753 28.330774,74.21918 29.08654,82.2581 30.155582,90.974657 26.476336,98.481246 23.877009,103.77086 16.131489,104.26322 12.26,100.147 5.9953081,93.70211 4.3050254,84.394985 2.5753535,75.905707 -0.94898635,54.345909 -0.96670775,32.38778 -0.42834375,10.604672 -0.32437524,7.06838 -0.19649943,3.5324875 0,0 Z m -0.05,-0.015 c -1.4016144,23.545862 -1.7390906,47.306534 1.489,70.724 1.6495161,9.7759 3.2915138,20.202379 9.462406,28.286328 3.303182,4.656942 11.048234,5.837692 14.787559,1.096182 4.438063,-6.165179 3.846904,-14.301212 3.518939,-21.511014 C 27.356897,58.552415 21.738063,39.097219 15.681406,19.99252 12.91395,11.54608 10.032364,3.1309036 6.76,-5.135 c -2.2666866,1.7092358 -4.5542707,3.4051849 -6.81,5.12 z"
                 id="path178"
                 inkscape:connector-curvature="0" /></g><g
               id="g180"
               transform="translate(678.2549,253.5869)"><path
                 style="fill:#2d2d2d;fill-opacity:1;fill-rule:nonzero;stroke:none"
                 d="m 0,0 c 2.5136667,-2.31 5.0273333,-4.62 7.541,-6.93 1.9583367,1.3320975 4.727198,3.1636894 6.744536,5.0192615 10.933213,9.8250124 19.485028,22.0186185 26.829238,34.6734845 4.623285,8.515507 9.270731,17.425462 10.379567,27.187208 0.612597,6.605013 -4.00141,12.272969 -8.577636,16.477946 C 37.941771,80.807804 32.12942,84.183238 26.02,86.716 26.265908,85.956862 26.05776,84.226249 26.04647,83.086438 25.024791,66.485587 19.992133,50.442122 14.513625,34.842787 10.197719,23.021961 5.4197227,11.359635 0,0 Z M -0.053,0.005 C 9.3133575,21.011592 17.805764,42.548611 23.161004,64.960281 24.77733,72.166231 26.035024,79.518152 25.965,86.925 35.094037,83.083336 44.21554,77.650924 49.56305,69.047737 52.102589,65.247617 52.48674,60.492388 51.387388,56.13797 48.524947,44.072788 42.234164,33.151802 35.586796,22.806758 28.526701,12.361374 20.611224,2.1517664 10.341723,-5.3297119 8.7772807,-6.657202 7.0822189,-7.8292097 5.8376975,-5.60307 3.8813786,-3.7324217 1.8672457,-1.8724126 -0.053,0.005 Z"
                 id="path182"
                 inkscape:connector-curvature="0" /></g><g
               id="g184"
               transform="translate(691.7627,240.3242)"><path
                 style="fill:#2d2d2d;fill-opacity:1;fill-rule:nonzero;stroke:none"
                 d="m 0,0 c 2.2726667,-2.8026667 4.5453333,-5.6053333 6.818,-8.408 10.783174,-1.70617 21.849472,0.6407832 31.789282,4.8697741 8.19691,3.65286442 16.034128,8.5595061 22.008602,15.3344379 1.799891,2.336368 3.750171,5.124071 3.529986,8.207603 -0.651142,3.209082 -4.3266,4.659698 -7.301845,4.246748 C 49.004673,23.911114 41.710327,20.644051 34.562211,17.702177 22.692707,12.514451 11.240778,6.423415 0,0 Z m -0.051,0.028 c 14.352932,8.5661456 29.140982,16.687952 45.053181,21.980138 5.076318,1.620366 10.54155,3.164789 15.878232,2.009232 3.291436,-1.057967 4.589746,-5.414013 2.654162,-8.214333 C 60.221568,9.1824626 54.017926,4.6632613 47.914658,0.79513647 36.006133,-6.4819277 21.778027,-10.833166 7.7621214,-8.8606268 5.4793839,-8.4288084 4.8297166,-5.7975465 3.2989088,-4.3273428 2.1704644,-2.8847114 1.0426057,-1.4413518 -0.051,0.028 Z"
                 id="path186"
                 inkscape:connector-curvature="0" /></g><g
               id="g188"
               transform="translate(702.0684,227.2021)"><path
                 style="fill:#2d2d2d;fill-opacity:1;fill-rule:nonzero;stroke:none"
                 d="m 0,0 c 1.027697,-2.0628731 2.2860476,-4.4017262 3.172,-6.295 19.930425,-3.767091 41.088822,-5.266377 60.625,1.246 13.36048,4.44395636 25.723304,14.2692011 30.014654,28.078265 2.222944,7.2371 2.519594,16.41922 -3.296654,22.096735 -6.140309,6.107431 -15.799348,5.510641 -23.390286,2.868074 -2.762577,-1.096296 -9.143213,-3.248831 -9.25753,-4.686322 4.439148,-2.424788 6.399153,-8.081092 4.47816,-12.747518 C 58.987562,21.783301 51.295257,15.53227 43.589135,10.615373 32.398015,4.0415345 19.526503,0.58473893 6.6630938,-0.61254688 4.4809151,-0.61707519 1.981343,-1.1132143 0,0 Z m -0.073,0.143 c 3.7682313,-1.6387923 8.2368563,-0.26413032 12.219842,0.0891289 16.67307,2.7063649 33.661617,9.1298526 44.957096,22.2110901 3.64519,4.341627 7.364463,10.458117 4.798171,16.214203 -0.25373,3.034217 -7.9362,4.776073 -2.497843,6.254922 8.024783,3.97553 17.756663,7.221057 26.502947,3.62628 6.13479,-2.499959 9.73619,-9.002651 9.692091,-15.47577 C 95.994644,18.854517 86.454959,6.0593818 74.459641,-0.71589014 58.133482,-10.073415 38.527077,-11.026944 20.215349,-9.1117824 14.473389,-8.4805459 8.7134335,-7.6067843 3.087,-6.405 2.0555178,-4.2299439 0.85022187,-1.9989042 -0.073,0.143 Z"
                 id="path190"
                 inkscape:connector-curvature="0" /></g><g
               id="g192"
               transform="translate(700.5674,376.9399)"><path
                 d="M 0,0 C 0,0 0.074,0.179 0.213,0.515 0.347,0.852 0.5,1.366 0.591,2.037 0.668,2.708 0.638,3.541 0.409,4.448 c -0.227,0.908 -0.682,1.877 -1.36,2.794 -0.672,0.917 -1.602,1.779 -2.687,2.463 -1.131,0.694 -2.44,1.152 -3.85,1.347 -1.406,0.167 -2.915,0.016 -4.284,-0.581 -1.381,-0.574 -2.568,-1.622 -3.289,-2.983 -0.34,-0.683 -0.569,-1.422 -0.668,-2.181 -0.092,-0.762 -0.019,-1.532 0.136,-2.272 0.343,-1.484 1.155,-2.807 2.171,-3.822 1.019,-1.005 2.255,-1.733 3.464,-2.204 1.229,-0.449 2.467,-0.657 3.609,-0.635 1.143,0.019 2.19,0.242 3.05,0.61 0.862,0.366 1.545,0.845 2.033,1.313 0.48,0.479 0.794,0.909 0.984,1.221 C -0.098,-0.167 0,0 0,0 m 0.045,-0.023 c 0,0 -0.096,-0.171 -0.274,-0.49 -0.181,-0.315 -0.495,-0.764 -0.971,-1.258 -0.493,-0.472 -1.138,-1.021 -2.009,-1.442 -0.863,-0.423 -1.931,-0.746 -3.126,-0.804 -1.191,-0.06 -2.505,0.119 -3.778,0.627 -1.285,0.502 -2.479,1.332 -3.503,2.417 -0.986,1.102 -1.786,2.454 -2.127,3.973 -0.369,1.505 -0.232,3.161 0.437,4.61 0.689,1.43 1.919,2.611 3.355,3.261 1.436,0.669 3.034,0.846 4.523,0.695 1.491,-0.172 2.89,-0.709 4.039,-1.417 C -2.2,9.414 -1.281,8.475 -0.61,7.482 0.061,6.489 0.446,5.442 0.63,4.498 0.818,3.548 0.771,2.703 0.69,2.024 0.582,1.345 0.414,0.829 0.271,0.492 0.124,0.156 0.045,-0.023 0.045,-0.023"
                 style="fill:#2d2d2d;fill-opacity:1;fill-rule:nonzero;stroke:none"
                 id="path194"
                 inkscape:connector-curvature="0" /></g><g
               id="g196"
               transform="translate(710.9316,368.8374)"><path
                 d="M 0,0 C 0,0 0.036,0.11 0.106,0.317 0.167,0.527 0.317,0.819 0.323,1.231 0.405,1.634 0.322,2.13 0.207,2.672 0.104,2.933 0.024,3.221 -0.116,3.498 -0.289,3.758 -0.424,4.058 -0.641,4.319 -0.872,4.564 -1.06,4.879 -1.354,5.082 -1.624,5.311 -1.887,5.566 -2.259,5.756 -2.901,6.202 -3.707,6.41 -4.527,6.569 -5.358,6.636 -6.251,6.595 -7.065,6.237 -7.881,5.875 -8.56,5.326 -9.049,4.481 -9.448,3.693 -9.566,2.723 -9.377,1.836 -9.178,0.94 -8.65,0.175 -8.062,-0.442 c 0.351,-0.254 0.608,-0.566 1.007,-0.749 0.186,-0.104 0.368,-0.207 0.549,-0.309 0.15,-0.078 0.362,-0.142 0.535,-0.213 0.357,-0.167 0.732,-0.221 1.089,-0.297 0.354,-0.113 0.713,-0.068 1.051,-0.101 0.34,-0.012 0.66,0.062 0.973,0.083 0.305,0.056 0.582,0.169 0.853,0.244 0.502,0.236 0.948,0.47 1.217,0.776 0.322,0.251 0.469,0.554 0.6,0.729 C -0.065,-0.096 0,0 0,0 m 0.043,-0.024 c 0,0 -0.063,-0.101 -0.18,-0.288 -0.126,-0.182 -0.257,-0.483 -0.58,-0.758 -0.279,-0.317 -0.688,-0.62 -1.198,-0.911 -0.272,-0.105 -0.555,-0.254 -0.872,-0.345 -0.324,-0.053 -0.664,-0.18 -1.03,-0.175 -0.725,-0.024 -1.542,0.038 -2.308,0.39 -0.197,0.087 -0.382,0.14 -0.596,0.259 -0.174,0.114 -0.348,0.23 -0.525,0.347 -0.369,0.2 -0.673,0.582 -1.009,0.877 -0.559,0.705 -1.074,1.498 -1.272,2.43 -0.199,0.925 -0.146,1.896 0.249,2.829 0.402,0.827 1.171,1.585 2.033,2.006 0.884,0.43 1.862,0.497 2.778,0.446 C -3.561,6.942 -2.688,6.67 -1.992,6.191 -1.292,5.804 -0.696,5.143 -0.3,4.558 -0.079,4.266 0.026,3.918 0.179,3.626 0.296,3.317 0.347,3.001 0.428,2.722 0.503,2.138 0.508,1.628 0.423,1.218 0.399,0.797 0.235,0.504 0.165,0.294 0.086,0.087 0.043,-0.024 0.043,-0.024"
                 style="fill:#2d2d2d;fill-opacity:1;fill-rule:nonzero;stroke:none"
                 id="path198"
                 inkscape:connector-curvature="0" /></g><g
               id="g200"
               transform="translate(681.2949,378.8848)"><path
                 d="M 0,0 C 0,0 -0.088,0.075 -0.254,0.218 -0.426,0.353 -0.641,0.602 -1.02,0.762 -1.362,0.988 -1.854,1.098 -2.399,1.194 -2.681,1.196 -2.977,1.231 -3.285,1.205 -3.593,1.143 -3.921,1.13 -4.244,1.026 -4.559,0.904 -4.921,0.848 -5.22,0.65 -5.532,0.487 -5.867,0.339 -6.184,0.065 c -0.654,-0.428 -1.148,-1.097 -1.604,-1.797 -0.374,-0.747 -0.67,-1.589 -0.645,-2.478 0.031,-0.892 0.286,-1.727 0.883,-2.498 0.581,-0.665 1.438,-1.139 2.329,-1.295 0.907,-0.152 1.813,0.05 2.606,0.364 0.367,0.23 0.753,0.35 1.073,0.653 0.166,0.132 0.33,0.263 0.492,0.392 0.128,0.11 0.268,0.282 0.398,0.417 0.289,0.267 0.479,0.594 0.684,0.898 0.237,0.285 0.329,0.634 0.488,0.936 0.137,0.31 0.19,0.635 0.288,0.933 0.062,0.304 0.061,0.602 0.093,0.882 -0.03,0.554 -0.079,1.056 -0.262,1.42 C 0.526,-0.715 0.302,-0.466 0.187,-0.279 0.064,-0.096 0,0 0,0 m 0.039,0.031 c 0,0 0.07,-0.096 0.199,-0.275 0.121,-0.184 0.351,-0.419 0.486,-0.822 0.188,-0.378 0.315,-0.87 0.394,-1.453 C 1.113,-2.81 1.145,-3.127 1.11,-3.456 1.038,-3.776 1.027,-4.139 0.887,-4.477 0.637,-5.157 0.272,-5.893 -0.341,-6.47 c -0.155,-0.15 -0.273,-0.301 -0.464,-0.455 -0.171,-0.118 -0.343,-0.237 -0.518,-0.357 -0.323,-0.266 -0.792,-0.405 -1.192,-0.606 -0.864,-0.254 -1.792,-0.434 -2.729,-0.268 -0.932,0.164 -1.814,0.576 -2.53,1.291 -0.616,0.684 -1.03,1.681 -1.096,2.639 -0.068,0.979 0.237,1.912 0.628,2.742 0.471,0.788 1.051,1.495 1.755,1.96 0.622,0.504 1.459,0.808 2.149,0.956 0.354,0.095 0.716,0.062 1.043,0.094 0.331,-0.007 0.643,-0.078 0.933,-0.109 0.569,-0.149 1.043,-0.335 1.391,-0.567 0.381,-0.18 0.592,-0.443 0.76,-0.586 0.163,-0.151 0.25,-0.233 0.25,-0.233"
                 style="fill:#2d2d2d;fill-opacity:1;fill-rule:nonzero;stroke:none"
                 id="path202"
                 inkscape:connector-curvature="0" /></g><g
               id="g204"
               transform="translate(658.7432,263.1279)"><path
                 d="m 0,0 c 1.537,-0.622 3.106,-1.18 4.624,-1.855 1.516,-0.682 3.052,-1.326 4.515,-2.122 0.736,-0.384 1.486,-0.748 2.214,-1.152 l 2.168,-1.237 c 1.453,-0.814 2.834,-1.746 4.246,-2.631 1.363,-0.956 2.764,-1.863 4.078,-2.891 1.347,-0.982 2.636,-2.04 3.924,-3.1 1.27,-1.079 2.525,-2.182 3.718,-3.348 l 1.791,-1.748 1.732,-1.806 c 1.127,-1.228 2.262,-2.454 3.318,-3.745 1.086,-1.266 2.109,-2.586 3.114,-3.916 l 1.469,-2.025 1.411,-2.065 c 0.921,-1.39 1.816,-2.797 2.667,-4.231 0.852,-1.433 1.672,-2.884 2.444,-4.361 0.766,-1.48 1.502,-2.976 2.188,-4.494 1.371,-3.039 2.617,-6.126 3.562,-9.342 l 0.189,-0.645 -0.581,0.331 -4.321,2.466 -4.266,2.558 -4.202,2.659 -4.143,2.753 c -1.349,0.963 -2.721,1.895 -4.053,2.883 -1.331,0.99 -2.686,1.95 -3.977,2.993 l -1.956,1.542 -1.909,1.6 c -1.283,1.055 -2.5,2.19 -3.733,3.305 -1.19,1.161 -2.398,2.304 -3.536,3.519 -1.169,1.183 -2.267,2.435 -3.351,3.697 l -1.59,1.926 -1.524,1.978 c -0.992,1.337 -1.952,2.697 -2.861,4.092 -0.913,1.393 -1.751,2.834 -2.548,4.296 -0.771,1.475 -1.528,2.96 -2.171,4.497 -0.659,1.528 -1.23,3.095 -1.701,4.69 -0.458,1.598 -0.858,3.219 -1.017,4.877 L -0.076,0.03 Z m 0.05,-0.133 c 0.237,-1.6 0.696,-3.165 1.213,-4.695 0.537,-1.561 1.185,-3.079 1.867,-4.578 0.677,-1.503 1.466,-2.952 2.268,-4.39 0.826,-1.426 1.704,-2.82 2.612,-4.194 0.915,-1.37 1.88,-2.705 2.876,-4.018 l 1.53,-1.941 1.595,-1.889 c 1.096,-1.228 2.172,-2.479 3.317,-3.665 1.116,-1.214 2.306,-2.358 3.476,-3.521 1.209,-1.122 2.372,-2.296 3.621,-3.376 l 1.853,-1.646 1.901,-1.59 c 1.255,-1.077 2.576,-2.071 3.874,-3.097 1.306,-1.013 2.672,-1.95 4.005,-2.929 1.365,-0.933 2.727,-1.873 4.111,-2.779 l 4.217,-2.619 c 1.428,-0.835 2.852,-1.678 4.296,-2.485 l 4.367,-2.357 -0.392,-0.314 c -0.995,3.132 -2.305,6.188 -3.729,9.164 -1.428,2.981 -3.036,5.87 -4.744,8.695 -0.858,1.411 -1.758,2.794 -2.683,4.162 l -1.418,2.029 -1.474,1.988 c -1.015,1.301 -2.019,2.611 -3.087,3.868 -1.039,1.282 -2.157,2.498 -3.266,3.716 l -1.706,1.793 -1.764,1.736 c -0.581,0.586 -1.193,1.138 -1.806,1.691 -0.619,0.545 -1.198,1.135 -1.834,1.661 -1.249,1.078 -2.5,2.155 -3.812,3.158 -1.277,1.049 -2.644,1.979 -3.975,2.958 -1.378,0.909 -2.728,1.868 -4.152,2.708 l -2.125,1.279 c -0.713,0.419 -1.449,0.796 -2.174,1.196 -1.442,0.812 -2.933,1.528 -4.415,2.271 -1.454,0.726 -2.961,1.338 -4.443,2.01"
                 style="fill:#2d2d2d;fill-opacity:1;fill-rule:nonzero;stroke:none"
                 id="path206"
                 inkscape:connector-curvature="0" /></g><g
               id="g208"
               transform="translate(659.4316,271.542)"><path
                 d="m 0,0 c 0,0 -0.118,0.099 -0.34,0.282 -0.236,0.162 -0.506,0.514 -1.012,0.715 -0.24,0.116 -0.497,0.266 -0.798,0.369 -0.309,0.075 -0.643,0.156 -1,0.243 C -3.512,1.657 -3.903,1.646 -4.303,1.67 -4.704,1.641 -5.12,1.549 -5.547,1.496 -5.948,1.33 -6.413,1.258 -6.802,1.042 -7.187,0.818 -7.602,0.685 -8.015,0.295 -8.834,-0.275 -9.418,-1.146 -9.9,-2.088 c -0.426,-0.984 -0.56,-2.109 -0.439,-3.24 0.132,-0.549 0.22,-1.133 0.49,-1.622 0.146,-0.526 0.62,-1.057 0.912,-1.528 0.803,-0.878 1.844,-1.548 3.007,-1.846 1.169,-0.236 2.376,-0.125 3.406,0.313 0.256,0.1 0.475,0.262 0.708,0.382 0.23,0.12 0.455,0.245 0.662,0.453 0.212,0.183 0.421,0.364 0.628,0.543 0.13,0.129 0.308,0.378 0.458,0.555 0.664,0.747 0.993,1.638 1.294,2.453 0.067,0.427 0.182,0.839 0.229,1.239 C 1.45,-3.984 1.479,-3.594 1.449,-3.229 1.381,-2.868 1.317,-2.53 1.258,-2.217 1.171,-1.912 1.036,-1.65 0.933,-1.405 0.761,-0.892 0.415,-0.596 0.265,-0.352 0.09,-0.12 -0.004,0.004 -0.004,0.004 Z m 0.076,0.064 c 0,0 0.096,-0.121 0.277,-0.348 0.159,-0.245 0.495,-0.523 0.728,-1.028 0.123,-0.246 0.296,-0.507 0.44,-0.81 C 1.63,-2.44 1.749,-2.785 1.876,-3.153 1.963,-3.532 2,-3.95 2.068,-4.393 2.08,-4.833 2.048,-5.308 2,-5.8 1.78,-6.754 1.39,-7.807 0.603,-8.642 0.394,-8.856 0.256,-9.054 -0.021,-9.287 c -0.225,-0.154 -0.454,-0.312 -0.684,-0.471 -0.212,-0.172 -0.492,-0.301 -0.782,-0.419 -0.285,-0.115 -0.563,-0.264 -0.857,-0.342 -1.178,-0.323 -2.427,-0.334 -3.655,-0.106 -1.221,0.292 -2.357,0.916 -3.335,1.771 -0.429,0.532 -0.861,0.889 -1.165,1.532 -0.37,0.581 -0.517,1.217 -0.708,1.843 -0.216,1.288 -0.103,2.609 0.351,3.789 0.107,0.294 0.277,0.56 0.422,0.833 0.145,0.275 0.297,0.541 0.512,0.758 0.198,0.23 0.395,0.456 0.588,0.681 0.043,0.042 0.008,0.022 0.115,0.114 l 0.082,0.062 0.163,0.121 0.323,0.241 c 0.381,0.338 0.943,0.587 1.45,0.816 0.51,0.231 1.03,0.274 1.512,0.39 0.496,0.018 0.972,0.024 1.413,-0.013 C -3.837,2.22 -3.422,2.155 -3.047,2.05 -2.686,1.903 -2.348,1.766 -2.035,1.639 -1.741,1.479 -1.492,1.294 -1.254,1.158 -0.765,0.9 -0.497,0.54 -0.263,0.367 -0.044,0.173 0.072,0.068 0.072,0.068 Z"
                 style="fill:#2d2d2d;fill-opacity:1;fill-rule:nonzero;stroke:none"
                 id="path210"
                 inkscape:connector-curvature="0" /></g><g
               id="g212"
               transform="translate(652.4053,273.8936)"><path
                 style="fill:#2d2d2d;fill-opacity:1;fill-rule:nonzero;stroke:none"
                 d="M 0,0 C 0.64810817,-1.8779659 -1.7431112,-1.3390831 -1.99675,0.08560938 -6.3800262,6.0127606 -10.079377,12.528358 -12.159648,19.6342 c -2.308746,7.565589 -2.957184,15.833954 -0.738477,23.499675 1.094508,1.520347 2.367768,-0.508253 1.55749,-1.681781 -1.734816,-6.936909 -0.712806,-14.239768 1.4121445,-20.970216 C -7.6348877,13.234806 -4.4724964,6.1756341 0,0 Z m -0.082,-0.059 c -4.9686712,6.7801762 -9.349382,14.209549 -11.240361,22.481744 -1.472099,6.56599 -1.733464,13.470413 -0.216639,20.053256 0.119736,1.286444 -1.493944,0.455432 -1.104537,-0.598955 -1.686413,-8.182597 -0.397731,-16.716158 2.314392,-24.535484 C -8.0163696,10.93379 -5.0639088,4.7077898 -1.115,-0.862 c 0.43144083,-0.9087734 1.59168184,0.14616094 1.033,0.803 z"
                 id="path214"
                 inkscape:connector-curvature="0" /></g><g
               id="g216"
               transform="translate(650.5625,271.9004)"><path
                 style="fill:#2d2d2d;fill-opacity:1;fill-rule:nonzero;stroke:none"
                 d="M 0,0 C 1.0208411,-1.7083923 -1.4288935,-1.6621794 -1.9706094,-0.3224375 -7.5497367,4.6264377 -12.551601,10.323143 -16.068075,16.935877 c -3.738573,6.873992 -6.027432,14.747322 -5.43455,22.619248 0.762034,1.708785 2.419707,-0.01373 1.868374,-1.327029 -0.268636,-7.146184 2.236314,-14.082028 5.700814,-20.231774 C -10.194807,11.379118 -5.6491734,5.1203494 0,0 Z m -0.068,-0.074 c -6.2586371,5.6105876 -12.076299,11.977407 -15.628868,19.683123 -2.793461,6.121681 -4.468857,12.824191 -4.342132,19.577877 -0.140527,1.285116 -1.556151,0.141669 -0.956953,-0.81058 0.03894,-8.68015 3.280128,-17.06178 7.825613,-24.353465 C -9.6182114,8.4606229 -5.5762096,3.1259281 -0.637,-1.27975 0.02688575,-1.5595533 0.45148049,-0.45692082 -0.068,-0.074 Z"
                 id="path218"
                 inkscape:connector-curvature="0" /></g><g
               id="g220"
               transform="translate(707.9746,210.5811)"><path
                 d="M 0,0 C 0,0 -13.5,36.5 -48,50.5 -48,50.5 -37,15 0,0"
                 style="fill:#428b46;fill-opacity:1;fill-rule:nonzero;stroke:none"
                 id="path222"
                 inkscape:connector-curvature="0" /></g></g></g></g></g></g></svg>