<?xml version="1.0" encoding="UTF-8" standalone="no"?>
<!-- Created with Inkscape (http://www.inkscape.org/) -->

<svg
   xmlns:dc="http://purl.org/dc/elements/1.1/"
   xmlns:cc="http://creativecommons.org/ns#"
   xmlns:rdf="http://www.w3.org/1999/02/22-rdf-syntax-ns#"
   xmlns:svg="http://www.w3.org/2000/svg"
   xmlns="http://www.w3.org/2000/svg"
   xmlns:sodipodi="http://sodipodi.sourceforge.net/DTD/sodipodi-0.dtd"
   xmlns:inkscape="http://www.inkscape.org/namespaces/inkscape"
   version="1.1"
   id="svg2"
   xml:space="preserve"
   width="1003.3037"
   height="582.24268"
   viewBox="0 0 1003.3037 582.2427"
   sodipodi:docname="camera.svg"
   inkscape:version="0.92.2 5c3e80d, 2017-08-06"><metadata
     id="metadata8"><rdf:RDF><cc:Work
         rdf:about=""><dc:format>image/svg+xml</dc:format><dc:type
           rdf:resource="http://purl.org/dc/dcmitype/StillImage" /><dc:title /></cc:Work></rdf:RDF></metadata><defs
     id="defs6"><clipPath
       clipPathUnits="userSpaceOnUse"
       id="clipPath18"><path
         d="M 0,1000 H 1000 V 0 H 0 Z"
         id="path16"
         inkscape:connector-curvature="0" /></clipPath><clipPath
       clipPathUnits="userSpaceOnUse"
       id="clipPath38"><path
         d="M 0,1000 H 1000 V 0 H 0 Z"
         id="path36"
         inkscape:connector-curvature="0" /></clipPath><clipPath
       clipPathUnits="userSpaceOnUse"
       id="clipPath94"><path
         d="M 0,1000 H 1000 V 0 H 0 Z"
         id="path92"
         inkscape:connector-curvature="0" /></clipPath><clipPath
       clipPathUnits="userSpaceOnUse"
       id="clipPath122"><path
         d="M 0,1000 H 1000 V 0 H 0 Z"
         id="path120"
         inkscape:connector-curvature="0" /></clipPath></defs><sodipodi:namedview
     pagecolor="#ffffff"
     bordercolor="#666666"
     borderopacity="1"
     objecttolerance="10"
     gridtolerance="10"
     guidetolerance="10"
     inkscape:pageopacity="0"
     inkscape:pageshadow="2"
     inkscape:window-width="1920"
     inkscape:window-height="1029"
     id="namedview4"
     showgrid="false"
     inkscape:zoom="1.9284429"
     inkscape:cx="323.65121"
     inkscape:cy="374.12203"
     inkscape:window-x="0"
     inkscape:window-y="24"
     inkscape:window-maximized="1"
     inkscape:current-layer="g10" /><g
     id="g10"
     inkscape:groupmode="layer"
     inkscape:label="camera"
     transform="matrix(1.3333333,0,0,-1.3333333,-171.87467,945.81996)"><g
       id="g12"
       transform="translate(-119.28199)"><g
         id="g14"
         clip-path="url(#clipPath18)"><g
           id="g20"
           transform="translate(841.6152,523.9229)"><path
             d="m 0,0 c 0,0 12.001,-76.001 -6.666,-97.334 0,0 -164.001,-7.333 -173.334,14.667 l -8.666,92 76.666,1.334 c 0,0 -15.333,-10 -24.666,-38.667 C -146,-56.667 -112,-74 -112,-74 c 0,0 32.666,-22.001 66,8.666 0,0 17.333,40.001 2,64.001 z"
             style="fill:#ff7846;fill-opacity:1;fill-rule:nonzero;stroke:none"
             id="path22"
             inkscape:connector-curvature="0" /></g><g
           id="g24"
           transform="translate(801.6152,491.1729)"><path
             d="m 0,0 c 0,-26.096 -21.154,-47.25 -47.25,-47.25 -26.096,0 -47.25,21.154 -47.25,47.25 0,26.096 21.154,47.25 47.25,47.25 C -21.154,47.25 0,26.096 0,0"
             style="fill:#9deca2;fill-opacity:1;fill-rule:nonzero;stroke:none"
             id="path26"
             inkscape:connector-curvature="0" /></g><g
           id="g28"
           transform="translate(703.6152,485.2559)"><path
             d="m 0,0 -6,-3.666 5.667,-12 8.667,-12 h 4 C 12.334,-27.666 -1.334,-5 0,0"
             style="fill:#ffffff;fill-opacity:1;fill-rule:nonzero;stroke:none"
             id="path30"
             inkscape:connector-curvature="0" /></g></g></g><g
       id="g32"
       transform="translate(-119.28199)"><g
         id="g34"
         clip-path="url(#clipPath38)"><g
           id="g40"
           transform="translate(798.6484,523.2256)"><path
             style="fill:#231f20;fill-opacity:1;fill-rule:nonzero;stroke:none"
             d="m 0,0 c -5.9668177,2.1522654 -2.1314456,13.299435 -10.638,13.317 -10.271642,1.883038 -20.780533,0.366318 -31.164368,0.474455 C -76.449582,12.888482 -111.1095,12.125643 -145.77,12.583 c -4.42771,-2.527543 1.35914,-11.80134461 -0.169,-16.705 1.59803,-24.096932 2.04688,-48.312256 5.226,-72.271 0.74388,-9.566384 10.30577,-15.568532 19.317,-15.594 14.79293,-1.629395 29.51234,-3.960037 44.216,-6.088 35.043872,-1.802179 70.1696694,-1.740539 105.239375,-1.6275 8.170162,0.08696 13.935969,7.052183 15.563016,14.568609 C 49.357628,-63.81237 48.804255,-41.43997 48.725,-19.5375 48.397507,-12.835927 45.723566,-4.5170652 45.178561,0.73523241 40.851262,-0.04190145 33.512855,0.23487197 27.876536,0.16108335 19.022146,0.0417347 10.184757,2.8711238 1.403375,0.3045 L 0.014,0.003 0.004,0 Z M -0.066,0.395 C 6.9253909,2.4143875 14.161139,2.0141063 21.24725,1.020875 29.4998,0.66943528 37.755978,1.2762406 45.977,1.945 c 3.884877,-11.621515 5.829235,-23.753008 5.684437,-36.002656 0.205458,-19.041656 0.614314,-38.884328 -6.482703,-56.881844 -3.358732,-8.426378 -10.66166,-12.04926 -19.434259,-11.83521 -34.3242918,1.46009 -68.678704,2.09442 -103.013475,3.22471 -14.763285,1.822248 -29.55119,3.740284 -44.401,4.931 -8.66056,-0.07287 -19.55842,5.05151 -21.64051,14.733023 -4.01651,19.430092 -4.04272,39.445328 -5.74548,59.156248 -0.79995,10.115632 -1.09254,20.29121699 -2.53001,30.340729 -2.11772,4.243467 3.55246,8.570414 8.19,7.216 37.97682,-0.339436 75.951878,-0.803252 113.92275,-1.59 8.103248,-0.513242 17.48879,1.266355 24.30975,-4.149875 C -2.5376615,8.2851128 -4.5539254,1.6616782 -0.066,0.395 Z"
             id="path42"
             inkscape:connector-curvature="0" /></g><g
           id="g44"
           transform="translate(844.4258,527.4878)"><path
             style="fill:#231f20;fill-opacity:1;fill-rule:nonzero;stroke:none"
             d="M 0,0 C 1.6319383,8.1192753 3.1382069,18.399643 -3.411375,24.798375 -9.2487933,29.158779 -17.411408,29.276899 -24.598,30.046 -37.197173,31.096028 -49.83661,30.752891 -62.432375,29.97275 -68.16301,29.657901 -73.917038,30.572882 -79.237,32.334 c -13.283214,1.47333 -25.94016,-4.260747 -39.10463,-4.832604 -17.40197,-1.762518 -34.95943,-4.092131 -52.43237,-2.416396 -7.49039,2.244528 -15.16198,-2.732658 -20.52978,-7.552094 -2.2834,-1.23539 -4.48348,-10.0392463 -3.24547,-3.100531 3.76685,8.031814 12.48196,13.876146 21.32069,14.439324 11.1464,-1.830217 22.51984,0.336657 33.72449,0.847894 10.33862,0.778729 20.67807,1.548253 31.00607,2.459407 5.4021,1.115368 12.66141,2.105476 18.865437,2.352719 6.169639,0.805414 12.027619,-1.035979 17.808301,-2.797651 12.931894,-1.877221 25.731716,2.133081 38.677663,1.984973 C -23.096932,33.657595 -12.185236,33.663971 -3.202,28.534 5.6121332,22.293219 4.1283929,9.7293781 0.77554102,0.86169922 L 0.379,-0.13 Z"
             id="path46"
             inkscape:connector-curvature="0" /></g><g
           id="g48"
           transform="translate(843.917,557.3931)"><path
             style="fill:#231f20;fill-opacity:1;fill-rule:nonzero;stroke:none"
             d="m 0,0 c -1.4200139,4.7646554 -5.1300234,10.093909 -10.758875,9.454375 -10.054282,-0.6124448 -20.08378,0.3590428 -30.089,1.223625 -11.425457,0.959818 -22.920178,-0.8806405 -34.312546,0.411673 -7.221449,1.215091 -14.619121,0.703305 -21.912577,1.087291 -8.105492,-0.04284 -16.382472,0.666247 -24.345442,-1.132245 -5.20144,-2.5940508 2.76143,3.534032 4.94014,2.837004 12.74952,2.771589 26.013261,3.054112 38.949777,1.547691 7.338033,-1.701772 14.927383,-1.960467 22.397765,-2.838218 11.247866,-1.276698 22.509857,0.221412 33.765758,0.313992 4.853823,-0.282462 9.881512,0.309315 14.596625,-1.031813 C -2.0980197,10.043672 0.27035784,4.8286295 0.396,0.06 L 0.14890793,0.02256181 Z"
             id="path50"
             inkscape:connector-curvature="0" /></g><g
           id="g52"
           transform="translate(723.416,559.9331)"><path
             style="fill:#231f20;fill-opacity:1;fill-rule:nonzero;stroke:none"
             d="M 0,0 C -0.97962577,3.4036798 -4.8404598,4.5781012 -8.0155226,4.6226089 -12.531324,5.08 -17.281467,5.7297065 -21.57515,3.8122093 c -0.656057,-0.3750998 -2.416561,-0.8147748 -1.525829,-0.6935556 -0.643199,-3.52055826 -4.193386,-2.39551803 -6.814432,-2.59257092 -4.9317,-0.136184 -9.881423,0.16077141 -14.80128,-0.21358709 -1.921209,0.24581372 -3.780931,-1.67872469 -4.82972,-2.00219109 -0.164499,3.2331049 3.457257,4.7011509 6.042854,5.4647998 5.830832,1.6796984 12.004661,0.9495941 17.859131,-0.2007918 0.822936,-0.6150306 -1.894407,-0.9437842 0.0675,0.1001742 1.622766,2.1678875 4.675365,1.3578668 6.977639,2.3027684 4.045999,0.9318816 8.043262,3.0413398 12.3003669,2.06133 C -2.791194,7.4894639 1.0782428,4.6974319 0.58613459,0.75483619 0.47539935,0.36438913 0.57690796,-0.20512808 0,0 Z"
             id="path54"
             inkscape:connector-curvature="0" /></g><g
           id="g56"
           transform="translate(698.8154,559.9229)"><path
             d="M 0,0 C 0,0 0.069,-0.018 0.2,-0.051 0.319,-0.083 0.485,-0.132 0.647,-0.193 0.979,-0.316 1.341,-0.492 1.5,-0.703 1.57,-0.809 1.655,-0.923 1.557,-1.044 1.474,-1.165 1.155,-1.292 0.864,-1.424 0.572,-1.556 0.36,-1.692 0.405,-1.83 0.413,-1.969 0.61,-2.109 0.896,-2.25 1.165,-2.391 1.466,-2.531 1.572,-2.67 1.687,-2.808 1.805,-2.944 1.886,-3.076 2.067,-3.34 1.849,-3.586 1.585,-3.797 1.431,-3.902 1.292,-3.999 1.112,-4.085 0.949,-4.17 0.771,-4.245 0.597,-4.307 0.417,-4.368 0.276,-4.417 0.181,-4.449 0.062,-4.482 0,-4.5 0,-4.5 h -0.4 c 0,0 -0.063,0.018 -0.181,0.051 -0.096,0.032 -0.236,0.081 -0.416,0.142 -0.175,0.062 -0.353,0.137 -0.516,0.222 -0.179,0.086 -0.318,0.183 -0.472,0.288 -0.264,0.211 -0.483,0.457 -0.301,0.721 0.081,0.132 0.199,0.268 0.313,0.406 0.107,0.139 0.408,0.279 0.677,0.42 0.285,0.141 0.483,0.281 0.49,0.42 0.045,0.138 -0.167,0.274 -0.459,0.406 -0.291,0.132 -0.609,0.259 -0.692,0.38 -0.099,0.121 -0.014,0.235 0.057,0.341 0.159,0.211 0.521,0.387 0.852,0.51 0.162,0.061 0.328,0.11 0.447,0.142 C -0.47,-0.018 -0.4,0 -0.4,0 Z"
             style="fill:#231f20;fill-opacity:1;fill-rule:nonzero;stroke:none"
             id="path58"
             inkscape:connector-curvature="0" /></g><g
           id="g60"
           transform="translate(832.3564,547.6978)"><path
             style="fill:#231f20;fill-opacity:1;fill-rule:nonzero;stroke:none"
             d="m 0,0 c -9.2387778,-1.1604736 -18.582822,-1.3529636 -27.878769,-0.96371826 -0.879896,0.0796835 -2.57488,-0.14874894 -1.307068,0.81454483 0.497946,0.55272447 0.995891,1.10544895 1.493837,1.65817343 0.667239,-6.0325711 1.233178,-12.080185 1.421003,-18.149 -0.595457,0.394403 -1.29689,1.126485 -0.100816,0.767128 6.096672,-0.559568 12.238851,-0.281191 18.3014659,0.510783 2.2691223,0.228115 4.5475486,0.394918 6.8293501,0.387089 0.82223882,0.14808 2.8104757,0.999773 1.37890103,2.290527 C -1.4464188,-9.3402288 -1.120004,-5.4695771 -0.47360321,-1.9349628 -0.33985814,-1.284386 -0.18154343,-0.6388816 0,0 Z m 0.458,0.204 c 0.47323894,-3.644673 0.5520711,-7.4664199 2.1806037,-10.834066 0.9081565,-1.33333 1.9671658,-2.967101 1.232727,-4.627028 -0.8406937,-2.053184 -3.1561825,-3.093271 -5.2380064,-3.318198 -6.8567789,0.02631 -13.6390303,1.588192 -20.5100313,1.151242 -2.044081,-0.06069 -4.085129,-0.203833 -6.120293,-0.40195 -1.474691,6.014003 -2.715464,12.0825923 -3.694092,18.19695385 0.122157,0.91298245 -1.175573,3.00624065 0.155582,2.91575545 C -21.402363,3.3721582 -11.264833,2.463005 -1.2833996,0.73465188 -0.80951307,0.50937324 0.27760108,0.69168399 0.458,0.204 Z"
             id="path62"
             inkscape:connector-curvature="0" /></g><g
           id="g64"
           transform="translate(796.4365,522.3169)"><path
             style="fill:#231f20;fill-opacity:1;fill-rule:nonzero;stroke:none"
             d="M 0,0 C -9.3942209,9.3782337 -21.592183,17.221413 -35.28975,17.25075 -41.264361,17.055464 -47.073347,15.365775 -52.902437,14.137844 -61.776234,11.995759 -71.0285,8.3973398 -76.138965,0.35112891 -81.274706,-7.720546 -84.966376,-16.616573 -88.650422,-25.419969 c -4.738855,-13.382917 1.153976,-27.882241 9.65934,-38.360623 3.045032,-3.341312 6.077389,-7.824422 9.782239,-9.511008 14.638182,-6.596859 31.927282,-9.015884 47.182343,-2.987009 7.350236,2.885063 14.1498913,7.418134 19.2725,13.458609 1.76069859,3.182399 3.9528859,8.168172 4.9963821,12.430852 C 6.4921872,-33.86079 4.4018181,-16.265878 0,0 Z m 0.366,0.176 c 6.7541909,-17.000889 9.5953558,-36.383354 4.4435,-54.20625 -1.7971108,-5.726156 -4.06308706,-11.695448 -9.04675,-15.412766 -12.326117,-10.764376 -29.772049,-13.807716 -45.557775,-10.928133 -7.387324,1.22811 -14.588606,3.504295 -21.475975,6.407149 -11.604718,9.593509 -22.07514,22.913901 -22.580812,38.572844 -0.39759,10.256124 5.234606,19.267231 8.891953,28.462281 3.692412,8.7459309 9.657304,17.185942 18.698859,20.924875 7.333897,3.243998 15.280489,4.605532 23.147,5.864 3.722225,0.918925 9.697847,0.864887 14.20075,-0.202625 C -17.134175,17.065483 -7.1169895,9.3995969 0.366,0.176 Z"
             id="path66"
             inkscape:connector-curvature="0" /></g><g
           id="g68"
           transform="translate(721.2773,514.4668)"><path
             style="fill:#231f20;fill-opacity:1;fill-rule:nonzero;stroke:none"
             d="M 0,0 C 6.6090576,8.4625858 16.392509,15.300047 27.479,15.37 31.598606,15.29218 34.426817,14.489651 38.685656,13.805453 46.391956,12.361687 54.537371,9.5735874 59.114,2.781 c 4.202389,-6.1137365 6.689096,-13.181004 9.492875,-20.002375 3.659525,-9.746135 0.06183,-20.635746 -6.287305,-28.394904 -2.890204,-3.538059 -6.008546,-7.124894 -9.843161,-9.620941 C 40.44103,-60.134244 26.61539,-62.689609 14.05775,-58.187375 8.5633899,-56.166263 3.3735694,-52.904945 -0.297,-48.293 -7.8361436,-34.663331 -6.4948976,-17.843761 -1.4737969,-3.617125 -1.0336443,-2.3929636 -0.54965259,-1.1768789 0,0 Z m 0.328,-0.24 c -3.1744676,-12.876691 -4.6594233,-26.838326 -0.455,-39.662 0.77424952,-2.292182 1.8265161,-4.462486 2.938,-6.608 2.3703789,-2.793267 6.8255783,-6.405033 10.812906,-8.310937 10.8501,-5.728683 23.984616,-4.95881 35.10477,-0.448038 1.010199,0.368403 2.964305,1.307639 3.409324,1.421975 7.906899,7.17247 14.643453,17.12451 14.382199,28.191328 -0.194807,6.586349 -3.986729,12.246052 -6.43843,18.1489967 C 57.428577,-1.7036871 53.826003,4.2193509 47.698,6.846 41.433184,9.5919911 34.64386,10.945021 27.932063,12.042219 17.325358,12.766056 7.6932344,6.8471837 0.328,-0.24 Z"
             id="path70"
             inkscape:connector-curvature="0" /></g><g
           id="g72"
           transform="translate(715.1943,458.0146)"><path
             style="fill:#231f20;fill-opacity:1;fill-rule:nonzero;stroke:none"
             d="M 0,0 C -3.9714792,3.1047799 -6.5919719,7.5684537 -8.7425605,12.048678 -10.964481,16.785612 -12.242914,21.899718 -13.215,27.021 c 0.887,-0.315 1.774,-0.63 2.661,-0.945 -2.299072,-1.510913 -4.733589,-2.801092 -7.047,-4.289 0.101958,0.547624 0.123814,1.574961 0.506985,0.437797 1.496762,-2.916372 3.245974,-5.70311 4.64742,-8.666797 0.668661,-1.304435 0.600891,-2.893893 1.573866,-4.0486433 C -8.1994351,5.8134767 -4.9745122,2.5673039 -2.013,-0.892 -2.673528,-0.83734326 -3.3819519,-0.7826866 -2.2453594,-0.57065625 -1.5026431,-0.35881118 -0.75475491,-0.16428716 0,0 Z m 0.511,-0.271 c -0.95943407,-0.8602665 -2.0029759,-1.6184362 -3.037,-2.385 -3.9495185,2.29485488 -7.671372,5.1744178 -10.363031,8.9020957 -1.098849,1.6012325 -1.850775,3.5317681 -1.55612,5.4998913 -0.11293,3.869759 -2.102966,7.421964 -4.432356,10.406612 -0.659511,0.472064 0.489477,0.813474 0.698143,1.225326 2.444928,2.344012 4.820708,4.762007 7.383364,6.980075 1.4152109,-4.307649 2.8679399,-8.602681 4.4539192,-12.850971 C -4.251161,11.532769 -2.2933178,5.480853 0.657,-0.14 0.60833333,-0.18366667 0.55966667,-0.22733333 0.511,-0.271 Z"
             id="path74"
             inkscape:connector-curvature="0" /></g><g
           id="g76"
           transform="translate(769.6152,472.9229)"><path
             d="M 0,0 C 0,0 -20,-14 -28,-8.5 -36,-3 -55,15 -36,38.5 -17,62 -2,40 3.5,34 9,28 10,15 0,0"
             style="fill:#231f20;fill-opacity:1;fill-rule:nonzero;stroke:none"
             id="path78"
             inkscape:connector-curvature="0" /></g><g
           id="g80"
           transform="translate(769.4668,473.0703)"><path
             style="fill:#231f20;fill-opacity:1;fill-rule:nonzero;stroke:none"
             d="M 0,0 C 4.157499,7.8702732 7.4769577,17.021111 5.4862188,25.997328 4.7218093,29.938031 1.870193,32.865253 -0.74656104,35.703589 -5.1631379,40.568061 -10.148174,45.917746 -16.96723,46.969787 c -6.719305,0.830892 -12.607798,-3.641892 -17.00645,-8.212001 -5.756773,-5.922641 -10.241563,-13.979962 -9.239821,-22.488492 0.993074,-8.7768337 7.17461,-15.84888775 13.644067,-21.365334 1.906432,-1.6607962 4.062169,-3.4190815 6.785403,-3.1589913 7.142051,0.3635822 13.655567,3.7584857 19.9852419,6.8046602 C -1.8604456,-0.97751215 -0.9247346,-0.4990564 0,0 Z m 0.263,-0.312 c -6.0378238,-4.9335088 -12.885884,-9.3567145 -20.611316,-10.987355 -3.399487,-0.75716 -7.140558,-0.151248 -9.828184,2.14298 -9.192881,6.57662 -15.594406,17.780711 -14.393674,29.287956 1.015883,9.498222 6.290118,18.108609 12.953613,24.747981 4.797553,4.794627 12.143476,7.38835 18.753367,5.144274 C -4.5882587,47.398421 1.0269393,40.331001 6.2521563,33.816922 10.984681,26.699868 9.8280984,17.312767 6.5486406,9.8608281 4.9334142,6.2000666 2.7612809,2.8051076 0.263,-0.312 Z"
             id="path82"
             inkscape:connector-curvature="0" /></g><g
           id="g84"
           transform="translate(767.166,503.2334)"><path
             d="m 0,0 -5,0.434 1.834,-7.368 5.333,-0.215 c 0,0 -0.999,2.598 -1.333,3.465 C 0.5,-2.816 0,0 0,0"
             style="fill:#ffffff;fill-opacity:1;fill-rule:nonzero;stroke:none"
             id="path86"
             inkscape:connector-curvature="0" /></g></g></g><g
       id="g88"
       transform="translate(-119.28199)"><g
         id="g90"
         clip-path="url(#clipPath94)"><g
           id="g96"
           transform="translate(402.5,536)"><path
             d="m 0,0 v -103 c 0,0 3.5,-9 32.5,-8 29,1 161.5,1.5 161.5,1.5 0,0 4.5,3 5,18 0,0 -2.5,80.5 -3,82 -0.5,1.5 -53.5,0 -53.5,0 l -2,6.5 c 0,0 -3.5,4.5 -7,5.5 C 130,3.5 0,0 0,0"
             style="fill:#ff7846;fill-opacity:1;fill-rule:nonzero;stroke:none"
             id="path98"
             inkscape:connector-curvature="0" /></g><g
           id="g100"
           transform="translate(465.3335,462.5)"><path
             d="M 0,0 C 0,0 -23,36.686 4.333,65.469 31.667,94.251 76,66.705 78.667,59.167 81.017,52.521 108.125,23.932 73.417,-10 73.333,-10.082 69.917,5.5 72.239,-4.822 74.2,-13.539 60.008,-15.326 55,-18.823 55,-18.823 21.333,-29.467 0,0"
             style="fill:#9deca2;fill-opacity:1;fill-rule:nonzero;stroke:none"
             id="path102"
             inkscape:connector-curvature="0" /></g><g
           id="g104"
           transform="translate(500.3335,512.333)"><path
             d="m 0,0 c 0,0 -16.667,-5.999 -18,-25.333 -1.333,-19.334 33.333,-23.333 38.667,-12 C 26,-26 34.667,-1.333 0,0"
             style="fill:#231f20;fill-opacity:1;fill-rule:nonzero;stroke:#231f20;stroke-width:4;stroke-linecap:butt;stroke-linejoin:miter;stroke-miterlimit:10;stroke-dasharray:none;stroke-opacity:1"
             id="path106"
             inkscape:connector-curvature="0" /></g><g
           id="g108"
           transform="translate(454.3335,485.666)"><path
             d="m 0,0 -5.333,-6 12,-20 5.333,-0.666 z"
             style="fill:#ffffff;fill-opacity:1;fill-rule:nonzero;stroke:none"
             id="path110"
             inkscape:connector-curvature="0" /></g><g
           id="g112"
           transform="translate(519.833,501.2334)"><path
             d="m 0,0 -5,0.434 1.834,-7.368 5.333,-0.215 c 0,0 -0.999,2.598 -1.333,3.465 C 0.5,-2.816 0,0 0,0"
             style="fill:#ffffff;fill-opacity:1;fill-rule:nonzero;stroke:none"
             id="path114"
             inkscape:connector-curvature="0" /></g></g></g><g
       id="g116"
       transform="translate(-119.28199)"><g
         id="g118"
         clip-path="url(#clipPath122)"><g
           id="g124"
           transform="translate(597.998,525.3501)"><path
             style="fill:#231f20;fill-opacity:1;fill-rule:nonzero;stroke:none"
             d="m 0,0 c -15.617885,-0.95074621 -31.94142,-1.2204384 -47.257,-0.329 -9.148585,-2.2956822 -4.720873,9.6835299 -11.337,11.821 -3.776472,2.157522 -8.977608,0.55166 -13.565298,0.802142 -25.385372,-1.034817 -50.791522,-0.592603 -76.168432,0.427834 -15.40236,0.407105 -30.7977,1.249982 -46.20427,1.369024 3.43884,1.04596 8.21065,0.611403 12.24946,0.86181 31.12468,0.603791 62.26026,0.07806 93.380915,-0.493367 9.466144,-0.238249 18.928486,-0.86541 28.390625,-1.034443 8.501517,-0.32321 5.02671,-13.58227517 13.104,-11.795 15.80868,0.5630498 31.650575,-0.046915 47.411,-1.33 z"
             id="path126"
             inkscape:connector-curvature="0" /></g><g
           id="g128"
           transform="translate(551.6719,548.1499)"><path
             style="fill:#231f20;fill-opacity:1;fill-rule:nonzero;stroke:none"
             d="M 0,0 C 8.208197,0.71582726 16.459525,0.81850071 24.693375,0.642125 27.019388,0.56832437 29.344783,0.47425421 31.667,0.32 c 0.928414,-6.0556264 1.958992,-12.09868 2.548638,-18.200327 0.306852,-0.725095 -0.312013,-0.52424 -0.79827,-0.456026 -6.454748,0.787438 -12.970733,1.097822 -19.467093,0.738622 C 9.5764885,-17.834346 5.1962627,-17.690364 0.83,-17.387 0.19049612,-11.621954 -0.24533358,-5.8197938 -0.15,-0.016 l 0.07839711,0.00836236 z m 0.193,-0.329 c 1.3875427,-5.1413027 2.3116909,-10.396187 3.091,-15.66 -0.411,0.379 -0.822,0.758 -1.233,1.137 4.9128268,-0.01141 9.797236,-0.562724 14.662,-1.195973 5.520798,-0.678019 11.095727,-0.769624 16.65,-0.597027 -0.351952,-0.256098 -0.945413,-1.533357 -0.989043,-0.48604 C 30.963451,-11.948968 29.933216,-6.677531 28.805,-1.43 29.295667,-1.8526667 29.786333,-2.2753333 30.277,-2.698 21.574097,-2.5955471 12.878943,-1.9628458 4.2402148,-0.91207227 2.8909,-0.71954256 1.5376586,-0.55299708 0.193,-0.329 Z"
             id="path130"
             inkscape:connector-curvature="0" /></g><g
           id="g132"
           transform="translate(555.8496,491.167)"><path
             style="fill:#231f20;fill-opacity:1;fill-rule:nonzero;stroke:none"
             d="M 0,0 C 0.08472589,17.96688 -10.985704,35.134266 -27.043036,43.006273 -43.894513,51.93852 -65.786779,49.857656 -80.627531,37.867891 -95.242333,26.401498 -102.37864,6.3717744 -98.14491,-11.732535 c 3.681323,-17.098216 17.578793,-31.301158 34.52141,-35.527965 20.871773,-5.672958 44.786926,3.549538 56.2366113,21.959711 C -2.5715291,-17.784871 -0.083644,-8.8775777 0,0 Z m 0.3,-0.008 c 0.11538931,-19.517354 -11.332125,-39.04186 -29.415998,-46.997414 -16.563138,-7.759249 -37.158243,-4.898543 -51.346111,6.487367 C -95.538701,-29.161669 -103.47987,-9.2540539 -100.303,9.348 c 3.065004,19.77752 19.027955,36.606223 38.503233,41.044197 18.89224,4.629297 40.21795,-2.785864 51.641048,-18.659463 C -3.295952,22.667222 0.23985657,11.320053 0.3,-0.008 Z"
             id="path134"
             inkscape:connector-curvature="0" /></g><g
           id="g136"
           transform="translate(539.8496,490.5)"><path
             d="m 0,0 c 0,0 -0.051,0.857 -0.146,2.466 -0.036,0.4 -0.028,0.852 -0.104,1.341 -0.079,0.488 -0.166,1.021 -0.259,1.597 -0.099,0.575 -0.177,1.198 -0.337,1.846 -0.181,0.643 -0.375,1.325 -0.579,2.047 -0.872,2.851 -2.28,6.264 -4.747,9.594 -2.415,3.344 -5.762,6.661 -10.012,9.296 -2.164,1.245 -4.451,2.486 -6.994,3.33 -0.632,0.215 -1.268,0.433 -1.911,0.653 -0.659,0.162 -1.323,0.326 -1.993,0.491 l -1.006,0.25 c -0.337,0.079 -0.674,0.103 -1.012,0.158 -0.675,0.098 -1.355,0.197 -2.04,0.297 -0.681,0.106 -1.47,0.082 -2.208,0.13 l -1.13,0.047 -0.567,0.023 -0.465,-0.03 c -1.449,-0.099 -2.928,-0.075 -4.39,-0.368 -2.958,-0.348 -5.87,-1.303 -8.73,-2.453 -2.859,-1.194 -5.528,-2.913 -8.039,-4.879 -2.473,-2.032 -4.633,-4.47 -6.541,-7.125 -1.859,-2.696 -3.302,-5.695 -4.385,-8.841 L -68.289,7.467 C -68.42,7.065 -68.512,6.662 -68.573,6.256 L -68.798,5.038 C -69.178,3.469 -69.195,1.62 -69.362,0 c -0.006,-3.371 0.339,-6.761 1.228,-10.033 0.98,-3.237 2.358,-6.352 4.205,-9.157 0.457,-0.702 0.985,-1.355 1.483,-2.024 0.258,-0.328 0.491,-0.676 0.768,-0.986 l 0.845,-0.918 c 0.581,-0.593 1.085,-1.259 1.722,-1.788 0.621,-0.544 1.24,-1.086 1.858,-1.626 2.585,-2.017 5.375,-3.7 8.32,-4.865 2.933,-1.126 5.978,-2.005 8.93,-2.261 1.431,-0.249 3.021,-0.188 4.532,-0.244 l 0.285,-0.01 0.143,-0.005 0.071,-0.003 c 0.038,-0.002 -0.073,0.006 0.006,0.005 l 0.547,0.038 1.089,0.074 c 0.721,0.067 1.444,0.058 2.148,0.184 5.672,0.734 10.785,2.745 15.038,5.371 4.244,2.664 7.585,5.989 9.996,9.342 2.465,3.335 3.876,6.749 4.743,9.603 0.203,0.723 0.395,1.407 0.576,2.049 0.16,0.649 0.236,1.27 0.333,1.844 0.092,0.574 0.178,1.106 0.255,1.594 0.075,0.488 0.067,0.945 0.1,1.346 0.092,1.616 0.142,2.478 0.142,2.478 z m 0.3,-0.008 c 0,0 -0.037,-0.862 -0.109,-2.478 C 0.163,-2.89 0.177,-3.342 0.108,-3.838 0.036,-4.333 -0.043,-4.874 -0.128,-5.459 c -0.099,-0.582 -0.151,-1.219 -0.28,-1.884 -0.154,-0.659 -0.318,-1.359 -0.49,-2.099 -0.088,-0.371 -0.178,-0.751 -0.271,-1.142 -0.13,-0.379 -0.262,-0.768 -0.397,-1.166 -0.28,-0.793 -0.497,-1.656 -0.864,-2.5 -0.371,-0.845 -0.757,-1.725 -1.157,-2.637 -0.457,-0.884 -0.973,-1.782 -1.486,-2.724 -2.212,-3.654 -5.37,-7.504 -9.745,-10.617 -4.365,-3.094 -9.946,-5.332 -16.069,-6.005 -0.761,-0.107 -1.541,-0.078 -2.317,-0.121 l -1.171,-0.041 -0.587,-0.019 -0.136,0.001 -0.071,0.005 -0.143,0.01 -0.284,0.019 c -1.524,0.135 -3.029,0.17 -4.663,0.529 -3.243,0.49 -6.316,1.595 -9.329,2.976 -3.007,1.406 -5.754,3.372 -8.355,5.52 -2.538,2.24 -4.795,4.822 -6.747,7.657 l -1.354,2.205 c -0.48,0.721 -0.784,1.54 -1.192,2.304 l -0.581,1.166 c -0.183,0.394 -0.319,0.808 -0.48,1.212 -0.3,0.817 -0.648,1.62 -0.908,2.453 -1.083,3.328 -1.631,6.827 -1.799,10.357 0.072,1.819 -0.026,3.444 0.274,5.268 l 0.166,1.337 c 0.043,0.451 0.116,0.892 0.228,1.319 l 0.591,2.596 c 1.02,3.397 2.444,6.673 4.335,9.655 1.947,2.937 4.259,5.605 6.883,7.875 2.673,2.198 5.543,4.129 8.636,5.506 3.086,1.356 6.292,2.385 9.528,2.782 1.603,0.315 3.219,0.315 4.806,0.407 l 0.298,0.012 0.149,0.006 0.074,0.003 0.152,-0.005 0.568,-0.033 1.128,-0.068 c 0.76,-0.063 1.474,-0.048 2.258,-0.174 1.551,-0.275 3.141,-0.411 4.566,-0.863 0.725,-0.194 1.446,-0.386 2.162,-0.577 0.699,-0.239 1.378,-0.524 2.057,-0.781 1.379,-0.472 2.627,-1.18 3.88,-1.801 0.64,-0.288 1.205,-0.696 1.784,-1.066 0.573,-0.374 1.141,-0.744 1.703,-1.11 4.368,-3.142 7.521,-7 9.729,-10.661 0.513,-0.943 1.028,-1.842 1.486,-2.728 0.4,-0.913 0.786,-1.793 1.156,-2.639 0.367,-0.844 0.584,-1.709 0.862,-2.502 0.136,-0.399 0.268,-0.788 0.397,-1.168 0.092,-0.39 0.182,-0.771 0.269,-1.142 0.173,-0.741 0.335,-1.442 0.488,-2.102 0.128,-0.664 0.18,-1.299 0.277,-1.881 C -0.031,4.882 0.047,4.342 0.117,3.847 0.186,3.352 0.17,2.895 0.197,2.489 0.265,0.866 0.301,0 0.301,0 Z"
             style="fill:#231f20;fill-opacity:1;fill-rule:nonzero;stroke:none"
             id="path138"
             inkscape:connector-curvature="0" /></g><g
           id="g140"
           transform="translate(529.0156,490.5)"><path
             d="m 0,0 c 0,0 -0.037,0.592 -0.108,1.702 -0.01,0.558 -0.117,1.235 -0.258,2.027 -0.07,0.397 -0.127,0.827 -0.243,1.273 -0.13,0.441 -0.269,0.911 -0.414,1.408 -0.619,1.96 -1.633,4.296 -3.374,6.548 -1.703,2.266 -4.048,4.478 -6.971,6.223 -1.489,0.82 -3.05,1.648 -4.781,2.204 -0.43,0.143 -0.864,0.287 -1.3,0.432 -0.447,0.108 -0.899,0.217 -1.353,0.327 -0.913,0.27 -1.811,0.303 -2.73,0.463 -0.455,0.071 -1.013,0.053 -1.52,0.084 l -0.782,0.029 -0.393,0.015 c -0.088,0.002 0.065,0 0.033,-0.002 l -0.046,-0.003 -0.092,-0.006 -0.185,-0.013 c -0.981,-0.069 -1.983,-0.048 -2.973,-0.248 -2.005,-0.234 -3.973,-0.883 -5.918,-1.647 -1.942,-0.798 -3.758,-1.954 -5.471,-3.279 -1.687,-1.37 -3.159,-3.021 -4.473,-4.814 -1.281,-1.823 -2.283,-3.854 -3.042,-5.993 -0.744,-2.175 -1.138,-4.317 -1.302,-6.771 -0.029,-2.225 0.176,-4.613 0.762,-6.851 0.657,-2.228 1.592,-4.377 2.862,-6.308 0.313,-0.484 0.676,-0.933 1.02,-1.392 0.332,-0.47 0.719,-0.892 1.114,-1.306 0.401,-0.407 0.749,-0.864 1.188,-1.226 l 1.287,-1.107 c 1.786,-1.375 3.723,-2.497 5.752,-3.266 2.017,-0.74 4.119,-1.313 6.117,-1.454 0.958,-0.155 2.072,-0.099 3.116,-0.125 0.411,-0.03 0.97,0.058 1.442,0.08 0.491,0.05 0.982,0.047 1.461,0.137 3.855,0.516 7.32,1.873 10.247,3.618 2.916,1.774 5.257,3.994 6.955,6.267 1.739,2.257 2.755,4.595 3.369,6.559 0.145,0.497 0.282,0.967 0.412,1.41 0.115,0.445 0.171,0.873 0.238,1.269 0.139,0.79 0.245,1.465 0.252,2.03 0.067,1.117 0.103,1.714 0.103,1.714 z m 0.3,-0.008 c 0,0 -0.025,-0.596 -0.071,-1.715 0.003,-0.559 -0.088,-1.249 -0.214,-2.061 -0.069,-0.404 -0.102,-0.848 -0.186,-1.31 -0.102,-0.459 -0.211,-0.946 -0.326,-1.462 -0.524,-2.035 -1.281,-4.535 -2.802,-7.123 -1.5,-2.574 -3.656,-5.319 -6.704,-7.542 -3.037,-2.213 -6.971,-3.796 -11.277,-4.253 -0.536,-0.07 -1.084,-0.047 -1.63,-0.074 -0.567,0.002 -1.052,-0.067 -1.694,-0.005 -1.056,0.105 -2.083,0.145 -3.247,0.41 -2.288,0.374 -4.419,1.175 -6.516,2.169 -2.091,1.01 -3.985,2.414 -5.786,3.92 -1.754,1.577 -3.322,3.374 -4.68,5.348 -1.325,1.998 -2.373,4.19 -3.171,6.49 -0.78,2.331 -1.191,4.708 -1.332,7.258 -0.052,2.322 0.171,4.946 0.792,7.339 0.696,2.389 1.678,4.698 2.992,6.805 1.353,2.077 2.976,3.958 4.816,5.565 1.875,1.557 3.891,2.925 6.068,3.906 2.169,0.97 4.433,1.694 6.715,1.976 1.131,0.221 2.27,0.224 3.39,0.287 l 0.209,0.008 0.106,0.004 0.052,0.002 0.131,-0.004 0.392,-0.026 0.781,-0.049 c 0.53,-0.046 1.011,-0.037 1.57,-0.127 1.101,-0.196 2.238,-0.302 3.237,-0.622 0.511,-0.138 1.019,-0.276 1.522,-0.413 0.493,-0.168 0.969,-0.375 1.447,-0.56 0.968,-0.341 1.844,-0.845 2.721,-1.29 0.876,-0.45 1.641,-1.057 2.433,-1.562 3.041,-2.252 5.192,-5.005 6.688,-7.586 C -1.756,11.102 -0.997,8.6 -0.478,6.561 -0.363,6.045 -0.255,5.557 -0.153,5.098 -0.07,4.636 -0.039,4.194 0.027,3.791 0.15,2.981 0.24,2.293 0.236,1.727 0.278,0.601 0.301,0 0.301,0 Z"
             style="fill:#231f20;fill-opacity:1;fill-rule:nonzero;stroke:none"
             id="path142"
             inkscape:connector-curvature="0" /></g><g
           id="g144"
           transform="translate(454.5767,487.4531)"><path
             d="M 0,0 C 0.438,0.342 0.882,0.676 1.311,1.029 L 1.618,1.282 1.609,0.856 C 1.595,0.192 1.63,-0.472 1.64,-1.126 1.71,-1.784 1.876,-2.435 1.988,-3.078 2.115,-3.722 2.376,-4.349 2.562,-4.976 2.744,-5.604 3.025,-6.212 3.273,-6.822 3.741,-8.047 4.337,-9.233 4.844,-10.437 l 0.818,-1.792 c 0.251,-0.604 0.557,-1.191 0.832,-1.787 0.269,-0.599 0.549,-1.194 0.851,-1.782 0.285,-0.595 0.551,-1.196 0.852,-1.785 l 1.776,-3.549 c 0.61,-1.176 1.218,-2.354 1.858,-3.518 l 1.941,-3.458 0.596,-1.061 -0.862,-0.581 -1.457,-0.983 -0.282,-0.191 -0.179,-0.02 -2.997,-0.345 -0.535,-0.062 -0.245,0.305 c -1.526,1.893 -3.026,3.771 -4.589,5.607 -0.767,0.929 -1.553,1.842 -2.345,2.76 -0.786,0.929 -1.585,1.837 -2.316,2.897 -0.181,0.273 -0.359,0.55 -0.517,0.888 l -0.114,0.263 c -0.04,0.121 -0.076,0.268 -0.103,0.404 -0.034,0.17 -0.029,0.199 -0.04,0.286 l -0.006,0.055 -0.002,0.015 -10e-4,0.007 c 0.014,0.231 0.003,0.065 0.006,0.118 l -0.006,0.013 -0.022,0.046 c -0.031,0.199 -0.324,0.774 -0.573,1.206 -0.282,0.475 -0.6,0.941 -0.923,1.417 -0.325,0.476 -0.653,0.953 -1.003,1.422 l -2.024,2.89 c -0.664,0.977 -1.322,1.976 -1.957,2.971 l -0.598,0.936 0.721,0.514 c 1.451,1.033 2.96,1.998 4.409,3.033 1.463,1.019 2.852,2.121 4.183,3.291 l 0.003,0.002 z M 0.185,-0.236 C -1.15,-1.399 -2.426,-2.629 -3.628,-3.942 -4.846,-5.24 -6.003,-6.609 -7.22,-7.909 l 0.124,1.45 c 0.869,-0.874 1.674,-1.776 2.442,-2.725 0.759,-0.952 1.47,-1.946 2.125,-2.99 0.32,-0.525 0.624,-1.069 0.925,-1.615 0.289,-0.557 0.548,-1.142 0.793,-1.744 0.207,-0.665 0.48,-1.2 0.449,-2.216 l -0.009,-0.177 -0.003,-0.044 c 0.003,0.048 -0.007,-0.123 0.007,0.105 l -0.001,-0.007 -0.001,-0.015 -0.005,-0.055 c -0.004,-0.064 -0.018,-0.187 -0.007,-0.162 0.005,-0.01 -0.002,-0.011 -0.007,-0.036 l 0.035,-0.162 c 0.051,-0.223 0.149,-0.48 0.254,-0.734 0.458,-1.026 1.102,-2.044 1.784,-3.011 0.689,-0.97 1.438,-1.901 2.239,-2.787 0.785,-0.899 1.62,-1.758 2.473,-2.596 0.857,-0.834 1.746,-1.645 2.639,-2.43 l -0.78,0.243 2.9,0.835 -0.461,-0.211 1.312,1.171 -0.266,-1.641 c -0.828,1.115 -1.573,2.236 -2.312,3.384 -0.732,1.146 -1.453,2.301 -2.137,3.479 -0.689,1.174 -1.355,2.366 -1.959,3.59 -0.608,1.225 -1.211,2.45 -1.713,3.731 -0.247,0.64 -0.523,1.265 -0.747,1.918 l -0.646,1.962 c -0.203,0.658 -0.335,1.344 -0.504,2.012 -0.175,0.665 -0.263,1.363 -0.367,2.048 -0.096,0.689 -0.209,1.366 -0.232,2.068 -0.037,0.697 -0.116,1.376 -0.113,2.07 l 0.018,2.061 c 0.069,0.688 0.163,1.366 0.209,2.043 L 1.536,0.73 C 1.077,0.419 0.634,0.087 0.185,-0.236"
             style="fill:#231f20;fill-opacity:1;fill-rule:nonzero;stroke:none"
             id="path146"
             inkscape:connector-curvature="0" /></g><g
           id="g148"
           transform="translate(431.5015,561.6499)"><path
             style="fill:#231f20;fill-opacity:1;fill-rule:nonzero;stroke:none"
             d="m 0,0 c 51.669659,0.20584865 103.32248,1.8512 154.994,1.882 5.45973,0.6933874 14.51142,-0.5289688 15.866,-7.738 0.43891,-7.220495 0.24284,-16.026258 0.41088,-23.996997 0.10519,-31.809563 0.51617,-63.626894 0.30835,-95.432093 -0.11363,-9.58876 -10.26955,-15.07942 -18.94021,-13.84353 -57.34583,0.57187 -114.694735,0.23255 -172.03502,-0.69038 -7.977857,-1.42171 -15.098223,5.88282 -13.393055,13.15597 -0.396142,38.678948 -0.0052,77.381754 0.520401,116.046137 0.448687,6.1938262 5.560386,12.462064 12.265163,11.1389174 C -13.335661,0.34801627 -6.6678304,0.17400813 0,0 Z m -0.003,-0.3 c -7.8642848,0.023971 -15.755705,0.59672351 -23.603,0.274 -6.848953,-1.4973236 -8.680548,-9.6516031 -7.959353,-15.603361 0.722166,-38.455263 1.404582,-76.929789 1.408353,-115.381639 1.57758,-7.49568 10.414897,-6.41742 16.331954,-6.50792 56.821117,-0.59269 113.649893,-0.54173 170.466046,0.41292 7.76762,0.086 13.80475,7.39821 12.64345,14.98695 -0.62225,38.526973 -0.96165,77.08158 -1.46545,115.59505 -2.02446,6.62325146 -9.88633,5.3543387 -15.30602,5.3375019 C 101.67085,-1.4572607 50.83817,-0.1660862 -0.003,-0.3 Z"
             id="path150"
             inkscape:connector-curvature="0" /></g><g
           id="g152"
           transform="translate(423.9502,562.5049)"><path
             style="fill:#231f20;fill-opacity:1;fill-rule:nonzero;stroke:none"
             d="m 0,0 c -0.10934261,1.2597355 0.07487835,2.5585542 0.69625,3.673625 0.5287767,1.0866992 1.4145462,1.9893887 2.4325,2.62825 1.3367742,0.8226182 2.9453326,0.9720539 4.480375,0.8745 3.338888,-0.1709498 6.66694,0.4202397 10.004,0.27325 C 18.819342,7.4205329 19.995989,7.0104616 21.0075,6.36125 22.01607,5.6933739 22.867361,4.7593319 23.408672,3.6749688 23.998449,2.5461874 24.196091,1.2569234 24.1,-0.005 23.725658,0.62403423 23.734393,1.7160581 23.268458,2.437604 22.565553,3.8766529 21.39248,5.0881799 19.933547,5.762125 17.959232,6.7754107 15.679869,6.4367312 13.545625,6.623375 11.001386,6.7517201 8.4118333,7.0884884 5.8891719,6.5860781 4.3311385,6.1370041 2.8747389,5.2533835 1.8448613,3.9925547 1.1258598,3.1446528 0.6157848,2.1070738 0.33356836,1.034791 0.20066594,0.75423543 0.27876905,0.07684047 0,0 Z"
             id="path154"
             inkscape:connector-curvature="0" /></g></g></g></g></svg>