<?xml version="1.0" encoding="UTF-8" standalone="no"?>
<!-- Created with Inkscape (http://www.inkscape.org/) -->

<svg
   xmlns:dc="http://purl.org/dc/elements/1.1/"
   xmlns:cc="http://creativecommons.org/ns#"
   xmlns:rdf="http://www.w3.org/1999/02/22-rdf-syntax-ns#"
   xmlns:svg="http://www.w3.org/2000/svg"
   xmlns="http://www.w3.org/2000/svg"
   xmlns:sodipodi="http://sodipodi.sourceforge.net/DTD/sodipodi-0.dtd"
   xmlns:inkscape="http://www.inkscape.org/namespaces/inkscape"
   version="1.1"
   id="svg2"
   xml:space="preserve"
   width="830.83478"
   height="815.87384"
   viewBox="0 0 830.83481 815.87384"
   sodipodi:docname="clock.svg"
   inkscape:version="0.92.2 5c3e80d, 2017-08-06"><metadata
     id="metadata8"><rdf:RDF><cc:Work
         rdf:about=""><dc:format>image/svg+xml</dc:format><dc:type
           rdf:resource="http://purl.org/dc/dcmitype/StillImage" /><dc:title></dc:title></cc:Work></rdf:RDF></metadata><defs
     id="defs6"><clipPath
       clipPathUnits="userSpaceOnUse"
       id="clipPath18"><path
         d="M 0,600 H 1000 V 0 H 0 Z"
         id="path16"
         inkscape:connector-curvature="0" /></clipPath><clipPath
       clipPathUnits="userSpaceOnUse"
       id="clipPath90"><path
         d="M 0,600 H 1000 V 0 H 0 Z"
         id="path88"
         inkscape:connector-curvature="0" /></clipPath></defs><sodipodi:namedview
     pagecolor="#ffffff"
     bordercolor="#666666"
     borderopacity="1"
     objecttolerance="10"
     gridtolerance="10"
     guidetolerance="10"
     inkscape:pageopacity="0"
     inkscape:pageshadow="2"
     inkscape:window-width="1920"
     inkscape:window-height="1029"
     id="namedview4"
     showgrid="false"
     inkscape:zoom="0.66840824"
     inkscape:cx="426.79586"
     inkscape:cy="408.48047"
     inkscape:window-x="0"
     inkscape:window-y="24"
     inkscape:window-maximized="1"
     inkscape:current-layer="g10" /><g
     id="g10"
     inkscape:groupmode="layer"
     inkscape:label="clock"
     transform="matrix(1.3333333,0,0,-1.3333333,-239.87076,807.39337)"><g
       id="g12"><g
         id="g14"
         clip-path="url(#clipPath18)"><g
           id="g20"
           transform="translate(251.6821,299.9985)"><path
             style="fill:#333333;fill-opacity:1;fill-rule:nonzero;stroke:none"
             d="m 0,0 c -1.2288365,-98.431032 63.051026,-192.94281 154.46883,-228.98262 92.14175,-38.88188 206.44883,-14.46138 274.07257,59.46483 63.0669,65.15381 84.35416,166.1753696 53.87782,251.401847 C 451.50028,174.16755 361.40547,242.55911 264.08025,247.078 166.0225,254.43155 67.438058,197.04422 25.080922,108.34841 8.5787246,74.756045 0.06567664,37.409507 0,0 Z m -0.2,0.003 c -1.367778,99.946169 63.927083,196.47999 157.39397,232.05489 91.70795,37.27428 204.16721,12.22357 271.29175,-60.63686 C 489.89878,108.38306 512.60205,11.70974 486.773,-72.235 459.05745,-168.37215 368.28181,-242.14922 268.258,-248.591 173.58251,-257.47611 77.214393,-205.72657 31.668629,-122.36973 10.790922,-85.202105 -0.2831462,-42.6274 -0.2,0.003 Z"
             id="path22"
             inkscape:connector-curvature="0" /></g><g
           id="g24"
           transform="translate(406.7686,358.1729)"><path
             d="m 0,0 -5.14,-10.209 -0.167,0.559 12.825,-6.579 12.779,-6.663 c 4.251,-2.237 8.526,-4.43 12.752,-6.714 l 12.708,-6.796 c 4.243,-2.252 8.467,-4.541 12.677,-6.855 l 12.648,-6.908 12.622,-6.955 12.582,-7.029 -0.741,-0.223 5.609,10.071 0.154,-0.511 -12.657,6.892 -6.37,3.367 -6.378,3.355 -12.815,6.596 -6.406,3.301 -6.368,3.373 -6.362,3.381 -6.322,3.458 -12.643,6.917 -12.574,7.044 -6.261,3.571 C 4.095,-2.383 2.042,-1.201 0,0 m 0.006,0.228 c 2.159,-1.057 4.306,-2.134 6.45,-3.22 l 6.43,-3.256 12.808,-6.61 12.739,-6.738 6.369,-3.369 6.328,-3.447 6.324,-3.454 6.285,-3.527 12.566,-7.058 6.314,-3.473 6.32,-3.46 12.726,-6.763 0.328,-0.175 -0.175,-0.336 -5.308,-10.233 -0.248,-0.478 -0.494,0.255 -12.8,6.625 -12.76,6.699 -12.735,6.747 c -4.251,2.238 -8.488,4.5 -12.706,6.799 l -12.675,6.859 c -4.234,2.268 -8.42,4.626 -12.63,6.941 l -12.603,6.991 -12.557,7.076 -0.369,0.208 0.201,0.351 5.784,10.089 z"
             style="fill:#333333;fill-opacity:1;fill-rule:nonzero;stroke:none"
             id="path26"
             inkscape:connector-curvature="0" /></g><g
           id="g28"
           transform="translate(507.6816,467.457)"><path
             d="m 0,0 -11.422,-0.386 0.311,0.321 c 0.262,-7.161 0.442,-14.323 0.648,-21.484 0.215,-7.161 0.379,-14.324 0.541,-21.486 l 0.482,-21.486 0.363,-21.488 c 0.126,-7.163 0.249,-14.325 0.309,-21.49 l 0.233,-21.49 0.181,-21.49 0.093,-21.493 -0.556,0.539 11.529,0.06 -0.423,-0.437 c -0.013,7.165 -0.144,14.328 -0.211,21.491 -0.081,7.163 -0.272,14.324 -0.403,21.487 l -0.585,21.484 c -0.191,7.162 -0.421,14.323 -0.531,21.486 l -0.205,10.743 -0.128,10.744 -0.224,21.491 -0.081,21.491 0.017,10.747 z m 0.197,0.203 0.394,-10.839 0.345,-10.741 0.573,-21.484 0.43,-21.487 0.2,-10.744 0.122,-10.744 C 2.368,-93 2.355,-100.164 2.384,-107.328 l 0.07,-21.492 c 0.087,-7.163 0.113,-14.327 0.251,-21.49 0.151,-7.162 0.238,-14.325 0.443,-21.486 l 0.012,-0.425 -0.434,-0.011 -11.526,-0.296 -0.542,-0.014 -0.014,0.554 -0.562,21.485 -0.473,21.486 -0.422,21.488 c -0.158,7.162 -0.253,14.325 -0.346,21.488 l -0.29,21.489 -0.174,21.491 c -0.055,7.165 -0.11,14.328 -0.113,21.493 -0.012,7.164 -0.051,14.328 -0.007,21.493 l 0.002,0.323 0.309,-0.002 z"
             style="fill:#333333;fill-opacity:1;fill-rule:nonzero;stroke:none"
             id="path30"
             inkscape:connector-curvature="0" /></g><g
           id="g32"
           transform="translate(280,297.9746)"><path
             style="fill:#333333;fill-opacity:1;fill-rule:nonzero;stroke:none"
             d="M 0,0 C -0.59132521,7.5973822 -10.492779,1.9919834 -15.738,3.525 -25.776341,-4.8329306 -0.57138805,-5.576462 0,0 Z M 1,-0.01 C -1.777742,-6.915732 -17.800811,-7.0847538 -19.047,1.051 -17.932305,8.1226589 0.71791519,8.5782589 1,-0.01 Z"
             id="path34"
             inkscape:connector-curvature="0" /></g><g
           id="g36"
           transform="translate(504,520.957)"><path
             style="fill:#333333;fill-opacity:1;fill-rule:nonzero;stroke:none"
             d="M 0,0 C 0.80329185,4.6711186 0.66147591,20.312521 -6.843,12.574 -8.0183534,7.6800116 -8.2482381,-6.5883846 -0.084,-1.94 0.94970403,-4.488283 -0.00286033,0.683535 0,0 Z M 1,-0.006 C 0.17219356,-7.536105 -11.545943,-3.6712751 -8.039,3.172 -12.068147,9.755939 -4.0414485,22.526707 1.4045,13.477625 2.2848662,8.9698823 0.05723552,4.4070503 1,-0.006 Z"
             id="path38"
             inkscape:connector-curvature="0" /></g><g
           id="g40"
           transform="translate(736,297.9746)"><path
             style="fill:#333333;fill-opacity:1;fill-rule:nonzero;stroke:none"
             d="M 0,0 C -0.59126313,7.597629 -10.492958,1.990928 -15.738,3.525 -25.768658,-4.84222 -0.5698664,-5.5706811 0,0 Z M 1,-0.01 C -1.8903576,-6.6738051 -15.0133,-6.6235772 -18.845,-0.708 -20.153101,8.23803 -2.8993932,8.5018849 0.52,2.1 -0.13318842,1.2439456 1.0052533,0.71372033 1,-0.01 Z"
             id="path42"
             inkscape:connector-curvature="0" /></g><g
           id="g44"
           transform="translate(504,65.9766)"><path
             style="fill:#333333;fill-opacity:1;fill-rule:nonzero;stroke:none"
             d="M 0,0 C 0.19081204,4.4577699 1.0362452,18.689283 -6.189,13.69 -7.4313019,9.1232497 -9.5837759,-3.3289514 -2.096,-2.901 -0.69103629,-2.9872434 0.59251324,-1.1972609 0,0 Z M 1,-0.01 C -6.8938395,-12.463681 -10.966017,7.3126729 -7.702,13.989 -0.60214754,22.299219 4.803848,8.1634904 0.689,2.063 -0.09964066,1.2105571 1.0052411,0.6939055 1,-0.01 Z"
             id="path46"
             inkscape:connector-curvature="0" /></g><g
           id="g48"
           transform="translate(380.9014,101.2393)"><path
             style="fill:#333333;fill-opacity:1;fill-rule:nonzero;stroke:none"
             d="M 0,0 C 4.611901,18.21919 18.760634,5.8694099 5.264,-4.831 1.8944038,-7.7555218 -2.2666971,-3.4468185 0,0 Z M 0.172,-0.101 C -0.82453989,-9.0618106 10.18543,0.37037987 9.989,4.595 9.6630057,14.168139 2.0424746,1.8926031 0.172,-0.101 Z"
             id="path50"
             inkscape:connector-curvature="0" /></g><g
           id="g52"
           transform="translate(298.1421,187)"><path
             style="fill:#333333;fill-opacity:1;fill-rule:nonzero;stroke:none"
             d="M 0,0 C 10.886421,14.132932 20.470022,-2.082777 3.357,-6.011 -1.1732438,-8.7279725 -4.2058385,-1.3860296 0,0 Z M 0.109,0.157 C -4.9195467,-7.3291357 9.2072792,-4.0485291 10.981,-0.206 15.113569,8.4362988 2.6867295,1.0635799 0.109,0.157 Z"
             id="path54"
             inkscape:connector-curvature="0" /></g><g
           id="g56"
           transform="translate(301.2109,419.3486)"><path
             d="M 0,0 C 0,0 0.491,-0.344 1.426,-0.833 1.886,-1.09 2.471,-1.361 3.149,-1.66 3.823,-1.966 4.601,-2.285 5.417,-2.682 6.238,-3.07 7.074,-3.573 7.953,-4.114 8.325,-4.328 9.041,-4.788 9.431,-5.381 9.85,-5.969 10.159,-6.678 10.189,-7.431 10.242,-7.804 10.178,-8.18 10.132,-8.554 10.096,-8.747 10.02,-8.96 9.952,-9.158 L 9.84,-9.456 9.73,-9.649 c -0.294,-0.633 -0.901,-1.212 -1.531,-1.597 -0.66,-0.385 -1.429,-0.527 -2.167,-0.486 -0.369,0.058 -0.727,0.111 -1.102,0.285 -0.411,0.143 -0.572,0.327 -0.846,0.492 -1.018,0.833 -1.896,1.538 -2.903,2.2 -0.981,0.658 -1.999,1.225 -3.021,1.718 -0.51,0.249 -1.011,0.495 -1.501,0.734 -0.249,0.139 -0.462,0.219 -0.734,0.402 -0.271,0.195 -0.552,0.38 -0.76,0.641 -0.893,0.996 -1.155,2.376 -0.742,3.485 0.106,0.282 0.223,0.615 0.356,0.749 l 0.189,0.26 0.047,0.065 0.011,0.016 0.045,0.071 0.034,0.034 0.134,0.133 c 0.344,0.358 0.745,0.6 1.124,0.772 0.774,0.35 1.497,0.324 2.039,0.265 0.277,-0.032 0.514,-0.096 0.717,-0.178 0.21,-0.062 0.374,-0.13 0.492,-0.204 0.248,-0.132 0.38,-0.203 0.38,-0.203 z m -0.102,-0.172 c 0,0 -0.133,0.068 -0.383,0.196 -0.122,0.079 -0.286,0.12 -0.474,0.159 -0.182,0.063 -0.407,0.066 -0.658,0.056 -0.488,-0.01 -1.103,-0.19 -1.57,-0.643 -0.231,-0.222 -0.44,-0.483 -0.576,-0.792 L -3.824,-1.304 -3.84,-1.331 c 0.064,0.109 0.016,0.025 0.029,0.047 L -3.814,-1.293 -3.82,-1.312 -3.847,-1.387 -3.955,-1.691 c -0.104,-0.233 -0.053,-0.346 -0.087,-0.49 -0.05,-0.629 0.098,-1.371 0.55,-1.952 0.088,-0.169 0.243,-0.283 0.379,-0.425 0.14,-0.148 0.396,-0.334 0.592,-0.502 0.413,-0.356 0.836,-0.719 1.266,-1.088 0.857,-0.745 1.779,-1.456 2.771,-2.098 0.965,-0.637 2.09,-1.253 3.076,-1.739 0.266,-0.09 0.602,-0.273 0.787,-0.245 0.191,-0.04 0.434,-0.014 0.662,-0.003 0.452,0.075 0.872,0.228 1.214,0.483 0.319,0.289 0.608,0.547 0.754,0.999 0.029,0.063 0.066,0.135 0.087,0.192 l 0.008,0.118 c 0.004,0.079 0.032,0.137 0.041,0.225 -0.007,0.195 0.031,0.384 -0.023,0.57 -0.048,0.374 -0.208,0.713 -0.412,1 C 7.598,-6.509 7.491,-6.37 7.343,-6.272 7.251,-6.167 7.018,-6.003 6.805,-5.854 5.961,-5.261 5.17,-4.691 4.489,-4.088 3.803,-3.495 3.203,-2.906 2.656,-2.407 2.114,-1.901 1.635,-1.471 1.218,-1.149 0.4,-0.483 -0.11,-0.167 -0.11,-0.167 Z"
             style="fill:#333333;fill-opacity:1;fill-rule:nonzero;stroke:none"
             id="path58"
             inkscape:connector-curvature="0" /></g><g
           id="g60"
           transform="translate(387.2939,502.1099)"><path
             style="fill:#333333;fill-opacity:1;fill-rule:nonzero;stroke:none"
             d="M 0,0 C 13.643051,-11.231676 -2.4709605,-20.233951 -6.336,-3.357 -8.6314807,1.1604409 -2.4346899,4.1595894 0,0 Z m -0.168,-0.109 c -7.481214,5.0315902 -4.2094586,-9.0944284 -0.365,-10.871 8.642189,-4.133552 1.27543066,8.291862 0.365,10.871 z"
             id="path62"
             inkscape:connector-curvature="0" /></g><g
           id="g64"
           transform="translate(619.0937,497.8354)"><path
             style="fill:#333333;fill-opacity:1;fill-rule:nonzero;stroke:none"
             d="M 0,0 C -4.6021026,-18.22266 -18.762511,-5.8693674 -5.263,4.829 -1.8954831,7.7593613 2.2681119,3.4442202 0,0 Z m -0.172,0.102 c 0.99590559,8.9615329 -10.01075,-0.47625799 -9.816,-4.698 0.332922,-9.57235 7.9488549,2.7015968 9.816,4.698 z"
             id="path66"
             inkscape:connector-curvature="0" /></g><g
           id="g68"
           transform="translate(701.8555,411.75)"><path
             style="fill:#333333;fill-opacity:1;fill-rule:nonzero;stroke:none"
             d="M 0,0 C -11.246993,-13.642917 -20.211689,2.4681692 -3.354,6.336 1.1666647,8.6324556 4.1576931,2.4328707 0,0 Z m -0.108,0.168 c 5.0330677,7.5137749 -9.1523338,4.1720504 -10.917,0.334 -3.975447,-8.6317054 8.3221695,-1.2046889 10.917,-0.334 z"
             id="path70"
             inkscape:connector-curvature="0" /></g><g
           id="g72"
           transform="translate(698.793,180.7676)"><path
             style="fill:#333333;fill-opacity:1;fill-rule:nonzero;stroke:none"
             d="M 0,0 C -17.288358,3.6622071 -7.1533421,19.091131 4.068,5.904 8.1950342,2.9603069 4.0780888,-2.5619417 0,0 Z M 0.098,0.175 C 9.0605154,-0.82599141 -0.37680095,10.186729 -4.599,9.988 -14.171584,9.6613417 -1.9003492,2.0408847 0.098,0.175 Z"
             id="path74"
             inkscape:connector-curvature="0" /></g><g
           id="g76"
           transform="translate(613,98.0049)"><path
             style="fill:#333333;fill-opacity:1;fill-rule:nonzero;stroke:none"
             d="M 0,0 C -14.090756,10.921994 2.1165239,20.451387 6.042,3.359 8.7140579,-1.1681913 1.4915741,-4.2035641 0,0 Z M -0.128,0.109 C 7.3610373,-4.9202138 4.0773329,9.2046967 0.235,10.984 -8.4083077,15.116577 -1.0345916,2.6870991 -0.128,0.109 Z"
             id="path78"
             inkscape:connector-curvature="0" /></g><g
           id="g80"
           transform="translate(522,300)"><path
             d="M 0,0 C 0,0 0.097,0.545 0.035,1.567 0.028,2.081 -0.004,2.704 -0.131,3.435 -0.193,3.8 -0.211,4.196 -0.313,4.608 -0.43,5.017 -0.537,5.451 -0.667,5.909 c -0.547,1.817 -1.472,3.966 -3.022,6.089 -1.531,2.127 -3.664,4.224 -6.363,5.892 -2.686,1.639 -6.002,2.886 -9.489,3.277 -3.668,0.358 -7.468,-0.135 -11.097,-1.681 -1.815,-0.757 -3.508,-1.846 -5.102,-3.092 -1.57,-1.289 -2.941,-2.835 -4.154,-4.519 -1.181,-1.71 -2.099,-3.612 -2.788,-5.609 -0.668,-2.027 -1.008,-4.055 -1.132,-6.293 -0.005,-2.086 0.21,-4.28 0.772,-6.347 0.621,-2.057 1.496,-4.036 2.669,-5.819 1.209,-1.752 2.617,-3.356 4.244,-4.664 1.643,-1.28 3.418,-2.346 5.29,-3.083 1.864,-0.712 3.799,-1.267 5.672,-1.426 0.906,-0.156 1.918,-0.116 2.879,-0.152 0.407,-0.031 0.912,0.048 1.357,0.066 0.458,0.042 0.917,0.037 1.364,0.117 3.599,0.468 6.842,1.742 9.546,3.404 2.695,1.689 4.828,3.791 6.355,5.923 1.551,2.125 2.484,4.277 3.028,6.096 0.13,0.458 0.253,0.892 0.368,1.302 0.102,0.411 0.151,0.806 0.213,1.171 0.125,0.728 0.09,1.351 0.096,1.87 C 0.099,-0.542 0,0.005 0,0.005 Z m 0,-0.005 c 0,0 0.206,-0.548 0.161,-1.576 0.001,-0.515 0.03,-1.147 -0.087,-1.891 -0.064,-0.37 -0.039,-0.775 -0.121,-1.198 -0.097,-0.419 -0.172,-0.865 -0.281,-1.336 -0.502,-1.856 -1.183,-4.15 -2.628,-6.477 -1.411,-2.323 -3.402,-4.783 -6.189,-6.767 -2.776,-1.975 -6.33,-3.4 -10.23,-3.828 -0.484,-0.068 -0.979,-0.048 -1.474,-0.076 -0.508,-0.001 -0.963,-0.067 -1.523,-0.014 -0.969,0.087 -1.924,0.11 -2.967,0.341 -2.066,0.314 -4.02,1.021 -5.937,1.902 -1.913,0.899 -3.659,2.153 -5.313,3.52 -1.614,1.427 -3.05,3.07 -4.291,4.874 -1.211,1.828 -2.16,3.837 -2.875,5.941 -0.692,2.129 -1.044,4.316 -1.153,6.618 -0.02,2.15 0.207,4.501 0.793,6.671 0.647,2.164 1.552,4.251 2.755,6.152 1.238,1.872 2.711,3.571 4.382,5.019 1.703,1.401 3.53,2.631 5.5,3.509 1.966,0.866 4.009,1.521 6.071,1.774 1.021,0.201 2.051,0.201 3.062,0.259 0.15,0.003 0.201,0.015 0.432,0.011 l 0.36,-0.022 0.718,-0.043 c 0.483,-0.04 0.936,-0.031 1.437,-0.111 4.012,-0.506 7.495,-1.959 10.288,-3.957 2.781,-2.004 4.777,-4.469 6.185,-6.796 1.445,-2.33 2.14,-4.626 2.639,-6.484 C -0.178,5.538 -0.074,5.092 0.022,4.672 0.104,4.25 0.136,3.846 0.197,3.476 0.312,2.734 0.167,2.103 0.165,1.583 0.207,0.551 0,0 0,0 Z"
             style="fill:#333333;fill-opacity:1;fill-rule:nonzero;stroke:none"
             id="path82"
             inkscape:connector-curvature="0" /></g></g></g><g
       id="g84"><g
         id="g86"
         clip-path="url(#clipPath90)"><g
           id="g92"
           transform="translate(310.4624,300.0859)"><path
             d="m 0,0 c 0,103.3 84.672,187.042 189.121,187.042 104.45,0 189.121,-83.742 189.121,-187.042 0,-103.301 -84.671,-187.042 -189.121,-187.042 C 84.672,-187.042 0,-103.301 0,0"
             style="fill:#d2f1ff;fill-opacity:1;fill-rule:nonzero;stroke:none"
             id="path94"
             inkscape:connector-curvature="0" /></g><g
           id="g96"
           transform="translate(308.8374,299.9995)"><path
             style="fill:#3a3a3a;fill-opacity:1;fill-rule:nonzero;stroke:none"
             d="m 0,0 c -1.2704612,-84.694184 60.922249,-164.82493 143.30272,-184.62221 75.45882,-20.6094 161.28339,11.28223 204.84209,76.28383 C 395.24397,-42.455001 392.80384,53.531172 342.262,116.856 294.92922,179.82485 206.67072,206.74605 132.15675,181.45249 54.78398,157.37837 -0.8703546,80.991761 0,0 Z M -0.1,0.001 C -1.6753258,85.914072 62.058916,167.32092 145.925,186.226 221.02221,205.38334 305.53708,173.14429 348.63651,108.67663 395.83335,42.5707 393.3808,-53.679994 342.744,-117.23 295.32448,-180.53312 206.67805,-207.66296 131.87362,-182.32325 54.400992,-157.98016 -1.2223216,-81.167999 -0.1,0.001 Z"
             id="path98"
             inkscape:connector-curvature="0" /></g><g
           id="g100"
           transform="translate(424.8696,353.249)"><path
             d="m 0,0 71.385,-47.43 -4.741,-7.139 -71.387,47.43 z"
             style="fill:#007074;fill-opacity:1;fill-rule:nonzero;stroke:none"
             id="path102"
             inkscape:connector-curvature="0" /></g><g
           id="g104"
           transform="translate(504.3291,423.0352)"><path
             d="m 0,0 0.4,-127.812 -8.571,-0.028 -0.4,127.815 z"
             style="fill:#007074;fill-opacity:1;fill-rule:nonzero;stroke:none"
             id="path106"
             inkscape:connector-curvature="0" /></g><g
           id="g108"
           transform="translate(422.8853,352.8662)"><path
             style="fill:#3a3a3a;fill-opacity:1;fill-rule:nonzero;stroke:none"
             d="M 0,0 C -10.179139,-8.2670068 1.4794149,-10.780586 8.0946136,-15.726768 28.60766,-29.233661 50.96601,-43.543482 69.948,-57.251 c 9.78274,7.613277 0.133286,10.459334 -6.615946,15.031908 C 42.05313,-28.397674 20.819602,-14.509103 0,0 Z M -0.028,0.139 C 25.397231,-15.98457 50.757799,-33.194545 75.327,-49.988 72.21924,-62.257839 64.880524,-54.471756 58.226561,-49.931674 37.048973,-35.98074 15.210077,-21.840951 -5.181,-7.333 c 1.7176667,2.4906667 3.4353333,4.9813333 5.153,7.472 z"
             id="path110"
             inkscape:connector-curvature="0" /></g><g
           id="g112"
           transform="translate(506.5586,426.4365)"><path
             style="fill:none;stroke:#3a3a3a;stroke-width:1;stroke-linecap:butt;stroke-linejoin:miter;stroke-miterlimit:10;stroke-dasharray:none;stroke-opacity:1"
             d="m 0,0 c 0.14033333,-44.870667 0.28066667,-89.741333 0.421,-134.612 -12.756961,-4.16999 -8.4615344,8.82481 -9.0789952,16.87433 C -8.7809968,-78.500446 -8.9039984,-39.263223 -9.027,-0.026 -6.018,-0.01733333 -3.009,-0.00866667 0,0 Z"
             id="path114"
             inkscape:connector-curvature="0" /></g><g
           id="g116"
           transform="translate(337,298.583)"><path
             style="fill:#78d6ff;fill-opacity:1;fill-rule:nonzero;stroke:none"
             d="M 0,0 C -7.73051,-9.7493253 -21.979302,5.9408831 -4.3730773,3.417 -2.2023737,3.7675556 0.5529031,2.7877835 0,0 Z"
             id="path118"
             inkscape:connector-curvature="0" /></g><g
           id="g120"
           transform="translate(504,464.1982)"><path
             style="fill:#78d6ff;fill-opacity:1;fill-rule:nonzero;stroke:none"
             d="M 0,0 C 0.01490302,-1.2839843 -1.2592527,-2.2485631 -2.4814631,-2.198 -3.3052944,-2.1819142 -4.189775,-2.3058509 -4.9190918,-1.8226367 -5.6536242,-1.4064912 -6.0778122,-0.56123418 -6,0.27416784 -5.99788,3.4217728 -6.00425,6.5694977 -5.99681,9.7170277 -5.936326,10.978289 -4.6607115,11.870919 -3.4576118,11.802 -2.6534347,11.79008 -1.7910646,11.89915 -1.0809093,11.426373 -0.34667022,11.010105 0.077819,10.165172 0,9.3298322 0,6.2198881 0,3.1099441 0,0 Z"
             id="path122"
             inkscape:connector-curvature="0" /></g><g
           id="g124"
           transform="translate(676,298.583)"><path
             style="fill:#78d6ff;fill-opacity:1;fill-rule:nonzero;stroke:none"
             d="M 0,0 C -7.7302324,-9.7492906 -21.979767,5.940822 -4.3730773,3.417 -2.2022528,3.7673973 0.55315502,2.7882264 0,0 Z"
             id="path126"
             inkscape:connector-curvature="0" /></g><g
           id="g128"
           transform="translate(504,126.584)"><path
             style="fill:#78d6ff;fill-opacity:1;fill-rule:nonzero;stroke:none"
             d="M 0,0 C -11.085302,-10.978619 -4.4610781,24.323464 0,6.0144309 0,4.0096206 0,2.0048103 0,0 Z"
             id="path130"
             inkscape:connector-curvature="0" /></g><g
           id="g132"
           transform="translate(652.6543,335.9473)"><path
             d="M 0,0 1.364,-5.306 1.398,-5.44 1.26,-5.477 c -4.213,-1.093 -8.434,-2.152 -12.657,-3.201 -4.22,-1.063 -8.446,-2.105 -12.675,-3.127 l -12.686,-3.085 -12.709,-2.984 c -8.481,-1.952 -16.977,-3.843 -25.444,-5.859 -4.239,-0.98 -8.464,-2.027 -12.693,-3.049 l -12.674,-3.131 -25.348,-6.263 c -8.458,-2.051 -16.908,-4.137 -25.38,-6.131 l -12.7,-3.02 -12.72,-2.937 c -8.486,-1.936 -16.952,-3.95 -25.453,-5.823 l -0.135,-0.029 -0.028,0.13 -1.189,5.344 0.097,0.024 1.355,-5.306 -0.163,0.101 c 8.427,2.178 16.889,4.216 25.331,6.331 l 12.672,3.139 12.692,3.057 c 8.456,2.058 16.935,4.024 25.404,6.025 l 25.437,5.89 12.718,2.945 c 4.235,1.005 8.475,1.984 12.699,3.029 8.462,2.035 16.893,4.196 25.34,6.295 l 12.683,3.093 12.707,2.992 c 4.235,1.004 8.474,1.988 12.717,2.951 4.241,0.976 8.484,1.943 12.735,2.874 l -0.104,-0.17 -1.187,5.349 z"
             style="fill:#3a3a3a;fill-opacity:1;fill-rule:nonzero;stroke:none"
             id="path134"
             inkscape:connector-curvature="0" /></g><g
           id="g136"
           transform="translate(650.9648,335.4971)"><path
             style="fill:#ffffff;fill-opacity:1;fill-rule:nonzero;stroke:none"
             d="M 0,0 C 4.0324367,-9.8063954 -13.256741,-6.5311055 -19.295406,-10.158466 -79.057271,-24.460978 -138.81914,-38.763489 -198.581,-53.066 c -0.417,1.746333 -0.834,3.492667 -1.251,5.239"
             id="path138"
             inkscape:connector-curvature="0" /></g><g
           id="g140"
           transform="translate(411.5225,152.1982)"><path
             style="fill:#78d6ff;fill-opacity:1;fill-rule:nonzero;stroke:none"
             d="M 0,0 C 5.7317406,-11.377834 10.859695,17.607331 0.73889734,1.1205616 Z"
             id="path142"
             inkscape:connector-curvature="0" /></g><g
           id="g144"
           transform="translate(349.9746,216.1719)"><path
             style="fill:#78d6ff;fill-opacity:1;fill-rule:nonzero;stroke:none"
             d="M 0,0 C -0.17353173,-12.735832 17.760114,10.608628 1.1723974,0.65323404 Z"
             id="path146"
             inkscape:connector-curvature="0" /></g><g
           id="g148"
           transform="translate(352.1768,388.6631)"><path
             style="fill:#78d6ff;fill-opacity:1;fill-rule:nonzero;stroke:none"
             d="M 0,0 C -11.380922,-5.7257546 17.608058,-10.859745 1.1190639,-0.73765219 Z"
             id="path150"
             inkscape:connector-curvature="0" /></g><g
           id="g152"
           transform="translate(416.1489,450.2124)"><path
             style="fill:#78d6ff;fill-opacity:1;fill-rule:nonzero;stroke:none"
             d="M 0,0 C -12.737026,0.17318109 10.607523,-17.758709 0.65289061,-1.1715887 Z"
             id="path154"
             inkscape:connector-curvature="0" /></g><g
           id="g156"
           transform="translate(588.4746,447.1143)"><path
             style="fill:#78d6ff;fill-opacity:1;fill-rule:nonzero;stroke:none"
             d="M 0,0 C -2.7600349,12.765864 -13.153625,-16.557531 -1.9675645,-2.9882888 Z"
             id="path158"
             inkscape:connector-curvature="0" /></g><g
           id="g160"
           transform="translate(650.0234,383.1401)"><path
             style="fill:#78d6ff;fill-opacity:1;fill-rule:nonzero;stroke:none"
             d="M 0,0 C 0.17787537,12.737101 -17.760014,-10.607807 -1.1723974,-0.65323404 Z"
             id="path162"
             inkscape:connector-curvature="0" /></g><g
           id="g164"
           transform="translate(647.8232,211.4248)"><path
             style="fill:#78d6ff;fill-opacity:1;fill-rule:nonzero;stroke:none"
             d="M 0,0 C 11.378114,5.7273972 -17.608396,10.857715 -1.1209592,0.73832873 Z"
             id="path166"
             inkscape:connector-curvature="0" /></g><g
           id="g168"
           transform="translate(583.8496,149.873)"><path
             style="fill:#78d6ff;fill-opacity:1;fill-rule:nonzero;stroke:none"
             d="M 0,0 C 12.738456,-0.17104628 -10.608634,17.762411 -0.65392069,1.1740149 Z"
             id="path170"
             inkscape:connector-curvature="0" /></g><g
           id="g172"
           transform="translate(516.6221,300)"><path
             d="m 0,0 c 0,-9.18 -7.44,-16.622 -16.622,-16.622 -9.183,0 -16.624,7.442 -16.624,16.622 0,9.18 7.441,16.622 16.624,16.622 C -7.44,16.622 0,9.18 0,0"
             style="fill:#78d6ff;fill-opacity:1;fill-rule:nonzero;stroke:none"
             id="path174"
             inkscape:connector-curvature="0" /></g><g
           id="g176"
           transform="translate(517.5723,300.0015)"><path
             d="M 0,0 C 0,0 -0.026,0.429 -0.076,1.236 -0.082,1.641 -0.158,2.133 -0.26,2.71 -0.312,2.998 -0.348,3.311 -0.423,3.637 -0.51,3.961 -0.602,4.305 -0.699,4.668 c -0.412,1.441 -1.123,3.154 -2.326,4.857 -1.188,1.707 -2.856,3.408 -4.99,4.779 -2.127,1.359 -4.777,2.341 -7.596,2.687 -2.915,0.323 -5.992,-0.117 -8.889,-1.363 -1.453,-0.613 -2.807,-1.492 -4.08,-2.497 -1.251,-1.038 -2.346,-2.279 -3.306,-3.633 C -32.82,8.123 -33.542,6.597 -34.079,5 c -0.515,-1.619 -0.767,-3.264 -0.843,-5.015 0.012,-1.675 0.201,-3.402 0.663,-5.041 0.511,-1.625 1.213,-3.187 2.135,-4.603 0.952,-1.394 2.086,-2.642 3.354,-3.702 1.29,-1.029 2.688,-1.892 4.168,-2.498 1.477,-0.585 3.005,-1.045 4.509,-1.192 0.734,-0.134 1.524,-0.112 2.282,-0.148 0.713,0.001 1.472,0.052 2.186,0.12 2.874,0.385 5.49,1.379 7.624,2.751 2.131,1.383 3.797,3.084 4.983,4.794 1.204,1.705 1.914,3.418 2.325,4.861 0.096,0.364 0.188,0.708 0.275,1.032 0.075,0.326 0.109,0.639 0.161,0.926 0.101,0.576 0.177,1.067 0.183,1.475 C -0.026,-0.431 0,0 0,0 m 0.1,-0.003 c 0,0 -0.018,-0.433 -0.051,-1.244 0.002,-0.405 -0.065,-0.902 -0.156,-1.488 -0.046,-0.291 -0.077,-0.61 -0.146,-0.941 -0.081,-0.328 -0.168,-0.678 -0.259,-1.047 -0.414,-1.454 -0.987,-3.244 -2.144,-5.048 -1.13,-1.801 -2.721,-3.695 -4.909,-5.207 -2.185,-1.494 -4.928,-2.629 -7.964,-2.949 -0.764,-0.063 -1.516,-0.107 -2.324,-0.096 -0.763,0.06 -1.524,0.071 -2.326,0.241 -1.6,0.226 -3.138,0.761 -4.641,1.431 -1.503,0.684 -2.88,1.648 -4.189,2.706 -1.285,1.097 -2.392,2.406 -3.372,3.814 -0.957,1.43 -1.693,3.013 -2.235,4.666 -0.526,1.67 -0.784,3.394 -0.853,5.178 0.005,1.707 0.199,3.513 0.673,5.203 0.517,1.681 1.232,3.3 2.176,4.77 0.973,1.449 2.119,2.766 3.421,3.883 1.326,1.082 2.748,2.032 4.278,2.706 3.038,1.379 6.396,1.77 9.378,1.434 3.092,-0.359 5.8,-1.505 7.991,-3.013 2.186,-1.523 3.776,-3.419 4.905,-5.222 1.156,-1.806 1.73,-3.596 2.141,-5.052 0.091,-0.369 0.177,-0.719 0.258,-1.048 0.069,-0.331 0.099,-0.649 0.144,-0.94 C -0.014,2.15 0.053,1.653 0.05,1.245 0.082,0.432 0.1,-0.003 0.1,-0.003"
             style="fill:#3a3a3a;fill-opacity:1;fill-rule:nonzero;stroke:none"
             id="path178"
             inkscape:connector-curvature="0" /></g></g></g></g></svg>