<?xml version="1.0" encoding="UTF-8" standalone="no"?>
<!-- Created with Inkscape (http://www.inkscape.org/) -->

<svg
   xmlns:dc="http://purl.org/dc/elements/1.1/"
   xmlns:cc="http://creativecommons.org/ns#"
   xmlns:rdf="http://www.w3.org/1999/02/22-rdf-syntax-ns#"
   xmlns:svg="http://www.w3.org/2000/svg"
   xmlns="http://www.w3.org/2000/svg"
   xmlns:sodipodi="http://sodipodi.sourceforge.net/DTD/sodipodi-0.dtd"
   xmlns:inkscape="http://www.inkscape.org/namespaces/inkscape"
   version="1.1"
   id="svg2"
   xml:space="preserve"
   width="1229.2496"
   height="1137.2665"
   viewBox="0 0 1229.2497 1137.2665"
   sodipodi:docname="coffe-cups.svg"
   inkscape:version="0.92.2 5c3e80d, 2017-08-06"><metadata
     id="metadata8"><rdf:RDF><cc:Work
         rdf:about=""><dc:format>image/svg+xml</dc:format><dc:type
           rdf:resource="http://purl.org/dc/dcmitype/StillImage" /><dc:title></dc:title></cc:Work></rdf:RDF></metadata><defs
     id="defs6"><clipPath
       clipPathUnits="userSpaceOnUse"
       id="clipPath18"><path
         d="M 0,1000 H 1000 V 0 H 0 Z"
         id="path16"
         inkscape:connector-curvature="0" /></clipPath><clipPath
       clipPathUnits="userSpaceOnUse"
       id="clipPath70"><path
         d="M 0,1000 H 1000 V 0 H 0 Z"
         id="path68"
         inkscape:connector-curvature="0" /></clipPath><clipPath
       clipPathUnits="userSpaceOnUse"
       id="clipPath90"><path
         d="M 0,1000 H 1000 V 0 H 0 Z"
         id="path88"
         inkscape:connector-curvature="0" /></clipPath><clipPath
       clipPathUnits="userSpaceOnUse"
       id="clipPath110"><path
         d="M 0,1000 H 1000 V 0 H 0 Z"
         id="path108"
         inkscape:connector-curvature="0" /></clipPath><clipPath
       clipPathUnits="userSpaceOnUse"
       id="clipPath290"><path
         d="M 0,1000 H 1000 V 0 H 0 Z"
         id="path288"
         inkscape:connector-curvature="0" /></clipPath><clipPath
       clipPathUnits="userSpaceOnUse"
       id="clipPath386"><path
         d="M 0,1000 H 1000 V 0 H 0 Z"
         id="path384"
         inkscape:connector-curvature="0" /></clipPath><clipPath
       clipPathUnits="userSpaceOnUse"
       id="clipPath662"><path
         d="M 0,1000 H 1000 V 0 H 0 Z"
         id="path660"
         inkscape:connector-curvature="0" /></clipPath></defs><sodipodi:namedview
     pagecolor="#ffffff"
     bordercolor="#666666"
     borderopacity="1"
     objecttolerance="10"
     gridtolerance="10"
     guidetolerance="10"
     inkscape:pageopacity="0"
     inkscape:pageshadow="2"
     inkscape:window-width="1920"
     inkscape:window-height="1029"
     id="namedview4"
     showgrid="false"
     inkscape:zoom="0.41311888"
     inkscape:cx="572.50344"
     inkscape:cy="633.97966"
     inkscape:window-x="0"
     inkscape:window-y="24"
     inkscape:window-maximized="1"
     inkscape:current-layer="g10" /><g
     id="g10"
     inkscape:groupmode="layer"
     inkscape:label="coffe cup"
     transform="matrix(1.3333333,0,0,-1.3333333,-66.777098,1286.3444)"><g
       id="g12"
       transform="matrix(2.267116,0,0,2.267116,-783.21635,-695.4206)"><g
         id="g14"
         clip-path="url(#clipPath18)"><g
           id="g20"
           transform="translate(564.1055,491.8945)"><path
             style="fill:#560d1d;fill-opacity:1;fill-rule:evenodd;stroke:none"
             d="M 0,0 C -15.968294,8.8046381 -36.347475,6.1310156 -54.294273,7.3551385 -75.341281,6.7112309 -97.706076,8.0451101 -117.56366,0.56269873 -100.89913,-8.9535435 -77.080203,-6.0167371 -57.451781,-7.3553906 -38.531129,-6.1738251 -17.086135,-9.0482374 0,0 Z m -47.861,-8.852 c -23.858947,0.157241 -48.558741,-1.437182 -71.58728,5.724635 -3.47123,13.845978 32.888657,9.890944 44.809428,12.0659844 C -50.187881,8.7906321 -24.52485,10.784709 -1.2942507,1.9878914 -0.14991019,-9.5175951 -39.59093,-6.4356966 -47.861,-8.852 Z"
             id="path22"
             inkscape:connector-curvature="0" /></g><g
           id="g24"
           transform="translate(463.4897,424.3311)"><path
             style="fill:#560d1d;fill-opacity:1;fill-rule:evenodd;stroke:none"
             d="M 0,0 C -18.134446,17.983066 -7.8069935,51.598103 -21.914,67.276 -18.895984,44.183364 -19.163996,16.525572 0,0 Z"
             id="path26"
             inkscape:connector-curvature="0" /></g><g
           id="g28"
           transform="translate(560.332,489.1719)"><path
             d="M 0,0 C -0.336,-17.119 -3.15,-46.653 -14.658,-62.314 3.636,-44.849 4.203,3.802 3.969,2.868 4.363,2.072 2.958,1.396 0,0"
             style="fill:#560d1d;fill-opacity:1;fill-rule:evenodd;stroke:none"
             id="path30"
             inkscape:connector-curvature="0" /></g><g
           id="g32"
           transform="translate(545.6738,426.8574)"><path
             d="m 0,0 c -8.639,-8.247 -21.913,-13.386 -42.757,-13.386 -18.626,0 -31.035,4.103 -39.427,10.86 7.577,-9.025 19.756,-14.725 39.833,-14.725 21.892,0 34.653,6.775 42.351,17.251"
             style="fill:#560d1d;fill-opacity:1;fill-rule:evenodd;stroke:none"
             id="path34"
             inkscape:connector-curvature="0" /></g><g
           id="g36"
           transform="translate(505.8877,493.3437)"><path
             style="fill:#a15641;fill-opacity:1;fill-rule:evenodd;stroke:none"
             d="m 0,0 c -17.172219,-0.16843641 -34.495057,-0.51850287 -51.396,-3.852 33.892079,-5.3754534 68.902884,-5.3750007 102.795,0 C 34.506271,-0.5188456 17.162703,-0.16829565 0,0 Z"
             id="path38"
             inkscape:connector-curvature="0" /></g><g
           id="g40"
           transform="translate(445.7646,478.1699)"><path
             style="fill:#560d1d;fill-opacity:1;fill-rule:evenodd;stroke:none"
             d="m 0,0 c -21.81021,16.736189 -40.32018,-14.889127 -24.062597,-31.596228 5.531818,-13.737685 37.111995,-18.073464 34.688911,-18.793754 -24.059608,-2.976133 -52.002583,19.241416 -43.216347,44.89394 C -29.700984,8.2575529 -5.9995475,12.212586 0,0 Z"
             id="path42"
             inkscape:connector-curvature="0" /></g><g
           id="g44"
           transform="translate(444.6841,470.9072)"><path
             d="m 0,0 c -22.408,11.694 -33.188,-19.401 2.568,-35.278 -11.873,2.583 -23.951,13.173 -24.629,24.802 C -23.21,9.174 -1.554,6.144 0,0"
             style="fill:#560d1d;fill-opacity:1;fill-rule:evenodd;stroke:none"
             id="path46"
             inkscape:connector-curvature="0" /></g></g></g><g
       id="g64"
       transform="translate(-453.37437,304.81181)"><g
         id="g66"
         clip-path="url(#clipPath70)"><g
           id="g72"
           transform="translate(834.2305,364.3076)"><path
             style="fill:#ff8989;fill-opacity:1;fill-rule:evenodd;stroke:none"
             d="M 0,0 C 30.449081,46.64931 64.04259,96.45417 67.439355,153.63913 69.352198,173.60805 42.272279,160.91929 29.45092,164.18585 -46.007053,163.30357 -121.46503,162.42128 -196.923,161.539 -184.334,105.8731 -172.3249,45.730143 -133.846,1.538 -89.230667,1.0253333 -44.615333,0.51266667 0,0 Z"
             id="path74"
             inkscape:connector-curvature="0" /></g><g
           id="g76"
           transform="translate(877.3916,548.9478)"><path
             d="m 0,0 c 0,0 -120.649,25.422 -224.995,-4.729 0,0 -19.565,-5.913 22.826,-9.46 C -159.779,-17.736 85.596,-16.554 0,0"
             style="fill:#a83333;fill-opacity:1;fill-rule:evenodd;stroke:none"
             id="path78"
             inkscape:connector-curvature="0" /></g><g
           id="g80"
           transform="translate(631.1543,508.9229)"><path
             style="fill:#ff4d4d;fill-opacity:1;fill-rule:evenodd;stroke:none"
             d="m 0,0 c 6.5036672,-33.523816 -17.458663,-3.8543572 -23.895094,5.889875 -39.672675,4.273318 -49.258035,-55.370466 -23.220781,-77.235656 19.574554,-23.85886 57.604216,-26.252682 78.657379,-40.594869 5.722401,-28.76312 -46.049605,14.518533 -61.402914,18.448575 -31.980818,15.348994 -71.59484,55.841452 -39.024029,90.4122703 C -51.217296,16.261922 -19.540086,16.86685 0,0 Z"
             id="path82"
             inkscape:connector-curvature="0" /></g></g></g><g
       id="g84"
       transform="translate(-453.37437,304.81181)"><g
         id="g86"
         clip-path="url(#clipPath90)"><g
           id="g92"
           transform="translate(901.9727,532.0181)"><path
             style="fill:#560d1d;fill-opacity:1;fill-rule:nonzero;stroke:none"
             d="m 0,0 c -88.80183,-1.0506045 -177.61037,-1.4218268 -266.418,-1.428 3.49323,-4.8740373 2.63663,-29.087256 -13.18866,-10.223406 -30.17363,16.353768 -69.42982,-7.115682 -70.38111,-40.876735 -3.13016,-51.215019 49.29764,-82.535579 93.44207,-91.555079 17.41561,-3.11058 35.10627,-2.88268 44.2847,-20.33978 7.15536,-9.14713 14.64744,-12.28406 26.10373,-9.99985 40.38387,0.26915 80.76723,0.63559 121.15227,0.65285 8.075751,7.50219 21.475486,20.35421 28.90807,32.24258 C -7.9935421,-100.42672 2.7462109,-49.24248 0,0 Z m 0.283,0.3 c 5.4935156,-64.017279 -13.809836,-135.38879 -65.288,-176.74 -45.52805,0.10669 -91.18202,0.3076 -136.63,0.882 -8.82239,7.24046 -18.10167,16.79907 -24.082,25.1 -48.38705,5.68423 -107.91534,24.08216 -124.435,75.473 -12.55197,34.111472 15.97713,77.1574792 54.01587,70.945625 C -271.78595,-7.6762127 -266.5229,-25.498953 -266.418,1.73 -177.51595,1.7257602 -88.613269,1.3515292 0.283,0.3 Z"
             id="path94"
             inkscape:connector-curvature="0" /></g><g
           id="g96"
           transform="translate(637.5195,478.4854)"><path
             style="fill:#560d1d;fill-opacity:1;fill-rule:nonzero;stroke:none"
             d="m 0,0 c 4.659592,-25.040958 12.557322,-49.614604 24.869239,-71.977555 0.562184,-1.378344 2.24343,-3.584253 2.108668,-4.448243 -24.1798737,4.429121 -48.706942,11.687344 -68.503197,26.806028 -12.806586,10.007936 -23.582104,24.004908 -25.937554,40.4705825 C -69.464078,3.8007252 -64.785551,18.521565 -53.277,25.638 c 7.632327,4.434893 17.634529,7.729759 26.05348,3.557795 5.420454,-2.90955 6.663024,-9.43739 6.49727,-15.071045 C -20.336085,4.6240001 -10.162021,-2.5221411 -1.0640469,-0.08954687 -1.4033561,-1.2015115 0.1172599,0.72537776 0,0 Z m -0.273,-0.219 c -9.465379,-3.8154912 -21.101343,3.1140388 -22.355,13.223 -0.354712,5.098241 -0.624437,11.358646 -5.813072,14.009236 -7.409343,3.409499 -15.943595,0.354495 -22.72409,-3.185955 C -62.30797,17.737149 -67.68889,4.1948231 -66.446875,-8.129875 -65.010748,-24.348356 -54.168201,-38.108021 -41.389,-47.403 -22.059197,-61.370481 1.3806264,-68.290739 24.556,-72.687 23.50985,-74.554838 22.511008,-75.779868 21.806571,-73.004648 9.8259604,-50.480381 2.5346532,-25.544604 -0.273,-0.219 Z"
             id="path98"
             inkscape:connector-curvature="0" /></g><g
           id="g100"
           transform="translate(636.5576,536.1333)"><path
             style="fill:#560d1d;fill-opacity:1;fill-rule:nonzero;stroke:none"
             d="M 0,0 C 22.397399,21.097645 58.267854,18.295135 87.272,21.221 145.17136,21.709203 206.99144,30.330377 261.487,6.55 278.84899,-18.615988 241.82543,24.796527 226.00708,15.017078 154.28975,23.183295 79.698438,26.227376 9.569,6.728 5.9971044,5.4991983 2.0988342,2.7323723 0,0 Z"
             id="path102"
             inkscape:connector-curvature="0" /></g></g></g><g
       id="g104"
       transform="translate(231.67125,320.56005)"><g
         id="g106"
         clip-path="url(#clipPath110)"><g
           id="g112"
           transform="translate(542.5654,389.6025)"><path
             d="m 0,0 62.774,159.55 c 0,0 -86.316,-81.081 -211.863,-31.386 0,0 41.85,-62.773 49.697,-102.008 C -91.546,-13.078 -26.156,-26.156 0,0"
             style="fill:#a87945;fill-opacity:1;fill-rule:nonzero;stroke:none"
             id="path114"
             inkscape:connector-curvature="0" /></g><g
           id="g116"
           transform="translate(607.9551,512.5356)"><path
             d="m 0,0 -2.615,-13.078 c 0,0 39.233,10.461 26.154,-13.078 -13.077,-23.54 -45.771,-37.882 -61.639,-46.949 0,0 -4.535,-27.203 -1.134,-28.336 3.401,-1.136 9.069,11.334 9.069,11.334 0,0 5.666,14.735 17.001,17.002 11.333,2.266 36.268,7.933 51.004,41.935 14.732,34.002 -45.337,41.937 -54.404,14.735 0,0 -6.54,-20.399 16.564,16.435"
             style="fill:#a84f2e;fill-opacity:1;fill-rule:nonzero;stroke:none"
             id="path118"
             inkscape:connector-curvature="0" /></g><g
           id="g120"
           transform="translate(587.0303,557.001)"><path
             style="fill:#a84f2e;fill-opacity:1;fill-rule:nonzero;stroke:none"
             d="m 0,0 c -52.712633,16.160223 -115.91345,30.7724 -165.71159,-0.75165234 -30.58518,-14.61548266 -28.18383,-52.76655066 9.80635,-48.34077966 48.55235,-2.334689 102.757849,-7.294297 145.9450837,19.064588 C -0.61597258,-23.316935 3.4255906,-10.887665 0,0 Z"
             id="path122"
             inkscape:connector-curvature="0" /></g><g
           id="g124"
           transform="translate(425.667,443.667)"><path
             style="fill:#a84f2e;fill-opacity:1;fill-rule:nonzero;stroke:none"
             d="m 0,0 c -40.225023,3.3867618 -70.681946,-46.99019 -54.801891,-81.708719 36.375544,-23.669401 85.305024,-18.16879 126.312735,-33.135501 42.432976,-4.99895 95.156456,-11.81237 128.430206,21.006651 26.30477,25.40178 18.03947,75.765329 -19.39127,83.414107 -19.07168,-1.406451 -24.38836,-4.645889 -16.686,-23.894165 C 145.07593,-37.067219 123.5835,-36.113828 132.1849,-62.985406 104.39053,-78.93598 67.592814,-74.415848 37.849476,-64.959144 8.8332161,-56.262813 14.602487,-19.40092 0,0 Z"
             id="path126"
             inkscape:connector-curvature="0" /></g></g></g><g
       id="g284"
       transform="translate(234.75485,316.75865)"><g
         id="g286"
         clip-path="url(#clipPath290)"><g
           id="g292"
           transform="translate(600.8408,563.4971)"><path
             style="fill:#3c3c3b;fill-opacity:1;fill-rule:nonzero;stroke:none"
             d="m 0,0 c -36.145541,13.300185 -76.166875,16.259535 -113.941,16.975 -37.10058,-2.962559 -85.69729,-10.7913843 -101.01963,-50.34425 -8.79447,-17.706379 17.50986,-25.527937 24.36663,-42.19675 19.47401,-28.06977 33.23222,-62.21813 40.76,-94.12 28.68396,-18.8859 68.772545,-25.53849 98.742,-7.18 5.005269,5.27945 2.800328,22.22976 8.393,30.26 14.418292,43.32199 30.634377,86.347569 51.505,126.98 C 10.571413,-11.934796 5.6023688,-4.6701848 0,0 Z M 0.172,0.248 C 21.665604,-17.039463 -4.6490156,-39.291142 -8.2387722,-58.878003 -21.737705,-95.605662 -37.869804,-133.13909 -46.135,-170.615 c -2.156122,-15.88672 -25.12833,-15.43684 -41.423555,-18.46103 -22.320795,-0.72817 -44.443945,7.13915 -63.046445,18.84103 -11.91297,46.09555 -33.94233,91.465166 -69.196,123.931 1.35717,42.1984649 47.88756,59.530911 83.232,63.862 42.326177,6.188359 85.193777,-3.4748 126.195123,-13.2944659 C -6.8112128,3.0527613 -3.177272,2.0278726 0.172,0.248 Z"
             id="path294"
             inkscape:connector-curvature="0" /></g><g
           id="g296"
           transform="translate(607.3154,558.313)"><path
             style="fill:#3c3c3b;fill-opacity:1;fill-rule:nonzero;stroke:none"
             d="m 0,0 c -13.452953,-38.534476 -56.003333,-49.732932 -92.292,-52.511 -43.9689,-10.443329 -91.64063,-6.812611 -132.497,11.667 58.01375,-19.816773 122.25984,-18.489046 180.197516,0.290187 C -25.619336,-32.704956 -9.423676,-17.730417 0,0 Z"
             id="path298"
             inkscape:connector-curvature="0" /></g><g
           id="g300"
           transform="translate(590.8955,505.542)"><path
             style="fill:#3c3c3b;fill-opacity:1;fill-rule:nonzero;stroke:none"
             d="M 0,0 C 20.069598,28.722989 72.494377,7.9067529 59.793875,-26.709875 50.140232,-45.463539 31.749372,-57.385332 15.28,-69.551 -7.2475514,-73.379092 -16.649465,-71.275454 -5.387,-91.88 c -35.272693,-24.54403 -31.633657,39.247403 -1.511,33.641 17.582926,7.638707 45.637654,22.056693 38.294,44.817 C 19.357571,3.7617914 -13.894283,-33.305379 -8.8599065,-27.964324 -0.38565686,-16.040147 18.965006,0.69650511 33.231,-11.883 43.65497,-33.065331 18.522564,-49.27138 2.216,-57.858 c -21.805924,-1.877469 -35.96808,-16.73669 -28.07,-35.162 19.8100234,-7.95219 25.23978105,10.405145 11.746,18.658 21.874026,1.278659 39.627997,10.266703 54.313249,26.357785 21.90427,14.255279 26.430217,48.20168689 -1.497374,58.71334 C 25.016331,16.007469 10.528784,7.3466915 0,0 Z"
             id="path302"
             inkscape:connector-curvature="0" /></g><g
           id="g304"
           transform="translate(606.1553,436.5937)"><path
             style="fill:#3c3c3b;fill-opacity:1;fill-rule:nonzero;stroke:none"
             d="M 0,0 C 34.321794,-8.7258702 55.393085,-47.321063 31.57725,-76.578125 6.0560182,-121.68551 -53.546189,-118.75541 -98.433,-113.647 c -44.73452,5.86323 -89.09226,16.370438 -131.466,31.763 -32.1983,12.690157 -23.68208,52.354769 -2.31409,70.357828 2.23653,19.9892817 63.5951,27.069392 48.33209,24.883172 -30.79628,-4.0403912 -56.09156,-28.475065 -64.611,-58.012 -4.25006,-33.326749 34.36921,-39.593134 58.50913,-47.013261 C -131.77293,-106.98586 -69.232215,-126.26362 -9.553,-107.601 18.962075,-97.413703 45.230252,-64.975138 38.144,-33.908 31.0263,-17.750798 14.427836,-7.8680647 0,0 Z"
             id="path306"
             inkscape:connector-curvature="0" /></g></g></g><g
       id="g380"
       transform="translate(234.84866,-94.979941)"><g
         id="g382"
         clip-path="url(#clipPath386)"><g
           id="g388"
           transform="translate(574.2314,491.1465)"><path
             style="fill:#a6e4ff;fill-opacity:1;fill-rule:evenodd;stroke:none"
             d="m 0,0 c -66.804,0.52666667 -133.608,1.0533333 -200.412,1.58 10.09823,-59.94022 19.54786,-120.00685 30.05164,-179.86803 20.28769,-31.49886 65.71408,-29.12674 98.867985,-26.1015 36.281885,3.5965 50.0631,40.81288 52.014296,72.30305 C -12.985386,-88.057653 -6.4926931,-44.028826 0,0 Z"
             id="path390"
             inkscape:connector-curvature="0" /></g><g
           id="g392"
           transform="translate(493.3335,357.333)"><path
             d="m 0,0 c 0,0 4,-17.333 -6,-24 -10,-6.667 -37.333,-6.666 -34,22.667 z"
             style="fill:#ffffff;fill-opacity:1;fill-rule:evenodd;stroke:none"
             id="path394"
             inkscape:connector-curvature="0" /></g><g
           id="g396"
           transform="translate(463.3335,334.666)"><path
             d="M 0,0 C 0,0 8,12.668 14,13.334 20,14 28.667,6 28.667,6 28.667,6 20,-15.334 0,0"
             style="fill:#ff8989;fill-opacity:1;fill-rule:evenodd;stroke:none"
             id="path398"
             inkscape:connector-curvature="0" /></g><g
           id="g400"
           transform="translate(563.4619,498.1543)"><path
             d="m 0,0 c 0,0 55.385,-6.154 24.615,23.077 h -232.308 c 0,0 -9.231,-20.001 20,-21.539 C -158.462,0 0,0 0,0"
             style="fill:#e6e6e8;fill-opacity:1;fill-rule:evenodd;stroke:none"
             id="path402"
             inkscape:connector-curvature="0" /></g><g
           id="g404"
           transform="translate(481.9229,630.4614)"><path
             d="M 0,0 -7.692,63.077 -26.154,61.539 -20,-1.539 c 0,0 20,-13.846 20,1.539"
             style="fill:#a6e4ff;fill-opacity:1;fill-rule:evenodd;stroke:none"
             id="path406"
             inkscape:connector-curvature="0" /></g><g
           id="g408"
           transform="translate(466.5386,693.5386)"><path
             d="M 0,0 C 0,0 6.154,7.692 -7.692,4.615 -21.539,1.539 -10.769,-6.154 0,0"
             style="fill:#8edd90;fill-opacity:1;fill-rule:evenodd;stroke:none"
             id="path410"
             inkscape:connector-curvature="0" /></g><g
           id="g412"
           transform="translate(514.333,338)"><path
             style="fill:#ff4d4d;fill-opacity:1;fill-rule:evenodd;stroke:none"
             d="M 0,0 C 9.2743221,64.459229 47.851828,-23.782301 0,0 Z"
             id="path414"
             inkscape:connector-curvature="0" /></g><g
           id="g416"
           transform="translate(412,336)"><path
             style="fill:#ff4d4d;fill-opacity:1;fill-rule:evenodd;stroke:none"
             d="M 0,0 C 9.2743221,64.459229 47.851828,-23.782301 0,0 Z"
             id="path418"
             inkscape:connector-curvature="0" /></g></g></g><g
       id="g656"
       transform="translate(237.70896,-96.810941)"><g
         id="g658"
         clip-path="url(#clipPath662)"><g
           id="g664"
           transform="translate(351.0928,517.4453)"><path
             style="fill:#000000;fill-opacity:1;fill-rule:nonzero;stroke:none"
             d="m 0,0 c -3.9273496,-13.309525 1.564629,-19.91604 13.674,-19.075 8.702819,-10.043357 5.790079,-26.884674 10.187291,-39.394728 10.0619,-50.334222 16.606131,-101.493522 27.615584,-151.505272 14.595414,-24.13888 47.91521,-23.15248 72.989255,-24.41863 22.9001,2.38714 51.54856,3.01071 67.62187,21.80363 10.07507,40.47006 14.82693,82.4985 23.28009,123.491068 4.42517,23.084108 8.22799,46.575811 13.37891,69.346932 15.01586,-5.54524 24.42769,14.4592373 11.899,22.868 5.3594,1.4987733 12.06049,-23.221694 -1.542,-23.275 -17.02409,3.502013 -9.49359,-23.100278 -14.9712,-34.432603 C 214.73181,-107.0044 206.99692,-159.87424 195.61,-211.836 c -12.8077,-20.03443 -40.50733,-21.01745 -62.05047,-23.86334 -27.33792,0.17503 -60.863788,-0.15173 -80.84053,21.26184 -11.610783,30.82839 -13.40311,64.87906 -20.857645,97.00858 C 26.10414,-85.710075 21.026893,-53.837506 15.305,-22.134 10.2347,-15.877867 -4.659063,-22.79443 -0.818,-9.015 1.7122873,-8.917433 -3.3759873,0.53165713 0,0 Z"
             id="path666"
             inkscape:connector-curvature="0" /></g><g
           id="g668"
           transform="translate(460.2886,699.0483)"><path
             style="fill:#000000;fill-opacity:1;fill-rule:nonzero;stroke:none"
             d="M 0,0 C -15.583362,-5.9044697 6.1034827,-9.0893778 12.296,-1.719 10.425522,0.27207787 3.4486499,-0.03302129 0,0 Z m -0.059,0.294 c 3.4979861,1.9649769 15.934369,3.751726 13.292,-3.386 -4.5672612,-9.708413 -32.528917,-3.8757278 -16.314,2.219 0.9816499,0.44891998 1.9680098,0.91031945 3.022,1.167 z"
             id="path670"
             inkscape:connector-curvature="0" /></g><g
           id="g672"
           transform="translate(474.3311,689.9878)"><path
             style="fill:#000000;fill-opacity:1;fill-rule:nonzero;stroke:none"
             d="M 0,0 C -2.6718321,-18.89462 25.664969,-65.33218 -2.651,-68.533 -22.293747,-68.091969 -18.105981,1.6414751 -18.073,-9.274 -9.3417118,-26.216163 -21.803175,-75.464183 8.224,-64.753 5.8618579,-43.281473 -0.13752931,-21.365547 0,0 Z"
             id="path674"
             inkscape:connector-curvature="0" /></g><g
           id="g676"
           transform="translate(495.9111,621.062)"><path
             style="fill:#000000;fill-opacity:1;fill-rule:nonzero;stroke:none"
             d="m 0,0 c -15.588523,-11.216774 -35.633613,-12.824726 -49.371,2.431 -22.73633,1.0032158 -43.812799,-19.61544 -58.022,-36.11 -12.86147,-15.926093 -28.2716,-57.112037 -18.64674,-65.475507 70.734673,-0.47351 141.47197,-1.454773 212.20474,-0.08349 -2.195714,14.973914 -5.78964,42.175484 -18.08,58.408 C 54.256236,-19.736183 33.120842,-1.4363782 8.101,3.98 4.8726193,3.9278731 2.222275,2.1072893 0,0 Z m -0.171,0.251 c 22.948668,11.152459 47.904914,-13.540359 63.331,-30.144 16.281122,-19.962004 25.41215,-45.85274 24.13,-71.668 -72.995525,1.574652 -145.990777,-0.38404 -218.989,-0.514 -3.6715,48.373462 31.40904,96.5319676 78.527,107.929 15.241898,-9.0093894 31.9387,-20.536421 48.5196493,-7.5277035 C -3.1585671,-1.0321357 -1.6647836,-0.39056783 -0.171,0.251 Z"
             id="path678"
             inkscape:connector-curvature="0" /></g><g
           id="g680"
           transform="translate(563.3848,497.2344)"><path
             style="fill:#000000;fill-opacity:1;fill-rule:nonzero;stroke:none"
             d="m 0,0 c -55.94501,-1.201303 -111.98714,-1.736782 -167.959,-0.447 -17.56398,1.9096053 39.7386,2.312334 47.988,2.151 C -80.109501,-0.88702821 -39.294841,3.3979281 0,0 Z"
             id="path682"
             inkscape:connector-curvature="0" /></g><g
           id="g684"
           transform="translate(524,380)"><path
             d="m 0,0 c 0,-5.522 -4.478,-10 -10,-10 -5.522,0 -10,4.478 -10,10 0,5.522 4.478,10 10,10 C -4.478,10 0,5.522 0,0"
             style="fill:#000000;fill-opacity:1;fill-rule:evenodd;stroke:none"
             id="path686"
             inkscape:connector-curvature="0" /></g><g
           id="g688"
           transform="translate(446,378)"><path
             style="fill:#000000;fill-opacity:1;fill-rule:evenodd;stroke:none"
             d="M 0,0 C -24.690377,-38.550401 -24.901828,37.697778 0,0 Z"
             id="path690"
             inkscape:connector-curvature="0" /></g><g
           id="g692"
           transform="translate(493.4751,358.0488)"><path
             style="fill:#000000;fill-opacity:1;fill-rule:nonzero;stroke:none"
             d="M 0,0 C 14.120605,-22.910331 -25.27358,-42.744464 -36.631,-20.971 -53.619731,5.4482418 -21.043024,1.2384417 -5.0325,0.438875 L -0.146,0.102 -0.038,0.092 Z m -0.26,-0.212 c -15.757161,-5.2844856 -52.612277,7.7343845 -35.069,-19.901 12.226457,-17.715501 43.7113717,-1.051662 35.069,19.901 z"
             id="path694"
             inkscape:connector-curvature="0" /></g><g
           id="g696"
           transform="translate(486.7065,333.6816)"><path
             style="fill:#000000;fill-opacity:1;fill-rule:nonzero;stroke:none"
             d="m 0,0 c -0.56650197,-0.66639619 -1.0834235,-1.3684636 -1.392,-2.198 -3.7112002,-2.0055921 -7.7660503,-3.7506814 -12.064688,-3.6609348 -4.486484,0.017697 -8.842098,1.5809685 -12.640312,3.9049348 -0.436333,0.249 -0.872667,0.498 -1.309,0.747 2.673283,4.6243996 6.143783,8.7914707 10.352438,12.097278 2.949225,2.342204 6.393614,4.685549 10.321562,4.631722 3.1201341,-0.03486 5.6594906,-2.096133 8.0356113,-3.8582 C 3.3478782,10.114152 5.2283476,8.3642437 7.057,6.569 4.614542,4.4784886 2.132051,2.4180263 0,0 Z M -0.217,0.207 C 1.7898187,2.3616259 3.4835667,4.7767087 5.161,7.189 5.1281454,6.6985015 5.6101808,5.4057159 4.726416,6.2389434 1.5230022,8.0236795 -1.3988269,10.249691 -4.2104551,12.589877 c -2.3090261,1.842211 -5.6449884,1.831517 -8.1607359,0.414289 -4.630241,-2.475594 -7.343622,-7.1922749 -10.05818,-11.4824629 -0.584008,-0.78366993 -1.248309,-2.43894838 -1.70747,-2.7564994 -0.17072,0.60826543 -0.341439,1.21653086 -0.512159,1.8247963 4.222611,-2.1928007 8.901821,-3.5352465 13.667406,-3.695875 3.1447704,-0.1428214 6.3640931,0.1075619 9.309594,1.293875 -0.09185,-0.025213 0.6379725,1.15061394 1.01685924,1.5082766 C -0.51231706,-0.13705146 -0.34679781,0.05441249 -0.217,0.207 Z"
             id="path698"
             inkscape:connector-curvature="0" /></g><g
           id="g700"
           transform="translate(521.001,383.666)"><path
             style="fill:#ffffff;fill-opacity:1;fill-rule:evenodd;stroke:none"
             d="m 0,0 c -0.94956707,-2.1617381 -5.1460635,-6.1660057 -6.169071,-1.9587492 -1.4091367,3.2227473 2.1884383,8.0910266 4.7760539,3.951755 C -0.87337273,1.3694263 -0.42023202,0.69352789 0,0 Z"
             id="path702"
             inkscape:connector-curvature="0" /></g><g
           id="g704"
           transform="translate(443,381.666)"><path
             style="fill:#ffffff;fill-opacity:1;fill-rule:evenodd;stroke:none"
             d="m 0,0 c -0.94956707,-2.1617381 -5.1460635,-6.1660057 -6.169071,-1.9587492 -1.4091367,3.2227473 2.1884383,8.0910266 4.7760539,3.951755 C -0.87337273,1.3694263 -0.42023202,0.69352789 0,0 Z"
             id="path706"
             inkscape:connector-curvature="0" /></g></g></g></g></svg>