<?xml version="1.0" encoding="UTF-8" standalone="no"?>
<!-- Created with Inkscape (http://www.inkscape.org/) -->

<svg
   xmlns:dc="http://purl.org/dc/elements/1.1/"
   xmlns:cc="http://creativecommons.org/ns#"
   xmlns:rdf="http://www.w3.org/1999/02/22-rdf-syntax-ns#"
   xmlns:svg="http://www.w3.org/2000/svg"
   xmlns="http://www.w3.org/2000/svg"
   xmlns:sodipodi="http://sodipodi.sourceforge.net/DTD/sodipodi-0.dtd"
   xmlns:inkscape="http://www.inkscape.org/namespaces/inkscape"
   version="1.1"
   id="svg2"
   xml:space="preserve"
   width="1275.4529"
   height="962.22461"
   viewBox="0 0 1275.4529 962.22464"
   sodipodi:docname="error.svg"
   inkscape:version="0.92.2 5c3e80d, 2017-08-06"><metadata
     id="metadata8"><rdf:RDF><cc:Work
         rdf:about=""><dc:format>image/svg+xml</dc:format><dc:type
           rdf:resource="http://purl.org/dc/dcmitype/StillImage" /></cc:Work></rdf:RDF></metadata><defs
     id="defs6"><clipPath
       clipPathUnits="userSpaceOnUse"
       id="clipPath18"><path
         d="M 0,1000 H 1000 V 0 H 0 Z"
         id="path16"
         inkscape:connector-curvature="0" /></clipPath><clipPath
       clipPathUnits="userSpaceOnUse"
       id="clipPath46"><path
         d="M 0,1000 H 1000 V 0 H 0 Z"
         id="path44"
         inkscape:connector-curvature="0" /></clipPath><clipPath
       clipPathUnits="userSpaceOnUse"
       id="clipPath90"><path
         d="M 0,1000 H 1000 V 0 H 0 Z"
         id="path88"
         inkscape:connector-curvature="0" /></clipPath><clipPath
       clipPathUnits="userSpaceOnUse"
       id="clipPath134"><path
         d="M 0,1000 H 1000 V 0 H 0 Z"
         id="path132"
         inkscape:connector-curvature="0" /></clipPath><clipPath
       clipPathUnits="userSpaceOnUse"
       id="clipPath154"><path
         d="M 0,1000 H 1000 V 0 H 0 Z"
         id="path152"
         inkscape:connector-curvature="0" /></clipPath><clipPath
       clipPathUnits="userSpaceOnUse"
       id="clipPath182"><path
         d="M 0,1000 H 1000 V 0 H 0 Z"
         id="path180"
         inkscape:connector-curvature="0" /></clipPath><clipPath
       clipPathUnits="userSpaceOnUse"
       id="clipPath222"><path
         d="M 0,1000 H 1000 V 0 H 0 Z"
         id="path220"
         inkscape:connector-curvature="0" /></clipPath><clipPath
       clipPathUnits="userSpaceOnUse"
       id="clipPath242"><path
         d="M 0,1000 H 1000 V 0 H 0 Z"
         id="path240"
         inkscape:connector-curvature="0" /></clipPath><clipPath
       clipPathUnits="userSpaceOnUse"
       id="clipPath294"><path
         d="M 0,1000 H 1000 V 0 H 0 Z"
         id="path292"
         inkscape:connector-curvature="0" /></clipPath></defs><sodipodi:namedview
     pagecolor="#ffffff"
     bordercolor="#666666"
     borderopacity="1"
     objecttolerance="10"
     gridtolerance="10"
     guidetolerance="10"
     inkscape:pageopacity="0"
     inkscape:pageshadow="2"
     inkscape:window-width="1920"
     inkscape:window-height="1029"
     id="namedview4"
     showgrid="false"
     inkscape:zoom="0.58423832"
     inkscape:cx="529.88039"
     inkscape:cy="504.20591"
     inkscape:window-x="0"
     inkscape:window-y="24"
     inkscape:window-maximized="1"
     inkscape:current-layer="g10" /><g
     id="g10"
     inkscape:groupmode="layer"
     inkscape:label="error"
     transform="matrix(1.3333333,0,0,-1.3333333,-34.944236,1171.7552)"><g
       id="g12"><g
         id="g14"
         clip-path="url(#clipPath18)"><g
           id="g20"
           transform="translate(570.7344,447.1562)"><path
             d="M 0,0 C -17.017,20.888 -33.094,40.623 -50.361,61.822 -22.241,62.646 7.029,26.653 0,0 m -7.538,-22.1 c -6.598,-5.58 -10.328,-2.982 -14.717,2.454 -17.636,21.832 -35.573,43.42 -53.058,65.373 -1.842,2.31 -3.029,7.419 -1.733,9.456 2.305,3.616 6.746,5.876 10.794,9.102 3.145,-2.68 5.703,-4.274 7.508,-6.485 17.549,-21.487 34.942,-43.098 52.445,-64.619 4.549,-5.593 4.946,-10.05 -1.239,-15.281 m -91.541,-49.466 c -13.917,16.991 -27.368,33.414 -42.16,51.473 21.176,18.798 41.381,36.735 62.739,55.695 15.072,-18.566 31.529,-38.836 48.932,-60.272 -23.511,-15.86 -46.096,-31.099 -69.511,-46.896 m -74.392,-40.118 c -7.283,8.726 -14.209,17.024 -19.223,23.028 17.52,18.541 34.242,36.24 52.301,55.35 10.249,-12.711 18.556,-23.011 27.681,-34.326 -20.539,-14.891 -40.19,-29.138 -60.759,-44.052 m 133.44,180.776 c -14.617,2.329 -31.096,8.27 -43.848,-6.904 -0.615,-0.733 -2.156,-0.911 -3.934,-0.78 -0.607,-1.242 -1.244,-2.472 -1.891,-3.691 -0.275,-0.519 -0.544,-1.04 -0.819,-1.561 -0.229,-0.508 -0.719,-1.564 -0.881,-1.988 -0.078,-0.209 -0.193,-0.395 -0.281,-0.596 -1.024,-3.12 -1.863,-6.299 -2.538,-9.513 1.47,-0.686 2.958,-1.407 4.486,-2.177 -16.423,-16.183 -31.842,-31.38 -47.265,-46.571 -2.862,-2.819 -5.962,-5.433 -8.534,-8.492 -1.653,-1.964 -4.137,-5.177 -3.522,-6.788 4.506,-11.764 -5.047,-15.69 -11.281,-21.468 -12.273,-11.375 -24.908,-22.387 -36.706,-34.235 -3.297,-3.309 -4.293,-8.976 -6.136,-13.643 -0.933,-2.365 -0.794,-5.348 -2.19,-7.302 -5.048,-7.067 -1.763,-12.451 2.661,-18.03 4.422,-5.577 9.706,-4.942 16.374,-5.571 24.87,-2.352 36.99,17.96 54.867,27.793 2.335,1.285 4.472,2.93 6.761,4.308 0.512,0.309 1.275,0.202 4.639,0.642 -1.277,-4.203 -1.61,-7.374 -3.095,-9.856 -10.308,-17.231 -21.063,-34.194 -31.215,-51.514 -0.564,-0.96 -1.127,-1.772 -1.698,-2.493 1.928,-2.278 3.838,-4.662 5.782,-7.049 1.184,0.615 2.455,1.057 3.775,1.292 11.633,20.038 23.842,39.754 37.6,62.327 11.997,-22.105 22.55,-41.321 32.711,-60.74 0.262,-0.501 0.237,-1.307 0.037,-2.186 5.465,2.341 10.9,4.745 16.384,7.029 -6.548,-0.126 -10.441,7.093 -19.34,23.551 -3.98,7.359 -7.977,14.708 -12,22.045 -7.84,14.293 -5.631,24.014 7.727,33.074 17.171,11.645 34.702,22.79 51.477,34.978 6.335,4.603 11.794,2.494 16.849,0.132 1.749,1.737 3.989,3.021 6.54,3.601 4.554,1.037 9.028,2.321 13.492,3.684 0.705,0.216 1.415,0.328 2.121,0.383 0.282,11.791 0.56,23.581 0.854,35.371 2.422,27.41 -21.042,58.645 -47.963,62.938"
             style="fill:#000000;fill-opacity:1;fill-rule:evenodd;stroke:none"
             id="path22"
             inkscape:connector-curvature="0" /></g><g
           id="g24"
           transform="translate(451.5933,433.7002)"><path
             d="m 0,0 c 13.579,11.969 27.157,23.937 40.737,35.906 -0.341,0.415 -0.679,0.83 -1.02,1.245 C 26.8,24.488 13.883,11.826 0.966,-0.837 0.644,-0.558 0.322,-0.278 0,0"
             style="fill:#000000;fill-opacity:1;fill-rule:evenodd;stroke:none"
             id="path26"
             inkscape:connector-curvature="0" /></g><g
           id="g28"
           transform="translate(602.334,541.2271)"><path
             d="M 0,0 2.979,-6.037 9.642,-7.005 4.82,-11.704 5.959,-18.339 0,-15.207 l -5.959,-3.132 1.139,6.635 -4.822,4.699 6.663,0.968 z"
             style="fill:none;stroke:#231f20;stroke-width:3;stroke-linecap:butt;stroke-linejoin:miter;stroke-miterlimit:10;stroke-dasharray:none;stroke-opacity:1"
             id="path30"
             inkscape:connector-curvature="0" /></g><g
           id="g32"
           transform="translate(630,598.4131)"><path
             d="M 0,0 7.175,-14.538 23.219,-16.869 11.609,-28.185 14.35,-44.164 0,-36.62 l -14.35,-7.544 2.741,15.979 -11.61,11.316 16.044,2.331 z"
             style="fill:none;stroke:#231f20;stroke-width:3;stroke-linecap:butt;stroke-linejoin:miter;stroke-miterlimit:10;stroke-dasharray:none;stroke-opacity:1"
             id="path34"
             inkscape:connector-curvature="0" /></g><g
           id="g36"
           transform="translate(637,546.7646)"><path
             d="m 0,0 4.339,-8.792 9.703,-1.41 -7.021,-6.844 1.658,-9.663 -8.679,4.562 -8.679,-4.562 1.658,9.663 -7.021,6.844 9.703,1.41 z"
             style="fill:none;stroke:#231f20;stroke-width:3;stroke-linecap:butt;stroke-linejoin:miter;stroke-miterlimit:10;stroke-dasharray:none;stroke-opacity:1"
             id="path38"
             inkscape:connector-curvature="0" /></g></g></g><g
       id="g40"><g
         id="g42"
         clip-path="url(#clipPath46)"><g
           id="g48"
           transform="translate(591.1973,456.3584)"><path
             d="m 0,0 -0.063,-2.963 -0.21,-2.957 c -0.107,-0.982 -0.24,-1.962 -0.359,-2.943 -0.154,-0.977 -0.338,-1.949 -0.506,-2.923 -0.203,-0.967 -0.437,-1.929 -0.654,-2.894 -0.252,-0.956 -0.536,-1.903 -0.797,-2.858 l -0.924,-2.821 -1.066,-2.773 0.012,0.241 c 0.141,-0.508 0.318,-1.01 0.417,-1.532 0.129,-0.515 0.206,-1.041 0.283,-1.566 0.054,-0.528 0.117,-1.058 0.118,-1.59 0.021,-0.532 0,-1.065 -0.038,-1.597 -0.17,-2.126 -0.801,-4.231 -1.904,-6.094 -0.296,-0.451 -0.58,-0.916 -0.932,-1.329 -0.32,-0.432 -0.722,-0.826 -1.105,-1.228 l -0.582,-0.517 -0.145,-0.129 -0.096,-0.08 -0.082,-0.06 -0.328,-0.243 c -0.428,-0.341 -0.905,-0.608 -1.37,-0.895 -0.489,-0.241 -0.97,-0.508 -1.486,-0.689 -0.504,-0.219 -1.035,-0.355 -1.56,-0.513 -0.535,-0.11 -1.068,-0.244 -1.613,-0.295 -0.543,-0.087 -1.09,-0.092 -1.637,-0.121 l 0.546,0.228 -2.161,-2.202 c -0.759,-0.694 -1.497,-1.414 -2.275,-2.09 -0.795,-0.655 -1.56,-1.347 -2.381,-1.972 -0.829,-0.613 -1.622,-1.278 -2.482,-1.848 -0.857,-0.574 -1.683,-1.2 -2.575,-1.724 -0.882,-0.539 -1.747,-1.108 -2.663,-1.589 -0.905,-0.501 -1.806,-1.014 -2.745,-1.451 -0.928,-0.462 -1.861,-0.916 -2.821,-1.306 l -1.43,-0.614 -1.458,-0.545 -1.461,-0.54 -1.488,-0.467 -1.49,-0.46 -1.51,-0.391 c -1.002,-0.279 -2.021,-0.494 -3.043,-0.694 -1.018,-0.228 -2.047,-0.385 -3.08,-0.533 -1.023,-0.178 -2.075,-0.277 -3.129,-0.367 -1.069,-0.118 -2.082,-0.157 -3.092,-0.193 -0.53,-0.017 -0.965,-0.054 -1.573,-0.052 l -1.564,0.015 1.144,0.396 c -4.101,-3.548 -8.221,-7.074 -12.356,-10.583 l -6.193,-5.272 -1.553,-1.314 c -0.518,-0.436 -1.01,-0.869 -1.654,-1.332 -0.608,-0.459 -1.213,-0.919 -1.888,-1.27 l -0.988,-0.565 c -0.331,-0.184 -0.689,-0.311 -1.032,-0.468 l -1.043,-0.447 c -0.352,-0.134 -0.715,-0.228 -1.073,-0.343 l -1.078,-0.326 c -0.361,-0.093 -0.729,-0.152 -1.094,-0.228 l -1.097,-0.213 c -0.367,-0.059 -0.735,-0.08 -1.103,-0.121 -0.735,-0.077 -1.471,-0.153 -2.203,-0.136 -1.47,-0.047 -2.923,0.073 -4.36,0.242 -0.713,0.113 -1.432,0.205 -2.139,0.337 l -2.101,0.472 c -1.377,0.384 -2.758,0.768 -4.083,1.28 -1.35,0.457 -2.633,1.057 -3.929,1.625 -1.27,0.62 -2.536,1.248 -3.746,1.968 -1.242,0.669 -2.399,1.469 -3.591,2.212 l 3.261,1.237 c -0.617,-2.299 -1.515,-4.519 -2.67,-6.599 -0.563,-1.051 -1.242,-2.03 -1.922,-3.007 -0.74,-0.932 -1.461,-1.865 -2.35,-2.751 l -0.639,-0.669 -0.613,-0.553 -0.611,-0.553 -0.307,-0.276 -0.379,-0.32 -2.533,-2.113 -5.082,-4.207 -20.344,-16.803 -5.086,-4.2 -2.542,-2.101 c -0.432,-0.351 -0.83,-0.699 -1.29,-1.052 l -1.418,-1.057 c -3.802,-2.803 -8.392,-4.443 -13.05,-5.009 -2.336,-0.223 -4.707,-0.251 -7.026,0.137 -2.332,0.295 -4.591,1.001 -6.761,1.871 -1.06,0.502 -2.149,0.945 -3.135,1.582 -0.5,0.305 -1.02,0.578 -1.5,0.912 l -1.416,1.036 c -0.48,0.326 -0.93,0.723 -1.375,1.134 l -1.336,1.211 -1.111,1.221 -0.555,0.611 -0.138,0.153 c -0.118,0.134 -0.052,0.061 -0.087,0.103 l -0.032,0.044 -0.065,0.087 -0.26,0.352 c -2.832,3.686 -4.867,8.057 -5.488,12.671 l -0.233,1.724 -0.071,1.738 -0.033,0.868 0.047,0.867 0.097,1.732 0.258,1.716 0.132,0.856 0.206,0.842 0.424,1.678 0.574,1.632 c 0.341,1.105 0.919,2.112 1.386,3.163 0.268,0.508 0.581,0.993 0.87,1.49 0.296,0.494 0.575,0.997 0.936,1.447 l 1.026,1.384 c 0.334,0.465 0.769,0.879 1.15,1.319 0.777,0.917 1.604,1.621 2.42,2.354 0.225,0.198 0.361,0.34 0.658,0.581 l 0.64,0.521 1.278,1.042 2.559,2.083 5.115,4.166 10.23,8.331 10.169,8.405 5.083,4.205 c 1.678,1.381 3.409,2.868 5.367,3.993 1.952,1.119 4.019,2.049 6.188,2.66 2.168,0.601 4.399,0.968 6.65,1.061 l -0.562,-0.834 c -0.438,1.264 -0.907,2.518 -1.261,3.81 -0.402,1.277 -0.69,2.589 -0.983,3.896 l -0.367,1.98 -0.263,1.999 c -0.138,1.337 -0.251,2.681 -0.235,4.033 -0.024,0.675 0.008,1.351 0.058,2.026 l 0.061,1.015 0.133,1.01 c 0.08,0.675 0.179,1.346 0.343,2.011 0.135,0.667 0.286,1.333 0.508,1.982 l 0.304,0.981 c 0.116,0.323 0.257,0.637 0.384,0.955 l 0.394,0.954 0.481,0.916 c 0.165,0.303 0.311,0.617 0.493,0.911 l 0.574,0.866 c 0.355,0.589 0.829,1.129 1.288,1.675 0.452,0.586 0.942,0.979 1.414,1.455 0.541,0.537 1.014,0.892 1.524,1.347 l 3.006,2.59 6.014,5.178 12.03,10.354 -0.462,-0.789 0.648,3.224 0.824,3.186 0.999,3.136 c 0.372,1.034 0.78,2.053 1.171,3.08 0.428,1.013 0.895,2.008 1.341,3.014 0.481,0.988 1.003,1.957 1.505,2.937 0.533,0.963 1.118,1.896 1.678,2.844 0.595,0.925 1.224,1.829 1.837,2.746 0.647,0.89 1.324,1.759 1.986,2.641 l 2.128,2.529 2.263,2.413 2.405,2.271 2.527,2.136 2.641,1.994 2.746,1.847 2.844,1.693 -0.829,-0.998 0.608,1.488 c 0.175,0.508 0.514,0.944 0.77,1.417 l 0.417,0.693 0.541,0.676 0.555,0.667 0.281,0.329 0.263,0.242 1.048,0.946 0.033,0.03 0.121,0.103 0.021,0.014 0.085,0.056 0.167,0.112 0.34,0.223 0.68,0.443 c 0.439,0.32 0.934,0.538 1.432,0.751 0.501,0.196 0.972,0.486 1.502,0.594 l 1.558,0.412 c 0.525,0.1 1.059,0.134 1.589,0.199 0.53,0.083 1.061,0.072 1.59,0.046 0.527,-0.035 1.065,0.005 1.582,-0.1 l 1.556,-0.266 c 0.516,-0.092 1.004,-0.288 1.506,-0.434 0.502,-0.149 0.997,-0.314 1.46,-0.553 l 1.413,-0.656 -1.049,0.167 3.289,0.378 1.642,0.185 c 0.536,0.033 1.062,0.037 1.592,0.057 l 3.178,0.097 0.198,0.006 0.166,0.003 0.102,-0.004 0.407,-0.015 0.814,-0.031 1.628,-0.065 3.243,-0.309 c 1.075,-0.164 2.151,-0.299 3.218,-0.488 2.133,-0.399 4.249,-0.875 6.323,-1.495 1.036,-0.317 2.077,-0.613 3.087,-1.001 1.021,-0.355 2.034,-0.732 3.024,-1.165 1.005,-0.398 1.983,-0.855 2.954,-1.327 0.983,-0.443 1.923,-0.977 2.874,-1.482 0.959,-0.492 1.857,-1.093 2.788,-1.633 0.915,-0.566 1.796,-1.186 2.694,-1.776 0.862,-0.644 1.74,-1.265 2.583,-1.93 0.824,-0.691 1.687,-1.332 2.474,-2.063 0.795,-0.722 1.609,-1.42 2.356,-2.191 0.771,-0.746 1.524,-1.507 2.235,-2.309 1.464,-1.565 2.803,-3.239 4.079,-4.953 0.65,-0.848 1.22,-1.755 1.832,-2.629 0.579,-0.898 1.127,-1.815 1.691,-2.719 1.064,-1.85 2.071,-3.731 2.937,-5.68 0.427,-0.976 0.874,-1.943 1.234,-2.947 0.391,-0.991 0.759,-1.99 1.072,-3.008 0.347,-1.007 0.635,-2.031 0.917,-3.057 0.309,-1.019 0.522,-2.062 0.761,-3.098 0.46,-2.078 0.778,-4.184 1.015,-6.297 0.114,-1.057 0.166,-2.123 0.251,-3.184 L 0,0.005 Z m -0.4,-0.005 -0.099,3.176 c -0.092,1.05 -0.148,2.101 -0.268,3.149 -0.25,2.096 -0.577,4.183 -1.045,6.241 -0.244,1.026 -0.462,2.059 -0.776,3.067 -0.278,1.018 -0.583,2.027 -0.952,3.017 -0.331,1.001 -0.717,1.982 -1.125,2.954 -0.377,0.985 -0.84,1.932 -1.282,2.888 -0.899,1.906 -1.933,3.742 -3.02,5.543 -0.57,0.884 -1.149,1.763 -1.75,2.624 -0.637,0.838 -1.227,1.708 -1.898,2.516 -1.318,1.636 -2.69,3.227 -4.179,4.703 -0.725,0.758 -1.489,1.475 -2.268,2.174 -0.756,0.724 -1.578,1.376 -2.377,2.049 -0.793,0.682 -1.659,1.274 -2.482,1.916 -0.845,0.615 -1.721,1.186 -2.578,1.779 -0.895,0.54 -1.77,1.108 -2.676,1.623 -0.921,0.488 -1.81,1.034 -2.756,1.473 -0.939,0.452 -1.862,0.932 -2.829,1.321 -0.952,0.418 -1.91,0.821 -2.891,1.165 -0.968,0.379 -1.955,0.703 -2.949,1.005 -0.982,0.335 -1.993,0.578 -2.995,0.844 -2.008,0.515 -4.048,0.889 -6.094,1.19 -1.025,0.141 -2.057,0.228 -3.083,0.345 l -3.095,0.173 c -1.007,-0.004 -2.124,0.039 -3.037,0.017 l -3.174,-0.177 c -0.526,-0.033 -1.063,-0.051 -1.582,-0.096 l -1.51,-0.216 -3.017,-0.424 -0.496,-0.07 -0.553,0.239 -1.164,0.5 c -0.379,0.19 -0.782,0.308 -1.188,0.414 -0.405,0.102 -0.798,0.264 -1.209,0.329 l -1.23,0.196 c -0.41,0.087 -0.824,0.034 -1.234,0.062 -0.413,0.019 -0.824,0.028 -1.226,-0.048 -0.403,-0.059 -0.813,-0.08 -1.21,-0.16 l -1.167,-0.326 c -0.404,-0.072 -0.739,-0.315 -1.114,-0.458 -0.369,-0.158 -0.738,-0.316 -1.056,-0.567 l -0.499,-0.334 -0.251,-0.165 -0.126,-0.082 -0.064,-0.041 -0.015,-0.01 c -0.024,-0.02 0.195,0.165 0.099,0.085 l -0.004,-0.004 -0.007,-0.008 -0.033,-0.029 -1.038,-0.958 -0.254,-0.239 -0.162,-0.221 -0.332,-0.433 -0.342,-0.425 -0.298,-0.524 c -0.183,-0.359 -0.444,-0.672 -0.571,-1.063 l -0.468,-1.124 -0.282,-0.674 -0.548,-0.324 -2.68,-1.584 -2.589,-1.729 -2.491,-1.868 -2.386,-2.002 -2.274,-2.127 -2.17,-2.238 -2.043,-2.353 -1.914,-2.462 c -0.59,-0.855 -1.2,-1.699 -1.777,-2.564 l -1.639,-2.656 c -0.5,-0.912 -1.022,-1.814 -1.506,-2.736 -0.448,-0.94 -0.92,-1.87 -1.354,-2.817 -0.396,-0.963 -0.814,-1.92 -1.197,-2.89 l -1.037,-2.954 -0.873,-3.009 -0.708,-3.056 -0.118,-0.509 -0.344,-0.279 -12.334,-9.989 -6.168,-4.993 -3.084,-2.496 c -0.49,-0.41 -1.084,-0.846 -1.488,-1.236 -0.473,-0.446 -1.03,-0.879 -1.389,-1.344 -0.4,-0.458 -0.822,-0.897 -1.168,-1.435 l -0.547,-0.77 c -0.174,-0.263 -0.314,-0.547 -0.474,-0.82 l -0.465,-0.827 -0.379,-0.875 c -0.123,-0.292 -0.26,-0.58 -0.373,-0.877 l -0.298,-0.909 c -0.22,-0.6 -0.372,-1.222 -0.511,-1.848 -0.166,-0.619 -0.271,-1.253 -0.359,-1.891 l -0.144,-0.954 -0.075,-0.965 c -0.059,-0.643 -0.102,-1.287 -0.092,-1.936 -0.039,-1.294 0.047,-2.592 0.156,-3.886 l 0.236,-1.937 0.345,-1.923 c 0.277,-1.273 0.548,-2.552 0.933,-3.801 0.336,-1.262 0.789,-2.49 1.207,-3.729 l 0.272,-0.803 -0.833,-0.031 c -2.147,-0.081 -4.282,-0.402 -6.35,-0.985 -2.064,-0.6 -4.025,-1.506 -5.876,-2.586 -1.853,-1.091 -3.465,-2.498 -5.165,-3.923 l -5.044,-4.251 -10.086,-8.506 -10.023,-8.58 -5.012,-4.289 -2.506,-2.146 -1.252,-1.072 -0.627,-0.536 c -0.131,-0.104 -0.38,-0.355 -0.564,-0.525 l -1.196,-1.134 c -0.422,-0.374 -0.691,-0.782 -1.044,-1.168 -0.326,-0.403 -0.69,-0.756 -0.985,-1.194 l -0.9,-1.292 c -0.32,-0.418 -0.561,-0.886 -0.817,-1.343 -0.25,-0.461 -0.523,-0.909 -0.754,-1.378 -0.392,-0.972 -0.901,-1.895 -1.176,-2.91 l -0.482,-1.492 -0.338,-1.53 -0.167,-0.765 -0.094,-0.777 -0.192,-1.552 -0.041,-1.563 -0.022,-0.78 0.053,-0.779 0.106,-1.556 0.254,-1.538 c 0.683,-4.102 2.535,-7.946 5.111,-11.165 l 0.235,-0.307 0.059,-0.077 0.029,-0.038 c -0.013,0.013 0.072,-0.087 -0.022,0.022 l 0.141,-0.15 0.565,-0.601 1.131,-1.197 1.136,-0.972 c 0.369,-0.33 0.746,-0.656 1.185,-0.939 l 1.262,-0.89 c 0.426,-0.286 0.891,-0.513 1.333,-0.773 0.872,-0.549 1.841,-0.912 2.772,-1.338 3.817,-1.518 8.012,-2.038 12.068,-1.559 4.043,0.544 7.998,1.992 11.26,4.46 l 1.217,0.926 c 0.41,0.318 0.838,0.699 1.256,1.046 l 2.521,2.127 5.041,4.255 20.165,17.018 5.046,4.248 2.53,2.116 0.252,0.209 0.305,0.278 0.611,0.552 0.611,0.554 0.492,0.531 c 0.672,0.667 1.297,1.478 1.926,2.265 0.57,0.833 1.151,1.658 1.623,2.552 0.976,1.763 1.737,3.647 2.258,5.598 l 0.748,2.79 2.513,-1.552 c 1.11,-0.686 2.187,-1.434 3.336,-2.048 1.121,-0.669 2.29,-1.233 3.448,-1.82 1.182,-0.528 2.353,-1.092 3.57,-1.512 1.2,-0.48 2.435,-0.829 3.664,-1.187 l 1.864,-0.435 c 0.623,-0.122 1.249,-0.204 1.874,-0.312 1.25,-0.157 2.506,-0.273 3.749,-0.241 0.626,-0.024 1.239,0.039 1.852,0.097 0.306,0.032 0.617,0.043 0.919,0.09 l 0.901,0.169 c 0.298,0.061 0.603,0.103 0.897,0.175 l 0.869,0.259 c 0.288,0.091 0.585,0.159 0.866,0.266 l 0.828,0.349 c 0.274,0.123 0.563,0.215 0.825,0.361 l 0.778,0.44 c 0.538,0.265 1.011,0.63 1.489,0.984 0.466,0.316 1,0.771 1.523,1.204 l 1.569,1.293 6.294,5.152 c 4.189,3.442 8.395,6.867 12.618,10.268 l 0.524,0.422 0.62,-0.025 1.479,-0.062 c 0.408,-0.018 0.988,0.004 1.474,0.004 1.019,0.005 2.036,0.014 2.99,0.094 0.97,0.058 1.942,0.111 2.929,0.236 0.983,0.101 1.967,0.207 2.94,0.384 0.979,0.149 1.955,0.312 2.92,0.538 l 1.453,0.311 1.437,0.38 1.437,0.384 1.416,0.458 1.416,0.462 1.393,0.53 c 0.936,0.335 1.848,0.733 2.756,1.139 0.921,0.38 1.804,0.837 2.696,1.283 0.902,0.424 1.757,0.939 2.629,1.422 0.882,0.47 1.702,1.039 2.554,1.561 0.853,0.52 1.642,1.134 2.469,1.696 0.819,0.574 1.585,1.217 2.381,1.824 0.781,0.625 1.523,1.297 2.287,1.945 l 2.186,2.062 0.236,0.224 0.311,0.006 c 0.489,0.011 0.982,-0.008 1.469,0.054 0.491,0.025 0.969,0.129 1.454,0.207 0.472,0.126 0.954,0.226 1.411,0.406 0.47,0.143 0.907,0.368 1.357,0.566 0.426,0.243 0.867,0.464 1.263,0.759 l 0.306,0.208 0.076,0.052 0.019,0.012 c -0.006,-0.004 0.027,0.021 -0.011,-0.009 l 0.01,0.008 0.037,0.031 0.151,0.123 0.601,0.494 c 0.34,0.341 0.699,0.657 1.011,1.049 0.337,0.364 0.61,0.78 0.899,1.183 0.259,0.424 0.524,0.846 0.732,1.301 0.236,0.44 0.4,0.915 0.579,1.382 0.154,0.477 0.297,0.957 0.395,1.45 0.115,0.488 0.176,0.99 0.236,1.489 0.047,0.502 0.079,1.005 0.07,1.511 0.012,0.505 -0.038,1.01 -0.078,1.514 -0.062,0.502 -0.124,1.005 -0.236,1.5 -0.082,0.501 -0.241,0.984 -0.365,1.476 l -0.034,0.133 0.045,0.11 1.116,2.716 0.978,2.771 c 0.277,0.94 0.56,1.879 0.82,2.823 0.223,0.954 0.463,1.905 0.673,2.862 0.174,0.965 0.366,1.927 0.527,2.894 0.126,0.972 0.266,1.943 0.381,2.917 L -0.488,-2.942 -0.4,0 Z"
             style="fill:#231f20;fill-opacity:1;fill-rule:nonzero;stroke:none"
             id="path50"
             inkscape:connector-curvature="0" /></g><g
           id="g52"
           transform="translate(586.1416,433.2393)"><path
             d="m 0,0 c 0,0 -1.243,1.063 -3.239,3.065 -0.998,1.002 -2.198,2.227 -3.516,3.679 -1.34,1.435 -2.78,3.109 -4.355,4.932 -1.545,1.847 -3.223,3.845 -4.855,6.071 -1.642,2.217 -3.192,4.699 -4.825,7.242 -1.639,2.54 -3.394,5.115 -5.385,7.569 -1.957,2.48 -4.101,4.877 -6.309,7.222 -2.198,2.356 -4.424,4.687 -6.457,7.108 -2.052,2.405 -4.065,4.778 -5.986,7.094 -1.934,2.307 -3.734,4.591 -5.387,6.8 -1.658,2.206 -3.164,4.34 -4.562,6.302 -1.37,1.985 -2.626,3.805 -3.694,5.453 -1.085,1.635 -1.994,3.089 -2.737,4.293 -1.485,2.403 -2.256,3.839 -2.256,3.839 l 0.314,0.248 c 0,0 1.216,-1.085 3.205,-3.093 0.997,-1.002 2.198,-2.226 3.534,-3.663 1.352,-1.426 2.827,-3.072 4.437,-4.869 1.581,-1.818 3.303,-3.781 5.06,-5.908 1.761,-2.124 3.562,-4.408 5.351,-6.828 1.804,-2.41 3.64,-4.922 5.499,-7.48 1.877,-2.543 3.623,-5.253 5.398,-7.94 1.765,-2.696 3.593,-5.341 5.547,-7.823 1.919,-2.51 4.013,-4.819 6.099,-7.006 2.091,-2.183 4.141,-4.271 5.914,-6.386 1.781,-2.108 3.332,-4.206 4.766,-6.14 1.405,-1.958 2.696,-3.75 3.777,-5.387 1.102,-1.622 2.014,-3.075 2.754,-4.28 1.479,-2.408 2.222,-3.866 2.222,-3.866 z"
             style="fill:#231f20;fill-opacity:1;fill-rule:nonzero;stroke:none"
             id="path54"
             inkscape:connector-curvature="0" /></g><g
           id="g56"
           transform="translate(574.4189,415.6172)"><path
             d="m 0,0 c 0,0 -1.353,1.216 -3.537,3.483 -1.093,1.135 -2.406,2.521 -3.856,4.158 -1.47,1.619 -3.058,3.502 -4.795,5.551 -1.706,2.075 -3.557,4.319 -5.374,6.803 -1.826,2.477 -3.569,5.232 -5.402,8.057 -1.839,2.821 -3.801,5.688 -6.003,8.439 -2.168,2.779 -4.527,5.478 -6.951,8.127 -2.412,2.657 -4.854,5.292 -7.099,8.011 -2.25,2.714 -4.463,5.385 -6.606,7.969 -2.136,2.59 -4.13,5.149 -5.967,7.617 -1.842,2.465 -3.52,4.844 -5.079,7.032 -1.53,2.211 -2.933,4.238 -4.132,6.068 -1.215,1.82 -2.238,3.433 -3.072,4.768 -1.674,2.667 -2.551,4.253 -2.551,4.253 l 0.317,0.246 c 0,0 1.323,-1.238 3.502,-3.511 1.089,-1.134 2.406,-2.52 3.873,-4.142 1.483,-1.61 3.106,-3.464 4.877,-5.489 1.743,-2.044 3.639,-4.253 5.581,-6.641 1.945,-2.384 3.939,-4.942 5.93,-7.645 1.984,-2.709 4.033,-5.507 6.116,-8.351 2.089,-2.839 4.048,-5.851 6.038,-8.839 1.977,-2.997 4.019,-5.943 6.184,-8.723 2.13,-2.807 4.433,-5.409 6.72,-7.881 2.293,-2.467 4.539,-4.83 6.495,-7.205 1.967,-2.368 3.69,-4.711 5.286,-6.872 C -7.94,13.1 -6.502,11.101 -5.291,9.279 -4.058,7.475 -3.033,5.861 -2.2,4.525 -0.534,1.854 0.314,0.246 0.314,0.246 Z"
             style="fill:#231f20;fill-opacity:1;fill-rule:nonzero;stroke:none"
             id="path58"
             inkscape:connector-curvature="0" /></g><g
           id="g60"
           transform="translate(474.9951,382.4531)"><path
             d="M 0,0 C 0,0 -0.663,0.334 -1.643,1.058 -2.639,1.77 -3.93,2.889 -5.299,4.37 c -0.673,0.751 -1.405,1.562 -2.037,2.528 -0.644,0.96 -1.139,2.115 -1.678,3.287 -0.541,1.171 -1.174,2.325 -2.017,3.34 -0.817,1.038 -1.795,1.974 -2.842,2.858 -1.037,0.892 -2.098,1.766 -2.991,2.742 -0.901,0.972 -1.791,1.925 -2.626,2.867 -1.684,1.876 -2.955,3.859 -3.981,5.609 -0.496,0.887 -0.952,1.7 -1.311,2.456 -0.375,0.743 -0.665,1.42 -0.898,1.982 -0.466,1.123 -0.654,1.825 -0.654,1.825 l 0.314,0.246 c 0,0 0.636,-0.355 1.61,-1.085 0.487,-0.363 1.071,-0.811 1.699,-1.357 0.645,-0.535 1.318,-1.178 2.059,-1.876 1.443,-1.425 3.05,-3.146 4.455,-5.239 0.707,-1.042 1.411,-2.14 2.131,-3.251 0.726,-1.108 1.312,-2.351 1.921,-3.574 0.599,-1.233 1.266,-2.413 2.069,-3.459 0.777,-1.069 1.739,-1.965 2.742,-2.778 1.002,-0.812 2,-1.576 2.772,-2.435 C -3.781,8.204 -3.176,7.295 -2.614,6.458 -1.516,4.766 -0.748,3.239 -0.305,2.099 0.156,0.971 0.316,0.246 0.316,0.246 Z"
             style="fill:#231f20;fill-opacity:1;fill-rule:nonzero;stroke:none"
             id="path62"
             inkscape:connector-curvature="0" /></g><g
           id="g64"
           transform="translate(475.1533,382.5762)"><path
             d="M 0,0 -25,-97.5"
             style="fill:none;stroke:#231f20;stroke-width:5;stroke-linecap:round;stroke-linejoin:round;stroke-miterlimit:10;stroke-dasharray:none;stroke-opacity:1"
             id="path66"
             inkscape:connector-curvature="0" /></g><g
           id="g68"
           transform="translate(475.1533,382.5762)"><path
             d="M 0,0 44,-97.5"
             style="fill:none;stroke:#231f20;stroke-width:5;stroke-linecap:round;stroke-linejoin:round;stroke-miterlimit:10;stroke-dasharray:none;stroke-opacity:1"
             id="path70"
             inkscape:connector-curvature="0" /></g><g
           id="g72"
           transform="translate(591.4893,540.8833)"><path
             d="m 0,0 -2.241,-5.983 -0.123,-0.327 -0.499,-0.124 -6.565,-1.635 0.831,2.559 4.769,-4.753 0.542,-0.54 -0.132,-0.722 -1.213,-6.622 -1.958,1.422 6.168,2.734 0.486,0.216 0.352,-0.216 5.749,-3.53 -0.652,-0.475 -1.582,6.56 -0.097,0.401 0.355,0.396 4.507,5.021 L 9.445,-7.92 2.87,-6.36 2.423,-6.254 2.305,-5.95 Z m 0,0.704 3.65,-5.99 -0.565,0.411 6.748,-0.374 3.24,-0.179 -2.491,-2.123 -5.136,-4.377 0.259,0.797 0.695,-6.712 0.083,-0.801 -0.735,0.326 -6.169,2.734 h 0.838 l -5.75,-3.53 -2.425,-1.49 0.467,2.913 1.064,6.648 0.41,-1.261 -4.873,4.645 -2.529,2.41 3.36,0.149 6.759,0.299 -0.621,-0.451 z"
             style="fill:#231f20;fill-opacity:1;fill-rule:nonzero;stroke:none"
             id="path74"
             inkscape:connector-curvature="0" /></g><g
           id="g76"
           transform="translate(619.1543,598.1211)"><path
             d="m 0,0 -6.436,-14.535 -0.162,-0.364 -0.46,-0.087 -15.946,-2.999 0.831,2.558 11.557,-11.369 0.539,-0.531 -0.129,-0.731 -2.815,-15.965 -1.958,1.423 14.559,7.145 0.447,0.22 0.391,-0.22 14.14,-7.941 -0.653,-0.475 -3.183,15.902 -0.088,0.439 0.346,0.358 11.295,11.638 0.748,-2.303 -15.957,2.925 -0.415,0.077 -0.15,0.334 z m 0,0.682 7.847,-14.519 -0.565,0.41 16.13,-1.738 2.906,-0.313 -2.158,-1.99 -11.924,-10.993 0.259,0.796 2.297,-16.054 0.122,-0.855 -0.774,0.381 -14.56,7.145 h 0.838 l -14.141,-7.942 -2.423,-1.361 0.465,2.785 2.666,15.99 0.41,-1.261 -11.662,11.262 -2.313,2.234 3.144,0.324 16.141,1.664 -0.62,-0.451 z"
             style="fill:#231f20;fill-opacity:1;fill-rule:nonzero;stroke:none"
             id="path78"
             inkscape:connector-curvature="0" /></g><g
           id="g80"
           transform="translate(626.1553,546.4502)"><path
             d="m 0,0 -3.601,-8.767 -0.143,-0.347 -0.479,-0.104 -9.605,-2.078 0.831,2.559 6.968,-6.898 0.541,-0.534 -0.131,-0.727 -1.731,-9.651 -1.959,1.422 8.888,4.165 0.466,0.218 0.372,-0.218 8.469,-4.961 -0.653,-0.475 -2.1,9.588 -0.093,0.422 0.352,0.375 6.706,7.166 0.748,-2.302 -9.617,2.003 -0.43,0.09 -0.135,0.321 z m -0.001,0.69 5.011,-8.759 -0.565,0.41 9.789,-0.817 3.052,-0.254 -2.304,-2.048 -7.335,-6.522 0.259,0.797 1.214,-9.74 0.104,-0.829 -0.757,0.354 -8.888,4.164 h 0.838 l -8.47,-4.96 -2.424,-1.42 0.465,2.843 1.584,9.676 0.409,-1.261 -7.072,6.79 -2.409,2.313 3.24,0.246 9.8,0.742 -0.62,-0.451 z"
             style="fill:#231f20;fill-opacity:1;fill-rule:nonzero;stroke:none"
             id="path82"
             inkscape:connector-curvature="0" /></g></g></g><g
       id="g84"><g
         id="g86"
         clip-path="url(#clipPath90)"><g
           id="g92"
           transform="translate(283.4614,272)"><path
             d="m 0,0 c 0,0 -198.461,50.77 -95.384,215.385 0,0 69.23,84.615 153.845,30.769 84.616,-53.846 87.693,-3.077 69.231,92.307 -18.461,95.385 44.615,103.077 92.308,93.847 47.693,-9.231 236.923,9.231 281.539,-50.769 C 546.154,321.539 555.383,45.846 232.307,-4 232.307,-4 3.077,-10.77 0,0"
             style="fill:#d2f1ff;fill-opacity:1;fill-rule:evenodd;stroke:none"
             id="path94"
             inkscape:connector-curvature="0" /></g><g
           id="g96"
           transform="translate(814.2305,268.001)"><path
             d="m 0,0 c 0,-0.851 -0.688,-1.539 -1.538,-1.539 h -593.847 c -0.849,0 -1.538,0.688 -1.538,1.539 0,0.85 0.689,1.538 1.538,1.538 H -1.538 C -0.688,1.538 0,0.85 0,0"
             style="fill:#4f8ea8;fill-opacity:1;fill-rule:evenodd;stroke:none"
             id="path98"
             inkscape:connector-curvature="0" /></g><g
           id="g100"
           transform="translate(663.0859,491.9043)"><path
             d="m 0,0 c 0,0 -44.997,-17.999 -52.497,17.999 0,0 -1.5,25.499 19.499,38.998 C -32.998,56.997 -68.996,-3 0,0"
             style="fill:#ffffff;fill-opacity:1;fill-rule:evenodd;stroke:none"
             id="path102"
             inkscape:connector-curvature="0" /></g><g
           id="g104"
           transform="translate(678.334,631)"><path
             d="M 0,0 8,-0.667 10.666,8 13.333,1.333 20.666,2 l -4,-9.333 v -5.334 L 9.333,-8 4.666,-13.333 6,-4.667 Z"
             style="fill:#fff69c;fill-opacity:1;fill-rule:evenodd;stroke:none"
             id="path106"
             inkscape:connector-curvature="0" /></g><g
           id="g108"
           transform="translate(351.2891,522.4453)"><path
             d="M 0,0 8,-0.667 10.666,8 13.333,1.333 20.666,2 l -4,-9.333 v -5.334 L 9.333,-8 4.666,-13.333 6,-4.667 Z"
             style="fill:#fff69c;fill-opacity:1;fill-rule:evenodd;stroke:none"
             id="path110"
             inkscape:connector-curvature="0" /></g><g
           id="g112"
           transform="translate(672.334,527)"><path
             d="m 0,0 c -0.667,-2 -2.667,-5.333 -2.667,-5.333 l -5.333,2 4,-5.334 -1.334,-4.666 L 0,-10 2.666,-13.333 v 6.666 L 5.333,-4 Z"
             style="fill:#fff69c;fill-opacity:1;fill-rule:evenodd;stroke:none"
             id="path114"
             inkscape:connector-curvature="0" /></g></g></g><g
       id="g116"
       transform="translate(671.8574,527.6465)"><path
         d="m 0,0 -1.599,-4.648 -0.106,-0.308 -0.516,-0.143 -5.123,-1.426 0.831,2.559 3.727,-3.737 0.544,-0.545 -0.134,-0.717 -0.966,-5.187 -1.959,1.423 4.879,2.056 0.505,0.213 0.333,-0.213 4.461,-2.853 -0.652,-0.474 -1.336,5.124 -0.1,0.382 0.358,0.415 3.464,4.005 0.748,-2.302 -5.134,1.351 -0.461,0.121 -0.105,0.289 z m -0.001,0.721 3.006,-4.672 -0.566,0.41 5.308,-0.164 3.424,-0.106 -2.675,-2.196 -4.093,-3.361 0.259,0.797 0.449,-5.277 0.067,-0.777 -0.719,0.302 -4.881,2.056 h 0.838 l -4.461,-2.852 -2.426,-1.552 0.468,2.975 0.818,5.213 0.41,-1.261 -3.831,3.629 -2.64,2.5 3.471,0.059 5.318,0.09 -0.621,-0.451 z"
         style="fill:#231f20;fill-opacity:1;fill-rule:nonzero;stroke:none"
         id="path118"
         inkscape:connector-curvature="0" /></g><g
       id="g120"
       transform="translate(688.6465,637.8071)"><path
         style="fill:#231f20;fill-opacity:1;fill-rule:nonzero;stroke:none"
         d="m 0,0 c -0.93154703,-2.3945833 -1.861373,-4.7898378 -2.794,-7.184 -2.6659843,-0.6297332 -5.3320024,-1.259323 -7.998,-1.889 0.277,0.8526667 0.554,1.7053333 0.831,2.558 1.997431,-1.9849016 3.9939787,-3.970693 5.992,-5.955 -0.5028029,-2.761521 -1.0038864,-5.523354 -1.506,-8.285 -0.6526667,0.474333 -1.3053333,0.948667 -1.958,1.423 2.4971241,1.131059 4.9931963,2.264444 7.491,3.394 2.3170653,-1.396005 4.6332697,-2.793439 6.95,-4.19 -0.4112066,-0.361404 -0.7962223,-0.652562 -0.7886545,0.109226 -0.5667914,2.440923 -1.1335036,4.881863 -1.7003455,7.322774 1.8473144,2.024684 3.6946697,4.0493306 5.542,6.074 0.249333,-0.7676667 0.498667,-1.5353333 0.748,-2.303 C 8.1563709,-8.3251675 5.5034275,-7.7267221 2.851,-7.126 1.8996394,-4.7510789 0.95050056,-2.375266 0,0 Z M 0,0.697 C 1.357,-1.5856667 2.714,-3.8683333 4.071,-6.151 3.4702513,-5.7984708 3.4651602,-5.6617103 4.1802491,-5.7858249 7.5731592,-6.0116529 10.966041,-6.2379028 14.359,-6.463 c -2.742912,-2.3784865 -5.4866144,-4.75606 -8.23,-7.134 0.1417127,0.443964 0.3101178,1.149486 0.3172236,0.274442 C 6.7419313,-15.969026 7.036541,-18.615616 7.333,-21.262 c -2.5848763,1.171204 -5.1693049,2.343396 -7.754,3.515 0.46562321,0.0026 1.18212579,0.07481 0.38851998,-0.271888 C -2.8890178,-19.74054 -5.7457977,-21.461791 -8.602,-23.184 c 0.56509,3.490544 1.1287336,6.981323 1.693,10.472 0.09108,-0.359776 0.3932317,-1.055623 0.3548058,-1.209196 -2.6603057,2.543026 -5.3207648,5.085893 -7.9808058,7.629196 3.67099,0.208505 7.3419986,0.4166905 11.013,0.625 -0.4585785,-0.3653031 -0.7989473,-0.6022959 -0.3094409,0.061497 C -2.5542939,-3.5046686 -1.277147,-1.4038343 0,0.697 Z"
         id="path122"
         inkscape:connector-curvature="0" /></g><g
       id="g124"
       transform="translate(361.6016,529.2524)"><path
         d="m 0,0 -2.663,-6.849 -0.131,-0.335 -0.491,-0.116 -7.507,-1.773 0.831,2.558 5.45,-5.417 0.542,-0.538 -0.132,-0.724 -1.374,-7.561 -1.958,1.423 7.012,3.178 0.479,0.216 0.359,-0.216 6.591,-3.974 -0.653,-0.475 -1.741,7.498 -0.095,0.409 0.354,0.388 5.188,5.686 0.748,-2.303 -7.518,1.699 -0.44,0.1 -0.125,0.311 z m 0,0.697 4.071,-6.848 -0.564,0.41 7.69,-0.512 3.162,-0.21 -2.414,-2.093 -5.816,-5.041 0.259,0.796 0.854,-7.65 0.091,-0.811 -0.744,0.337 -7.01,3.178 0.838,-0.001 -6.594,-3.974 -2.425,-1.462 0.467,2.886 1.226,7.586 0.409,-1.261 -5.555,5.31 -2.48,2.371 3.311,0.188 7.702,0.437 -0.621,-0.451 z"
         style="fill:#231f20;fill-opacity:1;fill-rule:nonzero;stroke:none"
         id="path126"
         inkscape:connector-curvature="0" /></g><g
       id="g128"><g
         id="g130"
         clip-path="url(#clipPath134)"><g
           id="g136"
           transform="translate(629.4834,506.1167)"><path
             d="m 0,0 1.601,-1.92 c 0.565,-0.611 1.156,-1.199 1.732,-1.799 0.597,-0.578 1.26,-1.087 1.884,-1.632 0.646,-0.521 1.338,-0.984 2.001,-1.478 0.678,-0.475 1.417,-0.859 2.118,-1.292 0.717,-0.408 1.474,-0.745 2.204,-1.119 0.746,-0.345 1.526,-0.615 2.282,-0.925 0.768,-0.284 1.561,-0.499 2.333,-0.751 0.784,-0.221 1.585,-0.38 2.37,-0.575 0.796,-0.159 1.602,-0.263 2.395,-0.398 0.802,-0.096 1.608,-0.146 2.405,-0.222 l 2.403,-0.071 2.39,0.088 c 0.793,0.086 1.583,0.164 2.372,0.232 l 2.345,0.387 c 0.769,0.186 1.536,0.376 2.308,0.54 l 8.062,1.717 -6.321,-5.243 -1.339,-1.112 c -0.531,-0.456 -1.017,-0.731 -1.529,-1.105 l -1.521,-1.051 c -0.512,-0.344 -1.07,-0.611 -1.604,-0.92 l -1.623,-0.893 c -0.56,-0.259 -1.134,-0.49 -1.706,-0.725 -0.574,-0.228 -1.137,-0.484 -1.721,-0.685 l -1.776,-0.533 c -1.172,-0.399 -2.392,-0.603 -3.605,-0.84 -1.204,-0.295 -2.45,-0.295 -3.675,-0.421 -0.614,-0.072 -1.231,-0.052 -1.847,-0.043 l -1.847,0.029 c -1.229,0.065 -2.449,0.247 -3.67,0.371 -1.201,0.26 -2.414,0.468 -3.599,0.782 l -1.758,0.545 c -0.585,0.182 -1.174,0.351 -1.732,0.608 -2.276,0.901 -4.485,1.993 -6.492,3.386 l -1.511,1.033 c -0.49,0.361 -0.935,0.783 -1.403,1.171 l -1.38,1.194 -1.288,1.346 c -0.411,0.453 -0.871,0.901 -1.234,1.361 l -1.053,1.385 -0.527,0.694 -0.263,0.345 -0.033,0.044 -0.056,0.074 -0.015,0.024 -0.059,0.097 -0.12,0.192 -0.945,1.539 c -0.671,0.999 -1.152,2.105 -1.684,3.177 -0.574,1.052 -0.913,2.21 -1.345,3.319 l -0.305,0.839 -0.226,0.865 -0.451,1.726 c -0.283,1.152 -0.432,2.334 -0.652,3.496 -0.139,1.175 -0.193,2.359 -0.304,3.534 0.024,1.181 -0.024,2.365 0.06,3.542 0.183,2.352 0.486,4.705 1.116,6.987 l 0.452,1.719 c 0.143,0.576 0.392,1.117 0.584,1.678 l 0.609,1.677 0.752,1.62 c 0.262,0.534 0.481,1.096 0.783,1.61 l 0.904,1.551 c 0.564,1.066 1.313,2.005 2.012,2.988 l 0.533,0.733 c 0.189,0.237 0.403,0.461 0.605,0.693 l 1.237,1.381 c 0.208,0.224 0.412,0.476 0.627,0.677 l 0.645,0.584 1.291,1.167 0.324,0.291 0.081,0.073 0.04,0.037 0.02,0.018 0.085,0.067 0.184,0.135 0.734,0.542 1.49,1.06 c 1.021,0.666 2.101,1.237 3.158,1.852 L 6.117,47.031 1.489,40.394 -0.024,38.224 -1.358,35.94 -2.542,33.573 -3.563,31.126 -4.425,28.61 -5.096,26.025 c -0.162,-0.875 -0.352,-1.751 -0.497,-2.636 -0.088,-0.89 -0.224,-1.782 -0.3,-2.681 -0.027,-0.898 -0.095,-1.804 -0.091,-2.71 0.047,-0.903 0.049,-1.816 0.133,-2.723 0.12,-0.901 0.196,-1.817 0.371,-2.714 0.206,-0.89 0.366,-1.797 0.611,-2.683 0.273,-0.875 0.544,-1.757 0.87,-2.618 0.366,-0.843 0.701,-1.707 1.096,-2.54 0.445,-0.804 0.872,-1.621 1.338,-2.42 l 1.57,-2.307 z m -0.325,-0.233 -1.587,2.296 c -0.495,0.792 -0.96,1.612 -1.443,2.419 -0.458,0.819 -0.855,1.669 -1.286,2.506 -0.402,0.85 -0.706,1.742 -1.091,2.606 -0.347,0.877 -0.611,1.786 -0.92,2.684 -0.271,0.908 -0.47,1.836 -0.718,2.759 -0.209,0.929 -0.337,1.875 -0.508,2.82 -0.13,0.948 -0.186,1.906 -0.281,2.867 -0.048,0.96 -0.035,1.925 -0.039,2.894 0.045,0.964 0.14,1.928 0.212,2.899 0.122,0.962 0.319,1.915 0.481,2.876 l 0.728,2.834 0.997,2.757 1.252,2.656 1.503,2.523 1.704,2.391 2.177,-2.675 C -0.109,39.361 -1.115,38.906 -2.063,38.351 L -3.455,37.463 -4.161,37.03 -4.338,36.922 c -0.063,-0.049 0.062,0.053 0.041,0.036 l -0.021,-0.017 -0.043,-0.033 -0.087,-0.066 -0.346,-0.264 -1.383,-1.057 -0.691,-0.528 c -0.223,-0.18 -0.403,-0.366 -0.607,-0.548 l -1.2,-1.101 c -0.2,-0.187 -0.409,-0.362 -0.601,-0.558 l -0.556,-0.624 c -0.733,-0.839 -1.53,-1.64 -2.15,-2.577 l -0.992,-1.366 c -0.327,-0.458 -0.574,-0.966 -0.866,-1.448 l -0.848,-1.47 -0.686,-1.551 c -0.213,-0.525 -0.483,-1.029 -0.65,-1.571 l -0.527,-1.619 c -0.667,-2.173 -1.025,-4.434 -1.191,-6.703 -0.066,-1.134 0,-2.274 -0.009,-3.411 0.109,-1.131 0.231,-2.263 0.407,-3.383 l 0.366,-1.662 c 0.127,-0.552 0.215,-1.113 0.429,-1.642 l 0.553,-1.605 0.274,-0.8 0.351,-0.771 c 0.492,-1.017 0.884,-2.075 1.502,-3.021 0.572,-0.967 1.106,-1.952 1.817,-2.825 l 0.997,-1.345 0.125,-0.168 0.062,-0.084 0.015,-0.021 c 0.014,-0.018 -0.065,0.083 -0.023,0.03 l 0.037,-0.04 0.292,-0.322 0.586,-0.644 1.171,-1.288 c 0.394,-0.418 0.813,-0.736 1.213,-1.109 l 1.195,-1.09 1.327,-0.99 c 0.447,-0.324 0.874,-0.67 1.332,-0.974 l 1.406,-0.863 c 0.911,-0.618 1.919,-1.064 2.901,-1.546 0.958,-0.537 2.024,-0.835 3.033,-1.252 0.503,-0.217 1.036,-0.347 1.564,-0.49 l 1.58,-0.435 c 1.063,-0.244 2.148,-0.388 3.218,-0.59 1.089,-0.066 2.172,-0.197 3.259,-0.219 l 1.631,0.032 c 0.543,0.007 1.087,0.004 1.625,0.09 1.075,0.153 2.165,0.187 3.221,0.446 1.062,0.214 2.135,0.388 3.159,0.75 l 1.556,0.469 c 0.51,0.178 1.002,0.41 1.505,0.611 l 1.503,0.614 1.444,0.749 c 0.475,0.259 0.977,0.476 1.435,0.768 l 1.364,0.892 c 0.432,0.297 0.965,0.593 1.317,0.89 l 1.368,1.073 1.741,-3.526 c -0.87,-0.177 -1.745,-0.332 -2.617,-0.484 l -2.642,-0.273 c -0.885,-0.028 -1.769,-0.065 -2.65,-0.06 L 25.56,-15.5 c -0.873,0.115 -1.747,0.212 -2.609,0.368 -0.857,0.194 -1.715,0.364 -2.559,0.58 -0.837,0.256 -1.678,0.481 -2.499,0.762 -0.813,0.315 -1.632,0.595 -2.426,0.938 -0.783,0.372 -1.578,0.707 -2.34,1.108 -0.75,0.427 -1.516,0.816 -2.242,1.271 -0.718,0.47 -1.456,0.901 -2.148,1.4 C 8.056,-8.556 7.362,-8.062 6.7,-7.531 6.055,-6.977 5.386,-6.454 4.766,-5.877 L 2.954,-4.1 C 2.385,-3.475 1.803,-2.862 1.247,-2.228 L -0.32,-0.24 Z"
             style="fill:#231f20;fill-opacity:1;fill-rule:nonzero;stroke:none"
             id="path138"
             inkscape:connector-curvature="0" /></g><g
           id="g140"
           transform="translate(341.6118,546.46)"><path
             style="fill:#000000;fill-opacity:1;fill-rule:nonzero;stroke:none"
             d="M 0,0 C 1.5293632,6.2370177 7.2068027,12.033653 14.013778,11.226881 21.68718,10.451875 27.558177,4.8534618 32.876,-0.2 38.488695,-3.2065039 43.097012,3.708794 45.188594,8.0784219 48.519319,14.306509 50.223216,22.118429 56.291844,26.413063 61.38719,29.675599 67.52055,26.69367 71.848603,23.5235 78.636046,18.859502 84.133217,12.174131 86.728,4.307 c 3.671378,-4.92297877 8.790993,3.4370723 11.632104,5.865684 2.262446,3.383811 6.938506,3.816068 10.389066,2.094004 4.51374,-1.902418 7.79321,-6.0855341 9.22283,-10.703688 -2.58007,3.8669634 -6.51412,9.005938 -12.04255,9.444906 C 102.47546,11.673624 100.8694,9.3808548 99.090396,6.9591875 96.210663,3.7436691 93.111302,-0.47883164 88.389656,-0.58628125 83.840029,-0.16692641 83.358252,4.9733044 81.621857,8.2308125 77.759067,15.609493 71.390427,21.787321 63.838312,25.296016 57.871621,27.927636 52.752914,22.277464 50.505,17.339 46.829865,10.891717 45.605348,2.4566111 39.144687,-2.0380117 36.350374,-4.2684641 31.739365,-3.2671973 29.814,-0.964 24.763466,3.6545779 19.01229,9.1083162 11.725875,9.117375 6.3841342,8.9279287 2.3847017,4.4509073 0.285,-0.096 l -0.23126174,0.07789869 z"
             id="path142"
             inkscape:connector-curvature="0" /></g><g
           id="g144"
           transform="translate(699.834,491.3037)"><path
             d="m 0,0 c 0.253,1.111 0.672,2.179 1.234,3.19 0.571,1.002 1.275,1.966 2.185,2.762 0.446,0.407 0.95,0.758 1.48,1.076 0.269,0.153 0.551,0.285 0.833,0.42 0.293,0.105 0.586,0.22 0.885,0.312 0.606,0.171 1.226,0.279 1.853,0.329 l 0.938,0.022 0.929,-0.08 C 10.942,7.93 11.555,7.826 12.13,7.64 c 0.595,-0.152 1.141,-0.39 1.706,-0.604 0.54,-0.244 1.084,-0.498 1.593,-0.792 0.502,-0.303 1.027,-0.581 1.498,-0.92 0.97,-0.647 1.908,-1.329 2.766,-2.093 0.424,-0.384 0.872,-0.75 1.276,-1.152 0.413,-0.393 0.81,-0.802 1.209,-1.21 L 22.235,0.81 22.256,0.782 c 0.123,-0.156 0.431,-0.434 0.687,-0.603 0.276,-0.179 0.562,-0.324 0.86,-0.424 0.593,-0.203 1.246,-0.185 1.926,0.054 1.362,0.488 2.663,1.697 3.701,3.045 0.988,1.342 1.791,2.973 2.529,4.577 0.749,1.615 1.434,3.272 2.231,4.894 0.79,1.623 1.664,3.245 2.937,4.673 0.644,0.702 1.406,1.35 2.317,1.807 0.903,0.467 1.955,0.714 2.98,0.696 2.079,0.006 3.942,-0.808 5.586,-1.733 0.428,-0.224 0.797,-0.506 1.198,-0.759 l 0.534,-0.347 0.6,-0.406 c 0.771,-0.54 1.5,-1.121 2.205,-1.733 1.412,-1.219 2.734,-2.556 3.896,-4.048 1.16,-1.49 2.215,-3.103 2.969,-4.888 l 0.524,-1.358 c 0.123,-0.314 0.321,-0.876 0.431,-1.05 0.297,-0.589 0.631,-0.905 0.809,-0.93 0.108,-0.034 0.283,-0.043 0.535,0.016 0.254,0.07 0.555,0.203 0.86,0.371 0.619,0.363 1.254,0.862 1.878,1.407 1.264,1.101 2.393,2.407 3.673,3.726 l 0.518,0.512 0.173,0.158 0.067,0.049 0.136,0.098 0.275,0.197 c 0.305,0.167 0.648,0.345 0.949,0.446 0.28,0.07 0.563,0.155 0.838,0.197 1.11,0.175 2.148,-0.011 3.107,-0.296 1.937,-0.562 3.526,-1.787 4.774,-3.188 1.229,-1.436 2.095,-3.113 2.576,-4.86 L 81.258,0.971 C 80.402,2.526 79.374,3.962 78.051,5.03 76.756,6.101 75.253,6.92 73.701,7.181 72.939,7.323 72.155,7.333 71.506,7.163 71.346,7.122 71.206,7.054 71.055,7.01 70.94,6.952 70.896,6.904 70.797,6.882 L 70.547,6.665 70.42,6.556 70.357,6.501 c 0.204,0.182 0.049,0.042 0.092,0.079 L 70.438,6.566 70.413,6.538 70.021,6.07 C 68.943,4.713 67.796,3.263 66.462,1.911 65.791,1.23 65.045,0.585 64.144,0.013 c -0.466,-0.279 -0.97,-0.542 -1.571,-0.732 -0.605,-0.179 -1.344,-0.273 -2.106,-0.105 -0.755,0.16 -1.469,0.59 -1.922,1.072 -0.486,0.484 -0.794,0.986 -1.058,1.515 -0.303,0.617 -0.38,0.906 -0.579,1.424 l -0.433,1.141 c -1.284,3.008 -3.334,5.776 -5.806,8.117 -0.612,0.592 -1.262,1.147 -1.918,1.676 l -0.485,0.376 -0.565,0.418 c -0.339,0.245 -0.666,0.526 -1.016,0.741 -0.684,0.471 -1.388,0.915 -2.121,1.231 -0.724,0.358 -1.476,0.578 -2.229,0.674 -1.513,0.23 -3.021,-0.399 -4.26,-1.51 C 36.84,14.925 35.882,13.431 35.045,11.89 34.229,10.328 33.518,8.699 32.836,7.046 32.131,5.392 31.499,3.738 30.561,2.071 29.586,0.517 28.451,-1.086 26.545,-2.096 25.604,-2.6 24.381,-2.805 23.242,-2.562 c -0.567,0.115 -1.112,0.318 -1.599,0.601 -0.502,0.302 -0.903,0.577 -1.377,1.084 l 0.078,-0.087 c -0.403,0.359 -0.805,0.718 -1.192,1.091 -0.386,0.377 -0.806,0.706 -1.207,1.061 -0.4,0.357 -0.824,0.673 -1.232,1.014 C 16.309,2.55 15.876,2.847 15.45,3.157 15.03,3.48 14.579,3.732 14.142,4.019 13.699,4.291 13.24,4.517 12.791,4.769 12.33,4.976 11.873,5.217 11.398,5.367 10.93,5.558 10.449,5.666 9.971,5.784 L 9.248,5.905 8.524,5.962 C 8.043,5.972 7.562,5.938 7.086,5.856 6.85,5.81 6.618,5.742 6.381,5.687 6.155,5.599 5.918,5.536 5.689,5.442 5.239,5.247 4.789,5.022 4.373,4.732 3.945,4.458 3.554,4.119 3.16,3.774 2.78,3.417 2.411,3.034 2.078,2.616 1.391,1.798 0.785,0.877 0.283,-0.096 Z"
             style="fill:#000000;fill-opacity:1;fill-rule:nonzero;stroke:none"
             id="path146"
             inkscape:connector-curvature="0" /></g></g></g><g
       id="g148"
       transform="translate(-474.97742,-78.307088)"><g
         id="g150"
         clip-path="url(#clipPath154)"><g
           id="g156"
           transform="translate(732.6924,442.7695)"><path
             d="m 0,0 c 0,0 43.077,16.922 24.615,67.692 0,0 -26.153,46.154 -76.923,24.616 0,0 -13.845,-1.538 -12.307,-13.847 1.538,-12.308 3.077,-4.615 3.077,-4.615 L -69.23,63.077 c 0,0 -83.078,-18.463 -70.77,-60.001 0,0 -38.462,-13.846 -20,-36.923 0,0 12.309,-12.306 38.462,1.539 0,0 26.152,-12.307 63.076,9.231 l 24.615,20 15.385,-4.615 c 0,0 21.539,-15.384 18.462,7.692"
             style="fill:#f2f2f2;fill-opacity:1;fill-rule:nonzero;stroke:none"
             id="path158"
             inkscape:connector-curvature="0" /></g><g
           id="g160"
           transform="translate(711.1543,441.2305)"><path
             d="m 0,0 -40,75.385 c 0,0 -10.77,-7.693 -21.539,-12.308 -10.77,-4.615 -56.923,-26.154 -56.923,-58.462 l 15.385,-27.691 c 0,0 16.922,-20.001 46.153,-4.616 l 32.308,20 12.307,6.154 z"
             style="fill:#ff4d4d;fill-opacity:1;fill-rule:nonzero;stroke:none"
             id="path162"
             inkscape:connector-curvature="0" /></g><g
           id="g164"
           transform="translate(663.4619,498.1543)"><path
             d="m 0,0 -41.539,-23.077 c 0,0 -10.769,1.538 1.539,9.23 C -27.692,-6.154 0,7.692 0,7.692 0,7.692 9.231,1.539 0,0"
             style="fill:#f47f7f;fill-opacity:1;fill-rule:nonzero;stroke:none"
             id="path166"
             inkscape:connector-curvature="0" /></g><g
           id="g168"
           transform="translate(588.0771,439.6924)"><path
             d="m 0,0 13.846,-23.077 c 0,0 -15.384,-27.693 -29.231,-7.693 C -29.231,-10.77 -13.846,0 0,0"
             style="fill:#a83333;fill-opacity:1;fill-rule:nonzero;stroke:none"
             id="path170"
             inkscape:connector-curvature="0" /></g><g
           id="g172"
           transform="translate(685,528.9229)"><path
             d="m 0,0 41.538,-81.538 c 0,0 10.769,-18.463 32.308,38.461 0,0 -9.231,69.231 -73.846,43.077"
             style="fill:#ffc4c4;fill-opacity:1;fill-rule:nonzero;stroke:none"
             id="path174"
             inkscape:connector-curvature="0" /></g></g></g><g
       id="g176"
       transform="translate(-474.97742,-78.307088)"><g
         id="g178"
         clip-path="url(#clipPath182)"><g
           id="g184"
           transform="translate(683.54,534.5)"><path
             d="m 0,0 4.776,2.327 c 1.649,0.639 3.32,1.231 4.98,1.848 1.703,0.481 3.428,0.893 5.14,1.347 1.744,0.312 3.498,0.57 5.25,0.857 l 5.312,0.325 c 1.773,-0.076 3.551,-0.108 5.324,-0.201 1.76,-0.239 3.535,-0.407 5.289,-0.709 1.729,-0.415 3.491,-0.727 5.2,-1.231 l 2.541,-0.834 c 0.841,-0.293 1.714,-0.512 2.517,-0.906 l 2.455,-1.075 c 0.819,-0.359 1.651,-0.694 2.416,-1.161 3.164,-1.669 6.194,-3.609 8.985,-5.866 2.798,-2.258 5.366,-4.772 7.676,-7.569 l 1.692,-2.145 0.843,-1.077 0.711,-1.116 1.419,-2.236 0.707,-1.119 0.044,-0.07 0.053,-0.09 0.02,-0.037 0.075,-0.152 0.151,-0.302 0.303,-0.606 1.209,-2.425 c 0.408,-0.807 0.822,-1.612 1.109,-2.472 l 0.96,-2.538 c 0.322,-0.847 0.663,-1.688 0.857,-2.575 l 0.689,-2.628 c 0.235,-0.877 0.478,-1.75 0.585,-2.652 l 0.427,-2.685 0.212,-1.344 c 0.062,-0.449 0.064,-0.904 0.099,-1.357 0.304,-3.614 0.258,-7.261 -0.182,-10.863 -0.28,-1.793 -0.411,-3.614 -0.907,-5.366 -0.435,-1.763 -0.777,-3.553 -1.435,-5.251 l -0.882,-2.578 c -0.134,-0.436 -0.305,-0.856 -0.503,-1.265 l -0.561,-1.242 -1.125,-2.483 c -0.372,-0.83 -0.881,-1.589 -1.316,-2.387 l -1.363,-2.362 c -0.481,-0.771 -1.044,-1.488 -1.564,-2.234 l -1.59,-2.216 c -0.575,-0.704 -1.192,-1.374 -1.785,-2.061 l -1.801,-2.049 -1.987,-1.869 -1.995,-1.861 -2.197,-1.68 -2.205,-1.672 -2.255,-1.393 -2.261,-1.377 -0.142,-0.086 -0.139,-0.082 -0.076,-0.038 -0.305,-0.155 -0.607,-0.31 -1.216,-0.618 0.695,2.158 0.409,-0.853 c 0.112,-0.305 0.23,-0.607 0.323,-0.917 0.173,-0.626 0.299,-1.266 0.333,-1.913 0.044,-0.647 0.016,-1.298 -0.092,-1.936 -0.093,-0.64 -0.279,-1.262 -0.505,-1.867 -0.245,-0.597 -0.543,-1.174 -0.908,-1.707 -0.369,-0.53 -0.781,-1.034 -1.262,-1.468 -0.415,-0.421 -1.145,-0.927 -1.525,-1.141 -0.594,-0.356 -1.184,-0.54 -1.782,-0.8 -0.615,-0.182 -1.259,-0.287 -1.891,-0.393 -0.642,0.012 -1.294,-0.053 -1.927,0.056 -0.625,0.141 -1.28,0.185 -1.863,0.469 l -0.893,0.364 c -0.296,0.123 -0.55,0.329 -0.824,0.494 -0.269,0.181 -0.541,0.34 -0.801,0.546 -0.254,0.237 -0.506,0.483 -0.751,0.732 -0.565,0.526 -0.78,0.944 -1.092,1.387 l -0.225,0.331 -0.105,0.169 -0.023,0.044 -0.048,0.088 -0.095,0.176 -0.379,0.703 -0.762,1.406 1.537,-0.736 -5.024,-0.633 -5.058,-0.166 -5.051,0.303 -4.998,0.768 0.924,0.143 -21.197,-11.393 -21.231,-11.328 -2.659,-1.41 -2.763,-1.34 c -0.951,-0.381 -1.89,-0.784 -2.847,-1.142 -0.975,-0.312 -1.938,-0.66 -2.92,-0.939 -0.993,-0.241 -1.973,-0.538 -2.975,-0.732 -1.008,-0.169 -2.002,-0.414 -3.018,-0.519 -2.023,-0.266 -4.062,-0.421 -6.099,-0.394 -1.02,0.01 -2.037,0.017 -3.052,0.126 l -1.522,0.122 -1.511,0.216 c -0.503,0.078 -1.008,0.137 -1.508,0.23 l -1.492,0.317 c -1.001,0.186 -1.975,0.48 -2.952,0.755 -1.953,0.558 -3.861,1.269 -5.721,2.082 -0.933,0.4 -1.824,0.89 -2.738,1.33 -0.891,0.486 -1.759,1.014 -2.639,1.519 l 0.524,-0.015 -10.69,-5.79 c -1.803,-0.947 -3.516,-1.968 -5.391,-2.856 -0.914,-0.492 -1.91,-0.794 -2.878,-1.158 -1.006,-0.251 -2,-0.555 -3.034,-0.669 -2.045,-0.315 -4.146,-0.335 -6.192,0.006 -2.041,0.33 -4.065,0.89 -5.928,1.816 -1.858,0.914 -3.634,2.042 -5.151,3.475 -0.405,0.327 -0.731,0.74 -1.1,1.107 -0.365,0.369 -0.717,0.755 -1.027,1.187 -0.316,0.419 -0.665,0.833 -0.951,1.259 l -0.809,1.287 c -1.035,1.846 -1.894,3.75 -2.342,5.812 -0.455,2.04 -0.681,4.149 -0.519,6.249 0.164,2.095 0.609,4.17 1.347,6.148 0.78,1.962 1.831,3.814 3.12,5.495 1.312,1.663 2.893,3.107 4.66,4.362 l 1.285,0.811 c 0.512,0.332 0.902,0.52 1.359,0.787 l 2.649,1.491 10.595,5.962 -0.632,-1.098 c 0.004,1.104 -0.026,2.212 0.025,3.316 0.097,1.101 0.111,2.212 0.279,3.306 0.164,1.094 0.268,2.199 0.526,3.277 0.217,1.085 0.441,2.17 0.766,3.23 l 0.452,1.598 0.556,1.567 c 0.346,1.054 0.81,2.061 1.252,3.077 0.9,2.027 1.995,3.959 3.174,5.836 0.619,0.919 1.265,1.822 1.913,2.721 0.708,0.852 1.376,1.741 2.127,2.555 1.5,1.633 3.088,3.188 4.814,4.577 0.868,0.69 1.713,1.399 2.664,2.013 l 1.391,0.953 c 0.463,0.314 0.926,0.556 1.39,0.837 l 1.39,0.816 1.46,0.783 2.846,1.517 11.393,6.045 11.419,6.001 22.831,12.011 -0.178,-0.178 1.721,2.84 1.89,2.724 2.045,2.607 2.195,2.48 -0.039,-0.313 c -0.213,0.397 -0.434,0.787 -0.599,1.234 -0.162,0.437 -0.405,0.849 -0.453,1.32 l -0.133,0.687 -0.065,0.344 10e-4,0.349 c 0.027,0.464 -0.05,0.937 0.066,1.391 0.111,0.451 0.137,0.926 0.322,1.353 0.193,0.422 0.315,0.879 0.567,1.268 0.268,0.379 0.482,0.794 0.79,1.144 0.331,0.329 0.645,0.69 0.995,0.988 l 1.119,0.763 c 0.454,0.202 0.849,0.396 1.291,0.551 0.452,0.093 0.89,0.266 1.354,0.29 0.461,0.026 0.923,0.106 1.383,0.033 l 0.691,-0.061 c 0.226,-0.041 0.449,-0.108 0.672,-0.162 0.458,-0.086 0.878,-0.279 1.3,-0.466 0.441,-0.152 0.795,-0.467 1.194,-0.695 0.376,-0.264 0.697,-0.603 1.048,-0.902 l -0.193,0.028 z m 0.147,-0.262 -2.322,-1.354 -0.094,-0.054 -0.099,0.082 c -0.338,0.283 -0.645,0.607 -1.008,0.857 -0.384,0.215 -0.722,0.518 -1.145,0.658 -0.404,0.177 -0.806,0.361 -1.244,0.44 -0.214,0.049 -0.426,0.114 -0.643,0.151 L -7.067,0.572 C -7.507,0.642 -7.945,0.56 -8.384,0.534 -8.825,0.511 -9.241,0.34 -9.672,0.252 -10.078,0.109 -10.496,-0.104 -10.868,-0.26 l -1.115,-0.769 c -0.331,-0.289 -0.608,-0.621 -0.916,-0.927 -0.288,-0.325 -0.487,-0.729 -0.733,-1.09 -0.233,-0.372 -0.338,-0.809 -0.514,-1.208 -0.171,-0.405 -0.181,-0.856 -0.282,-1.281 -0.104,-0.427 -0.017,-0.872 -0.038,-1.307 l 0.004,-0.327 0.068,-0.321 0.135,-0.64 c 0.051,-0.439 0.289,-0.819 0.446,-1.223 0.153,-0.402 0.382,-0.795 0.604,-1.189 l 0.091,-0.162 -0.129,-0.151 -2.127,-2.492 -1.958,-2.623 -1.78,-2.745 -1.604,-2.847 -0.064,-0.112 -0.114,-0.065 -22.435,-12.733 -11.215,-6.372 -11.24,-6.325 -2.813,-1.576 -1.365,-0.77 -1.382,-0.83 c -0.452,-0.281 -0.94,-0.544 -1.363,-0.839 l -1.259,-0.884 c -0.853,-0.56 -1.65,-1.242 -2.461,-1.896 -1.611,-1.32 -3.088,-2.796 -4.482,-4.34 -0.695,-0.773 -1.322,-1.606 -1.992,-2.402 -0.61,-0.843 -1.218,-1.689 -1.803,-2.549 -1.11,-1.76 -2.147,-3.571 -2.995,-5.474 -0.418,-0.954 -0.859,-1.898 -1.185,-2.889 l -0.537,-1.468 -0.443,-1.498 c -0.322,-0.993 -0.544,-2.011 -0.763,-3.03 -0.259,-1.012 -0.366,-2.052 -0.536,-3.081 -0.175,-1.03 -0.199,-2.076 -0.307,-3.114 -0.059,-1.041 -0.046,-2.086 -0.082,-3.129 l -0.027,-0.776 -0.606,-0.322 -10.739,-5.699 -2.684,-1.425 c -0.424,-0.234 -0.949,-0.485 -1.289,-0.703 l -1.305,-0.78 c -1.553,-1.061 -3.027,-2.326 -4.268,-3.82 -1.215,-1.507 -2.222,-3.177 -2.988,-4.965 -0.725,-1.804 -1.186,-3.711 -1.389,-5.649 -0.2,-1.944 -0.037,-3.91 0.337,-5.827 0.358,-1.922 1.148,-3.773 2.04,-5.475 l 0.782,-1.303 c 0.273,-0.417 0.579,-0.781 0.865,-1.175 0.275,-0.398 0.599,-0.765 0.942,-1.122 0.345,-0.351 0.644,-0.749 1.024,-1.063 1.413,-1.379 3.081,-2.472 4.835,-3.37 1.753,-0.916 3.683,-1.46 5.628,-1.783 1.951,-0.336 3.956,-0.327 5.91,-0.036 0.987,0.101 1.938,0.389 2.9,0.622 0.927,0.346 1.883,0.624 2.758,1.095 1.782,0.858 3.55,1.924 5.326,2.875 l 10.646,5.87 0.25,0.139 0.272,-0.152 c 0.863,-0.487 1.714,-0.995 2.586,-1.463 0.895,-0.422 1.768,-0.895 2.681,-1.277 1.822,-0.774 3.679,-1.469 5.593,-1.976 0.957,-0.249 1.91,-0.516 2.888,-0.676 l 1.456,-0.279 c 0.487,-0.079 0.981,-0.128 1.469,-0.193 l 1.471,-0.179 1.478,-0.089 c 0.984,-0.085 1.972,-0.07 2.959,-0.061 1.972,0.015 3.939,0.204 5.885,0.501 0.978,0.12 1.932,0.379 2.898,0.561 0.963,0.206 1.901,0.513 2.851,0.764 0.939,0.288 1.856,0.647 2.785,0.966 0.911,0.367 1.806,0.777 2.708,1.161 l 2.619,1.347 2.622,1.471 20.998,11.754 21.032,11.691 0.395,0.219 0.529,-0.076 4.752,-0.688 4.791,-0.244 4.793,0.199 4.751,0.642 1.052,0.142 0.484,-0.879 0.774,-1.4 0.386,-0.7 0.097,-0.175 0.048,-0.087 0.024,-0.044 0.007,-0.01 c -0.155,0.251 -0.041,0.066 -0.075,0.121 l 0.004,-0.005 0.015,-0.021 0.226,-0.329 c 0.3,-0.427 0.619,-0.948 0.889,-1.103 0.138,-0.122 0.269,-0.248 0.398,-0.381 0.159,-0.12 0.356,-0.224 0.528,-0.34 0.183,-0.103 0.342,-0.254 0.543,-0.326 l 0.591,-0.23 c 0.38,-0.205 0.822,-0.193 1.229,-0.3 0.416,-0.077 0.842,-0.002 1.263,-0.03 0.411,0.089 0.829,0.153 1.231,0.27 0.367,0.184 0.811,0.316 1.129,0.513 0.23,0.14 0.473,0.288 0.578,0.393 0.141,0.103 0.29,0.224 0.443,0.382 0.313,0.281 0.573,0.614 0.811,0.959 0.235,0.348 0.423,0.724 0.58,1.114 0.14,0.396 0.263,0.8 0.316,1.216 0.069,0.413 0.081,0.836 0.047,1.252 -0.022,0.417 -0.112,0.826 -0.222,1.228 l -0.213,0.589 -0.289,0.585 -0.709,1.427 1.403,0.73 1.139,0.593 0.569,0.296 0.285,0.148 0.071,0.037 c 0.027,0.014 -0.106,-0.063 -0.033,-0.02 l 0.036,0.022 0.14,0.088 2.251,1.393 2.248,1.392 2.004,1.54 2.008,1.536 1.873,1.756 1.871,1.758 1.689,1.932 c 0.559,0.649 1.141,1.278 1.681,1.94 l 1.492,2.089 c 0.488,0.703 1.021,1.375 1.472,2.102 l 1.29,2.22 c 0.414,0.748 0.903,1.458 1.258,2.237 l 1.074,2.333 0.539,1.166 c 0.192,0.384 0.356,0.779 0.484,1.189 l 0.847,2.425 c 0.638,1.597 0.965,3.285 1.39,4.945 0.486,1.65 0.613,3.369 0.893,5.059 0.442,3.4 0.499,6.843 0.282,10.266 -0.027,0.429 -0.019,0.859 -0.073,1.285 l -0.181,1.274 -0.363,2.549 c -0.085,0.858 -0.304,1.69 -0.514,2.522 l -0.613,2.504 c -0.17,0.845 -0.474,1.651 -0.759,2.462 l -0.849,2.437 c -0.25,0.827 -0.626,1.603 -0.996,2.38 l -1.092,2.344 c -0.174,0.365 -0.384,0.839 -0.526,1.115 l -0.678,1.138 -1.352,2.276 -0.674,1.14 -0.758,1.032 -1.52,2.064 c -2.088,2.717 -4.497,5.257 -7.117,7.523 -2.619,2.273 -5.486,4.265 -8.513,5.987 -0.731,0.481 -1.53,0.83 -2.316,1.206 L 45.844,1.659 C 45.071,2.071 44.228,2.31 43.413,2.623 L 40.951,3.52 C 39.294,4.067 37.578,4.426 35.89,4.89 34.179,5.242 32.438,5.461 30.709,5.755 28.966,5.91 27.211,5.976 25.459,6.082 L 20.198,5.861 C 18.461,5.609 16.716,5.387 14.981,5.11 13.277,4.68 11.563,4.277 9.868,3.814 8.216,3.213 6.553,2.638 4.908,2.016 Z"
             style="fill:#231f20;fill-opacity:1;fill-rule:nonzero;stroke:none"
             id="path186"
             inkscape:connector-curvature="0" /></g><g
           id="g188"
           transform="translate(732.373,439.8164)"><path
             d="m 0,0 c 0,0 -1.014,1.338 -2.626,3.768 -0.808,1.213 -1.779,2.693 -2.845,4.418 -1.083,1.713 -2.247,3.679 -3.517,5.824 -1.236,2.163 -2.595,4.495 -3.912,7.029 -1.323,2.529 -2.565,5.282 -3.873,8.116 -1.303,2.837 -2.741,5.719 -4.329,8.577 -1.576,2.865 -3.308,5.703 -5.095,8.51 -1.778,2.814 -3.578,5.613 -5.219,8.443 -1.646,2.827 -3.264,5.608 -4.831,8.3 -0.787,1.344 -1.522,2.687 -2.247,3.998 -0.736,1.306 -1.426,2.6 -2.084,3.867 -1.344,2.518 -2.557,4.931 -3.678,7.157 -2.216,4.468 -3.976,8.237 -5.154,10.907 -0.582,1.338 -1.039,2.389 -1.352,3.107 -0.298,0.724 -0.457,1.11 -0.457,1.11 l 0.264,0.145 c 0,0 0.24,-0.341 0.693,-0.981 0.439,-0.647 1.082,-1.597 1.901,-2.805 1.623,-2.424 3.863,-5.93 6.449,-10.193 1.279,-2.14 2.668,-4.457 4.074,-6.94 0.719,-1.234 1.442,-2.509 2.15,-3.83 0.719,-1.315 1.459,-2.655 2.172,-4.04 1.436,-2.764 2.918,-5.622 4.424,-8.524 1.51,-2.9 2.91,-5.922 4.334,-8.929 1.414,-3.013 2.883,-5.996 4.457,-8.861 1.564,-2.872 3.228,-5.629 4.926,-8.249 1.692,-2.623 3.352,-5.146 4.779,-7.617 1.436,-2.469 2.676,-4.867 3.842,-7.069 1.131,-2.22 2.167,-4.257 3.035,-6.09 C -2.834,7.325 -2.104,5.713 -1.512,4.38 -0.324,1.717 0.264,0.145 0.264,0.145 Z"
             style="fill:#231f20;fill-opacity:1;fill-rule:nonzero;stroke:none"
             id="path190"
             inkscape:connector-curvature="0" /></g><g
           id="g192"
           transform="translate(718.3223,435.2842)"><path
             d="m 0,0 c 0.001,0 -0.969,1.266 -2.504,3.569 -0.768,1.151 -1.693,2.553 -2.703,4.189 -1.029,1.626 -2.132,3.491 -3.335,5.527 -1.169,2.054 -2.456,4.268 -3.696,6.676 -1.246,2.404 -2.407,5.024 -3.631,7.722 -1.219,2.7 -2.569,5.44 -4.07,8.155 -1.489,2.721 -3.131,5.413 -4.83,8.076 -1.688,2.668 -3.4,5.323 -4.953,8.009 -1.557,2.683 -3.09,5.324 -4.573,7.881 -0.744,1.275 -1.438,2.55 -2.124,3.797 -0.695,1.24 -1.346,2.469 -1.965,3.673 -1.266,2.393 -2.407,4.688 -3.462,6.805 -2.081,4.248 -3.73,7.835 -4.829,10.377 -0.543,1.274 -0.97,2.275 -1.261,2.958 -0.276,0.69 -0.423,1.058 -0.423,1.058 l 0.263,0.144 c 0,0 0.23,-0.323 0.661,-0.929 0.417,-0.613 1.031,-1.513 1.81,-2.658 1.546,-2.297 3.675,-5.621 6.127,-9.667 1.213,-2.03 2.527,-4.229 3.858,-6.588 0.68,-1.171 1.364,-2.382 2.033,-3.637 0.677,-1.249 1.377,-2.523 2.048,-3.838 1.351,-2.628 2.747,-5.344 4.164,-8.104 1.423,-2.757 2.733,-5.632 4.068,-8.493 1.325,-2.866 2.704,-5.704 4.19,-8.426 1.476,-2.728 3.053,-5.344 4.668,-7.828 1.609,-2.487 3.188,-4.878 4.539,-7.225 1.358,-2.344 2.526,-4.622 3.624,-6.716 1.064,-2.111 2.038,-4.047 2.852,-5.791 0.831,-1.734 1.513,-3.269 2.065,-4.537 1.111,-2.535 1.653,-4.034 1.653,-4.034 z"
             style="fill:#231f20;fill-opacity:1;fill-rule:nonzero;stroke:none"
             id="path194"
             inkscape:connector-curvature="0" /></g><g
           id="g196"
           transform="translate(610.8027,412.2031)"><path
             d="m 0,0 c 0,0 -0.539,0.473 -1.332,1.385 -0.397,0.456 -0.868,1.014 -1.36,1.683 -0.505,0.661 -1.043,1.426 -1.594,2.28 -0.542,0.859 -1.132,1.788 -1.638,2.836 -0.513,1.045 -0.904,2.23 -1.333,3.443 -0.429,1.213 -0.931,2.433 -1.61,3.578 -0.657,1.157 -1.446,2.266 -2.293,3.34 -0.836,1.082 -1.697,2.149 -2.413,3.273 -0.732,1.117 -1.445,2.218 -2.114,3.297 -1.366,2.14 -2.37,4.29 -3.194,6.154 -0.808,1.872 -1.39,3.483 -1.755,4.634 -0.368,1.151 -0.513,1.844 -0.513,1.844 l 0.261,0.147 c 0,0 0.516,-0.487 1.304,-1.401 0.793,-0.912 1.863,-2.25 3.037,-3.917 1.159,-1.675 2.469,-3.654 3.58,-5.937 0.571,-1.133 1.138,-2.318 1.708,-3.524 0.586,-1.197 1.046,-2.489 1.532,-3.766 0.474,-1.285 1.008,-2.536 1.652,-3.701 0.622,-1.176 1.399,-2.243 2.211,-3.241 0.809,-1 1.617,-1.952 2.239,-2.935 C -2.994,8.493 -2.51,7.505 -2.061,6.595 -1.619,5.68 -1.25,4.821 -0.949,4.045 -0.635,3.276 -0.404,2.582 -0.223,2.006 0.141,0.854 0.262,0.146 0.262,0.146 Z"
             style="fill:#231f20;fill-opacity:1;fill-rule:nonzero;stroke:none"
             id="path198"
             inkscape:connector-curvature="0" /></g><g
           id="g200"
           transform="translate(675.5166,420.7588)"><path
             d="M 0,0 -32,-71"
             style="fill:none;stroke:#231f20;stroke-width:6;stroke-linecap:round;stroke-linejoin:round;stroke-miterlimit:10;stroke-dasharray:none;stroke-opacity:1"
             id="path202"
             inkscape:connector-curvature="0" /></g><g
           id="g204"
           transform="translate(675.5166,420.7588)"><path
             d="M 0,0 37,-71"
             style="fill:none;stroke:#231f20;stroke-width:6;stroke-linecap:round;stroke-linejoin:round;stroke-miterlimit:10;stroke-dasharray:none;stroke-opacity:1"
             id="path206"
             inkscape:connector-curvature="0" /></g><g
           id="g208"
           transform="translate(685.1836,429.0928)"><path
             d="m 0,0 2,-7.334 -22,-12 -4.667,6 z"
             style="fill:#231f20;fill-opacity:1;fill-rule:nonzero;stroke:none"
             id="path210"
             inkscape:connector-curvature="0" /></g></g></g><g
       id="g212"
       transform="translate(880.6898,368.56011)"><path
         d="m 0,0 2,-13 h -8 l -4,7 -145,-39 -4,8 -49,-14 -6,-2 4,-7 -6,-4 -13,26 7,8 5,-6 52,16 -2,9 131,69 v 7 l 6,7 3,-7 4,-5"
         style="fill:#f2f2f2;fill-opacity:1;fill-rule:nonzero;stroke:none"
         id="path214"
         inkscape:connector-curvature="0" /></g><g
       id="g216"
       transform="translate(307.4516,3.2093069)"><g
         id="g218"
         clip-path="url(#clipPath222)"><g
           id="g224"
           transform="translate(413,334)"><path
             d="M 0,0 -5,13 -57,-3 c 0,0 -2,6 -7,2 -5,-4 3,-18 5,-21 0,0 2,-9 9,-5 l 2,9 z"
             style="fill:#a83333;fill-opacity:1;fill-rule:nonzero;stroke:none"
             id="path226"
             inkscape:connector-curvature="0" /></g><g
           id="g228"
           transform="translate(418,322)"><path
             d="M 0,0 -8,32 120,98 141,40 Z"
             style="fill:#ff4d4d;fill-opacity:1;fill-rule:nonzero;stroke:none"
             id="path230"
             inkscape:connector-curvature="0" /></g><g
           id="g232"
           transform="translate(509,395)"><path
             d="m 0,0 -76,-36 c 0,0 -6,4 2,9 L -4,8 C -4,8 0.5,11.5 2,9 3.5,6.5 5,2.5 0,0"
             style="fill:#f47f7f;fill-opacity:1;fill-rule:nonzero;stroke:none"
             id="path234"
             inkscape:connector-curvature="0" /></g></g></g><g
       id="g236"
       transform="translate(307.4516,3.2093069)"><g
         id="g238"
         clip-path="url(#clipPath242)"><g
           id="g244"
           transform="translate(549.6172,427.0918)"><path
             d="M 0,0 -3.147,7.646 C -3.206,7.785 -3.288,8.01 -3.328,8.079 l -0.241,0.457 c -0.075,0.172 -0.174,0.265 -0.264,0.37 -0.098,0.104 -0.164,0.221 -0.277,0.317 -0.445,0.404 -0.978,0.699 -1.554,0.841 -0.576,0.1 -1.184,0.139 -1.734,-0.076 -0.566,-0.166 -1.258,-0.49 -1.88,-0.728 l -1.917,-0.774 -0.479,-0.193 -0.014,-0.006 -0.008,-0.003 c 0.128,0.056 0.031,0.013 0.057,0.025 l -0.027,-0.015 -0.058,-0.03 -0.114,-0.061 -0.228,-0.119 C -12.432,7.928 -12.502,7.743 -12.727,7.6 -13.082,7.184 -13.418,6.719 -13.529,6.174 -13.656,5.645 -13.677,5.083 -13.5,4.569 c 0.055,-0.235 0.186,-0.561 0.32,-0.885 l 0.387,-0.958 0.773,-1.916 1.52,-3.843 0.328,-0.83 -0.82,-0.424 -16.54,-8.532 c -5.52,-2.832 -11.014,-5.715 -16.554,-8.506 l -16.593,-8.425 -16.632,-8.349 c -5.537,-2.795 -11.097,-5.547 -16.659,-8.294 -5.551,-2.767 -11.143,-5.452 -16.718,-8.172 l -33.584,-16.05 0.533,1.355 4.683,-13.071 -1.614,-0.607 -1.68,4.668 1.016,-0.459 -12.608,-4.609 -12.578,-4.687 c -4.198,-1.55 -8.365,-3.182 -12.548,-4.768 l -12.539,-4.791 -0.664,-0.254 -0.255,0.67 -0.768,2.009 -0.384,1.004 -0.192,0.502 -0.024,0.063 -0.012,0.031 c -0.008,0.02 0.052,-0.118 0.023,-0.052 l -0.008,0.015 -0.06,0.119 -0.121,0.241 c -0.156,0.379 -0.34,0.49 -0.486,0.713 -0.221,0.171 -0.411,0.412 -0.68,0.527 -0.486,0.326 -1.083,0.434 -1.649,0.431 l -0.428,-0.031 -0.414,-0.117 c -0.25,-0.046 -0.644,-0.238 -0.959,-0.35 l -2.002,-0.784 -1.002,-0.392 -0.5,-0.196 -0.126,-0.049 -0.062,-0.025 -0.032,-0.012 -0.015,-0.005 c 0.03,0.012 -0.089,-0.038 0.062,0.027 l -0.239,-0.122 c -0.155,-0.082 -0.328,-0.164 -0.469,-0.246 -0.087,-0.085 -0.175,-0.164 -0.268,-0.237 -0.096,-0.057 -0.182,-0.177 -0.27,-0.285 -0.08,-0.112 -0.2,-0.196 -0.253,-0.328 -0.312,-0.466 -0.434,-1.022 -0.473,-1.564 0.024,-0.581 0.138,-0.991 0.44,-1.727 l 1.568,-4.005 3.138,-8.009 3.152,-8.005 1.577,-4.002 0.049,-0.125 0.006,-0.016 c -0.021,0.049 0.056,-0.13 -0.046,0.105 l 0.016,-0.03 0.03,-0.06 0.124,-0.239 0.123,-0.239 0.061,-0.119 c 0.019,-0.023 0.036,-0.032 0.053,-0.049 0.067,-0.059 0.125,-0.122 0.175,-0.192 0.048,-0.071 0.176,-0.144 0.255,-0.219 0.162,-0.176 0.402,-0.242 0.596,-0.37 0.229,-0.053 0.441,-0.166 0.679,-0.162 0.229,-0.056 0.46,-0.003 0.689,0.004 0.115,0.009 0.222,0.066 0.334,0.091 0.107,0.029 0.212,0.048 0.401,0.129 l 2,0.79 2.001,0.788 0.25,0.098 0.032,0.012 0.015,0.007 c 0.035,0.014 -0.243,-0.107 -0.119,-0.052 l 0.06,0.031 0.12,0.062 0.478,0.245 c 0.089,0.074 0.109,0.127 0.175,0.176 l 0.091,0.069 0.101,0.132 c 0.604,0.667 0.74,1.623 0.419,2.47 l -1.556,4.009 -0.565,1.455 1.483,0.575 25.036,9.694 25.07,9.605 1.833,0.702 0.71,-1.854 4.312,-11.255 -2.461,1.246 17.874,5.094 17.893,5.024 35.836,9.87 35.894,9.661 c 5.982,1.616 11.964,3.224 17.961,4.782 l 17.979,4.717 0.96,0.252 0.322,-0.901 1.456,-4.069 0.729,-2.034 0.364,-1.018 0.091,-0.254 0.046,-0.127 0.022,-0.064 0.006,-0.016 0.003,-0.007 c -0.016,0.035 0.039,-0.091 -0.034,0.078 l 0.014,-0.032 0.232,-0.487 c 0.077,-0.194 0.158,-0.263 0.228,-0.35 0.083,-0.087 0.115,-0.19 0.226,-0.28 0.203,-0.186 0.4,-0.384 0.653,-0.508 0.475,-0.288 1.04,-0.448 1.604,-0.412 0.286,-0.02 0.557,0.075 0.838,0.133 0.308,0.087 0.671,0.23 1.004,0.342 l 2.039,0.716 1.02,0.357 c 0.18,0.075 0.675,0.277 0.861,0.425 0.43,0.258 0.849,0.786 1.114,1.305 0.252,0.552 0.326,1.166 0.278,1.775 -0.101,0.56 -0.367,1.272 -0.606,1.947 l -2.848,8.162 -0.111,0.32 0.302,0.104 4.358,1.504 0.14,-0.375 -4.266,-1.743 0.191,0.422 3.241,-8.014 c 0.264,-0.673 0.559,-1.294 0.758,-2.146 0.114,-0.823 0.045,-1.676 -0.27,-2.458 -0.359,-0.766 -0.804,-1.453 -1.595,-1.986 -0.393,-0.272 -0.578,-0.345 -1.049,-0.567 l -1.002,-0.403 -2.005,-0.807 c -0.343,-0.133 -0.647,-0.271 -1.024,-0.4 -0.416,-0.123 -0.833,-0.265 -1.274,-0.269 -0.873,-0.087 -1.769,0.112 -2.543,0.529 -0.404,0.189 -0.746,0.472 -1.08,0.767 -0.171,0.135 -0.316,0.36 -0.468,0.544 -0.153,0.195 -0.305,0.403 -0.364,0.547 l -0.248,0.48 -0.015,0.031 -0.05,0.116 -0.024,0.063 -0.05,0.125 -0.1,0.252 -0.397,1.004 -0.795,2.01 -1.59,4.018 1.281,-0.648 -17.813,-5.306 c -5.935,-1.783 -11.883,-3.515 -17.833,-5.24 l -35.692,-10.384 -35.751,-10.176 -17.9,-4.999 -17.92,-4.927 -1.815,-0.499 -0.646,1.745 -4.185,11.304 2.543,-1.152 -25.177,-9.321 -25.21,-9.232 0.918,2.03 1.477,-4.04 c 0.691,-1.836 0.309,-4.118 -1.085,-5.552 -0.273,-0.365 -0.845,-0.736 -1.261,-1.012 l -0.485,-0.231 -0.121,-0.059 -0.061,-0.028 -0.165,-0.071 -0.032,-0.012 -0.253,-0.091 -2.024,-0.728 -2.024,-0.728 c -0.142,-0.059 -0.385,-0.126 -0.625,-0.187 -0.236,-0.054 -0.469,-0.132 -0.71,-0.155 -0.486,-0.031 -0.973,-0.072 -1.452,0.029 -0.486,0.042 -0.935,0.237 -1.387,0.4 -0.417,0.238 -0.862,0.444 -1.206,0.787 -0.18,0.171 -0.362,0.296 -0.531,0.511 -0.17,0.213 -0.332,0.432 -0.485,0.656 -0.089,0.122 -0.138,0.214 -0.168,0.286 l -0.116,0.243 -0.115,0.242 -0.03,0.061 -0.078,0.182 -0.045,0.127 -1.456,4.046 -2.912,8.096 -2.926,8.089 -1.464,4.045 c -0.236,0.591 -0.542,1.575 -0.503,2.436 0.067,0.879 0.312,1.753 0.819,2.479 0.101,0.196 0.274,0.342 0.411,0.513 0.146,0.164 0.28,0.331 0.487,0.472 0.19,0.147 0.385,0.288 0.58,0.423 0.171,0.093 0.326,0.16 0.49,0.241 l 0.242,0.117 0.141,0.056 0.063,0.024 0.127,0.045 0.505,0.183 1.011,0.366 2.023,0.732 c 0.363,0.118 0.615,0.252 1.069,0.357 0.209,0.053 0.417,0.111 0.627,0.152 l 0.645,0.033 c 1.707,0.013 3.417,-0.985 4.149,-2.547 l 0.118,-0.241 0.059,-0.12 0.044,-0.099 0.012,-0.031 0.023,-0.064 0.187,-0.504 0.374,-1.007 0.749,-2.016 -0.919,0.416 12.584,4.671 c 4.191,1.568 8.399,3.091 12.575,4.695 l 12.546,4.776 12.515,4.854 0.724,0.28 0.292,-0.74 1.818,-4.618 -1.614,-0.607 -5.103,12.913 -0.355,0.897 0.888,0.459 33.074,17.077 c 5.535,2.801 11.052,5.637 16.611,8.39 5.548,2.774 11.098,5.545 16.67,8.27 l 16.698,8.215 16.736,8.14 c 5.57,2.729 11.185,5.368 16.776,8.057 l 16.789,8.032 -0.493,-1.253 -1.392,3.89 -0.684,1.951 -0.341,0.975 c -0.113,0.32 -0.231,0.635 -0.329,1.074 -0.221,0.81 -0.159,1.678 0.078,2.466 0.222,0.807 0.729,1.489 1.308,2.069 0.337,0.251 0.747,0.589 1.034,0.685 l 0.534,0.244 0.487,0.171 1.952,0.683 c 0.675,0.221 1.244,0.471 2.006,0.668 0.763,0.241 1.585,0.17 2.34,-0.012 0.757,-0.223 1.438,-0.644 1.985,-1.199 0.246,-0.291 0.547,-0.662 0.681,-0.965 L -2.501,8.49 c 0.107,-0.242 0.128,-0.347 0.196,-0.527 l 2.68,-7.822 z"
             style="fill:#0c0909;fill-opacity:1;fill-rule:nonzero;stroke:none"
             id="path246"
             inkscape:connector-curvature="0" /></g><g
           id="g248"
           transform="translate(496.6382,340.0283)"><path
             d="M 0,0 -32,-71"
             style="fill:none;stroke:#231f20;stroke-width:6;stroke-linecap:round;stroke-linejoin:round;stroke-miterlimit:10;stroke-dasharray:none;stroke-opacity:1"
             id="path250"
             inkscape:connector-curvature="0" /></g><g
           id="g252"
           transform="translate(496.6382,340.0283)"><path
             d="M 0,0 37,-71"
             style="fill:none;stroke:#231f20;stroke-width:6;stroke-linecap:round;stroke-linejoin:round;stroke-miterlimit:10;stroke-dasharray:none;stroke-opacity:1"
             id="path254"
             inkscape:connector-curvature="0" /></g><g
           id="g256"
           transform="translate(508.2051,345.5342)"><path
             d="m 0,0 0.281,-7.597 -24.151,-6.687 -3.181,6.904 z"
             style="fill:#231f20;fill-opacity:1;fill-rule:nonzero;stroke:none"
             id="path258"
             inkscape:connector-curvature="0" /></g><g
           id="g260"
           transform="translate(572.457,366.7393)"><path
             d="m 0,0 c 0,0 -0.507,0.887 -1.28,2.48 -0.778,1.593 -1.826,3.892 -2.975,6.691 -0.558,1.406 -1.179,2.924 -1.747,4.561 -0.577,1.635 -1.063,3.405 -1.605,5.22 -0.52,1.824 -1.126,3.684 -1.836,5.537 -0.689,1.863 -1.525,3.702 -2.349,5.547 -0.836,1.84 -1.69,3.673 -2.437,5.513 -0.748,1.84 -1.483,3.65 -2.196,5.401 -0.704,1.756 -1.36,3.461 -1.928,5.1 -0.587,1.63 -1.103,3.186 -1.58,4.623 -0.934,2.881 -1.652,5.304 -2.115,7.015 -0.466,1.709 -0.698,2.7 -0.698,2.7 l 0.187,0.07 c 0,0 0.479,-0.897 1.257,-2.489 0.781,-1.592 1.84,-3.886 3.038,-6.667 0.59,-1.395 1.23,-2.905 1.863,-4.518 0.654,-1.605 1.287,-3.319 1.915,-5.103 0.621,-1.786 1.261,-3.632 1.913,-5.508 0.653,-1.875 1.22,-3.817 1.806,-5.751 0.598,-1.93 1.184,-3.864 1.894,-5.718 0.69,-1.861 1.461,-3.658 2.273,-5.372 0.791,-1.723 1.593,-3.373 2.239,-4.981 0.652,-1.607 1.188,-3.156 1.696,-4.58 C -1.682,6.908 -0.953,4.489 -0.487,2.779 -0.017,1.071 0.187,0.07 0.187,0.07 Z"
             style="fill:#231f20;fill-opacity:1;fill-rule:nonzero;stroke:none"
             id="path262"
             inkscape:connector-curvature="0" /></g><g
           id="g264"
           transform="translate(561.8154,360.666)"><path
             d="m 0,0 c 0,0 -0.522,0.927 -1.322,2.593 -0.805,1.664 -1.893,4.064 -3.087,6.987 -0.582,1.467 -1.227,3.051 -1.821,4.759 -0.601,1.706 -1.107,3.553 -1.689,5.441 -0.548,1.901 -1.185,3.839 -1.925,5.774 -0.719,1.942 -1.586,3.863 -2.44,5.79 -0.867,1.922 -1.752,3.836 -2.529,5.757 -0.778,1.92 -1.543,3.809 -2.285,5.637 -0.733,1.832 -1.417,3.612 -2.01,5.321 -0.616,1.7 -1.156,3.323 -1.656,4.821 -0.485,1.503 -0.932,2.881 -1.289,4.116 -0.361,1.233 -0.701,2.3 -0.938,3.194 -0.492,1.783 -0.739,2.813 -0.74,2.813 l 0.187,0.07 c 0,0 0.494,-0.938 1.3,-2.601 0.412,-0.829 0.86,-1.855 1.402,-3.02 0.547,-1.164 1.12,-2.494 1.747,-3.944 0.613,-1.455 1.278,-3.031 1.938,-4.715 0.679,-1.676 1.341,-3.464 1.998,-5.324 0.649,-1.864 1.32,-3.788 2.002,-5.745 0.683,-1.955 1.282,-3.978 1.897,-5.995 0.629,-2.011 1.245,-4.027 1.987,-5.96 0.72,-1.943 1.52,-3.819 2.362,-5.61 0.808,-1.803 1.647,-3.524 2.321,-5.202 0.68,-1.677 1.239,-3.292 1.771,-4.778 1.03,-2.985 1.797,-5.506 2.29,-7.287 C -0.031,1.112 0.187,0.07 0.187,0.07 Z"
             style="fill:#231f20;fill-opacity:1;fill-rule:nonzero;stroke:none"
             id="path266"
             inkscape:connector-curvature="0" /></g><g
           id="g268"
           transform="translate(414.394,331.8545)"><path
             d="m 0,0 c 0,0 -0.271,0.247 -0.632,0.726 -0.362,0.478 -0.831,1.179 -1.269,2.07 -0.213,0.448 -0.446,0.933 -0.608,1.477 -0.168,0.543 -0.238,1.158 -0.328,1.787 -0.09,0.628 -0.223,1.262 -0.483,1.857 -0.238,0.604 -0.572,1.182 -0.944,1.744 -0.365,0.566 -0.749,1.123 -1.031,1.71 -0.294,0.582 -0.58,1.156 -0.84,1.718 -0.541,1.116 -0.854,2.233 -1.095,3.201 -0.231,0.972 -0.357,1.808 -0.416,2.404 -0.061,0.596 -0.049,0.955 -0.049,0.955 l 0.186,0.073 c 0,0 0.252,-0.255 0.612,-0.735 0.363,-0.477 0.837,-1.176 1.328,-2.047 0.48,-0.874 1.009,-1.906 1.37,-3.092 0.19,-0.59 0.371,-1.205 0.55,-1.832 0.191,-0.622 0.289,-1.292 0.404,-1.955 C -3.136,9.395 -2.989,8.744 -2.753,8.14 -2.541,7.525 -2.207,6.97 -1.846,6.447 -1.485,5.925 -1.119,5.427 -0.874,4.914 -0.623,4.403 -0.465,3.89 -0.317,3.416 -0.034,2.465 0.098,1.632 0.157,1.035 0.217,0.438 0.186,0.072 0.187,0.072 Z"
             style="fill:#231f20;fill-opacity:1;fill-rule:nonzero;stroke:none"
             id="path270"
             inkscape:connector-curvature="0" /></g></g></g><g
       id="g272"
       transform="translate(394.3335,347)"><path
         d="M 0,0 6,-16 -35.954,-30.385 -40,-22 -47.333,-24.667 -50.667,-28 -52.928,-32.077 -56,-17.334 -41.333,-16 l -0.663,8.226 z"
         style="fill:#a83333;fill-opacity:1;fill-rule:nonzero;stroke:none"
         id="path274"
         inkscape:connector-curvature="0" /></g><g
       id="g276"
       transform="translate(558.334,398.333)"><path
         d="M 0,0 8.666,-30 -144,-71.333 l -10.132,29.049 z"
         style="fill:#ff4d4d;fill-opacity:1;fill-rule:nonzero;stroke:none"
         id="path278"
         inkscape:connector-curvature="0" /></g><g
       id="g280"
       transform="translate(601,371.666)"><path
         d="M 0,0 -18.666,-5.333 -31.333,38 l 20,2 z"
         style="fill:#ff8989;fill-opacity:1;fill-rule:nonzero;stroke:none"
         id="path282"
         inkscape:connector-curvature="0" /></g><g
       id="g284"
       transform="translate(537.667,393.666)"><path
         d="m 0,0 3.333,-6.666 -102.666,-28 -4,8.666 z"
         style="fill:#ff8989;fill-opacity:1;fill-rule:nonzero;stroke:none"
         id="path286"
         inkscape:connector-curvature="0" /></g><g
       id="g288"><g
         id="g290"
         clip-path="url(#clipPath294)"><g
           id="g296"
           transform="translate(345.8867,316.4365)"><path
             d="m 0,0 c -0.809,1.194 -1.476,2.421 -2.079,3.67 -0.337,0.667 -0.618,1.349 -0.916,2.026 -0.296,0.678 -0.558,1.366 -0.816,2.053 -0.507,1.379 -0.954,2.773 -1.287,4.198 -0.171,0.712 -0.296,1.436 -0.446,2.153 l -0.402,2.163 2.253,-1.302 c -0.826,-0.147 -1.652,-0.294 -2.495,-0.375 -0.84,-0.094 -1.695,-0.132 -2.542,-0.2 l 0.775,1.34 c 0.095,-1.489 0.276,-2.955 0.657,-4.367 0.186,-0.707 0.418,-1.402 0.706,-2.082 0.294,-0.678 0.628,-1.346 0.979,-2.009 0.708,-1.325 1.371,-2.662 1.738,-4.078 0.187,-0.707 0.341,-1.422 0.48,-2.142 0.138,-0.72 0.25,-1.447 0.339,-2.181 l -1.806,1.045 c 0.836,0.109 1.689,0.153 2.547,0.182 0.428,0.015 0.864,0 1.298,-0.006 C -0.679,0.069 -0.343,0.038 0,0 M 0.415,-0.413 C 0.058,-0.696 -0.311,-0.935 -0.679,-1.175 -1.053,-1.396 -1.423,-1.627 -1.802,-1.827 -2.56,-2.229 -3.322,-2.616 -4.101,-2.939 l -1.16,-0.482 -0.646,1.526 c -0.288,0.68 -0.554,1.367 -0.794,2.059 -0.238,0.693 -0.463,1.391 -0.652,2.097 -0.388,1.41 -0.481,2.899 -0.528,4.401 -0.027,0.749 -0.07,1.495 -0.154,2.23 -0.09,0.733 -0.235,1.451 -0.426,2.157 -0.375,1.414 -0.949,2.774 -1.609,4.111 l -0.39,0.79 1.165,0.551 c 0.768,0.363 1.527,0.757 2.302,1.095 0.772,0.35 1.561,0.634 2.35,0.92 l 1.591,0.576 0.662,-1.879 0.731,-2.075 c 0.227,-0.697 0.48,-1.386 0.686,-2.088 0.422,-1.402 0.731,-2.833 0.979,-4.28 C 0.126,8.044 0.241,7.318 0.323,6.583 0.402,5.847 0.499,5.116 0.54,4.369 0.647,2.885 0.695,1.383 0.557,-0.168 L 0.544,-0.311 Z"
             style="fill:#000000;fill-opacity:1;fill-rule:nonzero;stroke:none"
             id="path298"
             inkscape:connector-curvature="0" /></g><g
           id="g300"
           transform="translate(356.3667,322.5693)"><path
             d="m 0,0 c -0.5,0.732 -0.948,1.473 -1.353,2.23 -0.229,0.423 -0.452,0.848 -0.652,1.278 -0.206,0.43 -0.424,0.855 -0.604,1.291 -0.384,0.866 -0.758,1.734 -1.081,2.616 -0.334,0.879 -0.639,1.766 -0.912,2.661 L -1.99,8.565 C -3.798,8.009 -5.667,7.681 -7.532,7.334 -8.465,7.163 -9.396,6.988 -10.346,6.878 -11.291,6.754 -12.261,6.721 -13.218,6.641 l 0.775,1.339 c 0.074,-0.948 0.15,-1.895 0.318,-2.819 0.167,-0.924 0.388,-1.832 0.695,-2.719 0.593,-1.777 1.69,-3.421 2.431,-5.159 l -2.033,1.176 c 0.879,0.373 1.784,0.648 2.709,0.848 0.921,0.215 1.854,0.385 2.797,0.52 0.943,0.131 1.894,0.234 2.867,0.255 C -1.788,0.119 -0.908,0.101 0,0 M 0.408,-0.411 C -0.403,-1.036 -1.249,-1.534 -2.108,-1.981 -2.961,-2.447 -3.837,-2.834 -4.72,-3.19 -5.604,-3.543 -6.498,-3.862 -7.403,-4.134 -8.305,-4.423 -9.227,-4.635 -10.174,-4.75 l -1.866,-0.225 -0.167,1.401 c -0.225,1.877 -0.093,3.847 -0.466,5.684 -0.177,0.921 -0.438,1.82 -0.754,2.703 -0.315,0.884 -0.721,1.744 -1.131,2.602 l -0.381,0.799 1.156,0.542 c 0.869,0.408 1.726,0.863 2.608,1.227 0.877,0.377 1.772,0.691 2.666,1.008 1.789,0.63 3.572,1.278 5.418,1.697 l 2.152,0.49 0.46,-2 C -0.27,10.266 -0.091,9.345 0.058,8.416 0.217,7.49 0.326,6.552 0.425,5.61 0.486,5.142 0.51,4.664 0.546,4.189 0.586,3.717 0.604,3.237 0.617,2.757 0.647,1.797 0.644,0.827 0.55,-0.166 L 0.536,-0.312 Z"
             style="fill:#000000;fill-opacity:1;fill-rule:nonzero;stroke:none"
             id="path302"
             inkscape:connector-curvature="0" /></g><g
           id="g304"
           transform="translate(402.1758,328.5488)"><path
             d="m 0,0 c -1.426,3.579 -2.708,7.196 -3.955,10.823 -0.617,1.855 -1.256,3.702 -1.841,5.565 -0.597,1.859 -1.202,3.716 -1.762,5.586 l 2.265,-1.31 c -3.635,-1.121 -7.279,-2.21 -10.942,-3.225 -1.834,-0.5 -3.668,-0.996 -5.511,-1.463 l -5.535,-1.371 c -3.696,-0.894 -7.39,-1.792 -11.096,-2.645 -3.704,-0.863 -7.445,-1.588 -11.178,-2.341 l 0.775,1.34 c 0.384,-1.916 0.78,-3.829 1.2,-5.735 l 0.66,-2.852 c 0.214,-0.952 0.461,-1.895 0.703,-2.84 0.476,-1.891 0.985,-3.774 1.54,-5.644 0.574,-1.866 1.147,-3.732 1.783,-5.58 l -1.144,0.661 c 3.609,1.22 7.196,2.52 10.825,3.665 3.626,1.153 7.313,2.08 11.004,2.988 1.844,0.463 3.704,0.863 5.556,1.295 1.849,0.44 3.722,0.795 5.582,1.196 C -7.406,-1.166 -3.729,-0.483 0,0 m 0.322,-0.354 c -3.539,-1.477 -7.136,-2.739 -10.743,-3.966 -1.812,-0.579 -3.612,-1.206 -5.435,-1.747 -1.82,-0.549 -3.632,-1.131 -5.461,-1.649 -3.653,-1.054 -7.31,-2.09 -11.029,-2.898 -3.716,-0.818 -7.473,-1.481 -11.209,-2.222 l -0.978,-0.194 -0.166,0.855 c -0.371,1.92 -0.805,3.822 -1.237,5.726 -0.452,1.898 -0.95,3.783 -1.481,5.66 -0.262,0.939 -0.519,1.881 -0.807,2.812 l -0.851,2.801 c -0.587,1.863 -1.198,3.718 -1.821,5.57 l -0.327,0.971 1.102,0.369 c 3.612,1.21 7.216,2.448 10.856,3.547 3.639,1.109 7.288,2.173 10.937,3.241 l 5.481,1.574 c 1.83,0.513 3.668,0.999 5.507,1.479 3.681,0.948 7.382,1.822 11.091,2.663 l 1.858,0.421 0.407,-1.73 c 0.447,-1.9 0.848,-3.812 1.259,-5.72 0.422,-1.906 0.79,-3.827 1.18,-5.741 0.742,-3.84 1.455,-7.687 2.009,-11.576 l 0.025,-0.176 z"
             style="fill:#000000;fill-opacity:1;fill-rule:nonzero;stroke:none"
             id="path306"
             inkscape:connector-curvature="0" /></g><g
           id="g308"
           transform="translate(411.48,327.8516)"><path
             d="m 0,0 c -1.096,2.153 -2.031,4.351 -2.901,6.563 -0.465,1.144 -0.873,2.301 -1.298,3.455 -0.423,1.154 -0.795,2.321 -1.195,3.481 -0.766,2.329 -1.463,4.676 -2.051,7.053 -0.298,1.187 -0.55,2.386 -0.828,3.579 l -0.782,3.592 2.251,-1.302 c -1.364,-0.29 -2.728,-0.581 -4.11,-0.806 -1.378,-0.238 -2.771,-0.42 -4.156,-0.633 l 0.775,1.34 c 0.178,-1.218 0.374,-2.433 0.603,-3.638 0.234,-1.205 0.512,-2.398 0.818,-3.582 0.31,-1.185 0.672,-2.355 1.087,-3.51 0.421,-1.155 0.883,-2.298 1.361,-3.438 0.963,-2.276 1.879,-4.565 2.498,-6.932 0.315,-1.184 0.595,-2.375 0.861,-3.572 0.264,-1.196 0.506,-2.398 0.717,-3.608 l -1.801,1.042 2.073,0.338 c 0.692,0.106 1.392,0.184 2.088,0.278 0.698,0.086 1.404,0.144 2.107,0.21 C -1.259,-0.047 -0.632,-0.012 0,0 m 0.355,-0.374 c -0.626,-0.355 -1.264,-0.665 -1.901,-0.977 -0.643,-0.293 -1.284,-0.594 -1.932,-0.868 -0.649,-0.265 -1.295,-0.547 -1.948,-0.8 l -1.965,-0.741 -1.251,-0.471 -0.55,1.513 c -0.421,1.156 -0.811,2.318 -1.179,3.486 -0.366,1.169 -0.717,2.342 -1.034,3.524 -0.644,2.361 -0.992,4.803 -1.293,7.256 -0.154,1.225 -0.323,2.447 -0.534,3.657 -0.218,1.209 -0.487,2.403 -0.809,3.585 -0.326,1.179 -0.679,2.352 -1.077,3.513 -0.403,1.158 -0.84,2.308 -1.293,3.455 l -0.357,0.901 1.132,0.439 c 1.307,0.506 2.605,1.043 3.919,1.524 1.309,0.495 2.637,0.923 3.964,1.352 l 1.666,0.539 0.586,-1.841 1.113,-3.503 c 0.354,-1.172 0.733,-2.338 1.067,-3.516 0.676,-2.352 1.243,-4.735 1.74,-7.135 0.232,-1.205 0.492,-2.403 0.701,-3.614 0.207,-1.212 0.43,-2.419 0.598,-3.64 0.362,-2.437 0.663,-4.89 0.779,-7.393 l 0.007,-0.16 z"
             style="fill:#000000;fill-opacity:1;fill-rule:nonzero;stroke:none"
             id="path310"
             inkscape:connector-curvature="0" /></g><g
           id="g312"
           transform="translate(570.0781,367.2148)"><path
             d="m 0,0 c -1.736,5.521 -3.379,11.065 -5.063,16.6 -0.86,2.798 -1.666,5.611 -2.493,8.419 l -2.467,8.423 1.539,-0.889 -9.8,-2.871 -9.818,-2.805 -19.653,-5.541 -19.685,-5.422 C -74,14.099 -80.59,12.396 -87.163,10.631 l -39.534,-10.235 -19.8,-4.995 -19.836,-4.855 0.775,1.34 4.21,-17.043 2.168,-8.505 2.221,-8.491 -0.755,0.436 c 3.294,0.857 6.579,1.746 9.86,2.646 3.286,0.888 6.567,1.789 9.839,2.725 6.559,1.821 13.077,3.791 19.616,5.685 l 19.606,5.721 c 6.543,1.877 13.104,3.688 19.68,5.443 3.282,0.896 6.582,1.729 9.873,2.597 l 9.879,2.578 c 6.599,1.664 13.186,3.378 19.798,4.998 6.605,1.647 13.222,3.246 19.845,4.827 l 9.952,2.299 C -6.518,-1.437 -3.263,-0.705 0,0 m 0.306,-0.341 c -3.245,-1.038 -6.498,-2.048 -9.759,-3.026 l -9.774,-2.972 c -6.528,-1.932 -13.06,-3.848 -19.607,-5.714 -6.538,-1.893 -13.103,-3.693 -19.653,-5.544 l -9.848,-2.692 c -3.284,-0.89 -6.56,-1.814 -9.852,-2.674 -6.575,-1.759 -13.165,-3.461 -19.772,-5.098 l -19.847,-4.821 c -6.612,-1.619 -13.244,-3.163 -19.837,-4.856 -3.303,-0.821 -6.596,-1.677 -9.887,-2.545 -3.293,-0.858 -6.584,-1.725 -9.866,-2.625 l -0.591,-0.162 -0.163,0.598 -2.31,8.467 -2.363,8.453 -4.851,16.872 -0.296,1.031 1.071,0.31 19.615,5.686 19.653,5.546 39.369,10.847 c 6.578,1.749 13.139,3.56 19.73,5.258 l 19.766,5.119 19.798,5 9.908,2.466 9.926,2.399 1.252,0.303 0.288,-1.193 2.064,-8.532 c 0.683,-2.846 1.387,-5.686 2.039,-8.539 1.316,-5.706 2.677,-11.398 3.938,-17.117 l 0.041,-0.186 z"
             style="fill:#000000;fill-opacity:1;fill-rule:nonzero;stroke:none"
             id="path314"
             inkscape:connector-curvature="0" /></g><g
           id="g316"
           transform="translate(579.0303,366.917)"><path
             d="m 0,0 c -0.685,1.486 -1.294,2.993 -1.904,4.499 -0.618,1.586 -1.222,3.176 -1.792,4.774 -1.155,3.194 -2.208,6.414 -3.213,9.647 -1,3.234 -1.907,6.493 -2.688,9.787 -0.784,3.292 -1.544,6.591 -2.269,9.898 l 2.12,-1.225 c -2.722,-0.607 -5.485,-1.059 -8.239,-1.542 l 0.774,1.34 c 0.293,-1.672 0.597,-3.342 0.952,-4.998 0.191,-0.825 0.35,-1.658 0.566,-2.476 l 0.628,-2.458 c 0.43,-1.636 0.968,-3.243 1.512,-4.849 0.57,-1.598 1.176,-3.187 1.782,-4.776 0.605,-1.589 1.194,-3.183 1.714,-4.794 0.522,-1.612 0.969,-3.243 1.369,-4.887 0.416,-1.64 0.798,-3.289 1.145,-4.947 0.37,-1.652 0.689,-3.317 0.99,-4.988 l -1.566,0.906 c 0.684,0.137 1.38,0.231 2.07,0.347 0.692,0.111 1.382,0.223 2.08,0.31 C -2.656,-0.249 -1.335,-0.1 0,0 m 0.338,-0.361 c -1.276,-0.621 -2.57,-1.174 -3.872,-1.701 -0.648,-0.273 -1.303,-0.519 -1.957,-0.767 -0.656,-0.244 -1.306,-0.51 -1.968,-0.733 l -1.109,-0.375 -0.458,1.282 c -0.571,1.597 -1.125,3.201 -1.629,4.817 -0.527,1.609 -1.017,3.23 -1.475,4.859 -0.474,1.624 -0.899,3.26 -1.252,4.917 -0.351,1.657 -0.637,3.332 -0.905,5.011 -0.268,1.679 -0.533,3.36 -0.838,5.029 -0.329,1.663 -0.664,3.324 -1.106,4.957 l -0.683,2.444 c -0.221,0.816 -0.498,1.617 -0.744,2.427 -0.518,1.613 -1.088,3.211 -1.668,4.806 l -0.341,0.936 1.116,0.405 c 2.628,0.955 5.249,1.942 7.91,2.773 l 1.578,0.493 0.542,-1.719 c 1.022,-3.229 2.008,-6.468 2.97,-9.712 0.967,-3.243 1.807,-6.52 2.553,-9.823 0.742,-3.304 1.435,-6.62 2.027,-9.964 C -0.668,8.331 -0.398,6.652 -0.144,4.97 0.09,3.281 0.332,1.595 0.479,-0.116 l 0.015,-0.169 z"
             style="fill:#000000;fill-opacity:1;fill-rule:nonzero;stroke:none"
             id="path318"
             inkscape:connector-curvature="0" /></g><g
           id="g320"
           transform="translate(602.9492,368.1025)"><path
             d="m 0,0 c -0.747,1.917 -1.458,3.844 -2.144,5.777 -0.715,2.003 -1.402,4.014 -2.079,6.027 -0.664,2.016 -1.343,4.028 -1.973,6.053 -0.643,2.023 -1.287,4.044 -1.892,6.077 -1.243,4.055 -2.434,8.124 -3.558,12.212 -0.56,2.043 -1.098,4.093 -1.624,6.147 l -1.525,6.174 2.455,-1.42 c -3.794,-0.913 -7.581,-1.85 -11.384,-2.726 -1.9,-0.441 -3.809,-0.854 -5.72,-1.254 l -5.742,-1.18 0.776,1.34 c 0.427,-2.081 0.865,-4.157 1.329,-6.227 0.477,-2.065 0.954,-4.132 1.495,-6.182 0.517,-2.055 1.078,-4.099 1.676,-6.133 0.621,-2.028 1.242,-4.056 1.924,-6.068 l 2.048,-6.034 c 0.679,-2.012 1.348,-4.027 1.968,-6.056 1.243,-4.055 2.275,-8.167 3.279,-12.286 l -2.086,1.206 5.7,1.329 c 1.904,0.428 3.817,0.824 5.726,1.232 1.92,0.37 3.832,0.769 5.763,1.098 C -3.736,-0.554 -1.873,-0.259 0,0 m 0.323,-0.352 c -1.821,-0.74 -3.653,-1.437 -5.497,-2.091 -1.838,-0.678 -3.694,-1.286 -5.542,-1.922 -1.859,-0.599 -3.714,-1.21 -5.578,-1.788 l -5.603,-1.693 -1.596,-0.481 -0.491,1.688 c -1.184,4.072 -2.341,8.15 -3.287,12.285 -0.474,2.067 -0.899,4.147 -1.314,6.23 l -1.234,6.252 c -0.413,2.083 -0.886,4.15 -1.359,6.219 -0.497,2.06 -1.029,4.112 -1.607,6.151 -0.552,2.046 -1.17,4.075 -1.786,6.105 -0.632,2.025 -1.286,4.043 -1.954,6.058 l -0.325,0.978 1.1,0.363 5.564,1.839 c 1.857,0.607 3.717,1.201 5.584,1.766 3.734,1.137 7.484,2.214 11.227,3.315 l 1.887,0.555 0.568,-1.975 1.757,-6.112 c 0.569,-2.041 1.124,-4.087 1.659,-6.138 1.065,-4.103 2.061,-8.225 3.006,-12.359 0.489,-2.064 0.939,-4.137 1.391,-6.21 0.463,-2.07 0.878,-4.153 1.308,-6.232 0.417,-2.082 0.825,-4.167 1.203,-6.26 0.384,-2.09 0.744,-4.188 1.061,-6.297 l 0.026,-0.177 z"
             style="fill:#000000;fill-opacity:1;fill-rule:nonzero;stroke:none"
             id="path322"
             inkscape:connector-curvature="0" /></g><g
           id="g324"
           transform="translate(497.6382,345.0283)"><path
             d="M 0,0 -32,-71"
             style="fill:none;stroke:#231f20;stroke-width:6;stroke-linecap:round;stroke-linejoin:round;stroke-miterlimit:10;stroke-dasharray:none;stroke-opacity:1"
             id="path326"
             inkscape:connector-curvature="0" /></g><g
           id="g328"
           transform="translate(497.6382,345.0283)"><path
             d="M 0,0 37,-71"
             style="fill:none;stroke:#231f20;stroke-width:6;stroke-linecap:round;stroke-linejoin:round;stroke-miterlimit:10;stroke-dasharray:none;stroke-opacity:1"
             id="path330"
             inkscape:connector-curvature="0" /></g><g
           id="g332"
           transform="translate(509.2051,350.5342)"><path
             d="m 0,0 0.281,-7.597 -24.151,-6.687 -3.181,6.904 z"
             style="fill:#231f20;fill-opacity:1;fill-rule:nonzero;stroke:none"
             id="path334"
             inkscape:connector-curvature="0" /></g></g></g></g></svg>