<?xml version="1.0" encoding="UTF-8" standalone="no"?>
<!-- Created with Inkscape (http://www.inkscape.org/) -->

<svg
   xmlns:dc="http://purl.org/dc/elements/1.1/"
   xmlns:cc="http://creativecommons.org/ns#"
   xmlns:rdf="http://www.w3.org/1999/02/22-rdf-syntax-ns#"
   xmlns:svg="http://www.w3.org/2000/svg"
   xmlns="http://www.w3.org/2000/svg"
   xmlns:sodipodi="http://sodipodi.sourceforge.net/DTD/sodipodi-0.dtd"
   xmlns:inkscape="http://www.inkscape.org/namespaces/inkscape"
   version="1.1"
   id="svg2"
   xml:space="preserve"
   width="779.08014"
   height="542.87518"
   viewBox="0 0 779.08017 542.8752"
   sodipodi:docname="football.svg"
   inkscape:version="0.92.2 5c3e80d, 2017-08-06"><metadata
     id="metadata8"><rdf:RDF><cc:Work
         rdf:about=""><dc:format>image/svg+xml</dc:format><dc:type
           rdf:resource="http://purl.org/dc/dcmitype/StillImage" /><dc:title></dc:title></cc:Work></rdf:RDF></metadata><defs
     id="defs6"><clipPath
       clipPathUnits="userSpaceOnUse"
       id="clipPath18"><path
         d="M 0,1000 H 1000 V 0 H 0 Z"
         id="path16"
         inkscape:connector-curvature="0" /></clipPath><clipPath
       clipPathUnits="userSpaceOnUse"
       id="clipPath58"><path
         d="M 0,1000 H 1000 V 0 H 0 Z"
         id="path56"
         inkscape:connector-curvature="0" /></clipPath></defs><sodipodi:namedview
     pagecolor="#ffffff"
     bordercolor="#666666"
     borderopacity="1"
     objecttolerance="10"
     gridtolerance="10"
     guidetolerance="10"
     inkscape:pageopacity="0"
     inkscape:pageshadow="2"
     inkscape:window-width="1920"
     inkscape:window-height="1029"
     id="namedview4"
     showgrid="false"
     inkscape:zoom="0.58423832"
     inkscape:cx="347.59178"
     inkscape:cy="280.83819"
     inkscape:window-x="0"
     inkscape:window-y="24"
     inkscape:window-maximized="1"
     inkscape:current-layer="g10" /><g
     id="g10"
     inkscape:groupmode="layer"
     inkscape:label="football"
     transform="matrix(1.3333333,0,0,-1.3333333,-343.03767,981.76422)"><g
       id="g12"><g
         id="g14"
         clip-path="url(#clipPath18)"><g
           id="g20"
           transform="translate(425.667,567)"><path
             d="m 0,0 c 0,0 18.334,36.333 79.667,37 61.333,0.667 95.334,-56.667 99,-89 3.666,-32.333 1,-81.667 -57.667,-106.667 -58.667,-25 -123,-9 -144,56 C -44,-37.667 0,0 0,0"
             style="fill:#ffffff;fill-opacity:1;fill-rule:nonzero;stroke:none"
             id="path22"
             inkscape:connector-curvature="0" /></g><g
           id="g24"
           transform="translate(425,527)"><path
             d="M 0,0 27.333,32.667 60,30.667 71.333,-10 46,-41.334 l -31.333,4 z"
             style="fill:#9a9afc;fill-opacity:1;fill-rule:nonzero;stroke:none"
             id="path26"
             inkscape:connector-curvature="0" /></g><g
           id="g28"
           transform="translate(418.3335,523)"><path
             d="m 0,0 -12,6 c 0,0 -10.667,-26.001 -1.333,-55.334 C -4,-78.667 -2,-72 -2,-72 l 6,9.333 10,25.333 z"
             style="fill:#7575ff;fill-opacity:1;fill-rule:nonzero;stroke:none"
             id="path30"
             inkscape:connector-curvature="0" /></g><g
           id="g32"
           transform="translate(573.667,428.333)"><path
             d="M 0,0 -23.334,-12 -30.667,-12.667 -42,2.667 -14,38 12,35.333 C 12,35.333 2.667,2.667 0,0"
             style="fill:#7575ff;fill-opacity:1;fill-rule:nonzero;stroke:none"
             id="path34"
             inkscape:connector-curvature="0" /></g><g
           id="g36"
           transform="translate(561,548.333)"><path
             d="m 0,0 27.333,-4.667 v 8 C 27.333,3.333 -8,48 -28,48.667 l -4,-7.334 0.667,-16.666 z"
             style="fill:#7575ff;fill-opacity:1;fill-rule:nonzero;stroke:none"
             id="path38"
             inkscape:connector-curvature="0" /></g><g
           id="g40"
           transform="translate(640,523.0498)"><path
             style="fill:#424242;fill-opacity:1;fill-rule:nonzero;stroke:none"
             d="M 0,0 C 27.401447,0.32456945 54.818304,0.54393007 82.226391,0.20967188 96.296288,-0.41908548 63.872387,-0.67749004 58.207047,-0.54864062 38.830094,0.26644892 19.204794,-1.0792141 0,0 Z"
             id="path42"
             inkscape:connector-curvature="0" /></g><g
           id="g44"
           transform="translate(680.3838,502.0498)"><path
             style="fill:#424242;fill-opacity:1;fill-rule:nonzero;stroke:none"
             d="M 0,0 C 25.85896,0.51017903 51.741897,1.4388684 77.615,1 53.077947,-0.46148176 28.053326,0.38008567 3.339,-0.216 L 0.002,-0.1 Z"
             id="path46"
             inkscape:connector-curvature="0" /></g><g
           id="g48"
           transform="translate(644.001,468.0498)"><path
             style="fill:#424242;fill-opacity:1;fill-rule:nonzero;stroke:none"
             d="M 0,0 C 28.136565,0.09426852 56.282165,-0.1669835 84.42,-0.633125 89.93549,-0.7215132 97.630957,-1.2514715 86.894312,-1.2430938 58.273257,-1.2894276 29.651599,-0.72173583 1.04225,-0.153125 L -0.002,-0.1 Z"
             id="path50"
             inkscape:connector-curvature="0" /></g></g></g><g
       id="g52"><g
         id="g54"
         clip-path="url(#clipPath58)"><g
           id="g60"
           transform="translate(520.2959,604.5459)"><path
             style="fill:#424242;fill-opacity:1;fill-rule:nonzero;stroke:none"
             d="m 0,0 c -48.948385,9.6441739 -101.08046,-21.467895 -117.25791,-68.386615 -16.3082,-42.538795 -0.92223,-94.362975 35.989,-121.097505 36.471629,-28.24407 91.67496,-28.15962 127.571482,1.05884 39.047296,29.65273 51.501158,87.65422 29.10159,131.114442 C 61.113538,-27.725878 32.495425,-5.5447548 0,0 Z m 0.057,0.295 c 47.400308,-7.6432125 86.845339,-50.096273 88.879,-98.426 3.379201,-45.47657 -26.205828,-90.29323 -68.702234,-106.28278 -43.361635,-17.83334 -97.40543,-3.22346 -125.181006,34.74508 -29.23856,37.12044 -29.06897,93.665098 0.54437,130.51395 C -80.43962,-7.7951824 -38.584788,7.5862007 0.057,0.295 Z"
             id="path62"
             inkscape:connector-curvature="0" /></g><g
           id="g64"
           transform="translate(455.2598,424.4883)"><path
             d="m 0,0 c 0.616,-0.951 1.227,-1.897 1.813,-2.851 0.29,-0.479 0.652,-0.916 0.973,-1.374 l 0.988,-1.356 c 0.66,-0.901 1.396,-1.748 2.082,-2.624 0.675,-0.886 1.479,-1.672 2.208,-2.51 0.725,-0.843 1.556,-1.595 2.332,-2.389 0.391,-0.394 0.778,-0.792 1.193,-1.164 l 1.22,-1.136 c 0.798,-0.772 1.679,-1.457 2.507,-2.194 0.839,-0.726 1.721,-1.405 2.578,-2.108 l 5.579,-4.586 -6.898,2.129 c -1.45,0.448 -2.908,0.878 -4.353,1.347 l -4.279,1.572 c -1.412,0.564 -2.804,1.177 -4.195,1.792 -1.376,0.645 -2.729,1.341 -4.095,2.01 -1.344,0.71 -2.648,1.496 -3.971,2.24 -1.306,0.778 -2.575,1.615 -3.862,2.42 -1.269,0.834 -2.498,1.727 -3.747,2.588 -1.233,0.884 -2.414,1.84 -3.609,2.772 -1.174,0.959 -2.307,1.969 -3.46,2.948 -1.134,1.003 -2.196,2.088 -3.29,3.129 -1.065,1.075 -2.085,2.194 -3.131,3.28 -1.016,1.116 -1.996,2.264 -2.993,3.393 l -2.866,3.49 -2.766,3.566 -2.664,3.639 c -0.838,1.248 -1.715,2.472 -2.572,3.711 l -0.273,0.396 0.379,0.358 3.796,3.589 3.933,3.448 0.799,0.702 0.744,-0.974 c 0.524,-0.686 1,-1.387 1.566,-2.052 l 1.653,-2.013 c 0.551,-0.672 1.122,-1.331 1.702,-1.985 0.561,-0.669 1.132,-1.329 1.719,-1.977 1.165,-1.304 2.324,-2.619 3.518,-3.9 1.191,-1.285 2.414,-2.538 3.624,-3.807 l 1.855,-1.863 c 0.617,-0.624 1.26,-1.216 1.88,-1.836 0.621,-0.621 1.267,-1.211 1.91,-1.803 0.64,-0.6 1.286,-1.19 1.946,-1.764 0.651,-0.586 1.309,-1.164 1.993,-1.706 0.667,-0.567 1.337,-1.132 2.042,-1.645 L -3.445,2.111 -2.364,1.4 C -1.661,0.898 -0.842,0.509 -0.075,0.071 L -0.03,0.045 Z m -0.245,-0.187 c -0.818,0.299 -1.662,0.496 -2.446,0.925 l -1.23,0.59 -1.173,0.659 c -1.574,0.868 -3.062,1.873 -4.502,2.932 -0.733,0.516 -1.448,1.054 -2.138,1.619 -0.7,0.555 -1.403,1.108 -2.079,1.69 -1.385,1.129 -2.687,2.348 -4.007,3.549 -1.304,1.216 -2.576,2.466 -3.816,3.749 -0.632,0.63 -1.231,1.291 -1.846,1.937 -0.622,0.641 -1.209,1.313 -1.794,1.989 -1.183,1.338 -2.327,2.714 -3.393,4.161 -0.554,0.704 -1.072,1.445 -1.569,2.199 -0.518,0.732 -0.971,1.539 -1.453,2.306 l 1.542,-0.272 -4.171,-3.039 -4.06,-3.198 0.105,0.753 c 0.789,-1.26 1.549,-2.543 2.364,-3.791 0.868,-1.209 1.701,-2.446 2.599,-3.634 0.939,-1.158 1.848,-2.339 2.816,-3.47 0.999,-1.106 1.985,-2.223 3.022,-3.289 1.066,-1.041 2.113,-2.097 3.19,-3.119 1.111,-0.989 2.208,-1.99 3.335,-2.953 l 3.447,-2.807 c 1.18,-0.895 2.337,-1.816 3.533,-2.684 l 3.631,-2.541 c 1.242,-0.798 2.463,-1.627 3.721,-2.397 1.276,-0.74 2.533,-1.513 3.822,-2.227 l 3.912,-2.058 c 1.325,-0.642 2.638,-1.311 3.973,-1.932 l 4.042,-1.786 4.108,-1.634 c 1.395,-0.476 2.778,-0.99 4.169,-1.486 l -1.318,-2.456 c -0.853,0.771 -1.727,1.515 -2.558,2.308 -0.815,0.812 -1.664,1.583 -2.438,2.434 -0.775,0.849 -1.598,1.647 -2.32,2.545 -0.723,0.893 -1.496,1.738 -2.162,2.677 -0.671,0.932 -1.41,1.806 -2.019,2.781 -0.614,0.969 -1.304,1.882 -1.842,2.895 l -0.826,1.503 c -0.265,0.506 -0.569,0.988 -0.8,1.511 -0.474,1.018 -0.925,2.041 -1.371,3.061"
             style="fill:#424242;fill-opacity:1;fill-rule:nonzero;stroke:none"
             id="path66"
             inkscape:connector-curvature="0" /></g><g
           id="g68"
           transform="translate(486.2676,441.6201)"><path
             style="fill:#424242;fill-opacity:1;fill-rule:nonzero;stroke:none"
             d="M 0,0 C -6.7964018,11.608274 -10.990866,25.198607 -15.402,38.03 -9.1135335,52.540493 2.6187747,63.77009 14.649,73.643 28.470665,71.410077 42.829916,70.164088 56.184,66.502 63.379476,53.526217 70.976757,39.51424 71.799,24.526 63.535758,12.933899 55.152072,0.76232899 44.172,-8.25 29.020981,-9.6624519 14.004411,-5.3797686 0,0 Z M 0.108,0.28 C 13.925886,-5.1290433 29.067458,-7.5842353 43.846,-5.697 45.365794,-3.3602547 52.563201,3.1557627 55.737,7.137 60.741904,12.6234 66.621985,20.403692 70.6,24.893 69.992126,39.738137 62.488675,53.294199 54.686,65.568 52.443723,65.276918 44.651163,66.934582 40.187478,67.385934 31.75485,68.461911 23.311572,69.459954 14.88,70.548 15.889999,69.922448 7.8273271,64.252725 5.8650148,61.637794 -1.4240968,54.477498 -8.3155159,46.668565 -12.88,37.447 -11.322585,34.269883 -9.0442987,22.248083 -6.735,16.605875 -4.851445,11.226545 -2.7196499,4.7139967 0.108,0.28 Z"
             id="path70"
             inkscape:connector-curvature="0" /></g><g
           id="g72"
           transform="translate(472.1299,403.5937)"><path
             d="M 0,0 C -0.06,-0.003 -0.129,0.031 -0.182,0.088 L 0.207,0.385 0.32,0.666 0.423,0.903 C 0.485,1.038 0.545,1.159 0.595,1.245 0.7,1.435 0.785,1.545 0.837,1.553 0.888,1.557 0.892,1.417 0.899,1.297 0.904,1.242 0.903,1.169 0.884,1.05 L 0.813,0.659 0.337,-0.771 c 0.04,0.261 0.04,0.391 -0.036,0.267 -0.075,-0.119 -0.245,-0.553 -0.329,-0.701 -0.044,-0.08 -0.062,-0.077 -0.07,-0.036 -0.009,0.033 -0.011,0.09 -0.003,0.18 0.018,0.19 0.059,0.454 0.184,0.997 L 0.099,0.004 Z M 0.139,0.139 0.17,0.223 C 0.367,0.744 0.479,0.986 0.569,1.154 0.613,1.234 0.646,1.28 0.673,1.303 0.702,1.333 0.719,1.325 0.711,1.234 0.698,1.064 0.6,0.609 0.596,0.47 0.591,0.323 0.663,0.432 0.774,0.671 L 0.298,-0.759 0.118,-1.114 C 0.064,-1.222 0.026,-1.283 -0.004,-1.326 -0.07,-1.424 -0.139,-1.54 -0.16,-1.513 c -0.02,0.032 -0.007,0.165 0.026,0.378 l 0.064,0.376 0.108,0.554 0.388,0.296 C 0.376,0.142 0.31,0.168 0.254,0.158 Z"
             style="fill:#424242;fill-opacity:1;fill-rule:nonzero;stroke:none"
             id="path74"
             inkscape:connector-curvature="0" /></g><g
           id="g76"
           transform="translate(450.9282,561.999)"><path
             style="fill:#424242;fill-opacity:1;fill-rule:nonzero;stroke:none"
             d="M 0,0 C 6.641598,1.5465523 18.475926,-0.75662512 17.740316,-0.17703482 17.265722,0.14089507 27.651293,-1.751418 31.189,-3.305 37.373264,-4.3891038 41.733971,-7.5826179 41.671676,-14.138295 44.310128,-25.189552 47.004221,-36.22501 49.973,-47.193 38.112935,-56.944078 26.491356,-67.821136 19.446,-81.676 c -11.6240607,2.538108 -23.6461411,4.28642 -35.146,6.652 -8.028073,12.639703 -12.3279,27.930368 -13.263,42.612 C -20.638769,-20.487953 -10.73084,-9.7745747 0,0 Z m 0.111,-0.286 c -9.5074565,-10.750948 -18.865387,-21.677007 -26.91,-33.587 1.222997,-2.746448 2.369915,-14.948349 4.245,-20.419 1.225956,-6.502453 5.172561,-15.198023 7.445,-19.844 11.3613976,-2.323023 22.8150363,-4.160233 34.276,-5.914 1.888299,8.931571 15.008995,23.077768 23.790125,30.865 9.418076,1.761876 -2.141053,14.307734 -1.651909,23.151658 -1.360066,5.939188 -2.64289,11.8953 -3.903216,17.856342 -1.192295,-0.607324 -10.498635,4.6193025 -15.157,5.299 -7.757364,0.8198289 -3.836985,3.40936991 -6.427227,1.5674878 C 10.660818,-0.35033023 5.3512113,0.48608876 0.111,-0.286 Z"
             id="path78"
             inkscape:connector-curvature="0" /></g><g
           id="g80"
           transform="translate(529.8291,432.0078)"><path
             style="fill:#424242;fill-opacity:1;fill-rule:nonzero;stroke:none"
             d="m 0,0 c 3.0616838,-6.782578 6.4671687,-14.163574 13.17,-18.067 -8.2131587,-6.751804 -16.6996054,-15.216267 -28.003,-15.503 -12.141223,-1.508114 -24.654354,-0.751305 -36.447,2.443 -8.578571,6.309733 -15.911724,14.367463 -21.045,23.721 10.350277,2.9084424 19.669343,8.9184604 27.562,16.124 C -30.504565,3.3119215 -15.351116,-0.51987811 0,0 Z m -0.2,-0.314 c -15.13534,-2.4256013 -30.645917,0.78647984 -44.757,6.317 1.167042,-1.503966 -9.786192,-7.4072886 -13.67125,-9.2575 -5.743768,-4.2103504 -18.70228,-2.6198452 -8.555031,-10.483933 4.607824,-6.154735 12.019918,-12.626816 17.643772,-15.495328 13.939074,-2.824405 28.400487,-2.631798 42.332509,0.133761 2.4810397,1.470643 8.5225697,4.775113 11.9802876,7.358657 C 8.722072,-16.79129 13.663144,-20.113308 7.589,-16.19 3.7177696,-11.639096 1.5210492,-5.9599898 -0.2,-0.314 Z"
             id="path82"
             inkscape:connector-curvature="0" /></g><g
           id="g84"
           transform="translate(414.9385,448.79)"><path
             d="M 0,0 -0.162,-0.049 -0.565,-0.196 C -0.711,-0.255 -0.871,-0.323 -1,-0.386 -1.114,-0.442 -1.211,-0.497 -1.248,-0.527 -1.33,-0.591 -1.362,-0.641 -1.34,-0.661 -1.314,-0.68 -1.246,-0.678 -1.054,-0.59 L 0.932,1.138 0.408,0.479 0.125,0.122 0.532,0.276 1.23,0.54 C 1.352,0.583 1.398,0.596 1.377,0.581 1.365,0.569 1.111,0.46 0.798,0.326 0.487,0.194 0.256,0.094 0.283,0.099 Z m 0.005,-0.015 c 0.021,0.016 -0.216,-0.074 -0.532,-0.196 -0.319,-0.123 -0.579,-0.223 -0.597,-0.224 -0.027,-0.003 0.013,0.019 0.129,0.073 l 0.681,0.295 0.124,-0.203 -0.529,-0.655 1.986,1.727 C 1.465,0.88 1.54,0.871 1.572,0.842 1.6,0.811 1.575,0.75 1.499,0.675 1.465,0.64 1.371,0.58 1.26,0.519 1.134,0.45 0.978,0.376 0.835,0.312 L 0.44,0.148 C 0.345,0.11 0.292,0.09 0.288,0.084 Z"
             style="fill:#424242;fill-opacity:1;fill-rule:nonzero;stroke:none"
             id="path86"
             inkscape:connector-curvature="0" /></g><g
           id="g88"
           transform="translate(433.1821,486.3457)"><path
             style="fill:#424242;fill-opacity:1;fill-rule:nonzero;stroke:none"
             d="m 0,0 c -5.0736974,-9.5156585 -9.5228058,-20.187075 -8.367,-31.194 -6.130799,-6.646463 -12.605863,-12.925406 -15.046625,0.221125 C -35.678975,-6.7055249 -34.834086,21.884034 -27.295,47.428 -22.244235,45.340518 -16.923282,44.054269 -11.598,42.889 -9.6398573,28.191109 -6.6381365,13.31324 0,0 Z m -0.308,0.08 c -8.4752594,12.168554 -11.91441,27.089679 -13.773,41.586 -0.05169,-1.912035 -9.325735,2.209078 -12.995,3.87 1.541613,-2.912536 -4.88765,-15.028685 -3.972368,-21.284673 -1.775146,-21.1347594 3.727415,-42.603361 14.257368,-60.909327 -6.158153,1.766631 9.3697883,5.584901 5.519,8.083 0.217623,10.449104 5.0471557,20.2718515 10.964,28.655 z"
             id="path90"
             inkscape:connector-curvature="0" /></g><g
           id="g92"
           transform="translate(589.3955,550.3975)"><path
             d="M 0,0 0.727,0.294 C 0.888,0.355 1.015,0.397 1.126,0.43 1.354,0.5 1.495,0.521 1.567,0.504 1.635,0.485 1.556,0.385 1.479,0.287 1.44,0.237 1.415,0.195 1.329,0.12 1.261,0.054 1.13,-0.046 1.031,-0.128 l -1.446,-0.788 c 0.221,0.177 0.341,0.297 0.227,0.292 -0.096,0.006 -0.54,-0.171 -0.748,-0.221 -0.205,-0.049 -0.126,0.051 -0.025,0.16 0.06,0.06 0.144,0.131 0.277,0.228 l 0.216,0.152 0.297,0.192 -0.02,0.096 z M 0.008,0.002 0.169,-0.012 0.229,-0.017 0.208,0.079 0.542,0.207 0.794,0.296 C 0.952,0.35 1.06,0.379 1.144,0.396 1.293,0.421 1.421,0.436 1.264,0.303 1.104,0.167 0.709,-0.093 0.662,-0.173 0.596,-0.262 0.765,-0.227 1.034,-0.135 l -1.446,-0.787 c -0.123,-0.04 -0.277,-0.097 -0.371,-0.12 -0.11,-0.033 -0.159,-0.032 -0.223,-0.039 -0.125,-0.012 -0.253,-0.027 -0.233,0.04 0.023,0.069 0.116,0.175 0.297,0.331 0.086,0.076 0.188,0.16 0.326,0.264 l 0.504,0.362 z"
             style="fill:#424242;fill-opacity:1;fill-rule:nonzero;stroke:none"
             id="path94"
             inkscape:connector-curvature="0" /></g><g
           id="g96"
           transform="translate(527.749,571.9512)"><path
             d="m 0,0 c -0.304,1.907 -0.574,3.807 -0.841,5.701 -0.054,0.475 -0.172,0.944 -0.263,1.414 l -0.289,1.41 c -0.198,0.938 -0.371,1.88 -0.551,2.819 -0.16,0.943 -0.406,1.871 -0.623,2.802 l -0.665,2.791 c -0.205,0.935 -0.482,1.849 -0.739,2.767 l -0.759,2.754 -0.318,1.15 1.287,0.311 c 1.168,0.283 2.332,0.554 3.491,0.836 l 3.448,1.175 0.432,0.148 0.416,-0.129 4.601,-1.421 c 1.517,-0.528 3.019,-1.095 4.525,-1.658 1.487,-0.608 2.956,-1.261 4.436,-1.89 1.461,-0.67 2.896,-1.396 4.333,-2.118 1.42,-0.753 2.807,-1.57 4.211,-2.352 1.389,-0.811 2.724,-1.709 4.079,-2.574 1.334,-0.895 2.624,-1.857 3.936,-2.782 1.29,-0.957 2.533,-1.977 3.799,-2.962 1.241,-1.018 2.435,-2.093 3.653,-3.136 1.193,-1.072 2.324,-2.213 3.479,-3.323 1.123,-1.144 2.202,-2.33 3.304,-3.491 1.067,-1.194 2.087,-2.429 3.112,-3.657 l 2.911,-3.811 2.737,-3.928 2.551,-4.043 2.402,-4.127 0.079,-0.136 -0.016,-0.156 -0.502,-5.11 c -0.171,-1.702 -0.293,-3.408 -0.441,-5.112 l -0.057,-0.648 -0.627,0.257 -1.693,0.692 c -0.57,0.214 -1.12,0.478 -1.71,0.644 -1.17,0.347 -2.304,0.799 -3.504,1.042 l -1.78,0.418 c -0.589,0.153 -1.191,0.257 -1.792,0.357 l -1.8,0.313 c -0.596,0.118 -1.203,0.181 -1.809,0.253 -1.212,0.132 -2.411,0.327 -3.63,0.383 -1.217,0.066 -2.423,0.209 -3.643,0.214 l -1.825,0.051 c -0.608,0.017 -1.213,0.066 -1.823,0.05 -1.217,-0.005 -2.433,-0.018 -3.649,0.004 l -0.645,0.012 -0.432,0.524 c -0.524,0.637 -1.017,1.284 -1.6,1.906 -0.554,0.63 -1.134,1.25 -1.718,1.871 -1.163,1.244 -2.373,2.459 -3.604,3.653 -1.228,1.197 -2.475,2.382 -3.728,3.559 -1.25,1.181 -2.538,2.323 -3.81,3.482 -1.284,1.146 -2.568,2.294 -3.882,3.405 -1.307,1.121 -2.613,2.245 -3.959,3.315 -1.336,1.085 -2.675,2.169 -4.069,3.172 -0.695,0.513 -1.395,1.006 -2.115,1.453 -0.693,0.496 -1.473,0.898 -2.225,1.327 l -0.072,0.042 z m 0.296,0.111 c 0.78,-0.308 1.568,-0.577 2.324,-0.978 0.799,-0.383 1.566,-0.808 2.318,-1.247 0.769,-0.421 1.503,-0.889 2.247,-1.347 0.748,-0.454 1.476,-0.931 2.195,-1.425 0.726,-0.484 1.438,-0.986 2.144,-1.495 0.709,-0.507 1.426,-1.004 2.113,-1.538 1.395,-1.043 2.76,-2.123 4.128,-3.203 1.348,-1.1 2.684,-2.218 4.001,-3.359 1.319,-1.138 2.629,-2.289 3.891,-3.495 1.277,-1.191 2.531,-2.407 3.757,-3.67 0.619,-0.623 1.222,-1.266 1.801,-1.944 0.597,-0.647 1.153,-1.379 1.72,-2.085 l -1.078,0.535 c 1.249,-0.015 2.499,-0.065 3.747,-0.108 0.624,-0.008 1.248,-0.083 1.871,-0.124 l 1.867,-0.168 c 1.245,-0.095 2.48,-0.329 3.719,-0.487 1.239,-0.148 2.462,-0.436 3.689,-0.66 0.613,-0.119 1.227,-0.23 1.831,-0.396 l 1.817,-0.458 c 0.607,-0.148 1.211,-0.3 1.804,-0.501 l 1.786,-0.563 c 0.599,-0.172 1.183,-0.395 1.767,-0.616 l 1.754,-0.649 c 0.591,-0.196 1.146,-0.491 1.719,-0.736 l 1.711,-0.752 -0.683,-0.391 c 0.162,1.703 0.352,3.404 0.492,5.109 l 0.424,5.115 0.063,-0.293 c -0.845,1.33 -1.668,2.673 -2.53,3.988 l -2.754,3.833 c -0.977,1.232 -1.937,2.476 -2.931,3.69 l -3.108,3.534 -3.242,3.399 c -1.128,1.086 -2.232,2.194 -3.376,3.258 L 39.785,2.99 c -1.212,0.984 -2.398,1.999 -3.63,2.957 -1.257,0.925 -2.487,1.884 -3.762,2.781 -1.299,0.864 -2.573,1.764 -3.888,2.598 l -3.991,2.43 c -1.364,0.753 -2.708,1.54 -4.086,2.265 l -4.173,2.101 c -1.421,0.639 -2.832,1.302 -4.261,1.923 L 7.651,21.786 3.235,23.343 4.084,23.362 0.393,22.298 C -0.885,22.055 -2.165,21.83 -3.438,21.601 l 0.969,1.461 0.597,-2.857 c 0.19,-0.954 0.401,-1.903 0.537,-2.864 l 0.458,-2.871 c 0.148,-0.958 0.324,-1.909 0.415,-2.876 0.108,-0.963 0.224,-1.925 0.314,-2.889 L -0.006,7.261 C 0.037,6.779 0.105,6.301 0.11,5.814 0.186,3.907 0.256,2.006 0.296,0.111"
             style="fill:#424242;fill-opacity:1;fill-rule:nonzero;stroke:none"
             id="path98"
             inkscape:connector-curvature="0" /></g><g
           id="g100"
           transform="translate(451.042,564.6187)"><path
             style="fill:#424242;fill-opacity:1;fill-rule:nonzero;stroke:none"
             d="M 0,0 C -0.45575503,7.1435209 -2.8476967,16.519557 0.13999277,22.938485 18.277255,33.580013 40.000842,38.625961 60.86,36.269 70.081575,34.151159 74.13463,26.038936 73.938,16.283 80.935667,0.83889593 58.020134,4.7607464 50.538875,-3.1884375 42.368314,-12.087721 34.416518,-6.9877902 25.122,-3.693 16.786977,-1.639567 8.4782266,-0.13852869 0.17,-0.121 L 0.007,-0.045 Z M 0.261,0.285 C 7.4738888,2.2664002 15.630932,1.2914346 23.176761,-0.69949767 27.21076,-1.7981432 38.938306,-5.1929415 39.153,-7.101 48.875523,-0.69414952 66.372551,6.2011022 73.269342,8.1545064 70.864212,16.812557 74.52369,29.791895 64.997,32.658 60.941344,36.71646 57.187621,35.44243 51.707593,35.875856 33.727933,36.437945 14.688696,30.695033 -0.207,22.265 -1.045502,14.966477 -0.90161527,7.5386115 0.261,0.285 Z"
             id="path102"
             inkscape:connector-curvature="0" /></g><g
           id="g104"
           transform="translate(603.8516,517.481)"><path
             style="fill:#424242;fill-opacity:1;fill-rule:nonzero;stroke:none"
             d="m 0,0 c -2.1124245,9.4670786 -13.601063,14.223901 -17.286,19.209 -8.231085,3.813921 -17.400023,4.874387 -26.38,4.996 1.640626,-4.418185 -6.334953,-20.8614029 -11.034625,-27.675875 -10.914232,-8.197579 7.893973,-17.943881 8.04125,-30.0745 3.081603,-10.461443 0.989068,-18.502163 13.39048,-18.224451 6.906953,-1.58316 14.387478,-2.977965 20.911895,-4.361174 -10.51728,1.452272 -22.002446,3.266611 -31.825,5.99 -0.246872,15.478409 -11.65786,29.79305 -15.618872,42.6427991 C -52.094106,2.3720418 -46.997939,14.161243 -44.547,26.414 -33.863551,26.130436 -21.674346,25.870972 -13.05,19.043 -9.2451496,12.524839 3.2978451,8.5580504 0,0 Z"
             id="path106"
             inkscape:connector-curvature="0" /></g></g></g></g></svg>