<?xml version="1.0" encoding="UTF-8" standalone="no"?>
<!-- Created with Inkscape (http://www.inkscape.org/) -->

<svg
   xmlns:dc="http://purl.org/dc/elements/1.1/"
   xmlns:cc="http://creativecommons.org/ns#"
   xmlns:rdf="http://www.w3.org/1999/02/22-rdf-syntax-ns#"
   xmlns:svg="http://www.w3.org/2000/svg"
   xmlns="http://www.w3.org/2000/svg"
   xmlns:sodipodi="http://sodipodi.sourceforge.net/DTD/sodipodi-0.dtd"
   xmlns:inkscape="http://www.inkscape.org/namespaces/inkscape"
   version="1.1"
   id="svg2"
   xml:space="preserve"
   width="611.34839"
   height="307.73212"
   viewBox="0 0 611.34841 307.73212"
   sodipodi:docname="glasses.svg"
   inkscape:version="0.92.2 5c3e80d, 2017-08-06"><metadata
     id="metadata8"><rdf:RDF><cc:Work
         rdf:about=""><dc:format>image/svg+xml</dc:format><dc:type
           rdf:resource="http://purl.org/dc/dcmitype/StillImage" /><dc:title></dc:title></cc:Work></rdf:RDF></metadata><defs
     id="defs6"><clipPath
       clipPathUnits="userSpaceOnUse"
       id="clipPath18"><path
         d="M 0,600 H 1000 V 0 H 0 Z"
         id="path16"
         inkscape:connector-curvature="0" /></clipPath><clipPath
       clipPathUnits="userSpaceOnUse"
       id="clipPath66"><path
         d="M 0,600 H 1000 V 0 H 0 Z"
         id="path64"
         inkscape:connector-curvature="0" /></clipPath><clipPath
       clipPathUnits="userSpaceOnUse"
       id="clipPath86"><path
         d="M 0,600 H 1000 V 0 H 0 Z"
         id="path84"
         inkscape:connector-curvature="0" /></clipPath></defs><sodipodi:namedview
     pagecolor="#ffffff"
     bordercolor="#666666"
     borderopacity="1"
     objecttolerance="10"
     gridtolerance="10"
     guidetolerance="10"
     inkscape:pageopacity="0"
     inkscape:pageshadow="2"
     inkscape:window-width="1920"
     inkscape:window-height="1029"
     id="namedview4"
     showgrid="false"
     inkscape:zoom="0.945272"
     inkscape:cx="320.80646"
     inkscape:cy="96.400453"
     inkscape:window-x="0"
     inkscape:window-y="24"
     inkscape:window-maximized="1"
     inkscape:current-layer="g10" /><g
     id="g10"
     inkscape:groupmode="layer"
     inkscape:label="glasses"
     transform="matrix(1.3333333,0,0,-1.3333333,-195.76875,557.4536)"><g
       id="g20"
       transform="translate(375.5,331.5)"><path
         d="m 0,0 c 0,0 -46.5,12.5 -72.5,-2 0,0 -5,-8 -15,-7.5 -10,0.5 -14,6 -14,6 0,0 -9.5,15.5 -76,3.5 0,0 -5.5,-1.5 -5.5,-5.5 0,-4 5,-4.5 5,-4.5 0,0 4.5,-8.5 4.5,-12 0,-3.5 10,-33 20,-33 10,0 38,-6.5 46.5,10 8.5,16.5 11.5,34.5 24.5,24 0,0 7.5,-11 11,-23 3.5,-12 32,-19 55,-6 0,0 6.5,13 13,35.5 0,0 2,4.5 5.5,4.5 3.5,0 2.5,7.5 2.5,7.5 l -15,-4 c 0,0 8,-6 -12,-43 0,0 -35.5,-9.5 -43.5,7.5 -8,17 -13,32.5 -17.5,27 -4.5,-5.5 -16.5,13.5 -21.5,-7 -5,-20.5 -8.5,-27.5 -24.5,-26.5 -16,1 -28,-10.5 -33.5,14 -5.5,24.5 -10,29.5 -1.5,31.5 8.5,2 52.5,3 58.5,-6 6,-9 4.5,-12.5 11.5,-6.5 7,6 19.5,-3.5 19.5,-3.5 0,0 -9.75,10.5 14,16.5 23.75,6 54.25,4 52.75,-12.75 -1.5,-16.75 4.75,5.5 9.75,8.5 5,3 3,6.5 -1.5,6.75"
         style="fill:#77ecca;fill-opacity:1;fill-rule:nonzero;stroke:none"
         id="path22"
         inkscape:connector-curvature="0" /></g><g
       id="g24"
       transform="translate(365,325)"><path
         d="m 0,0 c 0,0 -54,8.5 -63.5,-6 -9.5,-14.5 9.5,-36 17.5,-36 8,0 38.5,-7.5 40.5,11 2,18.5 5.5,31 5.5,31"
         style="fill:#fff69c;fill-opacity:1;fill-rule:nonzero;stroke:none"
         id="path26"
         inkscape:connector-curvature="0" /></g><g
       id="g28"
       transform="translate(272,319)"><path
         d="m 0,0 c 0,0 -1.5,7.5 -27.5,10 -26,2.5 -43,0 -36,-19 7,-19 10,-29.5 16,-28.5 6,1 30.5,-4 37,5 C -4,-23.5 0,0 0,0"
         style="fill:#fff69c;fill-opacity:1;fill-rule:nonzero;stroke:none"
         id="path30"
         inkscape:connector-curvature="0" /></g><g
       id="g32"
       transform="translate(568.667,320)"><path
         d="M 0,0 C 0,0 -11.001,8.333 -26.334,7.667 -41.667,7 -55.666,4 -64,-2.667 -64,-2.667 -76.001,0 -79.334,-3 c 0,0 -34,21.333 -62,4.667 0,0 -4.667,-1.667 -6,-1.667 0,0 -2,-1.333 -2.333,-4.333 -0.333,-3 3.333,-1.334 3.333,-1.334 0,0 2,-1 1.667,-3 -0.333,-2 -5.001,-34.667 20.333,-38.667 0,0 28.334,-9.667 42.667,25 0,0 2.001,16.001 9.667,14.334 7.666,-1.667 9,-11 9,-11 0,0 6,-35.667 39,-28.667 0,0 25.667,-4.666 25,38.667 0,0 0.332,3.333 3.666,3.667 3.334,0.333 0,5.666 0,5.666 l -7.666,-4 c 0,0 6.334,-13.667 -2,-31 -8.334,-17.333 -40.333,-16.667 -51,1.333 0,0 -8.334,18.667 -5.667,25.334 0,0 -15.667,7.333 -21,-2 0,0 -0.333,-43.333 -37,-36 0,0 -24.666,-1.334 -23.333,35.333 0,0 2.999,19.333 26.666,16 0,0 29.333,0.333 35,-18 0,0 9.334,12 17.667,2.334 0,0 -0.666,1.666 7.667,8 C -47.667,4 -9.333,12 -1,-6.667 c 0,0 10.334,5.334 1,6.667"
         style="fill:#fff69c;fill-opacity:1;fill-rule:nonzero;stroke:none"
         id="path34"
         inkscape:connector-curvature="0" /></g><g
       id="g36"
       transform="translate(425.667,309.333)"><path
         d="m 0,0 c 0,0 0.833,15.667 28.333,14.667 27.5,-1 34,-11 31,-23 -3,-12 -6,-24.5 -32.5,-27.5 C 0.333,-38.833 -0.333,-4.167 0,0"
         style="fill:#a4f3dd;fill-opacity:1;fill-rule:nonzero;stroke:none"
         id="path38"
         inkscape:connector-curvature="0" /></g><g
       id="g40"
       transform="translate(507,305)"><path
         d="M 0,0 C 0,0 -1.5,18 32,21 32,21 64,22.5 60.5,-2 57,-26.5 50,-26.5 40,-31.5 30,-36.5 -0.5,-27.5 0,0"
         style="fill:#a4f3dd;fill-opacity:1;fill-rule:nonzero;stroke:none"
         id="path42"
         inkscape:connector-curvature="0" /></g><g
       id="g44"
       transform="translate(565.333,307.3335)"><path
         d="M 0,0 C 0,0 -4.334,13.667 -17,13.667 -17,13.667 -4.334,10 0,0"
         style="fill:#ffffff;fill-opacity:1;fill-rule:nonzero;stroke:none"
         id="path46"
         inkscape:connector-curvature="0" /></g><g
       id="g48"
       transform="translate(483.833,306.0835)"><path
         d="M 0,0 C 0,0 -4.334,13.667 -17,13.667 -17,13.667 -4.334,10 0,0"
         style="fill:#ffffff;fill-opacity:1;fill-rule:nonzero;stroke:none"
         id="path50"
         inkscape:connector-curvature="0" /></g><g
       id="g52"
       transform="translate(349,324.5)"><path
         d="m 0,0 c 0,0 12,-5.5 10,-18 0,0 0.5,10 -10,18"
         style="fill:#ffffff;fill-opacity:1;fill-rule:nonzero;stroke:none"
         id="path54"
         inkscape:connector-curvature="0" /></g><g
       id="g56"
       transform="translate(267,305.5)"><path
         d="M 0,0 C 0,0 6.5,15.5 -9.5,18.5 -9.5,18.5 2,15.5 0,0"
         style="fill:#ffffff;fill-opacity:1;fill-rule:nonzero;stroke:none"
         id="path58"
         inkscape:connector-curvature="0" /></g><g
       clip-path="url(#clipPath66)"
       id="g62"><g
         transform="translate(379.854,328.2363)"
         id="g68"><path
           inkscape:connector-curvature="0"
           id="path70"
           d="m 0,0 c 2.517214,-7.8377743 -7.5784858,-5.4003434 -7.66,-12.369 -4.169367,-11.123245 -6.038611,-23.244441 -12.078154,-33.586605 -5.256444,-8.069744 -15.993911,-7.89984 -24.547529,-8.385193 -9.269706,0.217667 -19.603489,0.0093 -27.457046,5.633402 -9.115909,8.170094 -8.128441,22.580294 -17.098115,30.760412 -4.951969,3.799177 -11.927306,0.442729 -14.109496,-4.866159 -5.28395,-9.191784 -5.97851,-22.026532 -16.00366,-27.751857 -11.79071,-4.62779 -25.04055,-4.373597 -37.39,-2.463 -10.29184,0.915896 -14.84593,11.30075 -17.29784,19.973859 -3.14956,8.486773 -4.66649,17.73075 -9.02416,25.677141 -7.56855,-0.9277817 -7.51699,13.2204272 0.65988,11.3325156 21.79256,6.4485794 45.2677,7.1487184 67.41865,2.1898008 7.46091,-0.7646959 11.59012,-7.6938327 17.92547,-10.2753164 4.400454,-0.9030438 9.118452,0.4534246 11.82025,4.237 9.163738,7.8234979 21.977721,7.854438 33.367395,8.9186536 C -35.28453,10.098934 -19.080418,7.6457306 -3.515,3.288 -1.4746533,3.148087 0.54654491,2.5260715 0,0 Z M -0.199,0 C -2.0496015,5.3189597 -11.558282,3.6907739 -16.47375,6.077 -35.209714,9.7162488 -54.818511,9.0570512 -73.316084,4.4215146 -81.059231,3.5714603 -84.661166,-4.8010031 -91.941,-6.049 c -4.729872,-0.7383312 -9.51578,1.1814474 -12.35078,5.12340625 C -113.3403,6.4757216 -125.78115,6.5737543 -136.854,7.895 c -15.61909,1.2877426 -31.36121,-0.5286858 -46.39825,-4.866 -6.7624,0.9316564 -5.27276,-11.2834531 1.02125,-9.9 4.59008,-7.947479 6.10144,-17.356373 9.48015,-25.880977 2.5178,-7.646348 5.98529,-17.368597 15.26557,-18.672632 12.44177,-2.10483 25.82297,-2.119443 37.71328,2.500609 9.46429,5.785239 9.84898,18.257783 15.03803,27.111412 2.6684,6.438616 11.227194,10.165661 17.124892,5.574885 9.999582,-8.342812 8.079415,-24.637976 18.984078,-32.231297 10.844335,-4.813066 23.243683,-4.661967 34.851607,-3.534555 6.356663,0.302488 12.500403,3.71915 15.036752,9.742055 5.454942,11.139425 7.587589,23.632899 12.906766,34.7875 C -1.6495173,-6.0999217 0.71421879,-5.5670297 -0.199,0 Z"
           style="fill:#404041;fill-opacity:1;fill-rule:nonzero;stroke:none" /></g><g
         transform="translate(267.7529,301.2646)"
         id="g72"><path
           inkscape:connector-curvature="0"
           id="path74"
           style="fill:#404041;fill-opacity:1;fill-rule:nonzero;stroke:none"
           d="m 0,0 c 0,0 0.263,0.694 0.756,1.996 0.48,1.305 1.181,3.226 1.867,5.728 0.343,1.25 0.693,2.643 0.939,4.18 0.237,1.529 0.458,3.216 0.295,4.953 -0.044,0.435 -0.101,0.87 -0.21,1.263 -0.032,0.197 -0.105,0.411 -0.2,0.636 l -0.13,0.333 -0.032,0.084 c -0.019,0.048 0.009,-0.018 -0.002,0 l -0.02,0.034 -0.079,0.133 c -0.416,0.716 -1.117,1.341 -1.911,1.875 -1.608,1.067 -3.567,1.842 -5.63,2.539 -4.16,1.342 -8.856,2.316 -13.861,2.965 -2.506,0.309 -5.091,0.535 -7.734,0.659 -2.621,0.122 -5.354,0.042 -8.137,0.014 -5.542,-0.111 -11.303,-0.257 -16.953,-1.267 -1.403,-0.267 -2.807,-0.581 -4.128,-1.067 -0.67,-0.215 -1.313,-0.523 -1.911,-0.824 -0.283,-0.172 -0.564,-0.304 -0.856,-0.504 l -0.44,-0.336 -0.221,-0.169 -0.11,-0.084 c 0,0.001 -0.079,-0.063 -0.013,-0.009 l -0.041,-0.044 c -0.961,-0.867 -1.535,-2.102 -1.745,-3.473 -0.216,-1.372 -0.126,-2.831 0.056,-4.273 0.844,-5.8 2.813,-11.48 4.551,-17.044 0.914,-2.774 1.875,-5.511 3.012,-8.128 0.573,-1.305 1.169,-2.591 1.869,-3.794 0.709,-1.202 1.455,-2.342 2.48,-3.136 1.013,-0.785 2.266,-1.255 3.536,-1.58 1.278,-0.318 2.589,-0.514 3.902,-0.62 2.625,-0.215 5.231,-0.228 7.777,-0.24 5.119,-0.027 9.917,-0.195 14.284,0.195 2.192,0.15 4.24,0.546 6.133,1.077 0.895,0.34 1.791,0.604 2.637,1.114 l 0.634,0.335 0.157,0.083 0.039,0.02 c -0.046,-0.028 0.007,0.006 0.005,0.006 l 0.069,0.048 0.272,0.19 c 0.375,0.236 0.692,0.547 1.027,0.823 1.261,1.21 2.209,2.61 2.997,3.944 0.792,1.338 1.414,2.635 1.948,3.816 1.073,2.364 1.804,4.275 2.326,5.567 C -0.277,-0.689 0,0 0,0 m 0.186,-0.074 c 0,0 -0.27,-0.693 -0.776,-1.99 -0.51,-1.298 -1.258,-3.202 -2.21,-5.623 -1.056,-2.366 -2.132,-5.423 -4.657,-8.236 -0.343,-0.323 -0.668,-0.679 -1.067,-0.97 l -0.291,-0.23 -0.073,-0.058 c -0.026,-0.017 0.004,-10e-4 -0.066,-0.047 l -0.038,-0.023 -0.151,-0.092 -0.612,-0.374 c -0.778,-0.541 -1.761,-0.93 -2.742,-1.367 -0.494,-0.19 -1.001,-0.327 -1.512,-0.496 l -0.773,-0.244 -0.795,-0.178 c -0.534,-0.116 -1.074,-0.233 -1.621,-0.352 -0.55,-0.076 -1.106,-0.152 -1.669,-0.229 -4.504,-0.62 -9.392,-0.464 -14.482,-0.371 -2.559,0.065 -5.209,0.161 -7.917,0.532 -1.353,0.175 -2.724,0.443 -4.084,0.852 -1.35,0.416 -2.722,0.995 -3.874,1.979 -1.141,0.979 -1.899,2.292 -2.558,3.548 -0.651,1.284 -1.228,2.6 -1.766,3.938 -1.061,2.681 -2.007,5.431 -2.94,8.209 -0.935,2.777 -1.855,5.576 -2.738,8.41 -0.897,2.828 -1.788,5.681 -2.308,8.667 -0.255,1.49 -0.431,3.025 -0.259,4.604 0.158,1.564 0.796,3.216 2.004,4.394 l 0.053,0.057 0.094,0.08 0.108,0.088 0.215,0.175 0.43,0.35 c 0.31,0.229 0.685,0.443 1.029,0.661 0.705,0.386 1.393,0.734 2.116,0.994 1.43,0.573 2.895,0.944 4.354,1.269 5.861,1.182 11.667,1.393 17.251,1.61 2.788,0.093 5.537,0.169 8.276,0.049 2.717,-0.107 5.362,-0.364 7.92,-0.727 5.113,-0.727 9.91,-1.801 14.156,-3.446 2.12,-0.819 4.108,-1.79 5.816,-3.084 0.841,-0.658 1.625,-1.423 2.117,-2.414 L 4.237,19.657 4.259,19.611 C 4.265,19.604 4.3,19.509 4.291,19.529 l 0.027,-0.086 0.106,-0.34 C 4.5,18.884 4.564,18.649 4.601,18.382 4.713,17.864 4.741,17.383 4.76,16.914 4.782,13.146 3.697,10.116 2.986,7.617 2.185,5.134 1.47,3.217 0.972,1.914 0.459,0.617 0.186,-0.074 0.186,-0.074" /></g><g
         transform="translate(361.813,304.1602)"
         id="g76"><path
           inkscape:connector-curvature="0"
           id="path78"
           d="m 0,0 c 1.537394,6.1995886 4.9888656,13.108671 2.104,19.362 -4.9584655,4.860472 -12.724061,4.19902 -19.166817,4.900784 C -30.91771,24.841793 -45.639991,24.964644 -58.298,18.544125 -63.815776,15.283259 -60.469356,7.7878125 -59.410359,2.9789844 -56.582051,-4.3210289 -54.737425,-12.502897 -49.314,-18.4 c 7.633652,-5.502934 17.704738,-3.320195 26.503625,-3.66175 5.711932,0.312084 13.5808313,-0.498638 16.374375,5.81575 C -3.6035324,-11.130598 -1.7972429,-5.5394482 0,0 Z m 0.191,-0.061 c -2.7357046,-7.067084 -3.6089163,-15.529224 -9.2447266,-20.991067 -7.3227624,-3.953432 -16.0871884,-2.525207 -24.0916274,-2.808742 -7.414479,0.196718 -16.638738,1.512034 -19.909566,9.269032 -3.921327,9.1142397 -8.753539,18.3095704 -9.52208,28.349777 0.689853,8.069388 10.77045,9.213476 17.028415,11.055353 C -32.353176,27.50908 -18.559434,27.219947 -5.361,24.736 0.84716269,24.06153 6.0687096,18.410831 3.632,11.963 2.7797601,7.8769396 1.4548663,3.9107735 0.191,-0.061 Z"
           style="fill:#404041;fill-opacity:1;fill-rule:nonzero;stroke:none" /></g></g><g
       clip-path="url(#clipPath86)"
       id="g82"
       transform="translate(-210)"><g
         transform="translate(784.4004,317.5073)"
         id="g88"><path
           inkscape:connector-curvature="0"
           id="path90"
           d="m 0,0 c 1.902918,-5.244009 -6.8805176,-2.0948271 -4.549,-7.917 0.3311629,-11.993174 -1.6610623,-26.003163 -11.978508,-33.647557 -7.477311,-4.986474 -17.125376,-5.787315 -25.823945,-4.597302 -11.776921,1.812321 -20.522207,11.532917 -24.669859,22.194078 -2.454319,4.835601 -2.772601,10.477847 -5.312688,15.214781 -4.774239,6.0452489 -13.216457,0.9718642 -13.170691,-5.757207 -3.095635,-12.055581 -9.412047,-24.685554 -21.508979,-29.756668 -9.35049,-3.823218 -20.32948,-2.946345 -29.46174,1.061176 -10.75791,5.569118 -14.30711,18.546159 -14.71209,29.802949 -0.1753,4.4106489 1.54514,10.5375304 -4.5905,10.32475 -1.20614,4.1888439 1.95123,7.0610397 6.13,6.507 5.77083,3.2649816 12.058,5.8760028 18.74661,6.5442539 14.27799,1.5643131 29.21803,-0.7488193 42.033109,-7.3436289 3.309462,-3.7948031 4.910185,-2.00603151 10.009344,-1.67139062 C -73.50635,1.5218926 -70.079861,-1.9564762 -66.715,2.669 -53.021618,9.6184337 -36.921243,11.900479 -21.791187,9.4058789 -16.33751,8.4854254 -11.18915,6.3071696 -6.473875,3.484375 -4.1161384,2.6773163 0.10367171,3.8298722 0,0 Z m -0.1,-0.009 c -1.5041672,4.4323755 -8.1708345,2.8802168 -11.633,6.1 -15.303283,6.50675 -32.954747,4.294059 -48.227,-1.167875 -5.663647,-1.135585 -9.125811,-7.5748665 -15.107531,-4.98521875 -3.572878,1.13601935 -8.038632,-1.44428425 -11.136297,-0.17911523 -8.880235,6.48672568 -20.137602,8.71571888 -30.875512,9.86472458 -10.85196,0.9091664 -22.37052,-0.3704201 -31.71379,-6.3611406 -4.15677,0.8847825 -9.51968,-3.5133121 -5.49387,-6.737375 6.21619,0.106904 2.18136,-8.323691 3.61048,-12.206491 0.7723,-10.821404 5.02782,-23.175504 15.83508,-27.656771 11.66002,-4.342104 26.3236,-3.882429 35.68514,5.202955 7.942731,7.321216 11.316861,18.139653 13.8923,28.141307 2.146076,6.6386655 12.618274,6.4609669 14.86675,3.75e-4 2.615657,-9.781876 5.854287,-20.455733 13.581212,-27.726868 9.134955,-9.128997 23.701822,-9.944575 35.375105,-5.812215 11.2612,4.221406 15.8177225,16.958235 16.555058,28.043192 0.9739359,4.710334 -2.3383554,12.9111229 4.822875,12.667516 0.079544,0.9374659 -0.01726837,1.87547195 -0.037,2.813 z"
           style="fill:#404041;fill-opacity:1;fill-rule:nonzero;stroke:none" /></g><g
         transform="translate(696.0586,304.4351)"
         id="g92"><path
           inkscape:connector-curvature="0"
           id="path94"
           d="M 0,0 C 1.3908401,6.8491533 -3.0972123,13.577837 -9.4793167,15.962754 -19.838953,20.225354 -31.382874,20.49374 -42.418375,19.963125 -50.131501,19.598051 -57.83936,14.625426 -59.363615,6.6892324 -62.174826,-6.0492782 -58.501757,-21.809967 -46.313255,-28.449921 -36.140935,-33.7372 -22.898956,-32.596975 -13.561,-26.008 -5.3420065,-19.905779 -1.5202546,-9.8026669 0,0 Z m 0.098,-0.017 c -1.6320221,-11.769058 -6.7659492,-24.628174 -18.355243,-29.720665 -12.317783,-5.471834 -28.859716,-2.941641 -36.759913,8.712431 -5.884618,8.942398 -7.6068,20.83716978 -4.163844,31.003234 3.345615,9.006529 13.859853,11.740875 22.54725,11.263953 11.071417,-0.249274 23.421682,-0.728262 32.3693906,-8.097469 C -0.52503505,9.8959257 0.93453635,4.7833447 0.098,-0.017 Z"
           style="fill:#404041;fill-opacity:1;fill-rule:nonzero;stroke:none" /></g><g
         transform="translate(777.4756,300.0166)"
         id="g96"><path
           inkscape:connector-curvature="0"
           id="path98"
           style="fill:#404041;fill-opacity:1;fill-rule:nonzero;stroke:none"
           d="M 0,0 C 0,0 0.031,0.714 0.089,2.055 0.104,2.39 0.12,2.764 0.138,3.176 0.128,3.587 0.116,4.037 0.104,4.523 0.089,5.008 0.073,5.53 0.057,6.087 0.021,6.643 -0.066,7.229 -0.132,7.85 c -0.297,2.46 -0.951,5.511 -2.761,8.462 -0.235,0.36 -0.474,0.726 -0.716,1.098 -0.238,0.374 -0.573,0.685 -0.86,1.037 -0.558,0.727 -1.302,1.306 -2.019,1.941 -1.544,1.129 -3.294,2.179 -5.318,2.804 -3.99,1.443 -8.664,1.546 -13.557,1.469 -4.906,-0.074 -10.079,-0.419 -15.326,-1.361 -2.619,-0.484 -5.253,-1.137 -7.812,-2.084 -2.552,-0.947 -5.018,-2.245 -7.127,-4.012 -1.022,-0.913 -1.971,-1.925 -2.711,-3.089 -0.702,-1.176 -1.321,-2.435 -1.598,-3.802 -0.209,-0.665 -0.23,-1.37 -0.338,-2.059 -0.038,-0.695 -0.051,-1.383 -0.032,-2.088 0.08,-0.703 0.098,-1.448 0.23,-2.118 l 0.376,-2.106 0.375,-2.108 c 0.138,-0.7 0.348,-1.382 0.518,-2.074 0.359,-1.38 0.686,-2.77 1.213,-4.092 l 0.728,-2.002 c 0.233,-0.671 0.589,-1.288 0.877,-1.933 l 0.91,-1.913 1.097,-1.801 c 0.669,-1.243 1.604,-2.293 2.445,-3.398 0.399,-0.573 0.943,-1.017 1.409,-1.525 0.5,-0.476 0.93,-1.025 1.483,-1.437 2.055,-1.83 4.413,-3.216 6.826,-4.328 2.466,-1.004 4.988,-1.73 7.521,-2.113 2.548,-0.339 5.007,-0.496 7.487,-0.405 4.834,0.192 9.38,1.458 13.03,3.605 3.703,2.074 6.504,4.924 8.45,7.78 1.958,2.86 3.177,5.688 3.847,8.092 0.4,1.188 0.616,2.282 0.811,3.234 0.096,0.476 0.202,0.913 0.27,1.32 0.052,0.409 0.1,0.781 0.142,1.114 C -0.091,-0.709 0,0 0,0 m 0.1,-0.01 c 0,0 -0.083,-0.713 -0.24,-2.047 -0.038,-0.334 -0.082,-0.706 -0.13,-1.116 -0.062,-0.408 -0.164,-0.849 -0.255,-1.329 -0.185,-0.959 -0.391,-2.064 -0.779,-3.262 -0.308,-1.221 -0.826,-2.514 -1.364,-3.935 -0.629,-1.38 -1.336,-2.869 -2.304,-4.343 -1.891,-2.949 -4.631,-6.007 -8.415,-8.215 -1.851,-1.161 -3.979,-2.017 -6.225,-2.708 -2.26,-0.694 -4.687,-0.963 -7.192,-1.077 -2.444,-0.083 -5.05,0.108 -7.615,0.534 -2.576,0.454 -5.138,1.259 -7.622,2.347 -2.437,1.194 -4.775,2.682 -6.853,4.542 -0.554,0.424 -0.986,0.983 -1.487,1.471 -0.467,0.519 -1.012,0.974 -1.41,1.557 -0.845,1.123 -1.76,2.205 -2.455,3.445 -3.018,4.808 -4.859,10.359 -5.993,15.985 l -0.42,2.118 c -0.154,0.734 -0.179,1.43 -0.275,2.146 -0.036,0.722 -0.039,1.47 -0.011,2.2 0.097,0.724 0.108,1.462 0.314,2.17 0.266,1.446 0.893,2.8 1.618,4.063 0.764,1.254 1.746,2.344 2.808,3.328 2.188,1.902 4.752,3.251 7.362,4.253 2.622,0.996 5.304,1.686 7.963,2.201 5.327,1.013 10.565,1.288 15.502,1.362 1.222,0.006 2.469,0.041 3.661,-0.005 0.598,-0.015 1.192,-0.029 1.78,-0.044 0.595,-0.037 1.19,-0.113 1.777,-0.168 1.181,-0.078 2.308,-0.353 3.427,-0.539 0.554,-0.121 1.093,-0.293 1.632,-0.435 0.541,-0.138 1.071,-0.294 1.576,-0.512 0.509,-0.201 1.013,-0.398 1.512,-0.594 0.474,-0.254 0.943,-0.505 1.406,-0.753 0.474,-0.226 0.894,-0.535 1.31,-0.836 0.408,-0.309 0.851,-0.564 1.214,-0.908 0.729,-0.686 1.474,-1.316 2.028,-2.088 0.285,-0.375 0.617,-0.708 0.85,-1.103 0.237,-0.39 0.472,-0.775 0.702,-1.153 1.775,-3.088 2.274,-6.194 2.571,-8.669 C 0.126,7.247 0.205,6.656 0.234,6.098 0.244,5.538 0.253,5.014 0.262,4.526 0.268,4.038 0.273,3.587 0.279,3.173 0.256,2.761 0.234,2.386 0.216,2.05 0.14,0.707 0.1,-0.01 0.1,-0.01" /></g></g></g></svg>