<?xml version="1.0" encoding="UTF-8" standalone="no"?>
<!-- Created with Inkscape (http://www.inkscape.org/) -->

<svg
   xmlns:dc="http://purl.org/dc/elements/1.1/"
   xmlns:cc="http://creativecommons.org/ns#"
   xmlns:rdf="http://www.w3.org/1999/02/22-rdf-syntax-ns#"
   xmlns:svg="http://www.w3.org/2000/svg"
   xmlns="http://www.w3.org/2000/svg"
   xmlns:sodipodi="http://sodipodi.sourceforge.net/DTD/sodipodi-0.dtd"
   xmlns:inkscape="http://www.inkscape.org/namespaces/inkscape"
   version="1.1"
   id="svg2"
   xml:space="preserve"
   width="1333.3333"
   height="1333.3333"
   viewBox="0 0 1333.3333 1333.3333"
   sodipodi:docname="heart.svg"
   inkscape:version="0.92.2 5c3e80d, 2017-08-06"><metadata
     id="metadata8"><rdf:RDF><cc:Work
         rdf:about=""><dc:format>image/svg+xml</dc:format><dc:type
           rdf:resource="http://purl.org/dc/dcmitype/StillImage" /><dc:title></dc:title></cc:Work></rdf:RDF></metadata><defs
     id="defs6"><clipPath
       clipPathUnits="userSpaceOnUse"
       id="clipPath34"><path
         d="M 0,1000 H 1000 V 0 H 0 Z"
         id="path32"
         inkscape:connector-curvature="0" /></clipPath><clipPath
       clipPathUnits="userSpaceOnUse"
       id="clipPath46"><path
         d="M 0,1000 H 1000 V 0 H 0 Z"
         id="path44"
         inkscape:connector-curvature="0" /></clipPath></defs><sodipodi:namedview
     pagecolor="#ffffff"
     bordercolor="#666666"
     borderopacity="1"
     objecttolerance="10"
     gridtolerance="10"
     guidetolerance="10"
     inkscape:pageopacity="0"
     inkscape:pageshadow="2"
     inkscape:window-width="799"
     inkscape:window-height="480"
     id="namedview4"
     showgrid="false"
     inkscape:zoom="0.17700001"
     inkscape:cx="514.76647"
     inkscape:cy="820.99377"
     inkscape:window-x="0"
     inkscape:window-y="24"
     inkscape:window-maximized="0"
     inkscape:current-layer="g10" /><g
     id="g10"
     inkscape:groupmode="layer"
     inkscape:label="heart"
     transform="matrix(1.3333333,0,0,-1.3333333,0,1333.3333)"><g
       id="g28"
       transform="translate(-3.5247,-3.6758)"><g
         id="g30"
         clip-path="url(#clipPath34)"><g
           id="g36"
           transform="translate(502.9492,583.688)"><path
             d="m 0,0 c 0,0 -49.687,35.596 -81.575,20.765 -31.541,-14.671 -80.495,-80.853 13.169,-138.267 1.031,-0.633 2.08,-1.265 3.146,-1.895 97.891,-57.845 -1.066,0.63 -1.066,0.63 0,0 62.618,-54.767 113.788,-9.529 0,0 83.059,29.664 69.71,100.857 0,0 -37.079,91.216 -117.172,27.439"
             style="fill:#ff4d4d;fill-opacity:1;fill-rule:nonzero;stroke:none"
             id="path38"
             inkscape:connector-curvature="0" /></g></g></g><g
       id="g40"><g
         id="g42"
         clip-path="url(#clipPath46)"><g
           id="g48"
           transform="translate(627.4014,551.9868)"><path
             d="m 0,0 c -4.434,37.063 -34.858,62.561 -71.2,63.669 -24.673,0.751 -45.235,-12.991 -61.142,-30.904 1.554,-1.448 3.014,-2.997 4.366,-4.641 13.701,15.326 30.91,26.692 52.669,29.006 40.435,4.299 67.672,-30.772 69.84,-67.731 2.482,-42.357 -36.749,-66.64 -69.591,-82.7 -8.345,-4.079 -16.538,-8.453 -24.886,-12.53 -5.468,-2.668 -20.89,-12.491 -27.244,-10.428 -0.162,0.052 -0.319,0.085 -0.475,0.107 0.475,-2.812 0.695,-5.681 0.611,-8.574 -0.003,-0.122 -0.014,-0.237 -0.019,-0.357 1.732,-0.133 3.265,1.55 2.748,3.013 6.624,0.067 14.46,4.661 19.407,6.874 14.99,6.692 29.556,14.52 44.304,21.73 C -23.483,-75.312 5.192,-43.407 0,0"
             style="fill:#3c3c3b;fill-opacity:1;fill-rule:nonzero;stroke:none"
             id="path50"
             inkscape:connector-curvature="0" /></g><g
           id="g52"
           transform="translate(627.4385,551.9922)"><path
             d="m 0,0 c 0.185,-1.965 0.447,-3.926 0.51,-5.901 0.136,-1.973 0.06,-3.948 0.106,-5.923 -0.04,-3.954 -0.532,-7.885 -1.156,-11.782 -0.648,-3.9 -1.731,-7.711 -2.955,-11.462 -1.234,-3.754 -2.836,-7.377 -4.628,-10.896 -1.831,-3.501 -3.917,-6.862 -6.16,-10.113 -2.299,-3.214 -4.82,-6.262 -7.457,-9.199 -2.626,-2.953 -5.531,-5.643 -8.473,-8.272 -1.471,-1.319 -3.007,-2.559 -4.537,-3.806 -1.57,-1.199 -3.13,-2.408 -4.734,-3.559 -1.582,-1.182 -3.228,-2.275 -4.856,-3.391 -1.654,-1.079 -3.337,-2.113 -5.04,-3.111 -3.417,-1.974 -6.849,-3.935 -10.391,-5.677 -3.507,-1.815 -7.07,-3.512 -10.597,-5.284 -3.513,-1.802 -7.058,-3.535 -10.556,-5.367 -7.085,-3.482 -14.258,-6.778 -21.361,-10.223 l -5.343,-2.549 c -1.777,-0.856 -3.545,-1.736 -5.359,-2.517 -3.61,-1.554 -7.396,-2.947 -11.373,-3.082 l 0.036,0.051 c 0.033,-0.198 0.083,-0.397 0.101,-0.596 l -0.037,-0.301 c -0.02,-0.098 -0.008,-0.205 -0.054,-0.296 -0.085,-0.181 -0.135,-0.383 -0.25,-0.547 -0.125,-0.156 -0.221,-0.34 -0.371,-0.473 -0.155,-0.126 -0.289,-0.283 -0.461,-0.384 l -0.263,-0.148 c -0.091,-0.043 -0.169,-0.113 -0.27,-0.133 -0.192,-0.053 -0.383,-0.125 -0.579,-0.163 l -0.603,-0.03 -0.047,-0.002 0.005,0.05 c 0.032,0.372 0.006,0.745 0.002,1.118 l -0.024,1.119 -0.048,2.239 c -0.007,0.373 -0.079,0.741 -0.115,1.112 l -0.134,1.111 -0.276,2.222 -0.009,0.076 0.068,-0.021 c 2.225,-0.723 4.597,-0.29 6.796,0.328 2.217,0.643 4.351,1.54 6.45,2.499 4.203,1.914 8.241,4.169 12.297,6.383 2.033,1.106 4.117,2.103 6.171,3.162 l 6.185,3.131 12.399,6.2 6.213,3.074 c 2.064,1.039 4.115,2.104 6.155,3.188 2.041,1.082 4.061,2.203 6.079,3.328 2.015,1.129 4.008,2.297 5.99,3.486 l 2.952,1.814 2.918,1.869 2.88,1.927 2.821,2.012 c 1.855,1.378 3.731,2.727 5.508,4.204 1.764,1.491 3.562,2.94 5.277,4.486 l 0.002,-0.002 c 3.613,3.228 7.052,6.67 10.096,10.447 3.045,3.769 5.805,7.78 8.069,12.067 2.277,4.278 4.052,8.83 5.195,13.541 1.17,4.702 1.762,9.547 1.796,14.391 -0.009,4.854 -0.524,9.691 -1.436,14.452 -0.917,4.759 -2.246,9.437 -3.978,13.961 -1.763,4.508 -3.797,8.925 -6.322,13.065 -2.562,4.112 -5.461,8.021 -8.766,11.565 -6.592,7.095 -14.861,12.684 -24.037,15.819 -9.168,3.158 -19.106,3.853 -28.68,2.339 -9.589,-1.457 -18.85,-4.869 -27.17,-9.845 -8.324,-5.002 -15.639,-11.523 -22.135,-18.706 l -0.05,-0.055 -0.05,0.057 -2.097,2.395 -2.252,2.251 -0.035,0.035 0.032,0.035 c 2.459,2.695 4.965,5.35 7.632,7.841 2.618,2.543 5.433,4.871 8.291,7.139 2.906,2.202 5.875,4.343 9.057,6.135 l 2.373,1.365 2.433,1.254 c 1.598,0.887 3.309,1.538 4.973,2.286 3.4,1.319 6.859,2.517 10.423,3.317 l 2.676,0.577 2.709,0.398 c 1.799,0.329 3.633,0.35 5.45,0.523 0.909,0.089 1.822,0.032 2.733,0.055 0.912,-0.007 1.824,0.032 2.736,-0.012 l 5.458,-0.404 c 0.914,-0.034 1.811,-0.209 2.712,-0.35 l 2.702,-0.431 c 0.898,-0.157 1.814,-0.223 2.698,-0.455 l 2.661,-0.637 2.663,-0.641 c 0.89,-0.202 1.734,-0.566 2.604,-0.841 l 2.59,-0.889 1.295,-0.444 c 0.429,-0.156 0.838,-0.361 1.258,-0.539 1.664,-0.748 3.349,-1.455 5.003,-2.223 l 4.806,-2.625 c 3.092,-1.932 6.165,-3.922 8.948,-6.293 0.705,-0.579 1.442,-1.121 2.121,-1.731 l 1.976,-1.894 1.978,-1.895 c 0.675,-0.617 1.221,-1.357 1.837,-2.029 l 1.8,-2.064 0.9,-1.033 c 0.279,-0.36 0.538,-0.737 0.809,-1.105 1.056,-1.487 2.168,-2.94 3.181,-4.457 l 2.777,-4.722 c 0.873,-1.602 1.58,-3.291 2.378,-4.931 0.849,-1.622 1.348,-3.39 2.001,-5.093 l 0.932,-2.573 0.696,-2.649 0.692,-2.649 0.34,-1.325 0.222,-1.35 z m -0.074,-0.011 -0.902,5.396 -0.225,1.349 -0.342,1.323 -0.696,2.643 -0.699,2.642 -0.939,2.567 c -0.659,1.698 -1.165,3.459 -2.019,5.074 -0.805,1.635 -1.518,3.317 -2.396,4.911 l -2.791,4.698 c -1.008,1.514 -2.114,2.965 -3.167,4.451 -0.269,0.367 -0.526,0.744 -0.805,1.103 l -0.896,1.032 -1.792,2.062 c -0.613,0.672 -1.157,1.41 -1.829,2.027 l -1.971,1.894 -1.97,1.893 c -0.675,0.609 -1.411,1.152 -2.113,1.731 -2.773,2.37 -5.838,4.361 -8.921,6.294 l -4.794,2.628 c -1.65,0.77 -3.33,1.48 -4.996,2.215 -0.42,0.176 -0.83,0.379 -1.258,0.533 l -1.295,0.437 -2.589,0.875 c -0.869,0.274 -1.714,0.622 -2.6,0.836 l -2.649,0.674 -2.649,0.676 c -0.879,0.246 -1.792,0.328 -2.686,0.5 l -2.703,0.426 c -0.9,0.138 -1.797,0.311 -2.711,0.343 l -5.455,0.39 c -0.908,0.042 -1.822,10e-4 -2.733,0.005 -0.911,-0.025 -1.826,0.03 -2.733,-0.061 -1.814,-0.174 -3.641,-0.216 -5.436,-0.555 l -2.7,-0.417 -2.668,-0.594 c -1.786,-0.36 -3.532,-0.886 -5.281,-1.399 -0.883,-0.233 -1.717,-0.61 -2.579,-0.907 -0.849,-0.328 -1.718,-0.607 -2.552,-0.974 l -2.501,-1.105 c -0.844,-0.346 -1.658,-0.752 -2.469,-1.17 l -2.44,-1.233 c -0.795,-0.446 -1.573,-0.922 -2.359,-1.383 -1.592,-0.891 -3.073,-1.958 -4.615,-2.929 -1.507,-1.022 -2.98,-2.099 -4.442,-3.186 -2.871,-2.246 -5.679,-4.579 -8.302,-7.114 -2.675,-2.48 -5.151,-5.163 -7.599,-7.863 l -0.004,0.069 2.268,-2.245 2.115,-2.39 -0.1,0.002 c 6.434,7.26 13.87,13.685 22.205,18.666 8.294,5.034 17.578,8.456 27.181,9.905 4.796,0.743 9.67,1.041 14.523,0.677 4.848,-0.348 9.644,-1.363 14.232,-2.956 4.589,-1.596 8.962,-3.794 13.002,-6.484 4.046,-2.684 7.779,-5.843 11.091,-9.396 3.312,-3.55 6.265,-7.441 8.753,-11.61 2.526,-4.141 4.747,-8.487 6.429,-13.048 3.425,-9.088 5.25,-18.782 5.299,-28.489 0.006,-4.858 -0.572,-9.715 -1.756,-14.427 -1.198,-4.708 -2.967,-9.264 -5.23,-13.559 -2.264,-4.295 -4.991,-8.344 -8.093,-12.077 -3.103,-3.73 -6.465,-7.246 -10.067,-10.5 l 0.002,-0.002 c -1.714,-1.551 -3.461,-3.071 -5.304,-4.468 -1.831,-1.411 -3.651,-2.837 -5.539,-4.17 -1.89,-1.333 -3.802,-2.63 -5.722,-3.916 l -2.911,-1.881 -2.948,-1.824 c -3.955,-2.392 -7.981,-4.667 -12.073,-6.816 -4.084,-2.164 -8.241,-4.185 -12.359,-6.284 l -12.367,-6.268 -6.197,-3.104 c -2.059,-1.048 -4.15,-2.037 -6.182,-3.131 -4.059,-2.202 -8.076,-4.505 -12.286,-6.427 -2.11,-0.942 -4.258,-1.822 -6.487,-2.448 -2.201,-0.598 -4.607,-1.099 -6.845,-0.33 l 0.058,0.055 0.263,-2.228 0.136,-1.113 c 0.036,-0.372 0.109,-0.741 0.116,-1.114 l 0.052,-2.244 0.025,-1.121 c 0.004,-0.373 0.031,-0.748 -0.002,-1.12 l -0.041,0.047 0.582,0.027 c 0.19,0.036 0.374,0.106 0.561,0.156 0.098,0.018 0.174,0.088 0.261,0.129 l 0.256,0.142 c 0.168,0.098 0.298,0.249 0.449,0.371 0.146,0.129 0.237,0.307 0.36,0.457 0.113,0.159 0.159,0.354 0.243,0.528 0.046,0.087 0.034,0.19 0.053,0.284 l 0.037,0.288 c -0.017,0.191 -0.065,0.381 -0.094,0.572 l -0.008,0.05 0.044,0.002 c 3.961,0.111 7.737,1.526 11.336,3.089 1.81,0.781 3.579,1.657 5.357,2.513 l 5.348,2.541 10.666,5.142 5.327,2.584 c 1.774,0.863 3.58,1.661 5.319,2.598 3.559,1.706 7.07,3.509 10.614,5.245 1.774,0.864 3.518,1.791 5.278,2.684 l 5.293,2.649 c 3.549,1.728 7.02,3.609 10.392,5.661 l 2.517,1.555 c 0.829,0.535 1.644,1.089 2.483,1.608 1.646,1.085 3.3,2.163 4.89,3.331 3.218,2.284 6.289,4.771 9.251,7.374 2.965,2.602 5.784,5.368 8.444,8.28 2.671,2.904 5.137,5.991 7.427,9.201 2.318,3.192 4.336,6.594 6.152,10.091 0.936,1.737 1.761,3.528 2.564,5.329 0.734,1.831 1.483,3.655 2.105,5.527 1.291,3.728 2.246,7.566 2.939,11.449 0.7,3.885 0.959,7.827 1.144,11.764 0.031,1.971 0.027,3.945 -0.111,5.913 -0.046,1.973 -0.285,3.931 -0.449,5.897"
             style="fill:#3c3c3b;fill-opacity:1;fill-rule:nonzero;stroke:none"
             id="path54"
             inkscape:connector-curvature="0" /></g><g
           id="g56"
           transform="translate(500.561,436.4697)"><path
             d="m 0,0 c -6.354,-2.063 -21.776,7.761 -27.244,10.429 -8.348,4.076 -16.541,8.45 -24.886,12.528 -32.842,16.061 -72.073,40.344 -69.592,82.701 2.169,36.959 29.406,72.03 69.841,67.731 22.137,-2.355 39.561,-14.082 53.378,-29.814 1.462,1.526 3.031,2.948 4.691,4.264 -16.044,18.485 -36.963,32.856 -62.176,32.089 -36.342,-1.108 -66.766,-26.606 -71.2,-63.669 -5.193,-43.407 23.483,-75.312 60.612,-93.467 14.748,-7.21 29.314,-15.037 44.304,-21.729 4.947,-2.213 12.783,-6.808 19.407,-6.875 -0.517,-1.462 1.015,-3.145 2.747,-3.012 -0.004,0.119 -0.015,0.235 -0.02,0.356 -0.081,2.895 0.137,5.762 0.613,8.575 C 0.32,0.084 0.162,0.052 0,0"
             style="fill:#3c3c3b;fill-opacity:1;fill-rule:nonzero;stroke:none"
             id="path58"
             inkscape:connector-curvature="0" /></g><g
           id="g60"
           transform="translate(500.5508,436.5059)"><path
             d="M 0,0 0.479,0.111 0.531,0.123 0.524,0.064 0.268,-2.158 0.139,-3.27 C 0.104,-3.64 0.034,-4.008 0.029,-4.381 l -0.053,-2.24 -0.031,-1.121 C -0.06,-8.118 -0.089,-8.484 -0.056,-8.858 l 0.005,-0.056 -0.053,0.003 -0.604,0.031 c -0.196,0.038 -0.386,0.11 -0.581,0.161 -0.101,0.019 -0.18,0.088 -0.272,0.13 l -0.265,0.146 c -0.175,0.099 -0.312,0.254 -0.47,0.38 -0.153,0.132 -0.251,0.316 -0.38,0.472 -0.118,0.165 -0.171,0.369 -0.26,0.553 -0.048,0.092 -0.038,0.2 -0.059,0.3 l -0.041,0.306 c 0.016,0.204 0.064,0.41 0.097,0.614 l 0.083,-0.119 c -3.175,0.072 -6.204,1.083 -9.127,2.187 -2.936,1.118 -5.725,2.57 -8.552,3.918 -2.845,1.313 -5.666,2.685 -8.493,4.042 -2.829,1.352 -5.672,2.675 -8.486,4.06 -2.804,1.402 -5.681,2.658 -8.474,4.084 l -8.403,4.227 c -2.824,1.362 -5.599,2.823 -8.405,4.222 -2.797,1.417 -5.622,2.779 -8.389,4.259 -5.508,2.989 -10.96,6.132 -16.005,9.87 -5.061,3.694 -10.025,7.572 -14.422,12.056 -4.422,4.441 -8.627,9.139 -12.132,14.354 -3.589,5.153 -6.485,10.769 -8.786,16.601 -2.336,5.826 -3.83,11.973 -4.65,18.188 -0.808,6.222 -0.811,12.54 -0.167,18.776 0.781,6.211 1.934,12.436 4.257,18.282 l 0.81,2.21 c 0.265,0.739 0.654,1.426 0.975,2.141 l 2.03,4.246 c 1.619,2.686 3.07,5.482 5.009,7.961 1.734,2.627 3.891,4.919 5.946,7.291 1.106,1.111 2.262,2.175 3.39,3.265 0.581,0.527 1.107,1.116 1.733,1.591 l 1.841,1.466 1.84,1.466 0.922,0.731 0.981,0.649 3.92,2.603 c 1.334,0.821 2.737,1.529 4.103,2.299 0.691,0.37 1.366,0.772 2.07,1.116 l 2.153,0.951 2.154,0.947 c 0.72,0.311 1.428,0.651 2.182,0.875 l 4.455,1.514 c 0.735,0.278 1.499,0.459 2.262,0.64 l 2.285,0.561 2.284,0.56 c 0.76,0.199 1.546,0.265 2.317,0.403 l 4.645,0.756 c 1.562,0.141 3.127,0.237 4.69,0.353 0.783,0.049 1.56,0.129 2.348,0.169 l 2.354,0.022 c 0.785,-0.017 1.571,0.002 2.354,-0.045 l 2.347,-0.2 -0.001,-0.003 2.029,-0.177 2.011,-0.32 c 1.342,-0.207 2.685,-0.408 3.999,-0.754 1.317,-0.33 2.657,-0.565 3.947,-0.991 1.293,-0.41 2.619,-0.723 3.885,-1.213 1.267,-0.485 2.559,-0.913 3.806,-1.448 l 3.711,-1.677 3.607,-1.889 c 1.181,-0.666 2.335,-1.383 3.504,-2.072 1.166,-0.694 2.264,-1.495 3.4,-2.237 1.145,-0.731 2.206,-1.58 3.307,-2.373 1.108,-0.786 2.157,-1.646 3.206,-2.508 l 1.577,-1.287 1.521,-1.353 c 1.014,-0.901 2.038,-1.793 2.995,-2.756 0.963,-0.956 1.975,-1.863 2.895,-2.861 0.933,-0.986 1.887,-1.951 2.802,-2.952 l 2.727,-3.022 0.035,-0.039 -0.043,-0.036 -2.409,-2.056 -2.263,-2.215 -0.054,-0.053 -0.05,0.055 c -4.773,5.343 -9.958,10.347 -15.725,14.604 -5.643,4.427 -12.009,7.881 -18.65,10.548 -6.683,2.58 -13.721,4.279 -20.877,4.786 -1.784,0.18 -3.577,0.155 -5.368,0.193 -1.788,-0.083 -3.583,-0.096 -5.36,-0.329 -1.787,-0.142 -3.547,-0.483 -5.312,-0.776 -1.745,-0.403 -3.497,-0.773 -5.203,-1.324 -6.876,-2.005 -13.326,-5.405 -18.974,-9.813 -2.827,-2.205 -5.433,-4.682 -7.856,-7.32 -2.436,-2.629 -4.637,-5.474 -6.617,-8.46 -4.013,-5.949 -7.034,-12.529 -9.256,-19.336 -1.071,-3.42 -1.968,-6.893 -2.651,-10.412 -0.645,-3.526 -1.078,-7.088 -1.288,-10.668 -0.182,-3.581 -0.071,-7.174 0.341,-10.736 0.476,-3.552 1.194,-7.075 2.283,-10.492 1.13,-3.399 2.466,-6.731 4.091,-9.929 1.698,-3.158 3.613,-6.193 5.703,-9.105 4.281,-5.755 9.298,-10.934 14.731,-15.611 2.724,-2.333 5.563,-4.527 8.456,-6.646 2.899,-2.112 5.916,-4.057 8.951,-5.964 3.051,-1.884 6.122,-3.735 9.246,-5.498 3.131,-1.747 6.296,-3.434 9.486,-5.071 l 19.237,-9.646 c 6.392,-3.248 12.88,-6.338 19.115,-9.89 3.153,-1.704 6.341,-3.358 9.658,-4.719 C -8.728,1.197 -7.035,0.598 -5.296,0.17 -3.567,-0.214 -1.729,-0.525 0,0 m 0.021,-0.072 c -1.747,-0.533 -3.602,-0.223 -5.336,0.159 -1.747,0.427 -3.445,1.024 -5.106,1.704 -3.324,1.359 -6.521,3.002 -9.685,4.69 -3.158,1.709 -6.283,3.456 -9.516,5.013 l -9.608,4.845 -19.225,9.676 c -6.376,3.291 -12.669,6.75 -18.748,10.566 -6.025,3.896 -11.907,8.027 -17.374,12.682 -2.714,2.346 -5.363,4.77 -7.847,7.363 -2.49,2.588 -4.758,5.377 -6.919,8.241 -4.248,5.779 -7.674,12.2 -9.822,19.058 -1.056,3.433 -1.769,6.961 -2.242,10.517 -0.402,3.567 -0.514,7.162 -0.358,10.748 0.193,3.582 0.608,7.154 1.236,10.689 0.668,3.527 1.535,7.017 2.642,10.433 2.247,6.818 5.359,13.355 9.333,19.333 3.929,6.006 8.839,11.373 14.471,15.824 5.675,4.384 12.077,7.897 18.979,9.937 1.714,0.547 3.475,0.912 5.227,1.31 1.773,0.287 3.54,0.623 5.333,0.759 1.783,0.227 3.584,0.233 5.377,0.31 1.794,-0.045 3.592,-0.026 5.38,-0.214 7.16,-0.54 14.226,-2.194 20.925,-4.776 3.32,-1.356 6.62,-2.804 9.704,-4.649 0.791,-0.426 1.559,-0.889 2.314,-1.375 l 2.294,-1.409 c 1.486,-1.007 3.003,-1.97 4.428,-3.065 C -8.359,154 -3.189,148.962 1.56,143.585 l -0.104,0.002 2.283,2.209 2.427,2.048 -0.008,-0.075 -2.708,3.034 c -0.913,1.002 -1.878,1.955 -2.814,2.936 -0.926,0.991 -1.942,1.891 -2.909,2.841 -0.965,0.953 -1.988,1.843 -3,2.744 l -1.519,1.352 -1.575,1.285 c -1.05,0.857 -2.085,1.733 -3.187,2.524 -1.096,0.796 -2.143,1.662 -3.29,2.388 -1.136,0.738 -2.236,1.536 -3.403,2.225 -1.169,0.686 -2.322,1.4 -3.504,2.062 l -3.606,1.878 -3.708,1.664 c -1.249,0.524 -2.529,0.974 -3.791,1.466 -1.26,0.501 -2.582,0.823 -3.87,1.243 -1.284,0.443 -2.625,0.673 -3.943,0.985 -1.315,0.333 -2.658,0.523 -3.999,0.717 l -2.01,0.303 -2.026,0.158 v -0.003 l -2.342,0.179 c -0.781,0.04 -1.565,0.014 -2.347,0.024 l -2.349,0.053 c -0.779,0 -1.564,-0.087 -2.344,-0.136 l -4.691,-0.339 -4.644,-0.72 c -0.77,-0.141 -1.555,-0.21 -2.313,-0.411 l -2.281,-0.57 -2.28,-0.569 c -0.762,-0.185 -1.524,-0.366 -2.258,-0.645 l -4.449,-1.518 c -0.751,-0.227 -1.458,-0.568 -2.176,-0.882 l -2.152,-0.946 -2.153,-0.941 c -0.705,-0.341 -1.38,-0.74 -2.072,-1.107 -1.367,-0.765 -2.773,-1.466 -4.109,-2.282 l -3.907,-2.614 -0.976,-0.655 -0.916,-0.736 -1.829,-1.476 -1.828,-1.476 c -0.621,-0.478 -1.142,-1.07 -1.718,-1.6 -1.121,-1.094 -2.27,-2.16 -3.368,-3.274 -2.031,-2.384 -4.193,-4.66 -5.938,-7.271 -1.946,-2.465 -3.407,-5.249 -5.037,-7.923 -0.691,-1.405 -1.34,-2.833 -2.011,-4.247 -0.317,-0.716 -0.702,-1.403 -0.963,-2.141 l -0.799,-2.21 -0.798,-2.209 c -0.262,-0.738 -0.562,-1.463 -0.733,-2.229 l -1.213,-4.54 -0.303,-1.136 -0.195,-1.158 -0.376,-2.32 c -0.222,-1.551 -0.589,-3.079 -0.691,-4.647 -0.622,-6.233 -0.663,-12.541 0.157,-18.759 0.85,-6.204 2.326,-12.343 4.648,-18.169 l 0.876,-2.181 0.972,-2.139 c 0.624,-1.439 1.387,-2.81 2.092,-4.208 1.53,-2.734 3.128,-5.431 4.91,-8.008 0.446,-0.644 0.863,-1.308 1.341,-1.929 0.491,-0.611 0.956,-1.24 1.409,-1.88 0.931,-1.259 1.904,-2.489 2.913,-3.688 1.03,-1.18 2.037,-2.381 3.113,-3.521 0.532,-0.575 1.058,-1.157 1.602,-1.721 l 1.676,-1.648 c 4.498,-4.362 9.294,-8.427 14.411,-12.05 5.138,-3.588 10.456,-6.93 16.008,-9.843 5.559,-2.894 11.214,-5.614 16.801,-8.459 5.609,-2.803 11.205,-5.634 16.878,-8.305 l 16.96,-8.14 c 2.82,-1.373 5.647,-2.731 8.556,-3.891 2.904,-1.14 5.956,-2.047 9.086,-2.119 l 0.102,-0.002 -0.019,-0.116 C -2.801,-6.062 -2.85,-6.246 -2.87,-6.433 l 0.033,-0.282 c 0.019,-0.092 0.004,-0.192 0.049,-0.279 0.08,-0.172 0.124,-0.364 0.233,-0.523 0.119,-0.149 0.207,-0.328 0.351,-0.457 0.148,-0.122 0.275,-0.275 0.441,-0.375 l 0.252,-0.145 c 0.087,-0.041 0.162,-0.111 0.259,-0.131 0.186,-0.054 0.37,-0.124 0.56,-0.158 l 0.581,-0.027 -0.048,-0.052 c -0.035,0.372 -0.009,0.753 -0.007,1.123 l 0.02,1.12 0.048,2.241 c 0.009,0.373 0.083,0.743 0.122,1.115 l 0.141,1.115 0.281,2.226 0.045,-0.047 z"
             style="fill:#3c3c3b;fill-opacity:1;fill-rule:nonzero;stroke:none"
             id="path62"
             inkscape:connector-curvature="0" /></g></g></g></g></svg>