<?xml version="1.0" encoding="UTF-8" standalone="no"?>
<!-- Created with Inkscape (http://www.inkscape.org/) -->

<svg
   xmlns:dc="http://purl.org/dc/elements/1.1/"
   xmlns:cc="http://creativecommons.org/ns#"
   xmlns:rdf="http://www.w3.org/1999/02/22-rdf-syntax-ns#"
   xmlns:svg="http://www.w3.org/2000/svg"
   xmlns="http://www.w3.org/2000/svg"
   xmlns:sodipodi="http://sodipodi.sourceforge.net/DTD/sodipodi-0.dtd"
   xmlns:inkscape="http://www.inkscape.org/namespaces/inkscape"
   version="1.1"
   id="svg2"
   xml:space="preserve"
   width="192"
   height="192"
   viewBox="0 0 192 192"
   sodipodi:docname="home.svg"
   inkscape:version="0.92.2 5c3e80d, 2017-08-06"><metadata
     id="metadata8"><rdf:RDF><cc:Work
         rdf:about=""><dc:format>image/svg+xml</dc:format><dc:type
           rdf:resource="http://purl.org/dc/dcmitype/StillImage" /><dc:title></dc:title></cc:Work></rdf:RDF></metadata><defs
     id="defs6"><clipPath
       clipPathUnits="userSpaceOnUse"
       id="clipPath22"><path
         d="M 0,144 H 144 V 0 H 0 Z"
         id="path20"
         inkscape:connector-curvature="0" /></clipPath><clipPath
       clipPathUnits="userSpaceOnUse"
       id="clipPath46"><path
         d="M 0,144 H 144 V 0 H 0 Z"
         id="path44"
         inkscape:connector-curvature="0" /></clipPath><clipPath
       clipPathUnits="userSpaceOnUse"
       id="clipPath142"><path
         d="M 0,144 H 144 V 0 H 0 Z"
         id="path140"
         inkscape:connector-curvature="0" /></clipPath></defs><sodipodi:namedview
     pagecolor="#ffffff"
     bordercolor="#666666"
     borderopacity="1"
     objecttolerance="10"
     gridtolerance="10"
     guidetolerance="10"
     inkscape:pageopacity="0"
     inkscape:pageshadow="2"
     inkscape:window-width="1920"
     inkscape:window-height="1029"
     id="namedview4"
     showgrid="false"
     inkscape:zoom="4.0572103"
     inkscape:cx="96"
     inkscape:cy="96"
     inkscape:window-x="0"
     inkscape:window-y="24"
     inkscape:window-maximized="1"
     inkscape:current-layer="g10" /><g
     id="g10"
     inkscape:groupmode="layer"
     inkscape:label="home"
     transform="matrix(1.3333333,0,0,-1.3333333,0,192)"><g
       id="g12"
       transform="translate(94.25,36.1875)"><path
         d="m 0,0 v 2.925 l -1.188,0.788 -15.819,0.225 -0.118,-1.125 h 1.546 L -14.866,0 -14.628,-0.45 0,-0.562 Z"
         style="fill:#a83333;fill-opacity:1;fill-rule:nonzero;stroke:none"
         id="path14"
         inkscape:connector-curvature="0" /></g><g
       id="g16"><g
         id="g18"
         clip-path="url(#clipPath22)"><g
           id="g24"
           transform="translate(48.1665,36.5)"><path
             d="m 0,0 0.167,2.5 c 0,0 0,1.166 3.333,0.833 l 12.167,0.5 v -1.5 l -0.5,-2.666 -15.334,-0.5 z"
             style="fill:#a83333;fill-opacity:1;fill-rule:nonzero;stroke:none"
             id="path26"
             inkscape:connector-curvature="0" /></g><g
           id="g28"
           transform="translate(97.5664,63.2871)"><path
             d="m 0,0 -4.195,-0.233 -21.679,19.347 -22.844,-20.047 -4.895,0.7 L -26.34,23.31 0.466,0.932 Z"
             style="fill:#ff4d4d;fill-opacity:1;fill-rule:nonzero;stroke:none"
             id="path30"
             inkscape:connector-curvature="0" /></g><g
           id="g32"
           transform="translate(112.5811,46.7686)"><path
             d="M 0,0 C 0,0 -6.714,4.068 -0.406,16.275 5.9,28.482 11.189,16.479 12.207,12.614 13.225,8.749 8.951,-8.138 0,0"
             style="fill:#6be273;fill-opacity:1;fill-rule:nonzero;stroke:none"
             id="path34"
             inkscape:connector-curvature="0" /></g><g
           id="g36"
           transform="translate(19.5688,60.9561)"><path
             d="m 0,0 c 0,0 4.888,16.696 8.504,13.942 0,0 7.813,-7.415 4.783,-22.334 0,0 -3.963,-11.887 -11.889,-3.03 0,0 -2.796,11.655 -1.398,11.422"
             style="fill:#6be273;fill-opacity:1;fill-rule:nonzero;stroke:none"
             id="path38"
             inkscape:connector-curvature="0" /></g></g></g><g
       id="g40"><g
         id="g42"
         clip-path="url(#clipPath46)"><g
           id="g48"
           transform="translate(100.875,61.875)"><path
             d="M 0,0 -29.25,26.375 -58.625,0.125 -51.375,0 l 20.5,18.75 c 0,0 1.75,1.75 3.25,-0.125 L -7.375,0 Z"
             style="fill:none;stroke:#02041c;stroke-width:1;stroke-linecap:round;stroke-linejoin:round;stroke-miterlimit:10;stroke-dasharray:none;stroke-opacity:1"
             id="path50"
             inkscape:connector-curvature="0" /></g><g
           id="g52"
           transform="translate(93.5,61.875)"><path
             d="M 0,0 V -25.375"
             style="fill:none;stroke:#02041c;stroke-width:1;stroke-linecap:round;stroke-linejoin:round;stroke-miterlimit:10;stroke-dasharray:none;stroke-opacity:1"
             id="path54"
             inkscape:connector-curvature="0" /></g><g
           id="g56"
           transform="translate(49.5,61.875)"><path
             d="M 0,0 V -25.625"
             style="fill:none;stroke:#02041c;stroke-width:1;stroke-linecap:round;stroke-linejoin:round;stroke-miterlimit:10;stroke-dasharray:none;stroke-opacity:1"
             id="path58"
             inkscape:connector-curvature="0" /></g><g
           id="g60"
           transform="translate(76,43.5)"><path
             d="m 0,0 v 12.75 c 0,0 1.625,-0.375 1.625,1 v 1.375 c 0,0 -0.125,1.125 -1.875,1.25 h -9.375 c 0,0 -1.125,-0.375 -1.125,-1.625 v -1.625 c 0,0 0.25,-0.625 1.25,-0.625 L -9.625,0 Z"
             style="fill:none;stroke:#02041c;stroke-width:1;stroke-linecap:round;stroke-linejoin:round;stroke-miterlimit:10;stroke-dasharray:none;stroke-opacity:1"
             id="path62"
             inkscape:connector-curvature="0" /></g><g
           id="g64"
           transform="translate(79.25,35.875)"><path
             d="m 0,0 v 2.375 c 0,0 -0.375,1.25 -1.5,1.125 L -2.125,3.375 V 5.75 c 0,0 0.875,1.25 -1,1.375 h -9.5 c 0,0 -1.25,0.125 -1.375,-1.375 V 3.375 c 0,0 -1.375,0.125 -1.5,-1.125 v -2.375 z"
             style="fill:none;stroke:#02041c;stroke-width:1;stroke-linecap:round;stroke-linejoin:round;stroke-miterlimit:10;stroke-dasharray:none;stroke-opacity:1"
             id="path66"
             inkscape:connector-curvature="0" /></g><g
           id="g68"
           transform="translate(75.667,72.833)"><path
             d="m 0,0 c 0,-2.209 -1.791,-4 -4,-4 -2.209,0 -4,1.791 -4,4 0,2.209 1.791,4 4,4 2.209,0 4,-1.791 4,-4 z"
             style="fill:none;stroke:#02041c;stroke-width:1;stroke-linecap:round;stroke-linejoin:round;stroke-miterlimit:10;stroke-dasharray:none;stroke-opacity:1"
             id="path70"
             inkscape:connector-curvature="0" /></g><g
           id="g72"
           transform="translate(80.5,64.166)"><path
             d="M 0,0 C 0,-0.92 -0.746,-1.666 -1.666,-1.666 H -16.333 C -17.254,-1.666 -18,-0.92 -18,0 c 0,0.921 0.746,1.667 1.667,1.667 H -1.666 C -0.746,1.667 0,0.921 0,0 Z"
             style="fill:none;stroke:#02041c;stroke-width:1;stroke-linecap:round;stroke-linejoin:round;stroke-miterlimit:10;stroke-dasharray:none;stroke-opacity:1"
             id="path74"
             inkscape:connector-curvature="0" /></g><g
           id="g76"
           transform="translate(12.3335,90)"><path
             d="m 0,0 5.833,0.167 c 0,0 1.333,11.5 11.5,11.333 C 27.5,11.333 28.667,3.167 28.667,3.167"
             style="fill:none;stroke:#02041c;stroke-width:1;stroke-linecap:round;stroke-linejoin:round;stroke-miterlimit:10;stroke-dasharray:none;stroke-opacity:1"
             id="path78"
             inkscape:connector-curvature="0" /></g><g
           id="g80"
           transform="translate(30.8335,82.6665)"><path
             d="m 0,0 2.167,0.167 c 0,0 0.666,3.333 3.333,2.666 2.667,-0.666 2.667,-3 2.667,-3"
             style="fill:none;stroke:#02041c;stroke-width:1;stroke-linecap:round;stroke-linejoin:round;stroke-miterlimit:10;stroke-dasharray:none;stroke-opacity:1"
             id="path82"
             inkscape:connector-curvature="0" /></g><g
           id="g84"
           transform="translate(36.3335,85.5)"><path
             d="m 0,0 c 0,0 0.5,7.833 6.5,8.667 6,0.833 9.333,-5.167 9.167,-7.5"
             style="fill:none;stroke:#02041c;stroke-width:1;stroke-linecap:round;stroke-linejoin:round;stroke-miterlimit:10;stroke-dasharray:none;stroke-opacity:1"
             id="path86"
             inkscape:connector-curvature="0" /></g><g
           id="g88"
           transform="translate(49.3335,82.8335)"><path
             d="M 0,0 C 0,0 0,2.667 1.667,3 3.333,3.333 5.167,0.833 5,0 l 5,0.167"
             style="fill:none;stroke:#02041c;stroke-width:1;stroke-linecap:round;stroke-linejoin:round;stroke-miterlimit:10;stroke-dasharray:none;stroke-opacity:1"
             id="path90"
             inkscape:connector-curvature="0" /></g><g
           id="g92"
           transform="translate(130.666,90)"><path
             d="m 0,0 -5.834,0.167 c 0,0 -1.332,11.5 -11.5,11.333 C -27.5,11.333 -28.667,3.167 -28.667,3.167"
             style="fill:none;stroke:#02041c;stroke-width:1;stroke-linecap:round;stroke-linejoin:round;stroke-miterlimit:10;stroke-dasharray:none;stroke-opacity:1"
             id="path94"
             inkscape:connector-curvature="0" /></g><g
           id="g96"
           transform="translate(112.166,82.6665)"><path
             d="m 0,0 -2.167,0.167 c 0,0 -0.667,3.333 -3.333,2.666 -2.667,-0.666 -2.667,-3 -2.667,-3"
             style="fill:none;stroke:#02041c;stroke-width:1;stroke-linecap:round;stroke-linejoin:round;stroke-miterlimit:10;stroke-dasharray:none;stroke-opacity:1"
             id="path98"
             inkscape:connector-curvature="0" /></g><g
           id="g100"
           transform="translate(106.666,85.5)"><path
             d="m 0,0 c 0,0 -0.5,7.833 -6.5,8.667 -6,0.833 -9.334,-5.167 -9.167,-7.5"
             style="fill:none;stroke:#02041c;stroke-width:1;stroke-linecap:round;stroke-linejoin:round;stroke-miterlimit:10;stroke-dasharray:none;stroke-opacity:1"
             id="path102"
             inkscape:connector-curvature="0" /></g><g
           id="g104"
           transform="translate(93.666,82.8335)"><path
             d="M 0,0 C 0,0 0,2.667 -1.667,3 -3.334,3.333 -5.168,0.833 -5,0 l -5,0.167"
             style="fill:none;stroke:#02041c;stroke-width:1;stroke-linecap:round;stroke-linejoin:round;stroke-miterlimit:10;stroke-dasharray:none;stroke-opacity:1"
             id="path106"
             inkscape:connector-curvature="0" /></g><g
           id="g108"
           transform="translate(47.1665,36.667)"><path
             d="m 0,0 v 2.5 c 0,0 0.167,2 2,1.5 l 15.667,0.333"
             style="fill:none;stroke:#02041c;stroke-width:1;stroke-linecap:round;stroke-linejoin:round;stroke-miterlimit:10;stroke-dasharray:none;stroke-opacity:1"
             id="path110"
             inkscape:connector-curvature="0" /></g><g
           id="g112"
           transform="translate(95.333,36.5)"><path
             d="m 0,0 v 2.5 c 0,0 -0.167,2 -2,1.5 l -15.667,0.333"
             style="fill:none;stroke:#02041c;stroke-width:1;stroke-linecap:round;stroke-linejoin:round;stroke-miterlimit:10;stroke-dasharray:none;stroke-opacity:1"
             id="path114"
             inkscape:connector-curvature="0" /></g><g
           id="g116"
           transform="translate(118.7256,36.248)"><path
             d="m 0,0 v 2.33 c 0,0 6.994,0.932 8.858,2.565 l -6.06,6.06 6.06,0.233 -6.294,6.527 3.73,0.467 -4.429,4.427 3.73,0.235 c 0,0 -6.76,5.361 -7.459,14.451 0,0 -2.331,-11.654 -6.294,-15.15 l 2.797,0.464 -4.895,-5.361 4.895,0.699 -6.76,-7.459 6.06,0.467 -6.06,-6.527 c 0,0 5.361,-1.399 8.625,-1.166 l -0.233,-3.496"
             style="fill:none;stroke:#02041c;stroke-width:1;stroke-linecap:round;stroke-linejoin:round;stroke-miterlimit:10;stroke-dasharray:none;stroke-opacity:1"
             id="path118"
             inkscape:connector-curvature="0" /></g><g
           id="g120"
           transform="translate(29.4487,36.0146)"><path
             d="m 0,0 v 2.33 c 0,0 6.994,0.932 8.858,2.565 l -6.06,6.06 6.06,0.233 -6.294,6.527 3.73,0.467 -4.429,4.427 3.73,0.235 c 0,0 -6.76,5.361 -7.459,14.451 0,0 -2.331,-11.654 -6.294,-15.15 l 2.797,0.464 -4.895,-5.361 4.895,0.699 -6.76,-7.459 6.06,0.467 -6.06,-6.527 c 0,0 5.361,-1.399 8.625,-1.166 l -0.233,-3.496"
             style="fill:none;stroke:#02041c;stroke-width:1;stroke-linecap:round;stroke-linejoin:round;stroke-miterlimit:10;stroke-dasharray:none;stroke-opacity:1"
             id="path122"
             inkscape:connector-curvature="0" /></g><g
           id="g124"
           transform="translate(68.5,56.166)"><path
             d="M 0,0 H 5"
             style="fill:none;stroke:#02041c;stroke-width:1;stroke-linecap:round;stroke-linejoin:round;stroke-miterlimit:10;stroke-dasharray:none;stroke-opacity:1"
             id="path126"
             inkscape:connector-curvature="0" /></g><g
           id="g128"
           transform="translate(68.833,49.25)"><path
             d="m 0,0 c 0,-0.23 -0.187,-0.417 -0.417,-0.417 -0.229,0 -0.416,0.187 -0.416,0.417 0,0.229 0.187,0.416 0.416,0.416 C -0.187,0.416 0,0.229 0,0 Z"
             style="fill:none;stroke:#02041c;stroke-width:1;stroke-linecap:round;stroke-linejoin:round;stroke-miterlimit:10;stroke-dasharray:none;stroke-opacity:1"
             id="path130"
             inkscape:connector-curvature="0" /></g><g
           id="g132"
           transform="translate(67.1665,39.25)"><path
             d="M 0,0 8.167,0.083"
             style="fill:none;stroke:#02041c;stroke-width:1;stroke-linecap:round;stroke-linejoin:round;stroke-miterlimit:10;stroke-dasharray:none;stroke-opacity:1"
             id="path134"
             inkscape:connector-curvature="0" /></g></g></g><g
       id="g136"><g
         id="g138"
         clip-path="url(#clipPath142)"><g
           id="g144"
           transform="translate(71.5,88.5)"><path
             d="m 0,0 -29.25,-26.25 6.75,-0.5 0.25,-20.5 c 0,0 -2.75,0.25 -2.25,-4.5 0,0 0.875,5.5 2.375,3.25 l -0.25,-4.125 h 0.625 l 0.125,4.125 14.875,0.75 0.25,-1.375 c 0,0 -1.5,-1.25 -1.25,-3.625 0,0 0.625,3.5 1.875,3.5 0,0 0,3.375 1.25,3.375 l 9.125,0.25 c 0,0 0.75,-0.25 0.75,-1.5 L 5.625,-49.5 c 0,0 1.75,0.25 1.75,-1.625 L 7.5,-53 6.125,-47.875 21.562,-48.6 22,-52.375 l 0.125,4 c 0,0 1.625,-0.625 1.5,-4.125 0,0 1.5,4.25 -1.125,5 l -0.125,20.625 h 7.25 L 0.5,-0.125 c 0,0 25.25,-24.5 27.375,-25.75 L 22.25,-26 c 0,0 -20.875,20.25 -22.5,19.75 0,0 21.75,-19.75 21.75,-20.75 V -47.625 L 6.375,-47 c 0,0 -0.625,2.375 -2.25,2.25 l -9.5,0.25 c 0,0 -1,-1.25 -0.75,-2.75 l -15.375,-0.375 -0.125,20.5 c 0,0 20.75,20.25 22,19.75 0,0 3.25,4.625 -22.5,-18.25 L -28,-25.875 C -28,-25.875 0.125,-1 0,0"
             style="fill:#02041c;fill-opacity:1;fill-rule:nonzero;stroke:none"
             id="path146"
             inkscape:connector-curvature="0" /></g><g
           id="g148"
           transform="translate(75.5,39.5)"><path
             d="m 0,0 -8.625,0.25 c 0,0 6.882,-0.875 8.625,-0.25"
             style="fill:#02041c;fill-opacity:1;fill-rule:nonzero;stroke:none"
             id="path150"
             inkscape:connector-curvature="0" /></g><g
           id="g152"
           transform="translate(66.375,55.75)"><path
             d="m 0,0 -0.125,-12.375 0.75,12.75 c 0,0 -0.5,2.458 3,3.958 3.5,1.5 5.75,-3.833 5.75,-3.833 L 9.25,-12 c -1,0 -0.625,12.625 -0.625,12.625 0,0 -1.333,3.876 -3.917,3.292 C 2.125,3.333 0.542,2.167 0,0"
             style="fill:#02041c;fill-opacity:1;fill-rule:nonzero;stroke:none"
             id="path154"
             inkscape:connector-curvature="0" /></g><g
           id="g156"
           transform="translate(71.5,77.1875)"><path
             d="m 0,0 c 0,0 -4,-0.75 -3.938,-4.812 0.063,-4.063 3.438,-4.501 6.626,-3.376 3.187,1.126 3.062,7.251 -1.751,8.375 0,0 -0.468,0.125 -0.75,0 0,0 4.657,-0.406 4.344,-5.781 0,0 -1.343,-4.531 -6.906,-2.187 0,0 -4.594,4.406 2.375,7.781"
             style="fill:#02041c;fill-opacity:1;fill-rule:nonzero;stroke:none"
             id="path158"
             inkscape:connector-curvature="0" /></g><g
           id="g160"
           transform="translate(79.3838,36.1875)"><path
             d="m 0,0 -15.634,-0.437 c 0,0 15.143,-0.25 15.634,0.437"
             style="fill:#02041c;fill-opacity:1;fill-rule:nonzero;stroke:none"
             id="path162"
             inkscape:connector-curvature="0" /></g><g
           id="g164"
           transform="translate(34.4331,89.542)"><path
             d="m 0,0 c 0,0 0.059,-0.064 0.189,-0.152 0.134,-0.074 0.347,-0.203 0.637,-0.173 0.14,-0.001 0.293,0.068 0.448,0.128 0.134,0.113 0.318,0.177 0.44,0.347 0.283,0.288 0.55,0.675 0.758,1.134 0.219,0.459 0.417,0.982 0.678,1.515 0.256,0.532 0.565,1.1 1.055,1.549 0.24,0.23 0.56,0.377 0.893,0.44 C 5.439,4.825 5.783,4.762 6.099,4.633 6.423,4.516 6.714,4.332 7.002,4.141 7.29,3.961 7.567,3.741 7.824,3.514 8.345,3.06 8.819,2.54 9.173,1.949 9.374,1.667 9.487,1.339 9.626,1.03 9.753,0.734 9.873,0.42 10.113,0.338 c 0.23,-0.09 0.518,0.042 0.753,0.21 0.239,0.171 0.454,0.378 0.655,0.587 0.196,0.219 0.387,0.43 0.572,0.636 0.106,0.1 0.161,0.211 0.322,0.296 0.106,0.078 0.23,0.136 0.388,0.154 0.574,0.078 1.046,-0.112 1.405,-0.346 C 14.565,1.638 14.83,1.367 14.996,1.11 15.194,0.876 15.255,0.635 15.334,0.496 15.402,0.349 15.438,0.271 15.438,0.271 L 15.415,0.262 c 0,0 -0.042,0.074 -0.121,0.215 C 15.205,0.609 15.129,0.838 14.917,1.05 14.736,1.284 14.478,1.539 14.129,1.746 13.793,1.958 13.308,2.097 12.866,2.02 12.813,2.007 12.759,2.003 12.704,1.987 L 12.538,1.878 C 12.452,1.844 12.364,1.704 12.276,1.61 12.1,1.398 11.909,1.18 11.707,0.96 11.501,0.743 11.28,0.525 11.017,0.335 10.765,0.159 10.409,-0.052 10.016,0.098 9.831,0.171 9.702,0.324 9.606,0.483 9.51,0.643 9.476,0.781 9.399,0.95 9.272,1.247 9.168,1.559 8.985,1.837 8.668,2.419 8.226,2.946 7.732,3.413 7.482,3.646 7.227,3.862 6.939,4.053 6.662,4.249 6.382,4.437 6.071,4.56 5.765,4.692 5.43,4.733 5.112,4.696 4.799,4.633 4.512,4.477 4.296,4.249 3.852,3.805 3.596,3.232 3.344,2.708 3.102,2.175 2.891,1.658 2.656,1.194 2.428,0.717 2.15,0.324 1.827,0.031 1.691,-0.137 1.481,-0.208 1.333,-0.318 1.158,-0.378 0.984,-0.444 0.828,-0.428 0.506,-0.433 0.293,-0.276 0.163,-0.189 c -0.129,0.104 -0.182,0.172 -0.182,0.172 z"
             style="fill:#000000;fill-opacity:1;fill-rule:nonzero;stroke:none"
             id="path166"
             inkscape:connector-curvature="0" /></g><g
           id="g168"
           transform="translate(28.9907,89.5376)"><path
             d="M 0,0 C 0,0 0.018,0.107 0.078,0.289 0.14,0.467 0.246,0.724 0.448,0.987 0.63,1.261 0.939,1.534 1.333,1.673 1.717,1.824 2.156,1.884 2.591,1.837 2.813,1.828 3.024,1.771 3.23,1.7 3.442,1.645 3.625,1.537 3.807,1.442 4.179,1.261 4.457,0.996 4.711,0.796 5.18,0.346 5.442,0.005 5.442,0.005 L 5.424,-0.013 c 0,0 -0.357,0.246 -0.85,0.64 C 4.441,0.714 4.299,0.807 4.155,0.916 4.015,1.031 3.848,1.119 3.68,1.216 3.513,1.318 3.343,1.428 3.151,1.496 2.967,1.587 2.775,1.667 2.57,1.702 2.369,1.775 2.159,1.756 1.952,1.755 1.754,1.706 1.55,1.67 1.391,1.552 1.216,1.467 1.09,1.322 0.95,1.22 0.83,1.091 0.705,0.983 0.609,0.86 0.215,0.382 0.023,-0.008 0.023,-0.008 Z"
             style="fill:#000000;fill-opacity:1;fill-rule:nonzero;stroke:none"
             id="path170"
             inkscape:connector-curvature="0" /></g><g
           id="g172"
           transform="translate(99.0938,80.8677)"><path
             d="m 0,0 c 0.001,0 0.085,-0.094 0.272,-0.225 0.193,-0.109 0.502,-0.303 0.929,-0.264 0.206,-0.004 0.433,0.093 0.662,0.178 0.198,0.162 0.472,0.255 0.654,0.5 C 2.94,0.604 3.326,1.17 3.628,1.84 3.946,2.508 4.231,3.265 4.613,4.034 4.991,4.797 5.411,5.627 6.11,6.278 6.452,6.611 6.906,6.833 7.388,6.918 7.879,6.969 8.374,6.877 8.828,6.69 9.05,6.584 9.29,6.508 9.5,6.376 l 0.627,-0.403 c 0.416,-0.262 0.812,-0.579 1.184,-0.911 0.747,-0.66 1.425,-1.414 1.928,-2.269 0.286,-0.408 0.444,-0.88 0.642,-1.325 0.18,-0.429 0.349,-0.9 0.737,-1.042 0.378,-0.147 0.814,0.072 1.155,0.319 0.352,0.255 0.663,0.559 0.954,0.865 0.282,0.318 0.557,0.627 0.823,0.926 0.129,0.135 0.277,0.324 0.436,0.428 0.167,0.124 0.387,0.197 0.574,0.229 0.789,0.115 1.478,-0.177 1.994,-0.499 0.521,-0.332 0.89,-0.733 1.146,-1.088 0.254,-0.358 0.409,-0.668 0.5,-0.882 0.091,-0.215 0.14,-0.329 0.14,-0.329 l -0.024,-0.01 c 0,0 -0.054,0.111 -0.156,0.32 C 22.059,0.912 21.889,1.21 21.621,1.547 21.351,1.878 20.987,2.263 20.475,2.566 19.974,2.862 19.299,3.113 18.598,2.987 18.237,2.938 17.991,2.698 17.732,2.375 17.475,2.07 17.198,1.757 16.905,1.441 16.607,1.13 16.288,0.819 15.913,0.549 15.552,0.296 15.059,0.014 14.531,0.207 14.28,0.301 14.1,0.508 13.967,0.727 c -0.14,0.219 -0.195,0.43 -0.303,0.665 -0.189,0.431 -0.344,0.886 -0.613,1.29 -0.466,0.845 -1.113,1.606 -1.832,2.279 -0.364,0.337 -0.74,0.65 -1.156,0.924 l -0.61,0.41 C 9.249,6.429 9.016,6.507 8.8,6.616 8.354,6.808 7.867,6.869 7.404,6.814 6.948,6.72 6.525,6.503 6.206,6.175 5.552,5.534 5.152,4.712 4.796,3.948 4.449,3.172 4.143,2.425 3.803,1.755 3.475,1.071 3.071,0.508 2.618,0.082 2.428,-0.164 2.131,-0.266 1.92,-0.427 1.672,-0.515 1.426,-0.612 1.203,-0.593 0.743,-0.605 0.436,-0.385 0.246,-0.261 0.06,-0.115 -0.018,-0.017 -0.018,-0.017 Z"
             style="fill:#000000;fill-opacity:1;fill-rule:nonzero;stroke:none"
             id="path174"
             inkscape:connector-curvature="0" /></g><g
           id="g176"
           transform="translate(91.2285,80.8633)"><path
             d="M 0,0 C 0,0 0.032,0.153 0.128,0.41 0.226,0.664 0.388,1.026 0.679,1.401 0.812,1.598 0.995,1.781 1.198,1.964 1.417,2.128 1.653,2.298 1.937,2.396 2.202,2.528 2.51,2.569 2.808,2.636 3.114,2.644 3.429,2.694 3.739,2.63 4.057,2.61 4.358,2.522 4.65,2.416 4.954,2.333 5.215,2.177 5.475,2.038 6.008,1.778 6.409,1.396 6.781,1.116 7.13,0.805 7.388,0.512 7.578,0.319 7.761,0.119 7.865,0.005 7.865,0.005 L 7.848,-0.013 c 0,0 -0.123,0.095 -0.338,0.26 C 7.295,0.412 7.004,0.663 6.644,0.946 6.454,1.076 6.249,1.216 6.04,1.373 5.836,1.541 5.595,1.673 5.348,1.812 5.104,1.958 4.854,2.117 4.571,2.212 4.301,2.339 4.019,2.45 3.718,2.495 3.424,2.593 3.117,2.561 2.817,2.559 2.529,2.489 2.231,2.438 1.994,2.275 1.735,2.156 1.543,1.954 1.338,1.803 1.159,1.617 0.978,1.456 0.84,1.274 0.554,0.925 0.352,0.6 0.222,0.366 0.083,0.135 0.023,-0.008 0.023,-0.008 Z"
             style="fill:#000000;fill-opacity:1;fill-rule:nonzero;stroke:none"
             id="path178"
             inkscape:connector-curvature="0" /></g><g
           id="g180"
           transform="translate(87.7031,110.395)"><path
             d="M 0,0 C 0,0 0.045,-0.046 0.139,-0.108 0.236,-0.16 0.393,-0.25 0.6,-0.225 0.802,-0.208 1.033,-0.093 1.231,0.124 1.432,0.333 1.625,0.613 1.773,0.945 1.932,1.279 2.074,1.661 2.267,2.049 2.453,2.438 2.686,2.852 3.049,3.179 3.228,3.347 3.465,3.452 3.71,3.499 3.962,3.525 4.214,3.476 4.445,3.383 4.914,3.199 5.325,2.896 5.711,2.571 6.094,2.242 6.443,1.864 6.707,1.433 6.998,1.047 7.08,0.398 7.379,0.276 7.699,0.181 8.094,0.572 8.366,0.849 8.51,1.007 8.648,1.161 8.783,1.31 8.863,1.383 8.898,1.46 9.025,1.53 9.102,1.584 9.193,1.628 9.316,1.643 9.753,1.7 10.095,1.555 10.359,1.381 10.621,1.204 10.814,1.004 10.934,0.814 11.076,0.641 11.119,0.464 11.175,0.361 11.223,0.254 11.248,0.197 11.248,0.197 l -0.023,-0.01 c 0,0 -0.032,0.054 -0.09,0.155 -0.067,0.095 -0.124,0.261 -0.281,0.413 -0.133,0.166 -0.321,0.35 -0.573,0.497 C 10.039,1.404 9.684,1.499 9.379,1.442 9.311,1.442 9.23,1.406 9.148,1.34 9.097,1.322 9.027,1.216 8.966,1.149 8.84,0.994 8.699,0.835 8.552,0.674 8.401,0.514 8.239,0.354 8.045,0.212 7.859,0.083 7.59,-0.081 7.281,0.037 7.138,0.094 7.039,0.211 6.967,0.334 6.895,0.457 6.873,0.55 6.814,0.679 6.725,0.893 6.649,1.118 6.518,1.321 6.292,1.744 5.975,2.128 5.619,2.47 5.256,2.8 4.857,3.117 4.417,3.309 3.973,3.509 3.441,3.435 3.141,3.08 2.822,2.757 2.643,2.339 2.46,1.958 2.287,1.57 2.131,1.194 1.958,0.855 1.789,0.505 1.586,0.219 1.344,0.004 1.114,-0.212 0.838,-0.339 0.602,-0.329 c -0.24,0 -0.395,0.119 -0.489,0.184 -0.093,0.078 -0.131,0.128 -0.131,0.128 z"
             style="fill:#000000;fill-opacity:1;fill-rule:nonzero;stroke:none"
             id="path182"
             inkscape:connector-curvature="0" /></g><g
           id="g184"
           transform="translate(83.7324,110.3906)"><path
             d="M 0,0 C 0,0 0.01,0.079 0.047,0.215 0.089,0.348 0.16,0.54 0.308,0.735 0.437,0.94 0.672,1.141 0.967,1.234 1.254,1.336 1.572,1.38 1.895,1.356 2.219,1.343 2.533,1.226 2.795,1.08 3.068,0.947 3.271,0.753 3.455,0.602 3.793,0.267 3.971,0.005 3.971,0.005 L 3.953,-0.013 c 0,0 -0.273,0.166 -0.637,0.446 C 3.115,0.543 2.919,0.73 2.667,0.854 2.548,0.93 2.426,1.01 2.289,1.061 2.157,1.13 2.021,1.192 1.873,1.221 1.729,1.278 1.577,1.267 1.428,1.267 1.285,1.231 1.137,1.204 1.025,1.113 0.79,0.961 0.619,0.773 0.47,0.608 0.184,0.268 0.023,-0.008 0.023,-0.008 Z"
             style="fill:#000000;fill-opacity:1;fill-rule:nonzero;stroke:none"
             id="path186"
             inkscape:connector-curvature="0" /></g><g
           id="g188"
           transform="translate(118.9102,68.5908)"><path
             d="m 0,0 c -0.009,-0.014 -0.174,0.187 -0.59,0.401 -0.397,0.198 -1.121,0.488 -1.934,0.173 -0.396,-0.195 -0.697,-0.58 -1.089,-0.935 -0.392,-0.353 -0.756,-0.793 -1.161,-1.246 -0.418,-0.444 -0.772,-0.992 -1.194,-1.526 -0.357,-0.58 -0.792,-1.155 -1.124,-1.827 -0.736,-1.3 -1.354,-2.809 -1.794,-4.459 -0.434,-1.649 -0.656,-3.462 -0.505,-5.319 0.146,-1.857 0.683,-3.742 1.644,-5.446 0.469,-0.875 1.043,-1.659 1.762,-2.344 0.736,-0.655 1.602,-1.171 2.552,-1.453 1.911,-0.6 4.047,-0.086 5.613,1.072 1.633,1.15 2.469,3.003 3.143,4.722 0.657,1.75 0.993,3.55 0.99,5.259 -0.006,1.708 -0.311,3.313 -0.786,4.726 -0.462,1.423 -1.118,2.64 -1.766,3.667 -0.33,0.512 -0.64,0.99 -0.972,1.4 -0.316,0.422 -0.608,0.808 -0.905,1.13 C 1.321,-1.334 0.84,-0.843 0.505,-0.513 0.176,-0.179 0,0 0,0 m 0.018,0.018 c 0,0 0.178,-0.176 0.512,-0.505 0.339,-0.325 0.828,-0.81 1.403,-1.475 0.302,-0.318 0.601,-0.701 0.925,-1.12 0.339,-0.407 0.658,-0.883 0.996,-1.393 0.668,-1.022 1.351,-2.237 1.842,-3.669 0.507,-1.419 0.851,-3.049 0.82,-4.786 -0.017,-1.732 -0.376,-3.551 -1.061,-5.306 -0.695,-1.724 -1.574,-3.578 -3.228,-4.737 -1.571,-1.186 -3.738,-1.734 -5.698,-1.14 -0.974,0.275 -1.87,0.792 -2.633,1.452 -0.74,0.681 -1.358,1.509 -1.832,2.366 -0.99,1.725 -1.537,3.656 -1.689,5.537 -0.157,1.888 0.064,3.729 0.501,5.402 0.43,1.679 1.091,3.196 1.862,4.493 0.349,0.67 0.798,1.242 1.17,1.819 0.436,0.531 0.803,1.072 1.23,1.513 0.415,0.45 0.787,0.885 1.186,1.234 0.393,0.347 0.716,0.739 1.116,0.929 0.872,0.321 1.583,0.004 1.988,-0.198 0.417,-0.225 0.581,-0.429 0.59,-0.416"
             style="fill:#231f20;fill-opacity:1;fill-rule:nonzero;stroke:none"
             id="path190"
             inkscape:connector-curvature="0" /></g><g
           id="g192"
           transform="translate(116.7266,36.0205)"><path
             d="M 0,0 1.235,0.024 1.198,-0.014 C 1.104,1.771 1.077,3.56 1.037,5.346 0.993,7.133 0.988,8.92 0.982,10.707 l -0.044,5.358 -0.046,2.678 c -0.014,0.446 -0.032,0.892 -0.061,1.336 -0.015,0.222 -0.032,0.443 -0.06,0.663 -0.014,0.11 -0.029,0.22 -0.052,0.325 -0.01,0.09 -0.083,0.248 -0.073,0.223 C 0.551,21.223 0.492,20.934 0.456,20.738 0.418,20.521 0.392,20.3 0.369,20.078 0.323,19.636 0.296,19.189 0.271,18.744 0.219,17.853 0.207,16.96 0.202,16.066 L 0.215,10.707 C 0.239,8.92 0.212,7.133 0.186,5.346 0.159,3.563 0.122,1.779 0,0 m -0.025,-0.025 0.042,5.372 c 10e-4,1.787 -0.026,3.573 0.004,5.36 l 0.079,5.361 0.081,2.68 c 0.018,0.447 0.04,0.894 0.079,1.341 0.02,0.223 0.043,0.446 0.079,0.669 0.019,0.111 0.038,0.223 0.07,0.335 0.047,0.104 0.034,0.237 0.211,0.322 0.087,0.008 0.075,-0.008 0.135,-0.06 0.018,-0.031 0.035,-0.06 0.044,-0.088 0.022,-0.059 0.036,-0.115 0.05,-0.17 0.026,-0.113 0.043,-0.225 0.059,-0.336 0.032,-0.224 0.054,-0.447 0.073,-0.67 0.04,-0.446 0.066,-0.894 0.088,-1.34 0.044,-0.895 0.077,-1.788 0.095,-2.682 l 0.06,-5.361 0.048,-10.72 V -0.05 H 1.235 Z"
             style="fill:#231f20;fill-opacity:1;fill-rule:nonzero;stroke:none"
             id="path194"
             inkscape:connector-curvature="0" /></g><g
           id="g196"
           transform="translate(122.0059,50.959)"><path
             d="M 0,0 C -0.005,-0.006 0.03,-0.009 0.037,-0.081 0.042,-0.146 0.025,-0.227 -0.01,-0.325 -0.083,-0.521 -0.222,-0.78 -0.42,-1.065 -0.607,-1.358 -0.867,-1.669 -1.166,-1.982 -1.463,-2.298 -1.753,-2.653 -2.014,-3.035 -3.061,-4.554 -4.339,-5.882 -4.339,-5.881 l -0.019,0.014 c 0,0 0.213,0.414 0.618,0.975 0.398,0.567 0.985,1.277 1.621,1.944 0.32,0.331 0.609,0.688 0.848,1.049 0.237,0.361 0.468,0.688 0.684,0.955 0.205,0.273 0.383,0.496 0.483,0.663 0.055,0.081 0.087,0.153 0.095,0.196 0.018,0.041 -0.019,0.073 -0.012,0.071 z"
             style="fill:#231f20;fill-opacity:1;fill-rule:nonzero;stroke:none"
             id="path198"
             inkscape:connector-curvature="0" /></g><g
           id="g200"
           transform="translate(122.0059,54.0605)"><path
             d="M 0,0 C -0.005,-0.006 0.03,-0.009 0.037,-0.081 0.042,-0.146 0.025,-0.227 -0.01,-0.325 -0.083,-0.521 -0.222,-0.78 -0.42,-1.064 -0.607,-1.358 -0.868,-1.668 -1.166,-1.982 -1.463,-2.297 -1.754,-2.653 -2.014,-3.034 -3.062,-4.553 -4.339,-5.881 -4.339,-5.88 l -0.019,0.014 c 0,0 0.213,0.414 0.618,0.975 0.398,0.567 0.984,1.277 1.621,1.943 0.32,0.331 0.609,0.689 0.848,1.05 0.237,0.361 0.468,0.687 0.684,0.954 0.205,0.273 0.383,0.496 0.483,0.663 0.055,0.081 0.087,0.153 0.095,0.196 0.018,0.041 -0.019,0.073 -0.012,0.071 z"
             style="fill:#231f20;fill-opacity:1;fill-rule:nonzero;stroke:none"
             id="path202"
             inkscape:connector-curvature="0" /></g><g
           id="g204"
           transform="translate(112.6182,53.0117)"><path
             d="m 0,0 c 0.007,0.002 -0.029,-0.03 -0.013,-0.071 0.008,-0.043 0.04,-0.116 0.095,-0.196 0.102,-0.168 0.279,-0.39 0.484,-0.664 0.216,-0.265 0.448,-0.592 0.685,-0.954 0.238,-0.36 0.527,-0.718 0.848,-1.049 0.635,-0.667 1.222,-1.376 1.62,-1.943 0.405,-0.56 0.618,-0.976 0.618,-0.976 l -0.02,-0.013 c 0,-0.001 -1.277,1.328 -2.325,2.845 -0.26,0.382 -0.55,0.738 -0.846,1.053 -0.299,0.314 -0.559,0.624 -0.747,0.917 -0.198,0.284 -0.337,0.544 -0.411,0.739 -0.034,0.099 -0.051,0.18 -0.047,0.245 0.007,0.072 0.042,0.075 0.038,0.081 z"
             style="fill:#231f20;fill-opacity:1;fill-rule:nonzero;stroke:none"
             id="path206"
             inkscape:connector-curvature="0" /></g><g
           id="g208"
           transform="translate(112.6182,56.1143)"><path
             d="m 0,0 c 0.007,0.002 -0.029,-0.03 -0.013,-0.071 0.008,-0.043 0.04,-0.116 0.095,-0.196 0.102,-0.168 0.279,-0.39 0.484,-0.664 0.216,-0.265 0.448,-0.592 0.685,-0.954 0.238,-0.36 0.526,-0.718 0.848,-1.049 0.635,-0.667 1.222,-1.377 1.62,-1.943 0.405,-0.561 0.618,-0.976 0.618,-0.976 l -0.02,-0.013 c 0,-0.001 -1.277,1.327 -2.325,2.845 -0.26,0.382 -0.55,0.738 -0.846,1.053 -0.299,0.314 -0.559,0.624 -0.747,0.917 -0.198,0.284 -0.337,0.544 -0.411,0.739 -0.034,0.099 -0.051,0.18 -0.047,0.245 0.007,0.072 0.042,0.075 0.038,0.081 z"
             style="fill:#231f20;fill-opacity:1;fill-rule:nonzero;stroke:none"
             id="path210"
             inkscape:connector-curvature="0" /></g><g
           id="g212"
           transform="translate(28.0635,74.8906)"><path
             d="M 0,0 C -0.01,-0.012 -0.163,0.229 -0.589,0.519 -0.812,0.642 -1.095,0.807 -1.466,0.84 -1.83,0.885 -2.275,0.806 -2.602,0.425 -2.899,0.048 -3.229,-0.37 -3.587,-0.824 c -0.33,-0.478 -0.686,-0.995 -1.048,-1.559 -0.676,-1.157 -1.42,-2.481 -1.998,-4.027 -0.588,-1.538 -1.138,-3.245 -1.471,-5.103 -0.342,-1.854 -0.515,-3.849 -0.404,-5.904 0.108,-2.051 0.513,-4.17 1.299,-6.173 0.22,-0.494 0.441,-0.99 0.663,-1.488 0.275,-0.466 0.511,-0.96 0.858,-1.381 0.638,-0.87 1.461,-1.645 2.474,-2.06 1.005,-0.421 2.163,-0.423 3.178,-0.041 1.022,0.376 1.894,1.084 2.581,1.912 0.704,0.824 1.166,1.813 1.547,2.798 0.383,0.992 0.694,1.995 0.948,2.993 0.498,2.001 0.721,3.997 0.682,5.883 -0.051,1.888 -0.322,3.661 -0.729,5.256 -0.394,1.602 -0.968,3.01 -1.536,4.223 -0.579,1.209 -1.17,2.223 -1.696,3.029 C 1.242,-1.653 0.795,-1.04 0.476,-0.634 0.166,-0.22 0,0 0,0 m 0.02,0.016 c 0,0 0.168,-0.219 0.484,-0.628 0.325,-0.403 0.78,-1.009 1.312,-1.817 0.538,-0.802 1.144,-1.81 1.742,-3.017 0.587,-1.211 1.187,-2.617 1.608,-4.227 0.438,-1.599 0.745,-3.39 0.758,-5.297 0.02,-1.905 -0.224,-3.915 -0.748,-5.922 -0.266,-1.002 -0.591,-2.005 -0.985,-2.997 -0.392,-0.989 -0.878,-1.97 -1.585,-2.809 -0.687,-0.842 -1.563,-1.57 -2.605,-1.963 -1.033,-0.401 -2.228,-0.41 -3.267,0.015 -1.047,0.415 -1.901,1.2 -2.565,2.08 -0.359,0.427 -0.606,0.925 -0.892,1.397 -0.23,0.498 -0.458,0.995 -0.686,1.489 -0.816,2.04 -1.217,4.175 -1.334,6.249 -0.116,2.077 0.055,4.091 0.397,5.963 0.32,1.881 0.909,3.595 1.532,5.131 0.609,1.547 1.384,2.865 2.08,4.016 0.372,0.562 0.736,1.077 1.074,1.55 0.369,0.454 0.708,0.871 1.014,1.247 0.32,0.372 0.825,0.474 1.186,0.413 C -1.078,0.849 -0.793,0.677 -0.569,0.55 -0.141,0.249 0.009,0.004 0.02,0.016"
             style="fill:#231f20;fill-opacity:1;fill-rule:nonzero;stroke:none"
             id="path214"
             inkscape:connector-curvature="0" /></g><g
           id="g216"
           transform="translate(25.9741,36.126)"><path
             d="M 0,0 1.473,0.024 1.437,-0.014 C 1.332,2.111 1.299,4.238 1.256,6.364 1.209,8.491 1.203,10.617 1.195,12.744 l -0.053,6.377 -0.06,3.188 c -0.018,0.53 -0.04,1.06 -0.076,1.589 -0.018,0.264 -0.039,0.529 -0.071,0.79 -0.018,0.13 -0.036,0.261 -0.064,0.388 C 0.855,25.184 0.781,25.372 0.77,25.35 0.64,25.258 0.58,24.918 0.535,24.684 0.489,24.424 0.458,24.161 0.432,23.897 0.378,23.37 0.345,22.84 0.316,22.309 0.256,21.248 0.241,20.186 0.234,19.123 L 0.24,12.744 C 0.264,10.617 0.236,8.491 0.208,6.364 0.178,4.242 0.137,2.119 0,0 m -0.025,-0.012 c 0.046,2.126 0.057,4.251 0.064,6.377 0.003,2.126 -0.023,4.253 0.007,6.379 l 0.085,6.38 0.095,3.189 c 0.023,0.533 0.049,1.064 0.097,1.595 0.024,0.266 0.052,0.531 0.094,0.795 0.024,0.133 0.046,0.266 0.084,0.397 0.054,0.125 0.046,0.281 0.243,0.375 0.092,0.011 0.084,-0.01 0.147,-0.065 0.022,-0.037 0.041,-0.07 0.051,-0.104 0.027,-0.068 0.043,-0.134 0.059,-0.201 0.031,-0.132 0.05,-0.265 0.07,-0.398 0.038,-0.266 0.063,-0.531 0.086,-0.797 0.046,-0.531 0.076,-1.062 0.102,-1.595 0.05,-1.063 0.087,-2.126 0.108,-3.19 l 0.07,-6.38 C 1.486,8.492 1.427,4.24 1.51,-0.012 L 1.511,-0.05 H 1.473 l -1.498,0.025 z"
             style="fill:#231f20;fill-opacity:1;fill-rule:nonzero;stroke:none"
             id="path218"
             inkscape:connector-curvature="0" /></g><g
           id="g220"
           transform="translate(32.2573,53.9043)"><path
             d="M 0,0 C -0.006,-0.006 0.036,-0.013 0.042,-0.096 0.047,-0.17 0.025,-0.267 -0.019,-0.382 -0.108,-0.612 -0.277,-0.917 -0.514,-1.255 -0.74,-1.602 -1.046,-1.972 -1.396,-2.35 -1.744,-2.729 -2.089,-3.153 -2.404,-3.603 -3.674,-5.39 -5.162,-6.997 -5.162,-6.996 l -0.021,0.014 c 0,0 0.265,0.485 0.751,1.15 0.478,0.669 1.176,1.514 1.922,2.316 0.376,0.399 0.72,0.825 1.009,1.249 0.288,0.426 0.566,0.813 0.82,1.132 0.244,0.327 0.451,0.596 0.569,0.798 0.064,0.098 0.1,0.185 0.108,0.237 0.018,0.052 -0.026,0.088 -0.017,0.086 z"
             style="fill:#231f20;fill-opacity:1;fill-rule:nonzero;stroke:none"
             id="path222"
             inkscape:connector-curvature="0" /></g><g
           id="g224"
           transform="translate(32.2573,57.5947)"><path
             d="M 0,0 C -0.006,-0.006 0.036,-0.012 0.042,-0.095 0.047,-0.17 0.025,-0.266 -0.019,-0.381 -0.108,-0.611 -0.277,-0.916 -0.514,-1.254 -0.74,-1.601 -1.046,-1.971 -1.396,-2.35 -1.744,-2.729 -2.089,-3.152 -2.404,-3.602 -3.674,-5.389 -5.162,-6.996 -5.162,-6.995 l -0.021,0.014 c 0,0 0.265,0.485 0.751,1.15 0.478,0.669 1.176,1.514 1.922,2.316 0.376,0.399 0.72,0.825 1.009,1.249 0.288,0.426 0.566,0.813 0.82,1.132 0.244,0.327 0.451,0.595 0.569,0.797 0.064,0.098 0.1,0.185 0.108,0.237 0.018,0.053 -0.026,0.088 -0.017,0.086 z"
             style="fill:#231f20;fill-opacity:1;fill-rule:nonzero;stroke:none"
             id="path226"
             inkscape:connector-curvature="0" /></g><g
           id="g228"
           transform="translate(21.0869,56.3506)"><path
             d="m 0,0 c 0.008,0.002 -0.036,-0.034 -0.018,-0.086 0.008,-0.053 0.045,-0.14 0.108,-0.238 0.118,-0.201 0.326,-0.47 0.569,-0.797 0.254,-0.318 0.532,-0.706 0.82,-1.132 0.29,-0.425 0.633,-0.85 1.009,-1.249 0.746,-0.802 1.444,-1.647 1.922,-2.316 0.486,-0.665 0.751,-1.151 0.751,-1.151 L 5.14,-6.982 c 0,-10e-4 -1.487,1.606 -2.758,3.394 -0.315,0.448 -0.66,0.873 -1.008,1.252 -0.349,0.378 -0.656,0.748 -0.881,1.095 -0.238,0.338 -0.407,0.643 -0.496,0.873 -0.043,0.116 -0.065,0.212 -0.06,0.286 0.006,0.083 0.048,0.09 0.042,0.096 z"
             style="fill:#231f20;fill-opacity:1;fill-rule:nonzero;stroke:none"
             id="path230"
             inkscape:connector-curvature="0" /></g><g
           id="g232"
           transform="translate(21.0869,60.042)"><path
             d="m 0,0 c 0.008,0.002 -0.036,-0.034 -0.018,-0.086 0.008,-0.053 0.045,-0.14 0.108,-0.238 0.118,-0.201 0.326,-0.47 0.569,-0.797 0.254,-0.318 0.532,-0.706 0.82,-1.132 0.29,-0.425 0.633,-0.851 1.009,-1.249 0.746,-0.803 1.444,-1.647 1.922,-2.316 0.486,-0.665 0.751,-1.151 0.751,-1.151 L 5.14,-6.982 c 0,-10e-4 -1.487,1.606 -2.758,3.394 -0.315,0.449 -0.66,0.873 -1.008,1.252 -0.35,0.377 -0.656,0.748 -0.882,1.095 -0.237,0.338 -0.406,0.643 -0.495,0.873 -0.043,0.116 -0.066,0.212 -0.06,0.286 0.006,0.083 0.048,0.09 0.042,0.096 z"
             style="fill:#231f20;fill-opacity:1;fill-rule:nonzero;stroke:none"
             id="path234"
             inkscape:connector-curvature="0" /></g></g></g></g></svg>