<?xml version="1.0" encoding="UTF-8" standalone="no"?>
<!-- Created with Inkscape (http://www.inkscape.org/) -->

<svg
   xmlns:dc="http://purl.org/dc/elements/1.1/"
   xmlns:cc="http://creativecommons.org/ns#"
   xmlns:rdf="http://www.w3.org/1999/02/22-rdf-syntax-ns#"
   xmlns:svg="http://www.w3.org/2000/svg"
   xmlns="http://www.w3.org/2000/svg"
   xmlns:sodipodi="http://sodipodi.sourceforge.net/DTD/sodipodi-0.dtd"
   xmlns:inkscape="http://www.inkscape.org/namespaces/inkscape"
   version="1.1"
   id="svg2"
   xml:space="preserve"
   width="360.58655"
   height="546.29846"
   viewBox="0 0 360.58656 546.29848"
   sodipodi:docname="ice-cream.svg"
   inkscape:version="0.92.2 5c3e80d, 2017-08-06"><metadata
     id="metadata8"><rdf:RDF><cc:Work
         rdf:about=""><dc:format>image/svg+xml</dc:format><dc:type
           rdf:resource="http://purl.org/dc/dcmitype/StillImage" /><dc:title></dc:title></cc:Work></rdf:RDF></metadata><defs
     id="defs6"><clipPath
       clipPathUnits="userSpaceOnUse"
       id="clipPath18"><path
         d="M 0,1000 H 1000 V 0 H 0 Z"
         id="path16"
         inkscape:connector-curvature="0" /></clipPath><clipPath
       clipPathUnits="userSpaceOnUse"
       id="clipPath34"><path
         d="M 0,1000 H 1000 V 0 H 0 Z"
         id="path32"
         inkscape:connector-curvature="0" /></clipPath></defs><sodipodi:namedview
     pagecolor="#ffffff"
     bordercolor="#666666"
     borderopacity="1"
     objecttolerance="10"
     gridtolerance="10"
     guidetolerance="10"
     inkscape:pageopacity="0"
     inkscape:pageshadow="2"
     inkscape:window-width="1920"
     inkscape:window-height="1029"
     id="namedview4"
     showgrid="false"
     inkscape:zoom="1.1684766"
     inkscape:cx="-28.597746"
     inkscape:cy="325.65039"
     inkscape:window-x="0"
     inkscape:window-y="24"
     inkscape:window-maximized="1"
     inkscape:current-layer="g10" /><g
     id="g10"
     inkscape:groupmode="layer"
     inkscape:label="ice cream"
     transform="matrix(1.3333333,0,0,-1.3333333,-485.10302,897.03847)"><g
       id="g12"><g
         id="g14"
         clip-path="url(#clipPath18)"><g
           id="g20"
           transform="translate(556,488)"><path
             style="fill:#ff8989;fill-opacity:1;fill-rule:nonzero;stroke:none"
             d="m 0,0 c -0.66593783,10.191585 -7.3963067,17.779545 -12.8479,24.268188 0.644195,10.201414 -3.460785,19.304896 -9.195069,27.258179 -2.340334,11.963744 4.606875,24.716768 -1.545593,36.231949 -5.550195,11.180693 -17.507231,16.998844 -25.3255,26.108874 0.08897,8.26956 -7.544117,18.90847 -13.866211,8.13769 8.923398,-6.89125 7.502712,-18.22167 -4.178254,-20.8771 C -77.585669,96.366567 -87.885128,88.846 -91.117462,77.047943 -95.240526,66.047014 -94.960104,52.992572 -102.62793,43.580078 c -8.33888,-4.292487 -10.22817,-17.55277 -4.77795,-25.175156 7.77802,-12.3519822 22.840454,-15.8679069 34.05212,-23.9690089 -1.890967,-5.4731031 -16.9121,1.453727 -23.130615,1.8687744 -8.360135,4.05479543 -19.081675,4.7878456 -17.224605,-7.9492185 0.90604,-9.116091 -1.67669,-23.861532 7.91479,-28.222168 5.70855,5.917395 14.573548,16.719741 21.29419,4.366699 6.793221,-11.690815 11.347462,3.042224 11.612305,9.724609 9.178223,0.463381 6.393801,-22.378408 17.036133,-15.302734 0.709024,8.80585 8.419258,22.370125 16.80371,10.756836 14.04842,-4.975395 8.342642,22.854089 20.59961,20.119141 6.651689,-3.682715 11.2508624,-23.894337 15.0084105,-7.501976 1.7231761,6.191126 4.11198799,21.1512199 4.29412837,22.3027197 C 0.56680986,3.0662371 0.28271907,1.5332444 0,0 Z"
             id="path22"
             inkscape:connector-curvature="0" /></g><g
           id="g24"
           transform="translate(520.334,354.333)"><path
             style="fill:#ffd19c;fill-opacity:1;fill-rule:nonzero;stroke:none"
             d="M 0,0 C 3.1873525,21.099027 8.0692899,42.171356 8.0312031,63.583422 10.985493,77.197409 23.504125,86.022868 28.784199,98.520593 28.592951,110.39069 11.844012,103.43689 6.7226221,98.347628 -8.3046026,89.255464 -28.047361,84.591918 -44.16006,93.792217 c -8.294733,3.758452 -28.074474,7.359053 -27.331573,-6.649862 2.897064,-11.71555 20.689205,-11.286009 20.533242,-24.819574 3.18413,-19.673454 -4.407996,-40.453913 3.516817,-59.4183457 5.716313,-8.3877344 18.20964,-5.1064523 27.2259,-6.4910043 C -13.368057,-3.4925652 -6.2988754,-2.9001657 0,0 Z"
             id="path26"
             inkscape:connector-curvature="0" /></g></g></g><g
       id="g28"><g
         id="g30"
         clip-path="url(#clipPath34)"><g
           id="g36"
           transform="translate(508.3086,531.377)"><path
             style="fill:#514a4a;fill-opacity:1;fill-rule:nonzero;stroke:none"
             d="M 0,0 C 13.83277,1.3615946 31.409375,9.8548919 30.958,25.831 30.889814,40.886858 19.855451,52.713228 8.6315254,61.378096 0.92381809,66.843493 3.5469364,81.656375 -8.056,82.541 -12.679183,86.018405 -26.23405,75.089858 -23.377,78.414891 -8.3964709,84.29222 -7.5105767,63.973487 -18.854,59.029 -30.084538,50.806208 -42.927774,42.891572 -47.934,29.162 c -3.174204,-7.491038 -3.441032,-16.16622 -0.95,-23.805 -8.234128,16.634423 1.607084,36.831521 15.683859,47.028578 6.837171,6.260444 18.433948,10.08752 19.722891,20.432547 -0.02876,7.848966 -17.825074,-1.715707 -10.54975,7.5045 C -13.957319,89.136067 3.5159539,83.858423 4.30825,69.61325 7.9918364,58.69559 21.466912,55.378038 27.027,45.48 35.236825,34.597233 37.015051,16.614479 24.802,7.717 17.996488,2.4301364 7.9499016,-0.73252322 0,0 Z"
             id="path38"
             inkscape:connector-curvature="0" /></g><g
           id="g40"
           transform="translate(536.3213,543.5986)"><path
             style="fill:#514a4a;fill-opacity:1;fill-rule:nonzero;stroke:none"
             d="m 0,0 c 11.092952,-3.0119984 13.822705,-16.034974 13.33,-26.039 2.149877,-15.781507 -14.8504455,-30.122309 -29.916,-27.442 12.3178256,2.370209 25.3595302,10.767382 28.856758,23.432391 C 13.056161,-19.185488 8.4408257,-6.8270509 0,0 Z"
             id="path42"
             inkscape:connector-curvature="0" /></g><g
           id="g44"
           transform="translate(457.8467,539.9609)"><path
             style="fill:#514a4a;fill-opacity:1;fill-rule:nonzero;stroke:none"
             d="m 0,0 c -10.092676,-6.2800711 -16.204623,-19.383564 -13.9985,-31.094 4.7845299,-14.33663 20.4945187,-21.290116 34.3035,-23.439 -17.1346622,-3.310366 -37.083447,10.45671 -35.877,28.986 -1.130254,10.610671 4.315746,23.6466863 15.654,25.704 z"
             id="path46"
             inkscape:connector-curvature="0" /></g><g
           id="g48"
           transform="translate(447.5488,497.7402)"><path
             style="fill:#514a4a;fill-opacity:1;fill-rule:nonzero;stroke:none"
             d="m 0,0 c -8.5489547,-7.2281412 -14.50566,-20.397847 -7.905,-30.8365 6.5833701,-5.430921 8.49246522,-14.038903 14.563,-19.7045 3.695245,1.551842 2.9024075,11.125668 9.386,9.831 6.533147,0.08221 4.882249,-9.448868 10.911,-10.505 8.284179,-4.578682 9.570491,22.178505 14.660625,7.739016 C 39.287927,-53.453516 55.00422,-60.715335 53.495,-47.329 c 1.63663,10.033489 13.909415,2.793428 20.25575,5.443922 7.948242,2.329835 8.356056,11.671567 11.546,17.798578 7.143077,5.456785 11.040084,-6.210454 13.39825,-11.245375 4.95319,-2.059837 6.37594,8.496978 7.02562,12.02525 -0.57231,7.131864 4.59866,13.5194856 2.10738,20.721625 -1.1097,5.0923011 -4.09471,9.5835693 -7.015,13.679 7.78086,-7.0392375 12.27124,-19.2408379 7.312,-29.219 0.4252,-4.354224 0.0436,-16.889344 -6.771,-20.465 -8.535472,-2.316423 -6.346128,12.368074 -13.145,12.626 -3.294676,-4.234554 -3.026882,-12.479964 -8.616,-15.94 -6.225715,-6.190361 -15.386068,-1.380093 -22.343,-2.937 -0.796249,-6.515338 -6.577463,-17.598652 -13.863,-8.981 -2.809656,3.753678 -2.540442,21.587353 -7.780063,9.378781 C 34.463252,-57.545573 20.399089,-52.054832 17.903,-43.07 c -7.342629,2.892641 -5.046288,-9.450812 -10.924,-10.094 -9.7612968,3.146052 -7.32212282,14.544302 -14.522,17.394 -7.444661,8.565778 -6.530833,21.921951 1.069,30.053 C -4.7192658,-3.7724147 -2.0133003,-0.54349589 0,0 Z"
             id="path50"
             inkscape:connector-curvature="0" /></g><g
           id="g52"
           transform="translate(442.5747,461.0791)"><path
             style="fill:#514a4a;fill-opacity:1;fill-rule:nonzero;stroke:none"
             d="m 0,0 c 1.2680035,-8.7838437 1.110496,-19.21624 6.426,-26.494 4.329289,-5.171447 11.08216,-7.852203 15.856,-12.11 2.181404,-22.722054 2.307645,-45.776726 7.208,-68.139 0.167176,-7.04862 7.904058,-6.85743 12.920734,-7.72884 11.439754,-0.98295 23.98917,-2.20105 34.525641,3.24071 4.332092,3.48141 3.450878,10.00177 4.804805,15.002458 2.864354,20.082965 4.669095,40.296593 6.86382,60.459672 6.397186,6.582974 16.14213,11.304766 18.04813,21.1575 2.5541,7.6978069 3.40503,16.8767129 5.12287,24.0935 -0.936,-10.9664102 -1.40761,-22.540562 -6.443,-32.545 -5.16321,-9.382213 -17.392032,-10.355338 -14.554094,-20.77817 -2.179661,-21.487628 -3.573275,-43.261309 -8.78483,-64.27718 -2.732133,-8.31816 -13.666958,-8.31807 -20.926209,-8.73627 -10.088407,0.33603 -21.074142,0.15087 -30.220867,4.69262 -5.404234,11.65335 -5.805517,25.007447 -7.933752,37.562281 C 21.341857,-62.704155 20.401691,-50.735199 19.732,-38.758 18.042662,-39.343497 8.493293,-32.147026 5.10148,-28.045308 -0.70400727,-20.137221 0.27109712,-9.3244984 -0.3,-0.01 l 0.152,0.149 z"
             id="path54"
             inkscape:connector-curvature="0" /></g><g
           id="g56"
           transform="translate(476.5264,420.4023)"><path
             style="fill:#514a4a;fill-opacity:1;fill-rule:nonzero;stroke:none"
             d="M 0,0 C 2.6786769,-14.368837 0.79668123,-29.049224 3.1474063,-43.46225 3.8253886,-52.393467 4.490121,-62.083211 3.575,-70.61 0.15976959,-51.778697 2.3126702,-32.561909 -0.260875,-13.664875 -0.33332897,-9.2382602 -0.75869752,-3.9860834 0,0 Z"
             id="path58"
             inkscape:connector-curvature="0" /></g><g
           id="g60"
           transform="translate(490.1836,417.2324)"><path
             style="fill:#514a4a;fill-opacity:1;fill-rule:nonzero;stroke:none"
             d="M 0,0 C 2.661003,-14.028552 0.76122138,-28.370406 3.0941719,-42.443781 3.7610323,-51.164382 4.4135239,-60.642238 3.488,-68.959 0.09682566,-50.572655 2.2719148,-31.798915 -0.2775,-13.346375 -0.34552137,-9.0268196 -0.76408177,-3.8779851 0,0 Z"
             id="path62"
             inkscape:connector-curvature="0" /></g><g
           id="g64"
           transform="translate(503.0488,416.6191)"><path
             style="fill:#514a4a;fill-opacity:1;fill-rule:nonzero;stroke:none"
             d="M 0,0 C 2.7180591,-12.879968 0.92074551,-26.122866 3.3169688,-39.052859 3.9704169,-46.090128 4.9279577,-58.727545 3.71875,-62.7635 0.38920631,-46.101668 2.4189838,-29.020668 -0.20675,-12.298625 -0.273214,-8.3699339 -0.76018422,-3.509049 0,0 Z"
             id="path66"
             inkscape:connector-curvature="0" /></g><g
           id="g68"
           transform="translate(517.5693,409.6094)"><path
             style="fill:#514a4a;fill-opacity:1;fill-rule:nonzero;stroke:none"
             d="M 0,0 C 1.8267062,-9.8828232 1.127898,-20.006884 2.486875,-29.99875 2.7026993,-33.909139 1.723278,-41.468367 0.86898438,-32.705734 -0.11471829,-22.965693 0.42299535,-13.19401 -0.58125,-3.475375 0.11100925,-3.4581517 -1.0872533,0.33007598 0,0 Z"
             id="path70"
             inkscape:connector-curvature="0" /></g></g></g></g></svg>