<?xml version="1.0" encoding="UTF-8" standalone="no"?>
<!-- Created with Inkscape (http://www.inkscape.org/) -->

<svg
   xmlns:dc="http://purl.org/dc/elements/1.1/"
   xmlns:cc="http://creativecommons.org/ns#"
   xmlns:rdf="http://www.w3.org/1999/02/22-rdf-syntax-ns#"
   xmlns:svg="http://www.w3.org/2000/svg"
   xmlns="http://www.w3.org/2000/svg"
   xmlns:sodipodi="http://sodipodi.sourceforge.net/DTD/sodipodi-0.dtd"
   xmlns:inkscape="http://www.inkscape.org/namespaces/inkscape"
   version="1.1"
   id="svg2"
   xml:space="preserve"
   width="1111.1365"
   height="1025.5549"
   viewBox="0 0 1111.1365 1025.555"
   sodipodi:docname="moon.svg"
   inkscape:version="0.92.2 5c3e80d, 2017-08-06"><metadata
     id="metadata8"><rdf:RDF><cc:Work
         rdf:about=""><dc:format>image/svg+xml</dc:format><dc:type
           rdf:resource="http://purl.org/dc/dcmitype/StillImage" /><dc:title></dc:title></cc:Work></rdf:RDF></metadata><defs
     id="defs6"><clipPath
       clipPathUnits="userSpaceOnUse"
       id="clipPath18"><path
         d="M 0,1000 H 1000 V 0 H 0 Z"
         id="path16"
         inkscape:connector-curvature="0" /></clipPath><clipPath
       clipPathUnits="userSpaceOnUse"
       id="clipPath42"><path
         d="M 0,1000 H 1000 V 0 H 0 Z"
         id="path40"
         inkscape:connector-curvature="0" /></clipPath></defs><sodipodi:namedview
     pagecolor="#ffffff"
     bordercolor="#666666"
     borderopacity="1"
     objecttolerance="10"
     gridtolerance="10"
     guidetolerance="10"
     inkscape:pageopacity="0"
     inkscape:pageshadow="2"
     inkscape:window-width="1920"
     inkscape:window-height="1029"
     id="namedview4"
     showgrid="false"
     inkscape:zoom="0.58423832"
     inkscape:cx="244.90732"
     inkscape:cy="499.92685"
     inkscape:window-x="0"
     inkscape:window-y="24"
     inkscape:window-maximized="1"
     inkscape:current-layer="g10" /><g
     id="g10"
     inkscape:groupmode="layer"
     inkscape:label="moon"
     transform="matrix(1.3333333,0,0,-1.3333333,-111.09841,1192.2947)"><g
       id="g912"
       transform="translate(0.21018198)"><g
         id="g12"><g
           clip-path="url(#clipPath18)"
           id="g14"><g
             transform="translate(302.7095,558.1509)"
             id="g20"><path
               inkscape:connector-curvature="0"
               id="path22"
               style="fill:#e1f7ff;fill-opacity:1;fill-rule:nonzero;stroke:none"
               d="M 0,0 C 0,0 13.474,113.046 138.588,145.865 263.703,178.684 406.14,91.166 411.916,-34.643 417.689,-160.45 317.599,-295.375 153.987,-258.909 153.987,-258.909 -23.098,-198.739 0,0" /></g><g
             transform="translate(585,702.769)"
             id="g24"><path
               inkscape:connector-curvature="0"
               id="path26"
               style="fill:#d2f1ff;fill-opacity:1;fill-rule:nonzero;stroke:none"
               d="m 0,0 c 0,0 47.693,-46.154 46.154,-60 -1.539,-13.846 -10.769,-47.692 -1.539,-61.538 9.231,-13.846 35.386,-26.154 21.539,-50.77 C 52.308,-196.923 7.692,-220 3.077,-210.769 c -4.615,9.231 -9.23,-24.616 4.615,-30.77 13.846,-6.153 40,-59.999 20,-63.076 -20,-3.077 -24.615,18.461 -44.615,-18.462 -20,-36.923 -38.463,-41.539 -49.231,-38.462 -10.769,3.078 -75.385,-44.614 -120,-23.076 0,0 127.692,-75.385 255.384,44.615 0,0 90.769,84.616 44.616,220 0,0 -35.384,83.077 -113.846,120" /></g><g
             transform="translate(408.0771,454.3076)"
             id="g28"><path
               inkscape:connector-curvature="0"
               id="path30"
               style="fill:#d2f1ff;fill-opacity:1;fill-rule:nonzero;stroke:none"
               d="m 0,0 c 0,-11.471 -9.643,-20.77 -21.539,-20.77 -11.895,0 -21.538,9.299 -21.538,20.77 0,11.471 9.643,20.77 21.538,20.77 C -9.643,20.77 0,11.471 0,0" /></g><g
             transform="translate(415.769,656.6152)"
             id="g32"><path
               inkscape:connector-curvature="0"
               id="path34"
               style="fill:#d2f1ff;fill-opacity:1;fill-rule:nonzero;stroke:none"
               d="M 0,0 C 0,0 18.461,30.769 41.539,33.846 64.616,36.923 83.078,4.615 72.308,1.539 61.539,-1.538 6.154,-29.231 0,0" /></g></g></g><g
         id="g36"><g
           clip-path="url(#clipPath42)"
           id="g38"><g
             transform="translate(714.3848,506.4077)"
             id="g44"><path
               inkscape:connector-curvature="0"
               id="path46"
               style="fill:#353535;fill-opacity:1;fill-rule:nonzero;stroke:none"
               d="m 0,0 c 0,0 -0.036,1.313 -0.107,3.856 -0.036,1.272 -0.08,2.852 -0.131,4.728 -0.04,0.938 -0.024,1.954 -0.116,3.036 -0.084,1.083 -0.175,2.238 -0.272,3.466 -0.66,9.803 -2.273,24.266 -7.348,41.941 -0.645,2.202 -1.307,4.465 -1.987,6.785 -0.79,2.284 -1.599,4.625 -2.428,7.022 -0.787,2.412 -1.807,4.8 -2.803,7.256 -1.017,2.449 -1.961,4.99 -3.183,7.473 -4.474,10.109 -10.25,20.624 -17.365,31.205 -7.112,10.582 -15.655,21.187 -25.714,31.316 -10.062,10.119 -21.636,19.773 -34.704,28.342 -13.09,8.525 -27.622,16.023 -43.378,21.903 -15.748,5.898 -32.781,9.931 -50.521,11.96 -2.215,0.326 -4.435,0.437 -6.664,0.608 -2.23,0.157 -4.454,0.348 -6.711,0.479 -2.29,0.052 -4.587,0.105 -6.89,0.157 -1.153,0.027 -2.307,0.053 -3.462,0.079 -0.204,0.002 -0.208,0.011 -0.364,0.004 l -0.429,-0.012 -0.857,-0.024 -1.716,-0.048 c -2.29,-0.059 -4.587,-0.118 -6.89,-0.177 -2.302,-0.084 -4.603,-0.324 -6.915,-0.479 -4.633,-0.245 -9.245,-0.953 -13.897,-1.519 -9.253,-1.453 -18.579,-3.255 -27.746,-6.004 -4.633,-1.205 -9.14,-2.89 -13.731,-4.382 -2.266,-0.832 -4.506,-1.747 -6.769,-2.619 l -3.391,-1.327 -3.329,-1.494 c -17.855,-7.802 -34.859,-18.349 -50.298,-31.169 -1.902,-1.637 -3.806,-3.277 -5.714,-4.918 -1.884,-1.667 -3.671,-3.448 -5.517,-5.17 -0.912,-0.872 -1.842,-1.727 -2.741,-2.615 l -2.626,-2.738 -2.631,-2.742 c -0.88,-0.912 -1.765,-1.821 -2.58,-2.794 -1.668,-1.913 -3.338,-3.829 -5.01,-5.747 -1.655,-1.932 -3.179,-3.977 -4.778,-5.963 -0.787,-1.004 -1.593,-1.994 -2.367,-3.009 l -2.232,-3.115 -2.24,-3.115 c -0.751,-1.037 -1.506,-2.072 -2.182,-3.161 -22.964,-33.974 -35.93,-75.43 -36.219,-117.276 0.061,-10.452 0.632,-20.912 2.085,-31.268 0.322,-2.594 0.85,-5.155 1.264,-7.734 l 0.662,-3.863 0.849,-3.823 c 0.593,-2.543 1.088,-5.11 1.759,-7.631 l 2.088,-7.544 c 0.329,-1.262 0.745,-2.498 1.166,-3.731 l 1.244,-3.706 1.243,-3.705 c 0.439,-1.226 0.939,-2.428 1.406,-3.643 0.966,-2.416 1.854,-4.864 2.884,-7.25 1.065,-2.372 2.129,-4.742 3.193,-7.11 0.509,-1.195 1.095,-2.353 1.692,-3.505 l 1.765,-3.467 1.762,-3.465 c 0.615,-1.139 1.278,-2.253 1.914,-3.38 1.303,-2.235 2.527,-4.517 3.891,-6.711 1.389,-2.179 2.777,-4.356 4.163,-6.531 0.673,-1.101 1.423,-2.149 2.171,-3.199 l 2.231,-3.154 2.238,-3.145 2.378,-3.033 c 1.609,-2.003 3.141,-4.064 4.806,-6.012 1.681,-1.933 3.36,-3.865 5.037,-5.794 6.898,-7.542 14.15,-14.71 21.973,-21.118 15.562,-12.903 32.769,-23.394 50.767,-31.145 l 3.357,-1.484 3.419,-1.316 c 2.28,-0.865 4.539,-1.772 6.821,-2.595 4.624,-1.479 9.166,-3.141 13.834,-4.311 9.235,-2.688 18.62,-4.423 27.92,-5.806 4.674,-0.531 9.318,-1.204 13.938,-1.411 2.316,-0.137 4.596,-0.359 6.92,-0.425 2.333,-0.042 4.658,-0.083 6.977,-0.125 1.135,-0.017 2.373,-0.065 3.417,-0.055 1.145,0.034 2.287,0.069 3.428,0.103 2.281,0.068 4.556,0.135 6.822,0.203 2.263,0.147 4.514,0.355 6.76,0.528 2.244,0.189 4.486,0.319 6.699,0.66 17.764,2.125 34.804,6.211 50.554,12.16 15.758,5.927 30.281,13.466 43.365,22.014 13.057,8.603 24.635,18.26 34.69,28.393 10.057,10.138 18.587,20.758 25.701,31.341 7.114,10.585 12.89,21.103 17.363,31.214 1.222,2.485 2.166,5.026 3.182,7.475 0.996,2.457 2.015,4.846 2.803,7.258 0.829,2.397 1.637,4.74 2.425,7.025 0.679,2.321 1.341,4.583 1.986,6.786 5.071,17.677 6.672,32.15 7.326,41.945 0.095,1.226 0.185,2.382 0.269,3.465 0.091,1.081 0.075,2.099 0.114,3.038 0.05,1.879 0.093,3.46 0.128,4.733 C -0.035,-1.308 0,0.006 0,0.006 Z m 0.5,-0.006 c 0,0 -0.031,-1.315 -0.091,-3.862 -0.03,-1.273 -0.067,-2.855 -0.111,-4.734 -0.036,-0.94 -0.016,-1.954 -0.103,-3.041 -0.08,-1.087 -0.166,-2.246 -0.257,-3.478 -0.625,-9.844 -2.214,-24.326 -7.034,-42.148 -0.62,-2.221 -1.258,-4.502 -1.911,-6.841 -0.764,-2.305 -1.547,-4.668 -2.349,-7.087 -0.741,-2.441 -1.712,-4.863 -2.662,-7.355 -0.968,-2.485 -1.865,-5.064 -3.04,-7.587 -4.284,-10.275 -9.876,-20.999 -16.832,-31.844 -6.961,-10.837 -15.339,-21.781 -25.311,-32.288 -4.961,-5.277 -10.382,-10.373 -16.133,-15.361 -1.397,-1.295 -2.937,-2.439 -4.424,-3.66 -1.503,-1.206 -3.014,-2.416 -4.534,-3.635 -1.55,-1.179 -3.158,-2.297 -4.749,-3.458 -1.607,-1.137 -3.178,-2.348 -4.842,-3.441 -6.638,-4.39 -13.532,-8.729 -20.921,-12.496 -1.843,-0.947 -3.695,-1.899 -5.555,-2.856 -1.904,-0.867 -3.817,-1.739 -5.738,-2.615 -3.805,-1.837 -7.816,-3.29 -11.798,-4.906 -1.978,-0.842 -4.051,-1.453 -6.093,-2.178 -2.053,-0.692 -4.102,-1.429 -6.189,-2.072 -2.102,-0.595 -4.213,-1.192 -6.331,-1.793 -1.059,-0.299 -2.121,-0.599 -3.184,-0.9 -1.072,-0.271 -2.155,-0.502 -3.235,-0.756 -2.163,-0.497 -4.333,-0.995 -6.511,-1.496 -2.182,-0.487 -4.406,-0.811 -6.618,-1.227 -1.108,-0.196 -2.219,-0.393 -3.332,-0.59 l -1.67,-0.297 -1.685,-0.213 c -2.251,-0.279 -4.509,-0.557 -6.775,-0.837 -2.261,-0.326 -4.551,-0.44 -6.842,-0.611 -2.293,-0.157 -4.591,-0.346 -6.9,-0.475 -2.312,-0.048 -4.632,-0.097 -6.958,-0.145 -1.163,-0.024 -2.328,-0.047 -3.495,-0.072 -1.267,0.004 -2.344,0.061 -3.527,0.088 -2.318,0.076 -4.643,0.151 -6.975,0.228 -2.338,0.105 -4.718,0.37 -7.083,0.549 -4.761,0.296 -9.457,1.056 -14.204,1.677 -9.439,1.564 -18.941,3.489 -28.271,6.374 -4.716,1.267 -9.3,3.029 -13.958,4.612 -2.301,0.875 -4.575,1.833 -6.87,2.749 l -3.438,1.394 -3.376,1.561 c -18.101,8.154 -35.236,19.114 -50.823,32.236 -1.917,1.678 -3.837,3.358 -5.76,5.042 -1.899,1.707 -3.696,3.531 -5.559,5.29 -0.921,0.891 -1.86,1.763 -2.768,2.668 l -2.652,2.792 -2.655,2.795 c -0.889,0.93 -1.782,1.856 -2.605,2.848 -6.9,7.655 -13.109,15.961 -18.973,24.534 -1.408,2.183 -2.817,4.369 -4.228,6.557 -1.385,2.203 -2.631,4.495 -3.955,6.742 -0.647,1.132 -1.321,2.25 -1.945,3.396 l -1.795,3.482 -1.796,3.486 c -0.607,1.158 -1.204,2.322 -1.724,3.523 -1.084,2.383 -2.169,4.767 -3.255,7.152 -1.05,2.401 -1.959,4.864 -2.946,7.295 -0.477,1.223 -0.987,2.433 -1.437,3.666 l -1.272,3.731 -1.273,3.731 c -0.433,1.243 -0.857,2.488 -1.196,3.759 l -2.207,7.583 c -0.712,2.536 -1.249,5.118 -1.883,7.678 l -0.911,3.851 -0.722,3.89 c -0.456,2.6 -1.025,5.183 -1.387,7.798 -1.614,10.447 -2.34,21.02 -2.548,31.603 l 0.136,7.923 c 0.041,1.318 0.005,2.623 0.109,3.95 l 0.269,3.975 0.271,3.975 0.135,1.989 c 0.053,0.661 0.149,1.315 0.222,1.973 l 0.939,7.887 c 0.323,2.627 0.855,5.223 1.273,7.836 l 0.667,3.914 0.856,3.875 c 0.597,2.577 1.098,5.177 1.774,7.733 l 2.108,7.645 c 0.33,1.281 0.747,2.534 1.171,3.785 l 1.25,3.759 1.25,3.758 c 0.442,1.242 0.945,2.463 1.414,3.695 0.973,2.451 1.868,4.934 2.905,7.356 1.073,2.407 2.145,4.811 3.216,7.215 0.515,1.212 1.104,2.387 1.706,3.557 l 1.779,3.519 1.779,3.517 c 0.619,1.158 1.288,2.288 1.929,3.432 1.314,2.27 2.551,4.586 3.928,6.815 1.402,2.212 2.803,4.423 4.203,6.632 0.679,1.119 1.437,2.184 2.193,3.25 l 2.253,3.204 2.257,3.198 c 0.783,1.041 1.598,2.058 2.396,3.088 1.621,2.039 3.166,4.136 4.845,6.12 1.696,1.969 3.39,3.937 5.082,5.902 0.828,0.999 1.727,1.933 2.62,2.871 l 2.67,2.818 2.668,2.814 c 0.913,0.914 1.858,1.793 2.785,2.691 1.875,1.771 3.693,3.601 5.609,5.318 1.94,1.69 3.877,3.379 5.811,5.064 15.708,13.205 33.047,24.108 51.293,32.213 l 3.402,1.55 3.466,1.382 c 2.313,0.908 4.605,1.859 6.922,2.725 4.692,1.57 9.311,3.309 14.062,4.541 9.398,2.824 18.958,4.683 28.444,6.177 4.769,0.586 9.498,1.311 14.246,1.568 2.369,0.161 4.728,0.407 7.088,0.495 2.361,0.059 4.715,0.118 7.061,0.176 l 1.759,0.04 0.879,0.02 0.439,0.01 c 0.132,0.007 0.417,-0.006 0.502,-0.007 1.156,-0.032 2.309,-0.064 3.462,-0.096 2.303,-0.064 4.599,-0.128 6.889,-0.191 2.314,-0.144 4.64,-0.351 6.947,-0.524 2.308,-0.189 4.621,-0.32 6.878,-0.662 2.269,-0.294 4.53,-0.587 6.783,-0.879 l 1.687,-0.219 1.672,-0.303 c 1.114,-0.202 2.226,-0.403 3.336,-0.604 2.215,-0.423 4.439,-0.755 6.623,-1.25 2.18,-0.509 4.352,-1.015 6.517,-1.52 1.08,-0.258 2.164,-0.494 3.236,-0.769 1.063,-0.304 2.125,-0.609 3.185,-0.912 2.12,-0.608 4.231,-1.213 6.333,-1.816 2.087,-0.651 4.136,-1.395 6.191,-2.092 2.042,-0.73 4.115,-1.348 6.095,-2.195 16.063,-6.176 30.83,-14.018 44,-22.984 1.662,-1.096 3.232,-2.31 4.838,-3.45 1.589,-1.164 3.197,-2.287 4.746,-3.468 1.519,-1.22 3.03,-2.434 4.532,-3.641 1.487,-1.224 3.026,-2.368 4.424,-3.665 5.749,-4.995 11.169,-10.097 16.127,-15.379 9.969,-10.518 18.335,-21.475 25.298,-32.314 6.956,-10.848 12.547,-21.576 16.83,-31.853 1.175,-2.525 2.072,-5.104 3.041,-7.589 0.948,-2.493 1.919,-4.915 2.66,-7.358 0.801,-2.419 1.584,-4.783 2.347,-7.088 0.653,-2.34 1.289,-4.621 1.91,-6.843 4.816,-17.824 6.393,-32.315 7.01,-42.152 0.09,-1.231 0.176,-2.39 0.255,-3.476 C 0.29,10.564 0.269,9.546 0.304,8.606 0.347,6.725 0.383,5.141 0.412,3.866 0.47,1.316 0.5,0 0.5,0 Z" /></g><g
             transform="translate(547.9434,530.4873)"
             id="g48"><path
               inkscape:connector-curvature="0"
               id="path50"
               style="fill:#494949;fill-opacity:1;fill-rule:nonzero;stroke:none"
               d="M 0,0 C 0,0 0.674,0.832 1.936,2.197 2.248,2.542 2.6,2.916 2.988,3.318 3.416,3.69 3.883,4.09 4.394,4.507 4.903,4.925 5.438,5.385 6.024,5.843 6.6,6.319 7.279,6.686 7.953,7.138 c 0.69,0.424 1.408,0.866 2.152,1.324 0.785,0.384 1.609,0.755 2.456,1.134 0.426,0.181 0.859,0.364 1.296,0.55 0.448,0.163 0.922,0.271 1.388,0.41 0.935,0.262 1.889,0.529 2.859,0.8 2.001,0.303 3.994,0.842 6.084,1.07 2.067,0.381 4.191,0.531 6.332,0.773 2.137,0.025 4.312,0.174 6.417,-0.163 2.13,-0.151 4.153,-0.731 6.147,-1.131 0.97,-0.3 1.914,-0.631 2.839,-0.949 0.46,-0.166 0.927,-0.302 1.366,-0.489 0.431,-0.208 0.857,-0.414 1.276,-0.617 0.836,-0.409 1.65,-0.806 2.436,-1.19 0.74,-0.469 1.454,-0.922 2.141,-1.356 0.669,-0.458 1.35,-0.832 1.916,-1.31 0.578,-0.459 1.106,-0.921 1.609,-1.34 0.5,-0.422 0.968,-0.816 1.4,-1.181 0.4,-0.403 0.761,-0.778 1.077,-1.127 1.279,-1.375 1.972,-2.175 1.972,-2.175 l -0.14,-0.142 c 0,0 -0.881,0.615 -2.356,1.716 -0.374,0.268 -0.77,0.584 -1.208,0.919 -0.469,0.294 -0.975,0.611 -1.516,0.951 -0.539,0.342 -1.118,0.69 -1.708,1.085 -0.583,0.404 -1.284,0.693 -1.961,1.072 -0.684,0.367 -1.396,0.749 -2.133,1.145 -0.768,0.332 -1.561,0.675 -2.376,1.028 -1.597,0.784 -3.416,1.253 -5.217,1.972 -1.875,0.469 -3.788,1.112 -5.816,1.369 -2.004,0.422 -4.076,0.574 -6.163,0.818 -1.047,0.005 -2.095,0.01 -3.139,0.016 -1.051,0.031 -2.078,-0.167 -3.105,-0.297 C 22.213,11.621 20.276,10.914 18.413,10.325 16.616,9.511 14.845,8.871 13.282,7.998 12.482,7.605 11.704,7.227 10.938,6.885 10.211,6.47 9.508,6.069 8.832,5.684 8.164,5.291 7.465,4.987 6.896,4.575 6.319,4.172 5.752,3.815 5.225,3.466 4.698,3.117 4.195,2.799 3.725,2.507 3.281,2.166 2.874,1.853 2.506,1.57 1.026,0.443 0.135,-0.148 0.135,-0.148 Z" /></g><g
             transform="translate(404.8662,531.4102)"
             id="g52"><path
               inkscape:connector-curvature="0"
               id="path54"
               style="fill:#494949;fill-opacity:1;fill-rule:nonzero;stroke:none"
               d="M 0,0 C 0,0 0.674,0.832 1.936,2.197 2.248,2.542 2.6,2.916 2.988,3.318 3.416,3.69 3.883,4.09 4.394,4.507 4.903,4.925 5.438,5.385 6.024,5.843 6.6,6.319 7.279,6.686 7.953,7.138 c 0.69,0.424 1.408,0.866 2.152,1.324 0.785,0.384 1.609,0.755 2.456,1.134 0.426,0.181 0.859,0.364 1.296,0.55 0.448,0.163 0.922,0.271 1.388,0.41 0.935,0.262 1.889,0.529 2.859,0.8 2.001,0.303 3.994,0.842 6.084,1.07 2.067,0.381 4.191,0.531 6.332,0.773 2.137,0.025 4.312,0.174 6.417,-0.163 2.13,-0.151 4.153,-0.731 6.147,-1.131 0.97,-0.3 1.914,-0.631 2.839,-0.949 0.46,-0.166 0.927,-0.302 1.366,-0.489 0.431,-0.208 0.857,-0.414 1.276,-0.617 0.836,-0.409 1.65,-0.806 2.436,-1.19 0.74,-0.469 1.454,-0.922 2.141,-1.356 0.669,-0.458 1.35,-0.832 1.916,-1.31 0.578,-0.459 1.106,-0.921 1.609,-1.34 0.5,-0.422 0.968,-0.816 1.4,-1.181 0.4,-0.403 0.761,-0.778 1.077,-1.127 1.279,-1.375 1.972,-2.175 1.972,-2.175 l -0.14,-0.142 c 0,0 -0.881,0.615 -2.356,1.716 -0.374,0.268 -0.77,0.584 -1.208,0.919 -0.469,0.294 -0.975,0.611 -1.516,0.951 -0.539,0.342 -1.118,0.69 -1.708,1.085 -0.583,0.404 -1.284,0.693 -1.961,1.072 -0.684,0.367 -1.396,0.749 -2.133,1.145 -0.768,0.332 -1.561,0.675 -2.376,1.028 -1.597,0.784 -3.416,1.253 -5.217,1.972 -1.875,0.469 -3.788,1.112 -5.816,1.369 -2.004,0.422 -4.076,0.574 -6.163,0.818 -1.047,0.005 -2.095,0.01 -3.139,0.016 -1.051,0.031 -2.078,-0.167 -3.105,-0.297 C 22.213,11.621 20.276,10.914 18.413,10.325 16.616,9.511 14.845,8.871 13.282,7.998 12.482,7.605 11.704,7.227 10.938,6.885 10.211,6.47 9.508,6.069 8.832,5.684 8.164,5.291 7.465,4.987 6.896,4.575 6.319,4.172 5.752,3.815 5.225,3.466 4.698,3.117 4.195,2.799 3.725,2.507 3.281,2.166 2.874,1.853 2.506,1.57 1.026,0.443 0.135,-0.148 0.135,-0.148 Z" /></g><g
             transform="translate(592.0391,437.8252)"
             id="g56"><path
               inkscape:connector-curvature="0"
               id="path58"
               style="fill:#035875;fill-opacity:1;fill-rule:nonzero;stroke:none"
               d="m 0,0 c 0,0 -0.521,-0.582 -1.498,-1.672 -0.496,-0.538 -1.107,-1.202 -1.826,-1.982 -0.362,-0.388 -0.75,-0.805 -1.164,-1.25 -0.438,-0.427 -0.903,-0.881 -1.393,-1.361 -0.978,-0.964 -2.082,-2.015 -3.292,-3.154 -1.252,-1.081 -2.613,-2.245 -4.083,-3.476 -0.72,-0.633 -1.518,-1.214 -2.327,-1.833 -0.813,-0.612 -1.651,-1.242 -2.511,-1.887 -0.85,-0.66 -1.768,-1.271 -2.71,-1.896 -0.939,-0.628 -1.901,-1.269 -2.883,-1.926 -1.989,-1.27 -4.141,-2.466 -6.334,-3.763 -1.134,-0.58 -2.287,-1.171 -3.458,-1.771 -1.171,-0.596 -2.356,-1.213 -3.612,-1.722 -1.244,-0.533 -2.505,-1.073 -3.78,-1.619 -1.29,-0.513 -2.63,-0.949 -3.963,-1.433 -2.652,-1.01 -5.468,-1.736 -8.274,-2.605 -5.706,-1.46 -11.625,-2.764 -17.703,-3.775 -1.52,-0.244 -3.055,-0.43 -4.589,-0.655 -1.532,-0.26 -3.08,-0.401 -4.632,-0.555 -3.097,-0.412 -6.228,-0.55 -9.362,-0.763 -3.135,-0.056 -6.28,-0.193 -9.411,-0.043 -3.135,0.056 -6.241,0.408 -9.33,0.677 -6.159,0.744 -12.152,1.98 -17.882,3.453 -2.831,0.855 -5.647,1.609 -8.305,2.639 -1.336,0.494 -2.674,0.939 -3.965,1.459 -1.277,0.551 -2.54,1.096 -3.786,1.632 -1.255,0.514 -2.456,1.103 -3.635,1.691 -1.18,0.584 -2.342,1.159 -3.485,1.725 -2.217,1.262 -4.39,2.425 -6.401,3.664 -0.994,0.638 -1.968,1.263 -2.92,1.873 -0.953,0.606 -1.882,1.2 -2.746,1.845 -0.872,0.629 -1.721,1.243 -2.547,1.839 -0.819,0.604 -1.629,1.17 -2.361,1.79 -1.486,1.207 -2.876,2.334 -4.162,3.378 -1.238,1.1 -2.366,2.118 -3.37,3.052 -0.503,0.465 -0.98,0.904 -1.428,1.319 -0.429,0.435 -0.83,0.842 -1.204,1.222 -0.743,0.761 -1.376,1.408 -1.888,1.933 -1.012,1.058 -1.552,1.623 -1.552,1.623 l 0.209,0.215 c 0,0 0.603,-0.495 1.734,-1.422 0.559,-0.469 1.249,-1.046 2.06,-1.725 0.406,-0.339 0.841,-0.702 1.306,-1.09 0.483,-0.365 0.997,-0.754 1.539,-1.164 1.076,-0.827 2.268,-1.743 3.565,-2.739 1.338,-0.936 2.786,-1.949 4.334,-3.031 1.537,-1.091 3.291,-2.08 5.049,-3.246 0.877,-0.588 1.819,-1.123 2.784,-1.669 0.96,-0.552 1.943,-1.115 2.946,-1.692 2.013,-1.139 4.182,-2.196 6.388,-3.348 1.131,-0.523 2.28,-1.054 3.448,-1.594 1.161,-0.551 2.344,-1.103 3.579,-1.578 4.865,-2.091 10.145,-3.896 15.658,-5.61 5.552,-1.583 11.383,-2.9 17.388,-3.825 3.009,-0.39 6.042,-0.868 9.116,-1.053 3.064,-0.343 6.156,-0.412 9.254,-0.557 3.096,0.038 6.203,-0.007 9.286,0.234 3.092,0.144 6.144,0.596 9.174,0.998 6.04,0.974 11.873,2.529 17.367,4.416 5.466,1.983 10.629,4.164 15.391,6.5 2.422,1.078 4.655,2.378 6.902,3.459 2.167,1.233 4.297,2.368 6.268,3.578 0.984,0.61 1.948,1.207 2.889,1.79 0.947,0.578 1.87,1.143 2.728,1.76 1.719,1.223 3.437,2.27 4.937,3.41 1.503,1.137 2.924,2.186 4.245,3.152 1.27,1.024 2.436,1.965 3.49,2.815 0.532,0.422 1.036,0.822 1.509,1.198 0.458,0.401 0.886,0.777 1.286,1.125 0.797,0.701 1.475,1.295 2.025,1.778 1.114,0.95 1.709,1.457 1.709,1.457 z" /></g><g
             transform="translate(607.666,432.9004)"
             id="g60"><path
               inkscape:connector-curvature="0"
               id="path62"
               style="fill:#035875;fill-opacity:1;fill-rule:nonzero;stroke:none"
               d="m 0,0 c 0,0 -0.504,-0.162 -1.396,-0.262 -0.892,-0.105 -2.175,-0.149 -3.7,0.037 -0.757,0.111 -1.586,0.232 -2.426,0.502 -0.841,0.276 -1.691,0.684 -2.529,1.169 -0.845,0.466 -1.689,0.969 -2.572,1.43 -0.88,0.47 -1.761,0.976 -2.659,1.517 -0.854,0.589 -1.739,1.23 -2.372,2.088 -0.362,0.394 -0.606,0.869 -0.908,1.298 -0.24,0.464 -0.498,0.922 -0.679,1.4 -0.382,0.949 -0.607,1.925 -0.665,2.848 -0.09,0.927 0.009,1.792 0.082,2.578 0.164,0.776 0.264,1.488 0.495,2.082 0.199,0.601 0.37,1.12 0.582,1.522 0.387,0.815 0.652,1.253 0.652,1.253 l 0.192,-0.059 c 0,0 0.005,-0.523 -0.065,-1.389 -0.051,-0.43 -0.034,-0.961 -0.068,-1.55 -0.048,-0.591 0.001,-1.253 -0.007,-1.96 0.048,-0.706 0.088,-1.463 0.225,-2.236 0.111,-0.778 0.298,-1.571 0.532,-2.383 0.111,-0.408 0.3,-0.795 0.445,-1.208 0.212,-0.38 0.37,-0.803 0.629,-1.173 0.456,-0.778 1.019,-1.532 1.637,-2.275 0.653,-0.706 1.395,-1.366 2.247,-1.82 0.833,-0.486 1.75,-0.784 2.654,-0.968 C -8.773,2.244 -7.885,2.158 -7.078,1.974 -6.26,1.828 -5.51,1.59 -4.795,1.447 -4.083,1.272 -3.431,1.112 -2.852,0.97 -2.27,0.835 -1.76,0.694 -1.337,0.584 -0.49,0.362 0.002,0.199 0.002,0.199 Z" /></g></g></g></g></g></svg>