<?xml version="1.0" encoding="UTF-8" standalone="no"?>
<!-- Created with Inkscape (http://www.inkscape.org/) -->

<svg
   xmlns:dc="http://purl.org/dc/elements/1.1/"
   xmlns:cc="http://creativecommons.org/ns#"
   xmlns:rdf="http://www.w3.org/1999/02/22-rdf-syntax-ns#"
   xmlns:svg="http://www.w3.org/2000/svg"
   xmlns="http://www.w3.org/2000/svg"
   xmlns:sodipodi="http://sodipodi.sourceforge.net/DTD/sodipodi-0.dtd"
   xmlns:inkscape="http://www.inkscape.org/namespaces/inkscape"
   version="1.1"
   id="svg2"
   xml:space="preserve"
   width="1040.9596"
   height="775.65698"
   viewBox="0 0 1040.9596 775.65701"
   sodipodi:docname="plane.svg"
   inkscape:version="0.92.2 5c3e80d, 2017-08-06"><metadata
     id="metadata8"><rdf:RDF><cc:Work
         rdf:about=""><dc:format>image/svg+xml</dc:format><dc:type
           rdf:resource="http://purl.org/dc/dcmitype/StillImage" /><dc:title></dc:title></cc:Work></rdf:RDF></metadata><defs
     id="defs6"><clipPath
       clipPathUnits="userSpaceOnUse"
       id="clipPath18"><path
         d="M 0,1000 H 1000 V 0 H 0 Z"
         id="path16"
         inkscape:connector-curvature="0" /></clipPath><clipPath
       clipPathUnits="userSpaceOnUse"
       id="clipPath70"><path
         d="M 0,1000 H 1000 V 0 H 0 Z"
         id="path68"
         inkscape:connector-curvature="0" /></clipPath></defs><sodipodi:namedview
     pagecolor="#ffffff"
     bordercolor="#666666"
     borderopacity="1"
     objecttolerance="10"
     gridtolerance="10"
     guidetolerance="10"
     inkscape:pageopacity="0"
     inkscape:pageshadow="2"
     inkscape:window-width="1920"
     inkscape:window-height="1029"
     id="namedview4"
     showgrid="false"
     inkscape:zoom="0.58423832"
     inkscape:cx="264.57769"
     inkscape:cy="361.28485"
     inkscape:window-x="0"
     inkscape:window-y="24"
     inkscape:window-maximized="1"
     inkscape:current-layer="g10" /><g
     id="g10"
     inkscape:groupmode="layer"
     inkscape:label="plane"
     transform="matrix(1.3333333,0,0,-1.3333333,-91.428037,1081.0388)"><g
       id="g12"><g
         id="g14"
         clip-path="url(#clipPath18)"><g
           id="g20"
           transform="translate(783.001,424.6357)"><path
             d="m 0,0 -222.674,18.345 70.218,49.975 9.489,32.895 98.052,-0.632 -96.154,9.488 16.448,71.483 -15.815,2.53 -46.18,-68.319 -79.706,0.632 76.545,-13.917 L -199.9,85.4 c 0,0 -146.129,22.141 -166.371,18.978 0,0 -36.059,-3.163 -60.097,-41.118 l -19.82,-0.276 -103.535,33.803 -36.058,-5.694 91.731,-54.584 c 0,0 -10.126,-14.684 -0.637,-26.071 9.488,-11.386 39.853,-21.825 39.853,-21.825 0,0 97.144,-27.595 149.924,7.592 2.847,1.898 289.411,-12.336 289.411,-12.336 z"
             style="fill:#eaeaea;fill-opacity:1;fill-rule:nonzero;stroke:none"
             id="path22"
             inkscape:connector-curvature="0" /></g><g
           id="g24"
           transform="translate(634.6572,499.5981)"><path
             d="m 0,0 c 0,0 2.225,23.583 -55.821,16.536 -58.045,-7.047 0,0 0,0 0,0 -162.423,20.47 -179.503,12.88 -17.08,-7.592 -31.631,-36.301 -31.631,-36.301 l -30.996,-8.297 c 0,0 -89.195,-33.211 -29.415,-56.934 59.78,-23.721 124.304,-26.568 163.209,-7.591 0,0 43.014,4.428 89.827,23.089 0,0 62.943,43.333 74.33,56.618"
             style="fill:#7575ff;fill-opacity:1;fill-rule:nonzero;stroke:none"
             id="path26"
             inkscape:connector-curvature="0" /></g><g
           id="g28"
           transform="translate(498.9668,479.0391)"><path
             d="M 0,0 -5.693,26.568 -27.202,30.997 -15.815,-2.53 Z"
             style="fill:#ffffff;fill-opacity:1;fill-rule:nonzero;stroke:none"
             id="path30"
             inkscape:connector-curvature="0" /></g><g
           id="g32"
           transform="translate(534.0439,484.166)"><path
             d="m 0,0 -4.833,20.486 -15.063,-1.574 7.592,-20.244 10.12,3.164"
             style="fill:#ffffff;fill-opacity:1;fill-rule:nonzero;stroke:none"
             id="path34"
             inkscape:connector-curvature="0" /></g><g
           id="g36"
           transform="translate(560.9609,490.4258)"><path
             d="m 0,0 -1.957,12.353 -11.961,-1.599 5.63,-15.815 z"
             style="fill:#ffffff;fill-opacity:1;fill-rule:nonzero;stroke:none"
             id="path38"
             inkscape:connector-curvature="0" /></g><g
           id="g40"
           transform="translate(467.9692,475.876)"><path
             d="M 0,0 -7.591,26.569 -10.121,-2.53 Z"
             style="fill:#ffffff;fill-opacity:1;fill-rule:nonzero;stroke:none"
             id="path42"
             inkscape:connector-curvature="0" /></g><g
           id="g44"
           transform="translate(445.8291,477.7734)"><path
             d="M 0,0 -74.646,15.815 -50.607,41.751 5.693,32.896 2.53,-1.897"
             style="fill:#ffffff;fill-opacity:1;fill-rule:nonzero;stroke:none"
             id="path46"
             inkscape:connector-curvature="0" /></g><g
           id="g48"
           transform="translate(324.3711,422.7383)"><path
             d="M 0,0 C 0,0 12.651,9.488 -2.531,18.978 -17.713,28.467 -33.528,15.814 -30.997,2.53 -28.467,-10.754 0,0 0,0"
             style="fill:#ffffff;fill-opacity:1;fill-rule:nonzero;stroke:none"
             id="path50"
             inkscape:connector-curvature="0" /></g><g
           id="g52"
           transform="translate(634.166,493.7305)"><path
             d="M 0,0 11.501,47.27 24.214,112.459 7.501,112.603 -45.166,27.936 C -45.166,27.936 1.832,36.064 0,0"
             style="fill:#ff8989;fill-opacity:1;fill-rule:nonzero;stroke:none"
             id="path54"
             inkscape:connector-curvature="0" /></g><g
           id="g56"
           transform="translate(778.334,421.666)"><path
             d="m 0,0 -214.667,20.667 c 0,0 -35.333,-15.333 -57.333,-19.333 L -14.667,-10 Z"
             style="fill:#ff8989;fill-opacity:1;fill-rule:nonzero;stroke:none"
             id="path58"
             inkscape:connector-curvature="0" /></g><g
           id="g60"
           transform="translate(321,488.333)"><path
             d="m 0,0 -85.333,32.667 -30,-6.667 82.666,-50.667 C -32.667,-24.667 -18,-2 0,0"
             style="fill:#ff8989;fill-opacity:1;fill-rule:nonzero;stroke:none"
             id="path62"
             inkscape:connector-curvature="0" /></g></g></g><g
       id="g64"><g
         id="g66"
         clip-path="url(#clipPath70)"><g
           id="g72"
           transform="translate(336.3276,487.623)"><path
             style="fill:#000000;fill-opacity:1;fill-rule:nonzero;stroke:none"
             d="m 0,0 c -34.984522,11.62955 -69.754316,23.916753 -104.243,36.946 -4.50084,-0.481505 -14.34683,-0.776647 -20.84823,-1.444922 -7.3509,-0.953996 -15.32506,-0.710551 -22.02877,-4.132078 0.51611,-1.667225 3.11219,-2.347351 4.61264,-3.461055 24.10674,-14.41503 48.895485,-27.62469122 73.654985,-40.870445 7.420961,-4.046703 14.779553,-8.206274 22.121375,-12.3945 -3.194265,-0.643598 1.354883,1.814753 2.122787,2.758368 6.9478,5.35335 13.895499,11.078745 22.240217,14.1091722 C -15.039887,-5.3477433 -7.6221183,-2.357458 0,0 Z m 0.878,-0.004 c -9.5900308,-3.7888838 -18.850111,-8.3383693 -28.144,-12.79 -3.199647,-2.092035 -7.150263,-4.85865 -10.399193,-7.466139 -3.261506,-2.503157 -6.387684,-5.174567 -9.567807,-7.778861 -29.196615,15.929141 -57.27842,33.817821 -86.66333,49.411297 -4.65295,2.615029 -9.49461,4.923964 -14.04554,7.703078 -4.03307,5.943475 7.65379,6.656171 11.21754,7.559281 11.08103,1.733585 22.3541,2.715217 33.51833,3.128344 C -68.243256,27.228927 -33.543963,13.943749 0.878,-0.004 Z"
             id="path74"
             inkscape:connector-curvature="0" /></g><g
           id="g76"
           transform="translate(792.6689,426.3965)"><path
             style="fill:#000000;fill-opacity:1;fill-rule:nonzero;stroke:none"
             d="m 0,0 c -76.940925,5.513929 -153.87265,11.153533 -230.797,16.894 18.39658,8.786608 36.09458,18.687327 50.56948,32.996884 7.07934,5.967974 13.88617,12.244899 20.74152,18.466116 0.45586,3.445194 3.4407,12.847427 4.86725,18.579094 -0.24655,13.140026 9.12618,13.218536 20.28119,10.847223 28.69941,-0.961041 57.397598,-2.283324 86.11656,-2.418317 5.539158,5.37322 9.806649,2.286778 -1.802452,3.556171 -32.36852,3.276899 -64.737008,6.554129 -97.105548,9.830829 5.47522,25.10421 10.94924,50.20869 16.424,75.313 2.22195,-3.55735 -6.68649,1.16219 -8.909,1.06 -13.66329,3.97944 -14.70011,-0.87795 -19.91363,-13.01943 -15.69851,-27.57124 -29.36792,-56.90819 -50.06924,-81.16457 -8.59079,-5.778813 -20.40562,-0.50667 -30.09538,-1.2795 -45.03833,4.30338 -89.6366,14.16381 -134.96875,14.9875 -24.11276,-1.90792 -42.68706,-20.263314 -56.602,-38.45 -25.85651,-9.680439 -54.76831,-17.660452 -73.809,-38.828 -13.02136,-4.973502 9.95495,-30.4623151 1.388,-18.43 -1.58065,14.924621 16.20342,22.548084 28.812,18.296 12.82739,-1.54633 28.26495,-12.385403 22.936,-26.723 -3.94382,-9.5790787 -19.69187,-10.3451307 -26.0369,-8.4958238 8.03495,-2.6555042 19.19109,-8.4476432 29.2209,-9.9551762 41.83721,-8.814482 86.00672,-6.572915 126.24544,8.225376 10.65604,4.6975331 22.55416,0.6766614 33.79348,1.2800886 C -201.87473,-11.842676 -115.0391,-15.332135 -28.218,-19.16 -16.836343,-17.191274 -8.4281917,-7.1547035 0,0 Z m 0.462,0.016 c -10.2403358,-9.5288941 -21.586363,-22.732548 -37.073873,-19.710074 -92.934077,2.948655 -185.854967,6.295046 -278.774127,9.677074 -3.93728,-1.516672 -11.97144,-4.18318 -17.6185,-5.851615 -41.58388,-13.065322 -87.22298,-13.007473 -128.944,-0.697385 -4.77002,1.763418 -24.97443,9.4527568 -16.2955,9.568 9.16349,-0.1447516 25.38141,0.03774 25.557,12.831 -0.96141,16.709757 -21.29259,21.733789 -35.165,20.612 -12.62124,0.559351 -16.37136,-16.8097507 -13.928,-21.909 -12.62082,8.488353 -7.62335,25.493417 4.447,32.11 19.37131,14.31933 43.86557,22.815041 65.532,30.297 15.76356,22.311622 41.3034,42.9736 70.20899,38.5627 48.54412,-2.27601 96.19321,-13.927805 144.8101,-14.720359 10.34971,0.02993 13.93467,14.655029 20.05691,21.177659 15.45826,24.8368 29.09314,50.74553 42.805,76.57 9.01499,0.97831 17.79162,-0.98223 26.286,-3.751 -5.3778,-25.00064 -10.75531,-50.00134 -16.133,-75.002 -1.75084,4.15052 12.00422,-0.6105 16.28283,0.0748 29.673726,-2.98854 59.347417,-5.97747 89.02117,-8.96578 -3.28661,-7.720338 -11.682463,-9.938513 -19.319625,-8.5775 -30.887808,0.636845 -61.757545,1.931525 -92.630375,3.0585 2.71077,-0.05231 -2.9583,-12.20859 -3.55234,-17.034422 -1.67551,-6.622637 -2.7023,-13.64768 -9.3192,-17.205062 -17.41521,-15.361054 -34.45857,-31.771638 -56.07229,-41.185089 -10.49889,-5.09012 -5.60314,0.810935 2.99153,-1.779529 C -144.00132,12.308246 -71.648511,6.3153059 0.698,0.246 Z"
             id="path78"
             inkscape:connector-curvature="0" /></g><g
           id="g80"
           transform="translate(330.2129,429.5762)"><path
             style="fill:#000000;fill-opacity:1;fill-rule:nonzero;stroke:none"
             d="m 0,0 c 0.03697041,4.0348178 -1.610905,8.3113693 -5.18525,10.472875 -3.4291591,2.123209 -7.569223,2.728219 -11.533509,2.867963 -5.238618,0.122919 -10.934202,-0.149108 -15.334423,-3.335004 -3.739704,-2.6628184 -5.415798,-7.3133634 -5.597716,-11.7538256 -0.26805,-2.2535414 0.949573,-4.5828948 3.062353,-5.4952037 4.019983,-1.8122392 8.515889,-0.8152552 12.740614,-0.5866406 4.786593,0.4479394 9.619145,0.5967224 14.351431,1.4928515 2.7917392,0.5830963 6.1215292,1.6862795 7.18984375,4.6291094 C -0.0612141,-1.1769793 -0.0752976,-0.51799792 0,0 Z m 0.299,-0.015 c 0.0195246,-2.7695822 -2.0056209,-5.0069288 -4.2924001,-6.3009661 -6.4685459,-3.8044409 -14.2598659,-4.3232869 -21.5881729,-3.8680189 -3.69713,0.2912093 -7.7047,0.6268609 -10.749027,2.9647194 -1.992121,1.5060123 -2.53901,4.0985125 -2.408332,6.46445399 -0.05693,4.37330041 1.070042,9.02042941 4.313187,12.14919861 4.358901,4.130049 10.644653,5.264987 16.452833,5.182314 C -12.965611,16.475235 -7.5152762,15.49749 -3.8232834,11.82985 -0.63028476,8.8021039 0.34180021,4.2330474 0.299,-0.015 Z"
             id="path82"
             inkscape:connector-curvature="0" /></g><g
           id="g84"
           transform="translate(454.4092,513.0601)"><path
             style="fill:#000000;fill-opacity:1;fill-rule:nonzero;stroke:none"
             d="m 0,0 c -1.0404185,-14.05674 -2.4946228,-28.078304 -4.025,-42.089 -7.883025,3.37794 -15.759794,6.760421 -23.821075,9.693943 -6.955917,2.481993 -13.993614,4.765495 -21.195157,6.429422 -1.405105,0.313683 -3.012895,0.838104 -4.153126,0.98071 -10.461228,1.337507 -20.869777,3.085267 -31.390126,3.920019 -2.016885,0.02912 -4.078799,0.01577 -1.902583,1.832072 6.96076,8.577415 13.773172,17.5045356 22.650067,24.205084 5.833263,4.554005 13.563141,4.9096629 20.648189,4.8376938 C -28.332164,9.4326424 -13.778872,5.4730034 0.008,0.119 Z M -0.32,-0.091 C -17.033049,4.2014266 -34.214726,8.2519099 -51.584,6.834 -55.379604,6.436927 -58.830056,5.8317493 -62.099117,3.7112832 -71.913992,-2.4243507 -79.387671,-11.531486 -86.291,-20.666 c -0.517057,1.969875 4.889627,-0.03841 6.60927,0.462261 9.264557,-0.39381 18.500021,-1.34394 27.719653,-2.276117 6.496045,-1.411451 12.971582,-2.908091 19.30023,-4.958898 5.89577,-1.756795 11.6148,-4.08192 17.303335,-6.40886 3.195734,-1.694136 8.416185,-3.315838 10.3707653,-5.094211 -1.4458516,-1.105779 -1.9825618,-0.904664 -1.4019142,0.902657 1.8373013,12.678037 3.7973806,25.34022 6.0696609,37.948168 z"
             id="path86"
             inkscape:connector-curvature="0" /></g><g
           id="g88"
           transform="translate(471.2568,472.877)"><path
             d="m 0,0 c -1.189,-0.365 -2.388,-0.671 -3.583,-0.996 -1.195,-0.332 -2.397,-0.616 -3.597,-0.918 -2.403,-0.578 -4.812,-1.113 -7.225,-1.63 l -1.657,-0.354 0.116,1.802 c 0.111,1.703 0.194,3.409 0.326,5.11 0.143,1.701 0.25,3.404 0.422,5.101 0.182,1.696 0.33,3.395 0.552,5.087 l 0.636,5.079 c 0.425,3.386 0.878,6.77 1.475,10.138 0.574,3.371 1.153,6.741 1.523,10.133 l 0.916,0.077 c 0.211,-0.801 0.414,-1.605 0.654,-2.399 0.237,-0.793 0.448,-1.595 0.714,-2.381 0.499,-1.582 1.044,-3.151 1.611,-4.714 1.138,-3.125 2.265,-6.252 3.127,-9.453 0.449,-1.596 0.83,-3.209 1.249,-4.813 0.376,-1.615 0.773,-3.225 1.115,-4.849 0.355,-1.622 0.677,-3.252 0.98,-4.887 0.284,-1.641 0.575,-3.279 0.767,-4.946 L 0.138,0.041 Z m -0.24,0.285 c -0.652,1.475 -1.222,2.971 -1.793,4.467 -0.573,1.56 -1.128,3.127 -1.65,4.703 -0.535,1.571 -1.015,3.158 -1.516,4.739 -0.458,1.593 -0.954,3.175 -1.382,4.777 -0.891,3.193 -1.519,6.457 -2.134,9.726 -0.31,1.633 -0.641,3.261 -1.02,4.875 -0.173,0.812 -0.4,1.609 -0.601,2.413 -0.199,0.805 -0.434,1.6 -0.662,2.397 l 0.916,0.077 c -0.309,-3.398 -0.408,-6.816 -0.513,-10.234 -0.082,-3.42 -0.308,-6.827 -0.562,-10.229 l -0.383,-5.104 c -0.116,-1.703 -0.307,-3.398 -0.464,-5.097 -0.168,-1.697 -0.4,-3.389 -0.597,-5.082 -0.207,-1.693 -0.463,-3.383 -0.692,-5.074 l -1.54,1.448 c 2.452,0.276 4.907,0.532 7.369,0.745 1.234,0.096 2.464,0.207 3.702,0.272 1.173,0.066 2.344,0.146 3.522,0.181"
             style="fill:#000000;fill-opacity:1;fill-rule:nonzero;stroke:none"
             id="path90"
             inkscape:connector-curvature="0" /></g><g
           id="g92"
           transform="translate(501.4648,477.6279)"><path
             style="fill:#000000;fill-opacity:1;fill-rule:nonzero;stroke:none"
             d="m 0,0 c -7.263445,-1.8080801 -14.615447,-3.2377592 -21.988,-4.521 -3.814734,10.0875529 -6.950952,20.412302 -10.012089,30.747895 -0.79278,2.825284 -1.545387,5.661638 -2.333911,8.488105 8.201382,-1.626758 16.520268,-2.58283 24.8670664,-3.014875 0.9623925,-0.427602 3.0118011,0.463125 3.3581921,-0.74295 2.2127418,-7.647681 3.770309,-15.470304 5.14992879,-23.305648 C -0.52543453,5.123592 -0.1468748,2.585709 0.142,0.037 L 0.04091356,0.01066058 Z m -0.225,0.286 c -2.9980107,8.4934708 -5.3300133,17.212852 -7.311125,25.99525 -0.095842,1.011712 -0.9555983,3.446534 -0.5182545,3.599755 1.875483,-1.362541 -1.6714871,-0.05665 -2.4877455,-0.06763 -7.533633,1.566035 -15.162476,2.671919 -22.841875,3.192625 0.563408,0.869916 1.056753,1.304133 1.254926,-0.138551 3.097832,-7.654977 5.84833,-15.444194 8.56841,-23.2395799 C -22.193673,5.6276661 -20.9225,1.5952437 -19.709,-2.454 c -0.319542,0.3132815 -1.89169,0.9054037 -1.232704,1.0008566 6.88618,0.78227115 13.7915988,1.43184486 20.716704,1.7391434 z"
             id="path94"
             inkscape:connector-curvature="0" /></g><g
           id="g96"
           transform="translate(594.1416,539.7476)"><path
             d="M 0,0 C -3.321,-0.025 -6.638,0.031 -9.955,0.052 L -20.203,0.27 c -3.415,0.079 -6.828,0.2 -10.242,0.314 -3.411,0.142 -6.826,0.246 -10.236,0.418 -3.41,0.175 -6.823,0.301 -10.23,0.514 -3.408,0.208 -6.818,0.39 -10.223,0.648 -6.811,0.501 -13.627,0.92 -20.434,1.488 l 0.367,0.034 c -1.959,-0.43 -3.908,-0.891 -5.829,-1.404 -0.959,-0.252 -1.913,-0.519 -2.829,-0.828 -0.463,-0.152 -0.9,-0.326 -1.314,-0.507 -0.194,-0.096 -0.386,-0.192 -0.528,-0.285 l -0.137,-0.099 c 0.01,0.007 0.014,0.02 0.008,0.035 0.032,0.048 0.064,0.153 0.042,0.229 l -0.259,0.636 0.641,-0.685 -0.49,0.24 10.549,-1.726 c 3.522,-0.541 7.048,-1.046 10.579,-1.519 3.534,-0.458 7.071,-0.882 10.616,-1.244 l 10.64,-1.03 c 1.772,-0.189 3.551,-0.303 5.327,-0.451 1.778,-0.129 3.547,-0.325 5.322,-0.485 3.543,-0.36 7.08,-0.765 10.613,-1.213 3.535,-0.421 7.065,-0.893 10.596,-1.369 l 5.292,-0.745 c 1.764,-0.25 3.528,-0.508 5.289,-0.786 l -0.762,-0.345 c 1.305,1.711 2.635,3.404 3.978,5.089 C -2.583,-3.196 -1.311,-1.585 0,0 m 0.433,0.061 c -1.112,-1.849 -2.27,-3.664 -3.423,-5.482 -1.148,-1.824 -2.306,-3.639 -3.491,-5.435 l -0.252,-0.382 -0.511,0.037 c -1.778,0.126 -3.555,0.272 -5.331,0.426 l -5.328,0.467 c -3.55,0.331 -7.1,0.667 -10.645,1.054 -3.547,0.36 -7.09,0.763 -10.627,1.21 -1.766,0.245 -3.537,0.452 -5.299,0.727 -1.762,0.271 -3.529,0.508 -5.287,0.821 l -10.551,1.792 c -3.518,0.58 -7.044,1.097 -10.575,1.58 -3.533,0.468 -7.07,0.905 -10.612,1.305 l -10.643,1.097 -0.261,0.027 -0.228,0.213 -0.719,0.673 -0.28,0.263 0.021,0.374 c 0.012,0.196 0.065,0.428 0.141,0.592 0.067,0.119 0.144,0.235 0.227,0.344 0.146,0.166 0.292,0.297 0.428,0.402 0.265,0.204 0.517,0.349 0.767,0.493 0.493,0.259 0.982,0.49 1.467,0.686 0.972,0.403 1.942,0.744 2.916,1.072 1.951,0.625 3.91,1.172 5.872,1.696 l 0.15,0.041 0.217,-0.008 c 6.827,-0.224 13.647,-0.596 20.47,-0.887 3.412,-0.138 6.819,-0.351 10.228,-0.54 3.41,-0.183 6.815,-0.452 10.221,-0.674 3.407,-0.223 6.811,-0.516 10.216,-0.77 3.404,-0.281 6.809,-0.556 10.21,-0.873 L -9.875,1.432 C -6.477,1.058 -3.076,0.725 0.319,0.298 l 0.239,-0.03 z"
             style="fill:#000000;fill-opacity:1;fill-rule:nonzero;stroke:none"
             id="path98"
             inkscape:connector-curvature="0" /></g><g
           id="g100"
           transform="translate(529.3086,504.6748)"><path
             style="fill:#000000;fill-opacity:1;fill-rule:nonzero;stroke:none"
             d="m 0,0 c 2.3546658,-6.9836331 4.2691682,-14.106143 6.026,-21.261 -5.15786697,-1.456215 -10.347085,-2.799847 -15.55,-4.085 -1.868079,6.603725 -3.535681,13.288109 -6.183386,19.6370981 C -16.888856,-2.7107053 -18.12048,0.26993928 -19.125,3.334 -12.70962,2.5580698 -6.3097381,1.5611846 -0.021,0.06 Z m -0.184,-0.12 c -5.940963,0.14511305 -11.862952,0.7422634 -17.752,1.517 0.319667,0.3876667 0.639333,0.7753333 0.959,1.163 1.739192,-5.5146836 2.90662,-11.2015635 4.944114,-16.624316 1.223334,-3.372718 2.5656854,-6.700672 3.851886,-10.049684 -0.4447532,0.272347 -1.5379789,0.603132 -0.3578389,0.730715 4.3170407,1.33615 8.63219773,2.68163 12.9828389,3.905285 -0.2503333,-0.425333 -0.5006667,-0.850667 -0.751,-1.276 -1.5388096,6.828157 -2.90813961,13.7001244 -3.877,20.634 z"
             id="path102"
             inkscape:connector-curvature="0" /></g><g
           id="g104"
           transform="translate(559.1016,502.8013)"><path
             style="fill:#000000;fill-opacity:1;fill-rule:nonzero;stroke:none"
             d="m 0,0 c 1.8973978,-5.0290846 3.3868152,-10.205934 4.637,-15.431 -3.85397885,-1.088943 -7.7391863,-2.066401 -11.641,-2.968 -1.214005,4.423198 -2.1364359,8.9493299 -3.937747,13.1880188 C -12.049033,-2.6086331 -13.198283,-0.01943626 -14.077,2.672 -9.3412623,2.1263469 -4.612311,1.3644308 -0.022,0.058 l 0.01998943,-0.0526994 z m -0.185,-0.122 c -4.2478012,-0.0782932 -8.4921307,0.31016621 -12.7,0.862 0.319667,0.3876667 0.639333,0.7753333 0.959,1.163 1.191424,-3.799366 1.798662,-7.765545 3.2242187,-11.495125 0.9147107,-2.568098 2.0418878,-5.052794 3.0457813,-7.585875 -0.331,0.175 -0.662,0.35 -0.993,0.525 3.2245598,1.050337 6.454913,2.088092 9.719,3.01 -0.2503333,-0.425333 -0.5006667,-0.850667 -0.751,-1.276 -1.0795521,4.885711 -1.9989674,9.8159148 -2.504,14.797 z"
             id="path106"
             inkscape:connector-curvature="0" /></g><g
           id="g108"
           transform="translate(307.8579,590.0479)"><path
             style="fill:#000000;fill-opacity:1;fill-rule:nonzero;stroke:none"
             d="M 0,0 C 3.3303071,11.551968 14.025232,22.343131 26.819918,20.663882 40.737172,18.94897 51.714116,9.1569589 61.303375,-0.336875 67.970511,-6.4158229 76.969219,-0.85349102 81.319,5.151 c 10.478649,13.537175 12.38933,32.765015 25.883,44.129625 8.77126,6.976418 20.71388,2.381881 28.664,-3.573625 13.67713,-9.05399 24.84409,-22.304966 29.949,-38.023 7.68083,-11.20174 18.90382,5.448458 24.71281,11.177187 4.40418,7.058423 13.98491,6.863962 20.5735,3.271178 C 218.84261,18.332553 224.46362,11.04999 227.282,3.008 222.66856,12.071635 213.99278,21.954459 202.58013,22.3955 194.3533,23.340176 191.34907,14.701747 186.28158,10.078422 181.4646,5.1313353 174.68614,-2.1460503 167.13725,1.383 160.99421,5.6102858 161.19838,14.156535 156.87355,19.774578 149.31169,32.249686 138.12998,42.768039 124.985,49.138 115.87778,54.058454 105.27138,48.483134 100.6335,40.096875 91.63606,27.333006 89.618657,10.238628 78.058,-0.784 72.867809,-6.3902814 62.94555,-6.7577246 58.226,-0.964 48.564866,8.1113522 37.479626,18.179799 23.512,18.648 12.495669,18.66984 4.1509354,9.411274 0.284,-0.096 Z"
             id="path110"
             inkscape:connector-curvature="0" /></g><g
           id="g112"
           transform="translate(498.0986,627.9668)"><path
             style="fill:#000000;fill-opacity:1;fill-rule:nonzero;stroke:none"
             d="M 0,0 C 1.5293632,6.2370177 7.2068027,12.033653 14.013778,11.226881 21.68718,10.451875 27.558177,4.8534618 32.876,-0.2 38.488695,-3.2065039 43.097012,3.708794 45.188594,8.0784219 48.519319,14.306509 50.223216,22.118429 56.291844,26.413063 61.38719,29.675599 67.52055,26.69367 71.848603,23.5235 78.636046,18.859502 84.133217,12.174131 86.728,4.307 c 3.671378,-4.92297877 8.790993,3.4370723 11.632104,5.865684 2.262446,3.383811 6.938506,3.816068 10.389066,2.094004 4.51374,-1.902418 7.79321,-6.0855341 9.22283,-10.703688 -2.58007,3.8669634 -6.51412,9.005938 -12.04255,9.444906 C 102.47546,11.673624 100.8694,9.3808548 99.090396,6.9591875 96.210663,3.7436691 93.111302,-0.47883164 88.389656,-0.58628125 83.840029,-0.16692641 83.358252,4.9733044 81.621857,8.2308125 77.759067,15.609493 71.390427,21.787321 63.838312,25.296016 57.871621,27.927636 52.752914,22.277464 50.505,17.339 46.829865,10.891717 45.605348,2.4566111 39.144687,-2.0380117 36.350374,-4.2684641 31.739365,-3.2671973 29.814,-0.964 24.763466,3.6545779 19.01229,9.1083162 11.725875,9.117375 6.3841342,8.9279287 2.3847017,4.4509073 0.285,-0.096 l -0.23126174,0.07789869 z"
             id="path114"
             inkscape:connector-curvature="0" /></g><g
           id="g116"
           transform="translate(253.8296,618.3071)"><path
             style="fill:#000000;fill-opacity:1;fill-rule:nonzero;stroke:none"
             d="M 0,0 C 0.9026923,4.4740589 4.9405116,8.5944231 9.7457321,8.0809714 15.099576,7.5957319 19.294389,3.7786345 22.943,0.178 c 3.672643,-1.9642492 6.736695,2.6126633 8.152,5.453457 2.358148,4.3252722 3.509411,9.751874 7.694187,12.796684 3.638035,2.397567 8.105893,0.328657 11.233585,-1.955769 C 54.732354,13.246794 58.571716,8.6366998 60.368,3.178 c 2.657697,-2.56526166 5.659782,3.0194526 7.755,4.59 2.368066,2.807133 6.796733,1.7610309 9.288279,-0.350123 C 79.428829,5.8278712 80.853672,3.5478066 81.536,1.082 79.598577,3.4157393 76.939718,7.090211 73.128406,7.2615781 70.74022,7.6062057 70.054047,6.1481439 68.773357,4.5135098 66.638825,2.0528792 64.132892,-1.3081453 60.467,-0.825 57.045965,0.0155594 57.074882,4.0986686 55.37375,6.5356562 52.709322,11.037765 48.72041,14.831692 44.016734,17.129422 40.040597,18.986887 36.569972,15.181306 35.045,11.889 32.46027,7.3949416 31.669515,1.5212616 27.225803,-1.691418 25.200104,-3.4199198 21.673466,-2.5706649 20.345,-0.964 16.897311,2.1240387 13.082878,5.8466999 8.1638906,5.9607656 4.5480548,5.8930627 1.837535,2.8982315 0.284,-0.096 l -0.16009155,0.05411545 z"
             id="path118"
             inkscape:connector-curvature="0" /></g></g></g></g></svg>