<?xml version="1.0" encoding="UTF-8" standalone="no"?>
<!-- Created with Inkscape (http://www.inkscape.org/) -->

<svg
   xmlns:dc="http://purl.org/dc/elements/1.1/"
   xmlns:cc="http://creativecommons.org/ns#"
   xmlns:rdf="http://www.w3.org/1999/02/22-rdf-syntax-ns#"
   xmlns:svg="http://www.w3.org/2000/svg"
   xmlns="http://www.w3.org/2000/svg"
   xmlns:sodipodi="http://sodipodi.sourceforge.net/DTD/sodipodi-0.dtd"
   xmlns:inkscape="http://www.inkscape.org/namespaces/inkscape"
   version="1.1"
   id="svg2"
   xml:space="preserve"
   width="828.21729"
   height="438.91129"
   viewBox="0 0 828.21732 438.91129"
   sodipodi:docname="retail.svg"
   inkscape:version="0.92.2 5c3e80d, 2017-08-06"><metadata
     id="metadata8"><rdf:RDF><cc:Work
         rdf:about=""><dc:format>image/svg+xml</dc:format><dc:type
           rdf:resource="http://purl.org/dc/dcmitype/StillImage" /><dc:title></dc:title></cc:Work></rdf:RDF></metadata><defs
     id="defs6"><clipPath
       clipPathUnits="userSpaceOnUse"
       id="clipPath18"><path
         d="M 0,600 H 1000 V 0 H 0 Z"
         id="path16"
         inkscape:connector-curvature="0" /></clipPath><clipPath
       clipPathUnits="userSpaceOnUse"
       id="clipPath114"><path
         d="m 551.856,343.112 h 72.713 v -3.086 h -72.713 z"
         id="path112"
         inkscape:connector-curvature="0" /></clipPath><clipPath
       clipPathUnits="userSpaceOnUse"
       id="clipPath210"><path
         d="M 391.521,341.741 H 521.33 V 338.67 H 391.521 Z"
         id="path208"
         inkscape:connector-curvature="0" /></clipPath><clipPath
       clipPathUnits="userSpaceOnUse"
       id="clipPath226"><path
         d="M 344.5,387.291 344,369.499 v -4.147 l 3.116,-0.451 2.543,0.222 323.307,0.274 1.48,0.006 1.054,0.138 -0.21,4.12 -0.79,19.062 z"
         id="path224"
         inkscape:connector-curvature="0" /></clipPath><clipPath
       clipPathUnits="userSpaceOnUse"
       id="clipPath238"><path
         d="M 0,600 H 1000 V 0 H 0 Z"
         id="path236"
         inkscape:connector-curvature="0" /></clipPath></defs><sodipodi:namedview
     pagecolor="#ffffff"
     bordercolor="#666666"
     borderopacity="1"
     objecttolerance="10"
     gridtolerance="10"
     guidetolerance="10"
     inkscape:pageopacity="0"
     inkscape:pageshadow="2"
     inkscape:window-width="1920"
     inkscape:window-height="1029"
     id="namedview4"
     showgrid="false"
     inkscape:zoom="0.945272"
     inkscape:cx="229.58022"
     inkscape:cy="196.04302"
     inkscape:window-x="0"
     inkscape:window-y="24"
     inkscape:window-maximized="1"
     inkscape:current-layer="g10" /><g
     id="g10"
     inkscape:groupmode="layer"
     inkscape:label="retail"
     transform="matrix(1.3333333,0,0,-1.3333333,-239.14251,643.14321)"><g
       id="g12"><g
         id="g14"
         clip-path="url(#clipPath18)"><g
           id="g20"
           transform="translate(662.1445,218.8037)"><path
             d="m 0,0 c 0,0 5.999,32 32.666,31.334 26.667,-0.668 34,-23.334 36,-32.668 0,0 4.667,24 24.667,21.334 20,-2.666 20,-22.666 20,-22.666 H 0.666 Z"
             style="fill:#cef6d1;fill-opacity:1;fill-rule:nonzero;stroke:none"
             id="path22"
             inkscape:connector-curvature="0" /></g><g
           id="g24"
           transform="translate(245.5479,243.3896)"><path
             d="m 0,0 c 0,0 -22.727,43.182 6.818,67.046 0,0 11.364,10.226 26.137,-26.137 C 47.728,4.546 3.409,-13.637 0,0"
             style="fill:#cef6d1;fill-opacity:1;fill-rule:evenodd;stroke:none"
             id="path26"
             inkscape:connector-curvature="0" /></g><g
           id="g28"
           transform="translate(661.4248,217.0273)"><path
             d="m 0,0 c 0,0 0.019,0.436 0.053,1.253 0.017,0.408 0.039,0.912 0.064,1.505 0.016,0.296 0.018,0.615 0.048,0.953 0.048,0.337 0.1,0.695 0.154,1.073 0.113,0.757 0.222,1.598 0.382,2.506 0.227,0.894 0.472,1.86 0.734,2.893 0.283,1.026 0.726,2.074 1.116,3.204 0.423,1.118 1.032,2.224 1.577,3.417 0.303,0.581 0.675,1.14 1.019,1.729 0.369,0.574 0.677,1.204 1.113,1.763 0.861,1.122 1.672,2.349 2.734,3.419 1.955,2.291 4.447,4.302 7.157,6.13 2.74,1.812 5.87,3.17 9.138,4.226 3.3,0.997 6.78,1.459 10.283,1.551 3.483,-0.068 6.987,-0.507 10.296,-1.483 3.276,-1.055 6.404,-2.435 9.144,-4.254 2.708,-1.839 5.196,-3.858 7.146,-6.156 1.061,-1.073 1.868,-2.303 2.728,-3.427 0.434,-0.559 0.742,-1.19 1.109,-1.765 0.344,-0.59 0.715,-1.149 1.017,-1.731 0.543,-1.195 1.15,-2.301 1.57,-3.42 0.388,-1.131 0.83,-2.179 1.11,-3.206 0.261,-1.033 0.504,-1.999 0.729,-2.893 0.157,-0.907 0.265,-1.748 0.381,-2.503 0.055,-0.378 0.108,-0.735 0.158,-1.072 0.03,-0.338 0.034,-0.658 0.051,-0.954 0.027,-0.593 0.05,-1.097 0.069,-1.506 0.037,-0.817 0.057,-1.253 0.057,-1.253 h -0.026 c 0,0 -0.024,0.436 -0.069,1.252 -0.022,0.408 -0.051,0.911 -0.083,1.503 -0.021,0.296 -0.027,0.614 -0.061,0.952 -0.053,0.335 -0.109,0.691 -0.169,1.068 -0.124,0.753 -0.239,1.59 -0.405,2.493 -0.233,0.888 -0.485,1.849 -0.755,2.877 -0.29,1.019 -0.741,2.06 -1.137,3.18 -0.43,1.11 -1.045,2.205 -1.597,3.387 -0.306,0.575 -0.681,1.129 -1.028,1.711 -0.371,0.567 -0.682,1.191 -1.12,1.742 -0.868,1.107 -1.656,2.337 -2.712,3.401 -1.934,2.286 -4.404,4.292 -7.092,6.122 -2.718,1.814 -5.827,3.18 -9.078,4.242 -3.285,0.997 -6.745,1.46 -10.241,1.556 C 32.09,35.412 28.606,34.973 25.312,33.996 22.053,32.936 18.945,31.548 16.229,29.727 13.542,27.886 11.074,25.872 9.146,23.58 8.092,22.513 7.307,21.278 6.441,20.171 6.004,19.618 5.693,18.994 5.323,18.426 4.978,17.843 4.604,17.288 4.299,16.713 3.75,15.53 3.136,14.433 2.709,13.323 2.314,12.201 1.864,11.161 1.576,10.141 1.309,9.113 1.059,8.152 0.827,7.264 0.663,6.361 0.551,5.525 0.423,4.774 0.362,4.398 0.305,4.042 0.251,3.707 0.216,3.369 0.208,3.05 0.187,2.754 0.152,2.162 0.123,1.658 0.099,1.25 0.051,0.434 0.025,-0.002 0.025,-0.002 Z"
             style="fill:#49210a;fill-opacity:1;fill-rule:nonzero;stroke:none"
             id="path30"
             inkscape:connector-curvature="0" /></g><g
           id="g32"
           transform="translate(731.4912,217.5488)"><path
             d="m 0,0 c 0,0 0.011,0.282 0.031,0.811 0.047,0.527 -0.015,1.308 0.162,2.287 0.07,0.49 0.14,1.035 0.243,1.624 0.145,0.579 0.303,1.205 0.471,1.874 0.183,0.666 0.469,1.344 0.72,2.078 0.272,0.724 0.666,1.441 1.018,2.216 0.424,0.734 0.865,1.506 1.377,2.265 0.557,0.728 1.086,1.521 1.775,2.214 1.269,1.483 2.887,2.783 4.643,3.964 1.778,1.172 3.807,2.045 5.923,2.728 2.134,0.649 4.391,0.951 6.656,1.014 2.258,-0.039 4.528,-0.318 6.675,-0.947 2.124,-0.682 4.152,-1.576 5.928,-2.755 1.756,-1.192 3.369,-2.5 4.634,-3.989 0.687,-0.696 1.212,-1.493 1.767,-2.223 0.513,-0.759 0.953,-1.533 1.376,-2.268 0.351,-0.775 0.744,-1.493 1.015,-2.218 0.25,-0.733 0.536,-1.413 0.717,-2.078 0.168,-0.67 0.324,-1.296 0.47,-1.875 0.1,-0.588 0.17,-1.133 0.241,-1.623 0.178,-0.976 0.116,-1.762 0.164,-2.288 0.02,-0.53 0.031,-0.812 0.031,-0.812 h -0.025 c 0,0 -0.018,0.281 -0.051,0.81 -0.06,0.525 -0.017,1.308 -0.218,2.277 -0.08,0.485 -0.17,1.023 -0.266,1.609 -0.152,0.575 -0.316,1.196 -0.491,1.859 -0.188,0.658 -0.481,1.33 -0.738,2.053 -0.278,0.717 -0.677,1.424 -1.034,2.187 -0.43,0.724 -0.874,1.484 -1.39,2.228 -0.561,0.714 -1.069,1.51 -1.752,2.198 -1.248,1.476 -2.843,2.772 -4.579,3.956 -1.755,1.172 -3.763,2.053 -5.862,2.742 -2.12,0.648 -4.357,0.953 -6.612,1.02 -2.251,-0.043 -4.5,-0.325 -6.633,-0.953 -2.108,-0.686 -4.114,-1.59 -5.868,-2.77 C 8.783,18.021 7.191,16.718 5.948,15.234 5.268,14.544 4.765,13.744 4.203,13.029 3.688,12.283 3.244,11.522 2.815,10.798 2.46,10.034 2.062,9.326 1.784,8.609 1.528,7.886 1.236,7.213 1.05,6.554 0.875,5.891 0.713,5.27 0.562,4.695 0.465,4.11 0.376,3.572 0.296,3.087 0.095,2.12 0.137,1.333 0.076,0.809 0.043,0.28 0.025,-0.002 0.025,-0.002 Z"
             style="fill:#49210a;fill-opacity:1;fill-rule:nonzero;stroke:none"
             id="path34"
             inkscape:connector-curvature="0" /></g><g
           id="g36"
           transform="translate(351.3687,216.4785)"><path
             d="m 0,0 c 0,0 0.012,2.214 0.034,6.089 0.05,3.873 0.122,9.407 0.208,16.047 0.042,3.32 0.087,6.918 0.191,10.72 0.09,3.804 0.185,7.816 0.283,11.965 0.097,4.15 0.198,8.438 0.3,12.794 0.062,4.358 0.124,8.784 0.187,13.212 0.123,8.854 0.246,17.707 0.361,26.008 0.079,4.149 0.154,8.161 0.226,11.965 0.087,3.804 0.169,7.4 0.245,10.72 0.169,6.639 0.31,12.171 0.408,16.044 0.12,3.872 0.187,6.085 0.187,6.085 l 0.05,-0.001 c 0,0 -0.014,-2.214 -0.039,-6.088 C 2.596,131.687 2.531,126.152 2.454,119.512 2.406,116.192 2.355,112.595 2.3,108.791 2.231,104.987 2.158,100.975 2.082,96.825 1.889,88.526 1.683,79.674 1.477,70.821 1.375,66.396 1.274,61.97 1.174,57.612 1.114,53.255 1.055,48.966 0.998,44.815 0.942,40.666 0.888,36.653 0.837,32.85 0.8,29.045 0.711,25.448 0.63,22.129 0.469,15.49 0.335,9.957 0.242,6.085 0.12,2.212 0.05,0 0.05,0 Z"
             style="fill:#282828;fill-opacity:1;fill-rule:nonzero;stroke:none"
             id="path38"
             inkscape:connector-curvature="0" /></g><g
           id="g40"
           transform="translate(320.1338,359.0708)"><path
             d="M 0,0 C 0,0 2.135,0.094 5.333,0.048 6.133,0.041 7,0.033 7.915,-0.008 c 0.916,-0.022 1.88,-0.097 2.879,-0.15 1.996,-0.124 4.128,-0.179 6.261,-0.154 2.133,0.01 4.266,0.003 6.264,-0.033 1.999,-0.046 3.864,-0.092 5.462,-0.176 3.196,-0.139 5.323,-0.326 5.323,-0.326 v -0.049 c 0,0 -2.135,-0.082 -5.334,-0.062 -1.6,-0.004 -3.465,0.042 -5.463,0.095 -1.998,0.063 -4.129,0.163 -6.259,0.278 -2.129,0.132 -4.261,0.183 -6.261,0.158 -1,-0.004 -1.967,-0.031 -2.883,-0.008 -0.916,0.005 -1.782,0.04 -2.581,0.072 -3.196,0.113 -5.324,0.313 -5.324,0.313 z"
             style="fill:#282828;fill-opacity:1;fill-rule:nonzero;stroke:none"
             id="path42"
             inkscape:connector-curvature="0" /></g><g
           id="g44"
           transform="translate(319.8853,347.8599)"><path
             d="m 0,0 c 0,0 -0.123,0.715 -0.144,1.785 -0.018,0.534 0.024,1.156 0.123,1.822 0.099,0.665 0.105,1.378 0.049,2.091 -0.103,1.427 -0.094,2.852 0.014,3.918 0.089,1.067 0.237,1.775 0.237,1.775 l 0.05,-10e-4 c 0,0 0.113,-0.715 0.15,-1.785 C 0.535,8.536 0.474,7.112 0.301,5.692 0.21,4.981 0.182,4.27 0.248,3.601 0.314,2.931 0.326,2.307 0.281,1.774 0.208,0.708 0.05,-0.001 0.05,-0.001 Z"
             style="fill:#282828;fill-opacity:1;fill-rule:nonzero;stroke:none"
             id="path46"
             inkscape:connector-curvature="0" /></g><g
           id="g48"
           transform="translate(335.126,331.2568)"><path
             d="m 0,0 c -5.35,0.008 -10.695,0.145 -16.043,0.215 l -8.019,0.198 -8.018,0.252 -0.242,0.008 0.019,0.228 0.135,1.591 0.293,1.568 c 0.131,0.514 0.297,1.02 0.444,1.529 0.18,0.5 0.396,0.985 0.593,1.478 0.227,0.478 0.49,0.94 0.733,1.41 0.276,0.452 0.58,0.887 0.867,1.331 l 0.988,1.241 1.104,1.139 1.212,1.022 1.304,0.899 c 0.462,0.255 0.916,0.524 1.384,0.766 0.482,0.212 0.956,0.447 1.445,0.645 0.5,0.166 0.995,0.352 1.501,0.501 0.515,0.116 1.026,0.249 1.545,0.353 l 1.576,0.211 1.581,0.06 1.587,-0.102 1.572,-0.255 c 0.517,-0.119 1.027,-0.269 1.54,-0.412 0.502,-0.171 0.992,-0.381 1.489,-0.571 0.483,-0.221 0.95,-0.477 1.426,-0.715 0.459,-0.269 0.9,-0.569 1.346,-0.858 l 1.25,-0.991 1.147,-1.108 1.031,-1.216 0.907,-1.31 C -2.048,8.641 -1.78,8.183 -1.54,7.71 -1.333,7.222 -1.107,6.741 -0.918,6.247 -0.761,5.741 -0.583,5.242 -0.444,4.732 -0.335,4.214 -0.217,3.698 -0.131,3.178 L 0.024,1.601 0.025,0 Z m -0.026,0.051 -0.07,1.547 -0.222,1.548 c -0.107,0.51 -0.252,1.013 -0.368,1.52 -0.15,0.498 -0.338,0.985 -0.505,1.477 -0.199,0.48 -0.433,0.945 -0.647,1.418 -0.247,0.456 -0.523,0.897 -0.782,1.346 l -0.899,1.27 -1.018,1.175 -1.13,1.068 -1.227,0.952 -1.309,0.834 c -0.462,0.234 -0.914,0.488 -1.382,0.707 -0.482,0.188 -0.957,0.398 -1.445,0.569 -0.5,0.138 -0.991,0.306 -1.493,0.435 l -1.53,0.291 -1.552,0.142 -1.568,-0.015 -1.549,-0.165 c -0.512,-0.089 -1.019,-0.22 -1.529,-0.327 -0.502,-0.141 -0.993,-0.321 -1.491,-0.479 -0.485,-0.191 -0.957,-0.416 -1.436,-0.624 -0.46,-0.247 -0.906,-0.521 -1.359,-0.779 l -1.275,-0.907 -1.181,-1.027 -1.071,-1.138 -0.955,-1.237 C -29.294,9.21 -29.582,8.776 -29.843,8.328 -30.072,7.861 -30.32,7.403 -30.533,6.93 -30.714,6.443 -30.917,5.964 -31.081,5.473 -31.213,4.971 -31.366,4.475 -31.483,3.971 l -0.252,-1.533 -0.109,-1.55 -0.223,0.236 8.019,-0.183 8.018,-0.236 c 5.335,-0.22 10.671,-0.373 16.004,-0.654"
             style="fill:#282828;fill-opacity:1;fill-rule:nonzero;stroke:none"
             id="path50"
             inkscape:connector-curvature="0" /></g><g
           id="g52"
           transform="translate(326.0732,331.4224)"><path
             d="m 0,0 c 0,0 -0.016,-0.347 -0.042,-0.955 -0.008,-0.151 -0.016,-0.319 -0.039,-0.501 -0.051,-0.18 -0.107,-0.375 -0.166,-0.583 -0.062,-0.209 -0.121,-0.436 -0.199,-0.67 -0.082,-0.231 -0.23,-0.441 -0.352,-0.68 -0.135,-0.23 -0.251,-0.487 -0.419,-0.721 -0.184,-0.222 -0.39,-0.439 -0.593,-0.668 -0.106,-0.111 -0.2,-0.236 -0.319,-0.338 l -0.39,-0.277 c -0.268,-0.177 -0.517,-0.391 -0.811,-0.542 -0.611,-0.263 -1.203,-0.6 -1.889,-0.729 -0.651,-0.253 -1.362,-0.23 -2.063,-0.339 -0.719,0.077 -1.388,0.037 -2.075,0.311 -0.708,0.164 -1.293,0.541 -1.883,0.867 -0.286,0.176 -0.515,0.424 -0.763,0.63 -0.25,0.208 -0.48,0.424 -0.653,0.683 -0.187,0.245 -0.368,0.483 -0.544,0.714 -0.153,0.244 -0.251,0.511 -0.371,0.75 -0.106,0.245 -0.241,0.466 -0.305,0.701 -0.056,0.237 -0.108,0.462 -0.157,0.673 -0.047,0.21 -0.091,0.406 -0.132,0.588 -0.014,0.186 -0.011,0.358 -0.011,0.512 0.002,0.612 0.003,0.961 0.003,0.961 l 0.05,-0.001 c 0,0 0.052,-0.342 0.143,-0.939 0.022,-0.147 0.045,-0.31 0.071,-0.487 0.058,-0.17 0.121,-0.354 0.188,-0.55 0.065,-0.195 0.135,-0.403 0.207,-0.621 0.076,-0.217 0.22,-0.418 0.333,-0.642 0.128,-0.216 0.233,-0.459 0.391,-0.677 0.169,-0.211 0.344,-0.429 0.523,-0.653 0.163,-0.24 0.38,-0.437 0.617,-0.626 0.234,-0.188 0.449,-0.412 0.704,-0.59 0.536,-0.321 1.077,-0.694 1.705,-0.868 0.574,-0.289 1.324,-0.318 1.967,-0.463 0.672,0.039 1.375,-0.025 2.015,0.215 0.667,0.136 1.24,0.489 1.788,0.809 0.265,0.174 0.484,0.407 0.72,0.598 0.234,0.194 0.457,0.388 0.63,0.623 0.188,0.219 0.362,0.438 0.546,0.638 0.167,0.212 0.283,0.451 0.42,0.662 0.122,0.219 0.276,0.415 0.358,0.627 0.074,0.214 0.16,0.412 0.234,0.603 0.077,0.191 0.149,0.37 0.215,0.535 0.036,0.179 0.068,0.344 0.098,0.492 0.127,0.595 0.2,0.935 0.2,0.935 z"
             style="fill:#282828;fill-opacity:1;fill-rule:nonzero;stroke:none"
             id="path54"
             inkscape:connector-curvature="0" /></g><g
           id="g56"
           transform="translate(261.7666,313.918)"><path
             d="M 0,0 C 0,0 -0.144,0.124 -0.422,0.364 -0.717,0.583 -1.151,0.92 -1.788,1.241 -2.419,1.566 -3.24,1.904 -4.254,2.1 -5.258,2.274 -6.502,2.331 -7.725,1.794 -8.332,1.532 -8.874,1.075 -9.39,0.552 c -0.531,-0.508 -1.087,-1.04 -1.666,-1.595 -1.2,-1.069 -2.315,-2.402 -3.558,-3.776 -0.306,-0.348 -0.631,-0.69 -0.934,-1.058 -0.291,-0.379 -0.586,-0.765 -0.886,-1.155 -0.598,-0.782 -1.213,-1.586 -1.845,-2.41 -0.57,-0.87 -1.154,-1.761 -1.752,-2.673 -0.297,-0.458 -0.596,-0.921 -0.9,-1.389 -0.268,-0.489 -0.539,-0.983 -0.812,-1.483 -2.277,-3.948 -4.199,-8.544 -5.527,-13.588 -1.322,-5.039 -1.997,-10.578 -1.533,-16.255 0.449,-5.668 2.091,-11.447 5.039,-16.649 0.772,-1.289 1.459,-2.624 2.428,-3.779 0.845,-1.252 1.949,-2.285 3,-3.369 2.266,-1.994 4.929,-3.564 7.841,-4.415 2.903,-0.864 6.031,-0.996 8.987,-0.355 2.962,0.615 5.75,1.913 8.159,3.676 0.578,0.472 1.206,0.886 1.738,1.408 l 1.575,1.576 c 0.928,1.15 1.903,2.262 2.611,3.557 0.818,1.226 1.392,2.564 2.035,3.864 0.677,1.282 1.159,2.638 1.685,3.962 2.028,5.325 3.074,10.817 3.084,16.036 0.02,5.221 -0.945,10.126 -2.421,14.428 -0.19,0.537 -0.379,1.069 -0.565,1.594 l -0.28,0.783 -0.34,0.75 c -0.45,0.993 -0.891,1.963 -1.32,2.91 -0.478,0.921 -0.989,1.797 -1.461,2.661 -0.239,0.429 -0.474,0.853 -0.707,1.271 -0.262,0.4 -0.52,0.793 -0.774,1.18 -0.511,0.773 -1.005,1.522 -1.483,2.244 -0.47,0.727 -1.02,1.36 -1.496,2.006 C 8.043,-8.856 7.575,-8.245 7.126,-7.663 6.681,-7.077 6.189,-6.575 5.759,-6.068 4.873,-5.075 4.11,-4.162 3.396,-3.414 2.667,-2.68 2.046,-2.057 1.543,-1.551 0.537,-0.54 0,0 0,0 m 0.018,0.018 c 0,0 0.539,-0.537 1.55,-1.544 0.506,-0.503 1.13,-1.124 1.863,-1.853 0.717,-0.746 1.485,-1.656 2.377,-2.645 0.433,-0.506 0.929,-1.007 1.377,-1.591 0.452,-0.581 0.924,-1.19 1.416,-1.823 0.48,-0.645 1.033,-1.276 1.508,-2.001 0.482,-0.722 0.981,-1.469 1.496,-2.242 0.257,-0.386 0.517,-0.779 0.782,-1.177 0.235,-0.418 0.473,-0.842 0.715,-1.272 0.478,-0.863 0.995,-1.737 1.479,-2.658 0.436,-0.947 0.883,-1.918 1.34,-2.912 l 0.345,-0.75 0.285,-0.784 c 0.19,-0.527 0.382,-1.059 0.575,-1.597 1.509,-4.309 2.513,-9.239 2.455,-14.489 -0.03,-5.243 -1.099,-10.754 -3.154,-16.083 -0.533,-1.326 -1.022,-2.684 -1.705,-3.966 -0.647,-1.295 -1.235,-2.646 -2.057,-3.866 -0.71,-1.287 -1.7,-2.411 -2.635,-3.562 l -1.588,-1.575 c -0.537,-0.52 -1.165,-0.937 -1.744,-1.413 -2.41,-1.779 -5.206,-3.095 -8.183,-3.725 -2.971,-0.656 -6.122,-0.536 -9.051,0.324 -2.94,0.846 -5.632,2.419 -7.924,4.422 -1.063,1.088 -2.181,2.126 -3.038,3.384 -0.981,1.163 -1.684,2.512 -2.455,3.79 -2.977,5.223 -4.629,11.047 -5.085,16.741 -0.47,5.707 0.205,11.273 1.531,16.336 1.317,5.074 3.283,9.678 5.594,13.621 0.277,0.5 0.552,0.995 0.824,1.483 0.307,0.468 0.611,0.93 0.912,1.387 0.606,0.911 1.197,1.8 1.774,2.668 0.638,0.824 1.26,1.625 1.865,2.404 0.303,0.39 0.6,0.774 0.894,1.152 0.307,0.368 0.634,0.709 0.942,1.055 1.252,1.371 2.376,2.7 3.583,3.764 0.583,0.553 1.142,1.083 1.677,1.589 0.519,0.52 1.066,0.98 1.69,1.246 1.244,0.538 2.498,0.472 3.507,0.293 1.019,-0.202 1.841,-0.546 2.474,-0.876 0.638,-0.326 1.072,-0.666 1.367,-0.887 0.278,-0.243 0.422,-0.368 0.422,-0.368"
             style="fill:#231f20;fill-opacity:1;fill-rule:nonzero;stroke:none"
             id="path58"
             inkscape:connector-curvature="0" /></g><g
           id="g60"
           transform="translate(255.084,214.8691)"><path
             d="M 0,0 3.782,0.016 3.754,-0.014 C 3.557,5.415 3.466,10.847 3.391,16.278 3.308,21.71 3.287,27.142 3.26,32.573 3.229,38.004 3.198,43.436 3.11,48.865 3.066,51.58 3.019,54.296 2.919,57.009 2.868,58.364 2.806,59.721 2.707,61.073 2.657,61.749 2.599,62.426 2.512,63.097 2.465,63.431 2.419,63.767 2.345,64.095 2.308,64.258 2.269,64.423 2.21,64.575 2.139,64.723 2.101,64.899 1.965,64.869 1.713,64.771 1.607,64.369 1.51,64.073 1.415,63.751 1.355,63.418 1.294,63.086 1.18,62.419 1.103,61.744 1.037,61.069 0.905,59.72 0.826,58.364 0.757,57.009 0.622,54.297 0.57,51.581 0.536,48.866 0.47,43.435 0.477,38.004 0.481,32.572 0.5,27.141 0.472,21.709 0.418,16.277 0.361,10.85 0.279,5.421 0,0 m -0.025,-0.012 c 0.188,5.428 0.24,10.86 0.274,16.29 l 0.038,16.294 c 0.023,5.432 0.047,10.865 0.146,16.295 0.053,2.716 0.122,5.431 0.234,8.146 0.062,1.356 0.135,2.714 0.261,4.067 0.063,0.677 0.136,1.353 0.249,2.025 0.06,0.335 0.118,0.672 0.215,1.002 0.048,0.164 0.095,0.331 0.174,0.489 0.072,0.151 0.163,0.336 0.373,0.398 0.145,0.032 0.182,-0.035 0.274,-0.129 0.047,-0.081 0.093,-0.16 0.119,-0.243 0.064,-0.164 0.104,-0.331 0.143,-0.498 0.077,-0.335 0.124,-0.672 0.173,-1.009 0.093,-0.676 0.155,-1.352 0.21,-2.03 C 2.966,59.729 3.037,58.373 3.097,57.016 3.212,54.301 3.286,51.585 3.336,48.869 3.43,43.438 3.466,38.006 3.501,32.574 L 3.584,16.28 C 3.614,10.849 3.66,5.418 3.811,-0.012 l 10e-4,-0.029 h -0.03 l -3.807,0.016 z"
             style="fill:#231f20;fill-opacity:1;fill-rule:nonzero;stroke:none"
             id="path62"
             inkscape:connector-curvature="0" /></g><g
           id="g64"
           transform="translate(271.1367,260.2891)"><path
             d="m 0,0 c -0.018,-0.01 0.091,-0.05 0.087,-0.236 0.004,-0.174 -0.064,-0.412 -0.19,-0.695 -0.251,-0.565 -0.713,-1.315 -1.323,-2.17 -0.599,-0.863 -1.36,-1.823 -2.204,-2.826 -0.85,-0.997 -1.711,-2.097 -2.576,-3.195 -1.712,-2.21 -3.472,-4.379 -4.797,-6 -1.31,-1.636 -2.182,-2.727 -2.182,-2.727 l -0.021,0.016 c 10e-4,-0.001 0.766,1.172 2.038,2.84 1.258,1.679 3.036,3.837 4.856,5.957 0.9,1.068 1.799,2.139 2.576,3.193 0.784,1.047 1.516,2.025 2.143,2.863 0.617,0.843 1.117,1.557 1.396,2.094 0.147,0.264 0.229,0.493 0.239,0.646 0.027,0.155 -0.083,0.224 -0.063,0.226 z"
             style="fill:#231f20;fill-opacity:1;fill-rule:nonzero;stroke:none"
             id="path66"
             inkscape:connector-curvature="0" /></g><g
           id="g68"
           transform="translate(271.1367,269.7178)"><path
             d="m 0,0 c -0.018,-0.01 0.091,-0.05 0.087,-0.236 0.004,-0.174 -0.064,-0.412 -0.19,-0.695 -0.251,-0.565 -0.713,-1.315 -1.323,-2.17 -0.599,-0.863 -1.36,-1.823 -2.204,-2.826 -0.85,-0.997 -1.711,-2.097 -2.576,-3.195 -1.712,-2.21 -3.472,-4.379 -4.797,-6 -1.31,-1.636 -2.182,-2.726 -2.182,-2.726 l -0.021,0.014 c 10e-4,0 0.766,1.173 2.038,2.841 1.258,1.679 3.036,3.837 4.856,5.957 0.9,1.068 1.799,2.139 2.576,3.193 0.784,1.047 1.516,2.025 2.143,2.863 0.617,0.843 1.117,1.557 1.396,2.094 0.147,0.264 0.229,0.493 0.239,0.646 0.027,0.155 -0.083,0.224 -0.063,0.226 z"
             style="fill:#231f20;fill-opacity:1;fill-rule:nonzero;stroke:none"
             id="path70"
             inkscape:connector-curvature="0" /></g><g
           id="g72"
           transform="translate(242.6016,266.5605)"><path
             d="m 0,0 c 0.019,-0.002 -0.091,-0.071 -0.063,-0.227 0.01,-0.152 0.092,-0.381 0.238,-0.645 0.28,-0.537 0.78,-1.251 1.397,-2.095 0.627,-0.837 1.359,-1.814 2.143,-2.862 0.777,-1.055 1.676,-2.124 2.576,-3.193 1.82,-2.121 3.598,-4.279 4.855,-5.957 1.272,-1.668 2.038,-2.841 2.038,-2.84 l -0.02,-0.016 c 0,0 -0.873,1.091 -2.183,2.727 -1.325,1.621 -3.084,3.79 -4.796,6 -0.865,1.097 -1.726,2.198 -2.576,3.196 -0.844,1.002 -1.605,1.962 -2.204,2.825 -0.61,0.855 -1.072,1.606 -1.323,2.17 -0.126,0.282 -0.194,0.521 -0.191,0.694 -0.003,0.187 0.105,0.227 0.088,0.237 z"
             style="fill:#231f20;fill-opacity:1;fill-rule:nonzero;stroke:none"
             id="path74"
             inkscape:connector-curvature="0" /></g><g
           id="g76"
           transform="translate(242.6016,275.9902)"><path
             d="m 0,0 c 0.02,-0.002 -0.091,-0.071 -0.063,-0.227 0.009,-0.152 0.092,-0.381 0.238,-0.645 0.28,-0.537 0.78,-1.251 1.397,-2.095 0.627,-0.838 1.359,-1.815 2.142,-2.862 0.777,-1.055 1.677,-2.125 2.577,-3.193 1.819,-2.122 3.597,-4.279 4.855,-5.957 1.272,-1.669 2.038,-2.841 2.038,-2.84 l -0.02,-0.016 c 0,0 -0.873,1.091 -2.183,2.726 -1.325,1.622 -3.084,3.791 -4.796,6 -0.866,1.097 -1.726,2.198 -2.576,3.196 -0.845,1.003 -1.606,1.963 -2.204,2.826 -0.611,0.855 -1.072,1.605 -1.323,2.17 -0.126,0.282 -0.194,0.521 -0.191,0.694 -0.003,0.187 0.105,0.227 0.088,0.237 z"
             style="fill:#231f20;fill-opacity:1;fill-rule:nonzero;stroke:none"
             id="path78"
             inkscape:connector-curvature="0" /></g><g
           id="g80"
           transform="translate(521.1924,266.7051)"><path
             d="M 0,0 -0.159,73.321 H -128.493 L -129.635,0 Z"
             style="fill:#d2f8ed;fill-opacity:1;fill-rule:nonzero;stroke:none"
             id="path82"
             inkscape:connector-curvature="0" /></g><g
           id="g84"
           transform="translate(485.3501,291.748)"><path
             d="m 0,0 -4.022,25.151 c 0,0 -3.677,5.02 -7.319,4.324 -3.643,-0.697 -56.67,-9.063 -56.67,-9.063 0,0 -5.973,-2.634 -3.973,-11.134 2,-8.5 2.5,-18.5 2.5,-18.5 0,0 2,-7.5 10.5,-5.5 8.5,2 61.468,7.444 58.984,14.722"
             style="fill:#ffffff;fill-opacity:1;fill-rule:nonzero;stroke:none"
             id="path86"
             inkscape:connector-curvature="0" /></g><g
           id="g88"
           transform="translate(289.7378,196.8584)"><path
             d="m 0,0 -0.069,17.918 v 0.094 h 0.094 l 55.072,0.097 27.536,0.026 27.536,-0.041 55.072,-0.089 55.072,0.063 110.144,0.091 55.072,-0.044 55.072,-0.13 h 0.067 V 17.918 L 440.626,0 h -0.05 l -0.042,17.918 0.067,-0.067 -55.072,-0.13 -55.072,-0.044 -110.144,0.091 -55.072,0.063 L 110.169,17.742 82.633,17.701 55.097,17.727 0.025,17.824 0.119,17.918 0.05,0 Z"
             style="fill:#232323;fill-opacity:1;fill-rule:nonzero;stroke:none"
             id="path90"
             inkscape:connector-curvature="0" /></g><g
           id="g92"
           transform="translate(363.4443,366.0225)"><path
             d="m 0,0 0.214,-75.623 0.106,-37.812 0.015,-37.811 -0.187,0.186 73.229,-0.092 73.228,0.055 146.458,0.094 -0.243,-0.244 -0.178,75.965 -0.112,75.964 h 0.051 l 0.397,-75.963 0.329,-75.964 10e-4,-0.244 h -0.245 l -146.458,0.093 -73.228,0.056 -73.229,-0.093 h -0.186 v 0.187 l -0.072,37.811 0.02,37.812 L -0.05,0 Z"
             style="fill:#232323;fill-opacity:1;fill-rule:nonzero;stroke:none"
             id="path94"
             inkscape:connector-curvature="0" /></g><g
           id="g96"
           transform="translate(657.3359,225.9229)"><path
             d="M 0,0 C 0.268,-0.039 0.548,-0.02 0.807,-0.107 1.069,-0.182 1.331,-0.259 1.563,-0.406 1.816,-0.516 2.016,-0.707 2.229,-0.877 2.422,-1.066 2.604,-1.278 2.752,-1.505 2.883,-1.746 3.033,-1.977 3.097,-2.25 3.2,-2.513 3.229,-2.781 3.256,-3.049 3.298,-3.33 3.275,-3.592 3.289,-3.864 l 0.014,-0.809 0.102,-6.473 0.003,-0.191 -0.197,-0.004 c -2.596,-0.052 -5.19,-0.067 -7.786,-0.063 l -7.786,0.009 -15.573,0.13 -0.119,0.001 0.001,0.118 0.041,5.56 -0.034,5.561 -10e-4,0.11 0.112,0.002 c 4.656,0.065 9.312,0.149 13.967,0.091 2.328,-0.007 4.655,-0.074 6.984,-0.107 C -4.655,0.02 -2.328,0.015 0,0 m 0,-0.051 c -2.328,-0.014 -4.655,-0.019 -6.983,-0.071 -2.329,-0.032 -4.656,-0.1 -6.984,-0.107 -4.655,-0.058 -9.311,0.026 -13.967,0.091 l 0.112,0.113 -0.034,-5.561 0.041,-5.56 -0.119,0.118 15.573,0.13 7.786,0.009 c 2.596,0.004 5.19,-0.011 7.786,-0.063 l -0.194,-0.194 0.102,6.473 0.014,0.809 C 3.13,-3.598 3.16,-3.317 3.13,-3.063 3.115,-2.791 3.091,-2.522 2.993,-2.278 2.938,-2.019 2.794,-1.792 2.671,-1.557 2.53,-1.334 2.356,-1.126 2.172,-0.938 1.966,-0.771 1.774,-0.58 1.528,-0.47 1.303,-0.322 1.048,-0.243 0.791,-0.167 0.538,-0.077 0.264,-0.093 0,-0.051"
             style="fill:#232323;fill-opacity:1;fill-rule:nonzero;stroke:none"
             id="path98"
             inkscape:connector-curvature="0" /></g><g
           id="g100"
           transform="translate(629.4277,347.7744)"><path
             d="m 0,0 0.174,-66.512 0.047,-33.243 -0.01,-33.243 v -0.236 h -0.236 l -82.296,0.099 h -0.137 v 0.137 l 0.048,33.243 -0.029,33.243 -0.101,66.487 v 0.219 h 0.219 l 41.148,-0.069 z m -0.051,-0.05 -41.122,-0.125 -41.148,-0.069 0.218,0.219 -0.1,-66.487 -0.029,-33.243 0.047,-33.243 -0.136,0.137 82.296,0.099 -0.237,-0.236 -0.009,33.243 0.046,33.243 z"
             style="fill:#232323;fill-opacity:1;fill-rule:nonzero;stroke:none"
             id="path102"
             inkscape:connector-curvature="0" /></g><g
           id="g104"
           transform="translate(624.5391,342.8872)"><path
             d="m 0,0 0.177,-61.624 c 0.091,-20.533 0.021,-41.066 0.033,-61.599 v -0.236 l -0.235,0.001 -72.52,0.098 h -0.137 v 0.137 l 0.049,30.8 -0.032,30.798 -0.095,61.6 V 0.19 l 0.215,-0.001 36.26,-0.065 z m -0.051,-0.05 -36.234,-0.123 -36.26,-0.066 0.215,0.214 -0.095,-61.6 -0.032,-30.798 0.049,-30.8 -0.137,0.137 72.52,0.098 -0.236,-0.235 c 0.012,20.533 -0.057,41.066 0.033,61.599 z"
             style="fill:#232323;fill-opacity:1;fill-rule:nonzero;stroke:none"
             id="path106"
             inkscape:connector-curvature="0" /></g><g
           id="g108"><g
             id="g110" /><g
             id="g122"><g
               clip-path="url(#clipPath114)"
               id="g120"
               style="opacity:0.19999701"><g
                 transform="translate(624.4883,340.2729)"
                 id="g118"><path
                   d="M 0,0 -0.029,2.589 0.025,2.535 -18.104,2.396 C -24.147,2.347 -30.191,2.327 -36.234,2.347 l -18.13,0.015 -18.13,0.091 0.137,0.136 -0.011,-2.614 -0.126,0.126 9.065,-0.038 c 3.022,-0.024 6.043,0.001 9.065,0.017 l 18.13,0.09 c 3.021,0.01 6.043,0.043 9.065,0.016 L -18.104,0.143 -9.039,0.1 Z m 0.05,-0.05 -9.089,-0.101 -9.065,-0.043 -9.065,-0.043 c -3.022,-0.027 -6.044,0.006 -9.065,0.016 l -18.13,0.091 c -3.022,0.015 -6.043,0.04 -9.065,0.016 l -9.065,-0.037 -0.126,-0.001 v 0.127 l -0.011,2.614 -0.001,0.137 h 0.138 l 18.13,0.091 18.13,0.015 c 6.043,0.02 12.087,0 18.13,-0.05 L 0.025,2.644 H 0.081 L 0.08,2.589 Z"
                   style="fill:#232323;fill-opacity:1;fill-rule:nonzero;stroke:none"
                   id="path116"
                   inkscape:connector-curvature="0" /></g></g></g></g><g
           id="g124"
           transform="translate(562.5908,270.0684)"><path
             d="M 0,0 C 0.232,-0.225 0.54,-0.387 0.708,-0.677 L 1.004,-1.083 1.2,-1.555 C 1.369,-1.868 1.331,-2.202 1.407,-2.525 1.392,-2.885 1.389,-3.216 1.266,-3.543 1.19,-3.878 1.005,-4.176 0.827,-4.465 L 0.505,-4.866 0.113,-5.202 C -0.01,-5.326 -0.179,-5.383 -0.324,-5.476 -0.469,-5.57 -0.631,-5.635 -0.805,-5.682 -1.156,-5.82 -1.453,-5.827 -1.815,-5.87 c -0.346,0.031 -0.698,0.037 -1.027,0.164 -0.171,0.042 -0.334,0.102 -0.484,0.193 -0.15,0.09 -0.323,0.145 -0.451,0.266 l -0.409,0.332 -0.34,0.402 c -0.191,0.293 -0.387,0.586 -0.479,0.948 -0.14,0.372 -0.141,0.646 -0.177,1.03 0.061,0.346 0.021,0.721 0.187,1.043 l 0.192,0.497 0.301,0.44 c 0.176,0.317 0.5,0.501 0.748,0.753 l -0.108,-0.21 c -0.016,2.88 -0.006,5.76 0.018,8.64 l 0.101,8.64 0.057,-0.113 c -0.236,0.246 -0.549,0.424 -0.714,0.732 l -0.287,0.425 -0.185,0.489 c -0.074,0.163 -0.112,0.325 -0.117,0.489 l -0.057,0.49 c 0.028,0.362 0.039,0.69 0.168,1.013 0.083,0.33 0.274,0.621 0.454,0.902 l 0.327,0.388 0.392,0.321 c 0.122,0.119 0.29,0.17 0.434,0.258 0.143,0.088 0.3,0.15 0.466,0.194 0.326,0.131 0.654,0.139 0.981,0.178 0.352,-0.033 0.681,-0.04 1.004,-0.166 0.166,-0.041 0.323,-0.1 0.468,-0.19 0.144,-0.089 0.313,-0.141 0.436,-0.26 L 0.478,22.096 0.809,21.707 C 0.994,21.425 1.187,21.139 1.275,20.796 1.411,20.451 1.417,20.152 1.452,19.792 1.392,19.457 1.438,19.092 1.28,18.776 L 1.1,18.288 0.812,17.854 C 0.645,17.541 0.329,17.357 0.088,17.106 l 0.084,0.162 C 0.211,14.388 0.194,11.508 0.169,8.628 0.145,5.752 0.088,2.876 0,0 m -0.051,-0.012 c -0.088,2.88 -0.144,5.76 -0.169,8.64 -0.025,2.88 -0.042,5.76 -0.003,8.64 l 0.001,0.076 0.083,0.085 c 0.213,0.219 0.509,0.367 0.661,0.643 l 0.273,0.378 0.176,0.432 c 0.157,0.279 0.116,0.609 0.188,0.913 -0.019,0.291 -0.022,0.662 -0.134,0.934 -0.063,0.3 -0.236,0.581 -0.398,0.848 l -0.296,0.373 -0.363,0.31 c -0.114,0.115 -0.272,0.164 -0.405,0.25 -0.136,0.088 -0.284,0.145 -0.439,0.185 -0.295,0.125 -0.631,0.133 -0.932,0.171 -0.326,-0.032 -0.663,-0.04 -0.955,-0.158 -0.154,-0.038 -0.302,-0.093 -0.439,-0.183 -0.134,-0.087 -0.293,-0.136 -0.407,-0.252 L -3.975,21.962 -4.276,21.589 C -4.441,21.32 -4.617,21.045 -4.687,20.732 -4.805,20.439 -4.803,20.097 -4.829,19.808 l 0.065,-0.49 0.033,-0.244 0.088,-0.216 0.172,-0.431 0.275,-0.387 c 0.153,-0.282 0.451,-0.436 0.669,-0.66 l 0.057,-0.06 v -0.052 l 0.101,-8.64 c 0.024,-2.88 0.034,-5.76 0.018,-8.64 V -0.105 L -3.459,-0.222 C -3.665,-0.44 -3.952,-0.587 -4.097,-0.86 L -4.356,-1.231 -4.52,-1.654 C -4.588,-1.791 -4.624,-1.937 -4.63,-2.09 l -0.063,-0.45 c 0.019,-0.268 0.026,-0.663 0.133,-0.907 0.06,-0.282 0.231,-0.556 0.386,-0.813 l 0.287,-0.359 0.35,-0.3 c 0.108,-0.113 0.262,-0.159 0.39,-0.244 0.129,-0.086 0.273,-0.143 0.422,-0.183 0.288,-0.123 0.601,-0.133 0.91,-0.173 0.29,0.029 0.658,0.037 0.923,0.149 0.147,0.035 0.291,0.087 0.426,0.171 0.133,0.081 0.29,0.125 0.404,0.236 l 0.366,0.296 0.304,0.359 c 0.169,0.261 0.351,0.53 0.427,0.838 0.124,0.289 0.13,0.628 0.17,0.92 l -0.049,0.491 -0.023,0.246 -0.081,0.221 -0.16,0.449 -0.265,0.405 c -0.15,0.296 -0.446,0.466 -0.667,0.706 l -0.01,0.011 z"
             style="fill:#232323;fill-opacity:1;fill-rule:nonzero;stroke:none"
             id="path126"
             inkscape:connector-curvature="0" /></g><g
           id="g128"
           transform="translate(547.1309,225.9229)"><path
             d="m 0,0 0.032,-11.146 v -0.057 h -0.056 l -46.889,-0.133 c -15.629,-0.062 -31.258,-0.067 -46.887,-0.053 l -93.776,0.107 h -0.136 v 0.136 l 0.01,6.165 0.002,1.542 c -0.012,0.251 0.04,0.526 0.06,0.789 0.05,0.259 0.139,0.515 0.232,0.762 0.45,0.969 1.347,1.711 2.418,1.916 0.508,0.072 1.047,0.066 1.55,0.061 l 1.542,-0.003 3.082,-0.005 6.165,-0.009 24.661,-0.002 49.322,0.095 24.661,0.025 24.661,-0.044 z m -0.05,-0.051 -49.296,-0.145 -24.661,-0.045 -24.661,0.025 -49.322,0.095 -24.661,-0.002 -6.165,-0.009 -3.082,-0.005 -1.542,-0.003 c -0.524,0.002 -1.014,0.01 -1.526,-0.063 -0.955,-0.189 -1.814,-0.886 -2.22,-1.783 -0.414,-0.907 -0.219,-1.974 -0.264,-2.995 l 0.01,-6.165 -0.136,0.135 93.776,0.107 c 15.629,0.014 31.258,0.009 46.887,-0.053 l 46.889,-0.133 -0.057,-0.056 z"
             style="fill:#232323;fill-opacity:1;fill-rule:nonzero;stroke:none"
             id="path130"
             inkscape:connector-curvature="0" /></g><g
           id="g132"
           transform="translate(620.0186,352.3096)"><path
             d="M 0,0 C -0.096,2.122 -0.126,4.243 -0.169,6.365 L 0.025,6.17 C -1.344,6.145 -2.714,6.104 -4.083,6.11 L -8.19,6.107 c -2.74,0.014 -5.478,0.062 -8.217,0.121 l 0.136,0.137 c -0.046,-2.13 -0.079,-4.261 -0.042,-6.39 l -0.094,0.093 c 1.369,0.015 2.739,0.065 4.108,0.094 1.369,0.028 2.738,0.045 4.109,0.029 C -5.461,0.17 -2.73,0.13 0,0 m 0.025,-0.05 c -2.739,-0.131 -5.477,-0.17 -8.215,-0.192 -1.371,-0.015 -2.74,0.001 -4.109,0.029 -1.369,0.029 -2.739,0.079 -4.108,0.094 l -0.095,0.001 10e-4,0.093 c 0.036,2.129 0.004,4.26 -0.043,6.39 l -0.003,0.134 0.14,0.002 c 2.739,0.059 5.477,0.107 8.217,0.121 L -4.083,6.62 C -2.714,6.625 -1.344,6.584 0.025,6.56 L 0.224,6.556 0.22,6.365 C 0.177,4.235 0.146,2.104 0.051,-0.025 L 0.05,-0.049 Z"
             style="fill:#232323;fill-opacity:1;fill-rule:nonzero;stroke:none"
             id="path134"
             inkscape:connector-curvature="0" /></g><g
           id="g136"
           transform="translate(640.7656,352.3096)"><path
             d="M 0,0 C -0.096,2.122 -0.126,4.243 -0.169,6.365 L 0.025,6.17 C -1.344,6.145 -2.714,6.104 -4.083,6.11 L -8.191,6.107 c -2.739,0.014 -5.477,0.062 -8.216,0.121 l 0.136,0.137 c -0.046,-2.13 -0.079,-4.261 -0.042,-6.39 l -0.094,0.093 c 1.369,0.015 2.739,0.065 4.108,0.094 1.369,0.028 2.738,0.045 4.109,0.029 C -5.461,0.17 -2.73,0.13 0,0 m 0.025,-0.05 c -2.738,-0.131 -5.477,-0.17 -8.215,-0.192 -1.371,-0.015 -2.74,0.001 -4.109,0.029 -1.369,0.029 -2.739,0.079 -4.108,0.094 l -0.095,0.001 10e-4,0.093 c 0.036,2.129 0.004,4.26 -0.043,6.39 l -0.003,0.134 0.14,0.002 c 2.739,0.059 5.477,0.107 8.216,0.121 L -4.083,6.62 C -2.714,6.625 -1.344,6.584 0.025,6.56 L 0.225,6.556 0.22,6.365 C 0.177,4.235 0.146,2.104 0.051,-0.025 L 0.049,-0.049 Z"
             style="fill:#232323;fill-opacity:1;fill-rule:nonzero;stroke:none"
             id="path138"
             inkscape:connector-curvature="0" /></g><g
           id="g140"
           transform="translate(440.5337,230.9453)"><path
             d="M 0,0 C -0.096,2.13 -0.126,4.261 -0.17,6.391 L -0.174,6.582 0.025,6.585 C 1.394,6.61 2.764,6.65 4.133,6.646 L 8.241,6.648 C 10.979,6.635 13.718,6.586 16.457,6.527 L 16.596,6.524 16.593,6.391 C 16.546,4.261 16.514,2.13 16.55,0 l 0.002,-0.093 -0.095,-0.001 C 15.087,-0.109 13.718,-0.158 12.349,-0.187 10.979,-0.216 9.61,-0.231 8.241,-0.216 5.502,-0.195 2.764,-0.155 0.025,-0.025 l -0.024,0.002 z m 0.051,0.025 c 2.73,0.13 5.46,0.17 8.19,0.191 1.369,0.015 2.738,0 4.108,-0.029 1.369,-0.029 2.738,-0.078 4.108,-0.093 L 16.363,0 c 0.036,2.13 0.004,4.261 -0.043,6.391 L 16.457,6.254 C 13.718,6.195 10.979,6.146 8.241,6.133 L 4.133,6.136 C 2.764,6.131 1.394,6.171 0.025,6.196 L 0.22,6.391 C 0.176,4.269 0.146,2.147 0.051,0.025"
             style="fill:#232323;fill-opacity:1;fill-rule:nonzero;stroke:none"
             id="path142"
             inkscape:connector-curvature="0" /></g><g
           id="g144"
           transform="translate(501.8096,241.583)"><path
             d="M 0,0 C -0.096,2.13 -0.125,4.261 -0.17,6.391 L -0.174,6.582 0.025,6.585 C 1.395,6.61 2.764,6.65 4.133,6.646 L 8.241,6.648 C 10.979,6.635 13.719,6.586 16.457,6.527 L 16.597,6.524 16.594,6.391 C 16.547,4.261 16.515,2.13 16.551,0 l 0.001,-0.093 -0.095,-0.001 C 15.088,-0.109 13.719,-0.158 12.349,-0.187 10.979,-0.216 9.61,-0.231 8.241,-0.216 5.502,-0.195 2.764,-0.155 0.025,-0.025 l -0.023,0.002 z m 0.051,0.025 c 2.73,0.13 5.461,0.17 8.19,0.191 1.369,0.015 2.738,0 4.108,-0.029 1.37,-0.029 2.739,-0.078 4.108,-0.093 L 16.363,0 c 0.036,2.13 0.004,4.261 -0.043,6.391 L 16.457,6.254 C 13.719,6.195 10.979,6.146 8.241,6.133 L 4.133,6.136 C 2.764,6.131 1.395,6.171 0.025,6.196 L 0.221,6.391 C 0.177,4.269 0.146,2.147 0.051,0.025"
             style="fill:#232323;fill-opacity:1;fill-rule:nonzero;stroke:none"
             id="path146"
             inkscape:connector-curvature="0" /></g><g
           id="g148"
           transform="translate(419.7861,230.9453)"><path
             d="M 0,0 C -0.096,2.13 -0.126,4.261 -0.17,6.391 L -0.174,6.582 0.025,6.585 C 1.395,6.61 2.764,6.65 4.133,6.646 L 8.241,6.648 C 10.979,6.635 13.718,6.586 16.457,6.527 L 16.597,6.524 16.594,6.391 C 16.547,4.261 16.514,2.13 16.55,0 l 0.002,-0.093 -0.095,-0.001 C 15.087,-0.109 13.718,-0.158 12.349,-0.187 10.979,-0.216 9.61,-0.231 8.241,-0.216 5.502,-0.195 2.764,-0.155 0.025,-0.025 l -0.024,0.002 z m 0.051,0.025 c 2.73,0.13 5.46,0.17 8.19,0.191 1.369,0.015 2.738,0 4.108,-0.029 1.369,-0.029 2.738,-0.078 4.108,-0.093 L 16.364,0 C 16.4,2.13 16.367,4.261 16.32,6.391 L 16.457,6.254 C 13.718,6.195 10.979,6.146 8.241,6.133 L 4.133,6.136 C 2.764,6.131 1.395,6.171 0.025,6.196 L 0.22,6.391 C 0.176,4.269 0.146,2.147 0.051,0.025"
             style="fill:#232323;fill-opacity:1;fill-rule:nonzero;stroke:none"
             id="path150"
             inkscape:connector-curvature="0" /></g><g
           id="g152"
           transform="translate(409.3452,241.583)"><path
             d="M 0,0 C -0.096,2.13 -0.126,4.261 -0.17,6.391 L -0.174,6.582 0.025,6.585 C 1.395,6.61 2.764,6.65 4.133,6.646 L 8.241,6.648 C 10.979,6.635 13.718,6.586 16.457,6.527 L 16.597,6.524 16.594,6.391 C 16.547,4.261 16.514,2.13 16.55,0 l 0.002,-0.093 -0.095,-0.001 C 15.087,-0.109 13.718,-0.158 12.349,-0.187 10.979,-0.216 9.61,-0.231 8.241,-0.216 5.502,-0.195 2.764,-0.155 0.025,-0.025 l -0.024,0.002 z m 0.051,0.025 c 2.73,0.13 5.46,0.17 8.19,0.191 1.369,0.015 2.738,0 4.108,-0.029 1.369,-0.029 2.738,-0.078 4.108,-0.093 L 16.364,0 C 16.4,2.13 16.367,4.261 16.32,6.391 L 16.457,6.254 C 13.718,6.195 10.979,6.146 8.241,6.133 L 4.133,6.136 C 2.764,6.131 1.395,6.171 0.025,6.196 L 0.22,6.391 C 0.176,4.269 0.146,2.147 0.051,0.025"
             style="fill:#232323;fill-opacity:1;fill-rule:nonzero;stroke:none"
             id="path154"
             inkscape:connector-curvature="0" /></g><g
           id="g156"
           transform="translate(380.2407,307.6147)"><path
             d="M 0,0 C -0.112,2.122 -0.168,4.243 -0.206,6.365 L 0.026,6.133 C -0.964,6.106 -1.954,6.113 -2.943,6.106 -3.933,6.098 -4.922,6.098 -5.912,6.114 -7.891,6.126 -9.87,6.179 -11.85,6.228 l 0.137,0.137 C -11.785,4.234 -11.79,2.104 -11.725,-0.026 L -11.85,0.099 C -9.87,0.164 -7.891,0.23 -5.912,0.183 -3.941,0.168 -1.971,0.11 0,0 M 0.026,-0.051 C -1.953,-0.162 -3.933,-0.22 -5.912,-0.234 -7.891,-0.282 -9.87,-0.216 -11.85,-0.15 l -0.128,0.004 0.004,0.12 c 0.064,2.13 0.059,4.26 -0.012,6.391 l -0.005,0.133 0.141,0.003 c 1.98,0.049 3.959,0.103 5.938,0.114 0.99,0.017 1.979,0.016 2.969,0.009 0.989,-0.007 1.979,0 2.969,-0.027 L 0.262,6.59 0.258,6.365 C 0.22,4.234 0.164,2.104 0.051,-0.026 L 0.05,-0.049 Z"
             style="fill:#232323;fill-opacity:1;fill-rule:nonzero;stroke:none"
             id="path158"
             inkscape:connector-curvature="0" /></g><g
           id="g160"
           transform="translate(629.4014,328.9937)"><path
             d="m 0,0 c 0,0 0.107,0.002 0.302,-0.034 0.191,-0.039 0.477,-0.16 0.716,-0.454 0.114,-0.144 0.214,-0.342 0.262,-0.566 0.045,-0.213 0.039,-0.468 0.059,-0.711 0.028,-0.503 0.06,-1.069 0.095,-1.688 0.024,-0.619 0.05,-1.289 0.046,-1.998 0,-0.709 0.018,-1.456 0.004,-2.23 C 1.472,-8.454 1.458,-9.253 1.444,-10.065 1.435,-10.273 1.438,-10.46 1.417,-10.687 1.401,-10.925 1.313,-11.153 1.186,-11.35 0.942,-11.742 0.434,-11.98 0,-11.966 c -0.458,0.021 -0.895,0.276 -1.113,0.662 -0.251,0.397 -0.187,0.844 -0.189,1.24 -0.006,0.812 -0.016,1.611 -0.057,2.384 -0.076,1.547 -0.117,2.991 -0.061,4.227 0.019,0.619 0.064,1.186 0.087,1.689 0.02,0.254 0.012,0.48 0.059,0.714 0.048,0.224 0.145,0.414 0.26,0.561 0.238,0.294 0.522,0.415 0.717,0.455 C -0.104,0.001 0,0 0,0 m 0.002,-0.05 c 0,0 -0.105,-0.003 -0.289,-0.045 -0.177,-0.043 -0.443,-0.171 -0.651,-0.451 -0.248,-0.279 -0.214,-0.714 -0.178,-1.218 0.023,-0.503 0.068,-1.07 0.087,-1.689 0.055,-1.236 0.014,-2.68 -0.061,-4.227 -0.041,-0.773 -0.052,-1.572 -0.057,-2.384 0.007,-0.402 -0.027,-0.828 0.191,-1.141 0.212,-0.318 0.592,-0.495 0.956,-0.488 0.391,0.026 0.697,0.221 0.885,0.533 0.186,0.3 0.131,0.669 0.122,1.095 -0.014,0.812 -0.028,1.611 -0.04,2.384 -0.014,0.774 0.004,1.521 0.004,2.23 -0.004,0.709 0.022,1.379 0.047,1.998 0.034,0.619 0.066,1.185 0.094,1.688 0.036,0.508 0.071,0.939 -0.175,1.217 -0.207,0.28 -0.47,0.408 -0.651,0.453 -0.182,0.042 -0.284,0.045 -0.284,0.045"
             style="fill:#232323;fill-opacity:1;fill-rule:nonzero;stroke:none"
             id="path162"
             inkscape:connector-curvature="0" /></g><g
           id="g164"
           transform="translate(629.4014,245.3877)"><path
             d="m 0,0 c 0,0 0.107,0.001 0.302,-0.034 0.191,-0.039 0.477,-0.16 0.716,-0.454 0.114,-0.144 0.214,-0.342 0.262,-0.567 0.045,-0.212 0.039,-0.467 0.059,-0.711 0.028,-0.502 0.06,-1.069 0.095,-1.688 0.024,-0.618 0.05,-1.288 0.046,-1.997 0,-0.709 0.018,-1.457 0.004,-2.23 C 1.472,-8.454 1.458,-9.253 1.444,-10.065 1.435,-10.273 1.438,-10.461 1.417,-10.688 1.401,-10.925 1.313,-11.153 1.186,-11.351 0.942,-11.743 0.434,-11.98 0,-11.967 c -0.458,0.022 -0.895,0.277 -1.113,0.662 -0.251,0.398 -0.187,0.844 -0.189,1.241 -0.006,0.811 -0.016,1.611 -0.057,2.384 -0.076,1.546 -0.117,2.99 -0.061,4.227 0.019,0.619 0.064,1.185 0.087,1.688 0.02,0.254 0.012,0.48 0.059,0.714 0.048,0.225 0.145,0.414 0.26,0.562 0.238,0.294 0.522,0.415 0.717,0.455 C -0.104,0.001 0,0 0,0 m 0.002,-0.051 c 0,10e-4 -0.105,-0.003 -0.289,-0.044 -0.177,-0.044 -0.443,-0.171 -0.651,-0.451 -0.248,-0.28 -0.214,-0.715 -0.178,-1.219 0.023,-0.503 0.068,-1.069 0.087,-1.688 0.055,-1.237 0.014,-2.681 -0.061,-4.227 -0.041,-0.773 -0.052,-1.573 -0.057,-2.384 0.007,-0.403 -0.027,-0.829 0.191,-1.141 0.212,-0.318 0.592,-0.496 0.956,-0.488 0.391,0.026 0.697,0.221 0.885,0.533 0.186,0.3 0.131,0.669 0.122,1.095 -0.014,0.812 -0.028,1.611 -0.04,2.384 -0.014,0.773 0.004,1.521 0.004,2.23 -0.004,0.709 0.022,1.379 0.047,1.997 0.034,0.619 0.066,1.186 0.094,1.688 0.036,0.508 0.071,0.94 -0.175,1.217 -0.207,0.28 -0.47,0.408 -0.651,0.453 -0.182,0.042 -0.284,0.046 -0.284,0.045"
             style="fill:#232323;fill-opacity:1;fill-rule:nonzero;stroke:none"
             id="path166"
             inkscape:connector-curvature="0" /></g><g
           id="g168"
           transform="translate(498.1299,358.6992)"><path
             d="M 0,0 C 2.739,0.171 5.477,0.24 8.216,0.238 H 8.479 V -0.025 C 8.478,-2.155 8.425,-4.285 8.353,-6.415 L 8.348,-6.557 8.216,-6.552 C 6.847,-6.504 5.477,-6.473 4.107,-6.509 2.739,-6.534 1.369,-6.639 0,-6.633 l -0.216,0.001 -0.002,0.217 c -0.013,1.065 0.021,2.13 0.036,3.195 0.037,1.065 0.073,2.13 0.157,3.195 l 0.002,0.024 z M 0.026,-0.051 C 0.108,-1.107 0.145,-2.164 0.182,-3.22 0.197,-4.285 0.231,-5.35 0.218,-6.415 L 0,-6.197 c 1.369,0.006 2.739,-0.099 4.107,-0.124 1.37,-0.036 2.74,-0.005 4.109,0.043 L 8.079,-6.415 c -0.072,2.13 -0.125,4.26 -0.126,6.39 l 0.263,-0.263 c -2.73,-0.002 -5.46,0.068 -8.19,0.237"
             style="fill:#232323;fill-opacity:1;fill-rule:nonzero;stroke:none"
             id="path170"
             inkscape:connector-curvature="0" /></g><g
           id="g172"
           transform="translate(635.1992,311.0747)"><path
             d="M 0,0 C 1.977,0.102 3.953,0.166 5.93,0.198 6.918,0.223 7.907,0.231 8.896,0.232 9.884,0.233 10.872,0.249 11.86,0.23 l 0.257,-0.004 -0.001,-0.251 c -0.013,-2.13 -0.063,-4.261 -0.119,-6.391 L 11.993,-6.557 11.86,-6.552 C 9.884,-6.488 7.907,-6.478 5.93,-6.526 3.953,-6.593 1.977,-6.664 0,-6.629 l -0.216,0.004 0.002,0.209 c 0.019,2.13 0.064,4.261 0.189,6.391 l 0.002,0.024 z m 0.025,-0.051 c 0.124,-2.121 0.17,-4.242 0.189,-6.365 L 0,-6.202 c 1.977,0.035 3.953,-0.036 5.93,-0.103 1.977,-0.048 3.954,-0.038 5.93,0.026 l -0.136,-0.137 c -0.056,2.13 -0.106,4.261 -0.12,6.391 L 11.86,-0.28 C 10.872,-0.298 9.884,-0.283 8.896,-0.282 7.907,-0.281 6.918,-0.273 5.93,-0.248 3.962,-0.215 1.994,-0.151 0.025,-0.051"
             style="fill:#232323;fill-opacity:1;fill-rule:nonzero;stroke:none"
             id="path174"
             inkscape:connector-curvature="0" /></g><g
           id="g176"
           transform="translate(526.0801,331.0913)"><path
             d="M 0,0 C 2.766,0.172 5.53,0.24 8.296,0.238 H 8.559 V -0.025 C 8.557,-2.155 8.505,-4.285 8.433,-6.416 L 8.428,-6.557 8.296,-6.552 C 6.913,-6.504 5.53,-6.474 4.148,-6.51 2.766,-6.536 1.383,-6.64 0,-6.634 l -0.217,0.001 -0.002,0.217 c -0.01,1.066 0.022,2.131 0.037,3.196 0.037,1.065 0.074,2.13 0.157,3.195 l 0.002,0.024 z M 0.026,-0.051 C 0.108,-1.107 0.145,-2.164 0.182,-3.22 0.197,-4.285 0.229,-5.35 0.219,-6.416 L 0,-6.197 c 1.383,0.006 2.766,-0.098 4.148,-0.124 1.382,-0.036 2.765,-0.006 4.148,0.042 L 8.159,-6.416 C 8.087,-4.285 8.035,-2.155 8.033,-0.025 L 8.296,-0.288 C 5.539,-0.29 2.783,-0.221 0.026,-0.051"
             style="fill:#232323;fill-opacity:1;fill-rule:nonzero;stroke:none"
             id="path178"
             inkscape:connector-curvature="0" /></g><g
           id="g180"
           transform="translate(530.2275,321.8833)"><path
             d="M 0,0 C 2.766,0.172 5.53,0.24 8.296,0.238 H 8.559 V -0.025 C 8.557,-2.155 8.505,-4.285 8.433,-6.415 L 8.428,-6.556 8.296,-6.551 C 6.913,-6.503 5.53,-6.473 4.148,-6.509 2.766,-6.535 1.383,-6.639 0,-6.633 l -0.217,0.001 -0.002,0.217 c -0.01,1.065 0.022,2.13 0.037,3.195 0.037,1.065 0.074,2.13 0.157,3.195 l 0.002,0.024 z M 0.026,-0.051 C 0.108,-1.107 0.145,-2.164 0.182,-3.22 0.197,-4.285 0.229,-5.35 0.219,-6.415 L 0,-6.196 C 1.383,-6.19 2.766,-6.294 4.148,-6.32 5.53,-6.356 6.913,-6.326 8.296,-6.278 L 8.159,-6.415 c -0.072,2.13 -0.124,4.26 -0.126,6.39 L 8.296,-0.288 C 5.539,-0.29 2.783,-0.221 0.026,-0.051"
             style="fill:#232323;fill-opacity:1;fill-rule:nonzero;stroke:none"
             id="path182"
             inkscape:connector-curvature="0" /></g><g
           id="g184"
           transform="translate(366.7827,347.7744)"><path
             d="M 0,0 C 2.904,0.177 5.808,0.239 8.712,0.239 H 8.977 L 8.976,-0.025 C 8.969,-2.155 8.92,-4.285 8.849,-6.415 L 8.845,-6.556 8.712,-6.551 C 7.26,-6.5 5.808,-6.474 4.356,-6.51 2.904,-6.545 1.452,-6.639 0,-6.635 h -0.221 v 0.22 c 0,1.065 0.021,2.13 0.043,3.195 0.035,1.065 0.072,2.13 0.153,3.195 l 0.002,0.024 z M 0.026,-0.051 C 0.106,-1.107 0.144,-2.163 0.178,-3.22 0.2,-4.285 0.221,-5.35 0.221,-6.415 L 0,-6.194 c 1.452,0.004 2.904,-0.09 4.356,-0.125 1.452,-0.036 2.904,-0.01 4.356,0.041 L 8.576,-6.415 c -0.072,2.13 -0.12,4.26 -0.127,6.39 l 0.263,-0.264 c -2.895,0 -5.791,0.063 -8.686,0.238"
             style="fill:#232323;fill-opacity:1;fill-rule:nonzero;stroke:none"
             id="path186"
             inkscape:connector-curvature="0" /></g><g
           id="g188"
           transform="translate(386.645,261.792)"><path
             d="m 0,0 -0.212,84.594 -0.001,0.237 h 0.238 l 139.41,-0.101 h 0.137 v -0.136 l -0.059,-42.284 0.067,-42.285 10e-4,-0.144 h -0.146 L 104.583,-0.176 69.73,-0.168 Z m 0.05,0.051 69.68,0.168 34.853,0.008 34.852,-0.057 -0.144,-0.145 0.066,42.285 -0.059,42.284 0.137,-0.137 -139.41,-0.101 0.237,0.238 z"
             style="fill:#232323;fill-opacity:1;fill-rule:nonzero;stroke:none"
             id="path190"
             inkscape:connector-curvature="0" /></g><g
           id="g192"
           transform="translate(391.5322,266.6807)"><path
             d="m 0,0 -0.206,74.817 -0.001,0.231 h 0.232 l 64.818,0.002 64.817,-0.096 h 0.137 V 74.817 L 129.74,37.421 129.801,0.024 V -0.115 L 129.66,-0.116 97.251,-0.174 64.842,-0.171 32.434,-0.114 Z m 0.05,0.05 32.384,0.113 32.408,0.057 32.409,0.003 32.409,-0.058 -0.14,-0.141 0.06,37.397 -0.057,37.396 0.137,-0.136 -64.817,-0.096 -64.818,0.001 0.231,0.231 z"
             style="fill:#232323;fill-opacity:1;fill-rule:nonzero;stroke:none"
             id="path194"
             inkscape:connector-curvature="0" /></g><g
           id="g196"
           transform="translate(521.1904,319.4287)"><path
             d="M 0,0 V -11.574 L -33.644,22.069 H -22.07 Z"
             style="fill:#e1f9f1;fill-opacity:1;fill-rule:nonzero;stroke:none"
             id="path198"
             inkscape:connector-curvature="0" /></g><g
           id="g200"
           transform="translate(521.1904,304.6357)"><path
             d="m 0,0 v -5.783 l -42.646,42.645 h 5.79 z"
             style="fill:#e1f9f1;fill-opacity:1;fill-rule:nonzero;stroke:none"
             id="path202"
             inkscape:connector-curvature="0" /></g><g
           id="g204"><g
             id="g206" /><g
             id="g218"><g
               clip-path="url(#clipPath210)"
               id="g216"
               style="opacity:0.19999701"><g
                 transform="translate(391.5322,338.8589)"
                 id="g214"><path
                   d="M 0,0 -0.011,2.639 V 2.675 H 0.025 L 32.434,2.813 48.638,2.882 H 64.843 L 97.251,2.867 129.66,2.776 h 0.138 l -0.001,-0.137 -0.006,-2.614 v -0.131 h -0.131 c -10.803,0.008 -21.606,0.091 -32.409,0.03 L 64.842,-0.168 48.638,-0.188 32.434,-0.145 16.229,-0.101 Z M 0.05,0.05 16.229,0.151 32.434,0.195 48.638,0.238 64.842,0.218 97.251,0.125 c 10.803,-0.06 21.606,0.022 32.409,0.031 L 129.529,0.025 129.523,2.639 129.66,2.502 97.251,2.411 64.843,2.396 H 48.638 L 32.434,2.465 0.025,2.603 0.061,2.639 Z"
                   style="fill:#232323;fill-opacity:1;fill-rule:nonzero;stroke:none"
                   id="path212"
                   inkscape:connector-curvature="0" /></g></g></g></g></g></g><g
       id="g220"><g
         id="g222"
         clip-path="url(#clipPath226)"><g
           id="g228"
           transform="translate(466.2622,364.562)"><path
             d="m 0,0 -0.005,-0.017 c -0.037,-0.107 -0.092,-0.176 -0.162,-0.219 l -0.102,-0.063 -0.08,0.128 c -0.026,0.044 -0.052,0.109 -0.046,0.142 v 0.028 0.014 l 0.01,0.052 0.007,0.006 0.052,0.042 c 0.077,0.053 0.134,0.103 0.126,0.199 L -0.207,0.39 -0.071,0.304 C 0.033,0.239 0.044,0.132 0,0 M -0.051,0.009 C -0.16,0.062 -0.222,0.133 -0.205,0.244 l 0.13,-0.009 C -0.159,0.203 -0.178,0.125 -0.177,0.048 l -0.004,-0.054 -0.001,-0.007 c 0.014,0.089 0.007,0.021 0.011,0.039 l 0.006,-0.013 0.011,-0.027 c 0.017,-0.043 0.043,-0.037 0.045,-0.062 l -0.182,0.065 c 0.068,0.032 0.146,0.039 0.24,0.02"
             style="fill:#232323;fill-opacity:1;fill-rule:nonzero;stroke:none"
             id="path230"
             inkscape:connector-curvature="0" /></g></g></g><g
       id="g232"><g
         id="g234"
         clip-path="url(#clipPath238)"><g
           id="g240"
           transform="translate(674.4463,365.4028)"><path
             d="m 0,0 -1.48,-0.006 -323.308,-0.274 -2.542,-0.221 -3.116,0.451 v 4.146 l 0.5,17.792 330,1.431 0.79,-19.061 0.21,-4.12 z"
             style="fill:none;stroke:#232323;stroke-width:0.5;stroke-linecap:butt;stroke-linejoin:miter;stroke-miterlimit:10;stroke-dasharray:none;stroke-opacity:1"
             id="path242"
             inkscape:connector-curvature="0" /></g><g
           id="g244"
           transform="translate(474.0049,321.2476)"><path
             d="m 0,0 c 0,0 0.198,0.024 0.581,0.071 0.384,0.03 0.961,0.067 1.703,-0.036 0.738,-0.099 1.654,-0.328 2.598,-0.876 0.918,-0.558 1.911,-1.46 2.344,-2.831 0.565,-2.733 1.033,-6.072 1.689,-9.891 0.634,-3.822 1.351,-8.132 2.132,-12.835 0.182,-1.189 0.425,-2.347 0.568,-3.629 0.053,-1.303 -0.442,-2.623 -1.308,-3.639 -0.86,-1.026 -2.044,-1.776 -3.353,-2.187 -0.667,-0.226 -1.325,-0.298 -1.996,-0.412 -0.664,-0.107 -1.334,-0.213 -2.008,-0.32 -5.394,-0.86 -11.083,-1.766 -16.968,-2.704 -11.766,-1.891 -24.326,-3.857 -36.889,-5.799 -1.594,-0.245 -3.279,-0.018 -4.703,0.76 -1.419,0.755 -2.558,2.157 -2.76,3.783 -0.491,3.128 -0.979,6.243 -1.464,9.333 -0.502,3.087 -1.001,6.151 -1.494,9.177 -0.248,1.514 -0.495,3.017 -0.739,4.51 -0.118,0.75 -0.256,1.483 -0.354,2.239 -0.093,0.767 0.015,1.552 0.287,2.266 0.546,1.441 1.69,2.568 2.999,3.274 1.324,0.745 2.838,0.875 4.23,1.115 2.83,0.463 5.599,0.916 8.295,1.357 5.387,0.899 10.492,1.682 15.204,2.407 C -12.563,-1.947 0,0 0,0 m 0.008,-0.05 c 0,0 -12.543,-2.068 -31.358,-5.17 -4.703,-0.78 -9.797,-1.628 -15.197,-2.454 -2.698,-0.422 -5.47,-0.855 -8.303,-1.298 -1.418,-0.234 -2.871,-0.349 -4.137,-1.053 -1.259,-0.666 -2.358,-1.736 -2.884,-3.095 -0.262,-0.674 -0.369,-1.411 -0.288,-2.136 0.089,-0.733 0.224,-1.484 0.335,-2.23 0.233,-1.494 0.468,-3 0.704,-4.515 0.476,-3.03 0.957,-6.095 1.443,-9.186 0.503,-3.088 1.01,-6.2 1.52,-9.324 0.204,-1.558 1.294,-2.879 2.664,-3.602 1.374,-0.74 3.004,-0.95 4.543,-0.705 12.542,2.073 25.088,4.121 36.858,5.994 5.884,0.946 11.571,1.859 16.964,2.725 1.34,0.245 2.705,0.36 3.936,0.722 1.22,0.384 2.323,1.09 3.131,2.023 0.813,0.93 1.273,2.127 1.242,3.31 -0.119,1.182 -0.354,2.416 -0.519,3.585 -0.725,4.711 -1.389,9.03 -1.978,12.858 -0.617,3.82 -1.056,7.184 -1.589,9.894 C 6.692,-2.385 5.729,-1.481 4.832,-0.926 3.907,-0.378 3.004,-0.142 2.274,-0.037 1.54,0.072 0.967,0.042 0.586,0.015 0.205,-0.027 0.008,-0.05 0.008,-0.05"
             style="fill:#262626;fill-opacity:1;fill-rule:nonzero;stroke:none"
             id="path246"
             inkscape:connector-curvature="0" /></g><g
           id="g248"
           transform="translate(440.9463,323.7139)"><path
             d="M 0,0 C 0,0 0.08,-0.001 0.21,-0.023 0.334,-0.041 0.52,-0.12 0.708,-0.138 0.896,-0.175 1.094,-0.26 1.343,-0.36 c 0.121,-0.064 0.256,-0.087 0.392,-0.067 0.13,0.019 0.285,0.027 0.388,0.096 0.127,0.073 0.257,0.137 0.387,0.19 0.144,0.042 0.219,0.132 0.325,0.189 0.096,0.069 0.201,0.096 0.29,0.168 0.089,0.065 0.184,0.115 0.273,0.162 0.181,0.093 0.305,0.21 0.419,0.27 0.111,0.065 0.184,0.101 0.184,0.101 L 4.042,0.72 c 0,0 -0.019,-0.073 -0.069,-0.197 C 3.91,0.412 3.856,0.205 3.687,0.05 3.609,-0.034 3.522,-0.127 3.42,-0.213 3.332,-0.313 3.181,-0.362 3.047,-0.425 2.908,-0.47 2.76,-0.561 2.625,-0.566 2.485,-0.584 2.34,-0.595 2.193,-0.595 2.023,-0.606 1.888,-0.57 1.741,-0.582 1.598,-0.592 1.458,-0.616 1.316,-0.628 1.176,-0.638 1.031,-0.67 0.899,-0.653 c -0.132,0.03 -0.252,0.082 -0.36,0.126 -0.228,0.084 -0.329,0.234 -0.43,0.319 -0.088,0.098 -0.132,0.164 -0.132,0.164 z"
             style="fill:#262626;fill-opacity:1;fill-rule:nonzero;stroke:none"
             id="path250"
             inkscape:connector-curvature="0" /></g><g
           id="g252"
           transform="translate(463.4009,319.5044)"><path
             d="m 0,0 c -1.524,0.529 -3.04,1.081 -4.548,1.65 -1.506,0.576 -3.011,1.154 -4.508,1.751 -1.497,0.599 -2.979,1.234 -4.46,1.871 -1.481,0.639 -2.97,1.255 -4.472,1.84 l -0.036,0.014 -0.015,0.047 -0.164,0.532 -0.262,0.489 c -0.119,0.142 -0.232,0.289 -0.356,0.425 -0.146,0.113 -0.282,0.239 -0.433,0.342 -0.315,0.193 -0.656,0.334 -1.014,0.403 -0.182,0.013 -0.361,0.06 -0.542,0.047 -0.175,-0.021 -0.376,-0.017 -0.528,-0.057 -0.18,-0.056 -0.376,-0.095 -0.542,-0.166 -0.153,-0.088 -0.312,-0.155 -0.459,-0.252 -0.136,-0.118 -0.286,-0.217 -0.411,-0.345 -0.11,-0.14 -0.241,-0.265 -0.335,-0.415 -0.191,-0.302 -0.328,-0.632 -0.399,-0.978 -0.013,-0.176 -0.061,-0.349 -0.054,-0.525 0.017,-0.178 0.016,-0.345 0.043,-0.532 l 0.017,-0.121 -0.088,-0.084 -3.142,-2.997 -3.177,-2.959 c -2.157,-1.931 -4.271,-3.907 -6.47,-5.793 l -0.034,0.036 c 2.016,2.08 4.117,4.071 6.175,6.107 l 3.146,2.992 3.182,2.954 -0.071,-0.205 c -0.025,0.191 -0.026,0.408 -0.039,0.61 -0.002,0.205 0.05,0.408 0.078,0.611 0.098,0.399 0.271,0.774 0.503,1.111 0.116,0.167 0.269,0.306 0.401,0.459 0.147,0.139 0.322,0.248 0.481,0.371 0.174,0.108 0.372,0.185 0.557,0.275 0.187,0.07 0.372,0.097 0.558,0.148 0.218,0.046 0.406,0.029 0.61,0.044 0.2,0.006 0.397,-0.05 0.595,-0.074 0.389,-0.092 0.753,-0.261 1.083,-0.482 0.158,-0.118 0.299,-0.259 0.449,-0.387 l 0.368,-0.463 0.271,-0.523 0.165,-0.566 -0.05,0.061 c 1.492,-0.609 2.997,-1.188 4.511,-1.743 1.513,-0.557 3.025,-1.116 4.523,-1.711 1.497,-0.598 2.987,-1.214 4.476,-1.832 1.486,-0.626 2.965,-1.268 4.436,-1.933 z"
             style="fill:#262626;fill-opacity:1;fill-rule:nonzero;stroke:none"
             id="path254"
             inkscape:connector-curvature="0" /></g><g
           id="g256"
           transform="translate(439.5054,325.646)"><path
             d="m 0,0 c 0,0 -0.006,0.076 -0.017,0.216 0.003,0.14 -0.057,0.348 -0.012,0.611 0.017,0.13 0.019,0.279 0.043,0.438 C 0.057,1.422 0.103,1.591 0.152,1.772 0.22,1.947 0.316,2.125 0.409,2.32 0.523,2.5 0.663,2.682 0.817,2.865 1.005,3.012 1.172,3.2 1.407,3.331 1.642,3.461 1.905,3.598 2.146,3.644 2.667,3.821 3.281,3.809 3.866,3.669 4.45,3.497 4.988,3.153 5.418,2.693 5.826,2.218 6.084,1.57 6.155,1.001 6.2,0.351 6.103,-0.247 5.857,-0.805 5.593,-1.346 5.215,-1.814 4.75,-2.172 4.508,-2.321 4.233,-2.507 3.98,-2.578 L 3.601,-2.702 C 3.429,-2.739 3.314,-2.731 3.17,-2.748 2.622,-2.81 2.103,-2.653 1.674,-2.455 1.472,-2.329 1.282,-2.202 1.117,-2.068 0.968,-1.912 0.82,-1.775 0.701,-1.63 0.597,-1.474 0.501,-1.328 0.412,-1.192 0.338,-1.049 0.289,-0.906 0.231,-0.788 0.107,-0.55 0.1,-0.341 0.052,-0.208 0.019,-0.073 0,0 0,0 m 0.049,0.011 c 0,0 0.019,-0.071 0.057,-0.205 0.049,-0.129 0.061,-0.348 0.207,-0.562 0.064,-0.112 0.124,-0.239 0.216,-0.361 0.102,-0.113 0.213,-0.237 0.331,-0.367 0.131,-0.117 0.289,-0.22 0.44,-0.338 0.167,-0.098 0.358,-0.174 0.54,-0.272 0.399,-0.121 0.832,-0.257 1.311,-0.227 0.11,0.007 0.258,0.004 0.344,0.018 l 0.391,0.08 c 0.272,0.046 0.469,0.172 0.717,0.277 0.47,0.262 0.855,0.697 1.114,1.206 0.228,0.524 0.27,1.136 0.174,1.671 C 5.727,1.532 5.472,1.989 5.094,2.395 4.699,2.769 4.231,3.044 3.733,3.169 3.235,3.255 2.731,3.308 2.276,3.151 1.777,3.026 1.46,2.811 1.101,2.56 0.959,2.41 0.8,2.281 0.672,2.136 0.564,1.977 0.445,1.832 0.358,1.68 0.287,1.519 0.219,1.368 0.158,1.228 0.109,1.083 0.09,0.942 0.064,0.816 -0.007,0.564 0.048,0.359 0.041,0.222 0.046,0.083 0.049,0.011 0.049,0.011"
             style="fill:#262626;fill-opacity:1;fill-rule:nonzero;stroke:none"
             id="path258"
             inkscape:connector-curvature="0" /></g><g
           id="g260"
           transform="translate(429.2397,294.0088)"><path
             d="m 0,0 c 0,0 -0.041,0.109 -0.118,0.314 -0.065,0.208 -0.203,0.499 -0.296,0.9 -0.056,0.411 -0.17,0.925 -0.078,1.51 0.001,0.298 0.088,0.601 0.204,0.916 0.077,0.33 0.293,0.615 0.476,0.934 0.435,0.578 1.04,1.168 1.857,1.42 C 2.833,6.284 3.771,6.316 4.627,6 5.479,5.66 6.173,4.995 6.638,4.19 6.836,3.77 7.066,3.354 7.145,2.886 7.204,2.657 7.275,2.436 7.326,2.197 7.355,1.966 7.4,1.74 7.416,1.503 7.495,0.551 7.403,-0.412 7.104,-1.316 6.792,-2.213 6.276,-3.031 5.593,-3.65 4.918,-4.276 4.05,-4.661 3.184,-4.723 c -0.877,-0.058 -1.697,0.305 -2.23,0.826 -0.543,0.516 -0.856,1.129 -1.042,1.679 -0.183,0.554 -0.286,1.048 -0.329,1.458 -0.046,0.41 -0.06,0.732 -0.059,0.951 -0.004,0.219 -0.007,0.336 -0.007,0.336 l 0.05,0.002 c 0,0 0.016,-0.115 0.046,-0.331 0.024,-0.216 0.074,-0.531 0.165,-0.925 0.091,-0.392 0.217,-0.865 0.435,-1.372 C 0.436,-2.6 0.751,-3.148 1.247,-3.573 1.739,-4 2.417,-4.257 3.152,-4.214 c 0.735,0.055 1.476,0.41 2.098,0.95 1.266,1.082 1.949,2.929 1.894,4.743 C 7.143,1.706 7.112,1.941 7.097,2.172 7.063,2.39 7.008,2.617 6.964,2.84 6.898,3.299 6.685,3.701 6.503,4.115 6.047,4.886 5.355,5.506 4.542,5.745 3.725,5.984 2.897,5.85 2.197,5.595 1.478,5.341 0.934,4.837 0.521,4.332 0.352,4.051 0.144,3.802 0.069,3.503 -0.039,3.221 -0.153,2.954 -0.168,2.678 -0.3,2.137 -0.211,1.665 -0.211,1.265 -0.167,0.866 -0.059,0.556 -0.022,0.342 0.023,0.128 0.048,0.014 0.048,0.014 Z"
             style="fill:#282828;fill-opacity:1;fill-rule:nonzero;stroke:none"
             id="path262"
             inkscape:connector-curvature="0" /></g><g
           id="g264"
           transform="translate(440.0776,288.0342)"><path
             d="m 0,0 c 0,0 0.006,0.134 0.018,0.385 0.001,0.248 -0.007,0.609 -0.069,1.07 -0.101,0.922 -0.406,2.216 -0.766,3.776 -0.372,1.554 -0.802,3.399 -0.869,5.427 -0.016,1.006 0.011,2.078 0.398,3.082 0.342,1.026 1.217,1.856 2.255,2.227 0.533,0.172 1.042,0.304 1.6,0.34 C 3.12,16.36 3.682,16.32 4.217,16.142 4.75,15.969 5.245,15.648 5.604,15.221 5.964,14.793 6.201,14.291 6.35,13.783 6.645,12.756 6.552,11.721 6.355,10.797 6.138,9.87 5.751,9.045 5.281,8.363 4.813,7.68 4.248,7.145 3.669,6.795 3.094,6.437 2.516,6.272 2.043,6.211 1.569,6.146 1.19,6.18 0.942,6.219 0.693,6.259 0.56,6.28 0.56,6.28 l 0.009,0.049 c 0,0 0.132,-0.008 0.381,-0.022 C 1.195,6.293 1.565,6.298 2.009,6.405 2.449,6.512 2.98,6.692 3.491,7.065 4,7.434 4.507,7.946 4.917,8.604 5.329,9.262 5.652,10.049 5.858,10.91 6.042,11.773 6.088,12.729 5.85,13.645 5.628,14.557 5.014,15.409 4.071,15.729 3.158,16.096 2.046,15.971 1.056,15.707 0.564,15.545 0.094,15.311 -0.296,14.967 -0.678,14.615 -0.954,14.164 -1.143,13.686 -1.508,12.714 -1.515,11.656 -1.417,10.675 -1.324,9.686 -1.117,8.744 -0.945,7.848 -0.757,6.951 -0.58,6.103 -0.415,5.32 -0.077,3.752 0.126,2.417 0.158,1.471 0.174,1 0.147,0.624 0.118,0.373 0.073,0.126 0.05,-0.006 0.05,-0.006 Z"
             style="fill:#282828;fill-opacity:1;fill-rule:nonzero;stroke:none"
             id="path266"
             inkscape:connector-curvature="0" /></g><g
           id="g268"
           transform="translate(453.0352,308.0352)"><path
             d="M 0,0 C -0.084,-0.201 -0.204,-0.403 -0.37,-0.568 -0.527,-0.734 -0.707,-0.884 -0.901,-1.001 -1.29,-1.242 -1.71,-1.418 -2.133,-1.571 -2.988,-1.849 -3.862,-2.042 -4.704,-2.248 l 0.126,0.324 c 0.283,-0.534 0.557,-1.073 0.797,-1.624 l 0.297,-0.85 c 0.089,-0.287 0.218,-0.558 0.301,-0.845 0.151,-0.578 0.351,-1.141 0.517,-1.715 l 0.465,-1.73 0.369,-1.756 0.27,-1.773 c 0.151,-1.183 0.252,-2.373 0.326,-3.561 l -0.449,0.077 0.322,0.496 c 0.136,0.141 0.286,0.269 0.429,0.4 0.166,0.097 0.331,0.198 0.499,0.284 0.178,0.061 0.353,0.127 0.53,0.181 0.359,0.088 0.714,0.156 1.072,0.196 l 1.066,0.116 0.011,-0.049 c -0.69,-0.197 -1.402,-0.323 -2.051,-0.565 -0.158,-0.067 -0.311,-0.143 -0.465,-0.212 l -0.415,-0.272 c -0.111,-0.12 -0.227,-0.231 -0.333,-0.351 l -0.236,-0.418 -0.356,-0.628 -0.093,0.706 c -0.077,0.589 -0.119,1.181 -0.18,1.772 -0.067,0.589 -0.135,1.178 -0.182,1.77 l -0.204,1.764 -0.244,1.76 c -0.097,0.584 -0.212,1.166 -0.327,1.748 -0.148,0.572 -0.32,1.141 -0.508,1.703 -0.203,0.556 -0.476,1.084 -0.716,1.621 -0.289,0.514 -0.605,1.009 -0.88,1.526 l -0.132,0.249 0.259,0.075 c 0.867,0.249 1.741,0.362 2.577,0.609 0.421,0.11 0.835,0.242 1.219,0.434 0.388,0.191 0.737,0.429 0.98,0.811 z"
             style="fill:#282828;fill-opacity:1;fill-rule:nonzero;stroke:none"
             id="path270"
             inkscape:connector-curvature="0" /></g><g
           id="g272"
           transform="translate(450.7544,299.0303)"><path
             d="M 0,0 C 0,0 0.246,0.129 0.607,0.16 0.788,0.184 0.997,0.135 1.208,0.088 1.425,0.027 1.667,0.062 1.886,0.159 2.326,0.395 2.769,0.497 3.133,0.527 3.491,0.562 3.759,0.502 3.759,0.502 L 3.773,0.455 c 0,0 -0.192,-0.19 -0.525,-0.35 C 2.926,-0.084 2.425,-0.146 1.929,-0.111 1.671,-0.062 1.437,-0.076 1.208,-0.182 1.095,-0.22 0.976,-0.287 0.875,-0.285 c -0.104,-0.006 -0.2,0.01 -0.289,0.02 -0.357,0.064 -0.588,0.216 -0.588,0.216 z"
             style="fill:#282828;fill-opacity:1;fill-rule:nonzero;stroke:none"
             id="path274"
             inkscape:connector-curvature="0" /></g><g
           id="g276"
           transform="translate(459.875,294.6426)"><path
             d="m 0,0 c -0.558,2.021 -1.05,4.055 -1.509,6.097 -0.484,2.037 -0.852,4.097 -1.225,6.158 l -0.004,0.022 0.002,0.013 c 0.017,0.11 0.085,0.183 0.175,0.238 0.087,0.018 0.191,0.046 0.258,0.013 0.159,-0.029 0.276,-0.107 0.397,-0.18 0.232,-0.153 0.444,-0.328 0.638,-0.516 0.185,-0.192 0.405,-0.371 0.566,-0.584 l 0.518,-0.615 C 0.5,9.818 1.214,9.017 1.915,8.204 2.618,7.394 3.327,6.589 3.994,5.743 L 5.998,3.206 5.532,3.011 5.111,5.874 C 4.968,6.828 4.843,7.785 4.722,8.743 4.468,10.655 4.251,12.574 4.061,14.497 l 0.05,0.007 C 4.489,12.609 4.84,10.711 5.154,8.807 5.317,7.855 5.476,6.903 5.617,5.949 L 6.048,3.087 6.2,2.073 5.583,2.892 3.649,5.453 C 3.027,6.324 2.355,7.165 1.691,8.009 1.025,8.852 0.371,9.705 -0.311,10.534 l -0.507,0.626 c -0.158,0.222 -0.373,0.37 -0.561,0.563 -0.195,0.179 -0.407,0.343 -0.623,0.479 -0.198,0.139 -0.522,0.229 -0.519,0.065 l -0.002,0.034 c 0.51,-2.03 1.027,-4.06 1.427,-6.114 C -0.67,4.138 -0.277,2.081 0.049,0.01 Z"
             style="fill:#282828;fill-opacity:1;fill-rule:nonzero;stroke:none"
             id="path278"
             inkscape:connector-curvature="0" /></g></g></g></g></svg>