<?xml version="1.0" encoding="UTF-8" standalone="no"?>
<!-- Created with Inkscape (http://www.inkscape.org/) -->

<svg
   xmlns:dc="http://purl.org/dc/elements/1.1/"
   xmlns:cc="http://creativecommons.org/ns#"
   xmlns:rdf="http://www.w3.org/1999/02/22-rdf-syntax-ns#"
   xmlns:svg="http://www.w3.org/2000/svg"
   xmlns="http://www.w3.org/2000/svg"
   xmlns:sodipodi="http://sodipodi.sourceforge.net/DTD/sodipodi-0.dtd"
   xmlns:inkscape="http://www.inkscape.org/namespaces/inkscape"
   version="1.1"
   id="svg2"
   xml:space="preserve"
   width="599.6886"
   height="477.75714"
   viewBox="0 0 599.68862 477.75714"
   sodipodi:docname="school.svg"
   inkscape:version="0.92.2 5c3e80d, 2017-08-06"><metadata
     id="metadata8"><rdf:RDF><cc:Work
         rdf:about=""><dc:format>image/svg+xml</dc:format><dc:type
           rdf:resource="http://purl.org/dc/dcmitype/StillImage" /><dc:title></dc:title></cc:Work></rdf:RDF></metadata><defs
     id="defs6"><clipPath
       clipPathUnits="userSpaceOnUse"
       id="clipPath22"><path
         d="M 0,600 H 1000 V 0 H 0 Z"
         id="path20"
         inkscape:connector-curvature="0" /></clipPath><clipPath
       clipPathUnits="userSpaceOnUse"
       id="clipPath46"><path
         d="m 588.667,356.425 h 18.117 v -4.159 h -18.117 z"
         id="path44"
         inkscape:connector-curvature="0" /></clipPath><clipPath
       clipPathUnits="userSpaceOnUse"
       id="clipPath70"><path
         d="M 416.72,304.341 H 551.67 V 246.385 H 416.72 Z"
         id="path68"
         inkscape:connector-curvature="0" /></clipPath><clipPath
       clipPathUnits="userSpaceOnUse"
       id="clipPath142"><path
         d="M 0,600 H 1000 V 0 H 0 Z"
         id="path140"
         inkscape:connector-curvature="0" /></clipPath><clipPath
       clipPathUnits="userSpaceOnUse"
       id="clipPath194"><path
         d="M 0,600 H 1000 V 0 H 0 Z"
         id="path192"
         inkscape:connector-curvature="0" /></clipPath><clipPath
       clipPathUnits="userSpaceOnUse"
       id="clipPath274"><path
         d="M 0,600 H 1000 V 0 H 0 Z"
         id="path272"
         inkscape:connector-curvature="0" /></clipPath></defs><sodipodi:namedview
     pagecolor="#ffffff"
     bordercolor="#666666"
     borderopacity="1"
     objecttolerance="10"
     gridtolerance="10"
     guidetolerance="10"
     inkscape:pageopacity="0"
     inkscape:pageshadow="2"
     inkscape:window-width="1920"
     inkscape:window-height="1029"
     id="namedview4"
     showgrid="false"
     inkscape:zoom="1.3368165"
     inkscape:cx="302.95509"
     inkscape:cy="210.08611"
     inkscape:window-x="0"
     inkscape:window-y="24"
     inkscape:window-maximized="1"
     inkscape:current-layer="g10" /><g
     id="g10"
     inkscape:groupmode="layer"
     inkscape:label="school"
     transform="matrix(1.3333333,0,0,-1.3333333,-370.03071,725.85643)"><g
       id="g12"
       transform="translate(620.4512,344.6538)"><path
         d="m 0,0 -3.451,6.013 -235.667,2 L -240.7,0 Z"
         style="fill:#fff69c;fill-opacity:1;fill-rule:nonzero;stroke:none"
         id="path14"
         inkscape:connector-curvature="0" /></g><g
       id="g16"><g
         id="g18"
         clip-path="url(#clipPath22)"><g
           id="g24"
           transform="translate(614.1328,352.5298)"><path
             d="M 0,0 V 134.182 H -229.812 V 0 L -3.133,-0.196 V 4.47 h -215.333 l -4.611,-0.537 -1.389,123.871 1.389,2.445 H -6.736 L -6.799,2.137 c 0,0 2.932,-2.607 6.799,-2.137"
             style="fill:#fffacd;fill-opacity:1;fill-rule:nonzero;stroke:none"
             id="path26"
             inkscape:connector-curvature="0" /></g><g
           id="g28"
           transform="translate(614.1074,352.5547)"><path
             d="m 0,0 -0.207,134.157 0.232,-0.232 -229.812,0.082 0.15,0.15 -0.069,-67.091 0.061,-67.091 -0.142,0.142 57.454,0.057 57.453,-0.016 z m 0.051,-0.05 -114.931,-0.158 -57.453,-0.016 -57.454,0.057 -0.141,0.001 v 0.141 l 0.06,67.091 -0.069,67.091 v 0.15 h 0.15 L 0.025,134.39 h 0.233 v -0.233 z"
             style="fill:#2d2d2d;fill-opacity:1;fill-rule:nonzero;stroke:none"
             id="path30"
             inkscape:connector-curvature="0" /></g><g
           id="g32"
           transform="translate(607.3711,356.4878)"><path
             d="m 0,0 -0.207,126.291 0.232,-0.232 -216.34,0.082 0.15,0.15 -0.069,-63.158 0.061,-63.158 -0.142,0.142 54.085,0.057 54.085,-0.016 z m 0.051,-0.05 -108.196,-0.158 -54.085,-0.016 -54.085,0.057 -0.142,0.001 v 0.141 l 0.061,63.158 -0.069,63.158 v 0.15 h 0.15 l 216.34,0.082 h 0.233 v -0.232 z"
             style="fill:#2d2d2d;fill-opacity:1;fill-rule:nonzero;stroke:none"
             id="path34"
             inkscape:connector-curvature="0" /></g><g
           id="g36"
           transform="translate(620.4258,344.6787)"><path
             d="m 0,0 -0.018,7.851 0.043,-0.043 -60.174,-0.136 -60.176,-0.064 -120.35,0.093 0.15,0.15 -0.012,-7.876 -0.138,0.138 c 20.059,-0.018 40.117,-0.094 60.175,-0.034 l 60.175,0.091 30.088,0.017 30.088,-0.043 z m 0.051,-0.05 -60.2,-0.143 -30.088,-0.044 -30.088,0.017 -60.175,0.091 c -20.058,0.061 -40.116,-0.016 -60.175,-0.034 h -0.137 l -10e-4,0.138 -0.012,7.876 v 0.15 h 0.15 L -120.325,8.094 -60.149,8.03 0.025,7.894 H 0.068 V 7.851 Z"
             style="fill:#2d2d2d;fill-opacity:1;fill-rule:nonzero;stroke:none"
             id="path38"
             inkscape:connector-curvature="0" /></g><g
           id="g40"><g
             id="g42" /><g
             id="g54"><g
               clip-path="url(#clipPath46)"
               id="g52"
               style="opacity:0.10000598"><g
                 transform="translate(606.623,352.5049)"
                 id="g50"><path
                   d="m 0,0 c -5.414,-0.259 -10.828,-0.287 -16.242,-0.18 l -0.143,0.002 -0.047,0.125 -1.448,3.775 -0.076,0.198 0.202,-0.047 c 1.474,-0.348 2.954,-0.664 4.441,-0.95 1.487,-0.283 2.984,-0.524 4.468,-0.821 1.488,-0.284 2.96,-0.635 4.44,-0.957 1.474,-0.344 2.946,-0.704 4.41,-1.096 L 0.161,0.008 Z m -0.005,0 c -1.499,0.232 -2.99,0.495 -4.478,0.775 -1.484,0.3 -2.974,0.572 -4.45,0.912 -1.478,0.326 -2.944,0.708 -4.42,1.048 -1.476,0.338 -2.959,0.645 -4.447,0.92 l 0.125,0.151 1.622,-3.703 -0.189,0.127 C -10.828,0.337 -5.414,0.309 0,0.05 Z"
                   style="fill:#2d2d2d;fill-opacity:1;fill-rule:nonzero;stroke:none"
                   id="path48"
                   inkscape:connector-curvature="0" /></g></g></g></g><g
           id="g56"
           transform="translate(413.4014,304.0845)"><path
             d="M 0,0 -0.031,7.988 V 8.043 H 0.025 L 34.577,8.176 C 46.095,8.238 57.612,8.246 69.13,8.23 l 34.552,-0.015 34.552,-0.09 h 0.137 V 7.988 l -0.017,-7.963 v -0.12 h -0.12 L 120.958,-0.059 103.682,-0.086 69.129,-0.174 C 57.612,-0.228 46.095,-0.16 34.577,-0.142 L 17.301,-0.1 Z m 0.05,0.05 17.251,0.099 17.276,0.042 c 11.518,0.018 23.035,0.087 34.552,0.033 l 34.553,-0.088 17.276,-0.028 17.276,0.037 -0.12,-0.12 -0.016,7.963 0.136,-0.137 L 103.682,7.761 69.13,7.746 C 57.612,7.729 46.095,7.737 34.577,7.799 L 0.025,7.932 0.081,7.988 Z"
             style="fill:#2d2d2d;fill-opacity:1;fill-rule:nonzero;stroke:none"
             id="path58"
             inkscape:connector-curvature="0" /></g><g
           id="g60"
           transform="translate(486.8848,246.4961)"><path
             d="M 0,0 -0.156,28.82 -0.214,43.217 -0.22,57.613 v 0.242 l 0.242,0.002 29.006,0.269 29.008,0.194 0.139,10e-4 -10e-4,-0.138 -0.028,-14.41 C 58.135,38.971 58.119,34.168 58.151,29.365 L 58.265,0.549 58.266,0.363 58.078,0.361 43.565,0.201 29.052,0.115 14.538,0.029 Z m 0.05,0.051 14.486,0.232 14.513,0.176 14.513,0.176 14.512,0.103 -0.186,-0.189 0.074,28.816 c 0.025,4.803 0.004,9.606 -0.014,14.408 L 57.9,58.183 58.038,58.045 29.033,57.67 0.027,57.37 0.269,57.613 0.263,43.217 0.205,28.82 Z"
             style="fill:#2d2d2d;fill-opacity:1;fill-rule:nonzero;stroke:none"
             id="path62"
             inkscape:connector-curvature="0" /></g><g
           id="g64"><g
             id="g66" /><g
             id="g78"><g
               clip-path="url(#clipPath70)"
               id="g76"
               style="opacity:0.10000598"><g
                 transform="translate(551.6104,304.0845)"
                 id="g74"><path
                   d="m 0,0 -67.317,-0.197 -67.342,-0.01 0.231,0.232 -0.094,-57.588 -0.137,0.137 8.533,-0.014 -0.124,-0.123 0.045,27.805 -0.049,27.803 v 0.128 h 0.128 l 31.538,0.061 31.537,0.015 C -42.025,-1.806 -21,-1.791 0.025,-1.92 L -0.009,-1.955 Z M 0.051,0.05 0.06,-1.955 V -1.989 H 0.025 C -21,-2.119 -42.025,-2.103 -63.051,-2.158 l -31.537,0.015 -31.538,0.061 0.127,0.127 -0.049,-27.803 0.045,-27.805 v -0.123 h -0.123 l -8.533,-0.014 h -0.137 v 0.137 l -0.095,57.588 v 0.231 h 0.232 l 67.342,-0.009 z"
                   style="fill:#2d2d2d;fill-opacity:1;fill-rule:nonzero;stroke:none"
                   id="path72"
                   inkscape:connector-curvature="0" /></g></g></g></g><g
           id="g80"
           transform="translate(416.9263,238.418)"><path
             d="m 0,0 c -0.076,5.521 -0.117,11.043 -0.146,16.564 l -0.083,16.567 c -0.02,11.043 0,22.086 0.077,33.13 l 0.001,0.178 0.176,-10e-4 6.713,-0.041 H 6.875 V 66.261 L 6.84,57.979 C 6.837,55.217 6.798,52.457 6.824,49.695 L 6.911,33.131 6.952,24.848 C 6.978,22.086 6.941,19.326 6.935,16.564 L 6.848,0 6.847,-0.111 6.738,-0.109 0,-0.025 Z M 0.05,0.025 6.738,0.109 6.629,0 6.542,16.564 c -0.007,2.762 -0.043,5.522 -0.017,8.284 l 0.04,8.283 0.088,16.564 C 6.679,52.457 6.64,55.217 6.637,57.979 L 6.602,66.261 6.738,66.124 0.025,66.083 0.202,66.261 C 0.278,55.217 0.299,44.174 0.279,33.131 L 0.195,16.564 C 0.167,11.051 0.126,5.539 0.05,0.025"
             style="fill:#2d2d2d;fill-opacity:1;fill-rule:nonzero;stroke:none"
             id="path82"
             inkscape:connector-curvature="0" /></g><g
           id="g84"
           transform="translate(544.8965,238.418)"><path
             d="m 0,0 c -0.076,5.521 -0.116,11.043 -0.146,16.564 l -0.083,16.567 c -0.019,11.043 0.001,22.086 0.077,33.13 l 0.002,0.178 0.175,-10e-4 6.714,-0.041 H 6.877 L 6.876,66.261 6.841,57.979 C 6.838,55.217 6.799,52.457 6.825,49.695 L 6.912,33.131 6.953,24.848 C 6.979,22.086 6.942,19.326 6.936,16.564 L 6.849,0 6.848,-0.111 6.739,-0.109 0.001,-0.025 Z M 0.051,0.025 6.739,0.109 6.63,0 6.543,16.564 C 6.536,19.326 6.5,22.086 6.525,24.848 l 0.041,8.283 0.087,16.564 C 6.68,52.457 6.641,55.217 6.638,57.979 L 6.603,66.261 6.739,66.124 0.025,66.083 0.203,66.261 C 0.278,55.217 0.299,44.174 0.279,33.131 L 0.196,16.564 C 0.167,11.051 0.127,5.539 0.051,0.025"
             style="fill:#2d2d2d;fill-opacity:1;fill-rule:nonzero;stroke:none"
             id="path86"
             inkscape:connector-curvature="0" /></g><g
           id="g88"
           transform="translate(480.0317,317.9106)"><path
             d="m 0,0 c -0.227,-0.001 -0.455,0.016 -0.678,-0.018 -0.233,-0.017 -0.414,-0.217 -0.391,-0.456 v -1.36 l 0.003,-1.361 0.002,-0.68 c -0.003,-0.217 -0.011,-0.487 0.201,-0.589 0.415,-0.145 0.894,-0.04 1.34,-0.071 L 1.838,-4.536 4.561,-4.537 15.45,-4.554 37.227,-4.64 37.2,-4.675 c -0.089,0.385 -0.19,0.769 -0.267,1.156 l -0.093,1.179 0.037,1.186 c 0.017,0.196 0.071,0.388 0.104,0.583 l 0.115,0.582 0.02,-0.026 -18.558,-0.022 z M 0,0.01 18.558,0.047 37.116,0.025 H 37.14 L 37.135,0 37.023,-0.579 c -0.032,-0.193 -0.085,-0.384 -0.102,-0.579 l -0.032,-1.178 0.097,-1.179 c 0.079,-0.383 0.18,-0.763 0.268,-1.146 l 0.009,-0.035 H 37.227 L 15.449,-4.651 4.56,-4.604 1.838,-4.589 0.477,-4.581 c -0.451,0.035 -0.912,-0.074 -1.359,0.082 -0.235,0.118 -0.221,0.416 -0.217,0.624 l 0.002,0.68 0.003,1.361 0.008,1.362 c -0.025,0.236 0.169,0.457 0.405,0.468 C -0.455,0.028 -0.226,0.01 0,0.01"
             style="fill:#2d2d2d;fill-opacity:1;fill-rule:nonzero;stroke:none"
             id="path90"
             inkscape:connector-curvature="0" /></g><g
           id="g92"
           transform="translate(480.0317,319.0562)"><path
             d="m 0,0 c -0.491,-0.001 -0.969,-0.238 -1.273,-0.619 -0.326,-0.376 -0.404,-0.892 -0.373,-1.377 l 0.004,-2.94 c -0.023,-0.487 0.092,-0.99 0.43,-1.351 0.321,-0.373 0.81,-0.56 1.3,-0.545 l 2.939,0.004 11.76,0.016 23.518,0.012 -0.048,-0.048 v 1.146 l 0.048,-0.048 -20.435,0.003 -10.218,0.01 -5.109,0.004 -2.554,0.004 c -0.229,0.006 -0.434,0.177 -0.496,0.389 -0.058,0.218 -0.016,0.427 -0.029,0.641 l 0.001,1.278 0.002,1.277 c 0.013,0.214 -0.029,0.421 0.03,0.643 0.058,0.21 0.276,0.378 0.487,0.381 l 2.559,0.001 5.109,-0.005 10.218,0.005 20.435,0.018 -0.04,-0.04 -10e-4,1.146 0.041,-0.041 z m 0,0.01 38.305,0.036 h 0.041 V 0.005 l -10e-4,-1.146 v -0.04 h -0.04 L 17.87,-1.163 7.652,-1.158 2.543,-1.162 -0.006,-1.166 c -0.224,-0.011 -0.387,-0.157 -0.45,-0.35 -0.055,-0.193 -0.015,-0.42 -0.027,-0.628 l 0.001,-1.277 0.001,-1.278 c 0.013,-0.209 -0.028,-0.434 0.028,-0.63 0.06,-0.191 0.236,-0.334 0.443,-0.342 h 2.553 l 5.109,0.004 10.218,0.009 20.435,0.004 h 0.048 v -0.048 -1.146 -0.048 h -0.048 l -23.518,0.012 -11.76,0.015 -2.939,0.004 c -0.491,-0.015 -1,0.178 -1.322,0.558 -0.343,0.367 -0.459,0.885 -0.433,1.371 l 0.004,2.94 c -0.03,0.486 0.049,1.006 0.379,1.386 0.308,0.382 0.79,0.62 1.284,0.62"
             style="fill:#2d2d2d;fill-opacity:1;fill-rule:nonzero;stroke:none"
             id="path94"
             inkscape:connector-curvature="0" /></g><g
           id="g96"
           transform="translate(479.9512,317.1997)"><path
             d="m 0,0 0.001,-0.25 -0.006,0.006 18.114,0.043 18.115,-0.019 -0.031,-0.03 0.001,0.255 0.03,-0.029 -18.115,-0.009 z M -0.01,0.01 18.109,0.042 36.224,0.034 h 0.029 V 0.005 l 10e-4,-0.255 v -0.029 h -0.03 L 18.109,-0.298 -0.005,-0.255 h -0.006 v 0.005 z"
             style="fill:#2d2d2d;fill-opacity:1;fill-rule:nonzero;stroke:none"
             id="path98"
             inkscape:connector-curvature="0" /></g><g
           id="g100"
           transform="translate(479.9512,314.6523)"><path
             d="m 0,0 0.001,-0.249 -0.006,0.006 18.114,0.043 18.115,-0.019 -0.031,-0.03 0.001,0.254 0.03,-0.029 -18.115,-0.009 z M -0.01,0.01 18.109,0.042 36.224,0.034 h 0.029 V 0.005 l 10e-4,-0.254 v -0.029 h -0.03 L 18.109,-0.297 -0.005,-0.254 h -0.006 v 0.005 z"
             style="fill:#2d2d2d;fill-opacity:1;fill-rule:nonzero;stroke:none"
             id="path102"
             inkscape:connector-curvature="0" /></g><g
           id="g104"
           transform="translate(479.293,323.7988)"><path
             d="M 0,0 C -0.004,0.178 0.079,0.388 0.271,0.434 0.45,0.486 0.637,0.474 0.819,0.475 H 1.917 L 4.112,0.481 8.503,0.492 17.286,0.5 34.851,0.485 h 0.033 L 34.877,0.451 C 34.808,0.104 34.723,-0.242 34.666,-0.591 L 34.62,-1.655 34.675,-2.72 c 0.057,-0.349 0.141,-0.693 0.21,-1.04 l 0.009,-0.045 h -0.043 l -16.93,0.025 -16.93,0.082 v 0.01 l 16.93,0.006 16.93,-0.051 -0.035,-0.045 c -0.069,0.352 -0.152,0.702 -0.208,1.054 l -0.05,1.069 0.05,1.071 c 0.058,0.352 0.145,0.7 0.216,1.049 L 34.851,0.432 17.286,0.422 8.503,0.434 4.112,0.447 1.917,0.453 0.818,0.458 C 0.637,0.459 0.45,0.472 0.275,0.422 0.088,0.376 0.008,0.181 0.01,-0.001 Z"
             style="fill:#2d2d2d;fill-opacity:1;fill-rule:nonzero;stroke:none"
             id="path106"
             inkscape:connector-curvature="0" /></g><g
           id="g108"
           transform="translate(480.2842,325.3022)"><path
             d="M 0,0 C -0.447,-0.001 -0.883,-0.216 -1.161,-0.562 -1.458,-0.906 -1.529,-1.375 -1.5,-1.817 l 0.003,-2.68 c -0.021,-0.444 0.083,-0.901 0.391,-1.231 0.293,-0.339 0.737,-0.511 1.184,-0.497 l 2.679,0.004 10.719,0.016 21.436,0.012 -0.048,-0.048 v 1.045 l 0.048,-0.048 -18.625,0.003 -9.312,0.01 -4.657,0.004 -2.328,0.004 c -0.209,0.005 -0.398,0.161 -0.454,0.356 -0.053,0.2 -0.015,0.39 -0.026,0.585 l 0.001,1.164 0.001,1.164 c 0.012,0.196 -0.027,0.384 0.028,0.587 0.053,0.192 0.253,0.346 0.445,0.349 h 2.333 l 4.657,-0.004 9.312,0.005 18.625,0.018 -0.04,-0.04 -10e-4,1.044 0.041,-0.041 z m 0,0.01 34.912,0.036 h 0.041 V 0.005 l -0.001,-1.044 v -0.04 h -0.04 L 16.287,-1.061 6.975,-1.056 2.318,-1.061 -0.005,-1.064 c -0.204,-0.011 -0.351,-0.143 -0.409,-0.317 -0.049,-0.175 -0.013,-0.383 -0.024,-0.573 l 0.001,-1.164 0.001,-1.164 c 0.012,-0.19 -0.024,-0.396 0.026,-0.574 0.055,-0.173 0.213,-0.302 0.401,-0.31 h 2.327 l 4.657,0.005 9.312,0.009 18.625,0.004 H 34.96 V -5.196 -6.241 -6.289 H 34.912 L 13.476,-6.277 2.757,-6.262 0.078,-6.258 c -0.448,-0.014 -0.912,0.164 -1.206,0.51 -0.312,0.335 -0.417,0.808 -0.394,1.251 l 0.004,2.68 c -0.027,0.442 0.045,0.917 0.346,1.263 C -0.89,-0.205 -0.45,0.01 0,0.01"
             style="fill:#2d2d2d;fill-opacity:1;fill-rule:nonzero;stroke:none"
             id="path110"
             inkscape:connector-curvature="0" /></g><g
           id="g112"
           transform="translate(480.2114,323.6104)"><path
             d="m 0,0 0.001,-0.228 -0.006,0.006 16.508,0.043 16.509,-0.019 -0.03,-0.03 10e-4,0.233 0.029,-0.029 -16.509,-0.009 z M -0.01,0.01 16.503,0.042 33.012,0.034 h 0.03 v -0.029 -0.233 -0.03 h -0.03 L 16.503,-0.277 -0.005,-0.234 h -0.006 v 0.006 z"
             style="fill:#2d2d2d;fill-opacity:1;fill-rule:nonzero;stroke:none"
             id="path114"
             inkscape:connector-curvature="0" /></g><g
           id="g116"
           transform="translate(480.2114,321.2891)"><path
             d="m 0,0 0.001,-0.227 -0.006,0.006 16.508,0.043 16.509,-0.019 -0.03,-0.03 10e-4,0.232 0.029,-0.029 -16.509,-0.009 z M -0.01,0.01 16.503,0.042 33.012,0.034 h 0.03 v -0.029 -0.232 -0.03 h -0.03 L 16.503,-0.276 -0.005,-0.233 h -0.006 v 0.006 z"
             style="fill:#2d2d2d;fill-opacity:1;fill-rule:nonzero;stroke:none"
             id="path118"
             inkscape:connector-curvature="0" /></g><g
           id="g120"
           transform="translate(506.9648,328.855)"><path
             d="M 0,0 C 0.138,0 0.277,0.012 0.416,-0.007 0.56,-0.011 0.685,-0.147 0.671,-0.291 L 0.677,-1.122 0.681,-1.953 0.683,-2.368 C 0.684,-2.497 0.697,-2.671 0.564,-2.765 0.288,-2.879 0.008,-2.802 -0.268,-2.826 l -0.83,-0.005 -1.661,-0.008 -6.645,-0.018 -13.29,0.012 h -0.032 l 0.005,0.035 c 0.028,0.224 0.064,0.447 0.087,0.672 l -0.011,0.684 0.018,0.684 c -0.015,0.226 -0.059,0.448 -0.086,0.673 l -0.004,0.026 h 0.023 l 11.347,0.065 z m 0,-0.01 -11.347,-0.081 -11.347,-0.021 0.02,0.026 c 0.03,-0.228 0.075,-0.456 0.092,-0.684 l -0.014,-0.684 0.014,-0.684 c -0.021,-0.229 -0.056,-0.457 -0.085,-0.686 l -0.027,0.035 13.29,0.029 6.645,-0.011 1.661,-0.006 0.83,-0.003 c 0.271,0.019 0.571,-0.053 0.812,0.048 0.11,0.075 0.104,0.229 0.103,0.364 l 0.002,0.415 0.004,0.831 v 0.829 C 0.665,-0.146 0.555,-0.031 0.413,-0.021 0.278,-0.001 0.139,-0.011 0,-0.01"
             style="fill:#2d2d2d;fill-opacity:1;fill-rule:nonzero;stroke:none"
             id="path122"
             inkscape:connector-curvature="0" /></g><g
           id="g124"
           transform="translate(506.9648,329.5591)"><path
             d="m 0,0 c 0.632,0.017 1.125,-0.624 1.025,-1.231 l 0.004,-1.805 c 0.085,-0.611 -0.442,-1.242 -1.08,-1.192 l -1.804,-0.004 -7.217,-0.016 -14.435,-0.011 -0.048,-10e-4 v 0.049 0.704 0.048 h 0.048 l 12.541,-0.004 6.27,-0.009 3.135,-0.005 1.567,-0.001 c 0.123,0.006 0.225,0.089 0.262,0.202 0.034,0.115 0.009,0.256 0.017,0.384 l 0.001,0.784 0.001,0.784 c -0.007,0.126 0.018,0.27 -0.016,0.383 -0.04,0.114 -0.129,0.199 -0.269,0.207 l -1.563,0.004 -3.135,0.004 -6.27,-0.005 -12.541,-0.018 h -0.04 v 0.04 l -10e-4,0.704 v 0.041 h 0.041 z m 0,-0.01 -23.507,-0.036 0.041,0.041 -10e-4,-0.704 -0.04,0.04 12.541,-0.018 6.27,-0.005 3.135,0.005 h 1.573 c 0.127,0 0.271,-0.107 0.306,-0.24 0.037,-0.141 0.011,-0.264 0.02,-0.397 L 0.339,-2.108 0.34,-2.892 C 0.332,-3.024 0.358,-3.149 0.322,-3.288 0.283,-3.422 0.151,-3.532 0.008,-3.534 l -1.569,-0.004 -3.135,-0.004 -6.27,-0.01 -12.541,-0.003 0.048,0.048 v -0.704 l -0.048,0.047 14.435,-0.011 7.217,-0.016 1.804,-0.004 c 0.62,-0.049 1.134,0.554 1.055,1.159 l 0.004,1.805 C 1.108,-0.625 0.626,0 0,-0.01"
             style="fill:#2d2d2d;fill-opacity:1;fill-rule:nonzero;stroke:none"
             id="path126"
             inkscape:connector-curvature="0" /></g><g
           id="g128"
           transform="translate(507.0225,328.4189)"><path
             d="M 0,0 0.001,-0.161 V -0.167 H -0.005 L -11.12,-0.21 -22.235,-0.191 h -0.031 l 10e-4,0.03 v 0.156 0.03 l 0.03,-0.001 c 3.705,-0.023 7.41,-0.003 11.115,0.009 z m -0.01,-0.01 -11.11,-0.033 c -3.705,0.012 -7.41,0.032 -11.115,0.009 l 0.029,0.029 v -0.156 l -0.029,0.03 11.115,0.019 11.115,-0.043 -0.006,-0.006 z"
             style="fill:#2d2d2d;fill-opacity:1;fill-rule:nonzero;stroke:none"
             id="path130"
             inkscape:connector-curvature="0" /></g><g
           id="g132"
           transform="translate(507.0225,326.855)"><path
             d="M 0,0 0.001,-0.16 V -0.166 H -0.005 L -11.12,-0.209 -22.235,-0.19 h -0.031 l 10e-4,0.03 v 0.155 0.03 l 0.03,-0.001 c 3.705,-0.023 7.41,-0.003 11.115,0.009 z m -0.01,-0.01 -11.11,-0.033 c -3.705,0.012 -7.41,0.032 -11.115,0.009 l 0.029,0.029 V -0.16 l -0.029,0.03 11.115,0.019 11.115,-0.043 -0.006,-0.006 z"
             style="fill:#2d2d2d;fill-opacity:1;fill-rule:nonzero;stroke:none"
             id="path134"
             inkscape:connector-curvature="0" /></g></g></g><g
       id="g136"><g
         id="g138"
         clip-path="url(#clipPath142)"><g
           id="g144"
           transform="translate(587.1963,264.2578)"><path
             d="M 0,0 C 0,0 -0.014,0.443 -0.039,1.217 -0.042,1.604 -0.047,2.074 -0.052,2.613 -0.075,3.152 -0.02,3.76 0.041,4.424 0.1,5.088 0.144,5.812 0.258,6.566 0.383,7.32 0.566,8.105 0.73,8.918 c 0.201,0.807 0.408,1.639 0.619,2.486 0.195,0.848 0.465,1.692 0.675,2.555 0.257,0.85 0.539,1.691 0.828,2.518 0.336,0.806 0.637,1.617 1.015,2.361 0.337,0.766 0.774,1.471 1.16,2.109 0.396,0.651 0.748,1.272 1.143,1.813 0.411,0.531 0.787,1.015 1.121,1.447 0.323,0.438 0.679,0.758 0.94,1.043 0.27,0.279 0.484,0.496 0.646,0.631 0.155,0.137 0.238,0.211 0.238,0.211 l 0.033,-0.037 c 0,0 -0.072,-0.082 -0.21,-0.239 C 8.797,25.668 8.611,25.428 8.379,25.119 8.157,24.803 7.826,24.469 7.548,24.01 7.249,23.57 6.911,23.074 6.542,22.531 6.185,21.982 5.862,21.332 5.467,20.687 5.274,20.359 5.078,20.023 4.877,19.678 4.691,19.355 4.525,18.967 4.332,18.611 3.937,17.889 3.626,17.096 3.258,16.312 2.923,15.516 2.592,14.699 2.284,13.875 2.009,13.039 1.702,12.209 1.498,11.365 1.315,10.518 1.103,9.688 0.995,8.867 0.887,8.047 0.807,7.254 0.682,6.508 0.603,5.758 0.533,5.049 0.451,4.396 0.272,3.092 0.25,1.979 0.171,1.211 0.094,0.439 0.051,-0.002 0.051,-0.002 Z"
             style="fill:#2d2d2d;fill-opacity:1;fill-rule:nonzero;stroke:none"
             id="path146"
             inkscape:connector-curvature="0" /></g><g
           id="g148"
           transform="translate(578.1787,298.9727)"><path
             d="M 0,0 C 0,0 0.104,-0.096 0.298,-0.277 0.491,-0.461 0.782,-0.717 1.118,-1.088 1.472,-1.443 1.845,-1.92 2.277,-2.463 2.7,-3.016 3.128,-3.674 3.57,-4.404 3.779,-4.777 3.997,-5.166 4.222,-5.568 4.421,-5.984 4.638,-6.408 4.833,-6.855 5.231,-7.75 5.586,-8.719 5.918,-9.73 c 0.334,-1.01 0.663,-2.057 0.978,-3.127 0.318,-1.069 0.633,-2.157 0.916,-3.254 0.284,-1.1 0.546,-2.203 0.765,-3.299 0.227,-1.106 0.366,-2.182 0.546,-3.231 0.242,-2.123 0.416,-4.103 0.44,-5.804 0.062,-1.701 0.009,-3.119 -0.029,-4.11 -0.05,-0.992 -0.096,-1.554 -0.096,-1.554 H 9.387 c 10e-4,0 -0.033,2.265 -0.251,5.644 -0.039,0.846 -0.15,1.756 -0.214,2.723 -0.074,0.965 -0.212,1.972 -0.321,3.021 -0.157,1.047 -0.278,2.147 -0.474,3.229 -0.18,1.096 -0.373,2.207 -0.604,3.312 -0.226,1.106 -0.47,2.211 -0.784,3.278 -0.142,0.537 -0.313,1.062 -0.494,1.576 -0.167,0.517 -0.358,1.021 -0.561,1.51 -0.796,1.962 -1.671,3.724 -2.473,5.203 -0.414,0.734 -0.832,1.381 -1.204,1.957 -0.389,0.562 -0.739,1.047 -1.047,1.427 -0.29,0.399 -0.556,0.686 -0.729,0.887 -0.173,0.201 -0.266,0.307 -0.266,0.307 z"
             style="fill:#2d2d2d;fill-opacity:1;fill-rule:nonzero;stroke:none"
             id="path150"
             inkscape:connector-curvature="0" /></g><g
           id="g152"
           transform="translate(596.5762,293.1855)"><path
             d="m 0,0 c 0,6.127 5.862,3.992 1.802,-0.656 4.06,4.648 7.18,-0.752 0.959,-1.658 6.221,0.906 5.138,-5.239 -0.334,-1.889 5.472,-3.35 0.693,-7.36 -1.468,-1.231 2.161,-6.129 -4.077,-6.129 -1.916,0 -2.161,-6.129 -6.94,-2.119 -1.469,1.231 -5.471,-3.35 -6.554,2.795 -0.333,1.889 -6.221,0.906 -3.102,6.306 0.958,1.658 C -5.861,3.992 0,6.127 0,0"
             style="fill:#f8d4f8;fill-opacity:1;fill-rule:nonzero;stroke:none"
             id="path154"
             inkscape:connector-curvature="0" /></g><g
           id="g156"
           transform="translate(598.3027,290.0605)"><path
             d="m 0,0 c 0,-0.953 -0.772,-1.727 -1.727,-1.727 -0.951,0 -1.724,0.774 -1.724,1.727 0,0.951 0.773,1.725 1.724,1.725 C -0.772,1.725 0,0.951 0,0"
             style="fill:#f8d4f8;fill-opacity:1;fill-rule:nonzero;stroke:none"
             id="path158"
             inkscape:connector-curvature="0" /></g><g
           id="g160"
           transform="translate(577.3311,301.8159)"><path
             d="m 0,0 c 0,6.127 5.862,3.994 1.802,-0.656 4.06,4.65 7.179,-0.753 0.958,-1.66 6.221,0.907 5.138,-5.236 -0.334,-1.887 5.472,-3.349 0.693,-7.359 -1.468,-1.232 2.161,-6.127 -4.077,-6.127 -1.916,0 -2.161,-6.127 -6.94,-2.117 -1.468,1.232 -5.472,-3.349 -6.555,2.794 -0.334,1.887 -6.221,0.907 -3.101,6.31 0.959,1.66 C -5.861,3.994 0,6.127 0,0"
             style="fill:#f8d4f8;fill-opacity:1;fill-rule:nonzero;stroke:none"
             id="path162"
             inkscape:connector-curvature="0" /></g><g
           id="g164"
           transform="translate(579.0566,298.6895)"><path
             d="m 0,0 c 0,-0.953 -0.773,-1.725 -1.726,-1.725 -0.953,0 -1.725,0.772 -1.725,1.725 0,0.954 0.772,1.726 1.725,1.726 C -0.773,1.726 0,0.954 0,0"
             style="fill:#f8d4f8;fill-opacity:1;fill-rule:nonzero;stroke:none"
             id="path166"
             inkscape:connector-curvature="0" /></g><g
           id="g168"
           transform="translate(596.5635,293.1855)"><path
             d="M 0,0 C -0.042,0.42 -0.026,0.848 -0.115,1.26 L -0.247,1.879 C -0.313,2.078 -0.399,2.271 -0.475,2.467 -0.539,2.67 -0.69,2.826 -0.794,3.008 -0.899,3.189 -1.086,3.303 -1.227,3.455 -1.41,3.539 -1.578,3.691 -1.788,3.697 -1.991,3.76 -2.191,3.713 -2.392,3.674 -2.569,3.574 -2.753,3.48 -2.864,3.301 -3.02,3.162 -3.042,2.936 -3.123,2.754 -3.126,2.547 -3.192,2.342 -3.146,2.137 -3.101,1.934 -3.112,1.721 -3.021,1.527 -2.946,1.334 -2.884,1.133 -2.798,0.943 L -2.484,0.4 c 0.21,-0.363 0.505,-0.671 0.752,-1.007 l -0.112,-0.098 c -0.309,0.289 -0.58,0.625 -0.919,0.877 L -3.27,0.553 C -3.45,0.658 -3.641,0.748 -3.825,0.846 -4.007,0.957 -4.22,0.975 -4.415,1.045 -4.612,1.115 -4.822,1.078 -5.024,1.104 -5.215,1.055 -5.436,1.059 -5.596,0.937 -5.784,0.857 -5.904,0.705 -6.026,0.553 c -0.07,-0.18 -0.146,-0.36 -0.116,-0.559 -0.023,-0.197 0.102,-0.381 0.163,-0.562 0.133,-0.153 0.209,-0.35 0.384,-0.467 0.165,-0.123 0.295,-0.289 0.491,-0.373 0.184,-0.096 0.36,-0.207 0.551,-0.291 l 0.593,-0.209 c 0.193,-0.084 0.406,-0.108 0.611,-0.156 l 0.62,-0.127 -0.035,-0.247 c -0.427,0.022 -0.857,0.104 -1.283,0.079 l -0.64,-0.034 c -0.209,-0.033 -0.414,-0.087 -0.622,-0.13 -0.212,-0.028 -0.388,-0.153 -0.586,-0.223 -0.203,-0.068 -0.339,-0.233 -0.514,-0.342 -0.123,-0.152 -0.29,-0.297 -0.345,-0.486 -0.026,-0.094 -0.085,-0.182 -0.089,-0.28 l -0.003,-0.289 c 0.06,-0.183 0.119,-0.369 0.273,-0.503 0.054,-0.083 0.138,-0.137 0.229,-0.182 0.09,-0.043 0.167,-0.113 0.267,-0.139 0.202,-0.031 0.39,-0.133 0.605,-0.109 0.209,0.012 0.419,-0.028 0.626,0.033 0.207,0.047 0.419,0.072 0.622,0.133 l 0.602,0.224 c 0.205,0.061 0.387,0.182 0.578,0.278 l 0.569,0.304 0.122,-0.199 c -0.348,-0.259 -0.735,-0.476 -1.055,-0.769 l -0.48,-0.442 c -0.145,-0.158 -0.269,-0.336 -0.406,-0.502 -0.151,-0.16 -0.211,-0.371 -0.32,-0.552 -0.122,-0.182 -0.122,-0.401 -0.191,-0.6 -0.007,-0.199 -0.039,-0.42 0.035,-0.605 0.04,-0.092 0.051,-0.2 0.111,-0.278 l 0.186,-0.23 c 0.169,-0.104 0.339,-0.205 0.547,-0.207 0.098,-0.03 0.199,-0.01 0.3,0.013 0.099,0.026 0.205,0.018 0.299,0.069 0.181,0.105 0.393,0.154 0.547,0.31 0.158,0.143 0.347,0.25 0.471,0.432 0.135,0.168 0.286,0.324 0.407,0.504 l 0.333,0.562 c 0.123,0.18 0.19,0.391 0.28,0.59 l 0.257,0.606 0.176,-0.063 L -1.042,-6.1 C -1.1,-6.311 -1.181,-6.52 -1.201,-6.738 l -0.1,-0.651 c -0.018,-0.218 -0.002,-0.437 -0.005,-0.654 -0.019,-0.223 0.061,-0.43 0.093,-0.645 0.019,-0.22 0.153,-0.398 0.228,-0.599 0.121,-0.168 0.24,-0.363 0.421,-0.467 0.091,-0.047 0.17,-0.127 0.272,-0.148 l 0.306,-0.061 0.306,0.059 c 0.102,0.021 0.182,0.099 0.276,0.146 0.181,0.104 0.303,0.297 0.425,0.465 0.077,0.201 0.214,0.381 0.235,0.602 0.033,0.214 0.116,0.423 0.098,0.646 0,0.219 0.017,0.44 0,0.658 L 1.26,-6.732 c -0.019,0.22 -0.098,0.429 -0.155,0.642 l -0.181,0.639 0.096,0.033 0.252,-0.609 c 0.089,-0.2 0.156,-0.412 0.278,-0.596 l 0.331,-0.57 c 0.121,-0.182 0.272,-0.342 0.407,-0.514 0.125,-0.186 0.318,-0.299 0.479,-0.445 0.155,-0.161 0.375,-0.215 0.562,-0.325 0.097,-0.05 0.21,-0.044 0.314,-0.072 0.106,-0.021 0.212,-0.043 0.318,-0.012 0.221,0.004 0.405,0.112 0.584,0.227 l 0.201,0.246 c 0.062,0.086 0.075,0.197 0.116,0.295 0.076,0.199 0.043,0.426 0.035,0.635 -0.07,0.205 -0.074,0.431 -0.198,0.615 C 4.588,-6.355 4.523,-6.141 4.37,-5.98 4.231,-5.812 4.104,-5.633 3.957,-5.473 L 3.471,-5.029 C 3.147,-4.734 2.758,-4.52 2.405,-4.26 l 0.069,0.112 0.573,-0.303 C 3.24,-4.549 3.424,-4.668 3.631,-4.73 l 0.606,-0.223 c 0.205,-0.061 0.42,-0.086 0.629,-0.131 0.209,-0.061 0.423,-0.021 0.635,-0.031 0.217,-0.026 0.41,0.078 0.616,0.113 0.102,0.025 0.181,0.098 0.273,0.143 0.093,0.047 0.179,0.101 0.236,0.189 0.158,0.137 0.221,0.33 0.281,0.522 l -0.004,0.3 c -0.005,0.1 -0.064,0.19 -0.091,0.287 -0.059,0.194 -0.228,0.34 -0.355,0.495 C 6.28,-2.955 6.14,-2.789 5.935,-2.723 5.736,-2.65 5.558,-2.525 5.343,-2.498 5.134,-2.457 4.928,-2.402 4.717,-2.369 L 4.075,-2.336 C 3.647,-2.314 3.218,-2.396 2.789,-2.42 l -0.031,0.209 0.621,0.133 c 0.206,0.047 0.419,0.072 0.612,0.156 l 0.594,0.211 c 0.191,0.084 0.367,0.197 0.553,0.295 0.195,0.084 0.325,0.25 0.491,0.373 0.175,0.119 0.251,0.318 0.384,0.471 0.061,0.183 0.186,0.367 0.162,0.566 C 6.205,0.193 6.128,0.375 6.057,0.557 5.935,0.709 5.813,0.861 5.624,0.941 5.463,1.061 5.242,1.059 5.052,1.105 4.849,1.08 4.639,1.117 4.441,1.045 4.246,0.975 4.033,0.957 3.853,0.846 3.668,0.746 3.478,0.656 3.297,0.551 L 2.792,0.168 C 2.453,-0.084 2.183,-0.42 1.875,-0.709 l -0.121,0.105 c 0.247,0.338 0.54,0.647 0.749,1.008 L 2.814,0.949 C 2.9,1.139 2.962,1.338 3.036,1.531 3.127,1.723 3.114,1.937 3.158,2.139 3.205,2.342 3.138,2.545 3.135,2.75 3.054,2.93 3.031,3.154 2.878,3.291 2.768,3.469 2.586,3.559 2.412,3.656 2.214,3.693 2.018,3.742 1.817,3.682 1.61,3.678 1.443,3.525 1.261,3.443 1.12,3.293 0.935,3.182 0.829,3 0.726,2.82 0.573,2.666 0.509,2.463 0.433,2.268 0.347,2.076 0.279,1.877 L 0.146,1.26 C 0.056,0.85 0.068,0.418 0.025,-0.002 Z M 0,0 C 0.036,0.422 0.014,0.85 0.097,1.266 L 0.22,1.895 c 0.063,0.203 0.147,0.4 0.22,0.599 0.063,0.207 0.215,0.371 0.319,0.559 0.106,0.187 0.297,0.31 0.443,0.47 C 1.394,3.617 1.568,3.777 1.795,3.791 2.012,3.859 2.232,3.816 2.452,3.77 2.65,3.666 2.853,3.563 2.977,3.369 3.146,3.215 3.176,2.977 3.262,2.779 3.27,2.563 3.339,2.342 3.294,2.127 3.25,1.916 3.262,1.689 3.171,1.492 3.096,1.291 3.033,1.082 2.946,0.887 L 2.63,0.326 C 2.419,-0.047 2.124,-0.361 1.875,-0.709 l -0.12,0.105 c 0.311,0.299 0.584,0.641 0.93,0.905 L 3.202,0.697 C 3.389,0.809 3.587,0.904 3.778,1.008 3.966,1.125 4.194,1.15 4.401,1.225 4.61,1.301 4.843,1.27 5.063,1.295 5.279,1.246 5.521,1.246 5.714,1.113 5.932,1.02 6.084,0.844 6.228,0.656 6.32,0.443 6.409,0.221 6.378,-0.016 6.402,-0.252 6.27,-0.461 6.196,-0.672 6.056,-0.844 5.961,-1.066 5.777,-1.195 5.603,-1.33 5.456,-1.512 5.254,-1.602 5.061,-1.705 4.874,-1.826 4.675,-1.914 L 4.058,-2.133 C 3.855,-2.219 3.638,-2.242 3.427,-2.291 L 2.789,-2.42 2.758,-2.211 c 0.441,0.023 0.879,0.104 1.321,0.076 l 0.663,-0.039 c 0.219,-0.035 0.436,-0.094 0.654,-0.139 0.221,-0.033 0.416,-0.164 0.625,-0.242 0.213,-0.074 0.373,-0.254 0.56,-0.377 0.143,-0.173 0.324,-0.336 0.393,-0.56 0.033,-0.112 0.096,-0.215 0.102,-0.332 L 7.077,-4.178 C 7.009,-4.402 6.927,-4.629 6.747,-4.787 6.678,-4.885 6.582,-4.947 6.478,-4.998 6.376,-5.051 6.283,-5.127 6.174,-5.154 5.952,-5.193 5.735,-5.299 5.511,-5.273 5.288,-5.262 5.06,-5.299 4.845,-5.234 4.628,-5.187 4.406,-5.158 4.196,-5.094 l -0.619,0.233 c -0.212,0.066 -0.396,0.189 -0.592,0.289 l -0.58,0.312 0.069,0.112 C 2.83,-4.414 3.221,-4.637 3.549,-4.939 l 0.49,-0.456 C 4.189,-5.561 4.318,-5.744 4.459,-5.918 4.613,-6.084 4.681,-6.309 4.793,-6.5 4.918,-6.691 4.924,-6.932 4.993,-7.145 5.001,-7.365 5.032,-7.604 4.95,-7.818 4.906,-7.922 4.889,-8.041 4.821,-8.135 L 4.601,-8.4 C 4.406,-8.525 4.203,-8.637 3.968,-8.641 3.854,-8.672 3.743,-8.648 3.632,-8.625 3.522,-8.598 3.403,-8.6 3.304,-8.547 3.108,-8.438 2.879,-8.379 2.72,-8.217 2.554,-8.068 2.354,-7.949 2.227,-7.764 2.088,-7.59 1.932,-7.428 1.808,-7.242 l -0.34,0.574 c -0.125,0.186 -0.194,0.4 -0.284,0.602 l -0.26,0.615 0.096,0.033 0.188,-0.643 c 0.059,-0.216 0.14,-0.427 0.16,-0.652 L 1.469,-7.377 C 1.487,-7.602 1.472,-7.828 1.474,-8.053 1.492,-8.279 1.41,-8.498 1.376,-8.723 1.354,-8.951 1.213,-9.146 1.132,-9.357 1.002,-9.539 0.872,-9.748 0.671,-9.867 0.567,-9.92 0.478,-10.006 0.362,-10.033 l -0.348,-0.067 -0.35,0.065 c -0.115,0.025 -0.206,0.111 -0.31,0.164 -0.204,0.117 -0.335,0.326 -0.467,0.508 -0.084,0.211 -0.228,0.408 -0.251,0.636 -0.036,0.225 -0.12,0.446 -0.104,0.672 10e-4,0.227 -0.017,0.455 -0.001,0.68 l 0.097,0.668 c 0.018,0.227 0.099,0.437 0.155,0.656 l 0.185,0.649 0.176,-0.063 -0.256,-0.619 c -0.09,-0.205 -0.157,-0.42 -0.282,-0.609 l -0.337,-0.582 c -0.124,-0.188 -0.282,-0.354 -0.42,-0.534 -0.129,-0.187 -0.331,-0.31 -0.5,-0.462 -0.162,-0.167 -0.399,-0.233 -0.599,-0.346 -0.104,-0.055 -0.229,-0.053 -0.344,-0.08 -0.116,-0.026 -0.233,-0.047 -0.354,-0.016 -0.248,0.006 -0.465,0.123 -0.671,0.26 l -0.234,0.283 c -0.071,0.098 -0.09,0.223 -0.135,0.332 -0.085,0.227 -0.053,0.475 -0.043,0.703 0.071,0.219 0.08,0.467 0.207,0.66 0.115,0.196 0.185,0.424 0.343,0.59 0.141,0.178 0.273,0.364 0.425,0.53 l 0.497,0.459 c 0.331,0.304 0.725,0.525 1.084,0.792 l 0.122,-0.199 -0.583,-0.312 c -0.197,-0.102 -0.382,-0.223 -0.596,-0.289 l -0.624,-0.233 c -0.213,-0.064 -0.438,-0.093 -0.656,-0.14 -0.216,-0.063 -0.449,-0.026 -0.674,-0.035 -0.228,-0.026 -0.45,0.082 -0.674,0.121 -0.111,0.031 -0.207,0.107 -0.312,0.162 -0.105,0.052 -0.203,0.117 -0.275,0.218 -0.184,0.163 -0.269,0.395 -0.336,0.629 l 0.002,0.364 c 0.007,0.119 0.07,0.226 0.104,0.339 0.073,0.229 0.257,0.393 0.403,0.569 0.19,0.125 0.352,0.306 0.568,0.381 0.211,0.078 0.408,0.211 0.631,0.24 0.219,0.047 0.438,0.105 0.657,0.139 l 0.666,0.037 c 0.445,0.025 0.882,-0.055 1.323,-0.078 l -0.035,-0.247 -0.638,0.131 c -0.212,0.049 -0.429,0.075 -0.632,0.161 l -0.618,0.22 c -0.2,0.09 -0.387,0.211 -0.58,0.315 -0.203,0.091 -0.35,0.273 -0.525,0.408 -0.183,0.131 -0.278,0.353 -0.419,0.527 -0.073,0.211 -0.206,0.422 -0.181,0.66 -0.031,0.237 0.058,0.461 0.151,0.676 0.145,0.186 0.299,0.363 0.517,0.455 0.193,0.135 0.436,0.133 0.652,0.182 0.221,-0.027 0.454,0.004 0.663,-0.072 0.206,-0.075 0.435,-0.1 0.621,-0.217 0.192,-0.104 0.39,-0.201 0.576,-0.313 L -2.66,0.297 c 0.345,-0.264 0.616,-0.606 0.928,-0.904 l -0.112,-0.098 c -0.248,0.348 -0.542,0.662 -0.752,1.035 L -2.91,0.891 c -0.086,0.195 -0.149,0.404 -0.224,0.603 -0.09,0.197 -0.077,0.424 -0.12,0.635 -0.045,0.213 0.025,0.432 0.032,0.646 0.086,0.196 0.117,0.432 0.284,0.584 0.123,0.19 0.323,0.291 0.517,0.395 0.217,0.043 0.434,0.088 0.649,0.021 C -1.549,3.764 -1.375,3.604 -1.185,3.512 -1.04,3.354 -0.85,3.232 -0.743,3.045 -0.64,2.859 -0.487,2.697 -0.424,2.49 -0.351,2.291 -0.266,2.094 -0.201,1.893 L -0.076,1.268 C 0.009,0.85 -0.012,0.422 0.025,0 Z"
             style="fill:#2d2d2d;fill-opacity:1;fill-rule:nonzero;stroke:none"
             id="path170"
             inkscape:connector-curvature="0" /></g><g
           id="g172"
           transform="translate(598.3027,290.0605)"><path
             d="m 0,0 c 0,-0.953 -0.772,-1.727 -1.727,-1.727 -0.951,0 -1.724,0.774 -1.724,1.727 0,0.951 0.773,1.725 1.724,1.725 C -0.772,1.725 0,0.951 0,0"
             style="fill:#ffffff;fill-opacity:1;fill-rule:nonzero;stroke:none"
             id="path174"
             inkscape:connector-curvature="0" /></g><g
           id="g176"
           transform="translate(577.3184,301.8159)"><path
             d="M 0,0 C -0.042,0.42 -0.026,0.848 -0.115,1.261 L -0.247,1.88 C -0.313,2.079 -0.399,2.272 -0.475,2.468 -0.539,2.67 -0.69,2.826 -0.794,3.007 -0.899,3.19 -1.086,3.303 -1.227,3.455 -1.41,3.539 -1.578,3.692 -1.788,3.698 -1.991,3.76 -2.191,3.713 -2.392,3.673 -2.569,3.574 -2.753,3.481 -2.864,3.302 -3.02,3.162 -3.043,2.936 -3.123,2.753 -3.126,2.548 -3.192,2.343 -3.146,2.137 -3.101,1.935 -3.113,1.72 -3.021,1.529 -2.946,1.334 -2.884,1.134 -2.798,0.945 L -2.484,0.4 c 0.21,-0.362 0.505,-0.67 0.752,-1.008 l -0.112,-0.097 c -0.308,0.29 -0.58,0.625 -0.92,0.877 L -3.27,0.553 c -0.18,0.106 -0.371,0.195 -0.555,0.294 -0.182,0.11 -0.396,0.128 -0.59,0.197 -0.198,0.072 -0.407,0.035 -0.61,0.06 -0.191,-0.048 -0.412,-0.046 -0.571,-0.166 -0.188,-0.08 -0.309,-0.232 -0.43,-0.385 -0.07,-0.18 -0.147,-0.36 -0.116,-0.56 -0.024,-0.196 0.101,-0.379 0.162,-0.561 0.133,-0.153 0.209,-0.349 0.384,-0.469 0.165,-0.122 0.295,-0.288 0.491,-0.371 0.184,-0.096 0.36,-0.209 0.551,-0.292 l 0.593,-0.21 c 0.193,-0.083 0.406,-0.107 0.611,-0.154 l 0.621,-0.129 -0.036,-0.245 c -0.427,0.022 -0.857,0.103 -1.283,0.079 L -4.687,-2.394 C -4.896,-2.427 -5.102,-2.482 -5.31,-2.524 -5.523,-2.552 -5.698,-2.677 -5.896,-2.747 -6.099,-2.815 -6.235,-2.98 -6.41,-3.089 -6.533,-3.242 -6.7,-3.384 -6.755,-3.576 -6.781,-3.669 -6.84,-3.757 -6.844,-3.853 l -0.003,-0.291 c 0.06,-0.184 0.12,-0.369 0.274,-0.502 0.054,-0.084 0.137,-0.137 0.229,-0.182 0.09,-0.045 0.167,-0.113 0.266,-0.138 0.203,-0.034 0.392,-0.135 0.606,-0.11 0.209,0.012 0.419,-0.027 0.626,0.034 0.207,0.046 0.419,0.07 0.622,0.132 l 0.601,0.223 c 0.206,0.062 0.388,0.184 0.58,0.279 l 0.568,0.305 0.122,-0.199 c -0.348,-0.26 -0.735,-0.477 -1.055,-0.772 l -0.48,-0.439 c -0.145,-0.158 -0.269,-0.336 -0.406,-0.502 -0.151,-0.16 -0.212,-0.369 -0.321,-0.553 -0.121,-0.182 -0.121,-0.4 -0.191,-0.599 -0.006,-0.2 -0.038,-0.42 0.035,-0.606 0.04,-0.092 0.051,-0.199 0.111,-0.277 l 0.186,-0.231 c 0.168,-0.103 0.338,-0.205 0.546,-0.207 0.099,-0.029 0.199,-0.01 0.3,0.014 0.1,0.025 0.206,0.017 0.299,0.068 0.182,0.106 0.393,0.153 0.547,0.311 0.158,0.142 0.348,0.25 0.472,0.429 0.134,0.17 0.286,0.327 0.407,0.504 l 0.333,0.563 c 0.123,0.182 0.19,0.392 0.28,0.592 l 0.257,0.603 0.176,-0.062 -0.186,-0.633 c -0.058,-0.213 -0.139,-0.42 -0.159,-0.639 l -0.1,-0.652 c -0.018,-0.217 -0.002,-0.436 -0.005,-0.654 -0.019,-0.221 0.061,-0.428 0.093,-0.643 0.019,-0.221 0.153,-0.398 0.228,-0.6 0.121,-0.168 0.24,-0.363 0.421,-0.464 0.091,-0.047 0.171,-0.129 0.272,-0.151 l 0.306,-0.058 0.306,0.056 c 0.102,0.022 0.182,0.102 0.275,0.147 0.182,0.103 0.303,0.299 0.427,0.465 0.076,0.201 0.213,0.38 0.234,0.601 0.033,0.215 0.116,0.424 0.099,0.647 -0.001,0.218 0.016,0.439 0,0.658 l -0.095,0.654 c -0.019,0.221 -0.098,0.43 -0.155,0.643 l -0.181,0.636 0.096,0.036 0.252,-0.61 C 1.36,-6.228 1.427,-6.441 1.549,-6.625 L 1.88,-7.193 c 0.121,-0.183 0.273,-0.344 0.408,-0.515 0.124,-0.184 0.317,-0.297 0.479,-0.444 0.155,-0.16 0.375,-0.215 0.561,-0.324 0.097,-0.051 0.21,-0.045 0.315,-0.072 0.105,-0.022 0.211,-0.043 0.317,-0.012 0.221,0.004 0.405,0.111 0.585,0.227 l 0.2,0.246 c 0.062,0.086 0.076,0.199 0.116,0.295 0.076,0.199 0.044,0.425 0.035,0.634 -0.07,0.205 -0.074,0.432 -0.198,0.616 C 4.587,-6.355 4.522,-6.14 4.369,-5.98 4.23,-5.812 4.104,-5.632 3.955,-5.472 L 3.47,-5.031 c -0.324,0.295 -0.713,0.512 -1.066,0.772 l 0.069,0.111 0.573,-0.303 C 3.239,-4.548 3.422,-4.667 3.63,-4.73 l 0.606,-0.223 c 0.205,-0.062 0.42,-0.086 0.629,-0.13 0.209,-0.063 0.423,-0.024 0.635,-0.034 0.216,-0.023 0.41,0.08 0.616,0.114 0.101,0.027 0.181,0.097 0.273,0.144 0.093,0.045 0.179,0.102 0.236,0.188 0.158,0.138 0.221,0.332 0.281,0.521 L 6.902,-3.849 C 6.897,-3.75 6.838,-3.658 6.811,-3.562 6.752,-3.367 6.583,-3.222 6.456,-3.066 6.279,-2.957 6.139,-2.79 5.934,-2.722 5.735,-2.652 5.557,-2.527 5.342,-2.499 5.133,-2.457 4.927,-2.402 4.716,-2.37 L 4.074,-2.337 C 3.646,-2.314 3.216,-2.397 2.788,-2.421 l -0.031,0.21 0.621,0.131 c 0.206,0.048 0.419,0.073 0.612,0.157 l 0.594,0.212 c 0.191,0.084 0.367,0.197 0.553,0.294 0.195,0.084 0.325,0.251 0.491,0.374 0.175,0.119 0.251,0.317 0.385,0.471 0.06,0.183 0.185,0.367 0.161,0.565 C 6.205,0.193 6.127,0.375 6.057,0.555 5.935,0.708 5.813,0.861 5.624,0.941 5.463,1.061 5.242,1.058 5.052,1.106 4.849,1.081 4.639,1.117 4.441,1.045 4.246,0.975 4.033,0.957 3.853,0.846 3.668,0.747 3.478,0.657 3.297,0.551 L 2.792,0.169 C 2.453,-0.083 2.183,-0.419 1.875,-0.708 l -0.121,0.104 c 0.247,0.338 0.54,0.647 0.749,1.009 L 2.814,0.949 C 2.9,1.139 2.961,1.338 3.036,1.532 3.127,1.724 3.113,1.937 3.158,2.139 3.205,2.343 3.138,2.546 3.135,2.75 3.054,2.93 3.031,3.155 2.878,3.292 2.768,3.469 2.586,3.559 2.412,3.657 2.215,3.695 2.018,3.742 1.817,3.682 1.61,3.677 1.443,3.526 1.261,3.443 1.121,3.293 0.935,3.182 0.829,3 0.726,2.82 0.574,2.666 0.509,2.464 0.434,2.269 0.347,2.076 0.279,1.878 L 0.146,1.261 C 0.056,0.85 0.068,0.419 0.025,-0.001 Z M 0,0.001 C 0.035,0.423 0.014,0.85 0.097,1.267 L 0.22,1.895 C 0.283,2.098 0.367,2.295 0.441,2.496 0.504,2.702 0.655,2.865 0.76,3.053 0.865,3.241 1.057,3.364 1.202,3.523 1.394,3.617 1.568,3.779 1.795,3.792 2.012,3.86 2.232,3.816 2.453,3.771 2.65,3.667 2.853,3.562 2.977,3.37 3.146,3.215 3.176,2.977 3.262,2.779 3.27,2.563 3.339,2.342 3.294,2.128 3.25,1.917 3.262,1.69 3.171,1.492 3.096,1.291 3.033,1.083 2.945,0.887 L 2.63,0.327 C 2.419,-0.047 2.124,-0.362 1.875,-0.708 L 1.754,-0.604 C 2.066,-0.305 2.339,0.037 2.685,0.3 L 3.202,0.697 C 3.389,0.809 3.587,0.905 3.778,1.009 3.966,1.125 4.194,1.151 4.401,1.225 4.61,1.301 4.844,1.27 5.063,1.294 5.279,1.246 5.522,1.247 5.715,1.113 5.932,1.021 6.084,0.843 6.228,0.656 6.32,0.442 6.408,0.22 6.377,-0.017 6.401,-0.253 6.269,-0.462 6.195,-0.672 6.055,-0.845 5.96,-1.067 5.776,-1.196 5.602,-1.331 5.455,-1.512 5.253,-1.602 5.06,-1.706 4.873,-1.826 4.674,-1.916 L 4.057,-2.134 C 3.854,-2.22 3.637,-2.244 3.426,-2.292 l -0.638,-0.129 -0.031,0.21 c 0.441,0.022 0.879,0.102 1.321,0.076 L 4.741,-2.174 C 4.96,-2.209 5.177,-2.268 5.395,-2.314 5.616,-2.346 5.811,-2.478 6.02,-2.556 6.233,-2.63 6.393,-2.81 6.58,-2.933 6.723,-3.107 6.904,-3.269 6.973,-3.494 7.006,-3.603 7.069,-3.708 7.075,-3.826 L 7.076,-4.177 C 7.008,-4.404 6.926,-4.628 6.746,-4.787 6.677,-4.884 6.581,-4.947 6.477,-5 6.375,-5.05 6.281,-5.126 6.172,-5.156 5.951,-5.193 5.734,-5.298 5.509,-5.273 5.287,-5.263 5.058,-5.298 4.844,-5.236 4.627,-5.187 4.405,-5.158 4.194,-5.093 l -0.618,0.232 c -0.213,0.067 -0.396,0.19 -0.592,0.289 l -0.58,0.313 0.069,0.111 C 2.829,-4.414 3.22,-4.636 3.548,-4.939 l 0.49,-0.455 C 4.188,-5.56 4.317,-5.744 4.457,-5.919 4.612,-6.083 4.68,-6.308 4.792,-6.5 4.917,-6.691 4.923,-6.931 4.992,-7.144 5,-7.365 5.031,-7.603 4.949,-7.818 4.905,-7.921 4.888,-8.041 4.82,-8.132 L 4.6,-8.4 C 4.406,-8.525 4.203,-8.636 3.968,-8.64 3.854,-8.671 3.742,-8.648 3.631,-8.625 3.522,-8.597 3.402,-8.599 3.303,-8.546 3.108,-8.437 2.879,-8.378 2.719,-8.216 2.553,-8.068 2.354,-7.951 2.226,-7.765 2.087,-7.591 1.932,-7.427 1.807,-7.244 l -0.34,0.577 c -0.125,0.185 -0.194,0.398 -0.284,0.601 l -0.26,0.613 0.096,0.036 0.188,-0.645 c 0.059,-0.215 0.14,-0.426 0.16,-0.65 L 1.468,-7.378 C 1.486,-7.601 1.471,-7.828 1.473,-8.052 1.491,-8.279 1.409,-8.498 1.375,-8.722 1.354,-8.951 1.212,-9.146 1.131,-9.357 1.001,-9.539 0.871,-9.748 0.669,-9.867 0.566,-9.919 0.477,-10.005 0.361,-10.031 l -0.348,-0.068 -0.35,0.064 c -0.115,0.026 -0.206,0.112 -0.31,0.164 -0.204,0.118 -0.335,0.327 -0.467,0.508 -0.084,0.211 -0.228,0.408 -0.251,0.637 -0.036,0.225 -0.12,0.445 -0.104,0.672 0.001,0.226 -0.017,0.453 -10e-4,0.678 l 0.097,0.669 c 0.019,0.227 0.099,0.438 0.155,0.655 l 0.185,0.648 0.176,-0.062 -0.256,-0.619 c -0.09,-0.206 -0.158,-0.42 -0.282,-0.608 l -0.338,-0.584 c -0.124,-0.187 -0.281,-0.353 -0.42,-0.531 -0.128,-0.188 -0.33,-0.311 -0.499,-0.463 -0.162,-0.166 -0.399,-0.232 -0.6,-0.346 -0.102,-0.054 -0.229,-0.052 -0.343,-0.082 -0.117,-0.023 -0.233,-0.045 -0.354,-0.013 -0.248,0.005 -0.466,0.123 -0.671,0.259 l -0.234,0.284 c -0.071,0.097 -0.09,0.222 -0.136,0.334 -0.084,0.224 -0.052,0.472 -0.041,0.701 0.07,0.218 0.08,0.467 0.207,0.66 0.115,0.195 0.185,0.424 0.342,0.59 0.142,0.177 0.274,0.363 0.426,0.529 l 0.497,0.459 c 0.332,0.303 0.725,0.525 1.084,0.793 l 0.122,-0.199 -0.583,-0.315 c -0.197,-0.099 -0.382,-0.22 -0.596,-0.287 l -0.624,-0.232 c -0.213,-0.065 -0.438,-0.094 -0.656,-0.141 -0.216,-0.064 -0.449,-0.027 -0.674,-0.037 -0.228,-0.023 -0.45,0.082 -0.674,0.123 -0.111,0.029 -0.207,0.108 -0.312,0.16 -0.105,0.053 -0.203,0.117 -0.275,0.219 -0.184,0.164 -0.269,0.395 -0.337,0.629 l 0.002,0.363 c 0.006,0.119 0.07,0.227 0.104,0.34 0.073,0.229 0.257,0.395 0.403,0.568 0.189,0.126 0.352,0.307 0.568,0.381 0.211,0.078 0.407,0.211 0.631,0.242 0.219,0.046 0.438,0.104 0.657,0.139 l 0.666,0.037 c 0.444,0.025 0.882,-0.057 1.324,-0.08 l -0.036,-0.245 -0.638,0.131 c -0.212,0.048 -0.429,0.074 -0.632,0.16 l -0.618,0.221 c -0.2,0.09 -0.387,0.211 -0.58,0.315 -0.203,0.09 -0.35,0.273 -0.525,0.408 -0.183,0.13 -0.278,0.354 -0.419,0.527 -0.073,0.211 -0.206,0.421 -0.181,0.659 -0.031,0.238 0.058,0.461 0.152,0.676 0.144,0.187 0.298,0.365 0.517,0.457 0.192,0.134 0.435,0.133 0.651,0.181 0.221,-0.026 0.454,0.005 0.663,-0.071 0.207,-0.075 0.436,-0.101 0.622,-0.217 0.192,-0.105 0.39,-0.201 0.576,-0.314 L -2.66,0.298 c 0.345,-0.264 0.616,-0.607 0.928,-0.906 l -0.112,-0.097 c -0.248,0.348 -0.542,0.663 -0.752,1.036 L -2.91,0.892 c -0.086,0.195 -0.149,0.403 -0.224,0.604 -0.09,0.197 -0.077,0.423 -0.12,0.633 -0.045,0.213 0.025,0.432 0.032,0.647 0.086,0.195 0.117,0.432 0.284,0.584 0.123,0.189 0.323,0.291 0.517,0.394 0.217,0.043 0.434,0.088 0.649,0.021 C -1.549,3.764 -1.375,3.604 -1.185,3.512 -1.04,3.354 -0.85,3.233 -0.743,3.045 -0.64,2.859 -0.487,2.697 -0.424,2.491 -0.351,2.292 -0.266,2.095 -0.201,1.893 L -0.076,1.268 C 0.009,0.851 -0.012,0.422 0.025,0 Z"
             style="fill:#2d2d2d;fill-opacity:1;fill-rule:nonzero;stroke:none"
             id="path178"
             inkscape:connector-curvature="0" /></g><g
           id="g180"
           transform="translate(579.0566,298.6895)"><path
             d="m 0,0 c 0,-0.953 -0.773,-1.725 -1.726,-1.725 -0.953,0 -1.725,0.772 -1.725,1.725 0,0.954 0.772,1.726 1.725,1.726 C -0.773,1.726 0,0.954 0,0"
             style="fill:#ffffff;fill-opacity:1;fill-rule:nonzero;stroke:none"
             id="path182"
             inkscape:connector-curvature="0" /></g><g
           id="g184"
           transform="translate(595.0322,262.2812)"><path
             d="m 0,0 0.552,-1.387 c 0.204,-0.455 0.29,-0.949 0.441,-1.424 0.154,-0.474 0.249,-0.962 0.332,-1.455 0.085,-0.49 0.209,-0.978 0.229,-1.476 0.034,-0.498 0.099,-0.996 0.109,-1.496 l -0.024,-1.5 c -0.026,-0.5 -0.108,-0.996 -0.16,-1.494 -0.035,-0.504 -0.182,-0.991 -0.29,-1.485 -0.105,-0.496 -0.229,-0.984 -0.408,-1.445 -0.171,-0.473 -0.302,-0.934 -0.505,-1.414 l -1.142,-2.752 -2.297,-5.496 -0.066,-0.16 -0.17,0.002 -8.084,0.058 -0.133,0.002 -0.049,0.119 -2.503,6.182 c -0.404,1.037 -0.874,2.041 -1.225,3.105 -0.179,0.53 -0.389,1.047 -0.495,1.598 -0.107,0.547 -0.3,1.078 -0.356,1.635 -0.068,0.553 -0.19,1.101 -0.215,1.66 -0.02,0.559 -0.06,1.115 -0.062,1.674 l 0.082,1.678 0.251,1.66 c 0.107,0.55 0.272,1.091 0.407,1.64 0.135,0.551 0.37,1.051 0.552,1.578 0.185,0.522 0.441,1.041 0.657,1.543 l 0.676,1.524 0.058,0.131 h 0.145 c 2.084,-0.01 4.168,-0.018 6.252,-0.069 2.084,-0.037 4.168,-0.095 6.252,-0.109 H -1.16 L -1.148,2.602 Z M -0.045,-0.021 -1.23,2.564 -1.189,2.537 C -3.273,2.525 -5.357,2.465 -7.441,2.428 -9.525,2.379 -11.609,2.369 -13.693,2.359 l 0.203,0.133 -0.692,-1.517 c -0.228,-0.518 -0.471,-0.993 -0.664,-1.518 -0.192,-0.518 -0.45,-1.023 -0.593,-1.551 -0.146,-0.525 -0.322,-1.047 -0.444,-1.582 l -0.298,-1.627 -0.132,-1.65 c -0.014,-0.551 0.026,-1.104 0.036,-1.656 0.018,-0.553 0.131,-1.098 0.192,-1.647 0.043,-0.555 0.234,-1.08 0.356,-1.619 0.112,-0.543 0.33,-1.055 0.515,-1.574 0.362,-1.043 0.854,-2.051 1.274,-3.076 l 2.638,-6.125 -0.181,0.121 8.084,0.06 -0.237,-0.158 2.296,5.496 1.154,2.746 c 0.193,0.43 0.353,0.922 0.531,1.379 0.192,0.463 0.322,0.932 0.434,1.406 0.117,0.473 0.266,0.938 0.325,1.428 0.071,0.486 0.173,0.969 0.22,1.459 l 0.087,1.475 c 0.011,0.492 -0.034,0.984 -0.049,1.478 10e-4,0.496 -0.102,0.981 -0.168,1.471 -0.057,0.494 -0.151,0.978 -0.296,1.453 -0.142,0.475 -0.22,0.969 -0.416,1.426 z"
             style="fill:#2d2d2d;fill-opacity:1;fill-rule:nonzero;stroke:none"
             id="path186"
             inkscape:connector-curvature="0" /></g></g></g><g
       id="g188"><g
         id="g190"
         clip-path="url(#clipPath194)"><g
           id="g196"
           transform="translate(475.9233,395.2598)"><path
             d="m 0,0 -9.267,-2.833 -3.308,25.367 -7.848,1.706 -3.5,-25 -4.49,-3.67 c 0,0 -2.63,1.756 0.68,9.713 3.31,7.957 3.171,17.452 3.171,17.452 l -4.155,0.811 -0.176,2.373 5.535,0.341 8.872,23.957 7.101,-0.124 1.462,-9.853 -9.117,0.575 -4.091,-13.902 5.703,0.442 c 0,0 -1.995,15.885 -0.495,17.385 1.5,1.5 10,-5.5 10,-8 C -3.923,34.24 0,0 0,0"
             style="fill:#ebf8cc;fill-opacity:1;fill-rule:evenodd;stroke:none"
             id="path198"
             inkscape:connector-curvature="0" /></g><g
           id="g200"
           transform="translate(545.54,410.0264)"><path
             d="m 0,0 -2.296,0.49 c 0,0 2.25,-17.659 -4.997,-16.838 -7.247,0.822 -10.491,38.306 -2.369,46.564 8.122,8.258 7.739,-15.684 7.739,-15.684 l 6.784,-0.487 c 0,0 -7.286,21.886 -15.343,20.407 C -18.54,32.974 -20.54,-3.026 -16.54,-13.526 -12.54,-24.026 0.04,-24.974 0,0"
             style="fill:#ebf8cc;fill-opacity:1;fill-rule:evenodd;stroke:none"
             id="path202"
             inkscape:connector-curvature="0" /></g><g
           id="g204"
           transform="translate(491.667,396)"><path
             d="m 0,0 v 43.667 c 0,0 -1.667,5 6.333,5 8,0 16,-1.667 8.667,-8.667 C 7.667,33 12.185,36.594 12.185,36.594 12.185,36.594 30,25.333 21,8 21,8 17.315,-10.025 -0.176,-5.346 l 10.018,2.992 c 0,0 8.491,2.687 10.158,17.687 0,0 -1.634,22.436 -10.15,19.051 l -0.41,4.184 c 0,0 9.926,6.409 2.077,7.92 0,0 -4.684,-1.238 -0.184,-8.738 0,0 -2.25,-3 -2,-5.5 0.25,-2.5 0.25,-36.25 0.25,-36.25 0,0 -9.75,-3.75 -10.25,0.5 z"
             style="fill:#ebf8cc;fill-opacity:1;fill-rule:evenodd;stroke:none"
             id="path206"
             inkscape:connector-curvature="0" /></g><g
           id="g208"
           transform="translate(503.835,432.6128)"><path
             d="M 0,0 C 0,0 0.44,0.364 1.266,1.048 1.473,1.219 1.703,1.409 1.957,1.619 2.186,1.848 2.441,2.104 2.696,2.394 3.21,2.972 3.77,3.668 4.285,4.517 4.787,5.363 5.286,6.377 5.387,7.549 5.399,8.132 5.294,8.738 4.979,9.278 4.61,9.789 4.175,10.233 3.527,10.545 c -1.199,0.638 -2.648,1.024 -4.191,1.032 -1.546,0.059 -3.179,-0.217 -4.93,-0.079 -1.731,0.118 -3.481,0.537 -5.289,0.336 -0.83,0.041 -1.376,-0.909 -1.319,-1.716 0.048,-0.96 0.095,-1.934 0.143,-2.923 0.08,-3.955 -0.469,-8.092 -0.494,-12.36 -0.075,-4.272 0.183,-8.71 0.206,-13.211 0.052,-4.505 0.295,-9.079 -0.028,-13.655 -0.091,-1.148 -0.017,-2.266 0.055,-3.413 0.093,-1.154 -0.049,-2.317 -0.129,-3.431 -0.018,-0.281 -0.05,-0.56 -0.058,-0.842 l 0.028,-0.853 c 0.015,-0.278 0.006,-0.581 0.041,-0.838 0.024,-0.244 0.172,-0.514 0.328,-0.722 0.316,-0.447 0.817,-0.729 1.357,-0.837 0.536,-0.122 1.106,-0.093 1.665,-0.089 2.245,0.04 4.468,0.359 6.58,0.96 1.052,0.314 2.073,0.701 3.045,1.176 0.962,0.493 1.865,1.076 2.684,1.75 0.81,0.686 1.502,1.471 2.1,2.33 0.537,0.899 1.07,1.789 1.597,2.669 0.454,0.919 0.855,1.854 1.278,2.762 0.396,0.92 0.673,1.874 1.009,2.789 0.351,0.909 0.533,1.874 0.803,2.787 0.275,0.921 0.438,1.824 0.621,2.729 0.35,1.802 0.475,3.579 0.492,5.281 0,3.406 -0.655,6.532 -1.747,9.054 -0.132,0.319 -0.261,0.632 -0.389,0.94 -0.17,0.291 -0.337,0.577 -0.501,0.858 -0.337,0.552 -0.634,1.12 -0.97,1.602 -0.682,1.01 -1.246,1.933 -2,2.597 -1.475,1.324 -2.856,2.153 -3.896,2.376 -0.528,0.089 -0.927,0.193 -1.196,0.256 l -0.46,0.108 z m 0.074,-0.005 c 0.063,-0.014 0.179,-0.038 0.358,-0.076 0.27,-0.056 0.671,-0.149 1.202,-0.225 1.079,-0.205 2.489,-1.007 4.018,-2.313 0.394,-0.307 0.723,-0.74 1.084,-1.175 0.316,-0.456 0.647,-0.932 0.991,-1.429 0.358,-0.506 0.648,-1.051 0.995,-1.606 0.167,-0.28 0.337,-0.564 0.509,-0.854 0.134,-0.313 0.271,-0.632 0.41,-0.956 1.145,-2.575 1.831,-5.724 1.868,-9.181 0,-1.726 -0.111,-3.529 -0.447,-5.362 -0.166,-0.912 -0.354,-1.857 -0.637,-2.766 -0.279,-0.915 -0.468,-1.864 -0.832,-2.789 -0.35,-0.926 -0.641,-1.889 -1.051,-2.817 -0.437,-0.915 -0.851,-1.856 -1.319,-2.78 -0.542,-0.885 -1.089,-1.78 -1.642,-2.684 -0.611,-0.864 -1.344,-1.677 -2.18,-2.369 -0.844,-0.68 -1.772,-1.264 -2.755,-1.754 -0.992,-0.472 -2.03,-0.853 -3.096,-1.159 -2.139,-0.592 -4.38,-0.86 -6.635,-0.914 -0.563,-0.009 -1.132,-0.045 -1.705,0.079 -0.567,0.106 -1.123,0.409 -1.469,0.893 -0.178,0.244 -0.325,0.481 -0.372,0.806 -0.04,0.303 -0.031,0.573 -0.049,0.861 l -0.035,0.852 c 0.005,0.286 0.034,0.574 0.05,0.861 0.077,1.16 0.2,2.27 0.101,3.403 -0.082,1.13 -0.166,2.301 -0.084,3.438 0.267,4.564 -0.031,9.14 -0.137,13.637 -0.061,4.505 -0.334,8.922 -0.285,13.227 0.028,1.076 0.056,2.143 0.084,3.2 0.068,1.051 0.135,2.092 0.202,3.122 0.055,1.028 0.111,2.045 0.166,3.05 0.016,1.004 0.033,1.995 0.05,2.974 -0.046,0.975 -0.091,1.937 -0.135,2.885 -0.006,0.166 -0.002,0.25 10e-4,0.382 0.024,0.138 0.04,0.287 0.08,0.415 0.079,0.252 0.184,0.494 0.34,0.71 0.153,0.213 0.336,0.419 0.59,0.548 0.234,0.149 0.567,0.183 0.768,0.191 1.896,0.182 3.684,-0.272 5.364,-0.404 1.676,-0.157 3.328,0.096 4.908,0.018 C 0.937,11.904 2.43,11.493 3.68,10.806 4.294,10.508 4.847,9.974 5.215,9.42 5.557,8.821 5.662,8.156 5.639,7.534 5.517,6.289 4.987,5.26 4.453,4.413 3.909,3.562 3.327,2.873 2.796,2.303 2.53,2.015 2.271,1.768 2.028,1.537 1.77,1.333 1.535,1.147 1.324,0.981 0.624,0.429 0.199,0.093 0.074,-0.005"
             style="fill:#2d2d2d;fill-opacity:1;fill-rule:nonzero;stroke:none"
             id="path210"
             inkscape:connector-curvature="0" /></g><g
           id="g212"
           transform="translate(501.4844,393.6289)"><path
             d="m 0,0 -0.204,5.146 c -0.041,1.711 -0.138,3.424 -0.13,5.134 l -0.07,10.262 -0.046,5.124 c 0.027,1.708 -0.145,3.417 -0.207,5.126 l -0.244,5.138 c -0.006,0.242 0.072,0.528 0.275,0.717 0.197,0.191 0.468,0.265 0.684,0.292 0.435,0.036 0.88,0.144 1.304,0.109 C 2.165,37.115 3.233,36.844 3.82,36.222 4.423,35.607 5.075,35.04 5.635,34.387 6.149,33.698 6.749,33.07 7.191,32.331 8.13,30.87 8.84,29.322 9.378,27.68 c 0.52,-1.641 0.747,-3.362 0.83,-5.077 0.103,-1.72 -0.034,-3.444 -0.258,-5.15 C 9.707,15.748 9.296,14.071 8.796,12.423 8.239,10.795 7.638,9.177 6.844,7.647 6.062,6.114 5.177,4.632 4.094,3.282 3.841,2.931 3.559,2.609 3.269,2.295 2.976,1.987 2.711,1.643 2.365,1.371 1.708,0.8 0.952,0.387 0.25,-0.097 L 0.235,-0.106 0.221,-0.1 Z M 0.05,0.034 0.244,-0.044 0.215,-0.048 C 0.898,0.468 1.637,0.917 2.247,1.5 2.566,1.772 2.812,2.123 3.094,2.448 3.373,2.773 3.648,3.1 3.886,3.451 c 1.031,1.345 1.851,2.852 2.612,4.367 0.768,1.519 1.345,3.125 1.878,4.738 0.476,1.631 0.919,3.276 1.166,4.96 0.262,1.677 0.445,3.377 0.393,5.078 -0.026,1.698 -0.214,3.41 -0.721,5.037 L 9.04,28.239 8.794,28.831 8.292,30.012 C 8.143,30.417 7.919,30.778 7.69,31.137 l -0.665,1.086 c -0.446,0.72 -1.05,1.335 -1.567,2.007 -0.562,0.636 -1.217,1.187 -1.82,1.784 -0.147,0.158 -0.314,0.25 -0.498,0.372 -0.182,0.076 -0.352,0.166 -0.557,0.213 -0.187,0.067 -0.415,0.089 -0.585,0.121 L 1.355,36.717 C 0.92,36.743 0.524,36.625 0.109,36.584 -0.3,36.533 -0.537,36.308 -0.516,35.932 l 0.329,-5.112 c 0.08,-1.71 0.268,-3.411 0.257,-5.127 L 0.11,20.55 C 0.124,18.835 0.14,17.123 0.104,15.413 L 0.027,10.281 C -0.019,8.569 0.04,6.861 0.043,5.151 Z"
             style="fill:#2d2d2d;fill-opacity:1;fill-rule:nonzero;stroke:none"
             id="path214"
             inkscape:connector-curvature="0" /></g><g
           id="g216"
           transform="translate(501.4902,442.0654)"><path
             d="M 0,0 0.755,0.332 C 0.993,0.439 1.307,0.554 1.562,0.562 1.873,0.575 2.133,0.542 2.414,0.468 2.551,0.424 2.689,0.394 2.825,0.336 L 3.229,0.116 C 3.376,0.044 3.443,-0.058 3.554,-0.144 L 3.705,-0.278 C 3.799,-0.365 3.806,-0.401 3.86,-0.466 4.039,-0.694 4.178,-0.96 4.277,-1.24 4.474,-1.808 4.447,-2.445 4.225,-2.992 4.109,-3.291 3.993,-3.491 3.829,-3.746 L 3.35,-4.416 C 3.043,-4.871 2.63,-5.241 2.265,-5.643 1.846,-5.995 1.449,-6.376 1.015,-6.692 L 0.373,-7.18 C 0.168,-7.361 -0.114,-7.472 -0.345,-7.579 l -0.134,-0.063 0.006,0.15 c 0.029,0.623 0.004,1.25 0.01,1.875 -0.004,0.625 0.024,1.249 0.066,1.872 0.09,1.245 0.191,2.49 0.394,3.729 z m 0.048,-0.037 c 0.066,-1.248 0.033,-2.49 -0.011,-3.732 -0.025,-0.624 -0.065,-1.247 -0.138,-1.868 -0.06,-0.622 -0.152,-1.242 -0.192,-1.865 l -0.128,0.087 c 0.256,0.112 0.502,0.172 0.698,0.356 l 0.625,0.51 c 0.416,0.343 0.757,0.754 1.124,1.132 0.308,0.436 0.692,0.807 0.956,1.267 l 0.434,0.66 c 0.121,0.198 0.263,0.475 0.325,0.684 0.155,0.455 0.206,0.951 0.051,1.404 -0.076,0.226 -0.188,0.444 -0.334,0.644 -0.082,0.155 -0.342,0.405 -0.513,0.539 L 2.651,-0.036 C 2.544,0.019 2.42,0.055 2.304,0.102 2.078,0.188 1.795,0.257 1.574,0.27 1.287,0.291 1.086,0.213 0.816,0.156 Z"
             style="fill:#2d2d2d;fill-opacity:1;fill-rule:nonzero;stroke:none"
             id="path218"
             inkscape:connector-curvature="0" /></g><g
           id="g220"
           transform="translate(550.377,424.0664)"><path
             d="m 0,0 c -0.201,0.768 -0.408,1.532 -0.664,2.283 -0.244,0.755 -0.518,1.5 -0.803,2.239 -0.564,1.483 -1.209,2.935 -1.867,4.377 -1.331,2.88 -2.785,5.706 -4.334,8.472 l 0.02,-0.026 c -0.718,0.704 -1.423,1.443 -2.153,2.118 -0.371,0.329 -0.788,0.566 -1.256,0.757 -0.456,0.196 -0.928,0.351 -1.412,0.435 -0.967,0.185 -1.971,0.034 -2.842,-0.423 -0.451,-0.228 -0.891,-0.44 -1.193,-0.799 l -0.96,-1.164 c -0.322,-0.384 -0.634,-0.782 -0.946,-1.179 l -0.469,-0.594 c -0.149,-0.214 -0.341,-0.375 -0.394,-0.578 -0.374,-0.933 -0.77,-1.859 -1.127,-2.798 -0.328,-0.952 -0.684,-1.892 -0.987,-2.851 -0.28,-0.966 -0.593,-1.921 -0.847,-2.894 -1.054,-3.882 -1.71,-7.864 -2.028,-11.874 -0.291,-4.016 -0.478,-8.058 -0.204,-12.065 0.286,-3.99 1.117,-8.015 3.104,-11.498 0.984,-1.726 2.243,-3.332 3.717,-4.636 0.769,-0.665 1.571,-1.196 2.521,-1.476 0.937,-0.275 1.938,-0.33 2.909,-0.189 1.953,0.279 3.762,1.382 4.851,3.046 1.102,1.656 1.625,3.642 1.94,5.613 0.312,1.985 0.401,4.002 0.453,6.017 l 0.069,3.028 0.058,1.516 0.042,0.742 c -0.003,0.099 -0.048,0.238 -0.087,0.263 l -0.32,0.152 c -0.428,0.209 -0.953,0.427 -1.367,0.524 -0.475,10e-4 -0.83,-0.415 -0.803,-0.906 0.017,-0.5 -0.029,-1.015 -0.063,-1.515 -0.033,-0.505 -0.071,-1.009 -0.129,-1.511 -0.204,-2.012 -0.516,-4.014 -0.974,-5.984 -0.463,-1.972 -0.999,-3.916 -1.814,-5.795 -0.259,-0.451 -0.623,-0.847 -1.085,-1.112 -0.111,-0.055 -0.221,-0.126 -0.352,-0.173 -0.064,-0.023 -0.13,-0.044 -0.208,-0.055 -0.082,-0.029 -0.234,0.055 -0.25,0.085 -0.194,0.156 -0.401,0.306 -0.591,0.491 -0.199,0.183 -0.333,0.43 -0.44,0.65 l -0.35,0.675 c -0.242,0.445 -0.448,0.908 -0.656,1.37 -1.67,3.698 -2.624,7.684 -3.134,11.696 -0.506,4.019 -0.596,8.074 -0.607,12.11 -0.036,4.031 -0.05,8.105 0.707,12.113 0.198,0.99 0.417,1.982 0.66,2.961 0.245,0.983 0.522,1.967 0.94,2.906 0.433,0.904 0.985,1.901 1.987,2.337 0.478,0.218 1.015,0.336 1.553,0.259 0.535,-0.059 1.052,-0.44 1.294,-0.901 0.493,-0.876 1.041,-1.728 1.489,-2.644 0.232,-0.451 0.42,-0.939 0.581,-1.411 l 0.408,-1.469 c 0.475,-1.973 0.705,-3.986 0.976,-5.984 0.135,-1.001 0.285,-1.996 0.472,-2.985 0.121,-0.481 0.17,-1.018 0.35,-1.452 0.24,-0.426 0.693,-0.704 1.167,-0.831 0.48,-0.139 0.986,-0.114 1.493,-0.136 0.506,-0.028 1.008,-0.086 1.51,-0.126 0.502,-0.039 1.007,-0.075 1.506,-0.03 0.247,0.026 0.501,0.069 0.71,0.196 C -0.008,-0.507 0.064,-0.244 0,0 M 0.049,0.01 C 0.12,-0.231 0.042,-0.548 -0.198,-0.68 -0.423,-0.817 -0.682,-0.861 -0.933,-0.891 -1.44,-0.94 -1.947,-0.908 -2.451,-0.874 c -0.504,0.037 -1.006,0.091 -1.508,0.115 -0.498,0.018 -1.017,-0.013 -1.515,0.126 -0.493,0.129 -0.974,0.411 -1.24,0.872 -0.207,0.494 -0.244,0.987 -0.375,1.48 -0.197,0.991 -0.356,1.992 -0.5,2.99 -0.289,1.998 -0.537,4.004 -1.025,5.956 l -0.414,1.445 c -0.171,0.48 -0.35,0.936 -0.584,1.381 -0.447,0.896 -1.002,1.739 -1.507,2.617 -0.244,0.428 -0.631,0.69 -1.107,0.756 -0.464,0.063 -0.954,-0.046 -1.388,-0.249 -0.896,-0.396 -1.405,-1.322 -1.815,-2.202 -0.762,-1.833 -1.122,-3.849 -1.52,-5.813 -0.692,-3.953 -0.655,-8.003 -0.669,-12.035 -0.016,-4.034 0.047,-8.069 0.523,-12.07 0.482,-3.993 1.397,-7.955 3.028,-11.638 0.203,-0.46 0.403,-0.92 0.641,-1.364 0.248,-0.428 0.408,-0.949 0.738,-1.272 0.171,-0.17 0.373,-0.319 0.571,-0.48 0.075,-0.058 0.041,-0.04 0.09,-0.039 0.047,0.005 0.103,0.021 0.157,0.041 0.107,0.037 0.212,0.102 0.327,0.159 0.416,0.235 0.765,0.603 1.01,1.024 0.802,1.817 1.367,3.781 1.837,5.731 0.463,1.962 0.749,3.962 0.944,5.967 0.056,0.5 0.091,1.002 0.119,1.506 0.032,0.506 0.075,0.998 0.056,1.508 0.002,0.257 0.062,0.553 0.255,0.766 0.186,0.225 0.463,0.328 0.744,0.341 0.561,-0.12 0.976,-0.313 1.456,-0.533 0.123,-0.059 0.218,-0.095 0.362,-0.173 0.156,-0.144 0.156,-0.281 0.179,-0.426 l -0.037,-0.769 -0.051,-1.51 -0.05,-3.026 c -0.041,-2.019 -0.119,-4.046 -0.416,-6.056 -0.303,-1.997 -0.812,-4.024 -1.943,-5.759 -1.109,-1.734 -3.036,-2.947 -5.077,-3.244 -1.024,-0.159 -2.083,-0.11 -3.087,0.176 -1.003,0.278 -1.922,0.882 -2.679,1.53 -1.56,1.361 -2.817,2.985 -3.838,4.758 -2.038,3.564 -2.882,7.659 -3.177,11.688 -0.281,4.053 -0.096,8.103 0.191,12.135 0.314,4.037 0.972,8.057 2.029,11.97 0.248,0.982 0.587,1.94 0.877,2.91 0.318,0.962 0.688,1.906 1.028,2.86 0.373,0.942 0.781,1.87 1.168,2.805 0.028,0.095 0.148,0.3 0.22,0.368 l 0.237,0.294 0.476,0.589 c 0.316,0.393 0.632,0.786 0.963,1.171 1.041,1.693 3.279,2.898 5.332,2.443 0.51,-0.095 1.001,-0.263 1.47,-0.471 0.465,-0.194 0.931,-0.467 1.314,-0.815 0.743,-0.706 1.426,-1.435 2.143,-2.151 l 0.012,-0.012 0.007,-0.014 C -5.94,14.695 -4.513,11.854 -3.207,8.958 -2.561,7.506 -1.93,6.047 -1.379,4.556 -1.1,3.813 -0.832,3.063 -0.595,2.305 -0.347,1.55 -0.146,0.78 0.049,0.01"
             style="fill:#2d2d2d;fill-opacity:1;fill-rule:nonzero;stroke:none"
             id="path222"
             inkscape:connector-curvature="0" /></g><g
           id="g224"
           transform="translate(464.8701,404.2676)"><path
             d="m 0,0 c 0,0 0.408,-3.147 1.123,-8.657 0.086,-0.69 0.169,-1.418 0.352,-2.144 0.112,-0.354 0.273,-0.739 0.433,-1.077 0.189,-0.338 0.477,-0.64 0.864,-0.697 0.387,-0.079 0.787,0.102 1.221,0.184 0.437,0.1 0.872,0.146 1.32,0.224 0.896,0.143 1.811,0.263 2.734,0.544 0.921,0.273 1.87,0.593 2.849,0.91 0.104,0.043 0.211,0.085 0.271,0.158 0.051,0.028 0.043,0.071 0.064,0.1 0.029,0.019 0.029,0.085 0.02,0.154 -0.006,0.211 -0.128,0.491 -0.187,0.736 -0.173,0.501 -0.241,1.044 -0.339,1.573 -0.355,2.147 -0.639,4.414 -0.978,6.776 C 9.264,3.524 8.702,8.645 8.027,14.05 7.249,19.439 6.203,25.123 5.804,31.077 5.571,34.036 5.344,37.073 4.999,40.09 4.986,40.189 4.979,40.29 4.958,40.309 4.941,40.35 4.886,40.421 4.854,40.447 4.752,40.55 4.59,40.585 4.421,40.659 4.267,40.735 4.08,40.775 3.888,40.808 L 3.639,40.857 3.35,40.862 C 2.58,40.876 1.808,40.89 1.034,40.904 -0.491,40.922 -2.122,40.982 -3.58,40.969 -3.884,40.905 -4.198,40.673 -4.42,40.41 -4.475,40.343 -4.519,40.269 -4.57,40.2 -4.599,40.13 -4.632,40.086 -4.66,40.006 L -4.684,39.861 C -4.689,39.808 -4.69,39.853 -4.692,39.82 l -0.005,-0.075 -0.021,-0.301 c -0.027,-0.401 -0.043,-0.805 -0.139,-1.194 -0.075,-0.393 -0.146,-0.788 -0.271,-1.166 -0.433,-1.535 -1.082,-2.988 -1.707,-4.436 -0.643,-1.44 -1.166,-2.931 -1.723,-4.414 -0.27,-0.743 -0.565,-1.478 -0.816,-2.23 l -0.724,-2.268 -0.712,-2.266 -0.576,-2.309 -0.289,-1.153 c -0.035,-0.185 -0.124,-0.409 -0.243,-0.583 -0.076,-0.085 -0.176,-0.211 -0.26,-0.237 l -0.066,-0.034 c -0.076,-0.031 -0.064,-0.014 -0.1,-0.023 l -0.149,-0.018 -2.375,-0.291 c -0.791,-0.019 -1.58,0.011 -2.369,0.014 -0.206,-0.011 -0.388,0.032 -0.556,-0.015 -0.078,-0.055 -0.183,-0.264 -0.234,-0.432 -0.108,-0.355 -0.18,-0.773 -0.066,-1.073 l 0.675,-0.964 c 0.23,-0.31 0.452,-0.656 0.752,-0.842 0.307,-0.173 0.715,-0.033 1.092,0.033 0.384,0.069 0.779,0.111 1.167,0.163 l 1.171,0.127 c 0.101,0.002 0.214,0 0.323,-0.058 0.125,-0.052 0.162,-0.202 0.169,-0.304 0.002,-0.223 -0.056,-0.407 -0.103,-0.596 -0.195,-0.753 -0.39,-1.504 -0.585,-2.254 -0.401,-1.491 -0.687,-3.01 -1.033,-4.5 -0.684,-2.987 -1.252,-5.954 -1.866,-8.868 -0.316,-1.452 -0.526,-2.908 -0.792,-4.34 -0.245,-1.436 -0.336,-2.888 -0.509,-4.308 -0.044,-0.365 -0.063,-0.678 0.015,-1.013 0.056,-0.339 0.166,-0.593 0.388,-0.901 0.399,-0.434 1.117,-0.733 1.725,-0.814 0.123,-0.022 0.283,0.05 0.421,0.09 0.124,0.069 0.253,0.116 0.386,0.251 0.21,0.207 0.418,0.523 0.626,0.777 0.426,0.516 0.792,1.135 1.152,1.681 0.617,1.084 0.002,2.595 0.37,3.893 0.229,1.303 0.455,2.586 0.677,3.848 0.121,1.28 0.239,2.538 0.355,3.772 0.158,1.228 0.312,2.434 0.463,3.615 0.203,1.187 0.439,2.319 0.65,3.441 0.244,1.117 0.285,2.235 0.542,3.293 0.26,1.065 0.423,2.075 0.743,3.11 0.092,0.264 0.344,0.488 0.606,0.576 0.263,0.086 0.529,0.107 0.775,0.123 0.5,0.024 0.991,0.048 1.475,0.071 0.964,0.025 1.925,0.049 2.82,-0.071 0.219,-0.025 0.437,-0.051 0.652,-0.076 0.218,0.019 0.42,0.08 0.673,0.039 0.239,-0.033 0.466,-0.19 0.573,-0.408 0.12,-0.225 0.111,-0.433 0.141,-0.646 0.176,-1.665 0.338,-3.193 0.485,-4.575 C -0.334,3.157 0,0 0,0 m -0.05,-0.006 c 0,0 -0.364,3.153 -1,8.672 -0.159,1.379 -0.335,2.907 -0.527,4.57 -0.011,0.408 -0.15,0.849 -0.572,0.891 -0.18,0.035 -0.414,-0.025 -0.636,-0.047 -0.225,0.023 -0.452,0.046 -0.681,0.07 -0.899,0.112 -1.82,0.077 -2.787,0.045 C -6.734,14.167 -7.224,14.139 -7.721,14.11 -8.209,14.074 -8.73,14.014 -8.887,13.544 -9.162,12.618 -9.338,11.53 -9.58,10.486 -9.826,9.43 -9.856,8.304 -10.087,7.191 -10.285,6.072 -10.513,4.918 -10.699,3.757 -10.838,2.575 -10.98,1.368 -11.124,0.138 c -0.104,-1.232 -0.209,-2.488 -0.315,-3.765 -0.202,-1.291 -0.435,-2.559 -0.681,-3.86 -0.171,-0.665 -0.137,-1.273 -0.103,-1.955 0.023,-0.667 0.038,-1.423 -0.349,-2.089 -0.393,-0.588 -0.73,-1.157 -1.186,-1.707 -0.232,-0.277 -0.402,-0.553 -0.686,-0.831 -0.114,-0.117 -0.303,-0.219 -0.488,-0.311 -0.192,-0.058 -0.363,-0.141 -0.594,-0.118 -0.425,0.038 -0.698,0.169 -1.068,0.315 -0.343,0.164 -0.642,0.35 -0.933,0.671 -0.197,0.261 -0.389,0.67 -0.437,1.037 -0.086,0.361 -0.057,0.775 -0.012,1.116 0.184,1.421 0.284,2.865 0.54,4.309 0.276,1.44 0.501,2.906 0.83,4.36 0.635,2.905 1.228,5.878 1.935,8.857 0.358,1.49 0.654,3 1.069,4.497 0.201,0.748 0.401,1.498 0.602,2.25 0.106,0.356 0.233,0.847 -0.232,0.767 l -1.155,-0.132 c -0.385,-0.055 -0.769,-0.097 -1.155,-0.168 -0.368,-0.059 -0.791,-0.235 -1.205,-0.024 -0.37,0.231 -0.578,0.579 -0.816,0.889 l -0.684,0.963 c -0.179,0.438 -0.067,0.853 0.035,1.239 0.082,0.193 0.104,0.393 0.358,0.561 0.211,0.06 0.434,0.016 0.619,0.029 0.788,0.001 1.58,-0.024 2.367,0 l 2.334,0.301 c 0.399,-0.008 0.534,0.358 0.63,0.731 l 0.281,1.155 0.563,2.312 0.7,2.28 0.705,2.274 c 0.245,0.755 0.534,1.496 0.799,2.245 0.544,1.491 1.059,2.996 1.693,4.45 0.615,1.459 1.244,2.903 1.652,4.403 0.119,0.372 0.184,0.752 0.252,1.131 0.091,0.378 0.101,0.76 0.124,1.141 l 0.018,0.286 0.004,0.071 c 0,0.017 0.011,0.11 0.012,0.105 l 0.023,0.145 c 0.028,0.106 0.087,0.239 0.14,0.345 0.062,0.09 0.12,0.185 0.188,0.269 0.28,0.327 0.619,0.605 1.08,0.715 0.879,0.06 1.588,-10e-4 2.388,0 0.777,-0.013 1.553,-0.026 2.327,-0.039 0.774,-0.013 1.547,-0.026 2.317,-0.039 L 3.65,41.314 c 0.164,-0.018 0.208,-0.037 0.318,-0.055 0.188,-0.032 0.377,-0.071 0.574,-0.158 0.181,-0.076 0.41,-0.129 0.593,-0.291 0.113,-0.097 0.178,-0.183 0.242,-0.312 0.07,-0.154 0.061,-0.25 0.076,-0.34 C 5.808,37.09 6.034,34.091 6.273,31.117 6.677,25.183 7.726,19.53 8.513,14.125 9.225,8.708 9.717,3.563 10.135,-1.176 c 0.309,-2.355 0.564,-4.621 0.89,-6.76 0.094,-0.538 0.151,-1.063 0.318,-1.567 0.059,-0.268 0.168,-0.477 0.184,-0.788 0.03,-0.094 -0.048,-0.356 -0.161,-0.449 -0.116,-0.126 -0.254,-0.173 -0.388,-0.227 -0.982,-0.303 -1.928,-0.611 -2.864,-0.88 -0.931,-0.274 -1.883,-0.392 -2.771,-0.524 -0.442,-0.072 -0.893,-0.116 -1.305,-0.208 -0.415,-0.069 -0.837,-0.263 -1.295,-0.174 -0.461,0.072 -0.789,0.437 -0.98,0.79 -0.179,0.383 -0.318,0.734 -0.434,1.106 -0.189,0.766 -0.26,1.495 -0.341,2.183 -0.66,5.516 -1.038,8.668 -1.038,8.668"
             style="fill:#2d2d2d;fill-opacity:1;fill-rule:nonzero;stroke:none"
             id="path226"
             inkscape:connector-curvature="0" /></g><g
           id="g228"
           transform="translate(460.9087,436.0781)"><path
             d="m 0,0 c 0,0 0.114,-0.543 0.258,-1.5 0.145,-0.955 0.343,-2.326 0.558,-3.963 0.113,-0.821 0.235,-1.71 0.342,-2.654 0.085,-0.939 0.33,-1.92 0.476,-2.943 0.157,-1.08 0.119,-2.033 0.263,-3.297 -0.284,-0.365 -0.664,-0.325 -0.937,-0.332 -0.282,0.021 -0.539,0.034 -0.816,0.038 -0.55,0.006 -1.105,0.044 -1.654,0.024 l -1.654,-0.031 c -0.273,0.003 -0.548,-0.063 -0.857,0.066 -0.168,0.083 -0.216,0.285 -0.205,0.426 0.001,0.151 0.036,0.283 0.061,0.419 0.23,1.059 0.303,2.145 0.658,3.125 0.289,0.995 0.482,1.955 0.738,2.896 0.209,0.945 0.57,1.761 0.83,2.55 0.285,0.773 0.485,1.51 0.713,2.143 0.217,0.637 0.406,1.193 0.562,1.651 0.17,0.455 0.279,0.814 0.395,1.056 0.139,0.233 0.223,0.336 0.223,0.336 l 0.035,0.043 z M -0.043,-0.092 C -0.076,-0.15 -0.127,-0.237 -0.186,-0.362 -0.27,-0.595 -0.345,-0.978 -0.466,-1.443 -0.59,-1.911 -0.741,-2.479 -0.914,-3.129 -1.092,-3.78 -1.28,-4.513 -1.548,-5.303 c -0.236,-0.79 -0.576,-1.636 -0.81,-2.54 -0.243,-0.89 -0.546,-1.871 -0.889,-2.849 -0.09,-0.243 -0.181,-0.487 -0.272,-0.734 -0.086,-0.242 -0.118,-0.512 -0.177,-0.77 -0.105,-0.522 -0.211,-1.051 -0.318,-1.584 -0.041,-0.246 -0.116,-0.574 0.074,-0.661 0.204,-0.087 0.5,-0.039 0.77,-0.031 l 1.652,0.118 c 0.554,0.048 1.104,0.038 1.655,0.059 0.527,0.03 1.235,-0.066 1.381,0.158 0.045,0.037 -0.102,0.293 -0.163,0.664 l -0.065,0.789 c -0.063,0.541 -0.048,1.045 -0.169,1.554 -0.174,1.022 -0.382,1.998 -0.47,2.951 -0.109,0.943 -0.192,1.837 -0.268,2.662 -0.161,1.655 -0.252,3.03 -0.321,3.996 -0.04,0.749 -0.087,1.243 -0.105,1.429"
             style="fill:#2d2d2d;fill-opacity:1;fill-rule:nonzero;stroke:none"
             id="path230"
             inkscape:connector-curvature="0" /></g></g></g><g
       id="g268"><g
         id="g270"
         clip-path="url(#clipPath274)"><g
           id="g276"
           transform="translate(409.9561,462.3047)"><path
             d="m 0,0 c 0,0 -0.479,0.037 -1.31,0.225 -0.413,0.079 -0.908,0.252 -1.451,0.327 -0.563,0.088 -1.026,-0.038 -1.305,-0.661 -0.294,-0.58 -0.442,-1.339 -0.636,-2.128 -0.176,-0.788 -0.383,-1.625 -0.491,-2.505 -0.108,-0.874 -0.149,-1.815 0.109,-2.703 0.118,-0.445 0.338,-0.86 0.629,-1.201 0.293,-0.349 0.711,-0.525 1.152,-0.723 0.838,-0.324 1.782,-0.333 2.495,0.111 0.718,0.443 1.224,1.185 1.551,1.964 0.664,1.566 0.807,3.233 0.669,4.591 -0.08,0.682 -0.259,1.287 -0.496,1.781 -0.239,0.495 -0.572,0.845 -0.888,1.081 -0.671,0.428 -1.198,0.396 -1.184,0.423 v 0.075 c 0,0 0.122,0.001 0.352,0.004 C -0.573,0.658 -0.231,0.597 0.18,0.417 0.578,0.215 1,-0.158 1.337,-0.681 1.681,-1.2 1.918,-1.866 2.059,-2.603 2.2,-3.34 2.245,-4.157 2.154,-5.01 2.069,-5.862 1.86,-6.758 1.45,-7.615 1.048,-8.464 0.446,-9.324 -0.486,-9.835 c -0.47,-0.242 -1.008,-0.351 -1.531,-0.331 -0.528,0.025 -1.012,0.212 -1.474,0.432 -0.407,0.227 -0.882,0.486 -1.177,0.907 -0.312,0.392 -0.53,0.849 -0.64,1.319 -0.254,0.934 -0.281,1.883 -0.288,2.794 0.019,0.912 0.097,1.791 0.251,2.615 0.163,0.813 0.352,1.595 0.739,2.287 0.173,0.342 0.478,0.684 0.87,0.833 0.392,0.15 0.774,0.088 1.067,0.013 C -2.068,0.875 -1.61,0.676 -1.218,0.525 -0.446,0.22 0.017,0.073 0.018,0.073 Z"
             style="fill:#bcbbbb;fill-opacity:1;fill-rule:nonzero;stroke:none"
             id="path278"
             inkscape:connector-curvature="0" /></g><g
           id="g280"
           transform="translate(414.9209,453.8579)"><path
             d="m 0,0 c 0,0 -0.075,-0.064 -0.209,-0.145 -0.07,-0.039 -0.14,-0.091 -0.258,-0.111 -0.111,-0.025 -0.248,-0.054 -0.389,-0.049 -0.139,0.018 -0.299,0.014 -0.447,0.095 -0.155,0.06 -0.278,0.201 -0.399,0.324 -0.215,0.285 -0.446,0.494 -0.748,0.702 -0.137,0.11 -0.289,0.222 -0.387,0.36 -0.11,0.134 -0.196,0.272 -0.289,0.404 -0.17,0.268 -0.261,0.547 -0.318,0.788 -0.105,0.485 -0.088,0.855 -0.089,0.855 l 0.067,0.035 c -10e-4,0 0.08,-0.049 0.202,-0.149 0.116,-0.103 0.275,-0.258 0.425,-0.458 0.149,-0.202 0.299,-0.439 0.404,-0.717 0.104,-0.278 0.234,-0.549 0.313,-0.872 0.061,-0.144 0.12,-0.304 0.237,-0.403 0.103,-0.116 0.252,-0.174 0.396,-0.202 0.144,-0.03 0.281,-0.028 0.397,-0.045 0.113,-0.03 0.22,-0.059 0.319,-0.085 0.192,-0.052 0.368,-0.119 0.528,-0.16 0.149,-0.047 0.236,-0.093 0.236,-0.093 z"
             style="fill:#bcbbbb;fill-opacity:1;fill-rule:nonzero;stroke:none"
             id="path282"
             inkscape:connector-curvature="0" /></g><g
           id="g284"
           transform="translate(421.0376,468.668)"><path
             d="M 0,0 C 0.148,-1.297 0.259,-2.596 0.351,-3.895 0.52,-5.185 0.636,-6.474 0.773,-7.763 0.842,-8.411 0.91,-9.06 0.954,-9.71 1,-10.361 1.063,-11.01 1.094,-11.661 L 1.11,-15.584 H 0.814 c -0.006,1.197 -0.133,2.417 -0.198,3.633 -0.03,0.61 -0.033,1.223 -0.001,1.841 0.043,0.615 0.122,1.248 0.431,1.845 0.346,0.622 0.921,0.972 1.58,1.175 0.652,0.181 1.35,0.117 1.97,-0.095 0.625,-0.211 1.183,-0.566 1.67,-0.993 0.484,-0.43 0.905,-0.939 1.204,-1.541 0.151,-0.294 0.255,-0.655 0.318,-0.934 0.067,-0.342 0.096,-0.672 0.105,-0.993 0.008,-0.647 -0.063,-1.291 -0.236,-1.91 -0.339,-1.222 -0.98,-2.449 -2.132,-3.181 -0.153,-0.084 -0.283,-0.154 -0.463,-0.238 l -0.427,-0.159 c -0.279,-0.097 -0.634,-0.201 -0.97,-0.217 -0.334,-0.045 -0.723,0.035 -1.041,0.235 -0.297,0.226 -0.511,0.533 -0.611,0.842 -0.227,0.617 -0.291,1.227 -0.368,1.829 -0.079,0.599 -0.165,1.198 -0.383,1.761 l 0.068,0.032 c 0.288,-0.546 0.447,-1.15 0.594,-1.741 0.155,-0.587 0.255,-1.197 0.499,-1.704 0.107,-0.265 0.29,-0.451 0.479,-0.581 0.209,-0.096 0.446,-0.143 0.714,-0.094 0.131,0.002 0.26,0.043 0.39,0.083 0.128,0.034 0.257,0.067 0.401,0.137 l 0.419,0.178 0.336,0.199 c 0.893,0.636 1.445,1.719 1.726,2.819 0.136,0.556 0.216,1.129 0.206,1.696 -0.006,0.288 -0.038,0.562 -0.074,0.82 -0.064,0.315 -0.125,0.542 -0.242,0.794 -0.467,0.987 -1.375,1.833 -2.406,2.24 -0.517,0.204 -1.079,0.28 -1.607,0.16 C 2.273,-7.759 1.696,-8.049 1.433,-8.491 1.14,-8.956 1.019,-9.555 0.942,-10.141 c -0.077,-0.592 -0.089,-1.197 -0.07,-1.8 0.021,-0.604 0.04,-1.211 0.104,-1.815 0.054,-0.605 0.118,-1.209 0.134,-1.828 l -0.296,-0.001 -0.309,3.88 c -0.082,0.646 -0.136,1.293 -0.205,1.939 -0.072,0.646 -0.119,1.293 -0.165,1.942 -0.09,1.305 -0.209,2.608 -0.258,3.912 -0.009,1.302 0.001,2.605 0.048,3.909 z"
             style="fill:#bcbbbb;fill-opacity:1;fill-rule:nonzero;stroke:none"
             id="path286"
             inkscape:connector-curvature="0" /></g><g
           id="g288"
           transform="translate(441.667,461.6289)"><path
             d="m 0,0 c 0,0 -0.073,-0.014 -0.208,-0.039 -0.135,-0.028 -0.341,-0.039 -0.586,-0.098 -0.244,-0.059 -0.538,-0.095 -0.87,-0.198 -0.33,-0.093 -0.702,-0.201 -1.082,-0.366 -0.392,-0.139 -0.78,-0.361 -1.176,-0.603 -0.385,-0.253 -0.808,-0.529 -1.12,-0.943 -0.346,-0.387 -0.567,-0.911 -0.618,-1.462 -0.09,-0.554 0.064,-1.122 0.23,-1.652 0.213,-0.523 0.437,-1.042 0.762,-1.471 0.28,-0.412 0.684,-0.754 1.116,-0.956 0.426,-0.229 0.901,-0.323 1.356,-0.406 0.461,-0.056 0.91,-0.095 1.324,-0.072 0.838,0.046 1.552,0.146 2.025,0.276 0.235,0.06 0.417,0.14 0.483,0.211 0.067,0.058 -0.005,0.122 0.007,0.121 L 1.69,-7.6 C 1.664,-7.603 1.828,-7.644 1.761,-7.848 1.68,-8.011 1.496,-8.132 1.266,-8.267 0.795,-8.512 0.09,-8.782 -0.807,-8.917 -1.26,-8.998 -1.758,-9.019 -2.291,-8.971 c -0.528,0.057 -1.105,0.183 -1.63,0.499 -0.529,0.302 -0.997,0.736 -1.314,1.301 -0.189,0.29 -0.244,0.513 -0.377,0.827 -0.073,0.295 -0.165,0.581 -0.215,0.878 -0.089,0.596 -0.146,1.197 -0.061,1.782 0.064,0.583 0.228,1.156 0.509,1.661 0.268,0.513 0.658,0.944 1.085,1.262 0.435,0.308 0.894,0.525 1.33,0.658 0.434,0.144 0.845,0.225 1.212,0.25 0.362,0.039 0.686,0.045 0.948,0.03 0.515,-0.038 0.803,-0.102 0.803,-0.102 z"
             style="fill:#bcbbbb;fill-opacity:1;fill-rule:nonzero;stroke:none"
             id="path290"
             inkscape:connector-curvature="0" /></g></g></g></g></svg>