<?xml version="1.0" encoding="UTF-8" standalone="no"?>
<!-- Created with Inkscape (http://www.inkscape.org/) -->

<svg
   xmlns:dc="http://purl.org/dc/elements/1.1/"
   xmlns:cc="http://creativecommons.org/ns#"
   xmlns:rdf="http://www.w3.org/1999/02/22-rdf-syntax-ns#"
   xmlns:svg="http://www.w3.org/2000/svg"
   xmlns="http://www.w3.org/2000/svg"
   xmlns:sodipodi="http://sodipodi.sourceforge.net/DTD/sodipodi-0.dtd"
   xmlns:inkscape="http://www.inkscape.org/namespaces/inkscape"
   version="1.1"
   id="svg2"
   xml:space="preserve"
   width="980.44397"
   height="652.79987"
   viewBox="0 0 980.44401 652.79987"
   sodipodi:docname="service.svg"
   inkscape:version="0.92.2 5c3e80d, 2017-08-06"><metadata
     id="metadata8"><rdf:RDF><cc:Work
         rdf:about=""><dc:format>image/svg+xml</dc:format><dc:type
           rdf:resource="http://purl.org/dc/dcmitype/StillImage" /><dc:title></dc:title></cc:Work></rdf:RDF></metadata><defs
     id="defs6"><clipPath
       clipPathUnits="userSpaceOnUse"
       id="clipPath18"><path
         d="M 0,600 H 1000 V 0 H 0 Z"
         id="path16"
         inkscape:connector-curvature="0" /></clipPath><clipPath
       clipPathUnits="userSpaceOnUse"
       id="clipPath86"><path
         d="M 0,600 H 1000 V 0 H 0 Z"
         id="path84"
         inkscape:connector-curvature="0" /></clipPath><clipPath
       clipPathUnits="userSpaceOnUse"
       id="clipPath122"><path
         d="M 0,600 H 1000 V 0 H 0 Z"
         id="path120"
         inkscape:connector-curvature="0" /></clipPath><clipPath
       clipPathUnits="userSpaceOnUse"
       id="clipPath222"><path
         d="M 0,600 H 1000 V 0 H 0 Z"
         id="path220"
         inkscape:connector-curvature="0" /></clipPath></defs><sodipodi:namedview
     pagecolor="#ffffff"
     bordercolor="#666666"
     borderopacity="1"
     objecttolerance="10"
     gridtolerance="10"
     guidetolerance="10"
     inkscape:pageopacity="0"
     inkscape:pageshadow="2"
     inkscape:window-width="1920"
     inkscape:window-height="1029"
     id="namedview4"
     showgrid="false"
     inkscape:zoom="0.66840824"
     inkscape:cx="224.07546"
     inkscape:cy="348.6368"
     inkscape:window-x="0"
     inkscape:window-y="24"
     inkscape:window-maximized="1"
     inkscape:current-layer="g10" /><g
     id="g10"
     inkscape:groupmode="layer"
     inkscape:label="service"
     transform="matrix(1.3333333,0,0,-1.3333333,-171.05053,704.16307)"><g
       id="g12"><g
         id="g14"
         clip-path="url(#clipPath18)"><g
           id="g20"
           transform="translate(480.3662,293.5791)"><path
             d="m 0,0 c 0,0 2.75,3.438 -1.75,3.438 -4.5,0 -36.879,0.937 -36.879,0.937 L -140.75,2.938 -138.917,-0.396 0,0"
             style="fill:#b592ff;fill-opacity:1;fill-rule:nonzero;stroke:none"
             id="path22"
             inkscape:connector-curvature="0" /></g><g
           id="g24"
           transform="translate(441.1162,299.5166)"><path
             d="m 0,0 -9,52.5 c 0,0 -3.5,12 -14,13 -10.5,1 -83.5,-1 -83.5,-1 0,0 -9.5,-8 -4.5,-26 5,-18 10.5,-39 10.5,-39 L -101.5,-3 0.621,-1.562 0,0"
             style="fill:#dac7ff;fill-opacity:1;fill-rule:nonzero;stroke:none"
             id="path26"
             inkscape:connector-curvature="0" /></g><g
           id="g28"
           transform="translate(442.6162,293.0166)"><path
             d="M 0,0 -101.167,0.167 -102.5,4.833 0,5 Z"
             style="fill:#b592ff;fill-opacity:1;fill-rule:nonzero;stroke:none"
             id="path30"
             inkscape:connector-curvature="0" /></g><g
           id="g32"
           transform="translate(370.1162,334.5166)"><path
             d="M 0,0 C 0,0 -4.667,9.333 4,12.667 12.667,16 18.667,6 14.667,0.667 10.667,-4.667 2,-8.667 0,0"
             style="fill:#ffffff;fill-opacity:1;fill-rule:nonzero;stroke:none"
             id="path34"
             inkscape:connector-curvature="0" /></g><g
           id="g36"
           transform="translate(491.3662,295.2666)"><path
             d="m 0,0 -3.75,27 25.25,1.5 -4,-29.25 H 1 L 0,-1 Z"
             style="fill:#f3aaf0;fill-opacity:1;fill-rule:nonzero;stroke:none"
             id="path38"
             inkscape:connector-curvature="0" /></g><g
           id="g40"
           transform="translate(505.8662,323.2666)"><path
             d="M 0,0 -2,-28.5 3,-28.75 7,0.5 Z"
             style="fill:#f8d4f8;fill-opacity:1;fill-rule:nonzero;stroke:none"
             id="path42"
             inkscape:connector-curvature="0" /></g><g
           id="g44"
           transform="translate(625.4502,294.6836)"><path
             d="m 0,0 c 0,0 -8.499,5.333 -0.333,12.5 l -46.334,-0.667 c 0,0 -4.832,-1 -4.666,-7 0,0 -1.166,-5.5 10,-5.5 z"
             style="fill:#f8d4f8;fill-opacity:1;fill-rule:nonzero;stroke:none"
             id="path46"
             inkscape:connector-curvature="0" /></g><g
           id="g48"
           transform="translate(602.7832,323.1831)"><path
             d="m 0,0 c 0,0 -7.999,8.334 2.667,13.667 l -29.084,-0.834 c 0,0 -6.583,-1.833 -5.583,-8.5 1,-6.666 7.333,-4.25 7.333,-4.25 z"
             style="fill:#f8d4f8;fill-opacity:1;fill-rule:nonzero;stroke:none"
             id="path50"
             inkscape:connector-curvature="0" /></g><g
           id="g52"
           transform="translate(621.7832,308.8501)"><path
             d="M 0,0 C 0,0 -12,5 -1,13.333 L -41,14 c 0,0 -6.333,-7.334 -3,-11.667 0,0 3.189,-2.453 5.99,-2.729 0.464,-0.046 0.917,-0.032 1.343,0.063 C -33.667,0.333 0,0 0,0"
             style="fill:#dac7ff;fill-opacity:1;fill-rule:nonzero;stroke:none"
             id="path54"
             inkscape:connector-curvature="0" /></g><path
           d="M 696.294,267.41 H 231.892 v 26 h 464.402 z"
           style="fill:#a567a5;fill-opacity:1;fill-rule:nonzero;stroke:none"
           id="path56"
           inkscape:connector-curvature="0" /><path
           d="M 696.294,285.41 H 231.892 v 8 h 464.402 z"
           style="fill:#b176b2;fill-opacity:1;fill-rule:nonzero;stroke:none"
           id="path58"
           inkscape:connector-curvature="0" /><path
           d="M 696.294,267.41 H 574.627 v 26 h 121.667 z"
           style="fill:#934f92;fill-opacity:1;fill-rule:nonzero;stroke:none"
           id="path60"
           inkscape:connector-curvature="0" /><path
           d="M 696.294,285.41 H 574.627 v 8 h 121.667 z"
           style="fill:#a567a5;fill-opacity:1;fill-rule:nonzero;stroke:none"
           id="path62"
           inkscape:connector-curvature="0" /><path
           d="m 261.892,267.41 h -20 V 163.766 h 20 z"
           style="fill:#a567a5;fill-opacity:1;fill-rule:nonzero;stroke:none"
           id="path64"
           inkscape:connector-curvature="0" /><path
           d="m 686.294,267.41 h -20 V 163.766 h 20 z"
           style="fill:#a567a5;fill-opacity:1;fill-rule:nonzero;stroke:none"
           id="path66"
           inkscape:connector-curvature="0" /><path
           d="m 261.892,267.41 h -20 v -10.978 h 20 z"
           style="fill:#824482;fill-opacity:1;fill-rule:nonzero;stroke:none"
           id="path68"
           inkscape:connector-curvature="0" /><path
           d="m 686.294,267.41 h -20 v -10.978 h 20 z"
           style="fill:#824482;fill-opacity:1;fill-rule:nonzero;stroke:none"
           id="path70"
           inkscape:connector-curvature="0" /><path
           d="m 603.794,267.41 h -20 V 163.766 h 20 z"
           style="fill:#a567a5;fill-opacity:1;fill-rule:nonzero;stroke:none"
           id="path72"
           inkscape:connector-curvature="0" /><path
           d="m 603.794,267.41 h -20 v -10.978 h 20 z"
           style="fill:#824482;fill-opacity:1;fill-rule:nonzero;stroke:none"
           id="path74"
           inkscape:connector-curvature="0" /><path
           d="m 340.559,267.41 h -20 V 163.766 h 20 z"
           style="fill:#934f92;fill-opacity:1;fill-rule:nonzero;stroke:none"
           id="path76"
           inkscape:connector-curvature="0" /><path
           d="m 340.559,267.41 h -20 v -10.978 h 20 z"
           style="fill:#824482;fill-opacity:1;fill-rule:nonzero;stroke:none"
           id="path78"
           inkscape:connector-curvature="0" /></g></g><g
       id="g80"><g
         id="g82"
         clip-path="url(#clipPath86)"><g
           id="g88"
           transform="translate(340.4497,267.1836)"><path
             d="m 0,0 c 0,0 -6.667,-80.666 -2,-104 l 2.667,0.666 z"
             style="fill:#ffffff;fill-opacity:1;fill-rule:evenodd;stroke:none"
             id="path90"
             inkscape:connector-curvature="0" /></g><g
           id="g92"
           transform="translate(242.4497,266.5166)"><path
             d="m 0,0 3.333,-100.667 -4,-1.333 z"
             style="fill:#ffffff;fill-opacity:1;fill-rule:evenodd;stroke:none"
             id="path94"
             inkscape:connector-curvature="0" /></g><g
           id="g96"
           transform="translate(233.1162,288.5166)"><path
             d="M 0,0 462.667,6 -2,5.333 Z"
             style="fill:#ffffff;fill-opacity:1;fill-rule:evenodd;stroke:none"
             id="path98"
             inkscape:connector-curvature="0" /></g><g
           id="g100"
           transform="translate(685.1162,265.8496)"><path
             d="M 0,0 -2,-101.333 H 0.667 Z"
             style="fill:#ffffff;fill-opacity:1;fill-rule:evenodd;stroke:none"
             id="path102"
             inkscape:connector-curvature="0" /></g><g
           id="g104"
           transform="translate(583.1162,267.8496)"><path
             d="M 0,0 4.667,-103.333 0,-104 Z"
             style="fill:#ffffff;fill-opacity:1;fill-rule:evenodd;stroke:none"
             id="path106"
             inkscape:connector-curvature="0" /></g><g
           id="g108"
           transform="translate(366.7827,364.5166)"><path
             d="m 0,0 c 0,0 -31,-0.667 -32.667,-3 -1.666,-2.333 -3.666,-1 -5.666,-15 l -1.334,8.333 C -39.667,-9.667 -50,3.667 0,0"
             style="fill:#ffffff;fill-opacity:1;fill-rule:evenodd;stroke:none"
             id="path110"
             inkscape:connector-curvature="0" /></g></g></g><g
       id="g112"
       transform="translate(574.627,293.46)"><path
         d="m 0,0 121.667,0.134 h 0.184 V -0.05 l 0.028,-26 10e-4,-0.212 h -0.213 l -10,-0.011 0.223,0.223 0.137,-103.643 v -0.36 l -0.36,-0.001 -20,-0.027 -0.388,-0.001 v 0.389 l -0.109,103.643 0.497,-0.497 -62.5,0.009 0.488,0.488 -0.014,-103.643 v -0.474 h -0.474 l -20,0.003 H 8.696 v 0.471 l 0.014,103.643 0.457,-0.457 -243.235,0.193 0.264,0.264 -0.071,-103.643 v -0.195 h -0.193 l -20,0.014 h -0.181 v 0.181 l -0.021,103.643 0.202,-0.201 -58.667,-0.052 0.252,0.253 0.087,-103.643 v -0.339 l -0.339,-10e-4 -20,-0.016 h -0.355 l -0.001,0.356 -0.081,103.643 0.437,-0.436 -10,-0.008 -0.445,-0.001 v 0.445 l 0.017,26 v 0.428 h 0.428 z m 0,-0.1 -342.735,-0.378 0.427,0.428 0.017,-26 -0.444,0.445 10,-0.008 h 0.437 v -0.437 l -0.082,-103.643 -0.355,0.355 20,-0.016 -0.34,-0.339 0.087,103.643 v 0.253 h 0.253 l 58.667,-0.052 h 0.201 v -0.201 l -0.021,-103.643 -0.18,0.18 20,0.014 -0.194,-0.194 -0.071,103.643 v 0.265 h 0.265 l 243.235,0.192 h 0.457 v -0.457 l 0.014,-103.643 -0.471,0.47 20,0.003 -0.474,-0.473 -0.014,103.643 v 0.488 h 0.488 l 62.5,0.009 h 0.497 v -0.497 l -0.109,-103.643 -0.388,0.387 20,-0.027 -0.36,-0.36 0.137,103.643 v 0.224 h 0.223 l 10,-0.012 -0.212,-0.212 0.028,26 0.184,-0.183 z"
         style="fill:#2d2d2d;fill-opacity:1;fill-rule:nonzero;stroke:none"
         id="path114"
         inkscape:connector-curvature="0" /></g><g
       id="g116"><g
         id="g118"
         clip-path="url(#clipPath122)"><g
           id="g124"
           transform="translate(480.3662,298.0039)"><path
             d="M 0,0 C 0.505,-0.026 0.842,-0.456 1.023,-0.861 1.212,-1.279 1.298,-1.75 1.305,-2.196 1.303,-2.659 1.237,-3.117 1.063,-3.547 0.902,-3.957 0.571,-4.411 0.084,-4.477 -0.838,-4.507 -1.727,-4.489 -2.635,-4.498 l -2.709,-0.007 -10.835,-0.031 -21.671,-0.147 0.253,0.303 0.104,-0.561 0.055,-0.306 -0.312,-0.001 -25.292,-0.11 -12.646,-0.055 -12.646,0.001 -50.583,0.099 h -0.387 l -0.092,0.375 -13.647,55.878 -0.01,0.038 0.001,0.026 0.055,2.873 c 0.013,0.478 0.101,0.955 0.147,1.432 l 0.17,1.429 0.322,1.408 c 0.118,0.466 0.189,0.945 0.382,1.391 l 0.502,1.358 c 0.178,0.448 0.442,0.861 0.659,1.292 0.206,0.44 0.492,0.833 0.788,1.219 0.281,0.396 0.569,0.787 0.931,1.116 0.344,0.344 0.67,0.707 1.076,0.98 0.386,0.298 0.769,0.598 1.206,0.817 l 0.634,0.358 0.672,0.283 c 0.441,0.209 0.918,0.314 1.38,0.462 0.947,0.222 1.901,0.361 2.897,0.317 h -0.018 l 24.988,-0.232 24.988,-0.07 24.988,-0.067 3.123,-0.009 0.781,-0.003 c 0.307,-0.002 0.538,-0.057 0.81,-0.084 l 1.575,-0.2 c 2.076,-0.414 4.129,-1.098 5.931,-2.273 1.802,-1.163 3.29,-2.802 4.328,-4.672 1.035,-1.88 1.71,-3.921 1.903,-6.099 l -0.006,0.055 c 0.811,-4.503 1.652,-9.001 2.426,-13.511 l 2.361,-13.524 4.637,-27.062 -0.213,0.179 19.315,-0.119 z m 0,-0.1 -19.314,-0.047 -19.315,-0.12 -0.18,-0.001 -0.033,0.18 -4.984,27.001 -2.449,13.507 c -0.83,4.5 -1.592,9.013 -2.385,13.519 l -0.003,0.017 -0.003,0.04 c -0.162,1.973 -0.797,3.981 -1.762,5.747 -0.969,1.775 -2.356,3.324 -4.051,4.434 -1.694,1.121 -3.647,1.788 -5.643,2.202 l -1.522,0.204 c -0.245,0.026 -0.527,0.085 -0.741,0.085 l -0.781,0.008 -3.123,0.031 -24.987,0.249 -24.987,0.246 -24.988,0.084 -0.018,0.001 c -0.904,0.035 -1.846,-0.102 -2.743,-0.32 -0.44,-0.146 -0.897,-0.246 -1.316,-0.45 l -0.639,-0.273 -0.603,-0.346 c -0.415,-0.21 -0.778,-0.5 -1.142,-0.785 -0.386,-0.26 -0.695,-0.61 -1.019,-0.939 -0.345,-0.314 -0.617,-0.69 -0.883,-1.07 -0.281,-0.371 -0.553,-0.747 -0.747,-1.173 -0.206,-0.416 -0.458,-0.811 -0.627,-1.245 l -0.477,-1.316 c -0.186,-0.431 -0.25,-0.9 -0.363,-1.353 l -0.303,-1.371 -0.153,-1.4 c -0.042,-0.468 -0.124,-0.932 -0.133,-1.402 l -0.031,-2.823 -0.009,0.064 14.02,-55.786 -0.479,0.374 50.583,-0.069 12.646,-0.041 12.646,-0.096 25.291,-0.194 -0.257,-0.306 -0.097,0.563 -0.052,0.305 0.306,-0.002 21.671,-0.146 10.835,-0.032 2.709,-0.007 c 0.899,0.002 1.819,-0.017 2.697,0.004 0.438,0.058 0.719,0.449 0.888,0.849 0.169,0.406 0.236,0.857 0.24,1.296 -0.006,0.455 -0.086,0.89 -0.264,1.297 C 0.754,-0.514 0.436,-0.124 0,-0.1"
             style="fill:#2d2d2d;fill-opacity:1;fill-rule:nonzero;stroke:none"
             id="path126"
             inkscape:connector-curvature="0" /></g><g
           id="g128"
           transform="translate(633.8994,300.6494)"><path
             d="M 0,0 C 0,0 -0.015,0.131 -0.043,0.384 -0.089,0.633 -0.071,1.021 -0.205,1.492 -0.437,2.433 -1.043,3.835 -2.48,4.981 -3.171,5.586 -4.137,5.971 -5.176,6.22 -5.454,6.242 -5.738,6.264 -6.028,6.287 L -6.449,6.321 -6.897,6.311 C -7.501,6.298 -8.126,6.284 -8.771,6.271 -11.354,6.214 -14.268,6.15 -17.445,6.08 -20.624,6.032 -24.067,5.979 -27.709,5.987 -31.351,5.984 -35.191,5.981 -39.164,5.979 c -3.973,0.025 -8.078,0.051 -12.25,0.077 l -1.567,0.017 c -0.53,0.014 -1.05,0.013 -1.527,-0.05 -0.994,-0.036 -1.918,-0.461 -2.78,-0.943 -0.784,-0.597 -1.563,-1.277 -2.005,-2.19 -0.289,-0.426 -0.406,-0.902 -0.567,-1.369 -0.163,-0.466 -0.152,-1.035 -0.236,-1.548 -0.008,-1.984 1.029,-4.025 2.702,-5.208 0.896,-0.515 1.794,-0.96 2.86,-1.023 0.254,-0.022 0.539,-0.066 0.766,-0.071 l 0.787,-0.005 1.567,-0.008 c 4.171,0.012 8.276,0.033 12.25,0.115 3.973,0.057 7.812,0.16 11.455,0.158 3.642,0.041 7.085,0 10.263,-0.036 3.178,-0.064 6.092,-0.123 8.675,-0.174 1.292,-0.03 2.504,-0.084 3.583,0.05 1.058,0.25 2.02,0.638 2.711,1.244 1.438,1.147 2.042,2.553 2.273,3.487 0.134,0.472 0.116,0.866 0.162,1.116 C -0.015,-0.126 0,0.005 0,0.005 Z m 0.1,-0.005 c 0,0 -0.013,-0.132 -0.037,-0.388 -0.042,-0.253 -0.018,-0.639 -0.146,-1.123 -0.222,-0.97 -0.814,-2.412 -2.276,-3.618 -0.708,-0.625 -1.681,-1.054 -2.775,-1.37 -1.14,-0.189 -2.348,-0.182 -3.637,-0.209 -2.583,-0.052 -5.497,-0.11 -8.675,-0.174 -3.178,-0.036 -6.621,-0.077 -10.263,-0.036 -3.643,-0.002 -7.482,0.101 -11.455,0.157 -3.974,0.082 -8.079,0.104 -12.25,0.116 l -1.567,-0.008 -0.787,-0.005 c -0.295,0.006 -0.531,0.045 -0.8,0.065 -1.05,0.044 -2.117,0.518 -3.035,1.053 -1.802,1.226 -2.993,3.299 -3.038,5.573 0.071,0.532 0.034,1.048 0.191,1.592 0.156,0.543 0.29,1.105 0.585,1.575 0.463,1.023 1.291,1.815 2.158,2.506 0.95,0.568 1.992,1.062 3.114,1.132 0.566,0.082 1.093,0.09 1.612,0.087 l 1.567,0.017 c 4.172,0.026 8.277,0.052 12.25,0.078 3.973,-0.003 7.813,-0.006 11.455,-0.009 3.642,0.009 7.085,-0.045 10.264,-0.093 3.177,-0.07 6.091,-0.134 8.674,-0.19 0.645,-0.014 1.27,-0.028 1.874,-0.041 l 0.448,-0.01 0.454,-0.054 C -5.706,6.583 -5.424,6.548 -5.146,6.514 -4.033,6.197 -3.063,5.764 -2.354,5.138 -0.894,3.93 -0.303,2.485 -0.082,1.521 0.046,1.039 0.022,0.644 0.064,0.39 0.088,0.133 0.1,0 0.1,0 Z"
             style="fill:#2d2d2d;fill-opacity:1;fill-rule:nonzero;stroke:none"
             id="path130"
             inkscape:connector-curvature="0" /></g><g
           id="g132"
           transform="translate(630.002,315.2666)"><path
             d="m 0,0 c 0,0 -0.052,0.47 -0.149,1.351 -0.264,0.826 -0.601,2.153 -1.805,3.321 -0.292,0.287 -0.649,0.538 -0.994,0.83 -0.386,0.234 -0.82,0.436 -1.255,0.656 -0.48,0.109 -0.933,0.319 -1.472,0.366 -0.27,0.021 -0.546,0.042 -0.826,0.063 l -0.211,0.017 c -0.026,0 -0.093,0.008 -0.085,0.004 L -6.904,6.605 -7.337,6.595 c -2.324,-0.056 -4.946,-0.12 -7.807,-0.19 -2.86,-0.048 -5.96,-0.102 -9.237,-0.093 -3.278,-0.003 -6.734,-0.006 -10.31,-0.009 -3.576,0.026 -7.271,0.051 -11.026,0.078 l -0.703,0.006 -0.659,-0.06 C -47.298,6.303 -47.521,6.299 -47.738,6.261 L -48.376,6.07 C -48.584,5.996 -48.812,5.968 -49.007,5.859 L -49.598,5.546 C -50.017,5.372 -50.337,5.05 -50.692,4.777 l -0.265,-0.21 -0.22,-0.255 -0.44,-0.514 c -0.298,-0.34 -0.464,-0.772 -0.707,-1.154 -0.187,-0.406 -0.289,-0.836 -0.447,-1.256 -0.075,-0.451 -0.12,-0.972 -0.177,-1.388 -0.037,-1.839 0.764,-3.673 2.13,-4.917 0.36,-0.287 0.687,-0.625 1.114,-0.813 l 0.605,-0.334 c 0.202,-0.116 0.43,-0.149 0.643,-0.229 l 0.649,-0.208 c 0.227,-0.046 0.467,-0.056 0.7,-0.085 l 0.702,-0.075 0.688,-0.006 c 3.755,0.011 7.45,0.033 11.026,0.115 3.576,0.056 7.032,0.159 10.31,0.158 3.277,0.04 6.377,-10e-4 9.237,-0.036 2.861,-0.064 5.483,-0.123 7.807,-0.175 0.59,-0.039 1.121,0.039 1.652,0.071 0.528,0.044 1.004,0.257 1.485,0.368 0.436,0.221 0.87,0.423 1.256,0.658 0.345,0.292 0.703,0.544 0.995,0.831 1.204,1.172 1.537,2.499 1.8,3.32 C -0.052,-0.469 0,0.005 0,0.005 Z m 0.1,-0.005 c 0,0 -0.044,-0.475 -0.126,-1.365 -0.252,-0.85 -0.575,-2.215 -1.787,-3.438 -0.295,-0.3 -0.658,-0.567 -1.01,-0.874 -0.385,-0.26 -0.823,-0.491 -1.27,-0.741 -0.49,-0.141 -0.983,-0.386 -1.534,-0.46 -0.55,-0.062 -1.135,-0.167 -1.71,-0.155 -2.324,-0.052 -4.946,-0.11 -7.807,-0.174 -2.86,-0.036 -5.96,-0.077 -9.237,-0.037 -3.278,-0.001 -6.734,0.102 -10.31,0.159 -3.576,0.082 -7.271,0.103 -11.026,0.114 l -0.721,-0.001 -0.702,0.067 c -0.234,0.027 -0.469,0.034 -0.704,0.077 l -0.703,0.211 c -0.23,0.082 -0.481,0.121 -0.693,0.239 l -0.643,0.343 c -0.451,0.197 -0.802,0.545 -1.184,0.846 -1.48,1.268 -2.409,3.201 -2.428,5.194 0.046,0.531 0.069,0.964 0.129,1.454 0.147,0.482 0.256,0.992 0.45,1.454 0.246,0.431 0.421,0.913 0.734,1.302 l 0.468,0.587 0.236,0.292 0.285,0.244 c 0.387,0.317 0.744,0.679 1.204,0.89 l 0.657,0.365 c 0.218,0.125 0.471,0.169 0.704,0.257 l 0.717,0.229 c 0.243,0.05 0.495,0.064 0.742,0.096 l 0.746,0.081 0.706,0.011 c 3.755,0.026 7.45,0.052 11.026,0.077 3.576,-0.003 7.032,-0.005 10.31,-0.008 3.277,0.008 6.377,-0.045 9.237,-0.093 2.861,-0.07 5.483,-0.134 7.807,-0.191 l 0.433,-0.01 0.107,-0.002 C -6.719,7.033 -6.715,7.026 -6.67,7.022 L -6.46,6.997 C -6.181,6.961 -5.906,6.927 -5.637,6.894 -5.098,6.822 -4.581,6.575 -4.09,6.431 -3.642,6.18 -3.204,5.949 -2.819,5.688 -2.466,5.38 -2.104,5.113 -1.81,4.812 -0.596,3.586 -0.276,2.222 -0.025,1.376 0.056,0.479 0.1,0 0.1,0 Z"
             style="fill:#2d2d2d;fill-opacity:1;fill-rule:nonzero;stroke:none"
             id="path134"
             inkscape:connector-curvature="0" /></g><g
           id="g136"
           transform="translate(613.7598,329.5591)"><path
             d="M 0,0 C 0,0 -0.045,0.395 -0.128,1.135 -0.153,1.508 -0.359,1.932 -0.505,2.448 -0.568,2.711 -0.759,2.943 -0.894,3.219 -1.047,3.486 -1.183,3.788 -1.429,4.036 -2.227,5.143 -3.719,6.202 -5.566,6.473 -6.042,6.495 -6.582,6.573 -7.049,6.55 -7.567,6.534 -8.101,6.517 -8.648,6.5 -9.744,6.47 -10.896,6.438 -12.098,6.405 -14.502,6.357 -17.106,6.303 -19.86,6.312 c -2.755,-0.001 -5.66,-0.036 -8.664,-0.009 -1.502,0.012 -3.03,0.024 -4.577,0.037 -0.772,0.006 -1.55,0.012 -2.332,0.018 l -1.175,0.009 -1.103,-0.094 C -40.66,5.851 -43.137,3.142 -43.203,0 c -0.009,-1.543 0.527,-3.085 1.517,-4.28 0.997,-1.19 2.412,-2.001 3.918,-2.274 0.385,-0.04 0.799,-0.091 1.16,-0.113 l 1.175,0.011 c 0.782,0.007 1.56,0.014 2.332,0.021 1.547,0.004 3.075,0.052 4.577,0.083 3.004,0.056 5.909,0.159 8.664,0.158 2.754,0.04 5.358,-10e-4 7.762,-0.036 1.202,-0.007 2.354,-0.057 3.45,-0.085 0.547,-0.016 1.081,-0.031 1.599,-0.047 0.521,-0.018 0.988,0.057 1.466,0.078 1.884,0.276 3.356,1.334 4.159,2.444 0.246,0.249 0.382,0.552 0.534,0.819 0.135,0.275 0.326,0.509 0.389,0.771 0.143,0.515 0.349,0.932 0.374,1.31 C -0.044,-0.393 0,0.005 0,0.005 Z m 0.1,-0.005 c 0,0 -0.037,-0.399 -0.105,-1.147 -0.016,-0.376 -0.216,-0.818 -0.355,-1.351 -0.062,-0.273 -0.248,-0.513 -0.381,-0.799 -0.152,-0.278 -0.285,-0.591 -0.532,-0.851 -0.823,-1.131 -2.23,-2.358 -4.232,-2.758 -0.494,-0.052 -1.025,-0.159 -1.544,-0.17 -0.518,-0.015 -1.052,-0.031 -1.599,-0.047 -1.096,-0.028 -2.248,-0.078 -3.45,-0.084 -2.404,-0.036 -5.008,-0.077 -7.762,-0.037 -2.755,-0.001 -5.66,0.102 -8.664,0.159 -1.502,0.031 -3.03,0.078 -4.577,0.083 -0.772,0.007 -1.55,0.014 -2.332,0.021 l -1.175,0.01 -1.191,0.115 c -3.238,0.484 -5.895,3.476 -5.951,6.861 -0.022,1.617 0.567,3.372 1.638,4.643 1.069,1.296 2.605,2.193 4.256,2.499 0.416,0.047 0.836,0.101 1.248,0.133 l 1.175,0.01 c 0.782,0.006 1.56,0.012 2.332,0.018 1.547,0.012 3.075,0.024 4.577,0.036 3.004,0.028 5.909,-0.007 8.664,-0.008 2.754,0.008 5.358,-0.045 7.762,-0.093 1.202,-0.033 2.354,-0.065 3.45,-0.095 0.547,-0.018 1.081,-0.034 1.599,-0.05 0.572,-0.016 1.03,-0.12 1.528,-0.171 2.038,-0.405 3.425,-1.63 4.252,-2.765 0.247,-0.261 0.38,-0.575 0.532,-0.852 0.133,-0.286 0.319,-0.528 0.38,-0.8 C -0.22,1.973 -0.021,1.538 -0.003,1.157 0.063,0.402 0.1,0 0.1,0 Z"
             style="fill:#2d2d2d;fill-opacity:1;fill-rule:nonzero;stroke:none"
             id="path138"
             inkscape:connector-curvature="0" /></g><g
           id="g140"
           transform="translate(517.7568,320.0825)"><path
             d="M 0,0 V -0.001 C 0.19,-0.322 0.44,-0.616 0.531,-0.987 0.691,-1.333 0.7,-1.72 0.745,-2.099 0.707,-2.458 0.687,-2.849 0.587,-3.204 L 0.339,-4.284 C 0.192,-5.007 -0.035,-5.717 -0.22,-6.439 -0.318,-6.798 -0.47,-7.14 -0.593,-7.492 -0.719,-7.844 -0.85,-8.194 -1.025,-8.524 l -0.493,-1.009 -0.586,-0.959 c -0.184,-0.328 -0.414,-0.626 -0.64,-0.925 -0.233,-0.294 -0.434,-0.617 -0.694,-0.889 l -0.761,-0.837 c -0.251,-0.282 -0.55,-0.514 -0.824,-0.775 -0.279,-0.256 -0.557,-0.513 -0.87,-0.728 l -0.919,-0.668 0.191,0.295 c -0.239,-1.949 -0.454,-3.901 -0.713,-5.848 l -0.782,-5.839 -0.06,-0.445 -0.454,-0.003 c -3.098,-0.019 -6.195,-0.01 -9.293,0.022 l -9.294,0.081 -0.366,0.003 -0.046,0.356 c -0.644,5.077 -1.189,10.168 -1.843,15.244 -0.329,2.537 -0.655,5.075 -1.037,7.606 -0.354,2.534 -0.758,5.061 -1.158,7.589 l -0.052,0.329 0.344,0.006 c 2.242,0.04 4.484,0.101 6.726,0.122 2.242,0.002 4.484,0.055 6.726,0.015 2.241,-0.032 4.484,-0.036 6.726,-0.111 L -4.472,3.935 -4.3,3.93 -4.326,3.767 C -4.463,2.919 -4.606,2.072 -4.725,1.221 L -4.82,1.332 -3.528,1.32 c 0.431,-0.012 0.858,0.016 1.299,-0.059 0.22,-0.014 0.435,-0.055 0.638,-0.147 0.203,-0.082 0.423,-0.128 0.6,-0.268 0.179,-0.128 0.388,-0.224 0.538,-0.379 L -0.004,0.003 Z M -0.074,-0.067 -0.533,0.389 C -0.686,0.541 -0.884,0.62 -1.055,0.74 -1.223,0.87 -1.437,0.911 -1.633,0.985 -1.829,1.07 -2.035,1.105 -2.248,1.115 -2.661,1.18 -3.1,1.146 -3.528,1.149 L -4.82,1.137 -4.932,1.136 -4.916,1.248 c 0.114,0.851 0.203,1.705 0.299,2.559 L -4.472,3.64 -11.197,3.466 c -2.242,-0.075 -4.485,-0.079 -6.726,-0.111 -2.242,-0.04 -4.484,0.013 -6.726,0.015 -2.242,0.021 -4.484,0.082 -6.726,0.122 l 0.292,0.335 c 0.293,-2.543 0.583,-5.086 0.921,-7.622 0.311,-2.54 0.678,-5.072 1.042,-7.605 0.732,-5.065 1.574,-10.115 2.315,-15.179 l -0.412,0.36 9.294,0.081 c 3.098,0.031 6.195,0.041 9.293,0.021 l -0.514,-0.448 0.814,5.834 c 0.272,1.945 0.59,3.883 0.883,5.825 l 0.027,0.179 0.163,0.116 c 0.584,0.419 1.218,0.776 1.761,1.254 0.274,0.233 0.576,0.44 0.83,0.696 l 0.776,0.762 c 0.266,0.248 0.475,0.546 0.716,0.818 0.236,0.277 0.476,0.552 0.669,0.86 l 0.618,0.902 0.531,0.958 c 0.188,0.315 0.334,0.65 0.474,0.987 0.138,0.339 0.306,0.668 0.421,1.016 0.227,0.696 0.443,1.398 0.613,2.119 l 0.271,1.074 c 0.107,0.356 0.129,0.711 0.177,1.082 -0.04,0.354 -0.037,0.717 -0.185,1.055 -0.079,0.361 -0.316,0.648 -0.493,0.966 z"
             style="fill:#2d2d2d;fill-opacity:1;fill-rule:nonzero;stroke:none"
             id="path142"
             inkscape:connector-curvature="0" /></g><g
           id="g144"
           transform="translate(516.8008,317.5874)"><path
             d="M 0,0 C 0.029,0.227 0.053,0.452 0.005,0.675 0.004,0.791 -0.057,0.888 -0.094,0.99 -0.123,1.092 -0.186,1.188 -0.258,1.283 -0.332,1.389 -0.379,1.469 -0.474,1.53 -0.564,1.593 -0.631,1.683 -0.734,1.722 -0.924,1.836 -1.119,1.885 -1.3,1.924 -1.409,1.932 -1.532,1.93 -1.648,1.932 -1.706,1.933 -1.866,1.911 -1.97,1.902 L -2.671,1.828 C -3.139,1.782 -3.606,1.741 -4.074,1.722 l 0.471,0.412 C -3.7,1.077 -3.824,0.024 -3.978,-1.024 c -0.153,-1.049 -0.337,-2.094 -0.504,-3.141 -0.359,-2.09 -0.711,-4.182 -1.165,-6.259 l -0.241,0.139 c 0.332,0.391 0.719,0.71 1.032,1.105 l 0.493,0.562 c 0.17,0.18 0.308,0.39 0.464,0.582 0.311,0.386 0.597,0.788 0.866,1.203 0.298,0.394 0.512,0.842 0.774,1.26 0.126,0.212 0.23,0.437 0.347,0.655 0.108,0.22 0.257,0.428 0.348,0.654 0.204,0.446 0.464,0.868 0.634,1.359 C -0.532,-1.96 -0.239,-0.994 0,0 m 0.098,-0.023 c -0.116,-0.496 -0.225,-0.993 -0.31,-1.496 -0.073,-0.504 -0.16,-1.023 -0.259,-1.518 -0.072,-0.502 -0.241,-1.008 -0.381,-1.519 -0.073,-0.257 -0.186,-0.489 -0.286,-0.733 -0.11,-0.237 -0.209,-0.482 -0.33,-0.713 -0.281,-0.443 -0.508,-0.921 -0.834,-1.333 -0.31,-0.423 -0.62,-0.846 -0.993,-1.217 -0.184,-0.186 -0.341,-0.396 -0.546,-0.561 l -0.59,-0.514 c -0.401,-0.331 -0.84,-0.616 -1.273,-0.895 l -0.258,-0.167 0.018,0.306 c 0.12,2.123 0.341,4.232 0.556,6.342 0.12,1.054 0.223,2.109 0.356,3.161 0.134,1.051 0.297,2.099 0.486,3.143 L -4.468,2.69 -4.074,2.674 C -3.606,2.655 -3.139,2.615 -2.671,2.568 L -1.97,2.495 C -1.84,2.478 -1.765,2.48 -1.59,2.448 L -1.243,2.37 c 0.27,-0.097 0.506,-0.223 0.695,-0.393 0.107,-0.07 0.171,-0.188 0.256,-0.279 0.087,-0.091 0.155,-0.216 0.203,-0.31 C -0.029,1.289 0.024,1.183 0.052,1.055 0.081,0.933 0.135,0.817 0.134,0.695 0.174,0.453 0.139,0.214 0.098,-0.023"
             style="fill:#2d2d2d;fill-opacity:1;fill-rule:nonzero;stroke:none"
             id="path146"
             inkscape:connector-curvature="0" /></g><g
           id="g148"
           transform="translate(738.748,200.4326)"><path
             d="m 0,0 c 0,0 -0.053,0.653 -0.101,1.795 -0.03,0.571 -0.029,1.264 -0.048,2.059 -0.045,0.792 0.021,1.692 0.1,2.675 0.091,0.981 0.153,2.051 0.32,3.167 0.205,1.109 0.488,2.267 0.749,3.464 0.295,1.192 0.67,2.403 0.94,3.659 0.118,0.634 0.318,1.251 0.489,1.879 l 0.478,1.903 c 0.347,1.261 0.75,2.512 1.18,3.731 0.493,1.194 0.93,2.394 1.483,3.498 0.271,0.565 0.501,1.092 0.82,1.647 0.295,0.508 0.594,1 0.889,1.476 0.593,0.952 1.119,1.862 1.711,2.657 0.612,0.786 1.168,1.508 1.682,2.125 0.489,0.639 1.02,1.106 1.414,1.522 0.406,0.406 0.726,0.722 0.97,0.915 0.237,0.196 0.364,0.301 0.364,0.301 l 0.067,-0.075 c 0,0 -0.104,-0.126 -0.297,-0.362 C 13.007,37.812 12.738,37.453 12.404,36.992 12.085,36.521 11.605,36.024 11.207,35.343 10.788,34.676 10.291,33.949 9.754,33.154 9.236,32.344 8.768,31.378 8.195,30.421 7.92,29.934 7.633,29.436 7.329,28.933 7.059,28.472 6.805,27.896 6.521,27.374 5.933,26.315 5.47,25.151 4.924,24.002 4.656,23.425 4.437,22.821 4.189,22.226 3.946,21.629 3.665,21.041 3.447,20.431 3.024,19.206 2.563,17.985 2.26,16.743 1.973,15.497 1.69,14.269 1.549,13.058 1.408,11.847 1.303,10.676 1.139,9.576 1.018,8.475 0.903,7.432 0.798,6.47 0.668,5.511 0.557,4.627 0.504,3.831 0.432,3.04 0.388,2.349 0.319,1.781 0.195,0.645 0.1,-0.004 0.1,-0.004 Z"
             style="fill:#2d2d2d;fill-opacity:1;fill-rule:nonzero;stroke:none"
             id="path150"
             inkscape:connector-curvature="0" /></g><g
           id="g152"
           transform="translate(725.4775,251.6162)"><path
             d="m 0,0 c 0,0 0.157,-0.138 0.453,-0.396 0.291,-0.264 0.723,-0.637 1.229,-1.178 0.53,-0.52 1.088,-1.219 1.736,-2.017 0.303,-0.415 0.625,-0.856 0.965,-1.322 0.309,-0.486 0.636,-0.997 0.975,-1.53 0.308,-0.552 0.628,-1.126 0.96,-1.721 0.293,-0.614 0.629,-1.234 0.905,-1.903 0.57,-1.329 1.081,-2.766 1.552,-4.264 0.461,-1.498 0.937,-3.047 1.42,-4.62 0.474,-1.574 0.95,-3.178 1.393,-4.792 0.454,-1.611 0.834,-3.243 1.164,-4.858 0.343,-1.636 0.553,-3.217 0.825,-4.763 0.171,-1.565 0.368,-3.083 0.45,-4.521 0.093,-1.436 0.161,-2.796 0.171,-4.052 0.034,-1.254 0.039,-2.405 0,-3.425 -0.019,-1.019 -0.052,-1.908 -0.101,-2.638 -0.087,-1.463 -0.183,-2.29 -0.183,-2.29 l -0.1,-0.002 c 0,0 -0.038,0.835 -0.104,2.294 -0.039,0.728 -0.086,1.611 -0.141,2.625 -0.066,1.011 -0.141,2.152 -0.223,3.396 -0.067,1.246 -0.238,2.585 -0.344,4.008 -0.13,1.42 -0.32,2.902 -0.471,4.447 -0.223,1.54 -0.397,3.169 -0.678,4.755 -0.258,1.617 -0.552,3.251 -0.854,4.888 -0.309,1.634 -0.658,3.264 -1.115,4.837 -0.426,1.582 -0.961,3.107 -1.577,4.539 -0.588,1.443 -1.251,2.795 -1.867,4.075 -0.623,1.277 -1.228,2.472 -1.822,3.559 -0.309,0.535 -0.606,1.048 -0.889,1.536 -0.3,0.478 -0.584,0.931 -0.852,1.356 -0.562,0.835 -1.07,1.552 -1.515,2.12 -0.419,0.588 -0.806,1.018 -1.055,1.32 -0.247,0.305 -0.379,0.467 -0.379,0.467 z"
             style="fill:#2d2d2d;fill-opacity:1;fill-rule:nonzero;stroke:none"
             id="path154"
             inkscape:connector-curvature="0" /></g><g
           id="g156"
           transform="translate(752.5879,243.0752)"><path
             d="m 0,0 c 0,9.033 8.643,5.887 2.655,-0.967 5.988,6.854 10.585,-1.109 1.413,-2.446 9.172,1.337 7.577,-7.72 -0.492,-2.782 8.069,-4.938 1.023,-10.85 -2.163,-1.816 3.186,-9.034 -6.01,-9.034 -2.825,0 -3.185,-9.034 -10.231,-3.122 -2.163,1.816 -8.068,-4.938 -9.663,4.119 -0.492,2.782 -9.171,1.337 -4.574,9.3 1.413,2.446 C -8.641,5.887 0,9.033 0,0"
             style="fill:#f8d4f8;fill-opacity:1;fill-rule:nonzero;stroke:none"
             id="path158"
             inkscape:connector-curvature="0" /></g><g
           id="g160"
           transform="translate(755.1338,238.4687)"><path
             d="m 0,0 c 0,-1.405 -1.14,-2.545 -2.546,-2.545 -1.403,0 -2.543,1.14 -2.543,2.545 0,1.403 1.14,2.544 2.543,2.544 C -1.14,2.544 0,1.403 0,0"
             style="fill:#f8d4f8;fill-opacity:1;fill-rule:nonzero;stroke:none"
             id="path162"
             inkscape:connector-curvature="0" /></g><g
           id="g164"
           transform="translate(724.2178,255.7979)"><path
             d="m 0,0 c 0,9.032 8.642,5.887 2.655,-0.968 5.987,6.855 10.584,-1.109 1.413,-2.446 9.171,1.337 7.576,-7.72 -0.492,-2.782 8.068,-4.938 1.022,-10.848 -2.163,-1.816 3.185,-9.032 -6.011,-9.032 -2.825,0 -3.186,-9.032 -10.232,-3.122 -2.163,1.816 -8.069,-4.938 -9.664,4.119 -0.492,2.782 -9.172,1.337 -4.575,9.301 1.413,2.446 C -8.642,5.887 0,9.032 0,0"
             style="fill:#f8d4f8;fill-opacity:1;fill-rule:nonzero;stroke:none"
             id="path166"
             inkscape:connector-curvature="0" /></g><g
           id="g168"
           transform="translate(726.7617,251.1904)"><path
             d="m 0,0 c 0,-1.405 -1.14,-2.543 -2.544,-2.543 -1.405,0 -2.545,1.138 -2.545,2.543 0,1.405 1.14,2.543 2.545,2.543 C -1.14,2.543 0,1.405 0,0"
             style="fill:#f8d4f8;fill-opacity:1;fill-rule:nonzero;stroke:none"
             id="path170"
             inkscape:connector-curvature="0" /></g><g
           id="g172"
           transform="translate(752.5752,243.0752)"><path
             d="M 0,0 C -0.016,0.624 -0.043,1.25 -0.155,1.864 -0.253,2.48 -0.423,3.087 -0.686,3.65 -0.812,3.934 -0.968,4.207 -1.157,4.451 -1.336,4.705 -1.562,4.92 -1.805,5.11 -2.06,5.279 -2.332,5.438 -2.638,5.489 -2.937,5.548 -3.251,5.537 -3.539,5.436 -3.824,5.326 -4.072,5.135 -4.26,4.896 -4.457,4.66 -4.557,4.361 -4.635,4.068 -4.69,3.768 -4.718,3.458 -4.681,3.151 -4.659,2.845 -4.593,2.539 -4.498,2.246 -4.316,1.655 -4.042,1.092 -3.705,0.57 c 0.324,-0.53 0.718,-1.013 1.119,-1.488 l -0.111,-0.097 c -0.426,0.462 -0.861,0.919 -1.352,1.31 -0.48,0.401 -1.01,0.748 -1.577,1.002 -0.282,0.13 -0.577,0.236 -0.879,0.298 -0.3,0.076 -0.61,0.092 -0.915,0.081 -0.604,-0.036 -1.207,-0.319 -1.513,-0.834 -0.301,-0.52 -0.239,-1.182 0.061,-1.704 0.155,-0.259 0.338,-0.508 0.568,-0.711 0.219,-0.214 0.468,-0.402 0.734,-0.559 0.527,-0.324 1.104,-0.57 1.703,-0.748 0.594,-0.193 1.212,-0.308 1.83,-0.41 l -0.035,-0.245 c -0.633,0.078 -1.269,0.146 -1.905,0.128 -0.634,-0.002 -1.27,-0.078 -1.877,-0.247 -0.303,-0.08 -0.602,-0.189 -0.876,-0.334 -0.285,-0.133 -0.539,-0.317 -0.769,-0.521 -0.452,-0.41 -0.75,-1.013 -0.656,-1.609 0.099,-0.594 0.588,-1.063 1.167,-1.26 0.29,-0.1 0.595,-0.167 0.909,-0.173 0.31,-0.019 0.627,-0.002 0.937,0.05 1.252,0.189 2.427,0.754 3.518,1.405 l 0.122,-0.199 c -1.092,-0.685 -2.144,-1.488 -2.889,-2.537 -0.19,-0.257 -0.353,-0.535 -0.48,-0.825 -0.142,-0.285 -0.226,-0.594 -0.277,-0.903 -0.103,-0.613 0.049,-1.286 0.513,-1.688 0.47,-0.395 1.161,-0.43 1.74,-0.2 0.292,0.11 0.575,0.261 0.825,0.458 0.256,0.186 0.493,0.405 0.705,0.646 0.864,0.955 1.431,2.152 1.878,3.365 l 0.175,-0.063 c -0.421,-1.229 -0.74,-2.522 -0.67,-3.822 0.011,-0.324 0.057,-0.647 0.138,-0.957 0.071,-0.316 0.194,-0.617 0.351,-0.894 0.306,-0.555 0.869,-0.993 1.507,-1.003 0.637,0.006 1.206,0.443 1.515,0.998 0.159,0.278 0.285,0.579 0.358,0.895 0.082,0.311 0.131,0.636 0.144,0.96 0.075,1.303 -0.236,2.603 -0.653,3.838 l 0.096,0.033 c 0.441,-1.218 1.003,-2.423 1.871,-3.393 0.212,-0.245 0.451,-0.467 0.711,-0.659 0.254,-0.201 0.54,-0.357 0.84,-0.473 0.594,-0.235 1.319,-0.2 1.812,0.217 0.486,0.425 0.64,1.126 0.533,1.752 C 7.187,-10.234 7.1,-9.92 6.956,-9.631 6.825,-9.337 6.66,-9.056 6.468,-8.797 5.711,-7.739 4.652,-6.936 3.555,-6.251 L 3.623,-6.14 C 4.72,-6.791 5.9,-7.355 7.162,-7.543 c 0.313,-0.051 0.632,-0.068 0.946,-0.049 0.316,0.007 0.626,0.076 0.92,0.178 0.587,0.201 1.087,0.682 1.189,1.291 0.095,0.61 -0.212,1.224 -0.671,1.637 -0.233,0.205 -0.489,0.39 -0.775,0.523 -0.278,0.146 -0.579,0.254 -0.884,0.333 -0.61,0.169 -1.246,0.244 -1.883,0.244 -0.638,0.018 -1.275,-0.052 -1.907,-0.132 l -0.032,0.209 c 0.62,0.106 1.238,0.221 1.833,0.416 0.599,0.18 1.177,0.427 1.705,0.752 0.265,0.159 0.515,0.346 0.734,0.561 0.231,0.204 0.414,0.454 0.568,0.714 0.301,0.524 0.363,1.19 0.06,1.71 C 8.656,1.361 8.052,1.643 7.446,1.678 7.142,1.689 6.832,1.672 6.532,1.596 6.229,1.533 5.935,1.427 5.653,1.296 5.086,1.041 4.558,0.694 4.078,0.292 3.587,-0.099 3.153,-0.557 2.729,-1.02 l -0.122,0.106 c 0.401,0.476 0.794,0.959 1.117,1.489 0.336,0.522 0.609,1.084 0.79,1.674 0.093,0.293 0.16,0.598 0.18,0.903 C 4.73,3.458 4.702,3.767 4.647,4.065 4.568,4.356 4.47,4.653 4.273,4.886 4.087,5.122 3.842,5.312 3.559,5.419 3.273,5.519 2.964,5.53 2.667,5.473 2.364,5.424 2.094,5.266 1.84,5.099 1.599,4.91 1.371,4.697 1.192,4.444 1.003,4.201 0.848,3.929 0.72,3.646 0.456,3.085 0.284,2.479 0.186,1.864 0.071,1.25 0.043,0.625 0.025,0 Z M 0,0 C 0.01,0.625 0.029,1.253 0.137,1.872 0.228,2.492 0.393,3.104 0.652,3.678 0.777,3.966 0.932,4.245 1.123,4.496 1.302,4.757 1.532,4.98 1.78,5.179 2.042,5.356 2.324,5.525 2.644,5.582 2.958,5.648 3.292,5.641 3.6,5.532 3.905,5.419 4.172,5.216 4.372,4.964 4.584,4.714 4.69,4.4 4.774,4.094 4.835,3.78 4.865,3.458 4.829,3.142 4.81,2.824 4.742,2.51 4.647,2.209 4.466,1.603 4.189,1.027 3.852,0.496 3.526,-0.045 3.131,-0.536 2.729,-1.02 L 2.607,-0.914 C 3.035,-0.443 3.473,0.022 3.971,0.423 4.457,0.835 4.994,1.193 5.58,1.46 5.869,1.596 6.175,1.708 6.491,1.775 6.805,1.856 7.133,1.878 7.459,1.867 8.105,1.833 8.782,1.532 9.136,0.945 9.305,0.653 9.381,0.313 9.366,-0.02 9.362,-0.358 9.234,-0.674 9.088,-0.966 8.923,-1.249 8.727,-1.517 8.485,-1.734 8.254,-1.962 7.994,-2.16 7.719,-2.326 6.62,-3.014 5.349,-3.323 4.097,-3.518 l -0.032,0.209 c 0.644,0.08 1.291,0.147 1.942,0.125 0.649,-0.004 1.303,-0.084 1.931,-0.26 0.316,-0.084 0.627,-0.199 0.917,-0.353 0.297,-0.14 0.569,-0.336 0.816,-0.557 0.484,-0.44 0.825,-1.113 0.716,-1.797 C 10.327,-6.487 10.158,-6.797 9.926,-7.039 9.697,-7.29 9.391,-7.447 9.085,-7.566 8.771,-7.673 8.444,-7.743 8.117,-7.749 7.79,-7.768 7.461,-7.747 7.14,-7.693 c -1.293,0.2 -2.482,0.78 -3.585,1.442 l 0.068,0.111 c 0.551,-0.355 1.098,-0.72 1.592,-1.155 0.504,-0.42 0.96,-0.901 1.341,-1.439 0.194,-0.265 0.362,-0.553 0.494,-0.855 0.144,-0.297 0.233,-0.62 0.287,-0.947 0.106,-0.647 -0.055,-1.383 -0.573,-1.831 -0.26,-0.216 -0.586,-0.338 -0.917,-0.368 -0.334,-0.039 -0.667,0.037 -0.977,0.145 -0.308,0.117 -0.602,0.277 -0.862,0.48 -0.266,0.194 -0.509,0.42 -0.726,0.667 -0.884,0.979 -1.454,2.191 -1.904,3.416 l 0.096,0.033 c 0.424,-1.241 0.747,-2.549 0.676,-3.878 -0.012,-0.331 -0.06,-0.662 -0.144,-0.984 -0.073,-0.325 -0.2,-0.638 -0.366,-0.929 -0.321,-0.58 -0.925,-1.061 -1.626,-1.069 -0.701,0.004 -1.312,0.483 -1.636,1.063 -0.168,0.292 -0.298,0.605 -0.373,0.931 -0.085,0.322 -0.135,0.655 -0.15,0.986 -0.078,1.334 0.238,2.647 0.658,3.895 l 0.175,-0.063 c -0.444,-1.23 -1.008,-2.449 -1.896,-3.444 -0.218,-0.25 -0.463,-0.481 -0.731,-0.68 -0.263,-0.207 -0.562,-0.372 -0.878,-0.493 -0.319,-0.112 -0.662,-0.19 -1.009,-0.149 -0.344,0.033 -0.686,0.161 -0.956,0.388 -0.542,0.469 -0.703,1.234 -0.593,1.894 0.056,0.334 0.146,0.663 0.294,0.963 0.136,0.306 0.306,0.597 0.502,0.864 0.386,0.542 0.847,1.025 1.354,1.447 0.498,0.436 1.047,0.801 1.601,1.156 l 0.122,-0.199 c -1.108,-0.662 -2.303,-1.242 -3.605,-1.44 -0.323,-0.054 -0.655,-0.074 -0.985,-0.054 -0.331,0.007 -0.662,0.078 -0.979,0.186 -0.311,0.123 -0.62,0.283 -0.854,0.539 -0.237,0.247 -0.409,0.564 -0.469,0.907 -0.11,0.699 0.24,1.382 0.73,1.826 0.25,0.222 0.523,0.419 0.823,0.56 0.292,0.155 0.606,0.267 0.922,0.351 0.633,0.177 1.287,0.256 1.939,0.259 0.652,0.019 1.299,-0.05 1.943,-0.129 l -0.035,-0.245 c -1.254,0.197 -2.527,0.51 -3.625,1.2 -0.276,0.167 -0.536,0.365 -0.768,0.595 -0.242,0.218 -0.437,0.486 -0.603,0.77 -0.146,0.293 -0.274,0.611 -0.278,0.949 -0.013,0.335 0.063,0.676 0.233,0.968 0.355,0.589 1.035,0.889 1.681,0.922 0.327,0.011 0.655,-0.012 0.967,-0.094 0.317,-0.067 0.622,-0.179 0.912,-0.316 0.584,-0.268 1.121,-0.626 1.607,-1.039 0.497,-0.401 0.933,-0.867 1.36,-1.338 l -0.111,-0.097 c -0.402,0.484 -0.796,0.975 -1.12,1.516 -0.337,0.531 -0.613,1.105 -0.792,1.712 -0.094,0.3 -0.161,0.613 -0.18,0.93 -0.035,0.315 -0.005,0.635 0.056,0.948 0.084,0.305 0.19,0.615 0.4,0.862 0.199,0.25 0.463,0.451 0.765,0.564 0.305,0.105 0.635,0.113 0.947,0.049 C -2.304,5.51 -2.023,5.343 -1.764,5.167 -1.516,4.971 -1.286,4.749 -1.106,4.489 -0.916,4.238 -0.762,3.961 -0.635,3.674 -0.374,3.102 -0.208,2.49 -0.116,1.871 -0.008,1.253 0.014,0.625 0.025,0 Z"
             style="fill:#2d2d2d;fill-opacity:1;fill-rule:nonzero;stroke:none"
             id="path174"
             inkscape:connector-curvature="0" /></g><g
           id="g176"
           transform="translate(755.1338,238.4687)"><path
             d="m 0,0 c 0,-1.405 -1.14,-2.545 -2.546,-2.545 -1.403,0 -2.543,1.14 -2.543,2.545 0,1.403 1.14,2.544 2.543,2.544 C -1.14,2.544 0,1.403 0,0"
             style="fill:#ffffff;fill-opacity:1;fill-rule:nonzero;stroke:none"
             id="path178"
             inkscape:connector-curvature="0" /></g><g
           id="g180"
           transform="translate(724.2051,255.7979)"><path
             d="M 0,0 C -0.016,0.624 -0.043,1.25 -0.155,1.864 -0.253,2.48 -0.423,3.087 -0.686,3.65 -0.812,3.934 -0.968,4.207 -1.157,4.451 -1.336,4.705 -1.563,4.92 -1.806,5.11 -2.061,5.278 -2.333,5.438 -2.638,5.489 -2.938,5.548 -3.251,5.537 -3.54,5.435 -3.825,5.326 -4.072,5.134 -4.26,4.895 -4.458,4.659 -4.557,4.36 -4.636,4.067 -4.69,3.767 -4.718,3.457 -4.681,3.15 -4.66,2.844 -4.593,2.538 -4.498,2.245 -4.316,1.654 -4.042,1.091 -3.705,0.57 c 0.323,-0.531 0.718,-1.014 1.119,-1.489 l -0.111,-0.097 c -0.426,0.462 -0.861,0.919 -1.353,1.31 -0.48,0.402 -1.009,0.748 -1.577,1.002 -0.281,0.131 -0.577,0.236 -0.879,0.298 -0.3,0.077 -0.609,0.093 -0.914,0.082 -0.604,-0.037 -1.208,-0.319 -1.514,-0.835 -0.301,-0.519 -0.238,-1.182 0.062,-1.703 0.154,-0.26 0.337,-0.508 0.567,-0.712 0.219,-0.214 0.469,-0.402 0.735,-0.559 0.526,-0.324 1.104,-0.57 1.703,-0.748 0.594,-0.193 1.212,-0.307 1.83,-0.41 l -0.035,-0.246 c -0.633,0.079 -1.269,0.147 -1.905,0.129 -0.635,-0.002 -1.27,-0.078 -1.877,-0.247 -0.303,-0.08 -0.602,-0.189 -0.877,-0.334 -0.284,-0.132 -0.538,-0.317 -0.768,-0.521 -0.453,-0.41 -0.751,-1.013 -0.657,-1.609 0.099,-0.594 0.589,-1.063 1.167,-1.26 0.29,-0.1 0.596,-0.167 0.909,-0.173 0.311,-0.019 0.628,-0.001 0.938,0.05 1.251,0.189 2.427,0.754 3.518,1.405 l 0.122,-0.199 c -1.092,-0.685 -2.144,-1.488 -2.889,-2.536 -0.19,-0.257 -0.353,-0.536 -0.481,-0.825 -0.141,-0.285 -0.226,-0.594 -0.277,-0.903 -0.103,-0.613 0.049,-1.286 0.513,-1.688 0.47,-0.396 1.161,-0.43 1.74,-0.201 0.292,0.111 0.575,0.262 0.826,0.458 0.256,0.187 0.493,0.406 0.704,0.646 0.864,0.955 1.432,2.152 1.879,3.365 l 0.175,-0.063 c -0.421,-1.228 -0.74,-2.522 -0.671,-3.821 0.011,-0.324 0.058,-0.647 0.138,-0.957 0.071,-0.316 0.194,-0.617 0.352,-0.894 0.306,-0.555 0.868,-0.993 1.506,-1.003 0.637,0.006 1.206,0.443 1.515,0.998 0.16,0.278 0.285,0.579 0.358,0.895 0.083,0.311 0.131,0.636 0.144,0.96 0.076,1.302 -0.235,2.602 -0.652,3.837 l 0.096,0.033 c 0.441,-1.218 1.003,-2.423 1.871,-3.393 0.212,-0.244 0.451,-0.466 0.711,-0.658 0.253,-0.201 0.54,-0.357 0.84,-0.473 0.593,-0.235 1.318,-0.2 1.811,0.217 0.487,0.425 0.64,1.126 0.533,1.752 -0.053,0.316 -0.14,0.629 -0.284,0.918 -0.131,0.294 -0.296,0.575 -0.489,0.835 -0.756,1.057 -1.815,1.86 -2.912,2.545 l 0.068,0.111 C 4.72,-6.792 5.9,-7.356 7.162,-7.544 c 0.313,-0.051 0.632,-0.068 0.945,-0.049 0.317,0.007 0.627,0.076 0.921,0.178 0.586,0.201 1.087,0.682 1.188,1.291 0.095,0.61 -0.212,1.224 -0.67,1.637 -0.233,0.205 -0.49,0.39 -0.775,0.522 C 8.492,-3.818 8.192,-3.71 7.887,-3.631 7.277,-3.462 6.64,-3.387 6.003,-3.387 5.366,-3.369 4.729,-3.438 4.097,-3.519 L 4.065,-3.31 c 0.62,0.106 1.238,0.221 1.832,0.416 0.599,0.18 1.178,0.427 1.706,0.752 0.265,0.159 0.515,0.347 0.734,0.561 0.23,0.205 0.413,0.454 0.568,0.715 0.3,0.523 0.363,1.189 0.059,1.71 C 8.656,1.36 8.051,1.642 7.446,1.678 7.142,1.688 6.831,1.672 6.531,1.595 6.229,1.532 5.935,1.427 5.653,1.296 5.086,1.041 4.558,0.693 4.078,0.291 3.587,-0.1 3.153,-0.558 2.729,-1.021 l -0.121,0.106 c 0.4,0.476 0.793,0.959 1.116,1.49 0.336,0.521 0.609,1.083 0.789,1.673 0.093,0.293 0.16,0.598 0.18,0.903 C 4.729,3.457 4.702,3.766 4.646,4.064 4.568,4.355 4.47,4.652 4.272,4.885 4.087,5.121 3.842,5.311 3.56,5.418 3.273,5.519 2.964,5.529 2.667,5.473 2.364,5.424 2.094,5.266 1.84,5.099 1.599,4.91 1.371,4.697 1.192,4.444 1.003,4.201 0.848,3.929 0.72,3.646 0.456,3.085 0.284,2.479 0.186,1.864 0.071,1.25 0.043,0.625 0.025,0 Z M 0,0 C 0.01,0.625 0.029,1.253 0.137,1.872 0.228,2.492 0.393,3.104 0.652,3.678 0.777,3.966 0.932,4.244 1.123,4.496 1.302,4.757 1.532,4.98 1.78,5.179 2.042,5.356 2.324,5.525 2.644,5.582 2.958,5.647 3.292,5.64 3.601,5.532 3.905,5.418 4.171,5.215 4.372,4.963 4.583,4.713 4.69,4.399 4.774,4.093 4.835,3.779 4.864,3.457 4.828,3.141 4.809,2.823 4.742,2.51 4.647,2.208 4.466,1.602 4.189,1.026 3.851,0.495 3.525,-0.045 3.131,-0.537 2.729,-1.021 L 2.608,-0.915 C 3.035,-0.444 3.473,0.021 3.97,0.422 4.456,0.834 4.994,1.192 5.579,1.459 5.869,1.596 6.175,1.707 6.491,1.774 6.804,1.856 7.132,1.877 7.458,1.866 8.104,1.832 8.781,1.532 9.135,0.944 9.305,0.652 9.38,0.312 9.366,-0.021 9.361,-0.358 9.233,-0.675 9.088,-0.967 8.923,-1.25 8.727,-1.518 8.485,-1.734 8.254,-1.963 7.993,-2.16 7.719,-2.326 6.62,-3.015 5.349,-3.324 4.097,-3.519 L 4.065,-3.31 c 0.644,0.08 1.291,0.147 1.942,0.125 0.649,-0.003 1.302,-0.084 1.931,-0.26 0.315,-0.084 0.626,-0.199 0.916,-0.353 0.298,-0.14 0.569,-0.336 0.816,-0.556 0.485,-0.441 0.826,-1.114 0.716,-1.798 C 10.326,-6.488 10.158,-6.798 9.925,-7.04 9.696,-7.291 9.391,-7.448 9.084,-7.567 8.771,-7.674 8.444,-7.744 8.116,-7.75 7.79,-7.769 7.46,-7.748 7.14,-7.694 c -1.293,0.2 -2.482,0.78 -3.585,1.442 l 0.068,0.111 C 4.727,-6.839 5.791,-7.655 6.555,-8.734 6.75,-9 6.917,-9.287 7.049,-9.59 c 0.145,-0.296 0.233,-0.62 0.287,-0.946 0.106,-0.647 -0.055,-1.384 -0.573,-1.831 -0.259,-0.216 -0.586,-0.338 -0.917,-0.368 -0.333,-0.039 -0.666,0.037 -0.976,0.145 -0.309,0.117 -0.603,0.277 -0.862,0.48 -0.266,0.194 -0.509,0.42 -0.726,0.666 -0.884,0.979 -1.455,2.191 -1.904,3.416 l 0.096,0.033 c 0.424,-1.24 0.747,-2.549 0.675,-3.878 -0.012,-0.33 -0.06,-0.662 -0.143,-0.983 -0.073,-0.325 -0.201,-0.638 -0.367,-0.929 -0.32,-0.58 -0.925,-1.06 -1.626,-1.069 -0.701,0.005 -1.311,0.483 -1.635,1.064 -0.168,0.291 -0.298,0.604 -0.373,0.93 -0.086,0.322 -0.136,0.655 -0.15,0.986 -0.079,1.333 0.238,2.646 0.658,3.894 l 0.175,-0.063 c -0.444,-1.23 -1.009,-2.449 -1.897,-3.444 -0.218,-0.25 -0.463,-0.48 -0.731,-0.679 -0.263,-0.207 -0.562,-0.372 -0.878,-0.493 -0.319,-0.112 -0.662,-0.19 -1.009,-0.149 -0.344,0.033 -0.686,0.161 -0.956,0.387 -0.542,0.47 -0.702,1.234 -0.593,1.895 0.056,0.333 0.147,0.662 0.295,0.963 0.135,0.306 0.305,0.597 0.502,0.864 0.386,0.542 0.847,1.025 1.354,1.446 0.498,0.436 1.047,0.802 1.601,1.156 l 0.122,-0.199 C -4.61,-6.958 -5.805,-7.538 -7.107,-7.736 -7.431,-7.79 -7.763,-7.81 -8.093,-7.79 c -0.331,0.007 -0.662,0.078 -0.978,0.186 -0.311,0.123 -0.621,0.282 -0.855,0.539 -0.237,0.247 -0.408,0.564 -0.468,0.907 -0.111,0.699 0.239,1.382 0.729,1.826 0.25,0.222 0.523,0.419 0.823,0.56 0.293,0.155 0.606,0.268 0.922,0.351 0.633,0.177 1.288,0.256 1.939,0.259 0.652,0.019 1.3,-0.05 1.944,-0.129 l -0.035,-0.246 c -1.254,0.198 -2.527,0.511 -3.626,1.201 -0.276,0.167 -0.536,0.365 -0.768,0.595 -0.241,0.218 -0.437,0.486 -0.602,0.77 -0.147,0.293 -0.275,0.611 -0.279,0.95 -0.013,0.334 0.063,0.675 0.234,0.968 0.354,0.589 1.034,0.888 1.68,0.921 0.327,0.011 0.655,-0.011 0.968,-0.093 0.317,-0.067 0.622,-0.18 0.911,-0.317 0.585,-0.267 1.122,-0.626 1.608,-1.039 0.497,-0.401 0.933,-0.867 1.36,-1.338 l -0.111,-0.097 c -0.402,0.484 -0.796,0.975 -1.12,1.516 -0.337,0.531 -0.613,1.105 -0.793,1.711 -0.094,0.301 -0.161,0.614 -0.179,0.931 -0.036,0.315 -0.006,0.635 0.055,0.948 0.084,0.305 0.19,0.615 0.4,0.862 0.199,0.25 0.463,0.451 0.766,0.564 0.304,0.105 0.634,0.114 0.946,0.049 C -2.305,5.51 -2.024,5.343 -1.764,5.167 -1.517,4.97 -1.286,4.748 -1.106,4.489 -0.916,4.238 -0.762,3.961 -0.635,3.674 -0.375,3.102 -0.208,2.49 -0.116,1.871 -0.008,1.253 0.015,0.625 0.025,0 Z"
             style="fill:#2d2d2d;fill-opacity:1;fill-rule:nonzero;stroke:none"
             id="path182"
             inkscape:connector-curvature="0" /></g><g
           id="g184"
           transform="translate(726.7617,251.1904)"><path
             d="m 0,0 c 0,-1.405 -1.14,-2.543 -2.544,-2.543 -1.405,0 -2.545,1.138 -2.545,2.543 0,1.405 1.14,2.543 2.545,2.543 C -1.14,2.543 0,1.405 0,0"
             style="fill:#ffffff;fill-opacity:1;fill-rule:nonzero;stroke:none"
             id="path186"
             inkscape:connector-curvature="0" /></g><g
           id="g188"
           transform="translate(750.3242,197.5234)"><path
             d="m 0,0 0.819,-2.042 c 0.303,-0.672 0.432,-1.401 0.657,-2.101 0.097,-0.353 0.211,-0.704 0.295,-1.061 l 0.205,-1.083 c 0.13,-0.724 0.318,-1.442 0.351,-2.18 0.057,-0.734 0.157,-1.469 0.177,-2.207 l -0.019,-2.22 c -0.031,-0.739 -0.147,-1.473 -0.218,-2.212 -0.045,-0.745 -0.263,-1.467 -0.418,-2.201 l -0.253,-1.097 c -0.097,-0.359 -0.229,-0.697 -0.342,-1.046 -0.25,-0.699 -0.436,-1.372 -0.738,-2.095 l -1.681,-4.056 c -1.129,-2.701 -2.224,-5.416 -3.386,-8.102 l -0.137,-0.319 -0.336,0.003 -11.917,0.108 -0.276,0.003 -0.098,0.247 -3.629,9.136 -0.91,2.283 c -0.314,0.755 -0.622,1.515 -0.879,2.302 -0.268,0.78 -0.579,1.545 -0.736,2.358 l -0.288,1.201 -0.152,0.6 -0.091,0.61 c -0.104,0.817 -0.283,1.627 -0.322,2.451 -0.032,0.824 -0.091,1.649 -0.099,2.473 l 0.107,2.477 0.356,2.459 c 0.155,0.816 0.395,1.62 0.591,2.433 0.197,0.817 0.537,1.553 0.803,2.332 l 0.218,0.574 c 0.089,0.232 0.167,0.387 0.251,0.584 l 0.497,1.124 0.994,2.248 0.114,0.26 0.291,0.002 c 1.536,0.013 3.072,-0.029 4.608,-0.041 1.536,-0.011 3.072,-0.048 4.608,-0.096 l 4.608,-0.124 c 1.536,-0.04 3.072,-0.09 4.608,-0.093 h 0.059 L -1.685,3.839 Z M -0.092,-0.041 -1.849,3.765 -1.767,3.712 C -3.303,3.709 -4.839,3.658 -6.375,3.618 l -4.608,-0.124 c -1.536,-0.048 -3.072,-0.085 -4.608,-0.096 -1.536,-0.011 -3.072,-0.053 -4.608,-0.041 l 0.405,0.262 -1.022,-2.234 -0.511,-1.117 c -0.079,-0.179 -0.185,-0.39 -0.242,-0.541 l -0.227,-0.572 c -0.288,-0.76 -0.674,-1.509 -0.887,-2.278 -0.216,-0.772 -0.48,-1.531 -0.664,-2.316 l -0.451,-2.39 -0.208,-2.427 c -0.024,-0.811 0.033,-1.624 0.046,-2.437 0.025,-0.814 0.189,-1.616 0.277,-2.424 0.063,-0.816 0.342,-1.591 0.519,-2.385 0.164,-0.8 0.481,-1.553 0.755,-2.319 0.523,-1.537 1.258,-3.02 1.893,-4.526 l 3.949,-9.003 -0.374,0.249 11.917,0.108 -0.474,-0.315 c 1.095,2.715 2.257,5.402 3.386,8.103 l 1.705,4.047 c 0.28,0.62 0.523,1.35 0.787,2.021 0.124,0.343 0.271,0.684 0.376,1.028 l 0.272,1.034 c 0.176,0.691 0.395,1.373 0.488,2.092 0.11,0.712 0.266,1.42 0.34,2.139 l 0.146,2.168 c 0.02,0.724 -0.041,1.448 -0.057,2.175 0.006,0.731 -0.14,1.445 -0.231,2.168 l -0.157,1.082 c -0.076,0.356 -0.181,0.706 -0.27,1.06 -0.208,0.697 -0.32,1.426 -0.606,2.1 z"
             style="fill:#2d2d2d;fill-opacity:1;fill-rule:nonzero;stroke:none"
             id="path190"
             inkscape:connector-curvature="0" /></g></g></g><g
       id="g204"
       transform="translate(594.667,244.333)"><path
         d="m 0,0 1.666,19.334 -16.333,1 2,-20 z"
         style="fill:#fffacd;fill-opacity:1;fill-rule:nonzero;stroke:none"
         id="path206"
         inkscape:connector-curvature="0" /></g><g
       id="g208"
       transform="translate(473,248.5)"><path
         d="M 0,0 -51.5,-1 -65.5,39.5 -16,40 Z"
         style="fill:#d2d2ff;fill-opacity:1;fill-rule:nonzero;stroke:none"
         id="path210"
         inkscape:connector-curvature="0" /></g><g
       id="g212"
       transform="translate(371.1943,144.4785)"><path
         d="m 0,0 12.923,92.036 0.105,-0.121 -12.5,-0.012 H 0.419 l -0.008,0.111 -0.506,6.999 -0.01,0.133 h 0.133 l 268.499,0.613 0.257,0.001 -0.018,-0.255 -0.501,-7 -0.017,-0.233 -0.232,0.013 -9.5,0.501 0.246,0.269 13.491,-93.501 0.037,-0.259 h -0.262 -4 -0.189 l -0.033,0.185 -16.953,93.009 0.179,-0.146 -22.5,-0.487 0.159,0.135 -17.054,-92.489 -0.022,-0.116 -0.114,0.028 -3.999,1.003 -0.093,0.023 0.012,0.095 11.511,90.998 0.096,-0.108 -168.5,-0.1 0.194,0.226 13.997,-91 0.034,-0.223 h -0.225 l -3.5,0.003 h -0.154 l -0.032,0.151 -18.929,91.015 0.115,-0.094 -21,0.017 0.1,0.083 L 4.056,-0.483 4.051,-0.51 4.025,-0.507 Z M 0.057,0.043 4.032,-0.45 4,-0.474 20.929,91.54 l 0.015,0.083 h 0.084 l 21,0.017 h 0.096 l 0.02,-0.094 19.071,-90.985 -0.187,0.151 3.5,0.003 -0.191,-0.223 -14.003,90.999 -0.035,0.227 h 0.229 l 168.5,-0.1 h 0.111 l -0.014,-0.109 -11.489,-91.001 -0.081,0.118 4,-0.997 -0.135,-0.088 16.945,92.511 0.025,0.132 0.134,0.003 22.5,0.513 0.153,0.003 0.027,-0.149 17.047,-92.991 -0.223,0.185 h 4 l -0.224,-0.259 -13.509,93.498 -0.041,0.285 0.287,-0.015 9.5,-0.499 -0.249,-0.22 0.499,7 0.237,-0.254 -268.499,-0.387 0.123,0.133 0.494,-7 -0.118,0.11 12.5,-0.012 h 0.123 l -0.017,-0.121 z"
         style="fill:#000000;fill-opacity:1;fill-rule:nonzero;stroke:none"
         id="path214"
         inkscape:connector-curvature="0" /></g><g
       id="g216"><g
         id="g218"
         clip-path="url(#clipPath222)"><g
           id="g224"
           transform="translate(420.7461,244.3252)"><path
             d="m 0,0 -0.246,-0.833 -0.027,0.036 41.457,0.425 c 13.819,0.18 27.639,0.182 41.458,0.281 l -0.23,-0.273 -0.333,2 0.012,-0.043 C 81.898,2.076 81.668,2.575 81.31,2.881 81.135,3.036 80.932,3.12 80.725,3.104 80.621,3.104 80.517,3.065 80.414,3.025 80.317,2.979 80.209,2.906 80.141,2.844 L 80.068,2.776 79.979,2.775 53.646,2.487 53.515,2.486 53.469,2.607 45.366,23.799 37.228,44.976 37.31,44.92 11.811,44.677 -0.939,44.559 c -4.25,-0.03 -8.5,-0.1 -12.75,-0.096 l 0.168,0.085 -2.011,-2.659 0.024,0.196 L 1.009,2.688 1.015,2.676 1.01,2.662 Z m -0.047,0.016 0.99,2.672 0.001,-0.027 -16.817,39.27 -0.044,0.103 0.068,0.093 1.989,2.675 0.062,0.083 0.106,0.002 c 4.25,0.059 8.5,0.045 12.75,0.07 l 12.751,0.049 25.5,0.09 0.061,0.001 0.022,-0.058 8.195,-21.155 8.231,-21.142 -0.177,0.12 26.333,0.378 -0.161,-0.068 c 0.132,0.124 0.257,0.2 0.405,0.274 0.149,0.063 0.307,0.118 0.479,0.122 0.344,0.029 0.683,-0.124 0.912,-0.331 0.478,-0.417 0.706,-0.96 0.919,-1.48 L 82.536,1.739 82.54,1.713 82.875,-0.286 82.921,-0.559 82.645,-0.56 C 68.825,-0.627 55.006,-0.792 41.187,-0.778 l -41.46,-0.076 h -0.039 l 0.011,0.037 z"
             style="fill:#000000;fill-opacity:1;fill-rule:nonzero;stroke:none"
             id="path226"
             inkscape:connector-curvature="0" /></g><g
           id="g228"
           transform="translate(456.8716,312.3081)"><path
             d="m 0,0 -0.224,80.458 -0.001,0.25 h 0.25 L 115.01,80.595 h 0.137 v -0.137 l -0.06,-40.216 0.081,-40.217 V -0.133 H 115.01 L 86.264,-0.186 57.517,-0.163 28.771,-0.11 Z m 0.05,0.05 28.721,0.11 28.746,0.052 28.747,0.023 28.746,-0.052 -0.158,-0.158 0.081,40.217 -0.059,40.216 0.136,-0.136 -114.985,-0.113 0.249,0.249 z"
             style="fill:#000000;fill-opacity:1;fill-rule:nonzero;stroke:none"
             id="path230"
             inkscape:connector-curvature="0" /></g><g
           id="g232"
           transform="translate(460.27,315.7065)"><path
             d="m 0,0 -0.225,73.662 -0.001,0.25 h 0.251 l 54.377,-0.019 54.378,-0.095 h 0.137 V 73.662 L 108.856,36.843 108.935,0.025 V -0.13 H 108.78 L 81.591,-0.183 54.402,-0.164 27.213,-0.111 Z m 0.05,0.05 27.163,0.111 27.189,0.052 27.189,0.02 27.189,-0.053 -0.155,-0.155 0.079,36.818 -0.061,36.819 0.137,-0.137 -54.378,-0.094 -54.377,-0.019 0.25,0.25 z"
             style="fill:#000000;fill-opacity:1;fill-rule:nonzero;stroke:none"
             id="path234"
             inkscape:connector-curvature="0" /></g><g
           id="g236"
           transform="translate(512.3105,400.9429)"><path
             d="M 0,0 C 0,0 0.004,0.046 0.01,0.13 0.023,0.213 0.007,0.341 0.053,0.494 0.081,0.652 0.13,0.84 0.228,1.052 0.335,1.255 0.484,1.479 0.711,1.677 0.836,1.758 0.955,1.857 1.116,1.917 1.276,1.979 1.462,2.039 1.601,2.046 1.938,2.114 2.321,2.033 2.666,1.887 3.009,1.718 3.305,1.45 3.518,1.122 3.717,0.79 3.802,0.347 3.772,0.016 3.688,-0.783 3.235,-1.397 2.616,-1.77 2.461,-1.844 2.264,-1.936 2.112,-1.96 L 1.879,-2.007 C 1.757,-2.016 1.696,-2.003 1.603,-2.001 1.26,-1.985 0.955,-1.835 0.718,-1.664 0.49,-1.472 0.34,-1.249 0.231,-1.046 0.134,-0.835 0.084,-0.646 0.055,-0.487 0.01,-0.332 0.025,-0.21 0.011,-0.128 0.004,-0.045 0,0 0,0 m 0.051,0.003 c 0,0 0.005,-0.043 0.014,-0.126 0.018,-0.079 0.005,-0.21 0.076,-0.346 0.039,-0.146 0.147,-0.297 0.272,-0.458 0.137,-0.155 0.32,-0.289 0.525,-0.407 0.219,-0.094 0.446,-0.206 0.714,-0.231 l 0.185,-0.03 0.238,10e-4 c 0.167,-0.005 0.278,0.041 0.432,0.071 0.297,0.091 0.573,0.295 0.764,0.57 0.178,0.28 0.25,0.64 0.229,0.941 C 3.442,0.366 3.331,0.619 3.151,0.878 2.958,1.116 2.722,1.307 2.456,1.414 2.188,1.501 1.92,1.563 1.653,1.527 1.347,1.509 1.188,1.419 0.945,1.327 0.738,1.213 0.555,1.081 0.417,0.928 0.292,0.768 0.184,0.616 0.144,0.468 0.072,0.331 0.085,0.205 0.066,0.126 0.056,0.045 0.051,0.003 0.051,0.003"
             style="fill:#000000;fill-opacity:1;fill-rule:nonzero;stroke:none"
             id="path238"
             inkscape:connector-curvature="0" /></g><g
           id="g240"
           transform="translate(515.9609,400.4346)"><path
             d="m 0,0 c 0,0 0.781,-0.348 1.862,-1.005 0.545,-0.323 1.147,-0.751 1.761,-1.256 0.613,-0.505 1.323,-0.96 2.067,-1.363 1.484,-0.814 2.906,-1.722 3.915,-2.488 1.021,-0.749 1.653,-1.323 1.653,-1.323 L 11.23,-7.477 c 0,0 -0.775,0.356 -1.865,1.001 -1.101,0.628 -2.494,1.58 -3.825,2.623 -0.663,0.527 -1.36,1 -2.065,1.367 -0.705,0.367 -1.336,0.751 -1.847,1.126 -1.029,0.736 -1.655,1.318 -1.655,1.318 z"
             style="fill:#000000;fill-opacity:1;fill-rule:nonzero;stroke:none"
             id="path242"
             inkscape:connector-curvature="0" /></g><g
           id="g244"
           transform="translate(512.3496,400.9233)"><path
             d="m 0,0 c 0,0 -0.68,-0.615 -1.789,-1.401 -0.55,-0.4 -1.227,-0.813 -1.982,-1.211 -0.754,-0.397 -1.505,-0.904 -2.221,-1.464 -1.438,-1.111 -2.937,-2.128 -4.117,-2.806 -1.17,-0.695 -1.998,-1.083 -1.998,-1.083 l -0.028,0.042 c 0,0 0.685,0.607 1.785,1.405 1.09,0.816 2.618,1.79 4.207,2.671 0.798,0.435 1.56,0.925 2.224,1.46 0.664,0.536 1.312,0.994 1.897,1.341 1.161,0.707 1.995,1.088 1.995,1.088 z"
             style="fill:#000000;fill-opacity:1;fill-rule:nonzero;stroke:none"
             id="path246"
             inkscape:connector-curvature="0" /></g><g
           id="g248"
           transform="translate(579.001,265.9746)"><path
             d="m 0,0 c 0.5,-3.66 0.93,-7.328 1.378,-10.994 l 0.657,-5.516 0.615,-5.519 -0.265,0.235 c 4.555,0.044 9.112,0.073 13.669,0.067 l -0.162,-0.144 0.718,5.473 c 0.232,1.825 0.487,3.647 0.699,5.474 0.441,3.653 0.792,7.318 1.205,10.975 l 0.208,-0.235 C 15.597,-0.212 12.472,-0.183 9.347,-0.165 6.231,-0.136 3.115,-0.084 0,0 m -0.028,0.051 c 3.125,0.084 6.25,0.136 9.375,0.165 3.125,0.017 6.25,0.047 9.375,0.018 L 18.96,0.232 18.93,0 c -0.476,-3.649 -1.014,-7.29 -1.461,-10.942 -0.233,-1.826 -0.422,-3.657 -0.635,-5.484 l -0.614,-5.485 -0.016,-0.142 -0.146,-0.004 c -4.556,-0.117 -9.112,-0.197 -13.667,-0.264 l -0.24,-0.004 -0.026,0.239 -0.593,5.522 -0.551,5.526 c -0.356,3.685 -0.73,7.369 -1.034,11.06 L -0.056,0.05 Z"
             style="fill:#000000;fill-opacity:1;fill-rule:nonzero;stroke:none"
             id="path250"
             inkscape:connector-curvature="0" /></g><g
           id="g252"
           transform="translate(588.4473,266.999)"><path
             d="m 0,0 c 0,0 -0.009,0.435 -0.025,1.194 -0.017,0.76 -0.098,1.845 -0.158,3.147 -0.024,0.651 -0.05,1.356 -0.046,2.101 0,0.746 -0.018,1.534 -0.004,2.347 0.005,0.407 0.011,0.82 0.017,1.239 l 0.01,0.632 c 0.001,0.216 0.039,0.518 0.193,0.725 0.291,0.446 0.843,0.657 1.35,0.498 0.5,-0.127 0.84,-0.652 0.825,-1.132 C 2.083,9.015 2.085,7.279 2.16,5.651 2.235,4.024 2.276,2.505 2.221,1.203 2.218,0.878 2.192,0.566 2.179,0.27 2.176,-0.007 2.139,-0.371 1.954,-0.602 1.781,-0.842 1.538,-0.983 1.288,-1.032 1.06,-1.072 0.822,-1.047 0.642,-0.972 0.271,-0.811 0.105,-0.51 0.049,-0.313 -0.013,-0.109 0.011,-0.001 0,0 m 0.051,0.002 c 0.009,0.005 -0.008,-0.115 0.056,-0.299 0.06,-0.178 0.226,-0.454 0.569,-0.587 0.335,-0.137 0.862,-0.024 1.096,0.401 0.127,0.214 0.125,0.441 0.1,0.753 C 1.858,0.566 1.833,0.878 1.83,1.203 1.774,2.505 1.815,4.024 1.891,5.651 1.966,7.279 1.968,9.015 1.889,10.751 1.865,11.137 1.602,11.466 1.243,11.539 0.911,11.63 0.507,11.451 0.361,11.156 0.271,11.003 0.256,10.863 0.257,10.66 l 0.01,-0.632 C 0.272,9.609 0.278,9.196 0.284,8.789 0.298,7.976 0.28,7.188 0.28,6.442 0.284,5.697 0.258,4.992 0.233,4.341 0.174,3.039 0.093,1.954 0.076,1.194 0.06,0.435 0.051,0.002 0.051,0.002"
             style="fill:#000000;fill-opacity:1;fill-rule:nonzero;stroke:none"
             id="path254"
             inkscape:connector-curvature="0" /></g><g
           id="g256"
           transform="translate(585.5342,266.3223)"><path
             d="m 0,0 c 0,0 -0.871,1.425 -2.012,3.646 -0.288,0.553 -0.601,1.153 -0.903,1.801 -0.318,0.641 -0.608,1.339 -0.93,2.05 -0.31,0.717 -0.659,1.443 -1.018,2.18 -0.197,0.352 -0.355,0.759 -0.586,1.073 -0.243,0.274 -0.644,0.442 -1.01,0.373 -0.795,-0.098 -1.178,-1.019 -0.771,-1.631 0.374,-0.728 0.741,-1.446 1.097,-2.14 0.693,-1.399 1.335,-2.706 1.847,-3.845 1.049,-2.266 1.663,-3.819 1.663,-3.819 l -0.045,-0.021 c 0,0 -0.855,1.434 -2.01,3.647 -0.591,1.101 -1.234,2.408 -1.92,3.809 -0.333,0.705 -0.676,1.435 -1.026,2.176 -0.21,0.403 -0.229,0.952 0.011,1.363 0.102,0.207 0.284,0.391 0.481,0.522 0.165,0.096 0.425,0.213 0.645,0.212 0.466,0.043 0.915,-0.176 1.193,-0.542 0.247,-0.362 0.377,-0.742 0.569,-1.109 0.37,-0.73 0.738,-1.448 1.121,-2.128 0.373,-0.686 0.753,-1.339 1.072,-1.98 C -2.199,5.005 -1.91,4.393 -1.644,3.829 -0.563,1.578 0.045,0.021 0.045,0.021 Z"
             style="fill:#000000;fill-opacity:1;fill-rule:nonzero;stroke:none"
             id="path258"
             inkscape:connector-curvature="0" /></g><g
           id="g260"
           transform="translate(705.8652,159.001)"><path
             d="m 0,0 -0.16,40.024 -0.064,20 0.009,20 v 0.24 H 0.024 L 30.58,80.25 61.135,80.161 h 0.136 v -0.137 l -0.043,-20 c -0.028,-6.667 -0.007,-13.333 0.014,-20 l 0.106,-40 10e-4,-0.213 -0.214,0.001 -30.556,0.053 C 20.395,-0.12 10.209,-0.081 0.024,-0.001 Z m 0.05,0.05 c 10.177,0.08 20.353,0.119 30.529,0.134 l 30.556,0.053 -0.213,-0.213 0.105,40 c 0.022,6.667 0.042,13.333 0.015,20 l -0.044,20 0.137,-0.136 -30.555,-0.089 -30.556,-0.014 0.24,0.239 0.008,-20 -0.063,-20 z"
             style="fill:#000000;fill-opacity:1;fill-rule:nonzero;stroke:none"
             id="path262"
             inkscape:connector-curvature="0" /></g><g
           id="g264"
           transform="translate(736.8896,223.7773)"><path
             d="m 0,0 c 0,0.001 -0.542,-0.14 -1.354,-0.187 -0.407,-0.032 -0.88,-0.004 -1.388,0.078 -0.508,0.083 -1.05,0.072 -1.591,-0.002 C -5.417,-0.249 -6.5,-0.275 -7.312,-0.192 -8.125,-0.13 -8.667,0 -8.667,0 v 0.051 c 0,0 0.542,0.13 1.355,0.192 C -6.5,0.326 -5.417,0.3 -4.333,0.162 -3.792,0.088 -3.25,0.077 -2.742,0.16 -2.234,0.242 -1.761,0.27 -1.354,0.237 -0.542,0.19 0,0.05 0,0.051 Z"
             style="fill:#000000;fill-opacity:1;fill-rule:nonzero;stroke:none"
             id="path266"
             inkscape:connector-curvature="0" /></g><g
           id="g268"
           transform="translate(766.5557,210.4443)"><path
             d="m 0,0 c 0,0.001 -3.792,-0.151 -9.479,-0.181 -1.422,-0.011 -2.962,-0.025 -4.591,-0.007 -1.63,0 -3.348,0.05 -5.125,0.079 -3.555,0.092 -7.346,0.043 -11.138,-0.002 -3.792,-0.063 -7.583,-0.11 -11.138,-0.122 -1.777,0.001 -3.495,0.003 -5.125,0.004 -1.629,-0.004 -3.169,0.022 -4.591,0.044 -2.843,0.046 -5.213,0.084 -6.873,0.112 C -59.718,-0.026 -60.666,0 -60.666,0 v 0.051 c 0,0 0.948,0.026 2.606,0.073 1.66,0.027 4.03,0.065 6.873,0.111 1.422,0.023 2.962,0.049 4.591,0.045 1.63,0.001 3.348,0.003 5.125,0.004 3.555,-0.013 7.346,-0.059 11.138,-0.122 3.792,-0.045 7.583,-0.095 11.138,-0.002 1.777,0.028 3.495,0.079 5.125,0.079 1.629,0.018 3.169,0.004 4.591,-0.008 C -3.792,0.202 0,0.05 0,0.051 Z"
             style="fill:#000000;fill-opacity:1;fill-rule:nonzero;stroke:none"
             id="path270"
             inkscape:connector-curvature="0" /></g><g
           id="g272"
           transform="translate(737.2227,198.7773)"><path
             d="m 0,0 c 0,0.001 -0.542,-0.14 -1.354,-0.187 -0.407,-0.032 -0.88,-0.004 -1.388,0.078 -0.508,0.083 -1.05,0.072 -1.592,-0.002 C -5.417,-0.249 -6.5,-0.275 -7.312,-0.192 -8.125,-0.13 -8.667,0 -8.667,0 v 0.051 c 0,0 0.542,0.13 1.355,0.192 C -6.5,0.326 -5.417,0.3 -4.334,0.162 -3.792,0.088 -3.25,0.077 -2.742,0.16 -2.234,0.242 -1.761,0.27 -1.354,0.237 -0.542,0.19 0,0.05 0,0.051 Z"
             style="fill:#000000;fill-opacity:1;fill-rule:nonzero;stroke:none"
             id="path274"
             inkscape:connector-curvature="0" /></g><g
           id="g276"
           transform="translate(736.8896,172.7773)"><path
             d="m 0,0 c 0,0.001 -0.542,-0.14 -1.354,-0.187 -0.407,-0.032 -0.88,-0.004 -1.388,0.078 -0.508,0.083 -1.05,0.072 -1.591,-0.002 C -5.417,-0.249 -6.5,-0.275 -7.312,-0.192 -8.125,-0.13 -8.667,0 -8.667,0 v 0.051 c 0,0 0.542,0.13 1.355,0.192 C -6.5,0.326 -5.417,0.3 -4.333,0.162 -3.792,0.088 -3.25,0.077 -2.742,0.16 -2.234,0.242 -1.761,0.27 -1.354,0.237 -0.542,0.19 0,0.05 0,0.051 Z"
             style="fill:#000000;fill-opacity:1;fill-rule:nonzero;stroke:none"
             id="path278"
             inkscape:connector-curvature="0" /></g><g
           id="g280"
           transform="translate(766.8887,185.4443)"><path
             d="m 0,0 c 0,0.001 -3.792,-0.151 -9.479,-0.181 -1.422,-0.011 -2.962,-0.025 -4.591,-0.007 -1.629,0 -3.348,0.05 -5.125,0.079 -3.555,0.092 -7.346,0.043 -11.138,-0.002 -3.792,-0.063 -7.583,-0.11 -11.138,-0.122 -1.777,0.001 -3.496,0.003 -5.125,0.004 -1.629,-0.004 -3.169,0.022 -4.591,0.044 -2.843,0.046 -5.213,0.084 -6.873,0.112 C -59.718,-0.026 -60.666,0 -60.666,0 v 0.051 c 0,0 0.948,0.026 2.606,0.073 1.66,0.027 4.03,0.065 6.873,0.111 1.422,0.023 2.962,0.049 4.591,0.045 1.629,0.001 3.348,0.003 5.125,0.004 3.555,-0.013 7.346,-0.059 11.138,-0.122 3.792,-0.045 7.583,-0.095 11.138,-0.002 1.777,0.028 3.496,0.079 5.125,0.079 1.629,0.018 3.169,0.004 4.591,-0.008 C -3.792,0.202 0,0.05 0,0.051 Z"
             style="fill:#000000;fill-opacity:1;fill-rule:nonzero;stroke:none"
             id="path282"
             inkscape:connector-curvature="0" /></g><g
           id="g284"
           transform="translate(755.915,159.4697)"><path
             d="M 0,0 C -0.001,0 0.14,-0.437 0.187,-1.094 0.219,-1.422 0.191,-1.805 0.109,-2.215 0.026,-2.625 0.037,-3.063 0.111,-3.5 0.249,-4.375 0.275,-5.25 0.192,-5.906 0.13,-6.562 0,-7 0,-7 h -0.051 c 0,0 -0.13,0.438 -0.192,1.094 -0.083,0.656 -0.057,1.531 0.081,2.406 0.074,0.437 0.085,0.875 0.002,1.285 -0.082,0.41 -0.11,0.793 -0.077,1.121 C -0.19,-0.437 -0.05,0 -0.051,0 Z"
             style="fill:#000000;fill-opacity:1;fill-rule:nonzero;stroke:none"
             id="path286"
             inkscape:connector-curvature="0" /></g><g
           id="g288"
           transform="translate(751.5723,148.1357)"><path
             d="M 0,0 C 0,0 0.008,0.1 0.022,0.283 0.054,0.465 0.016,0.748 0.138,1.076 0.191,1.241 0.229,1.433 0.296,1.632 0.387,1.823 0.484,2.031 0.589,2.252 0.716,2.461 0.882,2.666 1.044,2.896 1.231,3.099 1.452,3.298 1.687,3.499 1.96,3.645 2.215,3.849 2.541,3.964 2.867,4.077 3.223,4.2 3.549,4.209 4.252,4.329 5.03,4.183 5.749,3.89 6.46,3.553 7.081,3.007 7.538,2.333 7.96,1.632 8.162,0.791 8.162,0.001 8.095,-0.811 7.852,-1.59 7.42,-2.253 6.966,-2.896 6.377,-3.421 5.698,-3.774 5.354,-3.911 4.971,-4.088 4.625,-4.123 4.449,-4.148 4.276,-4.174 4.104,-4.198 3.889,-4.209 3.735,-4.176 3.55,-4.166 2.832,-4.135 2.212,-3.811 1.695,-3.486 1.458,-3.29 1.237,-3.09 1.049,-2.888 0.887,-2.66 0.72,-2.456 0.593,-2.248 0.488,-2.026 0.391,-1.819 0.3,-1.628 0.231,-1.429 0.194,-1.235 0.14,-1.07 0.017,-0.739 0.055,-0.464 0.023,-0.282 0.009,-0.1 0,0 0,0 m 0.051,0.002 c 0,0 0.011,-0.096 0.033,-0.278 0.039,-0.178 0.014,-0.463 0.148,-0.776 0.056,-0.159 0.105,-0.34 0.196,-0.52 0.106,-0.172 0.222,-0.359 0.345,-0.557 0.143,-0.184 0.325,-0.354 0.497,-0.546 0.194,-0.169 0.426,-0.312 0.642,-0.486 0.492,-0.263 1.049,-0.518 1.687,-0.58 0.15,-0.014 0.337,-0.048 0.464,-0.047 0.173,0.01 0.348,0.02 0.525,0.03 0.183,-0.003 0.344,0.04 0.505,0.088 0.161,0.049 0.334,0.072 0.497,0.142 0.667,0.257 1.257,0.749 1.702,1.361 C 7.7,-1.522 7.893,-0.759 7.889,0.001 7.825,0.782 7.592,1.483 7.174,2.091 6.731,2.672 6.174,3.142 5.539,3.416 4.897,3.643 4.235,3.813 3.6,3.702 2.925,3.646 2.437,3.414 1.92,3.152 1.701,2.982 1.47,2.839 1.274,2.671 1.104,2.481 0.92,2.312 0.777,2.128 0.654,1.93 0.538,1.744 0.432,1.572 0.341,1.392 0.291,1.209 0.234,1.05 0.1,0.734 0.125,0.457 0.085,0.279 0.062,0.098 0.051,0.002 0.051,0.002"
             style="fill:#000000;fill-opacity:1;fill-rule:nonzero;stroke:none"
             id="path290"
             inkscape:connector-curvature="0" /></g><g
           id="g292"
           transform="translate(719.29,158.8447)"><path
             d="M 0,0 C -0.001,0 0.14,-0.375 0.187,-0.937 0.219,-1.219 0.191,-1.547 0.109,-1.898 0.026,-2.25 0.037,-2.625 0.111,-3 0.249,-3.75 0.275,-4.5 0.192,-5.062 0.13,-5.625 0,-6 0,-6 h -0.051 c 0,0 -0.13,0.375 -0.192,0.938 C -0.326,-4.5 -0.3,-3.75 -0.162,-3 c 0.074,0.375 0.085,0.75 0.002,1.102 -0.082,0.351 -0.11,0.679 -0.077,0.961 C -0.19,-0.375 -0.05,0 -0.051,0 Z"
             style="fill:#000000;fill-opacity:1;fill-rule:nonzero;stroke:none"
             id="path294"
             inkscape:connector-curvature="0" /></g><g
           id="g296"
           transform="translate(714.9473,148.5107)"><path
             d="M 0,0 C 0,0 0.008,0.1 0.022,0.283 0.054,0.465 0.016,0.748 0.138,1.076 0.191,1.241 0.229,1.433 0.296,1.632 0.387,1.823 0.484,2.031 0.589,2.252 0.716,2.461 0.882,2.666 1.044,2.896 1.231,3.099 1.452,3.298 1.687,3.499 1.96,3.645 2.215,3.849 2.541,3.964 2.867,4.077 3.223,4.2 3.549,4.209 4.252,4.329 5.03,4.183 5.749,3.89 6.46,3.553 7.081,3.007 7.538,2.333 7.96,1.632 8.162,0.791 8.162,0.001 8.095,-0.811 7.852,-1.59 7.42,-2.253 6.966,-2.896 6.377,-3.421 5.698,-3.774 5.354,-3.911 4.971,-4.088 4.625,-4.123 4.449,-4.148 4.276,-4.174 4.104,-4.198 3.889,-4.209 3.735,-4.176 3.55,-4.166 2.832,-4.135 2.212,-3.811 1.695,-3.486 1.458,-3.29 1.237,-3.09 1.049,-2.888 0.887,-2.66 0.72,-2.456 0.593,-2.248 0.488,-2.026 0.391,-1.819 0.3,-1.628 0.231,-1.429 0.194,-1.235 0.14,-1.07 0.017,-0.739 0.055,-0.464 0.023,-0.282 0.009,-0.1 0,0 0,0 m 0.051,0.002 c 0,0 0.011,-0.096 0.033,-0.278 0.039,-0.178 0.014,-0.463 0.148,-0.776 0.056,-0.159 0.105,-0.34 0.196,-0.52 0.106,-0.172 0.222,-0.359 0.345,-0.557 0.143,-0.184 0.325,-0.354 0.497,-0.546 0.194,-0.169 0.426,-0.312 0.642,-0.486 0.492,-0.263 1.049,-0.518 1.687,-0.58 0.15,-0.014 0.337,-0.048 0.464,-0.047 0.173,0.01 0.348,0.02 0.525,0.03 0.183,-0.003 0.344,0.04 0.505,0.088 0.161,0.049 0.334,0.072 0.497,0.142 0.667,0.257 1.257,0.749 1.702,1.361 C 7.7,-1.522 7.893,-0.759 7.889,0.001 7.825,0.782 7.592,1.483 7.174,2.091 6.731,2.672 6.174,3.142 5.539,3.416 4.897,3.643 4.235,3.813 3.6,3.702 2.925,3.646 2.437,3.414 1.92,3.152 1.701,2.982 1.47,2.839 1.274,2.671 1.104,2.481 0.92,2.312 0.777,2.128 0.654,1.93 0.538,1.744 0.432,1.572 0.341,1.392 0.291,1.209 0.234,1.05 0.1,0.734 0.125,0.457 0.085,0.279 0.062,0.098 0.051,0.002 0.051,0.002"
             style="fill:#000000;fill-opacity:1;fill-rule:nonzero;stroke:none"
             id="path298"
             inkscape:connector-curvature="0" /></g><g
           id="g300"
           transform="translate(287.4062,180.1074)"><path
             d="m 0,0 c 0,0 -0.053,0.653 -0.1,1.795 -0.031,0.571 -0.03,1.264 -0.049,2.059 -0.045,0.792 0.021,1.692 0.1,2.675 0.091,0.981 0.153,2.051 0.32,3.167 0.205,1.11 0.488,2.267 0.749,3.464 0.295,1.192 0.67,2.403 0.94,3.66 0.118,0.633 0.318,1.25 0.489,1.877 L 2.927,20.6 c 0.346,1.263 0.75,2.513 1.18,3.732 0.493,1.194 0.93,2.394 1.483,3.498 0.271,0.565 0.5,1.092 0.82,1.647 0.295,0.508 0.594,1 0.889,1.476 0.592,0.951 1.119,1.861 1.711,2.657 0.612,0.786 1.168,1.507 1.682,2.125 0.489,0.64 1.019,1.106 1.413,1.522 0.407,0.407 0.727,0.723 0.971,0.915 0.237,0.196 0.364,0.301 0.364,0.301 l 0.067,-0.075 c 0,0 -0.103,-0.126 -0.297,-0.362 -0.203,-0.224 -0.472,-0.583 -0.806,-1.044 -0.318,-0.471 -0.799,-0.968 -1.197,-1.65 C 10.788,34.676 10.291,33.949 9.754,33.154 9.236,32.344 8.768,31.379 8.195,30.421 7.92,29.934 7.633,29.436 7.329,28.932 7.059,28.472 6.805,27.895 6.521,27.374 5.933,26.315 5.47,25.152 4.924,24.002 4.656,23.425 4.437,22.821 4.189,22.227 3.945,21.629 3.665,21.041 3.447,20.43 3.024,19.205 2.563,17.985 2.26,16.743 1.973,15.497 1.69,14.268 1.549,13.059 1.408,11.847 1.303,10.676 1.139,9.576 1.018,8.475 0.903,7.433 0.798,6.47 0.668,5.511 0.557,4.627 0.504,3.831 0.432,3.04 0.388,2.349 0.319,1.781 0.195,0.645 0.1,-0.004 0.1,-0.004 Z"
             style="fill:#2d2d2d;fill-opacity:1;fill-rule:nonzero;stroke:none"
             id="path302"
             inkscape:connector-curvature="0" /></g><g
           id="g304"
           transform="translate(274.1357,231.291)"><path
             d="m 0,0 c 0,0 0.157,-0.139 0.453,-0.396 0.291,-0.264 0.723,-0.637 1.229,-1.178 0.53,-0.52 1.087,-1.219 1.736,-2.017 0.303,-0.415 0.625,-0.856 0.965,-1.322 0.31,-0.485 0.636,-0.997 0.975,-1.53 0.308,-0.551 0.629,-1.126 0.961,-1.721 0.292,-0.615 0.628,-1.234 0.904,-1.903 0.57,-1.329 1.081,-2.765 1.552,-4.263 0.461,-1.499 0.936,-3.047 1.42,-4.621 0.474,-1.574 0.949,-3.178 1.393,-4.791 0.454,-1.612 0.833,-3.244 1.163,-4.859 0.344,-1.635 0.554,-3.217 0.826,-4.764 0.171,-1.565 0.369,-3.082 0.45,-4.52 0.093,-1.436 0.161,-2.796 0.171,-4.052 0.034,-1.254 0.039,-2.405 0,-3.425 -0.019,-1.019 -0.052,-1.908 -0.101,-2.638 -0.087,-1.463 -0.183,-2.29 -0.183,-2.29 l -0.1,-0.002 c 0,0 -0.038,0.835 -0.104,2.295 -0.039,0.727 -0.086,1.61 -0.141,2.624 -0.066,1.011 -0.142,2.152 -0.224,3.396 -0.065,1.246 -0.237,2.585 -0.344,4.008 -0.129,1.42 -0.319,2.902 -0.47,4.446 -0.224,1.541 -0.397,3.169 -0.679,4.757 -0.257,1.616 -0.552,3.25 -0.853,4.887 -0.309,1.635 -0.658,3.264 -1.115,4.837 -0.426,1.582 -0.961,3.107 -1.577,4.54 -0.589,1.443 -1.252,2.794 -1.867,4.074 -0.623,1.277 -1.228,2.473 -1.822,3.559 -0.309,0.535 -0.606,1.048 -0.889,1.536 -0.3,0.478 -0.584,0.931 -0.852,1.356 -0.562,0.834 -1.07,1.552 -1.515,2.12 -0.419,0.589 -0.807,1.018 -1.055,1.32 -0.247,0.305 -0.379,0.467 -0.379,0.467 z"
             style="fill:#2d2d2d;fill-opacity:1;fill-rule:nonzero;stroke:none"
             id="path306"
             inkscape:connector-curvature="0" /></g><g
           id="g308"
           transform="translate(301.2461,222.75)"><path
             d="m 0,0 c 0,9.033 8.643,5.887 2.655,-0.967 5.988,6.854 10.585,-1.109 1.413,-2.446 9.172,1.337 7.577,-7.72 -0.492,-2.782 8.069,-4.938 1.023,-10.85 -2.163,-1.816 3.186,-9.034 -6.01,-9.034 -2.825,0 -3.185,-9.034 -10.231,-3.122 -2.163,1.816 -8.068,-4.938 -9.663,4.119 -0.492,2.782 -9.171,1.337 -4.574,9.3 1.413,2.446 C -8.641,5.887 0,9.033 0,0"
             style="fill:#f8d4f8;fill-opacity:1;fill-rule:nonzero;stroke:none"
             id="path310"
             inkscape:connector-curvature="0" /></g><g
           id="g312"
           transform="translate(303.792,218.1436)"><path
             d="m 0,0 c 0,-1.405 -1.14,-2.545 -2.546,-2.545 -1.403,0 -2.543,1.14 -2.543,2.545 0,1.403 1.14,2.544 2.543,2.544 C -1.14,2.544 0,1.403 0,0"
             style="fill:#f8d4f8;fill-opacity:1;fill-rule:nonzero;stroke:none"
             id="path314"
             inkscape:connector-curvature="0" /></g><g
           id="g316"
           transform="translate(272.876,235.4727)"><path
             d="m 0,0 c 0,9.032 8.642,5.887 2.655,-0.968 5.987,6.855 10.584,-1.109 1.413,-2.446 9.171,1.337 7.576,-7.72 -0.492,-2.782 8.068,-4.938 1.022,-10.848 -2.163,-1.816 3.185,-9.032 -6.011,-9.032 -2.825,0 -3.186,-9.032 -10.232,-3.122 -2.163,1.816 -8.069,-4.938 -9.664,4.119 -0.492,2.782 -9.172,1.337 -4.575,9.301 1.413,2.446 C -8.642,5.887 0,9.032 0,0"
             style="fill:#f8d4f8;fill-opacity:1;fill-rule:nonzero;stroke:none"
             id="path318"
             inkscape:connector-curvature="0" /></g><g
           id="g320"
           transform="translate(275.4199,230.8652)"><path
             d="m 0,0 c 0,-1.405 -1.14,-2.543 -2.544,-2.543 -1.405,0 -2.545,1.138 -2.545,2.543 0,1.405 1.14,2.543 2.545,2.543 C -1.14,2.543 0,1.405 0,0"
             style="fill:#f8d4f8;fill-opacity:1;fill-rule:nonzero;stroke:none"
             id="path322"
             inkscape:connector-curvature="0" /></g><g
           id="g324"
           transform="translate(301.2334,222.75)"><path
             d="M 0,0 C -0.016,0.624 -0.043,1.25 -0.155,1.865 -0.253,2.48 -0.423,3.087 -0.686,3.65 -0.812,3.934 -0.968,4.207 -1.157,4.451 -1.336,4.705 -1.562,4.92 -1.805,5.11 -2.06,5.279 -2.333,5.439 -2.638,5.489 -2.937,5.548 -3.251,5.537 -3.539,5.436 -3.824,5.326 -4.071,5.135 -4.26,4.896 -4.457,4.66 -4.557,4.361 -4.635,4.068 -4.69,3.768 -4.718,3.458 -4.681,3.151 -4.659,2.845 -4.593,2.539 -4.498,2.246 -4.316,1.654 -4.042,1.092 -3.705,0.57 c 0.323,-0.53 0.718,-1.013 1.119,-1.488 l -0.111,-0.098 c -0.426,0.463 -0.861,0.92 -1.352,1.311 -0.481,0.402 -1.01,0.748 -1.577,1.002 -0.282,0.131 -0.577,0.236 -0.879,0.298 -0.3,0.076 -0.61,0.092 -0.914,0.081 -0.605,-0.036 -1.208,-0.319 -1.514,-0.834 -0.301,-0.52 -0.239,-1.182 0.061,-1.703 0.155,-0.26 0.338,-0.508 0.568,-0.712 0.219,-0.214 0.468,-0.402 0.734,-0.559 0.526,-0.323 1.104,-0.569 1.703,-0.748 0.594,-0.192 1.212,-0.308 1.83,-0.411 l -0.035,-0.244 c -0.633,0.078 -1.269,0.146 -1.905,0.128 -0.634,-0.002 -1.27,-0.079 -1.877,-0.247 -0.303,-0.08 -0.602,-0.189 -0.876,-0.334 -0.285,-0.133 -0.539,-0.317 -0.769,-0.521 -0.452,-0.409 -0.75,-1.013 -0.656,-1.608 0.099,-0.595 0.588,-1.064 1.167,-1.262 0.29,-0.098 0.596,-0.166 0.909,-0.172 0.31,-0.019 0.627,-0.002 0.937,0.051 1.252,0.188 2.427,0.753 3.518,1.404 l 0.122,-0.199 c -1.092,-0.685 -2.144,-1.488 -2.889,-2.537 -0.19,-0.257 -0.353,-0.535 -0.48,-0.825 -0.142,-0.285 -0.226,-0.594 -0.277,-0.903 -0.103,-0.612 0.049,-1.286 0.513,-1.688 0.47,-0.395 1.161,-0.43 1.74,-0.201 0.292,0.111 0.575,0.262 0.825,0.459 0.256,0.187 0.493,0.405 0.705,0.646 0.864,0.955 1.431,2.152 1.878,3.365 l 0.175,-0.063 c -0.421,-1.229 -0.74,-2.522 -0.67,-3.821 0.011,-0.325 0.057,-0.647 0.138,-0.958 0.071,-0.316 0.194,-0.617 0.351,-0.894 0.306,-0.555 0.869,-0.993 1.507,-1.003 0.637,0.006 1.206,0.443 1.515,0.997 0.159,0.279 0.285,0.58 0.358,0.896 0.082,0.311 0.131,0.636 0.144,0.96 0.075,1.302 -0.236,2.603 -0.653,3.838 l 0.096,0.033 c 0.441,-1.219 1.003,-2.423 1.871,-3.393 0.213,-0.244 0.451,-0.467 0.711,-0.659 0.254,-0.2 0.54,-0.357 0.84,-0.473 0.594,-0.235 1.319,-0.2 1.812,0.217 0.486,0.425 0.64,1.126 0.533,1.752 C 7.187,-10.234 7.1,-9.92 6.956,-9.631 6.825,-9.337 6.66,-9.056 6.468,-8.797 5.712,-7.74 4.652,-6.936 3.555,-6.251 L 3.623,-6.14 C 4.72,-6.791 5.9,-7.355 7.162,-7.543 c 0.313,-0.051 0.632,-0.068 0.946,-0.049 0.316,0.008 0.626,0.076 0.92,0.178 0.587,0.201 1.087,0.682 1.189,1.291 0.095,0.609 -0.212,1.223 -0.671,1.637 -0.233,0.205 -0.489,0.39 -0.775,0.523 -0.278,0.146 -0.579,0.254 -0.884,0.334 -0.61,0.168 -1.247,0.243 -1.883,0.244 -0.638,0.017 -1.275,-0.053 -1.907,-0.133 l -0.032,0.209 c 0.62,0.106 1.238,0.221 1.832,0.416 0.6,0.18 1.178,0.426 1.706,0.752 0.265,0.159 0.515,0.346 0.734,0.561 0.231,0.205 0.414,0.454 0.568,0.715 0.301,0.523 0.363,1.189 0.06,1.709 C 8.657,1.361 8.052,1.643 7.446,1.678 7.142,1.689 6.832,1.672 6.532,1.596 6.229,1.533 5.935,1.427 5.653,1.297 5.086,1.041 4.558,0.694 4.078,0.292 3.587,-0.099 3.153,-0.557 2.729,-1.02 l -0.121,0.106 c 0.4,0.475 0.793,0.959 1.116,1.49 0.336,0.521 0.609,1.083 0.79,1.674 0.093,0.293 0.16,0.598 0.18,0.902 C 4.73,3.458 4.702,3.766 4.647,4.065 4.568,4.356 4.47,4.652 4.273,4.887 4.087,5.122 3.842,5.312 3.56,5.419 3.273,5.519 2.964,5.53 2.667,5.473 2.364,5.424 2.094,5.266 1.84,5.099 1.599,4.91 1.371,4.697 1.192,4.444 1.003,4.201 0.848,3.929 0.72,3.646 0.456,3.084 0.284,2.479 0.186,1.863 0.071,1.25 0.043,0.625 0.025,0 Z M 0,0 C 0.01,0.625 0.029,1.253 0.137,1.872 0.228,2.492 0.393,3.104 0.651,3.678 0.777,3.966 0.932,4.244 1.123,4.496 1.302,4.758 1.532,4.98 1.78,5.179 2.042,5.356 2.323,5.525 2.644,5.582 2.958,5.648 3.292,5.641 3.6,5.533 3.905,5.419 4.171,5.216 4.372,4.963 4.583,4.714 4.69,4.4 4.774,4.094 4.835,3.78 4.864,3.458 4.829,3.142 4.81,2.824 4.742,2.51 4.647,2.209 4.466,1.603 4.189,1.027 3.852,0.496 3.526,-0.045 3.131,-0.536 2.729,-1.02 l -0.121,0.106 c 0.427,0.471 0.865,0.935 1.363,1.337 0.486,0.412 1.023,0.77 1.608,1.036 0.29,0.137 0.596,0.249 0.912,0.316 C 6.805,1.856 7.133,1.878 7.459,1.867 8.104,1.832 8.782,1.533 9.136,0.945 9.305,0.653 9.381,0.313 9.366,-0.02 9.362,-0.357 9.234,-0.674 9.088,-0.967 8.923,-1.249 8.727,-1.517 8.485,-1.734 8.255,-1.962 7.994,-2.16 7.719,-2.326 6.62,-3.014 5.349,-3.322 4.097,-3.518 l -0.032,0.209 c 0.644,0.079 1.291,0.147 1.942,0.125 0.649,-0.004 1.303,-0.084 1.931,-0.26 0.316,-0.085 0.627,-0.199 0.917,-0.353 0.297,-0.14 0.569,-0.336 0.816,-0.557 0.484,-0.441 0.825,-1.113 0.716,-1.797 C 10.327,-6.487 10.159,-6.797 9.926,-7.039 9.697,-7.291 9.391,-7.447 9.085,-7.566 8.771,-7.673 8.444,-7.742 8.117,-7.748 c -0.327,-0.02 -0.656,0 -0.977,0.055 -1.293,0.2 -2.482,0.779 -3.585,1.442 l 0.068,0.111 c 0.551,-0.355 1.098,-0.721 1.592,-1.155 0.504,-0.42 0.96,-0.902 1.341,-1.439 0.194,-0.265 0.361,-0.553 0.494,-0.855 0.144,-0.297 0.233,-0.62 0.287,-0.946 0.106,-0.647 -0.055,-1.385 -0.573,-1.832 -0.259,-0.216 -0.586,-0.338 -0.917,-0.367 -0.334,-0.04 -0.667,0.036 -0.977,0.144 -0.308,0.117 -0.602,0.277 -0.862,0.481 -0.265,0.193 -0.509,0.419 -0.726,0.666 -0.884,0.979 -1.454,2.191 -1.904,3.416 l 0.096,0.033 c 0.425,-1.24 0.747,-2.549 0.676,-3.878 -0.012,-0.331 -0.06,-0.663 -0.144,-0.983 -0.073,-0.326 -0.2,-0.639 -0.366,-0.93 -0.321,-0.58 -0.925,-1.061 -1.626,-1.07 -0.702,0.005 -1.312,0.484 -1.636,1.064 -0.168,0.291 -0.298,0.605 -0.373,0.931 -0.085,0.322 -0.135,0.655 -0.15,0.987 -0.078,1.332 0.238,2.646 0.658,3.894 l 0.175,-0.063 c -0.444,-1.229 -1.009,-2.45 -1.896,-3.444 -0.218,-0.25 -0.463,-0.481 -0.731,-0.68 -0.263,-0.207 -0.562,-0.372 -0.878,-0.493 -0.319,-0.112 -0.662,-0.19 -1.009,-0.149 -0.344,0.033 -0.686,0.162 -0.956,0.388 -0.542,0.469 -0.703,1.234 -0.593,1.894 0.056,0.333 0.146,0.663 0.294,0.963 0.135,0.306 0.306,0.597 0.502,0.864 0.386,0.543 0.847,1.025 1.354,1.447 0.498,0.436 1.047,0.801 1.601,1.156 l 0.122,-0.199 c -1.108,-0.662 -2.303,-1.242 -3.605,-1.44 -0.324,-0.054 -0.655,-0.074 -0.985,-0.054 -0.331,0.007 -0.662,0.078 -0.979,0.186 -0.311,0.123 -0.62,0.283 -0.854,0.539 -0.237,0.248 -0.409,0.564 -0.469,0.907 -0.11,0.7 0.24,1.382 0.73,1.826 0.25,0.222 0.523,0.419 0.823,0.56 0.292,0.154 0.606,0.267 0.922,0.351 0.633,0.178 1.287,0.256 1.939,0.259 0.652,0.018 1.299,-0.05 1.943,-0.13 l -0.035,-0.244 c -1.254,0.197 -2.527,0.51 -3.625,1.201 -0.276,0.166 -0.536,0.365 -0.768,0.594 -0.242,0.218 -0.438,0.486 -0.603,0.77 -0.146,0.293 -0.274,0.611 -0.278,0.95 -0.013,0.334 0.063,0.675 0.234,0.967 0.354,0.589 1.033,0.889 1.68,0.922 0.327,0.01 0.655,-0.012 0.967,-0.094 0.317,-0.067 0.622,-0.179 0.912,-0.316 0.584,-0.268 1.121,-0.626 1.607,-1.039 0.497,-0.4 0.933,-0.867 1.36,-1.338 l -0.111,-0.098 c -0.402,0.485 -0.796,0.977 -1.12,1.518 -0.337,0.53 -0.612,1.105 -0.792,1.711 -0.094,0.301 -0.161,0.613 -0.18,0.93 -0.035,0.315 -0.005,0.635 0.056,0.947 0.084,0.306 0.19,0.616 0.4,0.863 0.199,0.25 0.463,0.451 0.765,0.563 0.305,0.105 0.635,0.114 0.947,0.05 C -2.304,5.51 -2.023,5.344 -1.763,5.167 -1.516,4.971 -1.286,4.748 -1.106,4.489 -0.916,4.238 -0.761,3.961 -0.635,3.674 -0.374,3.102 -0.208,2.49 -0.116,1.871 -0.008,1.253 0.015,0.625 0.025,0 Z"
             style="fill:#2d2d2d;fill-opacity:1;fill-rule:nonzero;stroke:none"
             id="path326"
             inkscape:connector-curvature="0" /></g><g
           id="g328"
           transform="translate(303.792,218.1436)"><path
             d="m 0,0 c 0,-1.405 -1.14,-2.545 -2.546,-2.545 -1.403,0 -2.543,1.14 -2.543,2.545 0,1.403 1.14,2.544 2.543,2.544 C -1.14,2.544 0,1.403 0,0"
             style="fill:#ffffff;fill-opacity:1;fill-rule:nonzero;stroke:none"
             id="path330"
             inkscape:connector-curvature="0" /></g><g
           id="g332"
           transform="translate(272.8633,235.4727)"><path
             d="M 0,0 C -0.016,0.624 -0.042,1.25 -0.156,1.865 -0.252,2.48 -0.423,3.087 -0.686,3.65 -0.813,3.934 -0.968,4.207 -1.157,4.451 -1.336,4.705 -1.563,4.92 -1.806,5.109 -2.061,5.279 -2.333,5.438 -2.638,5.488 -2.938,5.548 -3.251,5.537 -3.54,5.435 -3.825,5.326 -4.072,5.134 -4.26,4.895 -4.458,4.659 -4.557,4.36 -4.635,4.067 -4.69,3.767 -4.718,3.457 -4.681,3.15 -4.66,2.844 -4.593,2.539 -4.499,2.245 -4.317,1.654 -4.042,1.091 -3.705,0.57 c 0.324,-0.531 0.718,-1.014 1.119,-1.49 l -0.111,-0.096 c -0.426,0.462 -0.861,0.92 -1.352,1.31 -0.481,0.401 -1.01,0.748 -1.578,1.003 -0.281,0.13 -0.577,0.235 -0.879,0.297 -0.3,0.076 -0.609,0.093 -0.914,0.082 -0.604,-0.037 -1.208,-0.319 -1.514,-0.835 -0.301,-0.519 -0.238,-1.182 0.062,-1.704 0.155,-0.259 0.337,-0.508 0.567,-0.711 0.219,-0.213 0.469,-0.401 0.734,-0.559 0.527,-0.324 1.105,-0.57 1.703,-0.748 0.595,-0.193 1.213,-0.307 1.831,-0.41 l -0.036,-0.246 c -0.632,0.079 -1.268,0.147 -1.904,0.129 -0.635,-0.002 -1.27,-0.078 -1.877,-0.248 -0.303,-0.08 -0.602,-0.188 -0.877,-0.333 -0.284,-0.132 -0.538,-0.318 -0.769,-0.521 -0.452,-0.41 -0.75,-1.013 -0.656,-1.609 0.1,-0.594 0.588,-1.063 1.167,-1.26 0.29,-0.1 0.596,-0.168 0.909,-0.174 0.311,-0.018 0.628,0 0.938,0.051 1.252,0.19 2.427,0.754 3.518,1.405 l 0.123,-0.199 c -1.093,-0.684 -2.145,-1.488 -2.89,-2.536 -0.191,-0.258 -0.353,-0.535 -0.481,-0.826 -0.141,-0.285 -0.226,-0.593 -0.277,-0.902 -0.103,-0.613 0.05,-1.286 0.513,-1.688 0.47,-0.395 1.162,-0.43 1.74,-0.201 0.293,0.111 0.575,0.261 0.825,0.459 0.257,0.186 0.494,0.404 0.705,0.645 0.865,0.955 1.432,2.152 1.878,3.365 l 0.177,-0.063 c -0.423,-1.228 -0.741,-2.522 -0.672,-3.821 0.011,-0.324 0.058,-0.646 0.139,-0.958 0.07,-0.315 0.193,-0.616 0.35,-0.893 0.307,-0.555 0.869,-0.992 1.507,-1.002 0.637,0.006 1.205,0.442 1.515,0.996 0.16,0.279 0.285,0.58 0.358,0.895 0.083,0.312 0.131,0.637 0.144,0.961 0.076,1.302 -0.235,2.602 -0.652,3.836 l 0.096,0.034 c 0.441,-1.218 1.003,-2.423 1.871,-3.393 0.212,-0.244 0.451,-0.466 0.71,-0.659 0.254,-0.2 0.541,-0.357 0.841,-0.473 0.593,-0.234 1.318,-0.199 1.812,0.218 0.486,0.425 0.639,1.126 0.532,1.751 -0.053,0.317 -0.14,0.63 -0.284,0.92 -0.131,0.293 -0.296,0.574 -0.489,0.834 -0.756,1.057 -1.815,1.86 -2.912,2.545 l 0.068,0.111 c 1.097,-0.65 2.277,-1.215 3.539,-1.403 0.313,-0.051 0.632,-0.069 0.946,-0.048 0.316,0.006 0.626,0.075 0.92,0.177 0.587,0.201 1.087,0.682 1.188,1.29 0.095,0.611 -0.212,1.225 -0.67,1.637 C 9.313,-4.282 9.056,-4.097 8.77,-3.965 8.492,-3.818 8.192,-3.711 7.887,-3.631 7.277,-3.463 6.64,-3.387 6.003,-3.387 5.366,-3.369 4.729,-3.439 4.097,-3.52 l -0.031,0.211 c 0.619,0.104 1.237,0.221 1.832,0.414 0.599,0.18 1.177,0.428 1.704,0.753 0.266,0.159 0.516,0.347 0.735,0.561 0.23,0.204 0.413,0.454 0.568,0.715 0.3,0.524 0.362,1.189 0.059,1.71 C 8.656,1.361 8.051,1.643 7.446,1.678 7.141,1.689 6.831,1.672 6.531,1.595 6.229,1.533 5.934,1.426 5.653,1.295 5.085,1.041 4.558,0.693 4.078,0.291 3.587,-0.1 3.153,-0.557 2.728,-1.02 l -0.12,0.105 c 0.4,0.476 0.793,0.96 1.116,1.489 0.336,0.522 0.609,1.084 0.789,1.674 0.094,0.293 0.16,0.598 0.18,0.904 C 4.73,3.457 4.702,3.766 4.646,4.064 4.568,4.355 4.469,4.652 4.273,4.885 4.086,5.121 3.841,5.311 3.559,5.418 3.274,5.518 2.964,5.529 2.667,5.473 2.365,5.424 2.094,5.266 1.84,5.099 1.598,4.91 1.371,4.697 1.192,4.444 1.003,4.201 0.848,3.929 0.72,3.646 0.456,3.084 0.284,2.479 0.186,1.863 0.071,1.25 0.043,0.625 0.025,0 Z M 0,0 C 0.01,0.625 0.03,1.253 0.137,1.872 0.228,2.492 0.392,3.104 0.652,3.678 0.778,3.965 0.932,4.244 1.123,4.496 1.302,4.757 1.533,4.98 1.781,5.179 2.042,5.355 2.324,5.525 2.644,5.582 2.958,5.647 3.292,5.64 3.6,5.532 3.906,5.418 4.171,5.215 4.372,4.963 4.583,4.713 4.69,4.4 4.774,4.094 4.834,3.779 4.864,3.457 4.829,3.141 4.809,2.823 4.742,2.51 4.647,2.208 4.466,1.602 4.189,1.026 3.851,0.496 3.526,-0.045 3.13,-0.537 2.728,-1.02 l -0.12,0.105 C 3.035,-0.444 3.472,0.021 3.97,0.422 4.457,0.834 4.994,1.192 5.579,1.459 5.869,1.596 6.175,1.707 6.491,1.774 6.804,1.855 7.132,1.877 7.458,1.866 8.104,1.832 8.782,1.531 9.135,0.944 9.304,0.652 9.38,0.312 9.366,-0.021 9.362,-0.358 9.234,-0.675 9.088,-0.967 8.922,-1.25 8.727,-1.518 8.485,-1.734 8.254,-1.963 7.994,-2.16 7.718,-2.326 6.62,-3.015 5.349,-3.324 4.097,-3.52 l -0.031,0.211 c 0.643,0.079 1.29,0.145 1.941,0.125 0.649,-0.004 1.302,-0.084 1.931,-0.261 0.315,-0.084 0.626,-0.198 0.917,-0.352 0.297,-0.141 0.568,-0.337 0.815,-0.557 0.485,-0.441 0.826,-1.115 0.716,-1.798 C 10.327,-6.488 10.158,-6.798 9.925,-7.04 9.696,-7.291 9.391,-7.447 9.084,-7.568 8.771,-7.674 8.444,-7.744 8.116,-7.75 7.79,-7.77 7.46,-7.748 7.14,-7.694 c -1.293,0.2 -2.482,0.78 -3.585,1.442 l 0.068,0.111 C 4.726,-6.838 5.792,-7.654 6.555,-8.734 6.75,-9 6.917,-9.287 7.049,-9.59 c 0.145,-0.297 0.234,-0.62 0.287,-0.946 0.106,-0.647 -0.054,-1.384 -0.573,-1.831 -0.259,-0.216 -0.586,-0.338 -0.917,-0.368 -0.334,-0.04 -0.666,0.037 -0.976,0.145 -0.309,0.117 -0.603,0.277 -0.862,0.48 -0.266,0.194 -0.509,0.42 -0.726,0.667 -0.884,0.978 -1.454,2.19 -1.904,3.414 l 0.096,0.034 c 0.425,-1.241 0.747,-2.549 0.675,-3.878 -0.012,-0.33 -0.06,-0.662 -0.144,-0.983 -0.072,-0.325 -0.2,-0.638 -0.366,-0.929 -0.32,-0.58 -0.925,-1.061 -1.626,-1.069 -0.701,0.004 -1.311,0.483 -1.635,1.063 -0.168,0.291 -0.298,0.605 -0.373,0.931 -0.086,0.322 -0.136,0.655 -0.15,0.986 -0.078,1.333 0.238,2.647 0.657,3.894 l 0.177,-0.063 c -0.445,-1.23 -1.01,-2.449 -1.898,-3.443 -0.217,-0.251 -0.463,-0.481 -0.731,-0.68 -0.263,-0.207 -0.562,-0.372 -0.878,-0.494 -0.318,-0.111 -0.662,-0.19 -1.009,-0.148 -0.344,0.033 -0.686,0.161 -0.956,0.388 -0.542,0.469 -0.703,1.234 -0.592,1.894 0.055,0.333 0.146,0.663 0.294,0.963 0.135,0.305 0.305,0.596 0.502,0.864 0.386,0.541 0.847,1.025 1.354,1.446 0.498,0.436 1.048,0.802 1.601,1.156 l 0.123,-0.199 c -1.109,-0.662 -2.304,-1.242 -3.606,-1.44 -0.324,-0.054 -0.656,-0.075 -0.986,-0.054 -0.33,0.007 -0.661,0.077 -0.978,0.186 -0.311,0.123 -0.621,0.282 -0.855,0.54 -0.237,0.246 -0.408,0.562 -0.468,0.906 -0.111,0.699 0.239,1.382 0.729,1.826 0.25,0.222 0.524,0.419 0.823,0.56 0.293,0.155 0.606,0.268 0.923,0.352 0.632,0.176 1.287,0.255 1.938,0.258 0.652,0.019 1.3,-0.05 1.944,-0.129 l -0.036,-0.246 c -1.253,0.199 -2.526,0.511 -3.625,1.201 -0.276,0.167 -0.536,0.365 -0.767,0.595 -0.242,0.218 -0.438,0.487 -0.604,0.77 -0.146,0.293 -0.274,0.611 -0.278,0.95 -0.013,0.334 0.063,0.675 0.234,0.968 0.355,0.588 1.034,0.888 1.68,0.922 0.327,0.01 0.655,-0.012 0.968,-0.094 0.317,-0.068 0.622,-0.179 0.912,-0.316 0.584,-0.268 1.121,-0.627 1.607,-1.039 0.497,-0.402 0.933,-0.868 1.36,-1.34 l -0.111,-0.096 c -0.402,0.483 -0.796,0.975 -1.12,1.516 -0.337,0.531 -0.612,1.105 -0.793,1.711 -0.094,0.301 -0.16,0.614 -0.18,0.931 -0.035,0.315 -0.004,0.635 0.056,0.948 0.084,0.305 0.19,0.615 0.4,0.863 0.199,0.25 0.463,0.45 0.765,0.563 0.305,0.105 0.635,0.113 0.947,0.049 C -2.305,5.51 -2.024,5.343 -1.764,5.167 -1.517,4.971 -1.287,4.748 -1.107,4.489 -0.916,4.238 -0.762,3.961 -0.635,3.674 -0.375,3.102 -0.208,2.49 -0.116,1.871 -0.007,1.254 0.014,0.625 0.025,0 Z"
             style="fill:#2d2d2d;fill-opacity:1;fill-rule:nonzero;stroke:none"
             id="path334"
             inkscape:connector-curvature="0" /></g><g
           id="g336"
           transform="translate(275.4199,230.8652)"><path
             d="m 0,0 c 0,-1.405 -1.14,-2.543 -2.544,-2.543 -1.405,0 -2.545,1.138 -2.545,2.543 0,1.405 1.14,2.543 2.545,2.543 C -1.14,2.543 0,1.405 0,0"
             style="fill:#ffffff;fill-opacity:1;fill-rule:nonzero;stroke:none"
             id="path338"
             inkscape:connector-curvature="0" /></g><g
           id="g340"
           transform="translate(298.9824,177.1982)"><path
             d="m 0,0 0.819,-2.042 c 0.303,-0.672 0.432,-1.401 0.657,-2.101 0.097,-0.353 0.211,-0.704 0.295,-1.061 l 0.205,-1.083 c 0.13,-0.724 0.317,-1.442 0.351,-2.18 0.057,-0.734 0.157,-1.469 0.177,-2.207 l -0.018,-2.22 c -0.032,-0.739 -0.148,-1.473 -0.219,-2.212 -0.045,-0.745 -0.263,-1.467 -0.418,-2.201 l -0.253,-1.097 c -0.097,-0.359 -0.229,-0.697 -0.342,-1.046 -0.25,-0.7 -0.436,-1.372 -0.738,-2.095 l -1.681,-4.056 c -1.129,-2.701 -2.224,-5.416 -3.386,-8.102 l -0.137,-0.319 -0.336,0.003 -11.917,0.108 -0.276,0.003 -0.098,0.247 -3.63,9.136 -0.908,2.283 c -0.314,0.756 -0.622,1.515 -0.88,2.302 -0.267,0.78 -0.579,1.545 -0.735,2.358 l -0.289,1.201 -0.152,0.6 -0.091,0.61 c -0.104,0.817 -0.283,1.627 -0.323,2.451 -0.031,0.824 -0.09,1.649 -0.098,2.473 l 0.107,2.477 0.356,2.459 c 0.155,0.815 0.395,1.62 0.591,2.433 0.197,0.817 0.537,1.553 0.803,2.332 l 0.218,0.574 c 0.089,0.232 0.167,0.387 0.252,0.584 l 0.496,1.124 0.994,2.248 0.114,0.26 0.291,0.002 c 1.536,0.013 3.072,-0.029 4.608,-0.041 1.536,-0.011 3.072,-0.049 4.609,-0.096 l 4.607,-0.124 c 1.536,-0.04 3.072,-0.09 4.608,-0.093 h 0.059 L -1.685,3.839 Z M -0.092,-0.041 -1.849,3.765 -1.767,3.712 C -3.303,3.709 -4.839,3.658 -6.375,3.618 l -4.607,-0.124 c -1.537,-0.047 -3.073,-0.085 -4.609,-0.096 -1.536,-0.011 -3.072,-0.053 -4.608,-0.041 l 0.405,0.262 -1.022,-2.234 -0.512,-1.117 c -0.079,-0.179 -0.183,-0.39 -0.242,-0.541 l -0.226,-0.572 c -0.287,-0.76 -0.674,-1.509 -0.887,-2.278 -0.217,-0.772 -0.48,-1.531 -0.663,-2.316 l -0.451,-2.39 -0.209,-2.427 c -0.024,-0.811 0.034,-1.624 0.046,-2.437 0.025,-0.814 0.19,-1.616 0.277,-2.424 0.063,-0.816 0.342,-1.591 0.518,-2.385 0.165,-0.8 0.482,-1.553 0.756,-2.319 0.523,-1.537 1.258,-3.02 1.894,-4.526 l 3.948,-9.003 -0.374,0.249 11.917,0.108 -0.474,-0.315 c 1.095,2.715 2.257,5.402 3.386,8.103 l 1.704,4.047 c 0.281,0.62 0.524,1.35 0.788,2.021 0.124,0.343 0.271,0.684 0.376,1.028 l 0.272,1.034 c 0.176,0.691 0.395,1.373 0.488,2.092 0.11,0.712 0.266,1.42 0.34,2.139 l 0.146,2.168 c 0.02,0.724 -0.041,1.448 -0.057,2.175 0.006,0.731 -0.14,1.445 -0.231,2.168 l -0.157,1.082 c -0.076,0.356 -0.181,0.706 -0.27,1.06 -0.208,0.697 -0.32,1.426 -0.606,2.1 z"
             style="fill:#2d2d2d;fill-opacity:1;fill-rule:nonzero;stroke:none"
             id="path342"
             inkscape:connector-curvature="0" /></g><g
           id="g344"
           transform="translate(436.5186,270.4424)"><path
             d="M 0,0 C 0,0 3.346,1.775 5.975,-1.832 8.604,-5.439 3.553,-9.12 0.203,-6.039 -3.147,-2.957 0,0 0,0"
             style="fill:#ffffff;fill-opacity:1;fill-rule:nonzero;stroke:none"
             id="path346"
             inkscape:connector-curvature="0" /></g></g></g></g></svg>