<?xml version="1.0" encoding="UTF-8" standalone="no"?>
<!-- Created with Inkscape (http://www.inkscape.org/) -->

<svg
   xmlns:dc="http://purl.org/dc/elements/1.1/"
   xmlns:cc="http://creativecommons.org/ns#"
   xmlns:rdf="http://www.w3.org/1999/02/22-rdf-syntax-ns#"
   xmlns:svg="http://www.w3.org/2000/svg"
   xmlns="http://www.w3.org/2000/svg"
   xmlns:sodipodi="http://sodipodi.sourceforge.net/DTD/sodipodi-0.dtd"
   xmlns:inkscape="http://www.inkscape.org/namespaces/inkscape"
   version="1.1"
   id="svg2"
   xml:space="preserve"
   width="1333.3333"
   height="1333.3333"
   viewBox="0 0 1333.3333 1333.3333"
   sodipodi:docname="sun.svg"
   inkscape:version="0.92.2 5c3e80d, 2017-08-06"><metadata
     id="metadata8"><rdf:RDF><cc:Work
         rdf:about=""><dc:format>image/svg+xml</dc:format><dc:type
           rdf:resource="http://purl.org/dc/dcmitype/StillImage" /><dc:title></dc:title></cc:Work></rdf:RDF></metadata><defs
     id="defs6"><clipPath
       clipPathUnits="userSpaceOnUse"
       id="clipPath18"><path
         d="M 0,1000 H 1000 V 0 H 0 Z"
         id="path16"
         inkscape:connector-curvature="0" /></clipPath><clipPath
       clipPathUnits="userSpaceOnUse"
       id="clipPath66"><path
         d="M 0,1000 H 1000 V 0 H 0 Z"
         id="path64"
         inkscape:connector-curvature="0" /></clipPath></defs><sodipodi:namedview
     pagecolor="#ffffff"
     bordercolor="#666666"
     borderopacity="1"
     objecttolerance="10"
     gridtolerance="10"
     guidetolerance="10"
     inkscape:pageopacity="0"
     inkscape:pageshadow="2"
     inkscape:window-width="1920"
     inkscape:window-height="1029"
     id="namedview4"
     showgrid="false"
     inkscape:zoom="0.58423832"
     inkscape:cx="356.00573"
     inkscape:cy="666.66663"
     inkscape:window-x="0"
     inkscape:window-y="24"
     inkscape:window-maximized="1"
     inkscape:current-layer="g10" /><g
     id="g10"
     inkscape:groupmode="layer"
     inkscape:label="sun"
     transform="matrix(1.3333333,0,0,-1.3333333,0,1333.3333)"><g
       id="g1017"
       transform="translate(16.463032)"><g
         id="g12"><g
           clip-path="url(#clipPath18)"
           id="g14"><g
             transform="translate(283.7095,554.1509)"
             id="g20"><path
               inkscape:connector-curvature="0"
               id="path22"
               style="fill:#fff168;fill-opacity:1;fill-rule:nonzero;stroke:none"
               d="M 0,0 C 0,0 13.474,113.046 138.588,145.865 263.703,178.684 406.14,91.166 411.916,-34.643 417.689,-160.45 317.599,-295.375 153.987,-258.909 153.987,-258.909 -23.098,-198.739 0,0" /></g><g
             transform="translate(695.3848,502.4077)"
             id="g24"><path
               inkscape:connector-curvature="0"
               id="path26"
               style="fill:#353535;fill-opacity:1;fill-rule:nonzero;stroke:none"
               d="m 0,0 c 0,0 -0.037,1.312 -0.107,3.855 -0.036,1.273 -0.08,2.852 -0.131,4.729 -0.041,0.937 -0.024,1.953 -0.116,3.035 -0.085,1.083 -0.175,2.239 -0.273,3.466 -0.66,9.804 -2.273,24.266 -7.348,41.941 -0.644,2.203 -1.306,4.465 -1.986,6.785 -0.791,2.284 -1.6,4.626 -2.428,7.022 -0.787,2.412 -1.808,4.8 -2.804,7.257 -1.016,2.449 -1.961,4.989 -3.182,7.472 -4.475,10.109 -10.25,20.624 -17.365,31.206 -7.112,10.582 -15.655,21.187 -25.715,31.315 -10.061,10.12 -21.635,19.773 -34.703,28.343 -13.09,8.525 -27.623,16.023 -43.379,21.903 -15.748,5.898 -32.779,9.931 -50.52,11.96 -2.216,0.326 -4.436,0.437 -6.663,0.608 -2.232,0.157 -4.455,0.348 -6.712,0.479 -2.289,0.052 -4.586,0.105 -6.891,0.157 -1.151,0.027 -2.305,0.053 -3.461,0.079 -0.205,0.002 -0.208,0.011 -0.365,0.004 l -0.428,-0.012 -0.857,-0.024 -1.716,-0.049 c -2.29,-0.058 -4.587,-0.117 -6.89,-0.176 -2.302,-0.084 -4.603,-0.324 -6.915,-0.479 -4.633,-0.245 -9.245,-0.953 -13.897,-1.52 -9.253,-1.452 -18.579,-3.254 -27.746,-6.003 -4.633,-1.205 -9.14,-2.89 -13.732,-4.382 -2.265,-0.832 -4.505,-1.747 -6.768,-2.619 l -3.391,-1.327 -3.329,-1.494 c -17.855,-7.802 -34.859,-18.349 -50.298,-31.169 -1.902,-1.637 -3.806,-3.277 -5.714,-4.918 -1.884,-1.667 -3.671,-3.448 -5.517,-5.17 -0.912,-0.872 -1.842,-1.727 -2.741,-2.615 l -2.626,-2.738 -2.63,-2.742 c -0.881,-0.912 -1.766,-1.821 -2.581,-2.794 -1.668,-1.913 -3.338,-3.829 -5.01,-5.747 -1.655,-1.932 -3.179,-3.977 -4.778,-5.963 -0.787,-1.004 -1.592,-1.994 -2.367,-3.009 l -2.232,-3.115 -2.24,-3.115 c -0.751,-1.037 -1.506,-2.072 -2.182,-3.161 -22.964,-33.974 -35.93,-75.43 -36.219,-117.276 0.061,-10.452 0.632,-20.911 2.085,-31.268 0.322,-2.594 0.85,-5.154 1.264,-7.734 l 0.662,-3.862 0.849,-3.824 c 0.593,-2.543 1.088,-5.109 1.759,-7.631 l 2.088,-7.543 c 0.329,-1.263 0.744,-2.5 1.166,-3.732 l 1.244,-3.707 1.243,-3.703 c 0.439,-1.227 0.939,-2.43 1.405,-3.645 0.967,-2.416 1.855,-4.863 2.885,-7.25 1.065,-2.371 2.129,-4.74 3.193,-7.109 0.509,-1.196 1.095,-2.354 1.692,-3.504 l 1.764,-3.467 1.763,-3.465 c 0.614,-1.14 1.278,-2.254 1.913,-3.381 1.303,-2.236 2.527,-4.517 3.892,-6.711 1.389,-2.179 2.776,-4.357 4.163,-6.531 0.673,-1.101 1.423,-2.15 2.171,-3.199 l 2.231,-3.154 2.237,-3.145 c 0.779,-1.023 1.588,-2.021 2.379,-3.033 1.609,-2.002 3.141,-4.065 4.805,-6.012 1.682,-1.933 3.361,-3.865 5.038,-5.795 6.897,-7.541 14.15,-14.709 21.973,-21.117 15.561,-12.904 32.769,-23.394 50.767,-31.146 l 3.357,-1.483 3.418,-1.316 c 2.281,-0.865 4.539,-1.772 6.822,-2.596 4.624,-1.478 9.166,-3.141 13.834,-4.311 9.235,-2.687 18.619,-4.423 27.919,-5.806 4.674,-0.531 9.318,-1.203 13.939,-1.41 2.316,-0.137 4.596,-0.358 6.92,-0.426 2.332,-0.041 4.658,-0.082 6.977,-0.125 1.135,-0.016 2.373,-0.065 3.417,-0.055 1.144,0.035 2.287,0.069 3.427,0.104 2.282,0.068 4.556,0.135 6.823,0.203 2.262,0.146 4.513,0.355 6.76,0.527 2.244,0.19 4.486,0.319 6.699,0.66 17.764,2.125 34.805,6.211 50.553,12.161 15.758,5.927 30.281,13.466 43.367,22.013 13.055,8.604 24.633,18.26 34.688,28.393 10.058,10.138 18.588,20.758 25.701,31.342 7.115,10.584 12.89,21.103 17.363,31.214 1.223,2.485 2.166,5.026 3.182,7.475 0.996,2.457 2.015,4.846 2.804,7.258 0.829,2.396 1.637,4.74 2.424,7.025 0.68,2.321 1.342,4.582 1.987,6.785 5.07,17.678 6.671,32.151 7.326,41.946 0.095,1.226 0.185,2.383 0.269,3.465 0.09,1.082 0.075,2.099 0.114,3.037 0.05,1.879 0.093,3.461 0.127,4.734 C -0.035,-1.309 0,0.006 0,0.006 Z m 0.5,-0.007 c 0,0 -0.031,-1.314 -0.092,-3.862 -0.029,-1.273 -0.066,-2.853 -0.111,-4.734 -0.035,-0.939 -0.016,-1.953 -0.102,-3.041 -0.08,-1.086 -0.166,-2.246 -0.257,-3.477 -0.625,-9.845 -2.215,-24.326 -7.034,-42.148 -0.621,-2.221 -1.258,-4.502 -1.912,-6.842 -0.763,-2.305 -1.547,-4.668 -2.349,-7.086 -0.741,-2.441 -1.711,-4.863 -2.661,-7.355 -0.968,-2.485 -1.865,-5.065 -3.041,-7.588 -4.283,-10.274 -9.875,-20.998 -16.832,-31.844 -6.961,-10.836 -15.338,-21.781 -25.31,-32.287 -4.961,-5.277 -10.383,-10.373 -16.133,-15.361 -1.398,-1.297 -2.937,-2.44 -4.424,-3.66 -1.504,-1.206 -3.015,-2.418 -4.535,-3.635 -1.549,-1.18 -3.158,-2.297 -4.748,-3.459 -1.607,-1.137 -3.178,-2.348 -4.842,-3.44 -6.637,-4.39 -13.533,-8.73 -20.922,-12.496 -1.841,-0.947 -3.695,-1.9 -5.554,-2.857 -1.905,-0.867 -3.817,-1.738 -5.739,-2.615 -3.804,-1.836 -7.816,-3.289 -11.797,-4.905 -1.978,-0.842 -4.052,-1.453 -6.093,-2.179 -2.053,-0.692 -4.102,-1.428 -6.19,-2.073 -2.101,-0.593 -4.213,-1.191 -6.33,-1.791 -1.06,-0.299 -2.121,-0.599 -3.185,-0.9 -1.071,-0.272 -2.155,-0.502 -3.235,-0.756 -2.162,-0.498 -4.332,-0.996 -6.511,-1.496 -2.182,-0.488 -4.405,-0.813 -6.618,-1.227 -1.107,-0.197 -2.218,-0.394 -3.332,-0.591 l -1.67,-0.297 -1.685,-0.213 c -2.25,-0.278 -4.508,-0.557 -6.774,-0.836 -2.261,-0.326 -4.552,-0.44 -6.843,-0.611 -2.293,-0.157 -4.591,-0.346 -6.899,-0.475 -2.313,-0.049 -4.632,-0.098 -6.958,-0.145 -1.163,-0.025 -2.328,-0.048 -3.495,-0.072 -1.267,0.004 -2.344,0.061 -3.528,0.088 -2.318,0.076 -4.642,0.15 -6.974,0.227 -2.338,0.105 -4.718,0.371 -7.084,0.55 -4.76,0.295 -9.456,1.055 -14.203,1.676 -9.439,1.565 -18.942,3.49 -28.272,6.375 -4.716,1.266 -9.299,3.029 -13.958,4.612 -2.3,0.875 -4.574,1.833 -6.869,2.75 l -3.439,1.392 -3.375,1.561 c -18.101,8.154 -35.237,19.115 -50.823,32.236 -1.917,1.678 -3.837,3.359 -5.76,5.043 -1.899,1.707 -3.697,3.531 -5.559,5.291 -0.921,0.889 -1.861,1.762 -2.769,2.668 l -2.652,2.791 -2.655,2.795 c -0.888,0.93 -1.782,1.855 -2.604,2.848 -6.901,7.654 -13.109,15.96 -18.973,24.533 -1.409,2.183 -2.818,4.371 -4.228,6.558 -1.386,2.203 -2.631,4.494 -3.955,6.742 -0.647,1.131 -1.321,2.25 -1.945,3.397 l -1.795,3.48 -1.796,3.487 c -0.608,1.158 -1.204,2.322 -1.724,3.523 -1.084,2.383 -2.169,4.766 -3.255,7.153 -1.05,2.4 -1.959,4.863 -2.946,7.294 -0.477,1.223 -0.987,2.434 -1.437,3.666 l -1.272,3.731 -1.273,3.732 c -0.433,1.241 -0.857,2.487 -1.196,3.758 l -2.207,7.584 c -0.712,2.535 -1.249,5.117 -1.883,7.678 l -0.911,3.85 -0.723,3.89 c -0.455,2.6 -1.024,5.182 -1.386,7.799 -1.614,10.447 -2.34,21.02 -2.548,31.602 l 0.136,7.923 c 0.041,1.317 0.005,2.623 0.109,3.95 l 0.269,3.975 0.271,3.975 0.135,1.989 c 0.053,0.661 0.149,1.315 0.222,1.973 l 0.939,7.887 c 0.323,2.627 0.855,5.223 1.273,7.836 l 0.667,3.914 0.856,3.875 c 0.597,2.576 1.098,5.177 1.774,7.733 l 2.108,7.645 c 0.33,1.281 0.747,2.534 1.171,3.785 l 1.25,3.759 1.25,3.757 c 0.442,1.243 0.945,2.463 1.414,3.696 0.973,2.451 1.868,4.934 2.905,7.356 1.073,2.407 2.145,4.811 3.216,7.215 0.515,1.212 1.104,2.387 1.706,3.557 l 1.779,3.519 1.779,3.517 c 0.619,1.157 1.288,2.287 1.929,3.432 1.315,2.27 2.551,4.586 3.928,6.814 1.402,2.213 2.803,4.424 4.203,6.633 0.68,1.119 1.438,2.183 2.193,3.25 l 2.253,3.204 2.257,3.198 c 0.783,1.041 1.599,2.058 2.396,3.088 1.621,2.039 3.167,4.136 4.845,6.12 1.696,1.969 3.39,3.937 5.082,5.902 0.828,0.999 1.727,1.933 2.62,2.871 l 2.67,2.818 2.668,2.814 c 0.913,0.914 1.858,1.793 2.785,2.691 1.875,1.771 3.693,3.601 5.609,5.318 1.94,1.69 3.877,3.378 5.811,5.064 15.708,13.205 33.047,24.108 51.293,32.213 l 3.402,1.549 3.466,1.383 c 2.313,0.908 4.605,1.859 6.922,2.725 4.692,1.57 9.311,3.309 14.062,4.541 9.398,2.824 18.958,4.683 28.444,6.177 4.769,0.586 9.498,1.311 14.246,1.568 2.369,0.161 4.728,0.407 7.088,0.495 2.361,0.059 4.715,0.118 7.061,0.176 l 1.76,0.04 0.878,0.02 0.438,0.01 c 0.133,0.007 0.418,-0.006 0.503,-0.007 1.155,-0.032 2.309,-0.064 3.461,-0.096 2.304,-0.064 4.601,-0.128 6.89,-0.192 2.314,-0.143 4.64,-0.35 6.947,-0.523 2.308,-0.189 4.621,-0.32 6.878,-0.662 2.27,-0.294 4.53,-0.587 6.782,-0.879 l 1.689,-0.22 1.672,-0.302 c 1.113,-0.202 2.225,-0.403 3.334,-0.604 2.215,-0.423 4.441,-0.755 6.623,-1.25 2.182,-0.509 4.353,-1.016 6.518,-1.521 1.08,-0.257 2.164,-0.493 3.236,-0.768 1.064,-0.304 2.125,-0.609 3.185,-0.912 2.12,-0.608 4.231,-1.213 6.332,-1.816 2.088,-0.651 4.137,-1.395 6.192,-2.092 2.041,-0.731 4.115,-1.348 6.096,-2.195 16.062,-6.177 30.828,-14.018 44,-22.984 1.662,-1.096 3.23,-2.31 4.837,-3.45 1.59,-1.164 3.198,-2.287 4.747,-3.468 1.517,-1.221 3.029,-2.434 4.531,-3.641 1.488,-1.224 3.025,-2.368 4.424,-3.665 5.748,-4.995 11.168,-10.098 16.127,-15.38 9.97,-10.517 18.335,-21.474 25.298,-32.313 6.955,-10.848 12.547,-21.576 16.83,-31.853 1.174,-2.525 2.071,-5.104 3.04,-7.59 0.949,-2.493 1.919,-4.914 2.66,-7.357 0.802,-2.419 1.584,-4.783 2.347,-7.089 0.655,-2.34 1.289,-4.62 1.911,-6.842 4.816,-17.825 6.394,-32.316 7.009,-42.153 0.09,-1.23 0.176,-2.39 0.256,-3.476 C 0.289,10.563 0.268,9.546 0.303,8.605 0.346,6.725 0.383,5.141 0.412,3.865 0.469,1.315 0.5,0 0.5,0 Z" /></g><g
             transform="translate(412.5513,458.1543)"
             id="g28"><path
               inkscape:connector-curvature="0"
               id="path30"
               style="fill:#934f92;fill-opacity:1;fill-rule:nonzero;stroke:none"
               d="m 0,0 c 0.271,-41.467 33.958,-75 75.487,-75 41.53,0 75.218,33.533 75.487,75 z" /></g><g
             transform="translate(551.5391,416.4863)"
             id="g32"><path
               inkscape:connector-curvature="0"
               id="path34"
               style="fill:#ff4d4d;fill-opacity:1;fill-rule:nonzero;stroke:none"
               d="M 0,0 C 0,0 -16,19.334 -47.334,22.668 -78.667,26 -92.667,26 -125.333,-2 c 0,0 15.999,-22.666 51.333,-31.332 0,0 46,-6 74,33.332" /></g><g
             transform="translate(665.0762,466.6152)"
             id="g36"><path
               inkscape:connector-curvature="0"
               id="path38"
               style="fill:#ff8989;fill-opacity:1;fill-rule:nonzero;stroke:none"
               d="m 0,0 c 0,-11.471 -16.186,-20.77 -36.152,-20.77 -19.969,0 -36.155,9.299 -36.155,20.77 0,11.471 16.186,20.77 36.155,20.77 C -16.186,20.77 0,11.471 0,0" /></g><g
             transform="translate(384.3076,464.3086)"
             id="g40"><path
               inkscape:connector-curvature="0"
               id="path42"
               style="fill:#ff8989;fill-opacity:1;fill-rule:nonzero;stroke:none"
               d="m 0,0 c 0,-11.471 -16.187,-20.77 -36.153,-20.77 -19.968,0 -36.155,9.299 -36.155,20.77 0,11.471 16.187,20.77 36.155,20.77 C -16.187,20.77 0,11.471 0,0" /></g><g
             transform="translate(354.063,527.4331)"
             id="g44"><path
               inkscape:connector-curvature="0"
               id="path46"
               style="fill:#934f92;fill-opacity:1;fill-rule:nonzero;stroke:none"
               d="m 0,0 c 0,0 -0.082,1.742 0.445,4.704 0.261,1.481 0.676,3.266 1.333,5.265 0.663,1.995 1.573,4.207 2.823,6.504 1.262,2.283 2.823,4.698 4.912,6.896 2.077,2.206 4.712,4.116 7.601,5.651 2.896,1.538 5.981,2.776 9.16,3.844 0.803,0.249 1.597,0.538 2.421,0.733 0.816,0.229 1.633,0.48 2.473,0.63 0.832,0.188 1.666,0.419 2.517,0.532 0.863,0.133 1.656,0.355 2.62,0.417 3.544,0.266 7.099,-0.046 10.46,-1.04 3.355,-0.97 6.542,-2.407 9.368,-4.223 2.85,-1.779 5.299,-3.977 7.277,-6.31 1.998,-2.327 3.503,-4.794 4.737,-7.109 1.22,-2.331 2.068,-4.572 2.724,-6.57 0.629,-2.009 1.056,-3.783 1.315,-5.259 0.311,-1.462 0.396,-2.643 0.495,-3.433 0.074,-0.794 0.114,-1.217 0.114,-1.217 l -0.484,-0.127 c 0,0 -0.19,0.379 -0.546,1.089 -0.357,0.707 -0.806,1.762 -1.485,3.051 -0.347,0.642 -0.659,1.375 -1.083,2.135 -0.412,0.759 -0.858,1.578 -1.336,2.455 -1.017,1.706 -2.108,3.641 -3.53,5.568 -2.73,3.927 -6.429,7.999 -11.113,11.425 -1.157,0.882 -2.436,1.629 -3.731,2.39 -1.316,0.725 -2.702,1.364 -4.133,1.944 -2.866,1.094 -5.936,2.095 -9.073,2.493 -0.707,0.104 -1.572,0.053 -2.372,0.081 -0.816,0.019 -1.62,-0.071 -2.431,-0.13 C 29.866,32.216 28.264,31.922 26.735,31.425 23.652,30.501 20.889,28.826 18.62,26.827 16.341,24.823 14.521,22.567 12.811,20.469 11.112,18.355 9.557,16.304 8.249,14.292 6.928,12.291 5.809,10.373 4.854,8.637 3.894,6.902 3.103,5.348 2.46,4.051 1.186,1.452 0.49,-0.098 0.49,-0.098 Z" /></g><g
             transform="translate(555.2168,534.4072)"
             id="g48"><path
               inkscape:connector-curvature="0"
               id="path50"
               style="fill:#934f92;fill-opacity:1;fill-rule:nonzero;stroke:none"
               d="m 0,0 c 0,0 -0.082,1.742 0.445,4.704 0.262,1.481 0.676,3.266 1.334,5.265 0.662,1.995 1.573,4.207 2.823,6.504 1.261,2.283 2.822,4.698 4.912,6.896 2.076,2.206 4.711,4.116 7.601,5.651 2.895,1.538 5.981,2.776 9.16,3.844 0.803,0.249 1.596,0.538 2.42,0.733 0.817,0.229 1.633,0.48 2.473,0.63 0.832,0.188 1.666,0.419 2.518,0.532 0.863,0.133 1.656,0.355 2.619,0.417 3.545,0.266 7.099,-0.046 10.461,-1.04 3.355,-0.97 6.541,-2.407 9.367,-4.223 2.851,-1.779 5.299,-3.977 7.277,-6.31 1.998,-2.327 3.504,-4.794 4.738,-7.109 1.219,-2.331 2.067,-4.572 2.723,-6.57 0.629,-2.009 1.057,-3.783 1.315,-5.259 0.312,-1.462 0.396,-2.643 0.496,-3.433 0.074,-0.794 0.113,-1.217 0.113,-1.217 l -0.484,-0.127 c 0,0 -0.19,0.379 -0.545,1.089 -0.358,0.707 -0.807,1.762 -1.485,3.051 -0.347,0.642 -0.66,1.375 -1.084,2.135 -0.412,0.759 -0.857,1.578 -1.336,2.455 -1.017,1.706 -2.107,3.641 -3.529,5.568 -2.73,3.927 -6.43,7.999 -11.113,11.425 -1.158,0.882 -2.436,1.629 -3.731,2.39 -1.316,0.725 -2.703,1.364 -4.133,1.944 -2.867,1.094 -5.937,2.095 -9.074,2.493 -0.707,0.104 -1.572,0.053 -2.371,0.081 -0.816,0.019 -1.621,-0.071 -2.431,-0.13 -1.612,-0.173 -3.215,-0.467 -4.743,-0.964 -3.084,-0.924 -5.847,-2.599 -8.115,-4.598 -2.279,-2.004 -4.1,-4.26 -5.81,-6.358 C 11.113,18.355 9.557,16.304 8.25,14.292 6.928,12.291 5.809,10.373 4.855,8.637 3.895,6.902 3.104,5.348 2.461,4.051 1.186,1.452 0.49,-0.098 0.49,-0.098 Z" /></g><g
             transform="translate(594.2402,460.9639)"
             id="g52"><path
               inkscape:connector-curvature="0"
               id="path54"
               style="fill:#934f92;fill-opacity:1;fill-rule:nonzero;stroke:none"
               d="m 0,0 c 0,0 -0.327,0.698 -0.664,2.088 -0.327,1.386 -0.634,3.5 -0.348,6.188 0.275,2.677 1.345,5.92 3.572,8.993 2.193,3.092 5.516,5.915 9.536,8.165 4.03,2.252 8.689,4.061 13.795,5.293 l 0.948,0.226 0.996,0.168 c 0.666,0.108 1.338,0.219 2.013,0.329 0.674,0.081 1.354,0.117 2.037,0.179 0.681,0.062 1.367,0.113 2.059,0.104 2.766,0.122 5.586,-0.153 8.41,-0.558 5.638,-0.946 11.285,-2.833 16.519,-5.713 2.626,-1.419 5.153,-3.095 7.442,-5.084 2.315,-1.955 4.436,-4.194 6.136,-6.765 1.692,-2.555 3.013,-5.478 3.319,-8.634 0.324,-3.138 -0.427,-6.406 -2.091,-9.077 -1.635,-2.695 -4.102,-4.736 -6.554,-6.342 -2.492,-1.64 -5.181,-2.963 -7.863,-3.999 -5.422,-2.023 -10.959,-2.983 -16.199,-3.31 -5.247,-0.328 -10.215,-0.063 -14.742,0.537 -4.531,0.574 -8.633,1.468 -12.177,2.561 -3.547,1.077 -6.566,2.287 -8.903,3.589 -2.34,1.287 -4.02,2.62 -4.913,3.768 -0.9,1.157 -0.962,1.999 -0.999,1.974 l 0.195,0.045 c 0.037,0.021 0.156,-0.753 1.095,-1.774 0.924,-1.021 2.622,-2.207 4.984,-3.302 2.357,-1.103 5.354,-2.18 8.887,-3.053 3.531,-0.868 7.573,-1.647 12.029,-2.074 4.452,-0.447 9.308,-0.548 14.4,-0.192 2.54,0.226 5.145,0.523 7.766,1.036 2.616,0.524 5.253,1.217 7.857,2.137 2.603,0.961 5.114,2.143 7.509,3.656 2.417,1.519 4.61,3.325 6.141,5.69 1.541,2.33 2.287,5.158 2.086,8.002 -0.145,2.857 -1.241,5.661 -2.754,8.178 -1.53,2.522 -3.503,4.787 -5.699,6.786 -2.217,1.983 -4.681,3.668 -7.251,5.105 -2.58,1.416 -5.269,2.605 -8.031,3.447 -2.76,0.846 -5.557,1.432 -8.334,1.741 C 36.657,30.705 31.21,30.292 26.319,29.026 21.383,27.747 16.806,26.061 12.918,23.946 9.003,21.873 5.82,19.275 3.605,16.484 1.364,13.693 0.273,10.681 -0.182,8.155 -0.639,5.612 -0.481,3.537 -0.271,2.163 -0.067,0.777 0.187,0.072 0.187,0.072 Z" /></g><g
             transform="translate(385.0249,458.3691)"
             id="g56"><path
               inkscape:connector-curvature="0"
               id="path58"
               style="fill:#934f92;fill-opacity:1;fill-rule:nonzero;stroke:none"
               d="m 0,0 c 0,0 0.254,0.705 0.458,2.092 0.21,1.373 0.368,3.448 -0.09,5.991 -0.454,2.525 -1.545,5.538 -3.786,8.329 -2.215,2.791 -5.398,5.389 -9.312,7.462 -3.888,2.114 -8.466,3.801 -13.403,5.08 -4.889,1.266 -10.337,1.679 -15.889,1.082 -2.777,-0.309 -5.574,-0.894 -8.333,-1.74 -2.763,-0.843 -5.452,-2.032 -8.033,-3.447 -2.569,-1.438 -5.034,-3.123 -7.25,-5.106 -2.196,-1.999 -4.169,-4.264 -5.7,-6.786 -1.512,-2.518 -2.608,-5.321 -2.753,-8.178 -0.201,-2.844 0.544,-5.673 2.086,-8.003 1.53,-2.364 3.724,-4.171 6.141,-5.689 2.395,-1.513 4.907,-2.695 7.509,-3.656 2.605,-0.919 5.241,-1.614 7.857,-2.138 2.621,-0.513 5.226,-0.81 7.766,-1.035 5.092,-0.357 9.949,-0.255 14.4,0.192 4.456,0.427 8.497,1.205 12.029,2.073 3.533,0.873 6.53,1.951 8.887,3.054 2.361,1.095 4.061,2.28 4.984,3.302 0.939,1.02 1.058,1.795 1.095,1.773 l 0.195,-0.045 c -0.037,0.026 -0.099,-0.816 -0.999,-1.973 -0.893,-1.149 -2.573,-2.482 -4.913,-3.768 -2.337,-1.303 -5.355,-2.512 -8.903,-3.59 -3.544,-1.092 -7.646,-1.986 -12.177,-2.56 -4.527,-0.6 -9.495,-0.865 -14.743,-0.538 -5.238,0.328 -10.776,1.288 -16.198,3.31 -2.682,1.036 -5.371,2.36 -7.863,3.999 -2.452,1.607 -4.919,3.648 -6.553,6.343 -1.665,2.671 -2.416,5.94 -2.092,9.077 0.307,3.156 1.627,6.078 3.319,8.634 1.7,2.57 3.822,4.81 6.135,6.765 2.29,1.989 4.817,3.665 7.442,5.084 5.236,2.881 10.882,4.766 16.519,5.714 2.825,0.404 5.645,0.679 8.411,0.557 0.692,0.009 1.378,-0.042 2.06,-0.104 0.682,-0.062 1.362,-0.098 2.036,-0.179 0.675,-0.11 1.347,-0.22 2.014,-0.329 l 0.995,-0.168 0.948,-0.227 c 5.106,-1.231 9.765,-3.041 13.796,-5.293 4.019,-2.25 7.342,-5.072 9.535,-8.165 C -0.146,14.124 0.925,10.881 1.198,8.204 1.484,5.516 1.178,3.401 0.851,2.016 0.514,0.625 0.187,-0.072 0.187,-0.072 Z" /></g></g></g><g
         id="g60"><g
           clip-path="url(#clipPath66)"
           id="g62"><g
             transform="translate(264.9658,585.5679)"
             id="g68"><path
               inkscape:connector-curvature="0"
               id="path70"
               style="fill:#fff168;fill-opacity:1;fill-rule:nonzero;stroke:none"
               d="m 0,0 c 0,0 -1.017,-0.101 -2.677,0.017 -1.662,0.115 -3.954,0.484 -6.573,1.258 -1.301,0.407 -2.713,0.842 -4.106,1.552 -1.401,0.692 -2.748,1.745 -4.163,2.784 -1.409,1.053 -2.931,1.974 -4.608,2.586 -1.661,0.65 -3.454,1.049 -5.295,1.325 -1.841,0.278 -3.678,0.564 -5.399,1.066 -1.72,0.503 -3.416,0.991 -5.038,1.509 -3.254,1.016 -6.08,2.49 -8.457,3.868 -2.374,1.384 -4.263,2.764 -5.553,3.807 -1.292,1.041 -1.977,1.767 -1.977,1.767 l 0.222,0.556 c 0,0 0.998,0.052 2.65,-0.085 1.655,-0.134 3.974,-0.436 6.647,-1.073 2.671,-0.641 5.735,-1.522 8.791,-3.03 1.533,-0.743 3.097,-1.561 4.69,-2.382 1.592,-0.823 3.12,-1.883 4.644,-2.952 1.524,-1.07 3.098,-2.017 4.749,-2.692 1.636,-0.714 3.374,-1.096 5.12,-1.306 1.741,-0.222 3.443,-0.389 4.934,-0.855 C -9.9,7.274 -8.578,6.615 -7.355,6.012 -4.925,4.767 -3.01,3.454 -1.728,2.391 -0.443,1.331 0.223,0.557 0.223,0.557 Z" /></g><g
             transform="translate(260.4536,513.2388)"
             id="g72"><path
               inkscape:connector-curvature="0"
               id="path74"
               style="fill:#fff168;fill-opacity:1;fill-rule:nonzero;stroke:none"
               d="m 0,0 c 0,0 -1.911,-0.43 -5.247,-0.838 -3.336,-0.441 -8.096,-0.819 -13.8,-0.931 -2.851,-0.034 -5.94,-0.077 -9.201,0.148 -3.26,0.204 -6.69,0.769 -10.24,1.299 -3.55,0.529 -7.221,0.935 -10.961,0.966 -3.739,0.083 -7.545,-0.118 -11.354,-0.448 -3.808,-0.309 -7.617,-0.663 -11.361,-0.729 -3.742,-0.076 -7.426,-0.161 -10.99,-0.192 -7.128,-0.084 -13.766,0.403 -19.454,0.944 -2.842,0.304 -5.448,0.577 -7.756,0.906 -2.308,0.299 -4.319,0.629 -5.974,0.915 -3.311,0.57 -5.2,1.037 -5.2,1.037 l 0.016,0.599 c 0,0 1.909,0.371 5.245,0.773 1.667,0.201 3.692,0.429 6.013,0.611 2.321,0.211 4.937,0.353 7.792,0.513 5.707,0.252 12.362,0.403 19.476,-0.042 3.558,-0.212 7.233,-0.482 10.967,-0.748 3.735,-0.255 7.522,-0.802 11.309,-1.303 3.788,-0.522 7.578,-0.915 11.317,-1.022 3.736,-0.158 7.424,0.062 10.996,0.411 3.572,0.349 7.026,0.74 10.293,0.778 3.267,0.06 6.35,-0.139 9.196,-0.316 C -13.228,2.929 -8.492,2.312 -5.182,1.703 -1.872,1.126 0.016,0.6 0.016,0.6 Z" /></g><g
             transform="translate(262.189,444.0762)"
             id="g76"><path
               inkscape:connector-curvature="0"
               id="path78"
               style="fill:#fff168;fill-opacity:1;fill-rule:nonzero;stroke:none"
               d="m 0,0 c 0,0 -0.472,-0.991 -1.499,-2.479 -1.023,-1.49 -2.626,-3.447 -4.774,-5.518 -1.087,-1.02 -2.261,-2.129 -3.672,-3.093 -1.399,-0.98 -3.095,-1.742 -4.814,-2.572 -1.729,-0.82 -3.402,-1.806 -4.882,-3.079 -1.506,-1.241 -2.859,-2.72 -4.128,-4.301 -1.269,-1.581 -2.544,-3.155 -3.95,-4.52 -1.406,-1.363 -2.785,-2.711 -4.151,-3.977 -2.717,-2.55 -5.611,-4.489 -8.169,-6.057 -2.561,-1.562 -4.85,-2.675 -6.505,-3.388 C -48.197,-39.7 -49.23,-40 -49.23,-40 l -0.378,0.465 c 0,0 0.504,0.95 1.544,2.422 1.037,1.473 2.594,3.486 4.648,5.674 2.058,2.182 4.549,4.618 7.601,6.755 1.518,1.079 3.121,2.152 4.743,3.249 1.623,1.097 3.425,2.023 5.232,2.942 1.808,0.919 3.532,1.94 5.055,3.16 1.549,1.187 2.856,2.624 4.013,4.147 1.165,1.514 2.258,3.018 3.503,4.186 1.232,1.185 2.559,2.106 3.779,2.962 2.468,1.679 4.712,2.847 6.38,3.544 1.666,0.7 2.732,0.959 2.732,0.959 z" /></g><g
             transform="translate(282.1953,370.2334)"
             id="g80"><path
               inkscape:connector-curvature="0"
               id="path82"
               style="fill:#fff168;fill-opacity:1;fill-rule:nonzero;stroke:none"
               d="m 0,0 c 0,0 -1.035,-1.518 -3.07,-3.91 -2.014,-2.418 -5.055,-5.681 -8.927,-9.337 -1.95,-1.812 -4.059,-3.778 -6.465,-5.653 -2.393,-1.891 -5.144,-3.62 -7.954,-5.45 -2.81,-1.83 -5.622,-3.827 -8.231,-6.147 -2.642,-2.281 -5.141,-4.815 -7.556,-7.445 -2.429,-2.616 -4.828,-5.266 -7.374,-7.659 -2.539,-2.402 -5.031,-4.772 -7.477,-7.027 -4.875,-4.528 -9.794,-8.324 -14.091,-11.485 -2.17,-1.555 -4.156,-2.984 -5.973,-4.185 -1.797,-1.223 -3.408,-2.237 -4.745,-3.062 -2.672,-1.65 -4.291,-2.486 -4.291,-2.486 l -0.39,0.455 c 0,0 1.073,1.472 3.112,3.861 1.02,1.195 2.268,2.633 3.753,4.22 1.465,1.613 3.18,3.357 5.049,5.263 3.78,3.763 8.284,8.044 13.505,12.169 2.602,2.072 5.326,4.173 8.088,6.315 2.754,2.15 5.74,4.115 8.696,6.115 2.969,1.984 5.855,4.066 8.513,6.329 2.692,2.223 5.096,4.696 7.334,7.193 2.238,2.497 4.367,4.951 6.602,7.027 2.221,2.091 4.487,3.875 6.575,5.525 4.206,3.267 7.895,5.772 10.593,7.394 2.676,1.645 4.333,2.435 4.333,2.435 z" /></g><g
             transform="translate(339.144,297.9512)"
             id="g84"><path
               inkscape:connector-curvature="0"
               id="path86"
               style="fill:#fff168;fill-opacity:1;fill-rule:nonzero;stroke:none"
               d="m 0,0 c 0,0 -0.465,-1.213 -1.533,-3.103 -1.043,-1.912 -2.72,-4.472 -4.983,-7.314 -1.148,-1.405 -2.387,-2.933 -3.896,-4.365 -1.495,-1.447 -3.328,-2.736 -5.184,-4.106 -1.866,-1.361 -3.663,-2.887 -5.232,-4.675 -1.6,-1.76 -3.016,-3.74 -4.337,-5.807 -1.321,-2.067 -2.648,-4.128 -4.13,-5.996 -1.483,-1.867 -2.936,-3.711 -4.379,-5.46 -2.87,-3.515 -5.966,-6.412 -8.71,-8.812 -1.377,-1.196 -2.68,-2.254 -3.868,-3.161 -1.173,-0.922 -2.247,-1.678 -3.141,-2.291 -1.789,-1.227 -2.915,-1.834 -2.915,-1.834 l -0.441,0.406 c 0,0 0.509,1.173 1.581,3.059 0.536,0.942 1.199,2.076 2.018,3.323 0.804,1.261 1.748,2.649 2.823,4.121 2.16,2.937 4.785,6.266 8.045,9.422 1.622,1.586 3.336,3.189 5.072,4.824 1.736,1.634 3.677,3.131 5.626,4.622 1.948,1.491 3.802,3.068 5.42,4.811 1.649,1.714 3.019,3.633 4.218,5.607 1.208,1.966 2.338,3.902 3.653,5.512 1.3,1.625 2.717,2.988 4.021,4.251 2.641,2.495 5.051,4.382 6.868,5.583 1.793,1.223 2.963,1.789 2.963,1.789 z" /></g><g
             transform="translate(409.9922,279.6914)"
             id="g88"><path
               inkscape:connector-curvature="0"
               id="path90"
               style="fill:#fff168;fill-opacity:1;fill-rule:nonzero;stroke:none"
               d="m 0,0 c 0,0 0.479,-1.947 0.971,-5.354 0.525,-3.408 1.023,-8.276 1.28,-14.117 0.105,-2.921 0.227,-6.085 0.084,-9.431 -0.121,-3.347 -0.599,-6.876 -1.039,-10.527 -0.439,-3.651 -0.752,-7.424 -0.689,-11.257 0.013,-3.834 0.31,-7.727 0.736,-11.622 0.405,-3.894 0.856,-7.788 1.016,-11.622 0.171,-3.833 0.349,-7.605 0.47,-11.257 0.265,-7.301 -0.055,-14.116 -0.451,-19.958 -0.232,-2.919 -0.44,-5.597 -0.71,-7.97 -0.24,-2.373 -0.519,-4.442 -0.763,-6.146 C 0.419,-122.668 0,-124.615 0,-124.615 h -0.6 c 0,0 -0.419,1.947 -0.905,5.354 -0.244,1.704 -0.522,3.773 -0.763,6.146 -0.27,2.373 -0.478,5.051 -0.71,7.97 -0.396,5.842 -0.715,12.657 -0.45,19.958 0.121,3.652 0.298,7.424 0.47,11.257 0.16,3.834 0.61,7.728 1.016,11.622 0.425,3.895 0.723,7.788 0.735,11.622 0.063,3.833 -0.25,7.606 -0.689,11.257 -0.439,3.651 -0.917,7.18 -1.039,10.527 -0.142,3.346 -0.021,6.51 0.084,9.431 0.257,5.841 0.755,10.709 1.28,14.117 C -1.078,-1.947 -0.6,0 -0.6,0 Z" /></g><g
             transform="translate(482.3003,279.6973)"
             id="g92"><path
               inkscape:connector-curvature="0"
               id="path94"
               style="fill:#fff168;fill-opacity:1;fill-rule:nonzero;stroke:none"
               d="m 0,0 c 0,0 0.495,-1.144 1.044,-3.152 0.553,-2.009 1.121,-4.883 1.447,-8.339 0.141,-1.729 0.301,-3.601 0.2,-5.587 -0.08,-1.986 -0.514,-4.087 -0.908,-6.26 -0.409,-2.173 -0.652,-4.414 -0.55,-6.684 0.06,-2.272 0.403,-4.574 0.878,-6.873 0.475,-2.298 0.939,-4.597 1.16,-6.866 0.218,-2.267 0.442,-4.499 0.608,-6.66 0.355,-4.321 0.121,-8.367 -0.204,-11.837 -0.33,-3.47 -0.85,-6.366 -1.298,-8.395 -0.444,-2.03 -0.839,-3.193 -0.839,-3.193 l -0.6,-0.011 c 0,0 -0.442,1.144 -0.971,3.154 -0.532,2.009 -1.172,4.881 -1.646,8.334 -0.469,3.453 -0.872,7.485 -0.697,11.817 0.076,2.166 0.207,4.406 0.331,6.681 0.125,2.275 0.494,4.592 0.872,6.908 0.379,2.317 0.626,4.631 0.592,6.902 0.007,2.273 -0.329,4.502 -0.828,6.657 -0.485,2.154 -1.006,4.235 -1.169,6.216 -0.183,1.98 -0.101,3.858 -0.031,5.59 0.181,3.467 0.629,6.363 1.097,8.393 0.465,2.029 0.912,3.193 0.912,3.193 z" /></g><g
             transform="translate(556.1162,281.3604)"
             id="g96"><path
               inkscape:connector-curvature="0"
               id="path98"
               style="fill:#fff168;fill-opacity:1;fill-rule:nonzero;stroke:none"
               d="m 0,0 c 0,0 1.249,-1.5 3.123,-4.274 1.904,-2.76 4.397,-6.812 7.08,-11.822 1.321,-2.514 2.759,-5.235 4.035,-8.23 1.295,-2.986 2.346,-6.285 3.482,-9.676 1.136,-3.39 2.437,-6.832 4.103,-10.164 1.621,-3.355 3.524,-6.641 5.542,-9.87 2,-3.238 4.041,-6.457 5.795,-9.748 1.764,-3.286 3.507,-6.516 5.149,-9.664 3.304,-6.285 5.877,-12.397 7.971,-17.689 1.017,-2.66 1.953,-5.096 2.705,-7.293 0.781,-2.184 1.397,-4.118 1.893,-5.716 0.991,-3.197 1.431,-5.084 1.431,-5.084 l -0.541,-0.26 c 0,0 -1.196,1.526 -3.065,4.302 -0.934,1.389 -2.055,3.082 -3.267,5.058 -1.24,1.963 -2.551,4.221 -3.986,6.681 -2.81,4.948 -5.959,10.784 -8.784,17.299 -1.424,3.252 -2.847,6.635 -4.302,10.07 -1.465,3.429 -2.692,7.037 -3.962,10.626 -1.251,3.597 -2.617,7.139 -4.215,10.504 -1.551,3.387 -3.417,6.559 -5.346,9.569 -1.929,3.011 -3.842,5.898 -5.356,8.778 -1.533,2.873 -2.752,5.699 -3.882,8.304 -2.221,5.232 -3.815,9.713 -4.772,12.927 -0.986,3.199 -1.372,5.112 -1.372,5.112 z" /></g><g
             transform="translate(625.2852,316.8301)"
             id="g100"><path
               inkscape:connector-curvature="0"
               id="path102"
               style="fill:#fff168;fill-opacity:1;fill-rule:nonzero;stroke:none"
               d="m 0,0 c 0,0 1.199,-0.498 3.057,-1.617 1.88,-1.096 4.39,-2.843 7.166,-5.183 1.372,-1.185 2.862,-2.466 4.251,-4.014 1.402,-1.534 2.637,-3.401 3.954,-5.293 1.306,-1.904 2.781,-3.742 4.522,-5.359 1.713,-1.647 3.651,-3.117 5.678,-4.494 2.028,-1.377 4.05,-2.761 5.874,-4.293 1.823,-1.534 3.624,-3.036 5.33,-4.527 3.431,-2.965 6.236,-6.139 8.557,-8.948 1.155,-1.409 2.174,-2.74 3.048,-3.953 0.886,-1.197 1.612,-2.291 2.199,-3.202 1.176,-1.821 1.749,-2.963 1.749,-2.963 l -0.418,-0.429 c 0,0 -1.157,0.541 -3.011,1.664 -0.927,0.561 -2.041,1.256 -3.264,2.109 -1.236,0.838 -2.595,1.82 -4.037,2.935 -2.872,2.24 -6.124,4.956 -9.184,8.3 -1.538,1.664 -3.091,3.422 -4.675,5.202 -1.584,1.78 -3.025,3.761 -4.457,5.75 -1.435,1.988 -2.958,3.883 -4.653,5.548 -1.665,1.697 -3.544,3.119 -5.484,4.371 -1.929,1.262 -3.83,2.444 -5.402,3.803 -1.587,1.344 -2.908,2.798 -4.133,4.136 -2.417,2.708 -4.233,5.169 -5.382,7.018 -1.171,1.825 -1.703,3.009 -1.703,3.009 z" /></g><g
             transform="translate(679.0596,387.6523)"
             id="g104"><path
               inkscape:connector-curvature="0"
               id="path106"
               style="fill:#fff168;fill-opacity:1;fill-rule:nonzero;stroke:none"
               d="m 0,0 c 0,0 1.923,-0.438 5.133,-1.514 3.223,-1.047 7.716,-2.765 12.952,-5.132 2.607,-1.205 5.436,-2.502 8.305,-4.117 2.879,-1.595 5.756,-3.591 8.757,-5.605 3.001,-2.015 6.166,-3.971 9.556,-5.617 3.365,-1.694 6.913,-3.16 10.52,-4.51 3.596,-1.369 7.214,-2.698 10.646,-4.259 3.438,-1.551 6.824,-3.069 10.079,-4.584 6.521,-3.009 12.35,-6.322 17.29,-9.272 2.455,-1.505 4.708,-2.88 6.666,-4.176 1.972,-1.269 3.659,-2.437 5.042,-3.411 2.767,-1.949 4.284,-3.188 4.284,-3.188 l -0.271,-0.535 c 0,0 -1.896,0.492 -5.103,1.572 -1.603,0.54 -3.543,1.211 -5.732,2.051 -2.202,0.815 -4.643,1.819 -7.308,2.91 -5.299,2.242 -11.417,4.987 -17.697,8.468 -3.145,1.731 -6.372,3.566 -9.655,5.423 -3.287,1.846 -6.497,3.978 -9.728,6.071 -3.22,2.111 -6.5,4.107 -9.854,5.821 -3.331,1.76 -6.779,3.158 -10.178,4.389 -3.399,1.231 -6.709,2.372 -9.697,3.752 -2.998,1.36 -5.717,2.874 -8.229,4.267 -5.004,2.825 -9.046,5.432 -11.795,7.415 -2.764,1.954 -4.254,3.246 -4.254,3.246 z" /></g><g
             transform="translate(700.5732,461.5088)"
             id="g108"><path
               inkscape:connector-curvature="0"
               id="path110"
               style="fill:#fff168;fill-opacity:1;fill-rule:nonzero;stroke:none"
               d="m 0,0 c 0,0 1.31,-0.014 3.471,-0.356 2.174,-0.313 5.185,-0.993 8.671,-2.124 1.734,-0.588 3.616,-1.218 5.504,-2.135 1.896,-0.898 3.765,-2.168 5.718,-3.432 1.949,-1.277 4.03,-2.432 6.275,-3.279 2.228,-0.888 4.599,-1.527 7.018,-2.045 2.42,-0.518 4.836,-1.045 7.125,-1.784 2.288,-0.741 4.544,-1.46 6.708,-2.204 4.336,-1.467 8.171,-3.362 11.411,-5.1 1.619,-0.875 3.08,-1.729 4.36,-2.527 1.287,-0.78 2.383,-1.524 3.28,-2.15 1.795,-1.25 2.768,-2.094 2.768,-2.094 l -0.225,-0.557 c 0,0 -1.287,0.068 -3.446,0.417 -1.08,0.174 -2.385,0.4 -3.852,0.734 -1.475,0.315 -3.12,0.717 -4.891,1.212 -3.539,1.002 -7.613,2.305 -11.75,4.264 -2.073,0.968 -4.196,2.017 -6.356,3.075 -2.159,1.06 -4.263,2.359 -6.362,3.669 -2.101,1.308 -4.249,2.497 -6.469,3.407 -2.203,0.95 -4.501,1.567 -6.789,2.002 -2.284,0.449 -4.511,0.834 -6.498,1.506 -1.995,0.653 -3.786,1.508 -5.442,2.291 -3.292,1.608 -5.93,3.212 -7.71,4.497 -1.793,1.256 -2.744,2.156 -2.744,2.156 z" /></g><g
             transform="translate(709.6973,515.3765)"
             id="g112"><path
               inkscape:connector-curvature="0"
               id="path114"
               style="fill:#fff168;fill-opacity:1;fill-rule:nonzero;stroke:none"
               d="m 0,0 c 0,0 1.857,0.455 5.103,0.905 3.246,0.483 7.879,0.921 13.436,1.105 2.777,0.07 5.787,0.152 8.967,-0.031 3.18,-0.164 6.528,-0.685 9.993,-1.169 3.465,-0.485 7.047,-0.845 10.691,-0.828 3.645,-0.035 7.35,0.214 11.058,0.592 3.707,0.357 7.415,0.759 11.061,0.872 3.646,0.124 7.235,0.255 10.707,0.331 6.944,0.175 13.419,-0.228 18.966,-0.697 2.774,-0.268 5.316,-0.509 7.569,-0.808 2.252,-0.27 4.215,-0.574 5.832,-0.838 3.232,-0.529 5.078,-0.972 5.078,-0.972 l -0.008,-0.6 c 0,0 -1.856,-0.395 -5.101,-0.839 -1.623,-0.223 -3.594,-0.476 -5.853,-0.687 -2.259,-0.241 -4.807,-0.415 -7.586,-0.611 -5.559,-0.325 -12.041,-0.559 -18.978,-0.204 -3.469,0.166 -7.053,0.39 -10.695,0.608 -3.642,0.207 -7.338,0.706 -11.035,1.16 -3.696,0.474 -7.394,0.819 -11.038,0.878 -3.644,0.111 -7.233,-0.155 -10.71,-0.549 -3.477,-0.395 -6.837,-0.829 -10.02,-0.91 -3.183,-0.1 -6.189,0.06 -8.964,0.202 -5.55,0.328 -10.171,0.886 -13.404,1.453 -3.232,0.535 -5.077,1.037 -5.077,1.037 z" /></g><g
             transform="translate(691.2109,598.6631)"
             id="g116"><path
               inkscape:connector-curvature="0"
               id="path118"
               style="fill:#fff168;fill-opacity:1;fill-rule:nonzero;stroke:none"
               d="m 0,0 c 0,0 0.861,0.903 2.499,2.194 1.637,1.294 4.064,2.942 7.124,4.593 1.538,0.807 3.202,1.687 5.073,2.37 1.863,0.703 3.969,1.125 6.126,1.612 2.163,0.474 4.325,1.127 6.379,2.108 2.07,0.944 4.059,2.16 5.992,3.497 1.935,1.336 3.873,2.663 5.878,3.752 2.006,1.089 3.976,2.168 5.904,3.166 3.845,2.018 7.667,3.383 10.993,4.441 3.328,1.054 6.202,1.708 8.248,2.09 2.045,0.384 3.27,0.475 3.27,0.476 l 0.246,-0.548 c 0,0 -0.882,-0.855 -2.529,-2.127 C 63.559,26.348 61.16,24.635 58.161,22.848 55.16,21.066 51.601,19.118 47.538,17.584 45.511,16.807 43.396,16.052 41.249,15.276 39.103,14.501 36.822,13.935 34.539,13.377 32.255,12.82 30.025,12.142 27.944,11.222 25.846,10.34 23.921,9.158 22.13,7.857 20.333,6.568 18.617,5.274 16.854,4.35 15.101,3.406 13.338,2.747 11.713,2.133 8.445,0.944 5.601,0.225 3.546,-0.138 c -2.053,-0.366 -3.3,-0.409 -3.3,-0.41 z" /></g><g
             transform="translate(660.293,658.4023)"
             id="g120"><path
               inkscape:connector-curvature="0"
               id="path122"
               style="fill:#fff168;fill-opacity:1;fill-rule:nonzero;stroke:none"
               d="m 0,0 c 0,0 1.438,1.55 4.149,3.978 2.694,2.454 6.681,5.751 11.658,9.425 2.501,1.818 5.207,3.794 8.22,5.659 3.001,1.882 6.363,3.578 9.809,5.377 3.446,1.8 6.929,3.776 10.253,6.1 3.353,2.282 6.6,4.836 9.775,7.496 3.187,2.644 6.348,5.325 9.618,7.729 3.264,2.414 6.472,4.797 9.604,7.06 6.252,4.547 12.404,8.321 17.747,11.453 2.69,1.539 5.153,2.953 7.385,4.136 2.215,1.207 4.184,2.202 5.813,3.01 3.26,1.616 5.201,2.423 5.201,2.423 l 0.336,-0.497 c 0,0 -1.472,-1.5 -4.186,-3.923 -1.358,-1.211 -3.015,-2.668 -4.96,-4.274 -1.929,-1.63 -4.159,-3.388 -6.59,-5.311 C 88.935,56.051 83.14,51.748 76.591,47.641 73.323,45.577 69.916,43.489 66.46,41.359 63.011,39.22 59.345,37.286 55.704,35.314 52.052,33.359 48.473,31.297 45.105,29.036 41.709,26.817 38.578,24.322 35.624,21.794 32.67,19.267 29.844,16.78 26.979,14.696 24.125,12.595 21.283,10.82 18.664,9.177 13.4,5.928 8.854,3.456 5.573,1.872 2.311,0.261 0.336,-0.497 0.336,-0.497 Z" /></g><g
             transform="translate(286.4482,643.8281)"
             id="g124"><path
               inkscape:connector-curvature="0"
               id="path126"
               style="fill:#fff168;fill-opacity:1;fill-rule:nonzero;stroke:none"
               d="m 0,0 c 0,0 -1.975,0.758 -5.237,2.369 -3.281,1.584 -7.827,4.056 -13.091,7.305 -2.619,1.643 -5.461,3.418 -8.314,5.519 -2.866,2.084 -5.691,4.571 -8.646,7.099 -2.954,2.527 -6.085,5.022 -9.481,7.241 -3.367,2.261 -6.947,4.323 -10.599,6.278 -3.64,1.972 -7.306,3.906 -10.756,6.045 -3.456,2.13 -6.862,4.218 -10.13,6.282 -6.549,4.107 -12.344,8.41 -17.242,12.2 -2.43,1.923 -4.66,3.682 -6.589,5.311 -1.946,1.606 -3.603,3.063 -4.96,4.274 -2.714,2.423 -4.186,3.923 -4.186,3.923 l 0.335,0.497 c 0,0 1.942,-0.807 5.201,-2.423 1.63,-0.808 3.599,-1.803 5.814,-3.01 2.232,-1.182 4.694,-2.597 7.384,-4.136 5.343,-3.132 11.496,-6.906 17.747,-11.453 3.133,-2.263 6.34,-4.646 9.604,-7.06 3.271,-2.404 6.432,-5.085 9.618,-7.729 3.175,-2.66 6.422,-5.214 9.776,-7.496 3.324,-2.324 6.806,-4.3 10.252,-6.1 3.447,-1.799 6.808,-3.495 9.81,-5.377 3.012,-1.865 5.718,-3.841 8.219,-5.659 4.976,-3.674 8.964,-6.971 11.657,-9.425 2.711,-2.428 4.15,-3.978 4.15,-3.978 z" /></g><g
             transform="translate(610.9746,695.2329)"
             id="g128"><path
               inkscape:connector-curvature="0"
               id="path130"
               style="fill:#fff168;fill-opacity:1;fill-rule:nonzero;stroke:none"
               d="m 0,0 c 0,0 0.127,1.111 0.619,2.89 0.49,1.781 1.379,4.209 2.749,6.938 0.703,1.353 1.459,2.822 2.489,4.235 1.013,1.424 2.379,2.744 3.746,4.137 1.378,1.386 2.651,2.912 3.645,4.644 1.03,1.711 1.836,3.595 2.529,5.549 0.694,1.953 1.396,3.901 2.289,5.695 0.896,1.793 1.769,3.562 2.657,5.248 1.757,3.383 3.881,6.246 5.805,8.635 1.93,2.386 3.747,4.247 5.091,5.506 1.34,1.261 2.227,1.908 2.227,1.908 l 0.511,-0.313 c 0,0 -0.171,-1.084 -0.681,-2.852 C 33.168,50.45 32.341,47.984 31.098,45.178 29.85,42.375 28.271,39.18 26.062,36.073 24.967,34.514 23.791,32.93 22.604,31.315 21.415,29.702 20.002,28.188 18.58,26.68 17.158,25.172 15.849,23.595 14.796,21.898 13.708,20.223 12.932,18.395 12.327,16.536 11.71,14.684 11.159,12.866 10.354,11.315 9.566,9.754 8.604,8.411 7.721,7.167 5.918,4.704 4.162,2.805 2.801,1.557 1.442,0.307 0.512,-0.312 0.512,-0.312 Z" /></g><g
             transform="translate(534.0234,730.5542)"
             id="g132"><path
               inkscape:connector-curvature="0"
               id="path134"
               style="fill:#fff168;fill-opacity:1;fill-rule:nonzero;stroke:none"
               d="m 0,0 c 0,0 0.17,2.071 0.795,5.588 0.595,3.528 1.684,8.49 3.314,14.338 0.837,2.918 1.738,6.08 2.948,9.342 1.189,3.267 2.776,6.605 4.367,10.075 1.589,3.47 3.098,7.099 4.267,10.905 1.219,3.79 2.187,7.728 3.032,11.706 0.865,3.971 1.686,7.957 2.764,11.792 1.068,3.839 2.11,7.62 3.166,11.263 2.092,7.293 4.583,13.926 6.835,19.572 1.158,2.813 2.215,5.393 3.235,7.653 0.989,2.27 1.919,4.227 2.697,5.834 1.557,3.215 2.58,5.009 2.58,5.009 l 0.57,-0.185 c 0,0 -0.226,-2.053 -0.857,-5.569 -0.316,-1.758 -0.714,-3.887 -1.248,-6.305 -0.504,-2.427 -1.166,-5.136 -1.883,-8.092 C 35.084,97.034 33.2,90.205 30.604,83.075 29.317,79.507 27.937,75.835 26.544,72.103 25.161,68.366 23.482,64.659 21.848,60.938 20.192,57.224 18.66,53.469 17.418,49.687 16.126,45.92 15.214,42.098 14.459,38.356 13.706,34.615 13.027,30.981 12.068,27.639 11.13,24.289 9.999,21.202 8.961,18.35 6.842,12.66 4.806,8.006 3.213,4.803 1.65,1.59 0.57,-0.186 0.57,-0.186 Z" /></g><g
             transform="translate(463.2388,733.5386)"
             id="g136"><path
               inkscape:connector-curvature="0"
               id="path138"
               style="fill:#fff168;fill-opacity:1;fill-rule:nonzero;stroke:none"
               d="m 0,0 c 0,0 -0.479,1.394 -0.971,3.834 -0.525,2.44 -1.023,5.926 -1.28,10.108 -0.105,2.092 -0.227,4.357 -0.084,6.753 0.121,2.397 0.599,4.924 1.039,7.538 0.439,2.614 0.753,5.315 0.689,8.06 -0.013,2.746 -0.31,5.534 -0.736,8.322 -0.426,2.789 -0.843,5.577 -1.016,8.322 -0.171,2.745 -0.349,5.446 -0.47,8.061 -0.265,5.228 0.055,10.107 0.451,14.29 0.205,2.091 0.449,4.008 0.71,5.708 0.24,1.699 0.519,3.18 0.763,4.4 C -0.419,87.836 0,89.23 0,89.23 h 0.6 c 0,0 0.419,-1.394 0.905,-3.834 0.244,-1.22 0.522,-2.701 0.763,-4.4 0.261,-1.7 0.504,-3.617 0.71,-5.708 0.396,-4.183 0.715,-9.062 0.45,-14.29 C 3.307,58.383 3.13,55.682 2.958,52.937 2.786,50.192 2.369,47.404 1.942,44.615 1.517,41.827 1.219,39.039 1.207,36.293 1.143,33.548 1.457,30.847 1.896,28.233 2.335,25.619 2.813,23.092 2.935,20.695 3.077,18.299 2.956,16.034 2.851,13.942 2.594,9.76 2.096,6.274 1.571,3.834 1.078,1.394 0.6,0 0.6,0 Z" /></g><g
             transform="translate(381.7925,729.0469)"
             id="g140"><path
               inkscape:connector-curvature="0"
               id="path142"
               style="fill:#fff168;fill-opacity:1;fill-rule:nonzero;stroke:none"
               d="m 0,0 c 0,0 -1.431,1.452 -3.639,4.169 -2.236,2.702 -5.215,6.69 -8.498,11.652 -1.621,2.492 -3.384,5.189 -5.016,8.181 -1.651,2.981 -3.092,6.305 -4.629,9.715 -1.537,3.41 -3.246,6.862 -5.311,10.172 -2.02,3.337 -4.316,6.58 -6.723,9.756 -2.389,3.188 -4.816,6.351 -6.963,9.612 -2.157,3.254 -4.287,6.453 -6.304,9.574 -4.056,6.232 -7.355,12.339 -10.077,17.637 -1.333,2.667 -2.558,5.109 -3.571,7.317 -1.038,2.194 -1.884,4.141 -2.568,5.753 -1.369,3.222 -2.032,5.136 -2.032,5.135 l 0.515,0.31 c 0,-0.001 1.379,-1.483 3.583,-4.203 1.102,-1.361 2.425,-3.021 3.876,-4.967 1.475,-1.93 3.057,-4.158 4.787,-6.585 3.402,-4.89 7.248,-10.669 10.849,-17.173 1.81,-3.246 3.636,-6.627 5.499,-10.059 1.872,-3.425 3.528,-7.054 5.222,-10.658 1.676,-3.616 3.463,-7.165 5.462,-10.514 1.955,-3.376 4.202,-6.504 6.492,-9.462 2.291,-2.957 4.551,-5.789 6.409,-8.645 1.877,-2.845 3.432,-5.666 4.872,-8.268 C -4.922,13.223 -2.797,8.721 -1.46,5.479 -0.096,2.254 0.514,0.31 0.515,0.31 Z" /></g><g
             transform="translate(322.8003,687.9297)"
             id="g144"><path
               inkscape:connector-curvature="0"
               id="path146"
               style="fill:#fff168;fill-opacity:1;fill-rule:nonzero;stroke:none"
               d="m 0,0 c 0,0 -1.208,0.437 -3.092,1.457 -1.906,0.997 -4.461,2.608 -7.3,4.796 -1.404,1.111 -2.931,2.31 -4.364,3.78 -1.448,1.454 -2.743,3.248 -4.118,5.064 -1.365,1.825 -2.895,3.579 -4.683,5.1 -1.759,1.553 -3.735,2.917 -5.798,4.186 -2.062,1.268 -4.119,2.544 -5.985,3.976 -1.865,1.434 -3.706,2.839 -5.455,4.236 -3.512,2.777 -6.412,5.791 -8.816,8.467 -1.198,1.343 -2.259,2.616 -3.169,3.777 -0.924,1.146 -1.683,2.197 -2.3,3.073 -1.232,1.752 -1.843,2.858 -1.843,2.858 l 0.4,0.447 c 0,0 1.168,-0.481 3.048,-1.506 0.94,-0.512 2.071,-1.147 3.315,-1.935 1.258,-0.772 2.643,-1.68 4.114,-2.717 2.932,-2.084 6.257,-4.622 9.416,-7.795 1.587,-1.577 3.192,-3.247 4.829,-4.936 1.636,-1.691 3.137,-3.589 4.633,-5.494 1.495,-1.904 3.076,-3.712 4.819,-5.283 1.714,-1.603 3.631,-2.923 5.6,-4.072 1.96,-1.159 3.891,-2.241 5.5,-3.513 1.624,-1.258 2.988,-2.637 4.252,-3.905 C -4.5,7.489 -2.607,5.134 -1.4,3.354 -0.171,1.598 0.399,0.448 0.399,0.448 Z" /></g></g></g></g></g></svg>