<?xml version="1.0" encoding="UTF-8" standalone="no"?>
<!-- Created with Inkscape (http://www.inkscape.org/) -->

<svg
   xmlns:dc="http://purl.org/dc/elements/1.1/"
   xmlns:cc="http://creativecommons.org/ns#"
   xmlns:rdf="http://www.w3.org/1999/02/22-rdf-syntax-ns#"
   xmlns:svg="http://www.w3.org/2000/svg"
   xmlns="http://www.w3.org/2000/svg"
   xmlns:sodipodi="http://sodipodi.sourceforge.net/DTD/sodipodi-0.dtd"
   xmlns:inkscape="http://www.inkscape.org/namespaces/inkscape"
   version="1.1"
   id="svg2"
   xml:space="preserve"
   width="800.13916"
   height="620.45337"
   viewBox="0 0 800.13919 620.45337"
   sodipodi:docname="tennis-racket.svg"
   inkscape:version="0.92.2 5c3e80d, 2017-08-06"><metadata
     id="metadata8"><rdf:RDF><cc:Work
         rdf:about=""><dc:format>image/svg+xml</dc:format><dc:type
           rdf:resource="http://purl.org/dc/dcmitype/StillImage" /><dc:title></dc:title></cc:Work></rdf:RDF></metadata><defs
     id="defs6"><clipPath
       clipPathUnits="userSpaceOnUse"
       id="clipPath106"><path
         d="M 0,600 H 1000 V 0 H 0 Z"
         id="path104"
         inkscape:connector-curvature="0" /></clipPath><clipPath
       clipPathUnits="userSpaceOnUse"
       id="clipPath130"><path
         d="M 0,600 H 1000 V 0 H 0 Z"
         id="path128"
         inkscape:connector-curvature="0" /></clipPath></defs><sodipodi:namedview
     pagecolor="#ffffff"
     bordercolor="#666666"
     borderopacity="1"
     objecttolerance="10"
     gridtolerance="10"
     guidetolerance="10"
     inkscape:pageopacity="0"
     inkscape:pageshadow="2"
     inkscape:window-width="1920"
     inkscape:window-height="1029"
     id="namedview4"
     showgrid="false"
     inkscape:zoom="0.71791997"
     inkscape:cx="645.18273"
     inkscape:cy="151.8384"
     inkscape:window-x="0"
     inkscape:window-y="24"
     inkscape:window-maximized="1"
     inkscape:current-layer="g10" /><g
     id="g10"
     inkscape:groupmode="layer"
     inkscape:label="tennis rochet"
     transform="matrix(1.3333333,0,0,-1.3333333,-288.72588,758.74461)"><g
       id="g100"><g
         id="g102"
         clip-path="url(#clipPath106)"><g
           id="g108"
           transform="translate(452.4282,237.7441)"><path
             d="M 0,0 C 0,0 -17.103,18.203 -13.956,20.721 -10.808,23.239 17.732,0.68 0,0"
             style="fill:#5e3aa8;fill-opacity:1;fill-rule:nonzero;stroke:none"
             id="path110"
             inkscape:connector-curvature="0" /></g><g
           id="g112"
           transform="translate(457.9854,252.1709)"><path
             d="m 0,0 c 0,0 -10.071,-10.071 -11.959,-2.518 -1.889,7.553 5.665,12.589 5.665,12.589 0,0 11.329,11.329 16.994,37.766 5.665,26.436 9.442,35.877 9.442,35.877 0,0 2.517,67.979 57.278,109.522 0,0 57.908,35.248 107.633,3.147 0,0 22.03,-20.142 20.771,-67.979 0,0 -10.7,-69.867 -91.267,-95.674 0,0 -22.661,-5.035 -32.731,-3.776 -10.071,1.259 -66.72,-15.106 -78.05,-27.695 0,0 -1.258,9.441 8.812,15.106 10.071,5.665 51.614,16.365 51.614,16.365 0,0 55.39,1.889 74.902,18.883 0,0 32.731,13.219 50.355,56.02 17.624,42.802 8.812,73.643 -27.065,90.638 0,0 -39.026,25.178 -95.674,-22.659 0,0 -53.502,-42.172 -32.101,-104.486 21.401,-62.313 0,-2.518 0,-2.518 0,0 25.177,-45.319 80.567,-30.842 0,0 -35.877,-11.329 -57.279,-1.259 -21.4,10.071 -32.1,31.472 -32.1,35.878 C 25.807,72.385 4.406,1.259 0,0"
             style="fill:#934f92;fill-opacity:1;fill-rule:nonzero;stroke:none"
             id="path114"
             inkscape:connector-curvature="0" /></g><g
           id="g116"
           transform="translate(492.604,323.2969)"><path
             d="M 0,0 C 0,0 -7.116,79.754 69.179,117.901 145.475,156.048 160.734,81.025 156.919,60.68 153.104,40.334 71.964,-93.741 0,0"
             style="fill:#efefef;fill-opacity:1;fill-rule:nonzero;stroke:none"
             id="path118"
             inkscape:connector-curvature="0" /></g><g
           id="g120"
           transform="translate(393,181.4541)"><path
             d="m 0,0 58.586,58.586 c 0,0 -14.142,7.07 -14.142,12.121 L -13.131,11.111 C -13.131,11.111 -3.03,-4.041 0,0"
             style="fill:#8e58ff;fill-opacity:1;fill-rule:nonzero;stroke:none"
             id="path122"
             inkscape:connector-curvature="0" /></g></g></g><g
       id="g124"><g
         id="g126"
         clip-path="url(#clipPath130)"><g
           id="g132"
           transform="translate(548.6924,279.6055)"><path
             d="m 0,0 c 0,0 0.563,0.02 1.657,0.056 0.547,0.017 1.226,0.04 2.032,0.066 0.808,0.022 1.743,0.049 2.795,0.165 4.222,0.283 10.41,1.093 18.05,3.108 7.651,1.964 16.647,5.511 26.207,10.922 4.746,2.761 9.658,5.942 14.52,9.719 4.855,3.786 9.662,8.096 14.401,12.918 9.383,9.666 18.12,21.602 24.658,35.573 3.198,7.005 5.851,14.511 7.579,22.399 1.688,7.897 2.578,16.169 2.164,24.537 -0.199,4.181 -0.677,8.391 -1.603,12.537 -0.908,4.145 -2.093,8.278 -3.795,12.231 -1.671,3.962 -3.717,7.793 -6.138,11.408 l -1.912,2.647 c -0.638,0.884 -1.362,1.685 -2.04,2.535 -0.659,0.851 -1.436,1.653 -2.193,2.467 l -1.134,1.222 c -0.337,0.371 -0.774,0.757 -1.157,1.136 -6.29,6.133 -13.949,10.951 -22.307,14.055 -8.366,3.129 -17.335,4.571 -26.346,4.641 -8.966,-0.013 -17.982,-1.265 -26.623,-3.685 -8.629,-2.484 -16.916,-6.007 -24.673,-10.329 -7.742,-4.358 -14.89,-9.603 -21.418,-15.339 -6.536,-5.763 -12.428,-12.065 -17.516,-18.811 -5.111,-6.722 -9.521,-13.799 -13.031,-21.115 -3.537,-7.298 -6.282,-14.779 -8.12,-22.268 -0.973,-3.734 -1.591,-7.449 -2.141,-11.209 -0.426,-3.678 -0.751,-7.379 -0.785,-10.992 -0.116,-7.236 0.627,-14.253 2.331,-20.747 1.695,-6.486 4.09,-12.524 7.23,-17.788 3.116,-5.276 6.827,-9.813 10.765,-13.624 3.939,-3.805 8.11,-6.86 12.228,-9.224 4.109,-2.389 8.149,-4.107 11.89,-5.36 3.746,-1.251 7.196,-2.014 10.208,-2.59 3.025,-0.515 5.62,-0.822 7.73,-0.981 1.055,-0.071 1.988,-0.134 2.793,-0.188 0.807,-0.02 1.487,-0.037 2.035,-0.051 C -0.564,0.015 0,0 0,0 m -0.002,-0.199 c 0,0 -0.566,0.01 -1.662,0.029 -0.547,0.009 -1.228,0.022 -2.035,0.035 -0.809,0.049 -1.745,0.106 -2.806,0.169 -2.119,0.145 -4.724,0.435 -7.764,0.93 -3.028,0.556 -6.499,1.298 -10.275,2.528 -3.764,1.251 -7.847,2.924 -12.047,5.233 -4.2,2.301 -8.477,5.304 -12.546,9.08 -4.054,3.77 -7.935,8.307 -11.222,13.621 -3.292,5.303 -5.933,11.4 -7.693,18.027 -1.802,6.62 -2.629,13.779 -2.578,21.162 -0.031,1.849 0.105,3.707 0.214,5.581 0.127,1.881 0.378,3.729 0.587,5.661 0.56,3.707 1.221,7.566 2.228,11.353 0.921,3.811 2.177,7.583 3.531,11.365 1.469,3.738 3.037,7.494 4.929,11.141 3.669,7.349 8.234,14.429 13.497,21.121 5.228,6.722 11.308,12.943 17.872,18.706 6.603,5.754 13.843,10.917 21.61,15.324 7.775,4.381 16.093,7.966 24.772,10.508 8.681,2.544 17.727,3.933 26.851,4.062 9.066,0.042 18.249,-1.308 26.813,-4.398 8.572,-3.064 16.492,-7.906 23.03,-14.128 0.413,-0.4 0.819,-0.743 1.237,-1.188 l 1.148,-1.208 c 0.766,-0.805 1.536,-1.596 2.246,-2.491 0.711,-0.878 1.477,-1.721 2.139,-2.627 l 1.983,-2.713 c 2.513,-3.706 4.642,-7.638 6.384,-11.706 1.774,-4.06 3.017,-8.301 3.973,-12.554 0.975,-4.256 1.49,-8.573 1.719,-12.857 0.497,-8.583 -0.451,-17.034 -2.189,-25.084 -1.785,-8.058 -4.503,-15.69 -7.773,-22.814 C 99.542,57.431 90.482,45.431 80.849,35.785 76.034,30.971 71.01,26.731 66.036,23.012 61.046,19.304 56.015,16.215 51.182,13.527 49.957,12.886 48.752,12.254 47.566,11.632 46.384,11.007 45.17,10.495 44.006,9.937 41.687,8.796 39.347,7.932 37.142,7.009 32.661,5.338 28.48,3.979 24.637,3.005 16.95,1.046 10.737,0.284 6.503,0.034 5.446,-0.073 4.509,-0.093 3.699,-0.107 2.89,-0.128 2.209,-0.145 1.661,-0.158 0.564,-0.186 -0.002,-0.199 -0.002,-0.199"
             style="fill:#574248;fill-opacity:1;fill-rule:nonzero;stroke:none"
             id="path134"
             inkscape:connector-curvature="0" /></g><g
           id="g136"
           transform="translate(594.1406,455.2178)"><path
             d="m 0,0 c 0,0 0.51,-0.008 1.494,-0.024 0.493,-0.009 1.105,-0.02 1.832,-0.033 0.726,-0.043 1.567,-0.092 2.519,-0.149 3.794,-0.274 9.408,-0.93 16.194,-3.167 3.38,-1.13 7.039,-2.673 10.776,-4.816 3.724,-2.141 7.54,-4.933 11.114,-8.396 3.562,-3.497 6.88,-7.724 9.618,-12.631 1.409,-2.433 2.564,-5.082 3.658,-7.823 1.003,-2.775 1.919,-5.665 2.532,-8.69 0.701,-3.008 1.074,-6.143 1.374,-9.336 0.207,-3.205 0.309,-6.465 0.116,-9.804 -0.323,-6.604 -1.474,-13.461 -3.44,-20.222 -3.881,-13.567 -10.9,-27.004 -20.574,-38.941 -4.858,-5.967 -10.307,-11.562 -16.326,-16.696 -6.012,-5.121 -12.573,-9.767 -19.657,-13.621 -7.073,-3.86 -14.614,-7.007 -22.462,-9.219 -3.946,-1.021 -7.931,-1.953 -11.989,-2.464 -4.041,-0.63 -8.175,-0.792 -12.212,-0.852 -8.206,0.064 -16.387,1.403 -24.004,4.332 -7.622,2.867 -14.592,7.395 -20.188,13.174 -5.643,5.742 -9.913,12.685 -12.662,20.075 -1.348,3.709 -2.32,7.517 -3.022,11.346 -0.704,3.832 -0.974,7.702 -1.063,11.533 -0.084,3.838 0.221,7.653 0.629,11.381 0.296,1.859 0.487,3.73 0.884,5.555 0.178,0.915 0.356,1.829 0.533,2.74 0.218,0.903 0.435,1.803 0.652,2.701 1.731,7.188 4.376,13.965 7.488,20.272 3.129,6.299 6.697,12.177 10.691,17.456 3.971,5.281 8.256,10.09 12.625,14.358 4.351,4.324 8.951,8.01 13.446,11.311 4.495,3.313 9.04,6.053 13.409,8.416 4.352,2.409 8.655,4.203 12.636,5.805 4.04,1.462 7.789,2.7 11.247,3.557 6.906,1.755 12.486,2.429 16.293,2.662 0.95,0.1 1.792,0.108 2.518,0.126 0.725,0.018 1.336,0.034 1.828,0.046 C -0.51,-0.013 0,0 0,0 m 0.002,-0.2 c 0,0 -0.506,-0.017 -1.489,-0.05 -0.492,-0.016 -1.102,-0.037 -1.827,-0.061 -0.727,-0.022 -1.569,-0.038 -2.513,-0.145 -3.785,-0.262 -9.346,-0.979 -16.21,-2.781 -3.442,-0.863 -7.16,-2.152 -11.137,-3.712 -3.926,-1.682 -8.158,-3.557 -12.423,-6.044 -8.608,-4.814 -17.591,-11.534 -26.174,-20.081 -4.303,-4.293 -8.436,-9.034 -12.31,-14.295 -3.868,-5.248 -7.482,-10.967 -10.575,-17.168 -0.385,-0.776 -0.771,-1.554 -1.159,-2.335 -0.355,-0.795 -0.712,-1.594 -1.07,-2.396 -0.746,-1.589 -1.357,-3.248 -2.022,-4.895 -0.642,-1.657 -1.222,-3.349 -1.811,-5.047 -0.506,-1.725 -1.113,-3.434 -1.532,-5.205 -0.229,-0.88 -0.458,-1.763 -0.688,-2.648 -0.19,-0.894 -0.381,-1.791 -0.572,-2.69 -0.423,-1.791 -0.641,-3.629 -0.966,-5.458 -0.466,-3.698 -0.834,-7.423 -0.819,-11.207 0.021,-3.779 0.218,-7.602 0.845,-11.396 0.607,-3.794 1.561,-7.561 2.862,-11.233 2.678,-7.305 6.8,-14.236 12.404,-19.898 5.567,-5.688 12.467,-10.116 20.01,-12.908 7.546,-2.79 15.679,-3.987 23.709,-3.937 4.08,0.118 8.084,0.33 12.062,1.005 3.993,0.557 7.909,1.53 11.781,2.588 7.704,2.284 15.089,5.485 22.001,9.38 6.924,3.88 13.373,8.464 19.255,13.553 5.88,5.075 11.243,10.654 15.966,16.532 4.717,5.898 8.799,12.133 12.224,18.536 3.431,6.403 6.06,13.042 8.003,19.669 1.965,6.642 3.032,13.276 3.458,19.785 0.236,3.22 0.184,6.428 0.028,9.55 -0.25,3.118 -0.565,6.182 -1.206,9.122 -2.271,11.847 -7.96,21.84 -14.818,28.845 -6.917,7.008 -14.68,11.234 -21.38,13.471 C 15.188,-1.471 9.604,-0.765 5.825,-0.458 4.877,-0.393 4.039,-0.336 3.315,-0.287 2.591,-0.268 1.981,-0.251 1.49,-0.238 0.508,-0.213 0.002,-0.2 0.002,-0.2"
             style="fill:#574248;fill-opacity:1;fill-rule:nonzero;stroke:none"
             id="path138"
             inkscape:connector-curvature="0" /></g><g
           id="g140"
           transform="translate(486.4541,378.9883)"><path
             d="m 0,0 c 0,0 0.28,0.329 0.805,0.946 0.535,0.607 1.32,1.497 2.32,2.63 2.008,2.256 4.937,5.419 8.528,9.137 1.809,1.847 3.756,3.858 5.883,5.921 2.121,2.066 4.455,4.148 6.825,6.347 2.396,2.174 4.818,4.472 7.208,6.878 2.409,2.391 4.75,4.922 7.101,7.444 1.171,1.266 2.342,2.531 3.508,3.793 1.182,1.244 2.36,2.484 3.528,3.715 2.361,2.436 4.686,4.833 6.935,7.152 2.255,2.314 4.455,4.531 6.581,6.592 2.111,2.077 4.138,4.01 6.007,5.795 1.882,1.773 3.605,3.401 5.162,4.814 1.553,1.417 2.888,2.67 4.02,3.67 2.251,2.014 3.563,3.139 3.563,3.139 l 0.14,-0.141 c 0,0 -1.125,-1.311 -3.138,-3.562 -1,-1.132 -2.254,-2.468 -3.67,-4.021 -1.413,-1.557 -3.041,-3.279 -4.815,-5.161 -1.785,-1.87 -3.718,-3.896 -5.795,-6.007 -2.061,-2.127 -4.278,-4.327 -6.591,-6.582 -2.32,-2.249 -4.717,-4.573 -7.153,-6.934 -1.23,-1.169 -2.471,-2.346 -3.715,-3.528 C 41.977,40.87 40.71,39.699 39.444,38.529 36.923,36.177 34.392,33.835 32.001,31.428 29.595,29.037 27.296,26.615 25.122,24.22 22.924,21.85 20.841,19.516 18.775,17.394 16.713,15.268 14.701,13.32 12.855,11.512 9.136,7.92 5.974,4.991 3.718,2.983 2.585,1.984 1.695,1.199 1.088,0.663 0.471,0.138 0.142,-0.142 0.142,-0.142 Z"
             style="fill:#574248;fill-opacity:1;fill-rule:nonzero;stroke:none"
             id="path142"
             inkscape:connector-curvature="0" /></g><g
           id="g144"
           transform="translate(483.1987,340.4248)"><path
             d="m 0,0 c 0,0 0.443,0.493 1.274,1.416 0.842,0.913 2.077,2.252 3.648,3.957 1.567,1.709 3.525,3.728 5.742,6.073 2.212,2.351 4.754,4.956 7.524,7.802 2.789,2.826 5.799,5.899 9.047,9.085 3.246,3.189 6.764,6.456 10.359,9.88 3.619,3.4 7.312,6.96 10.984,10.659 1.827,1.857 3.669,3.73 5.518,5.609 1.823,1.906 3.654,3.818 5.486,5.731 1.824,1.92 3.648,3.839 5.465,5.75 1.833,1.896 3.659,3.785 5.471,5.658 3.648,3.722 7.237,7.386 10.711,10.931 3.481,3.538 6.865,6.939 10.115,10.124 3.231,3.203 6.328,6.189 9.187,8.946 2.856,2.759 5.466,5.297 7.822,7.503 2.349,2.213 4.397,4.143 6.083,5.732 3.395,3.157 5.359,4.936 5.359,4.936 l 0.141,-0.142 c 0,10e-4 -1.778,-1.964 -4.936,-5.358 -1.589,-1.687 -3.519,-3.734 -5.732,-6.084 -2.206,-2.356 -4.744,-4.965 -7.503,-7.821 C 99.007,97.528 96.022,94.431 92.819,91.2 89.634,87.951 86.233,84.566 82.694,81.086 79.149,77.612 75.486,74.022 71.763,70.375 69.89,68.563 68.001,66.737 66.106,64.904 64.194,63.086 62.275,61.262 60.355,59.438 58.443,57.607 56.53,55.777 54.625,53.953 52.745,52.104 50.873,50.262 49.015,48.435 45.316,44.763 41.755,41.07 38.356,37.451 34.932,33.856 31.665,30.338 28.475,27.093 25.29,23.844 22.216,20.834 19.389,18.046 16.544,15.276 13.939,12.734 11.588,10.522 9.242,8.306 7.223,6.347 5.515,4.78 3.81,3.209 2.471,1.975 1.558,1.133 0.634,0.302 0.142,-0.142 0.142,-0.142 Z"
             style="fill:#574248;fill-opacity:1;fill-rule:nonzero;stroke:none"
             id="path146"
             inkscape:connector-curvature="0" /></g><g
           id="g148"
           transform="translate(493.293,315.207)"><path
             d="m 0,0 c 0,0 0.502,0.552 1.444,1.587 0.952,1.023 2.349,2.525 4.127,4.436 1.774,1.915 3.984,4.185 6.488,6.82 2.5,2.638 5.367,5.569 8.492,8.768 3.142,3.181 6.537,6.639 10.191,10.23 3.652,3.596 7.598,7.291 11.636,11.158 4.061,3.843 8.213,7.861 12.349,12.025 2.06,2.09 4.136,4.197 6.221,6.312 2.059,2.141 4.126,4.29 6.193,6.439 2.06,2.156 4.121,4.311 6.173,6.458 2.069,2.132 4.129,4.254 6.173,6.36 4.114,4.188 8.161,8.309 12.078,12.297 3.924,3.982 7.736,7.811 11.392,11.402 3.637,3.609 7.118,6.979 10.331,10.091 3.211,3.113 6.145,5.976 8.789,8.47 2.637,2.501 4.936,4.682 6.829,6.478 3.823,3.555 6.009,5.586 6.009,5.586 l 0.141,-0.142 c 0,0 -2.032,-2.184 -5.585,-6.008 -1.796,-1.893 -3.977,-4.192 -6.479,-6.829 -2.493,-2.645 -5.356,-5.579 -8.47,-8.79 -3.112,-3.212 -6.481,-6.693 -10.09,-10.331 C 100.841,99.162 97.012,95.349 93.03,91.425 89.042,87.508 84.921,83.46 80.733,79.348 78.627,77.303 76.505,75.243 74.373,73.174 72.227,71.122 70.07,69.062 67.915,67.001 65.766,64.934 63.617,62.867 61.477,60.808 59.361,58.723 57.255,56.647 55.164,54.587 51,50.45 46.982,46.299 43.14,42.237 39.272,38.199 35.577,34.252 31.982,30.602 28.391,26.946 24.934,23.553 21.752,20.41 18.553,17.285 15.622,14.418 12.984,11.918 10.35,9.414 8.08,7.204 6.165,5.43 4.253,3.652 2.751,2.256 1.728,1.303 0.693,0.361 0.142,-0.141 0.142,-0.141 Z"
             style="fill:#574248;fill-opacity:1;fill-rule:nonzero;stroke:none"
             id="path150"
             inkscape:connector-curvature="0" /></g><g
           id="g152"
           transform="translate(510.9473,297.5527)"><path
             d="m 0,0 c 0,0 0.503,0.552 1.445,1.587 0.952,1.023 2.349,2.525 4.127,4.436 1.774,1.915 3.984,4.186 6.488,6.82 2.5,2.638 5.367,5.568 8.491,8.768 3.143,3.181 6.537,6.639 10.192,10.23 3.651,3.596 7.598,7.29 11.636,11.158 4.062,3.842 8.213,7.86 12.35,12.024 2.059,2.091 4.136,4.197 6.22,6.312 2.059,2.141 4.126,4.29 6.194,6.439 2.06,2.156 4.121,4.311 6.172,6.458 2.07,2.132 4.129,4.254 6.174,6.36 4.113,4.188 8.16,8.309 12.077,12.297 3.924,3.982 7.737,7.811 11.393,11.402 3.637,3.609 7.118,6.979 10.33,10.09 3.211,3.114 6.146,5.977 8.79,8.471 2.637,2.501 4.936,4.682 6.829,6.478 3.823,3.554 6.009,5.586 6.009,5.586 l 0.141,-0.142 c 0,0 -2.032,-2.185 -5.586,-6.008 -1.796,-1.893 -3.977,-4.193 -6.478,-6.829 -2.494,-2.645 -5.357,-5.579 -8.471,-8.79 -3.111,-3.212 -6.481,-6.694 -10.09,-10.331 C 100.842,99.161 97.013,95.348 93.031,91.424 89.043,87.507 84.922,83.459 80.734,79.347 78.629,77.303 76.506,75.242 74.375,73.174 72.228,71.121 70.072,69.061 67.916,67 65.768,64.933 63.618,62.866 61.478,60.807 59.362,58.723 57.256,56.646 55.165,54.586 51.002,50.45 46.983,46.299 43.141,42.237 39.273,38.199 35.578,34.252 31.982,30.601 28.392,26.946 24.934,23.552 21.753,20.409 18.553,17.285 15.623,14.418 12.984,11.918 10.35,9.414 8.08,7.204 6.165,5.431 4.254,3.652 2.752,2.256 1.729,1.303 0.693,0.361 0.143,-0.141 0.143,-0.141 Z"
             style="fill:#574248;fill-opacity:1;fill-rule:nonzero;stroke:none"
             id="path154"
             inkscape:connector-curvature="0" /></g><g
           id="g156"
           transform="translate(536.166,287.457)"><path
             d="m 0,0 c 0,0 0.443,0.493 1.274,1.417 0.841,0.913 2.076,2.252 3.647,3.957 1.567,1.708 3.525,3.728 5.742,6.073 2.212,2.351 4.754,4.956 7.524,7.801 2.789,2.827 5.798,5.9 9.047,9.086 3.245,3.189 6.763,6.456 10.358,9.88 3.619,3.4 7.312,6.96 10.983,10.66 1.827,1.857 3.67,3.729 5.519,5.609 1.823,1.905 3.654,3.818 5.485,5.731 1.824,1.919 3.649,3.839 5.465,5.75 1.833,1.896 3.659,3.785 5.471,5.658 3.647,3.722 7.237,7.386 10.712,10.931 3.48,3.538 6.864,6.939 10.114,10.124 3.23,3.203 6.328,6.189 9.185,8.947 2.857,2.758 5.466,5.296 7.823,7.502 2.349,2.214 4.397,4.144 6.083,5.733 3.394,3.157 5.359,4.935 5.359,4.936 l 0.141,-0.142 c 0,10e-4 -1.779,-1.965 -4.936,-5.358 -1.589,-1.687 -3.518,-3.734 -5.732,-6.084 -2.205,-2.357 -4.744,-4.965 -7.503,-7.822 C 99.004,97.531 96.018,94.434 92.814,91.203 89.631,87.953 86.229,84.569 82.691,81.088 79.146,77.614 75.482,74.024 71.761,70.376 69.887,68.564 67.999,66.739 66.104,64.905 64.191,63.088 62.272,61.264 60.353,59.44 58.44,57.609 56.527,55.778 54.622,53.955 52.742,52.105 50.87,50.264 49.013,48.436 45.313,44.765 41.754,41.072 38.354,37.453 34.93,33.857 31.663,30.339 28.474,27.094 25.288,23.846 22.215,20.835 19.389,18.047 16.543,15.276 13.938,12.734 11.588,10.522 9.241,8.307 7.223,6.348 5.514,4.78 3.81,3.209 2.471,1.975 1.558,1.134 0.634,0.303 0.141,-0.141 0.141,-0.141 Z"
             style="fill:#574248;fill-opacity:1;fill-rule:nonzero;stroke:none"
             id="path158"
             inkscape:connector-curvature="0" /></g><g
           id="g160"
           transform="translate(574.7314,290.7129)"><path
             d="m 0,0 c 0,0 0.279,0.33 0.805,0.947 0.535,0.607 1.32,1.497 2.319,2.63 2.009,2.255 4.938,5.418 8.528,9.137 1.809,1.847 3.757,3.858 5.882,5.921 2.122,2.065 4.456,4.148 6.826,6.346 2.396,2.174 4.818,4.473 7.209,6.879 2.407,2.39 4.748,4.921 7.1,7.444 1.171,1.265 2.342,2.531 3.508,3.792 1.182,1.245 2.36,2.485 3.528,3.716 2.361,2.435 4.685,4.833 6.934,7.152 2.256,2.313 4.455,4.53 6.582,6.592 2.111,2.077 4.137,4.009 6.008,5.795 1.88,1.773 3.603,3.401 5.16,4.814 1.553,1.417 2.888,2.67 4.02,3.67 2.251,2.014 3.563,3.139 3.563,3.139 l 0.14,-0.141 c 0,0 -1.125,-1.312 -3.138,-3.562 -1,-1.132 -2.253,-2.468 -3.67,-4.021 -1.413,-1.557 -3.041,-3.279 -4.815,-5.161 -1.784,-1.87 -3.718,-3.897 -5.794,-6.007 C 58.634,56.955 56.417,54.755 54.104,52.5 51.784,50.25 49.387,47.927 46.951,45.565 45.721,44.397 44.48,43.22 43.235,42.037 41.975,40.871 40.709,39.7 39.443,38.529 36.921,36.178 34.39,33.836 32,31.429 29.594,29.038 27.295,26.615 25.122,24.221 22.923,21.851 20.841,19.517 18.774,17.395 16.712,15.269 14.7,13.32 12.854,11.513 9.136,7.921 5.973,4.992 3.717,2.983 2.585,1.984 1.694,1.199 1.088,0.664 0.471,0.139 0.141,-0.141 0.141,-0.141 Z"
             style="fill:#574248;fill-opacity:1;fill-rule:nonzero;stroke:none"
             id="path162"
             inkscape:connector-curvature="0" /></g><g
           id="g164"
           transform="translate(658.6631,380.4258)"><path
             d="m 0,0 c 0.004,0.035 -0.429,-0.107 -1.265,0.232 -0.212,0.07 -0.399,0.228 -0.62,0.387 -0.201,0.164 -0.392,0.343 -0.614,0.536 -0.438,0.387 -0.941,0.831 -1.504,1.329 -2.246,1.998 -5.395,4.913 -9.098,8.488 -1.837,1.8 -3.84,3.739 -5.893,5.855 -2.057,2.112 -4.129,4.436 -6.318,6.796 -2.163,2.384 -4.451,4.796 -6.845,7.176 -2.379,2.396 -4.9,4.727 -7.41,7.067 -1.261,1.165 -2.521,2.33 -3.777,3.491 -1.239,1.177 -2.473,2.349 -3.698,3.512 -2.425,2.35 -4.812,4.663 -7.121,6.901 -2.303,2.245 -4.51,4.435 -6.562,6.552 -2.067,2.101 -3.991,4.119 -5.767,5.98 -1.766,1.874 -3.386,3.589 -4.792,5.138 -1.409,1.547 -2.657,2.876 -3.653,4.003 -2.003,2.241 -3.123,3.547 -3.123,3.547 l 0.141,0.141 c 0,0 1.306,-1.12 3.547,-3.124 1.127,-0.994 2.457,-2.242 4.003,-3.652 1.55,-1.406 3.265,-3.026 5.139,-4.791 1.861,-1.777 3.878,-3.701 5.98,-5.768 2.117,-2.051 4.307,-4.258 6.552,-6.561 2.238,-2.309 4.552,-4.696 6.902,-7.121 1.162,-1.224 2.335,-2.459 3.512,-3.698 1.16,-1.255 2.325,-2.516 3.491,-3.776 2.34,-2.511 4.671,-5.031 7.066,-7.41 2.381,-2.395 4.792,-4.683 7.177,-6.846 2.36,-2.188 4.684,-4.26 6.796,-6.317 2.116,-2.053 4.055,-4.055 5.856,-5.894 3.574,-3.701 6.489,-6.85 8.488,-9.096 0.498,-0.563 0.942,-1.066 1.329,-1.504 0.397,-0.45 0.69,-0.807 1.006,-0.988 C -0.464,0.192 0.036,0.223 0.02,0.199 Z"
             style="fill:#574248;fill-opacity:1;fill-rule:nonzero;stroke:none"
             id="path166"
             inkscape:connector-curvature="0" /></g><g
           id="g168"
           transform="translate(649.1924,350.5811)"><path
             d="m 0,0 c 0,0 -0.136,0.004 -0.397,0.013 -0.266,0.025 -0.704,0.114 -1.165,0.401 -0.862,0.659 -1.887,1.677 -3.317,2.946 -2.803,2.556 -6.747,6.266 -11.404,10.796 -2.316,2.278 -4.836,4.734 -7.436,7.397 -2.603,2.66 -5.253,5.561 -8.038,8.517 -2.76,2.982 -5.665,6.01 -8.686,9.017 -3.006,3.023 -6.163,5.991 -9.311,8.967 -1.578,1.484 -3.157,2.967 -4.729,4.446 -1.557,1.493 -3.107,2.981 -4.645,4.458 -3.052,2.977 -6.055,5.906 -8.961,8.742 -2.899,2.842 -5.683,5.608 -8.282,8.272 -2.615,2.649 -5.056,5.184 -7.311,7.523 -2.242,2.351 -4.299,4.504 -6.094,6.442 -1.797,1.934 -3.383,3.602 -4.657,5.007 -2.561,2.798 -3.999,4.423 -3.999,4.422 l 0.141,0.142 c 0,-10e-4 1.624,-1.439 4.422,-4 1.406,-1.273 3.074,-2.859 5.009,-4.656 1.937,-1.795 4.089,-3.852 6.44,-6.095 2.339,-2.255 4.874,-4.696 7.523,-7.31 2.664,-2.599 5.43,-5.383 8.273,-8.282 2.835,-2.907 5.765,-5.91 8.742,-8.962 1.476,-1.538 2.964,-3.088 4.458,-4.645 1.478,-1.572 2.961,-3.151 4.445,-4.729 2.976,-3.148 5.944,-6.305 8.966,-9.311 3.008,-3.022 6.035,-5.927 9.018,-8.686 2.956,-2.786 5.857,-5.435 8.516,-8.039 2.664,-2.6 5.12,-5.12 7.397,-7.436 4.53,-4.656 8.241,-8.601 10.797,-11.404 1.273,-1.384 2.274,-2.558 2.957,-3.214 0.735,-0.593 1.363,-0.502 1.348,-0.54 z"
             style="fill:#574248;fill-opacity:1;fill-rule:nonzero;stroke:none"
             id="path170"
             inkscape:connector-curvature="0" /></g><g
           id="g172"
           transform="translate(633.9941,326.4687)"><path
             d="m 0,0 c 0,0 -0.147,0.005 -0.434,0.016 -0.144,0.015 -0.335,0.069 -0.558,0.122 -0.198,0.1 -0.46,0.175 -0.689,0.371 -0.89,0.731 -2.038,1.84 -3.582,3.232 -1.532,1.391 -3.337,3.135 -5.437,5.107 -2.105,1.966 -4.434,4.231 -6.977,6.699 -2.524,2.487 -5.27,5.169 -8.11,8.072 -2.843,2.899 -5.744,6.052 -8.791,9.27 -3.023,3.241 -6.193,6.544 -9.494,9.819 -1.659,1.629 -3.332,3.271 -5.011,4.92 -1.705,1.622 -3.417,3.252 -5.128,4.881 -1.718,1.623 -3.435,3.246 -5.146,4.863 -1.696,1.632 -3.384,3.258 -5.06,4.872 -3.325,3.251 -6.599,6.45 -9.766,9.547 -3.161,3.103 -6.197,6.122 -9.035,9.026 -2.857,2.885 -5.515,5.655 -7.971,8.211 -2.457,2.554 -4.718,4.886 -6.678,6.997 -1.968,2.104 -3.684,3.938 -5.097,5.448 -2.805,3.042 -4.382,4.805 -4.382,4.805 l 0.141,0.141 c 0,0 1.764,-1.577 4.805,-4.382 1.51,-1.413 3.344,-3.128 5.448,-5.097 2.111,-1.96 4.443,-4.221 6.997,-6.678 2.557,-2.455 5.326,-5.114 8.211,-7.971 2.904,-2.838 5.923,-5.874 9.026,-9.035 3.096,-3.168 6.296,-6.441 9.547,-9.767 1.613,-1.675 3.239,-3.364 4.872,-5.058 1.616,-1.712 3.239,-3.43 4.862,-5.147 1.629,-1.712 3.259,-3.424 4.881,-5.128 1.65,-1.679 3.291,-3.352 4.921,-5.011 3.275,-3.302 6.577,-6.473 9.819,-9.495 3.217,-3.046 6.371,-5.948 9.269,-8.791 2.902,-2.839 5.585,-5.586 8.071,-8.11 2.469,-2.543 4.734,-4.872 6.701,-6.977 1.97,-2.101 3.714,-3.906 5.106,-5.438 C -3.273,2.821 -2.176,1.576 -1.429,0.82 -0.66,0.11 0.04,0.251 0.02,0.199 Z"
             style="fill:#574248;fill-opacity:1;fill-rule:nonzero;stroke:none"
             id="path174"
             inkscape:connector-curvature="0" /></g><g
           id="g176"
           transform="translate(612.5098,307.5752)"><path
             d="m 0,0 c 0,0 -0.437,0.387 -1.256,1.113 -0.808,0.738 -1.995,1.819 -3.504,3.195 -3.01,2.761 -7.248,6.766 -12.258,11.649 -2.492,2.453 -5.203,5.101 -8.004,7.966 -2.806,2.861 -5.669,5.975 -8.675,9.152 -2.981,3.202 -6.113,6.458 -9.366,9.697 -3.238,3.254 -6.629,6.457 -10.012,9.669 -1.696,1.601 -3.393,3.202 -5.082,4.797 -1.674,1.611 -3.341,3.216 -4.995,4.807 -3.284,3.209 -6.514,6.367 -9.641,9.422 -3.12,3.063 -6.117,6.042 -8.918,8.909 -2.817,2.851 -5.449,5.577 -7.88,8.092 -2.419,2.527 -4.638,4.842 -6.576,6.922 -1.94,2.078 -3.651,3.871 -5.028,5.38 -2.767,3.003 -4.323,4.745 -4.323,4.745 l 0.141,0.141 c 0,0 1.742,-1.555 4.746,-4.323 1.508,-1.376 3.301,-3.086 5.379,-5.027 2.081,-1.938 4.396,-4.158 6.923,-6.577 2.516,-2.43 5.241,-5.062 8.092,-7.879 2.866,-2.801 5.846,-5.798 8.909,-8.918 3.056,-3.126 6.213,-6.358 9.422,-9.641 1.592,-1.654 3.196,-3.32 4.807,-4.994 1.595,-1.69 3.197,-3.386 4.797,-5.082 3.212,-3.383 6.415,-6.775 9.67,-10.012 3.238,-3.253 6.494,-6.386 9.696,-9.366 3.177,-3.006 6.291,-5.868 9.153,-8.674 2.866,-2.802 5.512,-5.513 7.967,-8.005 C -10.934,12.148 -6.929,7.909 -4.167,4.9 -2.791,3.392 -1.71,2.205 -0.973,1.396 -0.246,0.578 0.141,0.141 0.141,0.141 Z"
             style="fill:#574248;fill-opacity:1;fill-rule:nonzero;stroke:none"
             id="path178"
             inkscape:connector-curvature="0" /></g><g
           id="g180"
           transform="translate(590.2246,291.6123)"><path
             d="m 0,0 c 0,0 -0.136,0.004 -0.398,0.013 -0.265,0.024 -0.703,0.114 -1.164,0.401 -0.862,0.658 -1.887,1.677 -3.317,2.945 -2.803,2.556 -6.748,6.267 -11.404,10.797 -2.317,2.278 -4.836,4.734 -7.436,7.397 -2.603,2.659 -5.254,5.56 -8.039,8.516 -2.76,2.982 -5.664,6.011 -8.685,9.017 -3.007,3.023 -6.163,5.991 -9.311,8.968 -1.579,1.483 -3.157,2.967 -4.73,4.445 -1.556,1.493 -3.107,2.981 -4.645,4.458 -3.052,2.977 -6.055,5.906 -8.961,8.742 -2.9,2.842 -5.683,5.608 -8.283,8.272 -2.613,2.649 -5.055,5.184 -7.31,7.523 -2.243,2.351 -4.299,4.503 -6.094,6.441 -1.798,1.935 -3.384,3.602 -4.657,5.008 -2.561,2.798 -3.999,4.422 -4,4.422 l 0.142,0.141 c 0,0 1.624,-1.438 4.422,-3.999 1.406,-1.274 3.074,-2.859 5.008,-4.657 1.938,-1.794 4.091,-3.852 6.441,-6.095 2.339,-2.254 4.874,-4.695 7.523,-7.309 2.664,-2.599 5.431,-5.383 8.273,-8.282 2.835,-2.907 5.765,-5.91 8.742,-8.962 1.476,-1.538 2.964,-3.088 4.458,-4.644 1.478,-1.573 2.961,-3.152 4.445,-4.73 2.977,-3.148 5.945,-6.305 8.967,-9.31 3.007,-3.022 6.035,-5.927 9.017,-8.687 2.957,-2.785 5.857,-5.435 8.517,-8.038 2.664,-2.6 5.12,-5.12 7.397,-7.436 C -10.553,10.7 -6.842,6.756 -4.285,3.953 -3.012,2.569 -2.011,1.396 -1.328,0.739 -0.593,0.146 0.035,0.237 0.02,0.199 Z"
             style="fill:#574248;fill-opacity:1;fill-rule:nonzero;stroke:none"
             id="path182"
             inkscape:connector-curvature="0" /></g><g
           id="g184"
           transform="translate(560.3828,282.1426)"><path
             d="m 0,0 c 0.004,0.035 -0.429,-0.107 -1.265,0.231 -0.212,0.07 -0.4,0.227 -0.621,0.387 -0.201,0.163 -0.392,0.342 -0.614,0.535 -0.438,0.387 -0.941,0.831 -1.504,1.329 -2.246,1.999 -5.395,4.914 -9.098,8.489 -1.837,1.8 -3.84,3.739 -5.893,5.855 -2.057,2.112 -4.129,4.437 -6.317,6.796 -2.164,2.385 -4.452,4.797 -6.846,7.177 -2.38,2.396 -4.9,4.727 -7.41,7.067 -1.261,1.165 -2.522,2.331 -3.777,3.491 -1.239,1.177 -2.473,2.349 -3.698,3.512 -2.426,2.351 -4.812,4.664 -7.121,6.902 -2.303,2.245 -4.51,4.435 -6.562,6.552 -2.067,2.101 -3.991,4.119 -5.768,5.981 -1.765,1.873 -3.385,3.588 -4.791,5.138 -1.41,1.546 -2.657,2.876 -3.653,4.003 -2.003,2.241 -3.123,3.547 -3.124,3.547 l 0.142,0.141 c 0,0 1.306,-1.12 3.546,-3.124 1.128,-0.995 2.457,-2.242 4.004,-3.652 1.55,-1.406 3.265,-3.026 5.138,-4.792 1.861,-1.776 3.879,-3.7 5.98,-5.768 2.117,-2.051 4.307,-4.258 6.553,-6.561 2.238,-2.31 4.551,-4.696 6.901,-7.121 1.163,-1.225 2.335,-2.459 3.513,-3.698 1.16,-1.256 2.325,-2.517 3.49,-3.777 2.341,-2.511 4.672,-5.031 7.067,-7.411 2.381,-2.394 4.792,-4.682 7.177,-6.845 2.36,-2.189 4.684,-4.261 6.796,-6.318 2.116,-2.052 4.055,-4.055 5.856,-5.893 C -8.325,8.471 -5.41,5.321 -3.411,3.075 -2.913,2.513 -2.469,2.009 -2.082,1.571 -1.685,1.122 -1.392,0.764 -1.075,0.584 -0.464,0.192 0.036,0.223 0.02,0.199 Z"
             style="fill:#574248;fill-opacity:1;fill-rule:nonzero;stroke:none"
             id="path186"
             inkscape:connector-curvature="0" /></g><g
           id="g188"
           transform="translate(448.2349,244.2295)"><path
             d="M 0,0 C 0,0 0.27,0.027 0.793,0.08 1.051,0.126 1.36,0.241 1.731,0.348 2.061,0.547 2.483,0.683 2.867,1.055 3.295,1.361 3.63,1.812 4.079,2.279 4.51,2.75 4.981,3.264 5.49,3.818 6.018,4.356 6.506,5.003 7.037,5.684 7.568,6.363 8.133,7.086 8.73,7.849 c 2.262,3.148 4.741,7.157 7.194,11.958 2.429,4.816 4.765,10.439 7.03,16.67 2.269,6.23 4.381,13.103 6.421,20.426 1.009,3.666 1.95,7.458 2.872,11.344 0.886,3.896 1.755,7.882 2.592,11.949 1.68,8.132 3.131,16.596 4.383,25.23 0.636,4.316 1.213,8.676 1.717,13.06 l 0.375,3.292 c 0.1,1.075 0.298,2.268 0.208,3.154 -0.101,0.952 -0.601,1.853 -1.323,2.492 -0.363,0.311 -0.788,0.593 -1.2,0.74 -0.181,0.109 -0.455,0.165 -0.735,0.213 l -0.408,0.081 -0.317,-0.002 c -0.978,0.027 -1.965,-0.311 -2.732,-0.945 l -0.525,-0.528 c -0.15,-0.196 -0.277,-0.411 -0.421,-0.614 -0.214,-0.426 -0.408,-0.828 -0.487,-1.418 -0.256,-2.192 -0.511,-4.382 -0.766,-6.567 -0.509,-4.398 -1.087,-8.769 -1.721,-13.097 -1.206,-8.664 -2.609,-17.16 -4.12,-25.36 C 26.013,75.826 25.172,71.812 24.303,67.891 23.871,65.93 23.399,63.999 22.947,62.089 22.439,60.191 21.937,58.317 21.442,56.47 19.398,49.092 17.087,42.207 14.483,36.038 11.897,29.863 9.055,24.399 6.182,19.782 3.32,15.17 0.343,11.404 -2.388,8.653 -2.716,8.296 -3.057,7.964 -3.348,7.613 -3.491,7.442 -3.632,7.275 -3.771,7.109 -3.883,6.927 -3.976,6.734 -4.079,6.552 -4.193,6.374 -4.262,6.18 -4.313,5.982 -4.369,5.787 -4.443,5.599 -4.481,5.406 -4.505,5.015 -4.602,4.635 -4.534,4.27 -4.438,2.797 -3.649,1.674 -2.87,1.052 -2.501,0.692 -2.064,0.544 -1.732,0.346 -1.363,0.24 -1.062,0.126 -0.802,0.08 -0.267,0.027 0.009,0 0.009,0 Z m -0.009,-0.199 c 0,0 -0.277,0.025 -0.812,0.075 -0.267,0.044 -0.599,0.16 -0.991,0.273 -0.35,0.203 -0.808,0.359 -1.197,0.731 -0.203,0.158 -0.445,0.349 -0.609,0.585 -0.178,0.23 -0.401,0.438 -0.538,0.75 C -4.312,2.508 -4.493,2.809 -4.57,3.16 -4.62,3.331 -4.671,3.507 -4.724,3.686 -4.742,3.87 -4.761,4.06 -4.78,4.252 c -0.074,0.386 0.026,0.785 0.045,1.2 0.035,0.204 0.109,0.405 0.163,0.613 0.05,0.211 0.119,0.418 0.235,0.612 0.104,0.196 0.199,0.403 0.316,0.601 0.143,0.18 0.289,0.363 0.437,0.548 0.288,0.362 0.618,0.699 0.938,1.065 2.708,2.804 5.408,6.658 8.085,11.336 2.673,4.676 5.191,10.221 7.571,16.404 2.369,6.188 4.653,13.004 6.788,20.305 2.088,7.313 4.133,15.084 5.914,23.206 1.829,8.112 3.315,16.587 4.563,25.232 0.591,4.327 1.125,8.697 1.591,13.091 0.201,2.213 0.402,4.431 0.603,6.65 0.049,0.517 0.269,1.159 0.549,1.719 0.165,0.257 0.319,0.525 0.5,0.771 l 0.632,0.669 c 0.926,0.812 2.154,1.277 3.391,1.277 0.176,-0.002 0.261,0.026 0.514,-0.004 l 0.41,-0.068 c 0.27,-0.039 0.543,-0.08 0.865,-0.218 0.643,-0.206 1.164,-0.542 1.651,-0.932 0.958,-0.797 1.645,-1.952 1.825,-3.208 0.151,-1.324 -0.041,-2.344 -0.099,-3.473 l -0.278,-3.316 c -0.418,-4.413 -0.909,-8.8 -1.462,-13.145 C 39.842,96.5 38.458,87.986 36.871,79.791 35.299,71.592 33.388,63.741 31.341,56.361 29.316,48.974 26.98,42.102 24.511,35.884 22.043,29.663 19.35,24.138 16.723,19.382 14.07,14.634 11.35,10.749 9.032,7.621 6.594,4.577 4.553,2.31 3.012,0.877 2.638,0.518 2.166,0.349 1.813,0.147 1.423,0.036 1.099,-0.079 0.83,-0.124 0.282,-0.174 0,-0.199 0,-0.199 Z"
             style="fill:#574248;fill-opacity:1;fill-rule:nonzero;stroke:none"
             id="path190"
             inkscape:connector-curvature="0" /></g><g
           id="g192"
           transform="translate(448.2349,244.2295)"><path
             d="M 0,0 C 0,0 0.27,0.027 0.793,0.08 1.051,0.126 1.36,0.241 1.731,0.348 2.061,0.547 2.483,0.683 2.867,1.055 3.649,1.704 4.579,2.624 5.691,3.641 6.23,4.174 6.9,4.639 7.562,5.2 8.245,5.733 8.93,6.356 9.731,6.911 c 3.134,2.315 7.127,4.879 11.936,7.411 4.809,2.529 10.402,5.083 16.678,7.403 6.275,2.32 13.194,4.501 20.618,6.379 7.419,1.889 15.294,3.691 23.514,5.143 8.217,1.461 16.744,2.75 25.444,3.768 2.176,0.25 4.363,0.483 6.558,0.698 l 3.3,0.308 c 1.066,0.112 2.318,0.135 3.137,0.347 0.901,0.24 1.688,0.859 2.2,1.644 0.247,0.388 0.461,0.849 0.536,1.257 0.025,0.107 0.064,0.201 0.084,0.322 l 0.014,0.416 0.016,0.415 c 0.015,0.014 -0.032,0.206 -0.044,0.301 -0.114,0.946 -0.579,1.854 -1.307,2.5 l -0.588,0.429 c -0.205,0.127 -0.438,0.208 -0.655,0.32 -0.448,0.148 -0.837,0.28 -1.441,0.27 l -0.36,0.011 -0.413,-0.028 -0.829,-0.061 -1.656,-0.131 -3.31,-0.292 C 110.957,45.538 108.754,45.31 106.558,45.07 102.169,44.551 97.806,43.962 93.487,43.317 84.856,41.975 76.408,40.348 68.321,38.415 60.228,36.507 52.504,34.298 45.232,32.074 37.977,29.797 31.215,27.359 25.088,24.838 18.966,22.305 13.493,19.635 8.883,16.846 8.305,16.5 7.736,16.16 7.177,15.825 6.636,15.463 6.104,15.106 5.582,14.757 4.551,14.037 3.5,13.411 2.602,12.675 1.679,11.965 0.792,11.283 -0.054,10.633 -0.85,9.913 -1.61,9.228 -2.331,8.576 -3.051,7.919 -3.75,7.342 -4.079,6.552 -4.193,6.373 -4.262,6.18 -4.313,5.981 -4.369,5.787 -4.443,5.599 -4.481,5.406 -4.505,5.015 -4.602,4.635 -4.534,4.27 -4.438,2.796 -3.649,1.674 -2.87,1.052 -2.501,0.692 -2.064,0.544 -1.732,0.346 -1.363,0.24 -1.062,0.126 -0.802,0.08 -0.267,0.027 0.009,0 0.009,0 Z m -0.009,-0.199 c 0,0 -0.277,0.025 -0.812,0.075 -0.267,0.044 -0.599,0.16 -0.991,0.273 -0.35,0.203 -0.808,0.359 -1.197,0.731 -0.202,0.158 -0.444,0.349 -0.609,0.585 -0.178,0.23 -0.401,0.438 -0.538,0.75 C -4.312,2.508 -4.493,2.809 -4.57,3.16 -4.62,3.331 -4.671,3.507 -4.724,3.686 -4.742,3.87 -4.761,4.06 -4.78,4.252 c -0.074,0.386 0.026,0.785 0.045,1.2 0.035,0.204 0.109,0.405 0.163,0.613 0.05,0.211 0.119,0.418 0.235,0.612 0.328,0.844 1.082,1.503 1.768,2.157 2.726,2.755 6.469,5.747 10.991,8.744 4.542,2.986 9.927,5.979 16.037,8.717 6.103,2.758 12.936,5.226 20.273,7.413 7.324,2.244 15.195,4.067 23.357,5.759 8.181,1.616 16.653,3.16 25.304,4.462 4.319,0.687 8.683,1.32 13.073,1.882 2.195,0.293 4.394,0.584 6.6,0.844 l 3.311,0.38 1.66,0.176 0.831,0.083 0.416,0.04 c 0.25,0.013 0.308,10e-4 0.471,0.003 0.509,0.034 1.219,-0.092 1.816,-0.291 0.283,-0.127 0.582,-0.231 0.85,-0.386 0.259,-0.174 0.521,-0.346 0.773,-0.53 0.964,-0.801 1.62,-1.971 1.811,-3.215 0.023,-0.18 0.075,-0.256 0.071,-0.52 l -0.003,-0.416 -0.002,-0.416 c -0.016,-0.153 -0.056,-0.328 -0.085,-0.491 -0.109,-0.686 -0.366,-1.256 -0.687,-1.805 -0.658,-1.081 -1.706,-1.955 -2.941,-2.329 -0.618,-0.167 -1.28,-0.267 -1.789,-0.304 l -1.639,-0.17 -3.276,-0.371 c -2.181,-0.258 -4.353,-0.534 -6.515,-0.826 C 99.491,34.122 91.01,32.764 82.853,31.21 74.696,29.657 66.839,28.004 59.468,26.128 52.104,24.231 45.185,22.274 38.9,20.153 32.617,18.037 26.936,15.841 22.072,13.514 17.216,11.182 13.105,8.861 9.953,6.604 9.142,6.073 8.448,5.471 7.755,4.957 7.083,4.417 6.403,3.969 5.866,3.439 4.742,2.432 3.836,1.55 3.012,0.877 2.638,0.518 2.166,0.349 1.813,0.147 1.423,0.036 1.099,-0.079 0.83,-0.124 0.282,-0.174 0,-0.199 0,-0.199 Z"
             style="fill:#574248;fill-opacity:1;fill-rule:nonzero;stroke:none"
             id="path194"
             inkscape:connector-curvature="0" /></g><g
           id="g196"
           transform="translate(454.7847,237.668)"><path
             d="M 0,0 C 0,0 0.353,0.045 1.015,0.128 1.649,0.269 2.594,0.669 3.379,1.607 3.562,1.851 3.748,2.108 3.89,2.396 3.972,2.527 4.023,2.713 4.09,2.879 4.161,3.051 4.199,3.197 4.259,3.394 4.476,4.123 4.71,4.913 4.96,5.757 5.458,7.445 5.991,9.36 6.627,11.43 c 0.626,2.073 1.397,4.285 2.223,6.621 0.406,1.17 0.834,2.369 1.293,3.586 0.225,0.609 0.454,1.225 0.684,1.847 0.257,0.685 0.407,1.093 0.47,1.636 0.033,0.526 -0.038,1.061 -0.213,1.572 -0.105,0.254 -0.214,0.5 -0.339,0.686 -0.058,0.156 -0.458,0.595 -0.544,0.679 -0.768,0.775 -1.983,1.196 -3.06,1.057 C 6.954,29.14 6.444,28.97 6.242,28.926 L 5.226,28.587 C 4.548,28.361 3.869,28.135 3.187,27.907 1.817,27.475 0.441,27.039 -0.935,26.604 c -2.747,-0.881 -5.498,-1.751 -8.156,-2.743 -1.331,-0.491 -2.651,-0.979 -3.939,-1.506 -0.626,-0.265 -1.332,-0.504 -1.875,-0.797 -0.549,-0.296 -1.019,-0.704 -1.38,-1.182 -0.727,-0.966 -0.953,-2.193 -0.731,-3.261 0.241,-1.098 0.872,-1.881 1.804,-2.694 1.775,-1.728 3.424,-3.39 4.877,-4.995 1.459,-1.598 2.75,-3.111 3.914,-4.43 C -5.265,3.669 -4.25,2.518 -3.383,1.601 -2.549,0.672 -1.629,0.287 -1,0.135 -0.682,0.053 -0.412,0.058 -0.243,0.028 -0.069,0.01 0.021,0 0.021,0 Z m 0.001,-0.199 c 0,0 -0.09,0.008 -0.264,0.023 -0.174,0.026 -0.432,0.015 -0.768,0.091 -0.684,0.147 -1.652,0.552 -2.6,1.438 -0.917,0.866 -2.068,1.88 -3.396,3.037 -1.32,1.165 -2.832,2.455 -4.431,3.914 -1.604,1.452 -3.267,3.101 -4.995,4.877 -0.227,0.244 -0.395,0.407 -0.675,0.722 l -0.303,0.363 c -0.11,0.151 -0.224,0.329 -0.332,0.495 -0.387,0.669 -0.615,1.381 -0.707,2.133 -0.158,1.501 0.327,3.071 1.36,4.174 0.512,0.552 1.144,0.992 1.837,1.279 0.706,0.273 1.324,0.444 1.996,0.679 1.321,0.435 2.643,0.918 3.975,1.408 2.667,0.968 5.326,2.089 7.989,3.198 1.33,0.561 2.659,1.122 3.983,1.68 0.666,0.269 1.33,0.538 1.993,0.805 l 0.993,0.401 c 0.479,0.152 0.639,0.249 1.163,0.329 1.736,0.324 3.457,-0.265 4.705,-1.39 l 0.119,-0.103 0.136,-0.147 0.173,-0.193 c 0.113,-0.121 0.231,-0.252 0.365,-0.461 0.281,-0.378 0.462,-0.756 0.629,-1.133 0.305,-0.775 0.447,-1.606 0.419,-2.433 C 13.32,24.178 13.043,23.304 12.823,22.75 12.595,22.127 12.37,21.51 12.146,20.899 11.707,19.675 11.256,18.485 10.807,17.331 9.922,15.017 9.076,12.833 8.208,10.849 7.352,8.86 6.516,7.057 5.801,5.447 5.444,4.643 5.111,3.89 4.803,3.193 4.733,3.033 4.647,2.827 4.561,2.67 4.472,2.508 4.412,2.35 4.295,2.192 4.104,1.866 3.878,1.602 3.662,1.356 2.727,0.426 1.739,0.037 1.065,-0.096 0.384,-0.163 0.021,-0.199 0.021,-0.199 Z"
             style="fill:#574248;fill-opacity:1;fill-rule:nonzero;stroke:none"
             id="path198"
             inkscape:connector-curvature="0" /></g><g
           id="g200"
           transform="translate(393.1152,179.6484)"><path
             d="M 0,0 C 0,0 0.211,0.022 0.621,0.064 0.823,0.097 1.063,0.191 1.354,0.271 1.611,0.43 1.94,0.526 2.243,0.82 c 1.189,1.088 2.855,2.847 4.984,5.032 2.141,2.181 4.669,4.9 7.609,7.981 2.928,3.093 6.231,6.581 9.835,10.387 3.614,3.796 7.6,7.838 11.822,12.105 4.213,4.278 8.697,8.745 13.357,13.348 2.333,2.299 4.704,4.636 7.104,7.001 1.2,1.182 2.408,2.373 3.621,3.569 l 1.806,1.79 0.312,0.371 0.235,0.427 c 0.101,0.28 0.216,0.464 0.245,0.966 l 0.018,0.16 0.009,0.08 c 0.007,0.049 -0.009,-0.118 -0.006,-0.018 l -0.023,0.245 c -0.005,0.166 -0.022,0.33 -0.083,0.485 -0.091,0.36 -0.184,0.533 -0.375,0.856 l -0.352,0.442 -0.452,0.464 -0.906,0.928 c -1.209,1.241 -2.42,2.484 -3.635,3.729 -1.207,1.254 -2.416,2.51 -3.626,3.768 -0.598,0.603 -1.225,1.312 -1.8,1.831 -0.541,0.493 -1.264,0.787 -2.013,0.808 L 49.371,77.532 C 49.187,77.502 49.01,77.436 48.828,77.393 48.492,77.254 48.209,77.151 47.847,76.833 47.254,76.339 46.602,75.65 45.982,75.069 44.728,73.855 43.475,72.644 42.225,71.434 39.749,68.989 37.283,66.554 34.837,64.138 29.961,59.289 25.242,54.437 20.72,49.696 16.175,44.979 11.824,40.378 7.607,36.104 3.386,31.835 -0.634,27.829 -4.415,24.2 c -1.877,-1.828 -3.714,-3.541 -5.444,-5.188 -0.867,-0.822 -1.711,-1.622 -2.533,-2.4 l -0.306,-0.291 -0.237,-0.274 c -0.178,-0.169 -0.282,-0.387 -0.402,-0.595 -0.148,-0.205 -0.158,-0.419 -0.254,-0.626 -0.074,-0.217 -0.078,-0.52 -0.12,-0.772 -0.162,-1.908 1.816,-3.181 2.969,-4.559 1.264,-1.341 2.437,-2.56 3.506,-3.653 2.13,-2.183 3.799,-3.939 4.989,-5.024 C -1.959,0.537 -1.613,0.426 -1.355,0.27 -1.066,0.19 -0.834,0.097 -0.628,0.063 -0.208,0.021 0.01,0 0.01,0 Z m -0.01,-0.199 c 0,0 -0.217,0.019 -0.638,0.058 -0.211,0.032 -0.475,0.127 -0.787,0.214 -0.275,0.16 -0.642,0.279 -0.95,0.573 -1.236,1.108 -2.883,2.836 -5.099,4.948 -1.093,1.069 -2.313,2.242 -3.653,3.506 -0.668,0.634 -1.363,1.295 -2.085,1.979 -0.227,0.225 -0.344,0.389 -0.524,0.588 -0.162,0.202 -0.301,0.49 -0.447,0.742 -0.117,0.265 -0.189,0.541 -0.283,0.818 -0.037,0.303 -0.087,0.543 -0.097,0.912 0.031,0.273 0.013,0.516 0.084,0.819 0.092,0.298 0.136,0.648 0.296,0.906 0.138,0.278 0.267,0.565 0.481,0.802 l 0.295,0.374 0.291,0.307 c 0.778,0.821 1.578,1.666 2.4,2.533 1.647,1.729 3.359,3.567 5.188,5.443 3.629,3.781 7.635,7.801 11.905,12.022 4.273,4.217 8.875,8.568 13.592,13.113 4.74,4.521 9.592,9.24 14.441,14.116 2.416,2.447 4.851,4.912 7.297,7.388 1.209,1.25 2.422,2.503 3.635,3.757 0.632,0.633 1.155,1.243 1.878,1.894 0.281,0.278 0.789,0.577 1.256,0.766 0.238,0.071 0.473,0.161 0.718,0.21 l 0.745,0.081 c 1.003,0.014 2.012,-0.343 2.788,-0.991 0.741,-0.626 1.289,-1.217 1.943,-1.826 1.257,-1.21 2.513,-2.419 3.767,-3.625 1.246,-1.215 2.489,-2.427 3.729,-3.635 l 0.929,-0.906 0.464,-0.453 c -0.03,0.037 0.106,-0.112 0.111,-0.12 l 0.052,-0.062 0.104,-0.124 0.208,-0.247 c 0.284,-0.389 0.618,-0.984 0.727,-1.462 0.095,-0.251 0.135,-0.512 0.156,-0.779 l 0.04,-0.395 c 0.006,0.045 0.004,-0.175 0,-0.181 l -0.007,-0.08 -0.014,-0.16 C 64.894,63.392 64.924,63.24 64.829,62.926 64.75,62.651 64.685,62.344 64.568,62.103 64.448,61.866 64.325,61.628 64.193,61.398 L 63.691,60.776 61.885,58.933 C 60.689,57.719 59.5,56.512 58.316,55.312 55.951,52.911 53.614,50.54 51.315,48.208 46.713,43.548 42.245,39.063 37.967,34.851 33.7,30.628 29.658,26.643 25.862,23.028 22.057,19.425 18.568,16.121 15.476,13.193 12.395,10.254 9.676,7.725 7.494,5.584 5.276,3.474 3.625,1.748 2.389,0.643 2.096,0.361 1.713,0.229 1.436,0.07 1.126,-0.014 0.87,-0.108 0.656,-0.141 0.223,-0.18 0,-0.199 0,-0.199 Z"
             style="fill:#574248;fill-opacity:1;fill-rule:nonzero;stroke:none"
             id="path202"
             inkscape:connector-curvature="0" /></g></g></g></g></svg>