<?xml version="1.0" encoding="UTF-8" standalone="no"?>
<!-- Created with Inkscape (http://www.inkscape.org/) -->

<svg
   xmlns:dc="http://purl.org/dc/elements/1.1/"
   xmlns:cc="http://creativecommons.org/ns#"
   xmlns:rdf="http://www.w3.org/1999/02/22-rdf-syntax-ns#"
   xmlns:svg="http://www.w3.org/2000/svg"
   xmlns="http://www.w3.org/2000/svg"
   xmlns:sodipodi="http://sodipodi.sourceforge.net/DTD/sodipodi-0.dtd"
   xmlns:inkscape="http://www.inkscape.org/namespaces/inkscape"
   version="1.1"
   id="svg2"
   xml:space="preserve"
   width="1333.3333"
   height="1333.3333"
   viewBox="0 0 1333.3333 1333.3333"
   sodipodi:docname="umbrella.svg"
   inkscape:version="0.92.2 5c3e80d, 2017-08-06"><metadata
     id="metadata8"><rdf:RDF><cc:Work
         rdf:about=""><dc:format>image/svg+xml</dc:format><dc:type
           rdf:resource="http://purl.org/dc/dcmitype/StillImage" /><dc:title></dc:title></cc:Work></rdf:RDF></metadata><defs
     id="defs6"><clipPath
       clipPathUnits="userSpaceOnUse"
       id="clipPath18"><path
         d="M 0,1000 H 1000 V 0 H 0 Z"
         id="path16"
         inkscape:connector-curvature="0" /></clipPath><clipPath
       clipPathUnits="userSpaceOnUse"
       id="clipPath58"><path
         d="M 0,1000 H 1000 V 0 H 0 Z"
         id="path56"
         inkscape:connector-curvature="0" /></clipPath></defs><sodipodi:namedview
     pagecolor="#ffffff"
     bordercolor="#666666"
     borderopacity="1"
     objecttolerance="10"
     gridtolerance="10"
     guidetolerance="10"
     inkscape:pageopacity="0"
     inkscape:pageshadow="2"
     inkscape:window-width="1920"
     inkscape:window-height="1029"
     id="namedview4"
     showgrid="false"
     inkscape:zoom="0.58423832"
     inkscape:cx="356.00573"
     inkscape:cy="666.66663"
     inkscape:window-x="0"
     inkscape:window-y="24"
     inkscape:window-maximized="1"
     inkscape:current-layer="g10" /><g
     id="g10"
     inkscape:groupmode="layer"
     inkscape:label="umbrella"
     transform="matrix(1.3333333,0,0,-1.3333333,0,1333.3333)"><g
       id="g12"><g
         id="g14"
         clip-path="url(#clipPath18)"><g
           id="g20"
           transform="translate(768.0771,450.4619)"><path
             d="m 0,0 c 0,0 26.154,176.923 -172.308,264.615 0,0 138.462,-124.615 84.616,-255.385 0,0 66.154,29.232 87.692,-9.23"
             style="fill:#9deba1;fill-opacity:1;fill-rule:nonzero;stroke:none"
             id="path22"
             inkscape:connector-curvature="0" /></g><g
           id="g24"
           transform="translate(563.4619,721.231)"><path
             d="m 0,0 c 0,0 127.692,-35.384 104.615,-253.846 0,0 -41.539,41.538 -101.539,4.615 0,0 47.694,212.308 -3.076,249.231"
             style="fill:#cef6d1;fill-opacity:1;fill-rule:nonzero;stroke:none"
             id="path26"
             inkscape:connector-curvature="0" /></g><g
           id="g28"
           transform="translate(546.5381,724.3076)"><path
             d="m 0,0 c 0,0 35.384,-66.154 12.308,-240 0,0 -78.461,64.614 -104.615,9.23 0,0 67.691,270.77 92.307,230.77"
             style="fill:#9deba1;fill-opacity:1;fill-rule:nonzero;stroke:none"
             id="path30"
             inkscape:connector-curvature="0" /></g><g
           id="g32"
           transform="translate(443.4614,508.9229)"><path
             d="m 0,0 c 0,0 46.155,192.308 84.616,216.923 0,0 -92.308,35.385 -181.539,-195.384 0,0 75.384,6.153 96.923,-21.539"
             style="fill:#cef6d1;fill-opacity:1;fill-rule:nonzero;stroke:none"
             id="path34"
             inkscape:connector-curvature="0" /></g><g
           id="g36"
           transform="translate(481.9229,727.3848)"><path
             d="m 0,0 c 0,0 -161.538,43.077 -235.384,-166.154 0,0 84.615,13.846 81.538,-49.231 -3.077,-63.077 0,0 0,0 0,0 6.154,126.155 153.846,215.385"
             style="fill:#9deba1;fill-opacity:1;fill-rule:nonzero;stroke:none"
             id="path38"
             inkscape:connector-curvature="0" /></g><g
           id="g40"
           transform="translate(578,784)"><path
             d="M 0,0 C 0,0 -26,-32 -11,-42 4,-52 4,-6 0,0"
             style="fill:#78d6ff;fill-opacity:1;fill-rule:nonzero;stroke:none"
             id="path42"
             inkscape:connector-curvature="0" /></g><g
           id="g44"
           transform="translate(557.3076,824.3076)"><path
             d="m 0,0 c 0,0 -25.308,-35.308 -19.308,-46.308 6,-11 19.616,6.616 19.308,46.308"
             style="fill:#78d6ff;fill-opacity:1;fill-rule:nonzero;stroke:none"
             id="path46"
             inkscape:connector-curvature="0" /></g><g
           id="g48"
           transform="translate(576,838)"><path
             d="M 0,0 C 0,0 -12,-27 -5,-32 2,-37 1,-8 0,0"
             style="fill:#78d6ff;fill-opacity:1;fill-rule:nonzero;stroke:none"
             id="path50"
             inkscape:connector-curvature="0" /></g></g></g><g
       id="g52"><g
         id="g54"
         clip-path="url(#clipPath58)"><g
           id="g60"
           transform="translate(556.1416,439.0186)"><path
             d="m 0,0 c 1.338,7.239 4.039,14.269 8.019,20.508 3.963,6.248 9.149,11.728 15.176,16.055 6.024,4.333 12.888,7.515 20.117,9.293 7.23,1.773 14.809,2.118 22.188,1.048 0.934,-0.162 1.809,-0.27 2.791,-0.477 l 2.682,-0.64 c 0.893,-0.222 1.79,-0.407 2.681,-0.658 l 2.668,-0.911 c 0.886,-0.312 1.788,-0.592 2.659,-0.933 l 2.552,-1.154 c 0.845,-0.397 1.714,-0.746 2.539,-1.182 l 2.433,-1.389 c 0.801,-0.48 1.644,-0.894 2.41,-1.428 l 2.294,-1.611 c 0.748,-0.558 1.565,-1.03 2.257,-1.661 l 2.137,-1.816 c 1.473,-1.158 2.725,-2.555 4.043,-3.882 1.366,-1.286 2.451,-2.821 3.658,-4.25 l 0.885,-1.089 0.787,-1.163 1.569,-2.329 c 0.551,-0.759 0.997,-1.582 1.441,-2.406 l 1.353,-2.463 c 0.485,-0.805 0.809,-1.687 1.197,-2.539 l 1.123,-2.577 c 0.694,-1.74 1.201,-3.549 1.809,-5.322 0.492,-1.806 0.858,-3.648 1.291,-5.472 0.287,-1.852 0.505,-3.715 0.759,-5.573 l 0.216,-5.623 -0.325,-5.617 -2.308,0.431 c 0.882,2.676 1.589,5.418 2.809,7.971 1.006,2.643 2.473,5.064 3.814,7.546 l 2.365,3.509 0.593,0.877 c 0.205,0.286 0.441,0.55 0.661,0.825 l 1.341,1.638 1.341,1.637 c 0.457,0.537 0.98,1.015 1.467,1.525 1.008,0.987 1.945,2.051 3.014,2.971 l 3.237,2.728 c 1.097,0.887 2.298,1.638 3.443,2.463 0.587,0.391 1.14,0.836 1.756,1.181 l 1.839,1.049 c 1.238,0.68 2.425,1.456 3.737,1.988 1.288,0.579 2.567,1.179 3.863,1.739 l 4.003,1.39 1.002,0.346 1.027,0.257 2.059,0.505 2.058,0.504 c 0.692,0.144 1.396,0.219 2.093,0.332 1.4,0.182 2.791,0.469 4.201,0.562 l 4.235,0.22 c 0.706,0.064 1.412,0.005 2.118,-0.022 l 2.119,-0.094 2.118,-0.094 2.1,-0.289 c 1.407,-0.214 2.782,-0.361 4.214,-0.648 1.346,-0.297 2.69,-0.578 4.08,-0.992 2.758,-0.748 5.401,-1.712 7.992,-2.857 10.361,-4.548 19.312,-12.185 25.492,-21.642 l -2.315,-0.486 c 2.877,17.104 3.808,34.54 2.702,51.862 -1.11,17.323 -4.259,34.517 -9.264,51.16 -5.016,16.639 -11.823,32.76 -20.327,47.944 -8.481,15.199 -18.521,29.527 -29.847,42.756 -11.37,13.194 -24.029,25.261 -37.645,36.111 -13.611,10.862 -28.239,20.433 -43.571,28.665 -15.334,8.227 -31.358,15.171 -47.868,20.649 -16.508,5.492 -33.454,9.589 -50.636,12.302 -17.174,2.715 -34.528,4.03 -51.904,3.872 -17.364,-0.134 -34.717,-1.72 -51.794,-4.83 -17.077,-3.105 -33.879,-7.719 -50.113,-13.836 -16.23,-6.123 -31.895,-13.735 -46.701,-22.755 -14.797,-9.033 -28.707,-19.527 -41.365,-31.367 -12.658,-11.837 -24.06,-25.023 -33.833,-39.332 -9.802,-14.286 -17.993,-29.69 -24.25,-45.863 -1.51,-4.062 -2.886,-8.174 -4.337,-12.26 l -3.591,-12.501 c -0.939,-4.215 -1.961,-8.49 -2.835,-12.657 -0.16,-1.072 -0.376,-2.164 -0.49,-3.219 -0.084,-1.048 -0.201,-2.088 -0.263,-3.142 l -0.052,-3.19 0.163,-3.189 -2.127,0.529 c 0.997,1.366 1.915,2.791 2.978,4.105 1.098,1.285 2.1,2.654 3.313,3.836 l 1.758,1.826 c 0.598,0.596 1.248,1.138 1.87,1.709 0.638,0.553 1.236,1.154 1.907,1.666 l 2.003,1.551 1.002,0.774 1.053,0.703 2.109,1.4 c 1.436,0.884 2.919,1.696 4.398,2.502 3.031,1.478 6.13,2.837 9.367,3.787 l 2.419,0.733 2.466,0.555 c 1.634,0.421 3.311,0.615 4.975,0.867 0.831,0.146 1.67,0.21 2.511,0.261 l 2.519,0.179 c 1.681,0.051 3.366,0.015 5.047,-0.006 1.674,-0.16 3.36,-0.218 5.023,-0.465 l 2.49,-0.397 1.244,-0.199 1.235,-0.274 c 1.609,-0.332 3.252,-0.804 4.869,-1.279 l 2.39,-0.8 c 0.788,-0.289 1.566,-0.607 2.348,-0.91 6.206,-2.56 11.998,-6.15 16.944,-10.679 4.955,-4.514 9.126,-9.867 12.289,-15.756 3.137,-5.905 5.253,-12.334 6.233,-18.929 0.503,-3.296 0.667,-6.637 0.577,-9.964 -0.096,-3.326 -0.475,-6.641 -1.116,-9.903 l -0.294,0.057 c 0.586,3.256 0.909,6.554 0.952,9.856 0.038,3.3 -0.177,6.607 -0.726,9.86 -1.074,6.508 -3.263,12.818 -6.442,18.578 -3.205,5.747 -7.383,10.933 -12.302,15.274 -4.917,4.344 -10.6,7.79 -16.673,10.219 l -2.298,0.862 -2.335,0.753 c -1.569,0.441 -3.118,0.873 -4.761,1.194 l -1.195,0.253 -1.214,0.18 -2.424,0.359 c -1.619,0.223 -3.257,0.259 -4.883,0.399 -1.633,0.001 -3.267,0.019 -4.897,-0.048 l -2.44,-0.201 c -0.814,-0.057 -1.626,-0.127 -2.429,-0.278 -1.61,-0.264 -3.231,-0.466 -4.808,-0.893 l -2.38,-0.562 -2.333,-0.735 c -3.12,-0.952 -6.099,-2.301 -9.01,-3.757 -1.419,-0.796 -2.842,-1.593 -4.217,-2.46 l -2.019,-1.374 -1.009,-0.687 -0.957,-0.758 -1.913,-1.515 c -0.642,-0.499 -1.21,-1.086 -1.819,-1.625 -0.592,-0.556 -1.214,-1.083 -1.783,-1.663 l -1.672,-1.775 c -1.161,-1.142 -2.112,-2.468 -3.161,-3.709 -1.014,-1.269 -1.884,-2.646 -2.835,-3.962 l -1.941,-2.686 -0.186,3.216 -0.193,3.343 0.032,3.35 c 0.057,1.122 0.175,2.251 0.263,3.377 0.116,1.112 0.319,2.164 0.473,3.25 0.882,4.372 1.866,8.589 2.794,12.893 l 3.548,12.669 c 1.439,4.143 2.804,8.314 4.305,12.435 6.228,16.407 14.402,32.076 24.261,46.601 9.88,14.511 21.411,27.884 34.21,39.888 12.8,12.008 26.865,22.649 41.825,31.811 14.954,9.18 30.831,16.834 47.267,22.947 16.434,6.122 33.426,10.72 50.68,13.791 17.256,3.069 34.775,4.624 52.291,4.665 17.506,0.021 35.041,-1.454 52.296,-4.327 17.249,-2.867 34.292,-7.133 50.845,-12.791 16.562,-5.641 32.611,-12.761 47.944,-21.159 15.327,-8.412 29.919,-18.147 43.567,-29.061 13.64,-10.924 26.274,-23.1 37.683,-36.337 11.418,-13.224 21.56,-27.565 30.143,-42.795 8.557,-15.239 15.671,-31.316 20.873,-48.031 5.221,-16.701 8.578,-34.005 9.878,-51.485 1.315,-17.475 0.555,-35.127 -2.348,-52.432 l -0.536,-3.192 -1.78,2.705 c -5.945,9.036 -14.529,16.303 -24.435,20.611 -0.611,0.287 -1.234,0.545 -1.868,0.778 -0.631,0.239 -1.255,0.496 -1.89,0.722 -1.284,0.414 -2.563,0.876 -3.852,1.196 -1.26,0.376 -2.622,0.66 -3.975,0.952 -1.278,0.249 -2.657,0.395 -3.978,0.606 l -2.005,0.287 -2.021,0.096 -2.023,0.098 c -0.674,0.029 -1.348,0.091 -2.021,0.029 l -4.045,-0.192 c -1.347,-0.082 -2.675,-0.355 -4.013,-0.522 -0.667,-0.105 -1.341,-0.172 -2.001,-0.306 l -1.969,-0.477 -1.968,-0.474 -0.985,-0.24 -0.958,-0.329 -3.834,-1.311 -3.701,-1.65 c -1.259,-0.501 -2.396,-1.244 -3.583,-1.888 l -1.766,-0.995 c -0.591,-0.327 -1.121,-0.754 -1.685,-1.125 -1.098,-0.787 -2.253,-1.498 -3.307,-2.345 l -3.111,-2.601 c -1.029,-0.876 -1.927,-1.895 -2.898,-2.835 -0.468,-0.486 -0.973,-0.94 -1.412,-1.454 L 126.572,3.965 125.28,2.401 c -0.212,-0.262 -0.44,-0.513 -0.638,-0.788 l -0.57,-0.839 -2.282,-3.354 c -1.289,-2.375 -2.713,-4.688 -3.685,-7.221 -1.184,-2.442 -1.864,-5.074 -2.729,-7.638 l -2.309,0.43 0.334,5.394 -0.186,5.399 c -0.239,1.785 -0.441,3.577 -0.707,5.358 -0.412,1.753 -0.755,3.525 -1.22,5.264 -0.58,1.705 -1.059,3.449 -1.719,5.124 l -1.058,2.49 c -0.365,0.824 -0.666,1.678 -1.127,2.456 l -1.28,2.383 c -0.419,0.799 -0.84,1.599 -1.365,2.334 l -1.491,2.26 -0.745,1.13 -0.846,1.059 c -1.151,1.387 -2.18,2.885 -3.489,4.136 -1.261,1.293 -2.454,2.659 -3.869,3.788 l -2.047,1.779 c -0.662,0.618 -1.448,1.078 -2.166,1.626 l -2.203,1.582 c -0.737,0.525 -1.549,0.93 -2.32,1.403 l -2.341,1.371 c -0.795,0.43 -1.633,0.775 -2.449,1.167 l -2.46,1.145 c -0.835,0.337 -1.691,0.608 -2.535,0.917 l -2.541,0.902 c -0.872,0.256 -1.778,0.453 -2.666,0.683 l -2.675,0.667 c -0.815,0.179 -1.764,0.314 -2.64,0.475 C 58.092,46.396 50.713,46.13 43.64,44.479 36.562,42.854 29.793,39.85 23.813,35.688 17.831,31.533 12.64,26.221 8.63,20.113 6.626,17.06 4.907,13.814 3.508,10.433 2.107,7.045 1.038,3.544 0.293,-0.064 Z"
             style="fill:#000000;fill-opacity:1;fill-rule:nonzero;stroke:none"
             id="path62"
             inkscape:connector-curvature="0" /></g><g
           id="g64"
           transform="translate(328.876,482.3447)"><path
             d="m 0,0 c 0,0 0.101,0.703 0.291,2.022 0.08,0.661 0.255,1.465 0.464,2.419 0.104,0.477 0.217,0.99 0.337,1.537 0.144,0.54 0.298,1.113 0.46,1.718 0.671,2.416 1.659,5.325 3.209,8.484 1.518,3.171 3.584,6.595 6.259,10.022 2.694,3.407 6.042,6.782 10.036,9.767 1.006,0.734 2.053,1.441 3.124,2.134 1.095,0.658 2.201,1.323 3.366,1.913 2.298,1.233 4.738,2.305 7.272,3.224 5.076,1.825 10.511,3.066 16.103,3.659 5.603,0.558 11.336,0.488 17.064,-0.41 2.763,-0.468 5.648,-1.104 8.385,-1.963 2.727,-0.918 5.411,-1.964 7.962,-3.251 5.097,-2.574 9.726,-5.883 13.69,-9.631 1.995,-1.863 3.804,-3.859 5.418,-5.933 0.832,-1.018 1.578,-2.083 2.318,-3.133 0.707,-1.071 1.386,-2.144 2.015,-3.224 2.512,-4.329 4.331,-8.728 5.514,-12.915 1.171,-4.193 1.783,-8.145 1.979,-11.655 0.219,-3.51 0.092,-6.572 -0.191,-9.064 -0.074,-0.622 -0.144,-1.211 -0.21,-1.766 -0.091,-0.55 -0.177,-1.065 -0.256,-1.545 -0.158,-0.959 -0.296,-1.771 -0.464,-2.421 -0.308,-1.3 -0.471,-1.993 -0.471,-1.993 l -0.295,0.057 c 0,0 0.07,0.705 0.202,2.025 0.081,0.656 0.142,1.471 0.192,2.428 0.028,0.477 0.057,0.99 0.089,1.538 0.006,0.548 0.012,1.13 0.018,1.745 0,2.455 -0.049,5.439 -0.547,8.805 -0.486,3.362 -1.27,7.117 -2.602,11.054 -1.298,3.947 -3.206,8.041 -5.644,12.104 -2.493,4.028 -5.538,8.029 -9.226,11.659 -3.654,3.662 -7.984,6.896 -12.758,9.526 -2.376,1.342 -4.897,2.463 -7.476,3.471 -2.593,1.012 -5.206,1.796 -7.995,2.477 -2.693,0.573 -5.493,1.032 -8.276,1.24 -2.79,0.153 -5.588,0.159 -8.342,-0.134 C 45.503,45.438 40.186,43.95 35.428,41.743 30.629,39.612 26.399,36.794 22.649,33.876 18.918,30.922 15.64,27.807 12.997,24.594 10.317,21.412 8.212,18.205 6.533,15.256 5.698,13.776 4.993,12.351 4.344,11.024 3.758,9.675 3.174,8.444 2.745,7.294 2.52,6.722 2.307,6.18 2.107,5.67 1.931,5.153 1.766,4.668 1.613,4.217 1.301,3.315 1.053,2.538 0.877,1.893 0.496,0.616 0.293,-0.064 0.293,-0.064 Z"
             style="fill:#000000;fill-opacity:1;fill-rule:nonzero;stroke:none"
             id="path66"
             inkscape:connector-curvature="0" /></g><g
           id="g68"
           transform="translate(442.6055,461.5215)"><path
             d="m 0,0 c 0,0 0.101,0.703 0.291,2.022 0.08,0.661 0.255,1.465 0.464,2.419 0.104,0.477 0.217,0.99 0.337,1.537 0.144,0.54 0.298,1.112 0.46,1.718 0.671,2.416 1.659,5.325 3.209,8.484 1.518,3.171 3.584,6.594 6.259,10.022 2.694,3.407 6.042,6.781 10.036,9.766 1.006,0.734 2.053,1.441 3.124,2.134 1.095,0.659 2.201,1.324 3.366,1.914 2.298,1.232 4.739,2.304 7.273,3.223 5.075,1.825 10.51,3.066 16.102,3.659 5.603,0.558 11.336,0.489 17.064,-0.41 2.762,-0.467 5.648,-1.103 8.385,-1.962 2.727,-0.918 5.41,-1.965 7.961,-3.251 5.098,-2.575 9.727,-5.883 13.69,-9.632 1.996,-1.862 3.805,-3.859 5.418,-5.932 0.832,-1.019 1.579,-2.083 2.319,-3.134 0.707,-1.07 1.386,-2.143 2.015,-3.223 2.512,-4.33 4.331,-8.728 5.514,-12.915 1.171,-4.193 1.782,-8.146 1.979,-11.655 0.219,-3.51 0.092,-6.572 -0.192,-9.064 -0.073,-0.622 -0.143,-1.211 -0.209,-1.766 -0.091,-0.55 -0.177,-1.065 -0.257,-1.545 -0.158,-0.959 -0.295,-1.771 -0.463,-2.421 -0.307,-1.3 -0.471,-1.993 -0.471,-1.993 l -0.295,0.057 c 0,0 0.07,0.705 0.202,2.025 0.081,0.657 0.142,1.471 0.192,2.428 0.028,0.477 0.057,0.99 0.088,1.538 0.006,0.548 0.013,1.13 0.019,1.745 0.001,2.455 -0.049,5.439 -0.547,8.805 -0.486,3.362 -1.27,7.116 -2.603,11.053 -1.297,3.948 -3.206,8.042 -5.643,12.105 -2.493,4.028 -5.538,8.028 -9.226,11.658 -3.655,3.662 -7.984,6.897 -12.759,9.527 -2.375,1.342 -4.896,2.463 -7.475,3.47 -2.594,1.012 -5.206,1.797 -7.995,2.478 -2.693,0.573 -5.493,1.032 -8.276,1.24 -2.79,0.152 -5.588,0.158 -8.342,-0.135 C 45.503,45.437 40.186,43.95 35.428,41.743 30.629,39.611 26.399,36.794 22.649,33.875 18.918,30.922 15.64,27.807 12.997,24.594 10.317,21.411 8.212,18.205 6.533,15.256 5.698,13.776 4.993,12.351 4.344,11.024 3.758,9.674 3.174,8.444 2.745,7.294 2.52,6.722 2.307,6.18 2.107,5.67 1.931,5.152 1.766,4.668 1.613,4.217 1.301,3.315 1.053,2.537 0.877,1.893 0.496,0.616 0.293,-0.064 0.293,-0.064 Z"
             style="fill:#000000;fill-opacity:1;fill-rule:nonzero;stroke:none"
             id="path70"
             inkscape:connector-curvature="0" /></g><g
           id="g72"
           transform="translate(330.4644,490.5508)"><path
             d="m 0,0 c 0,0 0.221,1.361 0.635,3.913 0.409,2.55 1.11,6.279 2.025,11.025 0.946,4.736 2.221,10.463 3.851,16.994 1.607,6.537 3.623,13.865 6.107,21.775 2.511,7.899 5.431,16.4 8.966,25.221 3.518,8.827 7.752,17.92 12.402,27.17 4.689,9.234 9.822,18.616 15.344,27.971 2.732,4.695 5.612,9.354 8.618,13.957 2.938,4.65 6.063,9.206 9.256,13.716 3.196,4.509 6.546,8.91 9.975,13.226 3.477,4.277 7.077,8.429 10.755,12.455 3.702,4.005 7.54,7.826 11.426,11.504 3.903,3.662 7.906,7.124 11.945,10.408 4.033,3.294 8.196,6.29 12.347,9.105 4.14,2.836 8.376,5.338 12.57,7.633 8.386,4.606 16.794,8.076 24.766,10.559 3.986,1.246 7.872,2.215 11.594,3.007 3.728,0.758 7.301,1.29 10.673,1.618 6.745,0.674 12.663,0.677 17.5,0.325 2.423,-0.135 4.569,-0.437 6.438,-0.64 1.859,-0.288 3.441,-0.519 4.715,-0.753 2.536,-0.525 3.888,-0.805 3.888,-0.805 l -0.056,-0.295 c 0,0 -1.364,0.186 -3.918,0.536 -1.28,0.147 -2.863,0.301 -4.718,0.48 -1.864,0.099 -4,0.281 -6.4,0.282 -4.791,0.068 -10.621,-0.109 -17.213,-1.057 -6.591,-0.931 -13.939,-2.579 -21.695,-5.189 -7.745,-2.634 -15.874,-6.243 -24.064,-10.807 -4.079,-2.31 -8.211,-4.793 -12.294,-7.553 -4.082,-2.759 -8.167,-5.71 -12.198,-8.878 -4.021,-3.177 -8.015,-6.536 -11.917,-10.098 -3.894,-3.57 -7.714,-7.317 -11.467,-11.195 -7.474,-7.785 -14.619,-16.139 -21.331,-24.844 -3.315,-4.383 -6.576,-8.815 -9.642,-13.357 -3.05,-4.552 -5.975,-9.163 -8.755,-13.813 -1.416,-2.309 -2.727,-4.669 -4.038,-7.011 -1.33,-2.332 -2.557,-4.706 -3.8,-7.05 -2.432,-4.721 -4.722,-9.44 -6.848,-14.138 C 31.136,96.025 27.417,86.778 24.032,77.966 20.645,69.153 17.618,60.753 15.043,52.924 12.423,45.108 10.289,37.856 8.405,31.424 6.517,24.992 5.122,19.314 3.887,14.658 2.7,9.993 1.802,6.314 1.224,3.794 0.617,1.281 0.294,-0.059 0.294,-0.059 Z"
             style="fill:#000000;fill-opacity:1;fill-rule:nonzero;stroke:none"
             id="path74"
             inkscape:connector-curvature="0" /></g><g
           id="g76"
           transform="translate(443.4014,466.3145)"><path
             d="m 0,0 c 0,0 0.167,1.123 0.479,3.229 0.34,2.1 0.839,5.182 1.474,9.104 0.652,3.92 1.496,8.67 2.538,14.104 1.025,5.439 2.274,11.556 3.693,18.218 1.45,6.654 3.049,13.859 4.945,21.43 1.886,7.574 4.136,15.496 6.456,23.686 2.373,8.178 4.797,16.63 7.22,25.23 1.212,4.3 2.434,8.635 3.66,12.986 1.205,4.359 2.442,8.727 3.706,13.089 1.262,4.363 2.535,8.724 3.859,13.051 1.339,4.323 2.729,8.612 4.12,12.864 2.844,8.483 5.813,16.778 8.854,24.747 3.055,7.964 6.223,15.588 9.531,22.686 3.268,7.116 6.662,13.712 10.08,19.647 3.405,5.94 6.808,11.247 10.275,15.635 1.714,2.205 3.42,4.198 5.119,5.932 1.697,1.733 3.341,3.257 4.996,4.431 1.641,1.183 3.207,2.116 4.671,2.72 1.47,0.578 2.776,0.957 3.872,1.02 0.541,0.08 1.023,0.058 1.438,0.043 0.207,-0.007 0.398,-0.013 0.572,-0.019 0.171,-0.027 0.327,-0.053 0.465,-0.075 0.552,-0.091 0.836,-0.138 0.836,-0.138 l -0.056,-0.295 c 0,0 -0.279,0.023 -0.818,0.066 -0.133,0.01 -0.284,0.023 -0.45,0.036 -0.167,-0.009 -0.349,-0.018 -0.548,-0.029 -0.396,-0.018 -0.854,-0.034 -1.362,-0.154 -1.026,-0.142 -2.246,-0.577 -3.599,-1.22 -1.35,-0.665 -2.786,-1.658 -4.284,-2.897 -2.972,-2.516 -6.164,-6.088 -9.294,-10.579 -1.585,-2.23 -3.146,-4.694 -4.75,-7.319 -1.601,-2.626 -3.208,-5.439 -4.793,-8.427 -1.596,-2.98 -3.185,-6.127 -4.757,-9.421 -1.58,-3.289 -3.19,-6.704 -4.766,-10.252 -1.586,-3.543 -3.145,-7.216 -4.75,-10.966 -1.579,-3.762 -3.144,-7.625 -4.735,-11.558 -3.167,-7.87 -6.229,-16.09 -9.25,-24.479 -1.51,-4.195 -3.021,-8.429 -4.483,-12.699 -1.507,-4.255 -2.973,-8.544 -4.424,-12.84 -1.429,-4.302 -2.837,-8.612 -4.202,-12.919 C 30.2,123.354 28.902,119.046 27.684,114.751 25.233,106.167 23.062,97.65 21.148,89.364 19.182,81.091 17.454,73.056 15.686,65.469 13.906,57.885 12.224,50.715 10.67,44.096 7.574,30.85 4.993,19.812 3.187,12.085 2.274,8.22 1.558,5.184 1.069,3.112 0.563,1.045 0.294,-0.059 0.294,-0.059 Z"
             style="fill:#000000;fill-opacity:1;fill-rule:nonzero;stroke:none"
             id="path78"
             inkscape:connector-curvature="0" /></g><g
           id="g80"
           transform="translate(555.8574,445.7363)"><path
             d="m 0,0 c 0,0 0.168,1.159 0.481,3.334 0.329,2.172 0.809,5.355 1.421,9.408 0.607,4.051 1.343,8.97 2.188,14.612 0.82,5.644 1.789,12.003 2.75,18.955 1.006,6.944 2.016,14.477 3.11,22.441 1.087,7.964 2.346,16.353 3.431,25.061 1.138,8.702 2.084,17.726 2.742,26.917 0.323,4.596 0.595,9.232 0.793,13.89 0.18,4.659 0.308,9.337 0.394,14.014 0.077,4.679 0.098,9.356 0.078,14.014 0.008,4.657 -0.028,9.294 -0.127,13.893 -0.154,9.197 -0.509,18.241 -1.124,26.967 -0.324,4.362 -0.661,8.647 -1.068,12.834 -0.439,4.181 -0.876,8.272 -1.404,12.238 -1.077,7.927 -2.359,15.384 -3.985,22.157 -1.621,6.774 -3.622,12.841 -5.839,18.018 -1.138,2.575 -2.351,4.914 -3.613,6.989 -1.274,2.069 -2.634,3.836 -3.95,5.354 -1.335,1.504 -2.7,2.675 -3.954,3.607 -0.641,0.44 -1.251,0.833 -1.822,1.168 -0.591,0.295 -1.117,0.596 -1.611,0.814 -0.502,0.203 -0.946,0.382 -1.328,0.537 -0.388,0.141 -0.728,0.22 -0.996,0.304 -0.541,0.157 -0.819,0.238 -0.819,0.238 l 0.057,0.295 c 0,0 0.289,-0.059 0.85,-0.175 0.279,-0.063 0.634,-0.116 1.042,-0.228 0.406,-0.128 0.875,-0.276 1.407,-0.443 0.528,-0.179 1.086,-0.457 1.721,-0.724 0.612,-0.307 1.27,-0.673 1.968,-1.087 1.361,-0.88 2.862,-2.008 4.351,-3.48 1.479,-1.475 2.977,-3.252 4.393,-5.328 1.406,-2.081 2.77,-4.431 4.064,-7.021 2.574,-5.188 4.764,-11.35 6.615,-18.188 1.863,-6.838 3.397,-14.361 4.547,-22.375 1.187,-8.01 1.981,-16.51 2.475,-25.309 0.465,-8.802 0.711,-17.903 0.665,-27.144 -0.032,-4.621 -0.129,-9.277 -0.269,-13.948 -0.177,-4.671 -0.405,-9.356 -0.683,-14.038 -0.261,-4.681 -0.569,-9.36 -0.918,-14.015 -0.335,-4.656 -0.668,-9.294 -0.998,-13.895 -0.697,-9.2 -1.384,-18.254 -2.048,-27.016 C 14.264,84.885 13.531,76.413 12.559,68.413 11.596,60.41 10.448,52.876 9.36,45.928 8.24,38.984 7.125,32.635 6.061,27.021 5.003,21.406 4.008,16.526 3.14,12.517 2.265,8.507 1.573,5.361 1.072,3.222 0.565,1.084 0.295,-0.057 0.295,-0.057 Z"
             style="fill:#000000;fill-opacity:1;fill-rule:nonzero;stroke:none"
             id="path82"
             inkscape:connector-curvature="0" /></g><g
           id="g84"
           transform="translate(671.2705,428.1494)"><path
             d="m 0,0 c 0,0 0.19,1.379 0.548,3.964 0.351,2.585 0.976,6.364 1.603,11.189 0.266,2.418 0.604,5.086 0.967,7.99 0.182,1.452 0.37,2.961 0.566,4.529 0.145,1.574 0.295,3.205 0.45,4.891 0.289,3.371 0.685,6.948 0.946,10.732 0.25,3.784 0.514,7.763 0.788,11.914 0.163,4.156 0.334,8.485 0.51,12.967 0.049,4.483 0.1,9.118 0.151,13.883 -0.028,2.382 -0.056,4.798 -0.086,7.243 -0.022,2.445 0.016,4.924 -0.116,7.423 -0.206,5.001 -0.297,10.122 -0.743,15.309 -0.192,2.595 -0.355,5.216 -0.575,7.851 -0.293,2.629 -0.589,5.275 -0.887,7.938 -0.154,1.332 -0.309,2.667 -0.465,4.007 -0.211,1.331 -0.424,2.666 -0.636,4.003 -0.434,2.675 -0.831,5.372 -1.313,8.063 -0.555,2.678 -1.112,5.366 -1.671,8.062 -0.289,1.346 -0.537,2.702 -0.861,4.044 l -0.994,4.024 c -0.708,2.674 -1.331,5.375 -2.121,8.034 -0.796,2.656 -1.593,5.314 -2.389,7.972 -0.382,1.334 -0.826,2.648 -1.292,3.954 l -1.362,3.929 -1.361,3.921 c -0.452,1.307 -1.001,2.577 -1.492,3.866 -1.008,2.569 -1.965,5.152 -3.007,7.69 -1.1,2.513 -2.198,5.018 -3.291,7.514 -4.548,9.894 -9.503,19.415 -15.107,28.123 -5.631,8.684 -11.622,16.701 -17.876,23.819 -1.574,1.767 -3.224,3.421 -4.796,5.1 -0.8,0.825 -1.561,1.679 -2.376,2.464 -0.825,0.774 -1.645,1.541 -2.457,2.302 -0.812,0.763 -1.615,1.519 -2.413,2.269 -0.802,0.745 -1.569,1.517 -2.418,2.175 -1.659,1.366 -3.288,2.707 -4.883,4.02 -0.398,0.328 -0.796,0.655 -1.19,0.981 -0.405,0.312 -0.827,0.596 -1.236,0.893 -0.822,0.588 -1.636,1.169 -2.441,1.743 -0.805,0.575 -1.601,1.143 -2.387,1.705 -0.782,0.568 -1.558,1.125 -2.376,1.594 -1.604,0.988 -3.168,1.951 -4.687,2.887 -0.765,0.46 -1.493,0.964 -2.258,1.37 -0.768,0.402 -1.525,0.798 -2.269,1.189 -1.49,0.78 -2.932,1.537 -4.325,2.267 -0.688,0.385 -1.394,0.696 -2.094,0.986 -0.696,0.3 -1.379,0.594 -2.048,0.882 -2.68,1.143 -5.116,2.276 -7.429,2.999 -2.287,0.793 -4.325,1.532 -6.115,2.122 -1.823,0.482 -3.373,0.892 -4.629,1.225 -2.516,0.681 -3.858,1.044 -3.858,1.044 l 0.057,0.295 c 0,0 1.366,-0.272 3.929,-0.783 1.282,-0.264 2.864,-0.588 4.723,-0.97 1.831,-0.495 3.921,-1.125 6.275,-1.799 2.384,-0.591 4.886,-1.64 7.648,-2.691 0.69,-0.265 1.394,-0.536 2.111,-0.811 0.722,-0.267 1.452,-0.555 2.162,-0.916 1.443,-0.684 2.937,-1.392 4.481,-2.124 0.772,-0.367 1.558,-0.739 2.354,-1.117 0.796,-0.382 1.553,-0.862 2.35,-1.299 1.576,-0.904 3.198,-1.835 4.863,-2.79 0.846,-0.458 1.649,-1.005 2.459,-1.563 0.815,-0.552 1.64,-1.111 2.474,-1.676 0.834,-0.566 1.679,-1.138 2.532,-1.717 0.424,-0.293 0.862,-0.573 1.281,-0.881 0.412,-0.321 0.824,-0.644 1.238,-0.969 1.659,-1.299 3.353,-2.625 5.079,-3.977 0.884,-0.652 1.683,-1.418 2.52,-2.156 0.831,-0.745 1.671,-1.496 2.518,-2.254 0.845,-0.759 1.697,-1.525 2.558,-2.297 0.839,-0.792 1.626,-1.652 2.451,-2.485 1.622,-1.693 3.324,-3.364 4.949,-5.148 1.576,-1.828 3.174,-3.681 4.791,-5.557 l 1.205,-1.421 1.131,-1.494 c 0.756,-0.998 1.516,-2.003 2.28,-3.012 0.765,-1.01 1.533,-2.026 2.305,-3.046 0.747,-1.038 1.444,-2.12 2.174,-3.186 0.718,-1.073 1.441,-2.151 2.168,-3.234 0.712,-1.091 1.478,-2.154 2.124,-3.301 1.341,-2.26 2.694,-4.538 4.056,-6.833 1.348,-2.302 2.532,-4.717 3.817,-7.093 0.624,-1.198 1.282,-2.384 1.882,-3.602 0.577,-1.23 1.156,-2.462 1.737,-3.698 0.58,-1.235 1.162,-2.474 1.745,-3.716 l 0.874,-1.864 0.785,-1.909 c 4.407,-10.1 7.91,-20.741 10.961,-31.471 0.716,-2.696 1.432,-5.392 2.148,-8.085 0.71,-2.694 1.244,-5.428 1.877,-8.131 l 0.951,-4.049 c 0.309,-1.35 0.543,-2.714 0.817,-4.068 0.529,-2.71 1.057,-5.413 1.582,-8.105 0.447,-2.705 0.893,-5.399 1.335,-8.081 0.225,-1.34 0.448,-2.677 0.672,-4.011 0.186,-1.339 0.372,-2.674 0.558,-4.005 0.376,-2.663 0.75,-5.309 1.121,-7.937 0.325,-2.633 0.591,-5.255 0.886,-7.853 C 8.355,101.781 8.94,91.672 9.159,82.079 9.187,77.283 9.112,72.615 9.053,68.102 8.831,63.594 8.617,59.238 8.412,55.057 8.052,50.887 7.706,46.891 7.378,43.09 7.24,41.188 6.987,39.346 6.755,37.555 6.524,35.764 6.3,34.023 6.082,32.338 5.864,30.652 5.654,29.021 5.451,27.447 5.196,25.879 4.951,24.367 4.716,22.914 4.246,20.009 3.818,17.341 3.392,14.94 2.483,10.152 1.661,6.417 1.14,3.859 0.589,1.308 0.295,-0.053 0.295,-0.053 Z"
             style="fill:#000000;fill-opacity:1;fill-rule:nonzero;stroke:none"
             id="path86"
             inkscape:connector-curvature="0" /></g><g
           id="g88"
           transform="translate(502.7441,507.1064)"><path
             d="m 0,0 c -0.433,-3.383 -0.9,-6.76 -1.42,-10.126 -0.494,-3.371 -1.059,-6.728 -1.593,-10.091 -1.122,-6.716 -2.314,-13.417 -3.558,-20.107 L -8.493,-50.35 c -0.681,-3.334 -1.33,-6.673 -2.074,-9.995 -0.714,-3.326 -1.497,-6.639 -2.291,-9.95 l -2.365,-9.936 c -0.776,-3.315 -1.613,-6.617 -2.339,-9.942 -0.762,-3.316 -1.457,-6.647 -2.147,-9.979 -0.68,-3.334 -1.33,-6.674 -1.958,-10.018 l -0.923,-5.02 -0.861,-5.033 -3.394,-20.14 c -1.137,-6.713 -2.411,-13.398 -3.664,-20.087 l 0.036,0.308 c -0.082,-2.129 -0.283,-4.107 -0.544,-6.139 -0.277,-2.015 -0.593,-4.026 -1.012,-6.018 -0.4,-1.996 -0.898,-3.973 -1.439,-5.942 l -0.932,-2.921 c -0.352,-0.962 -0.683,-1.931 -1.055,-2.886 -0.396,-0.947 -0.767,-1.904 -1.186,-2.842 -0.443,-0.929 -0.862,-1.869 -1.328,-2.789 -0.503,-0.902 -0.99,-1.811 -1.508,-2.705 l -1.665,-2.622 -1.837,-2.515 c -0.656,-0.807 -1.342,-1.593 -2.013,-2.388 -0.695,-0.777 -1.459,-1.495 -2.196,-2.233 -0.734,-0.741 -1.588,-1.361 -2.377,-2.044 -0.777,-0.7 -1.69,-1.233 -2.538,-1.841 -0.841,-0.624 -1.765,-1.119 -2.683,-1.62 l -1.372,-0.757 c -0.469,-0.228 -0.959,-0.414 -1.438,-0.621 -0.969,-0.384 -1.901,-0.865 -2.912,-1.125 -0.996,-0.297 -1.982,-0.628 -2.983,-0.889 l -3.042,-0.604 c -0.504,-0.12 -1.017,-0.163 -1.53,-0.203 l -1.537,-0.134 -1.532,-0.133 c -0.51,-0.038 -1.023,-0.006 -1.533,-0.012 l -3.058,0.022 -3.032,0.285 -1.511,0.145 c -0.502,0.056 -0.996,0.169 -1.494,0.251 -0.994,0.176 -1.986,0.357 -2.973,0.553 -1.967,0.425 -3.888,1.03 -5.821,1.535 -1.9,0.633 -3.777,1.325 -5.648,2.003 l 0.125,0.381 5.79,-1.34 c 1.954,-0.305 3.884,-0.708 5.835,-0.927 1.961,-0.13 3.892,-0.5 5.848,-0.458 l 2.916,-0.06 2.898,0.193 c 0.48,0.041 0.965,0.044 1.441,0.115 l 1.425,0.232 c 0.943,0.18 1.906,0.249 2.826,0.515 l 2.772,0.702 c 0.905,0.29 1.787,0.643 2.68,0.957 0.908,0.279 1.727,0.77 2.584,1.16 0.423,0.208 0.853,0.403 1.27,0.62 l 1.208,0.732 c 0.809,0.483 1.622,0.953 2.355,1.548 0.742,0.58 1.543,1.077 2.217,1.741 0.685,0.647 1.432,1.221 2.068,1.919 0.632,0.7 1.313,1.351 1.927,2.069 l 1.782,2.204 1.63,2.33 1.479,2.439 1.34,2.528 c 0.431,0.852 0.825,1.726 1.24,2.587 0.394,0.874 0.743,1.77 1.117,2.654 0.351,0.893 0.664,1.805 0.999,2.707 l 0.888,2.753 c 0.551,1.849 1.076,3.712 1.502,5.602 0.447,1.885 0.796,3.794 1.109,5.706 0.296,1.901 0.538,3.873 0.656,5.712 l 0.013,0.2 0.023,0.11 c 1.428,6.653 2.836,13.311 4.381,19.942 l 4.65,19.888 1.15,4.974 1.088,4.988 c 0.713,3.327 1.404,6.659 2.064,9.996 0.651,3.34 1.297,6.681 1.876,10.034 0.614,3.348 1.118,6.717 1.682,10.073 l 1.659,10.078 c 0.546,3.362 1.103,6.72 1.731,10.064 0.596,3.351 1.287,6.683 1.948,10.02 l 2.1,9.99 c 1.437,6.651 2.927,13.293 4.486,19.921 0.806,3.308 1.582,6.623 2.429,9.922 0.822,3.306 1.694,6.601 2.602,9.889 z"
             style="fill:#000000;fill-opacity:1;fill-rule:nonzero;stroke:none"
             id="path90"
             inkscape:connector-curvature="0" /></g><g
           id="g92"
           transform="translate(557.3574,824.3159)"><path
             d="m 0,0 c 0,0 0.296,-1.441 0.725,-3.98 0.216,-1.27 0.431,-2.818 0.668,-4.597 0.239,-1.778 0.448,-3.793 0.63,-5.995 0.185,-2.202 0.336,-4.596 0.356,-7.134 0.019,-2.536 -0.009,-5.221 -0.323,-7.988 -0.335,-2.754 -0.804,-5.643 -2.081,-8.357 -0.649,-1.332 -1.573,-2.65 -2.944,-3.452 -1.377,-0.807 -3.08,-0.835 -4.512,-0.393 -1.442,0.45 -2.828,1.186 -3.797,2.363 -0.98,1.164 -1.467,2.626 -1.705,4.06 -0.491,2.906 -0.019,5.792 0.502,8.501 0.578,2.711 1.345,5.289 2.257,7.657 0.882,2.381 1.877,4.565 2.839,6.556 0.961,1.991 1.883,3.795 2.769,5.357 0.879,1.565 1.653,2.923 2.332,4.018 1.348,2.195 2.192,3.402 2.192,3.402 l 0.068,0.098 z m -0.082,-0.174 c -0.213,-0.384 -0.867,-1.573 -1.837,-3.417 -1.201,-2.27 -2.873,-5.535 -4.722,-9.519 -0.912,-1.997 -1.847,-4.183 -2.785,-6.513 -0.9,-2.342 -1.85,-4.819 -2.531,-7.472 -0.673,-2.634 -1.181,-5.494 -0.722,-8.326 0.252,-1.394 0.745,-2.787 1.685,-3.87 0.954,-1.072 2.284,-1.703 3.647,-2.074 1.377,-0.354 2.853,-0.234 3.995,0.505 1.154,0.721 1.962,1.918 2.53,3.185 1.139,2.564 1.574,5.389 1.847,8.088 0.254,2.714 0.353,5.361 0.334,7.873 -0.026,2.511 -0.095,4.889 -0.207,7.084 -0.241,4.387 -0.564,8.042 -0.82,10.598 -0.195,2.076 -0.36,3.422 -0.414,3.858"
             style="fill:#000000;fill-opacity:1;fill-rule:nonzero;stroke:none"
             id="path94"
             inkscape:connector-curvature="0" /></g><g
           id="g96"
           transform="translate(578.8086,841.2393)"><path
             d="m 0,0 c 0,0 0.224,-1.015 0.554,-2.805 0.31,-1.792 0.719,-4.362 0.987,-7.475 0.143,-1.556 0.257,-3.248 0.282,-5.044 0.036,-1.794 -0.016,-3.695 -0.24,-5.655 -0.243,-1.952 -0.574,-4.002 -1.506,-5.938 -0.48,-0.945 -1.132,-1.896 -2.134,-2.474 -0.263,-0.111 -0.511,-0.268 -0.789,-0.33 -0.281,-0.05 -0.556,-0.13 -0.841,-0.144 l -0.859,0.034 -0.759,0.18 c -1.059,0.316 -2.023,0.862 -2.716,1.706 -0.698,0.834 -1.04,1.877 -1.205,2.895 -0.35,2.062 -0.021,4.102 0.324,6.026 0.392,1.922 0.908,3.757 1.553,5.432 0.615,1.689 1.326,3.23 2.012,4.634 0.685,1.405 1.339,2.679 1.979,3.775 0.632,1.1 1.185,2.056 1.677,2.822 0.975,1.538 1.589,2.379 1.589,2.379 l 0.067,0.092 z m -0.084,-0.183 c -0.164,-0.318 -0.592,-1.146 -1.231,-2.385 -0.83,-1.612 -1.981,-3.93 -3.278,-6.74 -0.636,-1.411 -1.288,-2.954 -1.959,-4.591 -0.633,-1.65 -1.331,-3.384 -1.826,-5.247 -0.498,-1.849 -0.862,-3.864 -0.543,-5.853 0.18,-0.978 0.526,-1.952 1.185,-2.704 0.665,-0.736 1.61,-1.186 2.54,-1.411 l 0.764,-0.13 0.695,0.026 c 0.229,0.026 0.454,0.114 0.678,0.163 0.223,0.062 0.412,0.212 0.619,0.307 0.786,0.496 1.325,1.333 1.721,2.209 0.793,1.783 1.09,3.77 1.272,5.668 0.177,1.908 0.218,3.771 0.228,5.539 -0.006,1.769 -0.041,3.445 -0.11,4.993 -0.156,3.094 -0.35,5.676 -0.509,7.483 -0.11,1.39 -0.208,2.317 -0.246,2.673"
             style="fill:#000000;fill-opacity:1;fill-rule:nonzero;stroke:none"
             id="path98"
             inkscape:connector-curvature="0" /></g><g
           id="g100"
           transform="translate(578.8945,790.4702)"><path
             d="m 0,0 c 0,0 0.297,-1.441 0.726,-3.98 0.216,-1.27 0.432,-2.818 0.668,-4.597 0.239,-1.778 0.449,-3.793 0.631,-5.995 0.185,-2.202 0.336,-4.595 0.356,-7.134 0.019,-2.536 -0.009,-5.221 -0.323,-7.988 -0.335,-2.754 -0.804,-5.643 -2.081,-8.357 -0.649,-1.332 -1.572,-2.65 -2.943,-3.452 -1.377,-0.807 -3.081,-0.835 -4.513,-0.393 -1.441,0.45 -2.828,1.186 -3.797,2.363 -0.98,1.164 -1.467,2.626 -1.705,4.06 -0.491,2.906 -0.019,5.791 0.502,8.5 0.577,2.712 1.345,5.289 2.257,7.658 0.882,2.381 1.877,4.565 2.838,6.555 0.961,1.991 1.883,3.796 2.769,5.358 0.879,1.565 1.654,2.923 2.332,4.018 1.348,2.195 2.192,3.402 2.191,3.402 l 0.069,0.098 z m -0.081,-0.174 c -0.212,-0.384 -0.866,-1.573 -1.837,-3.417 -1.201,-2.27 -2.873,-5.535 -4.722,-9.519 -0.912,-1.997 -1.847,-4.183 -2.785,-6.513 -0.899,-2.342 -1.85,-4.819 -2.53,-7.472 -0.674,-2.634 -1.181,-5.494 -0.722,-8.326 0.252,-1.394 0.745,-2.787 1.685,-3.87 0.954,-1.072 2.284,-1.703 3.647,-2.074 1.377,-0.354 2.853,-0.234 3.995,0.505 1.155,0.721 1.963,1.918 2.53,3.185 1.139,2.564 1.574,5.389 1.847,8.089 0.254,2.713 0.353,5.36 0.334,7.872 -0.026,2.511 -0.095,4.889 -0.207,7.084 -0.241,4.387 -0.565,8.042 -0.821,10.598 -0.195,2.076 -0.36,3.422 -0.414,3.858"
             style="fill:#000000;fill-opacity:1;fill-rule:nonzero;stroke:none"
             id="path102"
             inkscape:connector-curvature="0" /></g></g></g></g></svg>