<?xml version="1.0" encoding="UTF-8" standalone="no"?>
<!DOCTYPE svg PUBLIC "-//W3C//DTD SVG 1.1//EN" "http://www.w3.org/Graphics/SVG/1.1/DTD/svg11.dtd">
<svg width="100%" height="100%" viewBox="0 0 3840 2400" version="1.1" xmlns="http://www.w3.org/2000/svg" xmlns:xlink="http://www.w3.org/1999/xlink" xml:space="preserve" xmlns:serif="http://www.serif.com/" style="fill-rule:evenodd;clip-rule:evenodd;stroke-linecap:round;stroke-linejoin:round;stroke-miterlimit:1.5;">
    <g transform="matrix(2,0,0,2,0,0)">
        <rect id="Artboard1" x="0" y="0" width="1920" height="1200" style="fill:none;"/>
        <clipPath id="_clip1">
            <rect id="Artboard11" serif:id="Artboard1" x="0" y="0" width="1920" height="1200"/>
        </clipPath>
        <g clip-path="url(#_clip1)">
            <rect x="0" y="0" width="1920" height="1200" style="fill:white;"/>
            <g id="Top-Bar" serif:id="Top Bar">
                <rect x="0" y="0" width="1920" height="55" style="fill:rgb(245,247,250);stroke:rgb(235,239,242);stroke-width:1px;"/>
                <g transform="matrix(0.363636,0,0,0.363636,208.609,26)">
                    <g transform="matrix(1,0,0,1,-44,-44)">
                        <g id="erpnext-logo" transform="matrix(1,0,0,1,-2,-2)">
                            <g id="path1414-3-4" transform="matrix(1,0,0,1,1.04463,1.29652)">
                                <path d="M14.185,0.703L75.039,0.703C82.368,0.703 88.268,6.604 88.268,13.933L88.268,74.787C88.268,82.116 82.368,88.016 75.039,88.016L14.185,88.016C6.856,88.016 0.955,82.116 0.955,74.787L0.955,13.933C0.955,6.604 6.856,0.703 14.185,0.703Z" style="fill:rgb(94,100,255);fill-rule:nonzero;"/>
                            </g>
                            <g id="rect1436-8-4" transform="matrix(1,0,0,1,27.7082,23.321)">
                                <path d="M4.069,0.507C3.795,0.507 3.527,0.535 3.268,0.588C3.009,0.64 2.759,0.718 2.522,0.818C2.403,0.868 2.287,0.924 2.175,0.985C1.95,1.107 1.738,1.25 1.542,1.411C0.661,2.138 0.101,3.239 0.101,4.476L0.101,40.195C0.101,42.393 1.871,44.163 4.069,44.163L31.826,44.163C34.025,44.163 35.795,42.393 35.795,40.195L35.795,39.953C35.795,37.754 34.025,35.984 31.826,35.984L8.28,35.984L8.28,26.099L25.787,26.099C27.986,26.099 29.756,24.329 29.756,22.13L29.756,21.889C29.756,19.69 27.986,17.92 25.787,17.92L8.28,17.92L8.28,8.686L31.826,8.686C34.025,8.686 35.795,6.916 35.795,4.718L35.795,4.476C35.795,2.277 34.025,0.507 31.826,0.507L4.069,0.507Z" style="fill:white;fill-rule:nonzero;"/>
                            </g>
                        </g>
                    </g>
                </g>
                <g id="Search-Bar" serif:id="Search Bar">
                    <g id="Search-Bar1" serif:id="Search Bar">
                        <g transform="matrix(1,0,0,1,0,-1.5)">
                            <path d="M1340,11.9C1340,10.851 1339.15,10 1338.1,10L939.9,10C938.851,10 938,10.851 938,11.9L938,46.1C938,47.149 938.851,48 939.9,48L1338.1,48C1339.15,48 1340,47.149 1340,46.1L1340,11.9Z" style="fill:white;stroke:rgb(235,239,242);stroke-width:1px;"/>
                        </g>
                        <g>
                            <g transform="matrix(1,0,0,1,-1,-1)">
                                <circle cx="1322.5" cy="27.5" r="6.5" style="fill:none;stroke:rgb(235,239,242);stroke-width:2px;"/>
                            </g>
                            <path d="M1325.79,31.385L1330.4,36" style="fill:none;stroke:rgb(235,239,242);stroke-width:2px;"/>
                        </g>
                    </g>
                    <g transform="matrix(1.37737,0,0,1.37737,-364.1,-13.9903)">
                        <path d="M956.895,31.009L957.968,30.915C958.018,31.345 958.136,31.697 958.322,31.973C958.508,32.248 958.796,32.471 959.186,32.641C959.577,32.811 960.016,32.896 960.505,32.896C960.938,32.896 961.321,32.831 961.653,32.702C961.985,32.573 962.232,32.397 962.394,32.172C962.556,31.947 962.637,31.702 962.637,31.437C962.637,31.167 962.559,30.932 962.403,30.731C962.247,30.529 961.989,30.361 961.63,30.224C961.399,30.134 960.889,29.994 960.1,29.805C959.311,29.615 958.759,29.437 958.442,29.269C958.032,29.054 957.726,28.787 957.525,28.469C957.324,28.151 957.223,27.794 957.223,27.4C957.223,26.966 957.346,26.561 957.593,26.184C957.839,25.807 958.198,25.521 958.671,25.325C959.143,25.13 959.669,25.032 960.247,25.032C960.884,25.032 961.445,25.135 961.931,25.34C962.418,25.545 962.792,25.847 963.053,26.245C963.315,26.644 963.456,27.095 963.475,27.599L962.385,27.681C962.327,27.138 962.129,26.728 961.791,26.45C961.453,26.173 960.954,26.034 960.294,26.034C959.606,26.034 959.105,26.16 958.791,26.412C958.476,26.664 958.319,26.968 958.319,27.323C958.319,27.632 958.43,27.886 958.653,28.085C958.872,28.284 959.443,28.488 960.367,28.697C961.291,28.906 961.925,29.089 962.268,29.245C962.768,29.476 963.137,29.768 963.376,30.121C963.614,30.475 963.733,30.882 963.733,31.343C963.733,31.8 963.602,32.231 963.341,32.635C963.079,33.039 962.703,33.354 962.213,33.578C961.722,33.803 961.171,33.915 960.557,33.915C959.78,33.915 959.129,33.802 958.603,33.575C958.078,33.349 957.666,33.008 957.367,32.553C957.068,32.098 956.911,31.583 956.895,31.009Z" style="fill:rgb(218,218,218);fill-rule:nonzero;"/>
                        <path d="M969.411,31.765L970.501,31.9C970.329,32.536 970.01,33.03 969.546,33.382C969.081,33.734 968.487,33.909 967.764,33.909C966.854,33.909 966.133,33.629 965.599,33.069C965.066,32.508 964.8,31.722 964.8,30.71C964.8,29.663 965.069,28.851 965.608,28.273C966.147,27.695 966.846,27.405 967.706,27.405C968.538,27.405 969.218,27.689 969.745,28.255C970.272,28.821 970.536,29.618 970.536,30.646C970.536,30.708 970.534,30.802 970.53,30.927L965.889,30.927C965.928,31.611 966.122,32.134 966.469,32.497C966.817,32.861 967.251,33.042 967.77,33.042C968.157,33.042 968.487,32.941 968.76,32.737C969.034,32.534 969.251,32.21 969.411,31.765ZM965.948,30.06L969.423,30.06C969.376,29.536 969.243,29.144 969.024,28.882C968.688,28.476 968.253,28.273 967.718,28.273C967.233,28.273 966.826,28.435 966.496,28.759C966.166,29.083 965.983,29.517 965.948,30.06Z" style="fill:rgb(218,218,218);fill-rule:nonzero;"/>
                        <path d="M975.885,33.001C975.495,33.333 975.119,33.568 974.758,33.704C974.396,33.841 974.009,33.909 973.594,33.909C972.911,33.909 972.385,33.742 972.018,33.408C971.651,33.074 971.468,32.648 971.468,32.128C971.468,31.823 971.537,31.545 971.676,31.293C971.814,31.041 971.996,30.839 972.22,30.687C972.445,30.534 972.698,30.419 972.979,30.341C973.186,30.286 973.499,30.234 973.917,30.183C974.768,30.081 975.395,29.96 975.798,29.82C975.801,29.675 975.803,29.583 975.803,29.544C975.803,29.114 975.704,28.812 975.505,28.636C975.235,28.398 974.835,28.278 974.303,28.278C973.807,28.278 973.441,28.365 973.205,28.539C972.968,28.713 972.794,29.021 972.68,29.462L971.649,29.321C971.743,28.88 971.897,28.524 972.112,28.252C972.327,27.981 972.637,27.772 973.044,27.625C973.45,27.479 973.921,27.405 974.456,27.405C974.987,27.405 975.419,27.468 975.751,27.593C976.083,27.718 976.327,27.875 976.483,28.065C976.639,28.254 976.749,28.493 976.811,28.782C976.846,28.962 976.864,29.286 976.864,29.755L976.864,31.161C976.864,32.142 976.886,32.762 976.931,33.022C976.976,33.281 977.065,33.53 977.198,33.769L976.096,33.769C975.987,33.55 975.917,33.294 975.885,33.001ZM975.798,30.646C975.415,30.802 974.841,30.935 974.075,31.044C973.641,31.107 973.335,31.177 973.155,31.255C972.975,31.333 972.837,31.447 972.739,31.598C972.641,31.748 972.593,31.915 972.593,32.099C972.593,32.38 972.699,32.614 972.912,32.802C973.125,32.989 973.436,33.083 973.846,33.083C974.253,33.083 974.614,32.994 974.93,32.817C975.247,32.639 975.479,32.396 975.628,32.087C975.741,31.849 975.798,31.497 975.798,31.032L975.798,30.646Z" style="fill:rgb(218,218,218);fill-rule:nonzero;"/>
                        <path d="M978.487,33.769L978.487,27.546L979.436,27.546L979.436,28.489C979.678,28.048 979.902,27.757 980.107,27.616C980.312,27.476 980.538,27.405 980.784,27.405C981.139,27.405 981.501,27.519 981.868,27.745L981.505,28.724C981.247,28.571 980.989,28.495 980.731,28.495C980.501,28.495 980.294,28.565 980.11,28.703C979.926,28.842 979.796,29.034 979.718,29.28C979.6,29.655 979.542,30.066 979.542,30.511L979.542,33.769L978.487,33.769Z" style="fill:rgb(218,218,218);fill-rule:nonzero;"/>
                        <path d="M986.555,31.489L987.593,31.624C987.479,32.339 987.189,32.899 986.722,33.303C986.256,33.707 985.682,33.909 985.003,33.909C984.151,33.909 983.467,33.631 982.949,33.074C982.431,32.518 982.173,31.72 982.173,30.681C982.173,30.009 982.284,29.421 982.507,28.917C982.729,28.413 983.068,28.035 983.523,27.783C983.978,27.531 984.473,27.405 985.009,27.405C985.684,27.405 986.237,27.576 986.667,27.918C987.096,28.26 987.372,28.745 987.493,29.374L986.468,29.532C986.37,29.114 986.197,28.8 985.949,28.589C985.701,28.378 985.401,28.273 985.05,28.273C984.518,28.273 984.087,28.463 983.755,28.844C983.423,29.225 983.257,29.827 983.257,30.652C983.257,31.487 983.417,32.095 983.737,32.474C984.057,32.853 984.475,33.042 984.991,33.042C985.405,33.042 985.751,32.915 986.028,32.661C986.305,32.407 986.481,32.017 986.555,31.489Z" style="fill:rgb(218,218,218);fill-rule:nonzero;"/>
                        <path d="M988.495,33.769L988.495,25.179L989.55,25.179L989.55,28.261C990.042,27.691 990.663,27.405 991.413,27.405C991.874,27.405 992.274,27.496 992.614,27.678C992.954,27.86 993.197,28.111 993.343,28.431C993.49,28.751 993.563,29.216 993.563,29.825L993.563,33.769L992.509,33.769L992.509,29.825C992.509,29.298 992.394,28.914 992.166,28.674C991.937,28.434 991.614,28.314 991.196,28.314C990.884,28.314 990.59,28.395 990.314,28.557C990.039,28.719 989.843,28.939 989.725,29.216C989.608,29.493 989.55,29.876 989.55,30.364L989.55,33.769L988.495,33.769Z" style="fill:rgb(218,218,218);fill-rule:nonzero;"/>
                        <path d="M998.11,30.657C998.11,29.505 998.43,28.652 999.071,28.097C999.606,27.636 1000.26,27.405 1001.03,27.405C1001.88,27.405 1002.58,27.686 1003.13,28.246C1003.67,28.807 1003.94,29.581 1003.94,30.57C1003.94,31.37 1003.82,32 1003.58,32.459C1003.34,32.918 1002.99,33.275 1002.53,33.528C1002.07,33.782 1001.57,33.909 1001.03,33.909C1000.16,33.909 999.453,33.63 998.916,33.071C998.379,32.513 998.11,31.708 998.11,30.657ZM999.194,30.657C999.194,31.454 999.368,32.051 999.716,32.447C1000.06,32.844 1000.5,33.042 1001.03,33.042C1001.55,33.042 1001.99,32.843 1002.34,32.445C1002.68,32.046 1002.86,31.439 1002.86,30.622C1002.86,29.853 1002.68,29.27 1002.33,28.873C1001.98,28.477 1001.55,28.278 1001.03,28.278C1000.5,28.278 1000.06,28.476 999.716,28.87C999.368,29.265 999.194,29.861 999.194,30.657Z" style="fill:rgb(218,218,218);fill-rule:nonzero;"/>
                        <path d="M1005.17,33.769L1005.17,27.546L1006.11,27.546L1006.11,28.489C1006.36,28.048 1006.58,27.757 1006.78,27.616C1006.99,27.476 1007.22,27.405 1007.46,27.405C1007.82,27.405 1008.18,27.519 1008.55,27.745L1008.18,28.724C1007.93,28.571 1007.67,28.495 1007.41,28.495C1007.18,28.495 1006.97,28.565 1006.79,28.703C1006.6,28.842 1006.47,29.034 1006.39,29.28C1006.28,29.655 1006.22,30.066 1006.22,30.511L1006.22,33.769L1005.17,33.769Z" style="fill:rgb(218,218,218);fill-rule:nonzero;"/>
                        <path d="M1014.81,32.825L1014.96,33.757C1014.67,33.82 1014.4,33.851 1014.17,33.851C1013.78,33.851 1013.49,33.79 1013.27,33.669C1013.06,33.548 1012.92,33.389 1012.83,33.192C1012.74,32.994 1012.7,32.579 1012.7,31.946L1012.7,28.366L1011.93,28.366L1011.93,27.546L1012.7,27.546L1012.7,26.005L1013.75,25.372L1013.75,27.546L1014.81,27.546L1014.81,28.366L1013.75,28.366L1013.75,32.005C1013.75,32.306 1013.77,32.499 1013.8,32.585C1013.84,32.671 1013.9,32.739 1013.99,32.79C1014.07,32.841 1014.19,32.866 1014.35,32.866C1014.46,32.866 1014.62,32.853 1014.81,32.825Z" style="fill:rgb(218,218,218);fill-rule:nonzero;"/>
                        <path d="M1015.79,36.165L1015.68,35.175C1015.91,35.237 1016.11,35.269 1016.28,35.269C1016.51,35.269 1016.7,35.23 1016.84,35.152C1016.98,35.073 1017.1,34.964 1017.19,34.823C1017.25,34.718 1017.36,34.456 1017.51,34.038C1017.53,33.98 1017.56,33.894 1017.6,33.78L1015.24,27.546L1016.38,27.546L1017.68,31.15C1017.84,31.607 1017.99,32.087 1018.13,32.591C1018.25,32.107 1018.39,31.634 1018.56,31.173L1019.89,27.546L1020.94,27.546L1018.58,33.874C1018.32,34.558 1018.13,35.028 1017.99,35.286C1017.8,35.634 1017.58,35.889 1017.34,36.051C1017.1,36.213 1016.81,36.294 1016.47,36.294C1016.27,36.294 1016.04,36.251 1015.79,36.165Z" style="fill:rgb(218,218,218);fill-rule:nonzero;"/>
                        <path d="M1021.84,36.153L1021.84,27.546L1022.8,27.546L1022.8,28.355C1023.03,28.038 1023.28,27.801 1023.57,27.643C1023.85,27.485 1024.2,27.405 1024.61,27.405C1025.14,27.405 1025.61,27.542 1026.01,27.816C1026.42,28.089 1026.72,28.475 1026.93,28.973C1027.14,29.471 1027.24,30.017 1027.24,30.611C1027.24,31.247 1027.13,31.82 1026.9,32.33C1026.67,32.84 1026.34,33.231 1025.9,33.502C1025.47,33.774 1025.01,33.909 1024.53,33.909C1024.18,33.909 1023.86,33.835 1023.58,33.687C1023.3,33.538 1023.08,33.351 1022.89,33.124L1022.89,36.153L1021.84,36.153ZM1022.8,30.693C1022.8,31.493 1022.96,32.085 1023.28,32.468C1023.61,32.851 1024,33.042 1024.46,33.042C1024.93,33.042 1025.33,32.844 1025.66,32.447C1026,32.051 1026.16,31.437 1026.16,30.605C1026.16,29.812 1026,29.218 1025.68,28.823C1025.35,28.429 1024.96,28.232 1024.51,28.232C1024.06,28.232 1023.66,28.442 1023.31,28.862C1022.97,29.281 1022.8,29.892 1022.8,30.693Z" style="fill:rgb(218,218,218);fill-rule:nonzero;"/>
                        <path d="M1032.77,31.765L1033.86,31.9C1033.69,32.536 1033.37,33.03 1032.91,33.382C1032.44,33.734 1031.85,33.909 1031.13,33.909C1030.22,33.909 1029.5,33.629 1028.96,33.069C1028.43,32.508 1028.16,31.722 1028.16,30.71C1028.16,29.663 1028.43,28.851 1028.97,28.273C1029.51,27.695 1030.21,27.405 1031.07,27.405C1031.9,27.405 1032.58,27.689 1033.11,28.255C1033.63,28.821 1033.9,29.618 1033.9,30.646C1033.9,30.708 1033.9,30.802 1033.89,30.927L1029.25,30.927C1029.29,31.611 1029.49,32.134 1029.83,32.497C1030.18,32.861 1030.61,33.042 1031.13,33.042C1031.52,33.042 1031.85,32.941 1032.12,32.737C1032.4,32.534 1032.61,32.21 1032.77,31.765ZM1029.31,30.06L1032.79,30.06C1032.74,29.536 1032.61,29.144 1032.39,28.882C1032.05,28.476 1031.62,28.273 1031.08,28.273C1030.6,28.273 1030.19,28.435 1029.86,28.759C1029.53,29.083 1029.35,29.517 1029.31,30.06Z" style="fill:rgb(218,218,218);fill-rule:nonzero;"/>
                        <path d="M1042.58,33.001C1042.19,33.333 1041.82,33.568 1041.45,33.704C1041.09,33.841 1040.71,33.909 1040.29,33.909C1039.61,33.909 1039.08,33.742 1038.72,33.408C1038.35,33.074 1038.16,32.648 1038.16,32.128C1038.16,31.823 1038.23,31.545 1038.37,31.293C1038.51,31.041 1038.69,30.839 1038.92,30.687C1039.14,30.534 1039.39,30.419 1039.68,30.341C1039.88,30.286 1040.2,30.234 1040.61,30.183C1041.47,30.081 1042.09,29.96 1042.5,29.82C1042.5,29.675 1042.5,29.583 1042.5,29.544C1042.5,29.114 1042.4,28.812 1042.2,28.636C1041.93,28.398 1041.53,28.278 1041,28.278C1040.51,28.278 1040.14,28.365 1039.9,28.539C1039.67,28.713 1039.49,29.021 1039.38,29.462L1038.35,29.321C1038.44,28.88 1038.59,28.524 1038.81,28.252C1039.02,27.981 1039.34,27.772 1039.74,27.625C1040.15,27.479 1040.62,27.405 1041.15,27.405C1041.68,27.405 1042.12,27.468 1042.45,27.593C1042.78,27.718 1043.02,27.875 1043.18,28.065C1043.34,28.254 1043.45,28.493 1043.51,28.782C1043.54,28.962 1043.56,29.286 1043.56,29.755L1043.56,31.161C1043.56,32.142 1043.58,32.762 1043.63,33.022C1043.67,33.281 1043.76,33.53 1043.89,33.769L1042.79,33.769C1042.68,33.55 1042.61,33.294 1042.58,33.001ZM1042.5,30.646C1042.11,30.802 1041.54,30.935 1040.77,31.044C1040.34,31.107 1040.03,31.177 1039.85,31.255C1039.67,31.333 1039.53,31.447 1039.44,31.598C1039.34,31.748 1039.29,31.915 1039.29,32.099C1039.29,32.38 1039.4,32.614 1039.61,32.802C1039.82,32.989 1040.13,33.083 1040.54,33.083C1040.95,33.083 1041.31,32.994 1041.63,32.817C1041.94,32.639 1042.18,32.396 1042.33,32.087C1042.44,31.849 1042.5,31.497 1042.5,31.032L1042.5,30.646Z" style="fill:rgb(218,218,218);fill-rule:nonzero;"/>
                        <path d="M1052.59,31.489L1053.63,31.624C1053.51,32.339 1053.22,32.899 1052.76,33.303C1052.29,33.707 1051.72,33.909 1051.04,33.909C1050.19,33.909 1049.5,33.631 1048.98,33.074C1048.47,32.518 1048.21,31.72 1048.21,30.681C1048.21,30.009 1048.32,29.421 1048.54,28.917C1048.76,28.413 1049.1,28.035 1049.56,27.783C1050.01,27.531 1050.51,27.405 1051.04,27.405C1051.72,27.405 1052.27,27.576 1052.7,27.918C1053.13,28.26 1053.41,28.745 1053.53,29.374L1052.5,29.532C1052.4,29.114 1052.23,28.8 1051.98,28.589C1051.74,28.378 1051.44,28.273 1051.09,28.273C1050.55,28.273 1050.12,28.463 1049.79,28.844C1049.46,29.225 1049.29,29.827 1049.29,30.652C1049.29,31.487 1049.45,32.095 1049.77,32.474C1050.09,32.853 1050.51,33.042 1051.03,33.042C1051.44,33.042 1051.79,32.915 1052.06,32.661C1052.34,32.407 1052.52,32.017 1052.59,31.489Z" style="fill:rgb(218,218,218);fill-rule:nonzero;"/>
                        <path d="M1054.14,30.657C1054.14,29.505 1054.46,28.652 1055.1,28.097C1055.63,27.636 1056.29,27.405 1057.06,27.405C1057.91,27.405 1058.61,27.686 1059.15,28.246C1059.7,28.807 1059.97,29.581 1059.97,30.57C1059.97,31.37 1059.85,32 1059.61,32.459C1059.37,32.918 1059.02,33.275 1058.56,33.528C1058.1,33.782 1057.6,33.909 1057.06,33.909C1056.18,33.909 1055.48,33.63 1054.94,33.071C1054.41,32.513 1054.14,31.708 1054.14,30.657ZM1055.22,30.657C1055.22,31.454 1055.39,32.051 1055.74,32.447C1056.09,32.844 1056.53,33.042 1057.06,33.042C1057.58,33.042 1058.01,32.843 1058.36,32.445C1058.71,32.046 1058.88,31.439 1058.88,30.622C1058.88,29.853 1058.71,29.27 1058.36,28.873C1058.01,28.477 1057.58,28.278 1057.06,28.278C1056.53,28.278 1056.09,28.476 1055.74,28.87C1055.39,29.265 1055.22,29.861 1055.22,30.657Z" style="fill:rgb(218,218,218);fill-rule:nonzero;"/>
                        <path d="M1061.2,33.769L1061.2,27.546L1062.15,27.546L1062.15,28.419C1062.34,28.114 1062.6,27.869 1062.93,27.684C1063.25,27.498 1063.62,27.405 1064.03,27.405C1064.5,27.405 1064.87,27.501 1065.17,27.693C1065.46,27.884 1065.67,28.152 1065.79,28.495C1066.28,27.769 1066.92,27.405 1067.71,27.405C1068.33,27.405 1068.81,27.576 1069.14,27.918C1069.47,28.26 1069.63,28.786 1069.63,29.497L1069.63,33.769L1068.59,33.769L1068.59,29.849C1068.59,29.427 1068.55,29.123 1068.48,28.938C1068.42,28.752 1068.29,28.603 1068.11,28.489C1067.93,28.376 1067.72,28.32 1067.48,28.32C1067.04,28.32 1066.68,28.465 1066.39,28.756C1066.1,29.047 1065.96,29.513 1065.96,30.153L1065.96,33.769L1064.9,33.769L1064.9,29.726C1064.9,29.257 1064.82,28.905 1064.64,28.671C1064.47,28.437 1064.19,28.32 1063.8,28.32C1063.5,28.32 1063.23,28.398 1062.98,28.554C1062.72,28.71 1062.54,28.939 1062.43,29.239C1062.32,29.54 1062.26,29.974 1062.26,30.54L1062.26,33.769L1061.2,33.769Z" style="fill:rgb(218,218,218);fill-rule:nonzero;"/>
                        <path d="M1071.2,33.769L1071.2,27.546L1072.14,27.546L1072.14,28.419C1072.34,28.114 1072.6,27.869 1072.92,27.684C1073.25,27.498 1073.62,27.405 1074.03,27.405C1074.49,27.405 1074.87,27.501 1075.16,27.693C1075.46,27.884 1075.67,28.152 1075.79,28.495C1076.28,27.769 1076.92,27.405 1077.71,27.405C1078.33,27.405 1078.8,27.576 1079.13,27.918C1079.47,28.26 1079.63,28.786 1079.63,29.497L1079.63,33.769L1078.58,33.769L1078.58,29.849C1078.58,29.427 1078.55,29.123 1078.48,28.938C1078.41,28.752 1078.29,28.603 1078.11,28.489C1077.93,28.376 1077.72,28.32 1077.47,28.32C1077.04,28.32 1076.67,28.465 1076.38,28.756C1076.1,29.047 1075.95,29.513 1075.95,30.153L1075.95,33.769L1074.9,33.769L1074.9,29.726C1074.9,29.257 1074.81,28.905 1074.64,28.671C1074.47,28.437 1074.19,28.32 1073.8,28.32C1073.5,28.32 1073.22,28.398 1072.97,28.554C1072.72,28.71 1072.54,28.939 1072.42,29.239C1072.31,29.54 1072.26,29.974 1072.26,30.54L1072.26,33.769L1071.2,33.769Z" style="fill:rgb(218,218,218);fill-rule:nonzero;"/>
                        <path d="M1085.26,33.001C1084.87,33.333 1084.49,33.568 1084.13,33.704C1083.77,33.841 1083.38,33.909 1082.97,33.909C1082.28,33.909 1081.76,33.742 1081.39,33.408C1081.02,33.074 1080.84,32.648 1080.84,32.128C1080.84,31.823 1080.91,31.545 1081.05,31.293C1081.18,31.041 1081.37,30.839 1081.59,30.687C1081.82,30.534 1082.07,30.419 1082.35,30.341C1082.56,30.286 1082.87,30.234 1083.29,30.183C1084.14,30.081 1084.77,29.96 1085.17,29.82C1085.17,29.675 1085.17,29.583 1085.17,29.544C1085.17,29.114 1085.08,28.812 1084.88,28.636C1084.61,28.398 1084.21,28.278 1083.67,28.278C1083.18,28.278 1082.81,28.365 1082.58,28.539C1082.34,28.713 1082.16,29.021 1082.05,29.462L1081.02,29.321C1081.11,28.88 1081.27,28.524 1081.48,28.252C1081.7,27.981 1082.01,27.772 1082.41,27.625C1082.82,27.479 1083.29,27.405 1083.83,27.405C1084.36,27.405 1084.79,27.468 1085.12,27.593C1085.45,27.718 1085.7,27.875 1085.85,28.065C1086.01,28.254 1086.12,28.493 1086.18,28.782C1086.22,28.962 1086.24,29.286 1086.24,29.755L1086.24,31.161C1086.24,32.142 1086.26,32.762 1086.3,33.022C1086.35,33.281 1086.44,33.53 1086.57,33.769L1085.47,33.769C1085.36,33.55 1085.29,33.294 1085.26,33.001ZM1085.17,30.646C1084.79,30.802 1084.21,30.935 1083.45,31.044C1083.01,31.107 1082.71,31.177 1082.53,31.255C1082.35,31.333 1082.21,31.447 1082.11,31.598C1082.01,31.748 1081.96,31.915 1081.96,32.099C1081.96,32.38 1082.07,32.614 1082.28,32.802C1082.5,32.989 1082.81,33.083 1083.22,33.083C1083.62,33.083 1083.99,32.994 1084.3,32.817C1084.62,32.639 1084.85,32.396 1085,32.087C1085.11,31.849 1085.17,31.497 1085.17,31.032L1085.17,30.646Z" style="fill:rgb(218,218,218);fill-rule:nonzero;"/>
                        <path d="M1087.87,33.769L1087.87,27.546L1088.82,27.546L1088.82,28.431C1089.28,27.747 1089.94,27.405 1090.8,27.405C1091.17,27.405 1091.52,27.473 1091.83,27.608C1092.15,27.742 1092.38,27.919 1092.54,28.138C1092.7,28.357 1092.81,28.616 1092.87,28.917C1092.91,29.112 1092.93,29.454 1092.93,29.943L1092.93,33.769L1091.87,33.769L1091.87,29.984C1091.87,29.554 1091.83,29.233 1091.75,29.02C1091.67,28.807 1091.52,28.637 1091.31,28.51C1091.1,28.383 1090.86,28.32 1090.58,28.32C1090.13,28.32 1089.74,28.462 1089.41,28.747C1089.09,29.032 1088.92,29.573 1088.92,30.37L1088.92,33.769L1087.87,33.769Z" style="fill:rgb(218,218,218);fill-rule:nonzero;"/>
                        <path d="M1098.58,33.769L1098.58,32.984C1098.19,33.601 1097.61,33.909 1096.84,33.909C1096.34,33.909 1095.89,33.773 1095.47,33.499C1095.06,33.226 1094.73,32.844 1094.51,32.354C1094.28,31.863 1094.16,31.3 1094.16,30.663C1094.16,30.042 1094.27,29.479 1094.47,28.973C1094.68,28.467 1094.99,28.079 1095.4,27.81C1095.82,27.54 1096.28,27.405 1096.79,27.405C1097.17,27.405 1097.5,27.485 1097.8,27.643C1098.09,27.801 1098.33,28.007 1098.51,28.261L1098.51,25.179L1099.56,25.179L1099.56,33.769L1098.58,33.769ZM1095.25,30.663C1095.25,31.46 1095.41,32.056 1095.75,32.45C1096.09,32.845 1096.48,33.042 1096.94,33.042C1097.4,33.042 1097.79,32.854 1098.12,32.477C1098.44,32.1 1098.6,31.525 1098.6,30.751C1098.6,29.9 1098.43,29.275 1098.11,28.876C1097.78,28.478 1097.37,28.278 1096.89,28.278C1096.42,28.278 1096.03,28.47 1095.72,28.853C1095.4,29.236 1095.25,29.839 1095.25,30.663Z" style="fill:rgb(218,218,218);fill-rule:nonzero;"/>
                        <path d="M1106.57,36.294C1105.99,35.56 1105.49,34.7 1105.09,33.716C1104.69,32.732 1104.49,31.712 1104.49,30.657C1104.49,29.728 1104.64,28.837 1104.94,27.986C1105.29,26.997 1105.83,26.013 1106.57,25.032L1107.32,25.032C1106.85,25.845 1106.54,26.425 1106.38,26.773C1106.15,27.312 1105.96,27.874 1105.82,28.46C1105.65,29.191 1105.57,29.925 1105.57,30.663C1105.57,32.542 1106.15,34.419 1107.32,36.294L1106.57,36.294Z" style="fill:rgb(218,218,218);fill-rule:nonzero;"/>
                        <path d="M1114.81,30.757L1115.95,31.044C1115.71,31.978 1115.28,32.69 1114.66,33.18C1114.04,33.67 1113.29,33.915 1112.39,33.915C1111.47,33.915 1110.71,33.727 1110.13,33.35C1109.55,32.973 1109.11,32.427 1108.81,31.712C1108.51,30.997 1108.35,30.23 1108.35,29.409C1108.35,28.515 1108.53,27.735 1108.87,27.069C1109.21,26.403 1109.69,25.897 1110.33,25.551C1110.96,25.205 1111.65,25.032 1112.41,25.032C1113.27,25.032 1113.99,25.251 1114.58,25.689C1115.16,26.126 1115.57,26.741 1115.8,27.534L1114.68,27.798C1114.48,27.173 1114.19,26.718 1113.82,26.433C1113.44,26.148 1112.96,26.005 1112.38,26.005C1111.73,26.005 1111.17,26.163 1110.73,26.48C1110.29,26.796 1109.98,27.221 1109.8,27.754C1109.62,28.287 1109.53,28.837 1109.53,29.403C1109.53,30.134 1109.63,30.772 1109.85,31.317C1110.06,31.862 1110.39,32.269 1110.84,32.538C1111.29,32.808 1111.77,32.943 1112.3,32.943C1112.93,32.943 1113.47,32.759 1113.91,32.392C1114.36,32.025 1114.65,31.48 1114.81,30.757Z" style="fill:rgb(218,218,218);fill-rule:nonzero;"/>
                        <path d="M1119.52,32.825L1119.67,33.757C1119.37,33.82 1119.11,33.851 1118.87,33.851C1118.49,33.851 1118.19,33.79 1117.98,33.669C1117.77,33.548 1117.62,33.389 1117.54,33.192C1117.45,32.994 1117.41,32.579 1117.41,31.946L1117.41,28.366L1116.63,28.366L1116.63,27.546L1117.41,27.546L1117.41,26.005L1118.46,25.372L1118.46,27.546L1119.52,27.546L1119.52,28.366L1118.46,28.366L1118.46,32.005C1118.46,32.306 1118.47,32.499 1118.51,32.585C1118.55,32.671 1118.61,32.739 1118.69,32.79C1118.78,32.841 1118.9,32.866 1119.05,32.866C1119.17,32.866 1119.33,32.853 1119.52,32.825Z" style="fill:rgb(218,218,218);fill-rule:nonzero;"/>
                        <path d="M1120.54,33.769L1120.54,27.546L1121.49,27.546L1121.49,28.489C1121.73,28.048 1121.95,27.757 1122.16,27.616C1122.36,27.476 1122.59,27.405 1122.83,27.405C1123.19,27.405 1123.55,27.519 1123.92,27.745L1123.55,28.724C1123.3,28.571 1123.04,28.495 1122.78,28.495C1122.55,28.495 1122.34,28.565 1122.16,28.703C1121.98,28.842 1121.84,29.034 1121.77,29.28C1121.65,29.655 1121.59,30.066 1121.59,30.511L1121.59,33.769L1120.54,33.769Z" style="fill:rgb(218,218,218);fill-rule:nonzero;"/>
                        <rect x="1124.52" y="25.179" width="1.055" height="8.59" style="fill:rgb(218,218,218);fill-rule:nonzero;"/>
                        <path d="M1132.76,32.38L1132.76,30.025L1130.42,30.025L1130.42,29.04L1132.76,29.04L1132.76,26.702L1133.76,26.702L1133.76,29.04L1136.09,29.04L1136.09,30.025L1133.76,30.025L1133.76,32.38L1132.76,32.38Z" style="fill:rgb(218,218,218);fill-rule:nonzero;"/>
                        <path d="M1145.04,30.4L1145.04,29.392L1148.68,29.386L1148.68,32.573C1148.12,33.019 1147.54,33.354 1146.95,33.578C1146.36,33.803 1145.75,33.915 1145.12,33.915C1144.28,33.915 1143.51,33.735 1142.82,33.373C1142.13,33.012 1141.61,32.489 1141.26,31.806C1140.91,31.122 1140.73,30.359 1140.73,29.515C1140.73,28.679 1140.91,27.899 1141.26,27.174C1141.61,26.449 1142.11,25.911 1142.77,25.56C1143.42,25.208 1144.18,25.032 1145.03,25.032C1145.65,25.032 1146.22,25.133 1146.72,25.334C1147.22,25.535 1147.61,25.816 1147.9,26.175C1148.18,26.534 1148.4,27.003 1148.55,27.581L1147.52,27.862C1147.39,27.425 1147.24,27.081 1147.04,26.831C1146.85,26.581 1146.58,26.381 1146.22,26.231C1145.87,26.08 1145.47,26.005 1145.04,26.005C1144.52,26.005 1144.07,26.084 1143.69,26.242C1143.31,26.401 1143.01,26.609 1142.78,26.866C1142.54,27.124 1142.36,27.407 1142.23,27.716C1142.01,28.247 1141.9,28.823 1141.9,29.445C1141.9,30.21 1142.04,30.851 1142.3,31.366C1142.56,31.882 1142.95,32.265 1143.45,32.515C1143.96,32.765 1144.49,32.89 1145.06,32.89C1145.55,32.89 1146.03,32.795 1146.5,32.606C1146.97,32.416 1147.32,32.214 1147.57,31.999L1147.57,30.4L1145.04,30.4Z" style="fill:rgb(218,218,218);fill-rule:nonzero;"/>
                        <path d="M1150.91,36.294L1150.15,36.294C1151.32,34.419 1151.91,32.542 1151.91,30.663C1151.91,29.929 1151.82,29.2 1151.65,28.478C1151.52,27.892 1151.34,27.329 1151.1,26.79C1150.95,26.439 1150.63,25.853 1150.15,25.032L1150.91,25.032C1151.64,26.013 1152.19,26.997 1152.54,27.986C1152.84,28.837 1152.99,29.728 1152.99,30.657C1152.99,31.712 1152.79,32.732 1152.38,33.716C1151.98,34.7 1151.49,35.56 1150.91,36.294Z" style="fill:rgb(218,218,218);fill-rule:nonzero;"/>
                    </g>
                </g>
                <g id="Demo" transform="matrix(1,0,0,1,-1.5,1.5)">
                    <path d="M1407,17.4C1407,14.42 1404.58,12 1401.6,12L1385.4,12C1382.42,12 1380,14.42 1380,17.4L1380,34.6C1380,37.58 1382.42,40 1385.4,40L1401.6,40C1404.58,40 1407,37.58 1407,34.6L1407,17.4Z" style="fill:rgb(252,252,253);stroke:rgb(235,239,242);stroke-width:2px;"/>
                    <g transform="matrix(1,0,0,1,-51.5564,-6.84619)">
                        <path d="M1439.15,40.004L1439.15,25.688L1444.09,25.688C1445.2,25.688 1446.05,25.756 1446.63,25.893C1447.45,26.082 1448.15,26.424 1448.73,26.918C1449.49,27.556 1450.05,28.372 1450.43,29.365C1450.8,30.358 1450.99,31.492 1450.99,32.768C1450.99,33.855 1450.86,34.819 1450.61,35.659C1450.35,36.499 1450.03,37.194 1449.63,37.744C1449.23,38.294 1448.8,38.727 1448.33,39.042C1447.86,39.358 1447.29,39.597 1446.62,39.76C1445.95,39.923 1445.18,40.004 1444.32,40.004L1439.15,40.004ZM1441.05,38.315L1444.1,38.315C1445.05,38.315 1445.79,38.227 1446.33,38.051C1446.86,37.875 1447.29,37.628 1447.61,37.309C1448.06,36.86 1448.41,36.256 1448.66,35.498C1448.91,34.739 1449.04,33.819 1449.04,32.739C1449.04,31.241 1448.79,30.091 1448.3,29.287C1447.81,28.483 1447.21,27.944 1446.51,27.67C1446,27.475 1445.18,27.377 1444.06,27.377L1441.05,27.377L1441.05,38.315Z" style="fill:rgb(218,218,218);fill-rule:nonzero;"/>
                    </g>
                </g>
                <g id="Demo-User" serif:id="Demo User">
                    <g transform="matrix(1,0,0,1,1,3.7978)">
                        <path d="M1421.41,17.878L1425.64,17.878C1426.59,17.878 1427.32,17.951 1427.82,18.097C1428.49,18.295 1429.07,18.646 1429.55,19.151C1430.03,19.657 1430.39,20.275 1430.64,21.007C1430.89,21.739 1431.02,22.641 1431.02,23.714C1431.02,24.657 1430.9,25.469 1430.66,26.151C1430.38,26.985 1429.97,27.659 1429.44,28.175C1429.04,28.565 1428.49,28.87 1427.81,29.089C1427.3,29.25 1426.62,29.331 1425.77,29.331L1421.41,29.331L1421.41,17.878ZM1423.73,19.815L1423.73,27.401L1425.45,27.401C1426.1,27.401 1426.56,27.365 1426.85,27.292C1427.23,27.198 1427.54,27.039 1427.78,26.815C1428.03,26.592 1428.23,26.223 1428.39,25.71C1428.55,25.197 1428.62,24.498 1428.62,23.612C1428.62,22.727 1428.55,22.047 1428.39,21.573C1428.23,21.099 1428.02,20.73 1427.73,20.464C1427.45,20.198 1427.1,20.019 1426.66,19.925C1426.34,19.852 1425.71,19.815 1424.77,19.815L1423.73,19.815Z" style="fill:rgb(163,163,163);fill-rule:nonzero;"/>
                        <path d="M1437.77,26.69L1439.95,27.058C1439.67,27.86 1439.23,28.47 1438.62,28.89C1438.01,29.309 1437.25,29.519 1436.34,29.519C1434.9,29.519 1433.83,29.047 1433.14,28.105C1432.59,27.349 1432.32,26.396 1432.32,25.245C1432.32,23.87 1432.68,22.793 1433.4,22.015C1434.12,21.236 1435.03,20.847 1436.12,20.847C1437.36,20.847 1438.33,21.254 1439.05,22.069C1439.76,22.884 1440.1,24.133 1440.07,25.815L1434.57,25.815C1434.59,26.467 1434.76,26.973 1435.1,27.335C1435.44,27.697 1435.86,27.878 1436.37,27.878C1436.71,27.878 1437,27.784 1437.23,27.597C1437.47,27.409 1437.64,27.107 1437.77,26.69ZM1437.89,24.472C1437.87,23.836 1437.71,23.353 1437.4,23.023C1437.09,22.692 1436.7,22.526 1436.26,22.526C1435.78,22.526 1435.38,22.701 1435.07,23.05C1434.76,23.399 1434.6,23.873 1434.61,24.472L1437.89,24.472Z" style="fill:rgb(163,163,163);fill-rule:nonzero;"/>
                        <path d="M1441.69,21.034L1443.72,21.034L1443.72,22.167C1444.44,21.287 1445.3,20.847 1446.3,20.847C1446.84,20.847 1447.3,20.956 1447.69,21.175C1448.08,21.394 1448.4,21.724 1448.65,22.167C1449.01,21.724 1449.4,21.394 1449.83,21.175C1450.25,20.956 1450.7,20.847 1451.18,20.847C1451.79,20.847 1452.3,20.97 1452.73,21.218C1453.15,21.465 1453.46,21.829 1453.67,22.308C1453.82,22.662 1453.9,23.235 1453.9,24.026L1453.9,29.331L1451.7,29.331L1451.7,24.589C1451.7,23.766 1451.63,23.235 1451.48,22.995C1451.27,22.683 1450.96,22.526 1450.54,22.526C1450.23,22.526 1449.94,22.62 1449.67,22.808C1449.4,22.995 1449.2,23.27 1449.09,23.632C1448.96,23.994 1448.9,24.565 1448.9,25.347L1448.9,29.331L1446.71,29.331L1446.71,24.784C1446.71,23.977 1446.67,23.456 1446.59,23.222C1446.52,22.987 1446.39,22.813 1446.23,22.698C1446.07,22.584 1445.84,22.526 1445.56,22.526C1445.22,22.526 1444.92,22.618 1444.65,22.8C1444.38,22.982 1444.18,23.245 1444.07,23.589C1443.95,23.933 1443.89,24.503 1443.89,25.3L1443.89,29.331L1441.69,29.331L1441.69,21.034Z" style="fill:rgb(163,163,163);fill-rule:nonzero;"/>
                        <path d="M1455.58,25.065C1455.58,24.336 1455.76,23.631 1456.12,22.948C1456.48,22.266 1456.99,21.745 1457.64,21.386C1458.3,21.026 1459.04,20.847 1459.85,20.847C1461.11,20.847 1462.13,21.254 1462.94,22.069C1463.74,22.884 1464.14,23.914 1464.14,25.159C1464.14,26.414 1463.74,27.455 1462.92,28.28C1462.12,29.106 1461.1,29.519 1459.87,29.519C1459.11,29.519 1458.38,29.347 1457.69,29.003C1457,28.659 1456.48,28.155 1456.12,27.491C1455.76,26.827 1455.58,26.019 1455.58,25.065ZM1457.83,25.183C1457.83,26.006 1458.02,26.636 1458.41,27.073C1458.8,27.511 1459.29,27.73 1459.86,27.73C1460.43,27.73 1460.91,27.511 1461.3,27.073C1461.69,26.636 1461.88,26 1461.88,25.167C1461.88,24.355 1461.69,23.73 1461.3,23.292C1460.91,22.855 1460.43,22.636 1459.86,22.636C1459.29,22.636 1458.8,22.855 1458.41,23.292C1458.02,23.73 1457.83,24.36 1457.83,25.183Z" style="fill:rgb(163,163,163);fill-rule:nonzero;"/>
                        <path d="M1470.3,17.878L1472.62,17.878L1472.62,24.081C1472.62,25.065 1472.64,25.704 1472.7,25.995C1472.8,26.464 1473.04,26.84 1473.41,27.124C1473.78,27.408 1474.29,27.55 1474.94,27.55C1475.59,27.55 1476.09,27.416 1476.42,27.148C1476.75,26.879 1476.95,26.55 1477.02,26.159C1477.09,25.769 1477.12,25.12 1477.12,24.214L1477.12,17.878L1479.44,17.878L1479.44,23.894C1479.44,25.269 1479.37,26.24 1479.25,26.808C1479.12,27.375 1478.89,27.855 1478.56,28.245C1478.22,28.636 1477.77,28.947 1477.21,29.179C1476.65,29.411 1475.91,29.526 1475.01,29.526C1473.91,29.526 1473.08,29.4 1472.52,29.148C1471.95,28.895 1471.51,28.567 1471.18,28.163C1470.85,27.759 1470.63,27.336 1470.53,26.894C1470.38,26.237 1470.3,25.269 1470.3,23.987L1470.3,17.878Z" style="fill:rgb(163,163,163);fill-rule:nonzero;"/>
                        <path d="M1481.09,26.964L1483.29,26.628C1483.38,27.055 1483.57,27.379 1483.86,27.601C1484.14,27.822 1484.55,27.933 1485.06,27.933C1485.63,27.933 1486.06,27.829 1486.34,27.62C1486.54,27.474 1486.63,27.279 1486.63,27.034C1486.63,26.868 1486.58,26.73 1486.48,26.62C1486.37,26.516 1486.12,26.42 1485.74,26.331C1483.97,25.94 1482.85,25.584 1482.37,25.261C1481.72,24.813 1481.39,24.19 1481.39,23.394C1481.39,22.675 1481.67,22.071 1482.24,21.581C1482.81,21.092 1483.69,20.847 1484.88,20.847C1486.02,20.847 1486.86,21.032 1487.41,21.401C1487.96,21.771 1488.35,22.318 1488.55,23.042L1486.48,23.425C1486.39,23.102 1486.23,22.855 1485.98,22.683C1485.73,22.511 1485.38,22.425 1484.92,22.425C1484.34,22.425 1483.93,22.506 1483.68,22.667C1483.51,22.782 1483.43,22.93 1483.43,23.112C1483.43,23.269 1483.5,23.401 1483.65,23.511C1483.85,23.657 1484.53,23.862 1485.7,24.128C1486.87,24.394 1487.68,24.719 1488.15,25.105C1488.61,25.495 1488.84,26.039 1488.84,26.737C1488.84,27.498 1488.52,28.151 1487.88,28.698C1487.25,29.245 1486.31,29.519 1485.06,29.519C1483.93,29.519 1483.04,29.289 1482.38,28.831C1481.72,28.373 1481.29,27.75 1481.09,26.964Z" style="fill:rgb(163,163,163);fill-rule:nonzero;"/>
                        <path d="M1495.56,26.69L1497.75,27.058C1497.47,27.86 1497.02,28.47 1496.42,28.89C1495.81,29.309 1495.05,29.519 1494.14,29.519C1492.7,29.519 1491.63,29.047 1490.94,28.105C1490.39,27.349 1490.12,26.396 1490.12,25.245C1490.12,23.87 1490.48,22.793 1491.19,22.015C1491.91,21.236 1492.82,20.847 1493.92,20.847C1495.15,20.847 1496.13,21.254 1496.84,22.069C1497.56,22.884 1497.9,24.133 1497.87,25.815L1492.37,25.815C1492.38,26.467 1492.56,26.973 1492.9,27.335C1493.24,27.697 1493.66,27.878 1494.16,27.878C1494.51,27.878 1494.8,27.784 1495.03,27.597C1495.27,27.409 1495.44,27.107 1495.56,26.69ZM1495.69,24.472C1495.67,23.836 1495.51,23.353 1495.19,23.023C1494.88,22.692 1494.5,22.526 1494.05,22.526C1493.58,22.526 1493.18,22.701 1492.87,23.05C1492.55,23.399 1492.4,23.873 1492.4,24.472L1495.69,24.472Z" style="fill:rgb(163,163,163);fill-rule:nonzero;"/>
                        <path d="M1501.76,29.331L1499.56,29.331L1499.56,21.034L1501.6,21.034L1501.6,22.214C1501.95,21.657 1502.26,21.289 1502.54,21.112C1502.82,20.935 1503.14,20.847 1503.49,20.847C1503.99,20.847 1504.47,20.985 1504.94,21.261L1504.26,23.175C1503.89,22.935 1503.54,22.815 1503.23,22.815C1502.92,22.815 1502.66,22.9 1502.44,23.069C1502.23,23.239 1502.06,23.545 1501.94,23.987C1501.82,24.43 1501.76,25.357 1501.76,26.769L1501.76,29.331Z" style="fill:rgb(163,163,163);fill-rule:nonzero;"/>
                    </g>
                    <g transform="matrix(1.3,0,0,1.3,-458.1,-5.86602)">
                        <path d="M1517,24L1527,24L1522.85,28.15L1518.7,24" style="fill:rgb(163,163,163);"/>
                    </g>
                </g>
                <g id="Demo-User1" serif:id="Demo User" transform="matrix(1,0,0,1,83.5234,0)">
                    <g transform="matrix(1,0,0,1,53,3.7978)">
                        <path d="M1421.43,29.331L1421.43,17.878L1423.74,17.878L1423.74,22.386L1428.27,22.386L1428.27,17.878L1430.59,17.878L1430.59,29.331L1428.27,29.331L1428.27,24.323L1423.74,24.323L1423.74,29.331L1421.43,29.331Z" style="fill:rgb(163,163,163);fill-rule:nonzero;"/>
                        <path d="M1437.77,26.69L1439.95,27.058C1439.67,27.86 1439.23,28.47 1438.62,28.89C1438.01,29.309 1437.25,29.519 1436.34,29.519C1434.9,29.519 1433.83,29.047 1433.14,28.105C1432.59,27.349 1432.32,26.396 1432.32,25.245C1432.32,23.87 1432.68,22.793 1433.4,22.015C1434.12,21.236 1435.03,20.847 1436.12,20.847C1437.36,20.847 1438.33,21.254 1439.05,22.069C1439.76,22.884 1440.1,24.133 1440.07,25.815L1434.57,25.815C1434.59,26.467 1434.76,26.973 1435.1,27.335C1435.44,27.697 1435.86,27.878 1436.37,27.878C1436.71,27.878 1437,27.784 1437.23,27.597C1437.47,27.409 1437.64,27.107 1437.77,26.69ZM1437.89,24.472C1437.87,23.836 1437.71,23.353 1437.4,23.023C1437.09,22.692 1436.7,22.526 1436.26,22.526C1435.78,22.526 1435.38,22.701 1435.07,23.05C1434.76,23.399 1434.6,23.873 1434.61,24.472L1437.89,24.472Z" style="fill:rgb(163,163,163);fill-rule:nonzero;"/>
                        <rect x="1441.86" y="17.878" width="2.195" height="11.453" style="fill:rgb(163,163,163);fill-rule:nonzero;"/>
                        <path d="M1446.24,21.034L1448.29,21.034L1448.29,22.253C1448.55,21.836 1448.91,21.498 1449.37,21.237C1449.82,20.977 1450.32,20.847 1450.87,20.847C1451.84,20.847 1452.65,21.224 1453.33,21.98C1454,22.735 1454.34,23.787 1454.34,25.136C1454.34,26.521 1454,27.598 1453.32,28.366C1452.64,29.134 1451.82,29.519 1450.86,29.519C1450.4,29.519 1449.99,29.427 1449.61,29.245C1449.24,29.063 1448.85,28.75 1448.44,28.308L1448.44,32.487L1446.24,32.487L1446.24,21.034ZM1448.41,25.042C1448.41,25.974 1448.6,26.663 1448.97,27.108C1449.34,27.554 1449.79,27.776 1450.32,27.776C1450.83,27.776 1451.25,27.572 1451.59,27.163C1451.93,26.754 1452.1,26.084 1452.1,25.151C1452.1,24.282 1451.93,23.636 1451.58,23.214C1451.23,22.792 1450.8,22.581 1450.28,22.581C1449.74,22.581 1449.3,22.788 1448.94,23.202C1448.59,23.616 1448.41,24.23 1448.41,25.042Z" style="fill:rgb(163,163,163);fill-rule:nonzero;"/>
                    </g>
                    <g transform="matrix(1.3,0,0,1.3,-458.1,-5.86602)">
                        <path d="M1517,24L1527,24L1522.85,28.15L1518.7,24" style="fill:rgb(163,163,163);"/>
                    </g>
                </g>
                <g id="Comment" transform="matrix(0.626735,0,0,0.618245,1089.64,-165.606)">
                    <g transform="matrix(0.476723,0,0,0.476723,-1071.67,-583.508)">
                        <path d="M4097,1864L4097,1883.8C4097,1885.57 4098.43,1887 4100.2,1887L4119.5,1887L4123.5,1890.85L4123.5,1892.8C4123.5,1894.57 4122.07,1896 4120.3,1896L4101,1896L4087.5,1909L4087.5,1896L4081.7,1896C4079.93,1896 4078.5,1894.57 4078.5,1892.8L4078.5,1867.2C4078.5,1865.43 4079.93,1864 4081.7,1864L4097,1864Z" style="fill:rgb(163,163,163);"/>
                    </g>
                    <g transform="matrix(0.476723,0,0,0.476723,-1071.67,-583.508)">
                        <path d="M4123.5,1883L4104.2,1883C4102.43,1883 4101,1881.57 4101,1879.8L4101,1854.2C4101,1852.43 4102.43,1851 4104.2,1851L4142.8,1851C4144.57,1851 4146,1852.43 4146,1854.2L4146,1879.8C4146,1881.57 4144.57,1883 4142.8,1883L4137,1883L4137,1896L4123.5,1883Z" style="fill:rgb(163,163,163);"/>
                    </g>
                </g>
                <g id="Unread-Things" serif:id="Unread Things">
                    <path d="M1732,15.8C1732,13.151 1729.85,11 1727.2,11L1689.8,11C1687.15,11 1685,13.151 1685,15.8L1685,38.2C1685,40.849 1687.15,43 1689.8,43L1727.2,43C1729.85,43 1732,40.849 1732,38.2L1732,15.8Z" style="fill:rgb(255,88,88);"/>
                    <g transform="matrix(1,0,0,1,-85.1672,-13.5809)">
                        <path d="M1780.91,43.581L1783.03,43.347C1783.08,43.779 1783.22,44.099 1783.44,44.307C1783.66,44.516 1783.94,44.62 1784.3,44.62C1784.76,44.62 1785.14,44.412 1785.46,43.995C1785.78,43.578 1785.98,42.714 1786.07,41.401C1785.52,42.042 1784.83,42.362 1784,42.362C1783.1,42.362 1782.32,42.014 1781.67,41.319C1781.01,40.624 1780.69,39.719 1780.69,38.604C1780.69,37.443 1781.03,36.507 1781.72,35.796C1782.41,35.085 1783.29,34.729 1784.36,34.729C1785.52,34.729 1786.47,35.179 1787.22,36.077C1787.96,36.975 1788.34,38.453 1788.34,40.511C1788.34,42.604 1787.95,44.115 1787.17,45.042C1786.39,45.969 1785.38,46.432 1784.14,46.432C1783.24,46.432 1782.52,46.194 1781.97,45.718C1781.42,45.241 1781.06,44.529 1780.91,43.581ZM1785.87,38.784C1785.87,38.076 1785.71,37.526 1785.39,37.136C1785.06,36.745 1784.68,36.55 1784.26,36.55C1783.85,36.55 1783.51,36.71 1783.25,37.03C1782.98,37.35 1782.84,37.875 1782.84,38.604C1782.84,39.344 1782.99,39.887 1783.28,40.233C1783.57,40.58 1783.94,40.753 1784.37,40.753C1784.8,40.753 1785.15,40.586 1785.44,40.253C1785.73,39.919 1785.87,39.43 1785.87,38.784Z" style="fill:white;fill-rule:nonzero;"/>
                        <path d="M1789.8,43.581L1791.93,43.347C1791.98,43.779 1792.12,44.099 1792.34,44.307C1792.55,44.516 1792.84,44.62 1793.2,44.62C1793.66,44.62 1794.04,44.412 1794.36,43.995C1794.68,43.578 1794.88,42.714 1794.97,41.401C1794.42,42.042 1793.73,42.362 1792.9,42.362C1792,42.362 1791.22,42.014 1790.57,41.319C1789.91,40.624 1789.59,39.719 1789.59,38.604C1789.59,37.443 1789.93,36.507 1790.62,35.796C1791.31,35.085 1792.19,34.729 1793.26,34.729C1794.42,34.729 1795.37,35.179 1796.12,36.077C1796.86,36.975 1797.23,38.453 1797.23,40.511C1797.23,42.604 1796.85,44.115 1796.07,45.042C1795.29,45.969 1794.28,46.432 1793.04,46.432C1792.14,46.432 1791.42,46.194 1790.87,45.718C1790.31,45.241 1789.96,44.529 1789.8,43.581ZM1794.77,38.784C1794.77,38.076 1794.61,37.526 1794.28,37.136C1793.96,36.745 1793.58,36.55 1793.16,36.55C1792.75,36.55 1792.41,36.71 1792.14,37.03C1791.88,37.35 1791.74,37.875 1791.74,38.604C1791.74,39.344 1791.89,39.887 1792.18,40.233C1792.47,40.58 1792.84,40.753 1793.27,40.753C1793.69,40.753 1794.05,40.586 1794.34,40.253C1794.63,39.919 1794.77,39.43 1794.77,38.784Z" style="fill:white;fill-rule:nonzero;"/>
                        <path d="M1801.64,44.581L1801.64,41.604L1798.64,41.604L1798.64,39.55L1801.64,39.55L1801.64,36.573L1803.64,36.573L1803.64,39.55L1806.65,39.55L1806.65,41.604L1803.64,41.604L1803.64,44.581L1801.64,44.581Z" style="fill:white;fill-rule:nonzero;"/>
                    </g>
                </g>
            </g>
            <g id="Header">
                <g transform="matrix(1.79029,0,0,1.79029,-417.206,-113.467)">
                    <path d="M362.799,125.926L360.165,125.926L359.117,123.201L354.323,123.201L353.333,125.926L350.763,125.926L355.435,113.931L357.996,113.931L362.799,125.926ZM358.34,121.18L356.687,116.729L355.067,121.18L358.34,121.18Z" style="fill:rgb(54,65,76);fill-rule:nonzero;"/>
                    <path d="M371.644,119.806L369.378,120.215C369.301,119.762 369.128,119.421 368.858,119.192C368.588,118.963 368.238,118.848 367.807,118.848C367.234,118.848 366.777,119.046 366.436,119.441C366.095,119.837 365.925,120.498 365.925,121.426C365.925,122.457 366.098,123.185 366.445,123.61C366.791,124.036 367.256,124.248 367.84,124.248C368.276,124.248 368.633,124.124 368.911,123.876C369.19,123.628 369.386,123.201 369.501,122.596L371.759,122.98C371.524,124.017 371.074,124.799 370.409,125.329C369.743,125.858 368.851,126.122 367.733,126.122C366.462,126.122 365.449,125.721 364.694,124.919C363.938,124.118 363.56,123.008 363.56,121.589C363.56,120.155 363.939,119.038 364.698,118.239C365.456,117.44 366.481,117.04 367.774,117.04C368.832,117.04 369.674,117.268 370.298,117.723C370.923,118.179 371.372,118.873 371.644,119.806Z" style="fill:rgb(54,65,76);fill-rule:nonzero;"/>
                    <path d="M380.964,119.806L378.697,120.215C378.621,119.762 378.448,119.421 378.178,119.192C377.908,118.963 377.557,118.848 377.126,118.848C376.554,118.848 376.097,119.046 375.756,119.441C375.415,119.837 375.244,120.498 375.244,121.426C375.244,122.457 375.418,123.185 375.764,123.61C376.11,124.036 376.575,124.248 377.159,124.248C377.595,124.248 377.953,124.124 378.231,123.876C378.509,123.628 378.705,123.201 378.82,122.596L381.078,122.98C380.844,124.017 380.394,124.799 379.728,125.329C379.063,125.858 378.171,126.122 377.053,126.122C375.782,126.122 374.768,125.721 374.013,124.919C373.257,124.118 372.88,123.008 372.88,121.589C372.88,120.155 373.259,119.038 374.017,118.239C374.775,117.44 375.801,117.04 377.094,117.04C378.152,117.04 378.993,117.268 379.618,117.723C380.242,118.179 380.691,118.873 380.964,119.806Z" style="fill:rgb(54,65,76);fill-rule:nonzero;"/>
                    <path d="M382.175,121.458C382.175,120.695 382.363,119.956 382.739,119.241C383.116,118.526 383.649,117.981 384.339,117.605C385.029,117.228 385.799,117.04 386.65,117.04C387.965,117.04 389.042,117.467 389.882,118.321C390.722,119.174 391.142,120.253 391.142,121.557C391.142,122.871 390.718,123.961 389.87,124.825C389.022,125.69 387.954,126.122 386.667,126.122C385.87,126.122 385.111,125.942 384.388,125.582C383.665,125.222 383.116,124.694 382.739,123.999C382.363,123.303 382.175,122.457 382.175,121.458ZM384.531,121.581C384.531,122.443 384.736,123.103 385.145,123.561C385.554,124.019 386.058,124.248 386.658,124.248C387.258,124.248 387.762,124.019 388.168,123.561C388.574,123.103 388.778,122.438 388.778,121.565C388.778,120.714 388.574,120.059 388.168,119.601C387.762,119.143 387.258,118.914 386.658,118.914C386.058,118.914 385.554,119.143 385.145,119.601C384.736,120.059 384.531,120.719 384.531,121.581Z" style="fill:rgb(54,65,76);fill-rule:nonzero;"/>
                    <path d="M398.662,125.926L398.662,124.625C398.345,125.089 397.929,125.454 397.414,125.721C396.898,125.989 396.354,126.122 395.782,126.122C395.198,126.122 394.674,125.994 394.211,125.738C393.747,125.481 393.411,125.121 393.204,124.658C392.997,124.194 392.893,123.553 392.893,122.735L392.893,117.236L395.192,117.236L395.192,121.229C395.192,122.451 395.235,123.2 395.319,123.475C395.404,123.751 395.558,123.969 395.782,124.13C396.005,124.291 396.289,124.371 396.632,124.371C397.025,124.371 397.377,124.263 397.688,124.048C397.999,123.833 398.212,123.565 398.326,123.246C398.441,122.927 398.498,122.146 398.498,120.902L398.498,117.236L400.797,117.236L400.797,125.926L398.662,125.926Z" style="fill:rgb(54,65,76);fill-rule:nonzero;"/>
                    <path d="M411.082,125.926L408.783,125.926L408.783,121.491C408.783,120.553 408.734,119.946 408.636,119.671C408.538,119.395 408.378,119.181 408.157,119.028C407.936,118.876 407.67,118.799 407.359,118.799C406.961,118.799 406.604,118.908 406.287,119.126C405.971,119.345 405.754,119.634 405.637,119.994C405.52,120.354 405.461,121.019 405.461,121.99L405.461,125.926L403.162,125.926L403.162,117.236L405.297,117.236L405.297,118.513C406.056,117.531 407.01,117.04 408.161,117.04C408.668,117.04 409.132,117.131 409.552,117.314C409.972,117.497 410.29,117.73 410.505,118.014C410.721,118.297 410.871,118.619 410.955,118.979C411.04,119.339 411.082,119.855 411.082,120.526L411.082,125.926Z" style="fill:rgb(54,65,76);fill-rule:nonzero;"/>
                    <path d="M417.399,117.236L417.399,119.069L415.828,119.069L415.828,122.571C415.828,123.28 415.843,123.693 415.873,123.811C415.903,123.928 415.971,124.025 416.077,124.101C416.184,124.178 416.313,124.216 416.466,124.216C416.679,124.216 416.987,124.142 417.391,123.995L417.587,125.779C417.052,126.008 416.447,126.122 415.771,126.122C415.356,126.122 414.982,126.053 414.65,125.914C414.317,125.774 414.073,125.594 413.917,125.374C413.762,125.153 413.654,124.854 413.594,124.478C413.545,124.21 413.52,123.67 413.52,122.858L413.52,119.069L412.465,119.069L412.465,117.236L413.52,117.236L413.52,115.51L415.828,114.168L415.828,117.236L417.399,117.236Z" style="fill:rgb(54,65,76);fill-rule:nonzero;"/>
                    <path d="M418.184,123.447L420.492,123.095C420.59,123.542 420.789,123.882 421.089,124.113C421.389,124.345 421.809,124.461 422.349,124.461C422.944,124.461 423.391,124.352 423.691,124.134C423.893,123.981 423.994,123.777 423.994,123.52C423.994,123.346 423.939,123.201 423.83,123.087C423.715,122.978 423.459,122.877 423.061,122.784C421.206,122.375 420.031,122.001 419.534,121.663C418.847,121.194 418.503,120.542 418.503,119.707C418.503,118.955 418.801,118.322 419.395,117.809C419.99,117.296 420.912,117.04 422.161,117.04C423.35,117.04 424.234,117.234 424.812,117.621C425.39,118.008 425.788,118.581 426.006,119.339L423.838,119.74C423.745,119.402 423.569,119.143 423.31,118.963C423.051,118.783 422.682,118.693 422.202,118.693C421.596,118.693 421.163,118.777 420.901,118.946C420.726,119.066 420.639,119.222 420.639,119.413C420.639,119.576 420.715,119.716 420.868,119.83C421.075,119.983 421.791,120.198 423.016,120.477C424.24,120.755 425.095,121.096 425.581,121.499C426.061,121.908 426.301,122.478 426.301,123.209C426.301,124.006 425.968,124.69 425.303,125.263C424.637,125.836 423.653,126.122 422.349,126.122C421.165,126.122 420.228,125.882 419.538,125.402C418.848,124.922 418.397,124.27 418.184,123.447Z" style="fill:rgb(54,65,76);fill-rule:nonzero;"/>
                </g>
                <g id="Menu-Button" serif:id="Menu Button">
                    <path d="M1725,84.15C1725,80.756 1722.24,78 1718.85,78L1643.15,78C1639.76,78 1637,80.756 1637,84.15L1637,112.85C1637,116.244 1639.76,119 1643.15,119L1718.85,119C1722.24,119 1725,116.244 1725,112.85L1725,84.15Z" style="fill:rgb(240,244,247);"/>
                    <g transform="matrix(1,0,0,1,159.199,-0.171663)">
                        <path d="M1492.08,105.009L1492.08,92.124L1494.64,92.124L1497.69,101.247C1497.98,102.096 1498.18,102.732 1498.31,103.154C1498.46,102.685 1498.68,101.997 1499,101.089L1502.08,92.124L1504.37,92.124L1504.37,105.009L1502.73,105.009L1502.73,94.224L1498.99,105.009L1497.45,105.009L1493.72,94.04L1493.72,105.009L1492.08,105.009Z" style="fill:rgb(94,94,94);fill-rule:nonzero;"/>
                        <path d="M1513.31,102.003L1514.95,102.205C1514.69,103.16 1514.21,103.901 1513.51,104.428C1512.82,104.956 1511.93,105.22 1510.84,105.22C1509.48,105.22 1508.39,104.799 1507.6,103.958C1506.8,103.117 1506.39,101.938 1506.39,100.421C1506.39,98.85 1506.8,97.632 1507.61,96.764C1508.42,95.897 1509.46,95.464 1510.75,95.464C1512,95.464 1513.02,95.888 1513.81,96.738C1514.6,97.588 1515,98.783 1515,100.324C1515,100.418 1515,100.558 1514.99,100.746L1508.03,100.746C1508.09,101.771 1508.38,102.556 1508.9,103.101C1509.42,103.646 1510.07,103.919 1510.85,103.919C1511.43,103.919 1511.93,103.766 1512.34,103.462C1512.75,103.157 1513.07,102.671 1513.31,102.003ZM1508.12,99.445L1513.33,99.445C1513.26,98.66 1513.06,98.071 1512.73,97.678C1512.23,97.069 1511.58,96.764 1510.77,96.764C1510.05,96.764 1509.43,97.008 1508.94,97.494C1508.44,97.98 1508.17,98.631 1508.12,99.445Z" style="fill:rgb(94,94,94);fill-rule:nonzero;"/>
                        <path d="M1516.93,105.009L1516.93,95.675L1518.36,95.675L1518.36,97.002C1519.04,95.976 1520.03,95.464 1521.33,95.464C1521.89,95.464 1522.41,95.565 1522.88,95.767C1523.35,95.969 1523.7,96.234 1523.94,96.562C1524.17,96.89 1524.34,97.28 1524.43,97.731C1524.49,98.024 1524.52,98.537 1524.52,99.269L1524.52,105.009L1522.94,105.009L1522.94,99.331C1522.94,98.686 1522.88,98.204 1522.75,97.885C1522.63,97.566 1522.41,97.311 1522.1,97.12C1521.78,96.93 1521.42,96.835 1520.99,96.835C1520.32,96.835 1519.74,97.049 1519.25,97.476C1518.76,97.904 1518.52,98.716 1518.52,99.911L1518.52,105.009L1516.93,105.009Z" style="fill:rgb(94,94,94);fill-rule:nonzero;"/>
                        <path d="M1533.06,105.009L1533.06,103.637C1532.34,104.692 1531.35,105.22 1530.1,105.22C1529.55,105.22 1529.03,105.114 1528.56,104.903C1528.08,104.692 1527.73,104.427 1527.49,104.108C1527.26,103.788 1527.1,103.397 1527.01,102.934C1526.94,102.624 1526.91,102.132 1526.91,101.458L1526.91,95.675L1528.49,95.675L1528.49,100.851C1528.49,101.678 1528.52,102.234 1528.59,102.521C1528.69,102.937 1528.9,103.264 1529.22,103.501C1529.54,103.739 1529.94,103.857 1530.42,103.857C1530.89,103.857 1531.34,103.736 1531.75,103.492C1532.17,103.249 1532.46,102.918 1532.63,102.499C1532.81,102.08 1532.89,101.472 1532.89,100.676L1532.89,95.675L1534.48,95.675L1534.48,105.009L1533.06,105.009Z" style="fill:rgb(94,94,94);fill-rule:nonzero;"/>
                    </g>
                    <g transform="matrix(1.3,0,0,1.3,-274.377,65.6024)">
                        <path d="M1517,24L1527,24L1522.85,28.15L1518.7,24" style="fill:rgb(94,94,94);"/>
                    </g>
                </g>
                <g transform="matrix(1,0,0,1.06897,0,-3.7931)">
                    <rect x="0" y="55" width="1920" height="87" style="fill:none;stroke:rgb(118,118,118);stroke-width:0.34px;"/>
                </g>
            </g>
            <path d="M455,148L455,1210.08" style="fill:none;stroke:rgb(118,118,118);stroke-width:0.35px;"/>
        </g>
    </g>
</svg>
