<?xml version="1.0" encoding="utf-8"?>
<!-- Generator: Adobe Illustrator 16.0.4, SVG Export Plug-In . SVG Version: 6.00 Build 0)  -->
<!DOCTYPE svg PUBLIC "-//W3C//DTD SVG 1.1//EN" "http://www.w3.org/Graphics/SVG/1.1/DTD/svg11.dtd">
<svg version="1.1" id="Layer_1" xmlns="http://www.w3.org/2000/svg" xmlns:xlink="http://www.w3.org/1999/xlink" x="0px" y="0px"
	 width="80px" height="21.167px" viewBox="0 0 80 21.167" enable-background="new 0 0 80 21.167" xml:space="preserve">
<g>
	<path fill="#36414C" d="M1.16,13.83V4.147c0-1.041,0.58-1.641,1.541-1.641h7.221c0.92,0,1.36,0.46,1.36,1.24v0.1
		c0,0.82-0.44,1.24-1.36,1.24H4.121v2.561h4.241c0.96,0,1.36,0.42,1.36,1.14v0.08c0,0.78-0.42,1.2-1.36,1.2H4.121v2.821h5.901
		c0.92,0,1.36,0.4,1.36,1.16v0.12c0,0.8-0.44,1.28-1.36,1.28H2.701C1.74,15.45,1.16,14.87,1.16,13.83z"/>
	<path fill="#36414C" d="M19.982,14.33l-2.761-3.481h-1.12v3.341c0,0.84-0.44,1.34-1.28,1.34H14.4c-0.8,0-1.24-0.58-1.24-1.621
		V4.147c0-1.041,0.58-1.641,1.541-1.641h3.821c3.361,0,5.101,1.4,5.101,4.041c0,2.081-1.18,3.48-3.361,3.841l3.361,4.061
		c0.12,0.14-0.44,1.08-1.701,1.08C21.082,15.53,20.602,15.169,19.982,14.33z M16.061,8.688h2.26c1.581,0,2.34-0.74,2.34-1.94
		c0-1.26-0.8-1.94-2.4-1.94h-2.2V8.688z"/>
	<path fill="#36414C" d="M25.5,14.189V4.147c0-1.041,0.58-1.641,1.541-1.641h3.38c3.421,0,5.321,1.521,5.321,4.381
		c0,2.881-1.82,4.361-5.321,4.361h-1.96v2.94c0,0.84-0.44,1.34-1.28,1.34h-0.44C25.96,15.53,25.5,15.07,25.5,14.189z M28.421,9.028
		h1.96c1.62,0,2.48-0.76,2.48-2.121s-0.86-2.1-2.5-2.1h-1.94V9.028z"/>
	<path fill="#36414C" d="M37.279,14.189V3.887c0-0.94,0.48-1.46,1.28-1.46h0.36c0.78,0,1.04,0.26,1.5,0.84l5.602,7.702V3.767
		c0-0.88,0.42-1.34,1.26-1.34h0.28c0.82,0,1.24,0.46,1.24,1.34v10.302c0,0.96-0.48,1.46-1.26,1.46h-0.24c-0.78,0-1-0.2-1.42-0.72
		L40.06,6.808v7.381c0,0.88-0.42,1.34-1.28,1.34H38.5C37.7,15.53,37.279,15.07,37.279,14.189z"/>
	<path fill="#36414C" d="M50.499,10.649c0-2.981,2.141-5.181,5.101-5.181c2.881,0,4.861,2.02,4.861,4.881v0.2
		c-0.02,0.5-0.16,0.78-0.68,0.78H53.04c0.2,1.46,1.32,2.321,2.841,2.321c1.48,0,2.3-0.66,2.76-1.44c0.02-0.04,1.36,0.14,1.36,1.26
		c0,1.06-1.5,2.241-4.221,2.241C52.6,15.71,50.499,13.729,50.499,10.649z M53.04,9.688h4.801c-0.06-1.36-0.92-2.26-2.281-2.26
		C54.24,7.428,53.24,8.368,53.04,9.688z"/>
	<path fill="#36414C" d="M70.581,14.629c0.1,0.14-0.62,0.94-1.62,0.94c-0.64,0-1.16-0.34-1.521-1.021l-1.66-2.601l-1.641,2.601
		c-0.36,0.66-0.9,1.021-1.56,1.021c-0.94,0-1.68-0.82-1.581-0.94l2.961-4.041l-2.941-4.081c-0.08-0.14,0.64-0.94,1.561-0.94
		c0.66,0,1.2,0.3,1.58,1.021l1.661,2.601l1.66-2.601c0.4-0.74,0.98-1.021,1.541-1.021c0.96,0,1.7,0.8,1.6,0.94l-2.98,4.081
		L70.581,14.629z"/>
	<path fill="#36414C" d="M71.279,6.908v-0.18c0-0.68,0.38-1.041,1.18-1.041h0.48v-1.24c0-0.92,0.48-1.36,1.28-1.36h0.24
		c0.76,0,1.26,0.32,1.26,1.36v1.24h1.7c0.8,0,1.14,0.34,1.14,1v0.16c0,0.68-0.36,1.041-1.16,1.041h-1.74v4.161
		c0,0.96,0.32,1.44,1.08,1.44c0.58,0,0.96-0.28,1.26-0.66c0.04-0.06,0.68,0.32,0.68,1.1c0,0.98-0.98,1.781-2.581,1.781
		c-2.161,0-3.161-1.141-3.161-3.341V7.888h-0.48C71.659,7.888,71.279,7.548,71.279,6.908z"/>
</g>
<g>
</g>
<g>
</g>
<g>
</g>
<g>
</g>
<g>
</g>
<g>
</g>
<g>
</g>
<g>
</g>
<g>
</g>
<g>
</g>
<g>
</g>
<g>
</g>
<g>
</g>
<g>
</g>
<g>
</g>
</svg>
