<?xml version="1.0" encoding="UTF-8" standalone="no"?>
<!DOCTYPE svg PUBLIC "-//W3C//DTD SVG 1.1//EN" "http://www.w3.org/Graphics/SVG/1.1/DTD/svg11.dtd">
<svg width="100%" height="100%" viewBox="0 0 2481 3508" version="1.1" xmlns="http://www.w3.org/2000/svg" xmlns:xlink="http://www.w3.org/1999/xlink" xml:space="preserve" xmlns:serif="http://www.serif.com/" style="fill-rule:evenodd;clip-rule:evenodd;stroke-linejoin:round;stroke-miterlimit:2;">
    <g transform="matrix(4.16667,0,0,0.500662,0,3086.78)">
        <rect x="0" y="0" width="595" height="842" style="fill:rgb(229,229,229);"/>
    </g>
    <g transform="matrix(1,0,0,1,0,-17.6702)">
        <g transform="matrix(4.16667,0,0,4.16667,0.130397,17.3879)">
            <path d="M197.933,774L199.645,774L199.645,769.984L203.574,769.984L203.574,768.548L199.645,768.548L199.645,765.981L203.989,765.981L203.989,764.545L197.933,764.545L197.933,774ZM205.374,774L207.045,774L207.045,769.831C207.045,768.936 207.719,768.303 208.592,768.303C208.864,768.303 209.072,768.368 209.252,768.451L209.769,767.066C209.52,766.909 209.201,766.808 208.818,766.808C208.001,766.808 207.327,767.269 207.069,768.091L206.995,768.091L206.995,766.909L205.374,766.909L205.374,774ZM212.658,774.143C213.771,774.143 214.435,773.621 214.74,773.026L214.795,773.026L214.795,774L216.402,774L216.402,769.254C216.402,767.38 214.865,766.817 213.544,766.817C212.021,766.817 210.885,767.482 210.516,768.774L212.076,768.996C212.242,768.511 212.713,768.096 213.53,768.096C214.315,768.096 214.726,768.497 214.731,769.199C214.735,769.665 214.26,769.716 213.101,769.841C213.06,769.845 213.018,769.85 212.976,769.854C211.601,770.002 210.285,770.413 210.285,772.01C210.285,773.404 211.305,774.143 212.658,774.143ZM213.092,772.915C212.395,772.915 211.896,772.597 211.896,771.983C211.896,771.341 212.455,771.073 213.203,770.967C213.641,770.907 214.518,770.796 214.735,770.621L214.735,771.456C214.735,772.246 214.098,772.915 213.092,772.915ZM221.854,774.125C223.525,774.125 224.776,772.8 224.776,770.464C224.776,768.1 223.488,766.817 221.849,766.817C220.603,766.817 220.081,767.569 219.823,768.082L219.726,768.082L219.726,766.909L218.082,766.909L218.082,776.659L219.753,776.659L219.753,772.883L219.823,772.883C220.086,773.404 220.631,774.125 221.854,774.125ZM221.388,772.754C220.321,772.754 219.721,771.835 219.721,770.455C219.721,769.083 220.312,768.188 221.388,768.188C222.5,768.188 223.077,769.134 223.073,770.455C223.077,771.789 222.491,772.754 221.388,772.754ZM229.979,774.125C231.65,774.125 232.901,772.8 232.901,770.464C232.901,768.1 231.613,766.817 229.974,766.817C228.728,766.817 228.206,767.569 227.948,768.082L227.851,768.082L227.851,766.909L226.207,766.909L226.207,776.659L227.878,776.659L227.878,772.883L227.948,772.883C228.211,773.404 228.756,774.125 229.979,774.125ZM229.513,772.754C228.446,772.754 227.846,771.835 227.846,770.455C227.846,769.083 228.437,768.188 229.513,768.188C230.625,768.188 231.202,769.134 231.198,770.455C231.202,771.789 230.616,772.754 229.513,772.754ZM237.49,774.138C239.138,774.138 240.278,773.331 240.574,772.098L239.009,771.923C238.783,772.523 238.233,772.837 237.508,772.837C236.428,772.837 235.713,772.126 235.699,770.912L240.638,770.912L240.638,770.399C240.638,767.911 239.143,766.817 237.398,766.817C235.366,766.817 234.041,768.308 234.041,770.496C234.041,772.721 235.348,774.138 237.49,774.138ZM235.703,769.785C235.759,768.88 236.424,768.119 237.421,768.119C238.386,768.119 239.032,768.82 239.036,769.785L235.703,769.785ZM244.947,765.981L247.869,765.981L247.869,774L249.568,774L249.568,765.981L252.49,765.981L252.49,764.545L244.947,764.545L244.947,765.981ZM256,774.138C257.648,774.138 258.788,773.331 259.084,772.098L257.519,771.923C257.292,772.523 256.743,772.837 256.018,772.837C254.938,772.837 254.222,772.126 254.209,770.912L259.148,770.912L259.148,770.399C259.148,767.911 257.652,766.817 255.907,766.817C253.876,766.817 252.551,768.308 252.551,770.496C252.551,772.721 253.858,774.138 256,774.138ZM254.213,769.785C254.269,768.88 254.933,768.119 255.93,768.119C256.895,768.119 257.542,768.82 257.546,769.785L254.213,769.785ZM263.68,774.138C265.462,774.138 266.598,773.081 266.723,771.576L265.121,771.576C264.978,772.338 264.428,772.777 263.694,772.777C262.651,772.777 261.977,771.904 261.977,770.455C261.977,769.023 262.665,768.165 263.694,768.165C264.498,768.165 264.996,768.682 265.121,769.365L266.723,769.365C266.603,767.828 265.402,766.817 263.671,766.817C261.594,766.817 260.283,768.317 260.283,770.482C260.283,772.629 261.561,774.138 263.68,774.138ZM269.773,769.845C269.773,768.82 270.41,768.229 271.306,768.229C272.183,768.229 272.7,768.788 272.7,769.744L272.7,774L274.371,774L274.371,769.485C274.371,767.772 273.402,766.817 271.929,766.817C270.839,766.817 270.147,767.311 269.819,768.114L269.736,768.114L269.736,764.545L268.102,764.545L268.102,774L269.773,774L269.773,769.845ZM277.746,769.845C277.746,768.82 278.364,768.229 279.246,768.229C280.109,768.229 280.626,768.797 280.626,769.744L280.626,774L282.297,774L282.297,769.485C282.302,767.786 281.333,766.817 279.869,766.817C278.807,766.817 278.078,767.325 277.755,768.114L277.672,768.114L277.672,766.909L276.074,766.909L276.074,774L277.746,774L277.746,769.845ZM287.103,774.138C289.181,774.138 290.501,772.675 290.501,770.482C290.501,768.285 289.181,766.817 287.103,766.817C285.03,766.817 283.706,768.285 283.706,770.482C283.706,772.675 285.03,774.138 287.103,774.138ZM287.112,772.8C285.963,772.8 285.4,771.775 285.4,770.478C285.4,769.18 285.963,768.142 287.112,768.142C288.244,768.142 288.807,769.18 288.807,770.478C288.807,771.775 288.244,772.8 287.112,772.8ZM293.602,764.545L291.931,764.545L291.931,774L293.602,774L293.602,764.545ZM298.427,774.138C300.505,774.138 301.825,772.675 301.825,770.482C301.825,768.285 300.505,766.817 298.427,766.817C296.355,766.817 295.03,768.285 295.03,770.482C295.03,772.675 296.355,774.138 298.427,774.138ZM298.437,772.8C297.287,772.8 296.724,771.775 296.724,770.478C296.724,769.18 297.287,768.142 298.437,768.142C299.568,768.142 300.131,769.18 300.131,770.478C300.131,771.775 299.568,772.8 298.437,772.8ZM306.159,776.724C308.241,776.724 309.663,775.676 309.663,773.848L309.663,766.909L308.019,766.909L308.019,768.082L307.927,768.082C307.673,767.569 307.142,766.817 305.891,766.817C304.252,766.817 302.964,768.1 302.964,770.431C302.964,772.744 304.252,773.898 305.887,773.898C307.101,773.898 307.669,773.248 307.927,772.726L308.024,772.726L308.024,773.788C308.038,774.803 307.198,775.385 306.168,775.385C305.162,775.385 304.635,774.84 304.363,774.508L303.209,775.376C303.689,776.105 304.585,776.724 306.159,776.724ZM306.353,772.587C305.249,772.587 304.668,771.729 304.668,770.422C304.668,769.134 305.24,768.188 306.353,768.188C307.428,768.188 308.019,769.079 308.019,770.422C308.019,771.775 307.419,772.587 306.353,772.587ZM311.38,774L313.051,774L313.051,766.909L311.38,766.909L311.38,774ZM312.22,765.958C312.737,765.958 313.185,765.561 313.185,765.053C313.185,764.541 312.737,764.144 312.22,764.144C311.699,764.144 311.251,764.541 311.251,765.053C311.251,765.561 311.699,765.958 312.22,765.958ZM317.927,774.138C319.576,774.138 320.716,773.331 321.011,772.098L319.446,771.923C319.22,772.523 318.671,772.837 317.946,772.837C316.866,772.837 316.15,772.126 316.136,770.912L321.076,770.912L321.076,770.399C321.076,767.911 319.58,766.817 317.835,766.817C315.804,766.817 314.479,768.308 314.479,770.496C314.479,772.721 315.785,774.138 317.927,774.138ZM316.141,769.785C316.196,768.88 316.861,768.119 317.858,768.119C318.823,768.119 319.469,768.82 319.474,769.785L316.141,769.785ZM328.106,768.783C327.875,767.583 326.915,766.817 325.253,766.817C323.545,766.817 322.381,767.657 322.386,768.968C322.381,770.002 323.018,770.685 324.38,770.967L325.59,771.221C326.241,771.364 326.545,771.627 326.545,772.029C326.545,772.513 326.019,772.878 325.225,772.878C324.459,772.878 323.96,772.546 323.817,771.909L322.187,772.066C322.395,773.368 323.489,774.138 325.23,774.138C327.002,774.138 328.253,773.22 328.258,771.876C328.253,770.865 327.602,770.247 326.264,769.956L325.054,769.697C324.334,769.536 324.048,769.287 324.052,768.876C324.048,768.396 324.579,768.063 325.276,768.063C326.047,768.063 326.453,768.483 326.582,768.95L328.106,768.783ZM332.934,774L334.647,774L334.647,770.805L336.457,770.805C338.64,770.805 339.818,769.49 339.813,767.675C339.818,765.866 338.654,764.545 336.48,764.545L332.934,764.545L332.934,774ZM334.647,769.397L334.647,765.977L336.217,765.977C337.5,765.977 338.073,766.678 338.068,767.675C338.073,768.691 337.5,769.397 336.226,769.397L334.647,769.397ZM347.561,766.909L345.783,766.909L344.149,772.176L344.075,772.176L342.446,766.909L340.664,766.909L343.189,774L345.035,774L347.561,766.909ZM352.258,766.909L350.859,766.909L350.859,765.21L349.188,765.21L349.188,766.909L348.182,766.909L348.182,768.202L349.188,768.202L349.188,772.13C349.179,773.469 350.148,774.125 351.404,774.083C351.879,774.074 352.207,773.982 352.387,773.917L352.106,772.615C352.013,772.634 351.824,772.68 351.616,772.68C351.196,772.68 350.854,772.527 350.859,771.858L350.859,768.202L352.258,768.202L352.258,766.909ZM354.736,774.102C355.29,774.102 355.756,773.654 355.756,773.086C355.756,772.541 355.29,772.089 354.736,772.089C354.186,772.089 353.716,772.532 353.72,773.086C353.716,773.654 354.173,774.102 354.736,774.102ZM360.496,774L366.373,774L366.373,772.564L362.209,772.564L362.209,764.545L360.496,764.545L360.496,774ZM371.034,766.909L369.635,766.909L369.635,765.21L367.964,765.21L367.964,766.909L366.958,766.909L366.958,768.202L367.964,768.202L367.964,772.13C367.955,773.469 368.925,774.125 370.18,774.083C370.656,774.074 370.983,773.982 371.164,773.917L370.882,772.615C370.79,772.634 370.6,772.68 370.393,772.68C369.972,772.68 369.631,772.527 369.635,771.858L369.635,768.202L371.034,768.202L371.034,766.909ZM378.81,774L378.81,764.545L377.138,764.545L377.138,768.082L377.069,768.082C376.815,767.569 376.294,766.817 375.043,766.817C373.404,766.817 372.116,768.1 372.116,770.464C372.116,772.8 373.367,774.125 375.038,774.125C376.257,774.125 376.806,773.4 377.069,772.883L377.166,772.883L377.166,774L378.81,774ZM377.171,770.455C377.171,771.83 376.571,772.754 375.504,772.754C374.401,772.754 373.819,771.784 373.819,770.455C373.819,769.134 374.392,768.188 375.504,768.188C376.58,768.188 377.171,769.079 377.171,770.455ZM381.561,774.102C382.115,774.102 382.581,773.654 382.581,773.086C382.581,772.541 382.115,772.089 381.561,772.089C381.012,772.089 380.541,772.532 380.545,773.086C380.541,773.654 380.998,774.102 381.561,774.102Z" style="fill-rule:nonzero;"/>
        </g>
        <g transform="matrix(4.16667,0,0,4.16667,0.130397,17.3879)">
            <path d="M151.549,792C153.543,792 154.668,790.76 154.668,788.714C154.668,786.682 153.543,785.455 151.638,785.455L149.529,785.455L149.529,792L151.549,792ZM150.322,791.297L150.322,786.158L151.587,786.158C153.121,786.158 153.901,787.129 153.901,788.714C153.901,790.312 153.121,791.297 151.498,791.297L150.322,791.297ZM157.849,785.148L157.159,785.148L155.049,792.984L155.74,792.984L157.849,785.148ZM160.942,792.089C162.211,792.089 163.154,791.294 163.154,790.223C163.154,789.392 162.661,788.788 161.837,788.651L161.837,788.599C162.498,788.398 162.911,787.855 162.911,787.116C162.911,786.19 162.179,785.365 160.968,785.365C159.836,785.365 158.896,786.062 158.858,787.091L159.625,787.091C159.654,786.439 160.274,786.055 160.955,786.055C161.677,786.055 162.144,786.493 162.144,787.155C162.144,787.845 161.604,788.293 160.827,788.293L160.303,788.293L160.303,788.996L160.827,788.996C161.821,788.996 162.374,789.501 162.374,790.223C162.374,790.917 161.77,791.386 160.929,791.386C160.172,791.386 159.571,790.996 159.523,790.364L158.718,790.364C158.765,791.393 159.673,792.089 160.942,792.089ZM164.461,792L168.59,792L168.59,791.297L165.547,791.297L165.547,791.246L167.018,789.673C168.143,788.468 168.475,787.906 168.475,787.18C168.475,786.17 167.657,785.365 166.506,785.365C165.359,785.365 164.486,786.145 164.486,787.295L165.241,787.295C165.241,786.551 165.723,786.055 166.481,786.055C167.19,786.055 167.733,786.49 167.733,787.18C167.733,787.784 167.379,788.232 166.621,789.06L164.461,791.425L164.461,792ZM169.616,790.658L172.697,790.658L172.697,792L173.451,792L173.451,790.658L174.346,790.658L174.346,789.955L173.451,789.955L173.451,785.455L172.492,785.455L169.616,790.006L169.616,790.658ZM172.697,789.955L170.472,789.955L170.472,789.903L172.646,786.464L172.697,786.464L172.697,789.955ZM176.374,791.105L175.556,791.105L175.517,791.463C175.425,792.329 175.243,793.192 175.159,793.598L175.735,793.598C175.888,793.163 176.214,792.179 176.323,791.45L176.374,791.105ZM188.127,785.455L187.347,785.455L187.347,790.607L187.283,790.607L183.703,785.455L182.936,785.455L182.936,792L183.729,792L183.729,786.861L183.793,786.861L187.359,792L188.127,792L188.127,785.455ZM191.669,792.102C192.666,792.102 193.394,791.604 193.624,790.862L192.896,790.658C192.704,791.169 192.26,791.425 191.669,791.425C190.783,791.425 190.173,790.853 190.138,789.801L193.701,789.801L193.701,789.482C193.701,787.653 192.615,787.027 191.592,787.027C190.262,787.027 189.38,788.075 189.38,789.584C189.38,791.092 190.249,792.102 191.669,792.102ZM190.138,789.149C190.189,788.385 190.729,787.705 191.592,787.705C192.41,787.705 192.934,788.318 192.934,789.149L190.138,789.149ZM196.907,792.102C197.904,792.102 198.633,791.604 198.863,790.862L198.134,790.658C197.942,791.169 197.498,791.425 196.907,791.425C196.021,791.425 195.411,790.853 195.376,789.801L198.939,789.801L198.939,789.482C198.939,787.653 197.853,787.027 196.83,787.027C195.501,787.027 194.618,788.075 194.618,789.584C194.618,791.092 195.488,792.102 196.907,792.102ZM195.376,789.149C195.427,788.385 195.967,787.705 196.83,787.705C197.648,787.705 198.172,788.318 198.172,789.149L195.376,789.149ZM200.841,785.455L200.087,785.455L200.087,792L200.841,792L200.841,785.455ZM202.223,792L202.977,792L202.977,790.162L203.504,789.673L205.342,792L206.301,792L204.073,789.188L206.147,787.091L205.214,787.091L203.066,789.277L202.977,789.277L202.977,785.455L202.223,785.455L202.223,792ZM208.563,792.115C209.419,792.115 209.867,791.655 210.02,791.335L210.058,791.335L210.058,792L210.813,792L210.813,788.766C210.813,787.206 209.624,787.027 208.997,787.027C208.256,787.027 207.412,787.283 207.029,788.178L207.744,788.433C207.911,788.075 208.304,787.692 209.023,787.692C209.723,787.692 210.058,788.066 210.058,788.702C210.058,789.066 209.688,789.047 208.793,789.162C207.882,789.28 206.888,789.482 206.888,790.607C206.888,791.565 207.629,792.115 208.563,792.115ZM208.678,791.438C208.077,791.438 207.642,791.169 207.642,790.645C207.642,790.07 208.166,789.891 208.754,789.814C209.074,789.776 209.931,789.686 210.058,789.533L210.058,790.223C210.058,790.837 209.573,791.438 208.678,791.438ZM212.944,789.047C212.944,788.19 213.474,787.705 214.196,787.705C214.896,787.705 215.321,788.162 215.321,788.932L215.321,792L216.076,792L216.076,788.881C216.076,787.628 215.408,787.027 214.414,787.027C213.672,787.027 213.212,787.359 212.982,787.858L212.918,787.858L212.918,787.091L212.189,787.091L212.189,792L212.944,792L212.944,789.047ZM219.589,787.091L218.541,787.091L218.541,785.915L217.786,785.915L217.786,787.091L217.045,787.091L217.045,787.73L217.786,787.73L217.786,790.798C217.786,791.655 218.477,792.064 219.116,792.064C219.397,792.064 219.576,792.013 219.678,791.974L219.525,791.297C219.461,791.31 219.359,791.335 219.193,791.335C218.86,791.335 218.541,791.233 218.541,790.594L218.541,787.73L219.589,787.73L219.589,787.091ZM221.636,789.047C221.636,788.19 222.183,787.705 222.927,787.705C223.637,787.705 224.065,788.152 224.065,788.932L224.065,792L224.819,792L224.819,788.881C224.819,787.618 224.148,787.027 223.145,787.027C222.371,787.027 221.93,787.35 221.7,787.858L221.636,787.858L221.636,785.455L220.882,785.455L220.882,792L221.636,792L221.636,789.047ZM228.833,792L231.198,792C232.745,792 233.384,791.246 233.384,790.261C233.384,789.226 232.668,788.663 232.067,788.625L232.067,788.561C232.63,788.408 233.128,788.037 233.128,787.193C233.128,786.234 232.489,785.455 231.121,785.455L228.833,785.455L228.833,792ZM229.625,791.297L229.625,789.021L231.236,789.021C232.093,789.021 232.63,789.597 232.63,790.261C232.63,790.837 232.233,791.297 231.198,791.297L229.625,791.297ZM229.625,788.331L229.625,786.158L231.121,786.158C231.99,786.158 232.374,786.618 232.374,787.193C232.374,787.884 231.811,788.331 231.095,788.331L229.625,788.331ZM237.678,789.993C237.678,790.913 236.975,791.335 236.412,791.335C235.786,791.335 235.338,790.875 235.338,790.159L235.338,787.091L234.584,787.091L234.584,790.21C234.584,791.463 235.249,792.064 236.169,792.064C236.911,792.064 237.396,791.668 237.627,791.169L237.678,791.169L237.678,792L238.432,792L238.432,787.091L237.678,787.091L237.678,789.993ZM243.291,788.19C243.054,787.494 242.524,787.027 241.552,787.027C240.517,787.027 239.749,787.615 239.749,788.446C239.749,789.124 240.152,789.577 241.053,789.788L241.872,789.98C242.367,790.095 242.6,790.332 242.6,790.67C242.6,791.092 242.153,791.438 241.45,791.438C240.833,791.438 240.446,791.172 240.312,790.645L239.596,790.824C239.772,791.658 240.459,792.102 241.463,792.102C242.604,792.102 243.38,791.479 243.38,790.632C243.38,789.948 242.952,789.517 242.076,789.303L241.347,789.124C240.766,788.98 240.504,788.785 240.504,788.408C240.504,787.986 240.951,787.679 241.552,787.679C242.21,787.679 242.482,788.043 242.613,788.382L243.291,788.19ZM244.516,792L245.27,792L245.27,787.091L244.516,787.091L244.516,792ZM244.899,786.286C245.193,786.286 245.436,786.055 245.436,785.774C245.436,785.493 245.193,785.263 244.899,785.263C244.605,785.263 244.362,785.493 244.362,785.774C244.362,786.055 244.605,786.286 244.899,786.286ZM247.406,789.047C247.406,788.19 247.936,787.705 248.658,787.705C249.358,787.705 249.783,788.162 249.783,788.932L249.783,792L250.538,792L250.538,788.881C250.538,787.628 249.87,787.027 248.876,787.027C248.134,787.027 247.674,787.359 247.444,787.858L247.38,787.858L247.38,787.091L246.651,787.091L246.651,792L247.406,792L247.406,789.047ZM253.974,792.102C254.971,792.102 255.7,791.604 255.93,790.862L255.201,790.658C255.01,791.169 254.565,791.425 253.974,791.425C253.089,791.425 252.478,790.853 252.443,789.801L256.007,789.801L256.007,789.482C256.007,787.653 254.92,787.027 253.897,787.027C252.568,787.027 251.686,788.075 251.686,789.584C251.686,791.092 252.555,792.102 253.974,792.102ZM252.443,789.149C252.494,788.385 253.035,787.705 253.897,787.705C254.716,787.705 255.24,788.318 255.24,789.149L252.443,789.149ZM260.631,788.19C260.395,787.494 259.864,787.027 258.893,787.027C257.857,787.027 257.09,787.615 257.09,788.446C257.09,789.124 257.493,789.577 258.394,789.788L259.212,789.98C259.708,790.095 259.941,790.332 259.941,790.67C259.941,791.092 259.494,791.438 258.791,791.438C258.174,791.438 257.787,791.172 257.653,790.645L256.937,790.824C257.113,791.658 257.8,792.102 258.803,792.102C259.944,792.102 260.721,791.479 260.721,790.632C260.721,789.948 260.293,789.517 259.417,789.303L258.688,789.124C258.107,788.98 257.845,788.785 257.845,788.408C257.845,787.986 258.292,787.679 258.893,787.679C259.551,787.679 259.823,788.043 259.954,788.382L260.631,788.19ZM265.334,788.19C265.097,787.494 264.567,787.027 263.595,787.027C262.559,787.027 261.792,787.615 261.792,788.446C261.792,789.124 262.195,789.577 263.096,789.788L263.915,789.98C264.41,790.095 264.643,790.332 264.643,790.67C264.643,791.092 264.196,791.438 263.493,791.438C262.876,791.438 262.489,791.172 262.355,790.645L261.639,790.824C261.815,791.658 262.502,792.102 263.506,792.102C264.646,792.102 265.423,791.479 265.423,790.632C265.423,789.948 264.995,789.517 264.119,789.303L263.39,789.124C262.809,788.98 262.547,788.785 262.547,788.408C262.547,787.986 262.994,787.679 263.595,787.679C264.253,787.679 264.525,788.043 264.656,788.382L265.334,788.19ZM269.192,792L269.985,792L269.985,789.609L271.416,789.609C272.941,789.609 273.631,788.683 273.628,787.526C273.631,786.369 272.941,785.455 271.404,785.455L269.192,785.455L269.192,792ZM269.985,788.906L269.985,786.158L271.378,786.158C272.442,786.158 272.851,786.739 272.848,787.526C272.851,788.312 272.442,788.906 271.391,788.906L269.985,788.906ZM276.247,792.115C277.104,792.115 277.551,791.655 277.705,791.335L277.743,791.335L277.743,792L278.497,792L278.497,788.766C278.497,787.206 277.308,787.027 276.682,787.027C275.94,787.027 275.097,787.283 274.713,788.178L275.429,788.433C275.595,788.075 275.988,787.692 276.707,787.692C277.407,787.692 277.743,788.066 277.743,788.702C277.743,789.066 277.372,789.047 276.477,789.162C275.566,789.28 274.573,789.482 274.573,790.607C274.573,791.565 275.314,792.115 276.247,792.115ZM276.362,791.438C275.761,791.438 275.327,791.169 275.327,790.645C275.327,790.07 275.851,789.891 276.439,789.814C276.759,789.776 277.615,789.686 277.743,789.533L277.743,790.223C277.743,790.837 277.257,791.438 276.362,791.438ZM279.874,792L280.628,792L280.628,788.893C280.628,788.232 281.152,787.743 281.868,787.743C282.057,787.743 282.197,787.778 282.303,787.832L282.559,787.193C282.405,787.085 282.204,787.014 281.932,787.014C281.338,787.014 280.83,787.347 280.654,787.832L280.603,787.832L280.603,787.091L279.874,787.091L279.874,792ZM283.328,792L284.082,792L284.082,790.162L284.61,789.673L286.447,792L287.406,792L285.179,789.188L287.253,787.091L286.32,787.091L284.172,789.277L284.082,789.277L284.082,785.455L283.328,785.455L283.328,792ZM289.349,791.105L288.53,791.105L288.492,791.463C288.399,792.329 288.217,793.192 288.134,793.598L288.709,793.598C288.863,793.163 289.189,792.179 289.297,791.45L289.349,791.105ZM293.648,785.455L292.817,785.455L295.22,792L296.039,792L298.442,785.455L297.611,785.455L295.668,790.964L295.591,790.964L293.648,785.455ZM299.359,792L300.114,792L300.114,787.091L299.359,787.091L299.359,792ZM299.743,786.286C300.037,786.286 300.28,786.055 300.28,785.774C300.28,785.493 300.037,785.263 299.743,785.263C299.449,785.263 299.206,785.493 299.206,785.774C299.206,786.055 299.449,786.286 299.743,786.286ZM305.599,792L305.599,785.455L304.844,785.455L304.844,787.871L304.781,787.871C304.614,787.615 304.32,787.027 303.362,787.027C302.121,787.027 301.265,788.011 301.265,789.558C301.265,791.118 302.121,792.102 303.349,792.102C304.295,792.102 304.614,791.514 304.781,791.246L304.87,791.246L304.87,792L305.599,792ZM304.857,789.545C304.857,790.658 304.359,791.425 303.451,791.425C302.505,791.425 302.019,790.594 302.019,789.545C302.019,788.51 302.492,787.705 303.451,787.705C304.371,787.705 304.857,788.446 304.857,789.545ZM307.44,793.905C308.13,793.905 308.603,793.547 308.884,792.793L310.994,787.091L310.175,787.091L308.82,791.003L308.769,791.003L307.414,787.091L306.596,787.091L308.424,792.038L308.245,792.486C307.964,793.214 307.631,793.291 307.082,793.151L306.89,793.815C306.967,793.854 307.184,793.905 307.44,793.905ZM313.434,792.115C314.29,792.115 314.738,791.655 314.891,791.335L314.93,791.335L314.93,792L315.684,792L315.684,788.766C315.684,787.206 314.495,787.027 313.868,787.027C313.127,787.027 312.283,787.283 311.9,788.178L312.616,788.433C312.782,788.075 313.175,787.692 313.894,787.692C314.594,787.692 314.93,788.066 314.93,788.702C314.93,789.066 314.559,789.047 313.664,789.162C312.753,789.28 311.759,789.482 311.759,790.607C311.759,791.565 312.501,792.115 313.434,792.115ZM313.549,791.438C312.948,791.438 312.513,791.169 312.513,790.645C312.513,790.07 313.037,789.891 313.626,789.814C313.945,789.776 314.802,789.686 314.93,789.533L314.93,790.223C314.93,790.837 314.444,791.438 313.549,791.438ZM320.899,787.091L320.081,787.091L318.726,791.003L318.674,791.003L317.319,787.091L316.501,787.091L318.316,792L319.084,792L320.899,787.091ZM322.202,792L322.956,792L322.956,787.091L322.202,787.091L322.202,792ZM322.586,786.286C322.88,786.286 323.123,786.055 323.123,785.774C323.123,785.493 322.88,785.263 322.586,785.263C322.292,785.263 322.049,785.493 322.049,785.774C322.049,786.055 322.292,786.286 322.586,786.286ZM325.092,789.047C325.092,788.19 325.639,787.705 326.383,787.705C327.093,787.705 327.521,788.152 327.521,788.932L327.521,792L328.275,792L328.275,788.881C328.275,787.618 327.604,787.027 326.601,787.027C325.827,787.027 325.386,787.35 325.156,787.858L325.092,787.858L325.092,785.455L324.338,785.455L324.338,792L325.092,792L325.092,789.047ZM331.1,792.115C331.956,792.115 332.404,791.655 332.557,791.335L332.596,791.335L332.596,792L333.35,792L333.35,788.766C333.35,787.206 332.161,787.027 331.534,787.027C330.793,787.027 329.949,787.283 329.566,788.178L330.282,788.433C330.448,788.075 330.841,787.692 331.56,787.692C332.26,787.692 332.596,788.066 332.596,788.702C332.596,789.066 332.225,789.047 331.33,789.162C330.419,789.28 329.425,789.482 329.425,790.607C329.425,791.565 330.167,792.115 331.1,792.115ZM331.215,791.438C330.614,791.438 330.179,791.169 330.179,790.645C330.179,790.07 330.703,789.891 331.292,789.814C331.611,789.776 332.468,789.686 332.596,789.533L332.596,790.223C332.596,790.837 332.11,791.438 331.215,791.438ZM334.726,792L335.481,792L335.481,788.893C335.481,788.232 336.005,787.743 336.721,787.743C336.909,787.743 337.05,787.778 337.155,787.832L337.411,787.193C337.258,787.085 337.056,787.014 336.785,787.014C336.19,787.014 335.682,787.347 335.506,787.832L335.455,787.832L335.455,787.091L334.726,787.091L334.726,792ZM343.524,788.842L340.661,788.842L340.661,789.545L343.524,789.545L343.524,788.842ZM347.651,788.727C347.651,790.338 348.086,791.68 348.866,792.818L349.53,792.818C348.917,791.974 348.431,790.249 348.431,788.727C348.431,787.206 348.917,785.48 349.53,784.636L348.866,784.636C348.086,785.774 347.651,787.116 347.651,788.727ZM351.935,792L352.753,792L354.197,786.784L354.249,786.784L355.693,792L356.511,792L358.301,785.455L357.496,785.455L356.128,790.786L356.064,790.786L354.67,785.455L353.776,785.455L352.382,790.786L352.318,790.786L350.95,785.455L350.145,785.455L351.935,792ZM360.797,788.727C360.797,787.116 360.363,785.774 359.583,784.636L358.918,784.636C359.532,785.48 360.017,787.206 360.017,788.727C360.017,790.249 359.532,791.974 358.918,792.818L359.583,792.818C360.363,791.68 360.797,790.338 360.797,788.727ZM363.572,791.105L362.754,791.105L362.716,791.463C362.623,792.329 362.441,793.192 362.358,793.598L362.933,793.598C363.086,793.163 363.412,792.179 363.521,791.45L363.572,791.105ZM367.603,785.455L367.603,792L368.345,792L368.345,787.027L368.409,787.027L370.454,792L371.17,792L373.215,787.027L373.279,787.027L373.279,792L374.021,792L374.021,785.455L373.075,785.455L370.85,790.888L370.774,790.888L368.549,785.455L367.603,785.455ZM378.601,789.993C378.601,790.913 377.898,791.335 377.336,791.335C376.709,791.335 376.262,790.875 376.262,790.159L376.262,787.091L375.508,787.091L375.508,790.21C375.508,791.463 376.172,792.064 377.093,792.064C377.834,792.064 378.32,791.668 378.55,791.169L378.601,791.169L378.601,792L379.356,792L379.356,787.091L378.601,787.091L378.601,789.993ZM380.737,792L381.491,792L381.491,788.932C381.491,788.213 382.016,787.705 382.604,787.705C383.176,787.705 383.575,788.078 383.575,788.638L383.575,792L384.342,792L384.342,788.804C384.342,788.171 384.739,787.705 385.429,787.705C385.966,787.705 386.426,787.989 386.426,788.714L386.426,792L387.18,792L387.18,788.714C387.18,787.561 386.56,787.027 385.685,787.027C384.982,787.027 384.467,787.35 384.214,787.858L384.163,787.858C383.92,787.334 383.492,787.027 382.847,787.027C382.207,787.027 381.734,787.334 381.53,787.858L381.466,787.858L381.466,787.091L380.737,787.091L380.737,792ZM388.559,792L389.288,792L389.288,791.246L389.378,791.246C389.544,791.514 389.863,792.102 390.809,792.102C392.037,792.102 392.893,791.118 392.893,789.558C392.893,788.011 392.037,787.027 390.797,787.027C389.838,787.027 389.544,787.615 389.378,787.871L389.314,787.871L389.314,785.455L388.559,785.455L388.559,792ZM389.301,789.545C389.301,788.446 389.787,787.705 390.707,787.705C391.666,787.705 392.139,788.51 392.139,789.545C392.139,790.594 391.653,791.425 390.707,791.425C389.8,791.425 389.301,790.658 389.301,789.545ZM395.488,792.115C396.345,792.115 396.792,791.655 396.946,791.335L396.984,791.335L396.984,792L397.738,792L397.738,788.766C397.738,787.206 396.55,787.027 395.923,787.027C395.182,787.027 394.338,787.283 393.954,788.178L394.67,788.433C394.836,788.075 395.23,787.692 395.949,787.692C396.649,787.692 396.984,788.066 396.984,788.702C396.984,789.066 396.613,789.047 395.719,789.162C394.808,789.28 393.814,789.482 393.814,790.607C393.814,791.565 394.555,792.115 395.488,792.115ZM395.604,791.438C395.003,791.438 394.568,791.169 394.568,790.645C394.568,790.07 395.092,789.891 395.68,789.814C396,789.776 396.856,789.686 396.984,789.533L396.984,790.223C396.984,790.837 396.498,791.438 395.604,791.438ZM399.115,792L399.869,792L399.869,787.091L399.115,787.091L399.115,792ZM399.499,786.286C399.793,786.286 400.036,786.055 400.036,785.774C400.036,785.493 399.793,785.263 399.499,785.263C399.205,785.263 398.962,785.493 398.962,785.774C398.962,786.055 399.205,786.286 399.499,786.286ZM406.595,788.842L403.731,788.842L403.731,789.545L406.595,789.545L406.595,788.842ZM410.287,790.658L413.368,790.658L413.368,792L414.122,792L414.122,790.658L415.017,790.658L415.017,789.955L414.122,789.955L414.122,785.455L413.163,785.455L410.287,790.006L410.287,790.658ZM413.368,789.955L411.143,789.955L411.143,789.903L413.317,786.464L413.368,786.464L413.368,789.955ZM418.375,792.089C419.756,792.089 420.625,790.798 420.625,788.727C420.625,786.669 419.756,785.365 418.375,785.365C416.994,785.365 416.125,786.669 416.125,788.727C416.125,790.798 416.994,792.089 418.375,792.089ZM418.375,791.386C417.487,791.386 416.905,790.364 416.905,788.727C416.905,787.091 417.48,786.055 418.375,786.055C419.27,786.055 419.845,787.091 419.845,788.727C419.845,790.364 419.264,791.386 418.375,791.386ZM424.053,792.089C425.434,792.089 426.303,790.798 426.303,788.727C426.303,786.669 425.434,785.365 424.053,785.365C422.672,785.365 421.803,786.669 421.803,788.727C421.803,790.798 422.672,792.089 424.053,792.089ZM424.053,791.386C423.164,791.386 422.583,790.364 422.583,788.727C422.583,787.091 423.158,786.055 424.053,786.055C424.948,786.055 425.523,787.091 425.523,788.727C425.523,790.364 424.941,791.386 424.053,791.386ZM432.262,792.089C433.643,792.089 434.512,790.798 434.512,788.727C434.512,786.669 433.643,785.365 432.262,785.365C430.881,785.365 430.012,786.669 430.012,788.727C430.012,790.798 430.881,792.089 432.262,792.089ZM432.262,791.386C431.373,791.386 430.792,790.364 430.792,788.727C430.792,787.091 431.367,786.055 432.262,786.055C433.157,786.055 433.732,787.091 433.732,788.727C433.732,790.364 433.15,791.386 432.262,791.386ZM437.876,792.089C439.183,792.089 440.094,791.326 440.1,790.261C440.094,789.434 439.541,788.73 438.835,788.599L438.835,788.561C439.448,788.401 439.851,787.8 439.857,787.104C439.851,786.107 439.013,785.365 437.876,785.365C436.725,785.365 435.888,786.107 435.894,787.104C435.888,787.8 436.29,788.401 436.917,788.561L436.917,788.599C436.198,788.73 435.645,789.434 435.651,790.261C435.645,791.326 436.556,792.089 437.876,792.089ZM437.876,791.386C436.978,791.386 436.425,790.926 436.431,790.223C436.425,789.485 437.035,788.957 437.876,788.957C438.703,788.957 439.314,789.485 439.32,790.223C439.314,790.926 438.761,791.386 437.876,791.386ZM437.876,788.28C437.16,788.28 436.655,787.832 436.661,787.155C436.655,786.49 437.141,786.055 437.876,786.055C438.598,786.055 439.084,786.49 439.09,787.155C439.084,787.832 438.579,788.28 437.876,788.28ZM443.498,792.089C444.821,792.105 445.684,791.108 445.684,789.891C445.684,788.625 444.748,787.717 443.626,787.717C442.952,787.717 442.373,788.047 442.015,788.587L441.964,788.587C441.967,786.979 442.587,786.055 443.601,786.055C444.291,786.055 444.706,786.49 444.853,787.091L445.633,787.091C445.473,786.062 444.7,785.352 443.601,785.352C442.127,785.352 441.223,786.656 441.223,788.983C441.223,791.402 442.424,792.077 443.498,792.089ZM443.498,791.386C442.677,791.386 442.076,790.686 442.079,789.903C442.082,789.12 442.712,788.42 443.524,788.42C444.326,788.42 444.917,789.079 444.917,789.891C444.917,790.722 444.301,791.386 443.498,791.386ZM201.183,802.091L200.084,802.091L200.084,801.592C200.084,801.107 200.288,800.851 200.787,800.851C201.004,800.851 201.132,800.902 201.209,800.928L201.426,800.276C201.311,800.224 201.081,800.148 200.71,800.148C200.007,800.148 199.329,800.57 199.329,801.413L199.329,802.091L198.537,802.091L198.537,802.73L199.329,802.73L199.329,807L200.084,807L200.084,802.73L201.183,802.73L201.183,802.091ZM202.24,807L202.994,807L202.994,803.893C202.994,803.232 203.519,802.743 204.234,802.743C204.423,802.743 204.564,802.778 204.669,802.832L204.925,802.193C204.771,802.085 204.57,802.014 204.298,802.014C203.704,802.014 203.196,802.347 203.02,802.832L202.969,802.832L202.969,802.091L202.24,802.091L202.24,807ZM207.139,807.115C207.995,807.115 208.443,806.655 208.596,806.335L208.635,806.335L208.635,807L209.389,807L209.389,803.766C209.389,802.206 208.2,802.027 207.574,802.027C206.832,802.027 205.988,802.283 205.605,803.178L206.321,803.433C206.487,803.075 206.88,802.692 207.599,802.692C208.299,802.692 208.635,803.066 208.635,803.702C208.635,804.066 208.264,804.047 207.369,804.162C206.458,804.28 205.464,804.482 205.464,805.607C205.464,806.565 206.206,807.115 207.139,807.115ZM207.254,806.438C206.653,806.438 206.218,806.169 206.218,805.645C206.218,805.07 206.743,804.891 207.331,804.814C207.65,804.776 208.507,804.686 208.635,804.533L208.635,805.223C208.635,805.837 208.149,806.438 207.254,806.438ZM213.016,807.102C214.243,807.102 215.099,806.118 215.099,804.558C215.099,803.011 214.243,802.027 213.003,802.027C212.044,802.027 211.75,802.615 211.584,802.871L211.494,802.871L211.494,802.091L210.766,802.091L210.766,808.841L211.52,808.841L211.52,806.246L211.584,806.246C211.75,806.514 212.07,807.102 213.016,807.102ZM212.913,806.425C212.006,806.425 211.507,805.658 211.507,804.545C211.507,803.446 211.993,802.705 212.913,802.705C213.872,802.705 214.345,803.51 214.345,804.545C214.345,805.594 213.859,806.425 212.913,806.425ZM218.5,807.102C219.727,807.102 220.584,806.118 220.584,804.558C220.584,803.011 219.727,802.027 218.487,802.027C217.528,802.027 217.234,802.615 217.068,802.871L216.979,802.871L216.979,802.091L216.25,802.091L216.25,808.841L217.004,808.841L217.004,806.246L217.068,806.246C217.234,806.514 217.554,807.102 218.5,807.102ZM218.398,806.425C217.49,806.425 216.991,805.658 216.991,804.545C216.991,803.446 217.477,802.705 218.398,802.705C219.356,802.705 219.829,803.51 219.829,804.545C219.829,805.594 219.344,806.425 218.398,806.425ZM223.793,807.102C224.79,807.102 225.518,806.604 225.748,805.862L225.02,805.658C224.828,806.169 224.384,806.425 223.793,806.425C222.907,806.425 222.297,805.853 222.262,804.801L225.825,804.801L225.825,804.482C225.825,802.653 224.739,802.027 223.716,802.027C222.386,802.027 221.504,803.075 221.504,804.584C221.504,806.092 222.373,807.102 223.793,807.102ZM222.262,804.149C222.313,803.385 222.853,802.705 223.716,802.705C224.534,802.705 225.058,803.318 225.058,804.149L222.262,804.149ZM227.522,807.051C227.842,807.051 228.098,806.795 228.098,806.476C228.098,806.169 227.842,805.913 227.522,805.913C227.215,805.913 226.947,806.156 226.947,806.476C226.947,806.795 227.203,807.051 227.522,807.051ZM229.451,807L230.205,807L230.205,802.091L229.451,802.091L229.451,807ZM229.835,801.286C230.129,801.286 230.372,801.055 230.372,800.774C230.372,800.493 230.129,800.263 229.835,800.263C229.541,800.263 229.298,800.493 229.298,800.774C229.298,801.055 229.541,801.286 229.835,801.286ZM233.581,807.102C234.911,807.102 235.806,806.092 235.806,804.571C235.806,803.037 234.911,802.027 233.581,802.027C232.252,802.027 231.357,803.037 231.357,804.571C231.357,806.092 232.252,807.102 233.581,807.102ZM233.581,806.425C232.571,806.425 232.111,805.555 232.111,804.571C232.111,803.587 232.571,802.705 233.581,802.705C234.591,802.705 235.051,803.587 235.051,804.571C235.051,805.555 234.591,806.425 233.581,806.425ZM240.588,798.345L239.948,798.345L239.948,809.109L240.588,809.109L240.588,798.345ZM245.718,804.047C245.718,803.19 246.265,802.705 247.009,802.705C247.719,802.705 248.147,803.152 248.147,803.932L248.147,807L248.901,807L248.901,803.881C248.901,802.618 248.23,802.027 247.227,802.027C246.453,802.027 246.012,802.35 245.782,802.858L245.718,802.858L245.718,800.455L244.964,800.455L244.964,807L245.718,807L245.718,804.047ZM252.339,807.102C253.337,807.102 254.065,806.604 254.295,805.862L253.567,805.658C253.375,806.169 252.931,806.425 252.339,806.425C251.454,806.425 250.844,805.853 250.809,804.801L254.372,804.801L254.372,804.482C254.372,802.653 253.285,802.027 252.263,802.027C250.933,802.027 250.051,803.075 250.051,804.584C250.051,806.092 250.92,807.102 252.339,807.102ZM250.809,804.149C250.86,803.385 251.4,802.705 252.263,802.705C253.081,802.705 253.605,803.318 253.605,804.149L250.809,804.149ZM256.274,800.455L255.519,800.455L255.519,807L256.274,807L256.274,800.455ZM258.409,800.455L257.655,800.455L257.655,807L258.409,807L258.409,800.455ZM261.785,807.102C263.115,807.102 264.01,806.092 264.01,804.571C264.01,803.037 263.115,802.027 261.785,802.027C260.456,802.027 259.561,803.037 259.561,804.571C259.561,806.092 260.456,807.102 261.785,807.102ZM261.785,806.425C260.775,806.425 260.315,805.555 260.315,804.571C260.315,803.587 260.775,802.705 261.785,802.705C262.795,802.705 263.255,803.587 263.255,804.571C263.255,805.555 262.795,806.425 261.785,806.425ZM268.843,800.697C266.376,800.697 264.905,802.193 264.905,804.686C264.905,807.268 266.324,808.726 268.932,808.726C269.584,808.726 270.415,808.534 270.812,808.368L270.633,807.78C270.403,807.857 269.661,808.112 268.958,808.112C266.772,808.112 265.608,806.885 265.608,804.712C265.608,802.577 266.797,801.298 268.805,801.298C270.837,801.298 271.796,802.73 271.796,804.162C271.796,805.619 271.643,806.271 270.991,806.271C270.607,806.271 270.403,805.952 270.403,805.594L270.403,802.705L269.725,802.705L269.725,803.062L269.687,803.062C269.597,802.781 269.099,802.538 268.459,802.602C267.501,802.705 266.772,803.497 266.772,804.648C266.772,805.862 267.347,806.795 268.459,806.834C269.188,806.859 269.572,806.501 269.725,806.131L269.763,806.131C269.84,806.68 270.53,806.872 270.978,806.872C272.333,806.872 272.461,805.415 272.461,804.175C272.461,802.423 271.233,800.697 268.843,800.697ZM268.587,803.229C269.354,803.229 269.763,803.536 269.763,804.609C269.763,805.67 269.418,806.182 268.562,806.182C267.731,806.182 267.437,805.428 267.437,804.609C267.437,803.868 267.858,803.229 268.587,803.229ZM275.776,802.091L274.676,802.091L274.676,801.592C274.676,801.107 274.881,800.851 275.38,800.851C275.597,800.851 275.725,800.902 275.801,800.928L276.019,800.276C275.904,800.224 275.674,800.148 275.303,800.148C274.6,800.148 273.922,800.57 273.922,801.413L273.922,802.091L273.13,802.091L273.13,802.73L273.922,802.73L273.922,807L274.676,807L274.676,802.73L275.776,802.73L275.776,802.091ZM276.833,807L277.587,807L277.587,803.893C277.587,803.232 278.111,802.743 278.827,802.743C279.016,802.743 279.156,802.778 279.262,802.832L279.518,802.193C279.364,802.085 279.163,802.014 278.891,802.014C278.297,802.014 277.789,802.347 277.613,802.832L277.562,802.832L277.562,802.091L276.833,802.091L276.833,807ZM281.732,807.115C282.588,807.115 283.036,806.655 283.189,806.335L283.227,806.335L283.227,807L283.982,807L283.982,803.766C283.982,802.206 282.793,802.027 282.166,802.027C281.425,802.027 280.581,802.283 280.198,803.178L280.913,803.433C281.08,803.075 281.473,802.692 282.192,802.692C282.892,802.692 283.227,803.066 283.227,803.702C283.227,804.066 282.857,804.047 281.962,804.162C281.051,804.28 280.057,804.482 280.057,805.607C280.057,806.565 280.798,807.115 281.732,807.115ZM281.847,806.438C281.246,806.438 280.811,806.169 280.811,805.645C280.811,805.07 281.335,804.891 281.923,804.814C282.243,804.776 283.1,804.686 283.227,804.533L283.227,805.223C283.227,805.837 282.742,806.438 281.847,806.438ZM287.608,807.102C288.836,807.102 289.692,806.118 289.692,804.558C289.692,803.011 288.836,802.027 287.596,802.027C286.637,802.027 286.343,802.615 286.176,802.871L286.087,802.871L286.087,802.091L285.358,802.091L285.358,808.841L286.113,808.841L286.113,806.246L286.176,806.246C286.343,806.514 286.662,807.102 287.608,807.102ZM287.506,806.425C286.598,806.425 286.1,805.658 286.1,804.545C286.1,803.446 286.586,802.705 287.506,802.705C288.465,802.705 288.938,803.51 288.938,804.545C288.938,805.594 288.452,806.425 287.506,806.425ZM293.093,807.102C294.32,807.102 295.176,806.118 295.176,804.558C295.176,803.011 294.32,802.027 293.08,802.027C292.121,802.027 291.827,802.615 291.661,802.871L291.571,802.871L291.571,802.091L290.843,802.091L290.843,808.841L291.597,808.841L291.597,806.246L291.661,806.246C291.827,806.514 292.147,807.102 293.093,807.102ZM292.99,806.425C292.083,806.425 291.584,805.658 291.584,804.545C291.584,803.446 292.07,802.705 292.99,802.705C293.949,802.705 294.422,803.51 294.422,804.545C294.422,805.594 293.936,806.425 292.99,806.425ZM298.385,807.102C299.382,807.102 300.111,806.604 300.341,805.862L299.613,805.658C299.421,806.169 298.977,806.425 298.385,806.425C297.5,806.425 296.89,805.853 296.854,804.801L300.418,804.801L300.418,804.482C300.418,802.653 299.331,802.027 298.309,802.027C296.979,802.027 296.097,803.075 296.097,804.584C296.097,806.092 296.966,807.102 298.385,807.102ZM296.854,804.149C296.906,803.385 297.446,802.705 298.309,802.705C299.127,802.705 299.651,803.318 299.651,804.149L296.854,804.149ZM302.115,807.051C302.435,807.051 302.69,806.795 302.69,806.476C302.69,806.169 302.435,805.913 302.115,805.913C301.808,805.913 301.54,806.156 301.54,806.476C301.54,806.795 301.795,807.051 302.115,807.051ZM304.044,807L304.798,807L304.798,802.091L304.044,802.091L304.044,807ZM304.427,801.286C304.721,801.286 304.964,801.055 304.964,800.774C304.964,800.493 304.721,800.263 304.427,800.263C304.133,800.263 303.89,800.493 303.89,800.774C303.89,801.055 304.133,801.286 304.427,801.286ZM308.174,807.102C309.503,807.102 310.398,806.092 310.398,804.571C310.398,803.037 309.503,802.027 308.174,802.027C306.844,802.027 305.949,803.037 305.949,804.571C305.949,806.092 306.844,807.102 308.174,807.102ZM308.174,806.425C307.164,806.425 306.704,805.555 306.704,804.571C306.704,803.587 307.164,802.705 308.174,802.705C309.184,802.705 309.644,803.587 309.644,804.571C309.644,805.555 309.184,806.425 308.174,806.425ZM315.18,798.345L314.541,798.345L314.541,809.109L315.18,809.109L315.18,798.345ZM323.801,803.369L322.113,803.369L322.113,801.682L321.397,801.682L321.397,803.369L319.71,803.369L319.71,804.085L321.397,804.085L321.397,805.773L322.113,805.773L322.113,804.085L323.801,804.085L323.801,803.369ZM327.402,800.352C326.072,800.339 325.216,801.337 325.216,802.551C325.216,803.817 326.149,804.724 327.274,804.724C327.952,804.724 328.527,804.392 328.885,803.855L328.936,803.855C328.936,805.466 328.31,806.386 327.3,806.386C326.609,806.386 326.188,805.952 326.047,805.351L325.267,805.351C325.42,806.386 326.2,807.089 327.3,807.089C328.77,807.089 329.678,805.786 329.678,803.459C329.678,801.043 328.476,800.365 327.402,800.352ZM327.402,801.055C328.22,801.055 328.821,801.759 328.821,802.538C328.821,803.318 328.182,804.021 327.376,804.021C326.571,804.021 325.983,803.369 325.983,802.551C325.983,801.72 326.597,801.055 327.402,801.055ZM332.993,800.455L332.328,800.455C332.286,800.522 331.816,801.426 330.807,801.426L330.807,802.091C331.558,802.091 332.095,801.784 332.187,801.605L332.238,801.605L332.238,807L332.993,807L332.993,800.455ZM337.403,807L341.532,807L341.532,806.297L338.49,806.297L338.49,806.246L339.96,804.673C341.085,803.468 341.417,802.906 341.417,802.18C341.417,801.17 340.599,800.365 339.449,800.365C338.301,800.365 337.429,801.145 337.429,802.295L338.183,802.295C338.183,801.551 338.666,801.055 339.423,801.055C340.133,801.055 340.676,801.49 340.676,802.18C340.676,802.784 340.321,803.232 339.564,804.06L337.403,806.425L337.403,807ZM342.852,807L346.982,807L346.982,806.297L343.939,806.297L343.939,806.246L345.409,804.673C346.534,803.468 346.867,802.906 346.867,802.18C346.867,801.17 346.048,800.365 344.898,800.365C343.75,800.365 342.878,801.145 342.878,802.295L343.632,802.295C343.632,801.551 344.115,801.055 344.872,801.055C345.582,801.055 346.125,801.49 346.125,802.18C346.125,802.784 345.77,803.232 345.013,804.06L342.852,806.425L342.852,807ZM350.679,805.658L353.76,805.658L353.76,807L354.515,807L354.515,805.658L355.41,805.658L355.41,804.955L354.515,804.955L354.515,800.455L353.556,800.455L350.679,805.006L350.679,805.658ZM353.76,804.955L351.536,804.955L351.536,804.903L353.709,801.464L353.76,801.464L353.76,804.955ZM358.704,807.089C360.011,807.089 360.922,806.326 360.928,805.261C360.922,804.434 360.369,803.73 359.663,803.599L359.663,803.561C360.276,803.401 360.679,802.8 360.685,802.104C360.679,801.107 359.842,800.365 358.704,800.365C357.553,800.365 356.716,801.107 356.722,802.104C356.716,802.8 357.119,803.401 357.745,803.561L357.745,803.599C357.026,803.73 356.473,804.434 356.479,805.261C356.473,806.326 357.384,807.089 358.704,807.089ZM358.704,806.386C357.806,806.386 357.253,805.926 357.259,805.223C357.253,804.485 357.863,803.957 358.704,803.957C359.532,803.957 360.142,804.485 360.148,805.223C360.142,805.926 359.589,806.386 358.704,806.386ZM358.704,803.28C357.988,803.28 357.483,802.832 357.489,802.155C357.483,801.49 357.969,801.055 358.704,801.055C359.426,801.055 359.912,801.49 359.918,802.155C359.912,802.832 359.407,803.28 358.704,803.28ZM364.237,800.352C362.907,800.339 362.051,801.337 362.051,802.551C362.051,803.817 362.984,804.724 364.109,804.724C364.787,804.724 365.362,804.392 365.72,803.855L365.771,803.855C365.771,805.466 365.145,806.386 364.135,806.386C363.444,806.386 363.022,805.952 362.882,805.351L362.102,805.351C362.255,806.386 363.035,807.089 364.135,807.089C365.605,807.089 366.513,805.786 366.513,803.459C366.513,801.043 365.311,800.365 364.237,800.352ZM364.237,801.055C365.055,801.055 365.656,801.759 365.656,802.538C365.656,803.318 365.017,804.021 364.211,804.021C363.406,804.021 362.818,803.369 362.818,802.551C362.818,801.72 363.432,801.055 364.237,801.055ZM367.798,807L368.629,807L371.544,801.196L371.544,800.455L367.351,800.455L367.351,801.158L370.726,801.158L370.726,801.209L367.798,807ZM377.427,807.089C378.808,807.089 379.677,805.798 379.677,803.727C379.677,801.669 378.808,800.365 377.427,800.365C376.046,800.365 375.177,801.669 375.177,803.727C375.177,805.798 376.046,807.089 377.427,807.089ZM377.427,806.386C376.538,806.386 375.957,805.364 375.957,803.727C375.957,802.091 376.532,801.055 377.427,801.055C378.322,801.055 378.897,802.091 378.897,803.727C378.897,805.364 378.315,806.386 377.427,806.386ZM382.99,807.089C384.236,807.089 385.15,806.169 385.15,804.916C385.15,803.647 384.268,802.717 383.066,802.717C382.625,802.717 382.197,802.874 381.929,803.088L381.89,803.088L382.12,801.158L384.856,801.158L384.856,800.455L381.456,800.455L381.059,803.676L381.801,803.766C382.072,803.571 382.536,803.43 382.938,803.433C383.773,803.44 384.383,804.072 384.383,804.929C384.383,805.77 383.795,806.386 382.99,806.386C382.318,806.386 381.785,805.955 381.724,805.364L380.957,805.364C381.005,806.361 381.865,807.089 382.99,807.089ZM388.465,807.089C389.712,807.089 390.626,806.169 390.626,804.916C390.626,803.647 389.744,802.717 388.542,802.717C388.101,802.717 387.673,802.874 387.404,803.088L387.366,803.088L387.596,801.158L390.332,801.158L390.332,800.455L386.931,800.455L386.535,803.676L387.276,803.766C387.548,803.571 388.011,803.43 388.414,803.433C389.248,803.44 389.859,804.072 389.859,804.929C389.859,805.77 389.271,806.386 388.465,806.386C387.794,806.386 387.26,805.955 387.2,805.364L386.433,805.364C386.48,806.361 387.34,807.089 388.465,807.089ZM393.941,807.089C395.187,807.089 396.101,806.169 396.101,804.916C396.101,803.647 395.219,802.717 394.017,802.717C393.576,802.717 393.148,802.874 392.88,803.088L392.841,803.088L393.071,801.158L395.807,801.158L395.807,800.455L392.407,800.455L392.01,803.676L392.752,803.766C393.024,803.571 393.487,803.43 393.89,803.433C394.724,803.44 395.334,804.072 395.334,804.929C395.334,805.77 394.746,806.386 393.941,806.386C393.27,806.386 392.736,805.955 392.675,805.364L391.908,805.364C391.956,806.361 392.816,807.089 393.941,807.089ZM232.764,817.5C232.521,816.158 231.447,815.365 230.13,815.365C228.456,815.365 227.241,816.656 227.241,818.727C227.241,820.798 228.456,822.089 230.13,822.089C231.447,822.089 232.521,821.297 232.764,819.955L231.971,819.955C231.779,820.862 231,821.348 230.13,821.348C228.941,821.348 228.008,820.428 228.008,818.727C228.008,817.027 228.941,816.107 230.13,816.107C231,816.107 231.779,816.592 231.971,817.5L232.764,817.5ZM234.837,815.455L234.045,815.455L234.045,822L234.837,822L234.837,815.455ZM241.617,815.455L240.837,815.455L240.837,820.607L240.773,820.607L237.193,815.455L236.426,815.455L236.426,822L237.219,822L237.219,816.861L237.283,816.861L240.85,822L241.617,822L241.617,815.455ZM243.65,821.016C243.97,821.016 244.225,820.76 244.225,820.44C244.225,820.134 243.97,819.878 243.65,819.878C243.343,819.878 243.075,820.121 243.075,820.44C243.075,820.76 243.331,821.016 243.65,821.016ZM243.65,817.705C243.97,817.705 244.225,817.449 244.225,817.129C244.225,816.822 243.97,816.567 243.65,816.567C243.343,816.567 243.075,816.81 243.075,817.129C243.075,817.449 243.331,817.705 243.65,817.705ZM252.508,815.455L252.508,819.788C252.508,820.811 251.69,821.374 250.757,821.374C249.823,821.374 249.005,820.811 249.005,819.788L249.005,815.455L248.213,815.455L248.213,819.788C248.213,821.259 249.376,822.115 250.757,822.115C252.137,822.115 253.301,821.259 253.301,819.788L253.301,815.455L252.508,815.455ZM254.973,822L255.804,822L258.719,816.196L258.719,815.455L254.525,815.455L254.525,816.158L257.9,816.158L257.9,816.209L254.973,822ZM259.91,822L264.039,822L264.039,821.297L260.997,821.297L260.997,821.246L262.467,819.673C263.592,818.468 263.924,817.906 263.924,817.18C263.924,816.17 263.106,815.365 261.955,815.365C260.808,815.365 259.936,816.145 259.936,817.295L260.69,817.295C260.69,816.551 261.172,816.055 261.93,816.055C262.639,816.055 263.183,816.49 263.183,817.18C263.183,817.784 262.828,818.232 262.07,819.06L259.91,821.425L259.91,822ZM267.571,822.089C268.84,822.089 269.782,821.294 269.782,820.223C269.782,819.392 269.29,818.788 268.466,818.651L268.466,818.599C269.127,818.398 269.54,817.855 269.54,817.116C269.54,816.19 268.808,815.365 267.596,815.365C266.465,815.365 265.525,816.062 265.487,817.091L266.254,817.091C266.283,816.439 266.903,816.055 267.584,816.055C268.306,816.055 268.773,816.493 268.773,817.155C268.773,817.845 268.232,818.293 267.456,818.293L266.932,818.293L266.932,818.996L267.456,818.996C268.45,818.996 269.003,819.501 269.003,820.223C269.003,820.917 268.399,821.386 267.558,821.386C266.801,821.386 266.2,820.996 266.152,820.364L265.346,820.364C265.394,821.393 266.302,822.089 267.571,822.089ZM273.25,822.089C274.631,822.089 275.5,820.798 275.5,818.727C275.5,816.669 274.631,815.365 273.25,815.365C271.869,815.365 271,816.669 271,818.727C271,820.798 271.869,822.089 273.25,822.089ZM273.25,821.386C272.362,821.386 271.78,820.364 271.78,818.727C271.78,817.091 272.355,816.055 273.25,816.055C274.145,816.055 274.72,817.091 274.72,818.727C274.72,820.364 274.139,821.386 273.25,821.386ZM278.928,822.089C280.309,822.089 281.178,820.798 281.178,818.727C281.178,816.669 280.309,815.365 278.928,815.365C277.547,815.365 276.678,816.669 276.678,818.727C276.678,820.798 277.547,822.089 278.928,822.089ZM278.928,821.386C278.039,821.386 277.458,820.364 277.458,818.727C277.458,817.091 278.033,816.055 278.928,816.055C279.823,816.055 280.398,817.091 280.398,818.727C280.398,820.364 279.816,821.386 278.928,821.386ZM282.56,815.455L282.56,822L283.302,822L283.302,817.027L283.366,817.027L285.411,822L286.127,822L288.172,817.027L288.236,817.027L288.236,822L288.978,822L288.978,815.455L288.032,815.455L285.807,820.888L285.731,820.888L283.506,815.455L282.56,815.455ZM290.567,822L291.36,822L291.36,819.072L294.85,819.072L294.85,822L295.642,822L295.642,815.455L294.85,815.455L294.85,818.369L291.36,818.369L291.36,815.455L290.567,815.455L290.567,822ZM297.114,822L301.243,822L301.243,821.297L298.201,821.297L298.201,821.246L299.671,819.673C300.796,818.468 301.128,817.906 301.128,817.18C301.128,816.17 300.31,815.365 299.16,815.365C298.012,815.365 297.14,816.145 297.14,817.295L297.894,817.295C297.894,816.551 298.377,816.055 299.134,816.055C299.843,816.055 300.387,816.49 300.387,817.18C300.387,817.784 300.032,818.232 299.275,819.06L297.114,821.425L297.114,822ZM304.724,822.089C306.104,822.089 306.974,820.798 306.974,818.727C306.974,816.669 306.104,815.365 304.724,815.365C303.343,815.365 302.474,816.669 302.474,818.727C302.474,820.798 303.343,822.089 304.724,822.089ZM304.724,821.386C303.835,821.386 303.254,820.364 303.254,818.727C303.254,817.091 303.829,816.055 304.724,816.055C305.619,816.055 306.194,817.091 306.194,818.727C306.194,820.364 305.612,821.386 304.724,821.386ZM310.402,822.089C311.782,822.089 312.652,820.798 312.652,818.727C312.652,816.669 311.782,815.365 310.402,815.365C309.021,815.365 308.152,816.669 308.152,818.727C308.152,820.798 309.021,822.089 310.402,822.089ZM310.402,821.386C309.513,821.386 308.931,820.364 308.931,818.727C308.931,817.091 309.507,816.055 310.402,816.055C311.296,816.055 311.872,817.091 311.872,818.727C311.872,820.364 311.29,821.386 310.402,821.386ZM316.015,822.089C317.323,822.089 318.233,821.326 318.24,820.261C318.233,819.434 317.68,818.73 316.974,818.599L316.974,818.561C317.588,818.401 317.991,817.8 317.997,817.104C317.991,816.107 317.153,815.365 316.015,815.365C314.865,815.365 314.027,816.107 314.034,817.104C314.027,817.8 314.43,818.401 315.057,818.561L315.057,818.599C314.337,818.73 313.785,819.434 313.791,820.261C313.785,821.326 314.695,822.089 316.015,822.089ZM316.015,821.386C315.117,821.386 314.564,820.926 314.571,820.223C314.564,819.485 315.175,818.957 316.015,818.957C316.843,818.957 317.454,819.485 317.46,820.223C317.454,820.926 316.901,821.386 316.015,821.386ZM316.015,818.28C315.299,818.28 314.794,817.832 314.801,817.155C314.794,816.49 315.28,816.055 316.015,816.055C316.738,816.055 317.223,816.49 317.23,817.155C317.223,817.832 316.718,818.28 316.015,818.28ZM319.58,822L320.372,822L320.372,819.609L321.804,819.609C323.329,819.609 324.019,818.683 324.016,817.526C324.019,816.369 323.329,815.455 321.791,815.455L319.58,815.455L319.58,822ZM320.372,818.906L320.372,816.158L321.766,816.158C322.83,816.158 323.239,816.739 323.236,817.526C323.239,818.312 322.83,818.906 321.779,818.906L320.372,818.906ZM324.935,816.158L326.993,816.158L326.993,822L327.786,822L327.786,816.158L329.844,816.158L329.844,815.455L324.935,815.455L324.935,816.158ZM336.062,817.5C335.819,816.158 334.745,815.365 333.428,815.365C331.753,815.365 330.539,816.656 330.539,818.727C330.539,820.798 331.753,822.089 333.428,822.089C334.745,822.089 335.819,821.297 336.062,819.955L335.269,819.955C335.077,820.862 334.297,821.348 333.428,821.348C332.239,821.348 331.306,820.428 331.306,818.727C331.306,817.027 332.239,816.107 333.428,816.107C334.297,816.107 335.077,816.592 335.269,817.5L336.062,817.5ZM339.286,815.455L338.621,815.455C338.579,815.522 338.109,816.426 337.1,816.426L337.1,817.091C337.851,817.091 338.388,816.784 338.48,816.605L338.531,816.605L338.531,822L339.286,822L339.286,815.455ZM343.261,822.089C344.569,822.089 345.479,821.326 345.486,820.261C345.479,819.434 344.927,818.73 344.22,818.599L344.22,818.561C344.834,818.401 345.237,817.8 345.243,817.104C345.237,816.107 344.399,815.365 343.261,815.365C342.111,815.365 341.274,816.107 341.28,817.104C341.274,817.8 341.676,818.401 342.303,818.561L342.303,818.599C341.584,818.73 341.031,819.434 341.037,820.261C341.031,821.326 341.941,822.089 343.261,822.089ZM343.261,821.386C342.363,821.386 341.81,820.926 341.817,820.223C341.81,819.485 342.421,818.957 343.261,818.957C344.089,818.957 344.7,819.485 344.706,820.223C344.7,820.926 344.147,821.386 343.261,821.386ZM343.261,818.28C342.546,818.28 342.041,817.832 342.047,817.155C342.041,816.49 342.526,816.055 343.261,816.055C343.984,816.055 344.47,816.49 344.476,817.155C344.47,817.832 343.965,818.28 343.261,818.28ZM346.557,820.658L349.638,820.658L349.638,822L350.393,822L350.393,820.658L351.287,820.658L351.287,819.955L350.393,819.955L350.393,815.455L349.434,815.455L346.557,820.006L346.557,820.658ZM349.638,819.955L347.414,819.955L347.414,819.903L349.587,816.464L349.638,816.464L349.638,819.955ZM354.569,815.352C353.239,815.339 352.383,816.337 352.383,817.551C352.383,818.817 353.316,819.724 354.441,819.724C355.119,819.724 355.694,819.392 356.052,818.855L356.103,818.855C356.103,820.466 355.477,821.386 354.467,821.386C353.776,821.386 353.354,820.952 353.214,820.351L352.434,820.351C352.587,821.386 353.367,822.089 354.467,822.089C355.937,822.089 356.845,820.786 356.845,818.459C356.845,816.043 355.643,815.365 354.569,815.352ZM354.569,816.055C355.387,816.055 355.988,816.759 355.988,817.538C355.988,818.318 355.349,819.021 354.543,819.021C353.738,819.021 353.15,818.369 353.15,817.551C353.15,816.72 353.764,816.055 354.569,816.055ZM360.313,822.089C361.582,822.089 362.525,821.294 362.525,820.223C362.525,819.392 362.032,818.788 361.208,818.651L361.208,818.599C361.869,818.398 362.282,817.855 362.282,817.116C362.282,816.19 361.55,815.365 360.339,815.365C359.207,815.365 358.268,816.062 358.229,817.091L358.996,817.091C359.025,816.439 359.645,816.055 360.326,816.055C361.048,816.055 361.515,816.493 361.515,817.155C361.515,817.845 360.975,818.293 360.198,818.293L359.674,818.293L359.674,818.996L360.198,818.996C361.192,818.996 361.745,819.501 361.745,820.223C361.745,820.917 361.141,821.386 360.3,821.386C359.543,821.386 358.942,820.996 358.894,820.364L358.089,820.364C358.137,821.393 359.044,822.089 360.313,822.089ZM364.036,822L364.867,822L367.782,816.196L367.782,815.455L363.589,815.455L363.589,816.158L366.964,816.158L366.964,816.209L364.036,822Z" style="fill-rule:nonzero;"/>
        </g>
    </g>
    <g transform="matrix(0.916694,0,0,0.916694,209.78,209.78)">
        <g transform="matrix(1,0,0,1,-100,-100)">
            <g id="Rectangle">
                <path d="M20,0L180,0C191.046,0 200,8.954 200,20L200,30C200,41.046 191.046,50 180,50L20,50C8.954,50 0,41.046 0,30L0,20C0,8.954 8.954,0 20,0Z" style="fill:rgb(94,100,255);"/>
                <path d="M20,75L113,75C124.046,75 133,83.954 133,95L133,105C133,116.046 124.046,125 113,125L20,125C8.954,125 0,116.046 0,105L0,95C0,83.954 8.954,75 20,75Z" style="fill:rgb(94,100,255);"/>
                <path d="M20,150L47,150C58.046,150 67,158.954 67,170L67,180C67,191.046 58.046,200 47,200L20,200C8.954,200 0,191.046 0,180L0,170C0,158.954 8.954,150 20,150Z" style="fill:rgb(94,100,255);"/>
            </g>
        </g>
    </g>
</svg>
