<?xml version="1.0" encoding="utf-8"?>
<!-- Generator: Adobe Illustrator 15.1.0, SVG Export Plug-In . SVG Version: 6.00 Build 0)  -->
<!DOCTYPE svg PUBLIC "-//W3C//DTD SVG 1.1//EN" "http://www.w3.org/Graphics/SVG/1.1/DTD/svg11.dtd">
<svg version="1.1" id="Layer_1" xmlns="http://www.w3.org/2000/svg" xmlns:xlink="http://www.w3.org/1999/xlink" x="0px" y="0px"
	 width="389.594px" height="386.597px" viewBox="0 0 389.594 386.597" enable-background="new 0 0 389.594 386.597"
	 xml:space="preserve">
<g>
	<g>
		<path d="M216.016,149.122c1.655-23.288,25.976-46.255,45.065-57.359c10.64-6.186,24.21-8.983,34.059,0.109
			c8.645,7.981,5.714,25.816,4.654,36.198c-3.173,31.061-15.952,60.538-30.569,87.758c-13.799,25.694-30.472,49.994-50.577,71.166
			c-3.113,3.277,1.84,8.246,4.961,4.961c24.974-26.298,44.462-57.157,60.43-89.604c13.949-28.345,28.17-65.867,23.193-98.168
			c-4.115-26.709-28.895-29.434-49.693-18.477c-21.676,11.421-46.75,38.215-48.541,63.417
			C208.678,153.641,215.697,153.61,216.016,149.122L216.016,149.122z"/>
	</g>
	<g>
		<path d="M215.147,148.131c-16.43-27.354-46.891-44.282-78.582-45.504c-28.149-1.083-42.572,17.638-40.122,44.461
			c2.63,28.798,19.209,57.088,36.785,79.213c23.06,29.029,52.303,52.333,86.644,66.563c4.181,1.731,5.984-5.062,1.866-6.766
			c-52.464-21.741-99.755-69.659-115.494-124.974c-2.959-10.396-4.369-21.562-1.961-32.198
			c3.191-14.098,15.993-18.616,28.986-19.265c29.916-1.494,60.653,16.762,75.818,42.011
			C211.414,155.547,217.483,152.021,215.147,148.131L215.147,148.131z"/>
	</g>
	<g>
		<path d="M270.44,110.402c20.384,3.026,9.525,40.462,5.347,52.988c-1.436,4.309,5.341,6.139,6.766,1.869
			c5.399-16.19,15.91-57.74-10.247-61.623C267.881,102.979,265.977,109.74,270.44,110.402L270.44,110.402z"/>
	</g>
	<g>
		<path d="M275.413,177.049c-1.585-1.528-3.546-2.591-5.808-2.11c-2.3,0.487-3.818,2.679-4.464,4.803
			c-0.996,3.267,0.976,5.972,3.87,7.187c2.36,0.991,5.181,0.15,7.051-1.394c2.617-2.161,1.938-6.081,0.291-8.557
			c-1.058-1.59-3.078-2.266-4.8-1.259c-1.578,0.925-2.319,3.205-1.26,4.802c0.191,0.285,0.367,0.578,0.527,0.879
			c0.167,0.354,0.136,0.276-0.091-0.232c0.068,0.183,0.113,0.37,0.156,0.557c-0.07-0.641-0.091-0.782-0.066-0.42
			c0.02,0.32-0.149,0.818,0.071-0.328c-0.153,0.796,0.453-0.745,0.021-0.09c0.427-0.521,0.524-0.655,0.29-0.404
			c-0.4,0.414,0.771-0.539,0.285-0.219c-0.678,0.452,0.866-0.268,0.076-0.01c-0.091,0.028-0.184,0.05-0.277,0.071
			c-0.6,0.144,0.977-0.099,0.359-0.043c-0.242,0.021-0.487,0.008-0.729-0.015c1.265,0.114,0.442,0.055,0.094-0.06
			c-0.354-0.113,0.863,0.489,0.104-0.014c0.523,0.426,0.658,0.525,0.403,0.295c-0.417-0.386,0.535,0.779,0.222,0.302
			c-0.165-0.304-0.105-0.145,0.181,0.478c-0.11-0.274-0.128-0.827,0.008,0.384c-0.094-0.837-0.244,0.858-0.018-0.043
			c0.09-0.277,0.07-0.243-0.063,0.102c0.064-0.136,0.703-0.954,0.178-0.364c-0.572,0.644-1.507,0.497-2.188,0.209
			c0.153,0.073,0.299,0.158,0.44,0.254c-0.696-0.436,0.05,0.078,0.178,0.201c1.376,1.327,3.59,1.371,4.961,0
			C276.746,180.679,276.791,178.375,275.413,177.049L275.413,177.049z"/>
	</g>
</g>
</svg>
