<?xml version="1.0" encoding="utf-8"?>
<!-- Generator: Adobe Illustrator 15.1.0, SVG Export Plug-In . SVG Version: 6.00 Build 0)  -->
<!DOCTYPE svg PUBLIC "-//W3C//DTD SVG 1.1//EN" "http://www.w3.org/Graphics/SVG/1.1/DTD/svg11.dtd">
<svg version="1.1" id="Layer_1" xmlns="http://www.w3.org/2000/svg" xmlns:xlink="http://www.w3.org/1999/xlink" x="0px" y="0px"
	 width="389.594px" height="386.597px" viewBox="0 0 389.594 386.597" enable-background="new 0 0 389.594 386.597"
	 xml:space="preserve">
<g>
	<g>
		<path d="M122.331,248.09c-4.399-4.011-12.777-0.695-15.967,3.479c-4.236,5.547-3.58,13.598,2.562,17.331
			c7.055,4.287,15.609-0.505,18.449-7.53c1.68-4.158,1.051-8.135-1.791-11.575c-2.337-2.834-6.714-3.267-10.096-3.238
			c-4.048,0.037-4.052,6.317,0,6.28c4.498-0.041,8.272,1.991,5.663,7.052c-2.057,3.988-6.117,5.374-9.923,3.061
			c-2.558-1.554-1.076-5.786,0.119-7.632c0.877-1.354,5.814-3.453,6.544-2.787C120.875,255.25,125.331,250.821,122.331,248.09
			L122.331,248.09z"/>
	</g>
	<g>
		<path d="M139.243,179.477c5.066,31.488,5.727,64.396,4.933,96.233c-0.1,4.053,6.181,4.042,6.281,0
			c0.81-32.447,0.004-65.812-5.158-97.903C144.656,173.815,138.605,175.517,139.243,179.477L139.243,179.477z"/>
	</g>
	<g>
		<path d="M75.626,187.243c0.303,29.448,1.836,58.857,2.924,88.283c0.149,4.04,6.43,4.052,6.28,0
			c-1.087-29.426-2.621-58.835-2.923-88.283C81.866,183.195,75.585,183.191,75.626,187.243L75.626,187.243z"/>
	</g>
	<g>
		<path d="M78.979,277.112c7.554,13.332,21.655,10.419,35.081,10.404c12.82-0.014,28.013,2.93,35.739-9.786
			c2.11-3.472-3.324-6.626-5.422-3.171c-5.665,9.324-18.678,6.605-28.029,6.667c-10.504,0.069-25.993,3.218-31.946-7.285
			C82.405,270.419,76.979,273.584,78.979,277.112L78.979,277.112z"/>
	</g>
	<g>
		<path d="M144.981,176.062c-3.504-4.982-6.812-8.54-13.131-8.221c-7.482,0.38-14.974,1.647-22.38,2.709
			c-12.24,1.754-27.731,0.963-33.415,14.243c-1.576,3.681,3.833,6.882,5.422,3.169c4.293-10.025,15.847-9.281,25.161-10.692
			c6.233-0.944,12.477-1.812,18.739-2.539c6.53-0.765,9.876-1.619,14.182,4.502C141.87,182.517,147.318,179.385,144.981,176.062
			L144.981,176.062z"/>
	</g>
	<g>
		<path d="M147.989,187.963c8.348-17.182,16.695-34.367,25.042-51.548c1.762-3.627-3.653-6.812-5.422-3.171
			c-8.348,17.183-16.695,34.366-25.042,51.55C140.805,188.421,146.22,191.606,147.989,187.963L147.989,187.963z"/>
	</g>
	<g>
		<path d="M172.882,137.049c10.318-10.738,22.577-21.77,29.256-35.275c1.789-3.618-3.627-6.799-5.422-3.171
			c-6.423,12.988-18.333,23.656-28.274,34.005C165.636,135.527,170.071,139.977,172.882,137.049L172.882,137.049z"/>
	</g>
	<g>
		<path d="M201.962,102.269c2.421-7.851,1.729-16.556,3.087-24.646c1.053-6.287,3.339-12.179,7.493-17.061
			c6.849-8.045,15.583-2.789,18.414,5.589c3.729,11.028,2.799,24.192,2.343,35.659c-0.531,13.354-0.533,27.313-3.641,40.345
			c-0.938,3.938,5.118,5.61,6.056,1.673c4.089-17.155,4.013-36.003,4.148-53.571c0.083-10.964,0.262-30.685-10.277-37.877
			c-8.119-5.542-18.519-1.302-23.734,6.446c-8.896,13.211-5.547,27.5-9.944,41.772C194.71,104.48,200.774,106.126,201.962,102.269
			L201.962,102.269z"/>
	</g>
	<g>
		<path d="M221.037,144.588c12.845,1.333,25.744,5.521,38.662,7.271c14.61,1.975,29.319,3.124,44.031,3.982
			c4.048,0.235,4.025-6.048,0-6.28c-15.479-0.904-30.91-2.208-46.278-4.289c-12.222-1.654-24.249-5.702-36.416-6.964
			C217.009,137.889,217.05,144.173,221.037,144.588L221.037,144.588z"/>
	</g>
	<g>
		<path d="M278.827,192.478c8.245,0.135,16.49,0.27,24.735,0.404c4.052,0.065,4.046-6.215,0-6.28
			c-8.245-0.135-16.49-0.27-24.735-0.405C274.774,186.129,274.781,192.41,278.827,192.478L278.827,192.478z"/>
	</g>
	<g>
		<path d="M280.701,230.422c6.565-0.144,13.125,0.108,19.688,0.254c4.052,0.09,4.044-6.191,0-6.281
			c-6.562-0.145-13.123-0.396-19.688-0.253C276.657,224.228,276.649,230.508,280.701,230.422L280.701,230.422z"/>
	</g>
	<g>
		<path d="M277.823,258.685c7.963,0.247,15.924,0.494,23.887,0.744c4.052,0.124,4.04-6.156,0-6.281
			c-7.963-0.249-15.924-0.496-23.887-0.744C273.771,252.277,273.783,258.558,277.823,258.685L277.823,258.685z"/>
	</g>
	<g>
		<path d="M144.438,266.584c4.5,18.412,28.841,21.432,44.501,23.082c14.722,1.549,29.693,0.494,44.442,0
			c15.765-0.528,31.507-0.504,47.237-1.808c4.007-0.331,4.038-6.614,0-6.28c-23.019,1.909-46.305,2.036-69.395,2.485
			c-15.973,0.312-55.625,1.738-60.73-19.149C149.532,260.982,143.477,262.65,144.438,266.584L144.438,266.584z"/>
	</g>
	<g>
		<path d="M159.391,244.341c2.946,14.104,17.946,22.606,31.552,22.979c4.052,0.11,4.042-6.171,0-6.281
			c-10.95-0.298-23.123-7.012-25.496-18.369C164.618,238.706,158.565,240.389,159.391,244.341L159.391,244.341z"/>
	</g>
	<g>
		<path d="M200.363,270.198c2.014,0,4.017-0.028,6.019-0.262c1.699-0.2,3.141-1.279,3.141-3.14c0-1.562-1.436-3.341-3.141-3.141
			c-2.001,0.233-4.005,0.262-6.019,0.262C196.313,263.918,196.313,270.198,200.363,270.198L200.363,270.198z"/>
	</g>
	<g>
		<path d="M301.763,155.727c5.628,1.104,5.565,7.017,5.892,11.629c0.583,8.212-1.928,14.556-7.967,20.16
			c-2.975,2.76,1.476,7.189,4.44,4.44c7.618-7.067,10.458-15.438,9.729-25.692c-0.519-7.334-2.161-14.974-10.426-16.593
			C299.476,148.898,297.791,154.949,301.763,155.727L301.763,155.727z"/>
	</g>
	<g>
		<path d="M301.708,194.491c11.091,7.724,2.785,24.371-5.068,30.791c-3.138,2.563,1.333,6.979,4.44,4.44
			c11.457-9.363,18.23-30.605,3.797-40.655C301.544,186.746,298.41,192.195,301.708,194.491L301.708,194.491z"/>
	</g>
	<g>
		<path d="M297.173,231.301c6.462,4.353,5.722,16.464,2.257,22.187c-2.104,3.476,3.328,6.628,5.421,3.171
			c5.412-8.937,4.864-24.47-4.51-30.781C296.973,223.607,293.833,229.052,297.173,231.301L297.173,231.301z"/>
	</g>
	<g>
		<path d="M299.792,259.616c1.48,0.28,0.006,6.811-0.258,7.839c-0.953,3.737-3.14,7.017-6.188,9.359
			c-7.289,5.602-18.228,5.646-26.944,5.798c-4.046,0.071-4.052,6.352,0,6.28c11.854-0.206,27.412-0.924,35.152-11.498
			c3.531-4.824,9.852-21.961-0.094-23.834C297.502,252.816,295.814,258.868,299.792,259.616L299.792,259.616z"/>
	</g>
</g>
</svg>
