<?xml version="1.0" encoding="utf-8"?>
<!-- Generator: Adobe Illustrator 15.1.0, SVG Export Plug-In . SVG Version: 6.00 Build 0)  -->
<!DOCTYPE svg PUBLIC "-//W3C//DTD SVG 1.1//EN" "http://www.w3.org/Graphics/SVG/1.1/DTD/svg11.dtd">
<svg version="1.1" id="Layer_1" xmlns="http://www.w3.org/2000/svg" xmlns:xlink="http://www.w3.org/1999/xlink" x="0px" y="0px"
	 width="389.594px" height="386.597px" viewBox="0 0 389.594 386.597" enable-background="new 0 0 389.594 386.597"
	 xml:space="preserve">
<g>
	<g>
		<path d="M309.394,140.805c-18.192,17.97-36.382,35.938-54.574,53.907c-2.479,2.449,1.339,6.265,3.816,3.816
			c18.192-17.967,36.382-35.938,54.573-53.907C315.689,142.173,311.871,138.359,309.394,140.805L309.394,140.805z"/>
	</g>
	<g>
		<path d="M254.03,196.62c2.957,26.868,5.914,53.732,8.871,80.601c0.376,3.418,5.779,3.457,5.398,0
			c-2.958-26.868-5.915-53.732-8.872-80.601C259.051,193.201,253.648,193.162,254.03,196.62L254.03,196.62z"/>
	</g>
	<g>
		<path d="M199.292,245.729c21.732,11.813,43.464,23.629,65.196,35.444c3.057,1.661,5.783-2.998,2.724-4.662
			c-21.732-11.814-43.464-23.629-65.196-35.444C198.958,239.406,196.233,244.065,199.292,245.729L199.292,245.729z"/>
	</g>
	<g>
		<path d="M197.793,240.769c-25.112,15.486-50.851,29.923-76.074,45.222c-2.971,1.804-0.26,6.471,2.724,4.662
			c25.224-15.303,50.962-29.736,76.074-45.224C203.474,243.605,200.765,238.936,197.793,240.769L197.793,240.769z"/>
	</g>
	<g>
		<path d="M147.376,203.698c-9.017,27.952-18.006,55.914-26.896,83.905c-1.057,3.328,4.155,4.741,5.204,1.436
			c8.891-27.992,17.88-55.953,26.897-83.905C153.652,201.812,148.44,200.401,147.376,203.698L147.376,203.698z"/>
	</g>
	<g>
		<path d="M90.797,154.749c19.109,16.938,38.223,33.874,57.273,50.877c2.587,2.311,6.418-1.492,3.816-3.815
			c-19.05-17.004-38.165-33.938-57.273-50.878C92.019,148.634,88.187,152.436,90.797,154.749L90.797,154.749z"/>
	</g>
	<g>
		<path d="M94.772,155.444c25.297-5.019,51.245-7.447,76.702-11.624c3.428-0.562,1.969-5.763-1.435-5.204
			c-25.457,4.176-51.405,6.604-76.702,11.622C89.925,150.915,91.373,156.117,94.772,155.444L94.772,155.444z"/>
	</g>
	<g>
		<path d="M200.294,68.182c-10.623,23.892-21.245,47.784-31.868,71.675c-1.4,3.15,3.25,5.898,4.662,2.723
			c10.622-23.892,21.243-47.782,31.866-71.674C206.355,67.756,201.705,65.008,200.294,68.182L200.294,68.182z"/>
	</g>
	<g>
		<path d="M200.294,70.906c11.772,24.372,22.349,49.257,34.41,73.533c1.548,3.117,6.204,0.381,4.66-2.725
			c-12.06-24.275-22.637-49.161-34.41-73.532C203.44,65.051,198.787,67.787,200.294,70.906L200.294,70.906z"/>
	</g>
	<g>
		<path d="M237.035,145.774c24.53-0.367,49.058-0.881,73.593-0.894c3.48-0.004,3.48-5.401,0-5.397
			c-24.535,0.013-49.062,0.527-73.593,0.894C233.557,140.428,233.552,145.825,237.035,145.774L237.035,145.774z"/>
	</g>
</g>
</svg>
