<?xml version="1.0" encoding="UTF-8" standalone="no"?>
<!-- Created with Inkscape (http://www.inkscape.org/) -->

<svg
   xmlns:dc="http://purl.org/dc/elements/1.1/"
   xmlns:cc="http://creativecommons.org/ns#"
   xmlns:rdf="http://www.w3.org/1999/02/22-rdf-syntax-ns#"
   xmlns:svg="http://www.w3.org/2000/svg"
   xmlns="http://www.w3.org/2000/svg"
   xmlns:sodipodi="http://sodipodi.sourceforge.net/DTD/sodipodi-0.dtd"
   xmlns:inkscape="http://www.inkscape.org/namespaces/inkscape"
   width="295.12408mm"
   height="294.62396mm"
   viewBox="0 0 1045.7153 1043.9432"
   id="svg2"
   version="1.1"
   inkscape:version="0.91 r13725"
   sodipodi:docname="erpnext-v5.svg">
  <defs
     id="defs4" />
  <sodipodi:namedview
     id="base"
     pagecolor="#ffffff"
     bordercolor="#666666"
     borderopacity="1.0"
     inkscape:pageopacity="0.0"
     inkscape:pageshadow="2"
     inkscape:zoom="0.1767767"
     inkscape:cx="1683.8696"
     inkscape:cy="54.534626"
     inkscape:document-units="px"
     inkscape:current-layer="layer2"
     showgrid="false"
     inkscape:snap-bbox="false"
     inkscape:bbox-nodes="true"
     inkscape:bbox-paths="true"
     inkscape:window-width="1280"
     inkscape:window-height="708"
     inkscape:window-x="0"
     inkscape:window-y="12"
     inkscape:window-maximized="0"
     fit-margin-bottom="-0.5"
     fit-margin-top="0"
     fit-margin-left="0"
     fit-margin-right="0">
    <inkscape:grid
       type="xygrid"
       id="grid4350"
       originx="-282.2848"
       originy="-3308.0571" />
  </sodipodi:namedview>
  <metadata
     id="metadata7">
    <rdf:RDF>
      <cc:Work
         rdf:about="">
        <dc:format>image/svg+xml</dc:format>
        <dc:type
           rdf:resource="http://purl.org/dc/dcmitype/StillImage" />
        <dc:title></dc:title>
      </cc:Work>
    </rdf:RDF>
  </metadata>
  <g
     inkscape:label="Layer 1"
     inkscape:groupmode="layer"
     id="layer1"
     transform="translate(-141.14239,1646.4952)" />
  <g
     inkscape:groupmode="layer"
     id="layer2"
     inkscape:label="Layer 2"
     transform="translate(-141.14239,-135.78831)">
    <path
       style="fill:#7575ff;fill-opacity:1"
       d="m 832.5712,135.78831 354.2864,2.8569 -2e-4,351.42929 c 0,60.1483 -48.4227,108.571 -108.571,108.571 l -354.2864,2e-4 2e-4,-354.28639 c 1e-4,-60.1483 48.4227,-108.571 108.571,-108.571 z"
       id="rect4180"
       inkscape:connector-curvature="0"
       sodipodi:nodetypes="scsscss" />
    <path
       sodipodi:nodetypes="scsscss"
       inkscape:connector-curvature="0"
       id="path4352"
       d="M 1078.2864,718.6457 724,721.5026 l 2e-4,351.4293 c 0,60.1483 48.4227,108.571 108.571,108.571 l 354.2864,2e-4 -2e-4,-354.2864 c -1e-4,-60.1483 -48.4227,-108.571 -108.571,-108.571 z"
       style="fill:#7575ff;fill-opacity:1" />
    <path
       style="fill:#7575ff;fill-opacity:1"
       d="m 495.4288,135.78831 -354.28641,2.8569 1.9e-4,351.42929 c 0,60.1483 48.4227,108.571 108.57101,108.571 l 354.28641,2e-4 -2e-4,-354.28639 c -1e-4,-60.1483 -48.4227,-108.571 -108.571,-108.571 z"
       id="path4354"
       inkscape:connector-curvature="0"
       sodipodi:nodetypes="scsscss" />
    <path
       sodipodi:nodetypes="scsscss"
       inkscape:connector-curvature="0"
       id="path4356"
       d="M 249.71359,718.6457 604,721.5026 l -2e-4,351.4293 c 0,60.1483 -48.4227,108.571 -108.571,108.571 l -354.28641,2e-4 1.9e-4,-354.2864 c 1e-4,-60.1483 48.4227,-108.571 108.57101,-108.571 z"
       style="fill:#7575ff;fill-opacity:1" />
    <path
       sodipodi:nodetypes="scsscss"
       inkscape:connector-curvature="0"
       id="path4640"
       d="m 817.8269,198.64568 306.1731,2.46893 -2e-4,303.70419 c 0,51.98 -41.8467,93.8267 -93.8267,93.8267 l -306.1731,2e-4 2e-4,-306.17327 c 1e-4,-51.97999 41.8467,-93.82675 93.8267,-93.82675 z"
       style="fill:#4d4da7;fill-opacity:1" />
    <path
       style="fill:#4d4da7;fill-opacity:1"
       d="M 297.8269,718.6457 604,721.1146 l -2e-4,303.7042 c 0,51.98 -41.8467,93.8267 -93.8267,93.8267 l -306.1731,2e-4 2e-4,-306.1732 c 1e-4,-51.98 41.8467,-93.8268 93.8267,-93.8268 z"
       id="path4642"
       inkscape:connector-curvature="0"
       sodipodi:nodetypes="scsscss" />
    <path
       sodipodi:nodetypes="scsscss"
       inkscape:connector-curvature="0"
       id="path4644"
       d="m 604,292.4726 -2.4689,306.1731 -303.7042,-2e-4 c -51.98,0 -93.8267,-41.8467 -93.8267,-93.8267 L 204,198.6457 l 306.1732,2e-4 C 562.1532,198.646 604,240.4926 604,292.4726 Z"
       style="fill:#4d4da7;fill-opacity:1" />
    <path
       style="fill:#4d4da7;fill-opacity:1"
       d="m 1124,812.4726 -2.4689,306.1731 -303.7042,-2e-4 c -51.98,0 -93.8267,-41.8467 -93.8267,-93.8267 L 724,718.6457 l 306.1732,2e-4 c 51.98,10e-5 93.8268,41.8467 93.8268,93.8267 z"
       id="path4646"
       inkscape:connector-curvature="0"
       sodipodi:nodetypes="scsscss" />
  </g>
</svg>
