<?xml version="1.0" encoding="UTF-8" standalone="no"?>
<!-- Generator: Adobe Illustrator 16.0.4, SVG Export Plug-In . SVG Version: 6.00 Build 0)  -->

<svg
   xmlns:dc="http://purl.org/dc/elements/1.1/"
   xmlns:cc="http://creativecommons.org/ns#"
   xmlns:rdf="http://www.w3.org/1999/02/22-rdf-syntax-ns#"
   xmlns:svg="http://www.w3.org/2000/svg"
   xmlns="http://www.w3.org/2000/svg"
   xmlns:sodipodi="http://sodipodi.sourceforge.net/DTD/sodipodi-0.dtd"
   xmlns:inkscape="http://www.inkscape.org/namespaces/inkscape"
   version="1.1"
   id="Layer_1"
   x="0px"
   y="0px"
   width="519.09998"
   height="519.09998"
   viewBox="0 0 519.09998 519.09998"
   enable-background="new 0 0 512 512"
   xml:space="preserve"
   inkscape:version="0.91 r13725"
   sodipodi:docname="epnext-conf-2015.svg"><metadata
     id="metadata45"><rdf:RDF><cc:Work
         rdf:about=""><dc:format>image/svg+xml</dc:format><dc:type
           rdf:resource="http://purl.org/dc/dcmitype/StillImage" /><dc:title></dc:title></cc:Work></rdf:RDF></metadata><defs
     id="defs43" /><sodipodi:namedview
     pagecolor="#ffffff"
     bordercolor="#666666"
     borderopacity="1"
     objecttolerance="10"
     gridtolerance="10"
     guidetolerance="10"
     inkscape:pageopacity="0"
     inkscape:pageshadow="2"
     inkscape:window-width="960"
     inkscape:window-height="640"
     id="namedview41"
     showgrid="false"
     fit-margin-top="0"
     fit-margin-left="0"
     fit-margin-right="0"
     fit-margin-bottom="0"
     inkscape:zoom="0.4609375"
     inkscape:cx="-85.399153"
     inkscape:cy="259.55"
     inkscape:window-x="0"
     inkscape:window-y="0"
     inkscape:window-maximized="0"
     inkscape:current-layer="Layer_1" /><g
     id="g3"
     style="fill:none;fill-opacity:1;stroke:#ffffff;stroke-width:10;stroke-linecap:round;stroke-linejoin:round;stroke-miterlimit:4;stroke-dasharray:none;stroke-opacity:1"
     transform="translate(3.55,3.55)"><path
       d="m 512,448 c 0,35.2 -28.8,64 -64,64 L 64,512 C 28.8,512 0,483.2 0,448 L 0,64 C 0,28.8 28.8,0 64,0 l 384,0 c 35.2,0 64,28.8 64,64 l 0,384 z"
       id="path5"
       style="fill:none;fill-opacity:1;stroke:#ffffff;stroke-width:10;stroke-linecap:round;stroke-linejoin:round;stroke-miterlimit:4;stroke-dasharray:none;stroke-opacity:1"
       inkscape:connector-curvature="0" /></g><g
     id="g7"
     transform="translate(3.55,3.55)"><path
       d="m 150.483,371.684 0,-230.534 c 0,-15.167 9.534,-25.133 23.833,-25.133 l 162.5,0 c 13.866,0 20.8,6.933 20.8,18.633 l 0,2.6 c 0,12.133 -6.934,18.633 -20.8,18.633 l -141.7,0 0,78.434 109.634,0 c 14.3,0 20.8,6.066 20.8,17.767 l 0,1.3 c 0,12.133 -6.934,18.633 -20.8,18.633 l -109.633,0 0,84.934 144.3,0 c 13.867,0 20.367,6.066 20.367,17.767 l 0,2.167 c 0,12.566 -6.5,19.5 -20.367,19.5 l -165.1,0 c -14.3,-10e-4 -23.834,-9.534 -23.834,-24.701 z"
       id="path9"
       inkscape:connector-curvature="0"
       style="fill:#ffffff" /></g><g
     id="g11"
     transform="translate(3.55,3.55)" /><g
     id="g13"
     transform="translate(3.55,3.55)" /><g
     id="g15"
     transform="translate(3.55,3.55)" /><g
     id="g17"
     transform="translate(3.55,3.55)" /><g
     id="g19"
     transform="translate(3.55,3.55)" /><g
     id="g21"
     transform="translate(3.55,3.55)" /><g
     id="g23"
     transform="translate(3.55,3.55)" /><g
     id="g25"
     transform="translate(3.55,3.55)" /><g
     id="g27"
     transform="translate(3.55,3.55)" /><g
     id="g29"
     transform="translate(3.55,3.55)" /><g
     id="g31"
     transform="translate(3.55,3.55)" /><g
     id="g33"
     transform="translate(3.55,3.55)" /><g
     id="g35"
     transform="translate(3.55,3.55)" /><g
     id="g37"
     transform="translate(3.55,3.55)" /><g
     id="g39"
     transform="translate(3.55,3.55)" /></svg>