<?xml version="1.0" encoding="utf-8"?>
<!-- Generator: Adobe Illustrator 16.0.4, SVG Export Plug-In . SVG Version: 6.00 Build 0)  -->
<!DOCTYPE svg PUBLIC "-//W3C//DTD SVG 1.1//EN" "http://www.w3.org/Graphics/SVG/1.1/DTD/svg11.dtd">
<svg version="1.1" id="Layer_1" xmlns="http://www.w3.org/2000/svg" xmlns:xlink="http://www.w3.org/1999/xlink" x="0px" y="0px"
	 width="172.833px" height="21.167px" viewBox="0 0 172.833 21.167" enable-background="new 0 0 172.833 21.167"
	 xml:space="preserve">
<g>
	<path fill="#36414C" d="M1.16,13.889V4.147c0-1.041,0.58-1.641,1.541-1.641h6.681c0.92,0,1.36,0.42,1.36,1.18v0.12
		c0,0.82-0.44,1.22-1.36,1.22H4.081v3.221h3.821c0.94,0,1.36,0.4,1.36,1.14v0.06c0,0.78-0.42,1.201-1.36,1.201H4.161v3.521
		c0,0.9-0.44,1.36-1.3,1.36H2.4C1.601,15.53,1.16,14.93,1.16,13.889z"/>
	<path fill="#36414C" d="M14.161,7.248c0.4-1.12,1.2-1.78,2.38-1.78c1.14,0,1.82,0.64,1.82,1.64c0,1.12-0.86,1.521-0.9,1.48
		c-0.3-0.28-0.74-0.48-1.28-0.48c-1.38,0-1.98,1.201-1.98,3.161v2.92c0,1.02-0.52,1.34-1.24,1.34h-0.3c-0.76,0-1.28-0.3-1.28-1.34
		V5.908c0-0.08,0.5-0.32,1.061-0.32C13.181,5.587,13.981,5.928,14.161,7.248z"/>
	<path fill="#36414C" d="M19.041,12.849c0-2.24,2-3.261,6.281-3.321h0.32c0-1.26-0.7-1.94-2-1.94c-1.36,0-2.061,0.74-2.42,1.5
		c0,0.04-1.82,0.1-1.82-1.2c0-1.22,1.44-2.42,4.421-2.42c3.081,0,4.601,1.4,4.601,4.021v5.781c0,0.14-0.52,0.32-1.06,0.32
		c-0.9,0-1.5-0.48-1.66-1.541c-0.7,1.021-1.94,1.621-3.381,1.621C20.281,15.67,19.041,14.509,19.041,12.849z M25.642,11.629v-0.56
		l-0.52,0.02c-2.221,0.06-3.381,0.5-3.381,1.56c0,0.72,0.58,1.181,1.521,1.181C24.662,13.83,25.642,12.909,25.642,11.629z"/>
	<path fill="#36414C" d="M30.46,17.99V5.908c0-0.08,0.5-0.32,1.061-0.32c0.74,0,1.54,0.36,1.72,1.701
		c0.62-1.121,1.72-1.82,3.201-1.82c2.641,0,4.521,1.98,4.521,5.101c0,3.041-1.86,5.141-4.561,5.141c-1.5,0-2.621-0.8-3.121-1.781
		v4.061c0,1.02-0.52,1.36-1.24,1.36h-0.3C30.98,19.351,30.46,19.03,30.46,17.99z M38.242,10.589c0-1.701-1.02-2.861-2.5-2.861
		c-1.18,0-2.041,0.62-2.46,1.601v1.9c0.04,1.32,1.1,2.24,2.44,2.24C37.242,13.469,38.242,12.309,38.242,10.589z"/>
	<path fill="#36414C" d="M42.56,17.99V5.908c0-0.08,0.5-0.32,1.061-0.32c0.74,0,1.54,0.36,1.72,1.701
		c0.62-1.121,1.72-1.82,3.201-1.82c2.641,0,4.521,1.98,4.521,5.101c0,3.041-1.86,5.141-4.561,5.141c-1.5,0-2.621-0.8-3.121-1.781
		v4.061c0,1.02-0.52,1.36-1.24,1.36h-0.3C43.081,19.351,42.56,19.03,42.56,17.99z M50.342,10.589c0-1.701-1.02-2.861-2.5-2.861
		c-1.18,0-2.041,0.62-2.46,1.601v1.9c0.04,1.32,1.1,2.24,2.44,2.24C49.342,13.469,50.342,12.309,50.342,10.589z"/>
	<path fill="#36414C" d="M54.14,10.649c0-2.981,2.141-5.181,5.101-5.181c2.881,0,4.861,2.02,4.861,4.881v0.2
		c-0.02,0.5-0.16,0.78-0.68,0.78H56.68c0.2,1.46,1.32,2.321,2.841,2.321c1.48,0,2.3-0.66,2.76-1.44c0.02-0.04,1.36,0.14,1.36,1.26
		c0,1.06-1.5,2.241-4.221,2.241C56.24,15.71,54.14,13.729,54.14,10.649z M56.68,9.688h4.801c-0.06-1.36-0.92-2.26-2.281-2.26
		C57.88,7.428,56.88,8.368,56.68,9.688z M59.861,1.287c0.34-0.22,0.68-0.34,1-0.34c0.72,0,1.28,0.48,1.28,1.1
		c0,0.56-0.36,1.14-0.98,1.521c-1.56,0.94-3.44,0.92-3.601,0.68C57.42,3.987,58.541,2.107,59.861,1.287z"/>
	<path fill="#36414C" d="M69.16,13.889V4.147c0-1.041,0.58-1.641,1.541-1.641h6.681c0.92,0,1.36,0.42,1.36,1.18v0.12
		c0,0.82-0.44,1.22-1.36,1.22h-5.301v3.221h3.821c0.94,0,1.36,0.4,1.36,1.14v0.06c0,0.78-0.42,1.201-1.36,1.201H72.16v3.521
		c0,0.9-0.44,1.36-1.3,1.36H70.4C69.6,15.53,69.16,14.93,69.16,13.889z"/>
	<path fill="#36414C" d="M82.161,7.248c0.4-1.12,1.2-1.78,2.38-1.78c1.141,0,1.82,0.64,1.82,1.64c0,1.12-0.86,1.521-0.9,1.48
		c-0.3-0.28-0.74-0.48-1.28-0.48c-1.38,0-1.98,1.201-1.98,3.161v2.92c0,1.02-0.52,1.34-1.24,1.34h-0.3c-0.76,0-1.28-0.3-1.28-1.34
		V5.908c0-0.08,0.5-0.32,1.061-0.32C81.181,5.587,81.98,5.928,82.161,7.248z"/>
	<path fill="#36414C" d="M87.04,12.849c0-2.24,2-3.261,6.281-3.321h0.32c0-1.26-0.7-1.94-2-1.94c-1.36,0-2.061,0.74-2.42,1.5
		c0,0.04-1.82,0.1-1.82-1.2c0-1.22,1.44-2.42,4.421-2.42c3.081,0,4.601,1.4,4.601,4.021v5.781c0,0.14-0.52,0.32-1.06,0.32
		c-0.9,0-1.5-0.48-1.66-1.541c-0.7,1.021-1.94,1.621-3.381,1.621C88.28,15.67,87.04,14.509,87.04,12.849z M93.642,11.629v-0.56
		l-0.52,0.02c-2.221,0.06-3.381,0.5-3.381,1.56c0,0.72,0.58,1.181,1.521,1.181C92.661,13.83,93.642,12.909,93.642,11.629z"/>
	<path fill="#36414C" d="M101.22,7.148c0.66-0.98,1.621-1.68,3.021-1.68c1.621,0,2.661,0.76,3.121,2c0.66-1.12,1.681-2,3.301-2
		c2.48,0,3.521,1.58,3.521,3.881v4.841c0,1.02-0.52,1.34-1.24,1.34h-0.3c-0.76,0-1.28-0.3-1.28-1.34V9.809c0-1.3-0.58-1.98-1.7-1.98
		c-0.82,0-1.541,0.5-1.94,1.2v5.161c0,1.02-0.5,1.34-1.24,1.34h-0.28c-0.76,0-1.3-0.3-1.3-1.34V9.869c0-1.36-0.56-2.041-1.68-2.041
		c-0.82,0-1.541,0.5-1.94,1.2v5.161c0,1.02-0.52,1.34-1.24,1.34h-0.3c-0.76,0-1.28-0.3-1.28-1.34V5.908c0-0.08,0.5-0.32,1.061-0.32
		C100.24,5.587,101.02,5.908,101.22,7.148z"/>
	<path fill="#36414C" d="M115.68,10.649c0-2.981,2.141-5.181,5.101-5.181c2.881,0,4.861,2.02,4.861,4.881v0.2
		c-0.02,0.5-0.16,0.78-0.68,0.78h-6.742c0.2,1.46,1.32,2.321,2.841,2.321c1.48,0,2.3-0.66,2.76-1.44c0.02-0.04,1.36,0.14,1.36,1.26
		c0,1.06-1.5,2.241-4.221,2.241C117.78,15.71,115.68,13.729,115.68,10.649z M118.22,9.688h4.801c-0.06-1.36-0.92-2.26-2.281-2.26
		C119.42,7.428,118.42,8.368,118.22,9.688z"/>
	<path fill="#36414C" d="M128.88,14.75l-2.541-8.342c-0.04-0.18,0.92-0.84,1.72-0.84c0.54,0,1.18,0.28,1.36,1.241l1.2,5.821
		l1.56-5.061c0.18-0.62,0.72-0.92,1.521-0.92s1.32,0.3,1.48,0.92l1.48,4.961l1.201-5.721c0.16-0.94,0.78-1.241,1.3-1.241
		c0.82,0,1.721,0.68,1.661,0.84l-2.48,8.342c-0.18,0.66-0.82,0.82-1.5,0.82c-1,0-1.38-0.18-1.64-0.96l-1.581-4.921l-1.6,4.921
		c-0.24,0.78-0.66,0.96-1.621,0.96C129.7,15.57,129.08,15.41,128.88,14.75z"/>
	<path fill="#36414C" d="M141.54,10.569c0-3.001,2.141-5.101,5.241-5.101c3.081,0,5.201,2.1,5.201,5.141
		c0,3.041-2.121,5.101-5.241,5.101C143.64,15.71,141.54,13.649,141.54,10.569z M149.481,10.609c0-1.701-1.14-2.941-2.721-2.941
		s-2.741,1.22-2.741,2.901c0,1.7,1.16,2.92,2.741,2.92C148.321,13.489,149.481,12.269,149.481,10.609z"/>
	<path fill="#36414C" d="M156.36,7.248c0.4-1.12,1.2-1.78,2.38-1.78c1.141,0,1.82,0.64,1.82,1.64c0,1.12-0.86,1.521-0.9,1.48
		c-0.3-0.28-0.74-0.48-1.28-0.48c-1.38,0-1.98,1.201-1.98,3.161v2.92c0,1.02-0.52,1.34-1.24,1.34h-0.3c-0.76,0-1.28-0.3-1.28-1.34
		V5.908c0-0.08,0.5-0.32,1.061-0.32C155.38,5.587,156.18,5.928,156.36,7.248z"/>
	<path fill="#36414C" d="M161.879,14.189V1.867c0-0.1,0.5-0.32,1.061-0.32c0.84,0,1.76,0.44,1.76,2.26v6.122l2.741-3.461
		c0.46-0.66,1.06-0.9,1.56-0.9c0.9,0,1.581,0.82,1.5,0.96l-3.081,3.821l3.48,4.261c0.08,0.14-0.64,0.96-1.54,0.96
		c-0.521,0-1.101-0.22-1.601-0.9l-3.061-3.701v3.221c0,1.02-0.52,1.34-1.24,1.34h-0.3C162.4,15.53,161.879,15.229,161.879,14.189z"
		/>
</g>
<g>
</g>
<g>
</g>
<g>
</g>
<g>
</g>
<g>
</g>
<g>
</g>
<g>
</g>
<g>
</g>
<g>
</g>
<g>
</g>
<g>
</g>
<g>
</g>
<g>
</g>
<g>
</g>
<g>
</g>
</svg>
