<?xml version="1.0" encoding="utf-8"?>
<!-- Generator: Adobe Illustrator 16.0.4, SVG Export Plug-In . SVG Version: 6.00 Build 0)  -->
<!DOCTYPE svg PUBLIC "-//W3C//DTD SVG 1.1//EN" "http://www.w3.org/Graphics/SVG/1.1/DTD/svg11.dtd">
<svg version="1.1" id="Layer_1" xmlns="http://www.w3.org/2000/svg" xmlns:xlink="http://www.w3.org/1999/xlink" x="0px" y="0px"
	 width="66px" height="21.167px" viewBox="0 0 66 21.167" enable-background="new 0 0 66 21.167" xml:space="preserve">
<g>
	<path fill="#36414C" d="M1.16,13.889V4.147c0-1.041,0.58-1.641,1.541-1.641h6.681c0.92,0,1.36,0.42,1.36,1.18v0.12
		c0,0.82-0.44,1.22-1.36,1.22H4.081v3.221h3.821c0.94,0,1.36,0.4,1.36,1.14v0.06c0,0.78-0.42,1.201-1.36,1.201H4.161v3.521
		c0,0.9-0.44,1.36-1.3,1.36H2.4C1.601,15.53,1.16,14.93,1.16,13.889z"/>
	<path fill="#36414C" d="M14.161,7.248c0.4-1.12,1.2-1.78,2.38-1.78c1.14,0,1.82,0.64,1.82,1.64c0,1.12-0.86,1.521-0.9,1.48
		c-0.3-0.28-0.74-0.48-1.28-0.48c-1.38,0-1.98,1.201-1.98,3.161v2.92c0,1.02-0.52,1.34-1.24,1.34h-0.3c-0.76,0-1.28-0.3-1.28-1.34
		V5.908c0-0.08,0.5-0.32,1.061-0.32C13.181,5.587,13.981,5.928,14.161,7.248z"/>
	<path fill="#36414C" d="M19.041,12.849c0-2.24,2-3.261,6.281-3.321h0.32c0-1.26-0.7-1.94-2-1.94c-1.36,0-2.061,0.74-2.42,1.5
		c0,0.04-1.82,0.1-1.82-1.2c0-1.22,1.44-2.42,4.421-2.42c3.081,0,4.601,1.4,4.601,4.021v5.781c0,0.14-0.52,0.32-1.06,0.32
		c-0.9,0-1.5-0.48-1.66-1.541c-0.7,1.021-1.94,1.621-3.381,1.621C20.281,15.67,19.041,14.509,19.041,12.849z M25.642,11.629v-0.56
		l-0.52,0.02c-2.221,0.06-3.381,0.5-3.381,1.56c0,0.72,0.58,1.181,1.521,1.181C24.662,13.83,25.642,12.909,25.642,11.629z"/>
	<path fill="#36414C" d="M30.46,17.99V5.908c0-0.08,0.5-0.32,1.061-0.32c0.74,0,1.54,0.36,1.72,1.701
		c0.62-1.121,1.72-1.82,3.201-1.82c2.641,0,4.521,1.98,4.521,5.101c0,3.041-1.86,5.141-4.561,5.141c-1.5,0-2.621-0.8-3.121-1.781
		v4.061c0,1.02-0.52,1.36-1.24,1.36h-0.3C30.98,19.351,30.46,19.03,30.46,17.99z M38.242,10.589c0-1.701-1.02-2.861-2.5-2.861
		c-1.18,0-2.041,0.62-2.46,1.601v1.9c0.04,1.32,1.1,2.24,2.44,2.24C37.242,13.469,38.242,12.309,38.242,10.589z"/>
	<path fill="#36414C" d="M42.56,17.99V5.908c0-0.08,0.5-0.32,1.061-0.32c0.74,0,1.54,0.36,1.72,1.701
		c0.62-1.121,1.72-1.82,3.201-1.82c2.641,0,4.521,1.98,4.521,5.101c0,3.041-1.86,5.141-4.561,5.141c-1.5,0-2.621-0.8-3.121-1.781
		v4.061c0,1.02-0.52,1.36-1.24,1.36h-0.3C43.081,19.351,42.56,19.03,42.56,17.99z M50.342,10.589c0-1.701-1.02-2.861-2.5-2.861
		c-1.18,0-2.041,0.62-2.46,1.601v1.9c0.04,1.32,1.1,2.24,2.44,2.24C49.342,13.469,50.342,12.309,50.342,10.589z"/>
	<path fill="#36414C" d="M54.14,10.649c0-2.981,2.141-5.181,5.101-5.181c2.881,0,4.861,2.02,4.861,4.881v0.2
		c-0.02,0.5-0.16,0.78-0.68,0.78H56.68c0.2,1.46,1.32,2.321,2.841,2.321c1.48,0,2.3-0.66,2.76-1.44c0.02-0.04,1.36,0.14,1.36,1.26
		c0,1.06-1.5,2.241-4.221,2.241C56.24,15.71,54.14,13.729,54.14,10.649z M56.68,9.688h4.801c-0.06-1.36-0.92-2.26-2.281-2.26
		C57.88,7.428,56.88,8.368,56.68,9.688z M59.861,1.287c0.34-0.22,0.68-0.34,1-0.34c0.72,0,1.28,0.48,1.28,1.1
		c0,0.56-0.36,1.14-0.98,1.521c-1.56,0.94-3.44,0.92-3.601,0.68C57.42,3.987,58.541,2.107,59.861,1.287z"/>
</g>
<g>
</g>
<g>
</g>
<g>
</g>
<g>
</g>
<g>
</g>
<g>
</g>
<g>
</g>
<g>
</g>
<g>
</g>
<g>
</g>
<g>
</g>
<g>
</g>
<g>
</g>
<g>
</g>
<g>
</g>
</svg>
