<?xml version="1.0" encoding="UTF-8" standalone="no"?>
<!DOCTYPE svg PUBLIC "-//W3C//DTD SVG 1.1//EN" "http://www.w3.org/Graphics/SVG/1.1/DTD/svg11.dtd">
<svg width="100%" height="100%" viewBox="0 0 1920 1200" version="1.1" xmlns="http://www.w3.org/2000/svg" xmlns:xlink="http://www.w3.org/1999/xlink" xml:space="preserve" xmlns:serif="http://www.serif.com/" style="fill-rule:evenodd;clip-rule:evenodd;stroke-linejoin:round;stroke-miterlimit:1.41421;">
    <rect id="Sign-Up-Page" serif:id="Sign Up Page" x="0" y="0" width="1920" height="1200" style="fill:none;"/>
    <clipPath id="_clip1">
        <rect id="Sign-Up-Page1" serif:id="Sign Up Page" x="0" y="0" width="1920" height="1200"/>
    </clipPath>
    <g clip-path="url(#_clip1)">
        <rect x="0" y="0" width="1920" height="1200" style="fill:white;"/>
        <g id="Left" transform="matrix(1,0,0,1,-55.75,2.27374e-13)">
            <g id="Google-OAuth" serif:id="Google OAuth" transform="matrix(1,0,0,1,476.712,-4.54747e-13)">
                <g transform="matrix(1.21847,0,0,1,-88.0442,0)">
                    <path d="M403,855.775C403,853.692 401.612,852 399.902,852L127.06,852C125.35,852 123.962,853.692 123.962,855.775L123.962,923.725C123.962,925.808 125.35,927.5 127.06,927.5L399.902,927.5C401.612,927.5 403,925.808 403,923.725L403,855.775Z" style="fill:white;"/>
                </g>
                <g transform="matrix(1,0,0,1,-49.2,2.36346)">
                    <text x="203.337px" y="896.132px" style="font-family:'FiraSans-SemiBold', 'Fira Sans', sans-serif;font-weight:600;font-size:25px;fill:rgb(156,156,160);">Sign up with Googl<tspan x="415.787px " y="896.132px ">e</tspan></text>
                </g>
                <g transform="matrix(1,0,0,1,110.463,889.75)">
                    <g transform="matrix(1,0,0,1,-24,-24)">
                        <clipPath id="_clip2">
                            <path d="M44.5,20L24,20L24,28.5L35.8,28.5C34.7,33.9 30.1,37 24,37C16.8,37 11,31.2 11,24C11,16.8 16.8,11 24,11C27.1,11 29.9,12.1 32.1,13.9L38.5,7.5C34.6,4.1 29.6,2 24,2C11.8,2 2,11.8 2,24C2,36.2 11.8,46 24,46C35,46 45,38 45,24C45,22.7 44.8,21.3 44.5,20Z"/>
                        </clipPath>
                        <g clip-path="url(#_clip2)">
                            <path d="M0,37L0,11L17,24L0,37Z" style="fill:rgb(251,188,5);fill-rule:nonzero;"/>
                        </g>
                        <clipPath id="_clip3">
                            <path d="M44.5,20L24,20L24,28.5L35.8,28.5C34.7,33.9 30.1,37 24,37C16.8,37 11,31.2 11,24C11,16.8 16.8,11 24,11C27.1,11 29.9,12.1 32.1,13.9L38.5,7.5C34.6,4.1 29.6,2 24,2C11.8,2 2,11.8 2,24C2,36.2 11.8,46 24,46C35,46 45,38 45,24C45,22.7 44.8,21.3 44.5,20Z"/>
                        </clipPath>
                        <g clip-path="url(#_clip3)">
                            <path d="M0,11L17,24L24,17.9L48,14L48,0L0,0L0,11Z" style="fill:rgb(234,67,53);fill-rule:nonzero;"/>
                        </g>
                        <clipPath id="_clip4">
                            <path d="M44.5,20L24,20L24,28.5L35.8,28.5C34.7,33.9 30.1,37 24,37C16.8,37 11,31.2 11,24C11,16.8 16.8,11 24,11C27.1,11 29.9,12.1 32.1,13.9L38.5,7.5C34.6,4.1 29.6,2 24,2C11.8,2 2,11.8 2,24C2,36.2 11.8,46 24,46C35,46 45,38 45,24C45,22.7 44.8,21.3 44.5,20Z"/>
                        </clipPath>
                        <g clip-path="url(#_clip4)">
                            <path d="M0,37L30,14L37.9,15L48,0L48,48L0,48L0,37Z" style="fill:rgb(52,168,83);fill-rule:nonzero;"/>
                        </g>
                        <clipPath id="_clip5">
                            <path d="M44.5,20L24,20L24,28.5L35.8,28.5C34.7,33.9 30.1,37 24,37C16.8,37 11,31.2 11,24C11,16.8 16.8,11 24,11C27.1,11 29.9,12.1 32.1,13.9L38.5,7.5C34.6,4.1 29.6,2 24,2C11.8,2 2,11.8 2,24C2,36.2 11.8,46 24,46C35,46 45,38 45,24C45,22.7 44.8,21.3 44.5,20Z"/>
                        </clipPath>
                        <g clip-path="url(#_clip5)">
                            <path d="M48,48L17,24L13,21L48,11L48,48Z" style="fill:rgb(66,133,244);fill-rule:nonzero;"/>
                        </g>
                    </g>
                </g>
            </g>
            <g id="Create-Account" serif:id="Create Account" transform="matrix(1,0,0,1,116.712,-4.54747e-13)">
                <g transform="matrix(1.21847,0,0,1,-88.0442,0)">
                    <path d="M403,855.775C403,853.692 401.612,852 399.902,852L127.06,852C125.35,852 123.962,853.692 123.962,855.775L123.962,923.725C123.962,925.808 125.35,927.5 127.06,927.5L399.902,927.5C401.612,927.5 403,925.808 403,923.725L403,855.775Z" style="fill:rgb(127,0,255);"/>
                </g>
                <g transform="matrix(1,0,0,1,-84.125,3.99846)">
                    <text x="214.6px" y="896.132px" style="font-family:'FiraSans-SemiBold', 'Fira Sans', sans-serif;font-weight:600;font-size:30px;fill:white;">C<tspan x="231.34px 242.35px 258.58px 274.99px 285.88px " y="896.132px 896.132px 896.132px 896.132px 896.132px ">reate</tspan> Ac<tspan x="341.05px 354.79px " y="896.132px 896.132px ">co</tspan>unt</text>
                </g>
            </g>
            <g id="Form" transform="matrix(1,0,0,1,0,-9)">
                <g id="Password">
                    <g transform="matrix(1.00533,0,0,0.8125,-0.958068,429.25)">
                        <path d="M876,400C876,397.792 874.551,396 872.767,396L182.945,396C181.161,396 179.712,397.792 179.712,400L179.712,472C179.712,474.208 181.161,476 182.945,476L872.767,476C874.551,476 876,474.208 876,472L876,400Z" style="fill:rgb(228,232,255);"/>
                    </g>
                    <g transform="matrix(1,0,0,1,-66.1824,357.061)">
                        <text x="250.01px" y="387.744px" style="font-family:'OpenSans-SemiBold', 'Open Sans', sans-serif;font-weight:600;font-size:20px;fill:rgb(138,138,138);">Passwor<tspan x="330.166px " y="387.744px ">d</tspan></text>
                    </g>
                </g>
                <g id="Email">
                    <g transform="matrix(1.00533,0,0,0.8125,-0.958068,314.25)">
                        <path d="M876,400C876,397.792 874.551,396 872.767,396L182.945,396C181.161,396 179.712,397.792 179.712,400L179.712,472C179.712,474.208 181.161,476 182.945,476L872.767,476C874.551,476 876,474.208 876,472L876,400Z" style="fill:rgb(228,232,255);"/>
                    </g>
                    <g transform="matrix(1,0,0,1,-66.1824,242.061)">
                        <text x="250.01px" y="387.744px" style="font-family:'OpenSans-SemiBold', 'Open Sans', sans-serif;font-weight:600;font-size:20px;fill:rgb(138,138,138);">Email Addr<tspan x="354.609px 366.133px " y="387.744px 387.744px ">es</tspan>s</text>
                    </g>
                </g>
                <g id="Full-Name" serif:id="Full Name" transform="matrix(1,0,0,1,3.712,-10)">
                    <g id="Last-Name" serif:id="Last Name">
                        <g transform="matrix(0.488304,0,0,0.8125,448.246,209.25)">
                            <path d="M876,400C876,397.792 873.018,396 869.344,396L186.368,396C182.694,396 179.712,397.792 179.712,400L179.712,472C179.712,474.208 182.694,476 186.368,476L869.344,476C873.018,476 876,474.208 876,472L876,400Z" style="fill:rgb(228,232,255);"/>
                        </g>
                        <g transform="matrix(1,0,0,1,290.106,137.061)">
                            <text x="250.01px" y="387.744px" style="font-family:'OpenSans-SemiBold', 'Open Sans', sans-serif;font-weight:600;font-size:20px;fill:rgb(138,138,138);">Last Name</text>
                        </g>
                    </g>
                    <g id="First-Name" serif:id="First Name">
                        <g transform="matrix(0.488304,0,0,0.8125,88.246,209.25)">
                            <path d="M876,400C876,397.792 873.018,396 869.344,396L186.368,396C182.694,396 179.712,397.792 179.712,400L179.712,472C179.712,474.208 182.694,476 186.368,476L869.344,476C873.018,476 876,474.208 876,472L876,400Z" style="fill:rgb(228,232,255);"/>
                        </g>
                        <g transform="matrix(1,0,0,1,-69.8944,137.061)">
                            <text x="250.01px" y="387.744px" style="font-family:'OpenSans-SemiBold', 'Open Sans', sans-serif;font-weight:600;font-size:20px;fill:rgb(138,138,138);">First Name</text>
                        </g>
                    </g>
                </g>
                <g id="Name-Your-Site" serif:id="Name Your Site">
                    <g transform="matrix(1.00533,0,0,0.8125,-0.958068,84.25)">
                        <path d="M876,400C876,397.792 874.551,396 872.767,396L182.945,396C181.161,396 179.712,397.792 179.712,400L179.712,472C179.712,474.208 181.161,476 182.945,476L872.767,476C874.551,476 876,474.208 876,472L876,400Z" style="fill:rgb(228,232,255);"/>
                    </g>
                    <g transform="matrix(1,0,0,1,-66.1824,10.7017)">
                        <text x="250.01px" y="387.744px" style="font-family:'OpenSans-SemiBold', 'Open Sans', sans-serif;font-weight:600;font-size:20px;fill:rgb(138,138,138);">Name your site</text>
                    </g>
                    <g transform="matrix(1,0,0,1,288.321,56.7241)">
                        <text x="363.15px" y="389.317px" style="font-family:'OpenSans-Regular', 'Open Sans', sans-serif;font-size:30px;fill:rgb(164,164,185);">.erpne<tspan x="453.238px 468.955px " y="389.317px 389.317px ">xt</tspan>.com</text>
                    </g>
                </g>
            </g>
            <g transform="matrix(1,0,0,1,-76.5025,-81.3553)">
                <text x="255.639px" y="405.759px" style="font-family:'FiraSans-Bold', 'Fira Sans', sans-serif;font-weight:700;font-size:64px;">Sign Up</text>
            </g>
        </g>
        <g id="Right">
            <rect x="960" y="0" width="960" height="1200" style="fill:rgb(127,0,255);"/>
            <g id="Testimonial-Card" serif:id="Testimonial Card" transform="matrix(0.821832,0,0,0.821832,256.562,106.901)">
                <g transform="matrix(0.985167,0,0,0.985167,-7.21014,35.992)">
                    <path d="M1840,175.42C1840,171.325 1836.67,168 1832.58,168L1105.42,168C1101.33,168 1098,171.325 1098,175.42L1098,969.58C1098,973.675 1101.33,977 1105.42,977L1832.58,977C1836.67,977 1840,973.675 1840,969.58L1840,175.42Z" style="fill:white;"/>
                </g>
                <g id="Quote" transform="matrix(-0.722099,8.84316e-17,-8.84316e-17,-0.722099,1332.67,460.738)">
                    <path d="M0,170.667L64,170.667L21.333,256L85.333,256L128,170.667L128,42.667L0,42.667L0,170.667Z" style="fill:rgb(245,235,255);fill-rule:nonzero;"/>
                    <path d="M170.667,42.667L170.667,170.667L234.667,170.667L192,256L256,256L298.667,170.667L298.667,42.667L170.667,42.667Z" style="fill:rgb(245,235,255);fill-rule:nonzero;"/>
                </g>
                <g id="Testimonal">
                    <g transform="matrix(1,0,0,0.955529,61.5935,153.381)">
                        <g transform="matrix(1,0,0,1.04654,0,-9.71818)">
                            <path d="M1116.31,213.034L1115.29,221.098L1104.34,221.098L1104.34,257.386L1093.85,257.386L1093.85,221.098L1082.39,221.098L1082.39,213.034L1116.31,213.034Z" style="fill-rule:nonzero;"/>
                        </g>
                        <g transform="matrix(1,0,0,1.04654,0,-9.71818)">
                            <path d="M1140.25,222.314C1143.19,222.314 1145.49,223.21 1147.16,225.002C1148.82,226.794 1149.65,229.311 1149.65,232.554L1149.65,257.386L1139.54,257.386L1139.54,234.282C1139.54,232.575 1139.26,231.391 1138.71,230.73C1138.15,230.069 1137.37,229.738 1136.34,229.738C1134.29,229.738 1132.33,231.189 1130.45,234.09L1130.45,257.386L1120.34,257.386L1120.34,209.898L1130.45,208.874L1130.45,227.05C1131.86,225.471 1133.35,224.287 1134.93,223.498C1136.51,222.709 1138.28,222.314 1140.25,222.314Z" style="fill-rule:nonzero;"/>
                        </g>
                        <g transform="matrix(1,0,0,1.04654,0,-9.71818)">
                            <path d="M1186.9,239.722C1186.9,241.13 1186.84,242.346 1186.71,243.37L1165.65,243.37C1165.99,246.229 1166.81,248.234 1168.09,249.386C1169.37,250.538 1171.14,251.114 1173.4,251.114C1174.76,251.114 1176.09,250.869 1177.37,250.378C1178.64,249.887 1180.03,249.13 1181.53,248.106L1185.68,253.738C1181.72,256.895 1177.3,258.474 1172.44,258.474C1166.93,258.474 1162.71,256.853 1159.77,253.61C1156.82,250.367 1155.35,246.015 1155.35,240.554C1155.35,237.098 1155.97,233.994 1157.2,231.242C1158.44,228.49 1160.26,226.314 1162.64,224.714C1165.03,223.114 1167.89,222.314 1171.22,222.314C1176.13,222.314 1179.97,223.85 1182.74,226.922C1185.51,229.994 1186.9,234.261 1186.9,239.722ZM1176.98,236.842C1176.9,231.637 1175.06,229.034 1171.48,229.034C1169.73,229.034 1168.37,229.674 1167.41,230.954C1166.45,232.234 1165.87,234.346 1165.65,237.29L1176.98,237.29L1176.98,236.842Z" style="fill-rule:nonzero;"/>
                        </g>
                        <g transform="matrix(1,0,0,1.04654,0,-9.71818)">
                            <path d="M1237.4,239.722C1237.4,241.13 1237.33,242.346 1237.2,243.37L1216.15,243.37C1216.49,246.229 1217.3,248.234 1218.58,249.386C1219.86,250.538 1221.63,251.114 1223.89,251.114C1225.26,251.114 1226.58,250.869 1227.86,250.378C1229.14,249.887 1230.53,249.13 1232.02,248.106L1236.18,253.738C1232.21,256.895 1227.8,258.474 1222.93,258.474C1217.43,258.474 1213.2,256.853 1210.26,253.61C1207.32,250.367 1205.85,246.015 1205.85,240.554C1205.85,237.098 1206.46,233.994 1207.7,231.242C1208.94,228.49 1210.75,226.314 1213.14,224.714C1215.53,223.114 1218.39,222.314 1221.72,222.314C1226.62,222.314 1230.46,223.85 1233.24,226.922C1236.01,229.994 1237.4,234.261 1237.4,239.722ZM1227.48,236.842C1227.39,231.637 1225.56,229.034 1221.97,229.034C1220.22,229.034 1218.87,229.674 1217.91,230.954C1216.95,232.234 1216.36,234.346 1216.15,237.29L1227.48,237.29L1227.48,236.842Z" style="fill-rule:nonzero;"/>
                        </g>
                        <g transform="matrix(1,0,0,1.04654,0,-9.71818)">
                            <path d="M1269.46,247.53C1269.46,248.81 1269.64,249.749 1270.01,250.346C1270.37,250.943 1270.95,251.391 1271.77,251.69L1269.65,258.282C1267.56,258.111 1265.86,257.653 1264.53,256.906C1263.21,256.159 1262.19,254.975 1261.46,253.354C1259.24,256.767 1255.83,258.474 1251.22,258.474C1247.85,258.474 1245.16,257.493 1243.16,255.53C1241.15,253.567 1240.15,251.007 1240.15,247.85C1240.15,244.138 1241.51,241.301 1244.25,239.338C1246.98,237.375 1250.92,236.394 1256.09,236.394L1259.54,236.394L1259.54,234.922C1259.54,232.917 1259.11,231.541 1258.26,230.794C1257.41,230.047 1255.91,229.674 1253.78,229.674C1252.67,229.674 1251.33,229.834 1249.75,230.154C1248.17,230.474 1246.55,230.911 1244.88,231.466L1242.58,224.81C1244.71,223.999 1246.9,223.381 1249.14,222.954C1251.38,222.527 1253.46,222.314 1255.38,222.314C1260.25,222.314 1263.81,223.317 1266.07,225.322C1268.33,227.327 1269.46,230.335 1269.46,234.346L1269.46,247.53ZM1254.16,251.242C1256.47,251.242 1258.26,250.154 1259.54,247.978L1259.54,241.962L1257.05,241.962C1254.74,241.962 1253.02,242.367 1251.89,243.178C1250.76,243.989 1250.2,245.247 1250.2,246.954C1250.2,248.319 1250.55,249.375 1251.25,250.122C1251.96,250.869 1252.93,251.242 1254.16,251.242Z" style="fill-rule:nonzero;"/>
                        </g>
                        <g transform="matrix(1,0,0,1.04654,0,-9.71818)">
                            <path d="M1288.85,222.314C1291.29,222.314 1293.57,222.677 1295.7,223.402C1297.83,224.127 1299.71,225.151 1301.33,226.474L1297.62,232.17C1294.85,230.421 1292.05,229.546 1289.24,229.546C1287.91,229.546 1286.9,229.77 1286.2,230.218C1285.49,230.666 1285.14,231.295 1285.14,232.106C1285.14,232.746 1285.3,233.269 1285.62,233.674C1285.94,234.079 1286.59,234.495 1287.57,234.922C1288.55,235.349 1290.07,235.861 1292.12,236.458C1295.66,237.482 1298.29,238.815 1300.02,240.458C1301.75,242.101 1302.61,244.373 1302.61,247.274C1302.61,249.578 1301.95,251.573 1300.63,253.258C1299.31,254.943 1297.49,256.234 1295.19,257.13C1292.88,258.026 1290.33,258.474 1287.51,258.474C1284.65,258.474 1281.99,258.026 1279.54,257.13C1277.09,256.234 1275.01,254.997 1273.3,253.418L1278.23,247.914C1281.09,250.133 1284.1,251.242 1287.25,251.242C1288.79,251.242 1289.99,250.965 1290.87,250.41C1291.74,249.855 1292.18,249.066 1292.18,248.042C1292.18,247.231 1292.01,246.591 1291.67,246.122C1291.33,245.653 1290.67,245.215 1289.68,244.81C1288.7,244.405 1287.15,243.903 1285.01,243.306C1281.64,242.325 1279.12,240.959 1277.46,239.21C1275.8,237.461 1274.96,235.285 1274.96,232.682C1274.96,230.719 1275.53,228.959 1276.66,227.402C1277.79,225.845 1279.41,224.607 1281.53,223.69C1283.64,222.773 1286.08,222.314 1288.85,222.314Z" style="fill-rule:nonzero;"/>
                        </g>
                        <g transform="matrix(1,0,0,1.04654,0,-9.71818)">
                            <path d="M1337.43,239.722C1337.43,241.13 1337.37,242.346 1337.24,243.37L1316.18,243.37C1316.52,246.229 1317.33,248.234 1318.61,249.386C1319.89,250.538 1321.66,251.114 1323.92,251.114C1325.29,251.114 1326.61,250.869 1327.89,250.378C1329.17,249.887 1330.56,249.13 1332.05,248.106L1336.21,253.738C1332.25,256.895 1327.83,258.474 1322.96,258.474C1317.46,258.474 1313.24,256.853 1310.29,253.61C1307.35,250.367 1305.88,246.015 1305.88,240.554C1305.88,237.098 1306.5,233.994 1307.73,231.242C1308.97,228.49 1310.78,226.314 1313.17,224.714C1315.56,223.114 1318.42,222.314 1321.75,222.314C1326.66,222.314 1330.5,223.85 1333.27,226.922C1336.04,229.994 1337.43,234.261 1337.43,239.722ZM1327.51,236.842C1327.42,231.637 1325.59,229.034 1322.01,229.034C1320.26,229.034 1318.9,229.674 1317.94,230.954C1316.98,232.234 1316.39,234.346 1316.18,237.29L1327.51,237.29L1327.51,236.842Z" style="fill-rule:nonzero;"/>
                        </g>
                        <g transform="matrix(1,0,0,1.04654,0,-9.71818)">
                            <path d="M1373.01,222.314C1378.22,222.314 1382.29,223.903 1385.24,227.082C1388.18,230.261 1389.65,234.709 1389.65,240.426C1389.65,244.053 1388.98,247.221 1387.64,249.93C1386.29,252.639 1384.37,254.741 1381.88,256.234C1379.38,257.727 1376.43,258.474 1373.01,258.474C1367.85,258.474 1363.79,256.885 1360.82,253.706C1357.86,250.527 1356.37,246.079 1356.37,240.362C1356.37,236.735 1357.05,233.567 1358.39,230.858C1359.73,228.149 1361.65,226.047 1364.15,224.554C1366.64,223.061 1369.6,222.314 1373.01,222.314ZM1373.01,229.738C1370.96,229.738 1369.43,230.602 1368.4,232.33C1367.38,234.058 1366.87,236.735 1366.87,240.362C1366.87,244.074 1367.37,246.783 1368.37,248.49C1369.38,250.197 1370.92,251.05 1373.01,251.05C1375.06,251.05 1376.6,250.186 1377.62,248.458C1378.64,246.73 1379.16,244.053 1379.16,240.426C1379.16,236.714 1378.66,234.005 1377.65,232.298C1376.65,230.591 1375.1,229.738 1373.01,229.738Z" style="fill-rule:nonzero;"/>
                        </g>
                        <g transform="matrix(1,0,0,1.04654,0,-9.71818)">
                            <path d="M1411.22,216.298C1409.77,216.298 1408.73,216.639 1408.09,217.322C1407.44,218.005 1407.12,219.157 1407.12,220.778L1407.12,223.402L1415.12,223.402L1414.04,230.442L1407.12,230.442L1407.12,257.386L1397.01,257.386L1397.01,230.442L1391.89,230.442L1391.89,223.402L1397.01,223.402L1397.01,220.394C1397.01,216.981 1398.13,214.197 1400.37,212.042C1402.61,209.887 1405.82,208.81 1410.01,208.81C1413.38,208.81 1416.47,209.535 1419.29,210.986L1416.53,217.578C1414.83,216.725 1413.06,216.298 1411.22,216.298Z" style="fill-rule:nonzero;"/>
                        </g>
                        <g transform="matrix(1,0,0,1.04654,0,-9.71818)">
                            <path d="M1100.5,286.314C1102.85,286.314 1104.96,286.655 1106.84,287.338C1108.71,288.021 1110.49,289.066 1112.15,290.474L1107.8,296.49C1105.66,294.869 1103.51,294.058 1101.33,294.058C1099.07,294.058 1097.37,294.89 1096.21,296.554C1095.06,298.218 1094.49,300.906 1094.49,304.618C1094.49,308.202 1095.06,310.741 1096.21,312.234C1097.37,313.727 1099.03,314.474 1101.2,314.474C1102.36,314.474 1103.4,314.293 1104.34,313.93C1105.28,313.567 1106.41,312.981 1107.73,312.17L1112.15,318.442C1108.78,321.13 1104.96,322.474 1100.69,322.474C1097.24,322.474 1094.25,321.738 1091.73,320.266C1089.22,318.794 1087.27,316.725 1085.91,314.058C1084.54,311.391 1083.86,308.266 1083.86,304.682C1083.86,301.098 1084.54,297.919 1085.91,295.146C1087.27,292.373 1089.22,290.207 1091.73,288.65C1094.25,287.093 1097.17,286.314 1100.5,286.314Z" style="fill-rule:nonzero;"/>
                        </g>
                        <g transform="matrix(1,0,0,1.04654,0,-9.71818)">
                            <path d="M1129.88,286.314C1135.08,286.314 1139.16,287.903 1142.1,291.082C1145.05,294.261 1146.52,298.709 1146.52,304.426C1146.52,308.053 1145.85,311.221 1144.5,313.93C1143.16,316.639 1141.24,318.741 1138.74,320.234C1136.25,321.727 1133.29,322.474 1129.88,322.474C1124.71,322.474 1120.65,320.885 1117.68,317.706C1114.72,314.527 1113.24,310.079 1113.24,304.362C1113.24,300.735 1113.91,297.567 1115.25,294.858C1116.6,292.149 1118.52,290.047 1121.01,288.554C1123.51,287.061 1126.46,286.314 1129.88,286.314ZM1129.88,293.738C1127.83,293.738 1126.29,294.602 1125.27,296.33C1124.25,298.058 1123.73,300.735 1123.73,304.362C1123.73,308.074 1124.23,310.783 1125.24,312.49C1126.24,314.197 1127.79,315.05 1129.88,315.05C1131.92,315.05 1133.46,314.186 1134.49,312.458C1135.51,310.73 1136.02,308.053 1136.02,304.426C1136.02,300.714 1135.52,298.005 1134.52,296.298C1133.51,294.591 1131.97,293.738 1129.88,293.738Z" style="fill-rule:nonzero;"/>
                        </g>
                        <g transform="matrix(1,0,0,1.04654,0,-9.71818)">
                            <path d="M1172.44,286.314C1175.38,286.314 1177.68,287.21 1179.35,289.002C1181.01,290.794 1181.85,293.311 1181.85,296.554L1181.85,321.386L1171.73,321.386L1171.73,298.282C1171.73,296.575 1171.47,295.391 1170.93,294.73C1170.4,294.069 1169.6,293.738 1168.53,293.738C1166.49,293.738 1164.52,295.21 1162.64,298.154L1162.64,321.386L1152.53,321.386L1152.53,287.402L1161.37,287.402L1162.07,291.434C1163.52,289.727 1165.09,288.447 1166.77,287.594C1168.46,286.741 1170.35,286.314 1172.44,286.314Z" style="fill-rule:nonzero;"/>
                        </g>
                        <g transform="matrix(1,0,0,1.04654,0,-9.71818)">
                            <path d="M1205.01,272.81C1209.02,272.81 1212.78,273.663 1216.28,275.37L1213.46,281.834C1210.94,280.81 1208.51,280.298 1206.16,280.298C1204.2,280.298 1202.85,280.639 1202.1,281.322C1201.35,282.005 1200.98,283.178 1200.98,284.842L1200.98,287.402L1219.86,287.402L1219.86,321.386L1209.75,321.386L1209.75,294.442L1200.98,294.442L1200.98,321.386L1190.87,321.386L1190.87,294.442L1185.68,294.442L1185.68,287.402L1190.87,287.402L1190.87,284.458C1190.87,280.959 1192.02,278.143 1194.33,276.01C1196.63,273.877 1200.19,272.81 1205.01,272.81Z" style="fill-rule:nonzero;"/>
                        </g>
                        <g transform="matrix(1,0,0,1.04654,0,-9.71818)">
                            <path d="M1259.09,289.386C1256.87,290.282 1253.61,290.73 1249.3,290.73C1251.52,291.669 1253.14,292.821 1254.16,294.186C1255.19,295.551 1255.7,297.322 1255.7,299.498C1255.7,301.674 1255.12,303.626 1253.97,305.354C1252.82,307.082 1251.17,308.437 1249.01,309.418C1246.86,310.399 1244.33,310.89 1241.43,310.89C1240.06,310.89 1238.76,310.762 1237.53,310.506C1237.18,310.677 1236.92,310.943 1236.73,311.306C1236.53,311.669 1236.44,312.042 1236.44,312.426C1236.44,313.066 1236.68,313.567 1237.17,313.93C1237.66,314.293 1238.66,314.474 1240.15,314.474L1245.27,314.474C1247.87,314.474 1250.15,314.901 1252.12,315.754C1254.08,316.607 1255.59,317.781 1256.66,319.274C1257.73,320.767 1258.26,322.453 1258.26,324.33C1258.26,327.871 1256.74,330.634 1253.68,332.618C1250.63,334.602 1246.23,335.594 1240.47,335.594C1236.33,335.594 1233.07,335.157 1230.68,334.282C1228.29,333.407 1226.61,332.181 1225.65,330.602C1224.69,329.023 1224.21,327.039 1224.21,324.65L1233.3,324.65C1233.3,325.674 1233.5,326.485 1233.91,327.082C1234.31,327.679 1235.05,328.127 1236.12,328.426C1237.18,328.725 1238.72,328.874 1240.73,328.874C1243.5,328.874 1245.42,328.543 1246.49,327.882C1247.55,327.221 1248.09,326.271 1248.09,325.034C1248.09,324.01 1247.68,323.199 1246.87,322.602C1246.06,322.005 1244.84,321.706 1243.22,321.706L1238.29,321.706C1234.79,321.706 1232.18,321.077 1230.45,319.818C1228.73,318.559 1227.86,316.949 1227.86,314.986C1227.86,313.749 1228.22,312.543 1228.95,311.37C1229.67,310.197 1230.66,309.226 1231.89,308.458C1229.76,307.306 1228.21,305.951 1227.25,304.394C1226.29,302.837 1225.81,300.949 1225.81,298.73C1225.81,294.933 1227.18,291.914 1229.91,289.674C1232.64,287.434 1236.25,286.314 1240.73,286.314C1244.14,286.399 1247.03,286.058 1249.4,285.29C1251.77,284.522 1254.21,283.391 1256.73,281.898L1259.09,289.386ZM1240.98,292.97C1239.4,292.97 1238.15,293.471 1237.24,294.474C1236.32,295.477 1235.86,296.853 1235.86,298.602C1235.86,300.437 1236.32,301.855 1237.24,302.858C1238.15,303.861 1239.4,304.362 1240.98,304.362C1242.64,304.362 1243.91,303.871 1244.79,302.89C1245.66,301.909 1246.1,300.437 1246.1,298.474C1246.1,294.805 1244.39,292.97 1240.98,292.97Z" style="fill-rule:nonzero;"/>
                        </g>
                        <g transform="matrix(1,0,0,1.04654,0,-9.71818)">
                            <path d="M1291.09,321.386L1282.33,321.386L1281.88,317.098C1279.4,320.682 1275.97,322.474 1271.57,322.474C1268.46,322.474 1266.1,321.535 1264.5,319.658C1262.9,317.781 1262.1,315.157 1262.1,311.786L1262.1,287.402L1272.21,287.402L1272.21,310.506C1272.21,312.17 1272.48,313.333 1273.01,313.994C1273.55,314.655 1274.37,314.986 1275.48,314.986C1277.61,314.986 1279.44,313.663 1280.98,311.018L1280.98,287.402L1291.09,287.402L1291.09,321.386Z" style="fill-rule:nonzero;"/>
                        </g>
                        <g transform="matrix(1,0,0,1.04654,0,-9.71818)">
                            <path d="M1317.46,286.442C1318.7,286.442 1319.83,286.591 1320.85,286.89L1319.25,296.682C1317.97,296.383 1316.95,296.234 1316.18,296.234C1314.18,296.234 1312.65,296.927 1311.61,298.314C1310.56,299.701 1309.74,301.781 1309.14,304.554L1309.14,321.386L1299.03,321.386L1299.03,287.402L1307.86,287.402L1308.69,293.994C1309.46,291.647 1310.62,289.802 1312.18,288.458C1313.74,287.114 1315.5,286.442 1317.46,286.442Z" style="fill-rule:nonzero;"/>
                        </g>
                        <g transform="matrix(1,0,0,1.04654,0,-9.71818)">
                            <path d="M1334.81,287.402L1334.81,321.386L1324.69,321.386L1324.69,287.402L1334.81,287.402ZM1329.68,269.482C1331.43,269.482 1332.87,270.026 1334.01,271.114C1335.14,272.202 1335.7,273.578 1335.7,275.242C1335.7,276.906 1335.14,278.282 1334.01,279.37C1332.87,280.458 1331.43,281.002 1329.68,281.002C1327.94,281.002 1326.51,280.458 1325.4,279.37C1324.29,278.282 1323.73,276.906 1323.73,275.242C1323.73,273.578 1324.29,272.202 1325.4,271.114C1326.51,270.026 1327.94,269.482 1329.68,269.482Z" style="fill-rule:nonzero;"/>
                        </g>
                        <g transform="matrix(1,0,0,1.04654,0,-9.71818)">
                            <path d="M1362.64,286.314C1365.59,286.314 1367.89,287.21 1369.56,289.002C1371.22,290.794 1372.05,293.311 1372.05,296.554L1372.05,321.386L1361.94,321.386L1361.94,298.282C1361.94,296.575 1361.67,295.391 1361.14,294.73C1360.61,294.069 1359.81,293.738 1358.74,293.738C1356.69,293.738 1354.73,295.21 1352.85,298.154L1352.85,321.386L1342.74,321.386L1342.74,287.402L1351.57,287.402L1352.28,291.434C1353.73,289.727 1355.3,288.447 1356.98,287.594C1358.67,286.741 1360.55,286.314 1362.64,286.314Z" style="fill-rule:nonzero;"/>
                        </g>
                        <g transform="matrix(1,0,0,1.04654,0,-9.71818)">
                            <path d="M1410.96,289.386C1408.75,290.282 1405.48,290.73 1401.17,290.73C1403.39,291.669 1405.01,292.821 1406.04,294.186C1407.06,295.551 1407.57,297.322 1407.57,299.498C1407.57,301.674 1407,303.626 1405.85,305.354C1404.69,307.082 1403.04,308.437 1400.88,309.418C1398.73,310.399 1396.2,310.89 1393.3,310.89C1391.94,310.89 1390.63,310.762 1389.4,310.506C1389.06,310.677 1388.79,310.943 1388.6,311.306C1388.4,311.669 1388.31,312.042 1388.31,312.426C1388.31,313.066 1388.55,313.567 1389.05,313.93C1389.54,314.293 1390.53,314.474 1392.02,314.474L1397.14,314.474C1399.74,314.474 1402.03,314.901 1403.99,315.754C1405.95,316.607 1407.47,317.781 1408.53,319.274C1409.6,320.767 1410.13,322.453 1410.13,324.33C1410.13,327.871 1408.61,330.634 1405.56,332.618C1402.51,334.602 1398.1,335.594 1392.34,335.594C1388.2,335.594 1384.94,335.157 1382.55,334.282C1380.16,333.407 1378.49,332.181 1377.53,330.602C1376.57,329.023 1376.09,327.039 1376.09,324.65L1385.17,324.65C1385.17,325.674 1385.38,326.485 1385.78,327.082C1386.19,327.679 1386.92,328.127 1387.99,328.426C1389.06,328.725 1390.59,328.874 1392.6,328.874C1395.37,328.874 1397.29,328.543 1398.36,327.882C1399.42,327.221 1399.96,326.271 1399.96,325.034C1399.96,324.01 1399.55,323.199 1398.74,322.602C1397.93,322.005 1396.71,321.706 1395.09,321.706L1390.16,321.706C1386.67,321.706 1384.05,321.077 1382.33,319.818C1380.6,318.559 1379.73,316.949 1379.73,314.986C1379.73,313.749 1380.1,312.543 1380.82,311.37C1381.55,310.197 1382.53,309.226 1383.77,308.458C1381.63,307.306 1380.09,305.951 1379.12,304.394C1378.16,302.837 1377.68,300.949 1377.68,298.73C1377.68,294.933 1379.05,291.914 1381.78,289.674C1384.51,287.434 1388.12,286.314 1392.6,286.314C1396.01,286.399 1398.9,286.058 1401.27,285.29C1403.64,284.522 1406.08,283.391 1408.6,281.898L1410.96,289.386ZM1392.85,292.97C1391.27,292.97 1390.03,293.471 1389.11,294.474C1388.19,295.477 1387.73,296.853 1387.73,298.602C1387.73,300.437 1388.19,301.855 1389.11,302.858C1390.03,303.861 1391.27,304.362 1392.85,304.362C1394.52,304.362 1395.79,303.871 1396.66,302.89C1397.54,301.909 1397.97,300.437 1397.97,298.474C1397.97,294.805 1396.27,292.97 1392.85,292.97Z" style="fill-rule:nonzero;"/>
                        </g>
                        <g transform="matrix(1,0,0,1.04654,0,-9.71818)">
                            <path d="M1457.11,311.53C1457.11,312.81 1457.29,313.749 1457.65,314.346C1458.02,314.943 1458.6,315.391 1459.41,315.69L1457.3,322.282C1455.21,322.111 1453.5,321.653 1452.18,320.906C1450.86,320.159 1449.83,318.975 1449.11,317.354C1446.89,320.767 1443.48,322.474 1438.87,322.474C1435.5,322.474 1432.81,321.493 1430.81,319.53C1428.8,317.567 1427.8,315.007 1427.8,311.85C1427.8,308.138 1429.16,305.301 1431.89,303.338C1434.62,301.375 1438.57,300.394 1443.73,300.394L1447.19,300.394L1447.19,298.922C1447.19,296.917 1446.76,295.541 1445.91,294.794C1445.06,294.047 1443.56,293.674 1441.43,293.674C1440.32,293.674 1438.98,293.834 1437.4,294.154C1435.82,294.474 1434.2,294.911 1432.53,295.466L1430.23,288.81C1432.36,287.999 1434.55,287.381 1436.79,286.954C1439.03,286.527 1441.11,286.314 1443.03,286.314C1447.89,286.314 1451.46,287.317 1453.72,289.322C1455.98,291.327 1457.11,294.335 1457.11,298.346L1457.11,311.53ZM1441.81,315.242C1444.12,315.242 1445.91,314.154 1447.19,311.978L1447.19,305.962L1444.69,305.962C1442.39,305.962 1440.67,306.367 1439.54,307.178C1438.41,307.989 1437.85,309.247 1437.85,310.954C1437.85,312.319 1438.2,313.375 1438.9,314.122C1439.61,314.869 1440.58,315.242 1441.81,315.242Z" style="fill-rule:nonzero;"/>
                        </g>
                        <g transform="matrix(1,0,0,1.04654,0,-9.71818)">
                            <path d="M1473.56,322.474C1470.61,322.474 1468.32,321.631 1466.68,319.946C1465.03,318.261 1464.21,315.861 1464.21,312.746L1464.21,273.898L1474.33,272.81L1474.33,312.362C1474.33,313.77 1474.9,314.474 1476.05,314.474C1476.65,314.474 1477.2,314.367 1477.72,314.154L1479.7,321.322C1477.87,322.09 1475.82,322.474 1473.56,322.474Z" style="fill-rule:nonzero;"/>
                        </g>
                        <g transform="matrix(1,0,0,1.04654,0,-9.71818)">
                            <path d="M1492.57,322.474C1489.62,322.474 1487.33,321.631 1485.68,319.946C1484.04,318.261 1483.22,315.861 1483.22,312.746L1483.22,273.898L1493.33,272.81L1493.33,312.362C1493.33,313.77 1493.91,314.474 1495.06,314.474C1495.66,314.474 1496.21,314.367 1496.73,314.154L1498.71,321.322C1496.87,322.09 1494.83,322.474 1492.57,322.474Z" style="fill-rule:nonzero;"/>
                        </g>
                        <g transform="matrix(1,0,0,1.04654,0,-9.71818)">
                            <path d="M1123.35,350.314C1126.04,350.314 1128.19,351.221 1129.81,353.034C1131.43,354.847 1132.25,357.354 1132.25,360.554L1132.25,385.386L1122.13,385.386L1122.13,362.282C1122.13,359.253 1121.17,357.738 1119.25,357.738C1118.19,357.738 1117.25,358.101 1116.44,358.826C1115.63,359.551 1114.84,360.661 1114.07,362.154L1114.07,385.386L1103.96,385.386L1103.96,362.282C1103.96,359.253 1103,357.738 1101.08,357.738C1100.05,357.738 1099.12,358.111 1098.29,358.858C1097.46,359.605 1096.66,360.703 1095.89,362.154L1095.89,385.386L1085.78,385.386L1085.78,351.402L1094.61,351.402L1095.32,355.37C1096.64,353.663 1098.1,352.394 1099.7,351.562C1101.3,350.73 1103.12,350.314 1105.17,350.314C1107.09,350.314 1108.75,350.783 1110.13,351.722C1111.52,352.661 1112.53,353.983 1113.17,355.69C1114.54,353.855 1116.04,352.501 1117.68,351.626C1119.33,350.751 1121.22,350.314 1123.35,350.314Z" style="fill-rule:nonzero;"/>
                        </g>
                        <g transform="matrix(1,0,0,1.04654,0,-9.71818)">
                            <path d="M1154.58,350.314C1159.79,350.314 1163.86,351.903 1166.81,355.082C1169.75,358.261 1171.22,362.709 1171.22,368.426C1171.22,372.053 1170.55,375.221 1169.2,377.93C1167.86,380.639 1165.94,382.741 1163.44,384.234C1160.95,385.727 1157.99,386.474 1154.58,386.474C1149.42,386.474 1145.35,384.885 1142.39,381.706C1139.42,378.527 1137.94,374.079 1137.94,368.362C1137.94,364.735 1138.61,361.567 1139.96,358.858C1141.3,356.149 1143.22,354.047 1145.72,352.554C1148.21,351.061 1151.17,350.314 1154.58,350.314ZM1154.58,357.738C1152.53,357.738 1151,358.602 1149.97,360.33C1148.95,362.058 1148.44,364.735 1148.44,368.362C1148.44,372.074 1148.94,374.783 1149.94,376.49C1150.94,378.197 1152.49,379.05 1154.58,379.05C1156.63,379.05 1158.16,378.186 1159.19,376.458C1160.21,374.73 1160.73,372.053 1160.73,368.426C1160.73,364.714 1160.22,362.005 1159.22,360.298C1158.22,358.591 1156.67,357.738 1154.58,357.738Z" style="fill-rule:nonzero;"/>
                        </g>
                        <g transform="matrix(1,0,0,1.04654,0,-9.71818)">
                            <path d="M1207.7,337.898L1207.7,385.386L1198.74,385.386L1198.23,381.418C1195.84,384.789 1192.62,386.474 1188.57,386.474C1184.34,386.474 1181.13,384.853 1178.93,381.61C1176.74,378.367 1175.64,373.93 1175.64,368.298C1175.64,364.842 1176.21,361.749 1177.37,359.018C1178.52,356.287 1180.15,354.154 1182.26,352.618C1184.37,351.082 1186.79,350.314 1189.53,350.314C1192.77,350.314 1195.46,351.381 1197.59,353.514L1197.59,336.81L1207.7,337.898ZM1191.7,379.05C1194.05,379.05 1196.01,377.77 1197.59,375.21L1197.59,360.554C1196.78,359.573 1195.96,358.847 1195.12,358.378C1194.29,357.909 1193.34,357.674 1192.28,357.674C1190.4,357.674 1188.91,358.549 1187.8,360.298C1186.69,362.047 1186.13,364.735 1186.13,368.362C1186.13,372.33 1186.61,375.103 1187.57,376.682C1188.53,378.261 1189.91,379.05 1191.7,379.05Z" style="fill-rule:nonzero;"/>
                        </g>
                        <g transform="matrix(1,0,0,1.04654,0,-9.71818)">
                            <path d="M1244.31,385.386L1235.54,385.386L1235.09,381.098C1232.62,384.682 1229.18,386.474 1224.79,386.474C1221.67,386.474 1219.32,385.535 1217.72,383.658C1216.12,381.781 1215.32,379.157 1215.32,375.786L1215.32,351.402L1225.43,351.402L1225.43,374.506C1225.43,376.17 1225.7,377.333 1226.23,377.994C1226.76,378.655 1227.58,378.986 1228.69,378.986C1230.83,378.986 1232.66,377.663 1234.2,375.018L1234.2,351.402L1244.31,351.402L1244.31,385.386Z" style="fill-rule:nonzero;"/>
                        </g>
                        <g transform="matrix(1,0,0,1.04654,0,-9.71818)">
                            <path d="M1261.27,386.474C1258.33,386.474 1256.03,385.631 1254.39,383.946C1252.75,382.261 1251.92,379.861 1251.92,376.746L1251.92,337.898L1262.04,336.81L1262.04,376.362C1262.04,377.77 1262.61,378.474 1263.77,378.474C1264.36,378.474 1264.92,378.367 1265.43,378.154L1267.41,385.322C1265.58,386.09 1263.53,386.474 1261.27,386.474Z" style="fill-rule:nonzero;"/>
                        </g>
                        <g transform="matrix(1,0,0,1.04654,0,-9.71818)">
                            <path d="M1300.57,367.722C1300.57,369.13 1300.5,370.346 1300.37,371.37L1279.32,371.37C1279.66,374.229 1280.47,376.234 1281.75,377.386C1283.03,378.538 1284.8,379.114 1287.06,379.114C1288.43,379.114 1289.75,378.869 1291.03,378.378C1292.31,377.887 1293.7,377.13 1295.19,376.106L1299.35,381.738C1295.38,384.895 1290.96,386.474 1286.1,386.474C1280.6,386.474 1276.37,384.853 1273.43,381.61C1270.49,378.367 1269.01,374.015 1269.01,368.554C1269.01,365.098 1269.63,361.994 1270.87,359.242C1272.11,356.49 1273.92,354.314 1276.31,352.714C1278.7,351.114 1281.56,350.314 1284.88,350.314C1289.79,350.314 1293.63,351.85 1296.4,354.922C1299.18,357.994 1300.57,362.261 1300.57,367.722ZM1290.64,364.842C1290.56,359.637 1288.73,357.034 1285.14,357.034C1283.39,357.034 1282.04,357.674 1281.08,358.954C1280.12,360.234 1279.53,362.346 1279.32,365.29L1290.64,365.29L1290.64,364.842Z" style="fill-rule:nonzero;"/>
                        </g>
                        <g transform="matrix(1,0,0,1.04654,0,-9.71818)">
                            <path d="M1318.23,350.314C1320.66,350.314 1322.94,350.677 1325.08,351.402C1327.21,352.127 1329.09,353.151 1330.71,354.474L1327,360.17C1324.22,358.421 1321.43,357.546 1318.61,357.546C1317.29,357.546 1316.28,357.77 1315.57,358.218C1314.87,358.666 1314.52,359.295 1314.52,360.106C1314.52,360.746 1314.68,361.269 1315,361.674C1315.32,362.079 1315.97,362.495 1316.95,362.922C1317.93,363.349 1319.44,363.861 1321.49,364.458C1325.03,365.482 1327.67,366.815 1329.4,368.458C1331.12,370.101 1331.99,372.373 1331.99,375.274C1331.99,377.578 1331.33,379.573 1330.01,381.258C1328.68,382.943 1326.87,384.234 1324.57,385.13C1322.26,386.026 1319.7,386.474 1316.88,386.474C1314.03,386.474 1311.37,386.026 1308.92,385.13C1306.46,384.234 1304.38,382.997 1302.68,381.418L1307.61,375.914C1310.46,378.133 1313.47,379.242 1316.63,379.242C1318.16,379.242 1319.37,378.965 1320.25,378.41C1321.12,377.855 1321.56,377.066 1321.56,376.042C1321.56,375.231 1321.39,374.591 1321.05,374.122C1320.7,373.653 1320.04,373.215 1319.06,372.81C1318.08,372.405 1316.52,371.903 1314.39,371.306C1311.02,370.325 1308.5,368.959 1306.84,367.21C1305.17,365.461 1304.34,363.285 1304.34,360.682C1304.34,358.719 1304.91,356.959 1306.04,355.402C1307.17,353.845 1308.79,352.607 1310.9,351.69C1313.01,350.773 1315.46,350.314 1318.23,350.314Z" style="fill-rule:nonzero;"/>
                        </g>
                        <g transform="matrix(1,0,0,1.04654,0,-9.71818)">
                            <path d="M1373.65,383.786C1372.42,384.639 1370.98,385.301 1369.33,385.77C1367.69,386.239 1366.06,386.474 1364.44,386.474C1357.01,386.431 1353.3,382.335 1353.3,374.186L1353.3,358.442L1348.5,358.442L1348.5,351.402L1353.3,351.402L1353.3,344.042L1363.41,342.89L1363.41,351.402L1371.22,351.402L1370.13,358.442L1363.41,358.442L1363.41,374.058C1363.41,375.637 1363.67,376.767 1364.18,377.45C1364.69,378.133 1365.5,378.474 1366.61,378.474C1367.77,378.474 1368.98,378.111 1370.26,377.386L1373.65,383.786Z" style="fill-rule:nonzero;"/>
                        </g>
                        <g transform="matrix(1,0,0,1.04654,0,-9.71818)">
                            <path d="M1390.61,350.314C1395.82,350.314 1399.89,351.903 1402.84,355.082C1405.78,358.261 1407.25,362.709 1407.25,368.426C1407.25,372.053 1406.58,375.221 1405.24,377.93C1403.89,380.639 1401.97,382.741 1399.48,384.234C1396.98,385.727 1394.03,386.474 1390.61,386.474C1385.45,386.474 1381.39,384.885 1378.42,381.706C1375.46,378.527 1373.97,374.079 1373.97,368.362C1373.97,364.735 1374.64,361.567 1375.99,358.858C1377.33,356.149 1379.25,354.047 1381.75,352.554C1384.25,351.061 1387.2,350.314 1390.61,350.314ZM1390.61,357.738C1388.57,357.738 1387.03,358.602 1386.01,360.33C1384.98,362.058 1384.47,364.735 1384.47,368.362C1384.47,372.074 1384.97,374.783 1385.97,376.49C1386.98,378.197 1388.52,379.05 1390.61,379.05C1392.66,379.05 1394.2,378.186 1395.22,376.458C1396.25,374.73 1396.76,372.053 1396.76,368.426C1396.76,364.714 1396.26,362.005 1395.25,360.298C1394.25,358.591 1392.7,357.738 1390.61,357.738Z" style="fill-rule:nonzero;"/>
                        </g>
                        <g transform="matrix(1,0,0,1.04654,0,-9.71818)">
                            <path d="M1440.4,350.314C1442.84,350.314 1445.12,350.677 1447.25,351.402C1449.39,352.127 1451.26,353.151 1452.88,354.474L1449.17,360.17C1446.4,358.421 1443.61,357.546 1440.79,357.546C1439.47,357.546 1438.45,357.77 1437.75,358.218C1437.05,358.666 1436.69,359.295 1436.69,360.106C1436.69,360.746 1436.85,361.269 1437.17,361.674C1437.49,362.079 1438.14,362.495 1439.12,362.922C1440.11,363.349 1441.62,363.861 1443.67,364.458C1447.21,365.482 1449.85,366.815 1451.57,368.458C1453.3,370.101 1454.16,372.373 1454.16,375.274C1454.16,377.578 1453.5,379.573 1452.18,381.258C1450.86,382.943 1449.05,384.234 1446.74,385.13C1444.44,386.026 1441.88,386.474 1439.06,386.474C1436.2,386.474 1433.55,386.026 1431.09,385.13C1428.64,384.234 1426.56,382.997 1424.85,381.418L1429.78,375.914C1432.64,378.133 1435.65,379.242 1438.81,379.242C1440.34,379.242 1441.55,378.965 1442.42,378.41C1443.3,377.855 1443.73,377.066 1443.73,376.042C1443.73,375.231 1443.56,374.591 1443.22,374.122C1442.88,373.653 1442.22,373.215 1441.24,372.81C1440.26,372.405 1438.7,371.903 1436.57,371.306C1433.19,370.325 1430.68,368.959 1429.01,367.21C1427.35,365.461 1426.52,363.285 1426.52,360.682C1426.52,358.719 1427.08,356.959 1428.21,355.402C1429.34,353.845 1430.96,352.607 1433.08,351.69C1435.19,350.773 1437.63,350.314 1440.4,350.314Z" style="fill-rule:nonzero;"/>
                        </g>
                        <g transform="matrix(1,0,0,1.04654,0,-9.71818)">
                            <path d="M1488.02,385.386L1479.25,385.386L1478.81,381.098C1476.33,384.682 1472.9,386.474 1468.5,386.474C1465.39,386.474 1463.03,385.535 1461.43,383.658C1459.83,381.781 1459.03,379.157 1459.03,375.786L1459.03,351.402L1469.14,351.402L1469.14,374.506C1469.14,376.17 1469.41,377.333 1469.94,377.994C1470.47,378.655 1471.3,378.986 1472.4,378.986C1474.54,378.986 1476.37,377.663 1477.91,375.018L1477.91,351.402L1488.02,351.402L1488.02,385.386Z" style="fill-rule:nonzero;"/>
                        </g>
                        <g transform="matrix(1,0,0,1.04654,0,-9.71818)">
                            <path d="M1506.07,351.402L1506.07,385.386L1495.96,385.386L1495.96,351.402L1506.07,351.402ZM1500.95,333.482C1502.7,333.482 1504.14,334.026 1505.27,335.114C1506.4,336.202 1506.96,337.578 1506.96,339.242C1506.96,340.906 1506.4,342.282 1505.27,343.37C1504.14,344.458 1502.7,345.002 1500.95,345.002C1499.2,345.002 1497.77,344.458 1496.66,343.37C1495.55,342.282 1495,340.906 1495,339.242C1495,337.578 1495.55,336.202 1496.66,335.114C1497.77,334.026 1499.2,333.482 1500.95,333.482Z" style="fill-rule:nonzero;"/>
                        </g>
                        <g transform="matrix(1,0,0,1.04654,0,-9.71818)">
                            <path d="M1535.32,383.786C1534.08,384.639 1532.64,385.301 1531,385.77C1529.35,386.239 1527.72,386.474 1526.1,386.474C1518.68,386.431 1514.96,382.335 1514.96,374.186L1514.96,358.442L1510.16,358.442L1510.16,351.402L1514.96,351.402L1514.96,344.042L1525.08,342.89L1525.08,351.402L1532.88,351.402L1531.8,358.442L1525.08,358.442L1525.08,374.058C1525.08,375.637 1525.33,376.767 1525.85,377.45C1526.36,378.133 1527.17,378.474 1528.28,378.474C1529.43,378.474 1530.64,378.111 1531.92,377.386L1535.32,383.786Z" style="fill-rule:nonzero;"/>
                        </g>
                        <g transform="matrix(1,0,0,1.04654,0,-9.71818)">
                            <path d="M1568.6,350.314C1573.8,350.314 1577.88,351.903 1580.82,355.082C1583.77,358.261 1585.24,362.709 1585.24,368.426C1585.24,372.053 1584.57,375.221 1583.22,377.93C1581.88,380.639 1579.96,382.741 1577.46,384.234C1574.97,385.727 1572.01,386.474 1568.6,386.474C1563.43,386.474 1559.37,384.885 1556.4,381.706C1553.44,378.527 1551.96,374.079 1551.96,368.362C1551.96,364.735 1552.63,361.567 1553.97,358.858C1555.32,356.149 1557.24,354.047 1559.73,352.554C1562.23,351.061 1565.18,350.314 1568.6,350.314ZM1568.6,357.738C1566.55,357.738 1565.01,358.602 1563.99,360.33C1562.97,362.058 1562.45,364.735 1562.45,368.362C1562.45,372.074 1562.95,374.783 1563.96,376.49C1564.96,378.197 1566.51,379.05 1568.6,379.05C1570.64,379.05 1572.18,378.186 1573.2,376.458C1574.23,374.73 1574.74,372.053 1574.74,368.426C1574.74,364.714 1574.24,362.005 1573.24,360.298C1572.23,358.591 1570.69,357.738 1568.6,357.738Z" style="fill-rule:nonzero;"/>
                        </g>
                        <g transform="matrix(1,0,0,1.04654,0,-9.71818)">
                            <path d="M1619.92,385.386L1611.16,385.386L1610.71,381.098C1608.23,384.682 1604.8,386.474 1600.4,386.474C1597.29,386.474 1594.93,385.535 1593.33,383.658C1591.73,381.781 1590.93,379.157 1590.93,375.786L1590.93,351.402L1601.05,351.402L1601.05,374.506C1601.05,376.17 1601.31,377.333 1601.85,377.994C1602.38,378.655 1603.2,378.986 1604.31,378.986C1606.44,378.986 1608.28,377.663 1609.81,375.018L1609.81,351.402L1619.92,351.402L1619.92,385.386Z" style="fill-rule:nonzero;"/>
                        </g>
                        <g transform="matrix(1,0,0,1.04654,0,-9.71818)">
                            <path d="M1646.29,350.442C1647.53,350.442 1648.66,350.591 1649.68,350.89L1648.09,360.682C1646.81,360.383 1645.78,360.234 1645.01,360.234C1643.01,360.234 1641.48,360.927 1640.44,362.314C1639.39,363.701 1638.57,365.781 1637.97,368.554L1637.97,385.386L1627.86,385.386L1627.86,351.402L1636.69,351.402L1637.53,357.994C1638.29,355.647 1639.46,353.802 1641.01,352.458C1642.57,351.114 1644.33,350.442 1646.29,350.442Z" style="fill-rule:nonzero;"/>
                        </g>
                        <g transform="matrix(1,0,0,1.04654,0,-9.71818)">
                            <path d="M1097.75,414.314C1100.18,414.314 1102.46,414.677 1104.6,415.402C1106.73,416.127 1108.61,417.151 1110.23,418.474L1106.52,424.17C1103.74,422.421 1100.95,421.546 1098.13,421.546C1096.81,421.546 1095.8,421.77 1095.09,422.218C1094.39,422.666 1094.04,423.295 1094.04,424.106C1094.04,424.746 1094.2,425.269 1094.52,425.674C1094.84,426.079 1095.49,426.495 1096.47,426.922C1097.45,427.349 1098.96,427.861 1101.01,428.458C1104.55,429.482 1107.19,430.815 1108.92,432.458C1110.64,434.101 1111.51,436.373 1111.51,439.274C1111.51,441.578 1110.85,443.573 1109.53,445.258C1108.2,446.943 1106.39,448.234 1104.09,449.13C1101.78,450.026 1099.22,450.474 1096.4,450.474C1093.55,450.474 1090.89,450.026 1088.44,449.13C1085.98,448.234 1083.9,446.997 1082.2,445.418L1087.12,439.914C1089.98,442.133 1092.99,443.242 1096.15,443.242C1097.68,443.242 1098.89,442.965 1099.77,442.41C1100.64,441.855 1101.08,441.066 1101.08,440.042C1101.08,439.231 1100.91,438.591 1100.57,438.122C1100.22,437.653 1099.56,437.215 1098.58,436.81C1097.6,436.405 1096.04,435.903 1093.91,435.306C1090.54,434.325 1088.02,432.959 1086.36,431.21C1084.69,429.461 1083.86,427.285 1083.86,424.682C1083.86,422.719 1084.43,420.959 1085.56,419.402C1086.69,417.845 1088.31,416.607 1090.42,415.69C1092.53,414.773 1094.98,414.314 1097.75,414.314Z" style="fill-rule:nonzero;"/>
                        </g>
                        <g transform="matrix(1,0,0,1.04654,0,-9.71818)">
                            <path d="M1135.89,414.314C1140.16,414.314 1143.34,415.893 1145.43,419.05C1147.52,422.207 1148.57,426.623 1148.57,432.298C1148.57,435.797 1148.02,438.922 1146.93,441.674C1145.85,444.426 1144.28,446.581 1142.23,448.138C1140.18,449.695 1137.79,450.474 1135.06,450.474C1131.65,450.474 1128.9,449.301 1126.81,446.954L1126.81,462.506L1116.69,463.594L1116.69,415.402L1125.59,415.402L1126.1,419.178C1127.42,417.514 1128.94,416.287 1130.64,415.498C1132.35,414.709 1134.1,414.314 1135.89,414.314ZM1131.99,443.05C1136.04,443.05 1138.07,439.509 1138.07,432.426C1138.07,428.415 1137.62,425.631 1136.73,424.074C1135.83,422.517 1134.49,421.738 1132.69,421.738C1131.54,421.738 1130.46,422.079 1129.46,422.762C1128.46,423.445 1127.57,424.426 1126.81,425.706L1126.81,440.042C1128.17,442.047 1129.9,443.05 1131.99,443.05Z" style="fill-rule:nonzero;"/>
                        </g>
                        <g transform="matrix(1,0,0,1.04654,0,-9.71818)">
                            <path d="M1184.53,431.722C1184.53,433.13 1184.47,434.346 1184.34,435.37L1163.29,435.37C1163.63,438.229 1164.44,440.234 1165.72,441.386C1167,442.538 1168.77,443.114 1171.03,443.114C1172.39,443.114 1173.72,442.869 1175,442.378C1176.28,441.887 1177.66,441.13 1179.16,440.106L1183.32,445.738C1179.35,448.895 1174.93,450.474 1170.07,450.474C1164.57,450.474 1160.34,448.853 1157.4,445.61C1154.45,442.367 1152.98,438.015 1152.98,432.554C1152.98,429.098 1153.6,425.994 1154.84,423.242C1156.07,420.49 1157.89,418.314 1160.28,416.714C1162.67,415.114 1165.53,414.314 1168.85,414.314C1173.76,414.314 1177.6,415.85 1180.37,418.922C1183.15,421.994 1184.53,426.261 1184.53,431.722ZM1174.61,428.842C1174.53,423.637 1172.69,421.034 1169.11,421.034C1167.36,421.034 1166.01,421.674 1165.05,422.954C1164.09,424.234 1163.5,426.346 1163.29,429.29L1174.61,429.29L1174.61,428.842Z" style="fill-rule:nonzero;"/>
                        </g>
                        <g transform="matrix(1,0,0,1.04654,0,-9.71818)">
                            <path d="M1204.95,414.314C1207.3,414.314 1209.41,414.655 1211.29,415.338C1213.16,416.021 1214.93,417.066 1216.6,418.474L1212.25,424.49C1210.11,422.869 1207.96,422.058 1205.78,422.058C1203.52,422.058 1201.81,422.89 1200.66,424.554C1199.51,426.218 1198.93,428.906 1198.93,432.618C1198.93,436.202 1199.51,438.741 1200.66,440.234C1201.81,441.727 1203.48,442.474 1205.65,442.474C1206.81,442.474 1207.85,442.293 1208.79,441.93C1209.73,441.567 1210.86,440.981 1212.18,440.17L1216.6,446.442C1213.23,449.13 1209.41,450.474 1205.14,450.474C1201.68,450.474 1198.7,449.738 1196.18,448.266C1193.66,446.794 1191.72,444.725 1190.36,442.058C1188.99,439.391 1188.31,436.266 1188.31,432.682C1188.31,429.098 1188.99,425.919 1190.36,423.146C1191.72,420.373 1193.66,418.207 1196.18,416.65C1198.7,415.093 1201.62,414.314 1204.95,414.314Z" style="fill-rule:nonzero;"/>
                        </g>
                        <g transform="matrix(1,0,0,1.04654,0,-9.71818)">
                            <path d="M1231,415.402L1231,449.386L1220.88,449.386L1220.88,415.402L1231,415.402ZM1225.88,397.482C1227.63,397.482 1229.07,398.026 1230.2,399.114C1231.33,400.202 1231.89,401.578 1231.89,403.242C1231.89,404.906 1231.33,406.282 1230.2,407.37C1229.07,408.458 1227.63,409.002 1225.88,409.002C1224.13,409.002 1222.7,408.458 1221.59,407.37C1220.48,406.282 1219.92,404.906 1219.92,403.242C1219.92,401.578 1220.48,400.202 1221.59,399.114C1222.7,398.026 1224.13,397.482 1225.88,397.482Z" style="fill-rule:nonzero;"/>
                        </g>
                        <g transform="matrix(1,0,0,1.04654,0,-9.71818)">
                            <path d="M1254.49,400.81C1258.5,400.81 1262.25,401.663 1265.75,403.37L1262.93,409.834C1260.42,408.81 1257.98,408.298 1255.64,408.298C1253.67,408.298 1252.32,408.639 1251.57,409.322C1250.83,410.005 1250.45,411.178 1250.45,412.842L1250.45,415.402L1269.33,415.402L1269.33,449.386L1259.22,449.386L1259.22,422.442L1250.45,422.442L1250.45,449.386L1240.34,449.386L1240.34,422.442L1235.16,422.442L1235.16,415.402L1240.34,415.402L1240.34,412.458C1240.34,408.959 1241.49,406.143 1243.8,404.01C1246.1,401.877 1249.66,400.81 1254.49,400.81Z" style="fill-rule:nonzero;"/>
                        </g>
                        <g transform="matrix(1,0,0,1.04654,0,-9.71818)">
                            <path d="M1291.99,414.314C1294.34,414.314 1296.45,414.655 1298.33,415.338C1300.2,416.021 1301.97,417.066 1303.64,418.474L1299.29,424.49C1297.15,422.869 1295,422.058 1292.82,422.058C1290.56,422.058 1288.85,422.89 1287.7,424.554C1286.55,426.218 1285.97,428.906 1285.97,432.618C1285.97,436.202 1286.55,438.741 1287.7,440.234C1288.85,441.727 1290.52,442.474 1292.69,442.474C1293.85,442.474 1294.89,442.293 1295.83,441.93C1296.77,441.567 1297.9,440.981 1299.22,440.17L1303.64,446.442C1300.27,449.13 1296.45,450.474 1292.18,450.474C1288.73,450.474 1285.74,449.738 1283.22,448.266C1280.7,446.794 1278.76,444.725 1277.4,442.058C1276.03,439.391 1275.35,436.266 1275.35,432.682C1275.35,429.098 1276.03,425.919 1277.4,423.146C1278.76,420.373 1280.7,418.207 1283.22,416.65C1285.74,415.093 1288.66,414.314 1291.99,414.314Z" style="fill-rule:nonzero;"/>
                        </g>
                        <g transform="matrix(1,0,0,1.04654,0,-9.71818)">
                            <path d="M1104.21,478.442C1105.45,478.442 1106.58,478.591 1107.61,478.89L1106.01,488.682C1104.73,488.383 1103.7,488.234 1102.93,488.234C1100.93,488.234 1099.4,488.927 1098.36,490.314C1097.31,491.701 1096.49,493.781 1095.89,496.554L1095.89,513.386L1085.78,513.386L1085.78,479.402L1094.61,479.402L1095.44,485.994C1096.21,483.647 1097.38,481.802 1098.93,480.458C1100.49,479.114 1102.25,478.442 1104.21,478.442Z" style="fill-rule:nonzero;"/>
                        </g>
                        <g transform="matrix(1,0,0,1.04654,0,-9.71818)">
                            <path d="M1139.16,495.722C1139.16,497.13 1139.09,498.346 1138.96,499.37L1117.91,499.37C1118.25,502.229 1119.06,504.234 1120.34,505.386C1121.62,506.538 1123.39,507.114 1125.65,507.114C1127.02,507.114 1128.34,506.869 1129.62,506.378C1130.9,505.887 1132.29,505.13 1133.78,504.106L1137.94,509.738C1133.97,512.895 1129.56,514.474 1124.69,514.474C1119.19,514.474 1114.96,512.853 1112.02,509.61C1109.08,506.367 1107.61,502.015 1107.61,496.554C1107.61,493.098 1108.22,489.994 1109.46,487.242C1110.7,484.49 1112.51,482.314 1114.9,480.714C1117.29,479.114 1120.15,478.314 1123.48,478.314C1128.38,478.314 1132.22,479.85 1135,482.922C1137.77,485.994 1139.16,490.261 1139.16,495.722ZM1129.24,492.842C1129.15,487.637 1127.32,485.034 1123.73,485.034C1121.98,485.034 1120.63,485.674 1119.67,486.954C1118.71,488.234 1118.12,490.346 1117.91,493.29L1129.24,493.29L1129.24,492.842Z" style="fill-rule:nonzero;"/>
                        </g>
                        <g transform="matrix(1,0,0,1.04654,0,-9.71818)">
                            <path d="M1175.32,479.402L1175.32,527.594L1165.2,526.506L1165.2,510.122C1162.94,513.023 1159.94,514.474 1156.18,514.474C1151.96,514.474 1148.75,512.853 1146.55,509.61C1144.35,506.367 1143.25,501.93 1143.25,496.298C1143.25,492.799 1143.83,489.695 1144.98,486.986C1146.13,484.277 1147.77,482.154 1149.88,480.618C1151.99,479.082 1154.43,478.314 1157.2,478.314C1160.66,478.314 1163.58,479.658 1165.97,482.346L1166.49,479.402L1175.32,479.402ZM1159.32,507.05C1161.66,507.05 1163.63,505.77 1165.2,503.21L1165.2,488.554C1164.39,487.573 1163.58,486.847 1162.77,486.378C1161.96,485.909 1161.02,485.674 1159.96,485.674C1158.04,485.674 1156.52,486.538 1155.41,488.266C1154.3,489.994 1153.75,492.693 1153.75,496.362C1153.75,500.33 1154.23,503.103 1155.19,504.682C1156.15,506.261 1157.53,507.05 1159.32,507.05Z" style="fill-rule:nonzero;"/>
                        </g>
                        <g transform="matrix(1,0,0,1.04654,0,-9.71818)">
                            <path d="M1211.92,513.386L1203.16,513.386L1202.71,509.098C1200.23,512.682 1196.8,514.474 1192.4,514.474C1189.29,514.474 1186.93,513.535 1185.33,511.658C1183.73,509.781 1182.93,507.157 1182.93,503.786L1182.93,479.402L1193.05,479.402L1193.05,502.506C1193.05,504.17 1193.31,505.333 1193.85,505.994C1194.38,506.655 1195.2,506.986 1196.31,506.986C1198.44,506.986 1200.28,505.663 1201.81,503.018L1201.81,479.402L1211.92,479.402L1211.92,513.386Z" style="fill-rule:nonzero;"/>
                        </g>
                        <g transform="matrix(1,0,0,1.04654,0,-9.71818)">
                            <path d="M1229.97,479.402L1229.97,513.386L1219.86,513.386L1219.86,479.402L1229.97,479.402ZM1224.85,461.482C1226.6,461.482 1228.04,462.026 1229.17,463.114C1230.3,464.202 1230.87,465.578 1230.87,467.242C1230.87,468.906 1230.3,470.282 1229.17,471.37C1228.04,472.458 1226.6,473.002 1224.85,473.002C1223.1,473.002 1221.67,472.458 1220.57,471.37C1219.46,470.282 1218.9,468.906 1218.9,467.242C1218.9,465.578 1219.46,464.202 1220.57,463.114C1221.67,462.026 1223.1,461.482 1224.85,461.482Z" style="fill-rule:nonzero;"/>
                        </g>
                        <g transform="matrix(1,0,0,1.04654,0,-9.71818)">
                            <path d="M1256.34,478.442C1257.58,478.442 1258.71,478.591 1259.73,478.89L1258.13,488.682C1256.85,488.383 1255.83,488.234 1255.06,488.234C1253.06,488.234 1251.53,488.927 1250.49,490.314C1249.44,491.701 1248.62,493.781 1248.02,496.554L1248.02,513.386L1237.91,513.386L1237.91,479.402L1246.74,479.402L1247.57,485.994C1248.34,483.647 1249.5,481.802 1251.06,480.458C1252.62,479.114 1254.38,478.442 1256.34,478.442Z" style="fill-rule:nonzero;"/>
                        </g>
                        <g transform="matrix(1,0,0,1.04654,0,-9.71818)">
                            <path d="M1291.29,495.722C1291.29,497.13 1291.22,498.346 1291.09,499.37L1270.04,499.37C1270.38,502.229 1271.19,504.234 1272.47,505.386C1273.75,506.538 1275.52,507.114 1277.78,507.114C1279.15,507.114 1280.47,506.869 1281.75,506.378C1283.03,505.887 1284.42,505.13 1285.91,504.106L1290.07,509.738C1286.1,512.895 1281.68,514.474 1276.82,514.474C1271.32,514.474 1267.09,512.853 1264.15,509.61C1261.2,506.367 1259.73,502.015 1259.73,496.554C1259.73,493.098 1260.35,489.994 1261.59,487.242C1262.83,484.49 1264.64,482.314 1267.03,480.714C1269.42,479.114 1272.28,478.314 1275.61,478.314C1280.51,478.314 1284.35,479.85 1287.12,482.922C1289.9,485.994 1291.29,490.261 1291.29,495.722ZM1281.37,492.842C1281.28,487.637 1279.44,485.034 1275.86,485.034C1274.11,485.034 1272.76,485.674 1271.8,486.954C1270.84,488.234 1270.25,490.346 1270.04,493.29L1281.37,493.29L1281.37,492.842Z" style="fill-rule:nonzero;"/>
                        </g>
                        <g transform="matrix(1,0,0,1.04654,0,-9.71818)">
                            <path d="M1334.55,478.314C1337.24,478.314 1339.39,479.221 1341.01,481.034C1342.63,482.847 1343.44,485.354 1343.44,488.554L1343.44,513.386L1333.33,513.386L1333.33,490.282C1333.33,487.253 1332.37,485.738 1330.45,485.738C1329.39,485.738 1328.45,486.101 1327.64,486.826C1326.83,487.551 1326.04,488.661 1325.27,490.154L1325.27,513.386L1315.16,513.386L1315.16,490.282C1315.16,487.253 1314.2,485.738 1312.28,485.738C1311.25,485.738 1310.33,486.111 1309.49,486.858C1308.66,487.605 1307.86,488.703 1307.09,490.154L1307.09,513.386L1296.98,513.386L1296.98,479.402L1305.81,479.402L1306.52,483.37C1307.84,481.663 1309.3,480.394 1310.9,479.562C1312.5,478.73 1314.33,478.314 1316.37,478.314C1318.29,478.314 1319.95,478.783 1321.33,479.722C1322.72,480.661 1323.73,481.983 1324.37,483.69C1325.74,481.855 1327.24,480.501 1328.88,479.626C1330.53,478.751 1332.42,478.314 1334.55,478.314Z" style="fill-rule:nonzero;"/>
                        </g>
                        <g transform="matrix(1,0,0,1.04654,0,-9.71818)">
                            <path d="M1380.69,495.722C1380.69,497.13 1380.63,498.346 1380.5,499.37L1359.44,499.37C1359.79,502.229 1360.6,504.234 1361.88,505.386C1363.16,506.538 1364.93,507.114 1367.19,507.114C1368.55,507.114 1369.88,506.869 1371.16,506.378C1372.44,505.887 1373.82,505.13 1375.32,504.106L1379.48,509.738C1375.51,512.895 1371.09,514.474 1366.23,514.474C1360.73,514.474 1356.5,512.853 1353.56,509.61C1350.61,506.367 1349.14,502.015 1349.14,496.554C1349.14,493.098 1349.76,489.994 1351,487.242C1352.23,484.49 1354.05,482.314 1356.44,480.714C1358.83,479.114 1361.68,478.314 1365.01,478.314C1369.92,478.314 1373.76,479.85 1376.53,482.922C1379.31,485.994 1380.69,490.261 1380.69,495.722ZM1370.77,492.842C1370.69,487.637 1368.85,485.034 1365.27,485.034C1363.52,485.034 1362.16,485.674 1361.2,486.954C1360.25,488.234 1359.66,490.346 1359.44,493.29L1370.77,493.29L1370.77,492.842Z" style="fill-rule:nonzero;"/>
                        </g>
                        <g transform="matrix(1,0,0,1.04654,0,-9.71818)">
                            <path d="M1406.29,478.314C1409.24,478.314 1411.54,479.21 1413.2,481.002C1414.87,482.794 1415.7,485.311 1415.7,488.554L1415.7,513.386L1405.59,513.386L1405.59,490.282C1405.59,488.575 1405.32,487.391 1404.79,486.73C1404.26,486.069 1403.46,485.738 1402.39,485.738C1400.34,485.738 1398.38,487.21 1396.5,490.154L1396.5,513.386L1386.39,513.386L1386.39,479.402L1395.22,479.402L1395.92,483.434C1397.38,481.727 1398.94,480.447 1400.63,479.594C1402.31,478.741 1404.2,478.314 1406.29,478.314Z" style="fill-rule:nonzero;"/>
                        </g>
                        <g transform="matrix(1,0,0,1.04654,0,-9.71818)">
                            <path d="M1444.63,511.786C1443.39,512.639 1441.95,513.301 1440.31,513.77C1438.67,514.239 1437.03,514.474 1435.41,514.474C1427.99,514.431 1424.28,510.335 1424.28,502.186L1424.28,486.442L1419.48,486.442L1419.48,479.402L1424.28,479.402L1424.28,472.042L1434.39,470.89L1434.39,479.402L1442.2,479.402L1441.11,486.442L1434.39,486.442L1434.39,502.058C1434.39,503.637 1434.64,504.767 1435.16,505.45C1435.67,506.133 1436.48,506.474 1437.59,506.474C1438.74,506.474 1439.96,506.111 1441.24,505.386L1444.63,511.786Z" style="fill-rule:nonzero;"/>
                        </g>
                        <g transform="matrix(1,0,0,1.04654,0,-9.71818)">
                            <path d="M1459.99,478.314C1462.42,478.314 1464.7,478.677 1466.84,479.402C1468.97,480.127 1470.85,481.151 1472.47,482.474L1468.76,488.17C1465.98,486.421 1463.19,485.546 1460.37,485.546C1459.05,485.546 1458.04,485.77 1457.33,486.218C1456.63,486.666 1456.28,487.295 1456.28,488.106C1456.28,488.746 1456.44,489.269 1456.76,489.674C1457.08,490.079 1457.73,490.495 1458.71,490.922C1459.69,491.349 1461.2,491.861 1463.25,492.458C1466.79,493.482 1469.43,494.815 1471.16,496.458C1472.88,498.101 1473.75,500.373 1473.75,503.274C1473.75,505.578 1473.09,507.573 1471.77,509.258C1470.44,510.943 1468.63,512.234 1466.33,513.13C1464.02,514.026 1461.46,514.474 1458.64,514.474C1455.79,514.474 1453.13,514.026 1450.68,513.13C1448.22,512.234 1446.14,510.997 1444.44,509.418L1449.37,503.914C1452.22,506.133 1455.23,507.242 1458.39,507.242C1459.92,507.242 1461.13,506.965 1462.01,506.41C1462.88,505.855 1463.32,505.066 1463.32,504.042C1463.32,503.231 1463.15,502.591 1462.81,502.122C1462.46,501.653 1461.8,501.215 1460.82,500.81C1459.84,500.405 1458.28,499.903 1456.15,499.306C1452.78,498.325 1450.26,496.959 1448.6,495.21C1446.93,493.461 1446.1,491.285 1446.1,488.682C1446.1,486.719 1446.67,484.959 1447.8,483.402C1448.93,481.845 1450.55,480.607 1452.66,479.69C1454.77,478.773 1457.22,478.314 1459.99,478.314Z" style="fill-rule:nonzero;"/>
                        </g>
                        <g transform="matrix(1,0,0,1.04654,0,-9.71818)">
                            <path d="M1504.21,479.402L1504.21,513.386L1494.1,513.386L1494.1,479.402L1504.21,479.402ZM1499.09,461.482C1500.84,461.482 1502.28,462.026 1503.41,463.114C1504.54,464.202 1505.11,465.578 1505.11,467.242C1505.11,468.906 1504.54,470.282 1503.41,471.37C1502.28,472.458 1500.84,473.002 1499.09,473.002C1497.34,473.002 1495.91,472.458 1494.81,471.37C1493.7,470.282 1493.14,468.906 1493.14,467.242C1493.14,465.578 1493.7,464.202 1494.81,463.114C1495.91,462.026 1497.34,461.482 1499.09,461.482Z" style="fill-rule:nonzero;"/>
                        </g>
                        <g transform="matrix(1,0,0,1.04654,0,-9.71818)">
                            <path d="M1524.12,478.314C1526.55,478.314 1528.83,478.677 1530.97,479.402C1533.1,480.127 1534.98,481.151 1536.6,482.474L1532.88,488.17C1530.11,486.421 1527.32,485.546 1524.5,485.546C1523.18,485.546 1522.16,485.77 1521.46,486.218C1520.76,486.666 1520.4,487.295 1520.4,488.106C1520.4,488.746 1520.57,489.269 1520.88,489.674C1521.2,490.079 1521.86,490.495 1522.84,490.922C1523.82,491.349 1525.33,491.861 1527.38,492.458C1530.92,493.482 1533.56,494.815 1535.29,496.458C1537.01,498.101 1537.88,500.373 1537.88,503.274C1537.88,505.578 1537.22,507.573 1535.89,509.258C1534.57,510.943 1532.76,512.234 1530.45,513.13C1528.15,514.026 1525.59,514.474 1522.77,514.474C1519.91,514.474 1517.26,514.026 1514.81,513.13C1512.35,512.234 1510.27,510.997 1508.57,509.418L1513.49,503.914C1516.35,506.133 1519.36,507.242 1522.52,507.242C1524.05,507.242 1525.26,506.965 1526.13,506.41C1527.01,505.855 1527.44,505.066 1527.44,504.042C1527.44,503.231 1527.27,502.591 1526.93,502.122C1526.59,501.653 1525.93,501.215 1524.95,500.81C1523.97,500.405 1522.41,499.903 1520.28,499.306C1516.91,498.325 1514.39,496.959 1512.73,495.21C1511.06,493.461 1510.23,491.285 1510.23,488.682C1510.23,486.719 1510.79,484.959 1511.92,483.402C1513.06,481.845 1514.68,480.607 1516.79,479.69C1518.9,478.773 1521.34,478.314 1524.12,478.314Z" style="fill-rule:nonzero;"/>
                        </g>
                        <g transform="matrix(1,0,0,1.04654,0,-9.71818)">
                            <path d="M1100.5,542.314C1102.85,542.314 1104.96,542.655 1106.84,543.338C1108.71,544.021 1110.49,545.066 1112.15,546.474L1107.8,552.49C1105.66,550.869 1103.51,550.058 1101.33,550.058C1099.07,550.058 1097.37,550.89 1096.21,552.554C1095.06,554.218 1094.49,556.906 1094.49,560.618C1094.49,564.202 1095.06,566.741 1096.21,568.234C1097.37,569.727 1099.03,570.474 1101.2,570.474C1102.36,570.474 1103.4,570.293 1104.34,569.93C1105.28,569.567 1106.41,568.981 1107.73,568.17L1112.15,574.442C1108.78,577.13 1104.96,578.474 1100.69,578.474C1097.24,578.474 1094.25,577.738 1091.73,576.266C1089.22,574.794 1087.27,572.725 1085.91,570.058C1084.54,567.391 1083.86,564.266 1083.86,560.682C1083.86,557.098 1084.54,553.919 1085.91,551.146C1087.27,548.373 1089.22,546.207 1091.73,544.65C1094.25,543.093 1097.17,542.314 1100.5,542.314Z" style="fill-rule:nonzero;"/>
                        </g>
                        <g transform="matrix(1,0,0,1.04654,0,-9.71818)">
                            <path d="M1129.88,542.314C1135.08,542.314 1139.16,543.903 1142.1,547.082C1145.05,550.261 1146.52,554.709 1146.52,560.426C1146.52,564.053 1145.85,567.221 1144.5,569.93C1143.16,572.639 1141.24,574.741 1138.74,576.234C1136.25,577.727 1133.29,578.474 1129.88,578.474C1124.71,578.474 1120.65,576.885 1117.68,573.706C1114.72,570.527 1113.24,566.079 1113.24,560.362C1113.24,556.735 1113.91,553.567 1115.25,550.858C1116.6,548.149 1118.52,546.047 1121.01,544.554C1123.51,543.061 1126.46,542.314 1129.88,542.314ZM1129.88,549.738C1127.83,549.738 1126.29,550.602 1125.27,552.33C1124.25,554.058 1123.73,556.735 1123.73,560.362C1123.73,564.074 1124.23,566.783 1125.24,568.49C1126.24,570.197 1127.79,571.05 1129.88,571.05C1131.92,571.05 1133.46,570.186 1134.49,568.458C1135.51,566.73 1136.02,564.053 1136.02,560.426C1136.02,556.714 1135.52,554.005 1134.52,552.298C1133.51,550.591 1131.97,549.738 1129.88,549.738Z" style="fill-rule:nonzero;"/>
                        </g>
                        <g transform="matrix(1,0,0,1.04654,0,-9.71818)">
                            <path d="M1190.1,542.314C1192.79,542.314 1194.94,543.221 1196.57,545.034C1198.19,546.847 1199,549.354 1199,552.554L1199,577.386L1188.88,577.386L1188.88,554.282C1188.88,551.253 1187.92,549.738 1186.01,549.738C1184.94,549.738 1184,550.101 1183.19,550.826C1182.38,551.551 1181.59,552.661 1180.82,554.154L1180.82,577.386L1170.71,577.386L1170.71,554.282C1170.71,551.253 1169.75,549.738 1167.83,549.738C1166.81,549.738 1165.88,550.111 1165.05,550.858C1164.21,551.605 1163.41,552.703 1162.64,554.154L1162.64,577.386L1152.53,577.386L1152.53,543.402L1161.37,543.402L1162.07,547.37C1163.39,545.663 1164.85,544.394 1166.45,543.562C1168.05,542.73 1169.88,542.314 1171.92,542.314C1173.85,542.314 1175.5,542.783 1176.88,543.722C1178.27,544.661 1179.29,545.983 1179.92,547.69C1181.29,545.855 1182.79,544.501 1184.44,543.626C1186.08,542.751 1187.97,542.314 1190.1,542.314Z" style="fill-rule:nonzero;"/>
                        </g>
                        <g transform="matrix(1,0,0,1.04654,0,-9.71818)">
                            <path d="M1244.18,542.314C1246.87,542.314 1249.02,543.221 1250.64,545.034C1252.27,546.847 1253.08,549.354 1253.08,552.554L1253.08,577.386L1242.96,577.386L1242.96,554.282C1242.96,551.253 1242.01,549.738 1240.09,549.738C1239.02,549.738 1238.08,550.101 1237.27,550.826C1236.46,551.551 1235.67,552.661 1234.9,554.154L1234.9,577.386L1224.79,577.386L1224.79,554.282C1224.79,551.253 1223.83,549.738 1221.91,549.738C1220.88,549.738 1219.96,550.111 1219.12,550.858C1218.29,551.605 1217.49,552.703 1216.73,554.154L1216.73,577.386L1206.61,577.386L1206.61,543.402L1215.44,543.402L1216.15,547.37C1217.47,545.663 1218.93,544.394 1220.53,543.562C1222.13,542.73 1223.96,542.314 1226.01,542.314C1227.92,542.314 1229.58,542.783 1230.96,543.722C1232.35,544.661 1233.37,545.983 1234.01,547.69C1235.37,545.855 1236.87,544.501 1238.52,543.626C1240.16,542.751 1242.05,542.314 1244.18,542.314Z" style="fill-rule:nonzero;"/>
                        </g>
                        <g transform="matrix(1,0,0,1.04654,0,-9.71818)">
                            <path d="M1290.33,559.722C1290.33,561.13 1290.26,562.346 1290.13,563.37L1269.08,563.37C1269.42,566.229 1270.23,568.234 1271.51,569.386C1272.79,570.538 1274.56,571.114 1276.82,571.114C1278.19,571.114 1279.51,570.869 1280.79,570.378C1282.07,569.887 1283.46,569.13 1284.95,568.106L1289.11,573.738C1285.14,576.895 1280.73,578.474 1275.86,578.474C1270.36,578.474 1266.13,576.853 1263.19,573.61C1260.25,570.367 1258.77,566.015 1258.77,560.554C1258.77,557.098 1259.39,553.994 1260.63,551.242C1261.87,548.49 1263.68,546.314 1266.07,544.714C1268.46,543.114 1271.32,542.314 1274.64,542.314C1279.55,542.314 1283.39,543.85 1286.16,546.922C1288.94,549.994 1290.33,554.261 1290.33,559.722ZM1280.4,556.842C1280.32,551.637 1278.49,549.034 1274.9,549.034C1273.15,549.034 1271.8,549.674 1270.84,550.954C1269.88,552.234 1269.29,554.346 1269.08,557.29L1280.4,557.29L1280.4,556.842Z" style="fill-rule:nonzero;"/>
                        </g>
                        <g transform="matrix(1,0,0,1.04654,0,-9.71818)">
                            <path d="M1315.92,542.314C1318.87,542.314 1321.17,543.21 1322.84,545.002C1324.5,546.794 1325.33,549.311 1325.33,552.554L1325.33,577.386L1315.22,577.386L1315.22,554.282C1315.22,552.575 1314.95,551.391 1314.42,550.73C1313.89,550.069 1313.09,549.738 1312.02,549.738C1309.97,549.738 1308.01,551.21 1306.13,554.154L1306.13,577.386L1296.02,577.386L1296.02,543.402L1304.85,543.402L1305.56,547.434C1307.01,545.727 1308.58,544.447 1310.26,543.594C1311.95,542.741 1313.83,542.314 1315.92,542.314Z" style="fill-rule:nonzero;"/>
                        </g>
                        <g transform="matrix(1,0,0,1.04654,0,-9.71818)">
                            <path d="M1363.41,529.898L1363.41,577.386L1354.45,577.386L1353.94,573.418C1351.55,576.789 1348.33,578.474 1344.28,578.474C1340.05,578.474 1336.84,576.853 1334.64,573.61C1332.45,570.367 1331.35,565.93 1331.35,560.298C1331.35,556.842 1331.92,553.749 1333.08,551.018C1334.23,548.287 1335.86,546.154 1337.97,544.618C1340.09,543.082 1342.51,542.314 1345.24,542.314C1348.48,542.314 1351.17,543.381 1353.3,545.514L1353.3,528.81L1363.41,529.898ZM1347.41,571.05C1349.76,571.05 1351.72,569.77 1353.3,567.21L1353.3,552.554C1352.49,551.573 1351.67,550.847 1350.84,550.378C1350.01,549.909 1349.06,549.674 1347.99,549.674C1346.11,549.674 1344.62,550.549 1343.51,552.298C1342.4,554.047 1341.85,556.735 1341.85,560.362C1341.85,564.33 1342.33,567.103 1343.29,568.682C1344.25,570.261 1345.62,571.05 1347.41,571.05Z" style="fill-rule:nonzero;"/>
                        </g>
                        <g transform="matrix(1,0,0,1.04654,0,-9.71818)">
                            <path d="M1398.36,567.53C1398.36,568.81 1398.54,569.749 1398.9,570.346C1399.26,570.943 1399.85,571.391 1400.66,571.69L1398.55,578.282C1396.46,578.111 1394.75,577.653 1393.43,576.906C1392.11,576.159 1391.08,574.975 1390.36,573.354C1388.14,576.767 1384.73,578.474 1380.12,578.474C1376.75,578.474 1374.06,577.493 1372.05,575.53C1370.05,573.567 1369.05,571.007 1369.05,567.85C1369.05,564.138 1370.41,561.301 1373.14,559.338C1375.87,557.375 1379.82,556.394 1384.98,556.394L1388.44,556.394L1388.44,554.922C1388.44,552.917 1388.01,551.541 1387.16,550.794C1386.3,550.047 1384.81,549.674 1382.68,549.674C1381.57,549.674 1380.22,549.834 1378.64,550.154C1377.07,550.474 1375.44,550.911 1373.78,551.466L1371.48,544.81C1373.61,543.999 1375.8,543.381 1378.04,542.954C1380.28,542.527 1382.36,542.314 1384.28,542.314C1389.14,542.314 1392.7,543.317 1394.96,545.322C1397.23,547.327 1398.36,550.335 1398.36,554.346L1398.36,567.53ZM1383.06,571.242C1385.37,571.242 1387.16,570.154 1388.44,567.978L1388.44,561.962L1385.94,561.962C1383.64,561.962 1381.92,562.367 1380.79,563.178C1379.66,563.989 1379.09,565.247 1379.09,566.954C1379.09,568.319 1379.44,569.375 1380.15,570.122C1380.85,570.869 1381.82,571.242 1383.06,571.242Z" style="fill-rule:nonzero;"/>
                        </g>
                        <g transform="matrix(1,0,0,1.04654,0,-9.71818)">
                            <path d="M1425.68,542.314C1429.74,542.314 1432.85,543.903 1435.03,547.082C1437.2,550.261 1438.29,554.709 1438.29,560.426C1438.29,563.925 1437.75,567.039 1436.66,569.77C1435.57,572.501 1434.02,574.634 1431.99,576.17C1429.96,577.706 1427.56,578.474 1424.79,578.474C1422.95,578.474 1421.28,578.09 1419.77,577.322C1418.25,576.554 1416.96,575.487 1415.89,574.122L1415.38,577.386L1406.42,577.386L1406.42,529.898L1416.53,528.81L1416.53,546.858C1417.56,545.45 1418.87,544.341 1420.47,543.53C1422.07,542.719 1423.81,542.314 1425.68,542.314ZM1421.85,571.114C1425.81,571.114 1427.8,567.551 1427.8,560.426C1427.8,556.373 1427.33,553.578 1426.39,552.042C1425.45,550.506 1424.09,549.738 1422.29,549.738C1420.03,549.738 1418.11,551.061 1416.53,553.706L1416.53,567.85C1417.17,568.874 1417.95,569.674 1418.87,570.25C1419.79,570.826 1420.78,571.114 1421.85,571.114Z" style="fill-rule:nonzero;"/>
                        </g>
                        <g transform="matrix(1,0,0,1.04654,0,-9.71818)">
                            <path d="M1453.65,578.474C1450.71,578.474 1448.42,577.631 1446.77,575.946C1445.13,574.261 1444.31,571.861 1444.31,568.746L1444.31,529.898L1454.42,528.81L1454.42,568.362C1454.42,569.77 1455,570.474 1456.15,570.474C1456.75,570.474 1457.3,570.367 1457.81,570.154L1459.8,577.322C1457.96,578.09 1455.91,578.474 1453.65,578.474Z" style="fill-rule:nonzero;"/>
                        </g>
                        <g transform="matrix(1,0,0,1.04654,0,-9.71818)">
                            <path d="M1492.95,559.722C1492.95,561.13 1492.88,562.346 1492.76,563.37L1471.7,563.37C1472.04,566.229 1472.85,568.234 1474.13,569.386C1475.41,570.538 1477.18,571.114 1479.44,571.114C1480.81,571.114 1482.13,570.869 1483.41,570.378C1484.69,569.887 1486.08,569.13 1487.57,568.106L1491.73,573.738C1487.77,576.895 1483.35,578.474 1478.49,578.474C1472.98,578.474 1468.76,576.853 1465.81,573.61C1462.87,570.367 1461.4,566.015 1461.4,560.554C1461.4,557.098 1462.02,553.994 1463.25,551.242C1464.49,548.49 1466.3,546.314 1468.69,544.714C1471.08,543.114 1473.94,542.314 1477.27,542.314C1482.18,542.314 1486.02,543.85 1488.79,546.922C1491.56,549.994 1492.95,554.261 1492.95,559.722ZM1483.03,556.842C1482.94,551.637 1481.11,549.034 1477.53,549.034C1475.78,549.034 1474.42,549.674 1473.46,550.954C1472.5,552.234 1471.91,554.346 1471.7,557.29L1483.03,557.29L1483.03,556.842Z" style="fill-rule:nonzero;"/>
                        </g>
                        <g transform="matrix(1,0,0,1.04654,0,-9.71818)">
                            <path d="M1501.72,566.89C1503.3,566.89 1504.65,567.455 1505.78,568.586C1506.91,569.717 1507.48,571.071 1507.48,572.65C1507.48,574.271 1506.91,575.647 1505.78,576.778C1504.65,577.909 1503.3,578.474 1501.72,578.474C1500.1,578.474 1498.72,577.909 1497.59,576.778C1496.46,575.647 1495.89,574.271 1495.89,572.65C1495.89,571.071 1496.46,569.717 1497.59,568.586C1498.72,567.455 1500.1,566.89 1501.72,566.89Z" style="fill-rule:nonzero;"/>
                        </g>
                    </g>
                    <g transform="matrix(0.609058,0,0,0.609058,1140.75,863.516)">
                        <g>
                            <path d="M66.252,21.469C70.656,27.179 74.308,33.593 77.138,40.509L77.138,3.931L46.077,3.931C53.549,7.968 60.394,13.874 66.252,21.469Z" style="fill:rgb(56,126,209);"/>
                            <path d="M21.473,7.828C15.719,7.828 10.184,9.058 5,11.334L5,76.069L73.963,76.069C73.429,38.315 50.088,7.828 21.473,7.828" style="fill:rgb(56,126,209);"/>
                        </g>
                        <g>
                            <path d="M118.349,64.918L156.882,18.268L119.56,18.268L119.56,8.098L171.81,8.098L171.81,16.588L133.277,63.239L171.81,63.239L171.81,73.408L118.349,73.408L118.349,64.918Z" style="fill:rgb(56,126,209);fill-rule:nonzero;"/>
                            <path d="M186.177,8.098L234.508,8.098L234.508,18.454L197.56,18.454L197.56,35.248L230.311,35.248L230.311,45.605L197.56,45.605L197.56,63.051L234.973,63.051L234.973,73.407L186.177,73.407L186.177,8.098Z" style="fill:rgb(56,126,209);fill-rule:nonzero;"/>
                            <path d="M248.689,8.098L277.799,8.098C281.904,8.098 285.543,8.674 288.716,9.824C291.887,10.975 294.53,12.576 296.646,14.629C298.387,16.434 299.726,18.517 300.659,20.88C301.592,23.244 302.057,25.857 302.057,28.717L302.057,28.904C302.057,31.579 301.669,33.989 300.892,36.135C300.113,38.281 299.039,40.179 297.672,41.826C296.303,43.474 294.671,44.875 292.774,46.024C290.877,47.176 288.777,48.062 286.477,48.683L304.11,73.408L290.581,73.408L274.484,50.643L274.298,50.643L260.071,50.643L260.071,73.408L248.688,73.408L248.688,8.098L248.689,8.098ZM276.92,40.473C281.035,40.473 284.313,39.491 286.744,37.522C289.178,35.554 290.396,32.883 290.396,29.51L290.396,29.323C290.396,25.763 289.208,23.06 286.837,21.217C284.468,19.375 281.128,18.453 276.823,18.453L260.071,18.453L260.071,40.472L276.92,40.472L276.92,40.473Z" style="fill:rgb(56,126,209);fill-rule:nonzero;"/>
                            <path d="M347.309,74.528C342.27,74.528 337.668,73.642 333.502,71.87C329.334,70.098 325.758,67.688 322.772,64.638C319.786,61.591 317.454,58.031 315.776,53.956C314.094,49.883 313.255,45.543 313.255,40.94L313.255,40.753C313.255,36.15 314.095,31.812 315.776,27.737C317.454,23.664 319.817,20.086 322.866,17.007C325.911,13.928 329.52,11.487 333.69,9.683C337.856,7.88 342.458,6.977 347.497,6.977C352.534,6.977 357.138,7.863 361.306,9.636C365.472,11.408 369.05,13.82 372.036,16.867C375.02,19.915 377.352,23.476 379.032,27.55C380.714,31.624 381.553,35.963 381.553,40.565L381.553,40.752C381.553,45.356 380.713,49.695 379.032,53.767C377.352,57.842 374.989,61.418 371.942,64.497C368.893,67.575 365.286,70.018 361.118,71.821C356.95,73.624 352.348,74.528 347.309,74.528ZM347.496,63.985C350.717,63.985 353.674,63.379 356.367,62.166C359.062,60.952 361.369,59.306 363.289,57.222C365.207,55.138 366.711,52.696 367.795,49.897C368.879,47.098 369.42,44.112 369.42,40.941L369.42,40.754C369.42,37.582 368.879,34.581 367.795,31.75C366.711,28.92 365.191,26.464 363.242,24.38C361.291,22.297 358.953,20.633 356.226,19.388C353.501,18.144 350.529,17.522 347.308,17.522C344.087,17.522 341.13,18.128 338.437,19.341C335.742,20.554 333.435,22.203 331.515,24.286C329.595,26.371 328.093,28.811 327.007,31.61C325.923,34.409 325.382,37.395 325.382,40.567L325.382,40.754C325.382,43.926 325.923,46.927 327.007,49.756C328.093,52.589 329.611,55.045 331.562,57.128C333.513,59.213 335.851,60.876 338.576,62.119C341.303,63.363 344.275,63.985 347.496,63.985Z" style="fill:rgb(56,126,209);fill-rule:nonzero;"/>
                            <path d="M395.451,8.098L419.805,8.098C424.905,8.098 429.584,8.923 433.848,10.571C438.108,12.219 441.776,14.505 444.856,17.428C447.936,20.352 450.313,23.789 451.995,27.739C453.675,31.689 454.515,35.966 454.515,40.568L454.515,40.755C454.515,45.359 453.675,49.651 451.995,53.63C450.313,57.61 447.936,61.065 444.856,63.986C441.776,66.912 438.108,69.212 433.848,70.89C429.584,72.57 424.905,73.409 419.805,73.409L395.451,73.409L395.451,8.098ZM419.711,63.052C423.131,63.052 426.242,62.507 429.041,61.413C431.84,60.319 434.221,58.791 436.178,56.824C438.137,54.855 439.66,52.512 440.75,49.794C441.838,47.077 442.385,44.127 442.385,40.94L442.385,40.753C442.385,37.567 441.838,34.601 440.75,31.853C439.66,29.104 438.137,26.747 436.178,24.779C434.221,22.81 431.84,21.265 429.041,20.14C426.242,19.016 423.131,18.453 419.711,18.453L406.834,18.453L406.834,63.051L419.711,63.051L419.711,63.052Z" style="fill:rgb(56,126,209);fill-rule:nonzero;"/>
                            <path d="M468.414,8.098L479.797,8.098L479.797,35.249L511.149,35.249L511.149,8.098L522.532,8.098L522.532,73.409L511.149,73.409L511.149,45.885L479.797,45.885L479.797,73.408L468.414,73.408L468.414,8.098Z" style="fill:rgb(56,126,209);fill-rule:nonzero;"/>
                            <path d="M562.463,7.631L573.1,7.631L601.836,73.408L589.707,73.408L583.082,57.64L552.199,57.64L545.48,73.408L533.724,73.408L562.463,7.631ZM578.885,47.472L567.594,21.347L556.397,47.472L578.885,47.472Z" style="fill:rgb(56,126,209);fill-rule:nonzero;"/>
                        </g>
                    </g>
                    <g transform="matrix(1,0,0,0.5,0,405)">
                        <rect x="1143.41" y="790" width="133.593" height="16"/>
                    </g>
                </g>
            </g>
            <g transform="matrix(1,0,0,1,30,-23)">
                <g transform="matrix(1,0,0,1,76,0)">
                    <circle cx="1372" cy="994" r="9" style="fill:rgb(215,182,250);"/>
                </g>
                <g transform="matrix(1,0,0,1,38,0)">
                    <circle cx="1372" cy="994" r="9" style="fill:rgb(215,182,250);"/>
                </g>
                <circle cx="1372" cy="994" r="9" style="fill:rgb(248,242,255);"/>
            </g>
        </g>
    </g>
</svg>
