<?xml version="1.0" encoding="UTF-8" standalone="no"?>
<!DOCTYPE svg PUBLIC "-//W3C//DTD SVG 1.1//EN" "http://www.w3.org/Graphics/SVG/1.1/DTD/svg11.dtd">
<svg width="100%" height="100%" viewBox="0 0 3508 4961" version="1.1" xmlns="http://www.w3.org/2000/svg" xmlns:xlink="http://www.w3.org/1999/xlink" xml:space="preserve" xmlns:serif="http://www.serif.com/" style="fill-rule:evenodd;clip-rule:evenodd;stroke-linecap:round;stroke-linejoin:round;">
    <rect x="0" y="0" width="3507.87" height="4960.63" style="fill:white;"/>
    <g transform="matrix(0.928184,0,0,1.30007,95.1221,-20.6384)">
        <rect x="152.016" y="197.573" width="3270.29" height="3452.26" style="fill:rgb(63,51,46);"/>
    </g>
    <g transform="matrix(9.29415,0,0,9.95675,930.648,2127.36)">
        <g transform="matrix(4.16667,0,0,4.16667,36.4981,88.5124)">
            <path d="M11,5L6,9L2,9L2,15L6,15L11,19L11,5Z" style="fill:none;fill-rule:nonzero;stroke:white;stroke-width:1.72px;"/>
        </g>
        <g transform="matrix(4.16667,0,0,4.16667,36.4981,88.5124)">
            <path d="M23,9L17,15" style="fill:none;fill-rule:nonzero;stroke:white;stroke-width:1.72px;"/>
        </g>
        <g transform="matrix(4.16667,0,0,4.16667,36.4981,88.5124)">
            <path d="M17,9L23,15" style="fill:none;fill-rule:nonzero;stroke:white;stroke-width:1.72px;"/>
        </g>
    </g>
    <g transform="matrix(1,0,0,1,0,150.455)">
        <g transform="matrix(1.2656,0,0,1.2656,-889.912,-1001.55)">
            <text x="1399.1px" y="2833.54px" style="font-family:'Inter-Regular', 'Inter', sans-serif;font-size:600px;fill:rgb(242,96,76);">z<tspan x="1714.44px " y="2833.54px ">o</tspan>ne</text>
        </g>
        <g transform="matrix(2.3749,0,0,2.3749,-274.733,57.3298)">
            <path d="M567.263,584.68L531.843,584.68C527.857,576.4 525.863,566.587 525.863,555.24C525.863,537.76 531.843,522.887 543.803,510.62C555.763,498.353 572.017,492.22 592.563,492.22C615.563,492.22 633.963,500.04 647.763,515.68C661.563,531.013 668.463,549.72 668.463,571.8C668.463,602.773 658.037,627 637.183,644.48C616.637,661.653 592.41,670.24 564.503,670.24L549.323,670.24L655.123,788L607.743,788L506.083,671.62L506.083,639.42L551.623,639.42C577.077,639.42 596.857,633.593 610.963,621.94C625.377,609.98 632.583,593.573 632.583,572.72C632.583,556.16 628.903,543.893 621.543,535.92C614.49,527.64 604.83,523.5 592.563,523.5C581.83,523.5 573.703,526.873 568.183,533.62C562.97,540.06 560.363,548.34 560.363,558.46C560.363,567.967 562.663,576.707 567.263,584.68ZM719.983,492.68L809.683,492.68L809.683,523.5L756.323,523.5L756.323,788L719.983,788L719.983,492.68ZM789.429,523.5L789.429,492.68L932.029,492.68L932.029,523.5L878.669,523.5L878.669,788L842.789,788L842.789,523.5L789.429,523.5ZM842.156,445.3C837.25,440.7 834.796,434.873 834.796,427.82C834.796,420.767 837.25,414.787 842.156,409.88C846.756,404.973 852.583,402.52 859.636,402.52C866.69,402.52 872.67,404.973 877.576,409.88C882.483,414.787 884.936,420.767 884.936,427.82C884.936,434.873 882.483,440.7 877.576,445.3C872.67,449.9 866.69,452.2 859.636,452.2C852.583,452.2 846.756,449.9 842.156,445.3ZM1202.34,492.68L1202.34,523.5L1148.98,523.5L1148.98,788L1113.1,788L1113.1,611.36L1069.4,611.36C1015.12,611.36 987.976,635.28 987.976,683.12C987.976,705.813 993.496,723.753 1004.54,736.94C1015.88,750.127 1032.44,756.72 1054.22,756.72C1059.43,756.72 1062.96,756.567 1064.8,756.26L1064.8,787.08C1059.89,787.693 1055.29,788 1051,788C1020.33,788 996.103,778.187 978.316,758.56C960.53,738.933 951.636,713.633 951.636,682.66C951.636,651.993 961.296,627.307 980.616,608.6C999.936,589.587 1028.15,580.08 1065.26,580.08L1113.1,580.08L1113.1,523.5L911.616,523.5L911.616,492.68L1202.34,492.68Z" style="fill:white;fill-rule:nonzero;"/>
        </g>
    </g>
    <g transform="matrix(4.26215,0,0,4.26215,253.885,250.876)">
        <g transform="matrix(0.249403,0,0,0.249403,23.5669,-13.1375)">
            <clipPath id="_clip1">
                <path d="M20,150L180,150C191.046,150 200,158.954 200,170L200,180C200,191.046 191.046,200 180,200L20,200C8.954,200 0,191.046 0,180L0,170C0,158.954 8.954,150 20,150Z"/>
            </clipPath>
            <g clip-path="url(#_clip1)">
                <rect x="-5" y="145" width="210" height="60" style="fill:white;stroke:white;stroke-width:0.94px;stroke-linecap:butt;stroke-miterlimit:1.41421;"/>
            </g>
        </g>
        <g transform="matrix(0.249403,0,0,0.249403,23.5669,24.2729)">
            <clipPath id="_clip2">
                <path d="M20,75L113,75C124.046,75 133,83.954 133,95L133,105C133,116.046 124.046,125 113,125L20,125C8.954,125 0,116.046 0,105L0,95C0,83.954 8.954,75 20,75Z"/>
            </clipPath>
            <g clip-path="url(#_clip2)">
                <rect x="-5" y="70" width="143" height="60" style="fill:white;stroke:white;stroke-width:0.94px;stroke-linecap:butt;stroke-miterlimit:1.41421;"/>
            </g>
        </g>
        <g transform="matrix(0.249403,0,0,0.249403,23.5669,61.6834)">
            <clipPath id="_clip3">
                <path d="M20,0L47,0C58.046,0 67,8.954 67,20L67,30C67,41.046 58.046,50 47,50L20,50C8.954,50 0,41.046 0,30L0,20C0,8.954 8.954,0 20,0Z"/>
            </clipPath>
            <g clip-path="url(#_clip3)">
                <rect x="-5" y="-5" width="77" height="60" style="fill:white;stroke:white;stroke-width:0.94px;stroke-linecap:butt;stroke-miterlimit:1.41421;"/>
            </g>
        </g>
    </g>
</svg>
