<?xml version="1.0" encoding="UTF-8" standalone="no"?>
<!-- Created with Inkscape (http://www.inkscape.org/) -->

<svg
   xmlns:dc="http://purl.org/dc/elements/1.1/"
   xmlns:cc="http://creativecommons.org/ns#"
   xmlns:rdf="http://www.w3.org/1999/02/22-rdf-syntax-ns#"
   xmlns:svg="http://www.w3.org/2000/svg"
   xmlns="http://www.w3.org/2000/svg"
   xmlns:xlink="http://www.w3.org/1999/xlink"
   xmlns:sodipodi="http://sodipodi.sourceforge.net/DTD/sodipodi-0.dtd"
   xmlns:inkscape="http://www.inkscape.org/namespaces/inkscape"
   width="147.64255mm"
   height="79.503777mm"
   viewBox="0 0 523.14289 281.70629"
   id="svg4419"
   version="1.1"
   inkscape:version="0.92.2 5c3e80d, 2017-08-06"
   sodipodi:docname="ticket.svg">
  <defs
     id="defs4421" />
  <sodipodi:namedview
     id="base"
     pagecolor="#ffffff"
     bordercolor="#666666"
     borderopacity="1.0"
     inkscape:pageopacity="0.0"
     inkscape:pageshadow="2"
     inkscape:zoom="1.6338034"
     inkscape:cx="167.32409"
     inkscape:cy="147.47253"
     inkscape:document-units="px"
     inkscape:current-layer="g6279"
     showgrid="false"
     inkscape:snap-text-baseline="true"
     inkscape:snap-to-guides="true"
     inkscape:window-width="1920"
     inkscape:window-height="1029"
     inkscape:window-x="0"
     inkscape:window-y="24"
     inkscape:window-maximized="1"
     fit-margin-top="0"
     fit-margin-left="0"
     fit-margin-right="0"
     fit-margin-bottom="0" />
  <metadata
     id="metadata4424">
    <rdf:RDF>
      <cc:Work
         rdf:about="">
        <dc:format>image/svg+xml</dc:format>
        <dc:type
           rdf:resource="http://purl.org/dc/dcmitype/StillImage" />
        <dc:title />
      </cc:Work>
    </rdf:RDF>
  </metadata>
  <g
     inkscape:label="Layer 1"
     inkscape:groupmode="layer"
     id="layer1"
     transform="translate(-110,-402.93362)">
    <path
       style="fill:#ececec;fill-opacity:1"
       d="m 110,402.93362 523.14288,0 0,281.7063 -523.14288,0 z"
       id="rect4967"
       inkscape:connector-curvature="0"
       sodipodi:nodetypes="ccccc" />
    <g
       id="g6279"
       transform="translate(-6.0476446,0)">
      <text
         id="text4969"
         y="433.13873"
         x="130.50998"
         style="font-style:normal;font-weight:normal;line-height:0%;font-family:sans-serif;letter-spacing:0px;word-spacing:0px;fill:#000000;fill-opacity:1;stroke:none;stroke-width:1px;stroke-linecap:butt;stroke-linejoin:miter;stroke-opacity:1"
         xml:space="preserve"><tspan
           style="font-style:normal;font-variant:normal;font-weight:normal;font-stretch:normal;font-size:15px;line-height:75%;font-family:Rubik;-inkscape-font-specification:'Rubik, Normal';text-align:start;writing-mode:lr-tb;text-anchor:start;fill:#333333"
           id="tspan4975"
           y="433.13873"
           x="130.50998"
           sodipodi:role="line">Hi <tspan
   id="tspan5093"
   style="font-style:normal;font-variant:normal;font-weight:bold;font-stretch:normal;font-size:15px;line-height:75%;font-family:Rubik;-inkscape-font-specification:'Rubik, Bold';text-align:start;writing-mode:lr-tb;text-anchor:start">Ameya Shenoy</tspan>,</tspan><tspan
           style="font-style:normal;font-variant:normal;font-weight:normal;font-stretch:normal;font-size:15px;line-height:75%;font-family:Rubik;-inkscape-font-specification:'Rubik, Normal';text-align:start;writing-mode:lr-tb;text-anchor:start;fill:#333333"
           id="tspan4981"
           y="444.38873"
           x="130.50998"
           sodipodi:role="line"> </tspan><tspan
           style="font-style:normal;font-variant:normal;font-weight:normal;font-stretch:normal;font-size:15px;line-height:75%;font-family:Rubik;-inkscape-font-specification:'Rubik, Normal';text-align:start;writing-mode:lr-tb;text-anchor:start;fill:#333333"
           id="tspan4985"
           y="455.63873"
           x="130.50998"
           sodipodi:role="line">Here is your digital pass for ERPNext Conference 2017</tspan><tspan
           style="font-style:normal;font-variant:normal;font-weight:normal;font-stretch:normal;font-size:15px;line-height:75%;font-family:Rubik;-inkscape-font-specification:'Rubik, Normal';text-align:start;writing-mode:lr-tb;text-anchor:start;fill:#333333"
           id="tspan4987"
           y="466.88873"
           x="130.50998"
           sodipodi:role="line"> </tspan><tspan
           style="font-style:normal;font-variant:normal;font-weight:normal;font-stretch:normal;font-size:15px;line-height:75%;font-family:Rubik;-inkscape-font-specification:'Rubik, Normal';text-align:start;writing-mode:lr-tb;text-anchor:start;fill:#333333"
           id="tspan4989"
           y="478.13873"
           x="130.50998"
           sodipodi:role="line"> </tspan></text>
      <path
         sodipodi:nodetypes="ccccc"
         inkscape:connector-curvature="0"
         id="rect4993"
         d="m 132.28012,477.69797 479.92218,0 0,190.61245 -479.92218,0 z"
         style="fill:#ececec;fill-opacity:1;stroke:#4b4c9d;stroke-width:2;stroke-miterlimit:4;stroke-dasharray:2, 4;stroke-dashoffset:0;stroke-opacity:1" />
      <text
         xml:space="preserve"
         style="font-style:normal;font-variant:normal;font-weight:normal;font-stretch:normal;line-height:0%;font-family:Rubik;-inkscape-font-specification:'Rubik, Normal';text-align:start;letter-spacing:0px;word-spacing:0px;writing-mode:lr-tb;text-anchor:start;fill:#333333;fill-opacity:1;stroke:none;stroke-width:1px;stroke-linecap:butt;stroke-linejoin:miter;stroke-opacity:1"
         x="153.3575"
         y="510.10696"
         id="text5001"><tspan
           sodipodi:role="line"
           id="tspan5003"
           x="153.3575"
           y="510.10696"
           style="font-size:15px;line-height:1.25"><tspan
   id="tspan5065"
   style="font-style:normal;font-variant:normal;font-weight:bold;font-stretch:normal;font-size:15px;line-height:125%;font-family:Rubik;-inkscape-font-specification:'Rubik, Bold';text-align:start;writing-mode:lr-tb;text-anchor:start;fill:#333333">2</tspan> Passes for Full Conference</tspan><tspan
           id="tspan5005"
           sodipodi:role="line"
           x="153.3575"
           y="528.85693"
           style="font-size:15px;line-height:1.25"><tspan
   id="tspan5067"
   style="font-style:normal;font-variant:normal;font-weight:bold;font-stretch:normal;font-size:15px;line-height:125%;font-family:Rubik;-inkscape-font-specification:'Rubik, Bold';text-align:start;writing-mode:lr-tb;text-anchor:start;fill:#333333">1</tspan> Pass for User Conference</tspan></text>
      <flowRoot
         transform="translate(0.734295,-15.979695)"
         style="font-style:normal;font-weight:normal;line-height:0.01%;font-family:sans-serif;letter-spacing:0px;word-spacing:0px;fill:#333333;fill-opacity:1;stroke:none;stroke-width:1px;stroke-linecap:butt;stroke-linejoin:miter;stroke-opacity:1"
         id="flowRoot5013"
         xml:space="preserve"><flowRegion
           id="flowRegion5015"><rect
             style="fill:#333333"
             y="573.54993"
             x="152.53304"
             height="212.13197"
             width="455.57883"
             id="rect5017" /></flowRegion><flowPara
           style="font-style:normal;font-variant:normal;font-weight:bold;font-stretch:normal;font-size:15px;line-height:25.99999905%;font-family:Rubik;-inkscape-font-specification:'Rubik, Bold';text-align:start;writing-mode:lr-tb;text-anchor:start;fill:#333333"
           id="flowPara5019">Venue:</flowPara><flowPara
           style="font-style:normal;font-variant:normal;font-weight:normal;font-stretch:normal;font-size:15px;line-height:26.00000501%;font-family:Rubik;-inkscape-font-specification:'Rubik, Normal';text-align:start;writing-mode:lr-tb;text-anchor:start;fill:#333333"
           id="flowPara5021"> </flowPara><flowPara
           style="font-style:normal;font-variant:normal;font-weight:normal;font-stretch:normal;font-size:15px;line-height:147.00000286%;font-family:Rubik;-inkscape-font-specification:'Rubik, Normal';text-align:start;writing-mode:lr-tb;text-anchor:start;fill:#333333"
           id="flowPara5023">The Mysore Association Auditorium,</flowPara><flowPara
           id="flowPara5053"
           style="font-style:normal;font-variant:normal;font-weight:normal;font-stretch:normal;font-size:15px;line-height:147.00000286%;font-family:Rubik;-inkscape-font-specification:'Rubik, Normal';text-align:start;writing-mode:lr-tb;text-anchor:start;fill:#333333">393, Bhau Daji Road, Matunga (East)</flowPara><flowPara
           id="flowPara5057"
           style="font-style:normal;font-variant:normal;font-weight:normal;font-stretch:normal;font-size:15px;line-height:147.00000286%;font-family:Rubik;-inkscape-font-specification:'Rubik, Normal';text-align:start;writing-mode:lr-tb;text-anchor:start;fill:#333333">Mumbai – 400 019, Maharashtra   </flowPara><flowPara
           id="flowPara5117"
           style="font-style:normal;font-variant:normal;font-weight:normal;font-stretch:normal;font-size:15px;line-height:147.00000286%;font-family:Rubik;-inkscape-font-specification:'Rubik, Normal';text-align:start;writing-mode:lr-tb;text-anchor:start;fill:#333333">Contact : 8451002048</flowPara><flowPara
           style="font-style:normal;font-variant:normal;font-weight:normal;font-stretch:normal;font-size:15px;line-height:147.00000286%;font-family:Rubik;-inkscape-font-specification:'Rubik, Normal';text-align:start;writing-mode:lr-tb;text-anchor:start;fill:#333333"
           id="flowPara5025" /><flowPara
           style="font-style:normal;font-variant:normal;font-weight:normal;font-stretch:normal;font-size:15px;line-height:147.00000286%;font-family:Rubik;-inkscape-font-specification:'Rubik, Normal';text-align:start;writing-mode:lr-tb;text-anchor:start;fill:#333333"
           id="flowPara5027" /><flowPara
           style="font-style:normal;font-variant:normal;font-weight:normal;font-stretch:normal;font-size:15px;line-height:147.00000286%;font-family:Rubik;-inkscape-font-specification:'Rubik, Normal';text-align:start;writing-mode:lr-tb;text-anchor:start;fill:#333333"
           id="flowPara5029" /></flowRoot>      <g
         transform="matrix(0.81359173,0,0,0.81359173,-251.39952,165.27285)"
         id="g6164">
        <path
           d="m 889.94841,593.55757 c -0.0716,-0.0716 -0.10735,-0.15504 -0.10735,-0.25045 0,0 0,-9.28839 0,-9.28839 0,-0.10496 0.0334,-0.19322 0.10019,-0.26477 0.0668,-0.0716 0.15265,-0.10734 0.25761,-0.10734 0,0 4.42236,0 4.42236,0 1.21174,0 2.11338,0.24807 2.70494,0.74421 0.59155,0.49614 0.88733,1.2022 0.88733,2.11815 0,0.45799 -0.12165,0.85395 -0.36495,1.18789 -0.2433,0.33395 -0.51284,0.57725 -0.80862,0.72991 0.39119,0.17173 0.72037,0.45559 0.98752,0.85155 0.26716,0.39596 0.40073,0.84201 0.40073,1.33816 0,0.96366 -0.31724,1.71264 -0.95174,2.24695 -0.63449,0.53431 -1.54329,0.80147 -2.72641,0.80147 0,0 -4.55116,0 -4.55116,0 -0.0954,0 -0.1789,-0.0358 -0.25045,-0.10734 z m 4.37226,-5.94657 c 0.35302,0 0.62495,-0.0954 0.81577,-0.28624 0.19083,-0.19083 0.28624,-0.4389 0.28624,-0.74421 0,-0.29578 -0.093,-0.53669 -0.27908,-0.72275 -0.18605,-0.18606 -0.46036,-0.27909 -0.82293,-0.27909 0,0 -1.78898,0 -1.78898,0 0,0 0,2.03229 0,2.03229 0,0 1.78898,0 1.78898,0 z m 0.12881,4.12181 c 0.37211,0 0.66073,-0.10734 0.86586,-0.32202 0.20514,-0.21467 0.30771,-0.47944 0.30771,-0.7943 0,-0.3244 -0.10496,-0.59394 -0.31486,-0.80863 -0.20991,-0.21467 -0.49614,-0.322 -0.85871,-0.322 0,0 -1.91779,0 -1.91779,0 0,0 0,2.24695 0,2.24695 0,0 1.91779,0 1.91779,0 z"
           style="fill:#38414c;fill-opacity:1;fill-rule:nonzero;stroke:none"
           id="path5194"
           inkscape:connector-curvature="0" />
        <path
           d="m 900.06688,593.55757 c -0.0716,-0.0716 -0.10735,-0.15504 -0.10735,-0.25045 0,0 0,-9.28839 0,-9.28839 0,-0.10496 0.0334,-0.19322 0.10019,-0.26477 0.0668,-0.0716 0.15266,-0.10734 0.25761,-0.10734 0,0 6.75519,0 6.75519,0 0.10495,0 0.19322,0.0358 0.26477,0.10734 0.0716,0.0716 0.10734,0.15981 0.10734,0.26477 0,0 0,1.41687 0,1.41687 0,0.10495 -0.0358,0.19082 -0.10734,0.25761 -0.0716,0.0668 -0.15982,0.10019 -0.26477,0.10019 0,0 -4.52254,0 -4.52254,0 0,0 0,1.8176 0,1.8176 0,0 4.20769,0 4.20769,0 0.10495,0 0.1932,0.0358 0.26477,0.10734 0.0716,0.0716 0.10733,0.15981 0.10733,0.26477 0,0 0,1.30237 0,1.30237 0,0.10496 -0.0358,0.19322 -0.10733,0.26477 -0.0716,0.0716 -0.15982,0.10734 -0.26477,0.10734 0,0 -4.20769,0 -4.20769,0 0,0 0,1.86054 0,1.86054 0,0 4.63703,0 4.63703,0 0.10496,0 0.19322,0.0358 0.26478,0.10734 0.0716,0.0716 0.10734,0.15981 0.10734,0.26477 0,0 0,1.41688 0,1.41688 0,0.10495 -0.0358,0.19082 -0.10734,0.25761 -0.0716,0.0668 -0.15982,0.10018 -0.26478,0.10018 0,0 -6.86968,0 -6.86968,0 -0.0954,0 -0.17889,-0.0358 -0.25045,-0.10734 z"
           style="fill:#38414c;fill-opacity:1;fill-rule:nonzero;stroke:none"
           id="path5196"
           inkscape:connector-curvature="0" />
        <path
           d="m 911.4591,593.56473 c -0.0716,-0.0668 -0.10733,-0.15266 -0.10733,-0.25761 0,0 0,-7.32767 0,-7.32767 0,0 -2.51889,0 -2.51889,0 -0.10495,0 -0.19321,-0.0334 -0.26477,-0.10019 -0.0716,-0.0667 -0.10734,-0.15265 -0.10734,-0.25761 0,0 0,-1.60292 0,-1.60292 0,-0.10496 0.0358,-0.19322 0.10734,-0.26477 0.0716,-0.0716 0.15982,-0.10734 0.26477,-0.10734 0,0 7.77133,0 7.77133,0 0.10495,0 0.19322,0.0358 0.26477,0.10734 0.0716,0.0716 0.10734,0.15981 0.10734,0.26477 0,0 0,1.60292 0,1.60292 0,0.10496 -0.0358,0.19082 -0.10734,0.25761 -0.0715,0.0668 -0.15982,0.10019 -0.26477,0.10019 0,0 -2.51889,0 -2.51889,0 0,0 0,7.32767 0,7.32767 0,0.10495 -0.0358,0.19082 -0.10733,0.25761 -0.0716,0.0668 -0.15982,0.10018 -0.26477,0.10018 0,0 -1.98935,0 -1.98935,0 -0.10495,0 -0.1932,-0.0334 -0.26477,-0.10018 z"
           style="fill:#38414c;fill-opacity:1;fill-rule:nonzero;stroke:none"
           id="path5198"
           inkscape:connector-curvature="0" />
        <path
           d="m 920.54709,593.56473 c -0.0716,-0.0668 -0.10731,-0.15266 -0.10731,-0.25761 0,0 0,-7.32767 0,-7.32767 0,0 -2.51888,0 -2.51888,0 -0.10495,0 -0.1932,-0.0334 -0.26477,-0.10019 -0.0716,-0.0667 -0.10733,-0.15265 -0.10733,-0.25761 0,0 0,-1.60292 0,-1.60292 0,-0.10496 0.0358,-0.19322 0.10733,-0.26477 0.0716,-0.0716 0.15982,-0.10734 0.26477,-0.10734 0,0 7.77135,0 7.77135,0 0.10491,0 0.19323,0.0358 0.26479,0.10734 0.0716,0.0716 0.1073,0.15981 0.1073,0.26477 0,0 0,1.60292 0,1.60292 0,0.10496 -0.0357,0.19082 -0.1073,0.25761 -0.0716,0.0668 -0.15988,0.10019 -0.26479,0.10019 0,0 -2.51893,0 -2.51893,0 0,0 0,7.32767 0,7.32767 0,0.10495 -0.0358,0.19082 -0.10731,0.25761 -0.0716,0.0668 -0.15979,0.10018 -0.26479,0.10018 0,0 -1.98934,0 -1.98934,0 -0.1049,0 -0.19323,-0.0334 -0.26479,-0.10018 z"
           style="fill:#38414c;fill-opacity:1;fill-rule:nonzero;stroke:none"
           id="path5200"
           inkscape:connector-curvature="0" />
        <path
           d="m 927.43115,593.55757 c -0.0716,-0.0716 -0.10739,-0.15504 -0.10739,-0.25045 0,0 0,-9.28839 0,-9.28839 0,-0.10496 0.0335,-0.19322 0.10021,-0.26477 0.0668,-0.0716 0.15262,-0.10734 0.25762,-0.10734 0,0 6.75521,0 6.75521,0 0.10491,0 0.19315,0.0358 0.26471,0.10734 0.0716,0.0716 0.10739,0.15981 0.10739,0.26477 0,0 0,1.41687 0,1.41687 0,0.10495 -0.0358,0.19082 -0.10739,0.25761 -0.0716,0.0668 -0.1598,0.10019 -0.26471,0.10019 0,0 -4.52254,0 -4.52254,0 0,0 0,1.8176 0,1.8176 0,0 4.20764,0 4.20764,0 0.105,0 0.19323,0.0358 0.2648,0.10734 0.0716,0.0716 0.1073,0.15981 0.1073,0.26477 0,0 0,1.30237 0,1.30237 0,0.10496 -0.0358,0.19322 -0.1073,0.26477 -0.0716,0.0716 -0.1598,0.10734 -0.2648,0.10734 0,0 -4.20764,0 -4.20764,0 0,0 0,1.86054 0,1.86054 0,0 4.63702,0 4.63702,0 0.10492,0 0.19324,0.0358 0.26471,0.10734 0.0716,0.0716 0.10739,0.15981 0.10739,0.26477 0,0 0,1.41688 0,1.41688 0,0.10495 -0.0358,0.19082 -0.10739,0.25761 -0.0715,0.0668 -0.15979,0.10018 -0.26471,0.10018 0,0 -6.86969,0 -6.86969,0 -0.0954,0 -0.17887,-0.0358 -0.25044,-0.10734 z"
           style="fill:#38414c;fill-opacity:1;fill-rule:nonzero;stroke:none"
           id="path5202"
           inkscape:connector-curvature="0" />
        <path
           d="m 936.61937,593.55757 c -0.0716,-0.0716 -0.10739,-0.15504 -0.10739,-0.25045 0,0 0,-9.28839 0,-9.28839 0,-0.10496 0.0335,-0.19322 0.10021,-0.26477 0.0668,-0.0716 0.15262,-0.10734 0.25761,-0.10734 0,0 3.93576,0 3.93576,0 1.25942,0 2.24455,0.28624 2.95541,0.85871 0.71076,0.57247 1.06619,1.37871 1.06619,2.4187 0,0.66789 -0.15502,1.23559 -0.46513,1.70311 -0.31011,0.46752 -0.73701,0.83009 -1.28088,1.0877 0,0 1.93205,3.4921 1.93205,3.4921 0.0287,0.0573 0.0429,0.10972 0.0429,0.15742 0,0.0763 -0.0285,0.1455 -0.0858,0.20753 -0.0572,0.062 -0.12876,0.093 -0.2147,0.093 0,0 -2.01798,0 -2.01798,0 -0.27668,0 -0.47221,-0.1288 -0.58678,-0.38642 0,0 -1.57424,-3.10568 -1.57424,-3.10568 0,0 -1.37399,0 -1.37399,0 0,0 0,3.13431 0,3.13431 0,0.10495 -0.0357,0.19082 -0.1073,0.25761 -0.0716,0.0668 -0.1598,0.10018 -0.2648,0.10018 0,0 -1.96069,0 -1.96069,0 -0.0954,0 -0.17896,-0.0358 -0.25044,-0.10734 z m 4.17182,-5.48859 c 0.41032,0 0.72282,-0.10257 0.93743,-0.3077 0.21469,-0.20515 0.32208,-0.489 0.32208,-0.85157 0,-0.36256 -0.10739,-0.65357 -0.32208,-0.87301 -0.21461,-0.21945 -0.52711,-0.32918 -0.93743,-0.32918 0,0 -1.58859,0 -1.58859,0 0,0 0,2.36146 0,2.36146 0,0 1.58859,0 1.58859,0 z"
           style="fill:#38414c;fill-opacity:1;fill-rule:nonzero;stroke:none"
           id="path5204"
           inkscape:connector-curvature="0" />
        <path
           d="m 951.44643,593.56473 c -0.0716,-0.0668 -0.10739,-0.15266 -0.10739,-0.25761 0,0 0,-7.32767 0,-7.32767 0,0 -2.51884,0 -2.51884,0 -0.105,0 -0.19324,-0.0334 -0.2648,-0.10019 -0.0716,-0.0667 -0.1073,-0.15265 -0.1073,-0.25761 0,0 0,-1.60292 0,-1.60292 0,-0.10496 0.0358,-0.19322 0.1073,-0.26477 0.0716,-0.0716 0.1598,-0.10734 0.2648,-0.10734 0,0 7.7713,0 7.7713,0 0.10499,0 0.19323,0.0358 0.26479,0.10734 0.0716,0.0716 0.10731,0.15981 0.10731,0.26477 0,0 0,1.60292 0,1.60292 0,0.10496 -0.0357,0.19082 -0.10731,0.25761 -0.0716,0.0668 -0.1598,0.10019 -0.26479,0.10019 0,0 -2.51884,0 -2.51884,0 0,0 0,7.32767 0,7.32767 0,0.10495 -0.0358,0.19082 -0.10739,0.25761 -0.0716,0.0668 -0.15981,0.10018 -0.26471,0.10018 0,0 -1.98942,0 -1.98942,0 -0.10492,0 -0.19315,-0.0334 -0.26471,-0.10018 z"
           style="fill:#38414c;fill-opacity:1;fill-rule:nonzero;stroke:none"
           id="path5206"
           inkscape:connector-curvature="0" />
        <path
           d="m 959.0245,592.82051 c -0.78233,-0.65835 -1.19744,-1.62677 -1.24515,-2.90531 -0.009,-0.26715 -0.0143,-0.67742 -0.0143,-1.23081 0,-0.55339 0.005,-0.96844 0.0143,-1.24513 0.0382,-1.25945 0.45564,-2.23026 1.25233,-2.91246 0.79669,-0.68221 1.86288,-1.0233 3.19865,-1.0233 1.32629,0 2.38778,0.34109 3.18447,1.0233 0.79669,0.6822 1.21411,1.65301 1.25224,2.91246 0.0191,0.55339 0.0287,0.96844 0.0287,1.24513 0,0.28624 -0.01,0.69651 -0.0287,1.23081 -0.0477,1.27854 -0.46034,2.24696 -1.23796,2.90531 -0.77763,0.65835 -1.84382,0.98752 -3.19875,0.98752 -1.35484,0 -2.42342,-0.32917 -3.20583,-0.98752 z m 4.39378,-1.61008 c 0.29575,-0.30055 0.45315,-0.76092 0.4723,-1.3811 0.0191,-0.55339 0.0285,-0.94935 0.0285,-1.18788 0,-0.23853 -0.01,-0.62495 -0.0285,-1.15926 -0.0192,-0.62018 -0.17655,-1.08054 -0.4723,-1.38109 -0.29584,-0.30055 -0.69178,-0.45082 -1.18795,-0.45082 -0.50565,0 -0.90638,0.15027 -1.20213,0.45082 -0.29583,0.30055 -0.45324,0.76091 -0.47231,1.38109 -0.01,0.26716 -0.0143,0.65358 -0.0143,1.15926 0,0.51523 0.004,0.91119 0.0143,1.18788 0.0191,0.62018 0.17648,1.08055 0.47231,1.3811 0.29575,0.30055 0.69648,0.45082 1.20213,0.45082 0.49617,0 0.89211,-0.15027 1.18795,-0.45082 z"
           style="fill:#38414c;fill-opacity:1;fill-rule:nonzero;stroke:none"
           id="path5208"
           inkscape:connector-curvature="0" />
        <path
           d="m 969.25753,592.79904 c -0.78242,-0.67265 -1.19744,-1.63393 -1.24515,-2.88384 -0.01,-0.26715 -0.0144,-0.70127 -0.0144,-1.30237 0,-0.6011 0.005,-1.03999 0.0144,-1.31669 0.0382,-1.2022 0.45555,-2.13485 1.25224,-2.79797 0.7967,-0.66312 1.87725,-0.99467 3.24167,-0.99467 0.91597,0 1.71505,0.14789 2.39726,0.44366 0.68212,0.29578 1.20213,0.67504 1.55996,1.1378 0.35781,0.46275 0.54625,0.93742 0.56532,1.42402 0,0.0859 -0.031,0.15982 -0.093,0.22183 -0.062,0.062 -0.13595,0.093 -0.22188,0.093 0,0 -2.2183,0 -2.2183,0 -0.0954,0 -0.16938,-0.0167 -0.22188,-0.0501 -0.0524,-0.0334 -0.10251,-0.0835 -0.15022,-0.15027 -0.11449,-0.26716 -0.29814,-0.49614 -0.55105,-0.68697 -0.25282,-0.19083 -0.60825,-0.28623 -1.06619,-0.28623 -1.1068,0 -1.67923,0.57246 -1.71745,1.71741 -0.01,0.26716 -0.0143,0.67743 -0.0143,1.23082 0,0.55339 0.005,0.96844 0.0143,1.24514 0.0382,1.21173 0.62022,1.8176 1.74609,1.8176 0.55336,0 0.99223,-0.13835 1.31662,-0.41505 0.32448,-0.2767 0.48667,-0.6965 0.48667,-1.25944 0,0 0,-0.25761 0,-0.25761 0,0 -1.27379,0 -1.27379,0 -0.1049,0 -0.19323,-0.0358 -0.26479,-0.10734 -0.0716,-0.0716 -0.1073,-0.15981 -0.1073,-0.26476 0,0 0,-1.11634 0,-1.11634 0,-0.10495 0.0358,-0.1932 0.1073,-0.26477 0.0716,-0.0716 0.15989,-0.10733 0.26479,-0.10733 0,0 3.63523,0 3.63523,0 0.1049,0 0.19323,0.0358 0.26479,0.10733 0.0716,0.0716 0.10731,0.15982 0.10731,0.26477 0,0 0,1.66019 0,1.66019 0,0.81099 -0.18845,1.50989 -0.56533,2.09668 -0.37689,0.58678 -0.90879,1.03522 -1.59578,1.34531 -0.68691,0.31009 -1.48839,0.46514 -2.40436,0.46514 -1.38348,0 -2.46643,-0.33633 -3.24876,-1.00899 z"
           style="fill:#38414c;fill-opacity:1;fill-rule:nonzero;stroke:none"
           id="path5210"
           inkscape:connector-curvature="0" />
        <path
           d="m 978.76774,593.55757 c -0.0716,-0.0716 -0.10739,-0.15504 -0.10739,-0.25045 0,0 0,-9.28839 0,-9.28839 0,-0.10496 0.0335,-0.19322 0.10021,-0.26477 0.0668,-0.0716 0.15261,-0.10734 0.25761,-0.10734 0,0 6.75522,0 6.75522,0 0.10491,0 0.19314,0.0358 0.2647,0.10734 0.0716,0.0716 0.10739,0.15981 0.10739,0.26477 0,0 0,1.41687 0,1.41687 0,0.10495 -0.0358,0.19082 -0.10739,0.25761 -0.0716,0.0668 -0.15979,0.10019 -0.2647,0.10019 0,0 -4.52255,0 -4.52255,0 0,0 0,1.8176 0,1.8176 0,0 4.20765,0 4.20765,0 0.105,0 0.19323,0.0358 0.26479,0.10734 0.0716,0.0716 0.10731,0.15981 0.10731,0.26477 0,0 0,1.30237 0,1.30237 0,0.10496 -0.0358,0.19322 -0.10731,0.26477 -0.0716,0.0716 -0.15979,0.10734 -0.26479,0.10734 0,0 -4.20765,0 -4.20765,0 0,0 0,1.86054 0,1.86054 0,0 4.63703,0 4.63703,0 0.10491,0 0.19323,0.0358 0.26471,0.10734 0.0716,0.0716 0.10739,0.15981 0.10739,0.26477 0,0 0,1.41688 0,1.41688 0,0.10495 -0.0358,0.19082 -0.10739,0.25761 -0.0715,0.0668 -0.1598,0.10018 -0.26471,0.10018 0,0 -6.8697,0 -6.8697,0 -0.0954,0 -0.17887,-0.0358 -0.25043,-0.10734 z"
           style="fill:#38414c;fill-opacity:1;fill-rule:nonzero;stroke:none"
           id="path5212"
           inkscape:connector-curvature="0" />
        <path
           d="m 990.1599,593.56473 c -0.0715,-0.0668 -0.1073,-0.15266 -0.1073,-0.25761 0,0 0,-7.32767 0,-7.32767 0,0 -2.51884,0 -2.51884,0 -0.105,0 -0.19323,-0.0334 -0.2648,-0.10019 -0.0716,-0.0667 -0.10739,-0.15265 -0.10739,-0.25761 0,0 0,-1.60292 0,-1.60292 0,-0.10496 0.0358,-0.19322 0.10739,-0.26477 0.0716,-0.0716 0.1598,-0.10734 0.2648,-0.10734 0,0 7.7713,0 7.7713,0 0.10491,0 0.19323,0.0358 0.26479,0.10734 0.0716,0.0716 0.10731,0.15981 0.10731,0.26477 0,0 0,1.60292 0,1.60292 0,0.10496 -0.0357,0.19082 -0.10731,0.25761 -0.0716,0.0668 -0.15988,0.10019 -0.26479,0.10019 0,0 -2.51893,0 -2.51893,0 0,0 0,7.32767 0,7.32767 0,0.10495 -0.0357,0.19082 -0.1073,0.25761 -0.0716,0.0668 -0.1598,0.10018 -0.2648,0.10018 0,0 -1.98933,0 -1.98933,0 -0.10492,0 -0.19323,-0.0334 -0.2648,-0.10018 z"
           style="fill:#38414c;fill-opacity:1;fill-rule:nonzero;stroke:none"
           id="path5214"
           inkscape:connector-curvature="0" />
        <path
           d="m 997.03679,593.56473 c -0.0668,-0.0668 -0.10021,-0.15266 -0.10021,-0.25761 0,0 0,-9.28839 0,-9.28839 0,-0.10496 0.0335,-0.19322 0.10021,-0.26477 0.0668,-0.0716 0.15261,-0.10734 0.25761,-0.10734 0,0 1.96069,0 1.96069,0 0.105,0 0.19323,0.0358 0.2648,0.10734 0.0716,0.0716 0.1073,0.15981 0.1073,0.26477 0,0 0,3.3919 0,3.3919 0,0 3.37761,0 3.37761,0 0,0 0,-3.3919 0,-3.3919 0,-0.10496 0.036,-0.19322 0.1074,-0.26477 0.072,-0.0716 0.1598,-0.10734 0.2647,-0.10734 0,0 1.9464,0 1.9464,0 0.105,0 0.1932,0.0358 0.2648,0.10734 0.072,0.0716 0.1073,0.15981 0.1073,0.26477 0,0 0,9.28839 0,9.28839 0,0.10495 -0.036,0.19082 -0.1073,0.25761 -0.072,0.0668 -0.1598,0.10018 -0.2648,0.10018 0,0 -1.9464,0 -1.9464,0 -0.1049,0 -0.1932,-0.0334 -0.2647,-0.10018 -0.072,-0.0668 -0.1074,-0.15266 -0.1074,-0.25761 0,0 0,-3.50641 0,-3.50641 0,0 -3.37761,0 -3.37761,0 0,0 0,3.50641 0,3.50641 0,0.10495 -0.0357,0.19082 -0.1073,0.25761 -0.0716,0.0668 -0.1598,0.10018 -0.2648,0.10018 0,0 -1.96069,0 -1.96069,0 -0.105,0 -0.19084,-0.0334 -0.25761,-0.10018 z"
           style="fill:#38414c;fill-opacity:1;fill-rule:nonzero;stroke:none"
           id="path5216"
           inkscape:connector-curvature="0" />
        <path
           d="m 1007.7492,593.55757 c -0.072,-0.0716 -0.1074,-0.15504 -0.1074,-0.25045 0,0 0,-9.28839 0,-9.28839 0,-0.10496 0.033,-0.19322 0.1002,-0.26477 0.067,-0.0716 0.1527,-0.10734 0.2576,-0.10734 0,0 6.7553,0 6.7553,0 0.1049,0 0.1932,0.0358 0.2647,0.10734 0.072,0.0716 0.1074,0.15981 0.1074,0.26477 0,0 0,1.41687 0,1.41687 0,0.10495 -0.036,0.19082 -0.1074,0.25761 -0.072,0.0668 -0.1598,0.10019 -0.2647,0.10019 0,0 -4.5226,0 -4.5226,0 0,0 0,1.8176 0,1.8176 0,0 4.2077,0 4.2077,0 0.105,0 0.1932,0.0358 0.2648,0.10734 0.072,0.0716 0.1073,0.15981 0.1073,0.26477 0,0 0,1.30237 0,1.30237 0,0.10496 -0.036,0.19322 -0.1073,0.26477 -0.072,0.0716 -0.1598,0.10734 -0.2648,0.10734 0,0 -4.2077,0 -4.2077,0 0,0 0,1.86054 0,1.86054 0,0 4.637,0 4.637,0 0.105,0 0.1933,0.0358 0.2648,0.10734 0.072,0.0716 0.1073,0.15981 0.1073,0.26477 0,0 0,1.41688 0,1.41688 0,0.10495 -0.036,0.19082 -0.1073,0.25761 -0.072,0.0668 -0.1598,0.10018 -0.2648,0.10018 0,0 -6.8697,0 -6.8697,0 -0.095,0 -0.1788,-0.0358 -0.2504,-0.10734 z"
           style="fill:#38414c;fill-opacity:1;fill-rule:nonzero;stroke:none"
           id="path5218"
           inkscape:connector-curvature="0" />
        <path
           d="m 1016.9374,593.55757 c -0.072,-0.0716 -0.1074,-0.15504 -0.1074,-0.25045 0,0 0,-9.28839 0,-9.28839 0,-0.10496 0.034,-0.19322 0.1002,-0.26477 0.067,-0.0716 0.1527,-0.10734 0.2577,-0.10734 0,0 3.9357,0 3.9357,0 1.2594,0 2.2446,0.28624 2.9554,0.85871 0.7109,0.57247 1.0662,1.37871 1.0662,2.4187 0,0.66789 -0.155,1.23559 -0.4651,1.70311 -0.3101,0.46752 -0.737,0.83009 -1.2809,1.0877 0,0 1.9321,3.4921 1.9321,3.4921 0.029,0.0573 0.043,0.10972 0.043,0.15742 0,0.0763 -0.029,0.1455 -0.086,0.20753 -0.057,0.062 -0.1288,0.093 -0.2147,0.093 0,0 -2.0179,0 -2.0179,0 -0.2768,0 -0.4723,-0.1288 -0.5868,-0.38642 0,0 -1.5743,-3.10568 -1.5743,-3.10568 0,0 -1.374,0 -1.374,0 0,0 0,3.13431 0,3.13431 0,0.10495 -0.036,0.19082 -0.1073,0.25761 -0.072,0.0668 -0.1598,0.10018 -0.2648,0.10018 0,0 -1.9607,0 -1.9607,0 -0.095,0 -0.1789,-0.0358 -0.2505,-0.10734 z m 4.1719,-5.48859 c 0.4103,0 0.7228,-0.10257 0.9375,-0.3077 0.2146,-0.20515 0.322,-0.489 0.322,-0.85157 0,-0.36256 -0.1074,-0.65357 -0.322,-0.87301 -0.2147,-0.21945 -0.5272,-0.32918 -0.9375,-0.32918 0,0 -1.5886,0 -1.5886,0 0,0 0,2.36146 0,2.36146 0,0 1.5886,0 1.5886,0 z"
           style="fill:#38414c;fill-opacity:1;fill-rule:nonzero;stroke:none"
           id="path5220"
           inkscape:connector-curvature="0" />
      </g>
      <g
         transform="matrix(1.3437575,0,0,1.3437575,-183.56689,-180.32564)"
         id="g6138">
        <path
           d="m 578.72992,597.31366 c 0,0 -37.5823,-3.09622 -37.5823,-3.09622 0,0 11.85121,-8.43462 11.85121,-8.43462 0,0 1.60151,-5.55197 1.60151,-5.55197 0,0 16.54894,0.1067 16.54894,0.1067 0,0 -16.22857,-1.60133 -16.22857,-1.60133 0,0 2.77603,-12.06471 2.77603,-12.06471 0,0 -2.66924,-0.42699 -2.66924,-0.42699 0,0 -7.79413,11.53068 -7.79413,11.53068 0,0 -13.45255,-0.10671 -13.45255,-0.10671 0,0 12.91911,2.34887 12.91911,2.34887 0,0 -1.70855,2.88273 -1.70855,2.88273 0,0 -24.66328,-3.73688 -28.07962,-3.20302 0,0 -6.08601,0.53378 -10.14309,6.93973 0,0 -3.34512,0.0466 -3.34512,0.0466 0,0 -17.47437,-5.70519 -17.47437,-5.70519 0,0 -6.08576,0.96103 -6.08576,0.96103 0,0 15.48214,9.21258 15.48214,9.21258 0,0 -1.70907,2.47832 -0.10756,4.4002 1.60134,1.9217 6.72632,3.68353 6.72632,3.68353 0,0 16.39564,4.65737 25.30376,-1.28131 0.48051,-0.32038 48.84596,2.08201 48.84596,2.08201 0,0 2.61588,-2.72258 2.61588,-2.72258 z"
           style="fill:#eceae9;fill-opacity:1;fill-rule:nonzero;stroke:none"
           id="path5246"
           inkscape:connector-curvature="0" />
        <path
           d="m 553.69284,584.66174 c 0,0 0.3756,-3.9803 -9.42129,-2.7909 -9.79664,1.18939 0,0 0,0 0,0 -27.41332,-3.4549 -30.29605,-2.17385 -2.88264,1.2813 -5.33856,6.12678 -5.33856,6.12678 0,0 -5.23142,1.40033 -5.23142,1.40033 0,0 -15.05409,5.60524 -4.96459,9.60914 10.08948,4.00364 20.97967,4.48415 27.54601,1.28122 0,0 7.25976,-0.74736 15.16076,-3.89685 0,0 10.62335,-7.31371 12.54514,-9.55587"
           style="fill:#6d71b5;fill-opacity:1;fill-rule:nonzero;stroke:none"
           id="path5248"
           inkscape:connector-curvature="0" />
        <path
           d="m 530.79138,588.1316 c 0,0 -0.96077,-4.48406 -0.96077,-4.48406 0,0 -3.63026,-0.74754 -3.63026,-0.74754 0,0 1.92188,5.65859 1.92188,5.65859 0,0 2.66915,-0.42699 2.66915,-0.42699 z"
           style="fill:#ffffff;fill-opacity:1;fill-rule:nonzero;stroke:none"
           id="path5250"
           inkscape:connector-curvature="0" />
        <path
           d="m 536.7116,587.26634 c 0,0 -0.81567,-3.45755 -0.81567,-3.45755 0,0 -2.54227,0.26565 -2.54227,0.26565 0,0 1.28131,3.41668 1.28131,3.41668 0,0 1.70804,-0.53403 1.70804,-0.53403"
           style="fill:#ffffff;fill-opacity:1;fill-rule:nonzero;stroke:none"
           id="path5252"
           inkscape:connector-curvature="0" />
        <path
           d="m 541.25458,586.20981 c 0,0 -0.33029,-2.08493 -0.33029,-2.08493 0,0 -2.01875,0.26993 -2.01875,0.26993 0,0 0.95025,2.66915 0.95025,2.66915 0,0 1.39879,-0.85415 1.39879,-0.85415 z"
           style="fill:#ffffff;fill-opacity:1;fill-rule:nonzero;stroke:none"
           id="path5254"
           inkscape:connector-curvature="0" />
        <path
           d="m 525.5597,588.66547 c 0,0 -1.28114,-4.48424 -1.28114,-4.48424 0,0 -0.42699,4.91122 -0.42699,4.91122 0,0 1.70813,-0.42698 1.70813,-0.42698 z"
           style="fill:#ffffff;fill-opacity:1;fill-rule:nonzero;stroke:none"
           id="path5256"
           inkscape:connector-curvature="0" />
        <path
           d="m 521.82299,588.34527 c 0,0 -12.59858,-2.66924 -12.59858,-2.66924 0,0 4.05726,-4.37736 4.05726,-4.37736 0,0 9.50217,1.49446 9.50217,1.49446 0,0 -0.53386,5.87225 -0.53386,5.87225"
           style="fill:#ffffff;fill-opacity:1;fill-rule:nonzero;stroke:none"
           id="path5258"
           inkscape:connector-curvature="0" />
        <path
           d="m 501.32366,597.63395 c 0,0 2.13521,-1.60143 -0.42724,-3.2031 -2.56237,-1.60151 -5.23152,0.53403 -4.80436,2.77602 0.42699,2.24208 5.2316,0.42708 5.2316,0.42708"
           style="fill:#ffffff;fill-opacity:1;fill-rule:nonzero;stroke:none"
           id="path5260"
           inkscape:connector-curvature="0" />
        <path
           d="m 553.60999,585.65209 c 0,0 1.94111,-7.97813 1.94111,-7.97813 0,0 2.14564,-11.00245 2.14564,-11.00245 0,0 -2.82075,-0.0243 -2.82075,-0.0243 0,0 -8.88905,14.28985 -8.88905,14.28985 0,0 7.93222,-1.37185 7.62305,4.71501"
           style="fill:#f48789;fill-opacity:1;fill-rule:nonzero;stroke:none"
           id="path5262"
           inkscape:connector-curvature="0" />
        <path
           d="m 577.94229,597.81486 c 0,0 -36.23097,-3.48807 -36.23097,-3.48807 0,0 -5.96339,2.58784 -9.6765,3.26296 0,0 43.43198,1.91289 43.43198,1.91289 0,0 2.47549,-1.68778 2.47549,-1.68778 z"
           style="fill:#f48789;fill-opacity:1;fill-rule:nonzero;stroke:none"
           id="path5264"
           inkscape:connector-curvature="0" />
        <path
           d="m 500.75466,586.56301 c 0,0 -14.40226,-5.51341 -14.40226,-5.51341 0,0 -5.06332,1.12519 -5.06332,1.12519 0,0 13.95217,8.5515 13.95217,8.5515 0,0 2.47541,-3.82572 5.51341,-4.16328"
           style="fill:#f48789;fill-opacity:1;fill-rule:nonzero;stroke:none"
           id="path5266"
           inkscape:connector-curvature="0" />
        <path
           d="m 503.34164,586.68288 c -0.71906,-0.23341 -1.43443,-0.47615 -2.15127,-0.71495 -0.74129,-0.24659 -1.47796,-0.50565 -2.21737,-0.75813 -0.73821,-0.25488 -1.47847,-0.50437 -2.21386,-0.76711 0,0 -2.20933,-0.78011 -2.20933,-0.78011 -0.73582,-0.26146 -1.4742,-0.51642 -2.20771,-0.7843 0,0 -2.20342,-0.79574 -2.20342,-0.79574 0,0 -2.19782,-0.81115 -2.19782,-0.81115 0,0 -2.19309,-0.82414 -2.19309,-0.82414 0,0 0.1011,0.0151 0.1011,0.0151 -1.13773,0.053 -2.27479,0.11679 -3.40745,0.2117 -0.56641,0.0444 -1.13198,0.0967 -1.69401,0.16502 -0.56035,0.0702 -1.12288,0.15338 -1.65605,0.29163 -0.13215,0.0358 -0.26143,0.0778 -0.37806,0.12928 -0.0596,0.025 -0.11123,0.0554 -0.15494,0.0854 -0.017,0.0148 -0.041,0.0311 -0.0473,0.043 -0.005,0.006 -0.0123,0.0146 -0.008,0.007 3.4e-4,-0.002 -3.3e-4,-0.004 -0.002,-0.007 -0.002,-0.006 -0.003,0.0133 -0.005,0.0187 -0.005,0.0116 -0.003,0.0347 0.0258,0.0729 0.029,0.0376 0.0731,0.0745 0.12085,0.10927 0,0 0.0444,0.0297 0.0444,0.0297 0,0 0.0111,0.008 0.0111,0.008 -0.013,-0.008 0.003,0.002 0.003,0.002 0,0 0.0231,0.0135 0.0231,0.0135 0,0 0.0923,0.0543 0.0923,0.0543 0,0 0.18447,0.1085 0.18447,0.1085 0,0 1.47765,0.86467 1.47765,0.86467 0.49333,0.28694 0.98397,0.57858 1.47984,0.86099 0,0 1.48659,0.84859 1.48659,0.84859 0.99224,0.5637 1.99039,1.11646 2.99343,1.66093 0.50025,0.27428 1.00592,0.53925 1.50871,0.80926 0,0 1.51021,0.80678 1.51021,0.80678 0,0 1.50986,0.80772 1.50986,0.80772 0.50419,0.26788 1.00224,0.54601 1.50386,0.81858 0,0 1.49447,0.83483 1.49447,0.83483 0,0 1.48813,0.84603 1.48813,0.84603 0,0 -0.24881,0.0215 -0.24881,0.0215 0,0 0.81064,-0.65032 0.81064,-0.65032 0.26889,-0.2182 0.55292,-0.41955 0.82841,-0.63006 0.13834,-0.10465 0.27676,-0.20896 0.42143,-0.30651 0,0 0.42921,-0.29703 0.42921,-0.29703 0.14125,-0.10072 0.28976,-0.19323 0.43982,-0.28335 0,0 0.4469,-0.27394 0.4469,-0.27394 0,0 0.008,-0.005 0.008,-0.005 0,0 0.007,-0.003 0.007,-0.003 0,0 1.18667,-0.51309 1.18667,-0.51309 0.39475,-0.17194 0.79592,-0.33149 1.19581,-0.49232 0.20101,-0.0783 0.39843,-0.16287 0.60252,-0.23572 0,0 0.60756,-0.22503 0.60756,-0.22503 0.20204,-0.0761 0.40408,-0.15057 0.60996,-0.2135 0,0 0.54216,-0.17228 0.54216,-0.17228 z m 0.14818,6.9e-4 c 0,0 -0.65537,0.26864 -0.65537,0.26864 0,0 -0.29908,0.12133 -0.29908,0.12133 0,0 -0.29471,0.13047 -0.29471,0.13047 0,0 -0.58816,0.26043 -0.58816,0.26043 -0.19665,0.0844 -0.38954,0.18127 -0.58431,0.27138 -0.38766,0.18622 -0.78113,0.35713 -1.16623,0.54874 0,0 -1.1622,0.55764 -1.1622,0.55764 0,0 0.0148,-0.008 0.0148,-0.008 0,0 -0.42622,0.28189 -0.42622,0.28189 -0.14262,0.0926 -0.28386,0.18734 -0.42006,0.29182 0,0 -0.41434,0.30258 -0.41434,0.30258 -0.13962,0.0984 -0.27411,0.20495 -0.40861,0.31156 -0.26804,0.21453 -0.54301,0.41895 -0.80507,0.64134 0,0 -0.79498,0.65605 -0.79498,0.65605 0,0 -0.1156,0.0956 -0.1156,0.0956 0,0 -0.13312,-0.0738 -0.13312,-0.0738 0,0 -1.49643,-0.83021 -1.49643,-0.83021 0,0 -1.48993,-0.84158 -1.48993,-0.84158 -0.49351,-0.28617 -0.99009,-0.5667 -1.48087,-0.85765 0,0 -1.47462,-0.8686 -1.47462,-0.8686 0,0 -1.47426,-0.86954 -1.47426,-0.86954 -0.49199,-0.28856 -0.98128,-0.5826 -1.47579,-0.86681 -0.98667,-0.57319 -1.97807,-1.13792 -2.97571,-1.69145 0,0 -1.4979,-0.8279 -1.4979,-0.8279 -0.49891,-0.27625 -1.00321,-0.54327 -1.50465,-0.81533 0,0 -1.50685,-0.81148 -1.50685,-0.81148 0,0 -0.18852,-0.10098 -0.18852,-0.10098 0,0 -0.0944,-0.0506 -0.0944,-0.0506 0,0 -0.0236,-0.0125 -0.0236,-0.0125 0,0 -0.0316,-0.0184 -0.0316,-0.0184 0,0 -0.0458,-0.0279 -0.0458,-0.0279 -0.0694,-0.0461 -0.1394,-0.0972 -0.20118,-0.17015 -0.0609,-0.0702 -0.12287,-0.18981 -0.10194,-0.32063 0.003,-0.0118 -6.8e-4,-0.0109 0.006,-0.0332 0.005,-0.0187 0.0122,-0.0376 0.0198,-0.056 0.0166,-0.0419 0.0329,-0.0609 0.049,-0.0831 0.0331,-0.048 0.0689,-0.0744 0.1043,-0.10661 0.0709,-0.0547 0.14245,-0.0977 0.21316,-0.13133 0.14178,-0.0695 0.28288,-0.12047 0.42431,-0.16502 0.56524,-0.17425 1.13435,-0.26385 1.70279,-0.35294 0.56879,-0.0842 1.13824,-0.15194 1.70786,-0.21136 1.14009,-0.11252 2.28103,-0.19357 3.42196,-0.26377 0,0 0.0501,-0.003 0.0501,-0.003 0,0 0.0508,0.0184 0.0508,0.0184 0,0 2.20407,0.79422 2.20407,0.79422 0,0 2.19916,0.80746 2.19916,0.80746 0,0 2.19358,0.8226 2.19358,0.8226 0.73214,0.27155 1.45958,0.55618 2.18941,0.83414 0,0 2.1877,0.83851 2.1877,0.83851 0.73043,0.27659 1.45565,0.56669 2.18309,0.85124 0.72641,0.28711 1.45538,0.56746 2.17965,0.86047 0.72453,0.2925 1.4506,0.58021 2.17283,0.87912 0,0 0.0575,0.024 0.0575,0.024 z"
           style="fill:#070504;fill-opacity:1;fill-rule:nonzero;stroke:none"
           id="path5268"
           inkscape:connector-curvature="0" />
        <path
           d="m 580.3617,597.01646 c 0,0 -19.08489,-1.37852 -19.08489,-1.37852 0,0 -19.14046,-1.41879 -19.14046,-1.41879 0,0 -0.72795,-0.054 -0.72795,-0.054 0,0 0.65501,-0.33166 0.65501,-0.33166 0,0 1.58535,-0.80251 1.58535,-0.80251 0.26394,-0.13406 0.51899,-0.28343 0.77891,-0.4245 0,0 0.77634,-0.42853 0.77634,-0.42853 0.25437,-0.14835 0.5013,-0.30584 0.75206,-0.45803 0,0 0.37501,-0.23008 0.37501,-0.23008 0,0 0.18751,-0.11491 0.18751,-0.11491 0,0 0.18262,-0.12766 0.18262,-0.12766 0,0 0.72966,-0.51223 0.72966,-0.51223 0,0 0.0913,-0.064 0.0913,-0.064 0,0 0.0454,-0.0319 0.0454,-0.0319 0,0 0.0116,-0.008 0.0116,-0.008 0,0 0.003,-0.002 0.003,-0.002 0.004,-0.003 -0.0274,0.0209 -0.0127,0.01 0,0 0.005,-0.004 0.005,-0.004 0,0 0.021,-0.0182 0.021,-0.0182 0,0 0.16878,-0.14501 0.16878,-0.14501 0,0 0.33755,-0.29062 0.33755,-0.29062 0,0 2.70062,-2.32373 2.70062,-2.32373 0.22487,-0.19391 0.45221,-0.38551 0.66887,-0.58687 0,0 0.65758,-0.59679 0.65758,-0.59679 0,0 1.31508,-1.19376 1.31508,-1.19376 0,0 -0.0648,0.10902 -0.0648,0.10902 0,0 1.36236,-4.98767 1.36236,-4.98767 0,0 0.0525,-0.19229 0.0525,-0.19229 0,0 0.20068,0.007 0.20068,0.007 2.87349,0.10012 5.74656,0.21674 8.61981,0.30583 1.43648,0.0434 2.87358,0.10064 4.30956,0.13116 0,0 2.15392,0.0536 2.15392,0.0536 0.35953,0.0105 0.7153,0.006 1.07312,0.01 0,0 1.07192,0.005 1.07192,0.005 0,0 -0.11628,0.0304 -0.11628,0.0304 0.10969,-0.0616 0.22221,-0.12021 0.32703,-0.18647 0.0537,-0.0321 0.10722,-0.0642 0.15715,-0.0993 0.0499,-0.035 0.10397,-0.067 0.1504,-0.10448 0.0466,-0.0371 0.0987,-0.0709 0.14091,-0.11021 0.0425,-0.0388 0.0911,-0.0754 0.12705,-0.11645 0.0402,-0.0397 0.0777,-0.0799 0.10739,-0.12133 0.0366,-0.0406 0.0535,-0.0819 0.0807,-0.12175 0,0 0.2087,0.37996 0.2087,0.37996 0,0 -17.58794,-1.78063 -17.58794,-1.78063 0,0 -0.28856,-0.0291 -0.28856,-0.0291 0,0 0.0617,-0.28308 0.0617,-0.28308 0,0 2.71028,-12.42809 2.71028,-12.42809 0,0 0.17126,0.28292 0.17126,0.28292 0,0 -0.98274,-0.27257 -0.98274,-0.27257 0,0 -0.49146,-0.13638 -0.49146,-0.13638 0,0 -0.12278,-0.0341 -0.12278,-0.0341 0,0 -0.0616,-0.017 -0.0616,-0.017 0,0 -10e-4,-6.9e-4 -10e-4,-6.9e-4 0.0263,0.006 0.007,0.002 0.0123,0.003 0,0 -6.9e-4,-1.7e-4 -6.9e-4,-1.7e-4 0,0 -0.003,-5.1e-4 -0.003,-5.1e-4 0,0 -0.008,-6.8e-4 -0.008,-6.8e-4 0,0 -0.0148,-0.003 -0.0148,-0.003 0,0 -0.03,-0.005 -0.03,-0.005 0,0 -0.23897,-0.0384 -0.23897,-0.0384 -0.0792,-0.0143 -0.15954,-0.0258 -0.24274,-0.03 0,0 -0.24675,-0.0198 -0.24675,-0.0198 -0.16339,-0.0175 -0.33166,-0.0161 -0.49821,-0.0213 -0.16673,-0.005 -0.33371,-0.009 -0.50198,-0.003 0,0 -0.50394,0.009 -0.50394,0.009 0,0 0.19914,-0.12509 0.19914,-0.12509 -1.14802,2.16333 -2.30663,4.32154 -3.50415,6.4593 -1.19915,2.13648 -2.41702,4.26382 -3.73705,6.33481 -0.33218,0.51668 -0.67101,1.02943 -1.02567,1.53303 -0.35713,0.50248 -0.72154,1.00052 -1.14476,1.46479 -0.21726,0.22939 -0.43127,0.45879 -0.74557,0.63612 -0.0499,0.0225 -0.10191,0.0431 -0.15373,0.0611 -0.0452,0.0128 -0.0775,0.0152 -0.11679,0.0233 6.8e-4,6.8e-4 -0.0572,0.005 -0.0395,0.003 0,0 -0.0144,1.7e-4 -0.0144,1.7e-4 0,0 -0.0288,1.7e-4 -0.0288,1.7e-4 0,0 -0.0579,3.4e-4 -0.0579,3.4e-4 0,0 -0.11559,6.9e-4 -0.11559,6.9e-4 0,0 -0.46196,0.003 -0.46196,0.003 -0.3084,0.007 -0.61535,-0.005 -0.92289,-0.0137 -0.30755,-0.008 -0.61484,-0.015 -0.92135,-0.0356 -1.22788,-0.0551 -2.44882,-0.17913 -3.66891,-0.30293 -1.2177,-0.13979 -2.43574,-0.29386 -3.64728,-0.47128 0,0 -3.63325,-0.5266 -3.63325,-0.5266 0,0 -1.81637,-0.26077 -1.81637,-0.26077 0,0 -1.82031,-0.23 -1.82031,-0.23 0,0 -1.82056,-0.2282 -1.82056,-0.2282 -0.60662,-0.0785 -1.21556,-0.12996 -1.82312,-0.19631 0,0 -1.82415,-0.18853 -1.82415,-0.18853 -0.60825,-0.0598 -1.21992,-0.0967 -1.82971,-0.14629 0,0 -0.91529,-0.0698 -0.91529,-0.0698 0,0 -0.45768,-0.0349 -0.45768,-0.0349 0,0 -0.22888,-0.0174 -0.22888,-0.0174 0,0 -0.2247,-0.003 -0.2247,-0.003 0,0 -0.45384,-0.007 -0.45384,-0.007 0,0 -0.45298,0.0282 -0.45298,0.0282 0,0 -0.22648,0.0147 -0.22648,0.0147 -0.0752,0.007 -0.14989,0.0207 -0.22479,0.0307 0,0 -0.4493,0.066 -0.4493,0.066 -1.19111,0.22512 -2.32878,0.69469 -3.37069,1.31747 -1.0401,0.62989 -1.98412,1.41195 -2.85109,2.26679 -0.86706,0.85688 -1.65657,1.79098 -2.39162,2.76542 0,0 -0.0154,0.0205 -0.0154,0.0205 0,0 -0.0238,0.008 -0.0238,0.008 -2.57707,0.86749 -5.1349,1.81535 -7.57166,3.02014 -0.3031,0.15287 -0.60594,0.30626 -0.904,0.46845 -0.29857,0.16126 -0.59491,0.32627 -0.88535,0.50129 -0.14655,0.0852 -0.2907,0.17416 -0.43349,0.26548 -0.14424,0.0887 -0.28557,0.18194 -0.42562,0.27702 -0.28224,0.18716 -0.55482,0.38749 -0.82149,0.59508 -0.26377,0.21051 -0.52164,0.4287 -0.75941,0.66648 -0.24172,0.23393 -0.46248,0.48795 -0.65622,0.75933 -0.19332,0.27121 -0.36004,0.56242 -0.46666,0.87433 -0.10739,0.31088 -0.15553,0.64065 -0.12646,0.96607 0,0 -0.008,-0.0307 -0.008,-0.0307 0.0894,0.1864 0.17219,0.37672 0.27086,0.55764 0.048,0.0911 0.0932,0.18434 0.14706,0.27197 0.053,0.0877 0.10089,0.17938 0.15792,0.26412 0,0 0.0851,0.12756 0.0851,0.12756 0.0291,0.0419 0.0547,0.0871 0.0871,0.1256 0.0641,0.0781 0.12048,0.1645 0.19076,0.23581 0,0 0.1026,0.1097 0.1026,0.1097 0.0326,0.0389 0.074,0.0652 0.11038,0.0983 0.0383,0.0302 0.073,0.0674 0.11559,0.0892 0,0 0.12219,0.0752 0.12219,0.0752 0,0 -0.11697,0.15681 -0.11697,0.15681 -0.20622,-0.22769 -0.36962,-0.50446 -0.43725,-0.81114 -0.0746,-0.30806 -0.0356,-0.6245 0.0489,-0.92016 0.0237,-0.0728 0.0423,-0.15193 0.0709,-0.21956 0,0 0.0875,-0.20187 0.0875,-0.20187 0.0165,-0.0355 0.025,-0.0636 0.0481,-0.10483 0,0 0.0535,-0.0998 0.0535,-0.0998 0.0367,-0.0655 0.0685,-0.13433 0.11004,-0.1976 0.158,-0.25846 0.35457,-0.49316 0.57807,-0.70076 0.22956,-0.20135 0.49026,-0.36423 0.76677,-0.49239 0.28052,-0.1174 0.5731,-0.20366 0.87133,-0.25078 0.14877,-0.0243 0.29891,-0.038 0.44845,-0.0499 0.14988,-0.003 0.30028,-0.0166 0.44964,-0.007 0.14955,0.004 0.29908,0.009 0.44709,0.0259 0,0 0.22281,0.0209 0.22281,0.0209 0,0 0.22248,0.0331 0.22248,0.0331 0.1497,0.0196 0.29429,0.0467 0.43724,0.0766 0,0 0.21923,0.0442 0.21923,0.0442 0,0 0.21588,0.054 0.21588,0.054 0.1445,0.0339 0.28797,0.0722 0.42973,0.11748 0.14313,0.0404 0.28471,0.086 0.42468,0.13868 0,0 0.21024,0.0761 0.21024,0.0761 0,0 0.20657,0.0878 0.20657,0.0878 0.13929,0.0546 0.27241,0.12491 0.40664,0.19238 0.1357,0.0641 0.26087,0.15056 0.39168,0.22538 0.12304,0.0879 0.2518,0.16843 0.36731,0.26778 0.23983,0.18767 0.4464,0.4181 0.62971,0.66434 0.17605,0.25334 0.30985,0.53438 0.40587,0.82747 0.0832,0.29036 0.13398,0.61928 0.13706,0.90314 0.0112,0.32191 -0.0551,0.63561 -0.1781,0.92358 0,0 0.004,-0.0121 0.004,-0.0121 -0.0429,0.10226 -0.0778,0.20879 -0.13963,0.30191 -0.0511,0.0998 -0.12457,0.1828 -0.19237,0.27026 -0.0783,0.0756 -0.15091,0.16117 -0.23966,0.22273 0,0 -0.1291,0.0987 -0.1291,0.0987 0,0 -0.13672,0.0841 -0.13672,0.0841 -0.0898,0.0601 -0.18784,0.0993 -0.28206,0.14783 -0.0957,0.0451 -0.19477,0.0788 -0.29199,0.11833 0,0 -0.29771,0.0944 -0.29771,0.0944 0,0 -0.30105,0.0746 -0.30105,0.0746 0,0 -0.30318,0.0589 -0.30318,0.0589 -0.10106,0.0199 -0.20273,0.0304 -0.30413,0.0459 -0.10123,0.0159 -0.20289,0.0254 -0.30463,0.0354 -0.10158,0.01 -0.20324,0.0218 -0.30482,0.0267 -0.20323,0.0147 -0.40638,0.0247 -0.60944,0.0287 -0.20341,0.009 -0.40596,0.003 -0.60894,0.005 0,0 0.0912,-0.32131 0.0912,-0.32131 0.5053,0.28471 1.02053,0.55438 1.5591,0.77514 0,0 0.40236,0.16861 0.40236,0.16861 0,0 0.41015,0.15023 0.41015,0.15023 0.1374,0.0485 0.27257,0.10243 0.41151,0.14663 0,0 0.41724,0.13133 0.41724,0.13133 0.27625,0.0925 0.55926,0.16493 0.84064,0.24154 0.28036,0.0811 0.56627,0.14176 0.85065,0.20828 0.28351,0.0702 0.57114,0.12286 0.85791,0.17904 0.28608,0.0596 0.57465,0.10687 0.86364,0.15227 0.28822,0.0489 0.57738,0.0934 0.86783,0.12876 0.29044,0.0371 0.5796,0.0809 0.87142,0.10765 0.2913,0.0289 0.58191,0.0648 0.87355,0.0904 0,0 0.87579,0.0716 0.87579,0.0716 0.58482,0.0361 1.16964,0.0764 1.75583,0.0928 0.58628,0.026 1.17161,0.0311 1.75712,0.0406 0,0 0.88236,-6.8e-4 0.88236,-6.8e-4 0,0 0.44136,-10e-4 0.44136,-10e-4 0,0 0.43443,-0.0151 0.43443,-0.0151 0.29129,-0.009 0.58243,-0.0206 0.87321,-0.0471 0.29104,-0.0229 0.58235,-0.0404 0.87228,-0.0773 0.58123,-0.0577 1.15981,-0.14347 1.73788,-0.23094 0,0 0.86449,-0.15116 0.86449,-0.15116 0.28814,-0.0513 0.57423,-0.11483 0.86125,-0.17152 0.28762,-0.0555 0.57234,-0.1215 0.85705,-0.18767 0.28489,-0.0674 0.56944,-0.12603 0.85475,-0.20221 0,0 0.85552,-0.21785 0.85552,-0.21785 0.27001,-0.0745 0.55832,-0.16793 0.83662,-0.25035 0,0 0.84269,-0.25368 0.84269,-0.25368 0,0 0.42127,-0.12671 0.42127,-0.12671 0,0 0.41741,-0.13945 0.41741,-0.13945 0,0 1.66982,-0.55781 1.66982,-0.55781 0,0 0.0421,-0.014 0.0421,-0.014 0,0 0.042,10e-4 0.042,10e-4 0,0 13.60012,0.53557 13.60012,0.53557 0,0 13.59987,0.54848 13.59987,0.54848 0,0 13.59858,0.56867 13.59858,0.56867 0,0 6.79865,0.2972 6.79865,0.2972 0,0 0.84979,0.0373 0.84979,0.0373 0.2677,0.0116 0.53797,-0.0752 0.79362,-0.18143 0.5112,-0.22633 0.98402,-0.5419 1.43837,-0.87647 0.89348,-0.6616 1.72044,-1.41076 2.53064,-2.1759 m 0.078,-0.003 c -0.81166,0.7919 -1.64238,1.56978 -2.54655,2.26156 -0.45247,0.34449 -0.92588,0.66785 -1.45051,0.90819 -0.2636,0.11261 -0.54644,0.2105 -0.84962,0.20187 0,0 -0.8503,-0.0271 -0.8503,-0.0271 0,0 -6.8025,-0.21709 -6.8025,-0.21709 0,0 -13.60363,-0.46024 -13.60363,-0.46024 0,0 -13.60277,-0.48051 -13.60277,-0.48051 0,0 -13.60209,-0.49334 -13.60209,-0.49334 0,0 0.0839,-0.0124 0.0839,-0.0124 0,0 -1.67803,0.56644 -1.67803,0.56644 0,0 -0.41938,0.14159 -0.41938,0.14159 0,0 -0.42383,0.12876 -0.42383,0.12876 0,0 -0.84739,0.25804 -0.84739,0.25804 -0.28574,0.0847 -0.55797,0.17237 -0.85534,0.25385 0,0 -0.85612,0.21572 -0.85612,0.21572 -0.28369,0.0747 -0.57602,0.13466 -0.8639,0.20204 -0.28882,0.0664 -0.57772,0.13244 -0.86825,0.18784 -0.29045,0.0565 -0.57935,0.11979 -0.87083,0.17109 0,0 -0.87535,0.1509 -0.87535,0.1509 -0.58576,0.0873 -1.17212,0.17254 -1.76268,0.22975 -0.2942,0.0366 -0.59072,0.054 -0.88655,0.0763 -0.29575,0.026 -0.59261,0.0371 -0.88963,0.0459 0,0 -0.44811,0.0142 -0.44811,0.0142 0,0 -0.44135,5.1e-4 -0.44135,5.1e-4 0,0 -0.88339,-6.8e-4 -0.88339,-6.8e-4 -0.59158,-0.011 -1.18333,-0.0177 -1.7732,-0.0454 -0.59055,-0.0177 -1.18042,-0.0599 -1.77011,-0.0981 0,0 -0.88407,-0.0743 -0.88407,-0.0743 -0.29438,-0.027 -0.58816,-0.0625 -0.8822,-0.0947 -0.29438,-0.0294 -0.58704,-0.0758 -0.88014,-0.1156 -0.29352,-0.038 -0.58585,-0.0854 -0.87749,-0.13722 -0.29215,-0.0483 -0.58397,-0.0988 -0.87382,-0.16118 -0.29044,-0.0594 -0.5814,-0.11516 -0.86902,-0.18835 -0.28822,-0.0699 -0.57773,-0.13406 -0.86244,-0.21863 -0.28574,-0.0803 -0.57268,-0.15612 -0.85398,-0.25248 -0.28327,-0.0899 -0.56576,-0.18143 -0.84286,-0.29027 0,0 -0.41759,-0.15664 -0.41759,-0.15664 0,0 -0.41066,-0.17587 -0.41066,-0.17587 -0.54899,-0.23034 -1.07662,-0.51121 -1.5939,-0.80858 0,0 -0.55541,-0.31934 -0.55541,-0.31934 0,0 0.64638,-0.003 0.64638,-0.003 0.1988,-6e-4 0.39801,0.007 0.59611,-4.3e-4 0.19862,-0.003 0.39664,-0.0105 0.59415,-0.0235 0.0992,-0.003 0.19707,-0.0148 0.29549,-0.0234 0.0984,-0.009 0.19682,-0.0171 0.29403,-0.0317 0.0972,-0.0144 0.1958,-0.0233 0.29182,-0.0417 0,0 0.2889,-0.0536 0.2889,-0.0536 0,0 0.2842,-0.068 0.2842,-0.068 0,0 0.2772,-0.0854 0.2772,-0.0854 0.0888,-0.0358 0.18091,-0.066 0.26702,-0.10602 0.0842,-0.043 0.17467,-0.0776 0.25231,-0.12979 0,0 0.12047,-0.0724 0.12047,-0.0724 0,0 0.11072,-0.0837 0.11072,-0.0837 0.0778,-0.052 0.13552,-0.12286 0.20255,-0.18443 0.055,-0.0716 0.11731,-0.13842 0.15792,-0.21862 0.0516,-0.0742 0.0783,-0.16065 0.11517,-0.24248 0,0 0.004,-0.0121 0.004,-0.0121 0.11004,-0.25035 0.16741,-0.52378 0.16083,-0.78823 -0.003,-0.30344 -0.0452,-0.55695 -0.11782,-0.83192 -0.085,-0.26462 -0.20264,-0.51796 -0.35979,-0.7483 -0.16492,-0.22401 -0.35021,-0.43631 -0.572,-0.61219 -0.10567,-0.0934 -0.22648,-0.16946 -0.34046,-0.25299 -0.12337,-0.0712 -0.23965,-0.15356 -0.36859,-0.21606 -0.12739,-0.065 -0.25317,-0.13312 -0.38663,-0.18664 0,0 -0.19751,-0.0859 -0.19751,-0.0859 0,0 -0.20263,-0.0747 -0.20263,-0.0747 -0.13424,-0.0522 -0.27113,-0.0972 -0.40998,-0.13791 -0.13722,-0.0447 -0.27668,-0.0835 -0.41741,-0.11782 0,0 -0.21033,-0.0542 -0.21033,-0.0542 0,0 -0.21144,-0.0445 -0.21144,-0.0445 -0.14399,-0.0312 -0.28711,-0.0592 -0.42802,-0.0788 0,0 -0.21247,-0.0332 -0.21247,-0.0332 0,0 -0.21486,-0.0218 -0.21486,-0.0218 -0.14313,-0.0181 -0.2866,-0.0233 -0.43024,-0.0285 -0.14364,-0.0106 -0.28625,0.003 -0.42955,0.003 -0.1421,0.0103 -0.28489,0.022 -0.42528,0.0437 -0.28173,0.0423 -0.55516,0.1209 -0.81636,0.22734 -0.25659,0.11696 -0.49795,0.2648 -0.71162,0.44879 -0.20743,0.19024 -0.39202,0.40604 -0.54225,0.64724 -0.0397,0.0588 -0.0697,0.12372 -0.10516,0.18537 0,0 -0.0513,0.0936 -0.0513,0.0936 -0.0142,0.022 -0.0296,0.0638 -0.0442,0.0947 0,0 -0.0892,0.20102 -0.0892,0.20102 -0.0287,0.0668 -0.0423,0.13209 -0.0648,0.1981 -0.0768,0.26266 -0.11629,0.54942 -0.0503,0.81542 0.0585,0.2671 0.19964,0.51018 0.38552,0.71811 0,0 -0.11697,0.15681 -0.11697,0.15681 0,0 -0.14415,-0.0888 -0.14415,-0.0888 -0.0506,-0.0271 -0.0882,-0.0671 -0.1315,-0.10175 -0.0404,-0.0367 -0.0875,-0.0685 -0.12235,-0.1097 0,0 -0.11089,-0.11901 -0.11089,-0.11901 -0.0758,-0.0782 -0.13398,-0.16775 -0.2017,-0.25111 -0.0342,-0.0417 -0.0605,-0.0876 -0.0908,-0.1315 0,0 -0.0879,-0.13296 -0.0879,-0.13296 -0.0589,-0.0885 -0.10773,-0.18229 -0.16203,-0.27292 -0.0551,-0.0906 -0.1008,-0.1857 -0.14971,-0.27881 -0.10046,-0.18588 -0.18348,-0.37877 -0.27394,-0.56867 0,0 -0.007,-0.0137 -0.007,-0.0137 0,0 -0.001,-0.017 -0.001,-0.017 -0.0305,-0.35405 0.0237,-0.71222 0.13945,-1.04404 0.11525,-0.33286 0.29199,-0.63818 0.49385,-0.91964 0.20247,-0.28173 0.43118,-0.54285 0.6793,-0.78148 0.24454,-0.24265 0.50788,-0.46409 0.77669,-0.67716 0.27112,-0.20974 0.54823,-0.41177 0.8338,-0.60013 0.1421,-0.0957 0.28506,-0.18938 0.431,-0.27847 0.14433,-0.0917 0.29019,-0.18092 0.43803,-0.26634 0.29335,-0.17536 0.59243,-0.34081 0.89331,-0.50197 0.30044,-0.1622 0.60525,-0.31541 0.9104,-0.4682 0.30686,-0.14937 0.61415,-0.2972 0.92443,-0.43862 0.30952,-0.1433 0.62176,-0.28053 0.93435,-0.41638 0.31302,-0.13518 0.62697,-0.26771 0.94273,-0.39613 0.31447,-0.13167 0.63296,-0.25299 0.94888,-0.38056 1.26925,-0.4971 2.55193,-0.95821 3.84256,-1.39477 0,0 -0.0392,0.0281 -0.0392,0.0281 0.73658,-0.9812 1.529,-1.9235 2.40119,-2.78988 0.87245,-0.86432 1.82449,-1.65734 2.87837,-2.2991 1.05551,-0.63442 2.21318,-1.11638 3.42934,-1.3492 0,0 0.45888,-0.0692 0.45888,-0.0692 0.0765,-0.0108 0.15262,-0.0251 0.22957,-0.0329 0,0 0.23136,-0.0165 0.23136,-0.0165 0,0 0.46299,-0.0317 0.46299,-0.0317 0,0 0.46418,0.003 0.46418,0.003 0,0 0.2341,0.003 0.2341,0.003 0,0 0.22897,0.016 0.22897,0.016 0,0 0.45794,0.0319 0.45794,0.0319 0,0 0.91579,0.0639 0.91579,0.0639 0.6103,0.0456 1.22104,0.0783 1.83117,0.13441 0,0 1.82962,0.17681 1.82962,0.17681 0.60945,0.0627 1.22086,0.11038 1.82868,0.18485 0,0 1.82433,0.21657 1.82433,0.21657 0,0 1.82432,0.21837 1.82432,0.21837 0,0 1.8197,0.24941 1.8197,0.24941 0,0 3.63788,0.50471 3.63788,0.50471 1.21162,0.16963 2.42325,0.31541 3.63846,0.44742 1.21574,0.11594 2.43224,0.23188 3.65062,0.27864 0.30463,0.0187 0.60901,0.0238 0.91348,0.0298 0.3043,0.006 0.60894,0.0162 0.91255,0.008 0,0 0.45606,-0.006 0.45606,-0.006 0,0 0.11371,-0.002 0.11371,-0.002 0,0 0.0571,-6.8e-4 0.0571,-6.8e-4 0,0 0.0286,-3.5e-4 0.0286,-3.5e-4 0,0 0.0142,-1.7e-4 0.0142,-1.7e-4 0.0274,-0.003 -0.0211,0.003 -0.011,10e-4 0.0352,-0.008 0.0805,-0.0124 0.10747,-0.0222 0.0189,-0.012 0.0373,-0.0213 0.0575,-0.0287 0.22076,-0.12508 0.43853,-0.34362 0.63646,-0.5602 0.39937,-0.44297 0.75711,-0.93648 1.10552,-1.43375 0.34679,-0.49907 0.67999,-1.00959 1.00643,-1.52473 1.29918,-2.06594 2.50208,-4.19696 3.68575,-6.33652 1.17888,-2.14298 2.3345,-4.2993 3.47422,-6.46434 0,0 0.0645,-0.12244 0.0645,-0.12244 0,0 0.13492,-0.003 0.13492,-0.003 0,0 0.51591,-0.0108 0.51591,-0.0108 0.17152,-0.006 0.34466,-0.003 0.51762,0.002 0.17323,0.005 0.34551,0.003 0.52053,0.0209 0,0 0.26163,0.0205 0.26163,0.0205 0.0868,0.004 0.17468,0.0161 0.26309,0.0317 0,0 0.26454,0.0421 0.26454,0.0421 0,0 0.0331,0.005 0.0331,0.005 0,0 0.0165,0.003 0.0165,0.003 0,0 0.009,0.002 0.009,0.002 0,0 0.004,6.8e-4 0.004,6.8e-4 0,0 0.0174,0.004 0.0174,0.004 0,0 0.0615,0.0169 0.0615,0.0169 0,0 0.12286,0.0338 0.12286,0.0338 0,0 0.49179,0.135 0.49179,0.135 0,0 0.98352,0.26984 0.98352,0.26984 0,0 0.21939,0.0603 0.21939,0.0603 0,0 -0.048,0.22281 -0.048,0.22281 0,0 -2.67496,12.43579 -2.67496,12.43579 0,0 -0.22666,-0.31217 -0.22666,-0.31217 0,0 17.5888,1.77149 17.5888,1.77149 0,0 0.41083,0.0413 0.41083,0.0413 0,0 -0.20186,0.33858 -0.20186,0.33858 -0.0422,0.0709 -0.0829,0.148 -0.13347,0.20589 -0.0475,0.0646 -0.0991,0.11987 -0.1521,0.17219 -0.0513,0.0564 -0.10748,0.0994 -0.16186,0.148 -0.0542,0.0493 -0.11192,0.0872 -0.16775,0.13133 -0.0559,0.0442 -0.11448,0.0793 -0.17169,0.11894 -0.0572,0.0399 -0.11594,0.075 -0.17433,0.11003 -0.11645,0.0731 -0.23598,0.13543 -0.35423,0.20153 0,0 -0.0554,0.031 -0.0554,0.031 0,0 -0.061,-5.1e-4 -0.061,-5.1e-4 0,0 -1.08457,-0.006 -1.08457,-0.006 -0.36107,-0.004 -0.72427,0 -1.08338,-0.011 0,0 -2.15786,-0.0558 -2.15786,-0.0558 -1.43914,-0.0321 -2.87546,-0.091 -4.31289,-0.13604 0,0 -4.31144,-0.15407 -4.31144,-0.15407 0,0 -4.31076,-0.16219 -4.31076,-0.16219 0,0 0.25316,-0.18519 0.25316,-0.18519 0,0 -1.38784,4.98065 -1.38784,4.98065 0,0 -0.0187,0.0674 -0.0187,0.0674 0,0 -0.0461,0.0415 -0.0461,0.0415 0,0 -1.33098,1.19615 -1.33098,1.19615 0,0 -0.66562,0.59791 -0.66562,0.59791 -0.21957,0.20238 -0.44794,0.39245 -0.67426,0.58551 0,0 -2.71652,2.31381 -2.71652,2.31381 0,0 -0.33952,0.28924 -0.33952,0.28924 0,0 -0.1698,0.1445 -0.1698,0.1445 0,0 -0.0213,0.0182 -0.0213,0.0182 0,0 -0.0263,0.0206 -0.0263,0.0206 0,0 -0.0115,0.008 -0.0115,0.008 0,0 -0.0458,0.0315 -0.0458,0.0315 0,0 -0.0915,0.0636 -0.0915,0.0636 0,0 -0.73215,0.50872 -0.73215,0.50872 0,0 -0.18348,0.12654 -0.18348,0.12654 0,0 -0.19289,0.11731 -0.19289,0.11731 0,0 -0.38586,0.23444 -0.38586,0.23444 -0.2577,0.15493 -0.51309,0.31559 -0.77284,0.4653 0,0 -0.78634,0.42904 -0.78634,0.42904 -0.26292,0.14107 -0.52199,0.29062 -0.78866,0.42434 0,0 -1.59988,0.79994 -1.59988,0.79994 0,0 -0.0728,-0.38561 -0.0728,-0.38561 0,0 19.12952,1.5603 19.12952,1.5603 0,0 19.18202,1.60091 19.18202,1.60091 0,0 -0.0397,0.0388 -0.0397,0.0388 z"
           style="fill:#070504;fill-opacity:1;fill-rule:nonzero;stroke:none"
           id="path5270"
           inkscape:connector-curvature="0" />
        <path
           d="m 502.30957,596.47986 c 0,0 -0.003,-0.0674 -0.01,-0.19374 -1.7e-4,-0.0633 -0.0118,-0.14048 -0.026,-0.23094 -0.009,-0.0913 -0.0378,-0.19271 -0.0689,-0.30515 -0.0653,-0.2229 -0.18426,-0.48726 -0.39544,-0.72034 -0.20811,-0.23581 -0.50599,-0.42579 -0.85954,-0.55472 -0.18057,-0.0581 -0.36859,-0.11552 -0.57234,-0.15228 -0.10225,-0.0165 -0.20485,-0.0404 -0.30899,-0.0506 -0.0518,-0.007 -0.10431,-0.0137 -0.15715,-0.0206 -0.0543,-0.006 -0.11449,-0.009 -0.17203,-0.0133 -0.43913,-0.0213 -0.92709,-0.0263 -1.40366,0.0338 -0.47803,0.0599 -0.95957,0.19597 -1.36339,0.46564 -0.19512,0.14014 -0.38364,0.30045 -0.52327,0.50616 -0.0823,0.0942 -0.13312,0.21067 -0.20032,0.31849 0,0 -0.0757,0.17604 -0.0757,0.17604 -0.0265,0.0588 -0.0511,0.11868 -0.067,0.18195 0,0 -0.0558,0.18751 -0.0558,0.18751 -0.0181,0.0626 -0.0262,0.12679 -0.0395,0.19057 -0.0103,0.0646 -0.026,0.12671 -0.0324,0.19409 0,0 -0.0177,0.20272 -0.0177,0.20272 0,0 -0.008,0.10124 -0.008,0.10124 0,0 -0.002,0.0253 -0.002,0.0253 -6.8e-4,6.9e-4 1.7e-4,0.0139 1.7e-4,0.0205 0,0 6.9e-4,0.0473 6.9e-4,0.0473 -10e-4,0.0638 0.009,0.12517 0.0168,0.18733 0.0263,0.12167 0.0752,0.23624 0.14501,0.33704 0.14851,0.19691 0.37843,0.32439 0.62159,0.38561 0.24154,0.0681 0.49752,0.0841 0.74214,0.0819 0.24795,-0.001 0.49667,-0.0292 0.74027,-0.0475 0.24213,-0.0194 0.47914,-0.0384 0.70982,-0.0572 0.46042,-0.0326 0.89083,-0.0763 1.28883,-0.10883 0.39698,-0.0393 0.75865,-0.091 1.06953,-0.17639 0.30985,-0.0849 0.5684,-0.21085 0.73615,-0.36911 0.17169,-0.15766 0.23359,-0.33593 0.26591,-0.45101 0.0136,-0.12637 0.0207,-0.19392 0.0207,-0.19392 0,0 0,0.003 0,0.003 z m 0.0506,0.003 c 0,0 -0.007,0.0677 -0.0188,0.1946 -0.0326,0.12799 -0.0896,0.31883 -0.25445,0.50701 -0.1663,0.18297 -0.4134,0.35971 -0.72188,0.50976 -0.30806,0.14954 -0.6746,0.28369 -1.08321,0.37082 -0.40758,0.0924 -0.85688,0.14005 -1.32979,0.15544 -0.47529,0.009 -0.96589,-0.008 -1.48744,-0.0699 -0.26317,-0.0342 -0.52489,-0.0867 -0.78379,-0.17819 -0.12911,-0.0442 -0.25385,-0.10807 -0.37509,-0.1781 -0.11808,-0.078 -0.22495,-0.1745 -0.31524,-0.28822 -0.0861,-0.1173 -0.14518,-0.253 -0.18075,-0.39364 -0.0142,-0.0705 -0.0302,-0.14176 -0.0329,-0.21367 0,0 -0.004,-0.0536 -0.004,-0.0536 -5.2e-4,-0.0105 -10e-4,-0.0147 -10e-4,-0.0304 0,0 1.7e-4,-0.0253 1.7e-4,-0.0253 0,0 6.8e-4,-0.10158 6.8e-4,-0.10158 0,0 -10e-4,-0.20357 -10e-4,-0.20357 -1.7e-4,-0.0678 0.009,-0.13988 0.0137,-0.21016 0.007,-0.0704 0.007,-0.14244 0.0182,-0.2123 0,0 0.0353,-0.2099 0.0353,-0.2099 0.0923,-0.55815 0.39877,-1.12057 0.87065,-1.47531 0.46991,-0.3556 1.02455,-0.53822 1.55106,-0.62501 0.13252,-0.0192 0.26368,-0.0356 0.39433,-0.0491 0.1303,-0.0105 0.25889,-0.0121 0.38629,-0.0184 0.12774,-0.009 0.25214,6e-4 0.37603,0.002 0.0658,0.003 0.13116,0.005 0.19614,0.009 0.0589,0.006 0.1173,0.0128 0.17536,0.0194 0.47863,0.0513 0.9529,0.1651 1.33843,0.37372 0.38936,0.20973 0.68588,0.50932 0.86663,0.80943 0.18314,0.30242 0.25692,0.59594 0.30583,0.83192 0.0216,0.11928 0.0358,0.22598 0.0415,0.31943 0.01,0.0928 0.0153,0.17168 0.0153,0.23598 0.003,0.12842 0.005,0.19682 0.005,0.19682 0,0 -1.7e-4,0.003 -1.7e-4,0.003 z"
           style="fill:#070504;fill-opacity:1;fill-rule:nonzero;stroke:none"
           id="path5272"
           inkscape:connector-curvature="0" />
        <path
           d="m 523.27111,582.38965 c -0.0387,0.56764 -0.0906,1.13331 -0.13637,1.70009 -0.0482,0.56627 -0.10585,1.13152 -0.15835,1.6971 -0.0523,0.56584 -0.10782,1.13143 -0.16827,1.69598 0,0 -0.18237,1.6942 -0.18237,1.6942 0,0 -0.0339,0.31626 -0.0339,0.31626 0,0 -0.30805,-0.12876 -0.30805,-0.12876 -0.64587,-0.27036 -1.28722,-0.54985 -1.92949,-0.82679 -0.15895,-0.0733 -0.32499,-0.12833 -0.48838,-0.1899 0,0 -0.49034,-0.18485 -0.49034,-0.18485 0,0 -0.97959,-0.37244 -0.97959,-0.37244 -0.16202,-0.0659 -0.3284,-0.11816 -0.4947,-0.171 0,0 -0.49804,-0.16066 -0.49804,-0.16066 0,0 -0.99659,-0.32216 -0.99659,-0.32216 -0.16476,-0.0589 -0.33602,-0.093 -0.50462,-0.13723 0,0 -0.50736,-0.1268 -0.50736,-0.1268 0,0 -1.01558,-0.25513 -1.01558,-0.25513 0,0 0.0164,0.003 0.0164,0.003 0,0 -1.43906,-0.19238 -1.43906,-0.19238 -0.48,-0.0618 -0.95897,-0.13466 -1.43863,-0.20255 0,0 -0.3597,-0.0516 -0.3597,-0.0516 -0.11979,-0.0159 -0.23966,-0.0373 -0.35961,-0.0476 0,0 -0.72086,-0.0727 -0.72086,-0.0727 -0.48068,-0.0476 -0.96188,-0.10013 -1.44376,-0.141 0,0 -0.16937,-0.0144 -0.16937,-0.0144 0,0 0.10208,-0.12791 0.10208,-0.12791 0,0 0.65348,-0.81687 0.65348,-0.81687 0.10867,-0.13654 0.2211,-0.26984 0.33286,-0.40373 0.10986,-0.13535 0.22127,-0.2695 0.33482,-0.40202 0.11225,-0.13364 0.22563,-0.26634 0.34217,-0.39647 0.11423,-0.13193 0.22811,-0.26428 0.34645,-0.39305 0.11576,-0.13115 0.23529,-0.25872 0.3561,-0.38551 0.11731,-0.13014 0.24103,-0.25437 0.36372,-0.37989 0.24727,-0.24931 0.5042,-0.49085 0.77805,-0.71598 0.27147,-0.22768 0.56243,-0.43699 0.87972,-0.615 0.0768,-0.0462 0.16117,-0.0878 0.24872,-0.12714 0,0 0.12919,-0.0592 0.12919,-0.0592 0,0 0.12252,-0.0452 0.12252,-0.0452 0,0 0.0612,-0.0225 0.0612,-0.0225 0,0 0.0308,-0.0113 0.0308,-0.0113 0,0 0.008,-0.003 0.008,-0.003 0,0 0.0199,-0.006 0.0199,-0.006 0,0 0.0164,-0.004 0.0164,-0.004 0,0 0.13099,-0.0331 0.13099,-0.0331 0,0 0.26343,-0.0631 0.26343,-0.0631 0.17604,-0.0365 0.35329,-0.0586 0.53027,-0.0883 0.17792,-0.0229 0.35782,-0.0346 0.53711,-0.0493 0.17853,-0.013 0.34919,-0.0118 0.52403,-0.0184 0,0 0.13048,-0.003 0.13048,-0.003 0.0544,-10e-4 0.0911,0.002 0.13765,0.002 0,0 0.26488,0.009 0.26488,0.009 0.1763,0.009 0.35338,0.009 0.52908,0.023 0,0 0.52677,0.0459 0.52677,0.0459 0.35209,0.0227 0.6982,0.0893 1.04678,0.13466 0.34645,0.0579 0.69093,0.12543 1.03524,0.19212 0.34114,0.082 0.68306,0.1586 1.02216,0.24505 0.33704,0.0948 0.67443,0.18698 1.00907,0.28838 0.3332,0.10774 0.66588,0.21726 0.99548,0.33047 0.32773,0.11799 0.65468,0.23871 0.97993,0.3644 0,0 0.0189,0.007 0.0189,0.007 0,0 -0.001,0.0201 -0.001,0.0201 z m -0.054,0.0154 c -0.33165,-0.0811 -0.66195,-0.16647 -0.9912,-0.25471 0,0 -1.01301,-0.24033 -1.01301,-0.24033 -0.33739,-0.079 -0.67828,-0.1445 -1.01601,-0.21991 -0.33943,-0.0686 -0.68032,-0.1268 -1.01993,-0.19076 -0.34158,-0.0499 -0.68204,-0.10832 -1.02378,-0.1527 0,0 -0.51361,-0.0566 -0.51361,-0.0566 0,0 -0.25641,-0.0298 -0.25641,-0.0298 0,0 -0.25701,-0.0191 -0.25701,-0.0191 0,0 -0.51412,-0.0367 -0.51412,-0.0367 -0.17108,-0.0116 -0.3426,-0.009 -0.51394,-0.0142 0,0 -0.25684,-0.005 -0.25684,-0.005 -0.0407,-6.9e-4 -0.091,-0.004 -0.12338,-0.003 0,0 -0.13048,0.003 -0.13048,0.003 -0.17279,0.005 -0.35072,0.003 -0.51915,0.0146 0,0 -0.50326,0.0369 -0.50326,0.0369 -0.16698,0.0226 -0.33644,0.038 -0.50197,0.0664 0,0 -0.24658,0.0488 -0.24658,0.0488 0,0 -0.12373,0.0231 -0.12373,0.0231 0,0 -0.0155,0.003 -0.0155,0.003 0,0 -0.004,6.9e-4 -0.004,6.9e-4 0.0226,-0.007 0.004,-6.9e-4 0.009,-0.003 0,0 -0.008,0.003 -0.008,0.003 0,0 -0.0314,0.009 -0.0314,0.009 0,0 -0.0625,0.0189 -0.0625,0.0189 0,0 -0.12483,0.0376 -0.12483,0.0376 0,0 -0.11038,0.044 -0.11038,0.044 -0.0733,0.0279 -0.1474,0.0581 -0.22213,0.0976 -0.29942,0.14467 -0.58824,0.32627 -0.86296,0.52942 -0.2771,0.19998 -0.54266,0.41998 -0.80053,0.64946 -0.25821,0.22905 -0.5095,0.46752 -0.74839,0.71863 -0.24334,0.24667 -0.47624,0.5042 -0.70256,0.76728 -0.23008,0.25975 -0.44982,0.529 -0.66536,0.80123 -0.2182,0.27018 -0.42767,0.54745 -0.63544,0.82584 0,0 -0.067,-0.14218 -0.067,-0.14218 0.48444,0.0322 0.97,0.0523 1.45573,0.0781 0,0 0.72898,0.0365 0.72898,0.0365 0.122,0.003 0.24222,0.0179 0.36337,0.0272 0,0 0.36252,0.0307 0.36252,0.0307 0.48342,0.0421 0.96744,0.0797 1.45052,0.12774 0,0 1.44991,0.13773 1.44991,0.13773 0,0 0.008,6.9e-4 0.008,6.9e-4 0,0 0.009,0.002 0.009,0.002 0,0 1.03815,0.23402 1.03815,0.23402 0,0 0.51933,0.11799 0.51933,0.11799 0.17245,0.0412 0.34798,0.0728 0.51625,0.12867 0,0 1.01942,0.30464 1.01942,0.30464 0,0 0.50984,0.15254 0.50984,0.15254 0,0 0.25488,0.0768 0.25488,0.0768 0.0846,0.0267 0.16629,0.0612 0.24949,0.0913 0,0 0.99471,0.37518 0.99471,0.37518 0,0 0.49693,0.18903 0.49693,0.18903 0.1645,0.0653 0.33182,0.12441 0.49145,0.20119 0.64493,0.29232 1.29063,0.58243 1.93163,0.88151 0,0 -0.34192,0.18725 -0.34192,0.18725 0,0 0.24727,-1.68582 0.24727,-1.68582 0.0827,-0.56199 0.17049,-1.12356 0.26129,-1.68419 0.0908,-0.56105 0.17639,-1.12253 0.2712,-1.6829 0.0962,-0.55293 0.18666,-1.10629 0.2896,-1.65836"
           style="fill:#070504;fill-opacity:1;fill-rule:nonzero;stroke:none"
           id="path5274"
           inkscape:connector-curvature="0" />
        <path
           d="m 526.1146,589.17163 c -0.20068,0.0616 -0.40305,0.11329 -0.60475,0.16809 -0.20169,0.0561 -0.4045,0.10397 -0.60705,0.15493 -0.40562,0.0976 -0.81217,0.18785 -1.21941,0.27514 0,0 -0.27967,0.0598 -0.27967,0.0598 0,0 0.0196,-0.30412 0.0196,-0.30412 0.0187,-0.28745 0.0328,-0.57542 0.055,-0.86245 0.0242,-0.28711 0.0422,-0.57456 0.0712,-0.86099 0.0308,-0.28625 0.0557,-0.57293 0.0932,-0.8585 0,0 0.10731,-0.85723 0.10731,-0.85723 0.0717,-0.57148 0.14825,-1.14263 0.24897,-1.71112 0.0969,-0.56892 0.1946,-1.13767 0.25702,-1.71018 0,0 0.15466,-0.013 0.15466,-0.013 0.0356,0.13518 0.0699,0.27087 0.11039,0.40485 0.04,0.13389 0.0756,0.26924 0.12047,0.40185 0.0842,0.26702 0.17622,0.5319 0.27189,0.79567 0.19212,0.52745 0.38227,1.05516 0.52779,1.59544 0.0758,0.2694 0.14005,0.54164 0.21076,0.81233 0.0635,0.27258 0.13047,0.5443 0.18819,0.81841 0.0599,0.27377 0.11431,0.54883 0.16544,0.82483 0.048,0.27693 0.0971,0.55336 0.12945,0.83474 0,0 0.003,0.0246 0.003,0.0246 0,0 -0.0233,0.007 -0.0233,0.007 z m -0.0406,-0.048 c -0.11004,-0.24898 -0.20622,-0.50146 -0.30258,-0.75394 -0.0967,-0.26334 -0.19041,-0.52779 -0.27848,-0.79379 -0.0903,-0.26513 -0.17134,-0.53301 -0.2559,-0.79985 -0.0773,-0.26881 -0.161,-0.53584 -0.23325,-0.80619 -0.15039,-0.5389 -0.25633,-1.08987 -0.36013,-1.64152 -0.0523,-0.27565 -0.10824,-0.55045 -0.17219,-0.82285 -0.0291,-0.13706 -0.0675,-0.27155 -0.10141,-0.40724 -0.0336,-0.13586 -0.0733,-0.27001 -0.11174,-0.40459 0,0 0.15458,-0.013 0.15458,-0.013 -0.0522,0.57354 -0.0688,1.15041 -0.0865,1.72728 -0.0138,0.57722 -0.052,1.15229 -0.0949,1.72643 0,0 -0.0646,0.86142 -0.0646,0.86142 -0.0196,0.28745 -0.0518,0.57353 -0.0783,0.8603 -0.0283,0.28643 -0.0674,0.572 -0.10072,0.85774 -0.035,0.28574 -0.0781,0.57097 -0.11679,0.85637 0,0 -0.25992,-0.24445 -0.25992,-0.24445 0.41382,-0.0465 0.82816,-0.0898 1.24369,-0.12568 0.20828,-0.0162 0.41587,-0.0349 0.62484,-0.0459 0.19793,-0.0112 0.3956,-0.0246 0.59439,-0.0305"
           style="fill:#070504;fill-opacity:1;fill-rule:nonzero;stroke:none"
           id="path5276"
           inkscape:connector-curvature="0" />
        <path
           d="m 531.21307,588.3698 c -0.29122,0.0759 -0.58431,0.1386 -0.87646,0.20743 -0.29285,0.0655 -0.58585,0.12928 -0.87955,0.18802 -0.58679,0.12064 -1.17537,0.23068 -1.7649,0.33422 0,0 -0.19023,0.0333 -0.19023,0.0333 0,0 -0.0735,-0.19622 -0.0735,-0.19622 -0.0954,-0.25437 -0.18657,-0.51061 -0.27617,-0.76711 -0.0886,-0.25711 -0.18409,-0.51156 -0.26736,-0.77028 -0.0847,-0.25829 -0.17194,-0.51565 -0.25428,-0.77472 0,0 -0.24393,-0.77788 -0.24393,-0.77788 0,0 -0.47624,-1.56004 -0.47624,-1.56004 -0.15245,-0.52215 -0.29104,-1.04892 -0.43614,-1.57347 0,0 -0.0561,-0.20237 -0.0561,-0.20237 0,0 0.19315,0.0359 0.19315,0.0359 0.73009,0.13568 1.46274,0.25103 2.19984,0.33182 0.18408,0.0222 0.36928,0.0358 0.5537,0.054 0,0 0.55533,0.042 0.55533,0.042 0.37047,0.0251 0.7418,0.0454 1.11158,0.0757 0,0 0.12518,0.0103 0.12518,0.0103 0,0 0.0415,0.14022 0.0415,0.14022 0.12389,0.41929 0.23033,0.84277 0.32994,1.26771 0,0 0.14091,0.63971 0.14091,0.63971 0.0486,0.21282 0.0901,0.42716 0.13406,0.64134 0.0882,0.42751 0.16776,0.8574 0.24086,1.28858 0.0744,0.43109 0.13987,0.86415 0.18981,1.30097 0,0 0.003,0.0246 0.003,0.0246 0,0 -0.0239,0.006 -0.0239,0.006 z m -0.038,-0.0483 c -0.1463,-0.40364 -0.27882,-0.81045 -0.40203,-1.21957 -0.12722,-0.41835 -0.24821,-0.83833 -0.36047,-1.26036 -0.0565,-0.21102 -0.11508,-0.42169 -0.16672,-0.63348 0,0 -0.15989,-0.63527 -0.15989,-0.63527 -0.10072,-0.42484 -0.19494,-0.85115 -0.27155,-1.28165 0,0 0.16656,0.15031 0.16656,0.15031 -0.36518,-0.0651 -0.72924,-0.14056 -1.09398,-0.21092 0,0 -0.54755,-0.10115 -0.54755,-0.10115 -0.18305,-0.0295 -0.36551,-0.0634 -0.54916,-0.0891 -0.73334,-0.1102 -1.47121,-0.18596 -2.21165,-0.24119 0,0 0.13706,-0.16655 0.13706,-0.16655 0.19862,0.50684 0.40365,1.0113 0.59526,1.52054 0,0 0.5549,1.53361 0.5549,1.53361 0,0 0.27172,0.76882 0.27172,0.76882 0.0895,0.25668 0.17408,0.51498 0.26111,0.77216 0.089,0.25702 0.16527,0.51813 0.24847,0.77669 0.0822,0.25906 0.16304,0.51847 0.23948,0.77959 0,0 -0.26376,-0.16254 -0.26376,-0.16254 0.59457,-0.0683 1.18999,-0.1303 1.78696,-0.18143 0.29822,-0.0274 0.5973,-0.0496 0.89655,-0.07 0.28968,-0.0166 0.57841,-0.0383 0.86869,-0.0485"
           style="fill:#070504;fill-opacity:1;fill-rule:nonzero;stroke:none"
           id="path5278"
           inkscape:connector-curvature="0" />
        <path
           d="m 546.85477,577.8854 c -0.56054,0.004 -1.12031,-0.005 -1.68017,-0.009 0,0 -1.72967,-0.0368 -1.72967,-0.0368 -0.57636,-0.0133 -1.15238,-0.0338 -1.72856,-0.053 -0.57576,-0.0239 -1.15212,-0.0415 -1.72762,-0.0705 -0.57551,-0.0295 -1.15161,-0.0508 -1.7266,-0.0868 -0.57516,-0.035 -1.15075,-0.0657 -1.7254,-0.10935 -1.14955,-0.0846 -2.29996,-0.15527 -3.44883,-0.25112 0,0 0.062,-0.006 0.062,-0.006 -0.33063,0.0726 -0.65964,0.1504 -0.98386,0.23693 -0.16184,0.0425 -0.32284,0.0876 -0.47743,0.13979 -0.0781,0.0257 -0.15193,0.055 -0.22179,0.0856 -0.0328,0.0161 -0.0651,0.0324 -0.0891,0.048 0,0 -0.0232,0.0168 -0.0232,0.0168 10e-4,-6.8e-4 0.003,-0.003 10e-4,-0.006 0.005,-0.009 0.0107,-0.0258 0.007,-0.0387 0,0 -0.0437,-0.10739 -0.0437,-0.10739 0,0 0.10816,0.1156 0.10816,0.1156 0,0 -0.0827,-0.0404 -0.0827,-0.0404 0,0 1.78038,0.2913 1.78038,0.2913 0.59448,0.0913 1.18956,0.17647 1.7855,0.25633 0.59645,0.0773 1.19342,0.14886 1.79175,0.20999 0,0 1.79585,0.17382 1.79585,0.17382 0.299,0.0319 0.59928,0.0512 0.89904,0.0761 0.30011,0.0218 0.59867,0.0549 0.89827,0.0819 0.5979,0.0607 1.19495,0.1291 1.79123,0.20469 0.59662,0.071 1.19239,0.15073 1.78833,0.2311 0,0 0.89314,0.12569 0.89314,0.12569 0.29779,0.0423 0.5955,0.0858 0.8927,0.13269 0,0 -0.12859,0.0582 -0.12859,0.0582 0.22025,-0.28882 0.44469,-0.57456 0.67135,-0.85893 0.21504,-0.27173 0.42972,-0.54362 0.651,-0.81114 m 0.0731,-0.0103 c -0.18767,0.31207 -0.38313,0.61834 -0.57773,0.92519 -0.19374,0.30789 -0.38919,0.61416 -0.58926,0.91734 0,0 -0.0425,0.0644 -0.0425,0.0644 0,0 -0.0863,-0.006 -0.0863,-0.006 -0.30002,-0.0213 -0.59996,-0.0459 -0.89972,-0.0719 0,0 -0.89921,-0.0788 -0.89921,-0.0788 -0.59919,-0.0558 -1.19838,-0.1126 -1.79671,-0.17793 -0.59858,-0.0607 -1.19657,-0.12876 -1.79354,-0.20417 -0.29805,-0.0414 -0.59696,-0.0763 -0.89433,-0.1227 -0.29746,-0.0458 -0.59569,-0.0857 -0.89237,-0.13859 0,0 -1.78081,-0.30242 -1.78081,-0.30242 -0.59371,-0.0979 -1.18879,-0.18519 -1.78481,-0.26667 -0.59628,-0.079 -1.19325,-0.15279 -1.79107,-0.22025 0,0 -1.79628,-0.18519 -1.79628,-0.18519 0,0 -0.044,-0.004 -0.044,-0.004 0,0 -0.0384,-0.0359 -0.0384,-0.0359 0,0 -0.12133,-0.11363 -0.12133,-0.11363 0,0 -0.0473,-0.0444 -0.0473,-0.0444 0,0 0.003,-0.0631 0.003,-0.0631 0.001,-0.0331 0.011,-0.0722 0.0239,-0.0999 0.0113,-0.0201 0.0243,-0.0397 0.0383,-0.0581 0.0246,-0.028 0.0492,-0.0501 0.0723,-0.0679 0.0447,-0.0344 0.0872,-0.0589 0.12944,-0.0832 0.0832,-0.0437 0.1657,-0.0827 0.24761,-0.11577 0.16399,-0.068 0.32772,-0.1256 0.49214,-0.18092 0.32926,-0.10551 0.6599,-0.19785 0.99104,-0.28626 0,0 0.0253,-0.007 0.0253,-0.007 0,0 0.0366,0.002 0.0366,0.002 1.15229,0.0378 2.30338,0.10054 3.4549,0.14971 0.57585,0.0233 1.15092,0.0592 1.72625,0.0911 0.57551,0.0308 1.15024,0.0763 1.72506,0.11372 0.57507,0.0376 1.14955,0.0871 1.72429,0.12996 0.57447,0.0475 1.14921,0.0939 1.72317,0.1474 0,0 1.72223,0.16365 1.72223,0.16365 0.57346,0.0632 1.14751,0.11936 1.72053,0.19143 0,0 0.0403,0.005 0.0403,0.005 0,0 -0.021,0.035 -0.021,0.035 z"
           style="fill:#070504;fill-opacity:1;fill-rule:nonzero;stroke:none"
           id="path5280"
           inkscape:connector-curvature="0" />
        <path
           d="m 535.91243,583.80494 c 0.0957,0.28147 0.1875,0.56405 0.27223,0.84808 0.0832,0.28472 0.17314,0.56755 0.25111,0.85329 0.0814,0.28506 0.15715,0.57132 0.23376,0.8574 0,0 0.11022,0.43024 0.11022,0.43024 0,0 0.10773,0.43092 0.10773,0.43092 0,0 0.042,0.16844 0.042,0.16844 0,0 -0.16877,0.0466 -0.16877,0.0466 0,0 -0.57807,0.16108 -0.57807,0.16108 0,0 -0.58089,0.15151 -0.58089,0.15151 -0.38731,0.10046 -0.77404,0.20374 -1.16306,0.29754 0,0 -0.13364,0.0326 -0.13364,0.0326 0,0 -0.0341,-0.12116 -0.0341,-0.12116 0,0 -0.319,-1.14297 -0.319,-1.14297 -0.0536,-0.19024 -0.10679,-0.38056 -0.1657,-0.56926 -0.0581,-0.18887 -0.11867,-0.37689 -0.18246,-0.5637 -0.0632,-0.18717 -0.12996,-0.37304 -0.20016,-0.55798 0,0 -0.21845,-0.55174 -0.21845,-0.55174 0,0 -0.21836,-0.5519 -0.21836,-0.5519 -0.0733,-0.18382 -0.14039,-0.36962 -0.20478,-0.55626 0,0 -0.0775,-0.22555 -0.0775,-0.22555 0,0 0.2394,0.0291 0.2394,0.0291 0.49924,0.0605 0.99591,0.13817 1.49232,0.22059 0.24787,0.0432 0.49548,0.0877 0.74258,0.13705 0.12371,0.0245 0.24658,0.0527 0.37012,0.0787 0.12338,0.0258 0.24642,0.0534 0.36911,0.0846 0,0 0.0109,0.003 0.0109,0.003 0,0 0.003,0.0102 0.003,0.0102 z m -0.031,0.0202 c -0.12235,-0.002 -0.24445,-0.006 -0.36629,-0.0123 -0.12585,-0.006 -0.25213,-0.0105 -0.37774,-0.0184 -0.25145,-0.0154 -0.50223,-0.0356 -0.75309,-0.0572 -0.50069,-0.0473 -1.00095,-0.0991 -1.49907,-0.16809 0,0 0.16194,-0.19631 0.16194,-0.19631 0.0604,0.18802 0.1179,0.37706 0.16937,0.56815 0,0 0.15595,0.5726 0.15595,0.5726 0,0 0.15578,0.57251 0.15578,0.57251 0.0546,0.19024 0.11227,0.3791 0.17391,0.56661 0.0611,0.18801 0.12517,0.37483 0.19186,0.56079 0.0658,0.18622 0.13724,0.37065 0.20828,0.55516 0,0 0.42939,1.10612 0.42939,1.10612 0,0 -0.16758,-0.0889 -0.16758,-0.0889 0.3809,-0.12303 0.76437,-0.23726 1.14716,-0.35406 0,0 0.5743,-0.17434 0.5743,-0.17434 0,0 0.57688,-0.16509 0.57688,-0.16509 0,0 -0.12672,0.21537 -0.12672,0.21537 0,0 -0.0962,-0.4334 -0.0962,-0.4334 0,0 -0.0939,-0.43426 -0.0939,-0.43426 -0.0591,-0.29019 -0.11927,-0.58012 -0.17382,-0.87142 -0.0581,-0.29044 -0.10413,-0.5838 -0.15697,-0.87543 -0.0503,-0.28797 -0.0936,-0.57756 -0.13347,-0.86809"
           style="fill:#070504;fill-opacity:1;fill-rule:nonzero;stroke:none"
           id="path5282"
           inkscape:connector-curvature="0" />
        <path
           d="m 540.94079,584.12112 c 0.15245,0.39894 0.28557,0.80268 0.40724,1.20915 0.0622,0.2028 0.11868,0.40707 0.17605,0.6109 0,0 0.0812,0.3072 0.0812,0.3072 0.0262,0.10243 0.0546,0.20469 0.0787,0.30772 0,0 0.0395,0.16946 0.0395,0.16946 0,0 -0.1663,0.046 -0.1663,0.046 0,0 -0.41365,0.11432 -0.41365,0.11432 0,0 -0.41638,0.10516 -0.41638,0.10516 -0.27763,0.0697 -0.55456,0.14176 -0.83406,0.20503 0,0 -0.13441,0.0304 -0.13441,0.0304 0,0 -0.0332,-0.11927 -0.0332,-0.11927 -0.0756,-0.2724 -0.13817,-0.54942 -0.21248,-0.82251 -0.0356,-0.13697 -0.0712,-0.27386 -0.11234,-0.40913 -0.0404,-0.13551 -0.0831,-0.27001 -0.12919,-0.40364 -0.0452,-0.13372 -0.0945,-0.26617 -0.14698,-0.39767 -0.0534,-0.13098 -0.11021,-0.26111 -0.16502,-0.39159 -0.1126,-0.26026 -0.22366,-0.52095 -0.31652,-0.7878 0,0 -0.078,-0.22469 -0.078,-0.22469 0,0 0.23983,0.0282 0.23983,0.0282 0.35713,0.042 0.71196,0.10123 1.06602,0.16527 0.3538,0.0673 0.70665,0.14176 1.05567,0.24471 0,0 0.0107,0.003 0.0107,0.003 0,0 0.003,0.01 0.003,0.01 z m -0.0312,0.0206 c -0.35936,0.009 -0.71564,-0.009 -1.07055,-0.0329 -0.35884,-0.0287 -0.71701,-0.0622 -1.07294,-0.1126 0,0 0.16184,-0.19631 0.16184,-0.19631 0.0858,0.26906 0.15297,0.54446 0.2188,0.82046 0.0342,0.13722 0.0668,0.27539 0.1026,0.41228 0.0366,0.13671 0.0766,0.27224 0.1203,0.40647 0.0432,0.13449 0.0898,0.26796 0.13877,0.40048 0.0479,0.13287 0.1014,0.26411 0.1551,0.39493 0.10414,0.26334 0.21991,0.52241 0.32268,0.78584 0,0 -0.16758,-0.0886 -0.16758,-0.0886 0.2712,-0.0923 0.54498,-0.17554 0.81806,-0.26129 0,0 0.40997,-0.12808 0.40997,-0.12808 0,0 0.41229,-0.11868 0.41229,-0.11868 0,0 -0.12671,0.21538 -0.12671,0.21538 -0.0244,-0.10295 -0.0445,-0.20692 -0.0672,-0.3102 0,0 -0.0648,-0.31122 -0.0648,-0.31122 -0.0399,-0.20811 -0.0806,-0.41605 -0.11576,-0.62518 -0.0724,-0.41348 -0.13278,-0.83004 -0.17485,-1.25078"
           style="fill:#070504;fill-opacity:1;fill-rule:nonzero;stroke:none"
           id="path5284"
           inkscape:connector-curvature="0" />
        <path
           d="m 498.53661,569.3959 c 0.0764,-0.25266 0.17484,-0.4971 0.28642,-0.73607 0.11269,-0.23847 0.23966,-0.47086 0.38279,-0.69401 0.13953,-0.22529 0.30019,-0.43802 0.47102,-0.64305 0.17587,-0.2005 0.36098,-0.39664 0.57354,-0.56302 0.20571,-0.17416 0.43528,-0.32037 0.6734,-0.4517 0.1203,-0.0629 0.24658,-0.11525 0.37098,-0.17177 0.12979,-0.0417 0.25856,-0.0888 0.39023,-0.1256 0.13381,-0.027 0.26676,-0.0626 0.40219,-0.082 0.13586,-0.013 0.27206,-0.0332 0.40861,-0.0391 0,0 0.40989,10e-4 0.40989,10e-4 0,0 0.40647,0.044 0.40647,0.044 0.2665,0.0499 0.53514,0.0995 0.79036,0.18836 0.26232,0.0712 0.50651,0.1839 0.75677,0.28352 0.12294,0.0542 0.24085,0.11764 0.3609,0.17741 0.11884,0.0619 0.24153,0.11782 0.35354,0.1899 0.227,0.14004 0.4635,0.26744 0.67784,0.42476 0.21854,0.15159 0.44119,0.29857 0.64639,0.46649 0.20879,0.16339 0.42246,0.32208 0.61689,0.50163 0.19648,0.17707 0.40322,0.34363 0.59089,0.52925 0,0 0.56747,0.55259 0.56747,0.55259 0,0 0.003,0.003 0.003,0.003 0,0 0.01,0.0111 0.01,0.0111 0.11106,0.12671 0.27069,0.2577 0.42818,0.3573 0.082,0.0486 0.16399,0.0965 0.2518,0.13184 0.0844,0.0445 0.17587,0.0664 0.26548,0.0957 0.36218,0.10226 0.75761,0.0674 1.11732,-0.087 0.0925,-0.0305 0.1757,-0.0879 0.26462,-0.1303 0.0435,-0.0235 0.0883,-0.0447 0.13116,-0.0697 0,0 0.12218,-0.0881 0.12218,-0.0881 0,0 0.24453,-0.17691 0.24453,-0.17691 0,0 0.2247,-0.20725 0.2247,-0.20725 0.15663,-0.13116 0.28523,-0.29352 0.42262,-0.44691 0,0 0.10226,-0.11611 0.10226,-0.11611 0,0 0.0257,-0.0291 0.0257,-0.0291 0.003,-0.003 0.0111,-0.013 0.0103,-0.0111 0,0 0.0119,-0.0159 0.0119,-0.0159 0,0 0.0469,-0.0631 0.0469,-0.0631 0.0611,-0.0847 0.12996,-0.16809 0.18433,-0.25385 0.23154,-0.33448 0.43324,-0.707 0.62057,-1.07885 0.18904,-0.37329 0.36508,-0.75471 0.53472,-1.13903 0.34311,-0.76728 0.67007,-1.54431 1.04892,-2.29996 0.38013,-0.75292 0.80438,-1.49823 1.39767,-2.1276 0.30062,-0.30848 0.64946,-0.5814 1.05063,-0.76728 0.1026,-0.0403 0.20016,-0.0957 0.30772,-0.1232 0.10696,-0.0291 0.21349,-0.0616 0.32148,-0.0872 0,0 0.33046,-0.0445 0.33046,-0.0445 0.11038,-0.0128 0.22127,-0.003 0.33234,-0.005 0.44169,0.0164 0.87997,0.10858 1.28421,0.26872 0.10098,0.0407 0.20674,0.0724 0.30345,0.12082 0,0 0.29215,0.1421 0.29215,0.1421 0.19939,0.0885 0.37706,0.2093 0.56507,0.31549 0.19007,0.1038 0.35799,0.23641 0.53788,0.35406 0,0 0.25694,0.17365 0.25694,0.17365 0.0926,0.0618 0.17767,0.12338 0.26581,0.18622 0.34713,0.25197 0.67777,0.52335 0.99608,0.80875 0.6392,0.56781 1.23078,1.19145 1.75327,1.87348 0.52121,0.68161 0.98403,1.41786 1.32338,2.21635 0.0807,0.20118 0.15544,0.40493 0.23307,0.60739 0.0696,0.17896 0.14467,0.40219 0.22616,0.55157 0.16612,0.33661 0.40997,0.62483 0.71042,0.68793 0.15022,0.036 0.31832,0.0242 0.49043,-0.0222 0.17254,-0.0508 0.34482,-0.13406 0.51326,-0.23008 0.33473,-0.20281 0.65066,-0.46059 0.95299,-0.73736 0.60636,-0.55661 1.14647,-1.1911 1.71641,-1.82099 0.15143,-0.15689 0.276,-0.31677 0.50924,-0.46058 0.20794,-0.12449 0.43392,-0.19708 0.65921,-0.23676 0.4535,-0.0804 0.90366,-0.0202 1.32723,0.09 0.8485,0.23427 1.59586,0.72812 2.18676,1.34766 0.5902,0.62415 1.0266,1.37587 1.30832,2.17171 0,0 -0.0473,0.0189 -0.0473,0.0189 -0.34448,-0.76335 -0.80806,-1.47463 -1.41469,-2.03662 -0.59731,-0.56456 -1.32636,-0.99899 -2.11425,-1.17657 -0.3916,-0.0856 -0.79798,-0.11073 -1.17452,-0.0343 -0.18716,0.0381 -0.36577,0.10328 -0.51659,0.19973 -0.0338,0.0255 -0.0629,0.0435 -0.0993,0.0727 0,0 -0.0582,0.0532 -0.0582,0.0532 0,0 -0.0292,0.0267 -0.0292,0.0267 -0.004,0.004 0.0121,-0.0111 0.003,-0.002 0,0 -0.006,0.007 -0.006,0.007 0,0 -0.0128,0.0137 -0.0128,0.0137 -0.0688,0.0721 -0.13689,0.1492 -0.20469,0.227 -0.5413,0.63211 -1.07551,1.29773 -1.69325,1.8976 -0.30814,0.30122 -0.64313,0.58346 -1.02566,0.82175 -0.19503,0.11457 -0.40134,0.21973 -0.63253,0.29078 -0.23171,0.0667 -0.49454,0.096 -0.75497,0.0378 -0.25838,-0.0568 -0.50189,-0.19896 -0.67015,-0.38005 -0.0488,-0.0419 -0.0846,-0.0901 -0.12278,-0.1374 -0.0367,-0.0477 -0.0783,-0.0943 -0.10953,-0.14433 -0.0585,-0.10191 -0.12928,-0.19622 -0.17553,-0.30557 -0.11423,-0.22402 -0.16895,-0.40211 -0.25129,-0.61509 0,0 -0.21768,-0.57115 -0.21768,-0.57115 -0.64715,-1.50087 -1.67769,-2.83715 -2.89676,-3.95276 -0.30275,-0.28198 -0.6221,-0.54627 -0.94803,-0.79884 -0.0813,-0.0616 -0.16518,-0.12551 -0.2459,-0.18254 0,0 -0.26077,-0.1869 -0.26077,-0.1869 -0.16912,-0.11714 -0.32892,-0.25095 -0.50634,-0.35338 -0.17552,-0.10516 -0.34362,-0.227 -0.52779,-0.31396 0,0 -0.27137,-0.14141 -0.27137,-0.14141 -0.0901,-0.0485 -0.18631,-0.0792 -0.27934,-0.12005 -0.37107,-0.1645 -0.7654,-0.26308 -1.16135,-0.29463 -0.099,-0.001 -0.19913,-0.0155 -0.29788,-0.008 0,0 -0.29634,0.027 -0.29634,0.027 -0.0971,0.0194 -0.19306,0.0449 -0.29011,0.0665 -0.0977,0.0201 -0.18725,0.0673 -0.28155,0.0995 -0.3686,0.15493 -0.70247,0.39511 -0.99847,0.67768 -0.5897,0.57499 -1.02943,1.29892 -1.41657,2.03816 -0.38194,0.74548 -0.71359,1.5178 -1.04525,2.2915 -0.33721,0.77266 -0.66194,1.54815 -1.11005,2.28619 -0.0544,0.0944 -0.11679,0.17622 -0.17468,0.26505 0,0 -0.0442,0.0653 -0.0442,0.0653 0,0 -0.0111,0.0161 -0.0111,0.0161 0,0 -0.0151,0.0192 -0.0151,0.0192 0,0 -0.0251,0.0312 -0.0251,0.0312 0,0 -0.1008,0.12543 -0.1008,0.12543 -0.13569,0.16621 -0.26206,0.34046 -0.42229,0.48829 0,0 -0.22931,0.23068 -0.22931,0.23068 -0.0839,0.0699 -0.17152,0.13638 -0.25761,0.20461 0,0 -0.12996,0.10174 -0.12996,0.10174 -0.0464,0.0298 -0.0955,0.0567 -0.1433,0.0851 -0.0982,0.053 -0.18896,0.11928 -0.29429,0.16032 -0.40459,0.19545 -0.89348,0.26582 -1.34783,0.158 -0.22701,-0.0511 -0.44512,-0.1374 -0.64271,-0.25539 -0.19922,-0.12235 -0.37423,-0.25265 -0.54498,-0.43845 0,0 0.0134,0.0146 0.0134,0.0146 0,0 -0.56473,-0.53249 -0.56473,-0.53249 -0.1846,-0.18143 -0.38681,-0.342 -0.57918,-0.51394 -0.19161,-0.17366 -0.39784,-0.3273 -0.59799,-0.48932 -0.19785,-0.1657 -0.41032,-0.309 -0.61963,-0.45769 -0.20571,-0.15492 -0.42963,-0.27787 -0.6457,-0.41501 -0.10704,-0.0709 -0.22247,-0.12424 -0.33473,-0.18451 -0.11337,-0.0574 -0.22375,-0.12236 -0.33884,-0.17588 -0.2329,-0.0984 -0.46195,-0.21161 -0.70401,-0.28267 -0.23709,-0.0895 -0.4835,-0.13979 -0.72863,-0.19263 0,0 -0.37159,-0.0511 -0.37159,-0.0511 0,0 -0.37389,-0.0148 -0.37389,-0.0148 -0.1244,6.8e-4 -0.24812,0.0154 -0.37261,0.0221 -0.12355,0.0133 -0.24496,0.0417 -0.36816,0.0615 -0.12082,0.0291 -0.23949,0.068 -0.35979,0.10123 -0.11474,0.049 -0.23359,0.0894 -0.34722,0.14245 -0.22461,0.11055 -0.44485,0.23529 -0.64587,0.38988 0,0 -0.15176,0.11474 -0.15176,0.11474 0,0 -0.14347,0.1256 -0.14347,0.1256 -0.099,0.0802 -0.18562,0.17451 -0.27813,0.26291 -0.17605,0.18554 -0.34465,0.38048 -0.49437,0.59055 -0.15304,0.20769 -0.29198,0.42657 -0.41749,0.65323 -0.12595,0.22615 -0.24624,0.45802 -0.34149,0.69939 0,0 -0.0479,-0.0161 -0.0479,-0.0161 z"
           style="fill:#070504;fill-opacity:1;fill-rule:nonzero;stroke:none"
           id="path5286"
           inkscape:connector-curvature="0" />
        <path
           d="m 530.64492,562.99602 c 0.0707,-0.26667 0.18195,-0.52121 0.32542,-0.76001 0.07,-0.12065 0.15116,-0.23513 0.23862,-0.3462 0.0898,-0.10883 0.18563,-0.21529 0.29737,-0.30609 0.10765,-0.0952 0.22906,-0.17604 0.35577,-0.24915 0.064,-0.0349 0.13133,-0.065 0.19802,-0.0962 0.0695,-0.0237 0.13886,-0.05 0.20973,-0.0707 0.0719,-0.0161 0.14364,-0.0362 0.21658,-0.0478 0.0733,-0.009 0.1468,-0.0201 0.22059,-0.0243 0,0 0.2211,-0.003 0.2211,-0.003 0,0 0.21923,0.0213 0.21923,0.0213 0.1433,0.0251 0.28796,0.0508 0.42467,0.0965 0.14074,0.0369 0.27104,0.0953 0.40502,0.14715 0.1286,0.0601 0.25821,0.12124 0.38031,0.19229 0.12029,0.0732 0.2459,0.14039 0.35893,0.22238 0.11577,0.0793 0.23342,0.15647 0.34166,0.24411 0.11055,0.0851 0.22307,0.16844 0.32439,0.26291 0.10294,0.093 0.21109,0.18092 0.30917,0.27814 0.0999,0.0954 0.1975,0.19348 0.29471,0.29138 0,0 0.007,0.007 0.007,0.007 0,0 0.007,0.008 0.007,0.008 0.043,0.0514 0.12219,0.11953 0.19375,0.16578 0.0754,0.0475 0.1551,0.0856 0.23795,0.11107 0.1657,0.052 0.34799,0.0425 0.52386,-0.0277 0.3538,-0.14073 0.66194,-0.45349 0.91477,-0.78926 0.12021,-0.16501 0.22956,-0.35679 0.32764,-0.54694 0.0999,-0.19144 0.19408,-0.38741 0.28215,-0.58636 0.18066,-0.39613 0.34909,-0.8002 0.54464,-1.19444 0.19545,-0.39339 0.41168,-0.78516 0.71991,-1.12459 0.15689,-0.16605 0.3414,-0.31558 0.55712,-0.41955 0.21366,-0.10653 0.45973,-0.16066 0.70008,-0.15322 0.48692,0.005 0.92742,0.20435 1.31696,0.43323 0.10157,0.0542 0.19075,0.12253 0.28642,0.18365 0,0 0.1321,0.0869 0.1321,0.0869 0,0 0.14279,0.0974 0.14279,0.0974 0.18519,0.13048 0.35918,0.27292 0.52813,0.4216 0.33841,0.29643 0.6522,0.62261 0.93102,0.98112 0.2771,0.3585 0.52771,0.74616 0.70768,1.17187 0,0 0.12432,0.32353 0.12432,0.32353 0.0332,0.0846 0.0769,0.21161 0.11141,0.27104 0.0788,0.1586 0.18212,0.27069 0.27967,0.2901 0.0511,0.0133 0.11525,0.0115 0.19041,-0.008 0.0752,-0.0216 0.15613,-0.0591 0.23709,-0.10431 0.16203,-0.0967 0.3214,-0.22426 0.47582,-0.36252 0.31139,-0.27864 0.58832,-0.60338 0.89347,-0.92725 0.039,-0.0409 0.0783,-0.0817 0.12167,-0.12372 0,0 0.0336,-0.0312 0.0336,-0.0312 0,0 0.0164,-0.0121 0.0164,-0.0121 0,0 0.0329,-0.0243 0.0329,-0.0243 0,0 0.0663,-0.0488 0.0663,-0.0488 0.0666,-0.0354 0.13936,-0.074 0.20571,-0.0972 0.0635,-0.016 0.12723,-0.0361 0.19015,-0.0464 0.2542,-0.0427 0.49813,-0.003 0.72462,0.0625 0.1156,0.0281 0.22145,0.0796 0.32978,0.12269 0.1014,0.0571 0.20879,0.10312 0.30181,0.17195 0,0 0.14262,0.0967 0.14262,0.0967 0,0 0.13227,0.10971 0.13227,0.10971 0.0908,0.0696 0.16629,0.15595 0.24521,0.237 0.30353,0.33722 0.52156,0.73804 0.65374,1.15785 0,0 -0.0473,0.0187 -0.0473,0.0187 -0.1946,-0.38757 -0.43999,-0.7477 -0.76018,-1.02267 -0.31379,-0.27437 -0.6829,-0.4947 -1.07851,-0.56669 -0.19442,-0.0397 -0.39561,-0.0471 -0.57165,-0.006 -0.0437,0.0102 -0.0832,0.0274 -0.125,0.0392 -0.035,0.0159 -0.0573,0.0324 -0.089,0.0432 0,0 -0.0624,0.0523 -0.0624,0.0523 0,0 -0.0312,0.0263 -0.0312,0.0263 0,0 -0.0157,0.0132 -0.0157,0.0132 0.0341,-0.0303 0.008,-0.006 0.0146,-0.0123 0,0 -0.003,0.003 -0.003,0.003 0,0 -0.006,0.007 -0.006,0.007 0,0 -0.10055,0.11611 -0.10055,0.11611 -0.27104,0.33046 -0.55089,0.67964 -0.87442,1.00036 -0.16202,0.16116 -0.34029,0.31361 -0.55011,0.44554 -0.10747,0.0639 -0.22307,0.12338 -0.35696,0.16527 -0.13467,0.0391 -0.29395,0.0584 -0.45529,0.0222 -0.16006,-0.0347 -0.31131,-0.12449 -0.41083,-0.23085 -0.10551,-0.10602 -0.17622,-0.21922 -0.23547,-0.33875 -0.0672,-0.13415 -0.0903,-0.21521 -0.1362,-0.3338 0,0 -0.10918,-0.28728 -0.10918,-0.28728 -0.32405,-0.75599 -0.83953,-1.44239 -1.45873,-2.0161 -0.1533,-0.14526 -0.31618,-0.28061 -0.48,-0.4116 0,0 -0.12252,-0.0937 -0.12252,-0.0937 0,0 -0.13637,-0.10021 -0.13637,-0.10021 -0.0849,-0.0605 -0.16596,-0.13013 -0.25488,-0.1828 -0.17331,-0.11423 -0.35209,-0.22162 -0.53925,-0.29754 -0.18468,-0.0863 -0.37825,-0.13894 -0.57268,-0.15886 -0.39253,-0.0508 -0.77737,0.12474 -1.07885,0.40826 -0.3048,0.28506 -0.53634,0.65519 -0.73889,1.03516 -0.19862,0.38415 -0.37176,0.78326 -0.54071,1.18597 -0.17356,0.40271 -0.33541,0.80524 -0.56472,1.20171 -0.23906,0.37381 -0.52643,0.74838 -0.97172,0.97402 -0.22042,0.11106 -0.49633,0.15613 -0.75419,0.0989 -0.12886,-0.0269 -0.2524,-0.0736 -0.36355,-0.13927 -0.11312,-0.0687 -0.20752,-0.13621 -0.31063,-0.24676 0,0 0.0133,0.0146 0.0133,0.0146 -0.0982,-0.0894 -0.19622,-0.17913 -0.29181,-0.27121 -0.0952,-0.093 -0.19879,-0.17485 -0.29771,-0.26282 -0.0986,-0.0886 -0.20366,-0.1669 -0.30533,-0.25061 -0.10072,-0.0854 -0.20862,-0.15886 -0.31489,-0.2353 -0.10448,-0.0797 -0.21778,-0.14227 -0.32696,-0.21263 -0.11072,-0.0677 -0.22632,-0.1239 -0.33943,-0.1852 -0.11663,-0.0508 -0.23171,-0.10953 -0.35235,-0.14646 -0.11851,-0.0464 -0.24085,-0.0728 -0.3627,-0.1008 0,0 -0.18451,-0.0281 -0.18451,-0.0281 0,0 -0.18493,-0.011 -0.18493,-0.011 -0.0616,-6.8e-4 -0.12278,0.005 -0.18451,0.008 -0.0615,0.005 -0.1215,0.0184 -0.1828,0.0269 -0.0601,0.0131 -0.11902,0.0315 -0.17921,0.0468 -0.0572,0.0235 -0.11696,0.0415 -0.17417,0.0667 -0.11328,0.0523 -0.22538,0.11183 -0.32832,0.18733 -0.10568,0.0714 -0.20152,0.15843 -0.2972,0.24659 -0.0925,0.0913 -0.18177,0.18818 -0.26197,0.29334 -0.0818,0.10397 -0.15681,0.21419 -0.22495,0.32893 -0.0685,0.11423 -0.1362,0.23136 -0.19007,0.35371 0,0 -0.0481,-0.0161 -0.0481,-0.0161 z"
           style="fill:#070504;fill-opacity:1;fill-rule:nonzero;stroke:none"
           id="path5288"
           inkscape:connector-curvature="0" />
        <path
           d="m 489.41783,564.62634 c 0.0427,-0.1875 0.11342,-0.36756 0.20845,-0.53822 0.0962,-0.16929 0.21501,-0.332 0.3686,-0.46632 0.0753,-0.0687 0.16051,-0.12774 0.24995,-0.18143 0.0452,-0.0258 0.093,-0.0483 0.14043,-0.0711 0.0495,-0.0176 0.0989,-0.037 0.14954,-0.0527 0.10208,-0.0287 0.20674,-0.0471 0.31259,-0.0554 0,0 0.15842,-0.003 0.15842,-0.003 0,0 0.15664,0.0135 0.15664,0.0135 0.10235,0.0168 0.20563,0.0345 0.30267,0.066 0.10038,0.0254 0.19272,0.0657 0.28789,0.10175 0.0911,0.0414 0.18297,0.0841 0.26889,0.13364 0.0847,0.0512 0.17348,0.0982 0.25283,0.15535 0.1639,0.10918 0.32199,0.22427 0.467,0.3532 0.0716,0.065 0.14715,0.12663 0.2152,0.19443 0.0697,0.0663 0.13689,0.13534 0.20401,0.20426 0,0 0.01,0.0101 0.01,0.0101 0,0 0.003,0.004 0.003,0.004 0.0206,0.0265 0.0728,0.0734 0.11585,0.10201 0.0465,0.0302 0.0948,0.0547 0.14509,0.0716 0.1003,0.0342 0.21034,0.0311 0.32508,-0.009 0.22991,-0.0824 0.44948,-0.28643 0.62466,-0.51395 0.16673,-0.22649 0.30225,-0.50189 0.42682,-0.77267 0.12646,-0.2724 0.24206,-0.55225 0.37672,-0.82576 0.13312,-0.27394 0.2807,-0.54788 0.49556,-0.78874 0.10884,-0.11868 0.23743,-0.22786 0.39116,-0.30515 0.15228,-0.0787 0.33004,-0.1203 0.50283,-0.11748 0.35089,-6.8e-4 0.66545,0.13654 0.94299,0.29267 0.072,0.0376 0.13448,0.0854 0.20195,0.12808 0,0 0.0904,0.0584 0.0904,0.0584 0,0 0.10106,0.0686 0.10106,0.0686 0.1303,0.0913 0.25317,0.18938 0.37219,0.29267 0.23828,0.20571 0.46153,0.43135 0.65767,0.68314 0.19562,0.25138 0.37389,0.52378 0.50111,0.825 0,0 0.0882,0.22905 0.0882,0.22905 0.0208,0.053 0.0542,0.14784 0.0729,0.17742 0.05,0.0994 0.10654,0.15253 0.13637,0.15698 0.0184,0.006 0.0478,0.007 0.0903,-0.003 0.0429,-0.0118 0.0937,-0.0345 0.14535,-0.0628 0.10448,-0.0611 0.21162,-0.14552 0.31695,-0.23735 0.21315,-0.18579 0.40391,-0.40621 0.61996,-0.62886 0,0 0.0872,-0.0866 0.0872,-0.0866 0,0 0.0293,-0.0266 0.0293,-0.0266 0,0 0.0113,-0.009 0.0113,-0.009 0,0 0.0231,-0.0164 0.0231,-0.0164 0,0 0.0464,-0.0332 0.0464,-0.0332 0.0513,-0.0281 0.10936,-0.0584 0.16015,-0.0754 0.0471,-0.0118 0.0949,-0.026 0.1415,-0.0331 0.18733,-0.0295 0.36235,0.001 0.5242,0.05 0.32713,0.0948 0.59509,0.30139 0.80593,0.53788 0.20725,0.24248 0.35337,0.5254 0.43477,0.82021 0,0 -0.0469,0.0189 -0.0469,0.0189 -0.14432,-0.2624 -0.3178,-0.50497 -0.5413,-0.6852 -0.21854,-0.18058 -0.47222,-0.31883 -0.73402,-0.36287 -0.12876,-0.0241 -0.26086,-0.0258 -0.37039,0.003 -0.0272,0.007 -0.0507,0.0186 -0.0763,0.026 -0.0192,0.01 -0.0268,0.0178 -0.0434,0.0216 0,0 -0.0423,0.0364 -0.0423,0.0364 0,0 -0.0215,0.0186 -0.0215,0.0186 0,0 -0.0107,0.009 -0.0107,0.009 0.0345,-0.0307 0.009,-0.007 0.0156,-0.0136 0,0 -10e-4,0.003 -10e-4,0.003 0,0 -0.004,0.004 -0.004,0.004 0,0 -0.0663,0.079 -0.0663,0.079 -0.18177,0.22923 -0.37551,0.47393 -0.60064,0.70196 -0.11311,0.11492 -0.23897,0.22393 -0.39125,0.32046 -0.0785,0.0471 -0.16356,0.0915 -0.26496,0.12337 -0.10226,0.0304 -0.22701,0.0462 -0.3556,0.018 -0.12748,-0.0272 -0.24778,-0.0996 -0.32439,-0.18109 -0.0821,-0.0817 -0.13406,-0.16629 -0.17844,-0.25556 -0.0513,-0.10414 -0.0641,-0.15304 -0.0979,-0.24034 0,0 -0.0731,-0.19272 -0.0731,-0.19272 -0.21665,-0.50753 -0.56268,-0.97487 -0.97992,-1.36997 -0.10328,-0.0998 -0.21281,-0.1934 -0.3237,-0.28275 0,0 -0.0818,-0.0635 -0.0818,-0.0635 0,0 -0.0952,-0.0707 -0.0952,-0.0707 -0.0573,-0.0412 -0.11243,-0.0888 -0.17169,-0.12492 -0.11542,-0.0797 -0.23427,-0.15442 -0.35798,-0.20777 -0.12201,-0.0605 -0.2489,-0.0977 -0.3762,-0.11388 -0.25531,-0.0388 -0.50968,0.0674 -0.71881,0.25488 -0.20845,0.19015 -0.3703,0.44229 -0.51155,0.70238 -0.13757,0.26351 -0.25778,0.5384 -0.37287,0.81738 -0.11892,0.27934 -0.22546,0.55832 -0.3838,0.8397 -0.16451,0.26249 -0.35612,0.53284 -0.67777,0.7035 -0.15903,0.0848 -0.36543,0.11944 -0.55746,0.0784 -0.0959,-0.0192 -0.18784,-0.0534 -0.27009,-0.10123 -0.0846,-0.051 -0.15219,-0.0976 -0.23239,-0.18297 0,0 0.0133,0.0146 0.0133,0.0146 -0.0681,-0.0606 -0.13586,-0.12098 -0.20135,-0.18417 -0.0652,-0.0635 -0.13586,-0.1191 -0.20358,-0.17904 -0.0676,-0.0603 -0.13902,-0.11362 -0.20785,-0.17117 -0.0684,-0.0585 -0.1415,-0.10867 -0.21324,-0.16099 -0.0709,-0.0547 -0.14697,-0.0972 -0.22093,-0.14544 -0.0746,-0.0461 -0.15219,-0.0842 -0.22778,-0.1268 -0.078,-0.0348 -0.155,-0.0754 -0.23512,-0.10089 -0.0792,-0.0322 -0.16023,-0.0505 -0.24102,-0.0703 0,0 -0.12185,-0.0205 -0.12185,-0.0205 0,0 -0.12226,-0.01 -0.12226,-0.01 -0.0813,-0.002 -0.16236,0.004 -0.24283,0.0178 -0.0397,0.008 -0.0788,0.0192 -0.11899,0.0285 -0.038,0.015 -0.0781,0.0256 -0.11662,0.0414 -0.0759,0.0331 -0.1519,0.0709 -0.22229,0.11978 -0.0722,0.0462 -0.13823,0.10345 -0.20455,0.16168 -0.0642,0.0605 -0.12642,0.12492 -0.18279,0.19546 -0.11595,0.13825 -0.21822,0.29352 -0.30278,0.45777 0,0 -0.048,-0.0162 -0.048,-0.0162 z"
           style="fill:#070504;fill-opacity:1;fill-rule:nonzero;stroke:none"
           id="path5290"
           inkscape:connector-curvature="0" />
      </g>
      <circle
         r="46.484329"
         cy="490.55426"
         cx="576.61359"
         id="path6201"
         style="color:#000000;clip-rule:nonzero;display:inline;overflow:visible;visibility:visible;opacity:1;isolation:auto;mix-blend-mode:normal;color-interpolation:sRGB;color-interpolation-filters:linearRGB;solid-color:#000000;solid-opacity:1;fill:#ececec;fill-opacity:1;fill-rule:nonzero;stroke:#4b4c9d;stroke-width:1.72026694;stroke-linecap:butt;stroke-linejoin:miter;stroke-miterlimit:4;stroke-dasharray:10.32160163, 1.72026694;stroke-dashoffset:0;stroke-opacity:1;color-rendering:auto;image-rendering:auto;shape-rendering:auto;text-rendering:auto;enable-background:accumulate" />
      <circle
         r="27.351196"
         style="color:#000000;clip-rule:nonzero;display:inline;overflow:visible;visibility:visible;opacity:1;isolation:auto;mix-blend-mode:normal;color-interpolation:sRGB;color-interpolation-filters:linearRGB;solid-color:#000000;solid-opacity:1;fill:none;fill-opacity:1;fill-rule:nonzero;stroke:#4b4c9d;stroke-width:1.4806695;stroke-linecap:butt;stroke-linejoin:miter;stroke-miterlimit:4;stroke-dasharray:8.88401694, 1.48066949;stroke-dashoffset:0;stroke-opacity:1;color-rendering:auto;image-rendering:auto;shape-rendering:auto;text-rendering:auto;enable-background:accumulate"
         id="circle6217"
         cx="576.61359"
         cy="490.55426" />
      <path
         d="m -720.76383,81.262396 a 35.657257,35.787495 0 0 1 -31.11685,38.005444 35.657257,35.787495 0 0 1 -39.53087,-29.079761 35.657257,35.787495 0 0 1 26.74224,-41.2235 35.657257,35.787495 0 0 1 42.49025,24.517846 l -34.15505,10.278142 z"
         sodipodi:end="5.9918837"
         sodipodi:start="6.2133228"
         sodipodi:ry="35.787495"
         sodipodi:rx="35.657257"
         sodipodi:cy="83.760567"
         sodipodi:cx="-756.33411"
         sodipodi:type="arc"
         inkscape:transform-center-y="14.529701"
         inkscape:transform-center-x="-3.3474604"
         transform="matrix(-0.68226744,-0.73110268,0.70431603,-0.70988657,0,0)"
         id="circle6233"
         style="color:#000000;clip-rule:nonzero;display:inline;overflow:visible;visibility:visible;opacity:1;isolation:auto;mix-blend-mode:normal;color-interpolation:sRGB;color-interpolation-filters:linearRGB;solid-color:#000000;solid-opacity:1;fill:none;fill-opacity:1;fill-rule:nonzero;stroke:none;stroke-width:1.72542727;stroke-linecap:butt;stroke-linejoin:miter;stroke-miterlimit:4;stroke-dasharray:10.35256355, 1.72542726;stroke-dashoffset:0;stroke-opacity:1;color-rendering:auto;image-rendering:auto;shape-rendering:auto;text-rendering:auto;enable-background:accumulate" />
      <text
         transform="matrix(1.0924692,0.1200055,-0.1200055,1.0924692,7.3980956,-109.59289)"
         inkscape:transform-center-y="-18.23226"
         inkscape:transform-center-x="-6.0654523"
         id="text6235"
         style="font-style:normal;font-weight:normal;font-size:40px;line-height:0%;font-family:sans-serif;letter-spacing:0px;word-spacing:0px;fill:#4b4c9d;fill-opacity:1;stroke:none;stroke-width:1px;stroke-linecap:butt;stroke-linejoin:miter;stroke-opacity:1"
         xml:space="preserve"><textPath
           style="font-style:normal;font-variant:normal;font-weight:bold;font-stretch:normal;font-size:9.09884453px;line-height:125%;font-family:Rubik;-inkscape-font-specification:'Rubik Bold';text-align:start;writing-mode:lr-tb;text-anchor:start;fill:#4b4c9d;fill-opacity:1;stroke:none"
           id="textPath6239"
           xlink:href="#circle6233">ERPNext</textPath></text>
      <path
         sodipodi:open="true"
         d="m -86.545163,729.93266 a 41.373619,42.533241 0 0 1 -17.405097,51.79263 41.373619,42.533241 0 0 1 -52.60714,-8.82116"
         sodipodi:end="2.4324034"
         sodipodi:start="5.9158985"
         sodipodi:ry="42.533241"
         sodipodi:rx="41.373619"
         sodipodi:cy="745.20569"
         sodipodi:cx="-125.15937"
         sodipodi:type="arc"
         style="color:#000000;clip-rule:nonzero;display:inline;overflow:visible;visibility:visible;opacity:1;isolation:auto;mix-blend-mode:normal;color-interpolation:sRGB;color-interpolation-filters:linearRGB;solid-color:#000000;solid-opacity:1;fill:none;fill-opacity:1;fill-rule:nonzero;stroke:none;stroke-width:1.72542727;stroke-linecap:butt;stroke-linejoin:miter;stroke-miterlimit:4;stroke-dasharray:10.35256355, 1.72542726;stroke-dashoffset:0;stroke-opacity:1;color-rendering:auto;image-rendering:auto;shape-rendering:auto;text-rendering:auto;enable-background:accumulate"
         id="circle6242"
         transform="matrix(-0.76440954,0.644731,0.644731,0.76440954,0,0)"
         inkscape:transform-center-x="-5.8466751"
         inkscape:transform-center-y="-14.981635" />
      <text
         y="-39.39595"
         x="32.829956"
         id="text6244"
         style="font-style:normal;font-weight:normal;font-size:40px;line-height:0%;font-family:sans-serif;letter-spacing:0px;word-spacing:0px;fill:#4b4c9d;fill-opacity:1;stroke:none;stroke-width:1px;stroke-linecap:butt;stroke-linejoin:miter;stroke-opacity:1"
         xml:space="preserve"><textPath
           style="font-style:normal;font-variant:normal;font-weight:normal;font-stretch:normal;font-size:10px;line-height:125%;font-family:Rubik;-inkscape-font-specification:'Rubik, Normal';text-align:start;letter-spacing:2.15999985px;writing-mode:lr-tb;text-anchor:start;fill:#4b4c9d"
           id="textPath6251"
           xlink:href="#circle6242">CONFERENCE 2017</textPath></text>
      <circle
         transform="matrix(0.99418357,-0.10769883,0.10769883,0.99418357,0,0)"
         r="3.2829957"
         cy="539.65106"
         cx="557.53802"
         id="path6255"
         style="color:#000000;clip-rule:nonzero;display:inline;overflow:visible;visibility:visible;opacity:1;isolation:auto;mix-blend-mode:normal;color-interpolation:sRGB;color-interpolation-filters:linearRGB;solid-color:#000000;solid-opacity:1;fill:#4b4c9d;fill-opacity:1;fill-rule:nonzero;stroke:none;stroke-width:1.72026694;stroke-linecap:butt;stroke-linejoin:miter;stroke-miterlimit:4;stroke-dasharray:10.32160163, 1.72026694;stroke-dashoffset:0;stroke-opacity:1;color-rendering:auto;image-rendering:auto;shape-rendering:auto;text-rendering:auto;enable-background:accumulate" />
      <circle
         transform="matrix(0.99418357,-0.10769883,0.10769883,0.99418357,0,0)"
         r="3.2829957"
         style="color:#000000;clip-rule:nonzero;display:inline;overflow:visible;visibility:visible;opacity:1;isolation:auto;mix-blend-mode:normal;color-interpolation:sRGB;color-interpolation-filters:linearRGB;solid-color:#000000;solid-opacity:1;fill:#4b4c9d;fill-opacity:1;fill-rule:nonzero;stroke:none;stroke-width:1.72026694;stroke-linecap:butt;stroke-linejoin:miter;stroke-miterlimit:4;stroke-dasharray:10.32160163, 1.72026694;stroke-dashoffset:0;stroke-opacity:1;color-rendering:auto;image-rendering:auto;shape-rendering:auto;text-rendering:auto;enable-background:accumulate"
         id="circle6257"
         cx="482.66431"
         cy="542.86536" />
    </g>
  </g>
</svg>
