<?xml version="1.0" encoding="utf-8"?>
<!-- Generator: Adobe Illustrator 15.1.0, SVG Export Plug-In . SVG Version: 6.00 Build 0)  -->
<!DOCTYPE svg PUBLIC "-//W3C//DTD SVG 1.1//EN" "http://www.w3.org/Graphics/SVG/1.1/DTD/svg11.dtd">
<svg version="1.1" id="Layer_1" xmlns="http://www.w3.org/2000/svg" xmlns:xlink="http://www.w3.org/1999/xlink" x="0px" y="0px"
	 width="290px" height="233px" viewBox="0 0 290 233" enable-background="new 0 0 290 233" xml:space="preserve">
<g>
	<g>
		<path d="M210.503,35.004c0.665,45.889,6.259,91.46,13.962,136.656c0.537,3.152,5.322,1.812,4.788-1.319
			c-7.628-44.765-13.126-89.888-13.784-135.336C215.422,31.805,210.456,31.8,210.503,35.004L210.503,35.004z"/>
	</g>
	<g>
		<path d="M60.705,56.846c0.094,22.373,4.154,44.392,7.536,66.435c3.834,24.992,7.598,49.898,12.176,74.775
			c0.579,3.147,5.364,1.812,4.788-1.318c-4.224-22.959-8.104-45.893-11.325-69.014c-3.287-23.593-8.109-46.963-8.209-70.879
			C65.658,53.644,60.691,53.644,60.705,56.846L60.705,56.846z"/>
	</g>
	<g>
		<path d="M151.605,71.463c7.955-7.141,17.933-12.347,27.176-17.63c11.17-6.385,22.863-11.815,34.863-16.435
			c2.957-1.138,1.674-5.941-1.318-4.789c-11.482,4.42-22.588,9.582-33.398,15.458c-10.57,5.744-21.839,11.812-30.832,19.885
			C145.707,70.096,149.23,73.595,151.605,71.463L151.605,71.463z"/>
	</g>
	<g>
		<path d="M63.186,59.328c21.932-1.296,42.329,8.068,61.782,17.097c2.884,1.34,5.409-2.94,2.506-4.287
			c-20.236-9.394-41.476-19.124-64.288-17.775C60.004,54.549,59.985,59.517,63.186,59.328L63.186,59.328z"/>
	</g>
	<g>
		<path d="M171.381,195.588c17.156-10.812,36.564-17.344,56.139-22.195c3.107-0.77,1.789-5.56-1.319-4.787
			c-19.958,4.944-39.832,11.67-57.324,22.695C166.174,193.003,168.664,197.301,171.381,195.588L171.381,195.588z"/>
	</g>
	<g>
		<path d="M83.469,199.792c20.979-4.804,42.28-4.106,62.481,3.595c2.997,1.143,4.28-3.66,1.319-4.789
			c-21-8.006-43.331-8.582-65.12-3.595C79.028,195.719,80.352,200.507,83.469,199.792L83.469,199.792z"/>
	</g>
	<g>
		<path d="M143.198,201.202c7.029,7.874,26.439,4.62,28.703-6.478c0.64-3.125-4.147-4.457-4.787-1.32
			c-1.523,7.463-15.797,9.447-20.404,4.287C144.572,195.297,141.072,198.82,143.198,201.202L143.198,201.202z"/>
	</g>
	<g>
		<path d="M123.871,75.886c8.038,4.699,22.449,4.14,28.02-4.409c1.756-2.691-2.545-5.178-4.287-2.505
			c-4.073,6.25-15.637,5.894-21.227,2.627C123.605,69.979,121.108,74.271,123.871,75.886L123.871,75.886z"/>
	</g>
	<g>
		<path d="M123.827,76.988c6.245,41.04,12.488,82.079,18.732,123.118c0.48,3.16,5.265,1.812,4.789-1.318
			c-6.246-41.039-12.489-82.078-18.732-123.117C128.135,72.511,123.35,73.857,123.827,76.988L123.827,76.988z"/>
	</g>
	<g>
		<path d="M148.768,69.333c6.321,41.59,12.645,83.181,18.967,124.771c0.479,3.16,5.265,1.812,4.789-1.318
			c-6.322-41.59-12.646-83.181-18.967-124.771C153.075,64.854,148.29,66.201,148.768,69.333L148.768,69.333z"/>
	</g>
	<g>
		<path d="M141.218,180.07c7.323,4.979,23.479,3.869,26.822-5.898c1.04-3.037-3.758-4.331-4.788-1.318
			c-0.936,2.727-5.217,3.945-7.648,4.676c-4.072,1.225-8.381,0.631-11.878-1.745C141.067,173.979,138.586,178.283,141.218,180.07
			L141.218,180.07z"/>
	</g>
	<g>
		<path d="M142.362,189.425c9.333,1.72,21.631,3.4,27.633-6.106c1.715-2.717-2.583-5.207-4.287-2.506
			c-4.593,7.272-15.173,5.086-22.027,3.824C140.552,184.061,139.215,188.846,142.362,189.425L142.362,189.425z"/>
	</g>
	<g>
		<path d="M128.526,95.925c8.325,4.356,23.269,5.31,28.227-4.478c1.442-2.848-2.84-5.364-4.287-2.505
			c-3.634,7.169-15.458,5.823-21.434,2.696C128.198,90.154,125.688,94.44,128.526,95.925L128.526,95.925z"/>
	</g>
	<g>
		<path d="M139.857,73.125c6.618-10.861,18.5-18.073,29.379-24.041c11.076-6.075,22.887-11.117,34.977-14.789
			c1.02-0.31,0.583-1.907-0.439-1.597c-12.246,3.719-24.119,8.883-35.371,14.956c-11.129,6.005-23.238,13.579-29.974,24.636
			C137.87,73.204,139.302,74.035,139.857,73.125L139.857,73.125z"/>
	</g>
	<g>
		<path d="M203.166,33.773c0,1.429,0.034,2.954-0.385,4.333c-0.311,1.023,1.287,1.458,1.597,0.439
			c0.46-1.516,0.442-3.199,0.442-4.772C204.82,32.707,203.166,32.707,203.166,33.773L203.166,33.773z"/>
	</g>
	<g>
		<path d="M76.118,50.739c0,1.792,0,3.587,0,5.38c0,1.067,1.655,1.067,1.655,0c0-1.793,0-3.587,0-5.38
			C77.773,49.672,76.118,49.672,76.118,50.739L76.118,50.739z"/>
	</g>
	<g>
		<path d="M76.809,51.429c21.332-0.105,45.854,7.115,61.749,21.864c0.781,0.724,1.955-0.443,1.17-1.17
			c-16.229-15.06-41.131-22.455-62.919-22.349C75.742,49.779,75.74,51.434,76.809,51.429L76.809,51.429z"/>
	</g>
	<g>
		<path d="M139.857,72.158c4.25-8.912,13.407-16.164,20.729-22.463c10.094-8.681,20.619-15.651,33.053-20.575
			c0.981-0.388,0.555-1.99-0.439-1.597c-12.01,4.757-22.223,11.35-32.096,19.573c-8.01,6.672-18.079,14.588-22.676,24.229
			C137.97,72.281,139.397,73.122,139.857,72.158L139.857,72.158z"/>
	</g>
	<g>
		<path d="M87.62,46.882c9.994,0.249,18.925,3.183,27.772,7.755c8.543,4.415,17.177,9.746,23.036,17.521
			c0.634,0.842,2.072,0.018,1.429-0.834c-6.098-8.096-14.812-13.406-23.629-18.117c-8.978-4.798-18.416-7.727-28.608-7.981
			C86.551,45.201,86.555,46.856,87.62,46.882L87.62,46.882z"/>
	</g>
	<g>
		<path d="M192.684,28.531c-0.104,2.536,0.246,5.055,0.275,7.588c0.012,1.067,1.667,1.068,1.654,0
			c-0.028-2.533-0.377-5.052-0.274-7.588C194.383,27.462,192.729,27.467,192.684,28.531L192.684,28.531z"/>
	</g>
	<g>
		<path d="M86.792,46.054c-0.014,1.613-0.242,3.212-0.258,4.824c-0.011,1.069,1.644,1.067,1.655,0
			c0.016-1.611,0.244-3.21,0.259-4.824C88.457,44.986,86.802,44.987,86.792,46.054L86.792,46.054z"/>
	</g>
	<g>
		<path d="M171.541,94.502c5.363-4.306,6.062-14.23,1.242-19.172c-0.278-0.285-0.665-0.286-1.002-0.129
			c-6.62,3.054-1.95,17.69,5.519,14.44c5.16-2.245,11.655-17.47,5.247-21.062c-0.422-0.237-0.865-0.074-1.131,0.297
			c-3.234,4.475-4.512,17.606,3.836,17.221c6.909-0.318,7.771-13.952,6.988-18.679c-0.116-0.695-1.217-0.819-1.514-0.197
			c-1.478,3.096-3.393,10.676-0.142,13.245c3.938,3.115,6.634-7.084,7.778-8.893c-0.504-0.065-1.008-0.131-1.512-0.197
			c0.246,1.364,0.551,2.467,1.119,3.715c0.237,0.525,0.928,0.477,1.299,0.168c0.643-0.535,1.43-2.048,2.219-0.996
			c0.632,0.844,2.07,0.019,1.429-0.834c-0.519-0.69-0.763-0.984-1.371-1.616c-0.292-0.302-0.886-0.343-1.17,0
			c-0.708,0.852-1.424,1.568-2.276,2.276c0.434,0.055,0.866,0.112,1.301,0.168c-0.493-1.06-0.811-2.167-0.951-3.32
			c-0.137-0.749-1.163-0.753-1.514-0.197c-0.633,1.001-4.129,10.223-5.763,7.975c-1.7-2.342-0.159-8.261,0.984-10.658
			c-0.505-0.065-1.009-0.131-1.513-0.197c0.791,4.764-0.199,11.631-3.381,15.386c-3.631,4.284-6.502-2.055-6.632-5.131
			c-0.118-2.803,0.55-6.098,2.214-8.403c-0.375,0.1-0.755,0.199-1.131,0.297c5.561,3.118-2.756,22.69-8.936,17.435
			c-1.594-1.356-2.176-3.786-2.369-5.765c-0.09-0.925,0.041-1.845,0.25-2.744c0.48-2.061,1.314-2.31,2.326-0.659
			c2.732,4.455,1.375,11.853-2.614,15.056C169.538,94,170.717,95.163,171.541,94.502L171.541,94.502z"/>
	</g>
</g>
</svg>
