<?xml version="1.0" encoding="utf-8"?>
<!-- Generator: Adobe Illustrator 15.1.0, SVG Export Plug-In . SVG Version: 6.00 Build 0)  -->
<!DOCTYPE svg PUBLIC "-//W3C//DTD SVG 1.1//EN" "http://www.w3.org/Graphics/SVG/1.1/DTD/svg11.dtd">
<svg version="1.1" id="Layer_1" xmlns="http://www.w3.org/2000/svg" xmlns:xlink="http://www.w3.org/1999/xlink" x="0px" y="0px"
	 width="290px" height="233px" viewBox="0 0 290 233" enable-background="new 0 0 290 233" xml:space="preserve">
<g>
	<g>
		<path d="M230.121,57.922c-7.312,11.984-10.051,33.194-1.559,45.229c2.297,3.257,7.705,0.148,5.381-3.146
			c-7.229-10.249-4.659-28.742,1.56-38.938C237.604,57.626,232.209,54.497,230.121,57.922L230.121,57.922z"/>
	</g>
	<g>
		<path d="M228.303,122.605c-6.238,14.019-6.564,30.176,2.338,43.151c2.256,3.294,7.662,0.179,5.381-3.146
			c-7.584-11.059-7.699-24.807-2.338-36.86C235.305,122.113,229.934,118.939,228.303,122.605L228.303,122.605z"/>
	</g>
	<g>
		<path d="M75.562,62.7c52.503-0.008,105.006-0.339,157.508-0.347c4.021,0,4.021-6.235,0-6.235
			c-52.502,0.008-105.005,0.339-157.508,0.347C71.542,56.465,71.542,62.7,75.562,62.7L75.562,62.7z"/>
	</g>
	<g>
		<path d="M231.514,100.54c-51.984,0-103.968,0-155.951,0c-4.021,0-4.021,6.235,0,6.235c51.983,0,103.966,0,155.951,0
			C235.533,106.774,235.533,100.54,231.514,100.54L231.514,100.54z"/>
	</g>
	<g>
		<path d="M74.089,125.998c52.387,0,104.776,0,157.164,0c4.021,0,4.021-6.234,0-6.234c-52.387,0-104.776,0-157.164,0
			C70.069,119.764,70.069,125.998,74.089,125.998L74.089,125.998z"/>
	</g>
	<g>
		<path d="M74.306,167.303c53.341,0,106.68,0,160.021,0c4.021,0,4.021-6.234,0-6.234c-53.341,0-106.68,0-160.021,0
			C70.286,161.066,70.286,167.303,74.306,167.303L74.306,167.303z"/>
	</g>
	<g>
		<path d="M72.778,57.239c-18.488,8.388-18.286,43.609,1.957,49.595c3.864,1.143,5.504-4.875,1.656-6.012
			c-6.425-1.901-9.307-10.09-10.769-15.844c-2.021-7.959,2.722-18.917,10.302-22.357C79.581,60.963,76.409,55.591,72.778,57.239
			L72.778,57.239z"/>
	</g>
	<g>
		<path d="M72.309,119.79c-16.128,6.64-16.368,43.771,2.425,47.487c3.925,0.777,5.6-5.231,1.656-6.01
			c-12.157-2.406-13.029-31.101-2.425-35.465C77.63,124.293,76.027,118.259,72.309,119.79L72.309,119.79z"/>
	</g>
	<g>
		<path d="M60.581,115.867c58.189,0,116.379,0,174.567,0c4.021,0,4.021-6.235,0-6.235c-58.188,0-116.378,0-174.567,0
			C56.561,109.632,56.561,115.867,60.581,115.867L60.581,115.867z"/>
	</g>
	<g>
		<path d="M60.581,52.741c58.189,0,116.379,0,174.567,0c4.021,0,4.021-6.234,0-6.234c-58.188,0-116.378,0-174.567,0
			C56.561,46.507,56.561,52.741,60.581,52.741L60.581,52.741z"/>
	</g>
	<g>
		<path d="M63.889,176.395c56.814,0.021,113.625,0.861,170.439,0.883c4.021,0.002,4.021-6.232,0-6.234
			c-56.812-0.021-113.625-0.863-170.439-0.883C59.869,170.156,59.869,176.393,63.889,176.395L63.889,176.395z"/>
	</g>
	<g>
		<path d="M233.24,114.842c0.917,1.896-1.528,4.213-3.16,4.602c-3.913,0.925-2.252,6.937,1.656,6.011
			c5.859-1.388,9.541-8.28,6.886-13.758C236.871,108.077,231.494,111.241,233.24,114.842L233.24,114.842z"/>
	</g>
	<g>
		<path d="M237.96,113.395c2.521-2.636,3.915-6.387,1.192-9.435c-1.868-2.092-4.893-3.018-7.59-3.396
			c-1.681-0.235-3.34,0.382-3.834,2.178c-0.406,1.476,0.492,3.599,2.179,3.834c1.657,0.233,3.2,0.629,4.354,1.329
			c0.773,0.467-0.312-0.335,0.297,0.256c-0.184-0.28-0.182-0.274,0.006,0.022c-0.123-0.349-0.135-0.352-0.035-0.008
			c-0.075-0.177-0.084-0.355-0.026-0.538c-0.101,0.339-0.118,0.406-0.053,0.199c-0.224,0.457-0.55,0.785-0.899,1.15
			C230.773,111.891,235.178,116.305,237.96,113.395L237.96,113.395z"/>
	</g>
	<g>
		<path d="M230.041,62.178c2.531-0.25,5.225-0.412,7.383-1.906c2.543-1.759,3.457-4.767,3.039-7.722
			c-0.697-4.939-7.499-5.53-11.285-5.871c-4.007-0.361-3.973,5.877,0,6.234c1.045,0.094,1.957,0.183,2.871,0.354
			c1.102,0.205,2.061,0.513,2.486,0.929c-0.374-0.365-0.148,0.024-0.118-0.162c-0.062,0.379-0.155,0.869-0.489,1.098
			c-1.043,0.723-2.673,0.692-3.887,0.812c-1.689,0.167-3.117,1.293-3.117,3.117C226.924,60.634,228.348,62.345,230.041,62.178
			L230.041,62.178z"/>
	</g>
	<g>
		<path d="M232.682,167.066c1.562-0.032,2.088,0.658,2.422,2.398c0.055,0.286-0.16,1.014-0.31,1.276
			c0.197-0.214,0.17-0.187-0.082,0.085c0.335-0.359-0.302,0.183-0.394,0.232c0.219-0.125,0.142-0.121-0.231,0.01
			c0.341-0.084-0.836-0.03-0.757-0.025c-4.021-0.186-4.002,6.051,0,6.234c4.678,0.215,8.117-3.352,7.968-7.99
			c-0.151-4.682-3.87-8.557-8.616-8.457C228.667,160.917,228.659,167.152,232.682,167.066L232.682,167.066z"/>
	</g>
	<g>
		<path d="M59.148,110.09c-17.11,5.208-13.906,26.944-14.419,41.118c-0.631,17.456,9.764,25.998,26.893,25.187
			c4.002-0.189,4.021-6.426,0-6.234c-14.06,0.666-20.877-5.102-20.658-18.952c0.171-10.688-2.874-31.235,9.841-35.106
			C64.64,114.935,63.004,108.917,59.148,110.09L59.148,110.09z"/>
	</g>
	<g>
		<path d="M59.097,47.195c-13.632,7.326-14.915,27.449-13.484,40.979c1.457,13.782,7.763,23.451,21.502,26.891
			c3.901,0.976,5.555-5.035,1.656-6.011c-12.804-3.207-16-12.143-17.275-24.202c-1.084-10.255,0.606-26.824,10.746-32.275
			C65.787,50.673,62.637,45.291,59.097,47.195L59.097,47.195z"/>
	</g>
</g>
</svg>
