<?xml version="1.0" encoding="utf-8"?>
<!-- Generator: Adobe Illustrator 15.1.0, SVG Export Plug-In . SVG Version: 6.00 Build 0)  -->
<!DOCTYPE svg PUBLIC "-//W3C//DTD SVG 1.1//EN" "http://www.w3.org/Graphics/SVG/1.1/DTD/svg11.dtd">
<svg version="1.1" id="Layer_1" xmlns="http://www.w3.org/2000/svg" xmlns:xlink="http://www.w3.org/1999/xlink" x="0px" y="0px"
	 width="290px" height="233px" viewBox="0 0 290 233" enable-background="new 0 0 290 233" xml:space="preserve">
<g>
	<g>
		<path d="M105.833,60.594c0.005,43.405,0.28,86.812,0.286,130.216c0,3.321,5.151,3.321,5.151,0
			c-0.005-43.406-0.28-86.812-0.285-130.216C110.985,57.272,105.833,57.272,105.833,60.594L105.833,60.594z"/>
	</g>
	<g>
		<path d="M140.748,63.742c-0.017,44.697-0.842,89.392-0.859,134.089c-0.001,3.321,5.15,3.321,5.152,0
			c0.017-44.698,0.841-89.392,0.857-134.089C145.9,60.42,140.75,60.42,140.748,63.742L140.748,63.742z"/>
	</g>
	<g>
		<path d="M198.844,34.811c0,41.459,0,82.921,0,124.38c0,3.322,5.152,3.322,5.152,0c0-41.459,0-82.92,0-124.38
			C203.996,31.489,198.844,31.489,198.844,34.811L198.844,34.811z"/>
	</g>
	<g>
		<path d="M143.765,200.055c19.678-12.852,39.012-26.195,58.956-38.64c2.811-1.754,0.227-6.211-2.601-4.447
			c-19.942,12.444-39.278,25.789-58.955,38.64C138.397,197.416,140.974,201.878,143.765,200.055L143.765,200.055z"/>
	</g>
	<g>
		<path d="M106.873,192.632c9.167,11.425,23.817,13.022,36.605,6.984c3.002-1.417,0.386-5.857-2.599-4.447
			c-10.852,5.123-22.699,3.373-30.364-6.179C108.436,186.398,104.815,190.068,106.873,192.632L106.873,192.632z"/>
	</g>
	<g>
		<path d="M106.119,59.163c0.481,6.136,8.017,7.393,12.917,8.103c7.265,1.05,15.854,1.437,22.969-0.753
			c3.166-0.974,1.814-5.946-1.368-4.967c-4.459,1.372-9.389,1.279-14.007,1.187c-2.093-0.042-15.096-0.225-15.359-3.57
			C111.012,55.874,105.858,55.849,106.119,59.163L106.119,59.163z"/>
	</g>
	<g>
		<path d="M141.761,66.54c20.742-8.987,40.305-20.333,60.959-29.505c3.031-1.345,0.406-5.784-2.601-4.447
			c-20.653,9.173-40.22,20.517-60.958,29.505C136.12,63.41,138.746,67.846,141.761,66.54L141.761,66.54z"/>
	</g>
	<g>
		<path d="M109.994,61.386c19.223-9.062,38.445-18.126,57.668-27.189c3.003-1.416,0.387-5.856-2.6-4.447
			c-19.224,9.062-38.445,18.126-57.667,27.189C104.391,58.354,107.007,62.794,109.994,61.386L109.994,61.386z"/>
	</g>
	<g>
		<path d="M162.773,35.055c10.125,4.704,21.703,4.53,32.639,4.216c3.314-0.095,3.322-5.247,0-5.151
			c-9.909,0.283-20.84,0.761-30.038-3.512C162.382,29.218,159.764,33.657,162.773,35.055L162.773,35.055z"/>
	</g>
	<g>
		<path d="M162.428,78.623c-0.308,10.426,10.688,5.811,14.598,0.567c2.76-3.704,4.543-10.524,2.164-14.847
			c-1.586-2.884-4.408-2.125-6.01,0.31c-2.721,4.137-3.754,15.969,3.2,16.546c6.905,0.572,10.864-13.409,8.468-18.248
			c-0.309-0.624-1.144-0.488-1.481,0c-2.405,3.454-4.813,12.392,0.513,14.354c5.411,1.992,6.697-10.084,7.281-12.835
			c-0.553,0-1.105,0-1.657,0c0.347,2.162,0.491,3.815,1.375,5.785c0.198,0.441,0.795,0.508,1.175,0.309
			c1.834-0.96,2.35-2.146,2.756-4.162c0.217-1.082-1.438-1.542-1.656-0.457c-0.053,1.348-0.709,2.395-1.965,3.136
			c0.391,0.103,0.783,0.205,1.174,0.309c-0.649-1.449-0.93-3.675-1.2-5.376c-0.136-0.843-1.486-0.801-1.657,0
			c-0.74,3.491-1.087,7.157-2.928,10.292c-1.445,2.465-3.84,0.295-4.038-1.773c-0.104-1.094,0.099-2.271,0.282-3.334
			c0.324-1.853,0.949-3.832,2.029-5.383c-0.496,0-0.988,0-1.482,0c2.061,4.166-1.102,10.83-3.84,13.964
			c-5.379,6.153-6.827-4.182-6.353-7.644c0.255-1.859,0.82-3.882,2.022-5.357c1.228-1.506,2.656,0.812,2.955,2.033
			c0.578,2.342,0.201,4.726-0.406,7.013c-0.92,3.459-3.311,6.488-6.327,8.331c-3.694,2.256-7.416,1.305-7.272-3.532
			C164.176,77.514,162.459,77.518,162.428,78.623L162.428,78.623z"/>
	</g>
	<g>
		<path d="M120.172,52.924c-1.789,5.708,7.157,6.927,10.957,7.196c11.782,0.835,23.934-2.596,34.889-6.569
			c1.032-0.375,0.586-2.034-0.457-1.657c-7.867,2.854-15.93,5.084-24.245,6.136c-2.4,0.304-21.537,1.885-19.488-4.65
			C122.162,52.321,120.502,51.872,120.172,52.924L120.172,52.924z"/>
	</g>
	<g>
		<path d="M116.131,88.236c6.57,3.564,13.792,2.819,20.836,1.233c1.081-0.243,0.623-1.9-0.456-1.657
			c-6.577,1.482-13.358,2.28-19.516-1.058C116.024,86.226,115.157,87.708,116.131,88.236L116.131,88.236z"/>
	</g>
	<g>
		<path d="M116.051,92.761c5.621,2.192,11.316,1.967,17.198,1.144c1.093-0.155,0.625-1.808-0.456-1.657
			c-5.576,0.781-10.956,0.935-16.286-1.144C115.474,90.702,115.031,92.363,116.051,92.761L116.051,92.761z"/>
	</g>
	<g>
		<path d="M118.853,158.354c3.713,2.385,8.836,2.041,13.025,1.549c1.086-0.129,1.098-1.846,0-1.717
			c-3.886,0.457-8.72,0.894-12.159-1.313C118.784,156.271,117.924,157.759,118.853,158.354L118.853,158.354z"/>
	</g>
	<g>
		<path d="M117.39,162.798c3.721,3.005,8.916,2.187,13.342,1.826c1.095-0.088,1.105-1.808,0-1.717
			c-3.822,0.312-8.889,1.29-12.127-1.323C117.751,160.895,116.529,162.104,117.39,162.798L117.39,162.798z"/>
	</g>
</g>
</svg>
