<?xml version="1.0" encoding="utf-8"?>
<!-- Generator: Adobe Illustrator 15.1.0, SVG Export Plug-In . SVG Version: 6.00 Build 0)  -->
<!DOCTYPE svg PUBLIC "-//W3C//DTD SVG 1.1//EN" "http://www.w3.org/Graphics/SVG/1.1/DTD/svg11.dtd">
<svg version="1.1" id="Layer_1" xmlns="http://www.w3.org/2000/svg" xmlns:xlink="http://www.w3.org/1999/xlink" x="0px" y="0px"
	 width="290px" height="233px" viewBox="0 0 290 233" enable-background="new 0 0 290 233" xml:space="preserve">
<g>
	<g>
		<path d="M106.914,206.848c20.809,13.156,54.66,10.469,75.986,0.082c2.884-1.404,0.361-5.691-2.508-4.291
			c-19.648,9.568-51.812,12.028-70.971-0.084C106.705,200.833,104.212,205.141,106.914,206.848L106.914,206.848z"/>
	</g>
	<g>
		<path d="M179.16,85.702c0,39.694,0,79.387,0,119.081c0,3.207,4.972,3.207,4.972,0c0-39.694,0-79.387,0-119.081
			C184.132,82.496,179.16,82.496,179.16,85.702L179.16,85.702z"/>
	</g>
	<g>
		<path d="M105.68,88.463c0,38.4,0,76.797,0,115.195c0,3.207,4.972,3.207,4.972,0c0-38.398,0-76.795,0-115.195
			C110.652,85.258,105.68,85.258,105.68,88.463L105.68,88.463z"/>
	</g>
	<g>
		<path d="M107.292,88.972c11.09,2.577,22.725,2.525,34.056,2.677c13.75,0.185,27.458-0.801,40.878-3.875
			c3.125-0.715,1.801-5.51-1.32-4.794c-12.018,2.751-24.139,3.62-36.435,3.708c-11.808,0.085-24.307,0.173-35.859-2.51
			C105.494,83.452,104.168,88.245,107.292,88.972L107.292,88.972z"/>
	</g>
	<g>
		<path d="M124.485,46.92c-4.66,13.538-12.345,25.629-18.678,38.398c-1.419,2.864,2.868,5.382,4.292,2.511
			c6.529-13.163,14.378-25.632,19.181-39.588C130.327,45.201,125.523,43.907,124.485,46.92L124.485,46.92z"/>
	</g>
	<g>
		<path d="M159.128,46.764c6.737,13.104,13.474,26.208,20.21,39.312c1.467,2.854,5.756,0.336,4.292-2.509
			c-6.737-13.104-13.473-26.208-20.21-39.312C161.955,41.4,157.665,43.918,159.128,46.764L159.128,46.764z"/>
	</g>
	<g>
		<path d="M126.4,47.167c-1.285-0.256-2.57-0.51-3.855-0.766c0.168,1.303,0.336,2.604,0.503,3.905
			c6.155-4.953,18.208-5.455,25.591-5.626c2.325-0.053,4.655,0.018,6.979,0.11c2.922,0.115,6.695,1.962,9.455,1.687
			c-3.159,0.316-3.189,5.292,0,4.973c2.395-0.24,7.035-1.033,6.029-4.683c-1.263-4.592-6.662-5.783-10.688-6.476
			c-11.97-2.059-31.115-1.36-40.881,6.5c-1.282,1.029-0.756,3.146,0.503,3.904c2.143,1.287,3.875,1.641,6.364,1.444
			C129.574,51.889,129.599,46.914,126.4,47.167L126.4,47.167z"/>
	</g>
	<g>
		<path d="M118.176,26.022c-3.598,8.065-3.663,18.737,2.185,25.663c2.072,2.454,5.57-1.081,3.516-3.516
			c-4.184-4.956-3.97-13.895-1.408-19.639C123.763,25.629,119.479,23.098,118.176,26.022L118.176,26.022z"/>
	</g>
	<g>
		<path d="M166.984,26.901c1.953,6.649,1.576,12.909-0.993,19.328c-1.193,2.979,3.616,4.261,4.794,1.322
			c2.878-7.19,3.174-14.55,0.994-21.971C170.878,22.51,166.079,23.818,166.984,26.901L166.984,26.901z"/>
	</g>
	<g>
		<path d="M122.08,29.035c6.814-6.948,16.648-7.828,25.884-7.242c5.802,0.366,15.446,1.585,19.661,6.206
			c2.164,2.374,5.671-1.153,3.516-3.516c-5.332-5.847-15.834-6.967-23.177-7.663c-10.423-0.99-21.843,0.994-29.399,8.699
			C116.317,27.808,119.832,31.327,122.08,29.035L122.08,29.035z"/>
	</g>
	<g>
		<path d="M118.286,203.126c6.08-4.931,16.758-5.351,24.244-5.892c9.955-0.719,20.546,0.382,29.402,5.215
			c2.814,1.535,5.323-2.758,2.51-4.295c-9.789-5.342-20.933-6.369-31.912-5.891c-9.092,0.395-20.485,1.446-27.76,7.346
			C112.279,201.63,115.819,205.126,118.286,203.126L118.286,203.126z"/>
	</g>
	<g>
		<path d="M117.284,192.333c0-32.319,0-64.642,0-96.961c0-1.07-1.657-1.07-1.657,0c0,32.319,0,64.642,0,96.961
			C115.627,193.4,117.284,193.4,117.284,192.333L117.284,192.333z"/>
	</g>
	<g>
		<path d="M173.361,190.396c0-32.043,0-64.086,0-96.132c0-1.068-1.657-1.068-1.657,0c0,32.044,0,64.089,0,96.132
			C171.704,191.467,173.361,191.467,173.361,190.396L173.361,190.396z"/>
	</g>
	<g>
		<path d="M131.445,41.492c-1.376-2.234-2.583-6.575-1.381-9.092c1.376-2.878-2.91-5.401-4.292-2.51
			c-2.012,4.208-1.015,10.226,1.381,14.113C128.831,46.726,133.134,44.23,131.445,41.492L131.445,41.492z"/>
	</g>
	<g>
		<path d="M135.239,30.04c0,1.887,0,3.776,0,5.664c0,3.205,4.972,3.205,4.972,0c0-1.887,0-3.776,0-5.664
			C140.211,26.833,135.239,26.833,135.239,30.04L135.239,30.04z"/>
	</g>
	<g>
		<path d="M149.141,28.076c0.688,3.775,0.418,7.561,0.047,11.356c-0.312,3.19,4.664,3.16,4.974,0
			c0.419-4.279,0.548-8.43-0.228-12.678C153.359,23.603,148.566,24.943,149.141,28.076L149.141,28.076z"/>
	</g>
	<g>
		<path d="M159.335,30.743c0.994,1.327,0.784,3.494,0.44,4.851c-0.787,3.111,4.009,4.43,4.793,1.324
			c0.681-2.693,0.805-6.356-0.941-8.686c-0.811-1.082-2.13-1.635-3.4-0.892C159.158,27.966,158.52,29.654,159.335,30.743
			L159.335,30.743z"/>
	</g>
</g>
</svg>
