<?xml version="1.0" encoding="utf-8"?>
<!-- Generator: Adobe Illustrator 15.1.0, SVG Export Plug-In . SVG Version: 6.00 Build 0)  -->
<!DOCTYPE svg PUBLIC "-//W3C//DTD SVG 1.1//EN" "http://www.w3.org/Graphics/SVG/1.1/DTD/svg11.dtd">
<svg version="1.1" id="Layer_1" xmlns="http://www.w3.org/2000/svg" xmlns:xlink="http://www.w3.org/1999/xlink" x="0px" y="0px"
	 width="290px" height="233px" viewBox="0 0 290 233" enable-background="new 0 0 290 233" xml:space="preserve">
<g>
	<g>
		<path d="M153.193,39.472c0,13.606,0,27.213,0,40.821c0,2.52,3.91,2.52,3.91,0c0-13.607,0-27.214,0-40.821
			C157.104,36.951,153.193,36.951,153.193,39.472L153.193,39.472z"/>
	</g>
	<g>
		<path d="M137.557,39.472c0,13.833,0,27.663,0,41.496c0,2.521,3.909,2.521,3.909,0c0-13.833,0-27.663,0-41.496
			C141.466,36.951,137.557,36.951,137.557,39.472L137.557,39.472z"/>
	</g>
	<g>
		<path d="M133.027,38.085c6.999,6.151,20.993,5.828,28.146,0.244c1.985-1.55-0.802-4.296-2.764-2.764
			c-5.351,4.177-17.387,4.352-22.619-0.244C133.906,33.664,131.129,36.417,133.027,38.085L133.027,38.085z"/>
	</g>
	<g>
		<path d="M133.027,29.018c7.258,6.146,20.774,5.864,28.146,0c1.974-1.569-0.813-4.315-2.764-2.764
			c-5.567,4.428-17.167,4.615-22.619,0C133.879,24.636,131.1,27.388,133.027,29.018L133.027,29.018z"/>
	</g>
	<g>
		<path d="M136.317,28.563c6.878-3.138,15.59-3.789,22.135,0.489c2.118,1.383,4.073-2.003,1.973-3.376
			c-7.764-5.074-17.968-4.189-26.08-0.489C132.055,26.232,134.042,29.602,136.317,28.563L136.317,28.563z"/>
	</g>
	<g>
		<path d="M157.836,28.342c0,2.588,0,5.175,0,7.764c0,2.521,3.909,2.521,3.909,0c0-2.588,0-5.175,0-7.764
			C161.746,25.82,157.836,25.82,157.836,28.342L157.836,28.342z"/>
	</g>
	<g>
		<path d="M132.454,27.365c0,3.113,0,6.225,0,9.338c0,2.521,3.909,2.521,3.909,0c0-3.113,0-6.225,0-9.338
			C136.363,24.843,132.454,24.843,132.454,27.365L132.454,27.365z"/>
	</g>
	<g>
		<path d="M125.015,203.676c0-35.84,0-71.68,0-107.52c0-2.521-3.909-2.521-3.909,0c0,35.84,0,71.68,0,107.52
			C121.105,206.199,125.015,206.199,125.015,203.676L125.015,203.676z"/>
	</g>
	<g>
		<path d="M172.578,204.809c0.064-20.525,0.994-40.99,0.775-61.527c-0.162-15.223-0.443-30.49-0.033-45.71
			c0.066-2.522-3.842-2.516-3.909,0c-0.397,14.732-0.117,29.508,0.019,44.244c0.193,21.022-0.693,41.979-0.761,62.994
			C168.661,207.331,172.57,207.329,172.578,204.809L172.578,204.809z"/>
	</g>
	<g>
		<path d="M122.066,205.369c13.919,8.458,34.417,6.943,49.077,1.324c2.33-0.891,1.319-4.672-1.039-3.77
			c-13.676,5.239-33.024,6.994-46.065-0.933C121.879,200.68,119.916,204.061,122.066,205.369L122.066,205.369z"/>
	</g>
	<g>
		<path d="M122.241,96.491c3.912,6.644,13.031,7.81,20.008,8.239c8.062,0.495,18.298-0.415,24.761-5.776
			c1.942-1.611-0.839-4.359-2.764-2.764c-4.982,4.133-12.893,4.581-19.049,4.693c-6.061,0.109-16.09-0.435-19.582-6.364
			C124.338,92.349,120.958,94.313,122.241,96.491L122.241,96.491z"/>
	</g>
	<g>
		<path d="M154.654,82.097c8.306,2.172,13.408,8.185,14.599,16.65c0.351,2.487,4.117,1.425,3.769-1.041
			c-1.371-9.752-7.824-16.893-17.328-19.378C153.252,77.689,152.217,81.459,154.654,82.097L154.654,82.097z"/>
	</g>
	<g>
		<path d="M125.434,95.861c1.928-6.546,8.905-11.085,15.052-13.158c2.375-0.799,1.356-4.576-1.039-3.769
			c-7.481,2.522-15.449,7.958-17.783,15.889C120.95,97.246,124.723,98.274,125.434,95.861L125.434,95.861z"/>
	</g>
	<g>
		<path d="M127.075,200.531c5.954,3.972,12.053,4.486,19.054,4.629c7.045,0.145,14.299-0.495,20.695-3.652
			c0.755-0.371,0.093-1.494-0.656-1.125c-6.225,3.072-13.206,3.542-20.039,3.475c-6.716-0.068-12.69-0.646-18.397-4.453
			C127.03,198.939,126.379,200.066,127.075,200.531L127.075,200.531z"/>
	</g>
	<g>
		<path d="M125.667,103.758c0,30.912,0,61.823,0,92.736c0,0.84,1.303,0.84,1.303,0c0-30.913,0-61.824,0-92.736
			C126.969,102.917,125.667,102.917,125.667,103.758L125.667,103.758z"/>
	</g>
	<g>
		<path d="M167.799,196.061c0-31.347,0-62.693,0-94.041c0-0.84-1.303-0.84-1.303,0c0,31.347,0,62.693,0,94.041
			C166.496,196.9,167.799,196.9,167.799,196.061L167.799,196.061z"/>
	</g>
</g>
</svg>
