<?xml version="1.0" encoding="utf-8"?>
<!-- Generator: Adobe Illustrator 15.1.0, SVG Export Plug-In . SVG Version: 6.00 Build 0)  -->
<!DOCTYPE svg PUBLIC "-//W3C//DTD SVG 1.1//EN" "http://www.w3.org/Graphics/SVG/1.1/DTD/svg11.dtd">
<svg version="1.1" id="Layer_1" xmlns="http://www.w3.org/2000/svg" xmlns:xlink="http://www.w3.org/1999/xlink" x="0px" y="0px"
	 width="290px" height="233px" viewBox="0 0 290 233" enable-background="new 0 0 290 233" xml:space="preserve">
<g>
	<path d="M119.374,181.046c39.856-4.188,79.712-8.376,119.569-12.564c2.392-0.252,2.416-4.023,0-3.77
		c-39.857,4.188-79.712,8.376-119.569,12.564C116.982,177.529,116.958,181.3,119.374,181.046L119.374,181.046z"/>
</g>
<g>
	<path d="M238.628,118.854c-0.174,15.915-0.35,31.829-0.524,47.744c-0.027,2.432,3.742,2.429,3.769,0
		c0.174-15.915,0.35-31.829,0.524-47.744C242.424,116.422,238.655,116.424,238.628,118.854L238.628,118.854z"/>
</g>
<g>
	<path d="M120.421,91.213c-0.978,29.316-1.955,58.633-2.933,87.949c-0.081,2.432,3.688,2.424,3.77,0
		c0.978-29.316,1.954-58.633,2.932-87.949C124.271,88.781,120.502,88.789,120.421,91.213L120.421,91.213z"/>
</g>
<g>
	<path d="M121.307,91.326c3.978,5.886,6.419,12.597,10.251,18.58c3.388,5.287,7.733,9.899,12.427,14.037
		c1.816,1.601,4.492-1.056,2.665-2.665c-5.067-4.469-9.349-9.393-13-15.092c-3.443-5.373-5.503-11.458-9.088-16.762
		C123.209,87.423,119.941,89.306,121.307,91.326L121.307,91.326z"/>
</g>
<g>
	<path d="M145.317,124.494c16.862,0.263,33.839-0.925,50.675-1.682c22.554-1.012,45.141-2.071,67.636-4.038
		c2.402-0.21,2.422-3.982,0-3.77c-22.497,1.967-45.083,3.015-67.636,4.038c-16.835,0.764-33.814,1.945-50.675,1.682
		C142.886,120.687,142.89,124.456,145.317,124.494L145.317,124.494z"/>
</g>
<g>
	<path d="M233.004,83.54c9.381,11.731,18.571,24.138,29.294,34.685c1.733,1.706,4.4-0.958,2.665-2.665
		c-10.722-10.547-19.911-22.954-29.293-34.685C234.151,78.977,231.502,81.661,233.004,83.54L233.004,83.54z"/>
</g>
<g>
	<path d="M123.354,92.261c36.995-2.723,73.989-5.447,110.983-8.169c2.409-0.178,2.426-3.949,0-3.77
		c-36.994,2.723-73.988,5.447-110.983,8.169C120.945,88.669,120.928,92.44,123.354,92.261L123.354,92.261z"/>
</g>
<g>
	<path d="M60.417,156.038c18.901,8.351,38.005,16.27,57.015,24.373c2.21,0.942,4.132-2.304,1.902-3.254
		c-19.009-8.103-38.112-16.021-57.015-24.373C60.117,151.812,58.197,155.058,60.417,156.038L60.417,156.038z"/>
</g>
<g>
	<path d="M61.266,98.751c-0.122,18.557-1.818,37.108-2.304,55.66c-0.064,2.432,3.706,2.426,3.769,0
		c0.486-18.551,2.183-37.103,2.304-55.66C65.051,96.319,61.282,96.322,61.266,98.751L61.266,98.751z"/>
</g>
<g>
	<path d="M121.602,88.206c-9.336,8.66-19.693,16.021-30.041,23.403c-1.96,1.397-0.081,4.668,1.902,3.254
		c10.609-7.567,21.234-15.114,30.804-23.992C126.052,89.214,123.381,86.555,121.602,88.206L121.602,88.206z"/>
</g>
<g>
	<path d="M65.063,63.392c-2.749,3.199-5.212,6.58-8.167,9.601c-3.301,3.374-7.285,6-11.315,8.407
		c-2.085,1.244-0.19,4.504,1.901,3.254c3.572-2.132,6.958-4.468,10.122-7.171c3.909-3.34,6.797-7.555,10.124-11.425
		C69.304,64.223,66.649,61.545,65.063,63.392L65.063,63.392z"/>
</g>
<g>
	<path d="M45.341,84.936c6.975,5.204,13.295,10.978,20.587,15.792c8.147,5.379,16.854,9.891,25.631,14.133
		c2.178,1.053,4.09-2.196,1.901-3.254c-8.127-3.929-16.075-8.151-23.742-12.923c-8.057-5.016-14.91-11.359-22.477-17.002
		C45.292,80.227,43.417,83.501,45.341,84.936L45.341,84.936z"/>
</g>
<g>
	<path d="M66.073,66.876c17.818,9.51,36.955,18.724,56.361,24.479c2.336,0.693,3.326-2.944,1.001-3.634
		c-19.11-5.668-37.903-14.729-55.46-24.099C65.831,62.478,63.928,65.731,66.073,66.876L66.073,66.876z"/>
</g>
<g>
	<path d="M66.815,66.608c40.763-1.291,81.525-2.582,122.289-3.872c2.424-0.077,2.432-3.847,0-3.77
		c-40.764,1.291-81.526,2.582-122.289,3.873C64.391,62.917,64.383,66.686,66.815,66.608L66.815,66.608z"/>
</g>
<g>
	<path d="M188.153,62.479c14.627,8.22,29.841,15.961,45.683,21.545c2.298,0.81,3.277-2.832,1.001-3.634
		c-15.526-5.473-30.442-13.109-44.782-21.165C187.934,58.032,186.035,61.289,188.153,62.479L188.153,62.479z"/>
</g>
<g>
	<path d="M187.011,60.432c-0.014,8.167-0.196,16.332-0.21,24.499c-0.003,2.431,3.766,2.431,3.769,0
		c0.014-8.167,0.197-16.332,0.21-24.499C190.784,58.001,187.015,58.001,187.011,60.432L187.011,60.432z"/>
</g>
<g>
	<path d="M232.549,83.313c7.851,4.684,16.787,5.574,25.765,5.364c2.427-0.056,2.432-3.826,0-3.769
		c-8.32,0.195-16.569-0.5-23.863-4.849C232.357,78.812,230.464,82.071,232.549,83.313L232.549,83.313z"/>
</g>
<g>
	<path d="M247.233,99.209c2.485-0.52,4.766-2.891,6.567-4.524c2.213-2.006,4.683-4.294,6.141-6.941
		c1.174-2.13-2.081-4.03-3.254-1.902c-1.143,2.074-3.052,3.796-4.741,5.419c-1.474,1.418-3.613,3.874-5.714,4.313
		C243.853,96.072,244.862,99.705,247.233,99.209L247.233,99.209z"/>
</g>
<g>
	<path d="M50.32,88.691c-1.477,3.464-4.106,6.024-6.406,8.938c-0.67,0.848-0.841,2.422,0.381,2.959
		c2.703,1.19,5.601,1.847,8.357,2.923c3.323,1.298,6.484,2.711,9.997,3.445c2.372,0.496,3.38-3.137,1.001-3.634
		c-2.73-0.57-5.276-1.492-7.847-2.558c-3.136-1.301-6.519-2.07-9.607-3.43c0.127,0.987,0.255,1.973,0.382,2.959
		c2.496-3.161,5.394-5.943,6.995-9.7C54.516,88.385,51.271,86.461,50.32,88.691L50.32,88.691z"/>
</g>
</svg>
