<?xml version="1.0" encoding="utf-8"?>
<!-- Generator: Adobe Illustrator 15.1.0, SVG Export Plug-In . SVG Version: 6.00 Build 0)  -->
<!DOCTYPE svg PUBLIC "-//W3C//DTD SVG 1.1//EN" "http://www.w3.org/Graphics/SVG/1.1/DTD/svg11.dtd">
<svg version="1.1" id="Layer_1" xmlns="http://www.w3.org/2000/svg" xmlns:xlink="http://www.w3.org/1999/xlink" x="0px" y="0px"
	 width="290px" height="233px" viewBox="0 0 290 233" enable-background="new 0 0 290 233" xml:space="preserve">
<g>
	<path d="M152.557,98.154c-0.014,29.333-0.465,58.665-0.479,87.998c-0.001,2.519,3.904,2.519,3.906,0
		c0.014-29.333,0.465-58.665,0.479-87.998C156.463,95.635,152.558,95.635,152.557,98.154L152.557,98.154z"/>
</g>
<g>
	<path d="M46.299,71.063c0,27.526,0,55.054,0,82.581c0,2.519,3.906,2.519,3.906,0c0-27.526,0-55.054,0-82.581
		C50.205,68.545,46.299,68.545,46.299,71.063L46.299,71.063z"/>
</g>
<g>
	<path d="M249.393,67.852c0,28.597,0,57.195,0,85.792c0,2.519,3.906,2.519,3.906,0c0-28.597,0-57.195,0-85.792
		C253.299,65.333,249.393,65.333,249.393,67.852L249.393,67.852z"/>
</g>
<g>
	<path d="M154.549,98.758c32.416-9.747,64.714-19.906,97.316-29.023c2.422-0.678,1.392-4.446-1.038-3.766
		c-32.603,9.117-64.9,19.275-97.316,29.023C151.106,95.715,152.13,99.485,154.549,98.758L154.549,98.758z"/>
</g>
<g>
	<path d="M154.549,188.035c32.439-10.836,64.877-21.672,97.314-32.508c2.376-0.793,1.358-4.566-1.037-3.766
		c-32.439,10.836-64.877,21.672-97.315,32.508C151.135,185.062,152.153,188.836,154.549,188.035L154.549,188.035z"/>
</g>
<g>
	<path d="M47.731,72.948c17.306,2.873,34.386,8.143,51.406,12.365c18.121,4.497,36.237,9.014,54.374,13.445
		c2.446,0.598,3.483-3.168,1.038-3.766c-18.138-4.431-36.253-8.946-54.374-13.445c-17.019-4.225-34.1-9.493-51.406-12.365
		C46.307,68.772,45.251,72.536,47.731,72.948L47.731,72.948z"/>
</g>
<g>
	<path d="M47.733,155.527c35.419,10.836,70.838,21.672,106.258,32.508c2.414,0.739,3.439-3.031,1.037-3.766
		c-35.419-10.836-70.838-21.672-106.257-32.508C46.356,151.022,45.332,154.792,47.733,155.527L47.733,155.527z"/>
</g>
<g>
	<path d="M49.855,72.946c37.347-8.312,75.568-13.606,113.217-20.388c2.477-0.446,1.424-4.209-1.037-3.766
		c-37.65,6.782-75.871,12.076-113.217,20.388C46.358,69.727,47.401,73.493,49.855,72.946L49.855,72.946z"/>
</g>
<g>
	<path d="M162.035,52.559c29.516,6.118,59.299,10.907,88.792,17.176c2.457,0.522,3.501-3.242,1.038-3.766
		c-29.492-6.269-59.275-11.06-88.793-17.176C160.614,48.283,159.568,52.047,162.035,52.559L162.035,52.559z"/>
</g>
<g>
	<path d="M104.101,86.367c33.952-8.343,67.904-16.686,101.855-25.028c2.446-0.6,1.409-4.367-1.038-3.766
		c-33.952,8.343-67.904,16.686-101.855,25.028C100.617,83.201,101.654,86.968,104.101,86.367L104.101,86.367z"/>
</g>
</svg>
