<?xml version="1.0" encoding="utf-8"?>
<!-- Generator: Adobe Illustrator 15.1.0, SVG Export Plug-In . SVG Version: 6.00 Build 0)  -->
<!DOCTYPE svg PUBLIC "-//W3C//DTD SVG 1.1//EN" "http://www.w3.org/Graphics/SVG/1.1/DTD/svg11.dtd">
<svg version="1.1" id="Layer_1" xmlns="http://www.w3.org/2000/svg" xmlns:xlink="http://www.w3.org/1999/xlink" x="0px" y="0px"
	 width="290px" height="233px" viewBox="0 0 290 233" enable-background="new 0 0 290 233" xml:space="preserve">
<g>
	<g>
		<g>
			<path d="M188.16,111.059c11.977-20.154,14.703-44.744,0.344-64.468c-10.357-14.228-28.111-20.257-45.194-19.393
				c-16.838,0.854-33.362,8.805-43.462,22.428c-5.117,6.904-7.614,15.352-8.041,23.856c-0.692,13.784,6.205,25.972,11.802,38.055
				c1.088,2.353,4.557,0.308,3.474-2.031c-5.19-11.207-11.127-21.955-11.277-34.63c-0.094-7.958,2.479-15.591,6.807-22.199
				c8.507-12.99,24.387-19.96,39.403-21.36c15.539-1.45,31.25,3.766,41.643,15.606c15.635,17.808,12.307,43.127,1.028,62.106
				C183.355,111.264,186.835,113.287,188.16,111.059L188.16,111.059z"/>
		</g>
		<g>
			<path d="M100.568,105.218c5.086,10.597,10.751,20.891,13.168,32.502c1.66,7.971,1.463,14.766,6.663,21.486
				c4.091,5.287,10.979,7.796,17.454,7.707c2.592-0.035,2.596-4.061,0-4.023c-20.678,0.282-18.354-23.14-23.286-37.102
				c-2.751-7.788-6.955-15.167-10.524-22.601C102.919,100.849,99.45,102.891,100.568,105.218L100.568,105.218z"/>
		</g>
		<g>
			<path d="M188.303,102.071c-3.529,6.769-7.263,13.468-10.232,20.505c-5.953,14.117-2.557,39.492-24.098,39.197
				c-2.597-0.035-2.593,3.988,0,4.023c15.139,0.207,21.95-11.869,23.526-25.259c1.569-13.328,8.194-24.764,14.276-36.437
				C192.975,101.803,189.502,99.768,188.303,102.071L188.303,102.071z"/>
		</g>
	</g>
	<g>
		<path d="M122.366,160.924c-6.878,14.325,17.072,13.146,24.64,13.549c5.799,0.309,15.547,0.678,20.375-3.351
			c3.73-3.11,5.946-7.877,2.076-11.724c-1.842-1.832-4.688,1.015-2.846,2.846c5.386,5.354-8.719,7.809-10.487,8.033
			c-3.763,0.48-7.629,0.25-11.402,0.051c-3.716-0.198-22.694,0.566-18.882-7.374C126.958,160.627,123.488,158.584,122.366,160.924
			L122.366,160.924z"/>
	</g>
	<g>
		<path d="M124.764,169.258c-3.329,2.254-2.742,5.114-0.162,7.87c3.803,4.062,12.812,3.006,17.721,3.229
			c5.752,0.26,32.605,2.273,26.553-10.267c-1.128-2.337-4.597-0.295-3.474,2.03c2.162,4.48-16.283,4.385-18.16,4.352
			c-3.285-0.06-6.563-0.186-9.838-0.447c-1.27-0.072-2.54-0.129-3.811-0.17c0.774,0.031-9.291-1.437-6.799-3.123
			C128.932,171.287,126.919,167.799,124.764,169.258L124.764,169.258z"/>
	</g>
	<g>
		<path d="M125.921,177.286c-6.966,7.751,11.461,9.63,15.277,9.95c7.742,0.648,29.111,2.32,27.842-9.981
			c-0.265-2.555-4.291-2.581-4.024,0c0.744,7.218-14.82,6.168-19.412,6.144c-3.457-0.02-6.898-0.348-10.312-0.867
			c-0.448-0.068-7.171-1.68-6.525-2.399C130.496,178.207,127.66,175.352,125.921,177.286L125.921,177.286z"/>
	</g>
	<g>
		<path d="M126.166,182.725c-6.127,11.924,13.875,11.541,20.699,11.471c4.99-0.051,29.185-0.969,21.451-12.143
			c-1.465-2.117-4.955-0.109-3.474,2.03c3.183,4.603-8.181,5.431-9.592,5.542c-2.797,0.223-5.581,0.443-8.386,0.546
			c-2.45,0.089-20.171,0.319-17.225-5.417C130.824,182.451,127.352,180.414,126.166,182.725L126.166,182.725z"/>
	</g>
	<g>
		<path d="M127.752,191.428c1.907,6.268,9.358,9.01,15.374,9.532c9.39,0.815,18.71-2.086,24.075-10.17
			c1.439-2.169-2.047-4.183-3.475-2.031c-4.426,6.671-11.803,8.452-19.39,8.282c-4.358-0.098-11.3-2.07-12.704-6.682
			C130.879,187.882,126.994,188.938,127.752,191.428L127.752,191.428z"/>
	</g>
	<g>
		<path d="M138.016,201.188c3.856,7.25,16.812,5.66,19.55-1.711c0.652-1.756-1.523-3.045-2.955-2.271
			c-3.877,2.093-7.065,1.975-11.083,0.355c-2.408-0.971-3.444,2.924-1.069,3.881c5.011,2.02,9.429,1.804,14.183-0.762
			c-0.985-0.758-1.971-1.516-2.955-2.271c-1.588,4.271-10.105,4.679-12.198,0.749C140.272,196.863,136.798,198.896,138.016,201.188
			L138.016,201.188z"/>
	</g>
	<g>
		<path d="M156.52,157.372c3.226,0.95,6.317,2.282,9.472,3.435c2.442,0.895,3.485-2.996,1.069-3.879
			c-3.154-1.154-6.246-2.486-9.472-3.436C155.093,152.756,154.036,156.641,156.52,157.372L156.52,157.372z"/>
	</g>
	<g>
		<path d="M126.962,161.441c3.219-1.83,6.641-3.021,10.238-3.852c2.528-0.584,1.457-4.464-1.069-3.88
			c-3.923,0.907-7.693,2.265-11.199,4.257C122.676,159.249,124.703,162.727,126.962,161.441L126.962,161.441z"/>
	</g>
	<g>
		<path d="M143.689,166.339c1.792,0.304,4.027,0.565,5.764-0.11c1.021-0.397,1.719-1.334,1.406-2.476
			c-0.27-0.976-1.452-1.804-2.476-1.405c-0.647,0.252-0.999,0.229-1.729,0.236c-0.354,0.002-0.709-0.016-1.064-0.037
			c-0.414-0.025-0.66-0.059-0.832-0.088c-1.08-0.184-2.162,0.27-2.475,1.404C142.016,164.84,142.606,166.156,143.689,166.339
			L143.689,166.339z"/>
	</g>
	<g>
		<path d="M138.827,121.967c-2.376,11.79-1.569,24.827-0.47,36.73c0.079,0.855,1.421,0.863,1.341,0
			c-0.532-5.764-0.768-11.537-0.784-17.326c-0.017-6.348-0.052-12.805,1.207-19.049
			C140.292,121.479,138.999,121.119,138.827,121.967L138.827,121.967z"/>
	</g>
	<g>
		<path d="M152.303,122.771c2.334,11.684,3.387,23.576,2.659,35.48c-0.052,0.864,1.289,0.859,1.341,0
			c0.734-12.021-0.351-24.041-2.705-35.837C153.428,121.566,152.134,121.926,152.303,122.771L152.303,122.771z"/>
	</g>
	<g>
		<path d="M138.279,158.45c1.778,2.325,4.89,2.153,7.577,2.305c3.709,0.211,7.522-0.171,10.779-2.063
			c0.748-0.435,0.073-1.594-0.676-1.158c-2.527,1.468-5.232,1.84-8.113,1.919c-2.36,0.063-6.855,0.351-8.408-1.679
			C138.92,157.096,137.754,157.764,138.279,158.45L138.279,158.45z"/>
	</g>
	<g>
		<path d="M144.671,159.705c-0.194-4.704-0.519-9.4-0.581-14.107c-0.052-3.923-0.344-8.979,1.797-12.449
			c1.742-2.819,3.61,0.807,4.023,2.431c0.623,2.446,0.57,5.11,0.572,7.618c0,5.419-0.033,10.757,0.336,16.174
			c0.033,0.473,0.558,0.88,1.01,0.579c0.025-0.017,0.05-0.033,0.074-0.05c0.264-0.176,0.375-0.446,0.31-0.758
			c-0.017-0.147-0.034-0.295-0.051-0.442c0.001-0.865-1.341-0.865-1.341,0c-0.002,0.6-0.102,0.38,0.332,0.092
			c0.336,0.192,0.673,0.386,1.009,0.579c-0.479-7.021,0.034-14.064-0.501-21.064c-0.211-2.734-1.059-8.283-5.021-7.357
			c-3.478,0.812-3.611,7.041-3.788,9.678c-0.424,6.344,0.219,12.738,0.479,19.079C143.365,160.566,144.706,160.57,144.671,159.705
			L144.671,159.705z"/>
	</g>
	<g>
		<path d="M140.165,122.482c1.414-1.974,3.99-2.75,6.306-2.973c2.778-0.266,4.578,1.411,5.896,3.643
			c0.438,0.746,1.6,0.072,1.157-0.676c-1.627-2.762-3.726-4.406-7.053-4.309c-2.786,0.083-5.821,1.344-7.464,3.639
			C138.502,122.512,139.666,123.18,140.165,122.482L140.165,122.482z"/>
	</g>
	<g>
		<path d="M165.375,71.496c-6.956,19.3-12.475,38.783-11.63,59.502c0.034,0.861,1.377,0.865,1.341,0
			c-0.841-20.607,4.666-39.957,11.583-59.146C166.963,71.036,165.666,70.688,165.375,71.496L165.375,71.496z"/>
	</g>
	<g>
		<path d="M123.182,78.689c2.989,3.556,4.894,8.27,6.678,12.502c1.905,4.519,3.421,9.198,4.766,13.912
			c2.608,9.139,3.227,18.429,2.556,27.885c-0.062,0.863,1.281,0.859,1.341,0c0.715-10.075-0.169-19.709-2.938-29.417
			c-2.447-8.578-5.609-18.878-11.455-25.832C123.574,77.078,122.629,78.031,123.182,78.689L123.182,78.689z"/>
	</g>
	<g>
		<path d="M166.669,72.188c0.245-1.613,1.188-3.033,2.608-3.846c1.508-0.866,3.173,0.076,2.883,1.791
			c-0.199,1.175-0.938,2.278-1.766,3.104c-0.541,0.537-1.267,0.84-2.021,0.888c-1.622,0.104-1.167-1.519-0.601-2.363
			c0.485-0.719-0.678-1.39-1.157-0.676c-1.365,2.032-0.663,4.534,2.09,4.359c2.308-0.146,3.916-2.437,4.606-4.42
			c0.771-2.21-0.398-4.092-2.713-4.328c-2.67-0.272-4.873,2.82-5.226,5.135C165.247,72.677,166.54,73.04,166.669,72.188
			L166.669,72.188z"/>
	</g>
	<g>
		<path d="M124.079,78.035c-1.432-3.543-9.309-4.271-8.652,0.695c0.313,2.363,3.557,4.345,5.836,3.819
			c2.257-0.521,4.377-3.221,2.644-5.313c-0.553-0.667-1.496,0.289-0.948,0.949c0.689,0.832-0.011,1.7-0.605,2.299
			c-0.682,0.687-1.512,0.855-2.434,0.693c-1.569-0.277-3.579-1.678-3.11-3.486c0.626-2.416,5.292-0.992,5.976,0.701
			C123.104,79.183,124.403,78.838,124.079,78.035L124.079,78.035z"/>
	</g>
	<g>
		<path d="M122.203,78.52c3.584,4.101,9.261,0.784,10.779-3.509c0.553-1.562,0.75-4.192,0.01-5.727
			c-0.525-1.087-2.057-2.304-3.246-1.158c-3.454,3.328,0.6,8.508,4.41,8.823c4.747,0.391,7.05-7.566,5.282-10.894
			c-0.172-0.324-0.612-0.419-0.917-0.241c-3.479,2.028-2.488,9.943,1.337,11.203c5.55,1.829,8.875-4.684,9.061-9.283
			c0.054-1.268-0.79-3.634-2.504-3.162c-2.244,0.617-2.831,3.61-2.798,5.568c0.084,4.972,5.183,8.258,9.352,5.197
			c2.655-1.949,5.711-8.845,3.01-11.793c-2.771-3.025-4.612,7.223-4.67,8.388c-0.093,1.859,0.862,4.545,3.021,4.819
			c2.635,0.333,4.745-1.565,6.021-3.716c1.07-1.804,2.016-3.975,1.678-6.1c-0.229-1.459-1.932-1.805-3.036-1.277
			c-2.901,1.386-3.705,8.512-1.033,10.398c4.124,2.912,8.812-3.185,10.317-6.475c0.359-0.78-0.799-1.462-1.157-0.676
			c-1.05,2.29-2.728,4.337-4.784,5.793c-4.533,3.209-4.812-2.811-3.998-5.57c0.159-0.521,0.375-1.018,0.646-1.49
			c0.925-1.757,1.808,0.723,1.525,1.775c-0.396,1.479-1.22,3.001-2.193,4.184c-2.629,3.201-5.801,1.043-5.625-2.544
			c0.065-1.331,0.479-2.753,0.863-4.024c0.178-0.582,0.412-1.14,0.701-1.677c0.938-1.853,1.191,1.995,1.2,1.833
			c-0.08,1.637-0.581,3.11-1.31,4.572c-2.604,5.219-8.557,3.93-9.188-1.617c-0.047-0.635,0.004-1.265,0.153-1.889
			c0.351-1.82,2.505-1.435,2.438,0.177c-0.086,2.134-1.115,4.269-2.46,5.878c-1.913,2.286-5.058,2.177-6.609-0.457
			c-0.908-1.542-1.135-5.798,0.716-6.877c-0.305-0.08-0.612-0.16-0.917-0.241c1.247,2.348-0.06,5.702-1.586,7.565
			c-1.861,2.273-4.827,1.197-6.184-0.919c-0.17-0.616-0.341-1.231-0.511-1.847c-0.23-1.05,0.416-1.428,1.937-1.133
			c1.319,4.667-4.488,12.088-8.782,7.176C122.582,76.919,121.636,77.871,122.203,78.52L122.203,78.52z"/>
	</g>
	<g>
		<path d="M136.121,90.65c-2.647,2.838-0.603,5.673,2.862,5.94c4.555,0.353,10.524-0.056,14.382-2.802
			c3.201-2.278,0.059-4.939-2.616-5.35c-2.438-0.376-5.063,0.194-7.514,0.308c-2.576,0.12-5.438,0.274-7.366,2.155
			c-0.62,0.605,0.329,1.552,0.948,0.948c2.271-2.216,6.22-1.677,9.131-1.934c0.925-0.081,1.844-0.158,2.772-0.207
			c1.856-0.098,6.467,1.143,3.416,3.313c-1.525,1.086-3.402,1.4-5.197,1.707c-1.638,0.279-3.279,0.472-4.936,0.584
			c-1.044,0.071-8.388-0.013-4.936-3.715C137.659,90.967,136.711,90.016,136.121,90.65L136.121,90.65z"/>
	</g>
	<g>
		<path d="M140.787,96.49c-0.504,4.073,0.05,8.315,0.032,12.418c-0.017,3.82-0.115,7.639-0.115,11.457c0,0.865,1.341,0.865,1.341,0
			c0-0.022,0-0.043,0-0.065c0-0.864-1.341-0.864-1.341,0c0,0.022,0,0.043,0,0.065c0,0.865,1.341,0.865,1.341,0
			c0-3.423,0.076-6.846,0.106-10.269c0.038-4.485-0.574-9.158-0.022-13.606C142.234,95.633,140.892,95.644,140.787,96.49
			L140.787,96.49z"/>
	</g>
	<g>
		<path d="M149.579,95.316c-0.011,8.55-0.085,17.039,1.198,25.516c0.131,0.854,1.422,0.49,1.295-0.355
			c-1.268-8.355-1.161-16.733-1.151-25.16C150.922,94.452,149.581,94.452,149.579,95.316L149.579,95.316z"/>
	</g>
	<g>
		<path d="M146.991,95.4c0.096,7.629,0.19,15.258,0.286,22.888c0.011,0.864,1.352,0.866,1.341,0
			c-0.097-7.629-0.19-15.259-0.286-22.888C148.322,94.536,146.98,94.534,146.991,95.4L146.991,95.4z"/>
	</g>
</g>
</svg>
