<?xml version="1.0" encoding="utf-8"?>
<!-- Generator: Adobe Illustrator 15.1.0, SVG Export Plug-In . SVG Version: 6.00 Build 0)  -->
<!DOCTYPE svg PUBLIC "-//W3C//DTD SVG 1.1//EN" "http://www.w3.org/Graphics/SVG/1.1/DTD/svg11.dtd">
<svg version="1.1" id="Layer_1" xmlns="http://www.w3.org/2000/svg" xmlns:xlink="http://www.w3.org/1999/xlink" x="0px" y="0px"
	 width="290px" height="233px" viewBox="0 0 290 233" enable-background="new 0 0 290 233" xml:space="preserve">
<g>
	<g>
		<path d="M92.398,70.856c0,37.514,0,75.027,0,112.541c0,3.451,5.352,3.451,5.352,0c0-37.514,0-75.027,0-112.541
			C97.75,67.405,92.398,67.405,92.398,70.856L92.398,70.856z"/>
	</g>
	<g>
		<path d="M186.056,183.397c0-38.545,0-77.09,0-115.634c0-3.451-5.352-3.451-5.352,0c0,38.544,0,77.089,0,115.634
			C180.704,186.848,186.056,186.848,186.056,183.397L186.056,183.397z"/>
	</g>
	<g>
		<path d="M92.764,184.747c6.187,13.892,26.536,17.428,39.728,19.055c19.028,2.349,41.557-0.799,53.198-17.646
			c1.969-2.847-2.672-5.519-4.62-2.7c-10.214,14.778-29.907,16.503-46.358,15.219c-11.953-0.934-31.805-4.228-37.327-16.628
			C95.983,178.898,91.372,181.624,92.764,184.747L92.764,184.747z"/>
	</g>
	<g>
		<path d="M173.218,55.958c0.829,5.686,5.117,10.449,8.968,14.421c2.406,2.48,6.187-1.307,3.784-3.784
			c-3.272-3.373-6.889-7.23-7.592-12.059C177.881,51.132,172.727,52.585,173.218,55.958L173.218,55.958z"/>
	</g>
	<g>
		<path d="M104.09,52.975c-2.552,6.396-5.78,11.836-10.908,16.501c-2.557,2.328,1.239,6.101,3.784,3.784
			c5.827-5.303,9.392-11.611,12.284-18.864C110.53,51.188,105.353,49.81,104.09,52.975L104.09,52.975z"/>
	</g>
	<g>
		<path d="M95.658,73.167c11.949,6.641,28.21,6.625,41.461,6.655c14.235,0.031,32.39-0.457,44.722-8.579
			c2.869-1.888,0.191-6.526-2.7-4.62c-11.111,7.317-27.005,7.547-39.827,7.826c-12.85,0.279-29.367,0.537-40.956-5.902
			C95.339,66.867,92.641,71.491,95.658,73.167L95.658,73.167z"/>
	</g>
	<g>
		<path d="M93.604,175.092c10.069,11.765,28.614,14.664,43.146,15.763c16.16,1.225,36.477-0.697,48.393-12.982
			c2.402-2.478-1.378-6.265-3.784-3.784c-10.583,10.911-28.206,12.045-42.487,11.533c-13.585-0.488-32.094-3.343-41.484-14.313
			C95.141,168.681,91.372,172.486,93.604,175.092L93.604,175.092z"/>
	</g>
	<g>
		<path d="M146.809,42.756c-8.157-0.537-16.362,0.476-24.419,1.706c-5.664,0.866-15.17,1.845-19.028,6.761
			c-0.681,0.868-0.74,2.197,0.361,2.801c6.388,3.509,14.294,3.253,21.364,4.117c11.779,1.441,24.292,2.185,36.088,0.533
			c3.573-0.5,16.115-0.862,17.493-5.875c1.49-5.413-10.742-7.23-13.318-7.845c-2.237-0.533-3.187,2.909-0.948,3.442
			c0.148,0.035,10.212,3.744,8.637,4.2c-2.273,0.659-4.617,1.159-6.923,1.681c-6.953,1.579-14.289,1.596-21.383,1.585
			c-6.566-0.01-13.125-0.592-19.646-1.291c-6.385-0.685-13.836-0.486-19.562-3.629c0.12,0.934,0.241,1.868,0.361,2.801
			c3.284-4.185,12.737-4.961,17.453-5.843c7.592-1.418,15.756-2.087,23.472-1.579C149.106,46.476,149.093,42.906,146.809,42.756
			L146.809,42.756z"/>
	</g>
	<g>
		<path d="M142.384,51.379c6.407-5.672,13.327-10.784,18.954-17.282c1.499-1.73-1.014-4.265-2.522-2.523
			c-5.627,6.499-12.547,11.608-18.955,17.282C138.135,50.385,140.667,52.898,142.384,51.379L142.384,51.379z"/>
	</g>
	<g>
		<path d="M157.95,53.451c4.42-4.103,10.167-6.719,14.725-10.712c1.733-1.519-0.8-4.031-2.523-2.522
			c-4.559,3.997-10.292,6.599-14.724,10.712C153.737,52.496,156.267,55.014,157.95,53.451L157.95,53.451z"/>
	</g>
	<g>
		<path d="M161.079,34.432c1.641-2.072,5.19-2.566,7.672-2.183c2.469,0.382,4.071,2.608,3.493,5.002
			c-0.498,2.066-2.653,3.71-4.334,4.787c-1.931,1.235-0.143,4.324,1.801,3.08c5.045-3.233,9.026-9.651,3.566-14.529
			c-3.683-3.289-11.658-2.547-14.721,1.32C157.143,33.693,159.65,36.235,161.079,34.432L161.079,34.432z"/>
	</g>
	<g>
		<path d="M135.102,52.014c8.869,1.174,16.805,2.843,25.867,2.341c2.288-0.127,2.3-3.695,0-3.568
			c-8.974,0.499-17.069-1.178-25.867-2.341C132.826,48.145,132.854,51.717,135.102,52.014L135.102,52.014z"/>
	</g>
	<g>
		<path d="M156.222,42.08c1.237,0.961,2.475,1.925,3.712,2.888c0.896,0.697,2.169-0.556,1.261-1.261
			c-1.237-0.963-2.476-1.927-3.712-2.888C156.587,40.12,155.314,41.373,156.222,42.08L156.222,42.08z"/>
	</g>
	<g>
		<path d="M157.748,41.463c0.789-1.157,2.089-2.059,3.218-2.847c1.225-0.854,3.148-2.202,4.735-1.882
			c1.516,0.307-1.263,3.389-1.617,3.763c-1.021,1.087-2.345,2.415-3.756,2.979c-1.054,0.422-0.596,2.148,0.474,1.721
			c2.621-1.049,9.258-6.383,6.429-9.588c-1.427-1.613-4.259-0.223-5.709,0.561c-1.929,1.042-4.061,2.558-5.313,4.394
			C155.556,41.516,157.103,42.408,157.748,41.463L157.748,41.463z"/>
	</g>
	<g>
		<path d="M151.603,45.695c1.026,0.838,2.169,1.503,3.23,2.294c-0.108-0.408-0.214-0.813-0.321-1.219
			c-0.472,0.892-2.047,1.968-3.094,1.742c-1.256-0.271,0.69-2.629,1.075-2.965c0.868-0.76-0.399-2.018-1.261-1.261
			c-1.601,1.399-2.974,4.216-0.801,5.73c1.723,1.2,4.808-0.807,5.622-2.347c0.248-0.467,0.082-0.92-0.32-1.22
			c-0.936-0.7-1.962-1.275-2.868-2.016C151.981,43.712,150.711,44.967,151.603,45.695L151.603,45.695z"/>
	</g>
</g>
</svg>
