<?xml version="1.0" encoding="utf-8"?>
<!-- Generator: Adobe Illustrator 15.1.0, SVG Export Plug-In . SVG Version: 6.00 Build 0)  -->
<!DOCTYPE svg PUBLIC "-//W3C//DTD SVG 1.1//EN" "http://www.w3.org/Graphics/SVG/1.1/DTD/svg11.dtd">
<svg version="1.1" id="Layer_1" xmlns="http://www.w3.org/2000/svg" xmlns:xlink="http://www.w3.org/1999/xlink" x="0px" y="0px"
	 width="290px" height="233px" viewBox="0 0 290 233" enable-background="new 0 0 290 233" xml:space="preserve">
<g>
	<path d="M98.633,65.499c0,41.377,0,82.755,0,124.133c0,3.687,5.72,3.687,5.72,0c0-41.377,0-82.755,0-124.133
		C104.353,61.812,98.633,61.812,98.633,65.499L98.633,65.499z"/>
</g>
<g>
	<path d="M198.727,189.631c0-42.515,0-85.03,0-127.543c0-3.69-5.721-3.69-5.721,0c0,42.513,0,85.028,0,127.543
		C193.006,193.318,198.727,193.318,198.727,189.631L198.727,189.631z"/>
</g>
<g>
	<path d="M99.024,191.074c6.511,15.086,28.177,19.152,42.458,20.972c20.523,2.614,44.575-1.08,56.854-19.417
		c2.059-3.076-2.896-5.936-4.938-2.888c-10.812,16.144-31.73,18.271-49.544,16.833c-12.984-1.047-34.048-4.846-39.892-18.387
		C102.504,184.811,97.578,187.725,99.024,191.074L99.024,191.074z"/>
</g>
<g>
	<path d="M185.005,49.043c0.877,6.215,5.438,11.452,9.585,15.865c2.531,2.694,6.567-1.359,4.044-4.044
		c-3.536-3.762-7.364-8.043-8.114-13.343C190.007,43.883,184.496,45.436,185.005,49.043L185.005,49.043z"/>
</g>
<g>
	<path d="M110.385,46.289c-2.614,6.818-5.529,12.69-10.914,17.754c-2.693,2.53,1.361,6.568,4.044,4.044
		c6.107-5.746,9.424-12.553,12.385-20.279C117.222,44.359,111.69,42.881,110.385,46.289L110.385,46.289z"/>
</g>
<g>
	<path d="M102.117,67.969c12.681,7.272,30.158,7.295,44.311,7.327c15.225,0.037,34.719-0.563,47.795-9.447
		c3.03-2.061,0.172-7.02-2.887-4.941c-11.79,8.014-28.854,8.339-42.562,8.646c-13.729,0.305-31.463,0.534-43.771-6.524
		C101.798,61.192,98.918,66.135,102.117,67.969L102.117,67.969z"/>
</g>
<g>
	<path d="M99.921,180.404c10.633,12.824,30.493,16.142,46.11,17.361c17.354,1.356,39.121-0.889,51.718-14.293
		c2.522-2.687-1.513-6.736-4.044-4.045c-11.219,11.938-30.021,13.318-45.407,12.748c-14.653-0.542-34.392-3.828-44.334-15.816
		C101.608,173.52,97.585,177.589,99.921,180.404L99.921,180.404z"/>
</g>
<g>
	<path d="M141.785,35.011c-9.281,0.943-25.567,1.148-31.733,9.263c-0.625,0.819-0.14,2.141,0.684,2.606
		c9.143,5.18,82.999,9.829,80.094-2.327c-1.602-6.703-13.372-7.511-18.631-8.178C162.241,35.116,151.826,34.268,141.785,35.011
		c-2.438,0.181-2.454,3.993,0,3.812c13.311-0.985,28.884-0.411,41.558,3.837c7.3,2.445-3.226,3.979-5.928,4.612
		c-7.419,1.74-15.271,1.763-22.854,1.75c-7.015-0.01-14.026-0.652-20.994-1.423c-6.83-0.757-14.818-0.562-20.907-4.012
		c0.227,0.872,0.456,1.739,0.684,2.61c4.718-6.208,21.992-6.717,28.441-7.375C144.207,38.577,144.231,34.763,141.785,35.011z"/>
</g>
<g>
	<path d="M146.622,49.548c4.606-2.437,9.214-4.872,13.823-7.308c2.174-1.15,0.246-4.442-1.926-3.292
		c-4.606,2.437-9.215,4.871-13.823,7.308C142.522,47.405,144.449,50.697,146.622,49.548L146.622,49.548z"/>
</g>
<g>
	<path d="M159.482,42.501c2.804,0.22,5.597,0.244,8.39,0.643c1.504,0.214,3.015,0.557,4.373,1.249
		c0.881,0.451-5.591,2.022-5.899,2.056c-6.387,0.696-13.884,1.389-20.179-0.003c-2.396-0.533-3.413,3.145-1.013,3.675
		c5.399,1.195,11.485,0.775,16.961,0.477c3.669-0.202,10.046,0.041,12.763-2.903c7.406-8.026-11.741-8.721-15.396-9.005
		C157.027,38.494,157.047,42.309,159.482,42.501L159.482,42.501z"/>
</g>
</svg>
