<?xml version="1.0" encoding="utf-8"?>
<!-- Generator: Adobe Illustrator 15.1.0, SVG Export Plug-In . SVG Version: 6.00 Build 0)  -->
<!DOCTYPE svg PUBLIC "-//W3C//DTD SVG 1.1//EN" "http://www.w3.org/Graphics/SVG/1.1/DTD/svg11.dtd">
<svg version="1.1" id="Layer_1" xmlns="http://www.w3.org/2000/svg" xmlns:xlink="http://www.w3.org/1999/xlink" x="0px" y="0px"
	 width="290px" height="233px" viewBox="0 0 290 233" enable-background="new 0 0 290 233" xml:space="preserve">
<g>
	<g>
		<g>
			<path d="M49.651,106.607c44.746-26.387,89.271-53.144,134.015-79.532c3.268-1.926,0.307-7.017-2.971-5.083
				C135.949,48.379,91.424,75.135,46.68,101.524C43.412,103.45,46.373,108.542,49.651,106.607L49.651,106.607z"/>
		</g>
		<g>
			<g>
				<path d="M194.632,28.82c14.58,24.74,28.884,49.641,43.462,74.381c1.924,3.268,7.016,0.309,5.084-2.971
					c-14.578-24.742-28.883-49.641-43.462-74.381C197.791,22.581,192.7,25.542,194.632,28.82L194.632,28.82z"/>
			</g>
			<g>
				<path d="M88.43,193.544c-14.042-23.817-28.085-47.636-42.129-71.455c-1.926-3.269-7.018-0.307-5.083,2.972
					c14.042,23.817,28.085,47.635,42.129,71.455C85.272,199.783,90.364,196.822,88.43,193.544L88.43,193.544z"/>
			</g>
			<g>
				<path d="M99.553,200.034c45.388-26.759,90.776-53.519,136.164-80.279c3.268-1.927,0.307-7.018-2.971-5.083
					c-45.389,26.758-90.776,53.52-136.164,80.279C93.313,196.877,96.275,201.969,99.553,200.034L99.553,200.034z"/>
			</g>
			<g>
				<path d="M177.421,30.757c4.28-2.35,8.341-5.246,12.979-6.868c2.504-0.874,9.845,14.591,11.311,16.935
					c2.008,3.212,7.102,0.259,5.083-2.971c-2.844-4.554-5.403-9.268-8.149-13.879c-1.437-2.41-3.188-6.379-6.584-6.278
					c-6.381,0.19-12.236,5.024-17.61,7.978C171.121,27.503,174.092,32.588,177.421,30.757L177.421,30.757z"/>
			</g>
			<g>
				<path d="M50.898,99.001c-5.198,3.28-12.034,6.03-15.443,11.405c-1.689,2.661,0.316,5.467,1.57,7.794
					c2.75,5.104,6.024,9.921,8.842,14.991c1.844,3.32,6.929,0.351,5.083-2.971c-1.522-2.74-11.46-16.035-9.143-18.308
					c3.374-3.311,8.099-5.325,12.062-7.828C57.071,102.064,54.119,96.968,50.898,99.001L50.898,99.001z"/>
			</g>
			<g>
				<path d="M235.572,98.927c0.975,1.827,2.08,3.583,3.089,5.39c1.798,3.218,2.875,4.972-0.649,7.197
					c-6.378,4.025-13.056,7.566-19.484,11.511c-3.23,1.979-0.274,7.074,2.971,5.082c4.966-3.045,10.029-5.922,15.064-8.852
					c3.112-1.812,7.436-3.583,9.422-6.72c3.086-4.871-3.189-12.568-5.328-16.581C238.87,92.603,233.787,95.578,235.572,98.927
					L235.572,98.927z"/>
			</g>
			<g>
				<path d="M79.779,190.777c2.509,3.897,5.973,12.613,11.646,12.683c3.657,0.042,7.197-2.885,10.218-4.653
					c5.193-3.043,10.299-6.223,15.534-9.193c3.303-1.873,0.335-6.961-2.971-5.084c-6.398,3.629-12.623,7.551-19.007,11.201
					c-5.741,3.281-7.755-3.916-10.337-7.922C82.813,184.627,77.715,187.577,79.779,190.777L79.779,190.777z"/>
			</g>
		</g>
	</g>
	<path d="M114.715,89.95c-9.18,5.674-18.549,11.021-27.938,16.339c-7.61,4.309-15.871,7.88-22.804,13.257
		c-0.999,0.774,0.4,2.151,1.388,1.388c7.251-5.624,16.093-9.373,24.058-13.885c8.838-5.005,17.646-10.063,26.285-15.404
		C116.779,90.981,115.794,89.283,114.715,89.95z"/>
	<path d="M73.824,118.083c-1.831,0.869-3.36,2.187-4.944,3.426c-0.997,0.78,0.405,2.158,1.388,1.388
		c1.457-1.141,2.862-2.318,4.544-3.119C75.957,119.234,74.96,117.544,73.824,118.083z"/>
	<path d="M209.861,85.3c-21.922,12.262-43.647,24.563-65.006,36.97c-19.693,11.438-37.905,23.592-59.019,34.621
		c-2.902,1.512,0.303,2.284,3.182,0.775c21.096-11.02,39.388-23.172,59.015-34.613c21.301-12.414,43.095-24.715,65.002-36.968
		C215.814,84.526,212.635,83.75,209.861,85.3z"/>
	<path d="M222.37,109.448c-21.923,12.262-43.647,24.566-65.007,36.971c-19.692,11.438-37.904,23.593-59.018,34.619
		c-2.902,1.513,0.303,2.287,3.182,0.778c21.096-11.021,39.388-23.174,59.014-34.616c21.302-12.413,43.096-24.714,65.003-36.967
		C228.324,108.676,225.145,107.897,222.37,109.448z"/>
	<path d="M86.91,143.109c-0.671,0.355-1.294,0.787-1.963,1.146c-1.118,0.597-0.126,2.291,0.989,1.694
		c0.671-0.356,1.293-0.79,1.962-1.146C89.016,144.209,88.025,142.516,86.91,143.109z"/>
	<path d="M103.448,165.162c-0.497-2.406-2.883-4.227-5.306-3.773c-0.479,0.088-0.87,0.307-1.225,0.57
		c-1.504,0.702-3.03,2.75-3.594,3.82c-1.687,3.197-1.978,7.914,2.392,8.83C100.917,175.704,104.375,169.665,103.448,165.162z
		 M101.387,168.693c-0.709,2.582-4.083,5.662-6.688,3.352c-1.464-1.297-0.283-4.109,0.445-5.507c0.002,0.515,0.037,1.01,0.123,1.435
		c0.253,1.237,2.141,0.693,1.888-0.541c-0.232-1.132,0.014-2.611,0.679-3.457c0.036,0.041,0.083,0.051,0.111,0.113
		c0.483,1.014,1.857,0.326,1.779-0.636c0.259,0.103,0.533,0.255,0.826,0.483C101.955,165.033,101.801,167.186,101.387,168.693z"/>
	<path d="M116.005,164.884c-1.848-3.284-1.739-7.187-2.95-10.696c-0.224-0.647-0.855-0.842-1.447-0.572
		c-2.245,1.02-3.979,2.794-6.011,4.148c-1.051,0.698-0.05,2.389,1.004,1.684c1.687-1.12,3.186-2.51,4.918-3.541
		c0.922,3.354,1.056,6.887,2.8,9.984C114.939,166.994,116.624,165.986,116.005,164.884z"/>
	<path d="M122.817,151.993c-0.828-0.165-1.732-0.289-2.534-0.604c0.466-0.033,0.928-0.347,0.949-0.947
		c0.033-0.944,0.661-1.408,1.458-1.785c1.145-0.536,0.128-2.217-1.006-1.682c-0.178,0.084-0.32,0.195-0.481,0.295
		c-0.28-0.059-0.586-0.021-0.859,0.198c-1.263,1.009-3.759,3.091-2.193,4.876c1.158,1.317,3.516,1.395,5.104,1.744
		c1.62,0.355,3.201,1.114,1.798,2.904c-0.454,0.578-1.179,1.177-1.941,1.225c-0.868,0.053-0.46-1.898-0.389-2.296
		c0.22-1.237-1.673-1.746-1.899-0.502c-0.372,2.069-0.039,5.329,2.898,4.688c2.057-0.449,3.91-2.523,3.851-4.664
		C127.503,152.936,124.774,152.389,122.817,151.993z"/>
	<path d="M139.524,151.148c-1.288-3.406-2.072-6.974-1.25-10.59c0.283-1.246-1.484-1.688-1.898-0.502
		c-1.102,3.162-2.846,6.996-6.097,8.418c-0.683-1.584,0.155-4.078,0.201-5.647c0.038-1.267-1.924-1.242-1.963,0.021
		c-0.075,2.577-1.098,5.346,0.688,7.557c0.209,0.26,0.654,0.338,0.957,0.244c2.67-0.836,4.543-2.854,5.927-5.215
		c0.217,2.123,0.776,4.217,1.545,6.256C138.079,152.863,139.971,152.334,139.524,151.148z"/>
	<path d="M149.762,133.52c0.176-0.316,0.385-0.607,0.617-0.881c0.883-0.595,1.732-1.238,2.547-1.937
		c0.004-0.002,0.008-0.005,0.012-0.007v-0.002c0.062-0.053,0.133-0.098,0.199-0.152c0.901-0.79-0.269-1.967-1.203-1.529
		c-1.108,0.516-2.086,1.26-2.886,2.158c-0.702,0.46-1.417,0.906-2.153,1.326c-0.938,0.533-0.344,1.82,0.533,1.809
		c0.049,0.291,0.221,0.572,0.473,0.695c1.459,0.709,2.934,0.396,4.486,0.227c1.657-0.183,2.403,0.91,1.233,2.226
		c-0.406,0.458-0.989,0.843-1.604,1.104c0.047-1.037-1.599-1.402-1.916-0.27c-0.193,0.688-0.266,1.133-0.148,1.831
		c0.07,0.401,0.558,0.743,0.955,0.711c2.475-0.209,5.473-2.229,5.338-4.966C156.062,132.158,152.137,133.764,149.762,133.52z"/>
	<path d="M169.488,131.118c-1.456-2.64-1.247-5.576-1.258-8.49c-0.004-1.091-1.707-1.342-1.931-0.241
		c-0.374,1.823-0.782,3.659-1.717,5.288c-0.519,0.909-1.733,1.962-2.785,1.114c-0.896-0.723-0.664-2.434-0.215-3.312
		c0.575-1.123-1.129-2.101-1.704-0.972c-1.32,2.586-0.285,7.361,3.498,6.461c1.479-0.351,2.458-1.413,3.159-2.718
		c0.209,1.324,0.579,2.62,1.269,3.876C168.416,133.232,170.102,132.227,169.488,131.118z"/>
	<path d="M179.189,122.327c-1.461-0.918-1.225-3.366-1.358-4.865c-0.101-1.122-1.554-1.298-1.931-0.241
		c-0.604,1.693-1.387,3.35-2.418,4.828c-0.174,0.249-0.385,0.471-0.601,0.688c-0.063,0.063-0.103,0.091-0.136,0.117
		c-0.405-0.625-0.271-2.137-0.286-2.72c-0.026-1.265-1.989-1.247-1.963,0.019c0.032,1.66,0.499,6.231,3.301,4.357
		c1.071-0.719,1.888-1.914,2.542-3.207c0.293,1.086,0.82,2.065,1.879,2.729C179.292,124.708,180.26,123,179.189,122.327z"/>
	<path d="M190.307,117.792c-1.72-1.823-1.98-4.221-2.431-6.579c-0.155-0.812-1.453-0.968-1.796-0.216
		c-0.665,1.457-1.079,3.011-1.883,4.405c-0.391,0.68-1.471,1.543-2.069,0.602c-0.392-0.613-0.261-1.587-0.114-2.247
		c0.275-1.234-1.625-1.738-1.897-0.504c-0.493,2.212,0.142,5.415,3.038,5.083c1.88-0.215,2.818-1.773,3.51-3.456
		c0.427,1.568,1.059,3.026,2.27,4.312C189.803,120.117,191.174,118.712,190.307,117.792z"/>
	<path d="M202.273,107.543c-0.91-0.455-1.799-0.564-2.686-0.483c0.883-0.953,1.607-2.015,1.955-3.31
		c0.1-0.385-0.064-0.938-0.464-1.102c-2.466-1.039-4.945,0.23-6.565,2.179c-0.803,0.968,0.592,2.35,1.401,1.375
		c0.776-0.934,2.043-2.024,3.356-2.007c-0.901,1.792-2.785,3.09-4.23,4.392c-0.711,0.638,0.055,1.988,0.971,1.631
		c1.364-0.533,3.029-1.484,4.549-1.208c-0.322,0.78-0.857,1.394-1.549,1.867c-0.429-0.259-1.016-0.236-1.318,0.335
		c-0.215,0.408-0.264,0.686-0.285,1.15c-0.033,0.817,0.859,1.12,1.484,0.834c1.907-0.872,3.506-2.411,3.842-4.55
		C202.801,108.225,202.693,107.75,202.273,107.543z"/>
	<path d="M222.044,95.798c-1.483-0.216-2.03-1.242-2.26-2.392c-0.081-0.569-0.149-1.054-0.165-1.382
		c-0.079-1.256-2.028-1.248-1.963,0.019c0.078,1.537,0.337,3.061,0.433,4.597c0.109,1.74-1.261,3.324-2.614,1.392
		c-0.478-0.681-0.799-1.507-0.957-2.346c-0.035-0.33-0.062-0.662-0.106-0.993c-0.165-1.215-1.979-1.282-1.963,0.019
		c0.008,0.447,0.067,0.911,0.155,1.378c0.07,0.677,0.112,1.353,0.125,2.028c-0.137-0.111-0.244-0.226-0.41-0.326
		c-0.7-0.424-1.391,0.163-1.467,0.861c-0.11,0.993,0.016,1.848,0.35,2.629c-0.535,0.84-1.465,1.848-2.488,2.83
		c0.23-0.738,0.326-1.493,0.172-2.266c-0.644-3.222-4.41-0.673-5.221,0.799c-0.613,1.109,1.093,2.082,1.704,0.972
		c1.334-0.203,1.659,0.094,0.983,0.893c-0.254,0.455-0.527,0.897-0.817,1.331c-0.562,0.872-1.208,1.69-1.815,2.53
		c-0.588,0.813,0.567,1.84,1.355,1.329c1.398-0.905,5.344-3.795,7.382-6.646c0.013,0.013,0.021,0.027,0.034,0.04
		c0.55,0.514,1.424,0.265,1.637-0.45c0.255-0.853,0.385-1.714,0.471-2.58c0.93,0.93,2.127,1.491,3.574,1.265
		c1.635-0.257,2.025-2.093,1.992-4.106c0.404,0.219,0.848,0.397,1.378,0.474C222.782,97.876,223.294,95.98,222.044,95.798z"/>
	<g>
		<g>
			<path d="M148.771,57.961c-9.187,5.308-12.956,16.726-8.375,26.48c4.313,9.187,14.32,12.34,22.479,5.528
				c9.712-8.108,12.043-23.753,0.976-31.771c-10.451-7.573-23.885,3.795-25.16,14.38c-0.226,1.882,2.72,1.861,2.944,0
				c1.401-11.625,16.743-18.852,24.403-8.152c6.374,8.901-0.193,21.984-9.307,25.754c-7.353,3.042-12.912-3.626-14.706-9.98
				c-2.212-7.834,1.326-15.707,8.232-19.697C151.902,59.554,150.421,57.008,148.771,57.961L148.771,57.961z"/>
		</g>
		<g>
			<path d="M157.619,68.498c15.492-9.312,30.986-18.624,46.48-27.936c1.623-0.976,0.146-3.523-1.488-2.542
				c-15.493,9.312-30.986,18.624-46.48,27.936C154.508,66.932,155.984,69.479,157.619,68.498L157.619,68.498z"/>
		</g>
		<g>
			<path d="M148.809,81.589c16.914-10.167,33.828-20.332,50.742-30.499c1.623-0.976,0.146-3.523-1.488-2.542
				c-16.914,10.167-33.828,20.332-50.742,30.498C145.697,80.023,147.176,82.571,148.809,81.589L148.809,81.589z"/>
		</g>
		<g>
			<path d="M161.57,81.712c13.939-8.378,27.881-16.755,41.82-25.135c1.623-0.976,0.144-3.523-1.488-2.542
				c-13.938,8.378-27.877,16.757-41.818,25.135C158.46,80.146,159.938,82.693,161.57,81.712L161.57,81.712z"/>
		</g>
	</g>
</g>
</svg>
