<?xml version="1.0" encoding="utf-8"?>
<!-- Generator: Adobe Illustrator 15.1.0, SVG Export Plug-In . SVG Version: 6.00 Build 0)  -->
<!DOCTYPE svg PUBLIC "-//W3C//DTD SVG 1.1//EN" "http://www.w3.org/Graphics/SVG/1.1/DTD/svg11.dtd">
<svg version="1.1" id="Layer_1" xmlns="http://www.w3.org/2000/svg" xmlns:xlink="http://www.w3.org/1999/xlink" x="0px" y="0px"
	 width="290px" height="233px" viewBox="0 0 290 233" enable-background="new 0 0 290 233" xml:space="preserve">
<g>
	<g>
		<g>
			<path d="M56.22,58.95c65.319-0.007,130.633-0.558,195.954-0.564c4.773,0,4.773-7.404,0-7.404
				c-65.32,0.007-130.635,0.557-195.954,0.563C51.444,51.545,51.444,58.95,56.22,58.95L56.22,58.95z"/>
		</g>
		<g>
			<g>
				<path d="M262.925,67.293c-0.01,36.107-0.417,72.215-0.427,108.323c0,4.774,7.404,4.774,7.404,0
					c0.009-36.107,0.416-72.215,0.427-108.323C270.332,62.519,262.928,62.519,262.925,67.293L262.925,67.293z"/>
			</g>
			<g>
				<path d="M42.691,177.867c0-34.768,0-69.535,0-104.302c0-4.774-7.404-4.774-7.404,0c0,34.768,0,69.535,0,104.302
					C35.287,182.643,42.691,182.643,42.691,177.867L42.691,177.867z"/>
			</g>
			<g>
				<path d="M50.611,192.016c66.252,0,132.504,0,198.757,0c4.774,0,4.774-7.404,0-7.404c-66.252,0-132.505,0-198.757,0
					C45.836,184.611,45.836,192.016,50.611,192.016L50.611,192.016z"/>
			</g>
			<g>
				<path d="M243.059,58.385c6.182,0.203,12.519-0.417,18.611,0.894c0.553,0.109,1.08,0.287,1.581,0.542
					c-0.629-1.849-0.774-1.702-0.435,0.446c0.16,2.304,0.149,4.62,0.149,6.927c-0.002,5.878-0.2,11.743-0.041,17.621
					c0.128,4.766,7.534,4.777,7.404,0c-0.19-7.035,0.106-14.066,0.021-21.101c-0.051-4.105,0.217-7.756-3.361-10.288
					c-6.004-4.244-17.041-2.22-23.932-2.446C238.281,50.824,238.295,58.229,243.059,58.385L243.059,58.385z"/>
			</g>
			<g>
				<path d="M62.401,51.507c-7.737,0.253-16.768-1.119-23.931,2.446c-3.789,1.887-3.263,6.782-3.362,10.287
					c-0.192,7.031,0.215,14.066,0.024,21.102c-0.13,4.777,7.274,4.765,7.404,0c0.142-5.285,0.053-10.564-0.027-15.85
					c-0.034-2.328-0.012-4.652,0.051-6.976c0.041-1.152,0.108-2.301,0.2-3.451c-0.887,1.255-0.856,1.588,0.091,1
					c5.937-2.182,13.336-0.95,19.549-1.154C67.165,58.754,67.179,51.35,62.401,51.507L62.401,51.507z"/>
			</g>
			<g>
				<path d="M262.499,169.376c-0.173,4.035,1.64,14.896-3.263,15.115c-10.187,0.45-20.412-0.093-30.605,0.087
					c-4.771,0.084-4.777,7.488,0,7.404c7.325-0.129,14.645-0.012,21.969,0.031c4.575,0.028,10.357,0.854,14.551-1.295
					c6.395-3.275,4.51-15.695,4.754-21.343C270.107,164.6,262.703,164.621,262.499,169.376L262.499,169.376z"/>
			</g>
			<g>
				<path d="M35.086,169.376c0.243,5.647-1.644,18.067,4.75,21.343c4.206,2.155,9.961,1.297,14.551,1.295
					c7.324,0,14.642-0.16,21.969-0.031c4.777,0.084,4.771-7.32,0-7.404c-9.486-0.167-18.971,0.146-28.458-0.021
					c-4.941-0.09-4.837-0.853-5.237-5.766c-0.253-3.131-0.036-6.281-0.171-9.415C42.286,164.621,34.881,164.6,35.086,169.376
					L35.086,169.376z"/>
			</g>
		</g>
	</g>
	<path d="M248.195,83.316H57.29c-2.075-1.154-5.602-0.115-5.922,3.085c-0.863,8.617-0.651,17.272-0.926,25.915
		c-0.015,0.46,0.058,0.863,0.171,1.234c-0.297,2.032,0.877,4.32,3.531,4.32h193.127c2.481,0,3.664-2.001,3.562-3.924
		c0.082-0.313,0.14-0.644,0.14-1.012V89.487c0-0.017-0.005-0.029-0.005-0.045C252.629,87.323,251.71,83.316,248.195,83.316z
		 M243.568,110.465H200.04c0.478-4.321,0.271-8.647,0.123-12.996c0.403-2.234,0.765-4.478,0.832-6.749h42.573V110.465
		L243.568,110.465z"/>
	<path d="M236.469,99.219c-0.008,0-0.013,0.003-0.02,0.005c0.242-1.229-1.678-1.993-2.275-0.795l-0.145,0.29
		c-0.773-0.193-1.547-0.386-2.321-0.581c0.026-0.106,0.069-0.19,0.095-0.301c0.293-1.299-1.686-2.29-2.257-0.95
		c-0.046,0.106-0.065,0.198-0.106,0.302l-0.02-0.007c-0.501,0.371-1.002,0.74-1.504,1.108c0.059-0.152,0.133-0.301,0.184-0.453
		c0.323-0.961-0.945-2.059-1.812-1.393c-1.572,1.201-2.044,2.425-1.882,3.437c-0.637,0.889-1.467,1.61-2.674,2.1
		c-0.043,0.017-0.076,0.021-0.117,0.038c1.099-1.878,1.08-4.611-0.426-6.674c-0.43-0.588-1.381-0.911-1.938-0.25
		c-0.812,0.966-1.92,2.601-2.499,4.249c-0.508,0.697-0.844,1.511-1.057,2.476c-0.354,0.272-0.721,0.535-1.105,0.791
		c-0.803,0.496-1.66,0.863-2.576,1.106c-3.273-2.393-3.291-4.049-0.052-4.967c0.786,1.383,2.919,0.14,2.13-1.244
		c-2.967-5.218-9.306,3.022-6.656,7.322c2.015,3.271,6.121,1.736,9.25-0.824c0.588,0.14,1.14,0.19,1.647,0.146
		c0.125,0.053,0.233,0.114,0.371,0.157c2.994,0.974,5.469-0.367,7.216-2.497c0.965,0.482,2.221,0.542,3.355-0.087
		c0.979,1.969,3.525,2.321,5.451,0.458c1.494,0.152,1.453,0.099,2.983-0.829C239.07,100.526,237.833,98.393,236.469,99.219z"/>
	<path d="M248.812,67.583h-11.105c-4.775,0-4.775,7.404,0,7.404h11.105C253.588,74.987,253.588,67.583,248.812,67.583z"/>
	<path d="M226.909,68.817h-1.234c-4.774,0-4.774,7.404,0,7.404h1.234C231.684,76.221,231.684,68.817,226.909,68.817z"/>
	<path d="M68.335,68.2H59.08c-4.775,0-4.775,7.404,0,7.404h9.255C73.11,75.604,73.11,68.2,68.335,68.2z"/>
	<path d="M79.441,68.508h-1.234c-4.774,0-4.774,7.404,0,7.404h1.234C84.217,75.913,84.217,68.508,79.441,68.508z"/>
	<path d="M250.357,128.668H54.556c-1.591,0-1.591,2.469,0,2.469h195.801C251.949,131.137,251.949,128.668,250.357,128.668z"/>
	<path d="M250.357,141.008H54.556c-1.591,0-1.591,2.469,0,2.469h195.801C251.949,143.477,251.949,141.008,250.357,141.008z"/>
	<path d="M250.357,155.816H54.556c-1.591,0-1.591,2.468,0,2.468h195.801C251.949,158.285,251.949,155.816,250.357,155.816z"/>
	<path d="M250.357,169.376H54.556c-1.591,0-1.591,2.468,0,2.468h195.801C251.949,171.844,251.949,169.376,250.357,169.376z"/>
</g>
</svg>
