<?xml version="1.0" encoding="utf-8"?>
<!-- Generator: Adobe Illustrator 15.1.0, SVG Export Plug-In . SVG Version: 6.00 Build 0)  -->
<!DOCTYPE svg PUBLIC "-//W3C//DTD SVG 1.1//EN" "http://www.w3.org/Graphics/SVG/1.1/DTD/svg11.dtd">
<svg version="1.1" id="Layer_1" xmlns="http://www.w3.org/2000/svg" xmlns:xlink="http://www.w3.org/1999/xlink" x="0px" y="0px"
	 width="290px" height="233px" viewBox="0 0 290 233" enable-background="new 0 0 290 233" xml:space="preserve">
<g>
	<g>
		<path d="M83.126,69.078c35.172,10.955,73.869,14.31,110.06,6.491c7.142-1.543,31.447-3.258,31.447-14.472
			c0-5.639-11.886-8.338-16.337-9.624c-20.399-5.896-42.653-7.65-63.783-7.445c-21.731,0.212-47.129,3.301-63.485,19.074
			c-2.933,2.829,1.533,7.286,4.462,4.461c14.028-13.527,35.433-16.209,54.03-17.085c19.349-0.91,39.039,1.011,57.994,4.885
			c5.088,1.039,10.496,2.13,15.258,4.279c2.408,1.089,5.896,1.084,3.182,2.966c-3.482,2.412-7.241,3.305-11.247,4.244
			c-6.724,1.578-13.644,2.812-20.437,4.098c-32.57,6.168-68.101,1.812-99.466-7.958C80.907,61.779,79.254,67.872,83.126,69.078
			L83.126,69.078z"/>
	</g>
	<g>
		<path d="M217.925,61.478c0.05,32.198-9.866,70.443-41.208,85.624c-3.662,1.773-0.46,7.215,3.184,5.448
			c33.324-16.14,44.388-56.752,44.334-91.071C224.229,57.408,217.919,57.408,217.925,61.478L217.925,61.478z"/>
	</g>
	<g>
		<path d="M95.494,131.549c21.703,27.146,77.242,37.854,101.699,8.412c2.58-3.105-1.858-7.596-4.461-4.461
			c-22.379,26.938-73.171,16.111-92.776-8.412C97.415,123.909,92.98,128.404,95.494,131.549L95.494,131.549z"/>
	</g>
	<g>
		<path d="M80.519,97.023c1.553,7.668,4.043,15,7.401,22.062c1.746,3.675,7.186,0.47,5.448-3.184
			c-3.122-6.569-5.322-13.431-6.765-20.555C85.796,91.36,79.714,93.051,80.519,97.023L80.519,97.023z"/>
	</g>
	<g>
		<path d="M84.164,61.469c-6.189,3.936-5.284,13.091-5.288,19.463c-0.002,4.07,6.308,4.07,6.311,0
			c0.002-3.362-1.165-11.9,2.161-14.016C90.77,64.742,87.608,59.277,84.164,61.469L84.164,61.469z"/>
	</g>
	<g>
		<path d="M90.328,82.241c-18.203-9.684-46.218,0.186-44.773,23.147c1.454,23.092,37.602,33.663,55.64,25.774
			c3.722-1.627,0.505-7.062-3.184-5.448c-14.807,6.476-40.727-3.063-45.745-18.507c-6.28-19.322,21.98-26.38,34.878-19.519
			C90.735,89.6,93.923,84.152,90.328,82.241L90.328,82.241z"/>
	</g>
	<g>
		<path d="M88.75,93.985c-8.973-5.771-28.114-5.729-28.946,8.603c-1.056,18.18,21.838,22.512,35.377,18.725
			c3.913-1.096,2.25-7.185-1.676-6.084c-9.108,2.547-22.989,1.792-27.035-8.533c-4.739-12.089,13.403-10.92,19.096-7.262
			C89.001,101.642,92.16,96.177,88.75,93.985L88.75,93.985z"/>
	</g>
	<g>
		<path d="M95.885,120.611c2.34-0.467,3.734,3.25,1.777,4.4c-3.506,2.059-0.333,7.512,3.184,5.448
			c3.638-2.134,5.031-6.515,3.41-10.405c-1.725-4.139-5.6-6.417-10.047-5.528C90.219,115.324,91.912,121.406,95.885,120.611
			L95.885,120.611z"/>
	</g>
	<g>
		<path d="M86.982,98.989c8.769-0.396,10.717-13.695,2.82-17.099c-1.58-0.682-3.369-0.485-4.316,1.132
			c-0.789,1.346-0.45,3.636,1.132,4.316c2.027,0.875,2.818,5.23,0.364,5.341C82.929,92.862,82.912,99.172,86.982,98.989
			L86.982,98.989z"/>
	</g>
	<g>
		<path d="M107.355,138.018c-7.734,1.489-39.053,0.295-40.77,12.371c-0.914,6.416,7.461,9.963,12.155,11.766
			c24.274,9.334,54.377,8.462,79.89,7.863c14.312-0.336,28.642-1.471,42.772-3.811c9.375-1.553,19.94-3.596,27.871-9.176
			c5.625-3.961,7.512-10.74-0.068-13.756c-11.555-4.598-25.279-4.264-37.523-4.996c-4.068-0.241-4.043,6.068,0,6.312
			c9.375,0.562,18.75,0.981,28.021,2.604c2.354,0.41,9.409,1.186,7.677,3.182c-2.072,2.387-5.458,3.76-8.318,4.881
			c-19.316,7.572-42.129,8.018-62.582,8.498c-21.795,0.512-44.215-0.199-65.604-4.738c-5.255-1.117-14.092-2.531-17.623-7.168
			c-1.613-2.119,9.332-4.055,11.119-4.412c8.16-1.633,16.5-1.764,24.661-3.336C113.025,143.333,111.33,137.251,107.355,138.018
			L107.355,138.018z"/>
	</g>
	<g>
		<path d="M68.75,156.264c22.888,20.312,51.306,23.58,80.859,23.891c28.555,0.3,61.781-3.747,82.729-25.119
			c2.849-2.907-1.61-7.373-4.462-4.461c-19.07,19.455-48.355,22.615-74.245,23.242c-28.663,0.699-58.186-2.283-80.42-22.014
			C70.18,149.109,65.7,153.559,68.75,156.264L68.75,156.264z"/>
	</g>
	<g>
		<path d="M82.847,74.148c40.041,13.72,83.583,12.67,124.667,4.47c1.328-0.267,0.766-2.292-0.56-2.029
			c-40.718,8.13-83.865,9.129-123.548-4.47C82.12,71.679,81.571,73.71,82.847,74.148L82.847,74.148z"/>
	</g>
</g>
</svg>
