<?xml version="1.0" encoding="utf-8"?>
<!-- Generator: Adobe Illustrator 15.1.0, SVG Export Plug-In . SVG Version: 6.00 Build 0)  -->
<!DOCTYPE svg PUBLIC "-//W3C//DTD SVG 1.1//EN" "http://www.w3.org/Graphics/SVG/1.1/DTD/svg11.dtd">
<svg version="1.1" id="Layer_1" xmlns="http://www.w3.org/2000/svg" xmlns:xlink="http://www.w3.org/1999/xlink" x="0px" y="0px"
	 width="290px" height="233px" viewBox="0 0 290 233" enable-background="new 0 0 290 233" xml:space="preserve">
<g>
	<g>
		<path d="M178.572,125.617c9.099,1.887,18.197,3.775,27.296,5.662c2.212,0.457,2.923-2.971,0.711-3.43
			c-9.099-1.887-18.197-3.772-27.297-5.66C177.072,121.73,176.361,125.158,178.572,125.617L178.572,125.617z"/>
	</g>
	<g>
		<path d="M180.172,117.9c9.338,1.937,18.674,3.873,28.012,5.811c2.211,0.458,2.924-2.973,0.711-3.432
			c-9.338-1.936-18.674-3.871-28.012-5.809C178.674,114.013,177.962,117.441,180.172,117.9L180.172,117.9z"/>
	</g>
	<g>
		<path d="M180.166,122.596c-0.482-0.715-0.616-1.822-0.665-2.756c-0.046-0.839-0.114-1.867,0.824-1.824
			c2.253,0.109,2.009-3.389-0.224-3.495c-4.935-0.235-4.817,7.098-2.863,9.997C178.499,126.393,181.43,124.473,180.166,122.596
			L180.166,122.596z"/>
	</g>
	<g>
		<path d="M209.381,128.58c-1.042-1.434-1.277-4.451,0.247-5.741c1.702-1.44-0.2-4.388-1.922-2.927
			c-2.953,2.501-3.534,7.451-1.251,10.59C207.777,132.327,210.712,130.413,209.381,128.58L209.381,128.58z"/>
	</g>
	<g>
		<path d="M203.814,127.789c-0.312-0.876-0.381-1.816-0.416-2.74c-0.021-0.537,0.027-1.045,0.137-1.57
			c0.099-0.475,0.395-0.422-0.047-0.357c2.218-0.323,2.015-3.821-0.225-3.498c-4.062,0.587-3.824,6.335-2.771,9.281
			C201.249,131.029,204.575,129.921,203.814,127.789L203.814,127.789z"/>
	</g>
	<g>
		<path d="M184.968,123.434c-0.458-1.664-0.591-3.562,0.774-4.817c1.667-1.531-0.957-3.857-2.602-2.344
			c-2.305,2.117-2.264,5.478-1.496,8.276C182.245,126.727,185.564,125.605,184.968,123.434L184.968,123.434z"/>
	</g>
	<g>
		<path d="M206.664,128.366c7.637,7.641,26.584,12.624,35.893,5.532c2.478-1.892,1.871-5.605-0.938-6.916
			c-8.046-3.752-17.833-3.815-26.497-4.863c-2.225-0.271-2.954,3.156-0.71,3.428c4.935,0.6,9.845,0.844,14.735,1.794
			c1.813,0.351,3.615,0.774,5.414,1.194c3.328,0.775,7.451,2.525,2.537,4.24c-8.146,2.848-22.033-0.957-28.089-7.01
			C207.404,124.161,205.072,126.777,206.664,128.366L206.664,128.366z"/>
	</g>
	<g>
		<path d="M209.012,122.71c5.295-2.713,12.33-3.187,18.172-3.526c2.733-0.158,5.529-0.039,8.24,0.325
			c0.73,0.109,1.455,0.253,2.172,0.431c3.139,0.695,3.041,4.01,0.104,4.918c-2.159,0.668-1.043,3.988,1.115,3.32
			c6.683-2.062,8.108-9.184,0.666-11.331c-9.597-2.766-23.469-1.64-32.393,2.934C205.076,120.812,207.02,123.73,209.012,122.71
			L209.012,122.71z"/>
	</g>
	<g>
		<path d="M207.027,129.652c6.422,9.41,18.066,15.883,29.522,16.043c2.789,0.039,5.677-2.254,5.69-5.146
			c0.02-3.841-2.649-6.179-6.073-7.309c-2.144-0.709-2.83,2.73-0.712,3.429c4.979,1.646,2.82,5.873-1.676,5.358
			c-3.189-0.365-6.291-1.41-9.245-2.616c-5.856-2.394-11.017-6.461-14.58-11.679C208.686,125.867,205.753,127.785,207.027,129.652
			L207.027,129.652z"/>
	</g>
	<g>
		<path d="M177.128,119.855c-9.536-2.506-19.073-5.014-28.608-7.521c-0.36-0.094-0.599,0.138-0.66,0.42
			c1.234,0.5,2.457,1.033,3.676,1.58c8.453,2.222,16.904,4.442,25.357,6.663C177.618,121.189,177.852,120.046,177.128,119.855z"/>
	</g>
	<g>
		<path d="M177.848,116.726c-9.886-1.308-19.686-3.156-29.512-4.841c-0.511-0.087-0.773,0.426-0.65,0.798
			c0.379,0.152,0.752,0.314,1.129,0.471c9.584,1.65,19.15,3.438,28.797,4.714C178.354,117.965,178.594,116.823,177.848,116.726z"/>
	</g>
</g>
<g>
	<path d="M146.846,191.398c-42.79,0-77.476-34.686-77.476-77.475c0-42.789,34.686-77.475,77.476-77.475
		c40.61,0,73.881,31.255,77.162,71.018c4.496-0.236,9.027-0.072,13.516-0.121c0.434-0.004,0.867-0.017,1.299-0.022
		c-3.389-47.874-43.239-85.674-91.977-85.674c-50.963,0-92.275,41.312-92.275,92.274c0,50.963,41.312,92.273,92.275,92.273
		c35.077,0,65.541-19.594,81.141-48.418c-4.459-2.125-8.855-4.375-13.225-6.676C201.609,175.107,176.148,191.398,146.846,191.398z"
		/>
	<path d="M224.104,108.959c0.039,0.611,0.094,1.22,0.119,1.836c4.928-0.242,9.862-0.202,14.799-0.112
		c-0.021-0.611-0.076-1.214-0.108-1.822C234.018,108.913,229.025,108.681,224.104,108.959z"/>
	<path d="M224.271,112.323c0.008,0.369,0.031,0.732,0.035,1.103c4.922-0.297,9.883-0.297,14.799-0.036
		c-0.002-0.395-0.028-0.783-0.037-1.175C234.133,112.125,229.2,112.084,224.271,112.323z"/>
	<path d="M230.539,152.697c0.318-0.684,0.639-1.367,0.939-2.062c-2.062-0.846-4.097-1.76-6.1-2.748
		c-2.455-1.211-4.802-2.598-7.109-4.045c-0.309,0.732-0.641,1.453-0.971,2.174C221.643,148.395,226.033,150.68,230.539,152.697z"/>
	<path d="M216.646,147.411c-0.381,0.791-0.77,1.579-1.174,2.356c4.373,2.301,8.776,4.541,13.237,6.668
		c0.405-0.779,0.792-1.566,1.177-2.357C225.383,152.062,220.986,149.79,216.646,147.411z"/>
	<path d="M205.762,139.67c0.297-0.677,0.6-1.35,0.873-2.039c-3.294-1.045-6.568-2.145-9.834-3.275
		c-0.096,0.233-0.205,0.459-0.303,0.689C199.611,136.514,202.695,138.051,205.762,139.67z"/>
	<path d="M195.861,136.486c-0.338,0.725-0.692,1.438-1.059,2.146c3.041,1.637,6.076,3.287,9.109,4.938
		c0.42-0.809,0.814-1.631,1.201-2.455C202.051,139.509,198.971,137.964,195.861,136.486z"/>
	<path d="M146.846,59.901c28.407,0,51.676,21.932,53.842,49.785c3.459,0.197,6.92,0.368,10.383,0.508
		c-0.045-0.792-0.119-1.579-0.192-2.364l-6.659-0.247c-0.984-0.036-0.988-1.567,0-1.531l6.496,0.24
		c-3.775-31.935-30.918-56.71-63.869-56.71c-35.537,0-64.342,28.806-64.342,64.341c0,35.535,28.806,64.341,64.342,64.341
		c24.297,0,45.413-13.482,56.354-33.365c-3.038-1.649-6.079-3.295-9.126-4.928c-9.19,16.657-26.855,27.975-47.229,27.975
		c-29.837,0-54.024-24.186-54.024-54.022C92.822,84.087,117.008,59.901,146.846,59.901z"/>
	<path d="M200.846,114.747c-0.009,0.603-0.016,1.204-0.045,1.801c0.629,0.141,1.25,0.284,1.879,0.425
		c1.516-0.431,3.053-0.818,4.603-1.175C205.134,115.466,202.99,115.113,200.846,114.747z"/>
	<path d="M211.165,114.823c0.009-0.299,0.021-0.598,0.021-0.898c0-0.532-0.026-1.057-0.041-1.585
		c-3.445-0.14-6.889-0.308-10.33-0.505c0.017,0.459,0.024,0.921,0.033,1.381C204.279,113.802,207.716,114.37,211.165,114.823z"/>
	<path d="M179.904,129.564c-0.562-0.223-0.623-0.871-0.372-1.25c-0.595-0.168-1.218-0.332-1.867-0.489
		c-0.274,0.547-0.577,1.077-0.881,1.608c2.005,0.893,3.991,1.836,5.959,2.828c0.229-0.41,0.432-0.837,0.647-1.257
		C182.227,130.527,181.083,130.027,179.904,129.564z"/>
	<path d="M175.979,130.764c-6.119,9.657-16.855,16.094-29.133,16.094c-19.073,0-34.535-15.463-34.535-34.535
		s15.461-34.534,34.535-34.534c17.739,0,32.348,13.379,34.303,30.596c2.223,0.165,4.445,0.323,6.67,0.479
		c-1.758-21.095-19.424-37.67-40.973-37.67c-22.716,0-41.131,18.415-41.131,41.13c0,22.715,18.415,41.129,41.131,41.129
		c14.903,0,27.891-7.965,35.09-19.84C179.968,132.623,177.982,131.669,175.979,130.764z"/>
	<path d="M187.947,111.26c-0.004-0.083-0.004-0.163-0.006-0.245c-2.205-0.156-4.406-0.312-6.608-0.476
		c0.003,0.067,0.001,0.135,0.004,0.202C183.55,110.835,185.754,111.007,187.947,111.26z"/>
	<path d="M181.376,112.272c0,0.018,0.001,0.034,0.001,0.051c0,0.081-0.007,0.16-0.009,0.241c2.192,0.392,4.38,0.809,6.567,1.245
		c0.012-0.338,0.019-0.677,0.025-1.017C185.775,112.542,183.581,112.368,181.376,112.272z"/>
	<path d="M147.991,134.428c-11.204,0-20.286-9.181-20.286-20.504c0-11.322,9.083-20.501,20.286-20.501
		c8.797,0,16.241,5.678,19.045,13.594c1.374,0.056,2.748,0.104,4.122,0.156c-2.9-10.19-12.146-17.666-23.167-17.666
		c-13.343,0-24.161,10.934-24.161,24.417c0,13.485,10.818,24.418,24.161,24.418c8.31,0,15.602-4.26,19.942-10.718
		c-1.293-0.453-2.57-0.958-3.654-1.606C160.598,131.098,154.703,134.428,147.991,134.428z"/>
	<path d="M146.941,113.298c-0.615-0.194-0.646-0.893-0.332-1.268c-0.021-0.399,0.214-0.813,0.728-0.811
		c4.192,0.017,8.366,0.2,12.528,0.613c0.029-0.102,0.048-0.205,0.027-0.311c0.535-1.308,0.197-2.747-0.338-4.025
		c-0.074-0.284-0.176-0.571-0.348-0.872c-0.014-0.022-0.032-0.031-0.046-0.052c0.003-0.045,0.007-0.09,0.007-0.134
		c-2.26-3.831-6.406-6.414-11.177-6.414c-7.187,0-13.013,5.826-13.013,13.013c0,7.188,5.826,13.013,13.013,13.013
		c3.036,0,10.253-1.339,11.04-7.672c0.001-0.013,0-0.024,0.004-0.036C154.982,116.717,151.119,114.617,146.941,113.298z"/>
</g>
<path d="M172.072,126.699c-2.102-0.969-4.284-1.754-6.379-2.743c-0.887-0.42-1.664,0.899-0.771,1.321
	c2.093,0.99,4.276,1.775,6.38,2.744C172.191,128.432,172.971,127.111,172.072,126.699z"/>
<path d="M167.682,122.475c-0.447-0.127-0.894-0.254-1.34-0.383c-0.951-0.273-1.354,1.203-0.406,1.477
	c0.444,0.129,0.893,0.256,1.338,0.384C168.225,124.223,168.628,122.745,167.682,122.475z"/>
<path d="M177.62,109.052c-3.511-0.215-7.003-0.663-10.524-0.639c-0.988,0.007-0.988,1.539,0,1.531
	c3.521-0.024,7.014,0.423,10.524,0.639C178.605,110.644,178.602,109.112,177.62,109.052z"/>
<path d="M170.04,110.801c-0.513-0.073-1.019-0.181-1.531-0.256c-0.966-0.139-1.381,1.337-0.405,1.477
	c0.513,0.073,1.018,0.181,1.53,0.256C170.6,112.417,171.016,110.942,170.04,110.801z"/>
</svg>
