<?xml version="1.0" encoding="utf-8"?>
<!-- Generator: Adobe Illustrator 15.1.0, SVG Export Plug-In . SVG Version: 6.00 Build 0)  -->
<!DOCTYPE svg PUBLIC "-//W3C//DTD SVG 1.1//EN" "http://www.w3.org/Graphics/SVG/1.1/DTD/svg11.dtd">
<svg version="1.1" id="Layer_1" xmlns="http://www.w3.org/2000/svg" xmlns:xlink="http://www.w3.org/1999/xlink" x="0px" y="0px"
	 width="290px" height="233px" viewBox="0 0 290 233" enable-background="new 0 0 290 233" xml:space="preserve">
<g>
	<path d="M145,22.652c-47.373,0-85.774,38.402-85.774,85.774c0,47.372,38.401,85.775,85.774,85.775s85.773-38.402,85.773-85.774
		C230.773,61.055,192.373,22.652,145,22.652z M145,180.443c-39.775,0-72.018-32.242-72.018-72.018
		c0-39.775,32.243-72.017,72.018-72.017c39.775,0,72.018,32.243,72.018,72.018C217.018,148.202,184.775,180.443,145,180.443z"/>
	<path d="M145,48.617c-33.032,0-59.809,26.777-59.809,59.809c0,33.032,26.777,59.809,59.809,59.809s59.809-26.776,59.809-59.809
		C204.809,75.394,178.032,48.617,145,48.617z M145,158.645c-27.734,0-50.217-22.483-50.217-50.217
		c0-27.734,22.483-50.218,50.217-50.218c27.734,0,50.217,22.483,50.217,50.217C195.217,136.16,172.734,158.645,145,158.645z"/>
	<path d="M145,68.706c-21.115,0-38.232,17.117-38.232,38.232c0,21.115,17.117,38.232,38.232,38.232
		c21.115,0,38.232-17.117,38.232-38.232C183.232,85.823,166.115,68.706,145,68.706z M145,139.039
		c-17.729,0-32.101-14.373-32.101-32.101S127.271,74.837,145,74.837c17.729,0,32.102,14.373,32.102,32.101
		S162.729,139.039,145,139.039z"/>
	<path d="M146.066,85.729c-12.403,0-22.459,10.163-22.459,22.697c0,12.535,10.056,22.698,22.459,22.698
		c12.406,0,22.459-10.163,22.459-22.698C168.525,95.893,158.473,85.729,146.066,85.729z M146.066,127.484
		c-10.416,0-18.857-8.532-18.857-19.059c0-10.524,8.442-19.057,18.857-19.057c10.416,0,18.857,8.533,18.857,19.057
		C164.924,118.952,156.482,127.484,146.066,127.484z"/>
	<circle cx="146.066" cy="107.602" r="12.096"/>
</g>
</svg>
