<?xml version="1.0" encoding="utf-8"?>
<!-- Generator: Adobe Illustrator 15.1.0, SVG Export Plug-In . SVG Version: 6.00 Build 0)  -->
<!DOCTYPE svg PUBLIC "-//W3C//DTD SVG 1.1//EN" "http://www.w3.org/Graphics/SVG/1.1/DTD/svg11.dtd">
<svg version="1.1" id="Layer_1" xmlns="http://www.w3.org/2000/svg" xmlns:xlink="http://www.w3.org/1999/xlink" x="0px" y="0px"
	 width="290px" height="233px" viewBox="0 0 290 233" enable-background="new 0 0 290 233" xml:space="preserve">
<g>
	<g>
		<path d="M128.762,84.294c-0.287,18.404-0.572,36.81-0.854,55.212c-0.068,4.477,6.871,4.471,6.938,0
			c0.282-18.402,0.567-36.809,0.854-55.212C135.77,79.817,128.832,79.824,128.762,84.294L128.762,84.294z"/>
	</g>
	<g>
		<path d="M144.369,84.536c-0.292,18.884-0.583,37.771-0.875,56.655c-0.069,4.477,6.869,4.47,6.938,0
			c0.293-18.885,0.584-37.771,0.875-56.655C151.375,80.059,144.436,80.066,144.369,84.536L144.369,84.536z"/>
	</g>
	<g>
		<path d="M135.269,86.18c1.152-1.147,8.47-4.632,8.944-1.306c0.63,4.416,7.316,2.53,6.691-1.843
			c-1.383-9.696-15.667-6.608-20.542-1.757C127.188,84.434,132.095,89.337,135.269,86.18L135.269,86.18z"/>
	</g>
	<g>
		<path d="M134.501,145.248c2.425-2.588,8.189-4.061,11.263-1.583c3.447,2.78,8.389-2.097,4.906-4.906
			c-5.98-4.823-15.835-4.009-21.075,1.583C126.539,143.604,131.436,148.52,134.501,145.248L134.501,145.248z"/>
	</g>
	<g>
		<path d="M133.979,134.129c1.581-0.932,3.403-1.404,5.179-1.814c1.035-0.236,2.051-0.317,3.113-0.301
			c0.969,0.014,0.912,0.618,0.639-0.175c1.45,4.203,8.154,2.396,6.689-1.844c-2.648-7.679-13.83-4.974-19.122-1.856
			C126.625,130.406,130.115,136.402,133.979,134.129L133.979,134.129z"/>
	</g>
	<g>
		<path d="M135.438,95.843c3.083-1.518,6.706-2.421,9.658-0.23c3.595,2.672,7.052-3.356,3.501-5.99
			c-4.975-3.695-11.516-2.306-16.661,0.23C127.923,91.829,131.44,97.814,135.438,95.843L135.438,95.843z"/>
	</g>
	<g>
		<path d="M133.841,139.963c-12.023,17.693-14.611,56.407,2.667,71.881c4.627,4.145,11.586,1.412,13.08-4.49
			c4.311-17.041,0.764-36.138-0.41-53.365c-0.304-4.438-7.245-4.467-6.939,0c0.67,9.839,2.028,19.457,1.996,29.345
			c-0.011,3.659-0.16,7.315-0.309,10.974c-0.275,6.781-2.196,15.289-7.336,6.414c-8.57-14.793-6.306-43.201,3.241-57.257
			C142.354,139.752,136.339,136.286,133.841,139.963L133.841,139.963z"/>
	</g>
	<g>
		<path d="M145.785,142.416c7.219,9.245,10.781,22.889,13.599,34.057c1.331,5.264,2.124,10.741,2.421,16.155
			c0.059,1.461,0.051,2.922-0.029,4.384c-0.176,6.026-6.853,7.021-9.559,1.934c-2.101-3.953-8.09-0.447-5.99,3.5
			c6.506,12.236,20.866,12.229,22.267-3.023c1.81-19.723-5.573-46.248-17.804-61.912
			C147.939,133.986,143.065,138.934,145.785,142.416L145.785,142.416z"/>
	</g>
	<g>
		<path d="M131.463,141.143c-15.919,16.004-24.123,41.086-20.17,63.424c0.969,5.472,6.548,10.135,12.172,9.09
			c7.479-1.391,10.981-7.508,11.903-14.575c0.578-4.427-6.369-4.373-6.938,0c-1.387,10.634-10.358,7.772-11.045-1.373
			c-0.476-6.349,0.416-12.759,1.665-18.961c2.478-12.294,8.492-23.824,17.319-32.698
			C139.526,142.875,134.62,137.966,131.463,141.143L131.463,141.143z"/>
	</g>
	<g>
		<path d="M141.098,20.809c-1.326,19.485-2.654,38.973-3.979,58.458c-0.102,1.488,2.211,1.479,2.312,0
			c1.326-19.485,2.654-38.973,3.98-58.458C143.513,19.32,141.198,19.329,141.098,20.809L141.098,20.809z"/>
	</g>
	<g>
		<path d="M141.909,20.284c0.38,19.745,0.43,39.499,1.57,59.22c0.086,1.481,2.398,1.49,2.312,0
			c-1.141-19.721-1.19-39.475-1.569-59.22C144.192,18.796,141.879,18.791,141.909,20.284L141.909,20.284z"/>
	</g>
</g>
</svg>
