<?xml version="1.0" encoding="utf-8"?>
<!-- Generator: Adobe Illustrator 15.1.0, SVG Export Plug-In . SVG Version: 6.00 Build 0)  -->
<!DOCTYPE svg PUBLIC "-//W3C//DTD SVG 1.1//EN" "http://www.w3.org/Graphics/SVG/1.1/DTD/svg11.dtd">
<svg version="1.1" id="Layer_1" xmlns="http://www.w3.org/2000/svg" xmlns:xlink="http://www.w3.org/1999/xlink" x="0px" y="0px"
	 width="290px" height="233px" viewBox="0 0 290 233" enable-background="new 0 0 290 233" xml:space="preserve">
<g>
	<g>
		<path d="M104.557,111.411c20.674,4.762,41.349,9.526,62.025,14.284c5.02,1.156,7.15-6.555,2.124-7.711
			c-20.674-4.761-41.348-9.523-62.025-14.285C101.662,102.543,99.529,110.252,104.557,111.411L104.557,111.411z"/>
	</g>
	<g>
		<path d="M108.595,93.876c21.216,4.884,42.43,9.771,63.649,14.658c5.02,1.156,7.148-6.556,2.125-7.711
			c-21.215-4.887-42.431-9.773-63.649-14.658C105.7,85.009,103.57,92.721,108.595,93.876L108.595,93.876z"/>
	</g>
	<g>
		<path d="M108.571,104.741c-0.976-1.513-1.385-4.139-1.445-6.347c-0.052-1.945-0.081-4.335,1.807-4.199
			c5.15,0.372,5.113-7.628,0-7.998c-11.239-0.812-11.689,15.735-7.266,22.58C104.453,113.093,111.38,109.086,108.571,104.741
			L108.571,104.741z"/>
	</g>
	<g>
		<path d="M174.965,119.859c-2.754-4.004-2.432-10.549,1.495-13.762c3.994-3.267-1.7-8.891-5.655-5.655
			c-6.503,5.322-7.352,16.755-2.744,23.453C170.963,128.115,177.898,124.121,174.965,119.859L174.965,119.859z"/>
	</g>
	<g>
		<path d="M162.271,117.797c-0.683-2.044-0.824-4.197-0.847-6.337c-0.013-1.122,0.07-2.221,0.308-3.317
			c0.312-1.442,1.113-1.296-0.178-1.146c5.059-0.594,5.116-8.597,0-7.998c-9.341,1.096-9.305,14.012-6.996,20.922
			C156.186,124.788,163.911,122.702,162.271,117.797L162.271,117.797z"/>
	</g>
	<g>
		<path d="M119.467,106.915c-0.956-3.765-1.296-8.227,1.888-11c3.897-3.392-1.784-9.023-5.655-5.655
			c-5.366,4.668-5.577,12.354-3.944,18.779C113.023,114.038,120.737,111.916,119.467,106.915L119.467,106.915z"/>
	</g>
	<g>
		<path d="M168.62,119.047c16.972,17.74,60.104,30.25,81.644,14.559c8.188-5.963,1.951-13.937-4.689-17.489
			c-6.613-3.541-16.264-4.285-23.528-5.959c-11.137-2.567-22.267-3.208-33.553-4.827c-5.043-0.724-7.214,6.982-2.125,7.711
			c11.218,1.609,22.444,2.416,33.551,4.827c5.704,1.239,34.996,7.342,18.167,12.812c-18.771,6.104-50.322-3.191-63.811-17.287
			C170.703,109.659,165.057,115.321,168.62,119.047L168.62,119.047z"/>
	</g>
	<g>
		<path d="M174.244,106.399c11.664-5.66,27.145-6.509,39.781-7.154c6.82-0.349,13.865,0,20.608,1.062
			c1.664,0.287,3.308,0.651,4.937,1.091c6.291,1.542,6.654,9.422,0.289,11.237c-4.951,1.411-2.844,9.13,2.125,7.71
			c16.334-4.658,18.068-19.43,2.377-25.829c-20.223-8.245-54.832-4.402-74.151,4.978
			C165.568,101.747,169.625,108.644,174.244,106.399L174.244,106.399z"/>
	</g>
	<g>
		<path d="M169.415,121.982c14.101,21.734,40.257,37.146,66.297,38.207c7.657,0.31,12.771-5.199,13.681-12.275
			c1.031-7.995-6.959-13.895-13.412-16.145c-4.881-1.703-6.963,6.024-2.125,7.711c11.035,3.852,7.822,13.801-3.578,12.258
			c-6.014-0.815-11.832-2.752-17.498-4.854c-14.678-5.441-27.957-15.834-36.461-28.938
			C173.525,113.64,166.598,117.645,169.415,121.982L169.415,121.982z"/>
	</g>
	<g>
		<path d="M36.127,82.224c21.643,6.196,43.288,12.392,64.93,18.591c1.656,0.474,2.359-2.099,0.708-2.572
			c-21.643-6.196-43.288-12.393-64.93-18.591C35.18,79.177,34.477,81.75,36.127,82.224L36.127,82.224z"/>
	</g>
	<g>
		<path d="M35.731,81.185c22.346,4.335,44.624,9.044,67.128,12.52c1.682,0.258,2.403-2.309,0.708-2.572
			c-22.501-3.473-44.782-8.183-67.128-12.52C34.76,78.287,34.044,80.856,35.731,81.185L35.731,81.185z"/>
	</g>
</g>
</svg>
