<?xml version="1.0" encoding="utf-8"?>
<!-- Generator: Adobe Illustrator 15.1.0, SVG Export Plug-In . SVG Version: 6.00 Build 0)  -->
<!DOCTYPE svg PUBLIC "-//W3C//DTD SVG 1.1//EN" "http://www.w3.org/Graphics/SVG/1.1/DTD/svg11.dtd">
<svg version="1.1" id="Layer_1" xmlns="http://www.w3.org/2000/svg" xmlns:xlink="http://www.w3.org/1999/xlink" x="0px" y="0px"
	 width="290px" height="233px" viewBox="0 0 290 233" enable-background="new 0 0 290 233" xml:space="preserve">
<g>
	<g>
		<g>
			<path d="M96.798,49.669c34.967-0.005,69.933-0.372,104.9-0.377c2.322,0,2.322-3.601,0-3.601
				c-34.967,0.004-69.933,0.372-104.9,0.376C94.475,46.067,94.475,49.669,96.798,49.669L96.798,49.669z"/>
		</g>
		<g>
			<g>
				<path d="M207.635,55.908c-0.004,24.099-0.225,48.197-0.229,72.297c0,2.322,3.601,2.322,3.601,0
					c0.004-24.1,0.226-48.198,0.229-72.297C211.236,53.586,207.635,53.586,207.635,55.908L207.635,55.908z"/>
			</g>
			<g>
				<path d="M89.373,129.708c0-23.205,0-46.409,0-69.614c0-2.322-3.602-2.322-3.602,0c0,23.205,0,46.41,0,69.614
					C85.771,132.03,89.373,132.03,89.373,129.708L89.373,129.708z"/>
			</g>
			<g>
				<path d="M93.794,138.481c35.467,0,70.935,0,106.403,0c2.323,0,2.323-3.602,0-3.602c-35.468,0-70.936,0-106.403,0
					C91.472,134.879,91.472,138.481,93.794,138.481L93.794,138.481z"/>
			</g>
			<g>
				<path d="M196.818,49.292c3.346,0.128,7.495-0.609,10.606,0.861c0.635,0.3,0.231,5.837,0.223,6.871
					c-0.025,3.527-0.089,7.051-0.013,10.58c0.05,2.319,3.652,2.324,3.602,0c-0.094-4.311,0.021-8.617,0.022-12.928
					c0.001-2.298,0.454-5.241-1.226-7.059c-2.766-2.994-9.628-1.791-13.214-1.926C194.495,45.604,194.504,49.205,196.818,49.292
					L196.818,49.292z"/>
			</g>
			<g>
				<path d="M100.107,46.042c-3.586,0.136-10.448-1.067-13.215,1.925c-1.69,1.829-1.204,4.751-1.226,7.06
					c-0.041,4.311,0.116,8.617,0.022,12.928c-0.05,2.324,3.551,2.319,3.602,0c0.126-5.845-0.202-11.698,0.121-17.538
					c0.056-1.027,9.454-0.727,10.697-0.774C102.421,49.555,102.431,45.954,100.107,46.042L100.107,46.042z"/>
			</g>
			<g>
				<path d="M207.406,124.04c-0.129,3.347,0.608,7.494-0.861,10.606c-0.3,0.636-5.837,0.232-6.871,0.225
					c-3.529-0.026-7.052-0.089-10.58-0.013c-2.319,0.05-2.324,3.652,0,3.602c4.311-0.094,8.617,0.021,12.928,0.022
					c2.298,0,5.241,0.452,7.059-1.228c2.993-2.766,1.789-9.627,1.926-13.213C211.097,121.716,207.495,121.725,207.406,124.04
					L207.406,124.04z"/>
			</g>
			<g>
				<path d="M85.665,124.04c0.136,3.586-1.066,10.448,1.927,13.213c1.828,1.69,4.75,1.206,7.059,1.228
					c4.31,0.042,8.617-0.116,12.928-0.022c2.323,0.05,2.319-3.551,0-3.602c-5.846-0.126-11.698,0.201-17.538-0.122
					c-1.028-0.058-0.727-9.453-0.773-10.695C89.179,121.725,85.577,121.716,85.665,124.04L85.665,124.04z"/>
			</g>
		</g>
	</g>
	<g>
		<g>
			<path d="M104.091,55.912c30.031-0.004,60.061-0.318,90.092-0.323c2.323,0,2.323-3.602,0-3.602
				c-30.031,0.004-60.061,0.319-90.092,0.324C101.769,52.311,101.769,55.912,104.091,55.912L104.091,55.912z"/>
		</g>
		<g>
			<g>
				<path d="M199.027,61.016c-0.003,20.696-0.193,41.394-0.197,62.091c0,2.322,3.602,2.322,3.602,0
					c0.003-20.697,0.193-41.395,0.196-62.091C202.628,58.693,199.027,58.693,199.027,61.016L199.027,61.016z"/>
			</g>
			<g>
				<path d="M97.969,124.397c0-19.929,0-39.858,0-59.787c0-2.323-3.601-2.323-3.601,0c0,19.929,0,39.858,0,59.787
					C94.368,126.72,97.969,126.72,97.969,124.397L97.969,124.397z"/>
			</g>
			<g>
				<path d="M101.512,132.185c30.46,0,60.921,0,91.381,0c2.323,0,2.323-3.601,0-3.601c-30.46,0-60.921,0-91.381,0
					C99.189,128.584,99.189,132.185,101.512,132.185L101.512,132.185z"/>
			</g>
			<g>
				<path d="M189.992,55.588c2.818,0.108,6.36-0.533,8.98,0.704c-0.017-0.098-0.033-0.195-0.049-0.294
					c0.042,0.659,0.073,1.317,0.092,1.978c0.05,1.332,0.034,2.666,0.023,3.998c-0.022,3.031-0.076,6.055-0.01,9.086
					c0.05,2.319,3.651,2.323,3.601,0c-0.081-3.703,0.018-7.4,0.019-11.103c0.001-2.058,0.373-4.619-1.128-6.243
					c-2.44-2.64-8.361-1.607-11.528-1.728C187.668,51.898,187.676,55.5,189.992,55.588L189.992,55.588z"/>
			</g>
			<g>
				<path d="M106.934,52.288c-3.168,0.12-9.088-0.912-11.529,1.728c-1.508,1.633-1.107,4.176-1.127,6.243
					c-0.037,3.701,0.1,7.4,0.019,11.103c-0.05,2.324,3.551,2.319,3.602,0c0.109-5.02-0.172-10.046,0.104-15.062
					c-0.008,0.143,3.31-0.32,4.087-0.355c1.614-0.074,3.23,0.006,4.845-0.055C109.25,55.801,109.258,52.2,106.934,52.288
					L106.934,52.288z"/>
			</g>
			<g>
				<path d="M198.83,119.528c-0.107,2.818,0.534,6.36-0.705,8.98c0.099-0.017,0.196-0.033,0.294-0.049
					c-0.658,0.042-1.317,0.072-1.978,0.092c-1.332,0.049-2.666,0.034-3.998,0.024c-3.031-0.023-6.055-0.077-9.086-0.011
					c-2.319,0.05-2.324,3.652,0,3.602c3.702-0.081,7.4,0.018,11.103,0.019c2.059,0,4.619,0.372,6.243-1.129
					c2.64-2.438,1.607-8.361,1.729-11.528C202.521,117.205,198.918,117.214,198.83,119.528L198.83,119.528z"/>
			</g>
			<g>
				<path d="M94.276,119.528c0.121,3.167-0.912,9.089,1.728,11.528c1.633,1.509,4.176,1.108,6.243,1.129
					c3.701,0.036,7.4-0.1,11.102-0.019c2.324,0.05,2.319-3.551,0-3.602c-5.02-0.109-10.046,0.172-15.061-0.105
					c0.144,0.008-0.32-3.306-0.355-4.086c-0.073-1.615,0.007-3.231-0.055-4.845C97.79,117.214,94.187,117.205,94.276,119.528
					L94.276,119.528z"/>
			</g>
		</g>
	</g>
	<g>
		<path d="M87.916,134.495c-11.602,13.382-24.499,25.474-37.87,37.062c-1.758,1.524,0.801,4.06,2.546,2.546
			c13.371-11.589,26.269-23.68,37.87-37.062C91.976,135.295,89.44,132.736,87.916,134.495L87.916,134.495z"/>
	</g>
	<g>
		<path d="M206.662,139.351c10.409,11.766,20.819,23.532,31.229,35.298c1.542,1.743,4.08-0.814,2.546-2.546
			c-10.409-11.766-20.819-23.532-31.229-35.298C207.667,135.061,205.128,137.618,206.662,139.351L206.662,139.351z"/>
	</g>
	<g>
		<path d="M49.817,173.152c0.322,12.101,22.337,12.919,30.778,13.479c19.162,1.268,38.615,0.726,57.804,0.458
			c19.613-0.273,39.201-1.107,58.799-1.871c9.455-0.37,18.874-0.963,28.219-2.496c6.068-0.996,11.7-3.321,15.3-8.439
			c1.34-1.904-1.785-3.701-3.109-1.817c-4.662,6.626-14.523,7.158-21.833,7.971c-7.704,0.856-15.48,1.061-23.22,1.358
			c-16.475,0.636-32.939,1.307-49.424,1.615c-15.466,0.29-30.937,0.308-46.404,0.034c-6.756-0.12-13.498-0.164-20.236-0.721
			c-5.005-0.414-22.867-1.895-23.073-9.571C53.356,170.835,49.755,170.829,49.817,173.152L49.817,173.152z"/>
	</g>
	<g>
		<path d="M52.693,175.362c8.75,6.576,21.251,5.229,31.583,5.63c16.996,0.659,34.005,0.971,51.014,0.926
			c34.104-0.089,68.229-1.913,102.06-6.293c2.27-0.294,2.299-3.899,0-3.602c-31.53,4.083-63.28,5.877-95.06,6.244
			c-16.268,0.188-32.54-0.062-48.8-0.556c-6.49-0.198-12.975-0.5-19.465-0.658c-6.8-0.165-13.891-0.574-19.514-4.8
			C52.652,170.856,50.861,173.986,52.693,175.362L52.693,175.362z"/>
	</g>
	<g>
		<path d="M79.189,165.96c21.906,0.715,43.91-0.362,65.821-0.711c21.962-0.349,43.923-0.925,65.835-2.49
			c2.303-0.164,2.319-3.767,0-3.602c-21.914,1.565-43.874,2.128-65.835,2.49c-21.909,0.361-43.916,1.425-65.821,0.71
			C76.866,162.282,76.873,165.885,79.189,165.96L79.189,165.96z"/>
	</g>
	<g>
		<path d="M93.568,145.166c17.378,1.002,34.893,0.269,52.293,0.244c17.981-0.025,35.961-0.281,53.903-1.538
			c2.303-0.163,2.319-3.765,0-3.602c-17.944,1.257-35.921,1.499-53.903,1.539c-17.399,0.039-34.918,0.758-52.293-0.244
			C91.247,141.43,91.26,145.032,93.568,145.166L93.568,145.166z"/>
	</g>
	<g>
		<path d="M131.058,162.851c-1.595,2.464-3.238,4.846-4.501,7.503c-0.44,0.924-0.169,2.473,1.076,2.645
			c12.262,1.684,24.995,0.438,37.244-0.836c1.232-0.128,2.408-1.474,1.555-2.709c-1.273-1.846-2.068-3.895-3.151-5.853
			c-1.123-2.033-4.235-0.217-3.109,1.817c1.082,1.958,1.877,4.007,3.151,5.853c0.518-0.902,1.036-1.806,1.554-2.709
			c-11.869,1.234-24.397,2.598-36.287,0.965c0.359,0.881,0.717,1.763,1.076,2.645c1.264-2.656,2.906-5.039,4.502-7.503
			C135.434,162.712,132.315,160.909,131.058,162.851L131.058,162.851z"/>
	</g>
	<g>
		<path d="M149.484,164.988c0.309,2.231,0.745,4.434,1.351,6.603c0.624,2.234,4.099,1.284,3.473-0.957
			c-0.606-2.17-1.042-4.372-1.351-6.603c-0.135-0.974-1.363-1.492-2.214-1.258C149.703,163.058,149.349,164.018,149.484,164.988
			L149.484,164.988z"/>
	</g>
	<g>
		<path d="M92.013,142.456c-4.792,6.931-9.585,13.862-14.378,20.794c-1.325,1.916,1.799,3.714,3.109,1.817
			c4.792-6.931,9.585-13.862,14.378-20.794C96.447,142.358,93.324,140.559,92.013,142.456L92.013,142.456z"/>
	</g>
	<g>
		<path d="M197.836,143.059c4.052,6.253,8.104,12.505,12.155,18.758c1.258,1.941,4.376,0.138,3.109-1.817
			c-4.051-6.253-8.103-12.506-12.155-18.758C199.688,139.3,196.569,141.104,197.836,143.059L197.836,143.059z"/>
	</g>
	<g>
		<path d="M91.996,148.154c15.428,1.22,31.004,0.452,46.461,0.28c15.794-0.176,31.59-0.363,47.378-0.88
			c0.772-0.025,0.775-1.226,0-1.201c-15.788,0.517-31.583,0.705-47.378,0.88c-15.456,0.171-31.033,0.939-46.461-0.28
			C91.223,146.893,91.229,148.093,91.996,148.154L91.996,148.154z"/>
	</g>
	<g>
		<path d="M87.393,153.556c29.716-0.367,59.431-0.732,89.147-1.1c8.834-0.109,17.668-0.218,26.503-0.327
			c0.773-0.01,0.774-1.21,0-1.201c-29.716,0.367-59.431,0.732-89.147,1.099c-8.833,0.109-17.669,0.218-26.502,0.327
			C86.62,152.365,86.618,153.565,87.393,153.556L87.393,153.556z"/>
	</g>
	<g>
		<path d="M83.992,158.958c40.214-0.591,80.441-0.215,120.65-1.201c0.772-0.019,0.775-1.219,0-1.201
			c-40.209,0.986-80.436,0.61-120.65,1.201C83.218,157.77,83.217,158.97,83.992,158.958L83.992,158.958z"/>
	</g>
	<g>
		<path d="M102.082,143.498c-3.826,7.15-9.243,13.236-13.505,20.109c-0.41,0.659,0.629,1.261,1.036,0.605
			c4.263-6.872,9.679-12.958,13.506-20.108C103.484,143.421,102.447,142.815,102.082,143.498L102.082,143.498z"/>
	</g>
	<g>
		<path d="M108.534,143.648c-3.122,6.247-5.137,12.919-7.414,19.501c-0.253,0.733,0.907,1.045,1.159,0.319
			c2.242-6.483,4.217-13.06,7.292-19.215C109.916,143.564,108.88,142.956,108.534,143.648L108.534,143.648z"/>
	</g>
	<g>
		<path d="M117.027,144.692c-1.733,6.279-3.524,12.551-4.073,19.067c-0.064,0.771,1.136,0.766,1.201,0
			c0.54-6.407,2.327-12.576,4.031-18.749C118.392,144.263,117.233,143.946,117.027,144.692L117.027,144.692z"/>
	</g>
	<g>
		<path d="M125.13,144.242c-1.049,6.446-2.09,12.892-3.001,19.358c-0.106,0.756,1.051,1.083,1.159,0.319
			c0.911-6.467,1.952-12.913,3.001-19.358C126.412,143.803,125.254,143.479,125.13,144.242L125.13,144.242z"/>
	</g>
	<g>
		<path d="M161.807,145.154c3.285,5.437,4.38,11.813,6.542,17.714c0.264,0.721,1.425,0.41,1.158-0.319
			c-2.198-6.001-3.322-12.473-6.664-18C162.443,143.886,161.405,144.49,161.807,145.154L161.807,145.154z"/>
	</g>
	<g>
		<path d="M170.21,145.004c2.617,4.994,3.979,10.543,7.053,15.307c0.418,0.648,1.457,0.046,1.036-0.605
			c-3.072-4.76-4.438-10.315-7.053-15.306C170.888,143.712,169.852,144.319,170.21,145.004L170.21,145.004z"/>
	</g>
	<g>
		<path d="M177.714,145.004c2.956,5.238,5.513,10.688,9.003,15.606c0.444,0.626,1.485,0.027,1.036-0.605
			c-3.49-4.918-6.048-10.37-9.003-15.606C178.37,143.725,177.333,144.33,177.714,145.004L177.714,145.004z"/>
	</g>
	<g>
		<path d="M185.817,144.704c3.555,5.353,5.761,11.466,9.848,16.479c0.488,0.6,1.333-0.255,0.849-0.849
			c-4.015-4.926-6.166-10.973-9.66-16.235C186.428,143.456,185.387,144.058,185.817,144.704L185.817,144.704z"/>
	</g>
	<g>
		<path d="M192.509,144.111c0.987,2.826,2.87,5.255,4.399,7.807c1.945,3.247,3.703,6.599,5.266,10.043
			c0.319,0.705,1.354,0.094,1.036-0.605c-1.407-3.102-2.987-6.102-4.685-9.053c-1.605-2.791-3.792-5.456-4.858-8.512
			C193.413,143.066,192.253,143.377,192.509,144.111L192.509,144.111z"/>
	</g>
	<g>
		<path d="M190.387,147.252c3.104,0.086,6.115-0.593,9.163-1.072c0.763-0.12,0.439-1.276-0.319-1.158
			c-2.942,0.462-5.849,1.112-8.844,1.029C189.612,146.031,189.614,147.231,190.387,147.252L190.387,147.252z"/>
	</g>
	<g>
		<path d="M132.333,144.842c-0.599,4.289-1.043,8.586-1.221,12.915c-0.032,0.775,1.168,0.771,1.2,0
			c0.174-4.221,0.595-8.414,1.18-12.596C133.598,144.405,132.44,144.078,132.333,144.842L132.333,144.842z"/>
	</g>
	<g>
		<path d="M141.016,145.452c-0.01,3.952-0.14,7.903-0.15,11.855c-0.003,0.773,1.198,0.773,1.2,0c0.01-3.952,0.14-7.903,0.15-11.855
			C142.219,144.678,141.019,144.678,141.016,145.452L141.016,145.452z"/>
	</g>
	<g>
		<path d="M148.39,145.161c1.162,3.702,1.473,7.549,1.78,11.396c0.061,0.767,1.263,0.772,1.201,0
			c-0.315-3.952-0.63-7.912-1.822-11.714C149.318,144.105,148.158,144.42,148.39,145.161L148.39,145.161z"/>
	</g>
	<g>
		<path d="M155.143,144.86c0.463,3.313,1.285,6.565,1.63,9.896c0.078,0.762,1.28,0.77,1.2,0c-0.355-3.438-1.195-6.795-1.671-10.214
			C156.195,143.777,155.037,144.104,155.143,144.86L155.143,144.86z"/>
	</g>
</g>
</svg>
