<?xml version="1.0" encoding="utf-8"?>
<!-- Generator: Adobe Illustrator 15.1.0, SVG Export Plug-In . SVG Version: 6.00 Build 0)  -->
<!DOCTYPE svg PUBLIC "-//W3C//DTD SVG 1.1//EN" "http://www.w3.org/Graphics/SVG/1.1/DTD/svg11.dtd">
<svg version="1.1" id="Layer_1" xmlns="http://www.w3.org/2000/svg" xmlns:xlink="http://www.w3.org/1999/xlink" x="0px" y="0px"
	 width="290px" height="233px" viewBox="0 0 290 233" enable-background="new 0 0 290 233" xml:space="preserve">
<g>
	<g>
		<path d="M64.332,59.681c-0.471-6.648-1.168-15.66,2.897-21.476c0.249-0.355,1.109-0.536,0.15-0.409
			c0.264-0.036,0.019-0.021-0.167-0.112c0.31,0.152-0.049-0.124,0.431,0.409c1.047,1.163,1.401,4.438,1.519,6.335
			c0.239,3.869,6.283,3.893,6.042,0c-0.321-5.203-2.987-15.863-10.516-11.877c-3.018,1.599-4.434,5.577-5.276,8.634
			c-1.641,5.946-1.553,12.404-1.123,18.496C58.562,63.544,64.607,63.571,64.332,59.681L64.332,59.681z"/>
	</g>
	<g>
		<g>
			<path d="M58.092,56.187c1.804,27.16,2.969,54.228,6.235,81.271c2.044,16.937,4.333,33.852,6.807,50.731
				c0.563,3.844,6.384,2.204,5.827-1.605c-2.5-17.055-4.784-34.144-6.85-51.256c-3.177-26.326-4.22-52.704-5.977-79.142
				C63.877,52.32,57.833,52.295,58.092,56.187L58.092,56.187z"/>
		</g>
		<g>
			<path d="M68.808,41.684c3.562,46.273,9.585,92.289,15.002,138.369c0.448,3.822,6.496,3.865,6.042,0
				c-5.417-46.08-11.439-92.096-15.002-138.369C74.554,37.825,68.509,37.795,68.808,41.684L68.808,41.684z"/>
		</g>
		<g>
			<path d="M71.134,186.847c1.117,6.63,10.025,9.085,14.884,4.85c5.002-4.361,3.654-13.112,3.082-18.87
				c-0.382-3.839-6.427-3.876-6.042,0c0.417,4.198,1.084,8.852-0.15,12.971c-0.904,3.01-5.44,2.447-5.946-0.556
				C76.315,181.405,70.493,183.038,71.134,186.847L71.134,186.847z"/>
		</g>
		<g>
			<path d="M77.446,192.591c0.015,9.005,12.239,11.538,17.58,5.265c2.828-3.323,2.906-7.732,1.251-11.588
				c-1.806-4.204-6.489-5.801-10.696-4.897c-3.809,0.818-2.193,6.644,1.605,5.827c3.828-0.823,5.065,3.898,3.398,6.582
				c-1.53,2.46-7.091,2.133-7.097-1.188C83.482,188.695,77.44,188.694,77.446,192.591L77.446,192.591z"/>
		</g>
		<g>
			<path d="M87.769,185.542c22.544,1.923,45.418-0.156,68.025,0.006c20.67,0.147,41.336,1.03,62.001,1.505
				c3.899,0.09,3.89-5.952,0-6.042c-20.666-0.475-41.329-1.31-62.001-1.505c-22.614-0.214-45.472,1.917-68.025-0.006
				C83.885,179.167,83.917,185.212,87.769,185.542L87.769,185.542z"/>
		</g>
		<g>
			<path d="M93.056,199.639c44.605-0.832,89.205,0.512,133.802,1.196c3.899,0.059,3.893-5.983,0-6.042
				c-44.598-0.685-89.197-2.028-133.802-1.196C89.165,193.669,89.157,199.711,93.056,199.639L93.056,199.639z"/>
		</g>
		<g>
			<path d="M214.538,186.944c2.909,0.559,5.983-0.044,8.395,1.963c1.32,1.101,4.651,4.697,2.4,6.298
				c-3.145,2.238-0.131,7.482,3.051,5.216c4.584-3.263,4.46-8.451,1.439-12.832c-1.432-2.077-3.376-3.874-5.614-5.046
				c-2.553-1.338-5.341-0.902-8.065-1.426C212.337,180.388,210.713,186.209,214.538,186.944L214.538,186.944z"/>
		</g>
		<path d="M216.286,188.562c-2.922,0-2.922,4.531,0,4.531C219.208,193.094,219.208,188.562,216.286,188.562z"/>
		<path d="M125.531,187.304h-6.924c-2.922,0-2.922,4.531,0,4.531h6.924C128.454,191.835,128.454,187.304,125.531,187.304z"/>
		<path d="M112.106,188.59c-0.184-1.043-1.244-1.578-2.185-1.664c-1.298-0.118-2.599-0.127-3.901-0.127
			c-0.133,0-0.254,0.019-0.375,0.037c-0.137-0.069-0.25-0.164-0.409-0.206c-1.119-0.309-2.55,0.369-2.786,1.583
			c-0.145,0.745-0.204,1.481-0.207,2.238c-0.004,1.248,1.034,2.248,2.266,2.266c2.039,0.029,3.986,0.292,6.014-0.081
			c1.021-0.188,1.607-1.239,1.664-2.185C112.226,189.803,112.222,189.238,112.106,188.59z"/>
	</g>
</g>
</svg>
