<?xml version="1.0" encoding="utf-8"?>
<!-- Generator: Adobe Illustrator 15.1.0, SVG Export Plug-In . SVG Version: 6.00 Build 0)  -->
<!DOCTYPE svg PUBLIC "-//W3C//DTD SVG 1.1//EN" "http://www.w3.org/Graphics/SVG/1.1/DTD/svg11.dtd">
<svg version="1.1" id="Layer_1" xmlns="http://www.w3.org/2000/svg" xmlns:xlink="http://www.w3.org/1999/xlink" x="0px" y="0px"
	 width="290px" height="233px" viewBox="0 0 290 233" enable-background="new 0 0 290 233" xml:space="preserve">
<g>
	<g>
		<path d="M89.625,151.895c12.46-5.947,23.817-13.715,35.434-21.111c12.29-7.825,25.126-14.9,37.871-21.954
			c25.178-13.936,52.207-23.762,77.457-37.396c2.807-1.514,0.311-5.781-2.494-4.268c-25.244,13.629-52.236,23.562-77.457,37.396
			c-12.776,7.007-25.519,14.218-37.87,21.953c-11.685,7.315-22.958,15.158-35.435,21.111
			C84.254,148.999,86.765,153.26,89.625,151.895L89.625,151.895z"/>
	</g>
	<g>
		<path d="M42.94,104.387c10.045-4.243,19.54-9.551,29.151-14.673c11.799-6.287,24.19-11.376,36.5-16.565
			c22.641-9.543,45.427-18.73,67.673-29.177c2.883-1.353,0.373-5.614-2.494-4.267c-22.818,10.715-46.202,20.125-69.423,29.912
			c-10.81,4.557-21.656,9.082-32.098,14.438c-10.584,5.429-20.827,11.428-31.803,16.065
			C37.518,101.355,40.041,105.613,42.94,104.387L42.94,104.387z"/>
	</g>
	<g>
		<path d="M174.361,44.221c21.373,8.925,42.748,17.849,64.123,26.774c2.938,1.228,4.209-3.558,1.312-4.766
			c-21.373-8.926-42.748-17.85-64.123-26.775C172.734,38.228,171.465,43.013,174.361,44.221L174.361,44.221z"/>
	</g>
	<g>
		<path d="M39.669,104.549c6.923,7.675,16.078,13.605,23.617,20.768c8.435,8.014,15.262,17.416,23.616,25.367
			c2.307,2.196,5.807-1.293,3.495-3.494c-7.647-7.281-13.786-15.967-21.474-23.326c-4.251-4.067-8.536-8.099-12.852-12.099
			c-4.129-3.828-9.096-6.486-12.908-10.71C41.024,98.683,37.541,102.19,39.669,104.549L39.669,104.549z"/>
	</g>
	<g>
		<path d="M105.502,174.575c8.772-7.437,19.247-12.988,29.317-18.431c14.146-7.648,28.68-14.592,43.289-21.31
			c14.131-6.498,28.404-12.694,42.822-18.527c8.098-3.274,16.383-6.951,24.905-8.996c3.099-0.744,1.784-5.509-1.313-4.766
			c-8.527,2.047-16.797,5.736-24.905,8.996c-14.214,5.715-28.261,11.851-42.201,18.2c-25.36,11.548-53.934,23.131-75.408,41.338
			C99.572,173.145,103.086,176.624,105.502,174.575L105.502,174.575z"/>
	</g>
	<g>
		<path d="M156.568,108.675c1.479,9.772,2.877,19.563,5.767,29.04c0.927,3.041,5.698,1.744,4.767-1.312
			c-2.889-9.478-4.289-19.269-5.768-29.041C160.857,104.218,156.098,105.558,156.568,108.675L156.568,108.675z"/>
	</g>
	<g>
		<path d="M173.251,102.908c1.409,9.249,2.076,18.642,4.942,27.598c0.968,3.023,5.742,1.73,4.767-1.312
			c-2.868-8.957-3.534-18.351-4.942-27.598C177.537,98.451,172.775,99.792,173.251,102.908L173.251,102.908z"/>
	</g>
	<g>
		<path d="M100.214,77.448c20.002,7.031,37.353,22.772,55.636,33.322c2.767,1.596,5.254-2.676,2.494-4.268
			c-18.733-10.81-36.3-26.609-56.817-33.82C98.512,71.622,97.228,76.399,100.214,77.448L100.214,77.448z"/>
	</g>
	<g>
		<path d="M117.927,69.828c20.537,7.456,37.381,21.619,56.459,31.88c2.807,1.511,5.303-2.758,2.494-4.267
			C157.396,86.96,140.22,72.679,119.24,65.062C116.237,63.971,114.955,68.75,117.927,69.828L117.927,69.828z"/>
	</g>
	<g>
		<path d="M237.717,68.917c-1.636,6.224-0.908,13.292-0.602,19.674c0.271,5.67,1.4,11.661,4.832,16.282
			c1.875,2.529,6.171,0.069,4.268-2.494c-3.482-4.692-4.003-10.586-4.275-16.259c-0.244-5.052-0.748-10.975,0.545-15.889
			C243.294,67.144,238.527,65.835,237.717,68.917L237.717,68.917z"/>
	</g>
	<g>
		<path d="M87.131,151.895c6.719,4.555,12.985,11.317,13.329,19.834c0.129,3.176,5.072,3.188,4.943,0
			c-0.42-10.377-7.532-18.513-15.778-24.103C86.979,145.833,84.509,150.118,87.131,151.895L87.131,151.895z"/>
	</g>
	<g>
		<path d="M38.186,104.598c4.866,6.73,8.869,14.058,10.736,22.203c0.711,3.107,5.477,1.789,4.766-1.312
			c-1.955-8.53-6.135-16.333-11.234-23.384C40.604,99.547,36.314,102.01,38.186,104.598L38.186,104.598z"/>
	</g>
	<g>
		<path d="M49.782,129.926c9.186,5.221,18.01,13.303,26.197,19.967c9.147,7.449,17.497,15.762,25.206,24.683
			c2.087,2.417,5.569-1.097,3.495-3.495c-7.731-8.946-16.12-17.12-25.206-24.684c-8.573-7.135-17.511-15.233-27.198-20.738
			C49.5,124.08,47.011,128.352,49.782,129.926L49.782,129.926z"/>
	</g>
	<g>
		<path d="M163.764,66.269c1.03-7.154,9.5-6.713,11.895-0.8c1.71,4.222-0.014,8.967-4.629,9.991c-1.672,0.37-1.473,2.703,0,3.176
			c6.912,2.224,14.105,2.322,21.287,2.843c2.121,0.155,2.106-3.142,0-3.295c-6.887-0.5-13.779-0.592-20.412-2.724
			c0,1.059,0,2.117,0,3.176c8.279-1.834,9.373-11.419,5.037-17.632c-4.625-6.627-15.27-3.157-16.354,4.39
			C160.288,67.47,163.463,68.365,163.764,66.269L163.764,66.269z"/>
	</g>
	<g>
		<path d="M161.675,71.828c6.923-4.945,14.123-9.445,21.49-13.695c1.839-1.06,0.181-3.908-1.664-2.845
			c-7.366,4.25-14.567,8.749-21.489,13.695C158.299,70.206,159.941,73.066,161.675,71.828L161.675,71.828z"/>
	</g>
	<g>
		<path d="M170.287,71.824c4.076-3.396,8.625-6.122,13.205-8.775c1.838-1.064,0.179-3.912-1.664-2.845
			c-4.831,2.798-9.574,5.708-13.872,9.291C166.322,70.856,168.667,73.174,170.287,71.824L170.287,71.824z"/>
	</g>
	<g>
		<path d="M217.246,74.119c1.25-0.756,2.559-1.394,3.932-1.894c0.842-0.307,1.402-1.107,1.149-2.026
			c-0.224-0.813-1.181-1.459-2.026-1.15c-1.638,0.597-3.226,1.323-4.719,2.225C213.768,72.372,215.422,75.223,217.246,74.119
			L217.246,74.119z"/>
	</g>
	<g>
		<path d="M206.947,79.886c0.646-0.421,1.312-0.812,1.957-1.236c1.77-1.158,0.121-4.013-1.664-2.845
			c-0.645,0.421-1.312,0.812-1.957,1.236C203.514,78.199,205.163,81.054,206.947,79.886L206.947,79.886z"/>
	</g>
	<g>
		<path d="M158.84,56.881c1.282-0.507,2.463-1.189,3.689-1.813c1.894-0.964,0.225-3.807-1.664-2.845
			c-0.963,0.491-1.895,1.083-2.901,1.482c-0.835,0.33-1.409,1.089-1.149,2.025C157.033,56.527,158.003,57.213,158.84,56.881
			L158.84,56.881z"/>
	</g>
	<g>
		<path d="M168.158,52.596c0.701-0.435,1.357-0.937,2.06-1.373c1.8-1.118,0.146-3.969-1.663-2.845
			c-0.703,0.436-1.359,0.937-2.061,1.373C164.691,50.868,166.346,53.719,168.158,52.596L168.158,52.596z"/>
	</g>
	<g>
		<path d="M106.251,95.31c-7.68-2.972-16.617,4.711-18.282,11.817c-1.868,7.968,4.695,15.725,12.755,14.84
			c7.666-0.842,15.421-8.079,15.165-16.015c-0.267-8.364-10.085-12.336-17.104-10.23c-2.031,0.608-1.165,3.789,0.875,3.176
			c5.852-1.754,12.753,1.445,12.967,8.103c0.185,5.738-6.526,10.226-11.341,11.537c-6.964,1.896-11.337-5.434-9.907-11.529
			c1.213-5.176,8.692-10.575,13.996-8.523C107.36,99.255,108.211,96.068,106.251,95.31L106.251,95.31z"/>
	</g>
	<g>
		<path d="M108.706,130.861c9.093-4.25,17.525-10.803,26.087-16.063c1.807-1.11,0.153-3.961-1.664-2.845
			c-8.561,5.26-16.993,11.812-26.088,16.064C105.119,128.917,106.792,131.757,108.706,130.861L108.706,130.861z"/>
	</g>
	<g>
		<path d="M138.954,111.185c0.046-0.063,0.091-0.125,0.137-0.188c-0.196,0.196-0.395,0.395-0.591,0.591
			c0.047-0.027,0.092-0.057,0.139-0.085c1.802-1.115,0.149-3.966-1.664-2.845c-0.378,0.233-0.608,0.51-0.866,0.864
			c-0.531,0.728-0.125,1.834,0.591,2.254C137.533,112.265,138.426,111.909,138.954,111.185L138.954,111.185z"/>
	</g>
	<g>
		<path d="M96.955,87.902c0.916-0.877,2.082-1.343,3.255-1.773c0.843-0.308,1.405-1.107,1.151-2.026
			c-0.222-0.812-1.181-1.459-2.026-1.15c-1.725,0.629-3.366,1.332-4.71,2.62C93.088,87.044,95.421,89.371,96.955,87.902
			L96.955,87.902z"/>
	</g>
	<g>
		<path d="M69.023,100.105c0.925-0.631,1.794-1.34,2.668-2.042c0.702-0.563,0.583-1.747,0-2.33c-0.687-0.687-1.63-0.562-2.33,0
			c-0.656,0.526-1.307,1.052-2.001,1.527C65.615,98.449,67.261,101.307,69.023,100.105L69.023,100.105z"/>
	</g>
	<g>
		<path d="M177.682,105.164c-0.186,0.061-0.373,0.122-0.558,0.183c0.267,0.458,0.535,0.919,0.802,1.377
			c-0.396,0.435,0.461-0.082,1.041-0.336c1.322-0.579,2.619-1.215,3.916-1.85c3.803-1.862,7.571-3.792,11.346-5.712
			c11.099-5.643,22.51-10.631,33.518-16.459c0.939-0.497,0.107-1.919-0.831-1.422c-11.007,5.828-22.42,10.816-33.519,16.459
			c-3.774,1.92-7.545,3.841-11.345,5.712c-1.724,0.848-4.479,1.559-5.29,2.444c-0.529,0.576-0.023,1.648,0.801,1.377
			c0.185-0.061,0.371-0.122,0.557-0.184C179.122,106.422,178.691,104.831,177.682,105.164L177.682,105.164z"/>
	</g>
	<g>
		<path d="M179.55,114.084c18.897-8.074,36.878-18.166,56.03-25.661c0.979-0.383,0.553-1.978-0.438-1.59
			c-19.287,7.548-37.395,17.696-56.424,25.829C177.745,113.079,178.585,114.497,179.55,114.084L179.55,114.084z"/>
	</g>
	<g>
		<path d="M179.55,122.734c17.743-8.828,36.063-16.381,54.589-23.396c0.984-0.374,0.559-1.966-0.438-1.59
			c-18.659,7.065-37.113,14.671-54.981,23.563C177.768,121.785,178.604,123.206,179.55,122.734L179.55,122.734z"/>
	</g>
	<g>
		<path d="M106.435,162.896c17.368-11.895,36.369-20.983,54.991-30.688c0.943-0.491,0.109-1.914-0.83-1.423
			c-18.623,9.703-37.625,18.794-54.991,30.688C104.733,162.068,105.557,163.499,106.435,162.896L106.435,162.896z"/>
	</g>
	<g>
		<path d="M104.375,155.275c19.083-11.594,39.861-20.012,59.109-31.305c0.916-0.537,0.088-1.962-0.83-1.423
			c-19.25,11.292-40.027,19.709-59.109,31.306C102.638,154.404,103.465,155.83,104.375,155.275L104.375,155.275z"/>
	</g>
	<g>
		<path d="M101.09,150.829c3.373-1.345,6.278-3.69,9.258-5.718c5.11-3.479,10.634-6.465,15.936-9.646
			c10.974-6.583,22.024-13.038,33.288-19.115c0.937-0.505,0.104-1.928-0.83-1.422c-10.327,5.57-20.467,11.463-30.543,17.473
			c-5.046,3.009-10.074,6.048-15.106,9.084c-4.097,2.47-7.982,5.978-12.441,7.754C99.677,149.628,100.102,151.221,101.09,150.829
			L101.09,150.829z"/>
	</g>
	<g>
		<path d="M49.378,119.027c8.524,3.894,14.901,11.158,21.416,17.684c7.305,7.316,14.375,14.864,21.05,22.762
			c0.687,0.812,1.846-0.359,1.165-1.164c-6.676-7.9-13.762-15.425-21.05-22.763c-6.587-6.632-13.104-13.991-21.751-17.94
			C49.25,117.167,48.413,118.586,49.378,119.027L49.378,119.027z"/>
	</g>
	<g>
		<path d="M53.282,127.762c2.005,0.635,3.809,1.719,5.403,3.082c0.803,0.688,1.974-0.473,1.165-1.164
			c-1.815-1.554-3.846-2.783-6.131-3.509C52.704,125.85,52.273,127.441,53.282,127.762L53.282,127.762z"/>
	</g>
</g>
</svg>
