<?xml version="1.0" encoding="utf-8"?>
<!-- Generator: Adobe Illustrator 15.1.0, SVG Export Plug-In . SVG Version: 6.00 Build 0)  -->
<!DOCTYPE svg PUBLIC "-//W3C//DTD SVG 1.1//EN" "http://www.w3.org/Graphics/SVG/1.1/DTD/svg11.dtd">
<svg version="1.1" id="Layer_1" xmlns="http://www.w3.org/2000/svg" xmlns:xlink="http://www.w3.org/1999/xlink" x="0px" y="0px"
	 width="290px" height="233px" viewBox="0 0 290 233" enable-background="new 0 0 290 233" xml:space="preserve">
<g>
	<g>
		<path d="M117.063,65.202C105.837,80.177,98.049,98.586,90.916,115.8c-9.111,21.993-15.705,44.569-18.876,68.187
			c-0.772,5.755,8.264,5.681,9.026,0c2.906-21.625,9.136-42.477,17.267-62.68c7.056-17.532,15.143-36.365,26.527-51.55
			C128.354,65.094,120.512,60.604,117.063,65.202L117.063,65.202z"/>
	</g>
	<g>
		<path d="M171.928,72.927c6.215,6.657,12.76,12.017,18.309,19.485c6.779,9.125,12.309,19.145,17.222,29.372
			c10.171,21.167,16.433,44.276,20.11,67.407c0.914,5.734,9.611,3.293,8.707-2.4c-3.68-23.139-10.231-45.55-19.805-66.938
			c-5.041-11.264-11.266-21.964-18.438-31.997c-5.835-8.158-13.007-14.118-19.722-21.312
			C174.331,62.282,167.961,68.678,171.928,72.927L171.928,72.927z"/>
	</g>
	<g>
		<path d="M72.201,185.188c1.844,10.365,11.417,14.984,20.618,17.73c14.036,4.188,29.42,5.219,43.937,5.959
			c32.812,1.676,68.872,1.438,97.444-16.988c4.872-3.144,0.353-10.961-4.556-7.797c-24.556,15.838-53.942,16.562-82.225,16.1
			c-14.346-0.237-28.583-1.352-42.714-3.871c-8.42-1.502-22.002-3.428-23.803-13.534C79.886,177.062,71.188,179.497,72.201,185.188
			L72.201,185.188z"/>
	</g>
	<g>
		<path d="M124.743,63.923c-2.722-6.75-7.417-12.045-11.248-18.156c-1.16-1.847-3.909-12.503,0.099-7.196
			c2.087,2.764,4.011,5.532,6.533,7.932c4.08,3.878,9.205,3.638,13.05-0.205c1.67-1.669,3.272-7.004,5.663-3.536
			c1.819,2.641,4.418,3.059,7.395,3.054c7.189-0.011,8.75-8.902,13.949-11.945c2.369-0.34,2.512-0.821,0.43-1.442
			c-0.209,1.456-1.004,2.972-1.532,4.327c-0.892,2.279-1.599,4.798-0.651,7.158c2.079,5.19,8.125,3.796,12.035,1.66
			c0.717-0.513,1.419-1.042,2.111-1.586c0.451-0.363,0.904-0.727,1.355-1.089c3.053-1.308,2.658-2.603-1.186-3.884
			c-2.327,2.306-4.281,4.023-5.363,7.18c-1.05,3.062,1.646,5.371,4.352,5.714c2.047,0.261,4.281-0.402,6.27-0.833
			c1.428-0.31,2.854-0.625,4.286-0.91c4.959-0.98-0.425-3.506-2.142-1.743c-4.963,5.101-13.306,9.897-12.25,18.153
			c0.726,5.693,9.762,5.764,9.025,0c-1.023-8.023,19.141-13.312,13.702-22.6c-3.999-6.823-13.297-0.384-18.894-1.094
			c1.451,1.904,2.902,3.808,4.352,5.713c1.818-5.301,11.904-8.951,4.552-15.516c-2.124-1.897-5.487-1.721-7.854-0.321
			c-1.334,0.788-2.577,1.638-3.788,2.604c-1.019,0.822-2.046,1.627-3.087,2.417c0.763,3.378,1.389,3.836,1.877,1.375
			c1.887-5.253,3.783-14.058-4.324-14.91c-7.625-0.801-13.077,5.381-16.581,11.253c-1.777,2.976-1.675-0.104-3.096-1.224
			c-1.915-1.509-3.018-2.363-5.363-2.978c-3.339-0.876-6.357,1.578-8.388,3.879c-1.114,1.26-1.998,2.759-2.913,4.163
			c-1.059,1.622-5.395-4.855-5.731-5.323c-1.913-2.648-4.339-5.386-7.53-6.47c-8.489-2.888-12.09,4.988-11.799,12.251
			c0.423,10.55,10.277,17.345,13.982,26.528C118.188,71.651,126.924,69.326,124.743,63.923L124.743,63.923z"/>
	</g>
	<g>
		<path d="M172.273,111.931c-10.826-5.143-23.998-0.325-30.792,9.168c-5.792,8.094,0.136,14.405,8.666,14.531
			c10.08,0.148,19.688-4.811,30-3.376c10.193,1.417-6.488,11.698-9.404,13.099c-8.154,3.924-18.404,7.25-27.399,5.119
			c-3.396-0.807-4.838,4.416-1.439,5.221c11.923,2.826,24.618-1.988,35.153-7.453c6.254-3.244,16.756-11.057,10.045-18.695
			c-5.326-6.057-19.264-2.385-25.828-1.262c-4.769,0.816-9.758,2.475-14.629,1.688c-5.559-0.898,1.219-8.293,2.528-9.564
			c4.978-4.821,14.125-6.766,20.368-3.8C172.678,118.098,175.428,113.427,172.273,111.931L172.273,111.931z"/>
	</g>
	<g>
		<path d="M149.543,101.631c0.771,11.705,5.125,22.523,7.921,33.816c3.24,13.082,5.735,26.341,9.026,39.416
			c0.852,3.387,6.074,1.949,5.222-1.439c-3.015-11.979-5.596-24.052-8.28-36.105c-2.656-11.922-7.666-23.417-8.474-35.688
			C154.73,98.165,149.314,98.142,149.543,101.631L149.543,101.631z"/>
	</g>
	<g>
		<path d="M159.172,99.524c3.069,23.356,12.282,46.516,18.15,69.322c0.869,3.381,6.093,1.946,5.222-1.438
			c-2.774-10.784-5.724-21.518-8.729-32.238c-3.279-11.689-7.642-23.582-9.227-35.645C164.141,96.112,158.718,96.069,159.172,99.524
			L159.172,99.524z"/>
	</g>
	<g>
		<path d="M137.304,63.234c0.496,2.921,1.372,5.759,1.4,8.743c0.023,2.657-2.35,2.047-3.521,0.328
			c-1.929-2.835-1.257-10.434,3.591-8.129c3.136,1.492,5.887-3.177,2.733-4.676c-4.383-2.084-9.074-1.334-11.451,3.212
			c-2.01,3.844-1.742,9.104,0.696,12.689c2.514,3.693,9.367,5.834,12.179,1.227c2.676-4.388,0.378-10.213-0.406-14.833
			C141.942,58.357,136.724,59.819,137.304,63.234L137.304,63.234z"/>
	</g>
	<g>
		<path d="M131.833,59.904c-7.029-1.811-11.668,3.531-11.269,10.312c0.347,5.901,5.247,12.288,11.465,8.177
			c2.898-1.917,0.19-6.607-2.733-4.676c-0.615,0.408-1.077,0.602-1.502,0.594c0.498,0.009-0.384-0.22,0.026-0.019
			c-0.291-0.141-0.236-0.122-0.587-0.487c-0.697-0.726-1.145-2.387-1.254-3.589c-0.291-3.234,0.868-6.003,4.415-5.09
			C133.78,65.997,135.215,60.773,131.833,59.904L131.833,59.904z"/>
	</g>
	<g>
		<path d="M141.414,75.767c9.708-0.96,19.458-0.947,29.191-1.518c3.472-0.205,3.49-5.621,0-5.416
			c-9.733,0.571-19.483,0.557-29.191,1.518C137.972,70.692,137.939,76.111,141.414,75.767L141.414,75.767z"/>
	</g>
	<g>
		<path d="M140.552,66.803c10.241-0.728,20.499,0.254,30.731-0.677c3.449-0.314,3.479-5.733,0-5.416
			c-10.232,0.931-20.49-0.051-30.731,0.677C137.089,61.633,137.064,67.051,140.552,66.803L140.552,66.803z"/>
	</g>
	<g>
		<path d="M129.181,76.689c-4.799,16.047-7.618,33.099-10.335,49.614c-1.583,9.625-6.967,23.506,6.811,25.704
			c1.471,0.234,2.89-0.356,3.331-1.892c3.261-11.336,3.082-23.17,3.905-34.851c0.991-14.046,2.183-28.053,2.285-42.144
			c0.025-3.494-5.391-3.49-5.416,0c-0.093,12.911-1.062,25.763-2.028,38.631c-0.922,12.292-0.54,25-3.968,36.925
			c1.111-0.631,2.22-1.262,3.331-1.892c-8.279-1.322-4.633-10.478-3.524-15.853c1.31-6.336,2.133-12.793,3.399-19.146
			c2.239-11.245,4.147-22.666,7.433-33.658C135.405,74.775,130.178,73.351,129.181,76.689L129.181,76.689z"/>
	</g>
	<g>
		<path d="M123.135,77.17c-6.607,14.346-8.899,29.182-12.364,44.413c-0.693,3.046,0.727,5.649,3.828,6.504
			c4.707,1.295,7.961-1.362,10.278-5.081c1.853-2.972-2.834-5.689-4.675-2.732c-1.284,0.395-2.569,0.787-3.853,1.183
			c0.277-1.878,0.581-3.751,0.91-5.623c0.661-3.917,1.518-7.797,2.409-11.669c1.917-8.323,4.57-16.5,8.143-24.26
			C129.261,76.754,124.595,74.001,123.135,77.17L123.135,77.17z"/>
	</g>
	<g>
		<path d="M159.994,38.281c-2.357,5.264-4.715,10.53-7.071,15.796c-1.414,3.159,3.251,5.917,4.675,2.732
			c2.357-5.264,4.715-10.53,7.071-15.796C166.085,37.854,161.418,35.097,159.994,38.281L159.994,38.281z"/>
	</g>
	<g>
		<path d="M117.634,43.499c4.235,4.617,8.486,9.219,12.694,13.859c2.351,2.594,6.169-1.25,3.829-3.829
			c-4.208-4.641-8.458-9.244-12.693-13.859C119.098,37.09,115.279,40.93,117.634,43.499L117.634,43.499z"/>
	</g>
	<g>
		<path d="M119.45,37.708c1.853,0.58,3.353-0.481,4.43-1.892c0.517-0.677,0.961-1.4,1.446-2.098
			c0.779-1.122,0.034,0.093-0.597-0.761c0.911,1.235,1.108,2.958,1.921,4.279c1.148,1.862,3.021,2.703,5.141,2.824
			c3.491,0.199,3.472-5.217,0-5.416c-0.933-0.053-1.213-1.749-1.474-2.449c-0.577-1.539-1.336-2.971-2.824-3.792
			c-1.735-0.961-3.853-0.508-5.29,0.767c-0.712,0.631-1.269,1.403-1.811,2.183c-0.25,0.36-0.484,0.732-0.728,1.097
			c-0.635,0.951-0.083-0.374,1.224,0.036C117.546,31.44,116.128,36.669,119.45,37.708L119.45,37.708z"/>
	</g>
	<g>
		<path d="M140.717,37.096c1.825-1.345,2.659-3.052,3.441-5.135c0.309-0.818,0.915-3.909,2.039-2.692
			c1.258,1.357,1.762,3.3,3.482,4.269c2.094,1.177,4.154,0.775,6.156-0.39c3.018-1.752,0.292-6.435-2.732-4.675
			c-1.037,0.601-0.44,0.735-0.965,0.012c-0.631-0.873-1.141-1.814-1.811-2.662c-1.299-1.648-3.112-2.556-5.233-2.315
			c-2.248,0.255-3.805,1.722-4.827,3.664c-0.71,1.353-1.024,4.319-2.285,5.25C135.206,34.469,137.901,39.172,140.717,37.096
			L140.717,37.096z"/>
	</g>
	<g>
		<path d="M92.707,174.809c-1.848,4.836-2.375,11.391,3.124,13.957c1.048,0.49,1.964-1.065,0.91-1.559
			c-4.756-2.221-3.847-7.852-2.292-11.919C94.865,174.197,93.12,173.732,92.707,174.809L92.707,174.809z"/>
	</g>
	<g>
		<path d="M211.559,175.889c2.248,6.532-2.978,12.23-9.359,13c-1.141,0.137-1.155,1.945,0,1.805
			c7.468-0.902,13.758-7.56,11.102-15.284C212.923,174.314,211.18,174.786,211.559,175.889L211.559,175.889z"/>
	</g>
</g>
</svg>
