<?xml version="1.0" encoding="utf-8"?>
<!-- Generator: Adobe Illustrator 15.1.0, SVG Export Plug-In . SVG Version: 6.00 Build 0)  -->
<!DOCTYPE svg PUBLIC "-//W3C//DTD SVG 1.1//EN" "http://www.w3.org/Graphics/SVG/1.1/DTD/svg11.dtd">
<svg version="1.1" id="Layer_1" xmlns="http://www.w3.org/2000/svg" xmlns:xlink="http://www.w3.org/1999/xlink" x="0px" y="0px"
	 width="290px" height="233px" viewBox="0 0 290 233" enable-background="new 0 0 290 233" xml:space="preserve">
<g>
	<g>
		<path d="M105.677,137.182c9.394-3.798,18.357-10.393,27.305-15.271c12.739-6.947,25.493-13.862,38.193-20.88
			c24.578-13.582,49.964-25.754,74.397-39.547c3.207-1.808,0.33-6.74-2.879-4.928c-23.371,13.194-47.67,24.804-71.188,37.773
			c-12.765,7.04-25.505,14.123-38.355,21.006c-9.491,5.084-19.089,12.34-28.989,16.343
			C100.794,133.04,102.264,138.562,105.677,137.182L105.677,137.182z"/>
	</g>
	<g>
		<path d="M240.189,59.132c-3.125,9.548-3.56,26.525,4.461,33.931c2.699,2.493,6.744-1.533,4.037-4.036
			c-6.43-5.938-5.477-20.794-2.994-28.379C246.842,57.141,241.33,55.65,240.189,59.132L240.189,59.132z"/>
	</g>
	<g>
		<path d="M102.901,136.447c6.574,5.119,4.422,16.072,5.197,23.406c0.383,3.621,6.094,3.66,5.708,0
			c-0.946-8.94,1.214-21.151-6.869-27.442C104.069,130.178,99.999,134.188,102.901,136.447L102.901,136.447z"/>
	</g>
	<g>
		<path d="M113.025,163.904c21.441-13.061,44.856-23.733,67.27-35.057c23.001-11.619,46.26-22.727,69.4-34.07
			c3.306-1.62,0.41-6.542-2.881-4.927c-23.142,11.341-46.375,22.493-69.399,34.068c-22.427,11.274-45.838,22-67.269,35.06
			C107.007,160.887,109.874,165.826,113.025,163.904L113.025,163.904z"/>
	</g>
	<g>
		<path d="M245.398,92.63c-1.498,11.378-3.129,20.518,3.562,30.612c2.022,3.052,6.968,0.197,4.927-2.881
			c-6.07-9.161-4.134-17.459-2.781-27.731C251.585,88.988,245.872,89.035,245.398,92.63L245.398,92.63z"/>
	</g>
	<g>
		<path d="M108.614,164.094c6.172,6.715,8.438,17.924,6.561,26.713c-0.767,3.59,4.734,5.115,5.503,1.516
			c2.323-10.875-0.403-23.969-8.028-32.266C110.155,157.341,106.128,161.389,108.614,164.094L108.614,164.094z"/>
	</g>
	<g>
		<path d="M119.634,195.902c10.191-3.508,18.847-9.952,28.292-14.99c11.709-6.247,23.516-12.311,35.301-18.41
			c23.525-12.175,46.965-24.516,69.637-38.234c3.145-1.904,0.277-6.84-2.879-4.929c-21.641,13.093-43.98,24.927-66.426,36.569
			c-10.709,5.555-21.436,11.08-32.115,16.689c-11.002,5.778-21.548,13.748-33.324,17.801
			C114.658,191.589,116.145,197.104,119.634,195.902L119.634,195.902z"/>
	</g>
	<g>
		<path d="M57.85,91.291c38.944-22.563,80.896-38.899,120.855-59.458c3.273-1.684,0.387-6.609-2.879-4.927
			C135.864,47.464,93.912,63.8,54.97,86.363C51.787,88.206,54.66,93.139,57.85,91.291L57.85,91.291z"/>
	</g>
	<g>
		<path d="M54.393,90.845c15.382,15.927,32.252,30.577,48.508,45.602c2.698,2.494,6.745-1.532,4.036-4.035
			c-16.256-15.025-33.125-29.677-48.508-45.603C55.868,84.158,51.835,88.199,54.393,90.845L54.393,90.845z"/>
	</g>
	<g>
		<path d="M176.508,32.121c21.762,9.143,43.521,18.286,65.283,27.429c3.391,1.425,4.857-4.101,1.516-5.503
			c-21.761-9.144-43.521-18.286-65.283-27.43C174.633,25.192,173.167,30.718,176.508,32.121L176.508,32.121z"/>
	</g>
	<g>
		<path d="M52.677,91.216c3.993,9.186,10.875,19.042,9.225,29.513c-0.567,3.599,4.931,5.145,5.503,1.516
			c1.953-12.393-5.056-22.993-9.801-33.908C56.141,84.968,51.224,87.877,52.677,91.216L52.677,91.216z"/>
	</g>
	<g>
		<path d="M62.192,124.193c3.612,6.336,7.867,15.519,5.103,22.854c-1.301,3.45,4.218,4.927,5.503,1.517
			c3.315-8.797-1.328-19.621-5.678-27.25C65.299,118.116,60.366,120.992,62.192,124.193L62.192,124.193z"/>
	</g>
	<g>
		<path d="M69.875,150.587c7.222,4.681,16.222,15.894,23.177,22.822c7.271,7.239,14.524,14.493,21.768,21.759
			c2.602,2.609,6.637-1.427,4.036-4.035c-7.666-7.691-15.349-15.365-23.041-23.029c-7.185-7.156-14.489-16.89-23.06-22.443
			C69.656,143.65,66.798,148.594,69.875,150.587L69.875,150.587z"/>
	</g>
	<g>
		<path d="M62.081,123.029c13.723,16.848,29.875,31.332,46.138,45.662c2.75,2.424,6.802-1.598,4.036-4.035
			c-16.261-14.331-32.415-28.814-46.138-45.663C63.79,116.138,59.776,120.201,62.081,123.029L62.081,123.029z"/>
	</g>
	<g>
		<path d="M167.712,98.022c0.282,4.266,1.812,8.093,2.956,12.173c1.311,4.669,1.193,9.589,2.537,14.269
			c1.012,3.532,6.521,2.029,5.503-1.517c-1.173-4.088-1.423-8.308-2.127-12.485c-0.718-4.256-2.873-8.091-3.161-12.44
			C173.178,94.37,167.469,94.345,167.712,98.022L167.712,98.022z"/>
	</g>
	<g>
		<path d="M182.717,90.218c2.364,9.337,6.264,18.45,7.192,28.096c0.35,3.631,6.062,3.664,5.708,0
			c-0.983-10.211-4.896-19.735-7.396-29.612C187.316,85.135,181.814,86.649,182.717,90.218L182.717,90.218z"/>
	</g>
	<g>
		<path d="M174.688,127.195c0.449,10.468,6.828,19.923,6.024,30.441c-0.28,3.672,5.429,3.645,5.708,0
			c0.814-10.677-5.574-19.943-6.023-30.441C180.238,123.529,174.531,123.512,174.688,127.195L174.688,127.195z"/>
	</g>
	<g>
		<path d="M189.909,119.584c-0.037,5.544,0.991,10.891,2,16.322c0.933,5.027,0.782,10.281,2.224,15.195
			c1.033,3.525,6.542,2.023,5.504-1.516c-1.224-4.166-1.201-8.682-1.838-12.973c-0.849-5.713-2.22-11.209-2.181-17.029
			C195.641,115.902,189.934,115.905,189.909,119.584L189.909,119.584z"/>
	</g>
	<g>
		<path d="M115.275,59.768c17.651,14.164,35.304,28.327,52.958,42.491c2.84,2.28,6.908-1.732,4.035-4.036
			c-17.65-14.164-35.304-28.327-52.957-42.491C116.47,53.452,112.403,57.463,115.275,59.768L115.275,59.768z"/>
	</g>
	<g>
		<path d="M132.025,54.822c7.267,3.759,13.834,9.403,20.36,14.273c9.893,7.381,19.684,14.916,29.312,22.638
			c2.841,2.279,6.908-1.733,4.035-4.036c-8.758-7.025-17.666-13.867-26.621-20.641c-7.723-5.842-15.561-12.692-24.207-17.162
			C131.64,48.206,128.753,53.131,132.025,54.822L132.025,54.822z"/>
	</g>
	<g>
		<path d="M174.688,51.884c0.092-1.438,3.547-1.741,4.387-1.813c2.182-0.192,3.337,1.471,4.047,3.304
			c1.229,3.169,0.374,7.292-2.734,8.918c-1.533,0.801-1.031,3,0.454,3.477c6.478,2.081,13.597,2.084,19.978,4.439
			c2.309,0.853,3.293-2.826,1.011-3.667c-6.38-2.356-13.498-2.36-19.978-4.439c0.152,1.157,0.303,2.317,0.455,3.476
			c5.639-2.947,7.079-12.475,2.373-17.025c-3.75-3.625-13.385-3.025-13.798,3.332C170.723,54.335,174.529,54.32,174.688,51.884
			L174.688,51.884z"/>
	</g>
	<g>
		<path d="M171.367,57.967c5.902-3.822,12.186-7.059,17.508-11.712c1.852-1.619-0.852-4.298-2.689-2.691
			c-5.067,4.429-11.119,7.479-16.74,11.119C167.395,56.011,169.3,59.305,171.367,57.967L171.367,57.967z"/>
	</g>
	<g>
		<path d="M175.805,61.613c6.195-4.248,12.651-8.081,19.026-12.049c2.077-1.293,0.168-4.585-1.921-3.285
			c-6.373,3.968-12.83,7.801-19.026,12.049C171.874,59.704,173.773,63.004,175.805,61.613L175.805,61.613z"/>
	</g>
	<g>
		<path d="M222.65,57.991c-0.258,0.252-0.402,0.359-0.727,0.496c-0.955,0.405-1.154,1.795-0.682,2.604
			c0.574,0.979,1.648,1.087,2.604,0.681c0.575-0.243,1.053-0.653,1.495-1.09C227.092,58.958,224.398,56.267,222.65,57.991
			L222.65,57.991z"/>
	</g>
	<g>
		<path d="M214.156,63.402c-0.633,0.325-1.07,0.735-1.475,1.315c-0.596,0.853-0.158,2.11,0.682,2.603
			c0.949,0.556,2.011,0.165,2.603-0.682c-0.196,0.217-0.159,0.232,0.112,0.048C218.262,65.564,216.334,62.282,214.156,63.402
			L214.156,63.402z"/>
	</g>
	<g>
		<path d="M160.744,47.503c0.734-0.433,1.484-0.834,2.218-1.269c2.108-1.248,0.198-4.538-1.921-3.285
			c-0.734,0.433-1.484,0.834-2.219,1.27C156.714,45.465,158.626,48.755,160.744,47.503L160.744,47.503z"/>
	</g>
	<g>
		<path d="M173.587,40.051c0.541-0.234,1.083-0.481,1.585-0.793c2.079-1.292,0.169-4.584-1.921-3.285
			c-0.502,0.312-1.042,0.559-1.585,0.793c-0.951,0.412-1.158,1.791-0.682,2.603C171.555,40.342,172.635,40.463,173.587,40.051
			L173.587,40.051z"/>
	</g>
	<g>
		<path d="M105.926,79.937c-15.648,2.52-5.972,29.553,7.325,29.451c9.572-0.075,14.611-11.384,12.987-19.55
			c-2.094-10.537-15.269-13.911-23.383-8.521c-2.032,1.351-0.13,4.647,1.921,3.285c7.118-4.728,17.14-0.947,18.067,8.012
			c0.684,6.622-5.215,14.607-12.356,12.599c-7.179-2.021-13.73-19.968-3.55-21.608C109.355,83.216,108.325,79.55,105.926,79.937
			L105.926,79.937z"/>
	</g>
	<g>
		<path d="M108.581,125.031c6.681-2.832,12.522-7.039,18.221-11.474c1.934-1.504-0.778-4.179-2.69-2.69
			c-5.44,4.233-11.079,8.177-17.453,10.881C104.408,122.702,106.35,125.979,108.581,125.031L108.581,125.031z"/>
	</g>
	<g>
		<path d="M141.639,105.53c0.626-0.408,1.276-0.78,1.902-1.188c2.045-1.334,0.142-4.63-1.921-3.285
			c-0.626,0.408-1.276,0.78-1.902,1.188C137.672,103.579,139.576,106.875,141.639,105.53L141.639,105.53z"/>
	</g>
	<g>
		<path d="M149.953,100.558c0.08,0,0.158,0,0.238,0c2.455,0,2.455-3.805,0-3.805c-0.08,0-0.158,0-0.238,0
			C147.499,96.753,147.499,100.558,149.953,100.558L149.953,100.558z"/>
	</g>
	<g>
		<path d="M80.042,90.785c2.86-1.652,5.805-3.129,8.8-4.519c2.225-1.031,0.29-4.31-1.921-3.285c-2.995,1.39-5.94,2.867-8.8,4.519
			C75.997,88.727,77.913,92.015,80.042,90.785L80.042,90.785z"/>
	</g>
	<g>
		<path d="M112.148,72.235c0.931-0.442,1.921-0.747,2.854-1.189c0.937-0.444,1.173-1.767,0.682-2.603
			c-0.558-0.952-1.665-1.126-2.604-0.682c-0.931,0.442-1.921,0.747-2.854,1.189c-0.936,0.444-1.172,1.767-0.682,2.603
			C110.103,72.504,111.21,72.679,112.148,72.235L112.148,72.235z"/>
	</g>
	<g>
		<path d="M110.093,146.186c21.233-11.635,41.888-24.291,63.175-35.833c1.615-0.877,0.176-3.341-1.441-2.464
			c-21.286,11.542-41.939,24.197-63.174,35.834C107.039,144.605,108.479,147.07,110.093,146.186L110.093,146.186z"/>
	</g>
	<g>
		<path d="M189.678,101.552c14.941-7.3,30.137-14.075,44.947-21.642c1.639-0.838,0.193-3.299-1.441-2.463
			c-14.812,7.567-30.004,14.342-44.949,21.642C186.582,99.897,188.029,102.356,189.678,101.552L189.678,101.552z"/>
	</g>
	<g>
		<path d="M112.384,151.732c20.69-11.416,41.382-22.832,62.072-34.246c1.61-0.888,0.17-3.354-1.442-2.464
			c-20.691,11.416-41.382,22.832-62.072,34.248C109.331,150.156,110.771,152.624,112.384,151.732L112.384,151.732z"/>
	</g>
	<g>
		<path d="M192.293,109.638c12.713-7.307,26.074-13.318,39.241-19.739c1.653-0.807,0.207-3.266-1.442-2.464
			c-13.166,6.42-26.527,12.432-39.24,19.74C189.257,108.09,190.693,110.558,192.293,109.638L192.293,109.638z"/>
	</g>
	<g>
		<path d="M117.854,172.186c17.439-9.513,34.88-19.025,52.322-28.539c1.614-0.881,0.174-3.347-1.441-2.463
			c-17.439,9.512-34.881,19.025-52.321,28.539C114.798,170.604,116.238,173.068,117.854,172.186L117.854,172.186z"/>
	</g>
	<g>
		<path d="M119.519,181.699c17.033-11.053,35.508-19.582,52.797-30.204c1.563-0.96,0.131-3.431-1.442-2.464
			c-17.289,10.621-35.763,19.15-52.797,30.203C116.541,180.232,117.97,182.704,119.519,181.699L119.519,181.699z"/>
	</g>
	<g>
		<path d="M196.1,132.074c12.682-6.369,25.366-12.736,38.051-19.106c1.645-0.825,0.199-3.287-1.441-2.464
			c-12.684,6.368-25.368,12.737-38.052,19.105C193.012,130.436,194.458,132.896,196.1,132.074L196.1,132.074z"/>
	</g>
	<g>
		<path d="M196.232,140.462c15.017-5.944,29.34-13.333,43.625-20.835c1.629-0.855,0.187-3.319-1.441-2.464
			c-14.064,7.385-28.154,14.69-42.941,20.546C193.783,138.38,194.52,141.141,196.232,140.462L196.232,140.462z"/>
	</g>
	<g>
		<path d="M76.33,126.777c11.098,10.621,22.196,21.246,33.293,31.867c1.329,1.272,3.35-0.744,2.018-2.018
			c-11.097-10.622-22.195-21.246-33.293-31.868C77.019,123.486,74.998,125.501,76.33,126.777L76.33,126.777z"/>
	</g>
	<g>
		<path d="M73.636,117.264c11.096,9.811,22.193,19.623,33.29,29.434c1.373,1.215,3.399-0.797,2.018-2.018
			c-11.096-9.811-22.194-19.623-33.29-29.433C74.281,114.032,72.255,116.043,73.636,117.264L73.636,117.264z"/>
	</g>
	<g>
		<path d="M81.989,151.352c6.643,6.213,13.462,12.242,20.268,18.274c4.335,3.843,8.859,9.138,13.952,11.995
			c1.607,0.9,3.045-1.562,1.442-2.465c-5.334-2.992-10.073-8.622-14.607-12.641c-6.396-5.67-12.794-11.344-19.036-17.182
			C82.666,148.079,80.642,150.094,81.989,151.352L81.989,151.352z"/>
	</g>
</g>
</svg>
