<?xml version="1.0" encoding="utf-8"?>
<!-- Generator: Adobe Illustrator 15.1.0, SVG Export Plug-In . SVG Version: 6.00 Build 0)  -->
<!DOCTYPE svg PUBLIC "-//W3C//DTD SVG 1.1//EN" "http://www.w3.org/Graphics/SVG/1.1/DTD/svg11.dtd">
<svg version="1.1" id="Layer_1" xmlns="http://www.w3.org/2000/svg" xmlns:xlink="http://www.w3.org/1999/xlink" x="0px" y="0px"
	 width="290px" height="233px" viewBox="0 0 290 233" enable-background="new 0 0 290 233" xml:space="preserve">
<g>
	<g>
		<path d="M74.872,56.483c-0.016,39.147-0.54,78.292-0.556,117.44c-0.002,3.589,5.564,3.589,5.566,0
			c0.016-39.147,0.54-78.293,0.556-117.44C80.44,52.894,74.874,52.894,74.872,56.483L74.872,56.483z"/>
	</g>
	<g>
		<path d="M191.146,155.422c0,6.682,0,13.361,0,20.042c0,3.589,5.566,3.589,5.566,0c0-6.681,0-13.36,0-20.042
			C196.713,151.833,191.146,151.833,191.146,155.422L191.146,155.422z"/>
	</g>
	<g>
		<path d="M191.146,102.402c0,11.85,0,23.698,0,35.549c0,3.589,5.566,3.589,5.566,0c0-11.852,0-23.699,0-35.549
			C196.713,98.812,191.146,98.812,191.146,102.402L191.146,102.402z"/>
	</g>
	<g>
		<path d="M191.146,59.303c0,4.956,0,9.909,0,14.865c0,3.589,5.566,3.589,5.566,0c0-4.956,0-9.91,0-14.865
			C196.713,55.713,191.146,55.713,191.146,59.303L191.146,59.303z"/>
	</g>
	<g>
		<path d="M75.694,176.326c15.543,9.714,35.614,12.162,53.54,13.512c22.793,1.715,45.37-2.447,66.1-11.972
			c3.26-1.497,0.43-6.294-2.809-4.806c-19.051,8.75-39.174,12.121-60.06,11.387c-17.6-0.615-38.727-3.407-53.964-12.928
			C75.45,169.613,72.658,174.43,75.694,176.326L75.694,176.326z"/>
	</g>
	<g>
		<path d="M77.534,59.026c17.228,5.24,36.513,5.947,54.384,7.025c21.012,1.269,42.139,0.359,62.751-4.062
			c3.511-0.752,2.022-6.117-1.479-5.367c-19.071,4.088-38.371,4.831-57.809,4.037c-18.411-0.75-38.676-1.62-56.37-7.001
			C75.569,52.611,74.109,57.984,77.534,59.026L77.534,59.026z"/>
	</g>
	<g>
		<path d="M78.273,57.701c3.589,0,3.589-5.566,0-5.566C74.683,52.135,74.683,57.701,78.273,57.701L78.273,57.701z"/>
	</g>
	<g>
		<path d="M78.394,57.602c20.736-7.755,42.963-10.02,64.962-8.804c15.686,0.868,35.608,3.017,49.169,11.886
			c3.014,1.972,5.8-2.85,2.809-4.805c-13.809-9.033-32.811-10.99-48.811-12.417c-23.266-2.076-47.674,0.569-69.607,8.773
			C73.585,53.479,75.026,58.863,78.394,57.602L78.394,57.602z"/>
	</g>
	<g>
		<path d="M192.488,75c-5.998,2.46-9.239,10.939-10.016,16.833c-0.896,6.822,2.922,18.288,11.854,14.97
			c3.336-1.237,1.894-6.619-1.479-5.367c-6.746,2.504-4.572-11.296-3.966-13.391c0.46-1.585,3.302-6.947,5.084-7.679
			C197.24,79.024,195.809,73.637,192.488,75L192.488,75z"/>
	</g>
	<g>
		<path d="M194.404,135.314c-9.151-4.375-12.635,12.037-9.17,17.951c3.172,5.412,11.137,4.205,16.035,2.822
			c9.166-2.588,15.336-11.548,19.778-19.307c5.167-9.021,8.009-19.236,10.267-29.303c2.002-8.931,4.201-21.015,0.131-29.675
			c-9.196-19.562-30.678-11.781-42.693,0.419c-2.521,2.558,1.413,6.496,3.936,3.936c8.713-8.844,23.996-17.373,32.883-3.818
			c6.256,9.543,0.811,26.505-1.754,36.467c-2.606,10.14-7.103,20.089-13.644,28.298c-1.786,2.242-20.14,15.314-20.567,5.883
			c-0.041-0.898,1.184-9.256,1.992-8.87C194.818,141.66,197.643,136.861,194.404,135.314L194.404,135.314z"/>
	</g>
	<g>
		<path d="M194.954,104.867c6.185-5.954,8.194-14.665,15.51-19.707c10.103-6.963,9.095,6.561,8.277,12.167
			c-0.681,4.655-1.982,9.157-3.446,13.613c-1.6,4.863-3.506,9.6-5.682,14.231c-1.416,3.017-10.566,17.845-15.025,10.675
			c-1.891-3.041-6.708-0.25-4.806,2.807c5.905,9.498,17.729,0.507,21.815-5.508c6.92-10.181,10.984-23.887,12.758-36.04
			c0.771-5.289,1.854-17.326-5.623-19.015c-14.976-3.383-19.633,15.056-27.715,22.839
			C188.43,103.424,192.37,107.356,194.954,104.867L194.954,104.867z"/>
	</g>
	<g>
		<path d="M182.924,81.974c-3.238,5.229-3.936,11.885-2.146,17.755c1.525,5.003,6.056,7.741,10.74,9.273
			c1.141,0.374,1.625-1.418,0.494-1.79c-4.301-1.406-7.738-3.627-9.445-7.978c-2.01-5.119-0.854-11.781,1.959-16.326
			C185.158,81.889,183.553,80.958,182.924,81.974L182.924,81.974z"/>
	</g>
	<g>
		<path d="M184.652,134.742c-6.346,7.705-3.027,26.165,9.716,23.004c1.161-0.288,0.669-2.078-0.493-1.79
			c-10.914,2.707-13.061-13.649-7.911-19.903C186.718,135.139,185.414,133.818,184.652,134.742L184.652,134.742z"/>
	</g>
	<g>
		<path d="M78.117,62.367c4.302,3.042,11.319,3.299,16.302,4.12c8.232,1.354,16.54,2.23,24.856,2.832
			c17.643,1.279,35.395,0.852,53.009-0.64c1.183-0.1,1.192-1.957,0-1.855c-15.869,1.343-31.782,1.738-47.692,0.962
			c-8.765-0.428-17.507-1.307-26.192-2.551c-5.708-0.819-14.438-0.999-19.348-4.47C78.073,60.073,77.147,61.682,78.117,62.367
			L78.117,62.367z"/>
	</g>
	<g>
		<path d="M75.453,165.818c5.407,4.521,11.952,6.885,18.515,9.201c8.288,2.926,16.681,4.941,25.409,6.002
			c18.194,2.211,36.686-0.463,54.391-4.662c1.162-0.277,0.67-2.065-0.494-1.791c-16.551,3.929-33.391,6.221-50.416,4.939
			c-8.79-0.662-17.428-2.572-25.783-5.345c-7.074-2.347-14.517-4.812-20.31-9.656C75.854,163.744,74.535,165.051,75.453,165.818
			L75.453,165.818z"/>
	</g>
</g>
</svg>
