<?xml version="1.0" encoding="utf-8"?>
<!-- Generator: Adobe Illustrator 15.1.0, SVG Export Plug-In . SVG Version: 6.00 Build 0)  -->
<!DOCTYPE svg PUBLIC "-//W3C//DTD SVG 1.1//EN" "http://www.w3.org/Graphics/SVG/1.1/DTD/svg11.dtd">
<svg version="1.1" id="Layer_1" xmlns="http://www.w3.org/2000/svg" xmlns:xlink="http://www.w3.org/1999/xlink" x="0px" y="0px"
	 width="290px" height="233px" viewBox="0 0 290 233" enable-background="new 0 0 290 233" xml:space="preserve">
<g>
	<g>
		<path d="M138.067,66.531c0,32.158,0,64.314,0,96.472c0,3.278,5.083,3.278,5.083,0c0-32.158,0-64.314,0-96.472
			C143.151,63.253,138.067,63.253,138.067,66.531L138.067,66.531z"/>
	</g>
	<g>
		<g>
			<path d="M71.554,57.797c46.038-0.007,92.073-0.488,138.109-0.495c3.28,0,3.28-5.084,0-5.084
				c-46.036,0.007-92.071,0.488-138.109,0.495C68.275,52.713,68.275,57.797,71.554,57.797L71.554,57.797z"/>
		</g>
		<g>
			<g>
				<path d="M217.308,65.841c-0.005,31.729-0.296,63.455-0.301,95.185c0,3.278,5.083,3.278,5.083,0
					c0.005-31.729,0.296-63.456,0.302-95.185C222.393,62.563,217.308,62.563,217.308,65.841L217.308,65.841z"/>
			</g>
			<g>
				<path d="M61.95,163.003c0-30.551,0-61.1,0-91.651c0-3.279-5.083-3.279-5.083,0c0,30.551,0,61.101,0,91.651
					C56.867,166.282,61.95,166.282,61.95,163.003L61.95,163.003z"/>
			</g>
			<g>
				<path d="M67.601,174.725c46.694,0,93.39,0,140.086,0c3.278,0,3.278-5.084,0-5.084c-46.696,0-93.392,0-140.086,0
					C64.32,169.641,64.32,174.725,67.601,174.725L67.601,174.725z"/>
			</g>
			<g>
				<path d="M203.238,57.302c4.369,0.167,9.817-0.81,13.878,1.11c0.586,0.275,0.222,7.346,0.21,8.898
					c-0.035,4.644-0.119,9.282-0.019,13.928c0.071,3.273,5.155,3.28,5.084,0c-0.123-5.674,0.029-11.344,0.029-17.021
					c0-3.082,0.586-6.979-1.665-9.415c-3.684-3.987-12.739-2.403-17.519-2.585C199.958,52.093,199.972,57.178,203.238,57.302
					L203.238,57.302z"/>
			</g>
			<g>
				<path d="M75.911,52.68c-4.779,0.182-13.835-1.402-17.519,2.584c-2.262,2.45-1.635,6.32-1.664,9.415
					c-0.057,5.674,0.152,11.344,0.029,17.021c-0.071,3.28,5.013,3.273,5.084,0c0.165-7.695-0.265-15.401,0.159-23.089
					c0.057-1.019,12.114-0.779,13.911-0.847C79.178,57.64,79.191,52.554,75.911,52.68L75.911,52.68z"/>
			</g>
			<g>
				<path d="M217.007,155.542c-0.166,4.369,0.808,9.815-1.109,13.878c-0.278,0.584-7.348,0.22-8.9,0.208
					c-4.644-0.033-9.282-0.118-13.927-0.017c-3.273,0.071-3.28,5.155,0,5.083c5.674-0.124,11.346,0.028,17.019,0.03
					c3.083,0,6.98,0.584,9.417-1.667c3.987-3.683,2.403-12.737,2.584-17.517C222.217,152.262,217.133,152.273,217.007,155.542
					L217.007,155.542z"/>
			</g>
			<g>
				<path d="M56.726,155.542c0.182,4.779-1.402,13.833,2.584,17.517c2.45,2.264,6.32,1.635,9.415,1.667
					c5.676,0.054,11.346-0.154,17.021-0.03c3.28,0.071,3.273-5.012,0-5.083c-7.695-0.167-15.402,0.265-23.089-0.161
					c-1.02-0.056-0.78-12.112-0.847-13.909C61.686,152.273,56.602,152.262,56.726,155.542L56.726,155.542z"/>
			</g>
		</g>
	</g>
	<g>
		<path d="M65.147,65.534c0.26,1.86,1.673,3.611,3.695,3.535c2.127-0.082,3.504-1.923,4.031-3.818
			c0.287-1.024-0.152-2.39-1.168-2.87c-1.198-0.568-2.395-0.96-3.725-0.601c-1.188,0.321-2.036,1.308-2.577,2.36
			c-0.634,1.231-0.329,2.75,0.912,3.477c1.147,0.672,2.847,0.319,3.479-0.912c0.086-0.167,0.175-0.329,0.272-0.49
			c0.25-0.414-0.316,0.286-0.388,0.339c-0.116,0.043-0.231,0.084-0.348,0.127c0.262-0.066,0.191-0.056-0.211,0.028
			c-0.371-0.062-0.404-0.056-0.094,0.017c0.26,0.089,0.299,0.103,0.116,0.043c-0.389-0.956-0.78-1.913-1.168-2.87
			c-0.038,0.149-0.083,0.296-0.138,0.442c0.119-0.273,0.116-0.287-0.01-0.04c-0.159,0.241-0.132,0.218,0.076-0.071
			c-0.357,0.425,0.465-0.266,0.033-0.017c0.791-0.458,1.711-0.155,2.224,0.553c-0.124-0.23-0.114-0.194,0.03,0.105
			c-0.078-0.22-0.106-0.46-0.139-0.69c-0.19-1.375-1.923-2.106-3.125-1.776C65.459,62.81,64.958,64.163,65.147,65.534L65.147,65.534
			z"/>
	</g>
	<g>
		<path d="M210.017,61.184c-1.146,0.033-2.188,0.343-3.015,1.17c-0.821,0.822-1.264,2.203-1.221,3.348
			c0.069,2.006,1.721,3.614,3.759,3.495c1.834-0.107,3.426-1.225,4.057-2.962c0.766-2.115-0.707-3.954-2.297-5.127
			c-1.117-0.825-2.833-0.188-3.477,0.912c-0.758,1.292-0.201,2.656,0.912,3.477c-0.416-0.306,0.073,0.092,0.132,0.152
			c0.425,0.425-0.273-0.44-0.005,0.016c-0.049-0.117-0.098-0.233-0.146-0.351c0.069,0.265,0.063,0.163-0.019-0.31
			c0.048,0.46,0.151-0.66,0.035-0.227c0.166-0.623,0.212-0.449,0.056-0.212c0.396-0.599,0.27-0.344,0.088-0.184
			c0.554-0.488,0.332-0.256,0.131-0.145c0.634-0.346,0.415-0.163,0.182-0.091c-0.44,0.131,0.691-0.053,0.242-0.026
			c-0.44,0.026,0.692,0.143,0.271,0.044c0.549,0.127,0.952,0.606,1.109,1.103c0.018,0.146,0.034,0.289,0.053,0.435
			c-0.001-0.232-0.016-0.182-0.046,0.152c0.03-0.15,0.285-0.765-0.003-0.155c0.029-0.046,0.056-0.093,0.086-0.141
			c-0.218,0.383-0.526,0.621-0.927,0.719c0.501-0.206-0.596,0.01,0.043-0.009c1.385-0.04,2.542-1.126,2.542-2.542
			C212.559,62.371,211.404,61.145,210.017,61.184L210.017,61.184z"/>
	</g>
	<g>
		<path d="M207.887,160.455c-0.285,0.131-0.247,0.118,0.118-0.041c-0.282,0.114-0.563,0.228-0.837,0.355
			c-0.377,0.176-0.947,0.716-1.134,1.103c-0.465,0.963-0.56,1.964-0.359,3.008c0.393,2.026,2.696,2.509,4.386,2.151
			c1.46-0.306,2.793-1.402,3.23-2.835c0.693-2.272-1.374-3.797-3.233-4.421c-1.314-0.442-2.774,0.495-3.126,1.775
			c-0.382,1.39,0.461,2.686,1.775,3.126c0.294,0.107,0.292,0.097-0.013-0.032c0.153,0.066,0.292,0.15,0.427,0.24
			c-0.9-0.584-0.927-1.587-0.533-2.489c-0.124,0.21-0.043,0.114,0.24-0.288c-0.126,0.154-0.465,0.362,0.204-0.127
			c-0.089,0.066-0.188,0.118-0.287,0.17c-0.405,0.217,0.621-0.231,0.184-0.081c-0.073,0.023-0.146,0.043-0.219,0.06
			c-0.447,0.115,0.692-0.06,0.25-0.03c-0.245,0.015-0.544-0.116,0.298,0.057c-0.028-0.009-0.055-0.017-0.083-0.025
			c0.518,0.139,0.922,0.452,1.209,0.937c0.066,0.154,0.129,0.308,0.194,0.46c0.042,0.531,0.064,0.662,0.075,0.393
			c0.001-0.075,0.003-0.149,0.003-0.224c-0.026,0.453-0.218,0.847-0.571,1.18c-0.051,0.066-1.021,0.557-0.588,0.38
			c0.321-0.129,0.643-0.264,0.955-0.413c1.253-0.593,1.567-2.36,0.912-3.477C210.62,160.095,209.14,159.861,207.887,160.455
			L207.887,160.455z"/>
	</g>
	<g>
		<path d="M65.264,162.426c-0.903,1.772-0.846,3.495,0.816,4.768c1.067,0.819,2.758,0.408,3.814-0.183
			c1.364-0.761,2.198-2.282,1.844-3.839c-0.379-1.664-2.08-2.476-3.604-2.762c-1.36-0.256-2.737,0.357-3.126,1.775
			c-0.344,1.251,0.413,2.87,1.776,3.126c0.316,0.06,0.624,0.131,0.93,0.233c-0.639-0.213-0.301-0.132-0.119-0.026
			c-0.431-0.253-0.285-0.154-0.578-0.589c-0.323-0.48-0.266-1.021-0.187-1.554c-0.053,0.352,0.331-0.661,0.144-0.343
			c0.357-0.605,0.382-0.46,0.19-0.271c-0.277,0.274,0.573-0.409,0.242-0.188c-0.526,0.353,0.369-0.112,0.129-0.024
			c-0.624,0.228,0.607,0.008,0.132-0.001c1.013,0.021,1.953,0.86,2.045,2.06c-0.03-0.392-0.149,0.731-0.027,0.292
			c0.128-0.46-0.288,0.592-0.033,0.091c0.629-1.234,0.334-2.747-0.912-3.477C67.597,160.844,65.893,161.191,65.264,162.426
			L65.264,162.426z"/>
	</g>
	<g>
		<path d="M164.193,91.264c7.562,0.027,15.042-1.177,22.594-1.414c2.18-0.067,2.186-3.457,0-3.389
			c-7.551,0.236-15.031,1.439-22.594,1.413C162.005,87.866,162.007,91.255,164.193,91.264L164.193,91.264z"/>
	</g>
	<g>
		<path d="M187.044,89.931c0.708,0.118,1.382,0.81,1.982,1.341c0.808,0.718,1.615,1.473,2.553,2.019
			c1.893,1.103,3.6-1.828,1.711-2.925c-1.82-1.06-3.152-3.341-5.347-3.701c-0.911-0.149-1.821,0.222-2.085,1.184
			C185.634,88.666,186.13,89.783,187.044,89.931L187.044,89.931z"/>
	</g>
	<g>
		<path d="M191.588,91.969c-0.006,17.236-0.072,34.468,0.848,51.686c0.116,2.174,3.505,2.185,3.389,0
			c-0.919-17.218-0.854-34.45-0.847-51.686C194.977,89.783,191.588,89.783,191.588,91.969L191.588,91.969z"/>
	</g>
	<g>
		<path d="M185.859,136.479c1.239,3.477,4.412,4.959,6.527,7.75c1.3,1.718,4.246,0.031,2.925-1.711
			c-1.801-2.373-5.162-4.069-6.184-6.939C188.399,133.534,185.124,134.415,185.859,136.479L185.859,136.479z"/>
	</g>
	<g>
		<path d="M186.028,89.003c-1.19,15.672-1.168,31.34-0.228,47.026c0.129,2.171,3.518,2.184,3.389,0
			c-0.94-15.686-0.961-31.354,0.229-47.026C189.583,86.822,186.193,86.839,186.028,89.003L186.028,89.003z"/>
	</g>
	<g>
		<path d="M161.228,138.269c8.109,3.721,17.582,2.958,25.981,0.594c2.102-0.591,1.208-3.861-0.9-3.267
			c-7.42,2.086-16.153,3.056-23.37-0.253C160.966,134.438,159.242,137.359,161.228,138.269L161.228,138.269z"/>
	</g>
	<g>
		<path d="M162.498,90.062c-0.619,15.589-1.74,31.172-2.684,46.744c-0.132,2.185,3.257,2.171,3.39,0
			c0.943-15.572,2.065-31.155,2.684-46.744C165.974,87.876,162.584,87.885,162.498,90.062L162.498,90.062z"/>
	</g>
	<g>
		<path d="M159.708,137.866c0.543,4.197,3.568,6.762,6.533,9.459c1.612,1.466,4.017-0.923,2.396-2.396
			c-2.087-1.898-5.15-4.038-5.541-7.063C162.823,135.729,159.429,135.703,159.708,137.866L159.708,137.866z"/>
	</g>
	<g>
		<path d="M166.99,147.76c8.662,1.198,19.111,0.111,27.59-1.895c2.127-0.501,1.225-3.77-0.9-3.267
			c-7.771,1.837-17.813,2.998-25.79,1.896C165.754,144.197,164.832,147.462,166.99,147.76L166.99,147.76z"/>
	</g>
	<g>
		<path d="M163.909,86.32c6.974-0.011,13.94-0.161,20.901-0.564c1.086-0.063,1.092-1.758,0-1.695
			c-6.96,0.404-13.927,0.553-20.901,0.564C162.816,84.627,162.816,86.322,163.909,86.32L163.909,86.32z"/>
	</g>
	<g>
		<path d="M166.934,150.686c2.893,0.39,5.784,0.323,8.698,0.313c1.092-0.003,1.092-1.698,0-1.695
			c-2.753,0.01-5.512,0.117-8.248-0.253C166.314,148.907,165.854,150.541,166.934,150.686L166.934,150.686z"/>
	</g>
	<g>
		<path d="M115.897,110.611c-6.02-0.156-9.917,5.459-9.417,11.136c0.497,5.634,6.673,9.638,11.974,7.214
			c9.15-4.185,6.06-21.897-5.268-18.147c-2.065,0.682-1.18,3.957,0.9,3.267c6.967-2.305,7.966,7.285,4.081,11.083
			c-2.721,2.661-7.215,0.374-8.158-2.799c-1.166-3.934,1.7-8.471,5.887-8.363C118.083,114.056,118.078,110.667,115.897,110.611
			L115.897,110.611z"/>
	</g>
	<g>
		<path d="M99.232,82.932c-10.733,0.657-14.073,20.545-2.888,22.889c7.573,1.585,11.946-6.899,12.35-13.145
			c0.544-8.475-6.742-11.379-13.866-8.976c-2.061,0.693-1.177,3.968,0.9,3.267c15.855-5.346,8.96,19.107,0.223,15.211
			c-6.047-2.697-3.015-15.472,3.28-15.857C101.403,86.188,101.417,82.797,99.232,82.932L99.232,82.932z"/>
	</g>
	<g>
		<path d="M84.573,111.236c-8.935-3.096-14.54,16.69-5.372,19.594c5.468,1.732,11.495-2.482,12.11-8.104
			c0.687-6.269-3.22-12.223-10.042-10.36c-2.105,0.575-1.211,3.845,0.9,3.267c4.804-1.311,6.375,3.455,5.683,7.377
			c-0.639,3.637-5.706,6.345-8.777,3.891c-3.103-2.479,0.151-13.939,4.598-12.398C85.741,115.222,86.625,111.947,84.573,111.236
			L84.573,111.236z"/>
	</g>
	<g>
		<path d="M84.573,138.354c-8.935-3.096-14.54,16.69-5.372,19.594c5.468,1.733,11.495-2.482,12.11-8.104
			c0.687-6.269-3.22-12.223-10.042-10.36c-2.105,0.574-1.211,3.845,0.9,3.267c4.804-1.311,6.375,3.456,5.683,7.378
			c-0.639,3.638-5.706,6.345-8.777,3.891c-3.103-2.479,0.151-13.939,4.598-12.398C85.741,142.338,86.625,139.063,84.573,138.354
			L84.573,138.354z"/>
	</g>
	<g>
		<path d="M118.045,136.442c-8.935-3.098-14.541,16.689-5.372,19.594c5.468,1.732,11.495-2.483,12.11-8.104
			c0.687-6.269-3.22-12.224-10.042-10.36c-2.104,0.574-1.211,3.844,0.901,3.266c4.804-1.311,6.375,3.456,5.683,7.378
			c-0.639,3.638-5.706,6.345-8.777,3.891c-3.103-2.479,0.151-13.939,4.597-12.398C119.213,140.427,120.097,137.152,118.045,136.442
			L118.045,136.442z"/>
	</g>
	<g>
		<path d="M93.321,85.748c-2.638,4.336-1.784,9.706,0.968,13.775c2.563,3.791,7.473,4.706,11.084,1.906
			c1.726-1.337-0.692-3.718-2.396-2.396c-2.903,2.251-5.658-0.723-6.899-3.149c-1.347-2.633-1.365-5.903,0.168-8.425
			C97.385,85.586,94.455,83.884,93.321,85.748L93.321,85.748z"/>
	</g>
	<g>
		<path d="M111.405,112.148c-2.686,2.785-1.36,8.165,0.758,10.827c1.32,1.656,3.654,2.308,5.679,2.151
			c2.171-0.17,3.687-1.627,4.829-3.351c1.211-1.829-1.725-3.523-2.926-1.711c-1.502,2.267-4.144,2.18-5.626-0.125
			c-0.662-1.029-1.333-4.339-0.317-5.393C115.317,112.972,112.924,110.573,111.405,112.148L111.405,112.148z"/>
	</g>
	<g>
		<path d="M77.503,115.261c-2.052,3.58-0.715,8.637,2.428,11.109c3.463,2.724,7.733,1.032,10.368-1.923
			c1.448-1.625-0.94-4.031-2.396-2.396c-1.546,1.732-3.833,3.295-6.031,1.565c-1.771-1.393-2.595-4.635-1.443-6.644
			C81.52,115.072,78.591,113.367,77.503,115.261L77.503,115.261z"/>
	</g>
	<g>
		<path d="M112.243,139.48c-3.856,6.512,1.524,15.798,9.4,13.504c2.093-0.609,1.201-3.879-0.9-3.267
			c-5.008,1.457-7.924-4.556-5.574-8.526C116.286,139.307,113.354,137.602,112.243,139.48L112.243,139.48z"/>
	</g>
	<g>
		<path d="M80.045,140.963c-4.107,5.582-0.765,14.439,6.266,14.979c2.181,0.167,2.165-3.224,0-3.389
			c-4.652-0.357-5.741-6.613-3.34-9.878C84.269,140.91,81.326,139.224,80.045,140.963L80.045,140.963z"/>
	</g>
</g>
</svg>
