<?xml version="1.0" encoding="utf-8"?>
<!-- Generator: Adobe Illustrator 15.1.0, SVG Export Plug-In . SVG Version: 6.00 Build 0)  -->
<!DOCTYPE svg PUBLIC "-//W3C//DTD SVG 1.1//EN" "http://www.w3.org/Graphics/SVG/1.1/DTD/svg11.dtd">
<svg version="1.1" id="Layer_1" xmlns="http://www.w3.org/2000/svg" xmlns:xlink="http://www.w3.org/1999/xlink" x="0px" y="0px"
	 width="290px" height="233px" viewBox="0 0 290 233" enable-background="new 0 0 290 233" xml:space="preserve">
<g>
	<g>
		<path d="M226.17,58.762c-0.004,28.155-0.263,56.308-0.267,84.463c0,2.909,4.511,2.909,4.511,0
			c0.004-28.156,0.263-56.308,0.267-84.463C230.681,55.853,226.17,55.853,226.17,58.762L226.17,58.762z"/>
	</g>
	<g>
		<path d="M88.311,144.98c0-27.11,0-54.218,0-81.328c0-2.909-4.511-2.909-4.511,0c0,27.11,0,54.218,0,81.328
			C83.799,147.889,88.311,147.889,88.311,144.98L88.311,144.98z"/>
	</g>
	<g>
		<path d="M96.833,51.623c40.852-0.006,81.703-0.433,122.553-0.439c2.91,0,2.91-4.511,0-4.511
			c-40.851,0.006-81.701,0.433-122.553,0.439C93.923,47.112,93.923,51.623,96.833,51.623L96.833,51.623z"/>
	</g>
	<g>
		<path d="M129.429,155.381c29.402,0,58.801,0,88.204,0c2.909,0,2.909-4.511,0-4.511c-29.402,0-58.802,0-88.204,0
			C126.52,150.87,126.52,155.381,129.429,155.381L129.429,155.381z"/>
	</g>
	<g>
		<path d="M93.324,155.381c9.278,0,18.556,0,27.834,0c2.91,0,2.91-4.511,0-4.511c-9.278,0-18.556,0-27.834,0
			C90.414,150.87,90.414,155.381,93.324,155.381L93.324,155.381z"/>
	</g>
	<g>
		<path d="M155.854,59.374c0,28.536,0,57.07,0,85.606c0,2.909,4.511,2.909,4.511,0c0-28.536,0-57.07,0-85.606
			C160.365,56.465,155.854,56.465,155.854,59.374L155.854,59.374z"/>
	</g>
	<g>
		<path d="M213.685,51.184c3.876,0.148,8.711-0.718,12.314,0.985c0.52,0.244,0.197,6.519,0.187,7.896
			c-0.031,4.122-0.105,8.237-0.016,12.359c0.063,2.905,4.574,2.911,4.511,0c-0.108-5.035,0.025-10.066,0.026-15.104
			c0-2.734,0.52-6.192-1.477-8.354c-3.269-3.538-11.305-2.132-15.545-2.294C210.774,46.562,210.786,51.074,213.685,51.184
			L213.685,51.184z"/>
	</g>
	<g>
		<path d="M100.699,47.083c-4.241,0.162-12.276-1.244-15.545,2.294c-2.007,2.173-1.451,5.608-1.477,8.354
			c-0.05,5.036,0.135,10.067,0.026,15.104c-0.063,2.911,4.448,2.905,4.511,0c0.147-6.828-0.235-13.666,0.141-20.488
			c0.05-0.904,10.749-0.691,12.344-0.752C103.598,51.484,103.609,46.971,100.699,47.083L100.699,47.083z"/>
	</g>
	<g>
		<path d="M225.903,138.358c-0.147,3.877,0.716,8.709-0.984,12.315c-0.247,0.518-6.52,0.195-7.898,0.185
			c-4.12-0.03-8.236-0.104-12.358-0.015c-2.905,0.063-2.911,4.575,0,4.511c5.035-0.11,10.068,0.025,15.102,0.027
			c2.736,0,6.194,0.518,8.356-1.479c3.538-3.269,2.132-11.303,2.294-15.544C230.525,135.448,226.014,135.459,225.903,138.358
			L225.903,138.358z"/>
	</g>
	<g>
		<path d="M83.675,138.358c0.162,4.241-1.244,12.275,2.293,15.544c2.174,2.007,5.608,1.452,8.354,1.479
			c5.037,0.048,10.068-0.137,15.104-0.027c2.911,0.063,2.905-4.448,0-4.511c-6.829-0.148-13.667,0.235-20.488-0.142
			c-0.905-0.05-0.692-10.748-0.752-12.343C88.076,135.459,83.564,135.448,83.675,138.358L83.675,138.358z"/>
	</g>
	<g>
		<path d="M91.148,58.488c0.23,1.651,1.484,3.205,3.279,3.137c1.887-0.072,3.108-1.706,3.577-3.388
			c0.254-0.909-0.135-2.121-1.037-2.546c-1.063-0.503-2.125-0.852-3.305-0.533c-1.055,0.285-1.807,1.16-2.287,2.094
			c-0.562,1.093-0.292,2.439,0.809,3.085c1.018,0.596,2.526,0.283,3.087-0.809c0.076-0.148,0.156-0.292,0.241-0.435
			c0.222-0.367-0.28,0.254-0.344,0.301c-0.103,0.038-0.206,0.076-0.308,0.113c0.232-0.059,0.169-0.05-0.188,0.025
			c-0.329-0.055-0.358-0.05-0.084,0.015c0.23,0.079,0.266,0.091,0.103,0.038c-0.345-0.849-0.692-1.698-1.037-2.546
			c-0.034,0.132-0.074,0.264-0.122,0.392c0.105-0.242,0.103-0.254-0.009-0.035c-0.141,0.214-0.118,0.194,0.067-0.063
			c-0.317,0.377,0.413-0.236,0.029-0.015c0.702-0.407,1.519-0.138,1.974,0.491c-0.11-0.204-0.101-0.172,0.027,0.094
			c-0.069-0.197-0.094-0.408-0.124-0.612c-0.169-1.22-1.707-1.869-2.774-1.576C91.424,56.071,90.979,57.272,91.148,58.488
			L91.148,58.488z"/>
	</g>
	<g>
		<path d="M219.7,54.629c-1.016,0.029-1.941,0.304-2.676,1.038c-0.728,0.73-1.122,1.955-1.083,2.969
			c0.062,1.783,1.527,3.208,3.335,3.103c1.628-0.096,3.041-1.087,3.601-2.628c0.68-1.877-0.627-3.508-2.038-4.55
			c-0.991-0.732-2.514-0.167-3.085,0.81c-0.672,1.145-0.179,2.356,0.809,3.085c-0.369-0.271,0.065,0.084,0.118,0.135
			c0.377,0.377-0.242-0.391-0.004,0.015c-0.044-0.104-0.086-0.207-0.129-0.312c0.062,0.235,0.056,0.144-0.016-0.274
			c0.042,0.408,0.134-0.586,0.031-0.201c0.147-0.552,0.188-0.398,0.05-0.188c0.351-0.532,0.239-0.306,0.078-0.163
			c0.492-0.435,0.295-0.226,0.116-0.129c0.562-0.307,0.368-0.144,0.161-0.083c-0.391,0.118,0.614-0.045,0.216-0.022
			c-0.392,0.022,0.613,0.126,0.24,0.04c0.487,0.113,0.844,0.538,0.984,0.978c0.016,0.129,0.031,0.257,0.047,0.385
			c-0.001-0.204-0.015-0.16-0.041,0.135c0.026-0.132,0.252-0.677-0.003-0.137c0.026-0.041,0.05-0.083,0.076-0.125
			c-0.194,0.339-0.467,0.551-0.822,0.638c0.445-0.182-0.529,0.009,0.038-0.007c1.229-0.035,2.256-1,2.256-2.256
			C221.956,55.682,220.93,54.594,219.7,54.629L219.7,54.629z"/>
	</g>
	<g>
		<path d="M217.81,142.718c-0.253,0.116-0.219,0.104,0.104-0.037c-0.25,0.101-0.5,0.203-0.743,0.316
			c-0.334,0.155-0.84,0.636-1.006,0.978c-0.413,0.854-0.496,1.743-0.319,2.669c0.348,1.797,2.393,2.226,3.892,1.911
			c1.295-0.273,2.479-1.246,2.867-2.517c0.615-2.016-1.219-3.37-2.87-3.924c-1.166-0.391-2.461,0.439-2.774,1.576
			c-0.339,1.235,0.41,2.383,1.576,2.774c0.262,0.096,0.259,0.087-0.012-0.028c0.135,0.059,0.259,0.134,0.379,0.213
			c-0.799-0.519-0.822-1.408-0.473-2.208c-0.11,0.187-0.038,0.101,0.213-0.255c-0.112,0.136-0.413,0.321,0.181-0.113
			c-0.08,0.059-0.167,0.104-0.254,0.151c-0.359,0.194,0.551-0.206,0.163-0.072c-0.064,0.021-0.129,0.039-0.194,0.053
			c-0.396,0.101,0.614-0.053,0.222-0.028c-0.217,0.015-0.483-0.102,0.265,0.051c-0.025-0.007-0.049-0.015-0.074-0.022
			c0.46,0.123,0.818,0.401,1.074,0.831c0.059,0.137,0.114,0.273,0.172,0.408c0.037,0.471,0.057,0.587,0.066,0.348
			c0.001-0.066,0.003-0.132,0.003-0.198c-0.023,0.402-0.194,0.752-0.507,1.045c-0.045,0.059-0.906,0.495-0.521,0.339
			c0.285-0.115,0.57-0.235,0.847-0.367c1.112-0.526,1.391-2.096,0.809-3.085C220.234,142.399,218.921,142.191,217.81,142.718
			L217.81,142.718z"/>
	</g>
	<g>
		<path d="M91.25,144.467c-0.802,1.573-0.75,3.102,0.724,4.232c0.947,0.725,2.448,0.361,3.385-0.163
			c1.21-0.677,1.95-2.025,1.636-3.407c-0.336-1.476-1.846-2.197-3.199-2.451c-1.207-0.228-2.429,0.317-2.774,1.576
			c-0.305,1.11,0.366,2.546,1.576,2.774c0.281,0.053,0.554,0.116,0.825,0.207c-0.567-0.189-0.267-0.117-0.105-0.023
			c-0.382-0.225-0.252-0.137-0.513-0.523c-0.286-0.426-0.236-0.906-0.166-1.379c-0.047,0.313,0.294-0.586,0.128-0.304
			c0.317-0.538,0.339-0.408,0.169-0.241c-0.247,0.244,0.508-0.363,0.214-0.166c-0.467,0.314,0.328-0.1,0.115-0.022
			c-0.554,0.201,0.539,0.007,0.117-0.001c0.899,0.018,1.733,0.763,1.815,1.828c-0.026-0.348-0.132,0.649-0.023,0.258
			c0.113-0.408-0.255,0.526-0.029,0.081c0.558-1.096,0.297-2.438-0.809-3.085C93.321,143.063,91.809,143.372,91.25,144.467
			L91.25,144.467z"/>
	</g>
	<g>
		<path d="M179.037,81.321c6.711,0.023,13.349-1.044,20.049-1.254c1.934-0.06,1.94-3.067,0-3.007
			c-6.701,0.21-13.338,1.277-20.049,1.254C177.096,78.306,177.097,81.313,179.037,81.321L179.037,81.321z"/>
	</g>
	<g>
		<path d="M199.314,80.139c0.629,0.104,1.227,0.718,1.759,1.189c0.717,0.637,1.434,1.307,2.266,1.792
			c1.68,0.978,3.194-1.623,1.519-2.596c-1.616-0.94-2.798-2.967-4.745-3.284c-0.808-0.132-1.615,0.197-1.85,1.05
			C198.063,79.015,198.503,80.006,199.314,80.139L199.314,80.139z"/>
	</g>
	<g>
		<path d="M203.347,81.946c-0.006,15.294-0.064,30.585,0.752,45.864c0.103,1.928,3.11,1.938,3.007,0
			c-0.816-15.278-0.758-30.569-0.752-45.864C206.354,80.006,203.347,80.006,203.347,81.946L203.347,81.946z"/>
	</g>
	<g>
		<path d="M198.263,121.443c1.1,3.085,3.915,4.401,5.792,6.877c1.154,1.524,3.769,0.029,2.597-1.519
			c-1.598-2.106-4.581-3.611-5.488-6.157C200.517,118.83,197.611,119.611,198.263,121.443L198.263,121.443z"/>
	</g>
	<g>
		<path d="M198.413,79.314c-1.056,13.907-1.037,27.811-0.203,41.729c0.114,1.927,3.122,1.938,3.007,0
			c-0.834-13.918-0.853-27.822,0.203-41.729C201.567,77.379,198.559,77.394,198.413,79.314L198.413,79.314z"/>
	</g>
	<g>
		<path d="M176.406,123.032c7.195,3.301,15.601,2.624,23.055,0.527c1.865-0.524,1.072-3.426-0.799-2.899
			c-6.584,1.852-14.334,2.712-20.738-0.225C176.174,119.632,174.644,122.224,176.406,123.032L176.406,123.032z"/>
	</g>
	<g>
		<path d="M177.534,80.254c-0.549,13.835-1.545,27.661-2.382,41.479c-0.117,1.938,2.89,1.927,3.008,0
			c0.837-13.818,1.833-27.644,2.382-41.479C180.617,78.314,177.61,78.322,177.534,80.254L177.534,80.254z"/>
	</g>
	<g>
		<path d="M175.058,122.673c0.481,3.724,3.166,6,5.797,8.394c1.431,1.301,3.564-0.819,2.126-2.126
			c-1.852-1.685-4.57-3.583-4.917-6.268C177.821,120.777,174.81,120.754,175.058,122.673L175.058,122.673z"/>
	</g>
	<g>
		<path d="M181.519,131.454c7.686,1.063,16.958,0.098,24.482-1.682c1.887-0.445,1.087-3.345-0.799-2.899
			c-6.896,1.63-15.807,2.66-22.885,1.682C180.422,128.292,179.604,131.189,181.519,131.454L181.519,131.454z"/>
	</g>
	<g>
		<path d="M178.785,76.934c6.188-0.01,12.371-0.142,18.547-0.5c0.963-0.056,0.969-1.56,0-1.504
			c-6.176,0.358-12.359,0.491-18.547,0.501C177.815,75.432,177.815,76.936,178.785,76.934L178.785,76.934z"/>
	</g>
	<g>
		<path d="M181.469,134.05c2.567,0.347,5.132,0.286,7.718,0.277c0.969-0.003,0.969-1.506,0-1.503
			c-2.444,0.009-4.892,0.104-7.319-0.225C180.92,132.471,180.512,133.92,181.469,134.05L181.469,134.05z"/>
	</g>
	<g>
		<path d="M103.538,91.064c0,14.221,0,28.443,0,42.664c0,2.909,4.511,2.909,4.511,0c0-14.221,0-28.443,0-42.664
			C108.049,88.155,103.538,88.155,103.538,91.064L103.538,91.064z"/>
	</g>
	<g>
		<path d="M143.802,90.961c0,14.394,0,28.79,0,43.184c0,2.909,4.511,2.909,4.511,0c0-14.394,0-28.79,0-43.184
			C148.313,88.052,143.802,88.052,143.802,90.961L143.802,90.961z"/>
	</g>
	<g>
		<path d="M108.018,91.663c2.822-11.692,18.757-16.186,28.562-11.836c8.037,3.567,7.94,11.268,7.222,19.082
			c-0.268,2.897,4.247,2.873,4.511,0c1.154-12.556-1.611-20.071-13.496-24.606c-11.33-4.323-28.305,4.38-31.149,16.162
			C102.985,93.292,107.336,94.492,108.018,91.663L108.018,91.663z"/>
	</g>
	<g>
		<path d="M103.74,134.5c2.505,4.739,10.426,4.507,15.033,5.03c8.597,0.974,20.859,1.79,28.423-3.438
			c2.375-1.642,0.124-5.554-2.277-3.894c-5.526,3.818-14.136,3.448-20.593,3.254c-2.848-0.083-14.901,0.154-16.689-3.228
			C106.276,129.652,102.382,131.931,103.74,134.5L103.74,134.5z"/>
	</g>
	<g>
		<path d="M119.278,138.358c-0.354,10.463,0.675,20.956-1.184,31.332c-0.931,5.199-2.867,10.598-7.409,13.666
			c-6.862,4.635-15.627,0.154-21.389-3.985c-12.861-9.243-25.96-16.365-42.21-12.369c-13.286,3.266-22.196,12.083-19.174,26.105
			c0.612,2.844,4.962,1.637,4.35-1.199c-2.568-11.915,5.689-17.397,16.023-20.557c10.336-3.16,20.886,0.377,29.907,5.535
			c10.08,5.765,19.678,17.108,32.606,11.434c17.296-7.59,12.488-35.094,12.99-49.961
			C123.888,135.448,119.376,135.457,119.278,138.358L119.278,138.358z"/>
	</g>
	<g>
		<path d="M126.177,139.501c0.079,11.889,1.472,23.812-1.189,35.545c-3.195,14.097-16.914,22.545-30.167,14.805
			c-12.168-7.106-23.086-16.833-37.763-17.899c-6.858-0.5-13.184,2.564-18.268,6.899c-5.789,4.936-4.802,12.12-2.003,18.303
			c1.197,2.648,5.084,0.353,3.895-2.276c-5.774-12.764,8.227-19.621,19.143-18.146c7.976,1.077,15.296,5.749,21.931,10.008
			c10.338,6.635,17.807,12.889,30.608,9.534c23.271-6.102,18.443-39.061,18.325-56.772
			C130.671,136.593,126.16,136.59,126.177,139.501L126.177,139.501z"/>
	</g>
	<g>
		<path d="M114.579,139.877c0.018,0.91-0.015,1.818-0.094,2.726c-0.062,1.006,0.737,1.903,1.656,2.175
			c4.586,1.352,9.442,1.064,14.133,0.481c3.482-0.433,6.737-0.471,6.767-4.724c0.009-1.194-1.032-2.303-2.255-2.255
			c-4.552,0.173-9.851,1.089-14.344,0.174c-2.84-0.579-4.049,3.77-1.198,4.35c4.972,1.013,10.505,0.179,15.542-0.014
			c-0.752-0.751-1.504-1.503-2.256-2.255c0.198-0.059,0.396-0.118,0.593-0.175c-0.942,0.176-1.893,0.306-2.849,0.388
			c-1.52,0.165-3.026,0.325-4.552,0.421c-2.832,0.178-5.652,0.063-8.382-0.742c0.552,0.726,1.104,1.45,1.657,2.175
			c0.079-0.908,0.111-1.815,0.094-2.726C119.114,136.966,114.603,136.969,114.579,139.877L114.579,139.877z"/>
	</g>
</g>
</svg>
