<?xml version="1.0" encoding="utf-8"?>
<!-- Generator: Adobe Illustrator 15.1.0, SVG Export Plug-In . SVG Version: 6.00 Build 0)  -->
<!DOCTYPE svg PUBLIC "-//W3C//DTD SVG 1.1//EN" "http://www.w3.org/Graphics/SVG/1.1/DTD/svg11.dtd">
<svg version="1.1" id="Layer_1" xmlns="http://www.w3.org/2000/svg" xmlns:xlink="http://www.w3.org/1999/xlink" x="0px" y="0px"
	 width="290px" height="233px" viewBox="0 0 290 233" enable-background="new 0 0 290 233" xml:space="preserve">
<g>
	<g>
		<path d="M167.079,27.694c2.581,59.167,5.165,118.333,7.747,177.5c0.178,4.092,6.548,4.111,6.369,0
			c-2.582-59.166-5.164-118.333-7.746-177.5C173.271,23.605,166.9,23.587,167.079,27.694L167.079,27.694z"/>
	</g>
	<g>
		<path d="M99.327,34.956c1.133,55.781,2.265,111.562,3.396,167.343c0.083,4.102,6.453,4.11,6.37,0
			c-1.132-55.781-2.264-111.562-3.396-167.343C105.614,30.854,99.245,30.846,99.327,34.956L99.327,34.956z"/>
	</g>
	<g>
		<path d="M107.006,205.57c22.638,2.344,45.751,2.139,68.491,2.92c4.11,0.141,4.096-6.229,0-6.37
			c-22.74-0.781-45.854-0.576-68.491-2.919C102.921,198.777,102.962,205.152,107.006,205.57L107.006,205.57z"/>
	</g>
	<g>
		<path d="M105.057,37.309c21.297-3.724,43.625-5.54,65.207-6.43c4.094-0.166,4.11-6.538,0-6.37
			c-22.154,0.912-45.036,2.834-66.898,6.658C99.323,31.875,101.04,38.012,105.057,37.309L105.057,37.309z"/>
	</g>
	<g>
		<path d="M141.958,39.642c-0.796-0.754-1.947-1.153-3.015-0.773c-3.069,1.088-4.958,4.116-4.371,7.342
			c0.505,2.778,3.717,4.263,6.241,3.587c2.025-0.545,3.738-2.413,4.229-4.429C145.67,42.796,144.233,40.61,141.958,39.642z"/>
		<g>
			<path d="M144.21,37.39c-4.164-3.285-8.837-1.373-11.572,2.741c-2.642,3.971-1.344,9.219,2.459,11.786
				c4.203,2.841,9.343,0.535,11.95-3.197c2.898-4.151,0.821-9.741-3.481-11.827c-3.678-1.783-6.911,3.709-3.214,5.501
				c1.039,0.503,2.071,1.24,1.507,2.548c-0.485,1.132-1.561,2.032-2.826,1.773c-3.4-0.699,0.319-5.099,0.674-4.821
				c1.362,1.074,3.168,1.335,4.504,0C145.33,40.776,145.577,38.468,144.21,37.39z"/>
		</g>
	</g>
	<g>
		<path d="M147.018,191.376c-0.312-1.97-1.792-3.099-3.512-3.524c-0.778-0.647-1.823-0.947-2.881-0.709
			c-3.321,0.746-5.208,4.287-4.522,7.492c0.39,1.824,1.99,3.07,3.668,3.631c1.487,0.498,2.978,0.196,4.365-0.414
			C146.586,196.773,147.395,193.775,147.018,191.376z"/>
		<g>
			<path d="M150.089,190.531c-0.519-2.231-1.873-3.944-3.873-5.039c-1.917-1.049-4.222-2.041-6.437-1.418
				c-4.431,1.24-7.299,5.4-6.957,9.992c0.408,5.455,5.769,8.256,10.743,7.347c4.638-0.851,7.164-5.634,6.637-10.036
				c-0.205-1.721-1.292-3.186-3.185-3.186c-1.582,0-3.394,1.459-3.186,3.186c0.132,1.104,0.255,2.73-0.805,3.467
				c-1.269,0.879-3.39,0.52-3.854-1.057c-0.352-1.189,0.489-2.629,1.441-3.254c1.082-0.711,3.061,0.521,3.333,1.691
				C144.878,196.225,151.02,194.527,150.089,190.531z"/>
		</g>
	</g>
	<g>
		<path d="M148.893,58.378c-0.129,34.437-2.306,68.836-1.219,103.276c0.098,3.074,4.875,3.082,4.777,0
			c-1.086-34.44,1.091-68.839,1.219-103.276C153.68,55.297,148.902,55.297,148.893,58.378L148.893,58.378z"/>
	</g>
	<g>
		<path d="M154.611,63.255c1.701,36.469,0.945,73.03,2.88,109.511c0.161,3.063,4.94,3.078,4.778,0
			c-1.936-36.479-1.181-73.042-2.881-109.511C159.245,60.187,154.468,60.174,154.611,63.255L154.611,63.255z"/>
	</g>
	<g>
		<path d="M117.823,61.258c-5.167,33.875-7.564,68-5.787,102.25c0.16,3.064,4.937,3.081,4.777,0
			c-1.754-33.814,0.514-67.529,5.617-100.979C122.888,59.517,118.288,58.22,117.823,61.258L117.823,61.258z"/>
	</g>
	<g>
		<path d="M119.808,64.312c10.386-0.95,20.739-2.171,31.081-3.533c3.008-0.394,3.047-5.178,0-4.777
			c-10.342,1.362-20.694,2.583-31.081,3.533C116.766,59.812,116.738,64.59,119.808,64.312L119.808,64.312z"/>
	</g>
	<g>
		<path d="M149.591,60.066c1.761,1.422,3.519,2.841,5.277,4.261c1.014,0.817,2.387,0.993,3.38,0c0.846-0.848,1.014-2.558,0-3.377
			c-1.762-1.42-3.52-2.841-5.277-4.259c-1.012-0.817-2.385-0.996-3.38,0C148.745,57.536,148.577,59.249,149.591,60.066
			L149.591,60.066z"/>
	</g>
	<g>
		<path d="M147.752,162.07c3.525,3.979,6.852,8.142,10.029,12.396c1.82,2.436,5.972,0.061,4.126-2.412
			c-3.425-4.582-6.984-9.08-10.776-13.361C149.083,156.384,145.718,159.775,147.752,162.07L147.752,162.07z"/>
	</g>
	<g>
		<path d="M115.103,166.768c11.904-0.916,23.808-1.832,35.711-2.748c3.053-0.236,3.074-5.015,0-4.777
			c-11.903,0.917-23.808,1.833-35.711,2.75C112.053,162.227,112.028,167.004,115.103,166.768L115.103,166.768z"/>
	</g>
	<g>
		<path d="M112.973,166.084c3.771,3.461,6.815,7.428,10.166,11.273c2.028,2.328,5.394-1.068,3.38-3.379
			c-3.353-3.844-6.397-7.812-10.167-11.275C114.086,160.626,110.7,163.996,112.973,166.084L112.973,166.084z"/>
	</g>
	<g>
		<path d="M125.891,178.057c11.317-0.801,22.636-1.605,33.955-2.406c3.053-0.217,3.074-4.998,0-4.777
			c-11.318,0.8-22.637,1.605-33.955,2.404C122.837,173.497,122.816,178.275,125.891,178.057L125.891,178.057z"/>
	</g>
</g>
</svg>
