<?xml version="1.0" encoding="utf-8"?>
<!-- Generator: Adobe Illustrator 15.1.0, SVG Export Plug-In . SVG Version: 6.00 Build 0)  -->
<!DOCTYPE svg PUBLIC "-//W3C//DTD SVG 1.1//EN" "http://www.w3.org/Graphics/SVG/1.1/DTD/svg11.dtd">
<svg version="1.1" id="Layer_1" xmlns="http://www.w3.org/2000/svg" xmlns:xlink="http://www.w3.org/1999/xlink" x="0px" y="0px"
	 width="290px" height="233px" viewBox="0 0 290 233" enable-background="new 0 0 290 233" xml:space="preserve">
<g>
	<path d="M110.636,26.223c-23.525-0.406-42.09,22.665-39.326,45.349c2.428,19.93,23.695,30.023,41.556,21.962
		c21.448-9.682,29.266-34.782,19.996-55.788c-10.898-24.696-44.243-7.409-55.395,7.068c-3.032,3.938,3.667,7.765,6.652,3.89
		c12.223-15.867,38.933-23.905,44.714,1.277c3.672,15.982-7.046,32.521-21.982,37.533C91.277,92.742,79.178,81.299,78.593,66.3
		c-0.652-16.735,15.631-32.652,32.042-32.371C115.608,34.013,115.6,26.308,110.636,26.223L110.636,26.223z"/>
</g>
<g>
	<path d="M117.577,88.196c7.974,4.896,15.559,10.271,24.25,13.871c4.59,1.904,6.569-5.553,2.047-7.429
		c-8.009-3.318-15.057-8.581-22.409-13.096C117.218,78.936,113.351,85.6,117.577,88.196L117.577,88.196z"/>
</g>
<g>
	<path d="M128.063,75.567c7.206,4.211,14.55,8.182,21.619,12.629c4.219,2.654,8.082-4.015,3.889-6.654
		c-7.066-4.447-14.413-8.415-21.619-12.628C127.652,66.4,123.777,73.062,128.063,75.567L128.063,75.567z"/>
</g>
<g>
	<path d="M149.797,86.814c2.314,3.896-2.857,7.916-6.258,8.681c-4.848,1.089-2.792,8.516,2.047,7.43
		c8.43-1.894,15.787-11.716,10.863-20C153.913,78.66,147.251,82.533,149.797,86.814L149.797,86.814z"/>
</g>
<g>
	<path d="M178.865,48.325c-7.221,6.838-8.322,17.046-9.266,26.472c-1.845,18.426-1.263,36.043,5.492,53.477
		c1.776,4.58,9.229,2.59,7.43-2.049c-5.012-12.936-6.594-25.96-6.186-39.789c0.296-9.958,0.251-25.349,7.977-32.662
		C187.928,50.352,182.471,44.914,178.865,48.325L178.865,48.325z"/>
</g>
<g>
	<path d="M177.736,51.049c0.134,45.086,2.754,90.322,1.5,135.379c-0.137,4.971,7.568,4.959,7.705,0
		c1.254-45.058-1.366-90.292-1.5-135.379C185.428,46.083,177.721,46.081,177.736,51.049L177.736,51.049z"/>
</g>
<g>
	<path d="M122.836,132.17c-0.497,18.488-1.419,36.956-2.154,55.438c-0.198,4.968,7.509,4.951,7.705,0
		c0.735-18.481,1.658-36.949,2.154-55.438C130.675,127.199,122.969,127.211,122.836,132.17L122.836,132.17z"/>
</g>
<g>
	<path d="M114.521,88.125c-3.928,16.58,0.77,36.615,12.335,49.122c3.379,3.657,8.816-1.806,5.448-5.448
		c-9.608-10.389-13.627-27.806-10.354-41.627C123.095,85.342,115.665,83.29,114.521,88.125L114.521,88.125z"/>
</g>
<g>
	<path d="M128.938,138.807c17.083-0.093,34.15-1.179,51.153-2.783c4.904-0.461,4.949-8.172,0-7.705
		c-17.003,1.604-34.069,2.69-51.153,2.783C123.97,131.127,123.97,138.832,128.938,138.807L128.938,138.807z"/>
</g>
<g>
	<path d="M133.86,60.684c15.41-1.854,30.822-3.71,46.231-5.566c4.868-0.587,4.927-8.297,0-7.705
		c-15.411,1.856-30.821,3.712-46.231,5.566C128.992,53.562,128.934,61.278,133.86,60.684L133.86,60.684z"/>
</g>
<path d="M173.4,178.137c0.074-14.922,0.242-29.844,0.268-44.763c-0.438-0.088-0.883-0.12-1.324-0.078
	c-1.609-0.163-3.326,0.535-4.033,2.108c-1.481-2.336-5.228-1.896-6.611,0.518c-0.805-0.381-1.733-0.499-2.608-0.336
	c-0.323-0.248-0.672-0.449-1.051-0.592c-0.63-0.489-1.396-0.832-2.328-0.896c-4.761-0.332-9.125,0.842-13.392,2.738
	c-1.252-0.826-2.905-0.986-4.179-0.236c-1.169-0.851-2.829-0.971-4.159-0.396c0.035,14.422,0.264,28.835,0.587,43.247
	C147.521,179.279,160.452,178.436,173.4,178.137z"/>
<g>
	<path d="M133.163,48.06c21.761-2.263,43.532-6.812,64.989-10.971c4.877-0.943,2.808-8.37-2.045-7.429
		c-20.776,4.028-41.877,8.503-62.944,10.695C128.272,40.863,128.222,48.574,133.163,48.06L133.163,48.06z"/>
</g>
<g>
	<path d="M108.492,207.695c28.873-0.092,57.709-1.928,86.574-2.289c4.963-0.061,4.971-7.766,0-7.706
		c-28.865,0.36-57.703,2.196-86.574,2.291C103.523,200.008,103.523,207.713,108.492,207.695L108.492,207.695z"/>
</g>
<g>
	<path d="M193.277,33.374c-0.252,55.905-0.502,111.81-0.752,167.715c-0.022,4.97,7.683,4.97,7.705,0
		c0.252-55.905,0.502-111.81,0.752-167.715C201.005,28.405,193.3,28.405,193.277,33.374L193.277,33.374z"/>
</g>
<g>
	<path d="M106.037,93.001c-0.678,36.946-1.33,73.89-1.397,110.841c-0.01,4.969,7.695,4.969,7.705,0
		c0.068-36.951,0.72-73.895,1.397-110.841C113.832,88.031,106.126,88.041,106.037,93.001L106.037,93.001z"/>
</g>
<g>
	<path d="M124.534,192.207c19.52-0.08,39.056-1.073,58.555-1.926c4.949-0.217,4.972-7.924,0-7.705
		c-19.499,0.854-39.035,1.846-58.555,1.926C119.565,184.521,119.565,192.229,124.534,192.207L124.534,192.207z"/>
</g>
</svg>
