<?xml version="1.0" encoding="utf-8"?>
<!-- Generator: Adobe Illustrator 15.1.0, SVG Export Plug-In . SVG Version: 6.00 Build 0)  -->
<!DOCTYPE svg PUBLIC "-//W3C//DTD SVG 1.1//EN" "http://www.w3.org/Graphics/SVG/1.1/DTD/svg11.dtd">
<svg version="1.1" id="Layer_1" xmlns="http://www.w3.org/2000/svg" xmlns:xlink="http://www.w3.org/1999/xlink" x="0px" y="0px"
	 width="290px" height="233px" viewBox="0 0 290 233" enable-background="new 0 0 290 233" xml:space="preserve">
<g>
	<g>
		<path d="M108.83,35.459c9.151,23.836,9.696,50.726,9.42,75.935c-0.315,28.752-3.282,57.667-8.998,85.846
			c-0.731,3.609,4.794,5.146,5.53,1.525c5.828-28.729,8.688-58.078,9.204-87.373c0.448-25.561-0.348-53.298-9.625-77.458
			C113.049,30.52,107.502,32.001,108.83,35.459L108.83,35.459z"/>
	</g>
	<g>
		<path d="M167.643,34.853c13.983,53.294,12.336,109.852,5.291,164.055c-0.477,3.66,5.264,3.613,5.734,0
			c7.111-54.719,8.621-111.784-5.496-165.58C172.234,29.754,166.702,31.27,167.643,34.853L167.643,34.853z"/>
	</g>
	<g>
		<path d="M108.958,36.96c20.483,0,40.966,0,61.449,0c3.698,0,3.698-5.735,0-5.735c-20.483,0-40.966,0-61.449,0
			C105.26,31.225,105.26,36.96,108.958,36.96L108.958,36.96z"/>
	</g>
	<g>
		<path d="M108.82,201.301c22.327,0.016,44.653,0.325,66.978,0.475c3.7,0.025,3.696-5.711,0-5.735
			c-22.325-0.149-44.651-0.459-66.978-0.474C105.122,195.562,105.122,201.297,108.82,201.301L108.82,201.301z"/>
	</g>
	<g>
		<path d="M106.091,35.127c0,54.481,0,108.963,0,163.443c0,3.699,5.735,3.699,5.735,0c0-54.48,0-108.962,0-163.443
			C111.826,31.429,106.091,31.429,106.091,35.127L106.091,35.127z"/>
	</g>
	<path d="M147.736,48.303c-0.377-0.511-0.904-0.911-1.535-1.086c-1.533-0.422-3.076,0.508-3.526,2.003
		c-0.782,2.606-0.831,7.974,2.621,8.657c2.698,0.534,5.021-1.725,4.815-4.417C149.973,51.596,149.146,49.6,147.736,48.303z"/>
	<path d="M149.635,178.645c-1.193-0.295-2.105-0.074-2.8,0.449c-0.801,0.324-1.432,1.028-1.77,1.909
		c-0.98,2.552-1.494,5.543-0.407,8.112c0.838,1.984,3.588,2.5,5.337,1.643c1.438-0.705,2.25-2.251,2.698-3.715
		C153.598,184.07,153.26,179.543,149.635,178.645z"/>
	<g>
		<path d="M132.925,76.735c4.598,26.027,5.595,52.535,3.358,78.859c-0.209,2.456,3.616,2.438,3.823,0
			c2.267-26.678,1.163-53.508-3.497-79.875C136.183,73.294,132.498,74.325,132.925,76.735L132.925,76.735z"/>
	</g>
	<g>
		<path d="M161.758,75.301c4.743,26.86,5.656,54.239,3.123,81.386c-0.229,2.455,3.596,2.435,3.823,0
			c2.567-27.498,1.544-55.199-3.261-82.402C165.016,71.86,161.333,72.891,161.758,75.301L161.758,75.301z"/>
	</g>
	<g>
		<path d="M134.687,76.626c9.639,0,19.275,0,28.915,0c2.465,0,2.465-3.823,0-3.823c-9.639,0-19.275,0-28.915,0
			C132.221,72.803,132.221,76.626,134.687,76.626L134.687,76.626z"/>
	</g>
	<g>
		<path d="M138.589,158.428c8.921,0,17.841,0,26.763,0c2.467,0,2.467-3.824,0-3.824c-8.92,0-17.84,0-26.763,0
			C136.123,154.604,136.123,158.428,138.589,158.428L138.589,158.428z"/>
	</g>
	<g>
		<path d="M131.738,168.062c2.905-3.688,5.785-7.389,8.501-11.219c1.43-2.017-1.888-3.924-3.301-1.931
			c-2.528,3.565-5.201,7.015-7.904,10.446C127.526,167.271,130.212,169.998,131.738,168.062L131.738,168.062z"/>
	</g>
	<g>
		<path d="M160.041,168.062c2.701-3.34,5.402-6.683,8.104-10.024c1.535-1.897-1.151-4.622-2.703-2.703
			c-2.7,3.343-5.402,6.685-8.104,10.024C155.803,167.257,158.491,169.98,160.041,168.062L160.041,168.062z"/>
	</g>
	<g>
		<path d="M131.222,168.982c8.961,0,17.922,0,26.881,0c2.467,0,2.467-3.823,0-3.823c-8.959,0-17.92,0-26.881,0
			C128.756,165.159,128.756,168.982,131.222,168.982L131.222,168.982z"/>
	</g>
	<g>
		<path d="M131.333,74.715c-1.126,12.943-0.893,26.119-1.251,39.099c-0.485,17.631-0.896,35.272-1.607,52.898
			c-0.099,2.464,3.725,2.457,3.824,0c0.711-17.626,1.122-35.267,1.607-52.898c0.358-12.98,0.125-26.156,1.251-39.099
			C135.369,72.256,131.545,72.277,131.333,74.715L131.333,74.715z"/>
	</g>
</g>
</svg>
