<?xml version="1.0" encoding="utf-8"?>
<!-- Generator: Adobe Illustrator 15.1.0, SVG Export Plug-In . SVG Version: 6.00 Build 0)  -->
<!DOCTYPE svg PUBLIC "-//W3C//DTD SVG 1.1//EN" "http://www.w3.org/Graphics/SVG/1.1/DTD/svg11.dtd">
<svg version="1.1" id="Layer_1" xmlns="http://www.w3.org/2000/svg" xmlns:xlink="http://www.w3.org/1999/xlink" x="0px" y="0px"
	 width="290px" height="233px" viewBox="0 0 290 233" enable-background="new 0 0 290 233" xml:space="preserve">
<g>
	<g>
		<path d="M104.371,85.448c0,2.473,0,4.947,0.001,7.42c0.001,2.648,4.107,2.648,4.106,0c-0.001-2.473-0.001-4.947-0.001-7.42
			C108.478,82.8,104.371,82.8,104.371,85.448L104.371,85.448z"/>
	</g>
	<g>
		<path d="M104.652,90.941c-11.817,20.649-24.398,41.211-34.601,62.717c-1.128,2.378,2.411,4.463,3.548,2.072
			c10.201-21.505,22.783-42.067,34.599-62.716C109.515,90.711,105.967,88.643,104.652,90.941L104.652,90.941z"/>
	</g>
	<g>
		<path d="M177.112,95.036c0.238,2.353,1.602,4.806,2.435,6.983c2.172,5.689,4.386,11.363,6.59,17.039
			c5.093,13.113,10.225,26.214,15.187,39.378c0.924,2.455,4.896,1.392,3.959-1.091c-4.764-12.643-9.689-25.226-14.581-37.818
			c-2.136-5.5-4.272-10.998-6.393-16.504c-0.799-2.081-2.976-6.845-3.091-7.987C180.953,92.428,176.845,92.402,177.112,95.036
			L177.112,95.036z"/>
	</g>
	<g>
		<path d="M69.543,155.379c-0.346,6.557-0.24,12.59,5.513,16.932c5.647,4.263,12.93,5.272,19.811,5.654
			c2.648,0.147,2.633-3.959,0-4.106c-5.18-0.289-10.4-0.98-15.084-3.343c-6.406-3.232-6.464-8.871-6.133-15.136
			C73.79,152.731,69.682,152.746,69.543,155.379L69.543,155.379z"/>
	</g>
	<g>
		<path d="M93.727,177.837c32.182-0.388,64.433-0.801,96.606,0.218c2.649,0.084,2.642-4.022,0-4.106
			c-32.173-1.019-64.424-0.605-96.606-0.218C91.081,173.763,91.077,177.869,93.727,177.837L93.727,177.837z"/>
	</g>
	<g>
		<path d="M201.009,158.971c0.442,7.728-5.608,12.626-12.121,15.432c-2.426,1.044-0.333,4.581,2.072,3.545
			c7.824-3.369,14.677-9.866,14.155-18.977C204.965,156.339,200.858,156.325,201.009,158.971L201.009,158.971z"/>
	</g>
	<g>
		<path d="M118.479,85.452c0.217,2.812,0.346,5.63,0.571,8.442c0.21,2.621,4.318,2.642,4.106,0
			c-0.224-2.812-0.354-5.629-0.571-8.442C122.385,82.83,118.276,82.81,118.479,85.452L118.479,85.452z"/>
	</g>
	<g>
		<path d="M117.11,97.203c17.193-0.166,34.354-0.921,51.56-0.913c2.648,0.001,2.648-4.105,0-4.106
			c-17.206-0.008-34.367,0.747-51.56,0.913C114.463,93.121,114.461,97.228,117.11,97.203L117.11,97.203z"/>
	</g>
	<g>
		<path d="M162.282,85.681c0.019,2.291,0.229,4.566,0.457,6.844c0.109,1.114,0.85,2.054,2.053,2.054
			c1.035,0,2.163-0.938,2.053-2.054c-0.227-2.278-0.438-4.553-0.457-6.844C166.37,83.034,162.263,83.031,162.282,85.681
			L162.282,85.681z"/>
	</g>
	<g>
		<path d="M179.165,88.418c2.647,0,2.647-4.106,0-4.106C176.516,84.312,176.516,88.418,179.165,88.418L179.165,88.418z"/>
	</g>
	<g>
		<path d="M177.112,86.365c0,2.89,0,5.78,0,8.67c0,2.648,4.106,2.648,4.106,0c0-2.89,0-5.78,0-8.67
			C181.218,83.717,177.112,83.717,177.112,86.365L177.112,86.365z"/>
	</g>
	<g>
		<path d="M77.945,159.233c1.81,7.164,8.358,9.797,15.099,10.52c2.631,0.282,2.604-3.827,0-4.106
			c-4.911-0.526-9.812-2.256-11.139-7.504C81.256,155.576,77.296,156.666,77.945,159.233L77.945,159.233z"/>
	</g>
	<g>
		<path d="M98.631,170.323c30.568,0,61.135,0,91.702,0c2.649,0,2.649-4.107,0-4.107c-30.566,0-61.134,0-91.702,0
			C95.984,166.216,95.984,170.323,98.631,170.323L98.631,170.323z"/>
	</g>
	<g>
		<path d="M192.03,170.25c5.357-0.775,9.872-8.26,7.16-13.168c-1.282-2.318-4.829-0.247-3.548,2.072
			c1.5,2.712-2.115,6.762-4.704,7.137C188.325,166.668,189.441,170.624,192.03,170.25L192.03,170.25z"/>
	</g>
	<g>
		<path d="M92.562,90.285c33.752-9.193,69.204-9.574,102.596,1.369c2.524,0.827,3.597-3.139,1.093-3.96
			c-34.05-11.158-70.369-10.742-104.783-1.369C88.918,87.021,90.002,90.982,92.562,90.285L92.562,90.285z"/>
	</g>
	<g>
		<path d="M187.258,88.467c-7.162,15.345,21.085,14.477,28.655,10.875c6.074-2.89,8.141-10.472,6.273-16.481
			c-2.335-7.519-10.474-11.817-17.36-14.159c-2.516-0.856-3.585,3.112-1.094,3.959c8.598,2.923,21.158,12.287,11.983,21.858
			c-3.815,3.981-29.229,5.273-24.909-3.981C191.918,88.155,188.378,86.068,187.258,88.467L187.258,88.467z"/>
	</g>
	<g>
		<path d="M76.136,75.062c19.524-9.55,43.477-10.857,64.825-11.468c10.513-0.299,21.07-0.029,31.538,1.013
			c11.069,1.103,21.378,4.52,31.771,8.396c2.486,0.928,3.55-3.042,1.093-3.959c-10.335-3.855-20.506-7.094-31.462-8.391
			c-11.512-1.361-23.195-1.444-34.766-1.113c-21.493,0.615-45.46,2.385-65.072,11.977C71.685,72.68,73.767,76.221,76.136,75.062
			L76.136,75.062z"/>
	</g>
	<g>
		<path d="M189.061,91.64c3.25,3.021,8.712,2.782,12.865,3.057c5.913,0.395,12.007,0.098,17.509-2.266
			c0.809-0.348,0.111-1.527-0.691-1.182c-4.628,1.988-9.649,2.286-14.625,2.179c-4.154-0.089-10.875,0.231-14.09-2.756
			C189.383,90.072,188.413,91.039,189.061,91.64L189.061,91.64z"/>
	</g>
	<g>
		<path d="M95.13,90.346c2.527,5.411-6.273,7.026-9.615,7.272c-5.129,0.379-11.114,0.021-15.295-3.291
			c-3.816-3.022-3.709-8.427-1.661-12.322c2.635-5.006,8.571-7.812,13.643-9.537c2.492-0.847,1.422-4.815-1.092-3.959
			c-7.454,2.535-14.229,6.653-17.36,14.159c-2.599,6.224,0.895,13.191,6.272,16.481c7.63,4.668,35.534,3.862,28.655-10.875
			C97.556,85.876,94.018,87.963,95.13,90.346L95.13,90.346z"/>
	</g>
	<g>
		<path d="M95.907,90.48c-3.083,2.865-9.022,2.503-12.988,2.715c-5.296,0.281-10.801-0.022-15.729-2.138
			c-0.802-0.345-1.5,0.834-0.69,1.182c5.211,2.237,10.814,2.537,16.418,2.324c4.356-0.166,10.545,0.054,13.956-3.116
			C97.521,90.846,96.551,89.88,95.907,90.48L95.907,90.48z"/>
	</g>
	<g>
		<path d="M213.004,99.802c1.171,3.008,5.676,8.736,9.248,5.355c2.944-2.783-0.08-8.475-2.696-10.411
			c-0.861-0.637-2.346-0.188-2.81,0.737c-1.148,2.292-0.469,4.385,0.684,6.521c1.259,2.332,4.806,0.258,3.547-2.072
			c-0.345-0.636-1.054-1.642-0.685-2.377c-0.936,0.246-1.873,0.492-2.81,0.737c-0.318-0.235,0.294,0.373,0.355,0.458
			c0.367,0.509,0.663,1.066,0.94,1.628c0.205,0.416,0.333,0.865,0.453,1.312c0.078,0.292,0.067,0.288,0.078,0.576
			c0.021,0.529-0.051,0.188,0.005,0.084c0.256-0.476,0.874-0.175,0.394-0.412c-0.501-0.249-0.883-0.668-1.263-1.069
			c-0.329-0.346-0.603-0.725-0.87-1.119c-0.159-0.237-0.301-0.483-0.442-0.73c0.002,0.004-0.326-0.715-0.168-0.309
			C216.012,96.272,212.04,97.332,213.004,99.802L213.004,99.802z"/>
	</g>
	<g>
		<path d="M146.027,105.699c-8.731-0.445-18.647,1.562-25.154,7.709c-6.856,6.478-10.703,16.7-9.98,26.031
			c1.394,17.979,24.437,23.875,38.659,17.961c16.55-6.883,21.59-28.528,12.166-42.982c-9.721-14.913-30.146-9.484-41.6-0.215
			c-2.059,1.667,0.866,4.553,2.903,2.903c9.949-8.053,26.132-12.435,35.151-0.615c9.705,12.716,2.652,31.808-11.309,37.612
			c-12.686,5.274-30.851-1.592-31.993-16.315c-0.615-7.931,3.716-15.851,8.907-21.476c5.173-5.61,15.065-6.873,22.249-6.506
			C148.675,109.94,148.662,105.833,146.027,105.699L146.027,105.699z"/>
	</g>
	<g>
		<path d="M139.696,124.464c-4.327-0.06-7.009,3.346-7.444,7.388c-0.485,4.494,3.025,7.871,7.331,8.011
			c6.109,0.2,11.166-7.518,7.201-12.622c-3.189-4.108-9.674-2.838-13.102,0.219c-1.98,1.766,0.935,4.66,2.903,2.903
			c1.583-1.412,4.854-2.437,6.69-0.916c3.099,2.566-1.68,6.737-4.505,6.245c-3.876-0.675-2.86-7.177,0.925-7.124
			C142.346,128.608,142.343,124.501,139.696,124.464L139.696,124.464z"/>
	</g>
	<g>
		<path d="M140.534,113.824c-2.514-0.576-4.491,1.672-4.429,4.086c0.072,2.795,3.441,3.938,5.712,2.893
			c2.035-0.936,2.672-3.465,1.835-5.438c-1.124-2.653-4-2.608-6.213-1.386c-0.773,0.427-0.082,1.608,0.692,1.182
			c1.401-0.774,3.179-1.13,4.13,0.458c0.695,1.16,0.465,2.772-0.54,3.663c-1.294,1.146-3.871,0.525-4.232-1.195
			c-0.321-1.53,1.089-3.307,2.68-2.942C141.03,115.341,141.394,114.021,140.534,113.824L140.534,113.824z"/>
	</g>
	<g>
		<path d="M153.014,120.387c-2.322-0.141-3.819,2.06-4.029,4.17c-0.237,2.378,1.095,4.342,3.546,4.597
			c2.015,0.211,3.669-1.623,4.139-3.407c0.592-2.258-0.909-4.054-2.961-4.737c-0.839-0.28-1.196,1.042-0.364,1.32
			c1.408,0.468,2.314,1.527,2.004,3.052c-0.232,1.143-1.192,2.247-2.385,2.399c-3.727,0.473-3.314-6.229,0.049-6.026
			C153.896,121.81,153.891,120.44,153.014,120.387L153.014,120.387z"/>
	</g>
	<g>
		<path d="M153.346,135.297c-2.355,0.413-3.808,2.943-3.036,5.2c0.714,2.083,3.539,2.828,5.304,1.644
			c1.5-1.005,1.979-3.139,1.484-4.798c-0.614-2.069-2.725-2.453-4.522-1.704c-0.803,0.334-0.45,1.66,0.364,1.321
			c1.108-0.463,2.37-0.586,2.839,0.747c0.354,1.004,0.088,2.259-0.625,3.04c-0.984,1.078-2.871,0.618-3.51-0.585
			c-0.815-1.533,0.583-3.284,2.065-3.543C154.577,136.466,154.208,135.146,153.346,135.297L153.346,135.297z"/>
	</g>
	<g>
		<path d="M144.459,143.829c-2.549-0.166-4.963,2.517-4.426,5.067c0.5,2.364,3.435,3.454,5.491,2.392
			c1.655-0.855,2.335-2.965,2.082-4.703c-0.341-2.333-2.722-2.889-4.698-2.476c-0.865,0.18-0.497,1.5,0.364,1.321
			c1.298-0.271,2.627-0.078,2.985,1.365c0.268,1.084-0.245,2.314-1.035,3.045c-1.071,0.989-3.207,0.457-3.753-0.862
			c-0.754-1.82,1.216-3.896,2.99-3.78C145.34,145.255,145.334,143.886,144.459,143.829L144.459,143.829z"/>
	</g>
	<g>
		<path d="M131.551,141.286c-2.739-0.483-4.32,1.972-3.954,4.477c0.368,2.511,3.52,3.699,5.618,2.506
			c1.824-1.037,1.838-3.69,1.161-5.402c-0.846-2.132-2.885-3.112-4.978-2.025c-0.784,0.408-0.091,1.588,0.692,1.182
			c2.677-1.392,4.085,2.731,2.887,4.63c-0.888,1.408-3.224,0.616-3.86-0.58c-0.786-1.476,0.246-3.79,2.07-3.467
			C132.05,142.758,132.419,141.44,131.551,141.286L131.551,141.286z"/>
	</g>
	<g>
		<path d="M124.696,129.37c-3.282,0.064-5.811,2.283-5.145,5.746c0.479,2.485,3.561,3.451,5.593,2.289
			c1.625-0.931,2.453-3.079,2.258-4.875c-0.247-2.275-2.191-3.342-4.331-3.159c-0.873,0.075-0.881,1.444,0,1.369
			c1.324-0.113,2.535,0.204,2.918,1.602c0.314,1.15-0.168,2.506-0.931,3.373c-0.973,1.104-2.55,1.082-3.617,0.114
			c-0.937-0.849-0.716-2.407-0.25-3.423c0.62-1.354,2.179-1.639,3.505-1.665C125.577,130.722,125.58,129.353,124.696,129.37
			L124.696,129.37z"/>
	</g>
	<g>
		<path d="M128.364,118.101c-2.259,0.693-4.167,2.449-3.268,5.028c0.716,2.053,3.55,2.479,5.221,1.396
			c1.302-0.845,1.654-2.624,1.105-4.009c-0.686-1.735-2.485-2.262-4.17-1.73c-0.838,0.266-0.48,1.587,0.363,1.321
			c0.932-0.294,1.857-0.243,2.413,0.648c0.438,0.707,0.374,1.727-0.162,2.359c-0.782,0.923-2.456,0.772-3.239-0.027
			c-0.619-0.629-0.393-1.787-0.006-2.459c0.405-0.703,1.391-0.987,2.106-1.206C129.569,119.164,129.21,117.842,128.364,118.101
			L128.364,118.101z"/>
	</g>
	<g>
		<path d="M202.338,159.351c2.745,3.255,7.543,2.833,9.121-1.092c0.933-2.321-1.716-6.156-2.494-8.091
			c-0.15,0.567-0.3,1.135-0.449,1.703c0.687,0.853,1.436,1.651,2.243,2.393c1.135,1.123,2.41,1.408,3.893,1.738
			c1.397,0.312,2.462-0.619,2.599-1.979c0.19-1.886-0.332-3.192-1.145-4.876c-0.658-1.362-1.697-2.62-2.534-3.877
			c0.762,1.147,0.997,1.925,2.183,2.941c1.964,1.685,5.886,1.212,6.653-1.576c1.048-3.81-2.556-6.372-4.989-8.637
			c-4.472-4.164,0.928-1.458,3.556-0.358c1.529,0.64,3.646,0.782,5.129-0.086c2.464-1.443,2.388-4.736,0.325-6.569
			c-1.102-0.979-2.139-1.696-3.529-2.206c-1.01-0.369-2.05-0.669-3.066-1.025c-4.86-1.699,2.423-0.802,3.657-0.687
			c2.823,0.265,9.638,0.115,9.638-4.312c0-5.679-9.587-6.008-13.392-6.644c-2.591-0.433-3.7,3.524-1.093,3.959
			c1.641,0.228,3.264,0.545,4.868,0.955c-0.109-0.025,7.724,1.924,1.862,2.082c-2.71,0.072-5.182-0.435-7.899-0.051
			c-2.45,0.346-4.679,2.715-3.802,5.156c0.932,2.595,4.983,3.501,7.261,4.244c0.81-0.004,1.187,0.404,1.131,1.225
			c-1.158-0.367-2.722-1.177-3.903-1.662c-1.453-0.599-3.652-1.003-5.099-0.154c-2.38,1.394-2.494,3.542-1.399,5.806
			c0.793,1.637,2.605,3.001,3.893,4.201c2.012,1.873,2.93,3.307,0.294,0.661c-1.408-1.415-5.215-3.115-6.625-0.708
			c-2.544,4.343,4.346,7.947,3.918,12.199c0.866-0.661,1.732-1.32,2.6-1.98c-3.995-0.889-5.075-6.113-9.42-5.462
			c-0.674,0.102-1.271,0.809-1.433,1.434c-0.339,1.317-0.216,1.88,0.115,3.245c0.212,0.549,0.436,1.096,0.667,1.637
			c1.042,1.201,0.899,2.385-0.431,3.552C203.532,154.421,200.642,157.34,202.338,159.351L202.338,159.351z"/>
	</g>
	<g>
		<path d="M219.106,105.624c1.682,1.766,5.036,2.051,7.167,3.105c0.248,0.125,0.487,0.266,0.719,0.418
			c0.543,0.336,0.578-1.159-0.16-1.105c-1.056,0.076-2.152-0.115-3.203-0.202c-2.845-0.234-5.668-0.272-8.438,0.477
			c-1.409,0.381-2.937,1.295-3.266,2.81c-0.461,2.123,1.617,3.124,3.295,3.58c3.256,0.887,6.736-0.5,10.039,0
			c1.075,0.435,1.112,0.107,0.115-0.982c-0.762,0.576-1.7,0.972-2.581,1.314c-1.33,0.518-2.752,0.808-4.15,1.071
			c-2.599,0.489-1.495,4.448,1.093,3.959c2.816-0.531,11.354-2.503,10.139-6.923c-0.526-1.916-2.88-2.301-4.52-2.549
			c-1.203-0.182-9.274,0.976-9.678,0.04c0.07,0.527,0.139,1.055,0.208,1.582c-0.155,0.715,0.361,0.068,1.112-0.135
			c1.396-0.378,2.853-0.307,4.28-0.259c1.636,0.056,3.262,0.23,4.896,0.32c1.947,0.107,5.082-0.86,4.911-3.394
			c-0.142-2.099-1.818-3.164-3.579-3.964c-1.37-0.623-4.911-1.45-5.497-2.065C220.181,100.8,217.282,103.707,219.106,105.624
			L219.106,105.624z"/>
	</g>
</g>
</svg>
