<?xml version="1.0" encoding="utf-8"?>
<!-- Generator: Adobe Illustrator 15.1.0, SVG Export Plug-In . SVG Version: 6.00 Build 0)  -->
<!DOCTYPE svg PUBLIC "-//W3C//DTD SVG 1.1//EN" "http://www.w3.org/Graphics/SVG/1.1/DTD/svg11.dtd">
<svg version="1.1" id="Layer_1" xmlns="http://www.w3.org/2000/svg" xmlns:xlink="http://www.w3.org/1999/xlink" x="0px" y="0px"
	 width="290px" height="233px" viewBox="0 0 290 233" enable-background="new 0 0 290 233" xml:space="preserve">
<g>
	<g>
		<g>
			<path d="M186.812,45.171c-6.204,44.731-12.407,89.462-18.608,134.193c-0.337,2.427,3.372,3.474,3.711,1.022
				c6.203-44.73,12.407-89.461,18.609-134.192C190.86,43.768,187.152,42.721,186.812,45.171L186.812,45.171z"/>
		</g>
		<g>
			<path d="M120.461,40.246c18.608-0.72,37.191-2.235,55.823-2.293c2.481-0.007,2.483-3.857,0-3.85
				c-18.632,0.058-37.215,1.573-55.823,2.293C117.987,36.492,117.977,40.342,120.461,40.246L120.461,40.246z"/>
		</g>
		<g>
			<path d="M175.803,38.113c5.142-0.022,9.823,2.778,10.816,8.051c0.459,2.438,4.17,1.402,3.713-1.022
				c-1.303-6.916-7.791-10.909-14.529-10.878C173.322,34.275,173.319,38.125,175.803,38.113L175.803,38.113z"/>
		</g>
		<g>
			<path d="M168.477,176.924c-0.905,13.739-18.219,12.508-27.826,10.985c-2.429-0.385-3.471,3.325-1.024,3.712
				c12.481,1.978,31.595,2.085,32.7-14.697C172.491,174.444,168.64,174.46,168.477,176.924L168.477,176.924z"/>
		</g>
	</g>
	<g>
		<g>
			<path d="M177.508,53.674c-4.805,33.344-9.608,66.69-14.412,100.036c-0.35,2.427,3.358,3.473,3.711,1.022
				c4.805-33.344,9.608-66.689,14.413-100.035C181.568,52.27,177.86,51.224,177.508,53.674L177.508,53.674z"/>
		</g>
		<g>
			<path d="M125.227,49.387c14.677-0.395,29.386-0.173,44.066-0.173c2.483,0,2.483-3.85,0-3.85c-14.68,0-29.389-0.222-44.066,0.172
				C122.75,45.604,122.744,49.454,125.227,49.387L125.227,49.387z"/>
		</g>
		<g>
			<path d="M168.901,49.329c3.597-0.011,7.614,1.477,8.45,5.347c0.523,2.427,4.235,1.397,3.711-1.022
				c-1.196-5.546-6.911-8.19-12.162-8.173C166.419,45.487,166.418,49.337,168.901,49.329L168.901,49.329z"/>
		</g>
	</g>
	<g>
		<g>
			<path d="M113.301,53.847c-4.332,31.352-8.661,62.703-12.991,94.055c-0.336,2.427,3.373,3.474,3.711,1.023
				c4.331-31.352,8.661-62.703,12.991-94.055C117.349,52.443,113.639,51.396,113.301,53.847L113.301,53.847z"/>
		</g>
		<g>
			<path d="M125.227,45.537c-5.264-0.011-10.608,2.817-11.77,8.29c-0.514,2.421,3.197,3.451,3.711,1.022
				c0.81-3.812,4.428-5.469,8.059-5.461C127.71,49.392,127.71,45.542,125.227,45.537L125.227,45.537z"/>
		</g>
	</g>
	<g>
		<g>
			<path d="M108.939,44.522c-6.033,43.88-12.066,87.761-18.099,131.641c-0.333,2.426,3.376,3.474,3.712,1.022
				c6.033-43.88,12.066-87.76,18.099-131.64C112.986,43.118,109.276,42.07,108.939,44.522L108.939,44.522z"/>
		</g>
		<g>
			<path d="M192.936,45.556c-6.292,45.767-12.586,91.533-18.88,137.299c-0.333,2.426,3.376,3.474,3.712,1.022
				c6.293-45.766,12.587-91.532,18.88-137.299C196.982,44.152,193.273,43.104,192.936,45.556L192.936,45.556z"/>
		</g>
		<g>
			<path d="M112.651,45.562c1.422-4.113,5.394-5.266,9.375-5.317c2.48-0.031,2.483-3.88,0-3.85
				c-5.829,0.074-11.078,2.328-13.087,8.144C108.127,46.892,111.846,47.895,112.651,45.562L112.651,45.562z"/>
		</g>
		<g>
			<path d="M119.902,40.411c2.484,0,2.484-3.85,0-3.85C117.421,36.561,117.421,40.411,119.902,40.411L119.902,40.411z"/>
		</g>
		<g>
			<path d="M176.846,37.952c7.045-0.651,14.488,0.589,15.895,8.594c0.428,2.442,4.139,1.405,3.712-1.023
				c-1.701-9.687-10.915-12.225-19.606-11.42C174.395,34.33,174.374,38.182,176.846,37.952L176.846,37.952z"/>
		</g>
		<g>
			<path d="M90.802,176.678c-0.358,6.079,5.952,9.949,11.362,10.295c2.482,0.16,2.466-3.691,0-3.849
				c-3.398-0.218-7.74-2.585-7.512-6.446C94.798,174.197,90.947,174.211,90.802,176.678L90.802,176.678z"/>
		</g>
		<g>
			<path d="M101.026,186.973c9.631,0.309,19.479,2.199,29.054,3.388c10.643,1.321,21.277,2.69,31.957,3.707
				c2.472,0.236,2.449-3.617,0-3.849c-9.858-0.939-19.68-2.167-29.505-3.402c-10.422-1.308-21.007-3.356-31.506-3.693
				C98.542,183.044,98.551,186.895,101.026,186.973L101.026,186.973z"/>
		</g>
		<g>
			<path d="M174.337,180.345c-0.358,8.04-7.995,10.695-14.974,9.635c-2.428-0.369-3.472,3.341-1.024,3.712
				c9.544,1.449,19.37-2.613,19.848-13.347C178.297,177.863,174.447,177.874,174.337,180.345L174.337,180.345z"/>
		</g>
	</g>
	<g>
		<path d="M100.249,148.637c0.59,4.904,4.973,6.928,9.465,7.218c2.48,0.161,2.463-3.69,0-3.85c-2.065-0.134-5.312-0.854-5.615-3.369
			C103.807,146.203,99.954,146.175,100.249,148.637L100.249,148.637z"/>
	</g>
	<g>
		<path d="M108.4,155.787c7.187,1.476,14.716,1.52,22.006,2.227c9.322,0.905,18.624,1.975,27.96,2.729c2.477,0.2,2.456-3.652,0-3.85
			c-7.793-0.629-15.565-1.455-23.342-2.262c-8.446-0.877-17.28-0.848-25.602-2.557C107,151.576,105.969,155.287,108.4,155.787
			L108.4,155.787z"/>
	</g>
	<g>
		<path d="M163.521,150.371c-0.286,1.738-0.415,4.048-1.603,5.458c-1.609,1.907-5.282,1.126-7.339,0.766
			c-2.426-0.425-3.465,3.286-1.023,3.712c3.412,0.597,7.77,1.223,10.613-1.305c2.166-1.926,2.619-4.896,3.064-7.608
			C167.631,148.966,163.921,147.925,163.521,150.371L163.521,150.371z"/>
	</g>
	<ellipse fill="none" stroke="#000000" stroke-miterlimit="10" cx="129.421" cy="171.393" rx="9.545" ry="9.471"/>
	<ellipse cx="129.42" cy="171.393" rx="7.496" ry="7.438"/>
	<path d="M124.739,53.46c-1.095,0.012-2.265,0.218-3.338-0.038c-2.414-0.576-3.439,3.136-1.024,3.712
		c1.453,0.346,2.888,0.192,4.362,0.175C127.22,57.282,127.224,53.433,124.739,53.46z"/>
	<path d="M132.866,53.46h-2.993c-2.484,0-2.484,3.85,0,3.85h2.993C135.35,57.31,135.35,53.46,132.866,53.46z"/>
	<path d="M169.868,53.674h-6.309c-2.484,0-2.484,3.85,0,3.85h6.309C172.351,57.524,172.351,53.674,169.868,53.674z"/>
	<path d="M130.501,74.852c0.397-2.437,0.756-4.879,1.024-7.338c-3.404-0.13-6.808-0.219-10.214-0.271
		c-0.012,0.077-0.039,0.145-0.047,0.226c-0.253,2.341-0.596,4.667-0.976,6.99C123.702,74.48,127.104,74.621,130.501,74.852z"/>
	<path d="M128.602,85.68c0.434-2.497,0.892-4.988,1.331-7.484c-3.397-0.221-6.801-0.366-10.217-0.372
		c-0.428,2.428-0.869,4.853-1.293,7.281C121.807,85.223,125.201,85.416,128.602,85.68z"/>
	<path d="M126.683,99.537c0.198-1.736,0.395-3.472,0.606-5.207c0.215-1.777,0.48-3.546,0.762-5.31
		c-3.402-0.26-6.797-0.454-10.181-0.562c-0.117,0.723-0.249,1.443-0.357,2.167c-0.403,2.757-0.731,5.522-1.055,8.285
		C119.876,99.016,123.283,99.228,126.683,99.537z"/>
	<path d="M124.948,112.793c0.527-3.294,0.957-6.602,1.347-9.917c-3.4-0.304-6.811-0.507-10.229-0.603
		c-0.375,3.168-0.785,6.332-1.309,9.48C118.148,112.176,121.545,112.511,124.948,112.793z"/>
	<path d="M148.365,76.525c0.264-2.029,0.512-4.06,0.787-6.088c0.091-0.672,0.043-1.293-0.076-1.88
		c-3.28-0.268-6.561-0.486-9.847-0.673c-0.343,2.536-0.656,5.074-0.981,7.612C141.624,75.817,144.994,76.17,148.365,76.525z"/>
	<path d="M145.282,101.644c0.434-3.588,0.864-7.175,1.298-10.763c-3.365-0.396-6.732-0.777-10.098-1.118
		c-0.429,3.559-0.858,7.117-1.288,10.675C138.558,100.833,141.918,101.243,145.282,101.644z"/>
	<path d="M143.723,114.278c0.395-3.1,0.779-6.202,1.156-9.305c-3.363-0.402-6.725-0.813-10.088-1.204
		c-0.394,3.232-0.801,6.462-1.215,9.692C136.961,113.71,140.345,113.968,143.723,114.278z"/>
	<path d="M146.989,87.551c0.312-2.565,0.624-5.129,0.948-7.694c-3.374-0.354-6.745-0.709-10.119-1.026
		c-0.316,2.531-0.623,5.065-0.93,7.598C140.256,86.773,143.623,87.154,146.989,87.551z"/>
	<path d="M163.43,77.888c0.345-2.562,0.676-5.125,0.984-7.692c0.002-0.023,0-0.044,0.002-0.067c-3.324-0.41-6.652-0.78-9.983-1.098
		c-0.128,0.364-0.236,0.745-0.286,1.166c-0.273,2.281-0.571,4.56-0.875,6.838C156.654,77.369,160.041,77.663,163.43,77.888z"/>
	<path d="M159.561,103.043c0.338-0.592,0.583-1.271,0.682-2.049c0.361-2.786,0.746-5.567,1.133-8.349
		c-3.356-0.391-6.727-0.801-10.101-1.208c-0.445,3.185-0.886,6.369-1.298,9.557c-0.055,0.424-0.06,0.817-0.027,1.185
		C153.148,102.529,156.351,102.824,159.561,103.043z"/>
	<path d="M161.834,89.321c0.378-2.697,0.761-5.393,1.133-8.091c-3.386-0.23-6.769-0.528-10.146-0.867
		c-0.355,2.585-0.721,5.169-1.085,7.753C155.111,88.524,158.48,88.932,161.834,89.321z"/>
</g>
</svg>
