<?xml version="1.0" encoding="utf-8"?>
<!-- Generator: Adobe Illustrator 15.1.0, SVG Export Plug-In . SVG Version: 6.00 Build 0)  -->
<!DOCTYPE svg PUBLIC "-//W3C//DTD SVG 1.1//EN" "http://www.w3.org/Graphics/SVG/1.1/DTD/svg11.dtd">
<svg version="1.1" id="Layer_1" xmlns="http://www.w3.org/2000/svg" xmlns:xlink="http://www.w3.org/1999/xlink" x="0px" y="0px"
	 width="290px" height="233px" viewBox="0 0 290 233" enable-background="new 0 0 290 233" xml:space="preserve">
<g>
	<g>
		<path d="M61.522,100.902c42.038-20.746,86.389-36.69,129.817-54.213c3.251-1.311,1.833-6.644-1.463-5.312
			c-43.868,17.7-88.668,33.812-131.134,54.769C55.555,97.717,58.347,102.47,61.522,100.902L61.522,100.902z"/>
	</g>
	<g>
		<path d="M107.922,210.686c38.993-18.631,78.913-35.186,118.691-52.041c3.263-1.381,0.451-6.125-2.779-4.756
			c-39.781,16.854-79.699,33.41-118.692,52.041C101.938,207.459,104.733,212.21,107.922,210.686L107.922,210.686z"/>
	</g>
	<g>
		<path d="M187.355,48.284c20.554-10.268,28.438,29.844,32.996,42.544c5.101,14.21,10.078,28.718,12.002,43.754
			c0.648,5.074,1.312,11.301-2.422,15.336c-3.867,4.176-11.459,6.172-16.44,8.206c-3.245,1.323-1.826,6.655,1.463,5.312
			c9.353-3.82,21.284-7.008,23.024-18.436c2.902-19.053-7.166-41.292-13.438-58.767c-5.992-16.696-14.353-55.506-39.965-42.708
			C181.396,45.115,184.188,49.867,187.355,48.284L187.355,48.284z"/>
	</g>
	<g>
		<path d="M56.183,99.2c-0.523,22.073,7.557,43.146,15.954,63.194c4.122,9.844,9.101,19.291,14.937,28.222
			c4.514,6.909,9.484,15.202,16.389,19.931c2.939,2.016,5.691-2.762,2.78-4.756c-6.706-4.596-11.685-13.782-16.089-20.521
			c-5.547-8.488-9.956-17.778-13.866-27.113c-7.809-18.646-15.08-38.469-14.594-58.956C61.777,95.646,56.267,95.653,56.183,99.2
			L56.183,99.2z"/>
	</g>
	<g>
		<path d="M75.771,93.079c0.124,16.755,6.226,33.386,11.646,49.056c5.82,16.827,13.781,32.797,24.239,47.223
			c2.062,2.848,6.846,0.103,4.757-2.78c-9.619-13.269-16.892-27.654-22.633-42.983c-5.9-15.76-12.374-33.566-12.499-50.515
			C81.255,89.528,75.745,89.524,75.771,93.079L75.771,93.079z"/>
	</g>
	<g>
		<path d="M167.027,46.281c7.188-3.193,14.375-6.383,21.554-9.596c3.239-1.447,0.435-6.195-2.78-4.756
			c-7.179,3.21-14.365,6.401-21.553,9.595C161.005,42.964,163.812,47.71,167.027,46.281L167.027,46.281z"/>
	</g>
	<g>
		<path d="M60.633,99.74c11.556-5.413,23.301-10.413,34.742-16.07c3.186-1.575,0.393-6.326-2.779-4.756
			c-11.443,5.655-23.188,10.655-34.743,16.07C54.637,96.49,57.437,101.238,60.633,99.74L60.633,99.74z"/>
	</g>
	<g>
		<path d="M189.07,36.376c2.156-0.811,2.896,0.115,3.885,2.04c1.023,1.994,1.479,4.287,2.141,6.417
			c1.051,3.383,6.37,1.939,5.312-1.463c-1.835-5.899-4.509-15.428-12.8-12.306C184.314,32.304,185.74,37.632,189.07,36.376
			L189.07,36.376z"/>
	</g>
	<g>
		<path d="M69.039,90.015c0,0.103,0,0.205,0,0.307c0,3.553,5.51,3.553,5.51,0c0-0.102,0-0.204,0-0.307
			C74.548,86.463,69.039,86.463,69.039,90.015L69.039,90.015z"/>
	</g>
	<g>
		<path d="M63.027,99.31c28.099-22.022,53.825-46.976,79.891-71.319c2.604-2.43-1.302-6.317-3.896-3.896
			C112.957,48.438,87.23,73.39,59.131,95.414C56.337,97.604,60.265,101.474,63.027,99.31L63.027,99.31z"/>
	</g>
	<g>
		<path d="M139.205,27.737c2.902,3.921,4.642,8.508,7.346,12.551c1.965,2.938,6.738,0.183,4.758-2.78
			c-2.705-4.043-4.443-8.632-7.347-12.551C141.872,22.136,137.087,24.878,139.205,27.737L139.205,27.737z"/>
	</g>
	<g>
		<path d="M92.038,83.239c0.021,0.029,0.043,0.056,0.064,0.084c0.728,0.927,2.397,1.042,3.339,0.431
			c9.857-6.407,18.773-14.515,28.162-21.583c14.054-10.579,28.315-20.877,42.48-31.303c2.828-2.081,0.086-6.866-2.78-4.756
			c-13.224,9.731-26.508,19.383-39.671,29.197c-10.334,7.705-20.168,16.666-30.972,23.687c1.114,0.144,2.226,0.288,3.34,0.431
			c-0.024-0.027-0.045-0.056-0.066-0.083C93.743,76.549,89.872,80.478,92.038,83.239L92.038,83.239z"/>
	</g>
	<g>
		<path d="M162.167,29.179c1.026,7.793,0.703,15.586,0.459,23.416c-0.11,3.555,5.397,3.544,5.511,0
			c0.243-7.83,0.565-15.623-0.459-23.416C167.221,25.709,161.705,25.664,162.167,29.179L162.167,29.179z"/>
	</g>
	<g>
		<path d="M183.354,58.358c3.961-1.625,7.924-3.252,11.885-4.876c1.08-0.443,0.609-2.221-0.486-1.772
			c-3.962,1.625-7.924,3.251-11.886,4.876C181.787,57.029,182.259,58.806,183.354,58.358L183.354,58.358z"/>
	</g>
	<g>
		<path d="M165.527,65.674c3.961-1.625,7.924-3.251,11.886-4.876c1.08-0.443,0.606-2.221-0.488-1.772
			c-3.962,1.625-7.924,3.251-11.886,4.876C163.959,64.345,164.432,66.122,165.527,65.674L165.527,65.674z"/>
	</g>
	<g>
		<path d="M145.323,73.965c4.359-1.788,8.715-3.576,13.074-5.364c1.08-0.443,0.607-2.221-0.488-1.772
			c-4.358,1.788-8.715,3.576-13.073,5.364C143.755,72.636,144.227,74.414,145.323,73.965L145.323,73.965z"/>
	</g>
	<g>
		<path d="M125.117,82.256c4.358-1.788,8.717-3.576,13.075-5.364c1.08-0.443,0.608-2.221-0.488-1.772
			c-4.358,1.788-8.716,3.577-13.075,5.365C123.549,80.927,124.021,82.705,125.117,82.256L125.117,82.256z"/>
	</g>
	<g>
		<path d="M106.1,90.06c4.358-1.788,8.715-3.576,13.073-5.364c1.08-0.443,0.608-2.221-0.488-1.772
			c-4.358,1.79-8.714,3.576-13.073,5.365C104.533,88.731,105.004,90.508,106.1,90.06L106.1,90.06z"/>
	</g>
	<g>
		<path d="M90.249,96.565c3.39-1.392,6.78-2.781,10.169-4.173c1.08-0.443,0.608-2.223-0.488-1.772
			c-3.39,1.392-6.779,2.782-10.169,4.173C88.682,95.238,89.153,97.016,90.249,96.565L90.249,96.565z"/>
	</g>
	<g>
		<path d="M220.59,149.197c2.732-1.204,5.463-2.412,8.194-3.617c1.082-0.477,0.147-2.059-0.925-1.585
			c-2.731,1.205-5.463,2.411-8.195,3.616C218.583,148.09,219.518,149.672,220.59,149.197L220.59,149.197z"/>
	</g>
	<g>
		<path d="M205.374,155.918c2.731-1.205,5.463-2.412,8.192-3.617c1.082-0.479,0.147-2.059-0.924-1.586
			c-2.731,1.206-5.463,2.412-8.193,3.618C203.367,154.811,204.301,156.393,205.374,155.918L205.374,155.918z"/>
	</g>
	<g>
		<path d="M190.154,162.639c2.732-1.205,5.464-2.412,8.195-3.617c1.082-0.478,0.147-2.06-0.926-1.586
			c-2.732,1.207-5.463,2.414-8.193,3.619C188.148,161.529,189.083,163.111,190.154,162.639L190.154,162.639z"/>
	</g>
	<g>
		<path d="M174.938,169.359c2.733-1.207,5.463-2.412,8.195-3.618c1.081-0.478,0.146-2.06-0.926-1.585
			c-2.73,1.205-5.463,2.412-8.195,3.617C172.932,168.25,173.865,169.833,174.938,169.359L174.938,169.359z"/>
	</g>
	<g>
		<path d="M162.062,175.045c2.342-1.033,4.683-2.068,7.023-3.102c1.082-0.477,0.146-2.059-0.926-1.586
			c-2.342,1.033-4.684,2.068-7.023,3.102C160.055,173.936,160.988,175.518,162.062,175.045L162.062,175.045z"/>
	</g>
	<g>
		<path d="M143.333,183.316c3.903-1.725,7.804-3.447,11.707-5.17c1.083-0.477,0.147-2.059-0.925-1.584
			c-3.903,1.722-7.805,3.444-11.707,5.168C141.327,182.208,142.261,183.79,143.333,183.316L143.333,183.316z"/>
	</g>
	<g>
		<path d="M124.97,191.425c4.249-1.876,8.496-3.752,12.743-5.627c1.082-0.478,0.147-2.06-0.926-1.585
			c-4.249,1.874-8.496,3.75-12.743,5.626C122.963,190.316,123.897,191.898,124.97,191.425L124.97,191.425z"/>
	</g>
	<g>
		<path d="M198.128,142.831c1.157,6.657,5.074,6.644,10.562,4.239c4.42-1.937,13.709-4.158,12.435-10.59
			c-1.202-6.059-5.376-5.15-10.022-2.98c-3.715,1.732-7.595,3.361-11.051,5.575c-2.143,1.372-2.072,3.418-1.349,5.593
			c0.373,1.118,2.146,0.639,1.772-0.486c-1.397-4.195,4.303-5.631,7.268-7.039c2.962-1.408,9.857-6.222,11.439-1.041
			c1.398,4.582-4.225,5.963-7.381,7.48c-2.144,1.031-4.285,2.041-6.486,2.941c-3.633,1.484-4.932-1.396-5.414-4.18
			C199.697,141.178,197.928,141.673,198.128,142.831L198.128,142.831z"/>
	</g>
</g>
</svg>
