<?xml version="1.0" encoding="utf-8"?>
<!-- Generator: Adobe Illustrator 15.1.0, SVG Export Plug-In . SVG Version: 6.00 Build 0)  -->
<!DOCTYPE svg PUBLIC "-//W3C//DTD SVG 1.1//EN" "http://www.w3.org/Graphics/SVG/1.1/DTD/svg11.dtd">
<svg version="1.1" id="Layer_1" xmlns="http://www.w3.org/2000/svg" xmlns:xlink="http://www.w3.org/1999/xlink" x="0px" y="0px"
	 width="290px" height="233px" viewBox="0 0 290 233" enable-background="new 0 0 290 233" xml:space="preserve">
<g>
	<g>
		<path d="M43.542,53.538c-1.176,23.179,0.284,46.692,0.974,69.878c0.732,24.607,2.347,49.161,6.327,73.473
			c0.708,4.33,7.274,2.486,6.571-1.811c-3.884-23.727-5.298-47.661-6.083-71.662c-0.761-23.171-2.149-46.713-0.974-69.878
			C50.579,49.143,43.764,49.166,43.542,53.538L43.542,53.538z"/>
	</g>
	<g>
		<path d="M48.382,57.332c27.145-2.704,54.099-5.24,81.376-6.158c29.18-0.983,58.367-1.364,87.484-3.687
			c4.35-0.346,4.384-7.166,0-6.815c-27.662,2.208-55.396,2.727-83.123,3.55c-28.746,0.856-57.138,3.447-85.738,6.296
			C44.052,50.947,44.01,57.766,48.382,57.332L48.382,57.332z"/>
	</g>
	<g>
		<path d="M55.954,199.688c25.559-0.496,51.168-4.045,76.613-6.33c30.708-2.756,61.445-5.152,92.248-6.543
			c4.377-0.198,4.395-7.016,0-6.815c-30.806,1.392-61.535,3.812-92.248,6.544c-25.45,2.264-51.052,5.832-76.613,6.329
			C51.566,192.959,51.557,199.773,55.954,199.688L55.954,199.688z"/>
	</g>
	<g>
		<path d="M78.793,51.126c-6.349,18.573-3.752,42.112-3.98,61.461c-0.289,24.425,0.97,48.828,5.495,72.862
			c0.812,4.318,7.38,2.482,6.571-1.811c-4.155-22.07-5.269-44.359-5.278-66.777c-0.004-11.367,0.364-22.736,0.721-34.097
			c0.311-9.932-0.206-20.327,3.042-29.829C86.79,48.769,80.206,46.992,78.793,51.126L78.793,51.126z"/>
	</g>
	<g>
		<path d="M230.666,131.327c0.152,9.349,0.014,18.661-0.781,27.981c-0.359,4.217-1.098,19.732-7.109,20.812
			c-4.322,0.775-2.485,7.343,1.81,6.57c6.181-1.11,8.401-7.938,9.874-13.217c3.741-13.41,3.248-28.387,3.021-42.147
			C237.408,126.938,230.593,126.93,230.666,131.327L230.666,131.327z"/>
	</g>
	<g>
		<path d="M217.243,47.865c6.12-0.197,10.157,40.01,10.579,43.444c0.527,4.304,7.348,4.355,6.814,0
			c-1.605-13.129-3.389-26.417-7.537-39.022c-1.479-4.483-4.123-11.422-9.856-11.236C212.859,41.192,212.846,48.008,217.243,47.865
			L217.243,47.865z"/>
	</g>
	<g>
		<path d="M232.766,90.459c-0.576-0.728-1.149-1.456-1.725-2.183c-2.057,2.25-4.604,3.649-7.643,4.195
			c-4.377,1.387-9.188,1.515-13.73,1.964c-8.473,0.836-16.971,1.397-25.46,2.01c-4.356,0.315-4.388,7.13,0,6.815
			c15.308-1.103,33.028-0.286,47.297-6.638c5.255-2.338,11.052-14.287,1.261-12.978C228.475,84.219,228.419,91.041,232.766,90.459
			L232.766,90.459z"/>
	</g>
	<g>
		<path d="M235.6,124.154c-0.543,9.641-39.066,10.418-45.154,10.938c-4.346,0.37-4.381,7.188,0,6.814
			c12.748-1.086,26.16-2.125,38.521-5.541c5.814-1.606,13.077-5.629,13.448-12.211C242.663,119.762,235.846,119.787,235.6,124.154
			L235.6,124.154z"/>
	</g>
	<g>
		<path d="M179.846,100.382c-5.26,6.991-12.838,11.121-18.492,17.483c-1.336,1.502-1.418,4.379,0.689,5.351
			c3.926,1.812,6.986,3.438,10.506,6.104c4.617,3.5,10.744,6.703,14.502,11.111c2.855,3.35,7.654-1.496,4.818-4.818
			c-3.131-3.672-7.814-6.125-11.672-8.998c-4.946-3.684-9.168-6.723-14.717-9.282c0.23,1.784,0.459,3.567,0.689,5.353
			c2.709-3.049,6.54-5.348,9.621-8.091c3.686-3.281,6.975-6.835,9.938-10.772C188.374,100.307,182.453,96.917,179.846,100.382
			L179.846,100.382z"/>
	</g>
	<g>
		<path d="M192.018,109.769c-5.771-0.12-11.195,4.073-9.392,10.276c1.677,5.771,9.64,7.48,13.733,3.294
			c2.086-2.131,2.731-5.843,1.336-8.499c-1.506-2.869-5.204-3.889-8.051-2.403c-2.365,1.236-3.562,3.964-3.062,6.547
			c0.604,3.109,3.797,4.367,6.622,3.582c4.229-1.176,2.432-7.75-1.811-6.57c-0.455,0.12-0.485,0.133-0.096,0.04
			c0.754,0.023,1.333,0.354,1.735,0.995c0.147,0.246,0.224,0.512,0.224,0.798c0.014-0.384,0.01-0.343-0.018,0.13
			c-0.19,0.387-0.193,0.408-0.004,0.068c-0.094,0.188-0.231,0.332-0.416,0.433c-0.266,0.185-0.45,0.108-0.684-0.006
			c-0.58-0.292-0.541-1.154-0.517-0.433c-0.011-0.344-0.292,0.81-0.175,0.59c-0.08,0.152-0.25,0.267-0.647,0.291
			c-0.813,0.052-1.93-0.543-1.778-1.344c0.133-0.711-0.297,0.207,0.188-0.295c-0.396,0.41,0.82-0.455,0.363-0.264
			c1.057-0.442,1.425-0.438,2.445-0.415C196.414,116.674,196.404,109.86,192.018,109.769L192.018,109.769z"/>
	</g>
	<g>
		<path d="M232.887,87.105c5.2,12.792,6.041,25.437,1.846,38.654c-1.332,4.2,5.248,5.983,6.572,1.812
			c4.527-14.258,3.777-28.44-1.847-42.274C237.825,81.279,231.229,83.032,232.887,87.105L232.887,87.105z"/>
	</g>
	<g>
		<path d="M47.247,55.439c25.8-3.33,50.889-10.442,76.627-14.129c13.805-1.977,27.62-3.993,41.489-5.475
			c6.894-0.737,13.82-0.934,20.722-1.542c2.481-0.309,4.974-0.482,7.476-0.521c10.976-0.473,10.519,5.058,11.188,11.445
			c0.452,4.326,7.271,4.37,6.815,0c-0.732-6.983-1.599-14.828-9.694-16.916c-15.083-3.891-33.925,0.276-49.179,2.199
			c-35.473,4.47-70.068,13.559-105.444,18.125C42.952,49.179,42.896,56,47.247,55.439L47.247,55.439z"/>
	</g>
	<g>
		<path d="M182.453,59.767c4.193-0.179,8.383-0.362,12.576-0.541c1.459-0.062,1.465-2.334,0-2.272
			c-4.192,0.18-8.383,0.362-12.576,0.542C180.993,57.558,180.986,59.829,182.453,59.767L182.453,59.767z"/>
	</g>
	<g>
		<path d="M157.303,60.846c5.24-0.224,10.48-0.451,15.721-0.674c1.459-0.062,1.463-2.334,0-2.272
			c-5.24,0.224-10.48,0.45-15.721,0.675C155.843,58.636,155.838,60.908,157.303,60.846L157.303,60.846z"/>
	</g>
	<g>
		<path d="M132.15,61.926c5.764-0.249,11.529-0.495,17.292-0.743c1.459-0.062,1.468-2.333,0-2.271
			c-5.763,0.249-11.528,0.494-17.292,0.743C130.69,59.716,130.687,61.988,132.15,61.926L132.15,61.926z"/>
	</g>
	<g>
		<path d="M107,63.008c5.764-0.249,11.53-0.497,17.293-0.743c1.459-0.062,1.464-2.334,0-2.272
			c-5.764,0.246-11.53,0.495-17.293,0.743C105.54,60.799,105.534,63.07,107,63.008L107,63.008z"/>
	</g>
	<g>
		<path d="M89.271,63.77c3.334-0.144,6.668-0.287,10.003-0.431c1.459-0.062,1.464-2.335,0-2.271
			c-3.334,0.144-6.669,0.286-10.003,0.43C87.811,61.56,87.804,63.833,89.271,63.77L89.271,63.77z"/>
	</g>
	<g>
		<path d="M185.082,177.258c5.205-0.222,10.406-0.445,15.611-0.67c1.459-0.062,1.467-2.333,0-2.271
			c-5.205,0.225-10.407,0.449-15.611,0.67C183.622,175.048,183.618,177.32,185.082,177.258L185.082,177.258z"/>
	</g>
	<g>
		<path d="M161.668,178.264c5.202-0.224,10.407-0.447,15.609-0.668c1.459-0.062,1.464-2.334,0-2.273
			c-5.202,0.223-10.407,0.447-15.609,0.671C160.209,176.055,160.205,178.327,161.668,178.264L161.668,178.264z"/>
	</g>
	<g>
		<path d="M136.694,179.336c5.202-0.225,10.408-0.445,15.609-0.67c1.459-0.062,1.463-2.333,0-2.271
			c-5.203,0.225-10.407,0.446-15.609,0.67C135.234,177.126,135.229,179.398,136.694,179.336L136.694,179.336z"/>
	</g>
	<g>
		<path d="M113.278,180.344c4.683-0.201,9.366-0.404,14.049-0.604c1.459-0.062,1.464-2.334,0-2.271
			c-4.683,0.2-9.366,0.401-14.049,0.604C111.818,178.134,111.812,180.408,113.278,180.344L113.278,180.344z"/>
	</g>
	<g>
		<path d="M94.934,181.131c3.667-0.158,7.333-0.314,10.999-0.472c1.46-0.063,1.464-2.334,0-2.272
			c-3.667,0.158-7.332,0.315-10.999,0.473C93.474,178.921,93.47,181.193,94.934,181.131L94.934,181.131z"/>
	</g>
	<g>
		<path d="M210.917,57.48c6.345-2.007,4.832,29.272,5.417,33.565c0.197,1.447,2.387,0.828,2.191-0.604
			c-0.702-5.153,2.637-38.583-8.213-35.153C208.923,55.729,209.518,57.921,210.917,57.48L210.917,57.48z"/>
	</g>
	<g>
		<path d="M219.326,141.383c-0.034,6.039-0.327,12.055-0.783,18.073c-0.18,2.356-0.07,4.649-0.021,7.01
			c0.102,4.992-2.832,6.728-6.879,7.328c-1.445,0.215-0.83,2.405,0.604,2.192c5.393-0.801,7.755-1.957,8.49-7.736
			c0.525-4.146,0.082-8.602,0.371-12.805c0.322-4.682,0.466-9.37,0.492-14.062C221.605,139.917,219.334,139.919,219.326,141.383
			L219.326,141.383z"/>
	</g>
</g>
</svg>
