<?xml version="1.0" encoding="utf-8"?>
<!-- Generator: Adobe Illustrator 15.1.0, SVG Export Plug-In . SVG Version: 6.00 Build 0)  -->
<!DOCTYPE svg PUBLIC "-//W3C//DTD SVG 1.1//EN" "http://www.w3.org/Graphics/SVG/1.1/DTD/svg11.dtd">
<svg version="1.1" id="Layer_1" xmlns="http://www.w3.org/2000/svg" xmlns:xlink="http://www.w3.org/1999/xlink" x="0px" y="0px"
	 width="328px" height="312px" viewBox="0 0 328 312" enable-background="new 0 0 328 312" xml:space="preserve">
<g>
	<path d="M49.82,219.455c64.772,0,129.546,0,194.319,0c1.855,0,1.855-2.876,0-2.876c-64.772,0-129.546,0-194.319,0
		C47.965,216.579,47.965,219.455,49.82,219.455L49.82,219.455z"/>
</g>
<g>
	<path d="M279.398,115.148c-4.739,16.985-9.479,33.974-14.219,50.962c-3.193,11.44-6.387,22.881-9.578,34.324
		c-1.526,5.469-2.484,11.481-5.279,16.445c-0.911,1.618,1.574,3.068,2.484,1.452c2.534-4.5,3.469-9.606,4.854-14.569
		c3.203-11.481,6.406-22.964,9.611-34.444c4.967-17.801,9.935-35.603,14.901-53.405
		C282.673,114.124,279.896,113.365,279.398,115.148L279.398,115.148z"/>
</g>
<g>
	<path d="M287.188,115.148c-10.736,35.875-21.47,71.751-32.291,107.599c-0.537,1.781,2.24,2.537,2.774,0.768
		c10.82-35.852,21.554-71.727,32.291-107.603C290.495,114.132,287.718,113.376,287.188,115.148L287.188,115.148z"/>
</g>
<g>
	<path d="M237.854,230.16c4.58-0.006,9.186,0.124,13.766-0.021c1.85-0.06,1.859-2.868,0-2.876c-0.159-0.001-0.316-0.001-0.475-0.001
		c-1.855,0-1.855,2.876,0,2.876c0.158,0,0.315,0,0.475,0.001c0-0.959,0-1.918,0-2.876c-4.58,0.146-9.186,0.016-13.766,0.021
		C235.999,227.286,235.998,230.162,237.854,230.16L237.854,230.16z"/>
</g>
<g>
	<path d="M82.873,230.313c43.706-0.025,87.412-0.07,131.118-0.122c1.854-0.003,1.854-2.879,0-2.876
		c-43.706,0.052-87.412,0.097-131.118,0.122C81.018,227.438,81.017,230.314,82.873,230.313L82.873,230.313z"/>
</g>
<g>
	<path d="M47.556,230.323c3.702,0,7.404,0.001,11.106,0c1.855,0,1.855-2.876,0-2.876c-3.703,0.001-7.404,0-11.106,0
		C45.701,227.447,45.701,230.323,47.556,230.323L47.556,230.323z"/>
</g>
<g>
	<path d="M241.902,237.14c3.457,0,6.916,0,10.375,0c1.854,0,1.854-2.876,0-2.876c-0.016,0-0.029,0-0.045,0
		c-1.854,0-1.854,2.876,0,2.876c0.016,0,0.029,0,0.045,0c1.854,0,1.854-2.876,0-2.876c-3.459,0-6.918,0-10.375,0
		C240.046,234.263,240.046,237.14,241.902,237.14L241.902,237.14z"/>
</g>
<g>
	<path d="M86.308,237.187c41.389-0.01,82.776-0.031,124.165-0.042c1.854,0,1.855-2.876,0-2.876
		c-41.389,0.011-82.776,0.033-124.165,0.042C84.453,234.312,84.453,237.188,86.308,237.187L86.308,237.187z"/>
</g>
<g>
	<path d="M48.915,237.192c2.024-0.002,4.048-0.043,6.072-0.047c1.855-0.002,1.855-2.879,0-2.876
		c-2.024,0.004-4.048,0.045-6.072,0.047C47.06,234.318,47.06,237.194,48.915,237.192L48.915,237.192z"/>
</g>
<g>
	<path d="M47.556,227.447c-3.619-0.01-10.734,0.292-9.92,5.65c0.765,5.03,7.635,4.235,11.278,4.095c1.849-0.072,1.856-2.949,0-2.876
		c-1.913,0.075-7.399,1.044-8.357-1.285c-1.196-2.908,5.496-2.71,6.999-2.708C49.412,230.328,49.411,227.452,47.556,227.447
		L47.556,227.447z"/>
</g>
<g>
	<path d="M247.868,227.072c0-7.777,0-15.553,0-23.331c0-1.854-2.876-1.854-2.876,0c0,7.778,0,15.554,0,23.331
		C244.991,228.927,247.868,228.927,247.868,227.072L247.868,227.072z"/>
</g>
<g>
	<path d="M247.896,203.724c0.334-1.02,0.842-2.062,1.719-2.728c0.334-0.252,0.679-0.481,1.044-0.687
		c0.442-0.247-0.571-0.716-0.556-0.324c0.076,1.849,2.953,1.854,2.877,0c-0.039-0.941-0.287-1.943-1.205-2.4
		c-0.928-0.462-1.899-0.132-2.748,0.34c-1.973,1.104-3.211,2.922-3.906,5.034C244.541,204.728,247.318,205.479,247.896,203.724
		L247.896,203.724z"/>
</g>
<g>
	<path d="M250.104,199.986c0,5.727,0,11.453,0,17.179c0,1.855,2.877,1.855,2.877,0c0-5.726,0-11.452,0-17.179
		C252.98,198.13,250.104,198.13,250.104,199.986L250.104,199.986z"/>
</g>
<g>
	<path d="M251.32,219.032c2.307,0.911,2.668,4.324,2.844,6.438c0.27,3.223-0.448,6.468-2.76,8.815
		c-1.301,1.323,0.732,3.358,2.035,2.034c4.49-4.563,5.974-17.163-1.354-20.062C250.359,215.574,249.617,218.356,251.32,219.032
		L251.32,219.032z"/>
</g>
<g>
	<path d="M49.713,226.752c0-9.32,0-18.643,0-27.965c0-1.854-2.876-1.854-2.876,0c0,9.322,0,18.646,0,27.965
		C46.837,228.607,49.713,228.607,49.713,226.752L49.713,226.752z"/>
</g>
<g>
	<path d="M49.554,198.787c0.146-3.029-3.166-5.311-5.987-4.137c-2.445,1.016-3.241,3.955-3.281,6.375
		c-0.03,1.855,2.846,1.853,2.876,0c0.019-1.145,0.214-2.477,0.995-3.37c0.903-1.035,2.582-0.121,2.521,1.132
		C46.588,200.643,49.464,200.635,49.554,198.787L49.554,198.787z"/>
</g>
<g>
	<path d="M40.125,201.664c0,8.737,0,17.473,0,26.208c0,1.855,2.876,1.855,2.876,0c0-8.734,0-17.471,0-26.208
		C43.002,199.809,40.125,199.809,40.125,201.664L40.125,201.664z"/>
</g>
<g>
	<path d="M277.742,132.046c1.266,0.322,2.107,0.623,2.986,1.654c0.91,1.068,2.924-0.064,2.404-1.397
		c-0.773-1.987-1.625-3.495-3.645-4.376c-0.241,0.893-0.483,1.786-0.725,2.681c1.274,0.056,2.285,0.479,3.452,0.906
		c1.634,0.597,2.349-1.747,1.108-2.628c-1-0.711-1.836-1.473-2.586-2.438c-0.211,0.8-0.424,1.602-0.635,2.403
		c0.703,0,1.407,0,2.111,0c1.533,0.221,2.607-1.734,1.107-2.628c-0.965-0.577-1.797-1.074-2.586-1.906
		c-0.211,0.8-0.422,1.602-0.635,2.403c1.09-0.25,2.221,0.15,3.284,0.318c1.558,0.248,2.572-1.72,1.108-2.628
		c-0.747-0.463-1.715-0.902-2.254-1.615c-0.287,0.704-0.572,1.409-0.859,2.114c0.764-0.087,1.523-0.07,2.281,0.05
		c1.268,0.134,1.881-1.649,1.018-2.455c-0.709-0.658-1.529-1.15-2.238-1.81c-0.338,0.817-0.678,1.635-1.017,2.454
		c1.208-0.141,2.411,0.301,3.623,0.427c1.554,0.16,1.778-1.95,0.726-2.681c-0.75-0.521-1.53-0.896-2.158-1.586
		c-0.34,0.818-0.678,1.637-1.018,2.454c0.7,0.069,1.389,0.194,2.067,0.376c1.618,0.378,2.466-1.728,1.108-2.628
		c-0.75-0.5-1.43-0.917-2.053-1.588c-0.339,0.818-0.678,1.638-1.017,2.456c0.794-0.054,1.555,0.071,2.28,0.375
		c0.256-0.925,0.511-1.85,0.766-2.773c-1.1-0.305-2.098-0.63-3.064-1.24c-0.242,0.894-0.484,1.787-0.727,2.681
		c1.27-0.155,2.29,0.112,3.322,0.868c1.5,1.098,2.933-1.4,1.451-2.482c-1.469-1.074-2.963-1.483-4.773-1.262
		c-1.369,0.167-2.027,1.86-0.727,2.68c1.193,0.75,2.4,1.155,3.752,1.529c1.797,0.495,2.527-2.222,0.766-2.773
		c-1.098-0.345-1.908-0.579-3.046-0.478c-1.237,0.11-1.919,1.486-1.017,2.455c0.772,0.832,1.691,1.41,2.635,2.035
		c0.369-0.875,0.738-1.751,1.107-2.628c-0.972-0.226-1.836-0.431-2.832-0.479c-1.32-0.062-1.814,1.58-1.018,2.456
		s1.775,1.365,2.74,2.035c0.242-0.894,0.484-1.786,0.727-2.679c-1.26-0.131-2.346-0.576-3.623-0.427
		c-1.148,0.134-2.029,1.513-1.017,2.455c0.708,0.661,1.528,1.153,2.237,1.812c0.338-0.817,0.678-1.637,1.017-2.456
		c-1.126-0.118-1.948-0.196-3.045,0.053c-0.835,0.189-1.415,1.381-0.86,2.111c0.912,1.204,2.012,1.858,3.286,2.647
		c0.369-0.876,0.739-1.753,1.108-2.629c-1.697-0.271-3.106-0.711-4.812-0.319c-1.09,0.252-1.348,1.65-0.635,2.404
		c0.928,0.981,2.008,1.663,3.167,2.354c0.37-0.875,0.739-1.751,1.108-2.628c-1.305-0.188-2.349-0.302-3.641,0
		c-1.164,0.272-1.252,1.608-0.635,2.403c0.896,1.156,1.98,2.047,3.167,2.889c0.37-0.876,0.739-1.752,1.108-2.629
		c-1.436-0.522-2.69-0.941-4.218-1.009c-1.364-0.062-2.057,2.097-0.726,2.679c1.326,0.579,1.814,1.356,2.32,2.657
		c0.803-0.467,1.604-0.934,2.404-1.399c-1.16-1.364-2.544-1.959-4.256-2.395C276.707,128.814,275.945,131.588,277.742,132.046
		L277.742,132.046z"/>
</g>
<g>
	<path d="M289.475,117.027c6.022-4.844,13.264-7.699,20.004-11.361c1.629-0.885,0.178-3.37-1.453-2.482
		c-6.98,3.792-14.346,6.792-20.584,11.81C285.995,116.157,288.043,118.177,289.475,117.027L289.475,117.027z"/>
</g>
<g>
	<path d="M286.458,110.956c5.915-3.147,11.831-6.297,17.746-9.443c1.638-0.872,0.185-3.354-1.452-2.483
		c-5.915,3.148-11.831,6.296-17.746,9.443C283.368,109.344,284.822,111.828,286.458,110.956L286.458,110.956z"/>
</g>
<g>
	<path d="M304.88,100.517c0.571-1.259,3.05-3.825,4.562-2.499c1.17,1.025,0.652,2.858-0.17,3.876
		c-0.92,1.138-2.258,1.882-3.562,2.487c-1.682,0.782-0.219,3.262,1.452,2.483c3.756-1.748,8.231-6.493,4.536-10.633
		c-2.817-3.159-7.854-0.359-9.301,2.833C301.637,100.74,304.113,102.205,304.88,100.517L304.88,100.517z"/>
</g>
<g>
	<path d="M276.283,98.095c1.974,6.943,3.167,14.034,4.154,21.174c0.254,1.832,3.025,1.049,2.774-0.765
		c-0.989-7.14-2.183-14.23-4.155-21.174C278.551,95.55,275.775,96.307,276.283,98.095L276.283,98.095z"/>
</g>
<g>
	<path d="M282.116,96.754c0.692,4.447,1.385,8.895,2.077,13.344c0.285,1.827,3.056,1.049,2.773-0.768
		c-0.691-4.447-1.385-8.894-2.076-13.343C284.605,94.16,281.833,94.938,282.116,96.754L282.116,96.754z"/>
</g>
<g>
	<path d="M278.832,96.987c-0.911-1.646-0.866-4.059,1.507-4.106c1.839-0.038,1.946,3.241,1.806,4.433
		c-0.215,1.84,2.664,1.819,2.877,0c0.383-3.272-1.33-7.695-5.273-7.271c-4.316,0.467-5.238,5.074-3.398,8.397
		C277.247,100.062,279.73,98.612,278.832,96.987L278.832,96.987z"/>
</g>
<g>
	<path d="M284.924,98.302c2.696-0.977,5.898-0.452,8.645,0.029c2.203,0.384,5.523,0.869,7.216,2.477
		c1.344,1.276,3.381-0.754,2.034-2.034c-2.153-2.045-5.691-2.666-8.485-3.216c-3.213-0.635-7.017-1.175-10.173-0.03
		C282.43,96.155,283.176,98.934,284.924,98.302L284.924,98.302z"/>
</g>
<g>
	<path d="M279.331,93.071c8.69-3.178,23.161-1.534,30.015,4.86c1.354,1.264,3.393-0.766,2.034-2.034
		c-7.608-7.099-23.151-9.134-32.813-5.602C276.839,90.929,277.585,93.709,279.331,93.071L279.331,93.071z"/>
</g>
<g>
	<path d="M226,258.5c-9.869,0-17.896-8.364-17.896-18.645c0-10.279,8.028-18.644,17.896-18.644c9.869,0,17.898,8.364,17.898,18.644
		C243.896,250.136,235.869,258.5,226,258.5z M226,225.048c-7.754,0-14.062,6.644-14.062,14.809s6.31,14.81,14.062,14.81
		c7.754,0,14.062-6.645,14.062-14.81S233.754,225.048,226,225.048z"/>
</g>
<ellipse cx="226" cy="239.856" rx="5.803" ry="6.073"/>
<g>
	<path d="M70.672,258.5c-9.869,0-17.897-8.364-17.897-18.645c0-10.279,8.029-18.644,17.897-18.644
		c9.869,0,17.898,8.364,17.898,18.644C88.57,250.136,80.542,258.5,70.672,258.5z M70.672,225.048
		c-7.754,0-14.062,6.644-14.062,14.809s6.309,14.81,14.062,14.81c7.754,0,14.062-6.645,14.062-14.81
		C84.735,231.691,78.427,225.048,70.672,225.048z"/>
</g>
<ellipse cx="70.673" cy="239.856" rx="5.802" ry="6.073"/>
<g>
	<path d="M227.068,228.796c3.535-0.963,9.348,3.722,8.647,7.529c-0.222,1.208,1.625,1.725,1.849,0.509
		c0.965-5.249-5.949-11.266-11.006-9.888C225.367,227.272,225.874,229.122,227.068,228.796L227.068,228.796z"/>
</g>
<g>
	<path d="M70.927,228.196c3.536-0.964,9.348,3.722,8.648,7.53c-0.222,1.208,1.625,1.724,1.849,0.51
		c0.965-5.249-5.95-11.266-11.007-9.889C69.226,226.671,69.732,228.521,70.927,228.196L70.927,228.196z"/>
</g>
</svg>
