<?xml version="1.0" encoding="utf-8"?>
<!-- Generator: Adobe Illustrator 15.1.0, SVG Export Plug-In . SVG Version: 6.00 Build 0)  -->
<!DOCTYPE svg PUBLIC "-//W3C//DTD SVG 1.1//EN" "http://www.w3.org/Graphics/SVG/1.1/DTD/svg11.dtd">
<svg version="1.1" id="Layer_1" xmlns="http://www.w3.org/2000/svg" xmlns:xlink="http://www.w3.org/1999/xlink" x="0px" y="0px"
	 width="328px" height="312px" viewBox="0 0 328 312" enable-background="new 0 0 328 312" xml:space="preserve">
<g>
	<path d="M141.475,50.724c-27.75,0-55.5,0-83.25,0c-3.379,0-3.379,5.239,0,5.239c27.75,0,55.5,0,83.25,0
		C144.854,55.964,144.854,50.724,141.475,50.724L141.475,50.724z"/>
</g>
<g>
	<g>
		<path d="M53.532,54.449c0,35.414,0,70.828,0,106.246c0,3.377,5.239,3.377,5.239,0c0-35.417,0-70.832,0-106.246
			C58.771,51.069,53.532,51.069,53.532,54.449L53.532,54.449z"/>
	</g>
</g>
<g>
	<g>
		<path d="M56.151,163.021c3.59,0,7.181,0,10.771,0c3.379,0,3.379-5.24,0-5.24c-3.59,0-7.18,0-10.771,0
			C52.773,157.782,52.773,163.021,56.151,163.021L56.151,163.021z"/>
	</g>
</g>
<g>
	<g>
		<path d="M64.302,160.985c0,6.113,0,12.226,0,18.338c0,3.377,5.24,3.377,5.24,0c0-6.112,0-12.225,0-18.338
			C69.542,157.604,64.302,157.604,64.302,160.985L64.302,160.985z"/>
	</g>
</g>
<g>
	<g>
		<path d="M66.921,176.993c-2.365,0.018-4.835,0.321-7.163-0.198c-3.292-0.729-4.691,4.322-1.394,5.053
			c2.83,0.628,5.686,0.405,8.556,0.386C70.299,182.212,70.301,176.973,66.921,176.993L66.921,176.993z"/>
	</g>
</g>
<g>
	<g>
		<path d="M61.682,263.154c0-27.75,0-55.502,0-83.251c0-3.377-5.239-3.377-5.239,0c0,27.75,0,55.502,0,83.251
			C56.442,266.531,61.682,266.531,61.682,263.154L61.682,263.154z"/>
	</g>
</g>
<g>
	<path d="M60.845,266.125c15.913,0,31.825,0,47.737,0c3.379,0,3.379-5.239,0-5.239c-15.913,0-31.825,0-47.737,0
		C57.466,260.886,57.466,266.125,60.845,266.125L60.845,266.125z"/>
</g>
<g>
	<path d="M110.289,265.211c1.885-2.084,3.35-4.629,6.418-4.734c3.276-0.112,3.071,2.269,3.082,4.847
		c0.015,3.377,5.254,3.377,5.239,0c-0.02-4.55-0.935-8.736-5.961-9.848c-5.752-1.272-8.992,2.173-12.482,6.03
		C104.324,264.004,108.018,267.722,110.289,265.211L110.289,265.211z"/>
</g>
<g>
	<path d="M122.409,268.817c5.967,0,11.935,0,17.902,0c3.378,0,3.378-5.24,0-5.24c-5.967,0-11.935,0-17.902,0
		C119.03,263.577,119.03,268.817,122.409,268.817L122.409,268.817z"/>
</g>
<g>
	<path d="M143.055,264.41c-0.155-1.136,1.669-3.22,2.866-3.282c0.247-0.013,0.413,0.267,0.276,0.034
		c-0.01-0.014,0.127,0.761,0.15,1.021c0.052,0.617,0.04,1.241,0.019,1.858c-0.009,0.212-0.023,0.423-0.041,0.635
		c-0.064,0.87,0.093-0.398-0.026,0.171c-0.694,3.295,4.356,4.696,5.052,1.392c0.859-4.08,0.171-10.076-5.096-10.332
		c-5.071-0.249-8.892,5.226-8.252,9.896c0.193,1.419,1.985,2.169,3.222,1.828C142.736,267.213,143.248,265.822,143.055,264.41
		L143.055,264.41z"/>
</g>
<g>
	<path d="M149.479,269.035c42.425,0,84.85,0,127.275,0c3.379,0,3.379-5.24,0-5.24c-42.425,0-84.85,0-127.275,0
		C146.101,263.795,146.101,269.035,149.479,269.035L149.479,269.035z"/>
</g>
<g>
	<path d="M274.025,205.81c0,20.155,0,40.312,0,60.472c0,3.377,5.24,3.377,5.24,0c0-20.16,0-40.316,0-60.472
		C279.266,202.43,274.025,202.43,274.025,205.81L274.025,205.81z"/>
</g>
<g>
	<path d="M277.3,188.345c-2.096,0-4.31-0.13-6.372,0.311c-1.398,0.3-2.191,1.907-1.83,3.224c0.395,1.437,1.827,2.128,3.223,1.828
		c0.25-0.048,0.185-0.044-0.199,0.015c0.232-0.031,0.469-0.041,0.704-0.059c0.487-0.029,0.978-0.044,1.466-0.054
		c1.002-0.027,2.006-0.024,3.009-0.024C280.68,193.585,280.68,188.345,277.3,188.345L277.3,188.345z"/>
</g>
<g>
	<path d="M268.568,191.402c0,4.147,0,8.296,0,12.443c0,3.377,5.238,3.377,5.238,0c0-4.147,0-8.296,0-12.443
		C273.807,188.021,268.568,188.021,268.568,191.402L268.568,191.402z"/>
</g>
<g>
	<path d="M272.061,207.338c1.674,0,3.348,0,5.021,0c3.379,0,3.379-5.238,0-5.238c-1.674,0-3.348,0-5.021,0
		C268.682,202.099,268.682,207.338,272.061,207.338L272.061,207.338z"/>
</g>
<g>
	<path d="M280.139,189.437c0-48.465,0-96.931,0-145.396c0-3.38-5.24-3.38-5.24,0c0,48.465,0,96.931,0,145.396
		C274.898,192.814,280.139,192.814,280.139,189.437L280.139,189.437z"/>
</g>
<g>
	<path d="M143.148,52.907c0.014-3.496,0.201-6.986,0.218-10.479c0.016-3.382-5.223-3.382-5.24,0
		c-0.017,3.492-0.205,6.981-0.218,10.479C137.895,56.284,143.135,56.284,143.148,52.907L143.148,52.907z"/>
</g>
<g>
	<path d="M141.838,44.612c45.627,0,91.254,0,136.881,0c3.379,0,3.379-5.24,0-5.24c-45.627,0-91.254,0-136.881,0
		C138.46,39.372,138.46,44.612,141.838,44.612L141.838,44.612z"/>
</g>
<g>
	<g>
		<path d="M149.734,135.657c14.991,0,29.981,0,44.972,0c3.378,0,3.378-5.239,0-5.239c-14.991,0-29.981,0-44.972,0
			C146.355,130.418,146.355,135.657,149.734,135.657L149.734,135.657z"/>
	</g>
</g>
<g>
	<g>
		<path d="M192.523,134.058c0,13.679,0,27.359,0,41.042c0,3.377,5.238,3.377,5.238,0c0-13.683,0-27.364,0-41.042
			C197.764,130.677,192.523,130.677,192.523,134.058L192.523,134.058z"/>
	</g>
</g>
<g>
	<g>
		<path d="M194.415,173.207c-14.748,0-29.496,0-44.244,0c-3.379,0-3.379,5.239,0,5.239c14.748,0,29.496,0,44.244,0
			C197.793,178.446,197.793,173.207,194.415,173.207L194.415,173.207z"/>
	</g>
</g>
<g>
	<g>
		<path d="M151.481,174.227c0-13.778,0-27.556,0-41.333c0-3.38-5.24-3.38-5.24,0c0,13.776,0,27.555,0,41.333
			C146.241,177.604,151.481,177.604,151.481,174.227L151.481,174.227z"/>
	</g>
</g>
<g>
	<g>
		<path d="M90.208,65.873c0,25.762,0,51.521,0,77.282c0,3.377,5.239,3.377,5.239,0c0-25.76,0-51.521,0-77.282
			C95.447,62.493,90.208,62.493,90.208,65.873L90.208,65.873z"/>
	</g>
</g>
<g>
	<g>
		<path d="M92.173,141.845c-5.312,0-10.625,0-15.937,0c-3.379,0-3.379,5.238,0,5.238c5.312,0,10.625,0,15.937,0
			C95.551,147.084,95.551,141.845,92.173,141.845L92.173,141.845z"/>
	</g>
</g>
<g>
	<g>
		<path d="M76.236,141.845c-0.291,0-0.583,0-0.874,0c-3.378,0-3.378,5.238,0,5.238c0.291,0,0.583,0,0.874,0
			C79.615,147.084,79.615,141.845,76.236,141.845L76.236,141.845z"/>
	</g>
</g>
<g>
	<g>
		<path d="M77.764,142.282c0-25.617,0-51.23,0-76.845c0-3.38-5.239-3.38-5.239,0c0,25.614,0,51.228,0,76.845
			C72.525,145.659,77.764,145.659,77.764,142.282L77.764,142.282z"/>
	</g>
</g>
<g>
	<path d="M76.563,67.098c5.749,0,11.498,0,17.247,0c3.379,0,3.379-5.24,0-5.24c-5.749,0-11.498,0-17.247,0
		C73.185,61.858,73.185,67.098,76.563,67.098L76.563,67.098z"/>
</g>
<g>
	<g>
		<path d="M132.778,161.493c0,20.593,0,41.187,0,61.782c0,1.126,1.747,1.126,1.747,0c0-20.596,0-41.189,0-61.782
			C134.525,160.368,132.778,160.368,132.778,161.493L132.778,161.493z"/>
	</g>
</g>
<g>
	<g>
		<path d="M146.314,160.62c-4.111,0-8.224,0-12.334,0c-1.127,0-1.127,1.746,0,1.746c4.111,0,8.223,0,12.334,0
			C147.44,162.366,147.44,160.62,146.314,160.62L146.314,160.62z"/>
	</g>
</g>
<g>
	<g>
		<path d="M166.508,194.676c0-5.604,0-11.209,0-16.81c0-1.126-1.746-1.126-1.746,0c0,5.601,0,11.205,0,16.81
			C164.762,195.802,166.508,195.802,166.508,194.676L166.508,194.676z"/>
	</g>
</g>
<g>
	<g>
		<path d="M177.532,194.349c0-5.823,0-11.646,0-17.466c0-1.126-1.747-1.126-1.747,0c0,5.819,0,11.643,0,17.466
			C175.786,195.475,177.532,195.475,177.532,194.349L177.532,194.349z"/>
	</g>
</g>
<g>
	<g>
		<path d="M187.575,191.729c0-4.803,0-9.605,0-14.408c0-1.126-1.747-1.126-1.747,0c0,4.803,0,9.604,0,14.408
			C185.828,192.855,187.575,192.855,187.575,191.729L187.575,191.729z"/>
	</g>
</g>
<g>
	<polygon points="216.393,202.099 121.426,202.099 121.426,113.683 107.236,113.683 107.236,111.937 123.173,111.937 
		123.173,200.353 216.393,200.353 	"/>
</g>
<g>
	<polygon points="216.393,210.832 113.349,210.832 113.349,124.38 115.095,124.38 115.095,209.085 216.393,209.085 	"/>
</g>
<g>
	<polygon points="105.926,227.641 104.18,227.641 104.18,148.831 146.314,148.831 146.314,150.578 105.926,150.578 	"/>
</g>
<g>
	<polygon points="89.771,227.641 88.025,227.641 88.025,171.027 69.032,171.027 69.032,169.281 89.771,169.281 	"/>
</g>
<g>
	<polygon points="229.271,232.663 227.525,232.663 227.525,168.042 196.307,168.042 196.307,166.296 229.271,166.296 	"/>
</g>
<g>
	<polygon points="237.35,232.663 235.604,232.663 235.604,161.275 197.398,161.275 197.398,159.528 237.35,159.528 	"/>
</g>
<g>
	<polygon points="220.613,145.338 196.307,145.338 196.307,143.592 218.866,143.592 218.866,68.128 220.613,68.128 	"/>
</g>
<g>
	<polygon points="230.582,151.888 197.398,151.888 197.398,150.141 228.835,150.141 228.835,57.577 230.582,57.577 	"/>
</g>
<g>
	<rect x="240.188" y="44.042" width="1.748" height="88.854"/>
</g>
<g>
	<rect x="251.104" y="44.042" width="1.746" height="46.063"/>
</g>
<g>
	<rect x="260.055" y="44.042" width="1.746" height="37.549"/>
</g>
<g>
	<rect x="113.131" y="98.838" width="95.947" height="1.747"/>
</g>
<g>
	<rect x="113.131" y="83.774" width="95.947" height="1.747"/>
</g>
<line fill="none" stroke="#000000" stroke-miterlimit="10" x1="114.331" y1="67.606" x2="210.279" y2="67.606"/>
<g>
	<rect x="160.94" y="51.028" width="1.747" height="83.03"/>
</g>
<g>
	<rect x="172.729" y="48.19" width="1.748" height="64.62"/>
</g>
<g>
	<rect x="182.553" y="44.042" width="1.747" height="69.423"/>
</g>
<g>
	<rect x="171.419" y="123.507" width="1.747" height="9.389"/>
</g>
<g>
	<rect x="180.37" y="124.38" width="1.747" height="9.678"/>
</g>
<g>
	<rect x="164.762" y="216.944" width="1.746" height="48.902"/>
</g>
<g>
	<rect x="177.096" y="216.944" width="1.747" height="48.902"/>
</g>
<g>
	<rect x="191.286" y="216.944" width="1.747" height="48.902"/>
</g>
<g>
	<rect x="206.786" y="241.832" width="70.731" height="1.747"/>
</g>
<g>
	<rect x="206.786" y="248.817" width="70.731" height="1.747"/>
</g>
<g>
	<rect x="242.152" y="209.085" width="22.268" height="1.747"/>
</g>
<g>
	<rect x="242.152" y="200.353" width="22.268" height="1.747"/>
</g>
<g>
	<path d="M260.781,112.08c-3.211,0-5.821-2.609-5.821-5.818c0-3.211,2.61-5.823,5.821-5.823c3.21,0,5.82,2.612,5.82,5.823
		C266.602,109.47,263.991,112.08,260.781,112.08z M260.781,102.184c-2.247,0-4.075,1.829-4.075,4.077
		c0,2.243,1.828,4.072,4.075,4.072c2.246,0,4.074-1.829,4.074-4.072C264.855,104.013,263.027,102.184,260.781,102.184z"/>
</g>
<g>
	<path d="M260.781,136.507c-3.211,0-5.821-2.612-5.821-5.822s2.61-5.819,5.821-5.819c3.21,0,5.82,2.609,5.82,5.819
		S263.991,136.507,260.781,136.507z M260.781,126.611c-2.247,0-4.075,1.828-4.075,4.073c0,2.248,1.828,4.076,4.075,4.076
		c2.246,0,4.074-1.828,4.074-4.076C264.855,128.439,263.027,126.611,260.781,126.611z"/>
</g>
<g>
	<path d="M260.781,160.398c-3.211,0-5.821-2.609-5.821-5.819c0-3.209,2.61-5.823,5.821-5.823c3.21,0,5.82,2.613,5.82,5.823
		S263.991,160.398,260.781,160.398z M260.781,150.502c-2.247,0-4.075,1.829-4.075,4.076c0,2.245,1.828,4.073,4.075,4.073
		c2.246,0,4.074-1.829,4.074-4.073C264.855,152.331,263.027,150.502,260.781,150.502z"/>
</g>
<circle fill="none" stroke="#000000" stroke-miterlimit="10" cx="217.229" cy="53.017" r="4.038"/>
<circle fill="none" stroke="#000000" stroke-miterlimit="10" cx="202.637" cy="52.907" r="4.038"/>
<path d="M116.513,67.603c0,2.23-1.808,4.039-4.038,4.039s-4.038-1.809-4.038-4.039c0-2.229,1.808-4.036,4.038-4.036
	S116.513,65.375,116.513,67.603z"/>
<g>
	<path d="M115.312,85.627c0,2.23-1.808,4.039-4.038,4.039s-4.038-1.808-4.038-4.039c0-2.228,1.808-4.036,4.038-4.036
		S115.312,83.399,115.312,85.627z"/>
</g>
<g>
	<path d="M213.333,84.645c0,1.63-1.319,2.946-2.946,2.946s-2.945-1.315-2.945-2.946c0-1.627,1.318-2.944,2.945-2.944
		S213.333,83.017,213.333,84.645z"/>
</g>
<circle cx="210.279" cy="67.603" r="2.946"/>
<circle cx="221.266" cy="66.548" r="2.946"/>
<circle cx="230.909" cy="56.943" r="2.946"/>
<g>
	<circle cx="241.061" cy="133.038" r="2.946"/>
</g>
<g>
	<circle cx="251.977" cy="90.102" r="2.947"/>
</g>
<g>
	<circle cx="260.928" cy="81.697" r="2.947"/>
</g>
<g>
	<path d="M213.333,99.708c0,1.63-1.319,2.947-2.946,2.947s-2.945-1.316-2.945-2.947c0-1.627,1.318-2.943,2.945-2.943
		S213.333,98.081,213.333,99.708z"/>
</g>
<g>
	<path d="M186.373,112.807c0,1.63-1.318,2.946-2.945,2.946c-1.628,0-2.947-1.315-2.947-2.946c0-1.627,1.319-2.944,2.947-2.944
		C185.055,109.863,186.373,111.179,186.373,112.807z"/>
</g>
<g>
	<circle cx="173.604" cy="113.461" r="2.946"/>
</g>
<g>
	<circle cx="172.221" cy="123.507" r="2.946"/>
</g>
<g>
	<circle cx="181.244" cy="123.507" r="2.946"/>
</g>
<g>
	<circle cx="187.137" cy="193.585" r="2.946"/>
</g>
<g>
	<path d="M219.884,201.222c0,1.631-1.319,2.946-2.946,2.946s-2.945-1.315-2.945-2.946c0-1.627,1.318-2.944,2.945-2.944
		S219.884,199.595,219.884,201.222z"/>
</g>
<g>
	<path d="M219.884,210.61c0,1.63-1.319,2.947-2.946,2.947s-2.945-1.316-2.945-2.947c0-1.627,1.318-2.944,2.945-2.944
		S219.884,208.982,219.884,210.61z"/>
</g>
<g>
	<circle cx="228.398" cy="232.659" r="2.947"/>
</g>
<g>
	<circle cx="236.477" cy="232.659" r="2.946"/>
</g>
<g>
	<circle cx="243.025" cy="209.375" r="2.946"/>
</g>
<g>
	<circle cx="264.42" cy="209.375" r="2.946"/>
</g>
<g>
	<circle cx="264.42" cy="201.226" r="2.946"/>
</g>
<g>
	<path d="M245.973,201.222c0,1.631-1.32,2.946-2.947,2.946s-2.945-1.315-2.945-2.946c0-1.627,1.318-2.944,2.945-2.944
		S245.973,199.595,245.973,201.222z"/>
</g>
<g>
	<path d="M209.732,242.701c0,1.631-1.319,2.947-2.946,2.947s-2.946-1.316-2.946-2.947c0-1.627,1.319-2.944,2.946-2.944
		S209.732,241.074,209.732,242.701z"/>
</g>
<g>
	<path d="M195.105,216.941c0,1.63-1.319,2.947-2.946,2.947s-2.946-1.316-2.946-2.947c0-1.627,1.319-2.944,2.946-2.944
		S195.105,215.313,195.105,216.941z"/>
</g>
<g>
	<path d="M180.915,216.941c0,1.63-1.319,2.947-2.946,2.947s-2.945-1.316-2.945-2.947c0-1.627,1.318-2.944,2.945-2.944
		S180.915,215.313,180.915,216.941z"/>
</g>
<g>
	<path d="M168.253,216.941c0,1.63-1.319,2.947-2.946,2.947c-1.627,0-2.947-1.316-2.947-2.947c0-1.627,1.319-2.944,2.947-2.944
		C166.934,213.997,168.253,215.313,168.253,216.941z"/>
</g>
<g>
	<path d="M136.926,223.271c0,1.631-1.319,2.947-2.946,2.947s-2.947-1.316-2.947-2.947c0-1.627,1.319-2.943,2.947-2.943
		C135.606,220.328,136.926,221.645,136.926,223.271z"/>
</g>
<g>
	<circle cx="105.053" cy="226.741" r="2.946"/>
</g>
<g>
	<path d="M91.844,227.638c0,1.631-1.319,2.946-2.946,2.946s-2.946-1.315-2.946-2.946c0-1.627,1.319-2.943,2.946-2.943
		C90.525,224.694,91.844,226.011,91.844,227.638z"/>
</g>
<g>
	<path d="M209.732,249.688c0,1.63-1.319,2.947-2.946,2.947s-2.946-1.316-2.946-2.947c0-1.627,1.319-2.944,2.946-2.944
		S209.732,248.06,209.732,249.688z"/>
</g>
<g>
	<path d="M179.605,195.328c0,1.63-1.319,2.947-2.946,2.947s-2.946-1.316-2.946-2.947c0-1.627,1.319-2.944,2.946-2.944
		S179.605,193.701,179.605,195.328z"/>
</g>
<g>
	<path d="M168.253,195.328c0,1.63-1.319,2.947-2.946,2.947c-1.627,0-2.947-1.316-2.947-2.947c0-1.627,1.319-2.944,2.947-2.944
		C166.934,192.384,168.253,193.701,168.253,195.328z"/>
</g>
<g>
	<circle cx="114.222" cy="124.377" r="2.946"/>
</g>
<g>
	<circle cx="101.596" cy="133.768" r="2.947"/>
</g>
<g>
	<path d="M104.542,118.411c0,1.631-1.319,2.947-2.947,2.947c-1.627,0-2.946-1.316-2.946-2.947c0-1.627,1.319-2.942,2.946-2.942
		C103.223,115.467,104.542,116.784,104.542,118.411z"/>
</g>
<g>
	<circle cx="101.596" cy="104.006" r="2.947"/>
</g>
<g>
	<circle cx="101.596" cy="88.178" r="2.947"/>
</g>
<g>
	<path d="M104.542,73.729c0,1.63-1.319,2.947-2.947,2.947c-1.627,0-2.946-1.316-2.946-2.947c0-1.627,1.319-2.944,2.946-2.944
		C103.223,70.785,104.542,72.102,104.542,73.729z"/>
</g>
<g>
	<circle cx="65.938" cy="133.768" r="2.946"/>
</g>
<g>
	<path d="M68.884,118.411c0,1.631-1.319,2.947-2.946,2.947s-2.946-1.316-2.946-2.947c0-1.627,1.319-2.942,2.946-2.942
		S68.884,116.784,68.884,118.411z"/>
</g>
<g>
	<circle cx="65.938" cy="104.006" r="2.946"/>
</g>
<g>
	<circle cx="65.938" cy="88.178" r="2.946"/>
</g>
<g>
	<path d="M68.884,73.729c0,1.63-1.319,2.947-2.946,2.947s-2.946-1.316-2.946-2.947c0-1.627,1.319-2.944,2.946-2.944
		S68.884,72.102,68.884,73.729z"/>
</g>
<circle cx="174.803" cy="46.464" r="2.947"/>
<path d="M165.961,50.502c0,1.631-1.318,2.947-2.946,2.947c-1.627,0-2.946-1.316-2.946-2.947c0-1.627,1.319-2.943,2.946-2.943
	C164.643,47.558,165.961,48.875,165.961,50.502z"/>
<g>
	<circle cx="113.131" cy="99.711" r="4.038"/>
</g>
<g>
	<g>
		<path d="M68.086,134.641c1.747,0,3.493,0,5.24,0c1.126,0,1.126-1.747,0-1.747c-1.747,0-3.493,0-5.24,0
			C66.959,132.895,66.959,134.641,68.086,134.641L68.086,134.641z"/>
	</g>
</g>
<g>
	<g>
		<path d="M94.72,134.712c1.892,0,3.784,0,5.676,0c1.126,0,1.126-1.746,0-1.746c-1.892,0-3.784,0-5.676,0
			C93.593,132.966,93.593,134.712,94.72,134.712L94.72,134.712z"/>
	</g>
</g>
<g>
	<g>
		<path d="M94.647,118.922c2.062,0,4.123,0,6.185,0c1.126,0,1.126-1.746,0-1.746c-2.062,0-4.123,0-6.185,0
			C93.521,117.176,93.521,118.922,94.647,118.922L94.647,118.922z"/>
	</g>
</g>
<g>
	<g>
		<path d="M94.429,104.661c2.051-0.017,4.142-0.283,6.171,0.116c1.1,0.215,1.569-1.47,0.464-1.686
			c-2.199-0.43-4.413-0.197-6.635-0.178C93.304,102.924,93.303,104.671,94.429,104.661L94.429,104.661z"/>
	</g>
</g>
<g>
	<g>
		<path d="M94.574,89.085c2.013,0,4.027,0,6.04,0c1.126,0,1.126-1.747,0-1.747c-2.013,0-4.027,0-6.04,0
			C93.448,87.339,93.448,89.085,94.574,89.085L94.574,89.085z"/>
	</g>
</g>
<g>
	<g>
		<path d="M94.502,74.896c1.892,0,3.784,0,5.676,0c1.126,0,1.126-1.747,0-1.747c-1.892,0-3.784,0-5.676,0
			C93.375,73.149,93.375,74.896,94.502,74.896L94.502,74.896z"/>
	</g>
</g>
<g>
	<g>
		<path d="M73.834,72.494c-2.153,0.252-4.316,0.034-6.476,0.146c-1.121,0.062-1.126,1.808,0,1.747
			c2.16-0.113,4.323,0.104,6.476-0.147C74.939,74.111,74.952,72.364,73.834,72.494L73.834,72.494z"/>
	</g>
</g>
<g>
	<g>
		<path d="M73.544,87.268c-2.28,0-4.56,0-6.84,0c-1.126,0-1.126,1.747,0,1.747c2.28,0,4.56,0,6.84,0
			C74.67,89.014,74.67,87.268,73.544,87.268L73.544,87.268z"/>
	</g>
</g>
<g>
	<g>
		<path d="M73.107,103.276c-2.232,0-4.464,0-6.695,0c-1.126,0-1.126,1.747,0,1.747c2.231,0,4.463,0,6.695,0
			C74.234,105.022,74.234,103.276,73.107,103.276L73.107,103.276z"/>
	</g>
</g>
<g>
	<g>
		<path d="M73.98,117.466c-2.499-0.003-4.997-0.063-7.495-0.07c-1.126,0-1.126,1.746,0,1.746c2.499,0.007,4.997,0.067,7.495,0.071
			C75.107,119.216,75.107,117.469,73.98,117.466L73.98,117.466z"/>
	</g>
</g>
<g>
	<g>
		<g>
			<path d="M131.2,242.258c1.456-0.812,3.056-1.02,4.701-1.02c0.542,0,1.062,0.055,1.588,0.178c0.916,0.211,1.331,0.479,0.361,1.055
				c-1.139,0.679-2.794,0.62-4.072,0.583c-0.479-0.018-0.931-0.113-1.394-0.232c-0.502-0.13-1.323-0.205-0.747-0.508
				c0.994-0.529,0.112-2.037-0.882-1.508c-2.173,1.155-0.919,2.964,0.85,3.604c2.186,0.788,5.055,0.522,7.127-0.433
				c2.083-0.962,1.96-3.278-0.13-4.035c-2.589-0.938-5.909-0.515-8.284,0.808C129.335,241.299,130.215,242.807,131.2,242.258
				L131.2,242.258z"/>
		</g>
	</g>
	<g>
		<g>
			<path d="M129.832,229.988c-0.266,3.987-1.057,8.429-0.514,12.403c0.151,1.111,1.833,0.634,1.683-0.464
				c-0.515-3.783,0.324-8.144,0.577-11.939C131.653,228.862,129.906,228.869,129.832,229.988L129.832,229.988z"/>
		</g>
	</g>
	<g>
		<g>
			<path d="M131.595,230.278c1.282-1.088,4.469-1.525,5.342,0.259c0.495,1.009,2.001,0.126,1.508-0.88
				c-1.413-2.889-5.998-2.384-8.084-0.614C129.5,229.773,130.742,231.001,131.595,230.278L131.595,230.278z"/>
		</g>
	</g>
	<g>
		<g>
			<path d="M137.09,230.534c-0.153,1.712,0.371,3.517,0.566,5.212c0.234,2.023,0.245,4.104,0.666,6.1
				c0.232,1.102,1.916,0.634,1.684-0.465c-0.386-1.832-0.399-3.775-0.603-5.635c-0.182-1.665-0.714-3.544-0.566-5.212
				C138.937,229.412,137.189,229.422,137.09,230.534L137.09,230.534z"/>
		</g>
	</g>
</g>
<g>
	<g>
		<g>
			<path d="M107.154,242.108c1.456-0.812,3.057-1.021,4.701-1.021c0.542,0,1.062,0.056,1.588,0.178
				c0.916,0.211,1.332,0.478,0.361,1.054c-1.139,0.679-2.793,0.621-4.072,0.583c-0.479-0.017-0.931-0.113-1.395-0.232
				c-0.502-0.129-1.323-0.205-0.747-0.508c0.995-0.529,0.112-2.037-0.882-1.508c-2.173,1.156-0.919,2.964,0.851,3.604
				c2.186,0.788,5.054,0.522,7.126-0.433c2.083-0.962,1.96-3.278-0.129-4.036c-2.589-0.938-5.909-0.515-8.284,0.81
				C105.289,241.149,106.169,242.657,107.154,242.108L107.154,242.108z"/>
		</g>
	</g>
	<g>
		<g>
			<path d="M105.786,229.838c-0.266,3.988-1.057,8.43-0.514,12.403c0.151,1.112,1.833,0.635,1.683-0.464
				c-0.515-3.783,0.324-8.142,0.578-11.939C107.607,228.712,105.86,228.719,105.786,229.838L105.786,229.838z"/>
		</g>
	</g>
	<g>
		<g>
			<path d="M107.549,230.128c1.282-1.088,4.468-1.524,5.342,0.26c0.495,1.01,2,0.126,1.507-0.881
				c-1.413-2.889-5.998-2.384-8.084-0.613C105.454,229.623,106.696,230.851,107.549,230.128L107.549,230.128z"/>
		</g>
	</g>
	<g>
		<g>
			<path d="M113.044,230.384c-0.153,1.713,0.371,3.518,0.566,5.213c0.233,2.021,0.245,4.104,0.666,6.099
				c0.232,1.102,1.915,0.635,1.683-0.464c-0.386-1.832-0.399-3.776-0.603-5.635c-0.183-1.665-0.715-3.544-0.566-5.213
				C114.891,229.262,113.144,229.272,113.044,230.384L113.044,230.384z"/>
		</g>
	</g>
</g>
<g>
	<g>
		<g>
			<path d="M88.228,241.958c1.456-0.812,3.056-1.02,4.701-1.02c0.542,0,1.062,0.054,1.588,0.177
				c0.916,0.211,1.331,0.478,0.361,1.054c-1.14,0.68-2.794,0.621-4.072,0.583c-0.479-0.017-0.931-0.111-1.394-0.231
				c-0.502-0.129-1.323-0.205-0.747-0.508c0.994-0.529,0.112-2.036-0.882-1.509c-2.173,1.157-0.919,2.965,0.85,3.606
				c2.186,0.788,5.055,0.521,7.127-0.435c2.083-0.962,1.96-3.277-0.13-4.034c-2.589-0.938-5.909-0.516-8.284,0.809
				C86.363,240.999,87.243,242.507,88.228,241.958L88.228,241.958z"/>
		</g>
	</g>
	<g>
		<g>
			<path d="M86.859,229.688c-0.266,3.988-1.056,8.429-0.514,12.402c0.151,1.112,1.833,0.635,1.684-0.464
				c-0.515-3.782,0.324-8.143,0.577-11.938C88.681,228.562,86.933,228.569,86.859,229.688L86.859,229.688z"/>
		</g>
	</g>
	<g>
		<g>
			<path d="M88.623,229.978c1.282-1.088,4.469-1.525,5.342,0.259c0.495,1.01,2,0.126,1.508-0.88
				c-1.413-2.89-5.998-2.384-8.084-0.614C86.527,229.473,87.77,230.701,88.623,229.978L88.623,229.978z"/>
		</g>
	</g>
	<g>
		<g>
			<path d="M94.118,230.234c-0.153,1.712,0.371,3.517,0.566,5.212c0.234,2.023,0.245,4.104,0.666,6.099
				c0.232,1.103,1.916,0.635,1.684-0.464c-0.386-1.832-0.399-3.775-0.603-5.635c-0.183-1.665-0.715-3.544-0.566-5.212
				C95.964,229.111,94.217,229.122,94.118,230.234L94.118,230.234z"/>
		</g>
	</g>
</g>
<path d="M86.839,135.674c0,1.688-1.369,3.058-3.056,3.058l0,0c-1.688,0-3.057-1.368-3.057-3.058V73.841
	c0-1.688,1.369-3.056,3.057-3.056l0,0c1.688,0,3.056,1.368,3.056,3.056V135.674z"/>
<path d="M190.083,165.201c0,2.735-2.216,4.953-4.95,4.953h-25.011c-2.734,0-4.95-2.217-4.95-4.953v-21.518
	c0-2.735,2.216-4.953,4.95-4.953h25.011c2.734,0,4.95,2.217,4.95,4.953V165.201z"/>
</svg>
