<?xml version="1.0" encoding="utf-8"?>
<!-- Generator: Adobe Illustrator 15.1.0, SVG Export Plug-In . SVG Version: 6.00 Build 0)  -->
<!DOCTYPE svg PUBLIC "-//W3C//DTD SVG 1.1//EN" "http://www.w3.org/Graphics/SVG/1.1/DTD/svg11.dtd">
<svg version="1.1" id="Layer_1" xmlns="http://www.w3.org/2000/svg" xmlns:xlink="http://www.w3.org/1999/xlink" x="0px" y="0px"
	 width="328px" height="312px" viewBox="0 0 328 312" enable-background="new 0 0 328 312" xml:space="preserve">
<g>
	<g>
		<path d="M70.046,174.134c-13.836,0-27.67,0-41.505,0c-1.823,0-1.823,2.826,0,2.826c13.835,0,27.669,0,41.505,0
			C71.869,176.96,71.869,174.134,70.046,174.134L70.046,174.134z"/>
	</g>
	<g>
		<path d="M29.423,229.769c0-18.073,0-36.147,0-54.223c0-1.82-2.826-1.82-2.826,0c0,18.074,0,36.149,0,54.223
			C26.598,231.591,29.423,231.591,29.423,229.769L29.423,229.769z"/>
	</g>
	<g>
		<path d="M27.232,231.013c1.37,2.183,4.502,4.709,7.247,3.738c1.705-0.603,0.971-3.333-0.751-2.725
			c-1.464,0.518-3.35-1.315-4.057-2.441C28.706,228.047,26.261,229.464,27.232,231.013L27.232,231.013z"/>
	</g>
	<g>
		<path d="M35.517,233.389c0.968-7.896,8.513-15.462,15.669-17.431c5.765-1.584,11.798-1.738,17.559-0.146
			c8.726,2.415,14.102,14.858,11.685,23.206c-0.509,1.755,2.219,2.498,2.724,0.75c1.846-6.369-0.323-15.415-4.69-20.512
			c-5.56-6.486-13.322-7.866-21.531-7.189c-11.542,0.952-22.724,8.959-24.241,21.321C32.47,235.197,35.297,235.175,35.517,233.389
			L35.517,233.389z"/>
	</g>
	<g>
		<path d="M81.791,240.807c27.485-0.009,54.967-0.313,82.452-0.323c1.823,0,1.823-2.826,0-2.826
			c-27.485,0.01-54.967,0.314-82.452,0.323C79.968,237.983,79.968,240.809,81.791,240.807L81.791,240.807z"/>
	</g>
	<g>
		<path d="M151.879,238.719c-2.306-26.841,23.23-52.577,50.491-45.384c1.764,0.468,2.511-2.26,0.75-2.725
			c-28.906-7.629-56.534,19.39-54.067,48.108C149.208,240.521,152.035,240.534,151.879,238.719L151.879,238.719z"/>
	</g>
	<g>
		<path d="M192.501,94.951c0,31.892,0,63.784,0,95.674c0,1.823,2.826,1.823,2.826,0c0-31.891,0-63.781,0-95.674
			C195.328,93.129,192.501,93.129,192.501,94.951L192.501,94.951z"/>
	</g>
	<g>
		<path d="M199.332,190.938c0-28.15,0-56.298,0-84.448c0-1.821-2.826-1.821-2.826,0c0,28.15,0,56.298,0,84.448
			C196.506,192.759,199.332,192.759,199.332,190.938L199.332,190.938z"/>
	</g>
	<g>
		<path d="M194.621,96.129c6.906,0,13.816,0,20.725,0c1.822,0,1.822-2.825,0-2.825c-6.908,0-13.816,0-20.725,0
			C192.798,93.303,192.798,96.129,194.621,96.129L194.621,96.129z"/>
	</g>
	<g>
		<path d="M214.402,95.892c0,46.393,0,92.783,0,139.175c0,1.823,2.826,1.823,2.826,0c0-46.393,0-92.783,0-139.175
			C217.229,94.071,214.402,94.071,214.402,95.892L214.402,95.892z"/>
	</g>
	<path d="M314.014,234.124c0,2.213-1.914,4.005-4.275,4.005h-90.826c-2.361,0-4.275-1.792-4.275-4.005v-3.999
		c0-2.213,1.914-4.005,4.275-4.005h90.826c2.361,0,4.275,1.792,4.275,4.005V234.124z"/>
	<path d="M219.82,235.656c-2.211,0-4.004-1.914-4.004-4.274v-90.827c0-2.361,1.793-4.274,4.004-4.274h4
		c2.213,0,4.005,1.914,4.005,4.274v90.827c0,2.361-1.792,4.274-4.005,4.274H219.82z"/>
	<g>
		<path d="M124.974,194.622c18.074,0,36.147,0,54.221,0c1.824,0,1.824-2.826,0-2.826c-18.073,0-36.146,0-54.221,0
			C123.151,191.796,123.151,194.622,124.974,194.622L124.974,194.622z"/>
	</g>
	<g>
		<path d="M78.87,176.767c8.05,4.388,17.136,7.119,25.617,10.594c11.897,4.876,23.873,9.549,35.67,14.662
			c1.654,0.718,3.095-1.716,1.427-2.439c-9.474-4.105-19.048-7.963-28.626-11.818c-10.713-4.315-22.526-7.912-32.661-13.438
			C78.696,173.455,77.269,175.895,78.87,176.767L78.87,176.767z"/>
	</g>
	<g>
		<path d="M35.252,203.629c10.95,0,21.901,0,32.851,0c0.911,0,0.911-1.413,0-1.413c-10.95,0-21.901,0-32.851,0
			C34.341,202.216,34.341,203.629,35.252,203.629L35.252,203.629z"/>
	</g>
	<g>
		<path d="M67.747,203.533c17.263,7.459,33.281,17.503,50.858,24.27c0.851,0.327,1.217-1.038,0.375-1.362
			c-17.461-6.721-33.37-16.716-50.521-24.126C67.632,201.957,66.912,203.174,67.747,203.533L67.747,203.533z"/>
	</g>
	<g>
		<path d="M124.268,228.356c3.709,0,7.418,0,11.127,0c0.911,0,0.911-1.413,0-1.413c-3.709,0-7.418,0-11.127,0
			C123.357,226.943,123.357,228.356,124.268,228.356L124.268,228.356z"/>
	</g>
	<g>
		<path d="M32.779,177.225c0,4.828,0,9.655,0,14.482c0,1.823,2.826,1.823,2.826,0c0-4.827,0-9.654,0-14.482
			C35.605,175.403,32.779,175.403,32.779,177.225L32.779,177.225z"/>
	</g>
	<g>
		<path d="M32.831,190.891c-0.42,1.143-1.544,3.349-3.032,2.722c-0.71-0.299-1.554,0.317-1.737,0.987
			c-0.225,0.816,0.277,1.439,0.987,1.738c3.129,1.319,5.587-2.187,6.506-4.696C36.183,189.928,33.451,189.195,32.831,190.891
			L32.831,190.891z"/>
	</g>
	<g>
		<path d="M36.312,180.227c0,2.915,0,5.829,0,8.743c0,1.822,2.826,1.822,2.826,0c0-2.914,0-5.828,0-8.743
			C39.138,178.406,36.312,178.406,36.312,180.227L36.312,180.227z"/>
	</g>
	<g>
		<path d="M77.287,93.243c-3.089,27.108-6.335,54.236-8.654,81.421c-0.154,1.817,2.673,1.802,2.826,0
			c2.32-27.185,5.565-54.312,8.654-81.421C80.318,91.435,77.491,91.455,77.287,93.243L77.287,93.243z"/>
	</g>
	<g>
		<path d="M85.477,93.243c-3.09,27.108-6.335,54.236-8.654,81.421c-0.155,1.817,2.672,1.802,2.826,0
			c2.319-27.185,5.565-54.312,8.654-81.421C88.508,91.435,85.681,91.455,85.477,93.243L85.477,93.243z"/>
	</g>
	<g>
		<path d="M146.396,93.618c11.067,32.823,22.135,65.645,33.204,98.465c0.578,1.718,3.31,0.982,2.725-0.751
			c-11.068-32.819-22.136-65.643-33.205-98.464C148.542,91.151,145.811,91.888,146.396,93.618L146.396,93.618z"/>
	</g>
	<g>
		<path d="M148.899,88.673c11.676,34.472,23.352,68.942,35.029,103.41c0.58,1.716,3.309,0.979,2.723-0.751
			c-11.676-34.469-23.353-68.938-35.028-103.41C151.042,86.206,148.312,86.942,148.899,88.673L148.899,88.673z"/>
	</g>
	<g>
		<path d="M86.889,94.656c19.841,0,39.68,0,59.521,0c1.823,0,1.823-2.826,0-2.826c-19.84,0-39.68,0-59.521,0
			C85.066,91.83,85.066,94.656,86.889,94.656L86.889,94.656z"/>
	</g>
	<g>
		<path d="M80.349,92.832c0.262-3.25,4.304-3.332,6.653-3.236c1.823,0.071,1.816-2.755,0-2.826c-2.252-0.091-4.403-0.102-6.38,1.134
			c-1.73,1.079-2.936,2.9-3.099,4.929C77.377,94.65,80.204,94.635,80.349,92.832L80.349,92.832z"/>
	</g>
	<g>
		<path d="M87.443,89.71c20.939,0,41.879,0,62.818,0c1.823,0,1.823-2.825,0-2.825c-20.939,0-41.879,0-62.818,0
			C85.62,86.885,85.62,89.71,87.443,89.71L87.443,89.71z"/>
	</g>
	<g>
		<path d="M79.407,169.542c20.134,0,40.269,0,60.403,0c1.823,0,1.823-2.826,0-2.826c-20.135,0-40.269,0-60.403,0
			C77.584,166.716,77.584,169.542,79.407,169.542L79.407,169.542z"/>
	</g>
	<g>
		<path d="M138.574,168.659c0,7.89,0,15.778,0,23.667c0,1.823,2.826,1.823,2.826,0c0-7.889,0-15.777,0-23.667
			C141.399,166.837,138.574,166.837,138.574,168.659L138.574,168.659z"/>
	</g>
	<g>
		<path d="M166.834,192.444c0-4.984,0-9.969,0-14.955c0-1.821-2.826-1.821-2.826,0c0,4.985,0,9.971,0,14.955
			C164.008,194.266,166.834,194.266,166.834,192.444L166.834,192.444z"/>
	</g>
	<g>
		<path d="M165.773,178.549c3.14,0,6.279,0,9.418,0c1.824,0,1.824-2.825,0-2.825c-3.139,0-6.278,0-9.418,0
			C163.952,175.724,163.952,178.549,165.773,178.549L165.773,178.549z"/>
	</g>
	<g>
		<path d="M98.305,166.777c0-11.265,0-22.53,0-33.795c0-1.821-2.826-1.821-2.826,0c0,11.265,0,22.53,0,33.795
			C95.479,168.598,98.305,168.598,98.305,166.777L98.305,166.777z"/>
	</g>
	<g>
		<path d="M97.62,133.757c0.676-0.261,1.755-0.733,2.488-0.407c0.805,0.355,0.951,1.481,1.074,2.246
			c0.287,1.796,3.009,1.031,2.724-0.75c-0.251-1.575-0.906-3.142-2.371-3.937c-1.449-0.786-3.209-0.437-4.665,0.122
			C95.187,131.679,95.916,134.412,97.62,133.757L97.62,133.757z"/>
	</g>
	<g>
		<path d="M101.013,136.045c0,8.791,0,17.582,0,26.375c0,1.821,2.826,1.821,2.826,0c0-8.792,0-17.583,0-26.375
			C103.839,134.222,101.013,134.222,101.013,136.045L101.013,136.045z"/>
	</g>
	<g>
		<path d="M102.543,164.42c9.223,0,18.447,0,27.67,0c1.823,0,1.823-2.825,0-2.825c-9.223,0-18.447,0-27.67,0
			C100.721,161.594,100.721,164.42,102.543,164.42L102.543,164.42z"/>
	</g>
	<g>
		<path d="M130.566,164.539c1.181-0.08,1.468,1.523,1.111,2.451c-0.279,0.719,0.299,1.548,0.987,1.739
			c0.799,0.218,1.459-0.271,1.737-0.988c1.002-2.586-0.814-6.23-3.834-6.027C128.759,161.834,128.747,164.662,130.566,164.539
			L130.566,164.539z"/>
	</g>
	<g>
		<path d="M160.358,154.502c-1.499,1.374-3.3,2.378-4.68,3.886c-1.228,1.341,0.766,3.346,1.998,1.998
			c1.378-1.505,3.182-2.512,4.68-3.887C163.703,155.266,161.698,153.273,160.358,154.502L160.358,154.502z"/>
	</g>
	<g>
		<path d="M156.12,160.915c5.652,5.506,11.304,11.011,16.956,16.515c1.305,1.271,3.306-0.726,1.998-1.998
			c-5.651-5.504-11.303-11.009-16.955-16.515C156.812,157.646,154.812,159.643,156.12,160.915L156.12,160.915z"/>
	</g>
	<g>
		<path d="M150.236,150.461c2.594,2.525,5.188,5.054,7.782,7.578c1.306,1.272,3.306-0.724,1.998-1.998
			c-2.594-2.524-5.188-5.053-7.782-7.578C150.929,147.191,148.928,149.188,150.236,150.461L150.236,150.461z"/>
	</g>
	<g>
		<path d="M150.688,148.734c2.866,2.79,5.73,5.58,8.597,8.37c1.305,1.271,3.306-0.725,1.998-1.998c-2.866-2.79-5.73-5.58-8.596-8.37
			C151.381,145.464,149.38,147.46,150.688,148.734L150.688,148.734z"/>
	</g>
	<g>
		<path d="M161.007,156.5c3.333,3.246,6.665,6.492,9.997,9.738c1.305,1.271,3.305-0.725,1.998-1.998
			c-3.333-3.247-6.665-6.492-9.997-9.737C161.7,153.231,159.699,155.228,161.007,156.5L161.007,156.5z"/>
	</g>
	<g>
		<path d="M139.782,148.629c-1.502,1.262-1.228,3.863,0.357,4.917c1.372,0.914,3.37,0.563,4.623-0.402
			c0.608-0.47,0.934-1.203,0.506-1.933c-0.352-0.602-1.322-0.979-1.933-0.508c-0.273,0.211-0.563,0.373-0.821,0.457
			c-0.307,0.102-0.508,0.117-0.725,0.069c-0.166-0.037-0.125-0.021-0.182-0.229c-0.043-0.156,0.051-0.272,0.172-0.375
			c0.591-0.494,0.509-1.486,0-1.998C141.201,148.05,140.372,148.135,139.782,148.629L139.782,148.629z"/>
	</g>
	<g>
		<path d="M142.354,150.142c2.376-1.918,4.972-3.502,7.564-5.105c0.864-0.536,1.724-1.079,2.567-1.646
			c0.353-0.239,0.712-0.469,1.076-0.687c0.321-0.2,2.904-1.225,1.253,0.255c-3.533,3.167-8.403,7.005-13.064,8.342
			c-1.748,0.502-1.004,3.229,0.75,2.726c3.814-1.094,7.487-3.859,10.651-6.136c1.926-1.386,6.596-4.116,4.966-7.143
			c-1.489-2.768-4.458-1.43-6.546-0.135c-3.819,2.367-7.716,4.707-11.215,7.531C138.938,149.289,140.951,151.276,142.354,150.142
			L142.354,150.142z"/>
	</g>
	<g>
		<path d="M189.057,253.551c-14.885,0-26.993-12.147-26.993-27.079c0-14.934,12.108-27.081,26.993-27.081
			c14.883,0,26.993,12.147,26.993,27.081C216.05,241.403,203.939,253.551,189.057,253.551z M189.057,202.216
			c-13.326,0-24.168,10.882-24.168,24.256c0,13.375,10.842,24.254,24.168,24.254s24.168-10.88,24.168-24.254
			C213.225,213.098,202.383,202.216,189.057,202.216z"/>
	</g>
	<g>
		<path d="M189.057,244.337c-9.82,0-17.808-8.014-17.808-17.865s7.987-17.865,17.808-17.865c9.818,0,17.807,8.014,17.807,17.865
			S198.875,244.337,189.057,244.337z M189.057,210.019c-9.039,0-16.395,7.381-16.395,16.452s7.354,16.452,16.395,16.452
			s16.395-7.38,16.395-16.452C205.451,217.4,198.098,210.019,189.057,210.019z"/>
	</g>
	<g>
		<path d="M189.057,241.746c-8.396,0-15.226-6.852-15.226-15.273c0-8.424,6.83-15.275,15.226-15.275s15.227,6.852,15.227,15.275
			C204.283,234.894,197.453,241.746,189.057,241.746z M189.057,212.609c-7.617,0-13.812,6.219-13.812,13.862
			s6.195,13.86,13.812,13.86c7.616,0,13.812-6.217,13.812-13.86C202.87,218.828,196.673,212.609,189.057,212.609z"/>
	</g>
	<g>
		<path d="M58.508,248.585c-7.871,0-14.274-6.424-14.274-14.32s6.404-14.32,14.274-14.32c7.872,0,14.275,6.424,14.275,14.32
			S66.379,248.585,58.508,248.585z M58.508,221.357c-7.093,0-12.862,5.79-12.862,12.907c0,7.116,5.769,12.907,12.862,12.907
			c7.092,0,12.863-5.791,12.863-12.907C71.371,227.147,65.6,221.357,58.508,221.357z"/>
	</g>
	<g>
		<path d="M58.508,246.531c-6.741,0-12.226-5.502-12.226-12.267c0-6.764,5.485-12.265,12.226-12.265
			c6.742,0,12.227,5.501,12.227,12.265C70.734,241.028,65.25,246.531,58.508,246.531z M58.508,223.413
			c-5.962,0-10.812,4.868-10.812,10.852c0,5.985,4.85,10.854,10.812,10.854c5.962,0,10.813-4.868,10.813-10.854
			C69.321,228.281,64.47,223.413,58.508,223.413z"/>
	</g>
	<g>
		<path d="M58.508,256.532c-12.239,0-22.196-9.99-22.196-22.268c0-12.278,9.957-22.269,22.196-22.269
			c12.239,0,22.196,9.99,22.196,22.269C80.704,246.542,70.747,256.532,58.508,256.532z M58.508,214.822
			c-10.682,0-19.37,8.722-19.37,19.442s8.688,19.441,19.37,19.441c10.681,0,19.37-8.721,19.37-19.441S69.189,214.822,58.508,214.822
			z"/>
	</g>
</g>
</svg>
