<?xml version="1.0" encoding="utf-8"?>
<!-- Generator: Adobe Illustrator 15.1.0, SVG Export Plug-In . SVG Version: 6.00 Build 0)  -->
<!DOCTYPE svg PUBLIC "-//W3C//DTD SVG 1.1//EN" "http://www.w3.org/Graphics/SVG/1.1/DTD/svg11.dtd">
<svg version="1.1" id="Layer_1" xmlns="http://www.w3.org/2000/svg" xmlns:xlink="http://www.w3.org/1999/xlink" x="0px" y="0px"
	 width="328px" height="312px" viewBox="0 0 328 312" enable-background="new 0 0 328 312" xml:space="preserve">
<g>
	<path d="M223.925,227.771c-3.104,0-5.899-1.849-7.118-4.706l-0.389-0.911l0.482-0.867c0.387-0.688,0.582-1.398,0.582-2.104
		c0-2.508-2.158-4.55-4.813-4.55s-4.813,2.043-4.813,4.55l0.084,1.044l-0.5,0.61c-2.051,2.523-5.573,3.521-8.629,2.405l-0.393-0.142
		c-3.193-1.163-5.271-4.359-5.048-7.777l0.047-0.71l0.479-0.524c0.545-0.595,1.195-1.593,1.195-2.96c0-2.51-2.158-4.552-4.812-4.552
		c-1.723,0-3.323,0.903-4.18,2.354l-0.404,0.488c-2.791,2.463-7.305,2.52-10.139,0.095l-0.316-0.272
		c-2.43-2.081-3.321-5.515-2.215-8.538l0.275-0.753l0.717-0.359c1.594-0.796,2.586-2.328,2.586-4.001
		c0-2.51-2.158-4.552-4.812-4.552c-1.396,0-2.729,0.595-3.658,1.636l-0.467,0.524l-0.689,0.119c-3.21,0.552-6.454-0.979-8.045-3.745
		l-0.207-0.359c-1.802-3.138-1.204-7.052,1.45-9.522l0.29-0.269l0.372-0.142c1.963-0.741,3.282-2.768,3.282-5.049
		c0-2.957-2.158-5.361-4.813-5.361c-0.642,0-1.279,0.15-1.89,0.442l-0.528,0.252l-0.582-0.066c-3.449-0.41-6.224-3.083-6.746-6.5
		l-0.084-0.713c0-7.154,4.458-9.065,6.814-9.078c2.446-0.094,4.492-1.563,4.492-3.278c0-1.66-1.984-3.126-4.427-3.265l-1.901-0.11
		v-0.461c-3.246-1.396-5.221-4.903-4.551-8.522l0.075-0.406c0.629-3.366,3.461-5.943,6.89-6.267l0.43-0.04l0.408,0.138
		c0.574,0.193,1.096,0.288,1.6,0.288c2.655,0,4.813-2.064,4.813-4.604c0-1.811-1.122-3.457-2.86-4.197l-0.317-0.139l-0.254-0.232
		c-2.682-2.46-3.279-6.521-1.423-9.653l0.209-0.351c1.594-2.685,4.761-4.187,7.873-3.687l0.709,0.11l0.479,0.536
		c0.926,1.029,2.248,1.62,3.63,1.62c2.655,0,4.812-2.065,4.812-4.604c0-1.352-0.644-2.637-1.768-3.527l-0.321-0.252l-0.196-0.358
		c-1.791-3.268-0.998-7.351,1.887-9.708l0.314-0.256c2.164-1.767,5.25-2.208,7.848-1.135l0.791,0.322l0.315,0.792
		c0.722,1.806,2.481,2.973,4.486,2.973c2.655,0,4.813-2.065,4.813-4.604c0-0.93-0.299-1.833-0.859-2.608l-0.398-0.549l0.014-0.674
		c0.063-3.212,2.129-6.086,5.141-7.149l0.382-0.139c3.353-1.189,7.243,0.193,9.117,3.157l0.215,0.461
		c0.427,1.312,1.669,2.195,3.095,2.195c1.613,0,2.959-1.107,3.202-2.632L215.305,81c0.305-1.419,1.008-2.728,2.053-3.792
		c1.451-1.47,3.388-2.29,5.455-2.306l0.41-0.004c3.688,0,6.771,2.539,7.59,5.936l0.541,0.087l-0.197,2.05
		c-0.041,0.24-0.082,0.483-0.082,0.736c0,2.538,2.16,4.604,4.814,4.604c2.375,0,4.363-1.637,4.729-3.892l0.315-1.938l0.549,0.075
		c1.871-2.94,5.791-4.363,9.181-3.125l0.382,0.138c3.917,1.427,5.984,5.652,4.719,9.626l-0.101,0.315l-0.195,0.264
		c-0.491,0.67-0.751,1.435-0.751,2.219c0,2.298,2.16,4.162,4.814,4.162c1.734,0,3.294-0.796,4.169-2.132l0.198-0.256
		c1.467-1.608,3.554-2.526,5.729-2.526c1.834,0,3.616,0.658,5.015,1.854l0.312,0.268c2.722,2.333,3.48,6.196,1.847,9.396
		l-0.356,0.697l-0.733,0.276c-1.769,0.662-2.911,2.164-2.911,3.819c0,2.294,2.16,4.162,4.814,4.162c1.47,0,2.848-0.599,3.783-1.64
		l0.375-0.417l0.541-0.166c3.375-1.025,7.201,0.493,8.953,3.54l0.209,0.367c2.102,3.662,0.846,8.388-2.803,10.532l-0.5,0.208
		c-2.119,0.567-3.599,2.519-3.599,4.741c0,3.431,3.604,6.052,6.899,4.415l0.325-0.162l0.359-0.038
		c4.184-0.438,7.856,2.439,8.479,6.511l0.062,0.414c0.541,3.587-1.529,7.119-4.919,8.398l-0.826,0.312l-0.791-0.396
		c-0.729-0.362-1.478-0.548-2.228-0.548c-2.654,0-4.814,2.042-4.814,4.548c0,2.512,2.16,4.554,4.814,4.554
		c0.683,0,1.363-0.146,2.021-0.438l0.767-0.339l0.783,0.307c3.446,1.354,5.461,4.976,4.787,8.613l-0.074,0.406
		c-0.685,3.658-3.885,6.307-7.607,6.307l0,0c-0.299,0-0.602-0.016-0.903-0.051l-0.351-0.04l-0.315-0.158
		c-0.722-0.358-1.464-0.54-2.209-0.54c-2.655,0-4.813,2.042-4.813,4.549c0,2.333,1.869,4.266,4.344,4.498l0.686,0.063l0.502,0.469
		c2.643,2.463,3.223,6.507,1.383,9.61l-0.213,0.357c-1.406,2.357-3.89,3.765-6.645,3.765c-0.703,0-1.401-0.095-2.077-0.28
		l-0.587-0.166l-0.398-0.457c-0.932-1.072-2.279-1.688-3.701-1.688c-2.654,0-4.814,2.042-4.814,4.549
		c0,1.593,0.879,3.047,2.354,3.883l0.541,0.307l0.274,0.564c1.587,3.248,0.745,7.105-2.046,9.385l-0.314,0.26
		c-2.615,2.133-6.535,2.264-9.297,0.352l-0.58-0.402l-0.205-0.678c-0.586-1.955-2.479-3.319-4.602-3.319
		c-2.654,0-4.814,2.042-4.814,4.552c0,1.376,0.655,2.374,1.205,2.974l0.457,0.497l0.066,0.67c0.352,3.555-1.749,6.866-5.104,8.053
		l-0.392,0.138c-2.771,0.981-5.997,0.226-8.067-1.859l-0.727-0.734l0.166-1.012c0.038-0.222,0.079-0.442,0.079-0.67
		c0-2.507-2.158-4.549-4.812-4.549c-2.656,0-4.815,2.042-4.815,4.549c0,0.307,0.034,0.614,0.108,0.938l0.07,0.312l-0.031,0.318
		c-0.373,3.97-3.648,6.984-7.619,7.017L223.925,227.771z M220.93,222.202c0.687,0.95,1.793,1.534,2.996,1.534v2.018l0.027-2.018
		l0.41-0.004c1.807-0.017,3.31-1.325,3.601-3.095c-0.087-0.484-0.132-0.974-0.132-1.454c0-4.734,3.971-8.585,8.852-8.585
		c4.879,0,8.848,3.851,8.848,8.585c0,0.039,0,0.083-0.002,0.123c0.938,0.579,2.113,0.721,3.172,0.351l0.391-0.138
		c1.42-0.504,2.369-1.81,2.446-3.288c-1.142-1.485-1.763-3.271-1.763-5.102c0-4.733,3.973-8.588,8.853-8.588
		c3.604,0,6.858,2.188,8.188,5.412c1.263,0.607,2.834,0.446,3.938-0.453l0.312-0.256c1.201-0.98,1.646-2.57,1.174-4.013
		c-2.346-1.601-3.774-4.221-3.774-7.004c0-4.734,3.972-8.585,8.853-8.585c2.353,0,4.595,0.922,6.259,2.559
		c1.466,0.189,2.925-0.493,3.68-1.762l0.211-0.352c0.781-1.32,0.65-2.991-0.274-4.175c-4.16-0.756-7.205-4.241-7.205-8.407
		c0-4.733,3.972-8.585,8.852-8.585c1.242,0,2.463,0.265,3.637,0.785c1.875,0.095,3.446-1.214,3.779-3.004l0.075-0.401
		c0.28-1.507-0.403-3.009-1.663-3.805c-0.889,0.283-1.801,0.43-2.725,0.43c-4.879,0-8.851-3.854-8.851-8.59
		c0-4.733,3.972-8.584,8.851-8.584c1.047,0,2.08,0.189,3.08,0.561c1.221-0.773,1.912-2.224,1.689-3.689l-0.061-0.41
		c-0.276-1.81-1.813-3.126-3.656-3.126c-0.034,0-0.066,0-0.104,0c-1.133,0.504-2.308,0.757-3.5,0.757
		c-4.879,0-8.851-4.021-8.851-8.964c0-3.94,2.567-7.409,6.284-8.553c1.6-1.076,2.121-3.236,1.152-4.923l-0.207-0.362
		c-0.758-1.312-2.309-2.054-3.828-1.793c-1.67,1.598-3.938,2.503-6.325,2.503c-4.88,0-8.851-3.677-8.851-8.198
		c0-3.066,1.812-5.822,4.688-7.232c0.428-1.396,0.008-2.921-1.125-3.895l-0.312-0.265c-1.426-1.222-3.738-1.104-5.045,0.232
		c-1.641,2.385-4.406,3.799-7.441,3.799c-4.879,0-8.85-3.677-8.85-8.198c0-1.521,0.451-2.996,1.311-4.289
		c0.439-1.82-0.54-3.692-2.322-4.344l-0.38-0.138c-1.923-0.694-4.074,0.351-4.754,2.215l-0.005,0.016
		c-0.84,4.017-4.413,6.895-8.643,6.895c-4.88,0-8.852-3.875-8.852-8.641c0-0.153,0.006-0.308,0.018-0.461l-0.064-0.639
		c-0.016-2.026-1.68-3.673-3.705-3.673l-0.438,0.004c-0.994,0.007-1.921,0.397-2.613,1.104c-0.694,0.706-1.072,1.637-1.064,2.625
		l0.014,1.663l-0.52,0.106c-1.041,2.747-3.709,4.623-6.812,4.623c-3.078,0-5.789-1.88-6.834-4.702
		c-0.934-1.305-2.707-1.88-4.238-1.344l-0.379,0.138c-1.289,0.453-2.188,1.545-2.41,2.862c0.783,1.312,1.193,2.791,1.193,4.315
		c0,4.767-3.97,8.641-8.85,8.641c-3.323,0-6.289-1.777-7.811-4.604c-1.084-0.217-2.217,0.039-3.074,0.741l-0.313,0.256
		c-1.292,1.056-1.707,2.83-1.053,4.336c1.871,1.645,2.933,3.945,2.933,6.385c0,4.766-3.969,8.641-8.849,8.641
		c-2.245,0-4.403-0.852-6.043-2.361c-1.317,0.003-2.507,0.678-3.176,1.805l-0.207,0.348c-0.84,1.419-0.633,3.231,0.475,4.418
		c3.015,1.45,4.942,4.45,4.942,7.745c0,5.546-5.405,9.968-11.269,8.29c-1.478,0.287-2.662,1.449-2.938,2.937l-0.075,0.402
		c-0.373,2.007,0.96,3.945,2.968,4.315l0.284,0.057c4.422,0.469,7.694,3.512,7.694,7.249c0,3.921-3.708,7.134-8.441,7.311
		c-0.49,0.028-2.816,0.383-2.865,4.9l0.039,0.252c0.223,1.467,1.327,2.648,2.753,3.008c0.97-0.375,1.977-0.564,3.002-0.564
		c4.88,0,8.848,4.219,8.848,9.397c0,3.788-2.178,7.201-5.462,8.652c-1.072,1.183-1.273,2.917-0.467,4.319l0.205,0.354
		c0.672,1.171,1.877,1.955,3.272,1.837c1.646-1.53,3.823-2.394,6.09-2.394c4.879,0,8.849,3.854,8.849,8.588
		c0,2.901-1.51,5.566-3.996,7.146c-0.219,1.273,0.233,2.594,1.226,3.441l0.315,0.271c1.291,1.1,3.291,1.139,4.638,0.106
		c1.618-2.487,4.442-4.018,7.458-4.018c4.88,0,8.85,3.854,8.85,8.588c0,1.811-0.607,3.576-1.725,5.05
		c0.126,1.419,1.037,2.633,2.396,3.13l0.391,0.142c1.221,0.445,2.642,0.174,3.635-0.67c0.217-4.549,4.1-8.183,8.841-8.183
		c4.88,0,8.851,3.851,8.851,8.585C221.52,220.211,221.318,221.225,220.93,222.202z"/>
</g>
<g>
	<path d="M223.1,142.888c-4.494,0.331-7.33,3.473-7.791,7.863c-0.42,4.005,2.238,8.219,6.348,8.806
		c5.761,0.815,11.949-4.593,10.678-10.636c-1.372-6.515-8.865-6.912-13.66-3.866c-2.189,1.392-0.166,4.888,2.038,3.484
		c2.396-1.521,7.327-2.555,7.715,1.533c0.33,3.473-3.644,6.279-6.821,5.349c-4.133-1.21-2.401-8.21,1.492-8.498
		C225.68,146.735,225.697,142.698,223.1,142.888L223.1,142.888z"/>
</g>
<g>
	<g>
		<path d="M174.35,134.602c-3.724,3.796-3.805,10.371-3.822,15.321c-0.027,7.229,1.361,14.687,4.457,21.229
			c1.111,2.354,4.592,0.303,3.483-2.038c-2.639-5.578-3.614-11.774-3.879-17.895c-0.173-4.018-0.459-10.631,2.613-13.765
			C179.025,135.599,176.174,132.742,174.35,134.602L174.35,134.602z"/>
	</g>
	<g>
		<path d="M175.707,171.878c3.436,2.333,7.451,2.437,11.119,0.587c2.324-1.17,0.279-4.654-2.038-3.483
			c-2.431,1.222-4.829,0.918-7.044-0.587C175.584,166.924,173.568,170.424,175.707,171.878L175.707,171.878z"/>
	</g>
	<g>
		<path d="M176.988,137.401c2.189-1.238,4.801-1.198,6.959,0.083c2.242,1.336,4.271-2.156,2.037-3.484
			c-3.389-2.018-7.608-2.018-11.034-0.083C172.684,135.193,174.717,138.682,176.988,137.401L176.988,137.401z"/>
	</g>
	<g>
		<path d="M186.982,172.32c5.863-4.923,11.867-9.672,17.363-15.014c1.867-1.817-0.988-4.667-2.854-2.854
			c-5.494,5.341-11.5,10.091-17.363,15.014C182.132,171.142,185.003,173.979,186.982,172.32L186.982,172.32z"/>
	</g>
	<g>
		<path d="M183.107,137.022c6.158,3.44,12.317,6.882,18.477,10.318c2.273,1.273,4.311-2.215,2.038-3.483
			c-6.159-3.441-12.317-6.878-18.478-10.319C182.871,132.269,180.834,135.753,183.107,137.022L183.107,137.022z"/>
	</g>
	<g>
		<path d="M201.176,147.026c1.738,1.904,0.965,5.727,0,7.836c-1.076,2.349,2.402,4.399,3.484,2.038
			c1.781-3.896,2.484-9.314-0.631-12.729C202.271,142.249,199.426,145.11,201.176,147.026L201.176,147.026z"/>
	</g>
</g>
<g>
	<g>
		<path d="M227.074,99.253c-4.537-2.763-11-1.301-15.819-0.196c-7.04,1.615-13.961,4.683-19.626,9.18
			c-2.038,1.616,0.838,4.454,2.854,2.854c4.843-3.843,10.687-6.173,16.588-7.819c3.875-1.083,10.216-2.814,13.966-0.532
			C227.266,104.097,229.293,100.605,227.074,99.253L227.074,99.253z"/>
	</g>
	<g>
		<path d="M191.109,109.127c-1.5,3.887-0.619,7.792,2.009,10.942c1.67,1.998,4.509-0.871,2.854-2.854
			c-1.746-2.093-1.929-4.532-0.973-7.016C195.939,107.768,192.035,106.723,191.109,109.127L191.109,109.127z"/>
	</g>
	<g>
		<path d="M225.036,102.528c1.709,1.853,2.202,4.443,1.44,6.819c-0.795,2.482,3.101,3.54,3.891,1.071
			c1.203-3.76,0.176-7.868-2.479-10.745C226.123,97.755,223.275,100.617,225.036,102.528L225.036,102.528z"/>
	</g>
	<g>
		<path d="M193.305,120.176c6.123,4.593,12.114,9.361,18.562,13.505c2.196,1.41,4.219-2.085,2.038-3.484
			c-6.448-4.143-12.438-8.913-18.562-13.504C193.257,115.126,191.249,118.634,193.305,120.176L193.305,120.176z"/>
	</g>
	<g>
		<path d="M226.736,108.425c-1.953,6.776-3.906,13.557-5.858,20.336c-0.724,2.506,3.173,3.566,3.892,1.071
			c1.953-6.779,3.905-13.556,5.856-20.335C231.35,106.991,227.453,105.927,226.736,108.425L226.736,108.425z"/>
	</g>
	<g>
		<path d="M221.081,128.275c-1.444,2.125-5.429,2.172-7.661,1.715c-2.541-0.521-3.622,3.37-1.072,3.89
			c4.2,0.864,9.629,0.241,12.217-3.566C226.034,128.153,222.536,126.139,221.081,128.275L221.081,128.275z"/>
	</g>
</g>
<g>
	<g>
		<path d="M250.876,194.906c5.12-0.059,9.608-4.308,13.062-7.639c5.351-5.156,9.836-11.608,12.356-18.608
			c0.886-2.456-3.019-3.504-3.892-1.072c-2.018,5.603-5.514,10.493-9.461,14.899c-2.797,3.122-7.481,8.333-12.065,8.384
			C248.275,190.897,248.273,194.934,250.876,194.906L250.876,194.906z"/>
	</g>
	<g>
		<path d="M276.294,167.586c-0.718-4.021-3.56-7.027-7.411-8.254c-2.486-0.792-3.542,3.106-1.072,3.892
			c2.592,0.828,4.121,2.795,4.592,5.436C272.861,171.217,276.75,170.128,276.294,167.586L276.294,167.586z"/>
	</g>
	<g>
		<path d="M251.01,191.067c-2.43-0.655-4.292-2.578-4.884-5.022c-0.61-2.529-4.501-1.454-3.89,1.072
			c0.91,3.772,3.967,6.835,7.701,7.84C252.455,195.635,253.521,191.745,251.01,191.067L251.01,191.067z"/>
	</g>
	<g>
		<path d="M268.646,159.32c-7.627-0.682-15.23-1.553-22.895-1.688c-2.604-0.043-2.6,3.993,0,4.036
			c7.663,0.135,15.266,1.005,22.895,1.688C271.238,163.585,271.217,159.549,268.646,159.32L268.646,159.32z"/>
	</g>
	<g>
		<path d="M246.391,186.963c-1.914-6.788-3.83-13.574-5.744-20.362c-0.707-2.503-4.601-1.439-3.891,1.071
			c1.914,6.788,3.829,13.576,5.745,20.363C243.206,190.539,247.1,189.474,246.391,186.963L246.391,186.963z"/>
	</g>
	<g>
		<path d="M240.719,167.137c0.086-2.574,3.41-4.754,5.569-5.538c2.426-0.884,1.38-4.785-1.072-3.892
			c-3.973,1.443-8.378,4.854-8.532,9.43C236.594,169.738,240.63,169.73,240.719,167.137L240.719,167.137z"/>
	</g>
</g>
<g>
	<g>
		<path d="M192.305,192.3c2.135,4.38,7.633,6.521,11.86,8.203c6.92,2.748,14.854,4.187,22.289,3.485
			c2.567-0.241,2.591-4.281,0-4.037c-5.877,0.552-11.634-0.402-17.28-2.01c-4.24-1.207-11.261-3.327-13.384-7.679
			C194.648,187.921,191.169,189.971,192.305,192.3L192.305,192.3z"/>
	</g>
	<g>
		<path d="M227.473,203.712c3.307-2.374,5.15-5.976,4.633-10.087c-0.318-2.546-4.358-2.578-4.035,0
			c0.33,2.629-0.422,5.015-2.635,6.604C223.341,201.733,225.354,205.233,227.473,203.712L227.473,203.712z"/>
	</g>
	<g>
		<path d="M195.708,190.436c-0.427-2.483,0.715-4.919,2.62-6.468c2.02-1.645-0.854-4.481-2.854-2.854
			c-3.078,2.503-4.318,6.551-3.656,10.394C192.258,194.07,196.148,192.979,195.708,190.436L195.708,190.436z"/>
	</g>
	<g>
		<path d="M232.105,193.384c-2.691-7.354-5.207-14.766-8.428-21.911c-1.068-2.369-4.546-0.315-3.484,2.038
			c3.076,6.826,5.449,13.922,8.022,20.945C229.104,196.88,233.005,195.836,232.105,193.384L232.105,193.384z"/>
	</g>
	<g>
		<path d="M197.609,184.595c5.326-4.624,10.652-9.247,15.979-13.871c1.969-1.707-0.898-4.55-2.854-2.854
			c-5.327,4.624-10.653,9.248-15.979,13.871C192.786,183.451,195.652,186.293,197.609,184.595L197.609,184.595z"/>
	</g>
	<g>
		<path d="M212.697,171.244c2.683-1.104,5.916,0.816,7.811,2.672c1.858,1.825,4.715-1.028,2.854-2.854
			c-2.838-2.783-7.738-5.357-11.735-3.708C209.252,168.327,210.291,172.237,212.697,171.244L212.697,171.244z"/>
	</g>
</g>
<g>
	<g>
		<path d="M273.912,138.351c1.458-4.907-1.344-10.478-3.502-14.746c-3.354-6.643-8.217-12.791-14.165-17.266
			c-2.083-1.563-4.089,1.943-2.038,3.485c4.76,3.583,8.38,8.404,11.421,13.473c2.16,3.596,5.698,9.582,4.394,13.981
			C269.277,139.781,273.174,140.842,273.912,138.351L273.912,138.351z"/>
	</g>
	<g>
		<path d="M255.227,106.064c-4.109-0.481-7.707,1.391-10.049,4.718c-1.505,2.132,1.998,4.146,3.483,2.038
			c1.569-2.231,3.924-3.028,6.565-2.72C257.809,110.404,257.777,106.364,255.227,106.064L255.227,106.064z"/>
	</g>
	<g>
		<path d="M270.227,137.219c-1.365,2.133-3.76,3.256-6.258,3.117c-2.602-0.146-2.587,3.891,0,4.036
			c3.922,0.217,7.646-1.837,9.742-5.116C275.115,137.054,271.622,135.032,270.227,137.219L270.227,137.219z"/>
	</g>
	<g>
		<path d="M245.117,110.995c-2.896,7.087-5.98,14.096-8.362,21.38c-0.812,2.479,3.086,3.536,3.89,1.072
			c2.383-7.285,5.465-14.292,8.363-21.38C249.993,109.659,246.087,108.619,245.117,110.995L245.117,110.995z"/>
	</g>
	<g>
		<path d="M264.925,140.353c-7.052-0.17-14.104-0.343-21.155-0.518c-2.604-0.062-2.598,3.975,0,4.037
			c7.051,0.173,14.104,0.348,21.155,0.517C267.527,144.453,267.521,140.416,264.925,140.353L264.925,140.353z"/>
	</g>
	<g>
		<path d="M244.307,139.912c-2.427-0.852-3.472-4.729-3.588-7c-0.132-2.59-4.17-2.604-4.035,0c0.219,4.261,2.225,9.374,6.551,10.892
			C245.695,144.665,246.746,140.763,244.307,139.912L244.307,139.912z"/>
	</g>
</g>
<g>
	<path d="M104.275,230.089l-3.167-8.498c-1.815,0.217-3.447,0.319-5.038,0.319c-3.669,0-7.363-0.457-10.999-1.363l-4.129,8.332
		l-18.504-9.168l4.245-8.564c-3.362-2.851-6.267-6.161-8.666-9.874l-9.119,3.346l-7.117-19.381l9.385-3.449
		c-0.18-1.612-0.264-3.059-0.264-4.47c0-3.245,0.39-6.563,1.163-9.882l-9.263-4.403l8.862-18.652l9.612,4.568
		c2.761-3.299,5.966-6.172,9.56-8.565l-3.771-10.122l19.35-7.214l3.762,10.096c2.074-0.28,4.013-0.418,5.893-0.418
		c2.94,0,5.97,0.311,9.021,0.934l4.661-9.401l18.505,9.168l-4.367,8.811c3.525,2.724,6.592,5.908,9.145,9.499l8.756-3.216
		l7.119,19.385l-8.165,2.996c0.333,2.203,0.495,4.315,0.495,6.417c0,2.988-0.337,6.058-1.001,9.151l7.65,3.635l-8.859,18.651
		l-7.69-3.649c-3.049,3.768-6.656,6.992-10.753,9.614l3.039,8.154L104.275,230.089z M103.757,217.145l2.891,7.753l11.786-4.396
		l-2.8-7.513l1.458-0.859c4.716-2.774,8.766-6.394,12.036-10.753l0.989-1.319l6.997,3.322l5.398-11.359l-6.971-3.312l0.404-1.607
		c0.833-3.315,1.258-6.606,1.258-9.783c0-2.385-0.233-4.793-0.711-7.363l-0.312-1.675l7.551-2.771l-4.336-11.81l-7.945,2.917
		l-0.879-1.336c-2.761-4.194-6.264-7.82-10.41-10.784l-1.399-1.002l4.087-8.242l-11.271-5.585l-4.283,8.637l-1.563-0.371
		c-3.277-0.776-6.53-1.17-9.661-1.17c-2.146,0-4.397,0.2-6.88,0.61l-1.641,0.272l-3.506-9.405l-11.786,4.396l3.512,9.417
		l-1.413,0.87c-4.219,2.595-7.891,5.886-10.914,9.771l-0.994,1.281l-8.871-4.218l-5.398,11.364l8.636,4.104l-0.441,1.624
		c-0.952,3.523-1.435,7.048-1.435,10.47c0,1.675,0.136,3.433,0.43,5.534l0.225,1.611l-8.633,3.17l4.334,11.806l8.447-3.098
		l0.857,1.438c2.583,4.344,5.9,8.124,9.854,11.233l1.289,1.017l-3.896,7.856l11.271,5.585l3.82-7.706l1.618,0.464
		c3.798,1.092,7.673,1.644,11.516,1.644c1.849,0,3.78-0.153,6.072-0.493L103.757,217.145z"/>
</g>
<g>
	<path d="M95.137,201.918c-13.25,0-24.029-10.776-24.029-24.028c0-13.248,10.778-24.028,24.029-24.028
		c13.25,0,24.028,10.78,24.028,24.028C119.165,191.142,108.387,201.918,95.137,201.918z M95.137,157.897
		c-11.023,0-19.993,8.971-19.993,19.992c0,11.023,8.969,19.991,19.993,19.991c11.022,0,19.992-8.967,19.992-19.991
		C115.129,166.869,106.16,157.897,95.137,157.897z"/>
</g>
<g>
	<path d="M127.228,125.422l-0.424-4.766c-0.954-0.146-1.797-0.323-2.61-0.544c-1.868-0.512-3.685-1.265-5.408-2.234l-3.27,3.662
		l-8.138-7.253l3.362-3.768c-1.314-1.92-2.328-4.014-3.031-6.236l-5.108,0.426l-0.91-10.862l5.26-0.441
		c0.134-0.848,0.292-1.596,0.488-2.314c0.453-1.65,1.118-3.282,1.975-4.867l-4.099-3.536l7.123-8.258l4.251,3.673
		c1.868-1.292,3.904-2.311,6.068-3.023l-0.504-5.68l10.859-0.966l0.504,5.665c1.094,0.149,2.099,0.351,3.057,0.61
		c1.498,0.414,2.996,0.993,4.462,1.738l3.689-4.131l8.136,7.256l-3.457,3.871c1.413,1.88,2.528,3.934,3.327,6.118l4.909-0.414
		l0.909,10.862l-4.574,0.384c-0.14,1.171-0.353,2.271-0.646,3.338c-0.418,1.521-1.019,3.039-1.792,4.517l3.388,2.921l-7.12,8.259
		l-3.404-2.934c-2.079,1.49-4.365,2.625-6.817,3.39l0.404,4.573L127.228,125.422z M128.775,118.76l0.388,4.352l6.614-0.588
		l-0.375-4.217l0.861-0.232c2.789-0.753,5.359-2.026,7.631-3.792l0.691-0.532l3.094,2.672l4.338-5.028l-3.086-2.665l0.43-0.762
		c0.891-1.568,1.565-3.185,2.01-4.805c0.333-1.21,0.554-2.468,0.67-3.848l0.075-0.896l4.231-0.354l-0.554-6.618l-4.454,0.375
		l-0.26-0.804c-0.82-2.52-2.095-4.856-3.79-6.949l-0.573-0.702l3.234-3.626l-4.955-4.418l-3.387,3.796l-0.744-0.406
		c-1.562-0.854-3.161-1.514-4.755-1.95c-1.093-0.301-2.269-0.51-3.589-0.651l-0.873-0.09l-0.469-5.278l-6.616,0.591l0.471,5.282
		l-0.841,0.249c-2.513,0.725-4.838,1.892-6.921,3.445l-0.687,0.513l-3.925-3.386l-4.338,5.024l3.824,3.3l-0.454,0.765
		c-0.975,1.659-1.716,3.39-2.195,5.128c-0.234,0.854-0.41,1.77-0.556,2.877l-0.112,0.856l-4.836,0.401l0.554,6.618l4.734-0.398
		l0.234,0.855c0.708,2.574,1.869,4.962,3.445,7.099l0.516,0.698l-3.086,3.453l4.958,4.418l3.021-3.386l0.761,0.461
		c1.779,1.087,3.674,1.911,5.628,2.452c0.944,0.256,1.947,0.448,3.159,0.595L128.775,118.76z"/>
</g>
<g>
	<path d="M126.517,109.801c-6.744-1.852-10.723-8.845-8.871-15.593c1.855-6.744,8.851-10.721,15.596-8.869
		c6.744,1.854,10.725,8.85,8.87,15.598C140.257,107.68,133.263,111.658,126.517,109.801z M132.677,87.393
		c-5.613-1.542-11.433,1.77-12.974,7.382c-1.543,5.613,1.768,11.431,7.378,12.972c5.611,1.545,11.433-1.766,12.976-7.379
		C141.599,94.759,138.288,88.938,132.677,87.393z"/>
</g>
</svg>
