<?xml version="1.0" encoding="utf-8"?>
<!-- Generator: Adobe Illustrator 15.1.0, SVG Export Plug-In . SVG Version: 6.00 Build 0)  -->
<!DOCTYPE svg PUBLIC "-//W3C//DTD SVG 1.1//EN" "http://www.w3.org/Graphics/SVG/1.1/DTD/svg11.dtd">
<svg version="1.1" id="Layer_1" xmlns="http://www.w3.org/2000/svg" xmlns:xlink="http://www.w3.org/1999/xlink" x="0px" y="0px"
	 width="328px" height="312px" viewBox="0 0 328 312" enable-background="new 0 0 328 312" xml:space="preserve">
<g>
	<path d="M51.359,235.397c0-38.583,0-77.169,0-115.754c0-2.316-3.594-2.316-3.594,0c0,38.585,0,77.171,0,115.754
		C47.765,237.715,51.359,237.715,51.359,235.397L51.359,235.397z"/>
</g>
<g>
	<path d="M51.295,120.121c0.32-2.032,1.142-3.85,2.533-5.379c1.656-1.819,4.181-1.806,6.44-2.062c2.275-0.257,2.3-3.854,0-3.594
		c-2.86,0.326-5.746,0.429-8.083,2.323c-2.344,1.899-3.888,4.792-4.356,7.756C47.472,121.433,50.935,122.405,51.295,120.121
		L51.295,120.121z"/>
</g>
<g>
	<path d="M60.344,112.606c45.973,0,91.944,0,137.917,0c2.316,0,2.316-3.594,0-3.594c-45.974,0-91.945,0-137.917,0
		C58.026,109.012,58.026,112.606,60.344,112.606L60.344,112.606z"/>
</g>
<g>
	<path d="M198.514,112.692c0.209-0.04,0.406-0.047,0.623-0.043c-0.226-0.003,0.172,0.146,0.008,0.003
		c-0.201-0.179,0.183,0.386,0.115,0.202c0.055,0.146,0.151,0.542,0.157,0.591c0.153,1.185,0.017,2.391,0.042,3.58
		c0.051,2.312,3.645,2.318,3.594,0c-0.039-1.714,0.176-3.455-0.326-5.128c-0.717-2.383-2.899-3.116-5.168-2.67
		C195.284,109.672,196.25,113.136,198.514,112.692L198.514,112.692z"/>
</g>
<g>
	<path d="M203.076,157.379c0-13.45,0-26.902,0-40.354c0-2.318-3.594-2.318-3.594,0c0,13.451,0,26.903,0,40.354
		C199.482,159.697,203.076,159.697,203.076,157.379L203.076,157.379z"/>
</g>
<g>
	<path d="M202.826,233.974c0-18.269,0-36.538,0-54.808c0-2.315-3.594-2.315-3.594,0c0,18.271,0,36.539,0,54.808
		C199.232,236.292,202.826,236.292,202.826,233.974L202.826,233.974z"/>
</g>
<g>
	<path d="M36.384,239.14c87.451,0,174.902,0,262.354,0c2.318,0,2.318-3.595,0-3.595c-87.452,0-174.903,0-262.354,0
		C34.067,235.546,34.067,239.14,36.384,239.14L36.384,239.14z"/>
</g>
<g>
	<path d="M37.732,246.777c86.853,0,173.706,0,260.557,0c2.318,0,2.318-3.594,0-3.594c-86.852,0-173.705,0-260.557,0
		C35.415,243.183,35.415,246.777,37.732,246.777L37.732,246.777z"/>
</g>
<g>
	<path d="M201.928,148.844c26.805,0,53.608,0,80.414,0c2.318,0,2.318-3.595,0-3.595c-26.805,0-53.607,0-80.414,0
		C199.609,145.25,199.609,148.844,201.928,148.844L201.928,148.844z"/>
</g>
<g>
	<path d="M279.982,148.844c1.226,0.014,2.623,0.122,3.623,0.919c1.723,1.375,1.664,3.951,1.543,5.931
		c-0.14,2.316,3.457,2.303,3.595,0c0.179-2.962-0.204-6.066-2.375-8.272c-1.649-1.674-4.13-2.148-6.386-2.172
		C277.665,145.229,277.667,148.823,279.982,148.844L279.982,148.844z"/>
</g>
<g>
	<path d="M288.182,235.322c0.026-26.954,0.588-53.905,0.614-80.863c0.002-2.315-3.592-2.315-3.594,0
		c-0.026,26.958-0.589,53.909-0.614,80.863C284.586,237.642,288.18,237.64,288.182,235.322L288.182,235.322z"/>
</g>
<g>
	<path d="M298.413,239.302c1.065,0.283,0.905,1.502,0.675,2.383c-0.295,1.127-1.504,1.467-2.52,1.499
		c-2.312,0.077-2.318,3.671,0,3.594c2.897-0.095,5.326-1.618,6.084-4.513c0.707-2.72-0.452-5.673-3.286-6.429
		C297.126,235.238,296.175,238.705,298.413,239.302L298.413,239.302z"/>
</g>
<g>
	<path d="M35.196,235.736c-2.515,1.116-3.319,4.04-2.735,6.547c0.684,2.937,3.552,3.89,6.142,4.431
		c2.261,0.471,3.223-2.993,0.954-3.466c-1.149-0.241-2.445-0.374-3.305-1.248c-0.97-0.981-0.33-2.678,0.758-3.162
		C39.125,237.901,37.295,234.806,35.196,235.736L35.196,235.736z"/>
</g>
<g>
	<path d="M269.312,84.378c0,20.367,0,40.732,0,61.098c0,2.317,3.594,2.317,3.594,0c0-20.365,0-40.73,0-61.098
		C272.908,82.062,269.312,82.062,269.312,84.378L269.312,84.378z"/>
</g>
<g>
	<path d="M196.764,110.209c0-9.884,0-19.767,0-29.649c0-2.316-3.594-2.316-3.594,0c0,9.883,0,19.766,0,29.649
		C193.17,112.527,196.764,112.527,196.764,110.209L196.764,110.209z"/>
</g>
<g>
	<path d="M282.585,58.389c-4.343,8.359-8.685,16.722-13.026,25.084c-1.066,2.053,2.034,3.871,3.103,1.813
		c4.343-8.362,8.685-16.724,13.026-25.084C286.755,58.15,283.654,56.333,282.585,58.389L282.585,58.389z"/>
</g>
<g>
	<path d="M183.193,60.804c3.406,7.036,6.813,14.073,10.222,21.113c1.009,2.084,4.108,0.262,3.103-1.813
		c-3.406-7.039-6.813-14.078-10.222-21.114C185.287,56.902,182.188,58.726,183.193,60.804L183.193,60.804z"/>
</g>
<g>
	<path d="M185.682,61.094c32.594,0,65.189,0,97.783,0c2.318,0,2.318-3.595,0-3.595c-32.594,0-65.188,0-97.783,0
		C183.363,57.499,183.363,61.094,185.682,61.094L185.682,61.094z"/>
</g>
<g>
	<path d="M196.463,82.356c22.562,0,45.122,0,67.684,0c2.318,0,2.318-3.594,0-3.594c-22.562,0-45.121,0-67.684,0
		C194.145,78.762,194.145,82.356,196.463,82.356L196.463,82.356z"/>
</g>
<g>
	<path d="M204.398,91.043c8.637,0,17.271,0,25.906,0c2.318,0,2.318-3.594,0-3.594c-8.635,0-17.271,0-25.906,0
		C202.081,87.449,202.081,91.043,204.398,91.043L204.398,91.043z"/>
</g>
<g>
	<path d="M212.188,124.885c0,1.696,0,3.396,0,5.091c0,2.317,3.594,2.317,3.594,0c0-1.695,0-3.395,0-5.091
		C215.781,122.567,212.188,122.567,212.188,124.885L212.188,124.885z"/>
</g>
<g>
	<path d="M214.73,131.772c11.83,0.267,23.658,0.162,35.49,0.15c2.317-0.001,2.317-3.596,0-3.594
		c-11.832,0.011-23.66,0.116-35.49-0.15C212.413,128.127,212.417,131.722,214.73,131.772L214.73,131.772z"/>
</g>
<g>
	<path d="M252.018,129.976c0-1.695,0-3.395,0-5.091c0-2.318-3.594-2.318-3.594,0c0,1.696,0,3.396,0,5.091
		C248.424,132.294,252.018,132.294,252.018,129.976L252.018,129.976z"/>
</g>
<g>
	<path d="M249.475,122.639c-11.83,0-23.662,0-35.49,0c-2.318,0-2.318,3.594,0,3.594c11.83,0,23.66,0,35.49,0
		C251.792,126.232,251.792,122.639,249.475,122.639L249.475,122.639z"/>
</g>
<g>
	<path d="M272.374,132.608c6.106-0.896,6.853,8.662,4.71,12.41c-1.152,2.015,1.953,3.826,3.104,1.813
		c3.916-6.847,0.652-19.071-8.768-17.69C269.133,129.477,270.107,132.939,272.374,132.608L272.374,132.608z"/>
</g>
<g>
	<path d="M161.026,110.669c5.006-7.324,25.681-17.193,32.164-6.401c1.19,1.982,4.299,0.177,3.103-1.814
		c-8.039-13.382-31.669-3.399-38.368,6.402C156.611,110.774,159.728,112.568,161.026,110.669L161.026,110.669z"/>
</g>
<g>
	<path d="M152.94,110.894c7.639-11.436,26.882-20.479,39.882-13.621c2.048,1.081,3.863-2.021,1.814-3.104
		c-14.935-7.879-35.983,1.713-44.8,14.909C148.546,111.013,151.661,112.81,152.94,110.894L152.94,110.894z"/>
</g>
<g>
	<path d="M189.258,180.059c-0.879,1.863-3.389,1.677-5.047,1.733c-3.338,0.119-4.611-3.675-5.193-6.246
		c-1.244-5.492,2.406-7.541,6.521-9.653c1.508-0.772,0.908-2.779-0.43-3.283c-11.309-4.252-16.767,12.363-10.557,19.807
		c3.284,3.937,8.229,6.02,13.338,5.082c3.896-0.712,6.916-4.538,4.918-8.227c-1.104-2.039-4.207-0.226-3.104,1.813
		c1.594,2.939-4.893,3.088-5.98,2.931c-2.908-0.421-5.361-2.326-6.976-4.692c-3.47-5.079-0.019-16.041,7.403-13.249
		c-0.144-1.095-0.285-2.19-0.43-3.285c-3.289,1.688-6.111,2.974-7.72,6.486c-1.44,3.143-0.925,8.076,0.786,11.022
		c1.764,3.036,3.9,4.693,7.419,5.086c2.976,0.336,6.806-0.659,8.149-3.513C193.343,179.789,190.245,177.963,189.258,180.059
		L189.258,180.059z"/>
</g>
<g>
	<path d="M189.939,182.249c10.326-4.085,31.695-9.304,34.965,6.493c0.469,2.271,3.933,1.308,3.464-0.954
		c-3.692-17.851-27.106-13.859-39.384-9.004C186.855,179.625,187.782,183.102,189.939,182.249L189.939,182.249z"/>
</g>
<g>
	<path d="M185.428,167.017c17.025-8.662,41.661-11.399,45.99,12.402c0.415,2.28,3.876,1.312,3.464-0.955
		c-4.731-26.021-32.022-24.343-51.269-14.551C181.547,164.967,183.367,168.066,185.428,167.017L185.428,167.017z"/>
</g>
<g>
	<path d="M223.482,181.322c-2.737,1.972-7.104,7.753-2.976,10.662c3.437,2.424,8.44-1.874,11.054-3.906
		c3.791-2.952,9.904-9.013,8.385-14.53c-1.189-4.327-5.854-1.438-6.506,1.548c-0.494,2.26,2.97,3.219,3.463,0.954
		c0.287-1.3-0.184-2.122-0.657,0.109c-0.265,1.253-0.892,2.388-1.522,3.487c-1.188,2.062-3.041,3.717-4.848,5.225
		c-1.357,1.132-2.913,2.088-4.402,3.039c-0.729,0.467-1.473,0.846-2.293,1.13c-0.748-0.874-0.707-1.733,0.123-2.576
		c0.532-0.81,1.197-1.487,1.994-2.039C227.159,183.083,225.367,179.966,223.482,181.322L223.482,181.322z"/>
</g>
<g>
	<path d="M234.8,174.64c-1.183,1.436-2.016,3.108-1.585,5.005c0.514,2.26,3.979,1.302,3.465-0.955
		c-0.111-0.488,0.369-1.155,0.66-1.509c0.623-0.756,0.742-1.798,0-2.541C236.697,173.997,235.422,173.883,234.8,174.64L234.8,174.64
		z"/>
</g>
<g>
	<path d="M222.391,185.562c-0.551,0.784-0.846,1.639-0.92,2.59c-0.125,1.591,2.034,2.344,3.067,1.271
		c1.044-1.083,1.058-2.119,0.394-3.41c-0.621-1.208-2.461-1.131-3.103,0c-0.476,0.835-0.792,1.729-0.695,2.701
		c0.097,0.977,0.744,1.798,1.796,1.798c0.906,0,1.896-0.819,1.797-1.798c-0.037-0.384,0.014-0.551,0.205-0.888
		c-1.033,0-2.07,0-3.103,0c0.312,0.607,0.037-0.143,0.101,0.229c0-0.318,0-0.636,0-0.955c0.32-0.456,0.344-0.53,0.068-0.219
		c1.023,0.426,2.044,0.849,3.066,1.271c0.021-0.271,0.279-0.562,0.429-0.776c0.562-0.805,0.149-1.995-0.644-2.46
		C223.951,184.391,222.949,184.76,222.391,185.562L222.391,185.562z"/>
</g>
<g>
	<path d="M188.809,162.539c-2.582,3.839-3.461,10.158,0.168,13.631c1.674,1.603,4.219-0.936,2.541-2.541
		c-2.453-2.347-1.271-6.802,0.394-9.275C193.21,162.422,190.093,160.625,188.809,162.539L188.809,162.539z"/>
</g>
<g>
	<path d="M183.389,164.251c-3.693,2.569-3.175,7.328-1.947,11.125c0.709,2.197,4.178,1.256,3.463-0.955
		c-0.617-1.916-1.771-5.628,0.299-7.067C187.091,166.041,185.297,162.924,183.389,164.251L183.389,164.251z"/>
</g>
<g>
	<path d="M198.299,160.264c-3.785,3.298-4.164,8.464-3.156,13.091c0.49,2.266,3.955,1.306,3.463-0.955
		c-0.744-3.429-0.571-7.149,2.234-9.595C202.592,161.282,200.038,158.75,198.299,160.264L198.299,160.264z"/>
</g>
<g>
	<path d="M207.197,159.084c-4.162,2.851-5.01,7.706-5.045,12.445c-0.016,2.32,3.578,2.316,3.595,0
		c0.024-3.295,0.278-7.298,3.267-9.343C210.911,160.889,209.116,157.772,207.197,159.084L207.197,159.084z"/>
</g>
<g>
	<path d="M213,161.057c-0.732,3.108-1.9,6.079-2.92,9.097c-0.746,2.203,2.727,3.138,3.464,0.955c1.021-3.02,2.19-5.988,2.92-9.097
		C216.993,159.758,213.529,158.802,213,161.057L213,161.057z"/>
</g>
<g>
	<path d="M219.673,162.882c-0.256,2.673-1.442,5.218-3.292,7.152c-1.6,1.676,0.938,4.222,2.541,2.542
		c2.544-2.664,3.994-6.041,4.346-9.694C223.488,160.577,219.893,160.598,219.673,162.882L219.673,162.882z"/>
</g>
<g>
	<path d="M225.176,167.375c-0.078,2.076-1.473,4.438-3.152,5.638c-1.869,1.333-0.078,4.453,1.813,3.103
		c2.757-1.967,4.804-5.31,4.933-8.739C228.857,165.058,225.264,165.065,225.176,167.375L225.176,167.375z"/>
</g>
<g>
	<path d="M229.621,174.871c-0.414,1.132-1.292,2.071-2.122,2.913c-1.627,1.653,0.912,4.194,2.541,2.541
		c1.293-1.312,2.407-2.755,3.044-4.499c0.337-0.92-0.368-1.966-1.255-2.209C230.828,173.341,229.956,173.952,229.621,174.871
		L229.621,174.871z"/>
</g>
<g>
	<path d="M248.648,235.097c0-15.872,0-31.745,0-47.619c0-2.316-3.594-2.316-3.594,0c0,15.874,0,31.747,0,47.619
		C245.055,237.415,248.648,237.415,248.648,235.097L248.648,235.097z"/>
</g>
<g>
	<path d="M248.648,187.478c-0.021-1.229,0.998-2.334,2.293-2.012c1.367,0.341,1.22,2.586,1.226,3.659
		c0.011,2.318,3.604,2.318,3.593,0c-0.014-3.09-0.742-6.347-4.146-7.192c-3.43-0.854-6.616,2.211-6.559,5.545
		C245.096,189.794,248.689,189.798,248.648,187.478L248.648,187.478z"/>
</g>
<g>
	<path d="M255.762,230.456c0-14.125,0-28.251,0-42.377c0-2.316-3.594-2.316-3.594,0c0,14.126,0,28.253,0,42.377
		C252.167,232.774,255.762,232.774,255.762,230.456L255.762,230.456z"/>
</g>
<g>
	<path d="M268.939,235.546c0-18.867,0-37.735,0-56.604c0-2.316-3.594-2.316-3.594,0c0,18.868,0,37.736,0,56.604
		C265.346,237.865,268.939,237.865,268.939,235.546L268.939,235.546z"/>
</g>
<g>
	<path d="M275.527,235.546c-0.002-17.669-0.035-35.339-0.073-53.01c-0.007-2.315-3.599-2.315-3.595,0
		c0.039,17.671,0.072,35.341,0.074,53.01C271.934,237.865,275.527,237.865,275.527,235.546L275.527,235.546z"/>
</g>
<g>
	<path d="M268.939,178.942c0.027-1.067,0.108-2.228,0.854-3.062c0.244-0.272,0.546-0.377,0.888-0.468
		c0.059-0.014-0.182-0.175-0.002,0.062c1.368,1.806,1.188,4.946,1.18,7.062c-0.006,2.32,3.588,2.318,3.595,0
		c0.009-3.015,0.077-9.45-3.743-10.553c-4.219-1.218-6.275,3.654-6.365,6.959C265.283,181.262,268.876,181.255,268.939,178.942
		L268.939,178.942z"/>
</g>
<g>
	<path d="M208.294,156.031c21.265,0,42.528,0,63.792,0c2.318,0,2.318-3.594,0-3.594c-21.264,0-42.527,0-63.792,0
		C205.977,152.437,205.977,156.031,208.294,156.031L208.294,156.031z"/>
</g>
<path d="M216.923,223.027c-0.069-0.458-0.272-0.839-0.547-1.158c-1.329,1.779-2.478,3.674-3.617,5.575
	c0.739,0.174,1.527,0.121,2.29-0.24C216.542,226.491,217.152,224.543,216.923,223.027z"/>
<path d="M210.172,225.57c1.1-1.827,2.206-3.646,3.485-5.354c0.053-0.071,0.122-0.104,0.181-0.162
	c-2.641-0.042-5.304,1.992-4.045,4.83C209.9,225.126,210.027,225.354,210.172,225.57z"/>
<g>
	<path d="M46.867,245.878c0,7.29,0,14.576,0,21.864c0,2.318,3.594,2.318,3.594,0c0-7.288,0-14.574,0-21.864
		C50.461,243.562,46.867,243.562,46.867,245.878L46.867,245.878z"/>
</g>
<g>
	<path d="M60.344,266.844c0-6.64,0-13.277,0-19.916c0-2.316-3.594-2.316-3.594,0c0,6.639,0,13.276,0,19.916
		C56.75,269.162,60.344,269.162,60.344,266.844L60.344,266.844z"/>
</g>
<g>
	<path d="M46.855,268.895c0.59,2.777,3.666,4.289,6.287,4.506c3.349,0.277,6.447-2.376,6.987-5.629
		c0.376-2.268-3.087-3.239-3.466-0.955c-0.271,1.632-1.393,2.955-3.134,3.021c-1.151,0.044-2.956-0.705-3.209-1.897
		C49.839,265.673,46.375,266.635,46.855,268.895L46.855,268.895z"/>
</g>
<g>
	<path d="M277.175,244.98c0,7.289,0,14.576,0,21.862c0,2.318,3.595,2.318,3.595,0c0-7.287,0-14.573,0-21.862
		C280.77,242.664,277.175,242.664,277.175,244.98L277.175,244.98z"/>
</g>
<g>
	<path d="M290.652,265.945c0-6.638,0-13.277,0-19.916c0-2.316-3.594-2.316-3.594,0c0,6.639,0,13.277,0,19.916
		C287.059,268.264,290.652,268.264,290.652,265.945L290.652,265.945z"/>
</g>
<g>
	<path d="M277.165,267.997c0.59,2.777,3.664,4.288,6.286,4.506c3.35,0.277,6.447-2.376,6.988-5.629
		c0.375-2.268-3.088-3.239-3.467-0.955c-0.271,1.633-1.391,2.955-3.134,3.022c-1.149,0.043-2.954-0.706-3.209-1.899
		C280.148,264.774,276.684,265.736,277.165,267.997L277.165,267.997z"/>
</g>
<path d="M193.087,120.77c0.448,0.74,1.028,1.646,1.506,2.606c0.183-0.278,0.347-0.571,0.476-0.892
	c0.68-1.695,0.065-4.02-1.473-5.029c-0.441-0.291-0.908-0.438-1.377-0.495c-0.195-0.165-0.416-0.305-0.669-0.397
	c-0.522-0.195-1.011-0.256-1.47-0.23C191.174,117.759,192.18,119.271,193.087,120.77z"/>
<path d="M189.453,120.991c-0.67-1-1.374-1.993-2.113-2.955c-0.846,1.258-1.195,2.985-0.869,4.41c0.418,1.839,2.002,2.83,3.768,3.032
	c0.656,0.075,1.277-0.004,1.855-0.184C191.555,123.788,190.002,121.809,189.453,120.991z"/>
<path d="M187.214,225.758c0.433,0.361,0.923,0.667,1.495,0.828c1.734,0.488,3.465-0.39,4.454-1.793
	c0.683-0.967,0.721-2.222,0.321-3.306C191.303,222.784,189.152,224.119,187.214,225.758z"/>
<path d="M191.227,219.131c-1.006-0.479-2.17-0.655-3.231-0.318c-1.64,0.519-2.663,2.374-2.254,4.043
	C187.475,221.476,189.328,220.276,191.227,219.131z"/>
<path d="M69.257,219.597c0.184,0.207,0.357,0.423,0.525,0.642c0.176-0.598,0.255-1.218,0.19-1.82
	c-0.276-2.558-2.709-4.478-5.277-3.717c-0.028,0.007-0.052,0.025-0.079,0.036C65.84,216.625,67.765,217.924,69.257,219.597z"/>
<path d="M66.607,221.402c-1.527-1.548-3.247-2.887-4.485-4.664c-0.771,1.13-1.094,2.513-0.833,3.958
	c0.43,2.394,3.224,3.414,5.346,2.849c0.458-0.122,0.877-0.343,1.261-0.616C67.503,222.402,67.086,221.887,66.607,221.402z"/>
<path d="M60.69,123.178c-0.018,0.202-0.018,0.406-0.012,0.609c1.977-1.383,4.066-2.572,6.214-3.671
	c-0.631-0.53-1.396-0.896-2.204-1.004c-2.308-0.631-4.394,1.627-4.016,4.003C60.676,123.139,60.687,123.156,60.69,123.178z"/>
<path d="M62.173,126.617c0.19,0.139,0.388,0.267,0.59,0.367c1.169,0.581,2.377,0.476,3.534-0.059
	c1.542-0.706,2.203-2.402,2.052-4.001C66.202,124.013,64.118,125.209,62.173,126.617z"/>
<g>
	<path d="M122.947,220.627c8.397-5.979,24.516-10.735,33.461-3.577c1.79,1.435,4.35-1.091,2.541-2.541
		c-10.345-8.279-27.869-4.07-37.816,3.016C119.262,218.856,121.054,221.975,122.947,220.627L122.947,220.627z"/>
</g>
<g>
	<path d="M119.64,216.04c9.363-10.431,31.114-12.247,40.811-2.471c1.634,1.649,4.175-0.896,2.541-2.541
		c-11.213-11.304-35.181-9.462-45.892,2.471C115.556,215.219,118.089,217.77,119.64,216.04L119.64,216.04z"/>
</g>
<g>
	<path d="M162.76,214.145c0.342-0.119,0.82-0.354,1.2-0.279c-0.354-0.07-0.189-0.473-0.197,0.089
		c-0.01,0.905-0.896,1.869-1.562,2.365c-1.164,0.87-2.646,1.132-4.066,1.151c-0.167,0.017-0.33,0.003-0.49-0.04
		c1.411,0.289,0.346,1.921,0.727,1.212c0.265-0.495,0.637-0.944,0.969-1.394c1.376-1.871-1.744-3.661-3.103-1.813
		c-1.132,1.537-2.528,3.934-0.193,5.205c2.371,1.292,6.298,0.035,8.287-1.453c1.867-1.397,3.365-3.761,2.947-6.177
		c-0.467-2.693-3.291-3.097-5.474-2.332C159.633,211.438,160.567,214.911,162.76,214.145L162.76,214.145z"/>
</g>
<g>
	<path d="M119.64,213.723c-2.067-1.944-4.77-2.019-6.487,0.379c-1.817,2.538,0.063,5.513,1.876,7.335
		c2.263,2.275,5.372,3.859,8.615,2.965c1.105-0.305,2.086-1.354,1.935-2.553c-0.175-1.377-1.194-2.261-2.232-3.073
		c-1.803-1.407-4.366,1.116-2.541,2.542c0.376,0.295,0.741,0.596,1.089,0.923c0.469,0.628,0.685,0.21,0.651-1.25
		c-0.242,0.062-0.487,0.095-0.737,0.103c-1.474,0.104-2.851-0.944-3.886-1.863c-0.765-0.682-1.797-1.548-1.856-2.642
		c-0.055-1.011,0.488-0.837,1.034-0.324C118.786,217.851,121.332,215.315,119.64,213.723L119.64,213.723z"/>
</g>
<g>
	<path d="M105.866,161.573c-3.131-0.419-6.383,2.397-6.033,5.632c0.351,3.241,3.687,5.261,6.751,4.636
		c5.354-1.094,4.786-10.59-1.017-10.343c-2.309,0.1-2.318,3.694,0,3.594c1.47-0.062,1.564,2.321,0.423,3.12
		c-0.917,0.642-2.081-0.26-2.523-1.047c-0.758-1.354,1.495-2.118,2.399-1.997c0.975,0.13,1.797-0.916,1.797-1.797
		C107.663,162.292,106.836,161.703,105.866,161.573L105.866,161.573z"/>
</g>
<g>
	<path d="M77.04,169.137c1.839-0.005,3.634-0.164,5.466-0.303c2.296-0.172,2.312-3.766,0-3.594
		c-1.832,0.139-3.626,0.298-5.466,0.302C74.723,165.544,74.722,169.138,77.04,169.137L77.04,169.137z"/>
</g>
<g>
	<path d="M75.307,167.16c-1.024,5.714,0.817,12.944,4.375,17.559c1.393,1.808,4.518,0.021,3.103-1.814
		c-2.904-3.766-4.858-10.061-4.012-14.788C79.178,165.85,75.715,164.881,75.307,167.16L75.307,167.16z"/>
</g>
<g>
	<path d="M81.832,185.382c1.236-0.021,2.248-0.95,3.168-1.667c0.864-0.67,1.566-1.384,2.531-1.874
		c2.068-1.046,0.249-4.145-1.814-3.103c-0.927,0.47-1.732,1.218-2.537,1.864c-0.37,0.297-0.684,0.547-1.038,0.807
		c-0.192,0.14-0.39,0.271-0.593,0.394c-0.453,0.276-0.004-0.01,0.283-0.015C79.517,181.831,79.513,185.424,81.832,185.382
		L81.832,185.382z"/>
</g>
<g>
	<path d="M88.741,183.653c-1.079,1.597-2.346,3.099-3.145,4.866c-0.403,0.893-0.266,1.925,0.644,2.458
		c0.778,0.457,2.055,0.249,2.458-0.645c0.799-1.767,2.066-3.269,3.145-4.866C93.145,183.54,90.03,181.743,88.741,183.653
		L88.741,183.653z"/>
</g>
<g>
	<path d="M102.551,195.499c1.312-2.179,0.75-4.933,0.406-7.3c-0.142-0.97-1.356-1.489-2.21-1.254
		c-1.032,0.283-1.396,1.242-1.255,2.209c0.196,1.346,0.702,3.293-0.043,4.531C98.25,195.676,101.358,197.482,102.551,195.499
		L102.551,195.499z"/>
</g>
<g>
	<path d="M105.63,189.005c0.404,1.697,0.344,3.376,1.08,4.998c0.405,0.893,1.68,1.1,2.459,0.643c0.908-0.53,1.05-1.565,0.644-2.457
		c-0.566-1.25-0.403-2.818-0.717-4.139C108.561,185.795,105.095,186.751,105.63,189.005L105.63,189.005z"/>
</g>
<g>
	<path d="M107.935,195.35c4.192,0.621,8.817-0.291,12.241-2.876c1.825-1.377,0.037-4.501-1.814-3.104
		c-2.609,1.971-6.208,2.995-9.472,2.516C106.624,191.549,105.648,195.013,107.935,195.35L107.935,195.35z"/>
</g>
<g>
	<path d="M114.947,185.99c1.049,1.689,1.925,3.479,2.846,5.242c1.073,2.055,4.174,0.236,3.102-1.815
		c-0.919-1.76-1.796-3.552-2.845-5.242C116.831,182.21,113.721,184.014,114.947,185.99L114.947,185.99z"/>
</g>
<g>
	<path d="M119.046,182.235c1.206,1.014,2.681,1.688,3.819,2.771c1.676,1.6,4.222-0.938,2.541-2.541
		c-1.155-1.1-2.608-1.753-3.818-2.771c-0.75-0.628-1.804-0.737-2.541,0C118.399,180.344,118.295,181.604,119.046,182.235
		L119.046,182.235z"/>
</g>
<g>
	<path d="M125.361,185.618c3.955-1.463,5.982-6.461,6.722-10.314c0.435-2.264-3.029-3.229-3.466-0.954
		c-0.45,2.346-1.679,6.866-4.211,7.803C122.252,182.951,123.184,186.425,125.361,185.618L125.361,185.618z"/>
</g>
<g>
	<path d="M125.754,173.639c1.572,0.383,2.671,1.782,4.343,2.021c0.968,0.137,1.926-0.223,2.21-1.256
		c0.234-0.853-0.284-2.071-1.256-2.211c-1.594-0.228-2.762-1.634-4.343-2.021C124.458,169.621,123.504,173.088,125.754,173.639
		L125.754,173.639z"/>
</g>
<g>
	<path d="M126.204,168.023c1.849,0.369,3.653,0.482,5.522,0.225c0.972-0.137,1.489-1.361,1.256-2.211
		c-0.286-1.036-1.242-1.39-2.21-1.257c-1.185,0.165-2.45,0.011-3.613-0.224c-0.959-0.192-1.937,0.263-2.21,1.256
		C124.702,166.704,125.242,167.831,126.204,168.023L126.204,168.023z"/>
</g>
<g>
	<path d="M126.84,159.98c1.206-0.593,2.449-1.095,3.688-1.615c0.903-0.379,1.541-1.176,1.256-2.211
		c-0.235-0.854-1.306-1.635-2.21-1.256c-1.525,0.64-3.063,1.25-4.547,1.979C122.947,157.9,124.768,161.001,126.84,159.98
		L126.84,159.98z"/>
</g>
<g>
	<path d="M129.067,157.333c0.425,2.78,1.282,5.652,0.823,8.479c-0.369,2.268,3.095,3.237,3.465,0.955
		c0.576-3.538-0.289-6.902-0.823-10.39C132.182,154.094,128.72,155.066,129.067,157.333L129.067,157.333z"/>
</g>
<g>
	<path d="M125.855,155.056c0.776-0.732,1.784-1.149,2.707-1.665c2.022-1.13,0.21-4.235-1.814-3.104
		c-1.209,0.675-2.415,1.266-3.434,2.228C121.627,154.111,124.172,156.647,125.855,155.056L125.855,155.056z"/>
</g>
<g>
	<path d="M119.623,148.254c0.557-0.989,1.709-1.597,2.489-2.407c1.607-1.667-0.931-4.211-2.541-2.541
		c-1.023,1.062-2.31,1.815-3.051,3.134C115.38,148.461,118.486,150.272,119.623,148.254L119.623,148.254z"/>
</g>
<g>
	<path d="M121.365,145.923c0.999-0.084,1.751,0.924,2.345,1.604c0.975,1.12,1.294,2.396,1.837,3.742
		c0.367,0.909,1.184,1.537,2.21,1.256c0.863-0.238,1.623-1.302,1.255-2.211c-0.386-0.955-0.616-1.979-1.076-2.904
		c-0.442-0.89-1.054-1.658-1.685-2.423c-1.182-1.429-2.926-2.824-4.887-2.657C119.074,142.526,119.055,146.12,121.365,145.923
		L121.365,145.923z"/>
</g>
<g>
	<path d="M115.377,139.787c-0.893,0.875-1.396,1.988-2.002,3.059c-1.144,2.02,1.961,3.829,3.103,1.814
		c0.445-0.787,0.789-1.693,1.441-2.333C119.576,140.705,117.033,138.164,115.377,139.787L115.377,139.787z"/>
</g>
<g>
	<path d="M103.844,138.96c0,1.274,0,2.546,0,3.819c0,2.318,3.594,2.318,3.594,0c0-1.272,0-2.544,0-3.819
		C107.438,136.644,103.844,136.644,103.844,138.96L103.844,138.96z"/>
</g>
<g>
	<path d="M106.269,140.171c2.155-0.568,4.358-0.52,6.532-0.076c0.483,0.098,0.966,0.34,1.414,0.536
		c0.253,0.114,0.503,0.237,0.748,0.367c0.732,0.374,0.208,0.312,0.124-0.247c0.154-0.583,0.308-1.166,0.462-1.748
		c-0.032,0.037-0.064,0.074-0.096,0.111c-1.52,1.735,1.012,4.287,2.541,2.541c1.948-2.225-1.046-3.755-2.784-4.48
		c-3.074-1.28-6.7-1.311-9.895-0.47C103.074,137.293,104.025,140.761,106.269,140.171L106.269,140.171z"/>
</g>
<g>
	<path d="M98.218,140.561c0.4,1.014,0.273,2.13,0.674,3.144c0.36,0.913,1.189,1.538,2.21,1.257c0.869-0.238,1.615-1.299,1.256-2.211
		c-0.4-1.013-0.272-2.129-0.674-3.145c-0.36-0.909-1.189-1.536-2.21-1.255C98.605,138.59,97.858,139.65,98.218,140.561
		L98.218,140.561z"/>
</g>
<g>
	<path d="M88.186,144.755c0.456,1.146,0.892,2.3,1.348,3.443c0.361,0.911,1.187,1.538,2.21,1.256
		c0.867-0.239,1.618-1.299,1.256-2.211c-0.455-1.144-0.892-2.299-1.348-3.443c-0.362-0.908-1.187-1.536-2.21-1.256
		C88.575,142.782,87.823,143.844,88.186,144.755L88.186,144.755z"/>
</g>
<g>
	<path d="M91.919,144.361c1.74-2.253,5.405-2.748,8.032-3.079c2.267-0.286,2.295-3.884,0-3.594
		c-4.138,0.524-8.452,1.385-11.134,4.858C87.4,144.381,90.525,146.167,91.919,144.361L91.919,144.361z"/>
</g>
<g>
	<path d="M84.575,146.513c-2.806,0.804-4.593,3.134-6.029,5.545c-1.496,2.509-3.239,5.932-2.854,8.915
		c0.292,2.267,3.891,2.295,3.594,0c-0.423-3.271,2.897-10.036,6.243-10.996C87.753,149.34,86.807,145.873,84.575,146.513
		L84.575,146.513z"/>
</g>
<g>
	<path d="M77.087,163.454c1.44,0.383,2.801,0.899,4.296,1.039c0.977,0.091,1.797-0.888,1.797-1.797c0-1.049-0.822-1.706-1.797-1.797
		c-1.135-0.105-2.244-0.619-3.341-0.909C75.799,159.396,74.849,162.861,77.087,163.454L77.087,163.454z"/>
</g>
<g>
	<path d="M84.23,149.215c0.782,0.693,1.154,1.719,1.958,2.401c1.045,0.888,2.315,1.026,3.618,0.749
		c2.459-0.523,4.513-3.185,2.936-5.55c-1.278-1.92-4.392-0.123-3.103,1.813c0.312,0.468,0.036,0.004,0.163-0.272
		c-0.019,0.042-0.124,0.157-0.201,0.21c-0.248,0.176-0.752,0.409-0.982,0.372c-0.243-0.04-0.45-0.491-0.564-0.667
		c-0.374-0.574-0.769-1.142-1.284-1.598C85.043,145.144,82.491,147.678,84.23,149.215L84.23,149.215z"/>
</g>
<g>
	<path d="M100.018,145.155c1.292,0.891,2.671,1.365,4.239,1.116c1.67-0.264,2.639-1.997,3.043-3.464
		c0.616-2.237-2.852-3.188-3.466-0.955c-0.1,0.364-0.203,0.638-0.407,0.955c0.091-0.145,0.021-0.039-0.125,0
		c0.181-0.028,0.158-0.037-0.069-0.028c0.301,0.007-0.309-0.095-0.314-0.095c-0.332-0.103-0.759-0.407-1.085-0.632
		c-0.807-0.559-1.992-0.152-2.458,0.644C98.85,143.59,99.214,144.601,100.018,145.155L100.018,145.155z"/>
</g>
<g>
	<path d="M112.551,143.744c-1.256,2.085-0.72,4.805,1.516,5.956c2.743,1.413,5.177-0.53,6.678-2.718
		c1.314-1.918-1.802-3.713-3.103-1.814c-0.298,0.435-0.99,1.531-1.64,1.431c-0.679-0.105-0.653-0.533-0.349-1.039
		C116.854,143.568,113.745,141.764,112.551,143.744L112.551,143.744z"/>
</g>
<g>
	<path d="M123.004,152.683c-2.791,1.573-4.113,5.717-1.004,7.706c2.28,1.458,5.778-0.101,7.524-1.739
		c1.693-1.588-0.854-4.124-2.542-2.541c-0.708,0.667-1.842,1.174-2.851,1.211c-1.037,0.039,0.261-1.293,0.687-1.534
		C126.836,154.649,125.025,151.544,123.004,152.683L123.004,152.683z"/>
</g>
<g>
	<path d="M126.456,164.493c-2.557,0.063-4.432,1.413-4.507,4.101c-0.036,1.281,0.422,2.47,1.257,3.425
		c0.75,0.856,1.966,1.225,2.942,1.737c2.049,1.078,3.867-2.024,1.814-3.103c-0.525-0.274-2.044-0.664-2.288-1.258
		c-0.437-1.069-0.183-1.283,0.781-1.309C128.77,168.031,128.775,164.437,126.456,164.493L126.456,164.493z"/>
</g>
<g>
	<path d="M118.05,183.802c-0.19-0.442-0.176-0.809-0.119-1.021c-0.076,0.149-0.063,0.13,0.036-0.055
		c-0.119,0.128-0.106,0.116,0.036-0.037c0.078-0.086,0.206-0.142,0.077-0.088c0.084-0.035,0.692-0.143,0.416-0.119
		c0.357-0.03,0.267-0.026,0.495,0.017c0.413,0.081,0.746,0.239,1.104,0.56c1.725,1.535,4.276-0.997,2.541-2.542
		c-1.755-1.562-4.101-2.116-6.26-1.057c-2.402,1.184-2.333,4.051-1.428,6.154c0.387,0.9,1.691,1.093,2.458,0.644
		C118.327,185.719,118.438,184.702,118.05,183.802L118.05,183.802z"/>
</g>
<g>
	<path d="M103.32,188.227c0.07-1.013,1.134-1.611,1.735-0.717c0.656,0.974,0.895,2.231,1.1,3.365
		c0.413,2.28,3.876,1.312,3.466-0.955c-0.404-2.229-1.23-5.074-3.47-6.116c-3.115-1.446-6.209,1.345-6.424,4.424
		C99.565,190.542,103.16,190.526,103.32,188.227L103.32,188.227z"/>
</g>
<g>
	<path d="M87.925,181.873c0.65-0.14,2.065-0.485,1.813,0.438c-0.301,1.108-1.509,2.07-2.288,2.849
		c-1.644,1.637,0.897,4.178,2.541,2.541c1.663-1.655,3.923-3.922,3.327-6.519c-0.684-2.977-3.835-3.32-6.348-2.773
		C84.706,178.9,85.666,182.365,87.925,181.873L87.925,181.873z"/>
</g>
<g>
	<path d="M82.132,164.942c0.501-0.024,0.029,0.018-0.115-0.107c-0.037-0.033,0.098,0.298,0.076,0.075
		c-0.023-0.239-0.084,0.295,0.031,0.041c-0.062,0.139-0.171,0.174-0.103,0.128c-0.394,0.26,0.191-0.03-0.271,0.132
		c-0.085,0.03-0.678,0.16-0.513,0.14c-0.267,0.032-0.538,0.038-0.807,0.038c-0.069,0-0.797-0.057-0.441-0.007
		c-0.969-0.132-1.924,0.216-2.21,1.255c-0.233,0.848,0.282,2.079,1.255,2.209c2.136,0.29,4.613,0.107,5.994-1.779
		c1.634-2.229-0.034-5.854-2.896-5.717C79.825,161.459,79.814,165.055,82.132,164.942L82.132,164.942z"/>
</g>
<g>
	<path d="M164.717,121.966c-8.562-0.197-8.221,13.36,0.215,13.154c3.25-0.077,6.741-2.755,6.916-6.148
		c0.191-3.688-2.865-7.596-6.785-6.645c-2.251,0.547-1.297,4.012,0.955,3.468c1.709-0.416,2.457,2.337,2.104,3.562
		c-0.415,1.441-2.322,2.147-3.646,2.181c-1.772,0.044-2.479-1.588-2.53-3.097c-0.065-1.893,0.926-2.923,2.771-2.881
		C167.035,125.613,167.032,122.02,164.717,121.966L164.717,121.966z"/>
</g>
<g>
	<path d="M163.434,127.779c-0.102,0.259-0.164,0.519-0.139,0.803c0.098,1.076,0.753,1.666,1.797,1.797
		c0.684,0.088,1.244-0.36,1.719-0.778c0.937-0.823,0.519-2.194-0.363-2.822c-0.299-0.214-0.701-0.419-1.084-0.372
		c-0.109,0.014-1.407,0.372-0.825,0.19c-2.204,0.69-1.263,4.157,0.955,3.467c0.233-0.074,0.463-0.154,0.664-0.295
		c-0.302,0.083-0.604,0.165-0.908,0.246c0.039-0.004,0.077-0.012,0.114-0.016c-0.303-0.081-0.604-0.163-0.907-0.246
		c0.06,0.042,0.119,0.084,0.177,0.126c-0.121-0.94-0.243-1.881-0.363-2.821c0.001-0.005,0.003-0.012,0.005-0.017
		c0.303-0.083,0.605-0.164,0.907-0.246c-0.029-0.003-0.06-0.009-0.089-0.012c0.601,0.6,1.199,1.198,1.798,1.796
		c0.002,0.051,0.006,0.103,0.008,0.151c0.353-0.916-0.381-1.972-1.254-2.211C164.629,126.243,163.785,126.864,163.434,127.779
		L163.434,127.779z"/>
</g>
<g>
	<path d="M166.311,131.915c-7.889,10.243-13.923,21.877-21.887,32.145c-10.071,12.983-25.576,31.574-43.948,29.411
		c-2.299-0.271-2.272,3.326,0,3.594c17.597,2.072,32.335-13.579,42.649-25.725c9.993-11.764,16.947-25.481,26.288-37.609
		C170.827,131.892,167.704,130.105,166.311,131.915L166.311,131.915z"/>
</g>
<g>
	<path d="M164.239,122.03c-26.082,4.268-57.836,3.706-79.711,20.684c-20.906,16.227-12.866,54.693,15.947,54.35
		c2.317-0.028,2.319-3.623,0-3.594c-17.04,0.203-24.278-13.654-24.433-28.997c-0.129-12.779,11.53-20.612,21.875-25.302
		c21.065-9.546,44.826-10.002,67.276-13.675C167.477,125.122,166.505,121.658,164.239,122.03L164.239,122.03z"/>
</g>
<g>
	<path d="M129.566,145.397c5.093,4.633,5.779,12.014,5.089,18.496c-0.246,2.304,3.351,2.28,3.593,0
		c0.788-7.398-0.376-15.793-6.142-21.037C130.397,141.301,127.848,143.835,129.566,145.397L129.566,145.397z"/>
</g>
<path d="M275.863,162.668c1.174-2.442,2.236-4.938,3.283-7.438c-1.416-0.062-2.832,0.424-3.875,1.462
	C273.518,158.439,273.984,161.263,275.863,162.668z"/>
<path d="M282.098,156.361c-1.035,2.475-2.082,4.944-3.226,7.367c0.573,0.212,1.172,0.337,1.782,0.288
	c1.865-0.148,2.882-1.518,3.045-3.289C283.843,159.187,283.257,157.435,282.098,156.361z"/>
</svg>
