<?xml version="1.0" encoding="utf-8"?>
<!-- Generator: Adobe Illustrator 15.1.0, SVG Export Plug-In . SVG Version: 6.00 Build 0)  -->
<!DOCTYPE svg PUBLIC "-//W3C//DTD SVG 1.1//EN" "http://www.w3.org/Graphics/SVG/1.1/DTD/svg11.dtd">
<svg version="1.1" id="Layer_1" xmlns="http://www.w3.org/2000/svg" xmlns:xlink="http://www.w3.org/1999/xlink" x="0px" y="0px"
	 width="328px" height="312px" viewBox="0 0 328 312" enable-background="new 0 0 328 312" xml:space="preserve">
<g>
	<g>
		<path d="M77.45,187.421C76.751,199.775,88.199,209,99.185,211.96c16.201,4.366,35.393,3.317,51.944,2.255
			c34.967-2.245,70.117-11.608,100.794-28.689c2.902-1.615,0.306-6.065-2.601-4.448c-27.4,15.257-58.148,23.84-89.235,27.213
			c-14.648,1.59-29.445,1.75-44.131,0.623c-12.597-0.967-34.34-4.095-33.356-21.491C82.789,184.102,77.636,184.12,77.45,187.421
			L77.45,187.421z"/>
	</g>
	<g>
		<path d="M75.489,185.625c-11.778,2.675-23.668,8.392-28.392,20.21c-3.813,9.545,1.958,18.856,9.638,24.206
			c22.713,15.815,53.957,21.013,81.021,21.102c26.457,0.086,53.064-5.462,77.645-15.11c17.563-6.892,36.318-16.293,48.845-30.839
			c4.444-5.162,8.194-11.703,6.864-18.726c-1.443-7.629-9.875-11.394-16.486-13.318c-3.197-0.932-4.553,4.041-1.369,4.968
			c5.359,1.56,11.828,4.119,12.989,10.255c1.048,5.532-3.993,11.458-7.386,15.137c-14.102,15.287-35.359,24.536-54.627,31.162
			c-26.174,8.999-54.212,12.876-81.821,10.699c-14.771-1.166-29.324-4.555-43.14-9.884c-10.767-4.153-30.498-11.211-27.864-25.989
			c2.033-11.416,15.664-16.681,25.451-18.902C80.097,189.857,78.723,184.891,75.489,185.625L75.489,185.625z"/>
	</g>
	<g>
		<path d="M203.695,80.817c20.75,5.674,35.523,28.213,43.214,47.024c7.089,17.34,3.485,37.411,1.139,55.458
			c-0.428,3.288,4.729,3.246,5.151,0c2.68-20.609,5.539-40.961-2.865-60.501c-8.255-19.195-24.119-41.162-45.271-46.949
			C201.854,74.971,200.494,79.941,203.695,80.817L203.695,80.817z"/>
	</g>
	<g>
		<path d="M81.324,186.219c0.738-22.006,5.626-43.774,16.695-62.959c12.311-21.335,31.28-33.098,54.001-40.97
			c3.119-1.08,1.778-6.057-1.369-4.967c-11.008,3.812-21.861,8.041-31.407,14.813c-9.488,6.731-17.267,15.519-23.628,25.201
			c-13.276,20.21-18.644,45.009-19.444,68.881C76.062,189.543,81.213,189.532,81.324,186.219L81.324,186.219z"/>
	</g>
	<g>
		<path d="M225.211,194.289c-0.127-9.879-2.3-20.83,2.848-29.836c3.142-5.498,11.301-7.709,16.244-3.456
			c4.715,4.057,3.402,15.257,3.918,20.93c0.297,3.28,5.451,3.311,5.15,0c-0.639-7.032,0.484-17.615-4.45-23.422
			c-4.134-4.864-10.161-5.74-16.085-4.007c-16.452,4.814-12.939,27.098-12.775,39.791
			C220.104,197.609,225.254,197.613,225.211,194.289L225.211,194.289z"/>
	</g>
	<g>
		<path d="M125.453,193.259c0.134-11.426,5.674-24.138,9.387-34.896c4.216-12.219,11.523-23.459,19.554-33.5
			c14.722-18.406,35.379-34.458,59.6-36.172c3.294-0.232,3.316-5.384,0-5.151c-25.139,1.779-45.781,17.271-61.728,35.852
			c-8.452,9.852-15.654,21.098-20.681,33.071c-2.8,6.669-4.683,13.727-6.776,20.638c-2.032,6.715-4.425,13.064-4.508,20.158
			C120.263,196.583,125.414,196.579,125.453,193.259L125.453,193.259z"/>
	</g>
	<g>
		<path d="M124.536,193.719c1.75-13.736,4.403-27.266,8.974-40.36c4.729-13.544,12.3-25.494,20.796-36.95
			c12.833-17.3,28.862-33.312,49.381-41.254c3.063-1.186,1.733-6.168-1.369-4.967c-20.971,8.117-37.016,23.637-50.521,41.075
			c-9.236,11.924-16.987,24.48-22.457,38.562c-5.455,14.038-8.06,29.021-9.956,43.896
			C118.965,197.007,124.121,196.967,124.536,193.719L124.536,193.719z"/>
	</g>
	<g>
		<path d="M200.43,72.669c0,4.33,0,8.66,0,12.99c0,3.322,5.15,3.322,5.15,0c0-4.33,0-8.66,0-12.99
			C205.58,69.348,200.43,69.348,200.43,72.669L200.43,72.669z"/>
	</g>
	<g>
		<path d="M123.103,192.379c-3.346-0.601-6.77,0.179-10.074-0.458c-3.245-0.625-4.629,4.342-1.368,4.969
			c3.348,0.644,6.748-0.143,10.074,0.458C124.981,197.93,126.37,192.966,123.103,192.379L123.103,192.379z"/>
	</g>
	<g>
		<path d="M114.921,193.406c-1.408-25.334,2.297-52.329,14.188-75.01c4.73-9.021,10.397-17.581,16.478-25.739
			c4.972-6.669,10.795-14.324,18.194-18.443c2.903-1.615,0.305-6.063-2.6-4.447c-7.081,3.941-12.51,10.713-17.471,16.952
			c-6.871,8.639-12.929,17.959-18.261,27.615c-13.052,23.638-17.164,52.4-15.68,79.073
			C109.954,196.709,115.107,196.728,114.921,193.406L114.921,193.406z"/>
	</g>
	<g>
		<path d="M163.628,74.494c13.165-1.497,26.202,0.8,39.376,0.751c3.321-0.011,3.322-5.162,0-5.15
			c-13.174,0.048-26.212-2.248-39.376-0.751C160.367,69.714,160.331,74.869,163.628,74.494L163.628,74.494z"/>
	</g>
	<g>
		<path d="M165.05,151.701c2.72,1.729,4.522,4.346,6.979,6.372c0.914,0.754,1.998,0.598,2.695-0.349
			c8.393-11.367,17.014-20.517,28.603-28.744c11.575-8.22,24.567-13.414,38.459-16.117c2.173-0.422,1.25-3.733-0.913-3.312
			c-14.334,2.789-27.213,8.247-39.279,16.466c-12.136,8.262-21.197,18.274-29.834,29.976c0.899-0.115,1.799-0.23,2.696-0.346
			c-2.707-2.232-4.688-5.015-7.674-6.908C164.907,147.545,163.187,150.518,165.05,151.701L165.05,151.701z"/>
	</g>
	<g>
		<path d="M167.113,148.844c3.824-15.339,17.447-26.987,29.255-36.516c8.514-6.873,18.603-16.091,29.008-20.042
			c2.05-0.779,1.162-4.1-0.912-3.312c-11.103,4.217-21.368,13.626-30.524,20.926c-12.293,9.801-26.185,22.179-30.136,38.033
			C163.267,150.081,166.579,150.993,167.113,148.844L167.113,148.844z"/>
	</g>
	<g>
		<path d="M195.445,166.416c2.507-10.263,12.679-18.097,20.799-24.04c9.115-6.669,19.482-11.535,30.027-15.455
			c2.058-0.765,1.168-4.084-0.912-3.312c-11.639,4.328-22.649,9.803-32.692,17.152c-8.349,6.108-17.974,14.262-20.532,24.74
			C191.609,167.654,194.92,168.566,195.445,166.416L195.445,166.416z"/>
	</g>
	<g>
		<path d="M193.091,167.688c0.992,1.012,1.925,2.079,2.919,3.091c0.703,0.715,1.711,0.59,2.428,0
			c1.541-1.269,2.662-2.94,4.121-4.292c1.627-1.509-0.807-3.933-2.428-2.428c-1.459,1.352-2.58,3.022-4.121,4.292
			c0.809,0,1.619,0,2.428,0c-0.994-1.012-1.926-2.079-2.918-3.09C193.967,163.676,191.541,166.105,193.091,167.688L193.091,167.688z
			"/>
	</g>
</g>
</svg>
