<?xml version="1.0" encoding="utf-8"?>
<!-- Generator: Adobe Illustrator 15.1.0, SVG Export Plug-In . SVG Version: 6.00 Build 0)  -->
<!DOCTYPE svg PUBLIC "-//W3C//DTD SVG 1.1//EN" "http://www.w3.org/Graphics/SVG/1.1/DTD/svg11.dtd">
<svg version="1.1" id="Layer_1" xmlns="http://www.w3.org/2000/svg" xmlns:xlink="http://www.w3.org/1999/xlink" x="0px" y="0px"
	 width="328px" height="312px" viewBox="0 0 328 312" enable-background="new 0 0 328 312" xml:space="preserve">
<g>
	<g>
		<path d="M109.978,90.674c-16.344,4.792-28.576,23.21-35.223,37.807c-8.024,17.617-8.842,37.257-5.432,56.075
			c0.69,3.806,6.474,2.188,5.789-1.597c-2.944-16.245-2.172-32.407,3.433-47.999c5.144-14.303,17.53-33.953,33.028-38.497
			C115.28,95.375,113.7,89.582,109.978,90.674L109.978,90.674z"/>
	</g>
	<g>
		<path d="M233.811,92.408c14.726,7.264,22.851,26.863,28.557,41.313c6.703,16.977,8.258,34.999,1.193,52.086
			c-1.479,3.576,4.33,5.12,5.789,1.596c7.905-19.125,5.26-38.934-2.174-57.758c-6.02-15.242-14.836-34.775-30.334-42.42
			C233.382,85.519,230.338,90.695,233.811,92.408L233.811,92.408z"/>
	</g>
	<g>
		<path d="M112.007,81.516c-3.07,7.629-2.334,15.782-1.125,23.729c0.582,3.818,6.364,2.189,5.789-1.596
			c-1.055-6.929-1.543-13.907,1.125-20.538C119.242,79.518,113.433,77.972,112.007,81.516L112.007,81.516z"/>
	</g>
	<g>
		<path d="M115.898,108.57c6.899-6.808,16.649-9.821,25.537-13.113c11.813-4.373,23.999-6.901,36.542-7.947
			c22.224-1.854,48.473-0.689,66.838,13.276c3.082,2.345,6.067-2.873,3.029-5.182c-19.392-14.749-46.492-15.61-69.867-14.099
			c-13.705,0.889-27.038,4.054-39.886,8.811c-9.336,3.457-19.21,6.877-26.437,14.01C108.896,107.049,113.142,111.29,115.898,108.57
			L115.898,108.57z"/>
	</g>
	<g>
		<path d="M118.618,82.703c4.116-6.312,13.277-8.76,19.921-11.352c8.769-3.423,17.384-6.322,26.686-7.951
			c22.246-3.901,43.078,3.292,63.551,11.178c3.617,1.395,5.17-4.411,1.597-5.789c-22.058-8.497-42.935-14.711-66.742-11.178
			c-11.002,1.632-21.185,5.786-31.463,9.811c-6.93,2.712-14.52,5.79-18.731,12.251C111.314,82.927,116.514,85.931,118.618,82.703
			L118.618,82.703z"/>
	</g>
	<g>
		<path d="M228.202,74.807c4.679,3.787,5.89,10.789,6.731,16.434c0.569,3.816,6.353,2.189,5.789-1.597
			c-0.992-6.638-2.793-14.644-8.275-19.08C229.466,68.151,225.191,72.371,228.202,74.807L228.202,74.807z"/>
	</g>
	<g>
		<path d="M123.795,93.034c3.828-2.368,7.772-4.479,12.039-5.95c3.636-1.254,2.073-7.054-1.598-5.788
			c-4.753,1.639-9.2,3.913-13.472,6.554C117.481,89.882,120.494,95.075,123.795,93.034L123.795,93.034z"/>
	</g>
	<g>
		<path d="M70.212,179.21c-11.151,2.432-30.977,3.45-35.861,15.977c-3.558,9.126,9.811,15.622,16.013,18.199
			c16.514,6.862,34.552,10.081,52.095,13.072c19.524,3.329,39.218,5.709,58.917,7.727c3.851,0.393,3.812-5.613,0-6.002
			c-31.791-3.253-64.105-6.959-94.95-15.619c-7.225-2.026-22.881-5.331-26.174-13.4c-3.735-9.156,26.2-12.999,31.555-14.165
			C75.588,184.172,73.984,178.387,70.212,179.21L70.212,179.21z"/>
	</g>
	<g>
		<path d="M62.755,183.229c0.132-3.457-0.595-6.82-0.822-10.254c-0.249-3.763,2.271-3.63,5.574-3.5c3.872,0.151,3.857-5.853,0-6.002
			c-4.752-0.188-9.937,0.76-11.314,6c-1.155,4.389,0.73,9.289,0.56,13.757C56.606,187.102,62.609,187.087,62.755,183.229
			L62.755,183.229z"/>
	</g>
	<g>
		<path d="M159.169,234.249c8.702-0.281,15.074-6.093,22.489-9.986c11.597-6.093,23.734-7.899,36.677-7.689
			c12.323,0.199,23.353,0.094,35.487-1.996c9.586-1.649,21.209-3.562,28.863-10.07c2.51-2.134,3.533-5.516,2.422-8.613
			c-2.311-6.44-10.797-4.511-13.803-10.052c-1.848-3.402-7.029-0.373-5.183,3.029c2.342,4.317,5.969,5.791,10.479,7.201
			c6.469,2.021,0.299,5.463-2.604,6.864c-9.107,4.394-20.21,5.827-30.132,7.143c-11.162,1.48-22.241,0.265-33.466,0.507
			c-9.19,0.199-17.774,2.47-26.237,5.953c-7.985,3.285-16.245,11.424-24.995,11.708C155.31,228.373,155.296,234.375,159.169,234.249
			L159.169,234.249z"/>
	</g>
	<g>
		<path d="M70.461,185.623c31.365,10.774,64.826,11.854,97.674,12.859c33.715,1.03,67.656-0.166,100.752-7.106
			c3.788-0.794,2.182-6.582-1.595-5.789c-31.692,6.647-64.073,7.734-96.354,6.969c-33.194-0.789-67.205-1.843-98.879-12.723
			C68.386,178.574,66.824,184.375,70.461,185.623L70.461,185.623z"/>
	</g>
	<g>
		<path d="M153.246,233.643c5.872,1.14,10.554,4.773,15.425,8.028c5.003,3.344,10.572,5.768,16.181,7.884
			c10.328,3.897,21.346,5.349,32.231,3.516c10.089-1.702,19.215-7.443,26.218-14.706c3.614-3.748,6.256-8.297,8.747-12.823
			c4.011-7.286,7.579-11.42,15.839-13.406c3.762-0.906,2.166-6.693-1.598-5.789c-9.998,2.405-14.477,7.223-19.424,16.167
			c-6.277,11.338-14.521,19.631-27.038,23.704c-11.864,3.859-24.524,0.894-35.825-3.371c-10.22-3.857-18.375-12.898-29.162-14.991
			C151.06,227.121,149.448,232.907,153.246,233.643L153.246,233.643z"/>
	</g>
	<g>
		<path d="M174.879,227.016c6.501,0.985,10.701,6.388,16.633,8.695c6.404,2.493,12.803,3.354,19.602,2.434
			c5.66-0.766,10.652-3.559,14.906-7.241c2.905-2.513,5.465-12.208,9.058-12.66c3.786-0.478,3.833-6.486,0-6.002
			c-3.013,0.378-5.202,1.604-6.929,4.227c-3.584,5.445-5.051,9.998-11.092,13.503c-7.412,4.299-17.715,3.154-25.025-0.687
			c-5.297-2.781-9.43-7.128-15.557-8.057C172.689,220.653,171.062,226.436,174.879,227.016L174.879,227.016z"/>
	</g>
	<g>
		<path d="M226.053,188.621c-0.904,4.842-1.193,14.017,4.65,15.769c3.922,1.177,10.15-0.586,14.076-1.054
			c3.394-0.404,7.144-0.478,10.166-2.229c5.412-3.135,4.349-15.018,1.681-19.475c-1.79-2.989-5.476-1.992-8.217-1.482
			c-6.751,1.251-13.38,2.978-20.071,4.502c-3.775,0.859-2.173,6.646,1.596,5.789c6.688-1.524,13.312-3.302,20.069-4.502
			c3.123-0.556,2.38,2.36,2.406,4.708c0.028,2.384,0.608,5.186-2.147,5.922c-4.632,1.234-9.697,1.061-14.428,1.719
			c-2.723,0.378-3.391,0.96-3.916-1.706c-0.387-1.957-0.445-4.394-0.076-6.362C232.55,186.435,226.766,184.82,226.053,188.621
			L226.053,188.621z"/>
	</g>
	<g>
		<path d="M158.607,180.978c-0.395,3.576-0.247,7.103-0.188,10.691c0.031,1.939-0.822,4.323-0.085,6.208
			c1.439,3.676,4.723,4.525,8.451,4.931c4.744,0.513,9.564,0.51,14.331,0.727c3.456,0.158,10.422,0.903,13.188-1.864
			c4.438-4.437,1.883-16.008,1.12-21.554c-0.614-4.443-5.976-4.428-9.243-4.39c-8.005,0.094-15.851,1.256-23.823,1.5
			c-3.861,0.12-3.873,6.123,0,6.002c8.979-0.275,17.786-1.56,26.813-1.512c1.697,0.011,1.074,14.492,0.742,15.877
			c-0.182,0.759-16.488-0.377-18.822-0.456c-2.671-0.092-7.053,0.483-6.873-2.98c0.228-4.395-0.092-8.795,0.393-13.18
			C165.033,177.134,159.026,177.173,158.607,180.978L158.607,180.978z"/>
	</g>
	<g>
		<path d="M209.52,232.356c-7.361,2.232-25.186-6.021-28.742,4.68c-5.439,16.369,26.221,16.826,34.853,16.158
			c3.833-0.296,3.863-6.301,0-6.002c-5.704,0.441-11.356,0.58-17.019-0.372c-2.986-0.501-5.805-1.577-8.478-2.969
			c-2.78-1.445-5.315-5.114-1.034-6.067c7.203-1.602,14.807,2.547,22.014,0.36C214.809,237.024,213.232,231.23,209.52,232.356
			L209.52,232.356z"/>
	</g>
	<g>
		<path d="M208.314,236.875c-0.195,4.446,1.299,11.064,5.611,13.284c3.438,1.769,6.473-3.411,3.031-5.183
			c-2.32-1.193-2.742-5.797-2.641-8.102C214.486,233.003,208.484,233.021,208.314,236.875L208.314,236.875z"/>
	</g>
	<g>
		<path d="M215.63,234.437c0.347,6.066,3.231,13.852,10.082,14.9c3.784,0.579,5.412-5.206,1.595-5.789
			c-4.078-0.625-5.471-5.53-5.675-9.111C221.413,230.59,215.41,230.568,215.63,234.437L215.63,234.437z"/>
	</g>
	<g>
		<path d="M227.259,238.751c2.13-0.018,3.489-1.451,4.208-3.328c0.372-0.973-0.072-2.22-0.771-2.92
			c-0.959-0.958-2.465-1.142-3.637-0.469c-0.394,0.227-0.732,0.525-1.125,0.75c-1.416,0.813-1.897,2.704-1.076,4.106
			c0.83,1.419,2.687,1.892,4.105,1.076c0.393-0.226,0.732-0.525,1.125-0.75c-1.47-1.13-2.939-2.26-4.41-3.39
			c0.063-0.242,0.189-0.446,0.381-0.61c-0.23,0.225-0.141,0.158,0.271-0.198c0.543-0.201,0.68-0.265,0.406-0.188
			c0.834-0.215,0.812-0.083,0.521-0.082c-1.635,0.016-3.001,1.355-3.001,3.001C224.258,237.376,225.624,238.766,227.259,238.751
			L227.259,238.751z"/>
	</g>
	<g>
		<path d="M233.182,223.886c-0.178,0.504-0.386,0.995-0.562,1.5c-0.654,1.863,1.045,3.798,2.895,3.798c0.062,0,0.125,0,0.188,0
			c0.994,0,2.14-0.558,2.591-1.486c0.696-1.436,1.47-2.99,0.59-4.549c-0.772-1.37-2.752-1.962-4.106-1.076
			c-0.008,0.006-0.018,0.012-0.027,0.018c-1.366,0.895-1.936,2.642-1.076,4.106c0.794,1.357,2.736,1.974,4.105,1.077
			c0.01-0.007,0.019-0.013,0.029-0.02c-1.369-0.356-2.738-0.718-4.106-1.074c0.003,0.006,0.006,0.012,0.009,0.018
			c-0.137-0.506-0.271-1.011-0.409-1.516c0.159-1.249,0.042-0.545-0.1-0.188c0.38-0.95,0.016-0.048-0.091,0.174
			c0.863-0.497,1.727-0.991,2.591-1.486c-0.063,0-0.125,0-0.188,0c0.965,1.266,1.93,2.533,2.895,3.8
			c0.178-0.505,0.386-0.997,0.562-1.5c0.541-1.544-0.601-3.281-2.097-3.691C235.214,221.333,233.723,222.344,233.182,223.886
			L233.182,223.886z"/>
	</g>
	<g>
		<path d="M184.445,229.293c-4.455,1.339-7.521,5.246-8.287,9.786c1.965,0.268,3.93,0.532,5.896,0.797
			c-0.07-2.767,0.484-5.437,1.84-7.863c1.281-2.292-0.812-5.105-3.388-4.408c-3.507,0.945-5.85,3.781-7.608,6.817
			c1.828,0.771,3.656,1.542,5.484,2.312c0.502-2.463,1.814-4.397,3.262-6.411c1.842-2.563-1.65-5.487-4.106-4.106
			c-1.215,0.684-2.293,1.595-3.404,2.434c-0.776,0.586-1.577,1.132-2.403,1.647c-0.324,0.202-0.664,0.382-1.014,0.535
			c-0.414,0.132-0.305,0.188,0.33,0.167c-0.201,1.571-0.404,3.143-0.607,4.714c1.908-0.999,3.86-1.867,5.848-2.697
			c3.518-1.471,1.977-7.28-1.594-5.789c-2.465,1.028-4.916,2.062-7.283,3.303c-1.854,0.97-1.764,3.292-0.607,4.713
			c4.055,4.988,10.189-1.835,13.768-3.844c-1.369-1.369-2.737-2.737-4.106-4.106c-1.739,2.419-3.263,4.893-3.866,7.846
			c-0.664,3.25,3.715,5.368,5.484,2.312c0.947-1.633,2.086-3.538,4.021-4.06c-1.129-1.472-2.261-2.939-3.389-4.409
			c-1.857,3.324-2.756,7.088-2.66,10.893c0.082,3.263,5.312,4.247,5.896,0.798c0.411-2.437,1.563-4.833,4.093-5.593
			C189.736,233.969,188.16,228.173,184.445,229.293L184.445,229.293z"/>
	</g>
</g>
</svg>
