<?xml version="1.0" encoding="utf-8"?>
<!-- Generator: Adobe Illustrator 15.1.0, SVG Export Plug-In . SVG Version: 6.00 Build 0)  -->
<!DOCTYPE svg PUBLIC "-//W3C//DTD SVG 1.1//EN" "http://www.w3.org/Graphics/SVG/1.1/DTD/svg11.dtd">
<svg version="1.1" id="Layer_1" xmlns="http://www.w3.org/2000/svg" xmlns:xlink="http://www.w3.org/1999/xlink" x="0px" y="0px"
	 width="328px" height="312px" viewBox="0 0 328 312" enable-background="new 0 0 328 312" xml:space="preserve">
<g>
	<g>
		<path d="M225.586,64.314c-9.413,10.219-17.443,21.579-26.521,32.087c-2.471,2.86,1.682,7.05,4.17,4.167
			c9.076-10.506,17.104-21.868,26.521-32.087C232.324,65.69,228.167,61.513,225.586,64.314L225.586,64.314z"/>
	</g>
	<g>
		<path d="M146.296,70.719c4.752,3.727,8.237,9.767,11.682,14.627c4.402,6.213,9.027,12.665,12.141,19.646
			c1.545,3.469,6.623,0.465,5.09-2.973c-3.118-6.996-7.77-13.398-12.143-19.646c-3.637-5.2-7.533-11.849-12.601-15.824
			C147.511,64.232,143.308,68.373,146.296,70.719L146.296,70.719z"/>
	</g>
	<g>
		<path d="M169.801,100.694c5.396,4.446,13.127,3.821,19.592,2.632c2.491-0.458,1.434-4.244-1.043-3.788
			c-4.843,0.891-11.664,1.76-15.771-1.622C170.641,96.317,167.844,99.082,169.801,100.694L169.801,100.694z"/>
	</g>
	<g>
		<path d="M186.404,80.234c-22.326,0-46.055-6.732-46.055-19.21c0-12.477,23.729-19.208,46.055-19.208
			c22.328,0,46.057,6.731,46.057,19.208C232.461,73.502,208.732,80.234,186.404,80.234z M186.404,47.816
			c-24.816,0-40.055,7.693-40.055,13.208c0,5.516,15.239,13.21,40.055,13.21c24.818,0,40.057-7.694,40.057-13.21
			S211.223,47.816,186.404,47.816z"/>
	</g>
	<g>
		<path d="M158.912,73.108c1.688,0,1.688-2.62,0-2.62C157.224,70.489,157.224,73.108,158.912,73.108L158.912,73.108z"/>
	</g>
	<g>
		<path d="M159.572,72.929c13.481-8.621,26.959-17.241,40.437-25.867c1.419-0.905,0.107-3.172-1.319-2.261
			c-13.481,8.622-26.959,17.245-40.438,25.866C156.832,71.576,158.145,73.845,159.572,72.929L159.572,72.929z"/>
	</g>
	<g>
		<path d="M171.17,77.495c13.48-8.623,26.958-17.244,40.438-25.867c1.42-0.907,0.106-3.174-1.32-2.261
			c-13.48,8.623-26.958,17.244-40.438,25.867C168.43,76.142,169.742,78.408,171.17,77.495L171.17,77.495z"/>
	</g>
	<g>
		<path d="M199.84,47.569c0,2.62,0,5.239,0,7.858c0,1.69,2.62,1.69,2.62,0c0-2.62,0-5.239,0-7.858
			C202.459,45.881,199.84,45.881,199.84,47.569L199.84,47.569z"/>
	</g>
	<g>
		<path d="M169.527,102.208c0.242,59.167,3.551,119.592,15.066,177.726c0.655,3.314,5.704,1.907,5.049-1.393
			c-11.418-57.651-14.637-117.647-14.877-176.333C174.753,98.832,169.516,98.829,169.527,102.208L169.527,102.208z"/>
	</g>
	<g>
		<path d="M200.387,97.394c-0.021,60.063,0.115,122.126-14.76,180.696c-0.834,3.274,4.221,4.666,5.051,1.393
			c14.994-59.039,14.928-121.554,14.948-182.089C205.626,94.017,200.387,94.017,200.387,97.394L200.387,97.394z"/>
	</g>
	<g>
		<path d="M173.953,154.1c13.049,3.581,22.484-12.956,28.164-22.047c0.896-1.438-1.369-2.75-2.262-1.323
			c-4.961,7.938-13.748,23.989-25.207,20.845C173.018,151.127,172.326,153.654,173.953,154.1L173.953,154.1z"/>
	</g>
	<g>
		<path d="M174.848,165.933c10.785-1.197,22.35-10.493,27.325-19.965c0.785-1.494-1.476-2.816-2.261-1.322
			c-4.492,8.551-15.279,17.583-25.062,18.668C173.188,163.498,173.17,166.122,174.848,165.933L174.848,165.933z"/>
	</g>
	<g>
		<path d="M175.266,178.329c10.74,1.867,23.062-9.067,27.562-17.845c0.771-1.501-1.491-2.827-2.261-1.325
			c-2.479,4.835-6.114,8.505-10.5,11.639c-3.633,2.597-9.447,5.814-14.105,5.007C174.311,175.515,173.604,178.042,175.266,178.329
			L175.266,178.329z"/>
	</g>
	<g>
		<path d="M175.669,190.546c3.128,3.203,8.192,0.039,11.409-1.545c7.23-3.556,12.455-8.922,16.294-15.967
			c0.808-1.484-1.453-2.804-2.261-1.32c-2.83,5.193-6.37,9.479-11.299,12.795c-2.096,1.412-10.025,6.503-12.293,4.186
			C176.339,187.481,174.49,189.336,175.669,190.546L175.669,190.546z"/>
	</g>
	<g>
		<path d="M177.462,206.682c3.917,1.854,7.541-1.213,10.534-3.6c5.156-4.116,9.271-9.125,12.977-14.55
			c0.957-1.399-1.314-2.708-2.261-1.322c-2.45,3.586-5.093,6.974-8.119,10.092c-2.046,2.109-8.356,8.751-11.811,7.118
			C177.266,203.705,175.936,205.96,177.462,206.682L177.462,206.682z"/>
	</g>
	<g>
		<path d="M177.572,219.237c3.998,2.775,9.355-0.798,12.822-3.003c5.467-3.474,9.517-8.922,12.433-14.604
			c0.771-1.501-1.489-2.826-2.261-1.321c-1.955,3.806-4.309,7.183-7.312,10.245c-2.42,2.463-10.481,9.113-14.362,6.423
			C177.503,216.008,176.193,218.28,177.572,219.237L177.572,219.237z"/>
	</g>
	<g>
		<path d="M178.833,232.671c2.696,2.947,6.688,0.834,9.554-0.777c5.102-2.865,8.514-7.341,10.948-12.583
			c0.706-1.522-1.55-2.853-2.261-1.322c-1.51,3.249-3.328,6.149-5.883,8.685c-1.543,1.532-8.168,6.699-10.506,4.146
			C179.542,229.571,177.695,231.428,178.833,232.671L178.833,232.671z"/>
	</g>
	<g>
		<path d="M180.243,245.303c0.767,4.295,6.321,2.777,8.922,1.253c3.916-2.292,6.425-6.814,8.122-10.861
			c0.652-1.555-1.883-2.229-2.527-0.696c-1.072,2.559-2.492,4.95-4.314,7.04c-0.758,0.87-7.086,5.871-7.674,2.568
			C182.475,242.944,179.949,243.65,180.243,245.303L180.243,245.303z"/>
	</g>
	<g>
		<path d="M182.379,256.85c0.01,3.657,4.553,3.249,6.666,1.877c2.451-1.591,4.484-4.323,5.816-6.892
			c0.779-1.499-1.482-2.823-2.26-1.322c-0.763,1.471-1.75,2.821-2.84,4.064c-0.703,0.803-1.488,1.529-2.384,2.11
			c-0.233,0.15-2.376,1.092-2.379,0.161C184.993,255.161,182.374,255.161,182.379,256.85L182.379,256.85z"/>
	</g>
</g>
</svg>
