<?xml version="1.0" encoding="utf-8"?>
<!-- Generator: Adobe Illustrator 15.1.0, SVG Export Plug-In . SVG Version: 6.00 Build 0)  -->
<!DOCTYPE svg PUBLIC "-//W3C//DTD SVG 1.1//EN" "http://www.w3.org/Graphics/SVG/1.1/DTD/svg11.dtd">
<svg version="1.1" id="Layer_1" xmlns="http://www.w3.org/2000/svg" xmlns:xlink="http://www.w3.org/1999/xlink" x="0px" y="0px"
	 width="328px" height="312px" viewBox="0 0 328 312" enable-background="new 0 0 328 312" xml:space="preserve">
<g>
	<g>
		<path d="M237.904,91.188c-17.139,18.064-34.275,36.131-51.416,54.199c-1.742,1.837,1.031,4.62,2.779,2.778
			c17.14-18.067,34.275-36.134,51.416-54.2C242.426,92.129,239.652,89.346,237.904,91.188L237.904,91.188z"/>
	</g>
	<g>
		<path d="M217.928,68.591c-14.727,18.266-29.976,36.055-46.503,52.727c-1.786,1.801,0.993,4.58,2.778,2.779
			c16.527-16.672,31.777-34.461,46.503-52.727C222.279,69.415,219.52,66.616,217.928,68.591L217.928,68.591z"/>
	</g>
	<g>
		<path d="M170.626,122.205c-3.093,6.166-0.415,12.853,4.237,17.447c3.543,3.5,9.681,7.43,14.847,6.562
			c2.494-0.417,1.433-4.203-1.044-3.789c-3.467,0.581-7.918-3.055-10.445-5.065c-3.736-2.973-6.505-8.582-4.201-13.171
			C175.152,121.931,171.762,119.94,170.626,122.205L170.626,122.205z"/>
	</g>
	<g>
		<path d="M177.141,133.05c0.409,2.636,2.9,4.048,5.139,4.977c0.99,0.412,2.16-0.438,2.418-1.374
			c0.311-1.128-0.383-2.006-1.373-2.415c-1.049-0.435-2.206-1.028-2.393-2.231c-0.166-1.059-1.477-1.632-2.418-1.371
			C177.395,130.942,176.977,131.996,177.141,133.05L177.141,133.05z"/>
	</g>
	<g>
		<path d="M217.421,69.456c-2.099,12.442,10.519,24.601,22.528,25.083c2.535,0.104,2.525-3.828,0-3.93
			c-9.242-0.374-20.395-10.293-18.736-20.11C221.63,68.023,217.844,66.961,217.421,69.456L217.421,69.456z"/>
	</g>
	<g>
		<path d="M231.012,80.161c1.696,4.271,5.956,5.759,10.247,6.028c2.533,0.159,2.519-3.771,0-3.93
			c-2.271-0.142-5.501-0.737-6.456-3.143C233.878,76.794,230.076,77.807,231.012,80.161L231.012,80.161z"/>
	</g>
	<g>
		<path d="M221.119,42.96c-0.307,8.29-0.908,17.681-3.206,25.678c-0.698,2.44,3.093,3.477,3.792,1.044
			c1.154-4.024,1.312-8.315,2-12.444c0.786-4.718,1.167-9.498,1.343-14.277C225.143,40.427,221.213,40.435,221.119,42.96
			L221.119,42.96z"/>
	</g>
	<g>
		<path d="M239.816,94.471c11.408-1.748,22.816-3.493,34.223-5.24c2.5-0.381,1.434-4.167-1.044-3.789
			c-11.408,1.745-22.815,3.495-34.224,5.24C236.271,91.065,237.339,94.852,239.816,94.471L239.816,94.471z"/>
	</g>
	<g>
		<path d="M222.35,44.024c2.955,2.39,5.713,5.027,8.496,7.612c2.211,2.054,9.805,7.398,7.824,9.725
			c-4.406,5.173-4.15,10.618,2.699,13.215c2.438,0.923,5.191-2.183,6.477-3.604c1.893-2.099-0.531-2.482,1.717-0.415
			c1.599,1.474,3.297,2.842,4.971,4.229c5.89,4.879,11.935,9.577,17.99,14.249c2.008,1.545,3.961-1.87,1.985-3.393
			c-8.054-6.212-17.375-12.226-24.165-19.833c-0.777-0.875-1.973-0.625-2.777,0c-1.484,1.146-2.607,2.502-3.861,3.894
			c-2.994-2.661-3.416-4.902-1.264-6.729c0.355-0.445,0.688-0.906,1-1.382c0.76-1.085,0.471-2.537-0.338-3.459
			c-5.355-6.067-11.688-11.8-17.977-16.886C223.175,39.665,220.379,42.428,222.35,44.024L222.35,44.024z"/>
	</g>
	<g>
		<path d="M187.254,144.021c-32.24,35.297-64.479,70.594-96.719,105.889c-1.707,1.865,1.067,4.654,2.778,2.778
			c32.24-35.294,64.479-70.592,96.719-105.89C191.736,144.935,188.966,142.148,187.254,144.021L187.254,144.021z"/>
	</g>
	<g>
		<path d="M170.375,122.959c-33.237,36.495-66.472,72.989-99.71,109.483c-1.701,1.868,1.069,4.657,2.779,2.779
			c33.237-36.495,66.472-72.989,99.71-109.484C174.855,123.87,172.084,121.082,170.375,122.959L170.375,122.959z"/>
	</g>
	<g>
		<path d="M69.888,233.528c-3.968,10.234-8.016,20.438-12.117,30.62c-0.54,1.346,1.092,2.922,2.417,2.418
			c10.784-4.089,20.57-10.605,31.93-13.101c2.477-0.545,1.425-4.332-1.044-3.788c-11.388,2.502-21.13,9.006-31.93,13.099
			c0.806,0.806,1.612,1.612,2.418,2.416c4.099-10.18,8.146-20.384,12.117-30.62C74.596,232.208,70.796,231.192,69.888,233.528
			L69.888,233.528z"/>
	</g>
	<g>
		<path d="M71.019,232.842c-7.056,13.747,11.936,22.06,22.958,17.841c2.341-0.898,1.325-4.697-1.044-3.789
			c-7.358,2.816-23.93-1.527-18.521-12.071C75.565,232.573,72.175,230.585,71.019,232.842L71.019,232.842z"/>
	</g>
	<g>
		<path d="M75.88,229.575c1.253,10.869,21.43,14.292,29.264,9.339c2.134-1.349,0.164-4.751-1.985-3.393
			c-3.27,2.066-7.816,1.704-11.49,1.169c-3.231-0.468-11.378-2.947-11.859-7.115C79.523,227.088,75.591,227.06,75.88,229.575
			L75.88,229.575z"/>
	</g>
	<g>
		<path d="M86.318,218.197c1.712,4.575,6.885,5.974,11.181,7.192c6.634,1.88,13.949,2.705,20.494-0.033
			c2.303-0.962,1.292-4.765-1.044-3.787c-5.222,2.18-11.16,1.975-16.533,0.545c-2.968-0.791-9.075-1.671-10.306-4.961
			C89.23,214.805,85.431,215.82,86.318,218.197L86.318,218.197z"/>
	</g>
	<g>
		<path d="M97.763,206.443c5.931,7.783,19.565,11.062,28.745,8.433c2.434-0.695,1.397-4.487-1.043-3.787
			c-7.253,2.075-19.532-0.36-24.309-6.632C99.641,202.473,96.225,204.427,97.763,206.443L97.763,206.443z"/>
	</g>
	<g>
		<path d="M107.367,196.071c5.424,7.686,20.553,11.012,29.292,8.325c2.415-0.742,1.384-4.534-1.044-3.787
			c-6.793,2.085-20.575-0.46-24.856-6.521C109.312,192.034,105.901,193.996,107.367,196.071L107.367,196.071z"/>
	</g>
	<g>
		<path d="M117.957,184.389c2.507,4.047,7.317,5.391,11.667,6.574c5.539,1.505,12.897,2.479,18.388,0.443
			c2.354-0.873,1.335-4.674-1.044-3.789c-4.365,1.617-9.822,0.752-14.294-0.005c-3.635-0.617-9.229-1.824-11.324-5.204
			C120.019,180.26,116.619,182.23,117.957,184.389L117.957,184.389z"/>
	</g>
	<g>
		<path d="M129.181,173.436c8.08,7.555,19.762,8.871,30.185,6.292c2.459-0.609,1.417-4.4-1.043-3.792
			c-9.017,2.232-19.33,1.299-26.363-5.278C130.112,168.928,127.326,171.702,129.181,173.436L129.181,173.436z"/>
	</g>
	<g>
		<path d="M138.786,162.191c2.922,3.188,7.026,4.313,11.13,5.199c6.209,1.343,12.974,2.308,19.273,1.31
			c2.496-0.394,1.436-4.18-1.045-3.786c-4.96,0.783-10.312-0.098-15.208-0.932c-3.994-0.687-8.52-1.458-11.373-4.569
			C139.85,157.543,137.077,160.329,138.786,162.191L138.786,162.191z"/>
	</g>
	<g>
		<path d="M149.117,152.566c8.261,4.639,19.012,7.583,28.479,5.875c2.492-0.45,1.434-4.237-1.043-3.789
			c-8.352,1.507-18.205-1.41-25.45-5.479C148.889,147.931,146.909,151.323,149.117,152.566L149.117,152.566z"/>
	</g>
	<g>
		<path d="M158.287,142.304c7.553,5.272,20.824,9.734,29.712,5.35c2.272-1.124,0.278-4.513-1.985-3.393
			c-7.504,3.704-19.529-1.014-25.741-5.351C158.187,137.456,156.225,140.866,158.287,142.304L158.287,142.304z"/>
	</g>
</g>
</svg>
