<?xml version="1.0" encoding="utf-8"?>
<!-- Generator: Adobe Illustrator 15.1.0, SVG Export Plug-In . SVG Version: 6.00 Build 0)  -->
<!DOCTYPE svg PUBLIC "-//W3C//DTD SVG 1.1//EN" "http://www.w3.org/Graphics/SVG/1.1/DTD/svg11.dtd">
<svg version="1.1" id="Layer_1" xmlns="http://www.w3.org/2000/svg" xmlns:xlink="http://www.w3.org/1999/xlink" x="0px" y="0px"
	 width="328px" height="312px" viewBox="0 0 328 312" enable-background="new 0 0 328 312" xml:space="preserve">
<g>
	<path d="M135.384,90.429c0,56.407,0,112.812,0,169.219c0,2.823,4.376,2.823,4.376,0c0-56.405,0-112.812,0-169.219
		C139.76,87.608,135.384,87.608,135.384,90.429L135.384,90.429z"/>
</g>
<g>
	<path d="M176.23,91.888c0,55.273,0,110.545,0,165.815c0,2.821,4.375,2.821,4.375,0c0-55.271,0-110.542,0-165.815
		C180.605,89.067,176.23,89.067,176.23,91.888L176.23,91.888z"/>
</g>
<g>
	<path d="M137.193,263.24c10.642,7.433,32.071,4.413,42.331-2.311c2.348-1.539,0.16-5.331-2.211-3.778
		c-8.887,5.824-28.621,8.798-37.909,2.311C137.082,257.841,134.9,261.636,137.193,263.24L137.193,263.24z"/>
</g>
<g>
	<path d="M144.211,267.283c2.969,12.844,22.882,8.844,27.828-0.45c1.324-2.49-2.453-4.701-3.777-2.211
		c-3.169,5.949-17.771,10.402-19.829,1.499C147.798,263.368,143.578,264.537,144.211,267.283L144.211,267.283z"/>
</g>
<g>
	<path d="M123.104,91.523c23.463,0,46.923,0,70.386,0c2.82,0,2.82-4.376,0-4.376c-23.463,0-46.923,0-70.386,0
		C120.283,87.146,120.283,91.523,123.104,91.523L123.104,91.523z"/>
</g>
<g>
	<path d="M124.563,87.876c0-9.784,0-19.57,0-29.357c0-2.821-4.376-2.821-4.376,0c0,9.787,0,19.573,0,29.357
		C120.187,90.699,124.563,90.699,124.563,87.876L124.563,87.876z"/>
</g>
<g>
	<path d="M197.137,88.97c0-10.395,0-20.788,0-31.182c0-2.82-4.375-2.82-4.375,0c0,10.395,0,20.788,0,31.182
		C192.762,91.793,197.137,91.793,197.137,88.97L197.137,88.97z"/>
</g>
<g>
	<path d="M122.375,60.706c6.559,0.394,13.012,1.437,19.583,1.682c4.664,0.176,2.761,1.584,4.331,5.737
		c1.675,4.434,7.174,3.955,10.79,3.186c4.867-1.031,2.735-9.336,6.639-8.758c9.97,1.473,22.041-0.917,31.813-3.2
		c2.75-0.642,1.585-4.86-1.162-4.221c-10.653,2.485-22.922,4.168-33.848,2.554c-1.479-0.221-2.641,0.572-2.77,2.107
		c-0.678,8.151-7.878,7.59-8.752-0.183c-0.12-1.065-0.909-2.342-2.188-2.188c-8.294,1.003-16.158-0.598-24.435-1.094
		C119.554,56.165,119.571,60.541,122.375,60.706L122.375,60.706z"/>
</g>
<g>
	<path d="M122.933,59.315c5.721-3.266,34.373-13.016,38.649-5.715c1.971,3.364,6.395,1.624,8.943,0.427
		c0.721-0.339,1.022-1.162,1.082-1.892c-0.039,0.473,17.922,4.542,20.937,3.361c-2.599,1.016-1.47,5.249,1.162,4.22
		c0.854-0.333,1.707-0.667,2.56-1c1.223-0.479,1.711-1.409,1.529-2.691c-0.915-6.382-14.479-6.607-19.074-7.171
		c-1.184-0.144-8.136-0.815-10.041,0.302c-1.215,0.712-2.332,6.16-3.713,0.029c-0.214-0.936-1.174-1.613-2.111-1.607
		c-14.124,0.131-29.612,0.815-42.134,7.96C118.272,56.934,120.477,60.717,122.933,59.315L122.933,59.315z"/>
</g>
<g>
	<path d="M160.838,48.608c-5.105,3.157-10.211,6.319-15.317,9.481c-2.394,1.482-0.197,5.267,2.211,3.778
		c5.106-3.163,10.211-6.322,15.317-9.481C165.443,50.905,163.246,47.115,160.838,48.608L160.838,48.608z"/>
</g>
<g>
	<path d="M170.32,50.067c-4.413,2.325-9.196,4.752-12.271,8.807c-1.707,2.248,2.097,4.425,3.778,2.208
		c2.53-3.333,7.092-5.333,10.705-7.236C175.027,52.529,172.816,48.751,170.32,50.067L170.32,50.067z"/>
</g>
<g>
	<path d="M138.421,199.29c2.821,0,2.821-4.376,0-4.376C135.6,194.914,135.601,199.29,138.421,199.29L138.421,199.29z"/>
</g>
<g>
	<path d="M138.057,101.187c13.234-0.559,28.569-1.812,39.582-9.96c2.239-1.658,0.062-5.459-2.211-3.778
		c-10.386,7.688-24.897,8.838-37.371,9.363C135.245,96.931,135.233,101.307,138.057,101.187L138.057,101.187z"/>
</g>
<g>
	<path d="M137.877,107.88c13.494,4.08,28.614,0.154,39.957-7.774c2.293-1.604,0.107-5.399-2.211-3.778
		c-10.422,7.288-24.138,11.097-36.583,7.333C136.333,102.84,135.182,107.065,137.877,107.88L137.877,107.88z"/>
</g>
<g>
	<path d="M137.84,117.288c13.396,2.316,27.571,0.672,39.434-6.237c2.436-1.419,0.232-5.202-2.211-3.777
		c-10.799,6.291-23.836,7.91-36.061,5.795C136.245,112.59,135.062,116.807,137.84,117.288L137.84,117.288z"/>
</g>
<g>
	<path d="M138.604,126.351c13.913,1.07,28.027,0.486,39.518-8.319c2.206-1.692,0.032-5.499-2.211-3.778
		c-10.925,8.376-24.115,8.739-37.307,7.722C135.789,121.758,135.809,126.138,138.604,126.351L138.604,126.351z"/>
</g>
<g>
	<path d="M137.475,134.662c13.352,2.414,28.686,1.194,40.162-6.602c2.319-1.578,0.131-5.371-2.211-3.778
		c-10.488,7.123-24.545,8.371-36.789,6.16C135.88,129.944,134.7,134.161,137.475,134.662L137.475,134.662z"/>
</g>
<g>
	<path d="M138.057,145.421c13.234-0.559,28.569-1.814,39.582-9.964c2.239-1.658,0.062-5.459-2.211-3.777
		c-10.386,7.687-24.897,8.838-37.371,9.364C135.245,141.161,135.233,145.541,138.057,145.421L138.057,145.421z"/>
</g>
<g>
	<path d="M137.877,152.113c13.494,4.08,28.614,0.154,39.957-7.778c2.293-1.601,0.107-5.396-2.211-3.777
		c-10.422,7.288-24.138,11.101-36.583,7.334C136.333,147.073,135.182,151.299,137.877,152.113L137.877,152.113z"/>
</g>
<g>
	<path d="M137.84,161.521c13.396,2.312,27.571,0.672,39.434-6.24c2.436-1.419,0.232-5.203-2.211-3.778
		c-10.799,6.291-23.836,7.909-36.061,5.795C136.245,156.823,135.062,161.04,137.84,161.521L137.84,161.521z"/>
</g>
<g>
	<path d="M138.604,170.584c13.913,1.071,28.027,0.487,39.518-8.321c2.206-1.692,0.032-5.496-2.211-3.778
		c-10.925,8.376-24.115,8.741-37.307,7.724C135.789,165.992,135.809,170.371,138.604,170.584L138.604,170.584z"/>
</g>
<g>
	<path d="M137.475,178.896c13.352,2.411,28.686,1.19,40.162-6.604c2.319-1.576,0.131-5.368-2.211-3.777
		c-10.488,7.126-24.545,8.371-36.789,6.159C135.88,174.178,134.7,178.395,137.475,178.896L137.475,178.896z"/>
</g>
<g>
	<path d="M138.057,189.654c13.234-0.559,28.569-1.818,39.582-9.966c2.239-1.658,0.062-5.459-2.211-3.778
		c-10.386,7.688-24.897,8.838-37.371,9.368C135.245,185.395,135.233,189.774,138.057,189.654L138.057,189.654z"/>
</g>
<g>
	<path d="M137.877,196.344c13.494,4.079,28.614,0.153,39.957-7.775c2.293-1.604,0.107-5.399-2.211-3.778
		c-10.422,7.286-24.138,11.099-36.583,7.334C136.333,191.307,135.182,195.529,137.877,196.344L137.877,196.344z"/>
</g>
<g>
	<path d="M137.84,205.752c13.396,2.313,27.571,0.672,39.434-6.239c2.436-1.418,0.232-5.203-2.211-3.778
		c-10.799,6.291-23.836,7.909-36.061,5.798C136.245,201.057,135.062,205.273,137.84,205.752L137.84,205.752z"/>
</g>
<g>
	<path d="M138.604,214.818c13.913,1.071,28.027,0.484,39.518-8.325c2.206-1.689,0.032-5.494-2.211-3.778
		c-10.925,8.376-24.115,8.741-37.307,7.728C135.789,210.226,135.809,214.602,138.604,214.818L138.604,214.818z"/>
</g>
<g>
	<path d="M137.475,223.126c13.352,2.41,28.686,1.194,40.162-6.604c2.319-1.573,0.131-5.368-2.211-3.778
		c-10.488,7.128-24.545,8.374-36.789,6.163C135.88,218.408,134.7,222.625,137.475,223.126L137.475,223.126z"/>
</g>
<g>
	<path d="M138.057,233.885c13.234-0.559,28.569-1.815,39.582-9.964c2.239-1.657,0.062-5.459-2.211-3.777
		c-10.386,7.687-24.897,8.838-37.371,9.364C135.245,229.628,135.233,234.004,138.057,233.885L138.057,233.885z"/>
</g>
<g>
	<path d="M137.877,240.575c13.494,4.08,28.614,0.154,39.957-7.771c2.293-1.607,0.107-5.402-2.211-3.778
		c-10.422,7.285-24.138,11.095-36.583,7.333C136.333,235.538,135.182,239.76,137.877,240.575L137.877,240.575z"/>
</g>
<g>
	<path d="M137.84,249.983c13.396,2.315,27.571,0.672,39.434-6.237c2.436-1.419,0.232-5.203-2.211-3.777
		c-10.799,6.29-23.836,7.909-36.061,5.798C136.245,245.287,135.062,249.504,137.84,249.983L137.84,249.983z"/>
</g>
<g>
	<path d="M138.604,259.049c13.913,1.071,28.027,0.484,39.518-8.321c2.206-1.689,0.032-5.496-2.211-3.778
		c-10.925,8.377-24.115,8.739-37.307,7.724C135.789,254.456,135.809,258.833,138.604,259.049L138.604,259.049z"/>
</g>
</svg>
