<?xml version="1.0" encoding="utf-8"?>
<!-- Generator: Adobe Illustrator 15.1.0, SVG Export Plug-In . SVG Version: 6.00 Build 0)  -->
<!DOCTYPE svg PUBLIC "-//W3C//DTD SVG 1.1//EN" "http://www.w3.org/Graphics/SVG/1.1/DTD/svg11.dtd">
<svg version="1.1" id="Layer_1" xmlns="http://www.w3.org/2000/svg" xmlns:xlink="http://www.w3.org/1999/xlink" x="0px" y="0px"
	 width="328px" height="312px" viewBox="0 0 328 312" enable-background="new 0 0 328 312" xml:space="preserve">
<g>
	<g>
		<path d="M57.277,240.741c57.033-25.646,114.256-50.86,171.433-76.187c2.856-1.265,0.386-5.445-2.448-4.19
			c-57.177,25.324-114.401,50.541-171.436,76.187C51.977,237.83,54.447,242.014,57.277,240.741L57.277,240.741z"/>
	</g>
	<g>
		<path d="M32.546,212.023c26.689-12.002,50.347-21.845,77.898-32.573c32.644-12.712,65.287-25.425,97.93-38.134
			c2.883-1.125,1.63-5.817-1.289-4.68c-59.286,23.083-118.96,45.102-176.99,71.196C27.245,209.112,29.715,213.296,32.546,212.023
			L32.546,212.023z"/>
	</g>
	<g>
		<path d="M30.424,207.833c-7.884,3.938-10.648,16.634-7.117,24.319c2.129,4.633,5.73,8.82,10.596,10.671
			c7.744,2.945,15.227,0.436,22.794-1.839c2.989-0.897,1.715-5.583-1.291-4.679c-10.619,3.19-21.104,5.607-27.46-5.625
			c-3.094-5.468-0.721-15.835,4.926-18.656C35.673,210.623,33.215,206.436,30.424,207.833L30.424,207.833z"/>
	</g>
	<g>
		<path d="M234.059,106.689c-9.978,11.505-19.953,23.01-29.932,34.516c-2.04,2.352,1.378,5.798,3.432,3.433
			c9.979-11.507,19.955-23.012,29.932-34.518C239.529,107.766,236.111,104.318,234.059,106.689L234.059,106.689z"/>
	</g>
	<g>
		<path d="M234.598,110.455c10.02,10.542,20.039,21.08,30.059,31.622c2.16,2.272,5.587-1.166,3.432-3.432
			c-10.021-10.542-20.039-21.08-30.059-31.622C235.869,104.751,232.441,108.189,234.598,110.455L234.598,110.455z"/>
	</g>
	<g>
		<path d="M264.688,142.257c9.969,15.244,31.758-9.881,38.461-16.498c2.23-2.199-1.203-5.631-3.432-3.432
			c-4.193,4.137-24.547,27.104-30.84,17.481C267.173,137.198,262.969,139.628,264.688,142.257L264.688,142.257z"/>
	</g>
	<g>
		<path d="M300.93,125.016c7.446,6.945,6.541,21.108,1.418,29.138c-7.217,11.31-20.658,15.452-33.184,12.396
			c-17.448-4.26-35.555-13.167-52.08-2.124c-2.588,1.729-0.161,5.938,2.449,4.19c22.857-15.271,48.498,12.166,72.695,0.606
			c16.193-7.736,27.313-33.478,12.131-47.641C302.077,119.455,298.635,122.877,300.93,125.016L300.93,125.016z"/>
	</g>
	<g>
		<path d="M267.762,138.772c-1.412-13.039,8.008-21.551,20.125-23.817c5.584-1.043,1.737-7.191-0.748-8.911
			c-11.49-7.943-38.769-6.004-44.57,8.32c-1.176,2.904,3.521,4.152,4.68,1.289c3.707-9.148,20.188-9.66,27.986-8.484
			c2.418,0.366,4.873,1.169,7.174,1.979c5.38,1.893,0.093,1.934-2.497,2.91c-11.304,4.27-18.302,14.745-17.005,26.715
			C263.24,141.849,268.098,141.881,267.762,138.772L267.762,138.772z"/>
	</g>
	<g>
		<path d="M237.743,155.494c0.454-3.037,1.446-5.754,3.964-7.679c1.872-1.436,5.113-3.71,7.611-3.265
			c-0.482-1.188-0.967-2.376-1.449-3.564c-1.014,2.104-4.32,3.884-6.107,5.262c-2.607,2.007-5.15,4.152-7.568,6.38
			c-2.307,2.127,1.134,5.55,3.431,3.433c2.612-2.405,5.368-4.699,8.192-6.852c2.088-1.586,5.074-3.346,6.242-5.772
			c0.621-1.29,0.205-3.271-1.451-3.564c-3.912-0.698-7.625,1.224-10.793,3.354c-3.885,2.609-6.065,6.383-6.752,10.98
			C232.605,157.267,237.283,158.582,237.743,155.494L237.743,155.494z"/>
	</g>
	<g>
		<path d="M234.706,153.26c-2.784-2.051-4.735-4.728-6.707-7.527c-3.372-4.793-1.872-8.743,2.065-12.494
			c3.566-3.394,8.047-3.381,11.408,0.17c2.766,2.926,5.391,5.944,7.887,9.102c1.94,2.455,5.351-1.006,3.433-3.433
			c-2.495-3.157-5.119-6.178-7.888-9.101c-1.538-1.624-3.293-3.959-5.549-4.648c-5.199-1.589-10.287,2.159-13.896,5.596
			c-3.176,3.024-6.447,8.603-4.258,13.011c2.537,5.112,6.458,10.127,11.057,13.515C234.779,159.312,237.197,155.096,234.706,153.26
			L234.706,153.26z"/>
	</g>
	<g>
		<path d="M301.031,135.1c0,3.416-0.76,6.49-2.316,9.53c-1.259,2.461-3.74,6.064-6.529,6.813c-1.006,0.268-0.58,1.83,0.431,1.561
			c2.846-0.764,4.581-3.405,6.282-5.631c2.65-3.473,3.75-7.979,3.75-12.272C302.648,134.057,301.031,134.057,301.031,135.1
			L301.031,135.1z"/>
	</g>
	<g>
		<path d="M255.462,126.495c2.121-1.333,7.657-2.629,9.41-0.155c0.599,0.845,2.002,0.038,1.397-0.814
			c-2.354-3.321-8.644-2.3-11.623-0.427C253.766,125.651,254.578,127.051,255.462,126.495L255.462,126.495z"/>
	</g>
	<g>
		<path d="M232.809,152.018c0.467-7.345,8.336-14.229,15.896-12.027c1.003,0.291,1.43-1.27,0.43-1.561
			c-8.621-2.51-17.412,5.197-17.943,13.587C231.125,153.061,232.742,153.055,232.809,152.018L232.809,152.018z"/>
	</g>
	<g>
		<path d="M230.18,149.389c0.672-8.008,8.434-12.251,15.707-12.605c1.038-0.051,1.043-1.668,0-1.618
			c-8.225,0.398-16.574,5.304-17.324,14.224C228.475,150.429,230.093,150.422,230.18,149.389L230.18,149.389z"/>
	</g>
	<g>
		<path d="M227.792,146.302c1.13-7.56,8.336-12.132,15.667-11.81c1.042,0.044,1.039-1.574,0-1.618
			c-7.982-0.351-15.998,4.769-17.229,12.997C226.08,146.893,227.637,147.329,227.792,146.302L227.792,146.302z"/>
	</g>
	<g>
		<path d="M225.432,143.471c1.672-6.062,9.608-12.321,16.062-11.23c1.021,0.17,1.457-1.387,0.43-1.562
			c-7.397-1.248-16.106,5.314-18.051,12.361C223.593,144.049,225.152,144.475,225.432,143.471L225.432,143.471z"/>
	</g>
	<g>
		<path d="M197.373,157.438c1.77-1.093,9.328-4.708,11.082-2.322c0.062,0.085-0.898,1.096-1.182,1.355
			c-2.6,2.386-5.918,4.124-8.963,5.857c-11.188,6.371-22.924,11.822-34.589,17.241c-28.089,13.051-56.593,25.324-85.379,36.757
			c-0.958,0.382-0.54,1.946,0.43,1.562c29.513-11.724,58.725-24.325,87.51-37.733c11.762-5.477,23.602-11.007,34.812-17.563
			c1.047-0.612,12.91-7.286,7.605-9.173c-3.799-1.349-8.887,0.61-12.143,2.623C195.671,156.587,196.482,157.987,197.373,157.438
			L197.373,157.438z"/>
	</g>
	<g>
		<path d="M63.277,224.056c1.265-0.434,2.497-0.955,3.775-1.351c0.994-0.31,0.569-1.871-0.43-1.561
			c-1.278,0.395-2.51,0.916-3.775,1.349C61.865,222.83,62.287,224.391,63.277,224.056L63.277,224.056z"/>
	</g>
	<g>
		<path d="M36.065,216.905c-2.532,3.248-2.259,8.253-0.497,11.809c1.928,3.891,6.856,4.285,10.641,4.134
			c1.04-0.041,1.043-1.662,0-1.618c-2.874,0.114-5.938,0.047-8.206-1.959c-2.7-2.394-2.937-8.473-0.794-11.222
			C37.842,217.237,36.706,216.08,36.065,216.905L36.065,216.905z"/>
	</g>
</g>
</svg>
