<?xml version="1.0" encoding="utf-8"?>
<!-- Generator: Adobe Illustrator 15.1.0, SVG Export Plug-In . SVG Version: 6.00 Build 0)  -->
<!DOCTYPE svg PUBLIC "-//W3C//DTD SVG 1.1//EN" "http://www.w3.org/Graphics/SVG/1.1/DTD/svg11.dtd">
<svg version="1.1" id="Layer_1" xmlns="http://www.w3.org/2000/svg" xmlns:xlink="http://www.w3.org/1999/xlink" x="0px" y="0px"
	 width="328px" height="312px" viewBox="0 0 328 312" enable-background="new 0 0 328 312" xml:space="preserve">
<g>
	<g>
		<path d="M43.062,233.612c6.517-4.157,13.033-8.312,19.549-12.469c2.541-1.617,0.192-5.677-2.365-4.046
			c-6.518,4.155-13.034,8.312-19.551,12.468C38.156,231.183,40.504,235.242,43.062,233.612L43.062,233.612z"/>
	</g>
	<g>
		<path d="M33.286,216.573c6.516-4.153,13.033-8.31,19.549-12.466c2.541-1.62,0.191-5.679-2.365-4.046
			c-6.518,4.152-13.034,8.31-19.551,12.465C28.38,214.146,30.729,218.205,33.286,216.573L33.286,216.573z"/>
	</g>
	<g>
		<path d="M52.152,204.427c3.429,0.009,12.817,0.266,13.093,5.315c0.167,3.036-3.286,5.899-5.273,7.685
			c-5.292,4.763-11.973,8.12-18.278,11.291c-2.702,1.357-0.328,5.4,2.365,4.047c7.915-3.979,26.476-12.049,25.845-23.556
			c-0.442-8.067-11.705-9.454-17.751-9.469C49.128,199.731,49.129,204.418,52.152,204.427L52.152,204.427z"/>
	</g>
	<g>
		<path d="M40.363,233.78c6.992,11.166,23.764,9.57,34.138,4.657c13.755-6.516,20.862-22.792,18.775-37.32
			c-0.428-2.98-4.945-1.709-4.52,1.245c1.685,11.727-3.72,22.911-13.094,29.896c-7.742,5.771-25.19,8.838-31.252-0.842
			C42.811,228.858,38.754,231.21,40.363,233.78L40.363,233.78z"/>
	</g>
	<g>
		<path d="M56.085,204.778c4.2,5.883,2.225,10.854-2.5,15.621c-2.324,2.344-7.798,7.51-11.235,8.083
			c-2.977,0.495-1.71,5.011,1.246,4.52c2.464-0.412,5.41-3.125,7.418-4.513c3.194-2.209,6.139-4.754,8.584-7.775
			c4.606-5.688,4.751-12.396,0.534-18.3C58.393,199.975,54.325,202.313,56.085,204.778L56.085,204.778z"/>
	</g>
	<g>
		<path d="M33.377,213.545c-4.616-6.549,0.202-17.405,4.531-22.927c3.574-4.555,8.94-7.25,14.405-8.754
			c11.269-3.097,22.975,1.691,27.989,12.27c1.294,2.731,5.335,0.352,4.048-2.364c-6.643-14.017-22.431-18.123-36.478-13.454
			c-12.889,4.284-27.955,24.241-18.543,37.595C31.056,218.361,35.122,216.02,33.377,213.545L33.377,213.545z"/>
	</g>
	<g>
		<path d="M60.739,207.415c0.939,2.14,0.217,4.077-0.911,5.969c-1.209,2.03,1.186,4.389,3.207,3.204
			c1.644-0.961,2.606-2.429,3.444-4.095c1.354-2.69-2.688-5.064-4.047-2.365c-0.459,0.913-0.854,1.884-1.763,2.414
			c1.069,1.068,2.139,2.14,3.208,3.207c2.081-3.491,2.562-6.936,0.911-10.699c-0.514-1.168-2.201-1.428-3.208-0.839
			C60.385,204.91,60.226,206.246,60.739,207.415L60.739,207.415z"/>
	</g>
	<g>
		<path d="M296.493,96.016c-6.767,3.737-13.53,7.476-20.294,11.214c-2.646,1.462-0.282,5.508,2.365,4.047
			c6.765-3.738,13.529-7.478,20.293-11.215C301.503,98.6,299.141,94.551,296.493,96.016L296.493,96.016z"/>
	</g>
	<g>
		<path d="M286.2,79.284c-6.765,3.738-13.531,7.478-20.296,11.215c-2.646,1.461-0.282,5.508,2.365,4.046
			c6.765-3.737,13.53-7.476,20.295-11.214C291.211,81.869,288.848,77.819,286.2,79.284L286.2,79.284z"/>
	</g>
	<g>
		<path d="M264.826,91.777c-2.883,5.334-6.828,15.059-0.748,19.771c9.318,7.224,26.576-6.173,33.561-11.016
			c2.465-1.708,0.125-5.773-2.365-4.046c-6.606,4.58-18.471,14.253-27.363,11.892c-5.383-1.429-0.422-11.672,0.963-14.235
			C270.309,91.481,266.262,89.116,264.826,91.777L264.826,91.777z"/>
	</g>
	<g>
		<path d="M296.295,100.15c6.559,12.354-8.136,26.051-18.611,29.643c-9.691,3.323-20.461,1.153-28.531-4.886
			c-2.42-1.815-4.754,2.258-2.364,4.046c11.229,8.407,25.786,8.865,38.218,2.856c11.41-5.518,21.842-21.771,15.335-34.024
			C298.923,95.115,294.877,97.483,296.295,100.15L296.295,100.15z"/>
	</g>
	<g>
		<path d="M263.307,100.095c3.041,6.233,8.635,9.48,15.611,8.416c4.014-0.613,7.695-2.054,11.352-3.771
			c2.265-1.065,6.193-2.496,7.797-4.489c1.877-2.329-1.418-5.667-3.314-3.313c-2.133,2.648-8.605,4.652-11.65,5.758
			c-6.533,2.368-12.481,1.724-15.748-4.965C266.025,95.015,261.984,97.392,263.307,100.095L263.307,100.095z"/>
	</g>
	<g>
		<path d="M289.92,79.549c-7.029-14.241-30.225-10.763-40.443-2.92c-12.248,9.402-16.324,26.866-7.096,39.649
			c1.75,2.426,5.819,0.091,4.047-2.365c-7.342-10.171-4.994-22.115,3.127-31.056c4.258-4.69,10.258-7.522,16.493-8.228
			c6.283-0.708,16.726,1.008,19.826,7.284C287.212,84.627,291.253,82.25,289.92,79.549L289.92,79.549z"/>
	</g>
	<g>
		<path d="M263.398,105.445c2.468,3.24,5.746,4.519,9.777,4.342c-0.395-1.456-0.789-2.911-1.183-4.367
			c-0.906,0.546-1.894,0.446-2.923,0.412c-3.023-0.094-3.014,4.592,0,4.688c1.869,0.058,3.65-0.064,5.287-1.054
			c1.929-1.162,1.213-4.471-1.182-4.366c-2.181,0.094-4.314-0.162-5.73-2.021c-0.772-1.014-2.002-1.547-3.207-0.839
			C263.238,102.827,262.623,104.425,263.398,105.445L263.398,105.445z"/>
	</g>
	<g>
		<path d="M78.918,185.99c53.922-27.326,107.844-54.656,161.766-81.985c2.696-1.366,0.322-5.409-2.365-4.046
			c-53.922,27.327-107.843,54.656-161.765,81.985C73.857,183.311,76.229,187.354,78.918,185.99L78.918,185.99z"/>
	</g>
	<g>
		<path d="M94.225,212.422c53.049-26.884,106.097-53.771,159.145-80.657c2.696-1.367,0.323-5.41-2.365-4.048
			c-53.048,26.889-106.096,53.771-159.144,80.659C89.164,209.743,91.536,213.787,94.225,212.422L94.225,212.422z"/>
	</g>
	<g>
		<path d="M111.098,191.678c38.401-19.464,76.804-38.926,115.205-58.389c2.023-1.025,0.242-4.059-1.773-3.037
			c-38.401,19.463-76.803,38.927-115.205,58.389C107.301,189.667,109.081,192.7,111.098,191.678L111.098,191.678z"/>
	</g>
	<g>
		<path d="M105.776,181.62c38.401-19.463,76.803-38.926,115.205-58.388c2.022-1.025,0.242-4.06-1.773-3.036
			c-38.402,19.462-76.804,38.925-115.205,58.388C101.979,179.609,103.759,182.642,105.776,181.62L105.776,181.62z"/>
	</g>
	<g>
		<path d="M100.833,181.163c-2.255,2.829-2.077,6.426,0.185,9.197c2.557,3.134,7.471,2.56,10.669,0.985
			c2.034-1.001,0.251-4.031-1.774-3.036c-1.846,0.909-4.411,1.32-6.108-0.125c-1.25-1.068-1.516-3.241-0.485-4.535
			C104.716,181.895,102.245,179.393,100.833,181.163L100.833,181.163z"/>
	</g>
	<g>
		<path d="M224.016,121.554c2.375-0.409,5.271,1.021,5.368,3.628c0.091,2.419-2.917,4.201-4.769,5.07
			c-2.053,0.961-0.266,3.991,1.773,3.037c3.932-1.849,7.123-5.318,6.303-9.896c-0.742-4.142-6.032-5.848-9.609-5.23
			C220.852,118.548,221.799,121.935,224.016,121.554L224.016,121.554z"/>
	</g>
</g>
</svg>
