<?xml version="1.0" encoding="UTF-8" standalone="no"?>
<!-- Created with Inkscape (http://www.inkscape.org/) -->

<svg
   xmlns:dc="http://purl.org/dc/elements/1.1/"
   xmlns:cc="http://creativecommons.org/ns#"
   xmlns:rdf="http://www.w3.org/1999/02/22-rdf-syntax-ns#"
   xmlns:svg="http://www.w3.org/2000/svg"
   xmlns="http://www.w3.org/2000/svg"
   xmlns:sodipodi="http://sodipodi.sourceforge.net/DTD/sodipodi-0.dtd"
   xmlns:inkscape="http://www.inkscape.org/namespaces/inkscape"
   width="62.362118mm"
   height="84.328568mm"
   viewBox="0 0 62.362118 84.328567"
   version="1.1"
   id="svg8"
   inkscape:version="0.92.2 2405546, 2018-03-11"
   sodipodi:docname="esoc.svg">
  <defs
     id="defs2">
    <inkscape:perspective
       sodipodi:type="inkscape:persp3d"
       inkscape:vp_x="0 : 148.5 : 1"
       inkscape:vp_y="0 : 999.99999 : 0"
       inkscape:vp_z="210.00001 : 148.5 : 1"
       inkscape:persp3d-origin="105 : 98.999999 : 1"
       id="perspective2307" />
    <clipPath
       clipPathUnits="userSpaceOnUse"
       id="clipPath1252-9-3">
      <g
         id="g1262-3-3"
         transform="matrix(0.99999889,0,0,0.99999982,279.19166,438.78261)"
         style="stroke-width:1.0000006">
        <g
           transform="translate(-25.731002,-0.1322636)"
           id="g1258-7-6"
           style="stroke-width:1.0000006">
          <g
             id="g1256-4-9"
             transform="translate(-95.250002)"
             style="stroke-width:1.0000006">
            <path
               inkscape:connector-curvature="0"
               id="path1254-5-0"
               d="m 1501.1846,130.70348 h 60.8542 c 7.329,0 13.2292,5.9002 13.2292,13.22916 v 60.85419 c 0,7.32896 -5.9002,13.22917 -13.2292,13.22917 h -60.8542 c -7.3289,0 -13.2292,-5.90021 -13.2292,-13.22917 v -60.85419 c 0,-7.32896 5.9003,-13.22916 13.2292,-13.22916 z"
               style="opacity:1;vector-effect:none;fill:#6d4eff;fill-opacity:1;stroke:none;stroke-width:3.96875286;stroke-linecap:butt;stroke-linejoin:miter;stroke-miterlimit:4;stroke-dasharray:none;stroke-dashoffset:0;stroke-opacity:1;paint-order:normal"
               sodipodi:nodetypes="sssssssss" />
          </g>
        </g>
        <g
           style="stroke-width:0.98702425"
           transform="matrix(1.0131472,0,0,1.0131472,-144.01349,-2.2905938)"
           id="g1260-2-4" />
      </g>
    </clipPath>
    <clipPath
       clipPathUnits="userSpaceOnUse"
       id="clipPath1252-9-3-8">
      <g
         id="g1262-3-3-6"
         transform="matrix(0.99999889,0,0,0.99999982,279.19166,438.78261)"
         style="stroke-width:1.0000006">
        <g
           transform="translate(-25.731002,-0.1322636)"
           id="g1258-7-6-3"
           style="stroke-width:1.0000006">
          <g
             id="g1256-4-9-3"
             transform="translate(-95.250002)"
             style="stroke-width:1.0000006">
            <path
               inkscape:connector-curvature="0"
               id="path1254-5-0-1"
               d="m 1501.1846,130.70348 h 60.8542 c 7.329,0 13.2292,5.9002 13.2292,13.22916 v 60.85419 c 0,7.32896 -5.9002,13.22917 -13.2292,13.22917 h -60.8542 c -7.3289,0 -13.2292,-5.90021 -13.2292,-13.22917 v -60.85419 c 0,-7.32896 5.9003,-13.22916 13.2292,-13.22916 z"
               style="opacity:1;vector-effect:none;fill:#6d4eff;fill-opacity:1;stroke:none;stroke-width:3.96875286;stroke-linecap:butt;stroke-linejoin:miter;stroke-miterlimit:4;stroke-dasharray:none;stroke-dashoffset:0;stroke-opacity:1;paint-order:normal"
               sodipodi:nodetypes="sssssssss" />
          </g>
        </g>
        <g
           style="stroke-width:0.98702425"
           transform="matrix(1.0131472,0,0,1.0131472,-144.01349,-2.2905938)"
           id="g1260-2-4-9" />
      </g>
    </clipPath>
  </defs>
  <sodipodi:namedview
     id="base"
     pagecolor="#ffffff"
     bordercolor="#666666"
     borderopacity="1.0"
     inkscape:pageopacity="0.0"
     inkscape:pageshadow="2"
     inkscape:zoom="2"
     inkscape:cx="126.75288"
     inkscape:cy="154.13344"
     inkscape:document-units="mm"
     inkscape:current-layer="layer1"
     showgrid="false"
     inkscape:window-width="1920"
     inkscape:window-height="1029"
     inkscape:window-x="0"
     inkscape:window-y="24"
     inkscape:window-maximized="1"
     inkscape:snap-global="false" />
  <metadata
     id="metadata5">
    <rdf:RDF>
      <cc:Work
         rdf:about="">
        <dc:format>image/svg+xml</dc:format>
        <dc:type
           rdf:resource="http://purl.org/dc/dcmitype/StillImage" />
        <dc:title />
      </cc:Work>
    </rdf:RDF>
  </metadata>
  <g
     inkscape:label="Layer 1"
     inkscape:groupmode="layer"
     id="layer1"
     transform="translate(89.958336,-23.553123)">
    <g
       id="g2347"
       transform="translate(1.8727036,2.0289097)">
      <rect
         y="21.524214"
         x="-91.540085"
         height="45.376041"
         width="61.780209"
         id="rect2305"
         style="opacity:1;vector-effect:none;fill:#ffffff;fill-opacity:1;stroke:none;stroke-width:0.26458329px;stroke-linecap:butt;stroke-linejoin:miter;stroke-miterlimit:4;stroke-dasharray:none;stroke-dashoffset:0;stroke-opacity:1;paint-order:normal"
         inkscape:export-filename="/home/raghu/Desktop/esoc-logo.png"
         inkscape:export-xdpi="410.86884"
         inkscape:export-ydpi="410.86884" />
      <g
         transform="translate(-163.36746,-50.041852)"
         id="g2198">
        <path
           sodipodi:nodetypes="ccsscssccsscssc"
           inkscape:connector-curvature="0"
           id="path2120"
           d="m 84.425543,87.22143 36.252797,-0.187204 c 0,0 2.26589,0.845963 2.88207,1.795386 1.43684,2.213919 0.008,5.434029 1.08668,7.843006 0.30969,0.69185 1.47204,1.733259 1.47204,1.733259 0,0 -1.14837,1.936363 -1.51928,2.991443 -0.81644,2.32241 0.18697,5.44724 -1.51191,7.22879 -0.90947,0.95372 -3.40178,1.08669 -3.82701,0.99219 -0.42522,-0.0945 -36.344532,-0.22788 -36.344532,-0.22788 0,0 -1.165376,-1.37911 -1.368035,-2.13447 -0.606316,-2.25991 0.324286,-4.84919 -0.614212,-6.99256 -0.375629,-0.85787 -1.889881,-2.078868 -1.889881,-2.078868 0,0 1.54121,-1.027983 1.842635,-1.842633 0.955931,-2.583561 0.73335,-7.339496 1.22842,-8.031996 0.741349,-1.036994 1.529321,-0.983327 2.310218,-1.088463 z"
           style="fill:#fff9a7;fill-opacity:1;stroke:none;stroke-width:0.26458332px;stroke-linecap:butt;stroke-linejoin:miter;stroke-opacity:1" />
        <path
           sodipodi:nodetypes="ccscscccsscccscccsccscccssccssccssccccssccccssccccscccscccsccscccscccscccsscc"
           inkscape:connector-curvature="0"
           id="path2122"
           d="m 84.559178,86.770413 c -0.979987,0 -1.752433,0.165962 -2.31717,0.49816 -0.54813,0.315589 -0.963033,0.780698 -1.245402,1.395264 -0.282371,0.614569 -0.457044,1.370626 -0.523483,2.267561 -0.06644,0.880327 -0.09974,1.893523 -0.09974,3.03961 0,0.979985 -0.124473,1.702229 -0.373621,2.167308 -0.24915,0.465079 -0.631274,0.864111 -1.146183,1.196311 -0.232539,0.149487 -0.390308,0.290348 -0.473358,0.42323 -0.08305,0.132879 -0.124539,0.299358 -0.124539,0.498676 v 0.298691 c 0,0.199319 0.04149,0.365281 0.124539,0.49816 0.08305,0.132879 0.240819,0.274257 0.473358,0.423746 0.514909,0.3322 0.897033,0.73071 1.146183,1.19579 0.249148,0.46508 0.373621,1.18784 0.373621,2.16783 0,1.14609 0.0333,2.16747 0.09974,3.06441 0.06644,0.88033 0.241112,1.62767 0.523483,2.24224 0.282369,0.63118 0.697272,1.10448 1.245402,1.42007 0.564737,0.3322 3.297157,0.49868 2.31717,0.49868 h 0.208772 0.444934 35.662936 c 0.97999,0 1.75243,-0.16648 2.31717,-0.49868 0.54813,-0.31559 0.96303,-0.78889 1.2454,-1.42007 0.28237,-0.61457 0.45705,-1.36191 0.52349,-2.24224 0.0665,-0.89694 0.0997,-1.91832 0.0997,-3.06441 0,-0.97999 0.12447,-1.70275 0.37362,-2.16783 0.24915,-0.46508 0.63128,-0.86359 1.14619,-1.19579 0.23254,-0.149489 0.3903,-0.290867 0.47335,-0.423746 0.083,-0.132879 0.12454,-0.298841 0.12454,-0.49816 v -0.298691 c 0,-0.199318 -0.0415,-0.365797 -0.12454,-0.498676 -0.0831,-0.132882 -0.24081,-0.273743 -0.47335,-0.42323 -0.51491,-0.3322 -0.89704,-0.731232 -1.14619,-1.196311 -0.24915,-0.465079 -0.37362,-1.187323 -0.37362,-2.167308 0,-1.146087 -0.0332,-2.159283 -0.0997,-3.03961 -0.0665,-0.896935 -0.24114,-1.652992 -0.52349,-2.267561 -0.28237,-0.614566 -0.69727,-1.079675 -1.2454,-1.395264 -0.53353,-0.313838 -1.25232,-0.479264 -2.15645,-0.49661 -0.0529,-0.001 -0.10656,-0.0015 -0.16072,-0.0015 h -0.12454 c -0.0527,0 -25.004185,0.0048 -33.277549,0.0124 -0.04464,-0.0074 -0.09213,-0.0124 -0.14418,-0.0124 z m 2.907832,1.434539 c 8.255061,0.0067 33.23503,0.01085 33.28427,0.01085 h 0.12454 c 0.088,0 0.17304,0.0021 0.2558,0.0067 0.52669,0.02924 0.9482,0.151588 1.26401,0.366903 0.3488,0.23254 0.61465,0.605954 0.79736,1.120862 0.16609,0.498298 0.26547,1.146273 0.29869,1.94355 0.0332,0.780669 0.0501,1.727272 0.0501,2.840138 0,0.979988 0.14905,1.785729 0.44803,2.416905 0.29898,0.614569 0.7728,1.112973 1.42059,1.494999 -0.64779,0.38203 -1.12161,0.888627 -1.42059,1.519807 -0.29898,0.614574 -0.44803,1.411594 -0.44803,2.391584 0,1.11287 -0.0169,2.06817 -0.0501,2.86546 -0.0332,0.79727 -0.13258,1.44525 -0.29869,1.94355 -0.18271,0.51491 -0.44856,0.88832 -0.79736,1.12086 -0.36543,0.24915 -0.87202,0.37362 -1.51981,0.37362 H 85.212884 84.76795 84.559178 c -0.647787,0 -1.154385,-0.12447 -1.519803,-0.37362 -0.348809,-0.23254 -0.614659,-0.60595 -0.797367,-1.12086 -0.1661,-0.4983 -0.26547,-1.14628 -0.298691,-1.94355 -0.03322,-0.79729 -0.05012,-1.75259 -0.05012,-2.86546 0,-0.97999 -0.149575,-1.77701 -0.448551,-2.391584 -0.298979,-0.63118 -0.772282,-1.137777 -1.420069,-1.519807 0.647787,-0.382026 1.12109,-0.88043 1.420069,-1.494999 0.298976,-0.631176 0.448551,-1.436917 0.448551,-2.416905 0,-1.112866 0.01691,-2.059469 0.05012,-2.840138 0.03322,-0.797277 0.132591,-1.445252 0.298691,-1.94355 0.182708,-0.514908 0.448558,-0.888322 0.797367,-1.120862 0.365418,-0.249148 0.872016,-0.373621 1.519803,-0.373621 h 2.770373 c 0.04929,0 0.09482,-0.0042 0.137459,-0.01085 z"
           style="font-style:normal;font-variant:normal;font-weight:300;font-stretch:normal;font-size:24.91493034px;line-height:1.25;font-family:Rubik;-inkscape-font-specification:'Rubik, Light';font-variant-ligatures:normal;font-variant-caps:normal;font-variant-numeric:normal;font-feature-settings:normal;text-align:start;letter-spacing:0px;word-spacing:0px;writing-mode:lr-tb;text-anchor:start;fill:#ffdd55;fill-opacity:1;stroke:none;stroke-width:0.26458332" />
        <g
           style="stroke-width:1.180004"
           transform="matrix(0.84745471,0,0,0.84745471,15.893289,15.368298)"
           id="g2134">
          <text
             id="text2126"
             y="96.84581"
             x="81.590752"
             style="font-style:normal;font-weight:normal;font-size:10.38007641px;line-height:1.25;font-family:sans-serif;letter-spacing:0px;word-spacing:0px;opacity:1;vector-effect:none;fill:#241c1c;fill-opacity:1;stroke:none;stroke-width:0.3122094px;stroke-linecap:butt;stroke-linejoin:miter;stroke-miterlimit:4;stroke-dasharray:none;stroke-dashoffset:0;stroke-opacity:1"
             xml:space="preserve"><tspan
               style="font-style:normal;font-variant:normal;font-weight:500;font-stretch:normal;font-size:10.37998486px;font-family:Rubik;-inkscape-font-specification:'Rubik, Medium';font-variant-ligatures:normal;font-variant-caps:normal;font-variant-numeric:normal;font-feature-settings:normal;text-align:start;letter-spacing:-0.52227217px;writing-mode:lr-tb;text-anchor:start;vector-effect:none;fill:#241c1c;fill-opacity:1;stroke:none;stroke-width:0.3122094px;stroke-linecap:butt;stroke-linejoin:miter;stroke-miterlimit:4;stroke-dasharray:none;stroke-dashoffset:0;stroke-opacity:1"
               y="96.84581"
               x="81.590752"
               id="tspan2124"
               sodipodi:role="line">SUMMER</tspan></text>
          <g
             id="g2132"
             transform="matrix(0.7496285,0,0,0.7496285,21.657643,25.025763)"
             style="fill:#241c1c;stroke-width:1.57411849">
            <text
               id="text2130"
               y="108.62351"
               x="79.700806"
               style="font-style:normal;font-weight:normal;font-size:14.09076214px;line-height:1.25;font-family:sans-serif;letter-spacing:0px;word-spacing:0px;opacity:1;vector-effect:none;fill:#241c1c;fill-opacity:1;stroke:none;stroke-width:0.41648549px;stroke-linecap:butt;stroke-linejoin:miter;stroke-miterlimit:4;stroke-dasharray:none;stroke-dashoffset:0;stroke-opacity:1"
               xml:space="preserve"><tspan
                 style="font-style:normal;font-variant:normal;font-weight:500;font-stretch:normal;font-size:14.09065056px;font-family:Rubik;-inkscape-font-specification:'Rubik, Medium';font-variant-ligatures:normal;font-variant-caps:normal;font-variant-numeric:normal;font-feature-settings:normal;text-align:start;letter-spacing:-0.5291667px;writing-mode:lr-tb;text-anchor:start;vector-effect:none;fill:#241c1c;fill-opacity:1;stroke:none;stroke-width:0.41648549px;stroke-linecap:butt;stroke-linejoin:miter;stroke-miterlimit:4;stroke-dasharray:none;stroke-dashoffset:0;stroke-opacity:1"
                 y="108.62351"
                 x="79.700806"
                 id="tspan2128"
                 sodipodi:role="line">OF CODE</tspan></text>
          </g>
        </g>
        <g
           transform="translate(-0.03002958)"
           id="g2144">
          <text
             transform="scale(-1,1)"
             xml:space="preserve"
             style="font-style:normal;font-variant:normal;font-weight:normal;font-stretch:normal;font-size:24.91479111px;line-height:1.25;font-family:Rubik;-inkscape-font-specification:'Rubik, Normal';font-variant-ligatures:normal;font-variant-caps:normal;font-variant-numeric:normal;font-feature-settings:normal;text-align:start;letter-spacing:0px;word-spacing:0px;writing-mode:lr-tb;text-anchor:start;opacity:1;vector-effect:none;fill:#ffaa4a;fill-opacity:1;stroke:none;stroke-width:3.96875;stroke-linecap:butt;stroke-linejoin:miter;stroke-miterlimit:4;stroke-dasharray:none;stroke-dashoffset:0;stroke-opacity:1;paint-order:normal"
             x="-128.13112"
             y="106.10451"
             id="text2138"><tspan
               sodipodi:role="line"
               id="tspan2136"
               x="-128.13112"
               y="106.10451"
               style="font-style:normal;font-variant:normal;font-weight:300;font-stretch:normal;font-size:24.91493034px;font-family:Rubik;-inkscape-font-specification:'Rubik, Light';font-variant-ligatures:normal;font-variant-caps:normal;font-variant-numeric:normal;font-feature-settings:normal;text-align:start;writing-mode:lr-tb;text-anchor:start;vector-effect:none;fill:#ffaa4a;fill-opacity:1;stroke:none;stroke-width:3.96875;stroke-linecap:butt;stroke-linejoin:miter;stroke-miterlimit:4;stroke-dasharray:none;stroke-dashoffset:0;stroke-opacity:1;paint-order:normal">{</tspan></text>
          <text
             id="text2142"
             y="106.10451"
             x="77.363937"
             style="font-style:normal;font-variant:normal;font-weight:normal;font-stretch:normal;font-size:24.91479111px;line-height:1.25;font-family:Rubik;-inkscape-font-specification:'Rubik, Normal';font-variant-ligatures:normal;font-variant-caps:normal;font-variant-numeric:normal;font-feature-settings:normal;text-align:start;letter-spacing:0px;word-spacing:0px;writing-mode:lr-tb;text-anchor:start;opacity:1;vector-effect:none;fill:#ffaa4a;fill-opacity:1;stroke:none;stroke-width:3.96875;stroke-linecap:butt;stroke-linejoin:miter;stroke-miterlimit:4;stroke-dasharray:none;stroke-dashoffset:0;stroke-opacity:1;paint-order:normal"
             xml:space="preserve"><tspan
               style="font-style:normal;font-variant:normal;font-weight:300;font-stretch:normal;font-size:24.91493034px;font-family:Rubik;-inkscape-font-specification:'Rubik, Light';font-variant-ligatures:normal;font-variant-caps:normal;font-variant-numeric:normal;font-feature-settings:normal;text-align:start;writing-mode:lr-tb;text-anchor:start;vector-effect:none;fill:#ffaa4a;fill-opacity:1;stroke:none;stroke-width:3.96875;stroke-linecap:butt;stroke-linejoin:miter;stroke-miterlimit:4;stroke-dasharray:none;stroke-dashoffset:0;stroke-opacity:1;paint-order:normal"
               y="106.10451"
               x="77.363937"
               id="tspan2140"
               sodipodi:role="line">{</tspan></text>
        </g>
        <g
           transform="translate(0.3067623,-0.94192694)"
           id="g2170">
          <text
             id="text2148"
             y="84.651344"
             x="90.843719"
             style="font-style:normal;font-weight:normal;font-size:7.41892433px;line-height:1.25;font-family:sans-serif;letter-spacing:0px;word-spacing:0px;opacity:1;vector-effect:none;fill:#241c1c;fill-opacity:1;stroke:none;stroke-width:0.26458332px;stroke-linecap:butt;stroke-linejoin:miter;stroke-miterlimit:4;stroke-dasharray:none;stroke-dashoffset:0;stroke-opacity:1"
             xml:space="preserve"><tspan
               style="font-style:normal;font-variant:normal;font-weight:500;font-stretch:normal;font-size:7.41886663px;font-family:Rubik;-inkscape-font-specification:'Rubik, Medium';font-variant-ligatures:normal;font-variant-caps:normal;font-variant-numeric:normal;font-feature-settings:normal;text-align:start;letter-spacing:-0.27861148px;writing-mode:lr-tb;text-anchor:start;vector-effect:none;fill:#241c1c;fill-opacity:1;stroke:none;stroke-width:0.26458332px;stroke-linecap:butt;stroke-linejoin:miter;stroke-miterlimit:4;stroke-dasharray:none;stroke-dashoffset:0;stroke-opacity:1"
               y="84.651344"
               x="90.843719"
               id="tspan2146"
               sodipodi:role="line">ERPNext</tspan></text>
          <g
             id="g2168"
             transform="matrix(0.06117776,0,0,0.06117776,-16.269516,44.552161)"
             inkscape:export-filename="/home/raghu/Desktop/logos-02.png"
             inkscape:export-xdpi="23.536129"
             inkscape:export-ydpi="23.536129"
             style="stroke-width:16.34580803">
            <g
               id="g2158"
               transform="matrix(0.9999989,0,0,0.99999981,279.19167,438.7826)"
               style="stroke-width:16.34581947">
              <g
                 transform="translate(-25.731002,-0.1322636)"
                 id="g2154"
                 style="stroke-width:16.34581947">
                <g
                   id="g2152"
                   transform="translate(-95.250002)"
                   style="stroke-width:16.34581947">
                  <path
                     inkscape:connector-curvature="0"
                     id="path2150"
                     d="m 1501.1846,130.70348 h 60.8542 c 7.329,0 13.2292,5.9002 13.2292,13.22916 v 60.85419 c 0,7.32896 -5.9002,13.22917 -13.2292,13.22917 h -60.8542 c -7.3289,0 -13.2292,-5.90021 -13.2292,-13.22917 v -60.85419 c 0,-7.32896 5.9003,-13.22916 13.2292,-13.22916 z"
                     style="opacity:1;vector-effect:none;fill:#7574ff;fill-opacity:1;stroke:none;stroke-width:64.87247467;stroke-linecap:butt;stroke-linejoin:miter;stroke-miterlimit:4;stroke-dasharray:none;stroke-dashoffset:0;stroke-opacity:1;paint-order:normal" />
                </g>
              </g>
              <g
                 style="stroke-width:16.13370895"
                 transform="matrix(1.0131472,0,0,1.0131472,-144.01349,-2.2905938)"
                 id="g2156" />
            </g>
            <circle
               style="opacity:1;vector-effect:none;fill:#6564f9;fill-opacity:1;stroke:none;stroke-width:64.87242889;stroke-linecap:butt;stroke-linejoin:miter;stroke-miterlimit:4;stroke-dasharray:none;stroke-dashoffset:0;stroke-opacity:1;paint-order:normal"
               id="circle2160"
               cx="1689.8009"
               cy="738.84955"
               r="109.16828"
               clip-path="url(#clipPath1252-9-3)" />
            <g
               id="g2162"
               transform="translate(2.8144523,0.84784259)"
               style="fill:#4a15c6;fill-opacity:1;stroke-width:16.34580803" />
            <g
               transform="translate(3.8727857,-0.32524952)"
               id="g2166"
               style="stroke-width:16.34580803">
              <path
                 sodipodi:nodetypes="sccccsccssssssccssssccsssss"
                 inkscape:connector-curvature="0"
                 id="path2164"
                 transform="matrix(0.26458334,0,0,0.26458334,682.80626,339.68051)"
                 d="m 3738.9473,951.78516 c -1.0388,0 -2.0511,0.10552 -3.0293,0.30468 -0.9783,0.19916 -1.9225,0.49258 -2.8203,0.8711 -0.449,0.18926 -0.8854,0.40047 -1.3106,0.63086 -0.8503,0.46076 -1.6504,1.00091 -2.3906,1.61132 -3.3312,2.74687 -5.4492,6.90766 -5.4492,11.58204 v 0.91406 133.17378 0.9122 c 0,8.31 6.69,15 15,15 h 104.9082 c 8.31,0 15,-6.69 15,-15 v -0.9122 c 0,-8.31 -6.69,-15 -15,-15 h -88.9942 v -37.3613 h 66.1699 c 8.31,0 15,-6.69 15,-15 v -0.9121 c 0,-8.31 -6.69,-15 -15,-15 h -66.1699 v -34.90038 h 88.9942 c 8.31,0 15,-6.69 15,-15 v -0.91406 c 0,-8.31 -6.69,-15 -15,-15 z"
                 style="opacity:1;vector-effect:none;fill:#ffffff;fill-opacity:1;stroke:none;stroke-width:245.18714905;stroke-linecap:butt;stroke-linejoin:miter;stroke-miterlimit:4;stroke-dasharray:none;stroke-dashoffset:0;stroke-opacity:1;paint-order:normal" />
            </g>
          </g>
        </g>
      </g>
    </g>
    <g
       id="g2372"
       transform="translate(0,24.714748)"
       inkscape:export-filename="/home/raghu/Desktop/esoc-logo-short.png"
       inkscape:export-xdpi="410.86884"
       inkscape:export-ydpi="410.86884">
      <rect
         style="opacity:1;vector-effect:none;fill:#ffffff;fill-opacity:1;stroke:none;stroke-width:0.26458329px;stroke-linecap:butt;stroke-linejoin:miter;stroke-miterlimit:4;stroke-dasharray:none;stroke-dashoffset:0;stroke-opacity:1;paint-order:normal"
         id="rect2317"
         width="61.780209"
         height="34.899075"
         x="-89.667381"
         y="48.267868" />
      <g
         id="g2287"
         transform="translate(-222.43492,-32.700874)">
        <g
           id="g2285">
          <path
             sodipodi:nodetypes="ccsscssccsscssc"
             inkscape:connector-curvature="0"
             id="path2245"
             d="m 142.98443,87.22143 41.0153,-0.187204 c 0,0 2.26589,0.845963 2.88207,1.795386 1.43684,2.213919 0.008,5.434029 1.08668,7.843006 0.30969,0.69185 1.47204,1.733259 1.47204,1.733259 0,0 -1.14837,1.936363 -1.51928,2.991443 -0.81644,2.32241 0.18697,5.44724 -1.51191,7.22879 -0.90947,0.95372 -3.40178,1.08669 -3.82701,0.99219 -0.42522,-0.0945 -41.10703,-0.22788 -41.10703,-0.22788 0,0 -1.16538,-1.37911 -1.36804,-2.13447 -0.60631,-2.25991 0.32429,-4.84919 -0.61421,-6.99256 -0.37563,-0.85787 -1.88988,-2.078868 -1.88988,-2.078868 0,0 1.54121,-1.027983 1.84263,-1.842633 0.95593,-2.583561 0.73335,-7.339496 1.22842,-8.031996 0.74135,-1.036994 1.52932,-0.983327 2.31022,-1.088463 z"
             style="fill:#fff9a7;fill-opacity:1;stroke:none;stroke-width:0.26458332px;stroke-linecap:butt;stroke-linejoin:miter;stroke-opacity:1" />
          <path
             id="path2247"
             d="m 143.11807,86.770413 c -0.97999,0 -1.75244,0.165962 -2.31717,0.49816 -0.54813,0.315589 -0.96304,0.780698 -1.24541,1.395264 -0.28237,0.614569 -0.45704,1.370626 -0.52348,2.267561 -0.0664,0.880327 -0.0997,1.893523 -0.0997,3.03961 0,0.979985 -0.12448,1.702229 -0.37362,2.167308 -0.24915,0.465079 -0.63128,0.864111 -1.14619,1.196311 -0.23254,0.149487 -0.3903,0.290348 -0.47336,0.42323 -0.083,0.132879 -0.12453,0.299358 -0.12453,0.498676 v 0.298691 c 0,0.199319 0.0415,0.365281 0.12453,0.49816 0.0831,0.132879 0.24082,0.274257 0.47336,0.423746 0.51491,0.3322 0.89704,0.73071 1.14619,1.19579 0.24914,0.46508 0.37362,1.18784 0.37362,2.16783 0,1.14609 0.0333,2.16747 0.0997,3.06441 0.0664,0.88033 0.24111,1.62767 0.52348,2.24224 0.28237,0.63118 0.69728,1.10448 1.24541,1.42007 0.56473,0.3322 1.33718,0.49868 2.31717,0.49868 h 0.20877 0.44493 40.42544 c 0.97999,0 1.75243,-0.16648 2.31717,-0.49868 0.54813,-0.31559 0.96303,-0.78889 1.24541,-1.42007 0.28236,-0.61457 0.45704,-1.36191 0.52348,-2.24224 0.0665,-0.89694 0.0997,-1.91832 0.0997,-3.06441 0,-0.97999 0.12447,-1.70275 0.37363,-2.16783 0.24915,-0.46508 0.63127,-0.86359 1.14618,-1.19579 0.23254,-0.149489 0.3903,-0.290867 0.47335,-0.423746 0.083,-0.132879 0.12454,-0.298841 0.12454,-0.49816 v -0.298691 c 0,-0.199318 -0.0415,-0.365797 -0.12454,-0.498676 -0.0831,-0.132882 -0.24081,-0.273743 -0.47335,-0.42323 -0.51491,-0.3322 -0.89703,-0.731232 -1.14618,-1.196311 -0.24916,-0.465079 -0.37363,-1.187323 -0.37363,-2.167308 0,-1.146087 -0.0332,-2.159283 -0.0997,-3.03961 -0.0665,-0.896935 -0.24113,-1.652992 -0.52348,-2.267561 -0.28238,-0.614566 -0.69728,-1.079675 -1.24541,-1.395264 -0.53353,-0.313838 -1.25231,-0.479264 -2.15645,-0.49661 -0.0529,-0.001 -0.10656,-0.0015 -0.16072,-0.0015 h -0.12454 c -0.0527,0 -27.12085,0.0048 -35.39422,0.0124 -0.0446,-0.0074 -0.0921,-0.0124 -0.14418,-0.0124 z m 5.55366,1.434539 c 8.25506,0.0067 35.3517,0.01085 35.40094,0.01085 h 0.12454 c 0.088,0 0.17304,0.0021 0.2558,0.0067 0.52669,0.02924 0.94821,0.151588 1.26401,0.366903 0.34881,0.23254 0.61465,0.605954 0.79736,1.120862 0.16609,0.498298 0.26547,1.146273 0.29869,1.94355 0.0332,0.780669 0.0501,1.727272 0.0501,2.840138 0,0.979988 0.14905,1.785729 0.44804,2.416905 0.29897,0.614569 0.77279,1.112973 1.42058,1.494999 -0.64779,0.38203 -1.12161,0.888627 -1.42058,1.519807 -0.29899,0.614574 -0.44804,1.411594 -0.44804,2.391584 0,1.11287 -0.0169,2.06817 -0.0501,2.86546 -0.0332,0.79727 -0.13257,1.44525 -0.29869,1.94355 -0.18271,0.51491 -0.44855,0.88832 -0.79736,1.12086 -0.36542,0.24915 -0.87202,0.37362 -1.51981,0.37362 h -40.42544 -0.44493 -0.20877 c -0.64779,0 -1.15439,-0.12447 -1.51981,-0.37362 -0.3488,-0.23254 -0.61466,-0.60595 -0.79736,-1.12086 -0.1661,-0.4983 -0.26547,-1.14628 -0.29869,-1.94355 -0.0332,-0.79729 -0.0501,-1.75259 -0.0501,-2.86546 0,-0.97999 -0.14957,-1.77701 -0.44855,-2.391584 -0.29898,-0.63118 -0.77228,-1.137777 -1.42007,-1.519807 0.64779,-0.382026 1.12109,-0.88043 1.42007,-1.494999 0.29898,-0.631176 0.44855,-1.436917 0.44855,-2.416905 0,-1.112866 0.0169,-2.059469 0.0501,-2.840138 0.0332,-0.797277 0.13259,-1.445252 0.29869,-1.94355 0.1827,-0.514908 0.44856,-0.888322 0.79736,-1.120862 0.36542,-0.249148 0.87202,-0.373621 1.51981,-0.373621 h 5.4162 c 0.0493,0 0.0948,-0.0042 0.13746,-0.01085 z"
             style="font-style:normal;font-variant:normal;font-weight:300;font-stretch:normal;font-size:24.91493034px;line-height:1.25;font-family:Rubik;-inkscape-font-specification:'Rubik, Light';font-variant-ligatures:normal;font-variant-caps:normal;font-variant-numeric:normal;font-feature-settings:normal;text-align:start;letter-spacing:0px;word-spacing:0px;writing-mode:lr-tb;text-anchor:start;fill:#ffdd55;fill-opacity:1;stroke:none;stroke-width:0.26458332"
             inkscape:connector-curvature="0" />
          <g
             transform="translate(61.174692)"
             id="g2257">
            <text
               transform="scale(-1,1)"
               xml:space="preserve"
               style="font-style:normal;font-variant:normal;font-weight:normal;font-stretch:normal;font-size:24.91479111px;line-height:1.25;font-family:Rubik;-inkscape-font-specification:'Rubik, Normal';font-variant-ligatures:normal;font-variant-caps:normal;font-variant-numeric:normal;font-feature-settings:normal;text-align:start;letter-spacing:0px;word-spacing:0px;writing-mode:lr-tb;text-anchor:start;opacity:1;vector-effect:none;fill:#ffaa4a;fill-opacity:1;stroke:none;stroke-width:3.96875;stroke-linecap:butt;stroke-linejoin:miter;stroke-miterlimit:4;stroke-dasharray:none;stroke-dashoffset:0;stroke-opacity:1;paint-order:normal"
               x="-130.24776"
               y="106.10451"
               id="text2251"><tspan
                 sodipodi:role="line"
                 id="tspan2249"
                 x="-130.24776"
                 y="106.10451"
                 style="font-style:normal;font-variant:normal;font-weight:300;font-stretch:normal;font-size:24.91493034px;font-family:Rubik;-inkscape-font-specification:'Rubik, Light';font-variant-ligatures:normal;font-variant-caps:normal;font-variant-numeric:normal;font-feature-settings:normal;text-align:start;writing-mode:lr-tb;text-anchor:start;vector-effect:none;fill:#ffaa4a;fill-opacity:1;stroke:none;stroke-width:3.96875;stroke-linecap:butt;stroke-linejoin:miter;stroke-miterlimit:4;stroke-dasharray:none;stroke-dashoffset:0;stroke-opacity:1;paint-order:normal">{</tspan></text>
            <text
               id="text2255"
               y="106.10451"
               x="74.718102"
               style="font-style:normal;font-variant:normal;font-weight:normal;font-stretch:normal;font-size:24.91479111px;line-height:1.25;font-family:Rubik;-inkscape-font-specification:'Rubik, Normal';font-variant-ligatures:normal;font-variant-caps:normal;font-variant-numeric:normal;font-feature-settings:normal;text-align:start;letter-spacing:0px;word-spacing:0px;writing-mode:lr-tb;text-anchor:start;opacity:1;vector-effect:none;fill:#ffaa4a;fill-opacity:1;stroke:none;stroke-width:3.96875;stroke-linecap:butt;stroke-linejoin:miter;stroke-miterlimit:4;stroke-dasharray:none;stroke-dashoffset:0;stroke-opacity:1;paint-order:normal"
               xml:space="preserve"><tspan
                 style="font-style:normal;font-variant:normal;font-weight:300;font-stretch:normal;font-size:24.91493034px;font-family:Rubik;-inkscape-font-specification:'Rubik, Light';font-variant-ligatures:normal;font-variant-caps:normal;font-variant-numeric:normal;font-feature-settings:normal;text-align:start;writing-mode:lr-tb;text-anchor:start;vector-effect:none;fill:#ffaa4a;fill-opacity:1;stroke:none;stroke-width:3.96875;stroke-linecap:butt;stroke-linejoin:miter;stroke-miterlimit:4;stroke-dasharray:none;stroke-dashoffset:0;stroke-opacity:1;paint-order:normal"
                 y="106.10451"
                 x="74.718102"
                 id="tspan2253"
                 sodipodi:role="line">{</tspan></text>
          </g>
          <g
             id="g2283"
             transform="matrix(1.0441712,0,0,1.0441712,-8.0112938,-4.3437545)"
             style="stroke-width:0.95769739">
            <text
               id="text2261"
               y="102.45967"
               x="154.62593"
               style="font-style:normal;font-weight:normal;font-size:11.77332211px;line-height:1.25;font-family:sans-serif;letter-spacing:0px;word-spacing:0px;fill:#000000;fill-opacity:1;stroke:none;stroke-width:0.25339076"
               xml:space="preserve"><tspan
                 style="font-style:normal;font-variant:normal;font-weight:500;font-stretch:normal;font-size:11.77321911px;font-family:Rubik;-inkscape-font-specification:'Rubik, Medium';font-variant-ligatures:normal;font-variant-caps:normal;font-variant-numeric:normal;font-feature-settings:normal;text-align:start;letter-spacing:-0.59237313px;writing-mode:lr-tb;text-anchor:start;stroke-width:0.25339076"
                 y="102.45967"
                 x="154.62593"
                 id="tspan2259"
                 sodipodi:role="line">ESOC</tspan></text>
            <g
               id="g2281"
               transform="matrix(0.09708479,0,0,0.09708479,-14.794142,38.82509)"
               inkscape:export-filename="/home/raghu/Desktop/logos-02.png"
               inkscape:export-xdpi="23.536129"
               inkscape:export-ydpi="23.536129"
               style="stroke-width:9.86454582">
              <g
                 id="g2271"
                 transform="matrix(0.9999989,0,0,0.99999981,279.19167,438.7826)"
                 style="stroke-width:9.86455154">
                <g
                   transform="translate(-25.731002,-0.1322636)"
                   id="g2267"
                   style="stroke-width:9.86455154">
                  <g
                     id="g2265"
                     transform="translate(-95.250002)"
                     style="stroke-width:9.86455154">
                    <path
                       inkscape:connector-curvature="0"
                       id="path2263"
                       d="m 1501.1846,130.70348 h 60.8542 c 7.329,0 13.2292,5.9002 13.2292,13.22916 v 60.85419 c 0,7.32896 -5.9002,13.22917 -13.2292,13.22917 h -60.8542 c -7.3289,0 -13.2292,-5.90021 -13.2292,-13.22917 v -60.85419 c 0,-7.32896 5.9003,-13.22916 13.2292,-13.22916 z"
                       style="opacity:1;vector-effect:none;fill:#7574ff;fill-opacity:1;stroke:none;stroke-width:39.14994431;stroke-linecap:butt;stroke-linejoin:miter;stroke-miterlimit:4;stroke-dasharray:none;stroke-dashoffset:0;stroke-opacity:1;paint-order:normal" />
                  </g>
                </g>
                <g
                   style="stroke-width:9.73654461"
                   transform="matrix(1.0131472,0,0,1.0131472,-144.01349,-2.2905938)"
                   id="g2269" />
              </g>
              <circle
                 style="opacity:1;vector-effect:none;fill:#6564f9;fill-opacity:1;stroke:none;stroke-width:39.14991379;stroke-linecap:butt;stroke-linejoin:miter;stroke-miterlimit:4;stroke-dasharray:none;stroke-dashoffset:0;stroke-opacity:1;paint-order:normal"
                 id="circle2273"
                 cx="1689.8009"
                 cy="738.84955"
                 r="109.16828"
                 clip-path="url(#clipPath1252-9-3-8)" />
              <g
                 id="g2275"
                 transform="translate(2.8144523,0.84784259)"
                 style="fill:#4a15c6;fill-opacity:1;stroke-width:9.86454582" />
              <g
                 transform="translate(3.8727857,-0.32524952)"
                 id="g2279"
                 style="stroke-width:9.86454582">
                <path
                   sodipodi:nodetypes="sccccsccssssssccssssccsssss"
                   inkscape:connector-curvature="0"
                   id="path2277"
                   transform="matrix(0.26458334,0,0,0.26458334,682.80626,339.68051)"
                   d="m 3738.9473,951.78516 c -1.0388,0 -2.0511,0.10552 -3.0293,0.30468 -0.9783,0.19916 -1.9225,0.49258 -2.8203,0.8711 -0.449,0.18926 -0.8854,0.40047 -1.3106,0.63086 -0.8503,0.46076 -1.6504,1.00091 -2.3906,1.61132 -3.3312,2.74687 -5.4492,6.90766 -5.4492,11.58204 v 0.91406 133.17378 0.9122 c 0,8.31 6.69,15 15,15 h 104.9082 c 8.31,0 15,-6.69 15,-15 v -0.9122 c 0,-8.31 -6.69,-15 -15,-15 h -88.9942 v -37.3613 h 66.1699 c 8.31,0 15,-6.69 15,-15 v -0.9121 c 0,-8.31 -6.69,-15 -15,-15 h -66.1699 v -34.90038 h 88.9942 c 8.31,0 15,-6.69 15,-15 v -0.91406 c 0,-8.31 -6.69,-15 -15,-15 z"
                   style="opacity:1;vector-effect:none;fill:#ffffff;fill-opacity:1;stroke:none;stroke-width:147.96820068;stroke-linecap:butt;stroke-linejoin:miter;stroke-miterlimit:4;stroke-dasharray:none;stroke-dashoffset:0;stroke-opacity:1;paint-order:normal" />
              </g>
            </g>
          </g>
        </g>
      </g>
    </g>
  </g>
</svg>
