<?xml version="1.0" encoding="UTF-8" standalone="no"?>
<svg
   xmlns:dc="http://purl.org/dc/elements/1.1/"
   xmlns:cc="http://creativecommons.org/ns#"
   xmlns:rdf="http://www.w3.org/1999/02/22-rdf-syntax-ns#"
   xmlns:svg="http://www.w3.org/2000/svg"
   xmlns="http://www.w3.org/2000/svg"
   xml:space="preserve"
   enable-background="new 0 0 630 542"
   viewBox="0 0 630 542"
   height="542px"
   width="630px"
   y="0px"
   x="0px"
   id="Layer_1"
   version="1.1"><metadata
     id="metadata141"><rdf:RDF><cc:Work
         rdf:about=""><dc:format>image/svg+xml</dc:format><dc:type
           rdf:resource="http://purl.org/dc/dcmitype/StillImage" /><dc:title></dc:title></cc:Work></rdf:RDF></metadata><defs
     id="defs139" /><g
     id="g3"><g
       id="g5"><path
         id="path7"
         d="M609.831,191.639c47.931,179.446-44.097,266.827-230.704,316.987    C192.517,558.785,69.266,529.27,21.335,349.825C-26.596,170.382,65.434,83,252.042,32.842    C438.65-17.317,561.9,12.196,609.831,191.639z"
         fill="#ACF1DE" /></g></g><g
     id="g9"><rect
       id="rect11"
       height="520"
       width="520"
       fill="#3B7CFF"
       y="10.989"
       x="54.059" /></g><g
     id="g13"><rect
       id="rect15"
       height="520"
       width="25.162"
       fill="#1C5DC6"
       y="10.989"
       x="548.896" /></g><g
     id="g17"><rect
       id="rect19"
       height="24.322"
       width="520"
       fill="#1C5DC6"
       y="506.667"
       x="54.058" /></g><g
     id="g21"
     opacity="0.6"><g
       id="g23"><path
         id="path25"
         d="M213.413,510.828c-2.761,0-5-2.238-5-5V36.15c0-2.761,2.239-5,5-5s5,2.239,5,5v469.678    C218.413,508.59,216.174,510.828,213.413,510.828z"
         fill="#52A1FF" /></g><g
       id="g27"><path
         id="path29"
         d="M146.316,510.828c-2.761,0-5-2.238-5-5V36.15c0-2.761,2.239-5,5-5s5,2.239,5,5v469.678    C151.316,508.59,149.077,510.828,146.316,510.828z"
         fill="#52A1FF" /></g><g
       id="g31"><path
         id="path33"
         d="M280.511,510.828c-2.761,0-5-2.238-5-5V36.15c0-2.761,2.239-5,5-5s5,2.239,5,5v469.678    C285.511,508.59,283.272,510.828,280.511,510.828z"
         fill="#52A1FF" /></g><g
       id="g35"><path
         id="path37"
         d="M414.704,510.828c-2.762,0-5-2.238-5-5V36.15c0-2.761,2.238-5,5-5s5,2.239,5,5v469.678    C419.704,508.59,417.466,510.828,414.704,510.828z"
         fill="#52A1FF" /></g><g
       id="g39"><path
         id="path41"
         d="M347.606,510.828c-2.762,0-5-2.238-5-5V36.15c0-2.761,2.238-5,5-5s5,2.239,5,5v469.678    C352.606,508.59,350.368,510.828,347.606,510.828z"
         fill="#52A1FF" /></g><g
       id="g43"><path
         id="path45"
         d="M481.801,510.828c-2.762,0-5-2.238-5-5V36.15c0-2.761,2.238-5,5-5s5,2.239,5,5v469.678    C486.801,508.59,484.562,510.828,481.801,510.828z"
         fill="#52A1FF" /></g></g><g
     id="g47"><g
       id="g49"><path
         id="path51"
         d="M548.896,376.635H79.219c-2.761,0-5-2.238-5-5s2.239-5,5-5h469.678c2.762,0,5,2.238,5,5    S551.658,376.635,548.896,376.635z"
         fill="#52A1FF" /></g><g
       id="g53"><path
         id="path55"
         d="M548.896,443.731H79.219c-2.761,0-5-2.238-5-5s2.239-5,5-5h469.678c2.762,0,5,2.238,5,5    S551.658,443.731,548.896,443.731z"
         fill="#52A1FF" /></g><g
       id="g57"><path
         id="path59"
         d="M548.896,309.538H79.219c-2.761,0-5-2.238-5-5s2.239-5,5-5h469.678c2.762,0,5,2.238,5,5    S551.658,309.538,548.896,309.538z"
         fill="#52A1FF" /></g><g
       id="g61"><path
         id="path63"
         d="M548.896,175.344H79.219c-2.761,0-5-2.239-5-5s2.239-5,5-5h469.678c2.762,0,5,2.239,5,5    S551.658,175.344,548.896,175.344z"
         fill="#52A1FF" /></g><g
       id="g65"><path
         id="path67"
         d="M548.896,242.44H79.219c-2.761,0-5-2.239-5-5s2.239-5,5-5h469.678c2.762,0,5,2.239,5,5    S551.658,242.44,548.896,242.44z"
         fill="#52A1FF" /></g><g
       id="g69"><path
         id="path71"
         d="M548.896,108.247H79.219c-2.761,0-5-2.239-5-5s2.239-5,5-5h469.678c2.762,0,5,2.239,5,5    S551.658,108.247,548.896,108.247z"
         fill="#52A1FF" /></g></g><g
     id="g73"><path
       id="path75"
       d="M574.059,535.989h-520c-2.762,0-5-2.238-5-5v-520c0-2.761,2.238-5,5-5h520c2.762,0,5,2.239,5,5v520   C579.059,533.751,576.82,535.989,574.059,535.989z M59.059,525.989h510v-510h-510V525.989z"
       fill="#213B4D" /></g><g
     id="g77"><g
       id="g79"><g
         id="g81"><path
           id="path83"
           d="M562.315,510.828H65.8c-2.761,0-5-2.238-5-5s2.239-5,5-5h496.516c2.762,0,5,2.238,5,5     S565.077,510.828,562.315,510.828z"
           fill="#C7F3FF" /></g><g
         id="g85"><path
           id="path87"
           d="M562.315,41.15H65.8c-2.761,0-5-2.239-5-5s2.239-5,5-5h496.516c2.762,0,5,2.239,5,5     S565.077,41.15,562.315,41.15z"
           fill="#C7F3FF" /></g><g
         id="g89"><path
           id="path91"
           d="M548.896,524.247c-2.762,0-5-2.238-5-5V22.731c0-2.761,2.238-5,5-5s5,2.239,5,5v496.516     C553.896,522.009,551.658,524.247,548.896,524.247z"
           fill="#C7F3FF" /></g><g
         id="g93"><path
           id="path95"
           d="M79.22,524.247c-2.761,0-5-2.238-5-5V22.731c0-2.761,2.239-5,5-5s5,2.239,5,5v496.516     C84.22,522.009,81.981,524.247,79.22,524.247z"
           fill="#C7F3FF" /></g></g><g
       id="g97"><path
         id="path99"
         d="M213.413,457.15c-2.761,0-5-2.238-5-5V89.828c0-2.761,2.239-5,5-5s5,2.239,5,5V452.15    C218.413,454.912,216.174,457.15,213.413,457.15z"
         fill="#C7F3FF" /></g><g
       id="g101"><path
         id="path103"
         d="M280.511,457.15c-2.761,0-5-2.238-5-5V291.119c0-2.762,2.239-5,5-5s5,2.238,5,5V452.15    C285.511,454.912,283.272,457.15,280.511,457.15z"
         fill="#C7F3FF" /></g><g
       id="g105"><path
         id="path107"
         d="M428.124,108.247h-228.13c-2.761,0-5-2.239-5-5s2.239-5,5-5h228.13c2.762,0,5,2.239,5,5    S430.886,108.247,428.124,108.247z"
         fill="#C7F3FF" /></g><g
       id="g109"><path
         id="path111"
         d="M428.124,175.344H267.091c-2.761,0-5-2.239-5-5s2.239-5,5-5h161.033c2.762,0,5,2.239,5,5    S430.886,175.344,428.124,175.344z"
         fill="#C7F3FF" /></g><g
       id="g113"><path
         id="path115"
         d="M428.124,242.44H267.091c-2.761,0-5-2.239-5-5s2.239-5,5-5h161.033c2.762,0,5,2.239,5,5    S430.886,242.44,428.124,242.44z"
         fill="#C7F3FF" /></g><g
       id="g117"><path
         id="path119"
         d="M428.124,309.538H267.091c-2.761,0-5-2.238-5-5s2.239-5,5-5h161.033c2.762,0,5,2.238,5,5    S430.886,309.538,428.124,309.538z"
         fill="#C7F3FF" /></g><g
       id="g121"><path
         id="path123"
         d="M414.704,322.957c-2.762,0-5-2.238-5-5v-93.935c0-2.761,2.238-5,5-5s5,2.239,5,5v93.935    C419.704,320.719,417.466,322.957,414.704,322.957z"
         fill="#C7F3FF" /></g><g
       id="g125"><path
         id="path127"
         d="M414.704,188.764c-2.762,0-5-2.239-5-5V89.828c0-2.761,2.238-5,5-5s5,2.239,5,5v93.936    C419.704,186.525,417.466,188.764,414.704,188.764z"
         fill="#C7F3FF" /></g><g
       id="g129"><path
         id="path131"
         d="M280.511,255.86c-2.761,0-5-2.239-5-5v-93.936c0-2.761,2.239-5,5-5s5,2.239,5,5v93.936    C285.511,253.621,283.272,255.86,280.511,255.86z"
         fill="#C7F3FF" /></g><g
       id="g133"><path
         id="path135"
         d="M293.929,443.731h-93.935c-2.761,0-5-2.238-5-5s2.239-5,5-5h93.935c2.761,0,5,2.238,5,5    S296.69,443.731,293.929,443.731z"
         fill="#C7F3FF" /></g></g></svg>