<?xml version="1.0" encoding="UTF-8" standalone="no"?>
<!DOCTYPE svg PUBLIC "-//W3C//DTD SVG 1.1//EN" "http://www.w3.org/Graphics/SVG/1.1/DTD/svg11.dtd">
<svg width="100%" height="100%" viewBox="0 0 280 151" version="1.1" xmlns="http://www.w3.org/2000/svg" xmlns:xlink="http://www.w3.org/1999/xlink" xml:space="preserve" xmlns:serif="http://www.serif.com/" style="fill-rule:evenodd;clip-rule:evenodd;stroke-linejoin:round;stroke-miterlimit:1.41421;">
    <g transform="matrix(1,0,0,1,-7291,-10)">
        <g id="Twitter-Meta" serif:id="Twitter Meta" transform="matrix(0.28,0,0,0.15,7291,10.5663)">
            <rect x="0" y="0" width="1000" height="1000" style="fill:none;"/>
            <clipPath id="_clip1">
                <rect x="0" y="0" width="1000" height="1000"/>
            </clipPath>
            <g clip-path="url(#_clip1)">
                <g transform="matrix(0.833333,0,0,1.48148,-4755,5.77529e-13)">
                    <rect x="5706" y="0" width="1200" height="675"/>
                </g>
                <g id="Logo" transform="matrix(3.15924,0,0,15.0953,-1136.72,-1460.32)">
                    <g id="path989" transform="matrix(1.14063,0,0,0.456251,-417.127,230.766)">
                        <path d="M710.876,-305.026L710.876,-262.1L745.101,-262.1L745.101,-305.026L710.876,-305.026ZM710.876,-231.162C710.102,-230.259 708.749,-229.357 706.815,-228.455C704.881,-227.681 702.432,-227.295 699.467,-227.295C696.502,-227.295 693.666,-227.81 690.959,-228.841C688.381,-229.873 686.061,-231.355 683.998,-233.289C681.936,-235.222 680.26,-237.543 678.971,-240.25C677.811,-242.957 677.231,-245.986 677.231,-249.338C677.231,-253.592 678.391,-256.75 680.711,-258.812C683.032,-261.004 685.674,-262.1 688.639,-262.1L690.186,-262.1L690.186,-305.026L672.789,-305.026C669.915,-305.189 669.485,-307.787 669.496,-308.424L669.496,-318.01C669.491,-318.848 670.245,-321.176 672.801,-321.268L778.785,-321.268C779.504,-321.317 781.944,-320.662 782.061,-317.94L782.061,-308.448C782.1,-307.684 781.565,-305.12 778.574,-305.026L765.984,-305.026L765.984,-201.702C765.945,-201.254 765.758,-198.406 762.482,-198.29L748.428,-198.29C746.373,-198.279 745.001,-200.133 745.101,-201.95L745.101,-245.664L710.876,-245.664L710.876,-231.162Z" style="fill:rgb(21,21,21);fill-rule:nonzero;"/>
                    </g>
                    <g id="path1609" transform="matrix(-1.14063,0,0,0.456251,-417.127,230.766)">
                        <path d="M-829.189,-232.531C-829.189,-224.3 -829.067,-217.236 -828.821,-211.339C-828.575,-205.442 -827.838,-200.651 -826.609,-196.966C-825.258,-193.157 -823.292,-190.393 -820.713,-188.673C-818.01,-186.83 -814.263,-185.909 -809.472,-185.909L-808.55,-185.909C-805.848,-185.909 -804.496,-184.558 -804.496,-181.855L-804.496,-179.275C-804.496,-176.572 -805.848,-175.221 -808.55,-175.221L-809.472,-175.221C-816.72,-175.221 -822.433,-176.449 -826.609,-178.906C-830.664,-181.241 -833.735,-184.742 -835.823,-189.41C-837.912,-193.956 -839.202,-199.484 -839.693,-205.995C-840.185,-212.629 -840.43,-220.185 -840.43,-228.661C-840.43,-235.91 -841.352,-241.254 -843.194,-244.694C-845.037,-248.134 -847.863,-251.082 -851.671,-253.539C-853.391,-254.645 -854.558,-255.689 -855.173,-256.672C-855.787,-257.655 -856.094,-258.883 -856.094,-260.357L-856.094,-262.569C-856.094,-264.043 -855.787,-265.271 -855.173,-266.254C-854.558,-267.237 -853.391,-268.281 -851.671,-269.387C-847.863,-271.844 -845.037,-274.792 -843.194,-278.232C-841.352,-281.672 -840.43,-287.016 -840.43,-294.264C-840.43,-302.741 -840.185,-310.235 -839.693,-316.746C-839.202,-323.38 -837.912,-328.97 -835.823,-333.516C-833.735,-338.061 -830.664,-341.501 -826.609,-343.835C-822.433,-346.292 -816.72,-347.521 -809.472,-347.521L-808.55,-347.521C-805.848,-347.521 -804.496,-346.169 -804.496,-343.467L-804.496,-340.887C-804.496,-338.184 -805.848,-336.833 -808.55,-336.833L-809.472,-336.833C-814.263,-336.833 -818.01,-335.911 -820.713,-334.068C-823.292,-332.348 -825.258,-329.584 -826.609,-325.776C-827.838,-322.09 -828.575,-317.299 -828.821,-311.402C-829.067,-305.628 -829.189,-298.626 -829.189,-290.395C-829.189,-283.146 -830.295,-277.188 -832.506,-272.52C-834.718,-267.974 -838.219,-264.289 -843.01,-261.463C-838.219,-258.637 -834.718,-254.89 -832.506,-250.222C-830.295,-245.676 -829.189,-239.78 -829.189,-232.531Z" style="fill:rgb(21,21,21);fill-rule:nonzero;"/>
                    </g>
                </g>
                <g transform="matrix(2.9926,0,0,4.54161,-2442.79,-10424.3)">
                    <text x="880.542px" y="2445.02px" style="font-family:'Rajdhani-Light', 'Rajdhani';font-weight:300;font-size:24.465px;fill:white;">1<tspan x="888.909px 901.631px 910.829px 923.869px 931.453px 944.371px 957.411px 970.329px 977.913px 986.28px 995.992px 1005.19px 1018.23px 1025.82px 1043.38px 1056.3px 1064.45px 1074.72px " y="2445.02px 2445.02px 2445.02px 2445.02px 2445.02px 2445.02px 2445.02px 2445.02px 2445.02px 2445.02px 2445.02px 2445.02px 2445.02px 2445.02px 2445.02px 2445.02px 2445.02px 2445.02px ">6th and 17th March</tspan></text>
                </g>
                <g transform="matrix(13.6505,0,0,25.481,-10416.4,-9763.69)">
                    <text x="768.256px" y="403.686px" style="font-family:'Khand-Regular', 'Khand';font-size:12px;fill:rgb(255,243,0);">मुंबई</text>
                    <text x="787.18px" y="403.686px" style="font-family:'Khand-Regular', 'Khand';font-size:12px;fill:white;">Hackathon</text>
                </g>
            </g>
        </g>
    </g>
</svg>
