<?xml version="1.0" encoding="utf-8"?>
<!-- Generator: Adobe Illustrator 15.1.0, SVG Export Plug-In . SVG Version: 6.00 Build 0)  -->
<!DOCTYPE svg PUBLIC "-//W3C//DTD SVG 1.1//EN" "http://www.w3.org/Graphics/SVG/1.1/DTD/svg11.dtd">
<svg version="1.1" id="Layer_1" xmlns="http://www.w3.org/2000/svg" xmlns:xlink="http://www.w3.org/1999/xlink" x="0px" y="0px"
	 width="407.592px" height="338.589px" viewBox="0 0 407.592 338.589" enable-background="new 0 0 407.592 338.589"
	 xml:space="preserve">
<g>
	<g>
		<g>
			<path d="M160.205,221.634c36.204,0,72.404,0,108.607,0c3.38,0,3.38-5.241,0-5.241c-36.204,0-72.404,0-108.607,0
				C156.825,216.393,156.825,221.634,160.205,221.634L160.205,221.634z"/>
		</g>
	</g>
	<g>
		<g>
			<path d="M271.724,216.481c-2.158-18.569,4.591-34.109,23.464-39.785c22.457-6.751,43.862,8.628,46.299,31.213
				c0.478,4.432,7.473,4.478,6.988,0c-2.716-25.189-22.195-41.16-47.606-39.304c-25.769,1.882-38.929,23.85-36.133,47.875
				C265.25,220.903,272.245,220.953,271.724,216.481L271.724,216.481z"/>
		</g>
	</g>
	<g>
		<g>
			<path d="M78.072,207.453c7.786-47.531,83.309-36.098,79.513,11.56c-0.269,3.372,4.975,3.345,5.241,0
				c4.265-53.51-81.085-66.196-89.809-12.955C72.476,209.364,77.526,210.781,78.072,207.453L78.072,207.453z"/>
		</g>
	</g>
	<g>
		<g>
			<path d="M61.304,149.715c0,14.105,0,28.211,0,42.317c0,3.381,5.241,3.381,5.241,0c0-14.106,0-28.212,0-42.317
				C66.545,146.334,61.304,146.334,61.304,149.715L61.304,149.715z"/>
		</g>
	</g>
	<g>
		<g>
			<path d="M61.304,191.255c0.451,7.629,5.273,17.521,13.879,17.956c3.378,0.17,3.364-5.072,0-5.241
				c-5.398-0.272-8.371-8.191-8.638-12.715C66.348,187.897,61.104,187.877,61.304,191.255L61.304,191.255z"/>
		</g>
	</g>
	<g>
		<g>
			<path d="M65.776,151.083c12.298-9.81,24.563-19.699,37.197-29.069c8.083-5.992,16.791-10.826,27.098-10.831
				c5.387-0.003,10.778-0.005,16.165-0.008c17.37-0.008,34.742-0.016,52.115-0.024c6.851-0.003,13.703-0.007,20.555-0.009
				c1.801-0.001,3.604-0.002,5.405-0.003c2.447-0.001-1.927-1.794,0.418,0.229c11.357,9.793,22.716,19.585,34.071,29.378
				c5.806,5.006,12.784,14.297,20.744,15.39c15.512,2.129,30.985,4.842,46.194,8.573c7.798,1.912,15.855,4.084,22.898,8.035
				c5.09,2.858,3.681,6.793,3.562,12.168c-0.196,8.822-0.009,15.823-7.498,21.767c-2.645,2.1,1.09,5.782,3.708,3.705
				c7.996-6.345,8.476-11.868,8.919-21.706c0.307-6.816,2.313-14.511-3.901-19.01c-12.779-9.25-31.628-11.539-46.699-14.398
				c-7.418-1.407-14.875-2.604-22.345-3.698c-1.92-0.282-3.84-0.548-5.762-0.804c-2.923-0.39,1.731,1.66-0.667-0.409
				c-11.892-10.255-23.785-20.508-35.677-30.763c-5.191-4.477-11.917-13.701-19.309-13.698c-14.877,0.007-29.754,0.014-44.631,0.021
				c-15.359,0.007-30.716,0.014-46.075,0.021c-16.112,0.007-27.95,8.351-40.266,17.875c-10.041,7.768-20,15.643-29.922,23.562
				C59.43,149.485,63.165,153.168,65.776,151.083L65.776,151.083z"/>
		</g>
	</g>
	<g>
		<g>
			<path d="M166.32,157.285c0,19.703,0,39.404,0,59.107c0,1.502,2.329,1.502,2.329,0c0-19.703,0-39.404,0-59.107
				C168.649,155.783,166.32,155.783,166.32,157.285L166.32,157.285z"/>
		</g>
	</g>
	<g>
		<g>
			<path d="M259.786,158.45c0,19.605,0,39.211,0,58.816c0,1.503,2.329,1.503,2.329,0c0-19.605,0-39.211,0-58.816
				C262.115,156.947,259.786,156.947,259.786,158.45L259.786,158.45z"/>
		</g>
	</g>
	<g>
		<g>
			<path d="M85.666,180.579c0,0.097,0,0.194,0,0.292c0,1.502,2.329,1.502,2.329,0c0-0.097,0-0.194,0-0.292
				C87.995,179.076,85.666,179.076,85.666,180.579L85.666,180.579z"/>
		</g>
	</g>
	<g>
		<g>
			<path d="M87.412,182.083c0-7.474,0-14.946,0-22.42c0-1.502-2.329-1.502-2.329,0c0,7.474,0,14.947,0,22.42
				C85.083,183.586,87.412,183.586,87.412,182.083L87.412,182.083z"/>
		</g>
	</g>
	<g>
		<g>
			<path d="M90.906,154.761c56.228,0,112.458,0,168.687,0c1.501,0,1.501-2.329,0-2.329c-56.229,0-112.458,0-168.687,0
				C89.403,152.432,89.403,154.761,90.906,154.761L90.906,154.761z"/>
		</g>
	</g>
	<g>
		<g>
			<path d="M90.244,152.184c-1.419-0.318-0.459-2.266,0.223-2.907c1.099-1.03-0.55-2.674-1.647-1.647
				c-1.979,1.857-2.493,6.063,0.805,6.799C91.09,154.755,91.711,152.51,90.244,152.184L90.244,152.184z"/>
		</g>
	</g>
	<g>
		<g>
			<path d="M90.663,148.694c10.104-11.415,22.721-20.766,33.679-31.35c1.082-1.045-0.566-2.69-1.647-1.646
				c-10.957,10.584-23.573,19.935-33.678,31.35C88.024,148.167,89.667,149.821,90.663,148.694L90.663,148.694z"/>
		</g>
	</g>
	<g>
		<g>
			<path d="M123.447,118.196c1.372-1.315,3.421-1.383,5.214-1.384c1.503-0.001,1.503-2.33,0-2.329
				c-2.448,0.002-5.014,0.296-6.861,2.067C120.713,117.591,122.364,119.236,123.447,118.196L123.447,118.196z"/>
		</g>
	</g>
	<g>
		<g>
			<path d="M128.661,116.812c10.063,0,20.125,0,30.186,0c1.501,0,1.501-2.329,0-2.329c-10.061,0-20.123,0-30.186,0
				C127.16,114.483,127.16,116.812,128.661,116.812L128.661,116.812z"/>
		</g>
	</g>
	<g>
		<g>
			<path d="M158.731,116.867c1.222,0.495,2.063,1.744,2.056,3.052c-0.007,1.502,2.323,1.501,2.33,0
				c0.011-2.424-1.576-4.412-3.767-5.297C157.955,114.058,157.357,116.312,158.731,116.867L158.731,116.867z"/>
		</g>
	</g>
	<g>
		<g>
			<path d="M160.885,120.306c0,10.773,0,21.547,0,32.32c0,1.502,2.33,1.502,2.33,0c0-10.773,0-21.546,0-32.32
				C163.215,118.804,160.885,118.804,160.885,120.306L160.885,120.306z"/>
		</g>
	</g>
	<g>
		<g>
			<path d="M260.416,152.773c-12.729-12.296-24.911-25.685-38.63-36.882c-1.151-0.942-2.812,0.696-1.647,1.647
				c13.719,11.197,25.901,24.585,38.63,36.882C259.847,155.464,261.497,153.818,260.416,152.773L260.416,152.773z"/>
		</g>
	</g>
	<g>
		<g>
			<path d="M220.962,115.55c-15.639,0-31.279,0-46.92,0c-1.501,0-1.501,2.329,0,2.329c15.641,0,31.281,0,46.92,0
				C222.466,117.879,222.466,115.55,220.962,115.55L220.962,115.55z"/>
		</g>
	</g>
	<g>
		<g>
			<path d="M173.497,115.688c-2.322,0.756-4.447,2.697-4.417,5.297c0.018,1.501,2.348,1.502,2.329,0
				c-0.018-1.525,1.372-2.616,2.707-3.052C175.537,117.471,174.93,115.221,173.497,115.688L173.497,115.688z"/>
		</g>
	</g>
	<g>
		<g>
			<path d="M168.961,121.374c0,10.773,0,21.546,0,32.319c0,1.502,2.329,1.502,2.329,0c0-10.773,0-21.546,0-32.319
				C171.29,119.871,168.961,119.871,168.961,121.374L168.961,121.374z"/>
		</g>
	</g>
	<g>
		<g>
			<path d="M346.114,169.633c-7.677,5.891-0.98,20.297,8.453,15.194c0.991-0.536,0.11-2.045-0.882-1.509
				c-7.412,4.011-12.614-7.629-6.688-12.177C347.877,170.466,347.008,168.948,346.114,169.633L346.114,169.633z"/>
		</g>
	</g>
	<g>
		<g>
			<path d="M64.583,158.678c11.745-3.934,7.031,18.628,1.165,17.013c-2.178-0.6-3.098,2.772-0.928,3.369
				c12.149,3.346,15.862-29.456-1.165-23.75C61.527,156.021,62.442,159.396,64.583,158.678L64.583,158.678z"/>
		</g>
	</g>
	<g>
		<g>
			<path d="M249.638,145.232c-1.022,6.921-18.023,7.569-22.828,7.2c-1.499-0.115-1.488,2.215,0,2.329
				c6.035,0.464,23.842-0.556,25.07-8.91C252.099,144.382,249.856,143.75,249.638,145.232L249.638,145.232z"/>
		</g>
	</g>
	<g>
		<g>
			<path d="M138.802,207.755c5.969,0,11.938,0,17.91,0c1.503,0,1.503-2.329,0-2.329c-5.972,0-11.941,0-17.91,0
				C137.298,205.426,137.298,207.755,138.802,207.755L138.802,207.755z"/>
		</g>
	</g>
	<g>
		<g>
			<path d="M106.236,207.755c7.057,0,14.113,0,21.169,0c1.501,0,1.501-2.329,0-2.329c-7.057,0-14.113,0-21.169,0
				C104.734,205.426,104.734,207.755,106.236,207.755L106.236,207.755z"/>
		</g>
	</g>
	<g>
		<g>
			<path d="M76.93,207.755c6.513,0,13.025,0,19.538,0c1.501,0,1.501-2.329,0-2.329c-6.513,0-13.025,0-19.538,0
				C75.426,205.426,75.426,207.755,76.93,207.755L76.93,207.755z"/>
		</g>
	</g>
	<g>
		<g>
			<path d="M73.595,207.943c-0.708,1.67-1.044,3.522-0.232,5.229c0.839,1.762,2.541,2.745,4.423,3.032
				c1.467,0.226,2.099-2.019,0.618-2.245c-2.59-0.398-3.855-2.343-2.797-4.841C76.186,207.753,74.18,206.564,73.595,207.943
				L73.595,207.943z"/>
		</g>
	</g>
	<g>
		<g>
			<path d="M140.451,216.247c6.925,0,13.849,0,20.773,0c1.504,0,1.504-2.33,0-2.33c-6.924,0-13.849,0-20.773,0
				C138.947,213.917,138.947,216.247,140.451,216.247L140.451,216.247z"/>
		</g>
	</g>
	<g>
		<g>
			<path d="M103.7,216.247c9.056,0,18.109,0,27.163,0c1.503,0,1.503-2.33,0-2.33c-9.054,0-18.107,0-27.163,0
				C102.196,213.917,102.196,216.247,103.7,216.247L103.7,216.247z"/>
		</g>
	</g>
	<g>
		<g>
			<path d="M78.677,216.247c5.721,0,11.445,0,17.166,0c1.503,0,1.503-2.33,0-2.33c-5.721,0-11.445,0-17.166,0
				C77.173,213.917,77.173,216.247,78.677,216.247L78.677,216.247z"/>
		</g>
	</g>
	<g>
		<g>
			<path d="M331.28,210.083c4.834,0,9.665,0,14.499,0c1.501,0,1.501-2.329,0-2.329c-4.834,0-9.665,0-14.499,0
				C329.779,207.754,329.779,210.083,331.28,210.083L331.28,210.083z"/>
		</g>
	</g>
	<g>
		<g>
			<path d="M295.846,210.083c8.055,0,16.107,0,24.161,0c1.501,0,1.501-2.329,0-2.329c-8.053,0-16.106,0-24.161,0
				C294.342,207.754,294.342,210.083,295.846,210.083L295.846,210.083z"/>
		</g>
	</g>
	<g>
		<g>
			<path d="M270.075,210.083c5.905,0,11.811,0,17.716,0c1.503,0,1.503-2.329,0-2.329c-5.906,0-11.811,0-17.716,0
				C268.571,207.754,268.571,210.083,270.075,210.083L270.075,210.083z"/>
		</g>
	</g>
	<g>
		<g>
			<path d="M348.186,209.654c4.14,0.751,0.592,6.916-1.638,8.159c-1.31,0.731-0.137,2.744,1.179,2.011
				c3.926-2.191,7.625-11.229,1.078-12.416C347.337,207.141,346.712,209.386,348.186,209.654L348.186,209.654z"/>
		</g>
	</g>
	<g>
		<g>
			<path d="M346.944,217.654c-25.755,0-51.505,0-77.259,0c-1.504,0-1.504,2.33,0,2.33c25.753,0,51.503,0,77.259,0
				C348.445,219.984,348.445,217.654,346.944,217.654L346.944,217.654z"/>
		</g>
	</g>
	<g>
		<path d="M117.622,184.292c-16.442,0-29.772,13.395-29.772,29.917s13.33,29.918,29.772,29.918
			c16.442,0,29.772-13.395,29.772-29.918S134.063,184.292,117.622,184.292z M117.622,234.792c-11.313,0-20.484-9.215-20.484-20.583
			c0-11.367,9.171-20.582,20.484-20.582c11.312,0,20.484,9.215,20.484,20.582C138.105,225.576,128.934,234.792,117.622,234.792z"/>
	</g>
	<g>
		<ellipse cx="116.822" cy="215.083" rx="15.549" ry="15.146"/>
	</g>
	<g>
		<path d="M308.655,184.146c-16.442,0-29.772,13.395-29.772,29.917s13.331,29.918,29.772,29.918
			c16.442,0,29.772-13.395,29.772-29.918S325.097,184.146,308.655,184.146z M308.655,234.646c-11.312,0-20.482-9.215-20.482-20.583
			c0-11.367,9.17-20.582,20.482-20.582c11.312,0,20.482,9.215,20.482,20.582C329.137,225.431,319.967,234.646,308.655,234.646z"/>
	</g>
	<g>
		<ellipse cx="307.854" cy="214.937" rx="15.551" ry="15.146"/>
	</g>
</g>
</svg>
