<?xml version="1.0" encoding="utf-8"?>
<!-- Generator: Adobe Illustrator 15.1.0, SVG Export Plug-In . SVG Version: 6.00 Build 0)  -->
<!DOCTYPE svg PUBLIC "-//W3C//DTD SVG 1.1//EN" "http://www.w3.org/Graphics/SVG/1.1/DTD/svg11.dtd">
<svg version="1.1" id="Layer_1" xmlns="http://www.w3.org/2000/svg" xmlns:xlink="http://www.w3.org/1999/xlink" x="0px" y="0px"
	 width="407.592px" height="338.589px" viewBox="0 0 407.592 338.589" enable-background="new 0 0 407.592 338.589"
	 xml:space="preserve">
<g>
	<g>
		<path d="M148.629,213.538c0.038,0.004,0.076,0.009,0.117,0.018c5.479,0.255,10.949,0.528,16.424,0.515
			c0.314-2.629,0.493-5.304,0.493-8.015c0-20.451-8.945-38.775-23.077-51.279c-3.011,4.708-6.208,9.288-9.496,13.808
			c9.88,9.4,16.081,22.688,16.081,37.472C149.171,208.596,148.98,211.091,148.629,213.538z"/>
	</g>
	<g>
		<path d="M146.237,222.986c-6.96,20.165-25.877,34.681-48.242,34.681c-28.265,0-51.179-23.109-51.179-51.612
			c0-28.506,22.914-51.611,51.179-51.611c5.958,0,11.652,1.08,16.969,2.971c2.914-4.852,5.92-9.642,9.191-14.261
			c-8.051-3.414-16.877-5.34-26.16-5.34c-37.373,0-67.668,30.55-67.668,68.241c0,37.687,30.295,68.241,67.668,68.241
			c31.41,0,57.762-21.603,65.392-50.863C157.667,223.42,151.953,223.206,146.237,222.986z"/>
	</g>
	<g>
		<path d="M309.597,144.772c-6.299,0-12.378,0.909-18.16,2.54c0.161,0.332,0.226,0.708,0.212,1.08c1.23,3.369,2.75,6.612,4.171,9.91
			c0.649,1.505,1.221,3.037,1.836,4.543c3.833-0.928,7.825-1.443,11.939-1.443c28.266,0,51.179,23.104,51.179,51.611
			c0,28.502-22.914,51.611-51.179,51.611c-28.265,0-51.176-23.108-51.176-51.611c0-17.208,8.355-32.436,21.191-41.813
			c-1.714-5.219-4.24-10.152-5.616-15.501c-0.063-0.237-0.076-0.461-0.067-0.672c-19.204,12.039-31.997,33.502-31.997,57.986
			c0,37.687,30.294,68.241,67.666,68.241c37.374,0,67.668-30.554,67.668-68.241C377.265,175.322,346.971,144.772,309.597,144.772z"
			/>
	</g>
	<g>
		<g>
			<path d="M315.93,213.309L267.262,93.748c-1.803-0.341-4.041,2.236-4.041,2.236l48.251,118.53
				c-0.182,1.568-0.807,3.114-1.299,3.114c-0.092,0-0.277-0.018-0.584-0.144c-4.144-4.167-23.798-54.196-35.303-84.992
				c-0.287-0.771-0.965-1.326-1.776-1.456c-0.822-0.144-1.637,0.179-2.155,0.811c-18.7,22.872-45.91,55.146-63.387,74.075
				c0.43,0.116,0.844,0.336,1.165,0.77c0.672,0.905,1.159,1.922,1.503,2.989c19.363-20.586,48.237-55.393,61.747-71.866
				c11.991,31.957,31.231,81.498,36.11,83.733c0.921,0.425,1.824,0.636,2.681,0.636c4.361,0,5.775-4.968,5.923-7.907
				C316.111,213.945,316.056,213.618,315.93,213.309z"/>
		</g>
		<g>
			<path d="M255.251,91.109c-1.888-0.475-3.754-0.972-5.604-1.492l11.389,26.957H155.703l-6.006-19.65
				c-0.293-0.958-1.185-1.618-2.195-1.618h-11.469c-0.717,0-1.391,0.336-1.826,0.9c-0.435,0.569-0.578,1.305-0.385,1.99
				l7.365,26.334c-5.703,8.454-50.887,75.409-54.426,80.338c-2.52,3.508-4.713,8.731-3.3,12.884
				c0.722,2.124,2.276,3.607,4.491,4.288c4.397,1.344,56.461,3.669,84.486,4.153c-0.708-1.478-1.324-2.997-1.763-4.583
				c-29.26-0.551-77.817-2.921-81.372-3.929c-0.791-0.237-1.252-0.668-1.496-1.389c-0.686-2.011,0.421-5.623,2.688-8.777
				c3.799-5.286,52.998-78.218,55.09-81.318c0.374-0.556,0.484-1.242,0.304-1.882l-6.839-24.452h6.751l6.003,19.649
				c0.296,0.959,1.188,1.618,2.195,1.618h110.486c0.769,0,1.485-0.385,1.911-1.017c0.425-0.636,0.502-1.443,0.204-2.142
				L255.251,91.109z"/>
		</g>
	</g>
	<g>
		<g>
			<path d="M169.121,210.697c-3.48,0.009-7.593,0.022-12.116,0.022c-38.406,0-50.247-0.658-53.845-1.062
				c2.962-7.666,23.418-38.319,43.296-66.36l26.662,60.562c1.03-1.021,2.222-1.858,3.565-2.459c0.099-0.053,0.188-0.121,0.287-0.17
				l-27.942-63.483c-0.332-0.753-1.044-1.273-1.864-1.358c-0.825-0.072-1.626,0.277-2.104,0.955
				c-18.093,25.389-48.222,68.823-46.743,74.441c0.213,0.802,0.752,1.456,1.478,1.796c1.107,0.515,3.696,1.725,57.209,1.725
				c4.157,0,7.972-0.009,11.274-0.022C168.379,213.744,168.66,212.193,169.121,210.697z"/>
		</g>
	</g>
	<g>
		<g>
			<path d="M262.662,128.366c-0.65-2.083-1.212-3.884-35.458-3.884c-29.558,0-68.691,1.46-69.081,1.479
				c-0.732,0.027-1.406,0.399-1.814,1.008c-0.412,0.605-0.507,1.371-0.26,2.057c0.074,0.206,7.365,20.465,15.132,40.464
				c4.787,12.329,8.326,20.909,11.042,27.033c1.29-0.699,2.741-1.236,4.3-1.604c-6.456-14.624-16.283-40.129-25.088-64.487
				c9.883-0.345,41.163-1.362,65.77-1.362c18.23,0,26.041,0.569,29.388,1.044c-5.349,6.379-21.594,25.626-56.226,65.857
				c1.487,0.623,2.836,1.429,3.972,2.415c43.531-50.567,57.755-67.695,57.901-67.874
				C262.735,129.916,262.894,129.105,262.662,128.366z"/>
		</g>
	</g>
	<g>
		<g>
			<path d="M115.29,93.757c-7.117-9.144-5.849-22.454,6.494-25.895c7.251-2.025,15.542,0.143,22.575,1.962
				c9.113,2.361,22.553,5.604,30.039,11.514c5.985,4.722-0.636,11.115-5.062,12.76c-3.821,1.416-8.185,1.384-12.204,1.397
				c-5.995,0.022-11.909-1.03-17.874-1.357c-2.957-0.166-2.941,4.426,0,4.587c10.665,0.587,23.568,3.934,33.657-1.111
				c10.663-5.327,10.038-16.903,0.184-22.647c-7.024-4.095-16.449-6.088-24.114-8.562c-9.303-3.006-18.725-4.498-28.419-2.97
				C103.87,66.07,103.758,86.355,112.046,97C113.863,99.33,117.084,96.06,115.29,93.757L115.29,93.757z"/>
		</g>
	</g>
	<g>
		<path d="M190.583,191.32c-13.644,0-24.706,11.357-24.706,25.362c0,14.001,11.062,25.357,24.706,25.357
			c13.645,0,24.706-11.356,24.706-25.357C215.288,202.678,204.227,191.32,190.583,191.32z M190.583,237.739
			c-11.33,0-20.514-9.431-20.514-21.057c0-11.63,9.185-21.061,20.514-21.061c11.331,0,20.515,9.43,20.515,21.061
			C211.098,228.308,201.913,237.739,190.583,237.739z"/>
	</g>
	<g>
		<path d="M110.848,211.714c0,0.761-0.076,1.51-0.188,2.245c1.08-0.036,2.161-0.018,3.246,0.036c0.096-0.748,0.159-1.505,0.159-2.28
			c0-5.761-2.747-10.864-7.007-14.242c-0.618,0.86-1.254,1.703-1.895,2.544C108.622,202.817,110.848,206.992,110.848,211.714z"/>
	</g>
	<g>
		<path d="M108.133,220.235c-2.83,4.077-7.592,6.778-13.031,6.778c-8.698,0-15.745-6.85-15.745-15.299
			c0-8.454,7.047-15.308,15.745-15.308c0.287,0,0.567,0.026,0.849,0.044c0.395-0.493,0.789-0.986,1.178-1.483
			c0.376-0.475,0.749-0.945,1.12-1.411c-1.026-0.166-2.072-0.273-3.147-0.273c-10.472,0-18.962,8.252-18.962,18.431
			c0,10.174,8.49,18.427,18.962,18.427c7.22,0,13.445-3.952,16.646-9.717C110.543,220.392,109.338,220.333,108.133,220.235z"/>
	</g>
	<g>
		<path d="M309.597,199.523c-0.775,0-1.53,0.072-2.278,0.166c0.366,0.977,0.699,1.962,0.998,2.957
			c0.013,0.023,0.026,0.045,0.04,0.063c0.41-0.031,0.822-0.058,1.241-0.058c8.696,0,15.748,6.85,15.748,15.304
			c0,8.45-7.052,15.304-15.748,15.304s-15.748-6.854-15.748-15.304c0-5.86,3.396-10.949,8.375-13.521
			c-0.315-1.017-0.564-2.052-0.804-3.091c-6.375,2.971-10.789,9.283-10.789,16.612c0,10.174,8.49,18.427,18.964,18.427
			s18.965-8.253,18.965-18.427C328.562,207.776,320.072,199.523,309.597,199.523z"/>
	</g>
	<g>
		<path d="M190.583,204.797c-6.393,0-11.574,5.322-11.574,11.885c0,6.559,5.181,11.881,11.574,11.881
			c6.394,0,11.575-5.322,11.575-11.881C202.157,210.119,196.976,204.797,190.583,204.797z M190.583,226.548
			c-5.309,0-9.612-4.418-9.612-9.866c0-5.452,4.303-9.869,9.612-9.869c5.31,0,9.613,4.417,9.613,9.869
			C200.195,222.13,195.892,226.548,190.583,226.548z"/>
	</g>
	<g>
		<g>
			<path d="M193.235,222.542c5.916,0,5.916-9.175,0-9.175C187.319,213.367,187.319,222.542,193.235,222.542L193.235,222.542z"/>
		</g>
	</g>
	<g>
		<g>
			<path d="M191.228,219.818c0,10.752,0,21.505,0,32.257c0,2.957,4.588,2.957,4.588,0c0-10.752,0-21.505,0-32.257
				C195.816,216.857,191.228,216.857,191.228,219.818L191.228,219.818z"/>
		</g>
	</g>
	<g>
		<g>
			<path d="M197.74,252.542c0.74-4.848,8.297-3.149,11.788-2.93c0.524,0.031,1.048,0.04,1.572,0.014
				c1.465-0.188,1.324,0.184-0.423,1.115c-1.566,0.18-3.214-0.036-4.776-0.143c-1.733-0.121-3.475-0.117-5.21-0.17
				c-1.004-0.045-2.007-0.067-3.011-0.072c-1.291-0.022-1.64-0.842-1.297,0.412c-0.197,0.744-0.392,1.487-0.589,2.231
				c1.304-1.617,5.764-0.192,7.441,0.027c2.878,0.38,5.977-0.233,8.745,0.685c2.815,0.936,4.012-3.494,1.219-4.421
				c-3.844-1.277-8.43-0.677-12.455-1.219c-2.583-0.345-7.843-0.726-8.784,2.697c-0.795,2.89,2.868,4.019,4.998,4.135
				c2.597,0.143,5.208,0.139,7.807,0.21c2.522,0.072,5.156,0.596,7.657,0c3.573-0.851,5.342-3.145,4.673-6.8
				c-0.677-3.71-5.6-3.167-8.239-3.333c-5.667-0.354-14.393-1.165-15.537,6.344C192.875,254.212,197.296,255.458,197.74,252.542
				L197.74,252.542z"/>
		</g>
	</g>
	<g>
		<path d="M263.125,117.099c-0.894,0-1.745-0.527-2.115-1.405c-3.212-7.637-9.634-22.744-10.938-25.272
			c-1.006-1.951-1.194-3.635-0.56-5.011c0.493-1.067,1.382-1.68,2.135-1.936c1.729-0.752,18.416-7.993,26.225-10.363
			c9.979-3.037,12.13,2.816,14.2,8.477l0.09,0.242c1.574,4.31,3.841,15.812,0.304,21.928c-1.205,2.085-3.011,3.389-5.222,3.772
			c-2.365,0.412-3.958-0.444-4.876-1.232c-3.475-2.988-3.324-10.206-3.201-16.005c0.038-1.821,0.074-3.542-0.038-4.516
			c-1.476-0.125-6.084,2.029-8.598,3.217c-1.151,0.544-2.298,1.084-3.397,1.57c-0.095,1.982,2.099,8.264,4.957,14.074
			c0.558,1.136,0.09,2.511-1.046,3.071c-1.134,0.556-2.511,0.092-3.071-1.046c-2.019-4.101-6.555-14.07-5.096-18.017
			c0.453-1.223,1.284-1.794,1.902-2.061c1.211-0.52,2.498-1.129,3.792-1.74c5.35-2.529,9.969-4.715,12.959-3.06
			c0.854,0.473,1.919,1.452,2.153,3.432c0.152,1.288,0.114,3.087,0.069,5.172c-0.079,3.792-0.229,10.853,1.606,12.43
			c0.119,0.103,0.375,0.307,1.102,0.19c0.544-0.094,1.347-0.356,2.035-1.548c2.23-3.854,1.108-13.268-0.643-18.055l-0.088-0.242
			c-2.146-5.867-2.728-7.439-8.562-5.663c-7.109,2.16-22.55,8.804-25.388,10.034c0.06,0.186,0.161,0.443,0.336,0.783
			c1.711,3.315,10.708,24.686,11.09,25.595c0.491,1.167-0.058,2.511-1.225,3.004C263.723,117.04,263.423,117.099,263.125,117.099z"
			/>
	</g>
	<g>
		<path d="M291.919,90.415c-0.065-1.182-0.115-2.361-0.002-3.543c0.074-0.789-0.551-1.138-1.169-1.076
			c-0.39-0.708-1.57-0.954-2.019-0.076c-1.055,2.066-2.923,2.854-5.127,2.971c-0.383,0.018-0.703,0.211-0.912,0.493
			c-0.042,0.009-0.074,0.031-0.114,0.041c-0.339-1.129-2.245-1.03-2.223,0.327c0.074,4.601-1.426,12.396,3.119,15.425
			c2.079,1.384,4.216-0.049,5.511-1.814c1.14-0.9,2.067-2.258,2.493-3.257c1.125-2.621,1.123-5.641,1.208-8.445
			C292.7,90.872,292.349,90.531,291.919,90.415z"/>
	</g>
	<g>
		<g>
			<path d="M111.375,89.645c19.961-1.456,41.52-1.936,60.769,4.278c1.411,0.458,2.011-1.76,0.609-2.213
				c-19.45-6.276-41.221-5.833-61.377-4.359C109.907,87.458,109.898,89.751,111.375,89.645L111.375,89.645z"/>
		</g>
	</g>
	<g>
		<g>
			<path d="M113.668,97.673c16.834,0.143,33.637,2.593,50.464,2.415c2.957-0.031,2.959-4.619,0-4.587
				c-16.827,0.179-33.63-2.271-50.464-2.415C110.709,93.058,110.711,97.646,113.668,97.673L113.668,97.673z"/>
		</g>
	</g>
	<g>
		<g>
			<path d="M125.617,97.292c-1.992,2.33-2.157,5.3,0.105,7.517c1.861,1.824,5.04,2.496,7.28,0.995
				c2.744-1.841,3.093-6.25,0.748-8.495c-2.565-2.455-7.193-1.944-8.886,1.219c-0.699,1.299,1.281,2.459,1.98,1.156
				c1.04-1.94,3.658-2.092,5.284-0.752c1.575,1.299,0.986,4.18-0.681,5.138c-1.297,0.748-3.096,0.018-4.104-0.887
				c-1.384-1.232-1.256-2.926-0.105-4.27C128.195,97.793,126.58,96.163,125.617,97.292L125.617,97.292z"/>
		</g>
	</g>
	<g>
		<g>
			<path d="M128.161,96.952c-1.176,1.801-0.791,4.668,1.114,5.864c2.411,1.519,5.096,0.058,6.386-2.2
				c0.735-1.286-1.248-2.442-1.98-1.156c-0.584,1.021-1.767,2.164-3.017,1.523c-1.031-0.529-1.08-2.021-0.522-2.876
				C130.952,96.866,128.966,95.714,128.161,96.952L128.161,96.952z"/>
		</g>
	</g>
</g>
</svg>
