<?xml version="1.0" encoding="utf-8"?>
<!-- Generator: Adobe Illustrator 15.1.0, SVG Export Plug-In . SVG Version: 6.00 Build 0)  -->
<!DOCTYPE svg PUBLIC "-//W3C//DTD SVG 1.1//EN" "http://www.w3.org/Graphics/SVG/1.1/DTD/svg11.dtd">
<svg version="1.1" id="Layer_1" xmlns="http://www.w3.org/2000/svg" xmlns:xlink="http://www.w3.org/1999/xlink" x="0px" y="0px"
	 width="407.592px" height="338.589px" viewBox="0 0 407.592 338.589" enable-background="new 0 0 407.592 338.589"
	 xml:space="preserve">
<g>
	<g>
		<path d="M142.472,129.743c57.708,0,115.418,0,173.125,0c2.528,0,2.528-3.92,0-3.92c-57.707,0-115.417,0-173.125,0
			C139.943,125.823,139.943,129.743,142.472,129.743L142.472,129.743z"/>
	</g>
</g>
<g>
	<g>
		<path d="M315.241,130c14.994,5.236,28.744,9.846,42.325,18.401c6.931,4.368,16.698,15.499,3.645,20.307
			c-6.906,2.542-14.745,3.013-22.013,3.009c-2.528,0-2.528,3.919,0,3.919c11.145,0.008,38.557-1.703,31.323-19.591
			c-3.183-7.871-12.704-12.246-19.493-16.174c-11.131-6.446-22.723-9.451-34.746-13.65C313.89,125.383,312.87,129.173,315.241,130
			L315.241,130z"/>
	</g>
</g>
<g>
	<g>
		<path d="M281.789,175.636c20.416,0,40.833,0,61.247,0c2.529,0,2.529-3.919,0-3.919c-20.415,0-40.831,0-61.247,0
			C279.262,171.717,279.262,175.636,281.789,175.636L281.789,175.636z"/>
	</g>
</g>
<g>
	<g>
		<path d="M355.193,146.862c-1.098,4.463-2.308,8.946-2.821,13.524c-0.415,3.713-1.297,7.787,0.004,11.404
			c0.847,2.358,4.635,1.344,3.778-1.041c-0.992-2.756-0.353-5.83-0.052-8.667c0.509-4.816,1.717-9.49,2.869-14.179
			C359.577,145.449,355.795,144.408,355.193,146.862L355.193,146.862z"/>
	</g>
</g>
<g>
	<g>
		<path d="M280.801,171.985c-44.398,28.962-88.797,57.924-133.194,86.891c-2.107,1.375-0.145,4.77,1.979,3.384
			c44.396-28.963,88.795-57.925,133.194-86.891C284.885,173.995,282.925,170.599,280.801,171.985L280.801,171.985z"/>
	</g>
</g>
<g>
	<g>
		<path d="M128.742,257.605c5.811,2.867,12.499,3.896,18.874,4.678c2.505,0.306,2.475-3.618,0-3.92
			c-5.637-0.689-11.761-1.612-16.895-4.142C128.463,253.107,126.476,256.487,128.742,257.605L128.742,257.605z"/>
	</g>
</g>
<g>
	<g>
		<path d="M127.772,255.423c0,0.08,0,0.161,0,0.245c0,2.526,3.92,2.526,3.92,0c0-0.084,0-0.165,0-0.245
			C131.692,252.893,127.772,252.893,127.772,255.423L127.772,255.423z"/>
	</g>
</g>
<g>
	<g>
		<path d="M129.732,257.628c2.528,0,2.528-3.92,0-3.92C127.203,253.708,127.203,257.628,129.732,257.628L129.732,257.628z"/>
	</g>
</g>
<g>
	<g>
		<path d="M130.627,256.809c17.729-20.667,35.273-41.522,52.208-62.848c1.554-1.956-1.2-4.75-2.771-2.771
			c-16.935,21.326-34.479,42.18-52.208,62.848C126.219,255.943,128.98,258.73,130.627,256.809L130.627,256.809z"/>
	</g>
</g>
<g>
	<path fill="none" stroke="#000000" stroke-miterlimit="10" d="M180.607,193.64"/>
</g>
<g>
	<g>
		<path d="M183.046,175.997c2.159,6.228-0.63,12.452-4.722,17.203c-1.64,1.903,1.12,4.689,2.771,2.771
			c4.971-5.769,8.354-13.44,5.73-21.015C186.005,172.582,182.215,173.6,183.046,175.997L183.046,175.997z"/>
	</g>
</g>
<g>
	<g>
		<path d="M156.191,177.026c11.024,0,22.049,0,33.074,0c2.528,0,2.528-3.92,0-3.92c-11.025,0-22.049,0-33.074,0
			C153.663,173.106,153.663,177.026,156.191,177.026L156.191,177.026z"/>
	</g>
</g>
<g>
	<g>
		<path d="M78.122,125.823c-3.622,0.046-7.222,1.608-8.116,5.615c-1.263,5.666,0.647,7.653,5.166,11.101
			c6.672,5.092,15.743,8.096,23.311,11.534c11.325,5.141,22.742,10.091,34.207,14.907c6.544,2.748,16.299,8.337,23.502,8.046
			c2.519-0.104,2.528-4.022,0-3.92c-5.007,0.204-11.827-3.54-16.502-5.439c-8.642-3.51-17.201-7.23-25.745-10.975
			c-8.493-3.717-16.954-7.518-25.333-11.488c-2.848-1.351-5.681-2.741-8.463-4.218c-0.731-0.39-1.445-0.808-2.153-1.237
			c-1.312-0.8-12.343-9.849,0.128-10.006C80.648,129.712,80.651,125.792,78.122,125.823L78.122,125.823z"/>
	</g>
</g>
<g>
	<g>
		<path d="M187.22,188.211c12.63-10.171,27.056-16.755,43.222-18.626c11.028-1.275,33.336-0.693,38.515,11.636
			c0.962,2.293,4.758,1.287,3.778-1.041c-5.133-12.222-21.283-14.251-32.968-14.826c-20.352-0.999-39.756,7.553-55.318,20.085
			C182.479,187.024,185.272,189.781,187.22,188.211L187.22,188.211z"/>
	</g>
</g>
<g>
	<g>
		<path d="M256.053,178.117c0.524,2.622-4.83,4.459-6.634,5.103c-2.362,0.846-1.344,4.632,1.041,3.778
			c4.263-1.523,10.481-4.391,9.373-9.922C259.337,174.6,255.559,175.652,256.053,178.117L256.053,178.117z"/>
	</g>
</g>
<g>
	<g>
		<path d="M173.799,204.802c2.812,1.148,5.853,1.038,8.819,1.47c1.981,0.292,10.529,2.37,5.001,3.602
			c-7.851,1.746-15.788-0.953-23.62,1.765c-2.372,0.823-1.353,4.613,1.041,3.778c6.85-2.377,13.959-0.953,21.039-1.397
			c2.521-0.161,6.563-0.712,7.995-3.154c4.479-7.644-16.204-8.609-19.233-9.842C172.5,200.067,171.491,203.86,173.799,204.802
			L173.799,204.802z"/>
	</g>
</g>
<g>
	<g>
		<path d="M75.909,129.196c3.2,11.051,15.612,16.1,25.879,17.547c14.339,2.018,38.144,0.957,47.52-11.847
			c1.497-2.045-1.908-3.997-3.384-1.979c-8.68,11.855-32.662,11.515-45.826,9.662c-7.939-1.118-17.974-6.018-20.409-14.424
			C78.986,125.731,75.205,126.761,75.909,129.196L75.909,129.196z"/>
	</g>
</g>
<g>
	<g>
		<path d="M150.137,136.817c0.084-0.126,0.172-0.253,0.258-0.375c-0.702,0.804-0.792,1.979,0,2.772c0.718,0.716,2.069,0.803,2.772,0
			c0.367-0.421,0.603-0.816,0.748-1.355C154.574,135.412,150.792,134.379,150.137,136.817L150.137,136.817z"/>
	</g>
</g>
<g>
	<g>
		<path d="M61.94,72.201c1.313,9.647,4.681,18.976,7.07,28.404c2.781,10.982,5.333,21.98,8.854,32.759
			c0.781,2.392,4.567,1.37,3.778-1.041c-3.127-9.578-5.552-19.32-7.947-29.1c-2.606-10.642-6.498-21.203-7.977-32.063
			C65.38,68.664,61.604,69.728,61.94,72.201L61.94,72.201z"/>
	</g>
</g>
<g>
	<g>
		<path d="M63.584,72.905c6.044,0.011,12.087,0.226,18.129,0.245c2.528,0.008,2.528-3.912,0-3.919
			c-6.042-0.02-12.085-0.234-18.129-0.246C61.056,68.978,61.056,72.897,63.584,72.905L63.584,72.905z"/>
	</g>
</g>
<g>
	<g>
		<path d="M79.825,71.711c1.91,11.186,13.547,22.152,20.824,30.168c9.772,10.764,21.885,22.635,36.402,26.321
			c2.451,0.624,3.489-3.155,1.041-3.778c-13.231-3.361-23.808-13.915-32.97-23.489C97.675,93.151,85.5,81.763,83.603,70.67
			C83.178,68.182,79.402,69.238,79.825,71.711L79.825,71.711z"/>
	</g>
</g>
<g>
	<g>
		<path d="M75.151,117.34c2.322,0.41,4.624,0.612,6.984,0.666c1.28,0.031,2.567,0,3.849-0.011c0.75-0.004,7.508-0.372,5.129,2.564
			c-1.506,1.857-4.892,1.73-7.032,1.75c-1.879,0.02-3.981,0.463-5.767-0.256c-2.345-0.946-3.355,2.848-1.041,3.778
			c2.752,1.11,6.548,0.498,9.451,0.299c3.475-0.241,6.954-1.523,8.472-4.857c1.167-2.561-0.468-5.57-2.965-6.554
			c-4.805-1.891-10.94-0.26-16.04-1.156C73.719,113.126,72.663,116.904,75.151,117.34L75.151,117.34z"/>
	</g>
</g>
<g>
	<g>
		<path d="M86.481,161.358c4.352-1.47,13.693-0.846,16.732,3.346c1.47,2.025,4.873,0.072,3.384-1.979
			c-4.13-5.696-14.875-7.266-21.157-5.145C83.059,158.38,84.081,162.169,86.481,161.358L86.481,161.358z"/>
	</g>
</g>
<g>
	<g>
		<path d="M103.93,162.576c-4.257,3.935-10.02,6.125-14.129,10.205c-3.732,3.709-10.423,1.696-15.437,1.47
			c0.462,1.114,0.925,2.228,1.386,3.346c4.377-5.57,8.58-10.952,12.393-16.974c1.355-2.144-2.037-4.107-3.384-1.979
			c-3.633,5.734-7.595,10.856-11.78,16.181c-1.043,1.324-0.446,3.261,1.385,3.346c3.758,0.168,12.097,2.58,15.433-0.004
			c5.474-4.238,11.815-8.115,16.904-12.82C108.56,163.628,105.782,160.86,103.93,162.576L103.93,162.576z"/>
	</g>
</g>
<g>
	<g>
		<path d="M243.897,116.024c-18.864,0-37.728,0-56.592,0c-2.529,0-2.529,3.92,0,3.92c18.864,0,37.729,0,56.592,0
			C246.426,119.944,246.426,116.024,243.897,116.024L243.897,116.024z"/>
	</g>
</g>
<g>
	<g>
		<path d="M160.869,67.768c7.872,17.016,15.543,34.126,23.284,51.203c1.041,2.301,4.417,0.306,3.383-1.979
			c-7.74-17.077-15.411-34.188-23.283-51.203C163.192,63.5,159.813,65.491,160.869,67.768L160.869,67.768z"/>
	</g>
</g>
<g>
	<g>
		<path d="M180.529,67.676c20.661,17.23,41.321,34.459,61.982,51.693c1.927,1.608,4.714-1.152,2.771-2.771
			c-20.662-17.234-41.321-34.464-61.982-51.693C181.373,63.297,178.586,66.053,180.529,67.676L180.529,67.676z"/>
	</g>
</g>
<g>
	<g>
		<path d="M162.561,68.25c6.48,0,12.963,0,19.444,0c2.526,0,2.526-3.92,0-3.92c-0.031,0-0.062,0-0.09,0c-2.528,0-2.528,3.92,0,3.92
			c0.029,0,0.06,0,0.09,0c2.526,0,2.526-3.92,0-3.92c-6.481,0-12.964,0-19.444,0C160.032,64.331,160.032,68.25,162.561,68.25
			L162.561,68.25z"/>
	</g>
</g>
<g>
	<g>
		<path d="M175.545,95.2c3.103,0,6.208,0,9.31,0c2.528,0,2.528-3.92,0-3.92c-3.102,0-6.207,0-9.31,0
			C173.017,91.28,173.017,95.2,175.545,95.2L175.545,95.2z"/>
	</g>
</g>
<g>
	<g>
		<path d="M184.579,95.127c0.385,0.157,0.813,0.356,1.129,0.627c0.251,0.211,0.061,0.18,0.128-0.168
			c-0.039,0.2-0.035,0.165-0.366,0.513c-0.3,0.318-0.642,0.566-1.001,0.808c-0.838,0.567-1.759,1.038-2.695,1.409
			c-0.425,0.165-0.857,0.31-1.293,0.437c-0.172,0.05-0.349,0.088-0.525,0.126c-0.503,0.111,0.406-0.019-0.001-0.003
			c-2.521,0.095-2.529,4.015,0,3.92c2.796-0.107,5.854-1.838,7.935-3.591c1.231-1.041,2.016-2.522,1.771-4.145
			c-0.306-2.01-2.367-3.028-4.041-3.709c-0.99-0.406-2.153,0.433-2.41,1.37C182.9,93.841,183.589,94.725,184.579,95.127
			L184.579,95.127z"/>
	</g>
</g>
<g>
	<g>
		<path d="M166.643,140.197c45.84,0,91.682,0,137.522,0c2.528,0,2.528-3.919,0-3.919c-45.84,0-91.682,0-137.522,0
			C164.117,136.277,164.117,140.197,166.643,140.197L166.643,140.197z"/>
	</g>
</g>
<g>
	<path d="M347.139,148.504c-4.486-2.883-8.444-7.806-14.01-7.989c-3.09-0.104-6.353,1.248-9.436,1.466
		c-3.229,0.23-6.427,0.222-9.653,0.023c-4.241-0.256-4.989,1.887-4.262,4.544c1.039,13,11.453,13.138,22.957,12.632
		C336.287,159.027,357.303,155.035,347.139,148.504z"/>
</g>
<g>
	<path d="M285.545,142.972c-10.111,0-10.111,15.68,0,15.68S295.657,142.972,285.545,142.972z"/>
</g>
<g>
	<path d="M260.801,142.728c-10.111,0-10.111,15.679,0,15.679C270.914,158.407,270.914,142.728,260.801,142.728z"/>
</g>
<g>
	<path d="M234.955,143.217c-10.111,0-10.111,15.68,0,15.68S245.066,143.217,234.955,143.217z"/>
</g>
<g>
	<path d="M209.844,143.217c-4.274,0-7.84,3.564-7.84,7.84v0.123c0,4.272,3.566,7.84,7.84,7.84s7.84-3.568,7.84-7.84v-0.123
		C217.684,146.781,214.118,143.217,209.844,143.217z"/>
</g>
<g>
	<path d="M185.589,143.462c-10.111,0-10.111,15.679,0,15.679S195.701,143.462,185.589,143.462z"/>
</g>
</svg>
