<?xml version="1.0" encoding="utf-8"?>
<!-- Generator: Adobe Illustrator 15.1.0, SVG Export Plug-In . SVG Version: 6.00 Build 0)  -->
<!DOCTYPE svg PUBLIC "-//W3C//DTD SVG 1.1//EN" "http://www.w3.org/Graphics/SVG/1.1/DTD/svg11.dtd">
<svg version="1.1" id="Layer_1" xmlns="http://www.w3.org/2000/svg" xmlns:xlink="http://www.w3.org/1999/xlink" x="0px" y="0px"
	 width="407.592px" height="338.589px" viewBox="0 0 407.592 338.589" enable-background="new 0 0 407.592 338.589"
	 xml:space="preserve">
<g>
	<g>
		<g>
			<path d="M30.852,172.298c0.556,12.397,2.045,26.037,9.992,36.148c4.431,5.636,9.712,9.282,15.711,13.046
				c9.95,6.239,6.753,14.582,9.83,23.848c1.066,3.209,6.158,1.833,5.083-1.402c-1.885-5.678,0.144-12.917-3.196-18.202
				c-2.825-4.473-6.591-7.251-11.032-10.036c-16.115-10.107-20.305-25.262-21.117-43.402
				C35.973,168.912,30.699,168.897,30.852,172.298L30.852,172.298z"/>
		</g>
	</g>
	<g>
		<g>
			<path d="M70.684,246.396c87.864,0,175.728,0,263.593,0c3.399,0,3.399-5.271,0-5.271c-87.865,0-175.729,0-263.593,0
				C67.284,241.125,67.284,246.396,70.684,246.396L70.684,246.396z"/>
		</g>
	</g>
	<g>
		<g>
			<path d="M376.52,170.382c-15.746,23.448-29.287,48.262-44.571,72.002c-1.846,2.868,2.719,5.508,4.551,2.66
				c15.283-23.74,28.826-48.554,44.571-72.002C382.972,170.211,378.404,167.575,376.52,170.382L376.52,170.382z"/>
		</g>
	</g>
	<g>
		<g>
			<path d="M377.624,168.49c-24.309,0-48.619,0-72.928,0c-3.399,0-3.399,5.272,0,5.272c24.309,0,48.619,0,72.928,0
				C381.023,173.763,381.023,168.49,377.624,168.49L377.624,168.49z"/>
		</g>
	</g>
	<g>
		<g>
			<path d="M301.25,169.796c-4.446,7.226-8.188,14.844-12.301,22.258c-1.651,2.976,2.902,5.634,4.551,2.662
				c4.115-7.414,7.854-15.033,12.301-22.259C307.589,169.553,303.028,166.907,301.25,169.796L301.25,169.796z"/>
		</g>
	</g>
	<g>
		<g>
			<path d="M294.445,178.741c-66.972,0-133.942,0-200.915,0c-3.4,0-3.4,5.272,0,5.272c66.972,0,133.942,0,200.915,0
				C297.845,184.013,297.845,178.741,294.445,178.741L294.445,178.741z"/>
		</g>
	</g>
	<g>
		<g>
			<path d="M84.226,172.75c2.627,4.639,5.423,9.187,7.614,14.058c1.392,3.096,5.934,0.413,4.551-2.661
				c-2.189-4.871-4.987-9.418-7.614-14.059C87.102,167.131,82.547,169.787,84.226,172.75L84.226,172.75z"/>
		</g>
	</g>
	<g>
		<g>
			<path d="M85.33,168.49c-17.475,0-34.95,0-52.425,0c-3.4,0-3.4,5.272,0,5.272c17.475,0,34.95,0,52.425,0
				C88.729,173.763,88.729,168.49,85.33,168.49L85.33,168.49z"/>
		</g>
	</g>
	<g>
		<g>
			<path d="M93.968,178.521c0-8.494,0-16.986,0-25.48c0-1.7-2.635-1.7-2.635,0c0,8.494,0,16.987,0,25.48
				C91.333,180.221,93.968,180.221,93.968,178.521L93.968,178.521z"/>
		</g>
	</g>
	<g>
		<g>
			<path d="M93.309,153.7c11.203,0,22.405,0,33.608,0c1.699,0,1.699-2.636,0-2.636c-11.203,0-22.405,0-33.608,0
				C91.61,151.064,91.61,153.7,93.309,153.7L93.309,153.7z"/>
		</g>
	</g>
	<g>
		<g>
			<path d="M125.6,153.48c0,8.713,0,17.426,0,26.14c0,1.7,2.635,1.7,2.635,0c0-8.713,0-17.426,0-26.14
				C128.235,151.78,125.6,151.78,125.6,153.48L125.6,153.48z"/>
		</g>
	</g>
	<g>
		<g>
			<path d="M127.356,164.023c8.054,0,16.109,0,24.163,0c1.699,0,1.699-2.636,0-2.636c-8.054,0-16.109,0-24.163,0
				C125.657,161.388,125.657,164.023,127.356,164.023L127.356,164.023z"/>
		</g>
	</g>
	<g>
		<g>
			<path d="M150.641,163.584c0,5.125,0,10.251,0,15.376c0,1.7,2.636,1.7,2.636,0c0-5.125,0-10.251,0-15.376
				C153.276,161.884,150.641,161.884,150.641,163.584L150.641,163.584z"/>
		</g>
	</g>
	<g>
		<g>
			<path d="M161.184,178.082c0-2.269,0-4.54,0-6.809c0-1.7-2.636-1.7-2.636,0c0,2.27,0,4.54,0,6.809
				C158.548,179.782,161.184,179.782,161.184,178.082L161.184,178.082z"/>
		</g>
	</g>
	<g>
		<g>
			<path d="M161.184,172.81c3.221,0,6.444,0,9.665,0c1.699,0,1.699-2.636,0-2.636c-3.221,0-6.444,0-9.665,0
				C159.485,170.174,159.485,172.81,161.184,172.81L161.184,172.81z"/>
		</g>
	</g>
	<g>
		<g>
			<path d="M173.266,179.4c0-5.858,0-11.715,0-17.573c0-1.7-2.636-1.7-2.636,0c0,5.858,0,11.715,0,17.573
				C170.629,181.1,173.266,181.1,173.266,179.4L173.266,179.4z"/>
		</g>
	</g>
	<g>
		<g>
			<path d="M172.606,162.486c7.322,0,14.644,0,21.966,0c1.699,0,1.699-2.636,0-2.636c-7.322,0-14.644,0-21.966,0
				C170.908,159.85,170.908,162.486,172.606,162.486L172.606,162.486z"/>
		</g>
	</g>
	<g>
		<g>
			<path d="M193.254,162.266c0,5.711,0,11.423,0,17.134c0,1.7,2.636,1.7,2.636,0c0-5.711,0-11.422,0-17.134
				C195.891,160.566,193.254,160.566,193.254,162.266L193.254,162.266z"/>
		</g>
	</g>
	<g>
		<g>
			<path d="M207.314,179.034c0-9.177,0-18.354,0-27.531c0-1.7-2.636-1.7-2.636,0c0,9.177,0,18.354,0,27.531
				C204.678,180.734,207.314,180.734,207.314,179.034L207.314,179.034z"/>
		</g>
	</g>
	<g>
		<g>
			<path d="M206.288,152.528c24.406,0,48.814,0,73.221,0c1.699,0,1.699-2.636,0-2.636c-24.406,0-48.814,0-73.221,0
				C204.587,149.892,204.587,152.528,206.288,152.528L206.288,152.528z"/>
		</g>
	</g>
	<g>
		<g>
			<path d="M278.191,152.675c0,9.275,0,18.549,0,27.823c0,1.7,2.636,1.7,2.636,0c0-9.274,0-18.548,0-27.823
				C280.827,150.976,278.191,150.976,278.191,152.675L278.191,152.675z"/>
		</g>
	</g>
	<g>
		<g>
			<path d="M218.33,124.039c-4.534,8.626-8.229,17.652-12.594,26.359c-0.76,1.515,1.513,2.85,2.275,1.33
				c4.367-8.708,8.061-17.733,12.595-26.359C221.395,123.867,219.122,122.535,218.33,124.039L218.33,124.039z"/>
		</g>
	</g>
	<g>
		<g>
			<path d="M211.267,124.998c14.156,0,28.312,0,42.468,0c1.701,0,1.701-2.636,0-2.636c-14.156,0-28.312,0-42.468,0
				C209.568,122.362,209.568,124.998,211.267,124.998L211.267,124.998z"/>
		</g>
	</g>
	<g>
		<g>
			<path d="M252.708,123.972c0,7.908,0,15.816,0,23.724c0,1.7,2.636,1.7,2.636,0c0-7.908,0-15.816,0-23.724
				C255.345,122.272,252.708,122.272,252.708,123.972L252.708,123.972z"/>
		</g>
	</g>
	<g>
		<g>
			<path d="M201.456,148.867c23.138,0,46.274,0,69.412,0c1.701,0,1.701-2.636,0-2.636c-23.138,0-46.274,0-69.412,0
				C199.755,146.231,199.755,148.867,201.456,148.867L201.456,148.867z"/>
		</g>
	</g>
	<g>
		<g>
			<path d="M300.417,85.166c0.987,28.654,1.974,57.308,2.96,85.961c0.059,1.695,2.695,1.701,2.636,0
				c-0.987-28.653-1.974-57.307-2.96-85.961C302.996,83.471,300.359,83.465,300.417,85.166L300.417,85.166z"/>
		</g>
	</g>
	<g>
		<g>
			<path d="M269.916,85.166c-1.832,19.989-3.66,39.979-5.492,59.967c-0.154,1.693,2.481,1.678,2.636,0
				c1.831-19.989,3.66-39.978,5.491-59.967C272.706,83.473,270.07,83.487,269.916,85.166L269.916,85.166z"/>
		</g>
	</g>
	<g>
		<path d="M300.572,106.692h-30.083c-3.013,0-3.444,3.837-1.31,4.958c-0.321,0.894-0.625,1.792-0.741,2.729
			c-0.046,0.366,0.024,0.717,0.173,1.037c-2.005,1.196-1.538,4.894,1.42,4.894h29.857c1.356,0,2.185-0.779,2.499-1.737
			c0.151-0.319,0.237-0.691,0.237-1.118v-6.408C303.845,109.539,303.167,106.692,300.572,106.692z"/>
	</g>
	<g>
		<path d="M300.229,82.09c-9.666,0-19.332,0.012-28.996,0.22c-3.395,0.073-3.401,5.345,0,5.271
			c9.664-0.208,19.33-0.219,28.996-0.219C303.628,87.362,303.628,82.09,300.229,82.09z"/>
	</g>
	<g>
		<path d="M301.43,138.982h-33.084c-3.556,0-3.556,5.271,0,5.271h33.084C304.986,144.254,304.986,138.982,301.43,138.982z"/>
	</g>
	<g>
		<path d="M303.804,151.233c0.757-1.562,0.01-3.903-2.256-3.903h-28.336c-3.4,0-3.4,5.271,0,5.271h4.697
			c-0.626,1.557,0.146,3.734,2.332,3.734h22.625C305.913,156.335,306.218,152.11,303.804,151.233z"/>
	</g>
	<g>
		<path d="M266.767,157.654v22.405c0,3.4,5.272,3.4,5.272,0v-22.405C272.039,154.254,266.767,154.254,266.767,157.654z"/>
	</g>
	<g>
		<path d="M256.223,158.532v20.795c0,3.399,5.272,3.399,5.272,0v-20.795C261.495,155.133,256.223,155.133,256.223,158.532z"/>
	</g>
	<g>
		<path d="M244.509,158.679v19.476c0,3.399,5.272,3.399,5.272,0v-19.476C249.781,155.279,244.509,155.279,244.509,158.679z"/>
	</g>
	<g>
		<path d="M233.672,158.532v21.38c0,3.399,5.271,3.399,5.271,0v-21.38C238.944,155.133,233.672,155.133,233.672,158.532z"/>
	</g>
	<g>
		<path d="M222.25,158.239v21.38c0,3.399,5.272,3.399,5.272,0v-21.38C227.521,154.84,222.25,154.84,222.25,158.239z"/>
	</g>
	<g>
		<path d="M212.145,158.385v19.916c0,3.4,5.272,3.4,5.272,0v-19.916C217.417,154.986,212.145,154.986,212.145,158.385z"/>
	</g>
	<g>
		<path d="M316.429,175.666h-8.073c-3.399,0-3.399,5.271,0,5.271h4.843C314.145,179.1,315.2,177.325,316.429,175.666z"/>
	</g>
	<g>
		<path d="M333.386,175.666h-13.035c-0.048,0.074-0.067,0.15-0.131,0.222c-1.371,1.536-2.511,3.252-3.52,5.05h13.81
			C331.603,179.252,332.617,177.523,333.386,175.666z"/>
	</g>
	<g>
		<path d="M360.635,175.666h-8.603c-1.222,1.686-2.284,3.468-3.314,5.271h11.917C364.035,180.938,364.035,175.666,360.635,175.666z"
			/>
	</g>
	<g>
		<path d="M348.297,175.666h-11.609c-0.018,0.066-0.005,0.123-0.031,0.193c-0.674,1.798-1.565,3.462-2.54,5.078h11.019
			C346.141,179.15,347.175,177.381,348.297,175.666z"/>
	</g>
	<g>
		<path d="M65.284,180.378c-0.657-1.25-1.104-2.959-1.996-4.051c-0.116-0.142-0.175-0.292-0.235-0.442H50.139
			c1.128,1.775,2.356,3.484,3.46,5.272H65.69C65.553,180.898,65.419,180.638,65.284,180.378z"/>
	</g>
	<g>
		<path d="M78.812,175.885H66.579c0.484,0.961,0.886,1.971,1.392,2.922c0.415,0.781,0.817,1.564,1.211,2.351h9.629
			C82.211,181.157,82.211,175.885,78.812,175.885z"/>
	</g>
	<g>
		<path d="M46.52,175.885h-4.831c-3.399,0-3.399,5.272,0,5.272h8.215C48.744,179.421,47.544,177.708,46.52,175.885z"/>
	</g>
	<g>
		<path d="M347.896,221.355H63.655c-1.132,0-1.132,1.757,0,1.757h284.241C349.028,223.112,349.028,221.355,347.896,221.355z"/>
	</g>
	<g>
		<g>
			<path d="M67.754,227.359c90.892,0,181.781,0,272.672,0c1.133,0,1.133-1.757,0-1.757c-90.891,0-181.78,0-272.672,0
				C66.622,225.602,66.622,227.359,67.754,227.359L67.754,227.359z"/>
		</g>
	</g>
	<g>
		<path d="M116.082,192.36h-0.074c-4.79,0-8.786,3.997-8.786,8.787c0,4.79,3.997,8.786,8.786,8.786h0.074
			c4.79,0,8.787-3.996,8.787-8.786C124.868,196.356,120.871,192.36,116.082,192.36z"/>
	</g>
	<g>
		<path d="M142.002,192.434h-0.074c-4.79,0-8.786,3.997-8.786,8.787c0,4.79,3.997,8.787,8.786,8.787h0.074
			c4.789,0,8.786-3.997,8.786-8.787C150.788,196.43,146.791,192.434,142.002,192.434z"/>
	</g>
	<g>
		<path d="M166.75,192.36h-0.074c-4.79,0-8.786,3.997-8.786,8.787c0,4.79,3.996,8.786,8.786,8.786h0.074
			c4.79,0,8.787-3.996,8.787-8.786C175.536,196.356,171.539,192.36,166.75,192.36z"/>
	</g>
	<g>
		<path d="M192.669,192.434h-0.074c-4.79,0-8.786,3.997-8.786,8.787c0,4.79,3.996,8.787,8.786,8.787h0.074
			c4.79,0,8.787-3.997,8.787-8.787C201.456,196.43,197.459,192.434,192.669,192.434z"/>
	</g>
	<g>
		<path d="M216.832,192.36h-0.074c-4.79,0-8.787,3.997-8.787,8.787c0,4.79,3.997,8.786,8.787,8.786h0.074
			c4.79,0,8.787-3.996,8.787-8.786C225.619,196.356,221.622,192.36,216.832,192.36z"/>
	</g>
	<g>
		<path d="M242.752,192.434h-0.074c-4.79,0-8.786,3.997-8.786,8.787c0,4.79,3.996,8.787,8.786,8.787h0.074
			c4.79,0,8.786-3.997,8.786-8.787C251.538,196.43,247.542,192.434,242.752,192.434z"/>
	</g>
	<g>
		<path d="M267.401,192.434h-0.074c-4.789,0-8.786,3.997-8.786,8.787c0,4.79,3.997,8.787,8.786,8.787h0.074
			c4.79,0,8.787-3.997,8.787-8.787C276.188,196.43,272.191,192.434,267.401,192.434z"/>
	</g>
</g>
</svg>
