<?xml version="1.0" encoding="utf-8"?>
<!-- Generator: Adobe Illustrator 15.1.0, SVG Export Plug-In . SVG Version: 6.00 Build 0)  -->
<!DOCTYPE svg PUBLIC "-//W3C//DTD SVG 1.1//EN" "http://www.w3.org/Graphics/SVG/1.1/DTD/svg11.dtd">
<svg version="1.1" id="Layer_1" xmlns="http://www.w3.org/2000/svg" xmlns:xlink="http://www.w3.org/1999/xlink" x="0px" y="0px"
	 width="407.592px" height="338.589px" viewBox="0 0 407.592 338.589" enable-background="new 0 0 407.592 338.589"
	 xml:space="preserve">
<g>
	<g>
		<rect x="66.238" y="78.636" width="188.108" height="104.425"/>
	</g>
	<g>
		<g>
			<path d="M83.672,194.594c56.771,0,113.545,0,170.317,0c2.768,0,2.768-4.292,0-4.292c-56.771,0-113.545,0-170.317,0
				C80.904,190.303,80.904,194.594,83.672,194.594L83.672,194.594z"/>
		</g>
	</g>
	<g>
		<g>
			<path d="M255.866,211.76c0-5.99,0-11.98,0-17.97c0-2.768-4.292-2.768-4.292,0c0,5.99,0,11.98,0,17.97
				C251.575,214.527,255.866,214.527,255.866,211.76L255.866,211.76z"/>
		</g>
	</g>
	<g>
		<g>
			<path d="M131.683,215.516c40.768,0,81.537,0,122.306,0c2.768,0,2.768-4.292,0-4.292c-40.769,0-81.538,0-122.306,0
				C128.915,211.224,128.915,215.516,131.683,215.516L131.683,215.516z"/>
		</g>
	</g>
	<g>
		<g>
			<path d="M84.76,212.33c3.973-9.936,13.8-14.432,23.917-14.417c10.806,0.018,15.557,8.694,20.17,16.719
				c1.379,2.397,5.088,0.237,3.706-2.167c-5.931-10.311-11.196-17.387-23.875-18.843c-11.915-1.368-23.762,6.83-28.058,17.568
				C79.592,213.761,83.743,214.868,84.76,212.33L84.76,212.33z"/>
		</g>
	</g>
	<g>
		<g>
			<path d="M267.668,210.151c0-29.772,0-59.544,0-89.315c0-2.767-4.292-2.767-4.292,0c0,29.771,0,59.543,0,89.315
				C263.376,212.918,267.668,212.918,267.668,210.151L267.668,210.151z"/>
		</g>
	</g>
	<g>
		<g>
			<path d="M267.668,120.299c0.01-0.254,0.092-0.249-0.141-0.074c0.218-0.163,0.333-0.153,0.677-0.163
				c2.759-0.088,2.768-4.379,0-4.292c-2.724,0.086-4.708,1.732-4.828,4.528C263.256,123.067,267.548,123.055,267.668,120.299
				L267.668,120.299z"/>
		</g>
	</g>
	<g>
		<g>
			<path d="M267.668,120.062c18.061,0,36.119,0,54.179,0c2.768,0,2.768-4.292,0-4.292c-18.061,0-36.119,0-54.179,0
				C264.899,115.771,264.899,120.062,267.668,120.062L267.668,120.062z"/>
		</g>
	</g>
	<g>
		<g>
			<path d="M326.675,212.833c8.405,0,16.808,0,25.212,0c2.768,0,2.768-4.291,0-4.291c-8.405,0-16.808,0-25.212,0
				C323.907,208.542,323.907,212.833,326.675,212.833L326.675,212.833z"/>
		</g>
	</g>
	<g>
		<g>
			<path d="M266.327,212.833c4.872,0,9.746,0,14.618,0c2.768,0,2.768-4.291,0-4.291c-4.872,0-9.746,0-14.618,0
				C263.559,208.542,263.559,212.833,266.327,212.833L266.327,212.833z"/>
		</g>
	</g>
	<g>
		<g>
			<path d="M354.033,210.687c0-15.288,0-30.576,0-45.865c0-2.767-4.292-2.767-4.292,0c0,15.289,0,30.577,0,45.865
				C349.741,213.454,354.033,213.454,354.033,210.687L354.033,210.687z"/>
		</g>
	</g>
	<g>
		<g>
			<path d="M321.747,120.005c2.511,1.455,4.543,6.027,6.079,8.369c3.203,4.882,6.255,9.865,9.299,14.848
				c4.375,7.16,8.675,14.368,12.91,21.611c1.396,2.387,5.105,0.228,3.705-2.167c-4.544-7.773-9.173-15.498-13.869-23.182
				c-3.233-5.292-6.519-10.558-9.956-15.723c-1.58-2.377-3.424-5.966-6.001-7.46C321.514,114.909,319.353,118.619,321.747,120.005
				L321.747,120.005z"/>
		</g>
	</g>
	<g>
		<g>
			<path d="M277.215,158.052c0-10.166,0-20.332,0-30.498c0-2.767-4.292-2.767-4.292,0c0,10.166,0,20.332,0,30.498
				C272.923,160.819,277.215,160.819,277.215,158.052L277.215,158.052z"/>
		</g>
	</g>
	<g>
		<g>
			<path d="M275.068,129.741c12.598-0.005,25.198-0.075,37.796-0.081c2.768-0.001,2.768-4.292,0-4.292
				c-12.598,0.006-25.198,0.076-37.796,0.081C272.301,125.45,272.301,129.742,275.068,129.741L275.068,129.741z"/>
		</g>
	</g>
	<g>
		<g>
			<path d="M275.609,160.381c19.138,0,38.275,0,57.413,0c2.769,0,2.769-4.292,0-4.292c-19.138,0-38.275,0-57.413,0
				C272.841,156.09,272.841,160.381,275.609,160.381L275.609,160.381z"/>
		</g>
	</g>
	<g>
		<g>
			<path d="M311.414,128.598c6.584,10.179,13.17,20.358,19.756,30.538c1.496,2.313,5.213,0.165,3.705-2.167
				c-6.584-10.178-13.17-20.358-19.755-30.538C313.623,124.118,309.905,126.267,311.414,128.598L311.414,128.598z"/>
		</g>
	</g>
	<g>
		<g>
			<path d="M282.797,211.771c4.09-7.019,9.333-11.387,17.316-13.196c8.87-2.008,20.856,2.559,24.493,11.342
				c1.042,2.52,5.197,1.416,4.137-1.14c-3.979-9.609-14.268-14.543-24.252-14.865c-11.129-0.36-20.041,6.499-25.399,15.692
				C277.694,212,281.405,214.159,282.797,211.771L282.797,211.771z"/>
		</g>
	</g>
	<g>
		<g>
			<path d="M82.689,190.303c-6.366,0.208-10.456,4.427-10.079,10.856c0.31,5.265,3.843,11.802,9.509,12.67
				c2.707,0.414,3.868-3.721,1.14-4.139c-3.5-0.535-5.314-4.042-6.123-7.17c-1.131-4.375,0.941-7.775,5.553-7.926
				C85.449,194.504,85.46,190.212,82.689,190.303L82.689,190.303z"/>
		</g>
	</g>
	<g>
		<g>
			<path d="M275.446,163.213c0,14.082,0,28.162,0,42.244c0,1.384,2.146,1.384,2.146,0c0-14.082,0-28.162,0-42.244
				C277.592,161.829,275.446,161.829,275.446,163.213L275.446,163.213z"/>
		</g>
	</g>
	<g>
		<g>
			<path d="M332.173,162.542c0,14.037,0,28.074,0,42.11c0,1.384,2.146,1.384,2.146,0c0-14.036,0-28.073,0-42.11
				C334.319,161.159,332.173,161.159,332.173,162.542L332.173,162.542z"/>
		</g>
	</g>
	<g>
		<g>
			<path d="M340.824,193.924c0,3.017,0,6.035,0,9.052c0,1.384,2.146,1.384,2.146,0c0-3.017,0-6.035,0-9.052
				C342.969,192.54,340.824,192.54,340.824,193.924L340.824,193.924z"/>
		</g>
	</g>
	<g>
		<g>
			<path d="M340.89,202.976c-0.45,4.338,8.761,4.564,8.181-0.737c-0.149-1.36-2.297-1.375-2.146,0
				c0.146,1.331-0.591,1.86-1.869,1.86c-0.677,0-2.108-0.285-2.02-1.123C343.178,201.601,341.031,201.614,340.89,202.976
				L340.89,202.976z"/>
		</g>
	</g>
	<g>
		<g>
			<path d="M348.937,202.507c0-2.861,0-5.722,0-8.583c0-1.385-2.146-1.385-2.146,0c0,2.861,0,5.721,0,8.583
				C346.791,203.891,348.937,203.891,348.937,202.507L348.937,202.507z"/>
		</g>
	</g>
	<g>
		<g>
			<path d="M342.891,194.063c0.667-1.492,3.529-2.252,3.768-0.05c0.149,1.36,2.294,1.375,2.146,0
				c-0.208-1.899-1.448-3.364-3.427-3.515c-1.797-0.137-3.594,0.814-4.339,2.482C340.479,194.232,342.328,195.325,342.891,194.063
				L342.891,194.063z"/>
		</g>
	</g>
	<g>
		<g>
			<path d="M283.292,166.633c2.615,0,5.23,0,7.845,0c1.383,0,1.383-2.146,0-2.146c-2.615,0-5.23,0-7.845,0
				C281.908,164.487,281.908,166.633,283.292,166.633L283.292,166.633z"/>
		</g>
	</g>
	<g>
		<g>
			<path d="M291.053,166.795c0.419,0.086,0.099,0.053,0.079-0.106c0.021,0.172-0.033,0.299-0.083,0.46
				c-0.086,0.275-0.332,0.52-0.6,0.595c-1.331,0.372-0.765,2.442,0.57,2.068c2.151-0.601,3.455-4.506,0.604-5.085
				C290.273,164.451,289.697,166.52,291.053,166.795L291.053,166.795z"/>
		</g>
	</g>
	<g>
		<g>
			<path d="M290.533,167.84c-2.592,0-5.187,0-7.778,0c-1.383,0-1.383,2.146,0,2.146c2.592,0,5.186,0,7.778,0
				C291.916,169.986,291.916,167.84,290.533,167.84L290.533,167.84z"/>
		</g>
	</g>
	<g>
		<g>
			<path d="M282.705,167.812c-0.199-0.05-0.274-0.139-0.421-0.291c-0.073-0.102-0.14-0.211-0.197-0.325
				c-0.048-0.379-0.178-0.289-0.388,0.27c1.272-0.502,0.719-2.579-0.569-2.068c-2.305,0.912-0.914,4.012,1.006,4.481
				C283.478,170.21,284.048,168.14,282.705,167.812L282.705,167.812z"/>
		</g>
	</g>
	<g>
		<g>
			<path d="M319.969,211.492c2.504,0,5.006,0,7.511,0c1.382,0,1.382-2.146,0-2.146c-2.504,0-5.006,0-7.511,0
				C318.587,209.346,318.587,211.492,319.969,211.492L319.969,211.492z"/>
		</g>
	</g>
	<g>
		<g>
			<path d="M283.358,211.492c1.52,0,3.041,0,4.56,0c1.383,0,1.383-2.146,0-2.146c-1.52,0-3.041,0-4.56,0
				C281.975,209.346,281.975,211.492,283.358,211.492L283.358,211.492z"/>
		</g>
	</g>
	<g>
		<g>
			<path d="M124.039,213.101c1.207,0,2.414,0,3.621,0c1.385,0,1.385-2.146,0-2.146c-1.207,0-2.414,0-3.621,0
				C122.653,210.956,122.653,213.101,124.039,213.101L124.039,213.101z"/>
		</g>
	</g>
	<g>
		<g>
			<path d="M83.672,213.101c2.146,0,4.292,0,6.438,0c1.385,0,1.385-2.146,0-2.146c-2.146,0-4.291,0-6.438,0
				C82.288,210.956,82.288,213.101,83.672,213.101L83.672,213.101z"/>
		</g>
	</g>
	<g>
		<g>
			<g>
				<path d="M304.446,241.252c-11.48,0-20.822-9.341-20.822-20.822c0-11.482,9.341-20.823,20.822-20.823
					c11.481,0,20.823,9.34,20.823,20.823C325.269,231.912,315.927,241.252,304.446,241.252z M304.446,203.899
					c-9.115,0-16.53,7.416-16.53,16.531c0,9.115,7.416,16.531,16.53,16.531c9.116,0,16.531-7.416,16.531-16.531
					C320.978,211.314,313.562,203.899,304.446,203.899z"/>
			</g>
		</g>
		<g>
			<g>
				<path d="M304.446,233.742c-7.34,0-13.312-5.972-13.312-13.312c0-7.34,5.972-13.312,13.312-13.312
					c7.341,0,13.313,5.972,13.313,13.312C317.759,227.77,311.787,233.742,304.446,233.742z M304.446,209.862
					c-5.827,0-10.569,4.741-10.569,10.568c0,5.827,4.742,10.568,10.569,10.568c5.828,0,10.57-4.741,10.57-10.568
					C315.016,214.603,310.274,209.862,304.446,209.862z"/>
			</g>
		</g>
	</g>
	<g>
		<g>
			<g>
				<path d="M106.694,241.252c-11.48,0-20.822-9.341-20.822-20.822c0-11.482,9.342-20.823,20.822-20.823
					c11.481,0,20.823,9.34,20.823,20.823C127.517,231.912,118.175,241.252,106.694,241.252z M106.694,203.899
					c-9.115,0-16.53,7.416-16.53,16.531c0,9.115,7.416,16.531,16.53,16.531c9.116,0,16.531-7.416,16.531-16.531
					C123.226,211.314,115.81,203.899,106.694,203.899z"/>
			</g>
		</g>
		<g>
			<g>
				<path d="M106.694,233.742c-7.34,0-13.312-5.972-13.312-13.312c0-7.34,5.972-13.312,13.312-13.312
					c7.341,0,13.313,5.972,13.313,13.312C120.007,227.77,114.035,233.742,106.694,233.742z M106.694,209.862
					c-5.827,0-10.569,4.741-10.569,10.568c0,5.827,4.742,10.568,10.569,10.568c5.828,0,10.57-4.741,10.57-10.568
					C117.264,214.603,112.522,209.862,106.694,209.862z"/>
			</g>
		</g>
	</g>
</g>
<g>
	<g>
		<path d="M304.446,241.252c-11.48,0-20.822-9.341-20.822-20.822c0-11.482,9.341-20.823,20.822-20.823
			c11.481,0,20.823,9.34,20.823,20.823C325.269,231.912,315.927,241.252,304.446,241.252z M304.446,203.899
			c-9.115,0-16.53,7.416-16.53,16.531c0,9.115,7.416,16.531,16.53,16.531c9.116,0,16.531-7.416,16.531-16.531
			C320.978,211.314,313.562,203.899,304.446,203.899z"/>
	</g>
</g>
</svg>
