<?xml version="1.0" encoding="UTF-8" standalone="no"?>
<!-- Created with Inkscape (http://www.inkscape.org/) -->

<svg
   xmlns:dc="http://purl.org/dc/elements/1.1/"
   xmlns:cc="http://creativecommons.org/ns#"
   xmlns:rdf="http://www.w3.org/1999/02/22-rdf-syntax-ns#"
   xmlns:svg="http://www.w3.org/2000/svg"
   xmlns="http://www.w3.org/2000/svg"
   xmlns:sodipodi="http://sodipodi.sourceforge.net/DTD/sodipodi-0.dtd"
   xmlns:inkscape="http://www.inkscape.org/namespaces/inkscape"
   id="svg2"
   version="1.1"
   inkscape:version="0.91 r13725"
   xml:space="preserve"
   width="437.57855"
   height="720.34637"
   viewBox="0 0 437.57855 720.34637"
   sodipodi:docname="bag.svg"><metadata
     id="metadata8"><rdf:RDF><cc:Work
         rdf:about=""><dc:format>image/svg+xml</dc:format><dc:type
           rdf:resource="http://purl.org/dc/dcmitype/StillImage" /><dc:title></dc:title></cc:Work></rdf:RDF></metadata><defs
     id="defs6"><clipPath
       clipPathUnits="userSpaceOnUse"
       id="clipPath16"><path
         d="m 0,1000 1000,0 L 1000,0 0,0 0,1000 Z"
         id="path18"
         inkscape:connector-curvature="0" /></clipPath><clipPath
       clipPathUnits="userSpaceOnUse"
       id="clipPath48"><path
         d="m 0,1000 1000,0 L 1000,0 0,0 0,1000 Z"
         id="path50"
         inkscape:connector-curvature="0" /></clipPath></defs><sodipodi:namedview
     pagecolor="#ffffff"
     bordercolor="#666666"
     borderopacity="1"
     objecttolerance="10"
     gridtolerance="10"
     guidetolerance="10"
     inkscape:pageopacity="0"
     inkscape:pageshadow="2"
     inkscape:window-width="1319"
     inkscape:window-height="744"
     id="namedview4"
     showgrid="false"
     fit-margin-top="0"
     fit-margin-left="0"
     fit-margin-right="0"
     fit-margin-bottom="0"
     inkscape:zoom="0.53400704"
     inkscape:cx="315.54449"
     inkscape:cy="323.50005"
     inkscape:window-x="47"
     inkscape:window-y="24"
     inkscape:window-maximized="1"
     inkscape:current-layer="g10" /><g
     id="g10"
     inkscape:groupmode="layer"
     inkscape:label="bag"
     transform="matrix(1.25,0,0,-1.25,-425.55885,974.23973)"><g
       id="g4295"
       transform="translate(15.336004,2.6957415)"><g
         transform="translate(0,-11.984861)"
         id="g14"
         clip-path="url(#clipPath16)"><g
           id="g20"
           transform="translate(622,528)"><path
             d="m 0,0 -1,-216 c 0,0 -12,-21 -33,-20 l -182,3 c 0,0 -18,-1 -21,28 l -3,209 c 0,0 4,20 24,20 l 197,0 C -19,24 2,14 0,0"
             style="fill:#ff7846;fill-opacity:1;fill-rule:evenodd;stroke:none"
             id="path22"
             inkscape:connector-curvature="0" /></g><g
           id="g24"
           transform="translate(600,480)"><path
             d="m 0,0 c 0,0 3,20 -13,20 l -178,0 c 0,0 -9,-3 -8,-26 l 5,-122 c 0,0 -2,-35 22,-35 l 159,0 c 0,0 15,1 14,29 L 0,0 Z"
             style="fill:#ffa685;fill-opacity:1;fill-rule:evenodd;stroke:none"
             id="path26"
             inkscape:connector-curvature="0" /></g><g
           id="g28"
           transform="translate(499,434)"><path
             d="M 0,0 C 0,0 -16,5 -2,8 12,11 12,-2 0,0"
             style="fill:#ffe8cd;fill-opacity:1;fill-rule:evenodd;stroke:none"
             id="path30"
             inkscape:connector-curvature="0" /></g><g
           id="g32"
           transform="translate(544.334,708.3335)"><path
             d="m 0,0 -7.334,-0.667 0,6.667 c 0,0 -57.999,-7.333 -69.333,2 L -80,0.667 -89.334,1.333 -90,16.667 c 0,0 -3.334,8 18.666,8 l 66,-2 c 0,0 6.667,-2.001 6.667,-7.334 L 0,0 Z"
             style="fill:#a84f2e;fill-opacity:1;fill-rule:evenodd;stroke:none"
             id="path34"
             inkscape:connector-curvature="0" /></g><g
           id="g36"
           transform="translate(582,276)"><path
             d="M 0,0 -8,-1 -9,26 3,21 0,0 Z"
             style="fill:#a84f2e;fill-opacity:1;fill-rule:evenodd;stroke:none"
             id="path38"
             inkscape:connector-curvature="0" /></g><g
           id="g40"
           transform="translate(427,276)"><path
             d="M 0,0 0,21 -9,23 -11,0 0,0 Z"
             style="fill:#a84f2e;fill-opacity:1;fill-rule:evenodd;stroke:none"
             id="path42"
             inkscape:connector-curvature="0" /></g></g><g
         transform="translate(455.4653,592.20854)"
         id="g52"><path
           inkscape:connector-curvature="0"
           id="path54"
           d="M 0,0 C -1.9616674,29.468982 -2.2263109,59.023753 -1.6297302,88.543365 -1.5543055,94.130657 -1.414571,99.717152 -1.204,105.301 2.8266259,105.14627 6.8573482,104.99406 10.888,104.84 10.128747,88.384794 10.259104,71.905041 11.115835,55.457515 11.970463,36.687234 11.447768,17.879328 10.552,-0.879 7.0362817,-0.69782019 3.522297,-0.47791938 0.014,-0.185 L 0,0 Z M 0.414,0.214 C 2.9678783,0.14411197 8.5887801,1.3752555 9.3076189,0.38316111 8.1968872,2.6308597 8.7772159,9.1550024 8.376,12.974 7.8307406,29.295123 7.8063551,45.636214 8.6852329,61.946108 9.3798738,75.884124 9.2300563,89.84831 8.667,103.788 10.630368,102.45888 8.7983122,102.61794 7.4089393,102.60343 5.0059596,102.51195 2.6029798,102.42048 0.2,102.329 2.8641538,105.98836 1.3445291,99.024258 1.85775,97.301 2.3941959,72.708272 2.5958265,48.099486 1.6120947,23.514658 1.3308436,15.742284 0.95566894,7.9727746 0.414,0.214 Z"
           style="fill:#333333;fill-opacity:1;fill-rule:nonzero;stroke:none" /></g><g
         transform="translate(453.8887,534.44434)"
         id="g56"><path
           inkscape:connector-curvature="0"
           id="path58"
           d="M 0,0 C -1.5078052,17.553228 -2.0102268,35.186245 -1.9149766,52.799691 -1.7444954,60.534993 -1.6767855,68.272743 -1.42,76.006 3.7402405,75.831302 8.896401,75.564187 14.053,75.307 13.414077,63.171556 13.275159,51.00214 14.177884,38.874839 15.044539,25.5209 14.709283,12.119842 14.004,-1.233 9.3356127,-0.97774663 4.666814,-0.68880923 0.018,-0.181 L 0.00236154,-0.0237466 0,0 Z M 0.418,0.219 C 4.5720483,0.66549702 8.7419579,0.94272845 12.913,1.171 10.910501,-1.6521826 11.874157,3.2420924 11.524,4.642 11.020489,16.821635 10.919444,29.029575 11.783375,41.195697 12.539455,52.206779 12.383901,63.252653 11.818,74.268 12.924803,73.411075 13.037105,72.937435 11.492493,73.102377 7.7291237,72.915208 3.9662195,72.716345 0.2,72.594 1.1777595,73.585976 2.4128071,75.219799 1.9252265,72.527344 2.3440002,56.53301 2.5822448,40.525413 1.8815729,24.534611 1.5843208,16.419228 1.1458484,8.3078204 0.418,0.219 Z"
           style="fill:#333333;fill-opacity:1;fill-rule:nonzero;stroke:none" /></g><g
         transform="translate(535.2539,592.20854)"
         id="g60"><path
           inkscape:connector-curvature="0"
           id="path62"
           d="M 0,0 C -1.9542914,29.397689 -2.2283836,58.881038 -1.6328156,88.329319 -1.5574631,93.987975 -1.4174685,99.645848 -1.204,105.301 2.8266259,105.14627 6.8573482,104.99406 10.888,104.84 10.12166,88.313392 10.266016,71.762393 11.124968,55.24364 11.967116,36.544299 11.444695,17.808122 10.552,-0.879 7.0362781,-0.69787719 3.5223014,-0.47786036 0.014,-0.185 L 0,0 Z M 0.414,0.214 C 2.9680959,0.14401279 8.588404,1.3756164 9.3078899,0.38288989 8.1978885,2.6324935 8.7776954,9.1546881 8.376,12.974 7.829499,29.295083 7.8073433,45.636224 8.685233,61.946109 9.3798846,75.884122 9.2304311,89.848316 8.667,103.788 10.630368,102.45888 8.798312,102.61794 7.4089392,102.60343 5.0059594,102.51195 2.6029797,102.42048 0.2,102.329 2.8641464,105.98836 1.3445662,99.024263 1.857625,97.301 2.3946257,72.708263 2.5960283,48.099476 1.6117234,23.514658 1.3309423,15.742258 0.95536626,7.9728042 0.414,0.214 Z"
           style="fill:#333333;fill-opacity:1;fill-rule:nonzero;stroke:none" /></g><g
         transform="translate(533.6787,534.44434)"
         id="g64"><path
           inkscape:connector-curvature="0"
           id="path66"
           d="M 0,0 C -1.508487,17.553227 -2.0105193,35.18622 -1.9152207,52.799691 -1.7439808,60.534972 -1.677192,68.272731 -1.421,76.006 3.7395757,75.831354 8.8960682,75.564194 14.053,75.307 13.413244,63.17155 13.2758,51.002192 14.17789,38.874839 15.043852,25.520914 14.709074,12.119901 14.005,-1.233 9.3362783,-0.9777854 4.6671396,-0.68889028 0.018,-0.181 L 0.00236158,-0.02374695 0,0 Z M 0.419,0.219 C 4.5727081,0.66557046 8.7422922,0.94270316 12.913,1.171 10.910502,-1.6521799 11.874157,3.2420911 11.524,4.642 11.019785,16.821613 10.919636,29.029588 11.783375,41.195697 12.538362,52.20675 12.385247,63.252716 11.818,74.268 12.924799,73.411077 13.037108,72.937435 11.492496,73.102377 7.7291265,72.915195 3.966219,72.71638 0.2,72.594 1.1777598,73.585977 2.4128059,75.219796 1.9252265,72.527344 2.3440001,56.533013 2.5822448,40.525418 1.8815732,24.534619 1.5862054,16.419165 1.1442391,8.3079787 0.419,0.219 Z"
           style="fill:#333333;fill-opacity:1;fill-rule:nonzero;stroke:none" /></g><g
         transform="translate(461.9106,720.52294)"
         id="g68"><path
           inkscape:connector-curvature="0"
           id="path70"
           d="m 0,0 c -5.4884168,0.11962006 -8.053714,-5.9911485 -6.8868514,-10.679954 0.2528119,-7.65762 0.6755369,-15.308127 1.0158514,-22.962046 -3.1386666,2.633852 3.5939779,1.321476 5.09447727,1.706102 1.31579496,0.191311 6.36339053,0.731558 3.24326223,-1.398363 -0.9060032,3.290688 -0.1425566,6.8806 -0.4755381,10.287887 0.34485,2.036293 -0.7972308,6.149145 0.5015873,6.852227 12.4255633,-4.492282 25.8001013,-5.162548 38.8878233,-5.327577 9.784458,0.174754 19.712633,0.693075 29.192874,3.28377 2.553076,1.238033 4.021169,1.08204 3.218584,-2.071735 -0.125616,-4.444106 -0.251426,-8.888206 -0.37707,-13.332311 -1.050546,1.971152 4.192401,-0.05662 5.469588,0.743345 2.28228,0.04889 5.643628,-1.354431 4.518554,2.248741 -0.06258,8.394479 0.135086,16.837283 -0.695955,25.190617 -1.068807,3.6440511 -5.266865,4.75097249 -8.626331,4.1459644 C 54.184598,-2.1273867 34.284781,-1.0735018 14.410346,-0.21934088 9.6082182,-0.07914145 4.8041033,-0.01237371 0,0 Z M 0,0.4 C 22.759611,0.37358744 45.477607,2.6782769 68.244787,1.8664734 72.095661,1.6484737 76.104516,2.0799217 79.828179,0.95287848 83.851742,-0.69767032 85.791429,-5.427065 84.974714,-9.5501705 84.677139,-17.784905 84.589999,-26.026419 84.654,-34.266 c -4.109061,0.323 -9.490625,-0.746214 -12.807983,0.297276 -0.14437,5.035193 -0.284974,10.070493 -0.428017,15.105724 3.448165,-1.796865 -3.185522,-2.562996 -4.444741,-3.156322 C 52.705717,-25.667426 37.787693,-25.834951 23.172952,-24.84215 16.408573,-24.297853 9.6232983,-23.2124 3.253,-20.799 c 1.4448715,1.137066 3.5900425,2.725736 2.8583054,-0.327542 C 6.0686565,-25.935777 6.0001813,-30.744857 5.888,-35.553 c -4.93723468,0.07563 -9.8726025,0.252472 -14.804,0.502 0.5335978,9.81426 0.7935236,19.657229 1.3835308,29.4585961 C -6.7696659,-2.2012188 -3.5114855,0.49866358 0,0.4 Z"
           style="fill:#333333;fill-opacity:1;fill-rule:nonzero;stroke:none" /></g><g
         transform="translate(578.502,254.55224)"
         id="g72"><path
           inkscape:connector-curvature="0"
           id="path74"
           d="m 0,0 c -3.9623336,-0.00188999 -8.2423822,1.2530317 -10.752298,4.4972598 -2.904137,3.727497 -2.930019,9.2850142 -0.287099,13.1590582 2.170653,3.381221 6.1145519,5.672071 10.1837095,5.404791 C 4.3408666,22.789087 9.1554423,19.392141 11.478191,14.787309 12.975854,11.830685 12.897569,8.1315981 11.159359,5.2922344 9.3303883,2.1872534 5.7641723,0.6026691 2.3085,0.167625 1.5425326,0.06605737 0.77209663,0.02027121 0,0 Z M -0.01,0.4 C 2.6984914,0.35815938 5.2362523,1.9204724 6.681,4.1685 8.5871671,7.0856407 9.6291093,10.705629 9.113009,14.188995 8.6901205,17.25635 6.2934284,19.899079 3.2854824,20.629244 -0.4571825,21.584369 -4.5261542,19.761474 -6.823,16.769 -8.0401701,15.124041 -8.6503234,13.090224 -8.717,11.058 -8.7210215,10.692751 -8.6780756,9.3567933 -8.5062773,8.7127949 -7.7905289,5.4102248 -5.8348357,2.0004864 -2.4832656,0.84164063 -1.6969361,0.54443191 -0.81059626,0.43850766 -0.01,0.4 Z"
           style="fill:#333333;fill-opacity:1;fill-rule:nonzero;stroke:none" /></g><g
         transform="translate(571.8477,262.04244)"
         id="g76"><path
           inkscape:connector-curvature="0"
           id="path78"
           d="M 0,0 C -1.2384867,5.6930399 -1.7190054,11.526132 -1.9208035,17.339781 -2.0088857,19.906941 -1.9031024,22.474043 -1.76,25.037 3.1353145,24.807093 8.0460773,24.70309 12.904347,24.001286 13.374544,23.944685 13.844784,23.888443 14.315,23.832 13.701024,19.255749 13.422814,14.594103 14.132437,10.010766 14.663628,6.5964835 15.069975,3.1442356 14.862671,-0.31687417 14.84478,-0.81724944 14.82689,-1.3176247 14.809,-1.818 9.8520026,-1.699063 4.8572402,-1.3835222 0.036,-0.156 0.024,-0.104 0.012,-0.052 0,0 Z M 0.444,0.251 C 4.5839577,1.2664175 8.8556048,1.6222401 13.106,1.768 12.517,1.1786667 11.928,0.58933333 11.339,0 11.141914,3.4779346 11.616062,6.9376838 12.128075,10.368319 12.728181,14.517972 12.544049,18.736138 12.012,22.882 12.376667,22.517 12.741333,22.152 13.106,21.787 10.020557,21.352946 6.9148869,21.110876 3.8034522,20.974305 2.6026446,20.913195 1.401106,20.867015 0.2,20.812 c 0.69,0.69 1.38,1.38 2.07,2.07 C 2.5308623,16.806159 2.0829981,10.713652 1.2553574,4.6950989 1.0316345,3.2057736 0.7754383,1.7204697 0.444,0.251 Z"
           style="fill:#333333;fill-opacity:1;fill-rule:nonzero;stroke:none" /></g><g
         transform="translate(422.1821,254.55224)"
         id="g80"><path
           inkscape:connector-curvature="0"
           id="path82"
           d="m 0,0 c -3.9621041,-0.00163016 -8.2428555,1.2526551 -10.752304,4.4972598 -2.905004,3.7270573 -2.930366,9.2850682 -0.287509,13.1590582 2.1716108,3.38065 6.1149219,5.672939 10.18467238,5.404791 C 4.4088265,22.783424 9.286562,19.304738 11.568175,14.601355 13.035704,11.569935 12.838926,7.8027325 10.969215,4.9868918 8.9644729,1.8945842 5.2541441,0.42950567 1.708,0.104 1.1419699,0.02451734 0.56966342,0.02882154 0,0 Z M -0.01,0.4 C 2.6985111,0.35840372 5.2364601,1.9207475 6.6815,4.168625 8.5877832,7.085737 9.6303804,10.705519 9.114009,14.188995 8.6899701,17.255971 6.2937566,19.899142 3.2855234,20.628957 -0.45719675,21.58468 -4.5264011,19.760707 -6.824,16.769 -8.0401651,15.123289 -8.6500229,13.090215 -8.718,11.058 -8.7190321,10.69275 -8.6796252,9.3568487 -8.5072246,8.7127949 -7.7912463,5.4100083 -5.8345767,2.001031 -2.4832656,0.84164063 -1.6969202,0.54437542 -0.81062595,0.43844747 -0.01,0.4 Z"
           style="fill:#333333;fill-opacity:1;fill-rule:nonzero;stroke:none" /></g><g
         transform="translate(415.5273,262.04244)"
         id="g84"><path
           inkscape:connector-curvature="0"
           id="path86"
           d="M 0,0 C -1.2381236,5.6931577 -1.7185796,11.526148 -1.9217127,17.339781 -2.0085665,19.90696 -1.9031699,22.474041 -1.76,25.037 3.1359774,24.80707 8.0473949,24.703028 12.906341,24.001286 13.37654,23.944686 13.846782,23.888442 14.317,23.832 13.7014,19.255817 13.425535,14.594225 14.133875,10.010766 14.664756,6.5964405 15.072942,3.1442855 14.86367,-0.31688417 14.84578,-0.81725611 14.82789,-1.3176281 14.81,-1.818 9.8529798,-1.6994057 4.8581882,-1.3837519 0.037,-0.156 0.02466667,-0.104 0.01233333,-0.052 0,0 Z M 0.444,0.251 C 4.5846561,1.2661461 8.8568838,1.6231114 13.108,1.768 12.519,1.1786667 11.93,0.58933333 11.341,0 c -0.199357,3.4780004 0.277332,6.9376003 0.788532,10.368319 0.599165,4.149634 0.416663,8.367955 -0.116532,12.513681 0.365,-0.365 0.73,-0.73 1.095,-1.095 C 10.022183,21.353044 6.9161582,21.110866 3.8043597,20.974347 2.6032496,20.913223 1.4014086,20.867027 0.2,20.812 c 0.69,0.69 1.38,1.38 2.07,2.07 C 2.5322902,16.806189 2.0824925,10.71364 1.2553574,4.6950989 1.0316345,3.2057736 0.7754383,1.7204697 0.444,0.251 Z"
           style="fill:#333333;fill-opacity:1;fill-rule:nonzero;stroke:none" /></g><g
         transform="translate(500.3418,556.45314)"
         id="g88"><path
           inkscape:connector-curvature="0"
           id="path90"
           d="M 0,0 C 8.118527,-0.26760486 16.512244,1.8891296 24.40655,-0.76351206 34.221855,-4.0483147 39.945664,-13.43923 48.421,-18.812 c 2.740607,-1.861493 5.784518,-3.326458 9.046,-3.986 0.995011,-0.140551 2.75026,-0.245275 3.825,0.158 2.630939,1.490689 -1.785974,-4.656891 -0.852547,-0.501578 -0.505845,2.577701 -1.84366,6.671766 1.160547,3.296578 -5.405815,-0.569266 -10.395738,2.230695 -13.968842,6.074152 C 41.09422,-6.8173815 34.260123,0.31224584 25.066,3.685 12.054302,8.7821915 -2.4339146,9.4921306 -16.147193,7.3762598 -27.420199,5.5318285 -37.597142,-0.73575053 -44.90693,-9.4180093 c -4.091495,-4.5058577 -8.666558,-9.9291337 -15.326895,-9.8039267 -3.210856,-0.945961 1.804838,3.052895 -0.09207,-0.459517 0.372565,-3.359575 -1.841343,-5.896925 -1.604767,-3.200787 6.737343,-1.569446 12.925431,3.297959 17.881658,7.21324 6.793774,5.7065052 12.652722,13.4529908 21.75,15.493 C -14.972653,1.4189048 -7.4118033,-0.2187283 0,0 Z M 0,-0.4 C -8.4784129,-0.72483468 -17.603683,1.2861235 -25.450031,-2.8981094 -33.97407,-7.6429896 -38.612253,-16.86824 -46.763484,-22.127625 c -4.837857,-3.394809 -11.096336,-5.957144 -16.980918,-3.853778 -2.693896,1.018563 0.987978,6.1149 0.611402,8.557403 -0.248711,2.049954 2.153592,1.07135 3.226,1.223 6.485659,-0.215878 10.668679,5.670047 15.215371,9.6428762 8.091485,8.0964144 18.601732,13.6573911 29.886861,15.652563 C -1.9340929,11.305697 11.64084,11.640055 24.215062,7.6858438 34.014895,4.7404027 42.081124,-1.9071965 48.976339,-9.2383149 51.357816,-11.590227 53.962646,-14.143595 56.958,-15.128 c 1.757614,-1.402118 5.728525,0.74159 6.564085,-1.234659 0.620571,-3.228665 1.177302,-6.469037 1.738915,-9.708341 -3.444766,-0.929276 -7.128679,-1.513166 -10.571,-0.236 -9.757691,3.004157 -16.07325,11.489724 -22.847,18.556 C 26.994515,-2.6893622 20.069456,0.09435183 13.061066,-0.24901234 8.7060614,-0.21837567 4.3542766,-0.47185945 0,-0.4 Z"
           style="fill:#333333;fill-opacity:1;fill-rule:nonzero;stroke:none" /></g><g
         transform="translate(439.1392,538.71334)"
         id="g92"><path
           inkscape:connector-curvature="0"
           id="path94"
           d="m 0,0 c -0.61741571,-3.1279115 -0.76897596,-2.9745975 2.436,-2.133 9.635224,2.70611038 15.773711,11.1911709 22.649219,17.829859 5.796872,5.762644 13.914631,8.863843 22.06542,8.615524 9.308697,-0.287936 18.621095,-0.305196 27.927056,0.09154 8.170934,0.333008 16.403284,-2.482087 22.380157,-8.131134 C 104.60947,9.7878699 110.69288,1.1461251 120.474,-1.491 c 2.35622,0.78041609 3.12365,-1.4756793 1.91244,-0.9815738 -0.89942,1.88713464 0.4471,2.8200203 0.003,1.70331208 C 114.10315,-0.38781637 109.05422,6.9839427 103.47715,12.09834 95.694228,19.851005 85.054714,24.153034 74.215,25.198 61.901313,26.336251 49.179425,25.924332 37.335158,22.094988 28.075832,19.180168 20.600127,12.748274 13.742734,6.1302812 9.9794173,2.6786283 5.3500665,-0.42085051 0,0 Z m -0.186,0.397 c 7.7569954,0.37073961 12.460453,7.2802599 17.452077,12.276697 8.031496,8.677709 19.19169,14.034534 30.850298,15.613053 14.377462,1.958871 29.611549,0.688713 42.767945,-5.754604 8.381262,-3.907752 14.61037,-10.873864 21.30493,-17.0097961 3.15102,-2.8289406 7.29006,-4.65906491 11.58575,-4.3243499 0.34946,-1.60475582 0.69476,-3.2104142 1.045,-4.815 -7.03263,-1.4797824 -13.62099,2.93849947 -18.904,7.0692061 C 99.338945,8.883013 93.586725,16.63111 85.339,19.039 76.808963,21.396618 67.907286,19.350481 59.210063,19.816656 50.234431,19.916588 40.415651,21.865354 32.290625,16.929125 23.829756,11.897838 18.105363,3.1859304 9.089375,-1.073625 5.9155797,-2.541903 2.3410328,-3.7921978 -1.193,-3.073 c 0.37743974,1.0936111 0.43971214,2.60652988 1.007,3.47 z"
           style="fill:#333333;fill-opacity:1;fill-rule:nonzero;stroke:none" /></g><g
         transform="translate(404.1494,542.86574)"
         id="g96"><path
           inkscape:connector-curvature="0"
           id="path98"
           d="M 0,0 C -17.23002,0.41630611 -31.469632,-16.351284 -29.161656,-33.270422 -28.294052,-102.06522 -27.477727,-170.8645 -27.36,-239.663 c 0.549278,-15.31323 15.47032,-27.05804 30.3447344,-25.672 64.0613466,-0.12879 128.1293356,-0.54737 192.1843856,-0.89046 19.58342,1.21654 29.23455,22.19194 26.08838,39.70912 0.35401,66.43364 -0.38492,132.872135 -1.10594,199.297137 -0.86105,16.03504 -16.73473,27.34356158 -32.09685,25.6495443 C 125.36729,-1.4010112 62.688972,0.07387353 0,0 Z m 0,0.4 c 65.061527,-0.16981075 130.11927,1.6938292 195.175,1.453 17.87328,-1.13216071 30.99657,-19.123141 28.48262,-36.504375 -0.70531,-68.791185 -1.1815,-137.591655 -1.07636,-206.381725 -1.24159,-17.6298 -19.07924,-29.8618 -35.98402,-27.54548 -63.49511,-0.44969 -127.025415,-1.12225 -190.50424,-0.70542 -17.544466,1.73605 -29.995982,19.39933 -27.828377,36.51938 0.131011,69.13682 0.64917,138.302408 2.068377,207.41062 C -27.828479,-10.949049 -14.544606,0.63352061 0,0.4 Z"
           style="fill:#333333;fill-opacity:1;fill-rule:nonzero;stroke:none" /></g><g
         transform="translate(410.3628,488.70804)"
         id="g100"><path
           inkscape:connector-curvature="0"
           id="path102"
           d="M 0,0 C -12.098985,-0.73687407 -8.9900435,-15.065826 -9.1435781,-23.27225 -8.5100164,-75.522278 -7.4044472,-127.77924 -7.259,-180.026 c 5.2389223,-11.72801 21.860121,-3.82238 31.95925,-6.16663 52.698089,-0.001 105.42866,-0.66235 158.10306,-0.79164 10.44003,3.54293 5.39351,16.41013 6.74777,24.4374 0.4022,51.6095 0.0489,103.246034 -1.00833,154.833245 -3.85509,10.5102791 -17.13036,4.6510107 -25.43827,6.128717 C 108.7302,-1.7827481 54.373568,0.07748496 0,0 Z m 0,0.4 c 60.761855,-0.0975481 121.51866,2.2671868 182.276,1.414 10.31869,-1.22451313 10.55056,-13.187158 9.55856,-21.111078 -0.88343,-53.716559 -1.01061,-107.459952 -0.67556,-161.168922 -2.26713,-12.21002 -17.07668,-8.48278 -25.89856,-9.1017 -55.68804,-0.50751 -111.402825,-1.00173 -167.08044,-0.7143 -10.355414,1.43186 -10.614034,13.40635 -9.750039,21.45601 0.03474,53.75932 1.373849,107.522437 1.996039,161.26499 C -8.804895,-3.053917 -4.5803558,0.46795649 0,0.4 Z"
           style="fill:#333333;fill-opacity:1;fill-rule:nonzero;stroke:none" /></g><g
         transform="translate(404.6064,441.77974)"
         id="g104"><path
           inkscape:connector-curvature="0"
           id="path106"
           d="M 0,0 C -1.5155151,2.729266 -2.4342912,5.7586618 -2.9934604,8.8177315 -3.0424197,9.338899 -3.6153031,9.260108 -3.4994365,9.2997894 -4.6032949,8.8603437 -4.4050693,7.1715942 -5.0032125,6.2202884 -5.8694083,3.9452702 -6.3464963,1.4756353 -5.935,-0.95 c 0.5094342,-0.8000812 1.5348788,-1.5495437 2.5966298,-1.6844144 1.5342639,-0.232218 2.9906364,0.9806706 3.27523082,2.45000436 L 0,0 Z m 0.397,0.049 c 1.3626796,-1.7776482 0.36630874,-4.4553533 -1.4741268,-5.4748035 -2.1753591,-1.3928742 -5.4884185,-0.6429575 -6.6176092,1.747799 -0.6655648,1.2963144 -0.5279479,2.84287146 0.057914,4.1368531 0.8247349,2.4990846 0.5242433,5.1492706 0.2444503,7.7098814 -0.1161928,0.9733443 -0.1403957,2.022434 0.4748621,3.043144 1.1956378,2.134603 4.2908043,2.83787 6.2599607,1.358201 1.31129258,-0.882608 1.9760182,-2.4763 1.8786145,-4.0295629 C 1.3142323,5.6924477 1.1523749,2.8085524 0.397,0.049 Z"
           style="fill:#333333;fill-opacity:1;fill-rule:nonzero;stroke:none" /></g><g
         transform="translate(401.2598,442.85594)"
         id="g108"><path
           inkscape:connector-curvature="0"
           id="path110"
           d="M 0,0 C 0.99006267,0.08081755 2.0639497,0.4520687 2.9885632,-0.10674794 4.2557764,-0.8429368 4.5397646,-2.6538477 3.8642359,-3.8868806 3.2360016,-5.0612003 1.8438863,-6.0056192 0.47947088,-5.651426 c -1.22167928,0.4166247 -2.16440908,1.3447106 -3.25525328,1.9976295 -0.5501062,0.5371144 -1.169113,1.2059556 -1.0318097,2.0409976 0.050057,1.04107537 1.0380897,1.82235126 2.0486991,1.77730346 C -1.1650948,0.19611309 -0.5895624,-0.00355864 0,0 Z M 0.02,-0.399 C -0.75937647,-0.41510541 -0.85279558,-1.4866115 -0.43053901,-1.9731452 -0.21333834,-2.452458 -1.283287,-2.6727031 -1.0390362,-3.2767698 -0.72218702,-3.935411 0.08921119,-3.4146662 0.24643935,-2.9118824 0.21219925,-2.5365822 -0.20725579,-2.0856793 0.37977482,-2.0392627 0.77945085,-1.5375275 0.79131568,-0.54012543 0.02,-0.399 Z"
           style="fill:#333333;fill-opacity:1;fill-rule:nonzero;stroke:none" /></g><g
         transform="translate(501.1201,419.53854)"
         id="g112"><path
           inkscape:connector-curvature="0"
           id="path114"
           d="m 0,0 c -2.3207004,0.02843193 -4.8254655,-0.20088564 -6.9062147,1.0395497 -2.5496634,1.4824314 -3.4705763,5.1073254 -1.9776482,7.6435866 1.5251197,2.7226477 4.8123564,4.2419307 7.8803663,3.9008577 C 1.4145838,12.309575 3.728282,11.391249 5.8289152,10.187222 7.4522146,9.2638976 8.917092,7.7559198 9.1296863,5.8207084 9.4152227,3.5931649 7.9520858,1.3558851 5.8566255,0.60566545 3.9999939,-0.12779313 1.951886,0.08185222 0,0 Z M -0.008,0.4 C 1.9637487,0.34165375 3.7019393,1.6715261 4.6609889,3.3149245 5.4554646,4.5846102 6.2147772,6.1089993 5.7874925,7.6391226 5.222487,9.4951575 3.2107765,10.520822 1.3563116,10.432094 -0.48116729,10.367682 -2.2105118,9.5488542 -3.7039767,8.5274942 -4.8977356,7.6426145 -5.7461981,6.0064333 -5.1329712,4.5409123 -4.4454492,2.4484647 -2.6258014,0.57441651 -0.33961754,0.42213751 -0.229307,0.41174557 -0.1187133,0.40435656 -0.008,0.4 Z"
           style="fill:#333333;fill-opacity:1;fill-rule:nonzero;stroke:none" /></g></g></g></svg>