<?xml version="1.0" encoding="UTF-8" standalone="no"?>
<!-- Created with Inkscape (http://www.inkscape.org/) -->

<svg
   xmlns:dc="http://purl.org/dc/elements/1.1/"
   xmlns:cc="http://creativecommons.org/ns#"
   xmlns:rdf="http://www.w3.org/1999/02/22-rdf-syntax-ns#"
   xmlns:svg="http://www.w3.org/2000/svg"
   xmlns="http://www.w3.org/2000/svg"
   xmlns:sodipodi="http://sodipodi.sourceforge.net/DTD/sodipodi-0.dtd"
   xmlns:inkscape="http://www.inkscape.org/namespaces/inkscape"
   id="svg2"
   version="1.1"
   inkscape:version="0.91 r13725"
   xml:space="preserve"
   width="852.45764"
   height="720.04236"
   viewBox="0 0 852.45764 720.04236"
   sodipodi:docname="ballon.svg"><metadata
     id="metadata8"><rdf:RDF><cc:Work
         rdf:about=""><dc:format>image/svg+xml</dc:format><dc:type
           rdf:resource="http://purl.org/dc/dcmitype/StillImage" /><dc:title></dc:title></cc:Work></rdf:RDF></metadata><defs
     id="defs6"><clipPath
       clipPathUnits="userSpaceOnUse"
       id="clipPath16"><path
         d="m 0,1000 1000,0 L 1000,0 0,0 0,1000 Z"
         id="path18"
         inkscape:connector-curvature="0" /></clipPath><clipPath
       clipPathUnits="userSpaceOnUse"
       id="clipPath36"><path
         d="m 0,1000 1000,0 L 1000,0 0,0 0,1000 Z"
         id="path38"
         inkscape:connector-curvature="0" /></clipPath><clipPath
       clipPathUnits="userSpaceOnUse"
       id="clipPath104"><path
         d="m 0,1000 1000,0 L 1000,0 0,0 0,1000 Z"
         id="path106"
         inkscape:connector-curvature="0" /></clipPath><clipPath
       clipPathUnits="userSpaceOnUse"
       id="clipPath128"><path
         d="m 0,1000 1000,0 L 1000,0 0,0 0,1000 Z"
         id="path130"
         inkscape:connector-curvature="0" /></clipPath></defs><sodipodi:namedview
     pagecolor="#ffffff"
     bordercolor="#666666"
     borderopacity="1"
     objecttolerance="10"
     gridtolerance="10"
     guidetolerance="10"
     inkscape:pageopacity="0"
     inkscape:pageshadow="2"
     inkscape:window-width="1319"
     inkscape:window-height="744"
     id="namedview4"
     showgrid="false"
     inkscape:zoom="0.3776"
     inkscape:cx="393.12501"
     inkscape:cy="466.61544"
     inkscape:window-x="47"
     inkscape:window-y="24"
     inkscape:window-maximized="1"
     inkscape:current-layer="g10"
     fit-margin-top="0"
     fit-margin-left="0"
     fit-margin-right="0"
     fit-margin-bottom="0" /><g
     id="g10"
     inkscape:groupmode="layer"
     inkscape:label="ballon"
     transform="matrix(1.25,0,0,-1.25,-198.77117,958.53813)"><g
       id="g4360"
       transform="translate(43.415935,-19.067797)"><g
         transform="translate(-197.0339,4.2372881)"
         id="g12"><g
           clip-path="url(#clipPath16)"
           id="g14"><g
             transform="translate(490.9233,503.6543)"
             id="g20"><path
               inkscape:connector-curvature="0"
               id="path22"
               style="fill:#fff168;fill-opacity:1;fill-rule:evenodd;stroke:none"
               d="m 0,0 c 0,0 -61.288,-6.908 -81.08,36.359 -19.793,43.267 36.821,81.649 65.607,51.903 C 13.313,58.516 8.755,7.694 0,0" /></g><g
             transform="translate(520.166,530.3281)"
             id="g24"><path
               inkscape:connector-curvature="0"
               id="path26"
               d="m 0,0 c -27.834892,10.49086 -48.443938,36.651281 -53.610653,65.77147 -4.165003,19.969057 -0.619298,41.66361 10.090519,59.0657 10.303679,16.85963 29.72814,26.21452 49.0502877,27.43858 C 20.231956,153.85808 34.904461,146.66809 45.007552,136.31676 58.473037,122.10165 63.438078,101.80537 63.569477,82.703089 61.056721,65.388264 51.362699,50.180682 41.884331,35.852487 35.411806,26.659673 29.058871,17.138509 19.92542,10.339794 14.058794,6.0874605 7.7481247,-0.33118786 0,0 Z"
               style="fill:#ff8989;fill-opacity:1;fill-rule:evenodd;stroke:none" /></g><g
             transform="translate(545.7773,468.2979)"
             id="g28"><path
               inkscape:connector-curvature="0"
               id="path30"
               style="fill:#78d6ff;fill-opacity:1;fill-rule:evenodd;stroke:none"
               d="m 0,0 c 0,0 -25.229,56.449 17.951,90.993 43.18,34.544 62.371,-28.787 62.371,-28.787 0,0 10.358,-69.431 -82.619,-63.021" /></g></g></g><g
         transform="translate(-197.0339,4.2372881)"
         id="g32"><g
           clip-path="url(#clipPath36)"
           id="g34"><g
             transform="translate(545.0527,466.7754)"
             id="g40"><path
               inkscape:connector-curvature="0"
               id="path42"
               style="fill:#000000;fill-opacity:1;fill-rule:nonzero;stroke:none"
               d="m 0,0 c 0.008,-0.357 0.033,-0.718 0.177,-1.054 0.065,-0.163 0.141,-0.34 0.232,-0.507 0.046,-0.08 0.083,-0.194 0.124,-0.294 0.041,-0.104 0.09,-0.206 0.1,-0.342 0.017,-0.13 0.036,-0.268 0.041,-0.407 L 0.611,-2.99 C 0.589,-3.123 0.557,-3.264 0.509,-3.354 L 0.373,-3.669 C 0.182,-4.111 -0.07,-4.364 -0.317,-4.705 L -0.34,-4.736 -0.439,-4.812 C -0.516,-4.871 -0.646,-4.95 -0.695,-4.973 -0.754,-5.002 -0.83,-5.035 -0.871,-5.049 -0.976,-5.089 -1.055,-5.112 -1.137,-5.136 -1.289,-5.178 -1.423,-5.211 -1.553,-5.232 l -0.363,-0.061 -0.148,-0.019 c -0.009,0 -0.048,-0.006 -0.028,-10e-4 l 0.061,0.019 c 0.033,0.012 0.066,0.025 0.097,0.042 l 0.069,0.037 c 0.089,0.052 0.185,0.127 0.269,0.227 0.176,0.199 0.254,0.485 0.246,0.676 l -0.161,0.568 c 0.062,-0.111 0.116,-0.228 0.165,-0.345 0.046,-0.137 0.082,-0.291 0.106,-0.444 0.03,-0.347 -0.018,-0.863 -0.445,-1.247 -0.185,-0.174 -0.399,-0.264 -0.609,-0.324 -0.102,-0.022 -0.21,-0.035 -0.316,-0.04 -0.111,-0.005 -0.223,0 -0.228,0.007 l -0.264,0.049 -0.252,0.07 c -0.335,0.095 -0.683,0.253 -0.992,0.489 -0.319,0.219 -0.564,0.564 -0.716,0.905 -0.303,0.711 -0.202,1.386 -0.084,1.955 0.121,0.579 0.304,1.104 0.477,1.642 l 0.28,0.826 c 0.135,0.283 0.18,0.572 0.616,0.923 0.068,0.045 0.173,0.089 0.267,0.119 0.125,0.027 0.298,0.033 0.442,-0.01 0.15,-0.05 0.317,-0.146 0.4,-0.251 0.09,-0.084 0.202,-0.303 0.193,-0.283 L -2.417,0.21 C -2.442,0.297 -2.38,0.088 -2.386,0.109 l 0.001,-0.002 0.003,-0.003 0.005,-0.006 0.01,-0.012 0.02,-0.025 0.072,-0.094 c 0.101,-0.096 0.123,-0.047 0.041,-0.009 -0.065,0.019 0.019,-0.008 0.168,0.021 0.15,0.015 0.349,0.089 0.56,0.16 0.409,0.166 0.896,0.431 1.083,0.854 L 0.041,2.036 -0.034,0.997 C -0.058,0.667 -0.045,0.341 0,0.02 L 0,0.017 0,0 Z m -0.198,-0.008 c -0.04,0.322 -0.114,0.641 -0.224,0.953 l 0.389,0.005 c 0.008,-0.644 -0.21,-1.265 -0.574,-1.818 -0.196,-0.271 -0.424,-0.529 -0.77,-0.719 -0.336,-0.179 -0.799,-0.344 -1.389,-0.175 -0.611,0.201 -0.92,0.728 -1.028,1.112 l -0.05,0.287 -0.011,0.07 -0.004,0.036 -0.003,0.018 -10e-4,0.009 -10e-4,0.003 c -0.007,0.024 0.055,-0.184 0.028,-0.094 L -3.85,-0.22 c -0.023,0.086 0.036,-0.087 0.09,-0.114 0.053,-0.04 0.145,-0.122 0.242,-0.134 0.083,-0.022 0.185,-0.021 0.246,0.005 0.03,0.007 0.07,0.035 0.079,0.051 -0.026,0.072 -0.299,-0.092 -0.448,-0.255 -0.179,-0.167 -0.322,-0.379 -0.438,-0.603 -0.23,-0.449 -0.323,-0.971 -0.282,-1.457 0.043,-0.485 0.261,-0.933 0.534,-1.132 0.262,-0.204 0.513,-0.281 0.889,-0.321 l 0.139,-0.011 c -0.02,0.003 0.069,-0.008 -0.041,0.006 l 0.026,-0.001 0.049,0 0.101,0 c 0.061,-0.006 0.016,0.012 -0.029,0.017 -0.04,0.005 -0.081,0.002 -0.12,-0.009 -0.089,-0.013 -0.167,-0.054 -0.263,-0.134 -0.208,-0.205 -0.243,-0.42 -0.225,-0.51 -0.01,-0.025 -0.006,-0.048 -0.002,-0.059 -0.013,0.001 -0.018,0.004 -0.017,0.011 l -0.16,0.569 c -0.003,0.196 0.079,0.488 0.259,0.692 0.087,0.102 0.187,0.18 0.278,0.234 l 0.079,0.042 0.137,0.057 c 0.126,0.041 0.092,0.026 0.146,0.042 l 0.144,0.031 0.197,0.037 0.33,0.048 0.268,0.04 0.072,0.012 c 0.014,0.002 -0.01,-0.005 -0.016,-0.012 0.006,-0.002 -0.077,-0.043 -0.103,-0.074 L -1.811,-3.26 c 0.218,0.217 0.518,0.453 0.721,0.624 0.111,0.082 0.254,0.193 0.322,0.252 l 0.149,0.117 0.103,0.136 c 0.047,0.043 0.067,0.123 0.088,0.199 0.02,0.081 0.049,0.149 0.063,0.248 0.035,0.192 0.035,0.372 0.07,0.572 0.029,0.193 0.023,0.381 0.057,0.568 0.022,0.187 0.034,0.371 0.039,0.556 l 0.001,-0.02 z" /></g><g
             transform="translate(545.9023,468.3994)"
             id="g44"><path
               inkscape:connector-curvature="0"
               id="path46"
               style="fill:#000000;fill-opacity:1;fill-rule:nonzero;stroke:none"
               d="m 0,0 0.094,0.015 0.07,-0.057 C 0.41,-0.154 0.668,-0.27 0.894,-0.416 1.117,-0.565 1.322,-0.754 1.518,-0.948 1.614,-1.052 1.704,-1.178 1.789,-1.301 1.879,-1.417 1.955,-1.554 2.021,-1.737 2.082,-1.912 2.154,-2.058 2.162,-2.339 2.165,-2.467 2.168,-2.587 2.152,-2.722 2.113,-2.885 2.055,-3.054 1.976,-3.207 1.61,-3.872 0.832,-4.055 0.49,-4.008 c -0.42,0.015 -0.72,0.129 -1.009,0.246 -0.572,0.236 -0.969,0.646 -1.311,1.138 -0.197,0.271 -0.244,0.4 -0.433,0.69 -0.118,0.229 -0.276,0.408 -0.426,0.629 -0.172,0.198 -0.352,0.426 -0.528,0.724 -0.058,0.175 -0.137,0.356 -0.144,0.576 0.02,0.224 0.035,0.477 0.175,0.681 0.245,0.454 0.665,0.643 1.02,0.732 0.355,0.07 0.696,0.066 1.008,-0.028 0.31,-0.082 0.611,-0.244 0.855,-0.484 C -0.17,0.753 -0.086,0.651 0.01,0.418 0.094,0.216 0.049,0.111 0,0 m -0.222,-0.128 c -0.115,0.088 -0.252,0.214 -0.329,0.137 -0.037,-0.036 -0.181,-0.035 -0.24,-0.05 -0.183,-0.044 -0.338,-0.061 -0.501,-0.122 -0.157,-0.038 -0.29,-0.102 -0.394,-0.138 -0.079,-0.063 -0.125,-0.069 -0.138,-0.019 -0.051,0.069 -0.155,0.064 -0.264,-0.083 -0.063,-0.159 -0.099,-0.38 -0.019,-0.586 0.044,-0.211 0.211,-0.383 0.359,-0.542 0.094,-0.085 0.4,-0.28 0.58,-0.287 0.186,-0.044 0.426,-0.069 0.623,-0.091 l 0.559,-0.069 c 0.165,-0.008 0.331,0.004 0.382,0.042 0.127,0.029 -0.16,0.057 -0.285,-0.21 C 0.076,-2.189 0.062,-2.25 0.068,-2.304 0.064,-2.322 0.061,-2.323 0.066,-2.335 c 0.036,-0.042 0.026,0.038 0.031,0.091 0.039,0.102 -0.035,0.322 -0.034,0.514 -0.081,0.415 -0.17,0.89 -0.217,1.44 l 0.068,-0.057 -0.105,0.196 -0.031,0.023 z" /></g><g
             transform="translate(523.4258,528.9697)"
             id="g48"><path
               inkscape:connector-curvature="0"
               id="path50"
               style="fill:#000000;fill-opacity:1;fill-rule:nonzero;stroke:none"
               d="m 0,0 0.098,-0.078 c 0.08,-0.059 0.109,-0.129 0.22,-0.23 0.161,-0.194 0.571,-0.469 0.813,-1.009 0.098,-0.285 0.14,-0.556 -0.024,-1.02 C 1.071,-2.439 1.024,-2.555 0.982,-2.644 L 0.89,-2.787 C 0.858,-2.835 0.818,-2.878 0.783,-2.925 L 0.77,-2.941 0.766,-2.946 0.639,-3.098 0.629,-3.105 0.593,-3.136 C 0.543,-3.177 0.49,-3.215 0.436,-3.249 0.318,-3.326 0.215,-3.369 0.123,-3.394 c -0.414,-0.119 -0.642,-0.048 -0.846,-0.002 -0.199,0.056 -0.359,0.122 -0.502,0.205 -0.293,0.146 -0.496,0.406 -0.683,0.656 -0.092,0.128 -0.184,0.247 -0.28,0.366 -0.148,0.145 -0.199,0.264 -0.308,0.396 -0.18,0.257 -0.363,0.67 -0.294,1.103 0.052,0.416 0.237,0.785 0.47,0.982 0.234,0.208 0.506,0.297 0.767,0.287 0.541,-0.041 0.949,-0.349 1.185,-0.443 0.264,-0.113 0.343,-0.15 0.355,-0.15 l 0.007,0 L 0,0 Z m -0.086,-0.183 c -0.031,0.01 -0.158,0.074 -0.314,0.002 -0.095,-0.044 -0.217,-0.131 -0.323,-0.274 -0.107,-0.137 -0.205,-0.316 -0.3,-0.454 -0.099,-0.136 -0.204,-0.221 -0.338,-0.25 -0.134,-0.035 -0.306,0.016 -0.478,0.013 -0.169,0.011 -0.29,-0.131 -0.165,-0.275 0.056,-0.055 0.154,-0.144 0.231,-0.128 0.115,-0.019 0.244,-0.026 0.376,-0.017 0.262,0.012 0.526,0.066 0.71,0.059 0.095,0.005 0.177,0.012 0.222,0.034 0.035,0.016 0.059,0.071 -0.131,0.037 -0.031,-0.01 -0.082,-0.027 -0.154,-0.065 -0.03,-0.018 -0.059,-0.038 -0.085,-0.061 l -0.019,-0.019 -0.003,-0.005 c 0.023,0.029 -0.235,-0.279 -0.125,-0.147 l 0.003,0.004 0.011,0.019 c 0.031,0.05 0.057,0.103 0.091,0.148 l 0.101,0.138 c 0.004,0.013 -0.009,0.003 -0.007,0.003 0.019,-0.063 0.092,0.085 0.23,0.177 0.116,0.115 0.279,0.256 0.364,0.401 0.113,0.15 0.144,0.283 0.167,0.399 10e-4,0.09 -0.013,0.201 -0.037,0.214 -0.016,0.028 -0.025,0.042 -0.027,0.047" /></g><g
             transform="translate(523.249,528.3047)"
             id="g52"><path
               inkscape:connector-curvature="0"
               id="path54"
               style="fill:#000000;fill-opacity:1;fill-rule:nonzero;stroke:none"
               d="m 0,0 -0.19,-0.505 c -0.026,-0.108 -0.097,-0.25 -0.077,-0.314 0.002,-0.037 0,-0.068 -0.004,-0.094 l 0.022,-0.195 0.009,-0.098 0.002,-0.024 c 0.01,0.084 0.007,0.011 0.01,0.025 l 0.012,-0.04 0.048,-0.155 c 0.022,-0.104 0.07,-0.198 0.115,-0.286 0.036,-0.091 0.081,-0.176 0.142,-0.251 0.103,-0.155 0.221,-0.29 0.361,-0.405 0.278,-0.225 0.602,-0.416 0.968,-0.532 0.18,-0.059 0.366,-0.113 0.536,-0.137 0.084,-0.02 0.165,-0.023 0.215,-0.024 0.004,0.004 0.076,-0.003 0.017,0.001 C 2.166,-3.035 2.158,-3.038 2.13,-3.046 2.005,-3.066 1.873,-3.132 1.78,-3.219 L 1.612,-3.387 c 0.102,0.117 0.232,0.227 0.369,0.307 0.158,0.09 0.186,0.082 0.289,0.118 0.19,0.058 0.306,0.059 0.439,0.062 C 2.965,-2.903 3.199,-2.958 3.45,-3.078 3.706,-3.203 3.978,-3.441 4.138,-3.787 4.2,-3.947 4.237,-4.123 4.253,-4.294 4.258,-4.441 4.237,-4.562 4.214,-4.695 4.159,-4.958 4.076,-5.068 3.991,-5.251 3.909,-5.376 3.826,-5.486 3.739,-5.6 3.571,-5.786 3.398,-5.964 3.229,-6.095 2.888,-6.376 2.558,-6.6 2.21,-6.808 1.858,-7.014 1.5,-7.194 1.157,-7.325 L 0.599,-7.543 C 0.403,-7.611 0.206,-7.674 0.005,-7.722 c -0.402,-0.097 -0.806,-0.167 -1.219,-0.189 -0.412,-0.005 -0.836,-0.028 -1.28,0.199 -0.213,0.103 -0.462,0.33 -0.508,0.653 -0.044,0.314 0.065,0.558 0.167,0.78 l 0.027,0.036 c -0.005,0.058 -0.007,0.085 -0.039,0.129 -0.028,0.055 -0.066,0.119 -0.138,0.216 l -0.225,0.303 c -0.084,0.124 -0.182,0.236 -0.283,0.497 -0.053,0.135 -0.07,0.198 -0.092,0.261 l -0.016,0.05 -0.007,0.025 -0.005,0.013 -0.002,0.006 -10e-4,0.004 0,10e-4 -0.008,0.102 -0.018,0.105 c -0.024,0.138 -0.041,0.276 -0.056,0.415 -0.014,0.136 -0.025,0.281 -0.027,0.429 -0.004,0.152 -0.006,0.286 0.005,0.452 l 0.055,0.492 c 0.037,0.178 0.083,0.353 0.132,0.526 0.131,0.346 0.296,0.655 0.486,0.91 0.183,0.272 0.39,0.471 0.592,0.695 0.2,0.207 0.421,0.398 0.637,0.59 l 0.219,0.195 0.085,-0.004 c 0.451,-0.017 0.903,-0.045 1.368,-0.14 L 0,0 Z m -0.938,-0.617 c -0.128,-0.064 -0.249,-0.145 -0.377,-0.204 l 0.304,0.191 c -0.112,-0.257 -0.22,-0.515 -0.349,-0.756 -0.1,-0.242 -0.229,-0.488 -0.311,-0.706 -0.037,-0.109 -0.093,-0.217 -0.125,-0.319 -0.019,-0.1 -0.047,-0.193 -0.076,-0.286 -0.008,-0.1 -0.018,-0.196 -0.037,-0.29 l -0.014,-0.339 -0.014,-0.382 -0.031,-0.404 c -0.013,-0.14 -0.029,-0.28 -0.052,-0.419 l -0.018,-0.105 c 0.006,-0.091 -0.008,0.122 -0.006,0.1 l 0,-0.002 0,-0.003 0,-0.007 -10e-4,-0.013 -10e-4,-0.026 -0.002,-0.053 c -0.003,-0.075 -0.004,-0.151 -0.002,-0.145 -0.019,-0.004 -0.003,-0.148 0.026,-0.277 0.03,-0.149 0.064,-0.282 0.093,-0.466 0.031,-0.16 0.051,-0.376 0.03,-0.595 -0.02,-0.245 -0.149,-0.463 -0.311,-0.642 l 0.028,0.036 c -0.184,-0.211 -0.251,-0.322 -0.025,-0.45 0.222,-0.119 0.583,-0.119 0.896,-0.032 0.323,0.075 0.63,0.244 0.908,0.438 0.14,0.093 0.273,0.203 0.402,0.313 l 0.391,0.36 0.8,0.713 c 0.247,0.234 0.508,0.459 0.704,0.691 0.109,0.113 0.171,0.226 0.244,0.32 0.015,0.04 0.041,0.081 0.058,0.112 -0.023,-0.009 0.005,0.04 -0.029,-0.038 -0.014,-0.042 -0.012,-0.07 -0.01,-0.126 -0.006,-0.081 0.016,-0.165 0.053,-0.236 0.069,-0.182 0.209,-0.286 0.295,-0.329 0.083,-0.044 0.135,-0.053 0.205,-0.058 0.04,0 0.063,0.004 0.166,0.027 0.061,0.02 0.036,0.013 0.158,0.071 0.101,0.053 0.194,0.135 0.257,0.224 L 3.121,-4.896 C 2.97,-5.008 2.778,-5.097 2.595,-5.142 2.504,-5.158 2.433,-5.165 2.349,-5.172 2.163,-5.189 2.108,-5.169 1.985,-5.162 1.783,-5.136 1.61,-5.102 1.45,-5.053 c -0.326,0.09 -0.613,0.231 -0.896,0.38 -0.275,0.169 -0.538,0.353 -0.778,0.577 -0.241,0.218 -0.456,0.477 -0.623,0.77 -0.352,0.57 -0.484,1.276 -0.384,1.883 l 0.039,0.226 0.009,0.056 0.011,0.073 0.009,0.023 0.037,0.09 0.078,0.183 c 0.035,0.062 0.072,0.118 0.11,0.175" /></g><g
             transform="translate(492.6353,502.4639)"
             id="g56"><path
               inkscape:connector-curvature="0"
               id="path58"
               style="fill:#000000;fill-opacity:1;fill-rule:nonzero;stroke:none"
               d="M 0,0 C 0.344,0.131 0.687,0.269 0.962,0.52 1.103,0.63 1.234,0.778 1.37,0.911 1.427,0.982 1.517,1.059 1.601,1.135 1.697,1.206 1.751,1.298 1.893,1.354 2.02,1.415 2.158,1.474 2.301,1.525 2.439,1.552 2.582,1.555 2.73,1.558 2.882,1.561 3.038,1.555 3.139,1.525 3.256,1.504 3.372,1.472 3.49,1.439 3.981,1.316 4.287,1.12 4.675,0.916 L 4.605,0.962 C 4.709,0.892 4.812,0.807 4.905,0.714 4.951,0.667 4.995,0.618 5.036,0.568 L 5.094,0.485 C 5.16,0.386 5.24,0.264 5.287,0.175 c 0.089,-0.176 0.17,-0.353 0.232,-0.51 0.129,-0.331 0.226,-0.631 0.307,-0.973 l -1.909,0.343 c 0.145,0.187 0.294,0.373 0.579,0.571 0.045,0.04 0.183,0.109 0.283,0.151 0.128,0.045 0.184,0.088 0.373,0.106 0.36,0.047 0.703,-0.045 0.984,-0.27 0.16,-0.117 0.184,-0.186 0.263,-0.285 0.062,-0.092 0.132,-0.203 0.164,-0.286 0.058,-0.157 0.107,-0.339 0.131,-0.486 L 6.707,-1.69 6.71,-1.747 C 6.724,-1.873 6.713,-1.82 6.716,-1.866 L 6.714,-1.999 C 6.708,-2.699 6.59,-3.479 6.146,-4.146 5.698,-4.814 4.975,-5.231 4.303,-5.367 3.627,-5.528 2.982,-5.512 2.337,-5.469 2.013,-5.443 1.689,-5.405 1.345,-5.339 1.172,-5.3 1,-5.252 0.812,-5.171 0.63,-5.088 0.418,-4.995 0.216,-4.687 0.121,-4.546 0.042,-4.282 0.091,-4.034 0.1,-3.803 0.38,-3.461 0.363,-3.479 l 0.034,0.046 0.008,0.012 c -0.016,-0.013 0.147,0.126 0.078,0.068 l 0.001,0.002 0.003,0.004 0.008,0.016 0.034,0.061 0.068,0.113 c 0.04,0.145 0.045,0.21 0.044,0.296 -0.003,0.18 -0.114,0.608 -0.36,1.058 -0.125,0.217 -0.271,0.455 -0.463,0.637 -0.184,0.19 -0.422,0.349 -0.661,0.37 l -0.872,0.079 0.748,0.268 c 0.33,0.118 0.644,0.266 0.944,0.439 L -0.02,-0.008 0,0 Z m 0.069,-0.188 c -0.298,-0.169 -0.583,-0.363 -0.851,-0.585 l -0.123,0.346 c 0.367,0.114 0.727,0.059 1.08,-0.008 0.353,-0.075 0.697,-0.202 1.014,-0.392 0.326,-0.181 0.612,-0.445 0.855,-0.774 0.228,-0.341 0.4,-0.784 0.397,-1.295 C 2.426,-3.422 2.162,-3.921 1.824,-4.245 L 1.558,-4.437 1.424,-4.527 1.39,-4.55 1.382,-4.555 1.378,-4.558 c -0.07,-0.059 0.09,0.079 0.073,0.064 L 1.439,-4.503 1.391,-4.534 c -0.131,-0.113 0.062,0.093 0.036,0.181 0.01,0.104 -0.043,0.206 -0.066,0.217 -0.066,0.038 -0.036,-0.072 0.034,-0.148 0.062,-0.088 0.167,-0.164 0.272,-0.241 0.217,-0.155 0.484,-0.257 0.757,-0.315 0.546,-0.12 1.142,-0.035 1.6,0.224 0.471,0.258 0.718,0.699 0.794,1.118 0.084,0.424 0.077,0.889 0.001,1.385 l -0.013,0.092 c 0,-0.008 -0.01,0.083 -0.002,-0.006 L 4.792,-1.972 4.742,-1.75 C 4.725,-1.752 4.723,-1.793 4.735,-1.806 4.74,-1.819 4.755,-1.874 4.778,-1.9 4.81,-1.943 4.809,-1.931 4.895,-2.021 5.052,-2.144 5.253,-2.204 5.457,-2.18 c 0.111,0.03 0.105,0.011 0.161,0.034 0.035,0.006 0.095,0.059 0.088,0.042 0.04,0.017 0.002,-0.034 -0.039,-0.085 L 4.373,-3.824 3.758,-1.847 3.517,-1.068 c -0.038,0.131 -0.079,0.235 -0.116,0.339 -0.016,0.05 -0.021,0.056 -0.028,0.091 0,0.004 -0.007,0.022 -0.001,0.015 0.014,-0.023 0.031,-0.044 0.051,-0.063 0.04,-0.038 0.09,-0.067 0.14,-0.083 l -0.07,0.046 C 3.362,-0.621 3.235,-0.512 3.112,-0.395 3.05,-0.336 2.987,-0.279 2.928,-0.213 2.867,-0.144 2.823,-0.117 2.768,-0.064 2.715,-0.018 2.661,0.028 2.608,0.087 2.546,0.157 2.515,0.176 2.48,0.205 L 2.354,0.317 2.213,0.368 C 2.163,0.407 2.069,0.361 1.994,0.361 1.913,0.349 1.833,0.343 1.733,0.311 1.548,0.251 1.368,0.188 1.169,0.137 0.976,0.084 0.8,0.002 0.606,-0.032 0.423,-0.077 0.246,-0.132 0.069,-0.188" /></g><g
             transform="translate(489.999,504.0029)"
             id="g60"><path
               inkscape:connector-curvature="0"
               id="path62"
               style="fill:#000000;fill-opacity:1;fill-rule:nonzero;stroke:none"
               d="M 0,0 C 0.183,0.029 0.352,0.029 0.523,0.035 0.697,0.046 0.864,0.04 1.028,0.029 L 0.297,-0.226 c 0.037,0.161 0.1,0.32 0.164,0.485 0.065,0.155 0.142,0.278 0.226,0.413 L 0.63,0.61 C 0.758,0.847 0.877,1.084 1.05,1.31 1.235,1.536 1.415,1.761 1.726,1.968 1.992,2.156 2.482,2.422 3.18,2.273 3.356,2.221 3.532,2.144 3.682,2.049 3.805,1.947 3.921,1.831 4.023,1.708 4.188,1.482 4.283,1.241 4.327,1.052 4.417,0.657 4.408,0.332 4.368,0.031 4.33,-0.274 4.244,-0.552 4.113,-0.811 3.98,-1.075 3.829,-1.293 3.641,-1.538 3.437,-1.804 3.325,-1.897 3.1,-2.137 2.907,-2.313 2.773,-2.517 2.569,-2.696 2.399,-2.897 2.192,-3.089 1.936,-3.294 1.797,-3.377 1.634,-3.454 1.462,-3.524 1.289,-3.576 1.093,-3.593 0.894,-3.599 0.708,-3.582 0.521,-3.541 0.335,-3.48 c -0.162,0.073 -0.313,0.167 -0.459,0.271 -0.515,0.453 -0.77,1.029 -0.842,1.632 -0.033,0.302 -0.009,0.626 0.094,0.939 0.031,0.085 0.081,0.168 0.123,0.244 l 0.066,0.11 c 0.038,0.048 0.078,0.097 0.123,0.137 0.196,0.196 0.316,0.139 0.464,0.14 l 0.055,0 L 0,0 Z m -0.023,-0.264 c -0.046,-0.104 -0.086,-0.212 0.001,-0.242 0.045,0.009 0.1,-0.149 0.133,-0.182 0.104,-0.159 0.199,-0.301 0.312,-0.447 L 0.754,-1.541 C 0.867,-1.667 0.974,-1.762 1.062,-1.864 1.106,-1.897 1.141,-1.948 1.173,-2.005 1.206,-2.03 1.229,-2.1 1.267,-2.15 c 0.034,-0.027 0.071,-0.102 0.13,-0.143 0.058,-0.023 0.131,-0.072 0.216,-0.093 0.171,-0.004 0.381,0.021 0.543,0.16 0.181,0.1 0.295,0.308 0.408,0.487 0.07,0.125 0.18,0.454 0.153,0.621 -0.002,0.184 -0.01,0.419 -0.054,0.615 C 2.637,-0.305 2.608,-0.11 2.571,0.053 2.548,0.22 2.485,0.37 2.435,0.422 2.415,0.455 2.389,0.429 2.418,0.386 2.436,0.346 2.469,0.312 2.508,0.293 2.549,0.242 2.616,0.207 2.683,0.198 2.919,0.128 2.933,0.229 2.813,0.158 2.714,0.129 2.557,0.025 2.394,-0.064 2.232,-0.168 2.053,-0.296 1.863,-0.404 L 1.806,-0.468 C 1.727,-0.515 1.622,-0.56 1.538,-0.599 1.465,-0.638 1.392,-0.684 1.292,-0.728 L 0.607,-1.03 0.562,-0.982 c -0.115,0.118 -0.228,0.24 -0.333,0.379 -0.086,0.109 -0.17,0.22 -0.252,0.339" /></g><g
             transform="translate(472.9937,576.813)"
             id="g64"><path
               inkscape:connector-curvature="0"
               id="path66"
               d="m 0,0 c 5.2484024,-13.568099 14.32152,-25.466516 25.503,-34.705 0.713538,-12.806395 0.09318,-26.371141 -6.0445,-37.92225 -2.15043,-3.510518 -7.664493,-2.827607 -11.2206707,-4.133377 -24.0812003,-4.141561 -48.8956413,7.67107 -63.7009543,26.525252 -9.924169,12.00135 -14.222984,28.644911 -10.304795,43.8172957 3.428127,14.0124538 14.144493,26.1153403 27.954105,30.5426743 9.879546,3.402133 20.950445,2.619056 30.531815,-1.415595 0.4418515,-3.058288 1.0199411,-6.113022 1.9577039,-9.048672 0.0061,-3.198675 1.784377,-6.05717 3.1967314,-8.8409826 C -1.6490308,3.1225916 -0.90181425,1.5116457 0,0 Z M -0.179,-0.089 C -1.8003452,2.2522985 -2.1006199,5.0810591 -3.7324582,7.3035959 -4.916966,9.3579583 -5.6277354,11.958296 -5.8186379,14.104213 -6.9044689,16.875519 -7.3656917,19.567385 -7.949,22.423 c -2.906978,0.578253 -8.538692,2.463172 -12.654328,2.461539 -14.99953,0.924849 -30.123052,-6.608349 -38.357156,-19.1760831 -9.53854,-13.9672097 -9.87261,-33.2911619 -1.19325,-47.7443779 10.022953,-16.674347 27.545511,-28.535119 46.538484,-32.412692 10.3582931,-2.063261 21.2351566,-1.193611 31.19725,2.273614 -0.287226,0.441571 2.976419,5.739452 3.307,8.262 2.720174,9.324566 3.396682,19.132077 3.115,28.804 0.380167,-1.016244 -2.185443,1.975938 -2.965069,2.537868 C 11.759205,-23.415055 4.5351133,-12.234876 -0.179,-0.089 Z"
               style="fill:#000000;fill-opacity:1;fill-rule:nonzero;stroke:none" /></g><g
             transform="translate(601.6709,563.0718)"
             id="g68"><path
               inkscape:connector-curvature="0"
               id="path70"
               d="m 0,0 c 13.276738,-5.4771695 23.374035,-17.708668 26.381211,-31.737937 3.302449,-14.441876 -1.202674,-29.927081 -10.59359,-41.193976 -14.6000449,-18.114207 -38.543763,-29.610357 -61.97724,-26.101769 -4.191064,0.635506 -8.452679,1.642121 -12.334381,3.229682 -5.760865,9.94237 -6.797125,21.821145 -7.030277,33.085361 0.04534,14.891596 2.165118,30.266429 9.405147,43.491578 8.871514,15.7034721 27.786134,25.0754501 45.650657,22.1111534 C -6.8825602,2.4259963 -3.3888393,1.3103069 0,0 Z m -0.071,-0.187 c -11.968062,5.0273456 -26.141844,3.8460694 -37.29991,-2.7182422 -11.812194,-6.6027605 -19.6465,-18.5838628 -23.118422,-31.4489378 -4.707834,-16.455088 -5.957031,-34.222497 -1.684043,-50.90407 0.980141,-3.547928 2.376082,-6.984323 4.316375,-10.11675 2.735807,-0.676819 7.516087,-2.148857 11.167219,-2.495334 25.054757,-3.224286 50.3748342,10.336353 64.256457,30.924094 9.78872,14.37683 10.964791,34.327915 2.041003,49.400309 C 15.1292,-9.7887171 8.140174,-3.6950812 -0.071,-0.187 Z"
               style="fill:#000000;fill-opacity:1;fill-rule:nonzero;stroke:none" /></g><g
             transform="translate(541.7695,682.5186)"
             id="g72"><path
               inkscape:connector-curvature="0"
               id="path74"
               d="m 0,0 c -21.91147,6.4453502 -46.559517,-1.9617392 -61.200977,-19.180761 -13.095175,-14.623774 -18.029934,-35.03899 -15.949263,-54.284966 2.656399,-30.887193 19.879389,-61.556483 48.157599,-75.716663 6.326499,-3.6287 12.011979,-5.91779 18.035954,-0.39669 20.5296524,12.95349 35.151367,33.5771 45.382695,55.246185 8.107071,16.919294 11.769594,36.799955 5.558805,54.941536 C 34.167576,-20.709636 19.005354,-5.1986112 0,0 Z M 0.057,0.191 C 27.08014,-6.8916245 46.205333,-34.356796 44.818906,-62.046238 43.711421,-84.048923 32.325091,-104.03647 19.532102,-121.38359 9.0585693,-134.67529 -3.0179391,-148.01212 -19.16,-154.252 c -24.078244,7.69598 -43.284765,27.1792 -52.615109,50.43421 -9.190488,22.70976 -11.729709,49.857964 -0.162747,72.208182 C -60.175977,-8.321121 -32.934659,6.1791998 -7.049,1.76775 -4.6513781,1.3863898 -2.2768496,0.85974346 0.057,0.191 Z"
               style="fill:#000000;fill-opacity:1;fill-rule:nonzero;stroke:none" /></g><g
             transform="translate(539.834,674.1665)"
             id="g76"><path
               inkscape:connector-curvature="0"
               id="path78"
               style="fill:#ffffff;fill-opacity:1;fill-rule:nonzero;stroke:none"
               d="m 0,0 c 0,0 38.5,-18 33,-67.5 0,0 5.5,38 -33,67.5" /></g><g
             transform="translate(605.667,549.2432)"
             id="g80"><path
               inkscape:connector-curvature="0"
               id="path82"
               style="fill:#ffffff;fill-opacity:1;fill-rule:nonzero;stroke:none"
               d="m 0,0 c 0,0 19.919,-16.084 9.557,-44.242 0,0 8.702,21.431 -9.557,44.242" /></g><g
             transform="translate(430.2114,584.5771)"
             id="g84"><path
               inkscape:connector-curvature="0"
               id="path86"
               style="fill:#ffffff;fill-opacity:1;fill-rule:nonzero;stroke:none"
               d="m 0,0 c 0,0 -19.919,-16.084 -9.557,-44.241 0,0 -8.702,21.43 9.557,44.241" /></g><g
             transform="translate(524.4502,374.5)"
             id="g88"><path
               inkscape:connector-curvature="0"
               id="path90"
               d="M 0,0 C -1.1501881,28.128775 -0.11539587,56.28085 -0.918625,84.415 -1.3782559,107.73347 -1.4501553,131.05941 -1.119,154.38 -0.57038468,143.14639 -0.55421358,131.51389 -0.3108418,120.12229 0.04079928,91.759833 -0.62411007,63.391874 0.22945337,35.035116 0.26801538,23.390308 0.44783082,11.470443 0,0 Z"
               style="fill:#000000;fill-opacity:1;fill-rule:nonzero;stroke:none" /></g><g
             transform="translate(524.4512,374.5098)"
             id="g92"><path
               inkscape:connector-curvature="0"
               id="path94"
               d="M 0,0 C 1.9968932,12.750667 4.8928825,25.3289 7.7144165,37.914065 11.328001,56.838571 14.829638,75.79888 19.5,94.5 19.243932,91.498982 18.437436,88.136255 17.941374,85.014719 15.054095,68.830199 11.271341,52.827936 7.8031726,36.764102 5.5233594,24.444805 3.202858,12.124633 0.098,-0.02 L 0,0 Z"
               style="fill:#000000;fill-opacity:1;fill-rule:nonzero;stroke:none" /></g><g
             transform="translate(524.4512,375.9873)"
             id="g96"><path
               inkscape:connector-curvature="0"
               id="path98"
               d="M 0,0 C -5.5815802,19.019132 -9.843153,38.380196 -14.693738,57.588066 -21.196706,81.78851 -27.538906,106.03972 -33,130.5 c 2.886497,-9.32627 5.319566,-19.22936 7.866277,-28.82482 6.120087,-23.495942 11.18645,-47.256384 17.7759027,-70.631054 C -4.7730711,20.729556 -2.0674838,10.440945 0,0 Z"
               style="fill:#000000;fill-opacity:1;fill-rule:nonzero;stroke:none" /></g></g></g><g
         transform="translate(-197.0339,4.2372881)"
         id="g100"><g
           clip-path="url(#clipPath104)"
           id="g102"><g
             transform="translate(810.5244,398.6973)"
             id="g108"><path
               inkscape:connector-curvature="0"
               id="path110"
               d="m 0,0 c 18.65172,32.346258 37.529206,64.573484 57.09407,96.363215 18.839278,34.931975 33.813506,75.442895 25.771432,115.575745 -6.230147,31.95309 -32.817591,55.56212 -62.178549,66.88289 -20.65575359,8.55888 -43.125485,13.85396 -65.548097,10.57812 -26.619276,-3.34041 -53.471604,-11.99795 -74.876396,-28.49397 -25.5501,-23.53316 -29.99797,-61.10042 -26.72105,-93.9885 2.47468,-24.93635 10.45538,-49.62006 25.84253,-69.641178 C -99.94566,66.162342 -82.807342,32.933231 -63.526,0.973 -42.350667,0.64866667 -21.175333,0.32433333 0,0 Z"
               style="fill:#f7f7f7;fill-opacity:1;fill-rule:nonzero;stroke:none" /></g><g
             transform="translate(801.7578,290.957)"
             id="g112"><path
               inkscape:connector-curvature="0"
               id="path114"
               style="fill:#f8a78d;fill-opacity:1;fill-rule:nonzero;stroke:none"
               d="M 0,0 12.113,51.756 -57.262,52.857 -45.148,0 0,0 Z" /></g><g
             transform="translate(808.5645,323.8008)"
             id="g116"><path
               inkscape:connector-curvature="0"
               id="path118"
               style="fill:#ffffff;fill-opacity:1;fill-rule:nonzero;stroke:none"
               d="m 0,0 -59.406,0 -1.26,6.307 61.925,0 L 0,0 Z" /></g><g
             transform="translate(811.1318,336.666)"
             id="g120"><path
               inkscape:connector-curvature="0"
               id="path122"
               style="fill:#ffffff;fill-opacity:1;fill-rule:nonzero;stroke:none"
               d="M 0,0 0.839,4.516 -64.99,4.27 -64.543,0 0,0 Z" /></g></g></g><g
         transform="translate(-197.0339,4.2372881)"
         id="g124"><g
           clip-path="url(#clipPath128)"
           id="g126"><g
             transform="translate(745.3926,342.9219)"
             id="g132"><path
               inkscape:connector-curvature="0"
               id="path134"
               style="fill:#0f3b49;fill-opacity:1;fill-rule:nonzero;stroke:none"
               d="m 0,0 2.844,-13.253 2.776,-13.33 2.777,-13.33 c 0.941,-4.441 1.804,-8.897 2.708,-13.344 l -0.503,0.414 c 7.622,0.021 15.244,0.019 22.866,-0.023 7.622,-0.017 15.244,-0.062 22.866,-0.133 l -0.352,-0.288 c 1.831,8.891 3.733,17.767 5.52,26.667 0.915,4.445 1.783,8.899 2.65,13.354 l 2.55,13.375 0.296,-0.36 C 61.409,-0.307 55.821,-0.379 50.232,-0.38 44.645,-0.415 39.056,-0.376 33.468,-0.356 27.879,-0.345 22.291,-0.305 16.703,-0.24 11.135,-0.202 5.567,-0.087 0,0 m -0.062,0.101 c 5.587,0.086 11.176,0.203 16.765,0.241 5.588,0.064 11.176,0.104 16.765,0.116 5.588,0.02 11.177,0.059 16.764,0.023 C 55.821,0.48 61.409,0.408 66.998,0.353 l 0.37,-0.004 -0.074,-0.358 -2.782,-13.328 c -0.91,-4.446 -1.82,-8.893 -2.682,-13.35 -1.767,-8.902 -3.421,-17.829 -5.144,-26.741 l -0.055,-0.285 -0.297,-0.003 c -7.622,-0.071 -15.244,-0.116 -22.866,-0.133 -7.622,-0.042 -15.244,-0.044 -22.866,-0.023 l -0.424,0.002 -0.08,0.412 c -0.873,4.454 -1.787,8.899 -2.624,13.36 L 4.919,-26.724 2.363,-13.35 -0.122,0.1 l 0.06,0.001 z" /></g><g
             transform="translate(809.7598,330.0557)"
             id="g136"><path
               inkscape:connector-curvature="0"
               id="path138"
               d="m 0,0 c -20.615272,-0.58658611 -41.240841,-0.53627885 -61.861,-0.306 0.597723,1.02848127 0.446821,-0.8592879 0.666659,-1.3028463 0.281114,-1.5317179 0.562227,-3.0634358 0.843341,-4.5951537 0.699248,0.4901079 4.104128,-0.015722 5.782806,0.1293105 14.056617,-0.1468237 28.109537,0.4657978 42.166273,0.2022566 3.7360768,-0.016993 7.4713802,-0.095757 11.206921,-0.1555671 -0.4730879,-0.2928609 0.22777443,1.3110602 0.22540492,1.7787513 C -0.64639672,-2.8328325 -0.32319836,-1.4164162 0,0 Z m 0.122,0.101 c -0.37539981,-2.1933219 -0.75027103,-4.3867346 -1.126,-6.58 -13.676519,-0.2653244 -27.35731,-0.2870494 -41.033328,0.028828 -6.256793,0.072264 -12.514376,0.036116 -18.770672,-0.063828 -0.498171,2.3063683 -0.99595,4.6128218 -1.495,6.919 20.808739,0.23360645 41.620729,0.28995023 62.425,-0.304 z"
               style="fill:#0f3b49;fill-opacity:1;fill-rule:nonzero;stroke:none" /></g><g
             transform="translate(745.3926,342.9219)"
             id="g140"><path
               inkscape:connector-curvature="0"
               id="path142"
               style="fill:#0f3b49;fill-opacity:1;fill-rule:nonzero;stroke:none"
               d="m 0,0 1.396,-6.216 -0.2,0.163 c 5.379,0.103 10.757,0.191 16.136,0.234 l 8.068,0.067 8.068,0.018 c 5.379,0.031 10.757,-0.035 16.136,-0.055 5.378,-0.031 10.756,-0.087 16.135,-0.174 l -0.287,-0.235 1.343,6.289 0.203,-0.247 -8.383,0.052 -8.383,-0.043 C 44.645,-0.219 39.056,-0.357 33.468,-0.376 27.879,-0.434 22.291,-0.343 16.703,-0.325 11.135,-0.249 5.567,-0.175 0,0 M -0.062,0.101 C 5.525,0.276 11.114,0.351 16.703,0.427 22.291,0.444 27.879,0.535 33.468,0.478 39.056,0.459 44.645,0.32 50.232,0.249 L 58.615,0.205 66.998,0.258 67.247,0.259 67.2,0.01 66.026,-6.313 65.983,-6.545 65.739,-6.549 C 60.36,-6.636 54.982,-6.691 49.604,-6.723 44.225,-6.743 38.847,-6.809 33.468,-6.777 L 25.4,-6.76 17.332,-6.692 c -5.379,0.043 -10.757,0.13 -16.136,0.233 l -0.171,0.003 -0.028,0.16 -1.119,6.395 0.06,0.002 z" /></g><g
             transform="translate(744.3555,342.9209)"
             id="g144"><path
               inkscape:connector-curvature="0"
               id="path146"
               d="M 0,0 C 0.4277022,-0.94745028 0.00579355,-2.7229237 1.453127,-1.9461074 23.839617,-1.4373479 46.23604,-1.4549064 68.625,-1.795 68.045016,-2.2080257 68.837162,-0.40491382 68.828,0.104 68.099745,-0.62201003 64.399666,0.09131304 62.591822,-0.12566406 48.02856,-0.00756562 33.468438,-0.55994701 18.905015,-0.33952387 12.602787,-0.27636381 6.2996918,-0.19480167 0,0 Z M -0.063,0.102 C 17.036482,0.5907635 34.146721,0.57058486 51.248812,0.23480786 57.292217,0.17790476 63.336109,0.21704296 69.379,0.307 69.20338,-0.57907913 69.030481,-1.4656959 68.856,-2.352 46.006008,-2.6998817 23.148071,-2.7176707 0.301,-2.176 0.2026076,-1.4450908 -0.08319025,-0.53033028 -0.063,0.102 Z"
               style="fill:#0f3b49;fill-opacity:1;fill-rule:nonzero;stroke:none" /></g><g
             transform="translate(747.2256,398.7471)"
             id="g148"><path
               sodipodi:nodetypes="ccccccccccccccccccc"
               inkscape:connector-curvature="0"
               id="path150"
               d="m 0,0 63.299,0.223 c 2.707131,5.2297145 7.030022,12.05443 10.357521,17.896543 18.579601,31.939109 37.713649,63.563845 55.948479,95.697457 19.6359,37.23824 26.66334,84.93246 5.8372,123.17461 -17.62826,33.37722 -55.436996,50.40428 -91.849684,52.2565 C 6.3594299,291.91727 -37.331799,284.28264 -62.991305,255.21132 -90.073018,224.91543 -90.287107,178.58193 -77.843182,141.3434 -68.716971,112.40345 -50.623584,87.671707 -35.984505,61.410861 -23.934502,40.97292 -11.983731,20.476812 0,0 Z m -0.057,-0.1 c -22.381972,37.81489 -46.299161,73.773641 -68.117322,111.91302 -19.149248,36.23156 -25.247922,83.61291 -6.710162,121.52812 14.749005,31.24263 47.629176,50.45755 81.1251197,54.86574 38.5060443,5.50353 81.7990953,-0.0605 111.5184343,-27.19996 31.30226,-23.36465 36.7086,-63.58485 29.36912,-98.77809 C 142.91633,135.06856 129.8539,110.51474 115.52361,87.439461 98.108375,58.219023 80.855892,28.668129 63.299,-0.322 Z"
               style="fill:#0f3b49;fill-opacity:1;fill-rule:nonzero;stroke:none" /></g><g
             transform="translate(755.8018,398.7471)"
             id="g152"><path
               sodipodi:nodetypes="ccccccccccccccccccc"
               inkscape:connector-curvature="0"
               id="path154"
               d="m 0,0 46.15,0.196 c 1.38332,4.1188499 4.205383,9.957845 6.140632,14.736576 14.306636,33.940357 29.346824,67.582383 43.132854,101.733994 13.993614,39.26481 18.342244,84.25739 1.894804,123.4943 -10.021976,24.71165 -32.545072,44.58813 -59.379584,48.27486 -27.523952,4.84188 -55.627733,-3.7831 -73.329687,-26.18928 -23.954738,-28.33769 -29.686231,-67.157 -24.728337,-102.12215 3.237362,-27.60521 14.160745,-53.31177 25.28333,-78.502752 C -23.169761,54.437467 -11.553698,27.232107 0,0 Z m -0.066,-0.1 c -16.582548,38.370223 -34.207507,74.414414 -50.138474,113.05677 -14.406273,39.35701 -18.286146,86.66983 -2.167804,126.2251 10.043027,25.36979 32.999886,45.92616 60.4763588,49.71886 C 35.35722,293.68133 65.696897,285.35808 83.713068,263.65969 110.19378,238.12175 112.25501,198.0162 107.468,162.716 104.598,134.9851 94.137867,108.96519 82.758045,83.780798 70.528893,55.802575 58.546975,27.430452 46.15,-0.296 Z"
               style="fill:#0f3b49;fill-opacity:1;fill-rule:nonzero;stroke:none" /></g><g
             transform="translate(771.8428,398.7471)"
             id="g156"><path
               sodipodi:nodetypes="cccccccccccccccccc"
               inkscape:connector-curvature="0"
               id="path158"
               d="M 0,0 C 4.5466345,-0.04991677 9.8993156,0.20561041 13.948,-0.033 19.22378,42.530237 23.63164,85.010259 28.341424,127.63906 31.936525,171.75452 34.894561,216.75554 25.89,260.332 22.780512,270.8073 20.35145,285.37497 8.6894538,289.48612 -5.5695381,289.38994 -8.7186895,271.25599 -12.028,260.373 -20.852641,219.12318 -17.97743,176.98696 -14.98532,135.15072 -10.631975,91.005245 -5.59529,46.589603 -0.3214104,2.5468445 Z m -0.088,-0.1 c -5.7157987,42.53213 -11.917426,85.011284 -16.73636,127.65321 -3.497499,44.20307 -4.693782,89.27491 4.43836,132.90479 3.1147686,10.55384 5.5914822,24.82155 17.022125,29.41825 9.408664,2.10143 15.090831,-8.71501 17.827141,-15.92223 C 33.199031,242.79747 33.432808,209.24784 33.509797,176.64159 33.193571,125.2714 23.857146,74.645465 17.438163,23.825722 16.283823,15.862781 15.393272,7.596725 14.076,-0.179 Z"
               style="fill:#0f3b49;fill-opacity:1;fill-rule:nonzero;stroke:none" /></g><g
             transform="translate(836.4424,442.4902)"
             id="g160"><path
               inkscape:connector-curvature="0"
               id="path162"
               style="fill:#0f3b49;fill-opacity:1;fill-rule:nonzero;stroke:none"
               d="m 0,0 c -2.079,-3.697 -4.136,-7.407 -6.259,-11.078 -2.098,-3.687 -4.224,-7.356 -6.369,-11.014 l -3.205,-5.495 -3.248,-5.469 c -2.156,-3.651 -4.389,-7.257 -6.589,-10.883 l -0.087,-0.144 -0.161,0.002 -7.916,0.098 -7.916,0.038 c -5.277,-0.012 -10.555,-0.049 -15.831,-0.121 l -15.832,-0.169 -15.832,-0.082 -0.299,-0.002 -0.153,0.259 -6.455,10.962 -3.215,5.49 -3.173,5.513 -6.347,11.027 c -1.055,1.839 -2.123,3.671 -3.155,5.523 l -3.12,5.545 0.086,0.051 3.348,-5.41 c 1.124,-1.799 2.212,-3.619 3.313,-5.431 l 6.591,-10.883 3.295,-5.44 3.255,-5.466 6.48,-10.947 -0.451,0.257 15.832,-0.082 15.832,-0.169 c 5.276,-0.072 10.554,-0.109 15.831,-0.121 l 7.916,0.038 7.916,0.098 -0.248,-0.141 c 2.112,3.677 4.192,7.374 6.349,11.025 l 3.22,5.485 3.264,5.46 c 2.168,3.645 4.354,7.279 6.568,10.897 2.19,3.631 4.446,7.224 6.679,10.83 L 0,0 Z" /></g><g
             transform="translate(815.29,355.8848)"
             id="g164"><path
               inkscape:connector-curvature="0"
               id="path166"
               d="m 0,0 c 6.1142962,28.483701 12.737767,56.855766 19.722723,85.138144 0.323839,1.693954 0.814831,1.191435 -0.221546,1.338742 0.09029,-0.530882 -0.497135,-2.105971 -0.66826,-3.039635 C 13.545771,62.867419 9.2396191,42.061801 3.9684204,21.487857 2.7621896,16.494257 1.3279896,11.350025 0.23169448,6.5080383 0.18746299,4.3346922 0.14323149,2.1613461 0.099,-0.012 L 0,0 Z M 0.007,-0.383 C -0.03892878,2.0484231 -0.1010008,4.481747 -0.137,6.912 4.1982787,26.312066 8.9515214,45.61515 13.912785,64.863799 15.741937,72.188855 17.436481,79.546384 19.146,86.9 20.582025,87.214656 20.964754,86.673078 20.36961,85.345146 14.988054,61.173173 9.3750408,37.052814 3.3840486,13.024216 2.286376,8.5482039 1.1306298,4.0865531 0.007,-0.383 Z"
               style="fill:#0f3b49;fill-opacity:1;fill-rule:nonzero;stroke:none" /></g><g
             transform="translate(815.2891,413.1016)"
             id="g168"><path
               inkscape:connector-curvature="0"
               id="path170"
               style="fill:#0f3b49;fill-opacity:1;fill-rule:nonzero;stroke:none"
               d="m 0,0 c -0.156,2.319 -0.239,4.638 -0.326,6.957 l -0.001,0.022 0.007,0.043 0.855,5.637 c 0.3,1.877 0.619,3.75 0.961,5.619 0.707,3.736 1.389,7.474 2.199,11.191 L 3.75,29.718 3.983,29.71 4.966,29.678 5.28,29.667 5.222,29.375 C 4.731,26.937 4.271,24.494 3.901,22.036 3.542,19.576 3.268,17.102 2.923,14.64 2.577,12.178 2.094,9.738 1.655,7.291 1.43,6.069 1.164,4.854 0.921,3.635 0.666,2.417 0.395,1.202 0.1,-0.008 L 0.021,-0.325 0,0 Z m 0,0.008 c 0.115,1.241 0.253,2.478 0.408,3.712 0.166,1.232 0.31,2.468 0.494,3.697 0.381,2.457 0.717,4.921 1.191,7.361 0.474,2.441 1.019,4.869 1.479,7.313 0.449,2.445 0.809,4.905 1.138,7.37 L 4.966,29.158 3.983,29.126 4.271,29.367 C 3.771,25.597 3.142,21.849 2.537,18.097 2.224,16.223 1.888,14.352 1.531,12.485 L 0.42,6.893 0.426,6.957 C 0.339,4.638 0.256,2.319 0.1,0 L 0,0.008 Z" /></g><g
             transform="translate(742.4287,362.7559)"
             id="g172"><path
               inkscape:connector-curvature="0"
               id="path174"
               d="M 0,0 C 0.1976319,-2.2884936 0.32493474,-4.5829279 0.389,-6.879 0.46081425,-6.9950994 0.7096085,-8.0325611 0.83735937,-8.4864531 1.8527247,-12.446362 2.705891,-16.447598 3.4645714,-20.464079 c 0.016093,-0.20612 -0.6206981,0.265427 -0.043364,0.173444 0.4659308,0.07255 0.9318615,0.14509 1.3977922,0.217635 -0.3412942,-0.72021 -0.2689902,0.74208 -0.44025,0.996 -0.5894438,2.995315 -1.5567957,5.892914 -2.38775,8.825 -0.8734822,3.3734011 -1.57866623,6.7929059 -2.09,10.24 C -0.066,-0.008 -0.033,-0.004 0,0 Z m -0.001,0.012 c 1.1519009,-3.4039862 2.1279002,-6.8709046 2.89228,-10.382714 0.5728815,-2.937683 1.0567714,-5.897422 1.8904578,-8.777009 C 4.705325,-19.549146 5.5094423,-20.439635 4.913,-20.532 c -0.6496527,-0.163056 -1.299459,-0.3255 -1.949,-0.489 -1.0962328,3.818495 -2.07430333,7.6722 -2.93285559,11.5510675 -0.16892306,0.8983651 -0.42254958,1.7912193 -0.51614438,2.6984169 0.0660608,2.3378092 0.1995838,4.6737809 0.40499997,7.0035156 0.02633333,-0.0733333 0.05266667,-0.14666667 0.079,-0.22 z"
               style="fill:#0f3b49;fill-opacity:1;fill-rule:nonzero;stroke:none" /></g><g
             transform="translate(815.3877,420.0498)"
             id="g176"><path
               inkscape:connector-curvature="0"
               id="path178"
               d="m 0,0 c -3.9912996,-25.974043 -8.4748521,-51.871185 -13.37,-77.69 -0.765633,0.769635 2.19422,-0.196947 1.232874,-0.0046 2.7483058,14.870619 4.9040932,29.839665 7.2960447,44.769303 1.450593,8.628663 3.0050985,17.486198 4.5820813,25.977301 0.0533333,2.319 0.10666667,4.638 0.16,6.957 L 0,0 Z M -0.01,0.471 C -0.01131594,-2.1695809 0.23389489,-4.8258227 0.08600501,-7.4571003 -2.4279771,-24.536243 -5.3792459,-41.545852 -8.4926975,-58.524779 -9.64267,-65.066007 -10.653324,-71.630391 -11.685,-78.191 c -0.811723,0.330825 -2.870432,-0.26247 -2.143372,1.20571 C -9.6636951,-51.089961 -5.0758758,-25.263303 -0.01,0.471 Z"
               style="fill:#0f3b49;fill-opacity:1;fill-rule:nonzero;stroke:none" /></g><g
             transform="translate(815.3887,362.752)"
             id="g180"><path
               inkscape:connector-curvature="0"
               id="path182"
               d="m 0,0 c 0.19156285,-2.321212 0.34851447,-4.6520909 0.377,-6.979 -0.86816697,-4.483225 -2.0114379,-8.908705 -3.2285876,-13.308237 -0.151567,-0.241554 -0.049999,-0.923562 -0.4904124,-0.659763 -0.6393455,0.160285 -1.278569,0.321057 -1.918,0.481 0.8941344,2.940073 1.5169069,5.951615 2.0482494,8.975713 0.7110438,3.6891523 1.7411421,7.3108325 2.8979381,10.88289638 C -0.24328688,-0.55396147 0.03720204,0.6977571 0,0 Z m -0.001,-0.012 c -0.53066008,-3.5533047 -1.2525642,-7.0808931 -2.1774585,-10.552775 -0.8172723,-2.822348 -1.7285622,-5.621968 -2.3000415,-8.50885 -0.098195,-0.341769 -0.2313858,-1.655128 -0.397047,-1.002141 0.552849,-0.08608 1.105698,-0.172156 1.658547,-0.258234 -0.5970155,-0.549463 -0.2212225,0.357879 -0.1874754,0.743777 0.8512827,4.296996 1.7555948,8.588504 2.9274754,12.811223 -0.0175043,0.1144528 0.033418,1.1646464 0.0482187,1.61975 C -0.35735618,-3.4373553 -0.24901395,-1.7169398 -0.1,0 c 0.033,-0.004 0.066,-0.008 0.099,-0.012 z"
               style="fill:#0f3b49;fill-opacity:1;fill-rule:nonzero;stroke:none" /></g><g
             transform="translate(742.3291,413.1035)"
             id="g184"><path
               inkscape:connector-curvature="0"
               id="path186"
               d="M 0,0 C -0.05,2.319 -0.1,4.638 -0.15,6.957 0.73944776,6.9265197 0.35302188,5.2173928 0.7157186,4.4938746 4.1401563,-13.456539 7.3765993,-31.441924 10.37266,-49.468929 11.563095,-56.598566 12.709897,-63.735474 13.883,-70.868 c -0.649355,0.120574 -2.004398,-0.711584 -2.183659,0.04571 C 8.9624755,-53.478673 5.4361649,-36.270506 2.8282808,-18.905206 1.8269105,-12.612322 0.89935476,-6.3082252 0,0 Z M 0.1,0.008 C 3.7311337,-18.740386 6.8522132,-37.583412 9.6845639,-56.467879 10.433362,-61.293679 11.267715,-66.105342 12.09,-70.919 c -0.336018,0.61506 2.306795,-0.03554 1.27253,0.657289 C 8.8630749,-46.42158 4.5410177,-22.546284 0.74835853,1.4175638 0.44990569,3.2527092 0.15145284,5.0878546 -0.147,6.923 0.72044021,6.8907114 -0.01182476,5.1531687 0.19516888,4.4168571 0.16344592,2.9472381 0.13172296,1.477619 0.1,0.008 Z"
               style="fill:#0f3b49;fill-opacity:1;fill-rule:nonzero;stroke:none" /></g><g
             transform="translate(723.0273,442.4687)"
             id="g188"><path
               inkscape:connector-curvature="0"
               id="path190"
               d="m 0,0 c -2.3655149,0.43382038 0.64380586,-3.2884978 0.2968479,-4.650021 6.7145079,-26.682495 12.9972461,-53.471486 18.9662601,-80.330345 0.739178,-1.452734 -0.403452,-2.247265 -0.166713,-0.331824 -0.0839,2.079787 0.262473,4.360291 -0.104343,6.264768 C 14.262547,-58.70584 8.6663001,-38.57689 4.095184,-18.19689 2.6878127,-12.140691 1.3362881,-6.0722222 0,0 Z m 0.079,0.1 c 5.6385359,-21.133944 10.729679,-42.408889 15.569786,-63.738494 1.226731,-5.434958 2.676943,-10.83104 3.901128,-16.257336 0.03165,-3.008724 0.06253,-6.017456 0.09509,-9.02617 C 13.395569,-63.543878 7.3145474,-38.123265 1.709138,-12.59434 0.74448958,-8.3645379 -0.15080536,-4.1195023 -1.062,0.122 -0.68168226,0.11394387 -0.3013302,0.10746636 0.079,0.1 Z"
               style="fill:#0f3b49;fill-opacity:1;fill-rule:nonzero;stroke:none" /></g><g
             transform="translate(742.4287,420.0605)"
             id="g192"><path
               inkscape:connector-curvature="0"
               id="path194"
               style="fill:#0f3b49;fill-opacity:1;fill-rule:nonzero;stroke:none"
               d="m 0,0 c 0.008,-1.159 0.025,-2.317 0.074,-3.477 l 0.173,-3.476 -0.589,-0.049 c -0.556,2.427 -1.024,4.868 -1.454,7.315 -0.439,2.447 -0.813,4.904 -1.185,7.361 -0.379,2.456 -0.747,4.914 -1.058,7.381 -0.314,2.467 -0.663,4.928 -1.076,7.379 l -0.031,0.177 0.182,10e-4 0.981,0.008 0.132,10e-4 0.027,-0.135 c 0.711,-3.733 1.653,-7.425 2.241,-11.18 0.317,-1.874 0.53,-3.766 0.769,-5.653 0.231,-1.888 0.478,-3.774 0.813,-5.644 L 0,0.005 0,0 Z m -0.1,-0.005 c -0.32,1.872 -0.728,3.728 -1.152,5.581 -0.417,1.857 -0.859,3.708 -1.198,5.577 -0.724,3.732 -1.092,7.525 -1.693,11.278 l 0.16,-0.133 -0.981,0.008 0.152,0.178 c 0.406,-2.452 0.874,-4.892 1.38,-7.328 0.508,-2.434 0.959,-4.878 1.4,-7.324 0.447,-2.444 0.891,-4.89 1.271,-7.346 0.39,-2.454 0.741,-4.915 1.003,-7.39 l -0.589,-0.049 0.173,3.476 c 0.049,1.158 0.067,2.315 0.074,3.472" /></g></g></g></g></g></svg>