<?xml version="1.0" encoding="utf-8"?>
<!-- Generator: Adobe Illustrator 15.1.0, SVG Export Plug-In . SVG Version: 6.00 Build 0)  -->
<!DOCTYPE svg PUBLIC "-//W3C//DTD SVG 1.1//EN" "http://www.w3.org/Graphics/SVG/1.1/DTD/svg11.dtd">
<svg version="1.1" id="Layer_1" xmlns="http://www.w3.org/2000/svg" xmlns:xlink="http://www.w3.org/1999/xlink" x="0px" y="0px"
	 width="328px" height="312px" viewBox="0 0 328 312" enable-background="new 0 0 328 312" xml:space="preserve">
<g>
	<g>
		<path d="M267.406,129.919c-4.389-2.077-9.029-2.172-13.6-0.585c-2.608,0.905-7.131,3.645-6.278,7.119
			c2.034,8.276,16.675,5.718,21.948,2.977c1.579-0.821,0.183-3.202-1.393-2.382c-4.296,2.234-9.739,2.74-14.403,1.513
			c-1.409-0.371-4.648-1.835-2.686-4.316c1.069-1.353,3.019-2.067,4.568-2.605c3.403-1.181,7.228-0.862,10.452,0.662
			C267.612,133.058,269.014,130.68,267.406,129.919L267.406,129.919z"/>
	</g>
	<g>
		<path d="M266.594,139.043c0.044,4.307,4.668,6.731,8.423,7.315c4.442,0.69,8.688-1.352,11.163-5.009
			c1.001-1.479-1.39-2.857-2.382-1.393c-1.591,2.351-3.91,3.526-6.709,3.754c-2.604,0.211-7.701-1.312-7.736-4.667
			C269.334,137.265,266.575,137.263,266.594,139.043L266.594,139.043z"/>
	</g>
	<g>
		<path d="M284.184,143.871c1.78,0,1.78-2.759,0-2.759S282.404,143.871,284.184,143.871L284.184,143.871z"/>
	</g>
	<g>
		<path d="M283.094,143.353c5.146,4.837,17.472,2.827,16.955-5.574c-0.109-1.768-2.869-1.777-2.759,0
			c0.357,5.805-8.763,6.896-12.245,3.624C283.75,140.185,281.795,142.132,283.094,143.353L283.094,143.353z"/>
	</g>
	<g>
		<path d="M298.074,141.178c1.769,0.271,3.724-0.118,5.264-1.036c2.038-1.215,2.092-3.476,0.446-5.063
			c-1.28-1.235-3.233,0.713-1.951,1.951c0.1,0.096,0.401,0.425,0.397,0.414c0.064,0.154-0.01,0.178,0.097-0.068
			c-0.086,0.201-0.373,0.399-0.807,0.618c-0.418,0.211-0.992,0.341-1.493,0.441c-0.281,0.056-0.343,0.055-0.624,0.074
			c-0.142,0.01-0.857-0.03-0.597,0.01c-0.743-0.114-1.481,0.176-1.696,0.964C296.928,140.142,297.329,141.064,298.074,141.178
			L298.074,141.178z"/>
	</g>
	<g>
		<path d="M301.314,137.089c2.413-0.114,4.854-1.031,5.96-3.318c0.92-1.904,0.132-4.372-1.516-5.59
			c-3.328-2.463-8.996-1.748-12.629-0.355c-1.644,0.63-0.931,3.299,0.733,2.661c2.336-0.895,4.904-1.176,7.388-1.009
			c1.203,0.081,2.682,0.42,3.386,1.488c1.405,2.131-1.796,3.292-3.322,3.364C299.542,134.413,299.534,137.173,301.314,137.089
			L301.314,137.089z"/>
	</g>
	<g>
		<path d="M265.79,129.616c-0.238-4.333,0.866-7,4.753-9.162c4.14-2.304,6.908,0.717,8.173,4.47
			c0.564,1.677,3.229,0.958,2.659-0.733c-1.604-4.763-4.959-8.484-10.329-6.926c-2.425,0.704-4.625,2.391-6.238,4.286
			c-1.966,2.31-1.935,5.206-1.777,8.065C263.127,131.385,265.888,131.395,265.79,129.616L265.79,129.616z"/>
	</g>
	<g>
		<path d="M278.721,121.049c2.787-3.142,7.845-4.58,11.697-2.613c3.349,1.71,4.459,6.169,4.803,9.571
			c0.178,1.752,2.938,1.77,2.759,0c-0.5-4.948-2.216-9.935-6.903-12.328c-4.578-2.337-11.073-0.227-14.307,3.419
			C275.594,120.424,277.538,122.383,278.721,121.049L278.721,121.049z"/>
	</g>
	<g>
		<path d="M221.727,145.565c4.441-4.706,12.757-4.399,18.25-1.897c3.631,1.653,6.056,4.776,7.138,8.526
			c1.431,4.955-2.755,10.19-5.551,13.782c-1.619,2.079,1.288,5.031,2.926,2.926c6.428-8.256,10.895-19.667,0.367-27.041
			c-7.278-5.097-19.482-6.187-26.056,0.777C216.97,144.577,219.892,147.51,221.727,145.565L221.727,145.565z"/>
	</g>
	<g>
		<path d="M249.324,162.537c6.173-1.375,4.442,6.721,1.995,9.375c-2.467,2.673-6.348,3.937-9.902,3.805
			c-2.67-0.1-2.661,4.041,0,4.139c6.181,0.229,13.391-3.225,15.666-9.304c2.376-6.347-1.501-13.646-8.858-12.005
			C245.619,159.127,246.724,163.117,249.324,162.537L249.324,162.537z"/>
	</g>
	<g>
		<path d="M226.617,182.124c2.176,2.428,5.89,2.371,8.825,1.646c3.314-0.819,5.598-3.867,6.36-7.043
			c0.622-2.595-3.368-3.694-3.991-1.101c-0.467,1.949-1.517,3.48-3.469,4.153c-1.418,0.491-3.736,0.604-4.799-0.582
			C227.758,177.206,224.842,180.143,226.617,182.124L226.617,182.124z"/>
	</g>
	<g>
		<path d="M225.145,175.267c2.091,3.77-2.249,9.434-5.121,11.581c-3.65,2.729-8.734,3.724-13.122,2.625
			c-2.589-0.649-3.688,3.342-1.1,3.99c5.943,1.49,12.911,0.035,17.599-4.016c4.241-3.663,8.357-10.787,5.316-16.268
			C227.423,170.845,223.849,172.931,225.145,175.267L225.145,175.267z"/>
	</g>
	<g>
		<path d="M142.746,123.262c13.226-13.167,36.231-17.223,53.194-9.547c19.941,9.023,25.926,36.303,14.604,53.945
			c-1.447,2.252,2.137,4.328,3.573,2.088c12.552-19.558,5.718-47.142-14.451-58.769c-18.18-10.479-45.368-5.059-59.847,9.356
			C137.927,122.221,140.854,125.146,142.746,123.262L142.746,123.262z"/>
	</g>
	<g>
		<path d="M127.863,192.471c13.303,11.846,31.027,15.728,48.463,13.335c15.248-2.091,31.683-8.362,37.77-23.677
			c0.987-2.481-3.017-3.548-3.991-1.099c-5.273,13.264-20.12,18.445-33.117,20.544c-16.372,2.644-33.657-0.861-46.199-12.029
			C128.804,187.774,125.867,190.693,127.863,192.471L127.863,192.471z"/>
	</g>
	<g>
		<path d="M67.819,166.577c-2.955,0.114-21.204,1.291-17.186-5.645c2.219-3.826,9.776-6.957,14.049-5.983
			c2.597,0.593,3.702-3.396,1.099-3.991c-6.34-1.446-17.169,2.828-19.435,9.347c-1.37,3.94,1.287,6.921,4.525,8.801
			c4.991,2.897,11.488,1.822,16.947,1.609C70.479,170.613,70.49,166.473,67.819,166.577L67.819,166.577z"/>
	</g>
	<g>
		<path d="M66.095,151.919c0.213-16.609,21.048-27.742,34.585-32.308c14.475-4.882,36.756-2.763,43.988,12.948
			c1.114,2.422,4.682,0.318,3.573-2.088c-7.775-16.893-30.506-19.57-46.448-15.508c-16.191,4.125-39.595,17.974-39.838,36.956
			C61.922,154.589,66.061,154.586,66.095,151.919L66.095,151.919z"/>
	</g>
	<g>
		<path d="M67.721,163.786c-0.99,6.561,3.436,13.919,7.042,19.09c4.146,5.944,10.576,9.478,17.332,11.638
			c14.805,4.73,32.512,0.493,45.229-7.759c2.23-1.447,0.158-5.032-2.088-3.574c-10.385,6.737-22.545,9.7-34.868,8.738
			c-7.275-0.567-14.332-3.502-19.69-8.446c-4.011-3.701-9.836-12.824-8.967-18.588C72.106,162.275,68.119,161.153,67.721,163.786
			L67.721,163.786z"/>
	</g>
</g>
</svg>
