<?xml version="1.0" encoding="utf-8"?>
<!-- Generator: Adobe Illustrator 15.1.0, SVG Export Plug-In . SVG Version: 6.00 Build 0)  -->
<!DOCTYPE svg PUBLIC "-//W3C//DTD SVG 1.1//EN" "http://www.w3.org/Graphics/SVG/1.1/DTD/svg11.dtd">
<svg version="1.1" id="Layer_1" xmlns="http://www.w3.org/2000/svg" xmlns:xlink="http://www.w3.org/1999/xlink" x="0px" y="0px"
	 width="328px" height="312px" viewBox="0 0 328 312" enable-background="new 0 0 328 312" xml:space="preserve">
<g>
	<g>
		<path d="M83.788,100.073c68.937,0,137.874,0,206.812,0c2.68,0,2.68-4.157,0-4.157c-68.938,0-137.875,0-206.812,0
			C81.107,95.917,81.107,100.073,83.788,100.073L83.788,100.073z"/>
	</g>
	<g>
		<path d="M289.743,167.511c-68.937,0-137.874,0-206.811,0c-2.681,0-2.681,4.156,0,4.156c68.937,0,137.875,0,206.811,0
			C292.424,171.668,292.424,167.511,289.743,167.511L289.743,167.511z"/>
	</g>
	<g>
		<path d="M83.914,167.511c-9.011,0.187-8.066-5.364-8.182-11.887c-0.125-7.042-0.249-14.084-0.375-21.126
			c-0.129-7.274-0.257-14.552-0.386-21.827c-0.118-6.646-1.133-12.738,8.088-12.549c2.682,0.058,2.677-4.1,0-4.157
			c-9.774-0.202-12.454,4.988-12.296,13.795c0.138,7.792,0.276,15.583,0.414,23.375c0.145,8.197,0.29,16.393,0.435,24.59
			c0.157,8.816,2.17,14.15,12.302,13.942C86.59,171.611,86.596,167.454,83.914,167.511L83.914,167.511z"/>
	</g>
	<g>
		<path d="M290.471,171.616c8.477,0.1,13.445-5.83,12.238-14.192c-0.793-5.487-0.232-16.031-0.355-22.974
			c-0.146-8.249-0.291-16.496-0.438-24.742c-0.122-6.833-2.547-13.904-12.299-13.792c-2.68,0.03-2.682,4.188,0,4.157
			c8.334-0.097,8.072,5.713,8.171,11.299c0.128,7.237,0.257,14.475,0.386,21.71c0.133,7.497,0.266,14.993,0.396,22.49
			c0.103,5.778,0.455,11.987-8.1,11.887C287.789,167.43,287.792,171.586,290.471,171.616L290.471,171.616z"/>
	</g>
	<g>
		<path d="M83.097,113.351c4.927,0,9.853,0,14.779,0c2.681,0,2.681-4.157,0-4.157c-4.927,0-9.853,0-14.779,0
			C80.416,109.194,80.416,113.351,83.097,113.351L83.097,113.351z"/>
	</g>
	<g>
		<path d="M27.838,102.076c-6.36,10.4-4.525,23.063,6.665,29.118c9.337,5.053,20.584,0.823,25.767-7.832
			c5.531-9.234,4.245-23.459-6.7-27.903C44.562,91.803,33.723,94.176,27.838,102.076c-1.604,2.151,2.007,4.222,3.588,2.097
			c3.942-5.291,10.888-6.977,17.164-5.939c9.924,1.635,12.125,11.396,9.512,19.875c-2.628,8.528-10.911,12.42-19.243,10.349
			c-11.245-2.793-12.688-15.686-7.433-24.284C32.83,101.881,29.233,99.794,27.838,102.076z"/>
	</g>
	<path d="M50.806,117.995c-0.332-1.54-1.256-2.331-2.391-2.617c0.453-0.584,0.862-1.205,1.15-1.886
		c1.444-3.424-0.327-8.236-4.2-8.912c-1.52-0.266-3.031,0.07-4.34,0.798c-1.434,0.536-2.685,1.578-3.411,3.146
		c-1.011,2.182-0.804,4.571,0.335,6.471c-1.635,0.541-3.066,1.523-3.536,3.375c-0.804,3.172-0.468,7.012-0.104,10.226
		c0.127,1.122,0.957,1.767,1.843,1.938c0.877,2.057,4.072,1.307,4.007-0.75c0.555,0.374,1.267,0.409,1.896,0.165
		c0.721,0.406,1.625,0.363,2.28-0.111c0.648-0.032,1.312-0.365,1.747-0.903c0.537,0.81,1.61,1.065,2.486,0.801
		c1.063,0.033,2.167-0.633,2.196-2.005C50.831,124.441,51.51,121.262,50.806,117.995z"/>
	<path d="M294.118,179.489h-49.476c-2.17,0-3.929,1.759-3.929,3.927v9.291c0,2.17,1.759,3.931,3.929,3.931h49.476
		c2.169,0,3.928-1.76,3.928-3.931v-9.291C298.046,181.248,296.287,179.489,294.118,179.489z M291.031,186.244
		c-1.641,0.024-3.256,0.287-4.86,0.371c-0.004,0.769,0.06,1.534,0.199,2.297c0.267,0.78,0.476,1.583,0.653,2.344
		c0.207,0.886-1.021,1.188-1.336,0.368c-0.33-0.857-0.559-1.731-0.709-2.613c-0.023-0.068-0.054-0.134-0.08-0.198
		c-0.619,1.242-1.436,2.333-2.596,3.05c-2.84,1.756-3.084-1.654-3.594-3.559c-1.236,1.342-2.704,3.64-4.45,1.895
		c-0.077-0.079-0.122-0.17-0.187-0.254c-0.453,0.211-0.913,0.371-1.328,0.458c-0.977,0.2-1.607-0.382-2.016-1.177
		c-0.955-1.865-1.365-0.108-2.418,0.714c-0.43,0.333-0.959,0.214-1.158-0.307c-0.15-0.393-0.254-0.779-0.344-1.169
		c-1.092,1.262-1.836,2.317-2.744,0.973c-0.549,1.018-1.272,2.197-2.279,1.988c-0.896-0.184-1.169-0.763-1.242-1.467
		c-1.1,1.138-2.504,2.096-3.557,1.063c-0.868,0.382-1.707,0.43-2.227-0.081c-0.642,0.676-1.354,1.248-2.087,1.606
		c-7.514,3.717-4.766-8.853-1.272-7.67c0.209,0.07,0.447,0.244,0.482,0.482c0.021,0.146,0.043,0.295,0.065,0.44
		c0.127,0.875-1.208,1.25-1.337,0.368c-0.473,0.559-0.801,1.191-0.988,1.903c-0.191,0.639-0.318,1.291-0.379,1.957
		c-0.057,1.688,2.288,1.743,3.398,0.897c0.656-0.497,1.16-1.022,1.594-1.609c-0.008-0.5,0.054-1.1,0.215-1.824
		c0.145-0.655,0.533-2.409,1.591-2.287c0.254,0.03,0.54,0.097,0.756,0.244c0.49-0.668,1.245-0.937,2.332-0.301
		c1.87,1.094,1.152,3.094-0.241,4.52c0.791-0.479,1.566-1.705,1.752-1.954c0.395-0.535,1.272-0.387,1.291,0.35
		c0.012,0.517-0.369,2.938,0.68,1.056c0.283-0.509,0.549-1.018,0.887-1.491c0.365-0.515,1.039-0.408,1.268,0.165
		c0.443,1.12,1.496-0.826,1.959-1.259c0.359-0.338,1.043-0.225,1.157,0.306c0.084,0.391,0.156,0.77,0.238,1.143
		c0.616-0.926,1.296-2.018,2.396-1.713c0.616,0.17,0.825,0.514,1.094,1.037c0.227,0.44,0.27,2.06,1.345,1.64
		c0.251-0.062,0.465-0.163,0.67-0.271c-0.065-1.204,0.629-2.521,1.556-3.114c0.334-0.216,0.739-0.052,0.946,0.249
		c0.731,1.058,0.442,2.051-0.265,2.85c0.111,0.574,0.404,0.525,0.886-0.165c0.303-0.371,0.606-0.741,0.911-1.112
		c0.382-0.405,0.548-0.549,0.984-0.868c0.308-0.229,0.768-0.05,0.947,0.249c0.376,0.619,0.549,1.203,0.624,1.938
		c0.042,0.536,0.115,1.066,0.22,1.594c1.34,0.322,2.244-0.092,2.713-1.242c0.326-0.601,0.601-1.218,0.85-1.843
		c-0.264-0.318-0.559-0.595-0.916-0.778c-0.355-0.073-0.712-0.171-1.068-0.296c-0.689-0.245-0.639-1.452,0.184-1.36
		c0.066,0.005,0.119,0.033,0.182,0.043c0.001-0.005,0.001-0.014,0.003-0.02c0.2,0.07,0.401,0.114,0.604,0.165
		c0.117,0.038,0.248,0.055,0.359,0.101c0.443,0.095,0.885,0.15,1.329,0.181c0.14-0.462,0.274-0.928,0.396-1.396
		c0.098-0.477,0.209-0.953,0.356-1.424c0.265-0.854,1.545-0.503,1.337,0.368c-0.121,0.509-0.248,1.05-0.382,1.601
		c-0.053,0.283-0.097,0.567-0.13,0.85c1.584-0.081,3.18-0.356,4.779-0.382C291.926,184.845,291.925,186.231,291.031,186.244z"/>
</g>
</svg>
