<?xml version="1.0" encoding="utf-8"?>
<!-- Generator: Adobe Illustrator 15.1.0, SVG Export Plug-In . SVG Version: 6.00 Build 0)  -->
<!DOCTYPE svg PUBLIC "-//W3C//DTD SVG 1.1//EN" "http://www.w3.org/Graphics/SVG/1.1/DTD/svg11.dtd">
<svg version="1.1" id="Layer_1" xmlns="http://www.w3.org/2000/svg" xmlns:xlink="http://www.w3.org/1999/xlink" x="0px" y="0px"
	 width="328px" height="312px" viewBox="0 0 328 312" enable-background="new 0 0 328 312" xml:space="preserve">
<g>
	<g>
		<path d="M215.922,209.524c-54.312,0-108.627,0-162.939,0c-4.9,0-4.9,7.598,0,7.598c54.312,0,108.627,0,162.939,0
			C220.822,217.122,220.822,209.524,215.922,209.524L215.922,209.524z"/>
	</g>
	<g>
		<path d="M49.183,63.472c0,49.946,0,99.898,0,149.851c0,4.896,7.598,4.896,7.598,0c0-49.952,0-99.904,0-149.851
			C56.781,58.57,49.183,58.57,49.183,63.472L49.183,63.472z"/>
	</g>
	<g>
		<path d="M54.671,67.271c77.95,0,155.903,0,233.854,0c4.898,0,4.898-7.599,0-7.599c-77.95,0-155.903,0-233.854,0
			C49.771,59.673,49.771,67.271,54.671,67.271L54.671,67.271z"/>
	</g>
	<g>
		<path d="M294.014,213.11c0-49.883,0-99.76,0-149.638c0-4.902-7.599-4.902-7.599,0c0,49.878,0,99.755,0,149.638
			C286.415,218.007,294.014,218.007,294.014,213.11L294.014,213.11z"/>
	</g>
	<g>
		<path d="M289.368,209.311c-13.931,0-27.86,0-41.79,0c-4.898,0-4.898,7.598,0,7.598c13.93,0,27.859,0,41.79,0
			C294.268,216.909,294.268,209.311,289.368,209.311L289.368,209.311z"/>
	</g>
	<g>
		<path d="M212.957,212.773c-11.202,21.751-19.18,45.743-28.561,68.344c-1.879,4.521,5.478,6.475,7.326,2.019
			c9.133-21.998,16.891-45.356,27.793-66.528C221.756,212.259,215.2,208.416,212.957,212.773L212.957,212.773z"/>
	</g>
	<g>
		<path d="M244.893,210.424c-19.873,22.979-39.754,45.945-59.519,69.018c-3.171,3.695,2.179,9.097,5.372,5.372
			c19.768-23.071,39.648-46.039,59.52-69.018C253.453,212.111,248.104,206.709,244.893,210.424L244.893,210.424z"/>
	</g>
</g>
</svg>
