<?xml version="1.0" encoding="utf-8"?>
<!-- Generator: Adobe Illustrator 15.1.0, SVG Export Plug-In . SVG Version: 6.00 Build 0)  -->
<!DOCTYPE svg PUBLIC "-//W3C//DTD SVG 1.1//EN" "http://www.w3.org/Graphics/SVG/1.1/DTD/svg11.dtd">
<svg version="1.1" id="Layer_1" xmlns="http://www.w3.org/2000/svg" xmlns:xlink="http://www.w3.org/1999/xlink" x="0px" y="0px"
	 width="328px" height="312px" viewBox="0 0 328 312" enable-background="new 0 0 328 312" xml:space="preserve">
<g>
	<g>
		<path d="M77.259,89.139c-0.052,40.117-1.813,80.204-1.864,120.316c-0.006,3.931,6.086,3.931,6.092,0
			c0.052-40.114,1.812-80.199,1.864-120.316C83.357,85.213,77.265,85.213,77.259,89.139L77.259,89.139z"/>
	</g>
	<g>
		<path d="M265.434,87.871c-61.688-0.036-123.357-1.738-185.044-1.776c-3.929,0-3.929,6.092,0,6.092
			c61.688,0.04,123.357,1.741,185.044,1.776C269.361,93.966,269.361,87.874,265.434,87.871L265.434,87.871z"/>
	</g>
	<g>
		<path d="M267.463,209.203c0.032-39.431,0.984-78.854,1.016-118.286c0.004-3.927-6.088-3.927-6.092,0
			c-0.031,39.432-0.984,78.855-1.016,118.286C261.368,213.133,267.46,213.133,267.463,209.203L267.463,209.203z"/>
	</g>
	<g>
		<path d="M79.119,212.249c61.767,0,123.531,0,185.298,0c3.929,0,3.929-6.092,0-6.092c-61.767,0-123.532,0-185.298,0
			C75.19,206.157,75.19,212.249,79.119,212.249L79.119,212.249z"/>
	</g>
	<g>
		<path d="M80.941,96.596c8.111,2.757,20.623,13.747,28.888,19.386c16.089,10.975,32.128,22.021,48.196,33.026
			c8.77,6.005,16.917,14.933,28.106,9.61c5.573-2.648,10.83-8.353,15.668-12.2c7.074-5.632,14.102-11.318,21.133-17.003
			c14.221-11.49,28.498-22.903,43.021-34.006c3.076-2.352,0.047-7.646-3.074-5.259c-25.018,19.121-49.238,39.232-73.951,58.742
			c-7.604,6.005-10.799,6.444-17.841,1.67c-5.687-3.854-11.348-7.746-17.013-11.632c-15.281-10.479-30.549-20.978-45.862-31.408
			c-7.736-5.268-16.66-13.747-25.653-16.801C78.83,89.457,77.243,95.342,80.941,96.596L80.941,96.596z"/>
	</g>
</g>
</svg>
