<?xml version="1.0" encoding="utf-8"?>
<!-- Generator: Adobe Illustrator 15.1.0, SVG Export Plug-In . SVG Version: 6.00 Build 0)  -->
<!DOCTYPE svg PUBLIC "-//W3C//DTD SVG 1.1//EN" "http://www.w3.org/Graphics/SVG/1.1/DTD/svg11.dtd">
<svg version="1.1" id="Layer_1" xmlns="http://www.w3.org/2000/svg" xmlns:xlink="http://www.w3.org/1999/xlink" x="0px" y="0px"
	 width="328px" height="312px" viewBox="0 0 328 312" enable-background="new 0 0 328 312" xml:space="preserve">
<g>
	<g>
		<path d="M239.402,48.594c-0.524,45.607,9.522,90.186,29.299,131.227c1.688,3.51,6.895,0.444,5.211-3.046
			c-19.311-40.078-28.986-83.658-28.473-128.181C245.484,44.699,239.447,44.703,239.402,48.594L239.402,48.594z"/>
	</g>
	<g>
		<path d="M47.286,102.384c-0.314,45.515,17.256,94.081,40.023,132.977c1.965,3.355,7.182,0.322,5.211-3.046
			c-22.193-37.92-39.504-85.521-39.198-129.931C53.35,98.49,47.313,98.494,47.286,102.384L47.286,102.384z"/>
	</g>
	<g>
		<path d="M89.915,237.612c31.363-2.484,61.563-14.077,91.742-22.326c31.853-8.713,61.587-19.814,91.173-34.38
			c3.494-1.722,0.432-6.925-3.046-5.211c-27.958,13.763-56.066,24.405-86.115,32.771c-30.634,8.528-61.9,20.586-93.754,23.108
			C86.061,231.878,86.032,237.919,89.915,237.612L89.915,237.612z"/>
	</g>
	<g>
		<path d="M49.62,104.687c10.037-0.526,20.346-4,30.061-6.312c15.421-3.667,30.819-7.369,46.297-10.784
			c40.454-8.917,81.059-18.282,117.965-37.731c3.447-1.815,0.394-7.027-3.045-5.211c-35.352,18.628-74.217,27.77-112.964,36.341
			c-14.901,3.293-29.75,6.744-44.59,10.305c-10.827,2.603-22.542,6.771-33.723,7.357C45.749,98.851,45.729,104.892,49.62,104.687
			L49.62,104.687z"/>
	</g>
	<g>
		<path d="M235.486,50.811c-4.707,14.349-14.616,27.966-22.5,40.676c-10.266,16.545-20.918,33.225-33.401,48.206
			c-2.472,2.967,1.772,7.263,4.269,4.268c12.832-15.397,23.738-32.458,34.344-49.428c8.223-13.158,18.229-27.235,23.109-42.118
			C242.525,48.708,236.693,47.128,235.486,50.811L235.486,50.811z"/>
	</g>
	<g>
		<path d="M53.43,105.528c38.948,22.704,83.051,37.543,128.291,39.316c3.895,0.152,3.879-5.888,0-6.037
			c-44.176-1.729-87.224-16.329-125.245-38.491C53.106,98.352,50.068,103.571,53.43,105.528L53.43,105.528z"/>
	</g>
	<g>
		<path d="M232.665,74.749c-12.312,20.118-24.384,40.396-37.728,59.862c-0.735,1.073,1.008,2.075,1.736,1.014
			c13.346-19.461,25.416-39.745,37.729-59.861C235.082,74.654,233.34,73.644,232.665,74.749L232.665,74.749z"/>
	</g>
	<g>
		<path d="M197.428,139.641c-0.004-0.013-0.008-0.021-0.012-0.027c-0.236-0.507-0.93-0.601-1.375-0.361
			c-0.664,0.361-1.098,1.541-1.45,1.945c-0.847,0.975,0.57,2.401,1.423,1.422c0.252-0.291,0.459-0.617,0.666-0.938
			c0.102-0.157,0.698-0.865,0.375-0.688c-0.457-0.122-0.916-0.244-1.375-0.361c0.004,0.009,0.008,0.017,0.012,0.023
			C196.236,141.83,197.971,140.808,197.428,139.641L197.428,139.641z"/>
	</g>
	<g>
		<path d="M258.973,120.545c4.846,19.309,12.021,37.827,20.475,55.826c0.551,1.175,2.285,0.153,1.738-1.014
			c-8.381-17.846-15.469-36.204-20.271-55.347C260.598,118.753,258.658,119.283,258.973,120.545L258.973,120.545z"/>
	</g>
	<g>
		<path d="M267.523,134.127c1.045,3.515,2.521,6.87,3.773,10.312c0.439,1.21,2.385,0.688,1.941-0.535
			c-1.252-3.442-2.729-6.799-3.773-10.312C269.096,132.351,267.154,132.881,267.523,134.127L267.523,134.127z"/>
	</g>
</g>
</svg>
