<?xml version="1.0" encoding="utf-8"?>
<!-- Generator: Adobe Illustrator 15.1.0, SVG Export Plug-In . SVG Version: 6.00 Build 0)  -->
<!DOCTYPE svg PUBLIC "-//W3C//DTD SVG 1.1//EN" "http://www.w3.org/Graphics/SVG/1.1/DTD/svg11.dtd">
<svg version="1.1" id="Layer_1" xmlns="http://www.w3.org/2000/svg" xmlns:xlink="http://www.w3.org/1999/xlink" x="0px" y="0px"
	 width="328px" height="312px" viewBox="0 0 328 312" enable-background="new 0 0 328 312" xml:space="preserve">
<g>
	<g>
		<path d="M83.2,145.54c-0.453-20.817,3.305-41.662,14.59-59.445c12.628-19.906,36.244-31.194,59.198-33.28
			c47.965-4.36,86.171,40.878,93.136,84.838c0.442,2.798,4.685,1.604,4.245-1.169c-7.419-46.837-47.447-91.164-97.381-88.072
			c-22.192,1.373-45.694,12.457-59.3,30.303c-14.559,19.098-19.403,43.221-18.891,66.827C78.857,148.375,83.26,148.381,83.2,145.54
			L83.2,145.54z"/>
	</g>
	<g>
		<path d="M70.671,145.54c-0.582-24.107,5.767-48.958,18.479-69.493c15.598-25.193,45.816-36.542,74.529-36.416
			c25.828,0.112,50.219,12.938,67.958,31.19c18.565,19.106,26.225,45.224,27.856,71.255c0.178,2.82,4.579,2.837,4.401,0
			c-1.688-26.986-9.582-52.825-27.992-73.138c-17.838-19.687-43.367-32.2-69.851-33.643c-28.903-1.573-59.928,10.255-77.428,33.705
			c-15.846,21.233-22.988,50.34-22.355,76.538C66.338,148.375,70.74,148.381,70.671,145.54L70.671,145.54z"/>
	</g>
	<g>
		<path d="M148.408,38.872c-0.872,3.755-1.319,7.538,0.122,11.198c0.727,1.846,3.739,2.336,4.245,0
			c0.715-3.305,0.615-6.572,1.223-9.906c-1.44-0.194-2.883-0.39-4.323-0.585c0.328,3.921-0.344,7.708,1.889,11.14
			c0.84,1.289,3.033,1.564,3.804,0c1.818-3.691,1.198-7.375,1.4-11.383c-1.467,0-2.936,0-4.403,0
			c0.139,2.775-0.487,10.641,4.036,10.641c4.418,0,3.724-8.255,4.2-10.912c-1.44-0.195-2.882-0.391-4.322-0.585
			c0.057,2.683-1.338,11.497,3.424,11.497c5.02,0,3.991-8.89,3.914-11.864c-0.075-2.846-4.288-2.832-4.403,0
			c-0.133,3.229-1.378,10.224,2.961,11.417c4.851,1.335,4.729-7.693,4.865-10.193c0.153-2.843-4.224-2.813-4.402,0
			c-0.161,2.518-1.429,9.906,3.057,9.906c4.535,0,4.162-7.831,4.525-10.763c-1.468,0-2.936,0-4.402,0
			c-0.312,3.721-1.035,7.461,1.277,10.647c0.762,1.053,2.471,1.628,3.457,0.447c2.182-2.608,2.252-5.42,2.889-8.676
			c-1.439-0.195-2.881-0.391-4.321-0.585c0.104,2.85-0.972,8.155,2.067,9.849c0.664,0.37,1.563,0.434,2.222,0
			c2.821-1.854,2.75-5.675,3.581-8.652c-1.44-0.195-2.883-0.391-4.324-0.585c-0.061,3.306-0.504,6.104,1.156,9.061
			c0.796,1.416,3.015,1.448,3.803,0c1.436-2.637,2.021-5.415,3.034-8.229c-1.44-0.194-2.882-0.39-4.324-0.584
			c-0.103,3.365-0.647,6.226,0.201,9.511c0.501,1.94,3.004,2.056,4.024,0.527c1.852-2.774,1.605-5.844,3.058-8.805
			c-1.369-0.37-2.736-0.743-4.103-1.112c0.211,3.113-0.09,6.184,0.121,9.295c0.137,2.01,3.064,3.226,4.102,1.109
			c1.326-2.703,1.957-5.548,3.035-8.352c-1.441-0.195-2.883-0.391-4.323-0.584c-0.392,3.293-0.701,6.139-0.044,9.39
			c0.423,2.089,2.99,1.877,4.023,0.527c2.086-2.721,1.631-6.105,2.789-9.209c-1.439-0.194-2.882-0.391-4.322-0.584
			c0.069,2.723-0.189,5.351-0.367,8.07c-0.17,2.638,3.513,2.772,4.324,0.584c1.002-2.7,1.631-5.351,2.078-8.193
			c0.438-2.767-3.771-3.977-4.244-1.169c-0.672,3.979-0.901,7.922-0.935,11.958c-0.024,2.84,4.378,2.838,4.401,0
			c0.031-3.644,0.168-7.184,0.777-10.789c-1.416-0.391-2.83-0.78-4.246-1.169c-0.449,2.843-1.076,5.491-2.08,8.193
			c1.442,0.195,2.883,0.391,4.326,0.585c0.176-2.72,0.436-5.349,0.366-8.07c-0.067-2.589-3.474-2.863-4.325-0.586
			c-0.988,2.648-0.582,5.856-2.346,8.158c1.341,0.175,2.684,0.351,4.023,0.525c-0.58-2.87-0.135-5.398,0.201-8.221
			c0.315-2.648-3.504-2.715-4.324-0.585c-0.928,2.41-1.446,4.967-2.59,7.301c1.366,0.37,2.733,0.742,4.102,1.111
			c-0.211-3.112,0.088-6.183-0.122-9.295c-0.136-2.009-3.065-3.225-4.103-1.108c-1.39,2.835-1.297,6.166-3.059,8.805
			c1.342,0.175,2.684,0.35,4.023,0.524c-0.733-2.841-0.129-5.506-0.043-8.341c0.08-2.61-3.52-2.826-4.323-0.585
			c-0.867,2.411-1.349,4.898-2.591,7.178c1.268,0,2.535,0,3.802,0c-1.12-1.992-0.597-4.671-0.558-6.838
			c0.047-2.512-3.66-2.965-4.322-0.585c-0.199,0.645-0.354,1.301-0.467,1.969c-0.098,0.464-0.191,0.929-0.287,1.393
			c-0.82,1.493-0.244,2.479,1.727,2.958c-0.65-1.823-0.124-4.414-0.193-6.346c-0.09-2.395-3.83-3.113-4.326-0.584
			c-0.436,2.221-0.241,4.918-1.758,6.733c1.152,0.148,2.305,0.295,3.457,0.443c-1.75-2.413-0.9-5.741-0.676-8.427
			c0.239-2.869-4.062-2.749-4.402,0c-0.238,1.918-0.398,3.83-0.769,5.729c1.658,0.671,2.241,0.198,1.75-1.419
			c0.007-1.148,0.168-2.308,0.241-3.454c-1.467,0-2.935,0-4.402,0c-0.036,0.603-0.065,1.207-0.085,1.812
			c-0.026,0.433-0.051,0.866-0.079,1.301c-0.91,2.204-0.569,2.7,1.019,1.484c-0.201-1.92,0.043-3.901,0.124-5.821
			c-1.468,0-2.936,0-4.403,0c0.059,2.296,0.163,4.583-0.158,6.871c0.542-0.227,1.082-0.456,1.622-0.683
			c-0.043-0.954-0.054-1.912-0.034-2.869c0.006-0.986,0.057-1.966,0.037-2.953c-0.051-2.402-3.872-3.107-4.325-0.584
			c-0.295,1.654-0.404,3.333-0.574,5.004c-0.384,3.795,1.309,2.27,1.104-0.441c-0.08-1.038-0.067-2.083-0.119-3.122
			c-0.142-2.837-4.26-2.837-4.403,0c-0.147,2.928,0.546,6.434-0.801,9.161c1.269,0,2.535,0,3.804,0
			c-1.694-2.603-1.048-6.017-1.291-8.917c-0.194-2.315-3.849-3.184-4.325-0.584c-0.599,3.288-0.515,6.637-1.223,9.906
			c1.415,0,2.83,0,4.245,0c-1.159-2.946-0.824-5.833-0.122-8.859C153.294,37.281,149.05,36.106,148.408,38.872L148.408,38.872z"/>
	</g>
	<g>
		<path d="M192.777,43.484c-1.601,3.132-2.02,6.558-1.77,10.038c0.204,2.813,4.605,2.835,4.403,0
			c-0.192-2.674-0.075-5.386,1.167-7.816C197.866,43.183,194.066,40.953,192.777,43.484L192.777,43.484z"/>
	</g>
	<g>
		<path d="M147.026,50.246c-0.433-1.62-0.893-3.239-1.021-4.919c-0.092-1.195-0.933-2.201-2.201-2.201
			c-1.132,0-2.293,1.003-2.201,2.201c0.158,2.084,0.641,4.079,1.178,6.088C143.515,54.155,147.762,52.991,147.026,50.246
			L147.026,50.246z"/>
	</g>
	<ellipse cx="218.523" cy="167.009" rx="25.072" ry="53.444"/>
	<path d="M242.738,137.535c0,0,7.584,29.474,5.261,42.681c-2.325,13.208-2.41,13.698-2.41,13.698l14.517-1.591
		c0,0,7.705-9.782,6.358-27.393c-1.346-17.61-9.784-28.007-9.784-28.007L242.738,137.535z"/>
	<g>
		<path d="M257.721,144.282c8.516,0.765,10.184,14.773,10.608,21.124c0.507,7.567-2.792,16.416-9.503,20.417
			c-2.436,1.45-0.223,5.257,2.222,3.8c9.116-5.434,12.841-17.314,11.429-27.447c-1.244-8.932-4.054-21.337-14.754-22.297
			C254.893,139.627,254.917,144.032,257.721,144.282L257.721,144.282z"/>
	</g>
	<ellipse transform="matrix(0.0575 0.9983 -0.9983 0.0575 276.5195 50.9113)" cx="111.296" cy="171.908" rx="53.439" ry="25.069"/>
	<path d="M85.42,143.869c0,0-5.875,29.861-2.796,42.914c3.08,13.05,3.193,13.534,3.193,13.534l-14.583-0.754
		c0,0-8.255-9.324-7.924-26.983c0.332-17.659,8.158-28.519,8.158-28.519L85.42,143.869z"/>
	<g>
		<path d="M70.14,147.146c-9.367,1.387-12.171,12.786-12.825,20.849c-0.885,10.904,2.267,23.429,12.711,28.866
			c2.514,1.31,4.741-2.488,2.222-3.8c-7.339-3.821-10.239-11.979-10.771-19.771c-0.459-6.735,1.413-20.651,9.834-21.897
			C74.111,150.977,72.916,146.735,70.14,147.146L70.14,147.146z"/>
	</g>
	<g>
		<path d="M77.354,192.716c-2.237,15.842,7.379,33.846,18.667,44.456c7.728,7.264,18.929,10.576,29.015,12.765
			c10.562,2.29,22.525,4.634,33.049,1.255c2.691-0.866,1.541-5.117-1.171-4.245c-9.258,2.972-19.06,0.883-28.391-0.8
			c-9.218-1.66-18.092-4.489-26.025-9.548c-12.273-7.822-22.953-28.164-20.899-42.712C81.991,191.111,77.75,189.916,77.354,192.716
			L77.354,192.716z"/>
	</g>
	<g>
		<path d="M151.464,243.345c-0.765,3.359-1.718,12.004,3.469,12.19c3.282,0.117,4.168-3.675,3.939-6.2
			c-0.241-2.653-1.084-5.964-2.996-7.938c-1.046-1.081-2.668-0.691-3.457,0.447c-1.982,2.857-1.603,7.716-0.589,10.865
			c0.515,1.603,1.72,2.869,3.248,3.505c2.186,0.912,3.372-1.696,3.401-3.355c0.049-2.841-4.354-2.834-4.403,0
			c2.265,0.011,3.017-0.311,2.258-0.963c-0.217-0.281-0.257-0.348-0.36-0.674c-0.258-0.804-0.35-1.654-0.417-2.491
			c-0.12-1.488-0.222-3.388,0.664-4.666c-1.153,0.147-2.305,0.298-3.457,0.443c0.867,0.897,1.286,2.81,1.574,4.104
			c0.172,0.774,0.212,1.551,0.172,2.342c-0.007,0.155-0.084,0.344-0.149,0.462c0.321-0.591,1.135-0.191,1.447,0.225
			c-1.096-1.465-0.454-5.564-0.099-7.126C156.338,241.752,152.095,240.577,151.464,243.345L151.464,243.345z"/>
	</g>
	<g>
		<path d="M154.784,244.22c5.394-1.946,10.963-2.583,16.657-2.979c2.551-0.178,5.675-0.646,7.488,1.912
			c3.594,5.07-3.529,6.793-6.613,7.432c-4.996,1.035-9.891,2.601-15.016,2.835c-2.105,0.098-2.239-3.404-2.405-4.812
			c-0.063-0.676-0.092-1.356-0.083-2.035c-0.017-1.281,0.837-1.74-0.37-1.663c2.817-0.178,2.835-4.583,0-4.403
			c-5.917,0.373-4.1,9.887-2.812,13.443c2.849,7.868,16.471,1.964,21.855,0.88c3.931-0.789,6.974-1.84,9.416-5.088
			c2.072-2.754,1.184-8.233-1.346-10.425c-3.048-2.642-6.213-2.677-10.117-2.479c-6.035,0.308-12.125,1.078-17.829,3.136
			C150.964,240.93,152.106,245.186,154.784,244.22L154.784,244.22z"/>
	</g>
	<g>
		<path d="M157.633,246.688c4.993-2.522,12.205-2.749,17.696-3.568c2.808-0.418,1.599-4.64-1.171-4.245
			c-5.747,0.82-11.336,2.193-16.876,3.913c-2.279,0.708-1.978,4.568,0.584,4.325c6.333-0.604,12.418-3.112,18.834-2.324
			c-0.369-1.367-0.741-2.733-1.11-4.102c-2.271,1.272-4.805,1.534-7.302,2.102c-3.524,0.802-6.989,1.852-10.395,3.059
			c-2.206,0.778-2.031,4.546,0.586,4.321c6.486-0.55,12.69-2.742,19.198-3.056c-0.37-1.367-0.739-2.734-1.11-4.101
			c-6.311,2.671-13.374,2.436-19.321,6.113c-1.459,0.902-1.48,3.731,0.526,4.024c2.446,0.357,4.58-0.055,6.958-0.719
			c4.23-1.182,8.305-2.162,12.705-2.628c-0.371-1.367-0.742-2.735-1.111-4.103c-6.084,2.657-12.766,3.446-19.042,5.526
			c-2.712,0.899-1.605,4.784,1.17,4.245c3.788-0.734,7.491-1.801,11.257-2.628c3.107-0.686,6.664-0.466,9.613-1.755
			c5.699-2.49,3.807-7.515-1.059-9.4c-2.65-1.026-3.787,3.231-1.171,4.244c3.315,1.285-2.028,1.696-2.536,1.763
			c-1.462,0.189-2.921,0.381-4.38,0.593c-4.354,0.637-8.576,2.102-12.895,2.938c0.39,1.416,0.78,2.832,1.17,4.245
			c6.66-2.207,13.631-3.147,20.093-5.972c1.977-0.862,1.018-4.328-1.109-4.102c-3.117,0.333-6.187,0.875-9.27,1.424
			c-3.012,0.539-6.076,2.54-9.225,2.081c0.175,1.341,0.351,2.68,0.526,4.021c5.834-3.603,13.072-3.466,19.323-6.113
			c2.049-0.869,0.969-4.202-1.112-4.103c-6.525,0.312-12.713,2.505-19.198,3.056c0.195,1.441,0.39,2.883,0.584,4.325
			c5.979-2.118,13.229-2.508,18.747-5.604c2.094-1.172,0.903-3.853-1.111-4.103c-6.484-0.797-12.458,1.718-18.833,2.325
			c0.195,1.441,0.39,2.88,0.586,4.322c5.539-1.719,11.13-3.092,16.877-3.912c-0.392-1.416-0.781-2.832-1.171-4.245
			c-6.014,0.897-13.274,1.244-18.747,4.014C152.876,244.168,155.106,247.966,157.633,246.688L157.633,246.688z"/>
	</g>
</g>
</svg>
