<?xml version="1.0" encoding="utf-8"?>
<!-- Generator: Adobe Illustrator 15.1.0, SVG Export Plug-In . SVG Version: 6.00 Build 0)  -->
<!DOCTYPE svg PUBLIC "-//W3C//DTD SVG 1.1//EN" "http://www.w3.org/Graphics/SVG/1.1/DTD/svg11.dtd">
<svg version="1.1" id="Layer_1" xmlns="http://www.w3.org/2000/svg" xmlns:xlink="http://www.w3.org/1999/xlink" x="0px" y="0px"
	 width="328px" height="312px" viewBox="0 0 328 312" enable-background="new 0 0 328 312" xml:space="preserve">
<g>
	<g>
		<path d="M156.302,178.978c-10.332,27.479-20.664,54.957-30.995,82.435c-0.794,2.115,2.587,3.021,3.375,0.929
			c10.33-27.478,20.662-54.957,30.994-82.435C160.469,177.792,157.087,176.887,156.302,178.978L156.302,178.978z"/>
	</g>
	<g>
		<path d="M133.251,171.726c-10.37,27.626-20.739,55.253-31.108,82.88c-0.796,2.114,2.587,3.02,3.371,0.929
			c10.369-27.626,20.739-55.252,31.108-82.879C137.418,170.54,134.035,169.634,133.251,171.726L133.251,171.726z"/>
	</g>
	<g>
		<path d="M102.08,255.07c0.07,5.855,5.883,8.146,10.744,9.471c4.672,1.274,11.646,2.458,15.407-1.427
			c1.567-1.621-0.902-4.096-2.473-2.473c-3.849,3.979-20.107,0.597-20.18-5.571C105.551,252.817,102.054,252.813,102.08,255.07
			L102.08,255.07z"/>
	</g>
	<g>
		<path d="M106.581,244.207c1.773,9.463,15.556,13.21,23.719,10.655c2.146-0.672,1.229-4.048-0.929-3.373
			c-6.389,2-18.015-0.727-19.417-8.211C109.539,241.062,106.17,242.002,106.581,244.207L106.581,244.207z"/>
	</g>
	<g>
		<path d="M139.462,170.17c-1.7-0.723-6.89-0.792-5.649,2.586c1.443,3.929,6.668,5.062,10.204,6.513
			c3.133,1.286,6.578,1.66,9.854,2.441c1.404,0.335,3.768,0.672,4.891-0.561c2.671-2.936-0.472-4.68-3.105-5.765
			c-2.085-0.858-2.985,2.526-0.929,3.373c2.92,1.203,0.403-0.341-1.055-0.688c-1.885-0.45-3.801-0.769-5.688-1.218
			c-2.15-0.514-4.175-1.407-6.197-2.285c-0.518-0.253-1.043-0.49-1.578-0.71c-0.427-0.186-0.854-0.37-1.281-0.555
			c-0.516-0.64-0.925-0.677-1.231-0.111C139.748,174.062,141.532,171.049,139.462,170.17L139.462,170.17z"/>
	</g>
	<g>
		<path d="M154.455,170.924c-0.745,2.188-1.097,4.521-2.01,6.649c-0.88,2.049,2.133,3.833,3.02,1.766
			c1.041-2.426,1.516-4.995,2.361-7.485C158.554,169.712,155.175,168.801,154.455,170.924L154.455,170.924z"/>
	</g>
	<g>
		<path d="M140.806,162.764c-1.296,3.561-3.002,6.969-4.204,10.564c-0.717,2.146,2.661,3.058,3.373,0.929
			c1.204-3.594,2.909-7.003,4.203-10.563C144.951,161.568,141.571,160.662,140.806,162.764L140.806,162.764z"/>
	</g>
	<g>
		<path d="M172.57,173.103c-1.766,0-3.557-0.078-5.319-0.231c-17.578-1.525-33.446-10.417-44.677-25.03
			c-11.178-14.545-16.424-33.032-14.771-52.06c3.211-36.961,32.437-65.916,66.533-65.916c1.766,0,3.555,0.078,5.318,0.231
			c36.199,3.145,62.867,37.727,59.449,77.091C235.891,144.15,206.666,173.103,172.57,173.103z M174.335,35.112
			c-31.4,0-58.329,26.849-61.308,61.124c-1.537,17.714,3.33,34.906,13.707,48.408c10.323,13.434,24.875,21.603,40.97,23.001
			c1.614,0.14,3.251,0.211,4.864,0.211c31.398,0,58.33-26.849,61.308-61.122c3.17-36.482-21.36-68.518-54.679-71.412
			C177.585,35.183,175.95,35.112,174.335,35.112z"/>
	</g>
	<path d="M186.057,30.741c-8.752-0.76-17.254,0.464-25.136,3.323c5.945-1.402,12.158-1.905,18.507-1.354
		c34.814,3.024,60.362,36.27,57.062,74.251c-2.471,28.436-20.409,51.46-43.879,59.975c26.654-6.289,47.809-30.887,50.509-61.943
		C246.419,67.01,220.87,33.765,186.057,30.741z"/>
	<g>
		<path d="M172.346,163.837c-8.373,0-16.611-2.371-23.819-6.856c-24.774-15.417-32.693-52.253-17.649-82.114
			c10.325-20.494,29.103-33.225,49.004-33.225c8.375,0,16.611,2.371,23.82,6.857c24.776,15.416,32.692,52.251,17.651,82.112
			C211.027,151.105,192.25,163.837,172.346,163.837z M179.882,46.887c-17.91,0-34.892,11.625-44.318,30.339
			c-13.855,27.5-6.797,61.278,15.734,75.3c6.467,4.023,13.55,6.064,21.048,6.064c17.909,0,34.893-11.625,44.321-30.339
			c13.853-27.501,6.793-61.278-15.735-75.298C194.463,48.928,187.383,46.887,179.882,46.887z"/>
	</g>
	<path d="M144.587,153.95c5.957,3.706,12.369,5.762,18.864,6.309c-4.659-1.006-9.218-2.817-13.539-5.505
		c-23.69-14.741-31.163-49.98-16.691-78.707c10.834-21.504,30.893-33.262,50.235-31.629c-20.886-4.514-43.725,7.338-55.56,30.825
		C113.424,103.967,120.897,139.209,144.587,153.95z"/>
	<g>
		<path d="M211.15,80.456c-0.43,16.321-6.738,32.239-15.4,45.899c-0.605,0.956,0.909,1.833,1.51,0.883
			c8.826-13.917,15.203-30.162,15.641-46.782C212.93,79.327,211.182,79.33,211.15,80.456L211.15,80.456z"/>
	</g>
	<g>
		<path d="M203.094,99.24c-3.076,10.894-7.814,21.038-15.076,29.78c-0.713,0.859,0.517,2.104,1.236,1.235
			c7.459-8.979,12.367-19.358,15.527-30.551C205.088,98.618,203.4,98.157,203.094,99.24L203.094,99.24z"/>
	</g>
	<g>
		<path d="M185.416,136.883c-2.743,0.414-5.458,3.19-6.923,5.379c-1.55,2.32-0.455,5.216,2.688,4.63
			c3.397-0.635,6.827-4.438,7.236-7.854c0.161-1.348-0.246-3.019-1.914-3.031c-1.597-0.011-3.117,0.915-4.357,1.84
			c-0.891,0.666-0.021,2.185,0.883,1.51c0.812-0.606,1.676-1.146,2.639-1.475c1.417-0.482,1.109,0.886,0.82,1.841
			c-0.702,2.314-3.359,5.255-5.875,5.481c-2.647,0.238,0.01-2.926,0.632-3.585c1.175-1.246,2.872-2.783,4.635-3.05
			C186.993,138.401,186.52,136.716,185.416,136.883L185.416,136.883z"/>
	</g>
	<g>
		<path d="M191.479,133.063c1.127,0,1.127-1.749,0-1.749S190.352,133.063,191.479,133.063L191.479,133.063z"/>
	</g>
</g>
</svg>
