<?xml version="1.0" encoding="utf-8"?>
<!-- Generator: Adobe Illustrator 15.1.0, SVG Export Plug-In . SVG Version: 6.00 Build 0)  -->
<!DOCTYPE svg PUBLIC "-//W3C//DTD SVG 1.1//EN" "http://www.w3.org/Graphics/SVG/1.1/DTD/svg11.dtd">
<svg version="1.1" id="Layer_1" xmlns="http://www.w3.org/2000/svg" xmlns:xlink="http://www.w3.org/1999/xlink" x="0px" y="0px"
	 width="328px" height="312px" viewBox="0 0 328 312" enable-background="new 0 0 328 312" xml:space="preserve">
<g>
	<path d="M45.624,108.436c0.531,24.143,1.064,48.284,1.596,72.427c0.109,4.93,7.767,4.94,7.657,0
		c-0.531-24.143-1.064-48.285-1.595-72.427C53.172,103.505,45.515,103.495,45.624,108.436L45.624,108.436z"/>
</g>
<g>
	<g>
		<path d="M115.499,103.65c-21.696,0-43.393,0-65.089,0c-4.938,0-4.938,7.658,0,7.658c21.696,0,43.393,0,65.089,0
			C120.437,111.308,120.437,103.65,115.499,103.65L115.499,103.65z"/>
	</g>
	<g>
		<path d="M114.223,177.354c-20.951,0-41.904,0-62.855,0c-4.938,0-4.938,7.657,0,7.657c20.951,0,41.905,0,62.855,0
			C119.161,185.011,119.161,177.354,114.223,177.354L114.223,177.354z"/>
	</g>
	<g>
		<path d="M84.869,178.63c0-22.016,0-44.03,0-66.046c0-4.938-7.658-4.938-7.658,0c0,22.017,0,44.031,0,66.046
			C77.211,183.568,84.869,183.568,84.869,178.63L84.869,178.63z"/>
	</g>
	<g>
		<path d="M118.206,110.186c24.112-22.266,53.329-41.297,80.267-60.022c4.023-2.798,0.202-9.438-3.863-6.612
			c-27.491,19.109-57.201,38.49-81.816,61.221C109.158,108.128,114.587,113.53,118.206,110.186L118.206,110.186z"/>
	</g>
	<g>
		<path d="M111.197,183.889c26.906,22.761,53.815,45.521,80.723,68.279c3.744,3.168,9.191-2.221,5.414-5.415
			c-26.906-22.76-53.814-45.521-80.723-68.278C112.867,175.307,107.42,180.696,111.197,183.889L111.197,183.889z"/>
	</g>
	<g>
		<path d="M192.712,46.857c-0.53,66.733-1.063,133.466-1.595,200.201c-0.04,4.938,7.617,4.936,7.656,0
			c0.531-66.734,1.064-133.468,1.596-200.201C200.41,41.917,192.752,41.921,192.712,46.857L192.712,46.857z"/>
	</g>
	<g>
		<path d="M197.169,127.728c3.829,0,7.658,0,11.485,0c4.938,0,4.938-7.658,0-7.658c-3.828,0-7.656,0-11.485,0
			C192.23,120.07,192.23,127.728,197.169,127.728L197.169,127.728z"/>
	</g>
	<g>
		<path d="M205.146,124.537c0.047,18.72,0.59,37.436,0.638,56.155c0.013,4.938,7.67,4.938,7.657,0
			c-0.047-18.72-0.59-37.436-0.637-56.155C212.791,119.599,205.133,119.598,205.146,124.537L205.146,124.537z"/>
	</g>
	<g>
		<path d="M209.613,176.864c-3.617,0-7.231,0-10.848,0c-4.938,0-4.938,7.657,0,7.657c3.616,0,7.23,0,10.848,0
			C214.551,184.521,214.551,176.864,209.613,176.864L209.613,176.864z"/>
	</g>
	<g>
		<path d="M230.369,131.992c13.691-7.924,27.574-15.442,42.115-21.696c2.004-0.861,2.217-3.556,1.375-5.237
			c-0.041-0.08-0.08-0.16-0.121-0.239c-0.754-1.511-2.756-2.208-4.321-1.76c-0.278,0.08-0.56,0.159-0.837,0.238
			c-4.741,1.354-2.725,8.743,2.033,7.384c0.279-0.08,0.56-0.16,0.839-0.239c-1.44-0.586-2.882-1.173-4.322-1.76
			c0.04,0.08,0.08,0.159,0.12,0.238c0.456-1.746,0.915-3.491,1.374-5.237c-14.542,6.255-28.427,13.771-42.117,21.695
			C222.232,127.851,226.087,134.469,230.369,131.992L230.369,131.992z"/>
	</g>
	<g>
		<path d="M231.174,157.225c15.791-0.976,31.562-1.493,47.371-0.613c2.094,0.117,3.816-1.83,3.829-3.829c0-0.09,0-0.178,0.002-0.268
			c0.007-1.594-1.164-3.385-2.812-3.691c-0.287-0.054-0.57-0.105-0.857-0.16c-4.826-0.901-6.885,6.478-2.034,7.383
			c0.284,0.055,0.571,0.107,0.854,0.161c-0.938-1.23-1.875-2.461-2.809-3.692c-0.003,0.09-0.003,0.178-0.003,0.268
			c1.276-1.276,2.554-2.553,3.829-3.829c-15.809-0.88-31.58-0.362-47.371,0.613C226.27,149.871,226.241,157.529,231.174,157.225
			L231.174,157.225z"/>
	</g>
	<g>
		<path d="M232.378,182.321c14.315,5.908,28.414,12.244,41.942,19.808c1.72,0.962,4.302,0.523,5.236-1.375
			c0.041-0.079,0.08-0.158,0.121-0.237c1-2.033,0.395-3.929-1.377-5.238c-0.23-0.173-0.466-0.347-0.699-0.521
			c-3.977-2.939-7.787,3.71-3.865,6.613c0.232,0.172,0.467,0.345,0.701,0.52c-0.459-1.746-0.914-3.492-1.373-5.238
			c-0.041,0.08-0.08,0.159-0.117,0.239c1.744-0.458,3.492-0.916,5.236-1.375c-14.105-7.888-28.843-14.418-43.771-20.578
			C229.848,173.054,227.879,180.465,232.378,182.321L232.378,182.321z"/>
	</g>
</g>
</svg>
