<?xml version="1.0" encoding="utf-8"?>
<!-- Generator: Adobe Illustrator 15.1.0, SVG Export Plug-In . SVG Version: 6.00 Build 0)  -->
<!DOCTYPE svg PUBLIC "-//W3C//DTD SVG 1.1//EN" "http://www.w3.org/Graphics/SVG/1.1/DTD/svg11.dtd">
<svg version="1.1" id="Layer_1" xmlns="http://www.w3.org/2000/svg" xmlns:xlink="http://www.w3.org/1999/xlink" x="0px" y="0px"
	 width="328px" height="312px" viewBox="0 0 328 312" enable-background="new 0 0 328 312" xml:space="preserve">
<g>
	<g>
		<path d="M100.077,115.154c34.436-21.181,68.868-42.361,103.304-63.541c3.848-2.366,0.325-8.438-3.541-6.06
			c-34.436,21.181-68.871,42.36-103.304,63.541C92.69,111.461,96.212,117.531,100.077,115.154L100.077,115.154z"/>
	</g>
	<g>
		<path d="M94.979,204.425c32.437,15.928,64.483,32.545,96.429,49.44c3.996,2.113,7.542-3.945,3.539-6.06
			c-31.942-16.894-63.988-33.513-96.427-49.442C94.474,196.378,90.916,202.429,94.979,204.425L94.979,204.425z"/>
	</g>
	<g>
		<path d="M93.721,111.523c-6.078,13.832-10.599,27.734-11.394,42.899c-0.847,16.134,4.016,32.277,9.091,47.366
			c1.435,4.268,8.211,2.438,6.766-1.864c-4.641-13.805-8.495-27.616-8.88-42.264c-0.393-14.84,4.591-29.205,10.475-42.598
			C101.58,110.963,95.537,107.388,93.721,111.523L93.721,111.523z"/>
	</g>
	<g>
		<path d="M107.263,104.117c-7.814,10.859-8.99,24.222-10.879,37.091c-2.453,16.696-2.382,33.688,2.924,49.814
			c1.407,4.275,8.184,2.443,6.765-1.866c-4.652-14.147-4.76-28.432-3.277-43.107c1.307-12.918,2.764-27.603,10.525-38.392
			C115.97,103.977,109.878,100.48,107.263,104.117L107.263,104.117z"/>
	</g>
	<g>
		<path d="M59.87,126.617c11.371-2.274,22.741-4.548,34.111-6.822c4.436-0.886,2.554-7.648-1.864-6.766
			c-11.371,2.274-22.741,4.548-34.111,6.822C53.57,120.738,55.453,127.501,59.87,126.617L59.87,126.617z"/>
	</g>
	<g>
		<path d="M58.744,200.225c12.019,1.039,24.038,2.079,36.057,3.118c4.511,0.388,4.472-6.629,0-7.018
			c-12.019-1.04-24.038-2.079-36.057-3.118C54.233,192.817,54.271,199.839,58.744,200.225L58.744,200.225z"/>
	</g>
	<g>
		<path d="M55.909,121.464c-6.101,10.276-6.503,25.059-7.081,36.641c-0.642,12.894,1.646,27.56,6.532,39.547
			c1.684,4.129,8.474,2.325,6.766-1.869c-4.214-10.338-6.037-22.297-6.354-33.359c-0.322-11.192,0.242-27.388,6.195-37.418
			C64.283,121.104,58.216,117.578,55.909,121.464L55.909,121.464z"/>
	</g>
	<g>
		<path d="M54.941,147.647c6.724-0.585,13.449-1.169,20.173-1.754c4.472-0.389,4.509-7.409,0-7.018
			c-6.725,0.584-13.449,1.169-20.173,1.754C50.468,141.019,50.432,148.039,54.941,147.647L54.941,147.647z"/>
	</g>
	<g>
		<path d="M54.941,165.835c6.724-0.585,13.449-1.169,20.173-1.754c4.472-0.388,4.509-7.409,0-7.017
			c-6.725,0.584-13.449,1.169-20.173,1.754C50.468,159.207,50.432,166.227,54.941,165.835L54.941,165.835z"/>
	</g>
	<g>
		<path d="M55.772,183.494c6.75-0.05,13.497-0.104,20.247-0.158c4.522-0.033,4.527-7.051,0-7.017
			c-6.75,0.053-13.497,0.106-20.247,0.158C51.25,176.514,51.245,183.53,55.772,183.494L55.772,183.494z"/>
	</g>
	<g>
		<path d="M217.178,40.178c-25.716,0.671-42.682,32.11-50.131,52.59c-15.066,41.417-15.529,96.115,4.319,136.136
			c10.733,21.64,33.698,41.347,58.61,29.588c34.02-16.055,37.515-70.337,38.076-101.946c0.592-33.188-2.561-71.868-23.742-99.091
			C237.99,49.331,227.883,41.157,217.178,40.178c-4.508-0.413-4.469,6.607,0,7.017c2.051,0.188,9.108,3.383,12.553,5.796
			c12.455,8.729,19.289,24.047,23.687,38.045c8.657,27.563,8.926,58.231,6.587,86.771c-1.764,21.522-6.546,44.526-19.396,62.352
			c-7.849,10.886-20.346,17.524-33.711,13.929c-14.426-3.883-24.142-17.98-30.391-30.58c-10.247-20.656-12.576-44.631-12.417-67.347
			c0.19-26.799,4.433-54.651,17.28-78.48c6.617-12.272,20.08-30.073,35.808-30.484C221.693,47.077,221.704,40.059,217.178,40.178z"
			/>
	</g>
	<g>
		<path d="M211.555,60.667c-29.854,0.852-45.896,39.865-51.021,63.666c-7.764,36.062-6.315,87.771,24.76,113.539
			c22.88,18.975,48.727,5.112,60.577-18.521c10.405-20.759,12.022-45.507,11.845-68.296c-0.173-22.327-3.344-45.872-14.312-65.654
			C237.12,74.065,225.307,61.855,211.555,60.667c-4.51-0.389-4.474,6.631,0,7.018c21.375,1.845,32.819,33.92,36.418,52.686
			c5.129,26.771,4.248,56.92-3.425,83.114c-4.467,15.253-13.771,32.284-30.463,36.146c-13.828,3.2-26.5-7.237-33.997-17.653
			c-12.406-17.236-15.838-39.78-16.027-60.49c-0.231-25.131,4.091-51.607,18.234-72.861c6.119-9.195,17.305-20.601,29.26-20.94
			C216.068,67.555,216.081,60.539,211.555,60.667z"/>
	</g>
	<g>
		<path d="M202.68,118.65c-13.537,14.657-15.973,36.99-10.367,55.589c4.318,14.328,22.492,29.775,35.047,14.874
			c13.514-16.032,12.054-46.341,4.674-64.369C226.346,110.846,213.154,107.213,202.68,118.65c-3.049,3.329,1.898,8.305,4.961,4.961
			c1.514-1.652,3.267-2.927,5.184-4.083c9.383-5.666,14.062,10.628,15.765,16.923c4.029,14.881,1.211,31.668-5.058,45.482
			c-5.262,11.599-16.118,4.262-21.145-2.656c-3.658-5.032-4.923-11.929-5.629-17.956c-1.535-13.118,1.805-27.88,10.885-37.711
			C210.706,120.293,205.756,115.32,202.68,118.65z"/>
	</g>
	<path d="M213.331,122.571c-10.394,12.393-12.427,39.167-5.726,55.019c4.847,11.24,16.854,19.601,22.625,4.899
		c6.926-17.292,8.082-41.213,0.459-58.506C223.766,108.132,213.331,122.571,213.331,122.571z"/>
	<g>
		<path d="M170.773,207.504c14.724-5.282,30.086-8.293,45.023-12.863c4.314-1.318,2.475-8.091-1.863-6.767
			c-14.938,4.568-30.304,7.581-45.024,12.864C164.684,202.255,166.504,209.04,170.773,207.504L170.773,207.504z"/>
	</g>
	<g>
		<path d="M169.841,113.489c15.722,1.622,31.446,3.243,47.167,4.864c4.5,0.464,4.454-6.559,0-7.018
			c-15.722-1.622-31.445-3.242-47.167-4.863C165.341,106.008,165.387,113.03,169.841,113.489L169.841,113.489z"/>
	</g>
</g>
</svg>
