<?xml version="1.0" encoding="UTF-8" standalone="no"?>
<!DOCTYPE svg PUBLIC "-//W3C//DTD SVG 1.1//EN" "http://www.w3.org/Graphics/SVG/1.1/DTD/svg11.dtd">
<svg width="100%" height="100%" viewBox="0 0 1200 1201" version="1.1" xmlns="http://www.w3.org/2000/svg" xmlns:xlink="http://www.w3.org/1999/xlink" xml:space="preserve" xmlns:serif="http://www.serif.com/" style="fill-rule:evenodd;clip-rule:evenodd;stroke-linejoin:round;stroke-miterlimit:1.41421;">
    <g transform="matrix(1,0,0,1,-7293,-1681)">
        <g id="Og-Sqaure" serif:id="Og Sqaure" transform="matrix(1.2,0,0,1.2,7293,1681.01)">
            <rect x="0" y="0" width="1000" height="1000" style="fill:none;"/>
            <clipPath id="_clip1">
                <rect x="0" y="0" width="1000" height="1000"/>
            </clipPath>
            <g clip-path="url(#_clip1)">
                <g transform="matrix(0.833333,0,0,1.48148,-4755,2.0211e-13)">
                    <rect x="5706" y="0" width="1200" height="675"/>
                </g>
                <g id="Logo" transform="matrix(4.67602,0,0,11.9693,-1703.52,-1046.53)">
                    <g id="path989" transform="matrix(1.14063,0,0,0.456251,-417.127,230.766)">
                        <path d="M710.876,-305.026L710.876,-262.1L745.101,-262.1L745.101,-305.026L710.876,-305.026ZM710.876,-231.162C710.102,-230.259 708.749,-229.357 706.815,-228.455C704.881,-227.681 702.432,-227.295 699.467,-227.295C696.502,-227.295 693.666,-227.81 690.959,-228.841C688.381,-229.873 686.061,-231.355 683.998,-233.289C681.936,-235.222 680.26,-237.543 678.971,-240.25C677.811,-242.957 677.231,-245.986 677.231,-249.338C677.231,-253.592 678.391,-256.75 680.711,-258.812C683.032,-261.004 685.674,-262.1 688.639,-262.1L690.186,-262.1L690.186,-305.026L672.789,-305.026C669.915,-305.189 669.485,-307.787 669.496,-308.424L669.496,-318.01C669.491,-318.848 670.245,-321.176 672.801,-321.268L778.785,-321.268C779.504,-321.317 781.944,-320.662 782.061,-317.94L782.061,-308.448C782.1,-307.684 781.565,-305.12 778.574,-305.026L765.984,-305.026L765.984,-201.702C765.945,-201.254 765.758,-198.406 762.482,-198.29L748.428,-198.29C746.373,-198.279 745.001,-200.133 745.101,-201.95L745.101,-245.664L710.876,-245.664L710.876,-231.162Z" style="fill:rgb(21,21,21);fill-rule:nonzero;"/>
                    </g>
                    <g id="path1609" transform="matrix(-1.14063,0,0,0.456251,-417.127,230.766)">
                        <path d="M-829.189,-232.531C-829.189,-224.3 -829.067,-217.236 -828.821,-211.339C-828.575,-205.442 -827.838,-200.651 -826.609,-196.966C-825.258,-193.157 -823.292,-190.393 -820.713,-188.673C-818.01,-186.83 -814.263,-185.909 -809.472,-185.909L-808.55,-185.909C-805.848,-185.909 -804.496,-184.558 -804.496,-181.855L-804.496,-179.275C-804.496,-176.572 -805.848,-175.221 -808.55,-175.221L-809.472,-175.221C-816.72,-175.221 -822.433,-176.449 -826.609,-178.906C-830.664,-181.241 -833.735,-184.742 -835.823,-189.41C-837.912,-193.956 -839.202,-199.484 -839.693,-205.995C-840.185,-212.629 -840.43,-220.185 -840.43,-228.661C-840.43,-235.91 -841.352,-241.254 -843.194,-244.694C-845.037,-248.134 -847.863,-251.082 -851.671,-253.539C-853.391,-254.645 -854.558,-255.689 -855.173,-256.672C-855.787,-257.655 -856.094,-258.883 -856.094,-260.357L-856.094,-262.569C-856.094,-264.043 -855.787,-265.271 -855.173,-266.254C-854.558,-267.237 -853.391,-268.281 -851.671,-269.387C-847.863,-271.844 -845.037,-274.792 -843.194,-278.232C-841.352,-281.672 -840.43,-287.016 -840.43,-294.264C-840.43,-302.741 -840.185,-310.235 -839.693,-316.746C-839.202,-323.38 -837.912,-328.97 -835.823,-333.516C-833.735,-338.061 -830.664,-341.501 -826.609,-343.835C-822.433,-346.292 -816.72,-347.521 -809.472,-347.521L-808.55,-347.521C-805.848,-347.521 -804.496,-346.169 -804.496,-343.467L-804.496,-340.887C-804.496,-338.184 -805.848,-336.833 -808.55,-336.833L-809.472,-336.833C-814.263,-336.833 -818.01,-335.911 -820.713,-334.068C-823.292,-332.348 -825.258,-329.584 -826.609,-325.776C-827.838,-322.09 -828.575,-317.299 -828.821,-311.402C-829.067,-305.628 -829.189,-298.626 -829.189,-290.395C-829.189,-283.146 -830.295,-277.188 -832.506,-272.52C-834.718,-267.974 -838.219,-264.289 -843.01,-261.463C-838.219,-258.637 -834.718,-254.89 -832.506,-250.222C-830.295,-245.676 -829.189,-239.78 -829.189,-232.531Z" style="fill:rgb(21,21,21);fill-rule:nonzero;"/>
                    </g>
                </g>
                <g id="Logo1" serif:id="Logo" transform="matrix(1.83695,0,0,4.59238,-254.397,-102.009)">
                    <g id="path9891" serif:id="path989" transform="matrix(1.14063,0,0,0.456251,-417.127,230.766)">
                        <path d="M710.876,-305.026L710.876,-262.1L745.101,-262.1L745.101,-305.026L710.876,-305.026ZM710.876,-231.162C710.102,-230.259 708.749,-229.357 706.815,-228.455C704.881,-227.681 702.432,-227.295 699.467,-227.295C696.502,-227.295 693.666,-227.81 690.959,-228.841C688.381,-229.873 686.061,-231.355 683.998,-233.289C681.936,-235.222 680.26,-237.543 678.971,-240.25C677.811,-242.957 677.231,-245.986 677.231,-249.338C677.231,-253.592 678.391,-256.75 680.711,-258.812C683.032,-261.004 685.674,-262.1 688.639,-262.1L690.186,-262.1L690.186,-305.026L672.789,-305.026C669.915,-305.189 669.485,-307.787 669.496,-308.424L669.496,-318.01C669.491,-318.848 670.245,-321.176 672.801,-321.268L778.785,-321.268C779.504,-321.317 781.944,-320.662 782.061,-317.94L782.061,-308.448C782.1,-307.684 781.565,-305.12 778.574,-305.026L765.984,-305.026L765.984,-201.702C765.945,-201.254 765.758,-198.406 762.482,-198.29L748.428,-198.29C746.373,-198.279 745.001,-200.133 745.101,-201.95L745.101,-245.664L710.876,-245.664L710.876,-231.162Z" style="fill:rgb(242,242,242);fill-rule:nonzero;"/>
                    </g>
                    <g id="path1606" transform="matrix(1.14063,0,0,0.456251,-417.127,230.766)">
                        <path d="M622.303,-232.531C622.303,-224.3 622.426,-217.236 622.671,-211.339C622.917,-205.442 623.654,-200.651 624.883,-196.966C626.234,-193.157 628.2,-190.393 630.78,-188.673C633.482,-186.83 637.229,-185.909 642.021,-185.909L642.942,-185.909C645.645,-185.909 646.996,-184.558 646.996,-181.855L646.996,-179.275C646.996,-176.572 645.645,-175.221 642.942,-175.221L642.021,-175.221C634.772,-175.221 629.06,-176.449 624.883,-178.906C620.829,-181.241 617.757,-184.742 615.669,-189.41C613.58,-193.956 612.29,-199.484 611.799,-205.995C611.308,-212.629 611.062,-220.185 611.062,-228.661C611.062,-235.91 610.141,-241.254 608.298,-244.694C606.455,-248.134 603.629,-251.082 599.821,-253.539C598.101,-254.645 596.934,-255.689 596.32,-256.672C595.705,-257.655 595.398,-258.883 595.398,-260.357L595.398,-262.569C595.398,-264.043 595.705,-265.271 596.32,-266.254C596.934,-267.237 598.101,-268.281 599.821,-269.387C603.629,-271.844 606.455,-274.792 608.298,-278.232C610.141,-281.672 611.062,-287.016 611.062,-294.264C611.062,-302.741 611.308,-310.235 611.799,-316.746C612.29,-323.38 613.58,-328.97 615.669,-333.516C617.757,-338.061 620.829,-341.501 624.883,-343.835C629.06,-346.292 634.772,-347.521 642.021,-347.521L642.942,-347.521C645.645,-347.521 646.996,-346.169 646.996,-343.467L646.996,-340.887C646.996,-338.184 645.645,-336.833 642.942,-336.833L642.021,-336.833C637.229,-336.833 633.482,-335.911 630.78,-334.068C628.2,-332.348 626.234,-329.584 624.883,-325.776C623.654,-322.09 622.917,-317.299 622.671,-311.402C622.426,-305.628 622.303,-298.626 622.303,-290.395C622.303,-283.146 621.197,-277.188 618.986,-272.52C616.775,-267.974 613.273,-264.289 608.482,-261.463C613.273,-258.637 616.775,-254.89 618.986,-250.222C621.197,-245.676 622.303,-239.78 622.303,-232.531Z" style="fill:rgb(255,243,0);fill-rule:nonzero;"/>
                    </g>
                    <g id="path16091" serif:id="path1609" transform="matrix(-1.14063,0,0,0.456251,-417.127,230.766)">
                        <path d="M-829.189,-232.531C-829.189,-224.3 -829.067,-217.236 -828.821,-211.339C-828.575,-205.442 -827.838,-200.651 -826.609,-196.966C-825.258,-193.157 -823.292,-190.393 -820.713,-188.673C-818.01,-186.83 -814.263,-185.909 -809.472,-185.909L-808.55,-185.909C-805.848,-185.909 -804.496,-184.558 -804.496,-181.855L-804.496,-179.275C-804.496,-176.572 -805.848,-175.221 -808.55,-175.221L-809.472,-175.221C-816.72,-175.221 -822.433,-176.449 -826.609,-178.906C-830.664,-181.241 -833.735,-184.742 -835.823,-189.41C-837.912,-193.956 -839.202,-199.484 -839.693,-205.995C-840.185,-212.629 -840.43,-220.185 -840.43,-228.661C-840.43,-235.91 -841.352,-241.254 -843.194,-244.694C-845.037,-248.134 -847.863,-251.082 -851.671,-253.539C-853.391,-254.645 -854.558,-255.689 -855.173,-256.672C-855.787,-257.655 -856.094,-258.883 -856.094,-260.357L-856.094,-262.569C-856.094,-264.043 -855.787,-265.271 -855.173,-266.254C-854.558,-267.237 -853.391,-268.281 -851.671,-269.387C-847.863,-271.844 -845.037,-274.792 -843.194,-278.232C-841.352,-281.672 -840.43,-287.016 -840.43,-294.264C-840.43,-302.741 -840.185,-310.235 -839.693,-316.746C-839.202,-323.38 -837.912,-328.97 -835.823,-333.516C-833.735,-338.061 -830.664,-341.501 -826.609,-343.835C-822.433,-346.292 -816.72,-347.521 -809.472,-347.521L-808.55,-347.521C-805.848,-347.521 -804.496,-346.169 -804.496,-343.467L-804.496,-340.887C-804.496,-338.184 -805.848,-336.833 -808.55,-336.833L-809.472,-336.833C-814.263,-336.833 -818.01,-335.911 -820.713,-334.068C-823.292,-332.348 -825.258,-329.584 -826.609,-325.776C-827.838,-322.09 -828.575,-317.299 -828.821,-311.402C-829.067,-305.628 -829.189,-298.626 -829.189,-290.395C-829.189,-283.146 -830.295,-277.188 -832.506,-272.52C-834.718,-267.974 -838.219,-264.289 -843.01,-261.463C-838.219,-258.637 -834.718,-254.89 -832.506,-250.222C-830.295,-245.676 -829.189,-239.78 -829.189,-232.531Z" style="fill:rgb(255,243,0);fill-rule:nonzero;"/>
                    </g>
                </g>
                <g transform="matrix(8.92343,0,0,8.92343,-6631.53,-2855.42)">
                    <text x="767.746px" y="403.686px" style="font-family:'Khand-Regular', 'Khand';font-size:12px;fill:rgb(255,243,0);">मुंबई</text>
                    <text x="786.67px" y="403.686px" style="font-family:'Khand-Regular', 'Khand';font-size:12px;fill:white;">Hackathon</text>
                </g>
            </g>
        </g>
    </g>
</svg>
