<?xml version="1.0" encoding="UTF-8" standalone="no"?>
<!DOCTYPE svg PUBLIC "-//W3C//DTD SVG 1.1//EN" "http://www.w3.org/Graphics/SVG/1.1/DTD/svg11.dtd">
<svg width="100%" height="100%" viewBox="0 0 2481 3508" version="1.1" xmlns="http://www.w3.org/2000/svg" xmlns:xlink="http://www.w3.org/1999/xlink" xml:space="preserve" xmlns:serif="http://www.serif.com/" style="fill-rule:evenodd;clip-rule:evenodd;stroke-linejoin:round;stroke-miterlimit:1.41421;">
    <g id="Poster" transform="matrix(2.48031,0,0,3.50787,0,0)">
        <rect x="0" y="0" width="1000" height="1000" style="fill:none;"/>
        <clipPath id="_clip1">
            <rect x="0" y="0" width="1000" height="1000"/>
        </clipPath>
        <g clip-path="url(#_clip1)">
            <g transform="matrix(1,0,0,3.27702,-1173,0.507489)">
                <rect x="1173" y="0" width="1000" height="305"/>
            </g>
            <g id="Logo" transform="matrix(5.52722,0,0,11.9818,-1369.28,-714.589)">
                <g id="path989" transform="matrix(1.14063,0,0,0.456251,-417.127,230.766)">
                    <path d="M710.876,-305.026L710.876,-262.1L745.101,-262.1L745.101,-305.026L710.876,-305.026ZM710.876,-231.162C710.102,-230.259 708.749,-229.357 706.815,-228.455C704.881,-227.681 702.432,-227.295 699.467,-227.295C696.502,-227.295 693.666,-227.81 690.959,-228.841C688.381,-229.873 686.061,-231.355 683.998,-233.289C681.936,-235.222 680.26,-237.543 678.971,-240.25C677.811,-242.957 677.231,-245.986 677.231,-249.338C677.231,-253.592 678.391,-256.75 680.711,-258.812C683.032,-261.004 685.674,-262.1 688.639,-262.1L690.186,-262.1L690.186,-305.026L672.789,-305.026C669.915,-305.189 669.485,-307.787 669.496,-308.424L669.496,-318.01C669.491,-318.848 670.245,-321.176 672.801,-321.268L778.785,-321.268C779.504,-321.317 781.944,-320.662 782.061,-317.94L782.061,-308.448C782.1,-307.684 781.565,-305.12 778.574,-305.026L765.984,-305.026L765.984,-201.702C765.945,-201.254 765.758,-198.406 762.482,-198.29L748.428,-198.29C746.373,-198.279 745.001,-200.133 745.101,-201.95L745.101,-245.664L710.876,-245.664L710.876,-231.162Z" style="fill:rgb(21,21,21);fill-rule:nonzero;"/>
                </g>
                <g id="path1606" transform="matrix(1.14063,0,0,0.456251,-417.127,230.766)">
                    <path d="M622.303,-232.531C622.303,-224.3 622.426,-217.236 622.671,-211.339C622.917,-205.442 623.654,-200.651 624.883,-196.966C626.234,-193.157 628.2,-190.393 630.78,-188.673C633.482,-186.83 637.229,-185.909 642.021,-185.909L642.942,-185.909C645.645,-185.909 646.996,-184.558 646.996,-181.855L646.996,-179.275C646.996,-176.572 645.645,-175.221 642.942,-175.221L642.021,-175.221C634.772,-175.221 629.06,-176.449 624.883,-178.906C620.829,-181.241 617.757,-184.742 615.669,-189.41C613.58,-193.956 612.29,-199.484 611.799,-205.995C611.308,-212.629 611.062,-220.185 611.062,-228.661C611.062,-235.91 610.141,-241.254 608.298,-244.694C606.455,-248.134 603.629,-251.082 599.821,-253.539C598.101,-254.645 596.934,-255.689 596.32,-256.672C595.705,-257.655 595.398,-258.883 595.398,-260.357L595.398,-262.569C595.398,-264.043 595.705,-265.271 596.32,-266.254C596.934,-267.237 598.101,-268.281 599.821,-269.387C603.629,-271.844 606.455,-274.792 608.298,-278.232C610.141,-281.672 611.062,-287.016 611.062,-294.264C611.062,-302.741 611.308,-310.235 611.799,-316.746C612.29,-323.38 613.58,-328.97 615.669,-333.516C617.757,-338.061 620.829,-341.501 624.883,-343.835C629.06,-346.292 634.772,-347.521 642.021,-347.521L642.942,-347.521C645.645,-347.521 646.996,-346.169 646.996,-343.467L646.996,-340.887C646.996,-338.184 645.645,-336.833 642.942,-336.833L642.021,-336.833C637.229,-336.833 633.482,-335.911 630.78,-334.068C628.2,-332.348 626.234,-329.584 624.883,-325.776C623.654,-322.09 622.917,-317.299 622.671,-311.402C622.426,-305.628 622.303,-298.626 622.303,-290.395C622.303,-283.146 621.197,-277.188 618.986,-272.52C616.775,-267.974 613.273,-264.289 608.482,-261.463C613.273,-258.637 616.775,-254.89 618.986,-250.222C621.197,-245.676 622.303,-239.78 622.303,-232.531Z" style="fill:rgb(21,21,21);fill-rule:nonzero;"/>
                </g>
            </g>
            <g id="Logo1" serif:id="Logo" transform="matrix(0.650433,0,0,1.14975,-130.413,776.593)">
                <g id="path9891" serif:id="path989" transform="matrix(1.14063,0,0,0.456251,-417.127,230.766)">
                    <path d="M710.876,-305.026L710.876,-262.1L745.101,-262.1L745.101,-305.026L710.876,-305.026ZM710.876,-231.162C710.102,-230.259 708.749,-229.357 706.815,-228.455C704.881,-227.681 702.432,-227.295 699.467,-227.295C696.502,-227.295 693.666,-227.81 690.959,-228.841C688.381,-229.873 686.061,-231.355 683.998,-233.289C681.936,-235.222 680.26,-237.543 678.971,-240.25C677.811,-242.957 677.231,-245.986 677.231,-249.338C677.231,-253.592 678.391,-256.75 680.711,-258.812C683.032,-261.004 685.674,-262.1 688.639,-262.1L690.186,-262.1L690.186,-305.026L672.789,-305.026C669.915,-305.189 669.485,-307.787 669.496,-308.424L669.496,-318.01C669.491,-318.848 670.245,-321.176 672.801,-321.268L778.785,-321.268C779.504,-321.317 781.944,-320.662 782.061,-317.94L782.061,-308.448C782.1,-307.684 781.565,-305.12 778.574,-305.026L765.984,-305.026L765.984,-201.702C765.945,-201.254 765.758,-198.406 762.482,-198.29L748.428,-198.29C746.373,-198.279 745.001,-200.133 745.101,-201.95L745.101,-245.664L710.876,-245.664L710.876,-231.162Z" style="fill:rgb(242,242,242);fill-rule:nonzero;"/>
                </g>
                <g id="path16061" serif:id="path1606" transform="matrix(1.14063,0,0,0.456251,-417.127,230.766)">
                    <path d="M622.303,-232.531C622.303,-224.3 622.426,-217.236 622.671,-211.339C622.917,-205.442 623.654,-200.651 624.883,-196.966C626.234,-193.157 628.2,-190.393 630.78,-188.673C633.482,-186.83 637.229,-185.909 642.021,-185.909L642.942,-185.909C645.645,-185.909 646.996,-184.558 646.996,-181.855L646.996,-179.275C646.996,-176.572 645.645,-175.221 642.942,-175.221L642.021,-175.221C634.772,-175.221 629.06,-176.449 624.883,-178.906C620.829,-181.241 617.757,-184.742 615.669,-189.41C613.58,-193.956 612.29,-199.484 611.799,-205.995C611.308,-212.629 611.062,-220.185 611.062,-228.661C611.062,-235.91 610.141,-241.254 608.298,-244.694C606.455,-248.134 603.629,-251.082 599.821,-253.539C598.101,-254.645 596.934,-255.689 596.32,-256.672C595.705,-257.655 595.398,-258.883 595.398,-260.357L595.398,-262.569C595.398,-264.043 595.705,-265.271 596.32,-266.254C596.934,-267.237 598.101,-268.281 599.821,-269.387C603.629,-271.844 606.455,-274.792 608.298,-278.232C610.141,-281.672 611.062,-287.016 611.062,-294.264C611.062,-302.741 611.308,-310.235 611.799,-316.746C612.29,-323.38 613.58,-328.97 615.669,-333.516C617.757,-338.061 620.829,-341.501 624.883,-343.835C629.06,-346.292 634.772,-347.521 642.021,-347.521L642.942,-347.521C645.645,-347.521 646.996,-346.169 646.996,-343.467L646.996,-340.887C646.996,-338.184 645.645,-336.833 642.942,-336.833L642.021,-336.833C637.229,-336.833 633.482,-335.911 630.78,-334.068C628.2,-332.348 626.234,-329.584 624.883,-325.776C623.654,-322.09 622.917,-317.299 622.671,-311.402C622.426,-305.628 622.303,-298.626 622.303,-290.395C622.303,-283.146 621.197,-277.188 618.986,-272.52C616.775,-267.974 613.273,-264.289 608.482,-261.463C613.273,-258.637 616.775,-254.89 618.986,-250.222C621.197,-245.676 622.303,-239.78 622.303,-232.531Z" style="fill:rgb(255,243,0);fill-rule:nonzero;"/>
                </g>
                <g id="path1609" transform="matrix(-1.14063,0,0,0.456251,-417.127,230.766)">
                    <path d="M-829.189,-232.531C-829.189,-224.3 -829.067,-217.236 -828.821,-211.339C-828.575,-205.442 -827.838,-200.651 -826.609,-196.966C-825.258,-193.157 -823.292,-190.393 -820.713,-188.673C-818.01,-186.83 -814.263,-185.909 -809.472,-185.909L-808.55,-185.909C-805.848,-185.909 -804.496,-184.558 -804.496,-181.855L-804.496,-179.275C-804.496,-176.572 -805.848,-175.221 -808.55,-175.221L-809.472,-175.221C-816.72,-175.221 -822.433,-176.449 -826.609,-178.906C-830.664,-181.241 -833.735,-184.742 -835.823,-189.41C-837.912,-193.956 -839.202,-199.484 -839.693,-205.995C-840.185,-212.629 -840.43,-220.185 -840.43,-228.661C-840.43,-235.91 -841.352,-241.254 -843.194,-244.694C-845.037,-248.134 -847.863,-251.082 -851.671,-253.539C-853.391,-254.645 -854.558,-255.689 -855.173,-256.672C-855.787,-257.655 -856.094,-258.883 -856.094,-260.357L-856.094,-262.569C-856.094,-264.043 -855.787,-265.271 -855.173,-266.254C-854.558,-267.237 -853.391,-268.281 -851.671,-269.387C-847.863,-271.844 -845.037,-274.792 -843.194,-278.232C-841.352,-281.672 -840.43,-287.016 -840.43,-294.264C-840.43,-302.741 -840.185,-310.235 -839.693,-316.746C-839.202,-323.38 -837.912,-328.97 -835.823,-333.516C-833.735,-338.061 -830.664,-341.501 -826.609,-343.835C-822.433,-346.292 -816.72,-347.521 -809.472,-347.521L-808.55,-347.521C-805.848,-347.521 -804.496,-346.169 -804.496,-343.467L-804.496,-340.887C-804.496,-338.184 -805.848,-336.833 -808.55,-336.833L-809.472,-336.833C-814.263,-336.833 -818.01,-335.911 -820.713,-334.068C-823.292,-332.348 -825.258,-329.584 -826.609,-325.776C-827.838,-322.09 -828.575,-317.299 -828.821,-311.402C-829.067,-305.628 -829.189,-298.626 -829.189,-290.395C-829.189,-283.146 -830.295,-277.188 -832.506,-272.52C-834.718,-267.974 -838.219,-264.289 -843.01,-261.463C-838.219,-258.637 -834.718,-254.89 -832.506,-250.222C-830.295,-245.676 -829.189,-239.78 -829.189,-232.531Z" style="fill:rgb(255,243,0);fill-rule:nonzero;"/>
                </g>
            </g>
            <g transform="matrix(7.94577,0,0,5.61822,-6059,-2159.41)">
                <text x="767.746px" y="403.686px" style="font-family:'Khand-Regular', 'Khand';font-size:12px;fill:rgb(255,243,0);">मुंबई</text>
                <text x="786.67px" y="403.686px" style="font-family:'Khand-Regular', 'Khand';font-size:12px;fill:white;">Hackathon</text>
            </g>
            <g transform="matrix(0.489703,0,0,0.281508,-238.785,31.3723)">
                <text x="880.542px" y="2445.02px" style="font-family:'Rajdhani-Light', 'Rajdhani';font-weight:300;font-size:150px;fill:white;">1<tspan x="931.842px 1009.84px 1066.24px 1146.19px 1192.69px 1271.89px 1351.84px 1431.04px 1477.54px 1528.84px 1588.39px 1644.79px 1724.74px 1771.24px 1878.94px 1958.14px 2008.09px 2071.09px " y="2445.02px 2445.02px 2445.02px 2445.02px 2445.02px 2445.02px 2445.02px 2445.02px 2445.02px 2445.02px 2445.02px 2445.02px 2445.02px 2445.02px 2445.02px 2445.02px 2445.02px 2445.02px ">6th and 17th March</tspan></text>
            </g>
            <g transform="matrix(0.421642,0,0,0.148806,-21.2354,424.892)">
                <g transform="matrix(79.6835,0,0,159.644,1007.33,3149.35)">
                    <path d="M0.219,-0.045L0.333,-0.045C0.364,-0.045 0.387,-0.054 0.404,-0.071C0.42,-0.088 0.428,-0.112 0.428,-0.144L0.428,-0.499C0.428,-0.531 0.42,-0.556 0.404,-0.573C0.387,-0.59 0.364,-0.598 0.333,-0.598L0.219,-0.598C0.188,-0.598 0.165,-0.589 0.149,-0.572C0.133,-0.555 0.125,-0.53 0.125,-0.499L0.125,-0.144C0.125,-0.113 0.133,-0.088 0.149,-0.071C0.165,-0.054 0.188,-0.045 0.219,-0.045ZM0.338,0L0.215,0C0.172,0 0.137,-0.013 0.113,-0.038C0.088,-0.063 0.075,-0.098 0.075,-0.142L0.075,-0.501C0.075,-0.545 0.088,-0.58 0.113,-0.605C0.137,-0.63 0.172,-0.643 0.215,-0.643L0.338,-0.643C0.381,-0.643 0.416,-0.63 0.441,-0.605C0.466,-0.58 0.478,-0.545 0.478,-0.501L0.478,-0.142C0.478,-0.098 0.466,-0.063 0.441,-0.038C0.416,-0.013 0.381,0 0.338,0Z" style="fill:white;fill-rule:nonzero;"/>
                </g>
                <g transform="matrix(79.6835,0,0,159.644,1051.39,3149.35)">
                    <path d="M0.114,0L0.085,0C0.078,0 0.075,-0.004 0.075,-0.012L0.075,-0.498C0.075,-0.506 0.078,-0.51 0.085,-0.51L0.114,-0.51C0.121,-0.51 0.125,-0.506 0.125,-0.498L0.125,-0.456L0.129,-0.456C0.136,-0.47 0.149,-0.483 0.168,-0.494C0.187,-0.505 0.21,-0.51 0.237,-0.51L0.276,-0.51C0.283,-0.51 0.287,-0.506 0.287,-0.499L0.287,-0.475C0.287,-0.468 0.283,-0.464 0.276,-0.465L0.229,-0.465C0.196,-0.465 0.171,-0.455 0.153,-0.435C0.134,-0.415 0.125,-0.388 0.125,-0.354L0.125,-0.012C0.125,-0.004 0.121,0 0.114,0Z" style="fill:white;fill-rule:nonzero;"/>
                </g>
                <g transform="matrix(79.6835,0,0,159.644,1076.33,3149.35)">
                    <path d="M0.273,-0.029L0.208,-0.029C0.165,-0.029 0.132,-0.042 0.107,-0.067C0.082,-0.092 0.069,-0.127 0.069,-0.17L0.069,-0.368C0.069,-0.412 0.082,-0.447 0.107,-0.472C0.132,-0.497 0.166,-0.51 0.209,-0.51L0.421,-0.51C0.428,-0.51 0.432,-0.506 0.432,-0.498L0.432,-0.002C0.432,0.042 0.419,0.077 0.394,0.102C0.369,0.127 0.334,0.14 0.291,0.14L0.109,0.14C0.102,0.14 0.098,0.136 0.098,0.129L0.098,0.105C0.098,0.098 0.102,0.095 0.109,0.095L0.287,0.095C0.318,0.095 0.341,0.087 0.357,0.07C0.373,0.053 0.381,0.028 0.381,-0.004L0.381,-0.081L0.377,-0.081C0.36,-0.046 0.326,-0.029 0.273,-0.029ZM0.381,-0.172L0.381,-0.456C0.381,-0.462 0.378,-0.465 0.372,-0.465L0.214,-0.465C0.183,-0.465 0.16,-0.456 0.144,-0.44C0.127,-0.423 0.119,-0.398 0.119,-0.366L0.119,-0.172C0.119,-0.141 0.127,-0.117 0.144,-0.1C0.16,-0.083 0.183,-0.074 0.214,-0.074L0.278,-0.074C0.31,-0.074 0.335,-0.083 0.354,-0.1C0.372,-0.117 0.381,-0.141 0.381,-0.172Z" style="fill:white;fill-rule:nonzero;"/>
                </g>
                <g transform="matrix(79.6835,0,0,159.644,1116.65,3149.35)">
                    <path d="M0.269,0L0.205,0C0.162,0 0.128,-0.013 0.103,-0.038C0.078,-0.063 0.065,-0.098 0.065,-0.142L0.065,-0.368C0.065,-0.412 0.078,-0.447 0.103,-0.472C0.128,-0.497 0.162,-0.51 0.205,-0.51L0.417,-0.51C0.424,-0.51 0.427,-0.506 0.427,-0.498L0.427,-0.012C0.427,-0.004 0.424,0 0.417,0L0.388,0C0.381,0 0.377,-0.004 0.377,-0.012L0.377,-0.052L0.373,-0.052C0.356,-0.017 0.321,0 0.269,0ZM0.377,-0.143L0.377,-0.456C0.377,-0.462 0.374,-0.465 0.367,-0.465L0.209,-0.465C0.178,-0.465 0.155,-0.456 0.139,-0.439C0.123,-0.422 0.115,-0.397 0.115,-0.366L0.115,-0.144C0.115,-0.113 0.123,-0.088 0.139,-0.071C0.155,-0.054 0.178,-0.045 0.209,-0.045L0.274,-0.045C0.306,-0.045 0.331,-0.054 0.35,-0.071C0.368,-0.088 0.377,-0.112 0.377,-0.143Z" style="fill:white;fill-rule:nonzero;"/>
                </g>
                <g transform="matrix(79.6835,0,0,159.644,1156.66,3149.35)">
                    <path d="M0.114,0L0.085,0C0.078,0 0.075,-0.004 0.075,-0.012L0.075,-0.498C0.075,-0.506 0.078,-0.51 0.085,-0.51L0.114,-0.51C0.121,-0.51 0.125,-0.506 0.125,-0.498L0.125,-0.458L0.129,-0.458C0.148,-0.493 0.182,-0.51 0.233,-0.51L0.299,-0.51C0.342,-0.51 0.375,-0.497 0.4,-0.472C0.425,-0.447 0.437,-0.412 0.437,-0.368L0.437,-0.012C0.437,-0.004 0.434,0 0.427,0L0.398,0C0.391,0 0.387,-0.004 0.387,-0.012L0.387,-0.366C0.387,-0.397 0.379,-0.422 0.363,-0.439C0.347,-0.456 0.324,-0.465 0.293,-0.465L0.228,-0.465C0.196,-0.465 0.171,-0.456 0.153,-0.44C0.134,-0.423 0.125,-0.398 0.125,-0.367L0.125,-0.012C0.125,-0.004 0.121,0 0.114,0Z" style="fill:white;fill-rule:nonzero;"/>
                </g>
                <g transform="matrix(79.6835,0,0,159.644,1197.06,3149.35)">
                    <path d="M0.08,-0.594L0.08,-0.69C0.08,-0.697 0.083,-0.701 0.09,-0.701L0.12,-0.701C0.127,-0.701 0.13,-0.697 0.13,-0.69L0.13,-0.594C0.13,-0.586 0.127,-0.582 0.12,-0.582L0.09,-0.582C0.083,-0.582 0.08,-0.586 0.08,-0.594ZM0.08,-0.012L0.08,-0.498C0.08,-0.506 0.083,-0.51 0.09,-0.51L0.119,-0.51C0.126,-0.51 0.13,-0.506 0.13,-0.498L0.13,-0.012C0.13,-0.004 0.127,0 0.12,0L0.09,0C0.083,0 0.08,-0.004 0.08,-0.012Z" style="fill:white;fill-rule:nonzero;"/>
                </g>
                <g transform="matrix(79.6835,0,0,159.644,1213.79,3149.35)">
                    <path d="M0.034,-0.011L0.034,-0.025C0.034,-0.032 0.036,-0.039 0.04,-0.044L0.302,-0.461L0.302,-0.465L0.052,-0.465C0.045,-0.465 0.041,-0.469 0.041,-0.476L0.041,-0.499C0.041,-0.506 0.045,-0.51 0.052,-0.51L0.352,-0.51C0.36,-0.51 0.364,-0.506 0.364,-0.499L0.364,-0.477C0.364,-0.471 0.362,-0.465 0.359,-0.46L0.101,-0.049L0.101,-0.045L0.359,-0.045C0.367,-0.045 0.371,-0.041 0.371,-0.034L0.371,-0.011C0.371,-0.004 0.367,0 0.359,0L0.046,0C0.038,0 0.034,-0.004 0.034,-0.011Z" style="fill:white;fill-rule:nonzero;"/>
                </g>
                <g transform="matrix(79.6835,0,0,159.644,1246.06,3149.35)">
                    <path d="M0.414,0L0.205,0C0.162,0 0.128,-0.013 0.103,-0.038C0.078,-0.063 0.065,-0.098 0.065,-0.142L0.065,-0.368C0.065,-0.412 0.078,-0.447 0.103,-0.472C0.128,-0.497 0.162,-0.51 0.205,-0.51L0.291,-0.51C0.334,-0.51 0.369,-0.497 0.394,-0.472C0.419,-0.447 0.432,-0.412 0.432,-0.368L0.432,-0.241C0.432,-0.233 0.428,-0.229 0.42,-0.229L0.124,-0.229C0.118,-0.229 0.115,-0.226 0.115,-0.22L0.115,-0.143C0.115,-0.112 0.123,-0.088 0.139,-0.071C0.155,-0.054 0.178,-0.045 0.209,-0.045L0.414,-0.045C0.421,-0.045 0.425,-0.041 0.425,-0.034L0.425,-0.011C0.425,-0.004 0.421,0 0.414,0ZM0.124,-0.269L0.373,-0.269C0.379,-0.269 0.382,-0.272 0.382,-0.278L0.382,-0.367C0.382,-0.398 0.374,-0.423 0.358,-0.44C0.342,-0.456 0.319,-0.465 0.288,-0.465L0.209,-0.465C0.178,-0.465 0.155,-0.456 0.139,-0.44C0.123,-0.423 0.115,-0.398 0.115,-0.367L0.115,-0.278C0.115,-0.272 0.118,-0.269 0.124,-0.269Z" style="fill:white;fill-rule:nonzero;"/>
                </g>
                <g transform="matrix(79.6835,0,0,159.644,1285.26,3149.35)">
                    <path d="M0.27,0L0.203,0C0.16,0 0.127,-0.013 0.102,-0.038C0.077,-0.063 0.065,-0.098 0.065,-0.142L0.065,-0.368C0.065,-0.412 0.077,-0.447 0.102,-0.472C0.127,-0.497 0.16,-0.51 0.203,-0.51L0.27,-0.51C0.321,-0.51 0.356,-0.493 0.375,-0.458L0.379,-0.458L0.379,-0.691C0.379,-0.699 0.382,-0.703 0.389,-0.703L0.418,-0.703C0.425,-0.703 0.429,-0.699 0.429,-0.691L0.429,-0.012C0.429,-0.004 0.425,0 0.418,0L0.389,0C0.382,0 0.379,-0.004 0.379,-0.012L0.379,-0.052L0.375,-0.052C0.356,-0.017 0.321,0 0.27,0ZM0.379,-0.143L0.379,-0.367C0.379,-0.398 0.37,-0.423 0.352,-0.44C0.333,-0.456 0.308,-0.465 0.276,-0.465L0.209,-0.465C0.178,-0.465 0.155,-0.456 0.139,-0.439C0.123,-0.422 0.115,-0.397 0.115,-0.366L0.115,-0.144C0.115,-0.113 0.123,-0.088 0.139,-0.071C0.155,-0.054 0.178,-0.045 0.209,-0.045L0.276,-0.045C0.308,-0.045 0.333,-0.054 0.352,-0.071C0.37,-0.088 0.379,-0.112 0.379,-0.143Z" style="fill:white;fill-rule:nonzero;"/>
                </g>
                <g transform="matrix(79.6835,0,0,159.644,1346.7,3149.35)">
                    <path d="M0.135,-0.045L0.294,-0.045C0.325,-0.045 0.348,-0.054 0.365,-0.071C0.381,-0.088 0.389,-0.112 0.389,-0.144L0.389,-0.375C0.389,-0.406 0.381,-0.431 0.365,-0.448C0.348,-0.464 0.325,-0.473 0.294,-0.473L0.228,-0.473C0.196,-0.473 0.171,-0.464 0.153,-0.448C0.134,-0.431 0.125,-0.406 0.125,-0.375L0.125,-0.054C0.125,-0.048 0.128,-0.045 0.135,-0.045ZM0.075,-0.012L0.075,-0.691C0.075,-0.699 0.078,-0.703 0.085,-0.703L0.114,-0.703C0.121,-0.703 0.125,-0.699 0.125,-0.691L0.125,-0.466L0.129,-0.466C0.148,-0.501 0.182,-0.518 0.233,-0.518L0.299,-0.518C0.342,-0.518 0.377,-0.505 0.402,-0.48C0.427,-0.455 0.439,-0.42 0.439,-0.377L0.439,-0.142C0.439,-0.098 0.427,-0.063 0.402,-0.038C0.377,-0.013 0.342,0 0.299,0L0.085,0C0.078,0 0.075,-0.004 0.075,-0.012Z" style="fill:white;fill-rule:nonzero;"/>
                </g>
                <g transform="matrix(79.6835,0,0,159.644,1386.86,3149.35)">
                    <path d="M0.099,0.152L0.062,0.152C0.055,0.152 0.051,0.148 0.051,0.141L0.051,0.117C0.051,0.11 0.055,0.106 0.062,0.106L0.089,0.106C0.109,0.106 0.126,0.103 0.14,0.098C0.154,0.092 0.166,0.081 0.177,0.066C0.188,0.051 0.195,0.039 0.198,0.03C0.207,0.009 0.215,-0.01 0.221,-0.027L0.202,-0.027C0.195,-0.027 0.19,-0.031 0.188,-0.039L0.029,-0.498C0.026,-0.506 0.029,-0.51 0.037,-0.51L0.068,-0.51C0.075,-0.51 0.079,-0.506 0.081,-0.498L0.228,-0.069L0.232,-0.069L0.379,-0.498C0.381,-0.506 0.385,-0.51 0.392,-0.51L0.422,-0.51C0.43,-0.51 0.433,-0.506 0.431,-0.498C0.312,-0.149 0.249,0.032 0.245,0.044C0.24,0.056 0.23,0.072 0.217,0.093C0.192,0.132 0.152,0.152 0.099,0.152Z" style="fill:white;fill-rule:nonzero;"/>
                </g>
                <g transform="matrix(79.6835,0,0,159.644,1444.71,3149.35)">
                    <path d="M0.097,-0.465L0.036,-0.465C0.029,-0.465 0.025,-0.468 0.025,-0.475L0.025,-0.499C0.025,-0.506 0.029,-0.51 0.036,-0.51L0.097,-0.51C0.103,-0.51 0.106,-0.513 0.106,-0.519L0.106,-0.6C0.106,-0.608 0.11,-0.612 0.117,-0.612L0.146,-0.612C0.153,-0.612 0.157,-0.608 0.157,-0.6L0.157,-0.519C0.157,-0.513 0.16,-0.51 0.166,-0.51L0.285,-0.51C0.292,-0.51 0.296,-0.506 0.296,-0.499L0.296,-0.475C0.296,-0.468 0.292,-0.465 0.285,-0.465L0.166,-0.465C0.16,-0.465 0.157,-0.462 0.157,-0.456L0.157,-0.141C0.157,-0.11 0.166,-0.087 0.183,-0.07C0.2,-0.053 0.225,-0.045 0.256,-0.045L0.295,-0.045C0.302,-0.045 0.306,-0.041 0.306,-0.034L0.306,-0.011C0.306,-0.004 0.302,0 0.295,0L0.252,0C0.208,0 0.173,-0.012 0.146,-0.037C0.119,-0.062 0.106,-0.096 0.106,-0.139L0.106,-0.456C0.106,-0.462 0.103,-0.465 0.097,-0.465Z" style="fill:white;fill-rule:nonzero;"/>
                </g>
                <g transform="matrix(79.6835,0,0,159.644,1472.36,3149.35)">
                    <path d="M0.114,0L0.085,0C0.078,0 0.075,-0.004 0.075,-0.012L0.075,-0.691C0.075,-0.699 0.078,-0.703 0.085,-0.703L0.114,-0.703C0.121,-0.703 0.125,-0.699 0.125,-0.691L0.125,-0.458L0.129,-0.458C0.148,-0.493 0.182,-0.51 0.233,-0.51L0.299,-0.51C0.342,-0.51 0.375,-0.497 0.4,-0.472C0.425,-0.447 0.437,-0.412 0.437,-0.368L0.437,-0.012C0.437,-0.004 0.434,0 0.427,0L0.398,0C0.391,0 0.387,-0.004 0.387,-0.012L0.387,-0.366C0.387,-0.397 0.379,-0.422 0.363,-0.439C0.347,-0.456 0.324,-0.465 0.293,-0.465L0.228,-0.465C0.196,-0.465 0.171,-0.456 0.153,-0.44C0.134,-0.423 0.125,-0.398 0.125,-0.367L0.125,-0.012C0.125,-0.004 0.121,0 0.114,0Z" style="fill:white;fill-rule:nonzero;"/>
                </g>
                <g transform="matrix(79.6835,0,0,159.644,1512.76,3149.35)">
                    <path d="M0.414,0L0.205,0C0.162,0 0.128,-0.013 0.103,-0.038C0.078,-0.063 0.065,-0.098 0.065,-0.142L0.065,-0.368C0.065,-0.412 0.078,-0.447 0.103,-0.472C0.128,-0.497 0.162,-0.51 0.205,-0.51L0.291,-0.51C0.334,-0.51 0.369,-0.497 0.394,-0.472C0.419,-0.447 0.432,-0.412 0.432,-0.368L0.432,-0.241C0.432,-0.233 0.428,-0.229 0.42,-0.229L0.124,-0.229C0.118,-0.229 0.115,-0.226 0.115,-0.22L0.115,-0.143C0.115,-0.112 0.123,-0.088 0.139,-0.071C0.155,-0.054 0.178,-0.045 0.209,-0.045L0.414,-0.045C0.421,-0.045 0.425,-0.041 0.425,-0.034L0.425,-0.011C0.425,-0.004 0.421,0 0.414,0ZM0.124,-0.269L0.373,-0.269C0.379,-0.269 0.382,-0.272 0.382,-0.278L0.382,-0.367C0.382,-0.398 0.374,-0.423 0.358,-0.44C0.342,-0.456 0.319,-0.465 0.288,-0.465L0.209,-0.465C0.178,-0.465 0.155,-0.456 0.139,-0.44C0.123,-0.423 0.115,-0.398 0.115,-0.367L0.115,-0.278C0.115,-0.272 0.118,-0.269 0.124,-0.269Z" style="fill:white;fill-rule:nonzero;"/>
                </g>
                <g transform="matrix(79.6835,0,0,159.644,1573.24,3149.35)">
                    <path d="M0.404,0L0.095,0C0.088,0 0.085,-0.004 0.085,-0.012L0.085,-0.631C0.085,-0.639 0.088,-0.643 0.095,-0.643L0.404,-0.643C0.412,-0.643 0.416,-0.639 0.416,-0.632L0.416,-0.609C0.416,-0.602 0.412,-0.598 0.404,-0.598L0.145,-0.598C0.138,-0.598 0.135,-0.595 0.135,-0.589L0.135,-0.359C0.135,-0.353 0.138,-0.35 0.145,-0.35L0.376,-0.35C0.383,-0.35 0.387,-0.346 0.387,-0.339L0.387,-0.316C0.387,-0.309 0.383,-0.305 0.376,-0.305L0.145,-0.305C0.138,-0.305 0.135,-0.302 0.135,-0.296L0.135,-0.054C0.135,-0.048 0.138,-0.045 0.145,-0.045L0.404,-0.045C0.412,-0.045 0.416,-0.041 0.416,-0.034L0.416,-0.011C0.416,-0.004 0.412,0 0.404,0Z" style="fill:white;fill-rule:nonzero;"/>
                </g>
                <g transform="matrix(79.6835,0,0,159.644,1611.57,3149.35)">
                    <path d="M0.124,0L0.095,0C0.088,0 0.085,-0.004 0.085,-0.012L0.085,-0.631C0.085,-0.639 0.088,-0.643 0.095,-0.643L0.323,-0.643C0.366,-0.643 0.401,-0.63 0.426,-0.605C0.451,-0.58 0.464,-0.545 0.464,-0.501L0.464,-0.406C0.464,-0.369 0.455,-0.338 0.436,-0.314C0.417,-0.29 0.391,-0.275 0.358,-0.268L0.358,-0.264L0.477,-0.012C0.481,-0.004 0.479,0 0.47,0L0.439,0C0.43,0 0.424,-0.004 0.421,-0.012L0.303,-0.264L0.145,-0.264C0.138,-0.264 0.135,-0.261 0.135,-0.255L0.135,-0.012C0.135,-0.004 0.131,0 0.124,0ZM0.145,-0.307L0.318,-0.307C0.349,-0.307 0.372,-0.316 0.389,-0.333C0.406,-0.349 0.414,-0.374 0.414,-0.405L0.414,-0.499C0.414,-0.53 0.406,-0.555 0.389,-0.572C0.372,-0.589 0.349,-0.598 0.318,-0.598L0.145,-0.598C0.138,-0.598 0.135,-0.595 0.135,-0.589L0.135,-0.316C0.135,-0.31 0.138,-0.307 0.145,-0.307Z" style="fill:white;fill-rule:nonzero;"/>
                </g>
                <g transform="matrix(79.6835,0,0,159.644,1654.12,3149.35)">
                    <path d="M0.124,0L0.095,0C0.088,0 0.085,-0.004 0.085,-0.012L0.085,-0.631C0.085,-0.639 0.088,-0.643 0.095,-0.643L0.325,-0.643C0.368,-0.643 0.403,-0.63 0.428,-0.605C0.453,-0.58 0.466,-0.545 0.466,-0.501L0.466,-0.384C0.466,-0.34 0.453,-0.305 0.428,-0.28C0.403,-0.255 0.368,-0.242 0.325,-0.242L0.145,-0.242C0.138,-0.242 0.135,-0.239 0.135,-0.234L0.135,-0.012C0.135,-0.004 0.131,0 0.124,0ZM0.145,-0.288L0.321,-0.288C0.352,-0.288 0.375,-0.297 0.391,-0.314C0.407,-0.331 0.415,-0.355 0.415,-0.386L0.415,-0.499C0.415,-0.531 0.407,-0.556 0.391,-0.573C0.375,-0.59 0.352,-0.598 0.321,-0.598L0.145,-0.598C0.138,-0.598 0.135,-0.595 0.135,-0.589L0.135,-0.296C0.135,-0.291 0.138,-0.288 0.145,-0.288Z" style="fill:white;fill-rule:nonzero;"/>
                </g>
                <g transform="matrix(79.6835,0,0,159.644,1695.87,3149.35)">
                    <path d="M0.124,0L0.095,0C0.088,0 0.085,-0.004 0.085,-0.012L0.085,-0.631C0.085,-0.639 0.088,-0.643 0.095,-0.643L0.122,-0.643C0.128,-0.643 0.132,-0.641 0.134,-0.637L0.441,-0.109L0.445,-0.109L0.445,-0.631C0.445,-0.639 0.449,-0.643 0.456,-0.643L0.484,-0.643C0.491,-0.643 0.495,-0.639 0.495,-0.631L0.495,-0.012C0.495,-0.004 0.491,0 0.484,0L0.461,0C0.455,0 0.45,-0.004 0.445,-0.011L0.139,-0.535L0.135,-0.535L0.135,-0.012C0.135,-0.004 0.131,0 0.124,0Z" style="fill:white;fill-rule:nonzero;"/>
                </g>
                <g transform="matrix(79.6835,0,0,159.644,1742.01,3149.35)">
                    <path d="M0.414,0L0.205,0C0.162,0 0.128,-0.013 0.103,-0.038C0.078,-0.063 0.065,-0.098 0.065,-0.142L0.065,-0.368C0.065,-0.412 0.078,-0.447 0.103,-0.472C0.128,-0.497 0.162,-0.51 0.205,-0.51L0.291,-0.51C0.334,-0.51 0.369,-0.497 0.394,-0.472C0.419,-0.447 0.432,-0.412 0.432,-0.368L0.432,-0.241C0.432,-0.233 0.428,-0.229 0.42,-0.229L0.124,-0.229C0.118,-0.229 0.115,-0.226 0.115,-0.22L0.115,-0.143C0.115,-0.112 0.123,-0.088 0.139,-0.071C0.155,-0.054 0.178,-0.045 0.209,-0.045L0.414,-0.045C0.421,-0.045 0.425,-0.041 0.425,-0.034L0.425,-0.011C0.425,-0.004 0.421,0 0.414,0ZM0.124,-0.269L0.373,-0.269C0.379,-0.269 0.382,-0.272 0.382,-0.278L0.382,-0.367C0.382,-0.398 0.374,-0.423 0.358,-0.44C0.342,-0.456 0.319,-0.465 0.288,-0.465L0.209,-0.465C0.178,-0.465 0.155,-0.456 0.139,-0.44C0.123,-0.423 0.115,-0.398 0.115,-0.367L0.115,-0.278C0.115,-0.272 0.118,-0.269 0.124,-0.269Z" style="fill:white;fill-rule:nonzero;"/>
                </g>
                <g transform="matrix(79.6835,0,0,159.644,1781.21,3149.35)">
                    <path d="M0.069,0L0.032,0C0.023,0 0.022,-0.004 0.027,-0.012L0.172,-0.26L0.034,-0.498C0.029,-0.506 0.03,-0.51 0.039,-0.51L0.075,-0.51C0.082,-0.51 0.088,-0.506 0.092,-0.498L0.205,-0.294L0.209,-0.294L0.317,-0.498C0.322,-0.506 0.327,-0.51 0.334,-0.51L0.37,-0.51C0.379,-0.51 0.38,-0.506 0.375,-0.498L0.24,-0.262L0.387,-0.012C0.392,-0.004 0.39,0 0.382,0L0.342,0C0.337,0 0.332,-0.004 0.328,-0.012L0.209,-0.226L0.205,-0.226L0.086,-0.012C0.081,-0.004 0.076,0 0.069,0Z" style="fill:white;fill-rule:nonzero;"/>
                </g>
                <g transform="matrix(79.6835,0,0,159.644,1814.12,3149.35)">
                    <path d="M0.097,-0.465L0.036,-0.465C0.029,-0.465 0.025,-0.468 0.025,-0.475L0.025,-0.499C0.025,-0.506 0.029,-0.51 0.036,-0.51L0.097,-0.51C0.103,-0.51 0.106,-0.513 0.106,-0.519L0.106,-0.6C0.106,-0.608 0.11,-0.612 0.117,-0.612L0.146,-0.612C0.153,-0.612 0.157,-0.608 0.157,-0.6L0.157,-0.519C0.157,-0.513 0.16,-0.51 0.166,-0.51L0.285,-0.51C0.292,-0.51 0.296,-0.506 0.296,-0.499L0.296,-0.475C0.296,-0.468 0.292,-0.465 0.285,-0.465L0.166,-0.465C0.16,-0.465 0.157,-0.462 0.157,-0.456L0.157,-0.141C0.157,-0.11 0.166,-0.087 0.183,-0.07C0.2,-0.053 0.225,-0.045 0.256,-0.045L0.295,-0.045C0.302,-0.045 0.306,-0.041 0.306,-0.034L0.306,-0.011C0.306,-0.004 0.302,0 0.295,0L0.252,0C0.208,0 0.173,-0.012 0.146,-0.037C0.119,-0.062 0.106,-0.096 0.106,-0.139L0.106,-0.456C0.106,-0.462 0.103,-0.465 0.097,-0.465Z" style="fill:white;fill-rule:nonzero;"/>
                </g>
                <g transform="matrix(79.6835,0,0,159.644,1863.05,3149.35)">
                    <path d="M0.124,0L0.095,0C0.088,0 0.085,-0.004 0.085,-0.012L0.085,-0.631C0.085,-0.639 0.088,-0.643 0.095,-0.643L0.403,-0.643C0.411,-0.643 0.415,-0.639 0.415,-0.632L0.415,-0.609C0.415,-0.602 0.411,-0.598 0.403,-0.598L0.145,-0.598C0.138,-0.598 0.135,-0.595 0.135,-0.589L0.135,-0.346C0.135,-0.341 0.138,-0.338 0.145,-0.338L0.376,-0.338C0.383,-0.338 0.387,-0.334 0.387,-0.327L0.387,-0.303C0.387,-0.296 0.383,-0.292 0.376,-0.292L0.145,-0.292C0.138,-0.292 0.135,-0.289 0.135,-0.284L0.135,-0.012C0.135,-0.004 0.131,0 0.124,0Z" style="fill:white;fill-rule:nonzero;"/>
                </g>
                <g transform="matrix(79.6835,0,0,159.644,1899.62,3149.35)">
                    <path d="M0.291,0L0.205,0C0.162,0 0.128,-0.013 0.103,-0.038C0.078,-0.063 0.065,-0.098 0.065,-0.142L0.065,-0.368C0.065,-0.412 0.078,-0.447 0.103,-0.472C0.128,-0.497 0.162,-0.51 0.205,-0.51L0.291,-0.51C0.334,-0.51 0.369,-0.497 0.394,-0.472C0.419,-0.447 0.432,-0.412 0.432,-0.368L0.432,-0.142C0.432,-0.098 0.419,-0.063 0.394,-0.038C0.369,-0.013 0.334,0 0.291,0ZM0.209,-0.045L0.287,-0.045C0.318,-0.045 0.341,-0.054 0.358,-0.071C0.374,-0.088 0.382,-0.112 0.382,-0.143L0.382,-0.367C0.382,-0.398 0.374,-0.423 0.358,-0.44C0.341,-0.456 0.318,-0.465 0.287,-0.465L0.209,-0.465C0.178,-0.465 0.155,-0.456 0.139,-0.44C0.123,-0.423 0.115,-0.398 0.115,-0.367L0.115,-0.143C0.115,-0.112 0.123,-0.088 0.139,-0.071C0.155,-0.054 0.178,-0.045 0.209,-0.045Z" style="fill:white;fill-rule:nonzero;"/>
                </g>
                <g transform="matrix(79.6835,0,0,159.644,1939.15,3149.35)">
                    <path d="M0.274,0L0.208,0C0.165,0 0.132,-0.013 0.107,-0.038C0.082,-0.063 0.07,-0.098 0.07,-0.142L0.07,-0.498C0.07,-0.506 0.073,-0.51 0.08,-0.51L0.109,-0.51C0.116,-0.51 0.12,-0.506 0.12,-0.498L0.12,-0.144C0.12,-0.113 0.128,-0.088 0.144,-0.071C0.16,-0.054 0.183,-0.045 0.214,-0.045L0.279,-0.045C0.311,-0.045 0.336,-0.054 0.355,-0.071C0.373,-0.088 0.382,-0.112 0.382,-0.143L0.382,-0.498C0.382,-0.506 0.386,-0.51 0.393,-0.51L0.422,-0.51C0.429,-0.51 0.432,-0.506 0.432,-0.498L0.432,-0.012C0.432,-0.004 0.429,0 0.422,0L0.393,0C0.386,0 0.382,-0.004 0.382,-0.012L0.382,-0.052L0.378,-0.052C0.361,-0.017 0.326,0 0.274,0Z" style="fill:white;fill-rule:nonzero;"/>
                </g>
                <g transform="matrix(79.6835,0,0,159.644,1979.55,3149.35)">
                    <path d="M0.114,0L0.085,0C0.078,0 0.075,-0.004 0.075,-0.012L0.075,-0.498C0.075,-0.506 0.078,-0.51 0.085,-0.51L0.114,-0.51C0.121,-0.51 0.125,-0.506 0.125,-0.498L0.125,-0.458L0.129,-0.458C0.148,-0.493 0.182,-0.51 0.233,-0.51L0.299,-0.51C0.342,-0.51 0.375,-0.497 0.4,-0.472C0.425,-0.447 0.437,-0.412 0.437,-0.368L0.437,-0.012C0.437,-0.004 0.434,0 0.427,0L0.398,0C0.391,0 0.387,-0.004 0.387,-0.012L0.387,-0.366C0.387,-0.397 0.379,-0.422 0.363,-0.439C0.347,-0.456 0.324,-0.465 0.293,-0.465L0.228,-0.465C0.196,-0.465 0.171,-0.456 0.153,-0.44C0.134,-0.423 0.125,-0.398 0.125,-0.367L0.125,-0.012C0.125,-0.004 0.121,0 0.114,0Z" style="fill:white;fill-rule:nonzero;"/>
                </g>
                <g transform="matrix(79.6835,0,0,159.644,2019.95,3149.35)">
                    <path d="M0.27,0L0.203,0C0.16,0 0.127,-0.013 0.102,-0.038C0.077,-0.063 0.065,-0.098 0.065,-0.142L0.065,-0.368C0.065,-0.412 0.077,-0.447 0.102,-0.472C0.127,-0.497 0.16,-0.51 0.203,-0.51L0.27,-0.51C0.321,-0.51 0.356,-0.493 0.375,-0.458L0.379,-0.458L0.379,-0.691C0.379,-0.699 0.382,-0.703 0.389,-0.703L0.418,-0.703C0.425,-0.703 0.429,-0.699 0.429,-0.691L0.429,-0.012C0.429,-0.004 0.425,0 0.418,0L0.389,0C0.382,0 0.379,-0.004 0.379,-0.012L0.379,-0.052L0.375,-0.052C0.356,-0.017 0.321,0 0.27,0ZM0.379,-0.143L0.379,-0.367C0.379,-0.398 0.37,-0.423 0.352,-0.44C0.333,-0.456 0.308,-0.465 0.276,-0.465L0.209,-0.465C0.178,-0.465 0.155,-0.456 0.139,-0.439C0.123,-0.422 0.115,-0.397 0.115,-0.366L0.115,-0.144C0.115,-0.113 0.123,-0.088 0.139,-0.071C0.155,-0.054 0.178,-0.045 0.209,-0.045L0.276,-0.045C0.308,-0.045 0.333,-0.054 0.352,-0.071C0.37,-0.088 0.379,-0.112 0.379,-0.143Z" style="fill:white;fill-rule:nonzero;"/>
                </g>
                <g transform="matrix(79.6835,0,0,159.644,2060.11,3149.35)">
                    <path d="M0.269,0L0.205,0C0.162,0 0.128,-0.013 0.103,-0.038C0.078,-0.063 0.065,-0.098 0.065,-0.142L0.065,-0.368C0.065,-0.412 0.078,-0.447 0.103,-0.472C0.128,-0.497 0.162,-0.51 0.205,-0.51L0.417,-0.51C0.424,-0.51 0.427,-0.506 0.427,-0.498L0.427,-0.012C0.427,-0.004 0.424,0 0.417,0L0.388,0C0.381,0 0.377,-0.004 0.377,-0.012L0.377,-0.052L0.373,-0.052C0.356,-0.017 0.321,0 0.269,0ZM0.377,-0.143L0.377,-0.456C0.377,-0.462 0.374,-0.465 0.367,-0.465L0.209,-0.465C0.178,-0.465 0.155,-0.456 0.139,-0.439C0.123,-0.422 0.115,-0.397 0.115,-0.366L0.115,-0.144C0.115,-0.113 0.123,-0.088 0.139,-0.071C0.155,-0.054 0.178,-0.045 0.209,-0.045L0.274,-0.045C0.306,-0.045 0.331,-0.054 0.35,-0.071C0.368,-0.088 0.377,-0.112 0.377,-0.143Z" style="fill:white;fill-rule:nonzero;"/>
                </g>
                <g transform="matrix(79.6835,0,0,159.644,2100.11,3149.35)">
                    <path d="M0.097,-0.465L0.036,-0.465C0.029,-0.465 0.025,-0.468 0.025,-0.475L0.025,-0.499C0.025,-0.506 0.029,-0.51 0.036,-0.51L0.097,-0.51C0.103,-0.51 0.106,-0.513 0.106,-0.519L0.106,-0.6C0.106,-0.608 0.11,-0.612 0.117,-0.612L0.146,-0.612C0.153,-0.612 0.157,-0.608 0.157,-0.6L0.157,-0.519C0.157,-0.513 0.16,-0.51 0.166,-0.51L0.285,-0.51C0.292,-0.51 0.296,-0.506 0.296,-0.499L0.296,-0.475C0.296,-0.468 0.292,-0.465 0.285,-0.465L0.166,-0.465C0.16,-0.465 0.157,-0.462 0.157,-0.456L0.157,-0.141C0.157,-0.11 0.166,-0.087 0.183,-0.07C0.2,-0.053 0.225,-0.045 0.256,-0.045L0.295,-0.045C0.302,-0.045 0.306,-0.041 0.306,-0.034L0.306,-0.011C0.306,-0.004 0.302,0 0.295,0L0.252,0C0.208,0 0.173,-0.012 0.146,-0.037C0.119,-0.062 0.106,-0.096 0.106,-0.139L0.106,-0.456C0.106,-0.462 0.103,-0.465 0.097,-0.465Z" style="fill:white;fill-rule:nonzero;"/>
                </g>
                <g transform="matrix(79.6835,0,0,159.644,2127.76,3149.35)">
                    <path d="M0.08,-0.594L0.08,-0.69C0.08,-0.697 0.083,-0.701 0.09,-0.701L0.12,-0.701C0.127,-0.701 0.13,-0.697 0.13,-0.69L0.13,-0.594C0.13,-0.586 0.127,-0.582 0.12,-0.582L0.09,-0.582C0.083,-0.582 0.08,-0.586 0.08,-0.594ZM0.08,-0.012L0.08,-0.498C0.08,-0.506 0.083,-0.51 0.09,-0.51L0.119,-0.51C0.126,-0.51 0.13,-0.506 0.13,-0.498L0.13,-0.012C0.13,-0.004 0.127,0 0.12,0L0.09,0C0.083,0 0.08,-0.004 0.08,-0.012Z" style="fill:white;fill-rule:nonzero;"/>
                </g>
                <g transform="matrix(79.6835,0,0,159.644,2144.49,3149.35)">
                    <path d="M0.291,0L0.205,0C0.162,0 0.128,-0.013 0.103,-0.038C0.078,-0.063 0.065,-0.098 0.065,-0.142L0.065,-0.368C0.065,-0.412 0.078,-0.447 0.103,-0.472C0.128,-0.497 0.162,-0.51 0.205,-0.51L0.291,-0.51C0.334,-0.51 0.369,-0.497 0.394,-0.472C0.419,-0.447 0.432,-0.412 0.432,-0.368L0.432,-0.142C0.432,-0.098 0.419,-0.063 0.394,-0.038C0.369,-0.013 0.334,0 0.291,0ZM0.209,-0.045L0.287,-0.045C0.318,-0.045 0.341,-0.054 0.358,-0.071C0.374,-0.088 0.382,-0.112 0.382,-0.143L0.382,-0.367C0.382,-0.398 0.374,-0.423 0.358,-0.44C0.341,-0.456 0.318,-0.465 0.287,-0.465L0.209,-0.465C0.178,-0.465 0.155,-0.456 0.139,-0.44C0.123,-0.423 0.115,-0.398 0.115,-0.367L0.115,-0.143C0.115,-0.112 0.123,-0.088 0.139,-0.071C0.155,-0.054 0.178,-0.045 0.209,-0.045Z" style="fill:white;fill-rule:nonzero;"/>
                </g>
                <g transform="matrix(79.6835,0,0,159.644,2184.01,3149.35)">
                    <path d="M0.114,0L0.085,0C0.078,0 0.075,-0.004 0.075,-0.012L0.075,-0.498C0.075,-0.506 0.078,-0.51 0.085,-0.51L0.114,-0.51C0.121,-0.51 0.125,-0.506 0.125,-0.498L0.125,-0.458L0.129,-0.458C0.148,-0.493 0.182,-0.51 0.233,-0.51L0.299,-0.51C0.342,-0.51 0.375,-0.497 0.4,-0.472C0.425,-0.447 0.437,-0.412 0.437,-0.368L0.437,-0.012C0.437,-0.004 0.434,0 0.427,0L0.398,0C0.391,0 0.387,-0.004 0.387,-0.012L0.387,-0.366C0.387,-0.397 0.379,-0.422 0.363,-0.439C0.347,-0.456 0.324,-0.465 0.293,-0.465L0.228,-0.465C0.196,-0.465 0.171,-0.456 0.153,-0.44C0.134,-0.423 0.125,-0.398 0.125,-0.367L0.125,-0.012C0.125,-0.004 0.121,0 0.114,0Z" style="fill:white;fill-rule:nonzero;"/>
                </g>
                <g transform="matrix(79.6835,0,0,159.644,2245.69,3149.35)">
                    <path d="M0.269,0L0.205,0C0.162,0 0.128,-0.013 0.103,-0.038C0.078,-0.063 0.065,-0.098 0.065,-0.142L0.065,-0.368C0.065,-0.412 0.078,-0.447 0.103,-0.472C0.128,-0.497 0.162,-0.51 0.205,-0.51L0.417,-0.51C0.424,-0.51 0.427,-0.506 0.427,-0.498L0.427,-0.012C0.427,-0.004 0.424,0 0.417,0L0.388,0C0.381,0 0.377,-0.004 0.377,-0.012L0.377,-0.052L0.373,-0.052C0.356,-0.017 0.321,0 0.269,0ZM0.377,-0.143L0.377,-0.456C0.377,-0.462 0.374,-0.465 0.367,-0.465L0.209,-0.465C0.178,-0.465 0.155,-0.456 0.139,-0.439C0.123,-0.422 0.115,-0.397 0.115,-0.366L0.115,-0.144C0.115,-0.113 0.123,-0.088 0.139,-0.071C0.155,-0.054 0.178,-0.045 0.209,-0.045L0.274,-0.045C0.306,-0.045 0.331,-0.054 0.35,-0.071C0.368,-0.088 0.377,-0.112 0.377,-0.143Z" style="fill:white;fill-rule:nonzero;"/>
                </g>
                <g transform="matrix(79.6835,0,0,159.644,2285.69,3149.35)">
                    <path d="M0.114,0L0.085,0C0.078,0 0.075,-0.004 0.075,-0.012L0.075,-0.498C0.075,-0.506 0.078,-0.51 0.085,-0.51L0.114,-0.51C0.121,-0.51 0.125,-0.506 0.125,-0.498L0.125,-0.458L0.129,-0.458C0.148,-0.493 0.182,-0.51 0.233,-0.51L0.299,-0.51C0.342,-0.51 0.375,-0.497 0.4,-0.472C0.425,-0.447 0.437,-0.412 0.437,-0.368L0.437,-0.012C0.437,-0.004 0.434,0 0.427,0L0.398,0C0.391,0 0.387,-0.004 0.387,-0.012L0.387,-0.366C0.387,-0.397 0.379,-0.422 0.363,-0.439C0.347,-0.456 0.324,-0.465 0.293,-0.465L0.228,-0.465C0.196,-0.465 0.171,-0.456 0.153,-0.44C0.134,-0.423 0.125,-0.398 0.125,-0.367L0.125,-0.012C0.125,-0.004 0.121,0 0.114,0Z" style="fill:white;fill-rule:nonzero;"/>
                </g>
                <g transform="matrix(79.6835,0,0,159.644,2326.09,3149.35)">
                    <path d="M0.27,0L0.203,0C0.16,0 0.127,-0.013 0.102,-0.038C0.077,-0.063 0.065,-0.098 0.065,-0.142L0.065,-0.368C0.065,-0.412 0.077,-0.447 0.102,-0.472C0.127,-0.497 0.16,-0.51 0.203,-0.51L0.27,-0.51C0.321,-0.51 0.356,-0.493 0.375,-0.458L0.379,-0.458L0.379,-0.691C0.379,-0.699 0.382,-0.703 0.389,-0.703L0.418,-0.703C0.425,-0.703 0.429,-0.699 0.429,-0.691L0.429,-0.012C0.429,-0.004 0.425,0 0.418,0L0.389,0C0.382,0 0.379,-0.004 0.379,-0.012L0.379,-0.052L0.375,-0.052C0.356,-0.017 0.321,0 0.27,0ZM0.379,-0.143L0.379,-0.367C0.379,-0.398 0.37,-0.423 0.352,-0.44C0.333,-0.456 0.308,-0.465 0.276,-0.465L0.209,-0.465C0.178,-0.465 0.155,-0.456 0.139,-0.439C0.123,-0.422 0.115,-0.397 0.115,-0.366L0.115,-0.144C0.115,-0.113 0.123,-0.088 0.139,-0.071C0.155,-0.054 0.178,-0.045 0.209,-0.045L0.276,-0.045C0.308,-0.045 0.333,-0.054 0.352,-0.071C0.37,-0.088 0.379,-0.112 0.379,-0.143Z" style="fill:white;fill-rule:nonzero;"/>
                </g>
                <g transform="matrix(79.6835,0,0,159.644,1274.99,3388.81)">
                    <path d="M0.145,-0.045L0.337,-0.045C0.368,-0.045 0.391,-0.054 0.408,-0.071C0.424,-0.088 0.432,-0.112 0.432,-0.144L0.432,-0.499C0.432,-0.531 0.424,-0.556 0.408,-0.573C0.391,-0.59 0.368,-0.598 0.337,-0.598L0.145,-0.598C0.138,-0.598 0.135,-0.595 0.135,-0.589L0.135,-0.054C0.135,-0.048 0.138,-0.045 0.145,-0.045ZM0.085,-0.012L0.085,-0.631C0.085,-0.639 0.088,-0.643 0.095,-0.643L0.342,-0.643C0.385,-0.643 0.42,-0.63 0.445,-0.605C0.47,-0.58 0.482,-0.545 0.482,-0.501L0.482,-0.142C0.482,-0.098 0.47,-0.063 0.445,-0.038C0.42,-0.013 0.385,0 0.342,0L0.095,0C0.088,0 0.085,-0.004 0.085,-0.012Z" style="fill:white;fill-rule:nonzero;"/>
                </g>
                <g transform="matrix(79.6835,0,0,159.644,1319.37,3388.81)">
                    <path d="M0.291,0L0.205,0C0.162,0 0.128,-0.013 0.103,-0.038C0.078,-0.063 0.065,-0.098 0.065,-0.142L0.065,-0.368C0.065,-0.412 0.078,-0.447 0.103,-0.472C0.128,-0.497 0.162,-0.51 0.205,-0.51L0.291,-0.51C0.334,-0.51 0.369,-0.497 0.394,-0.472C0.419,-0.447 0.432,-0.412 0.432,-0.368L0.432,-0.142C0.432,-0.098 0.419,-0.063 0.394,-0.038C0.369,-0.013 0.334,0 0.291,0ZM0.209,-0.045L0.287,-0.045C0.318,-0.045 0.341,-0.054 0.358,-0.071C0.374,-0.088 0.382,-0.112 0.382,-0.143L0.382,-0.367C0.382,-0.398 0.374,-0.423 0.358,-0.44C0.341,-0.456 0.318,-0.465 0.287,-0.465L0.209,-0.465C0.178,-0.465 0.155,-0.456 0.139,-0.44C0.123,-0.423 0.115,-0.398 0.115,-0.367L0.115,-0.143C0.115,-0.112 0.123,-0.088 0.139,-0.071C0.155,-0.054 0.178,-0.045 0.209,-0.045Z" style="fill:white;fill-rule:nonzero;"/>
                </g>
                <g transform="matrix(79.6835,0,0,159.644,1358.89,3388.81)">
                    <path d="M0.114,0L0.085,0C0.078,0 0.075,-0.004 0.075,-0.012L0.075,-0.498C0.075,-0.506 0.078,-0.51 0.085,-0.51L0.114,-0.51C0.121,-0.51 0.125,-0.506 0.125,-0.498L0.125,-0.458L0.129,-0.458C0.148,-0.493 0.182,-0.51 0.233,-0.51L0.299,-0.51C0.342,-0.51 0.375,-0.497 0.4,-0.472C0.425,-0.447 0.437,-0.412 0.437,-0.368L0.437,-0.012C0.437,-0.004 0.434,0 0.427,0L0.398,0C0.391,0 0.387,-0.004 0.387,-0.012L0.387,-0.366C0.387,-0.397 0.379,-0.422 0.363,-0.439C0.347,-0.456 0.324,-0.465 0.293,-0.465L0.228,-0.465C0.196,-0.465 0.171,-0.456 0.153,-0.44C0.134,-0.423 0.125,-0.398 0.125,-0.367L0.125,-0.012C0.125,-0.004 0.121,0 0.114,0Z" style="fill:white;fill-rule:nonzero;"/>
                </g>
                <g transform="matrix(79.6835,0,0,159.644,1420.57,3388.81)">
                    <path d="M0.145,-0.044L0.331,-0.044C0.394,-0.044 0.426,-0.076 0.426,-0.14L0.426,-0.209C0.426,-0.272 0.391,-0.304 0.322,-0.304L0.145,-0.304C0.138,-0.304 0.135,-0.301 0.135,-0.296L0.135,-0.053C0.135,-0.047 0.138,-0.044 0.145,-0.044ZM0.145,-0.348L0.321,-0.348C0.352,-0.348 0.377,-0.356 0.394,-0.373C0.411,-0.39 0.419,-0.413 0.419,-0.444L0.419,-0.503C0.419,-0.567 0.387,-0.599 0.324,-0.599L0.145,-0.599C0.138,-0.599 0.135,-0.596 0.135,-0.59L0.135,-0.357C0.135,-0.351 0.138,-0.348 0.145,-0.348ZM0.085,-0.012L0.085,-0.631C0.085,-0.639 0.088,-0.643 0.095,-0.643L0.328,-0.643C0.371,-0.643 0.406,-0.631 0.431,-0.606C0.456,-0.581 0.469,-0.547 0.469,-0.504L0.469,-0.443C0.469,-0.382 0.44,-0.343 0.383,-0.326C0.408,-0.325 0.429,-0.313 0.448,-0.292C0.467,-0.271 0.476,-0.243 0.476,-0.209L0.476,-0.139C0.476,-0.096 0.463,-0.062 0.438,-0.037C0.413,-0.012 0.378,0 0.335,0L0.095,0C0.088,0 0.085,-0.004 0.085,-0.012Z" style="fill:white;fill-rule:nonzero;"/>
                </g>
                <g transform="matrix(79.6835,0,0,159.644,1464.07,3388.81)">
                    <path d="M0.291,0L0.205,0C0.162,0 0.128,-0.013 0.103,-0.038C0.078,-0.063 0.065,-0.098 0.065,-0.142L0.065,-0.368C0.065,-0.412 0.078,-0.447 0.103,-0.472C0.128,-0.497 0.162,-0.51 0.205,-0.51L0.291,-0.51C0.334,-0.51 0.369,-0.497 0.394,-0.472C0.419,-0.447 0.432,-0.412 0.432,-0.368L0.432,-0.142C0.432,-0.098 0.419,-0.063 0.394,-0.038C0.369,-0.013 0.334,0 0.291,0ZM0.209,-0.045L0.287,-0.045C0.318,-0.045 0.341,-0.054 0.358,-0.071C0.374,-0.088 0.382,-0.112 0.382,-0.143L0.382,-0.367C0.382,-0.398 0.374,-0.423 0.358,-0.44C0.341,-0.456 0.318,-0.465 0.287,-0.465L0.209,-0.465C0.178,-0.465 0.155,-0.456 0.139,-0.44C0.123,-0.423 0.115,-0.398 0.115,-0.367L0.115,-0.143C0.115,-0.112 0.123,-0.088 0.139,-0.071C0.155,-0.054 0.178,-0.045 0.209,-0.045Z" style="fill:white;fill-rule:nonzero;"/>
                </g>
                <g transform="matrix(79.6835,0,0,159.644,1503.6,3388.81)">
                    <path d="M0.24,0L0.066,0C0.059,0 0.055,-0.004 0.055,-0.011L0.055,-0.034C0.055,-0.041 0.059,-0.044 0.066,-0.044L0.235,-0.044C0.295,-0.044 0.325,-0.067 0.325,-0.114L0.325,-0.138C0.325,-0.181 0.306,-0.21 0.269,-0.223L0.144,-0.271C0.11,-0.284 0.086,-0.3 0.072,-0.318C0.057,-0.336 0.05,-0.361 0.05,-0.393C0.05,-0.471 0.093,-0.51 0.179,-0.51L0.341,-0.51C0.348,-0.51 0.352,-0.506 0.352,-0.499L0.352,-0.476C0.352,-0.469 0.348,-0.466 0.341,-0.466L0.184,-0.466C0.157,-0.466 0.136,-0.46 0.123,-0.448C0.109,-0.436 0.102,-0.422 0.102,-0.406L0.102,-0.383C0.102,-0.364 0.107,-0.35 0.118,-0.339C0.128,-0.328 0.144,-0.319 0.165,-0.312L0.29,-0.262C0.325,-0.251 0.348,-0.234 0.36,-0.212C0.371,-0.189 0.377,-0.158 0.377,-0.118C0.377,-0.078 0.366,-0.048 0.344,-0.029C0.321,-0.01 0.287,0 0.24,0Z" style="fill:white;fill-rule:nonzero;"/>
                </g>
                <g transform="matrix(79.6835,0,0,159.644,1537.94,3388.81)">
                    <path d="M0.36,-0.034L0.36,-0.011C0.36,-0.004 0.356,0 0.349,0L0.205,0C0.162,0 0.128,-0.013 0.103,-0.038C0.078,-0.063 0.065,-0.098 0.065,-0.142L0.065,-0.368C0.065,-0.412 0.078,-0.447 0.103,-0.472C0.128,-0.497 0.162,-0.51 0.205,-0.51L0.349,-0.51C0.356,-0.51 0.36,-0.506 0.36,-0.499L0.36,-0.475C0.36,-0.468 0.356,-0.465 0.349,-0.465L0.209,-0.465C0.178,-0.465 0.155,-0.456 0.139,-0.439C0.123,-0.422 0.115,-0.397 0.115,-0.366L0.115,-0.144C0.115,-0.113 0.123,-0.088 0.139,-0.071C0.155,-0.054 0.178,-0.045 0.209,-0.045L0.349,-0.045C0.356,-0.045 0.36,-0.041 0.36,-0.034Z" style="fill:white;fill-rule:nonzero;"/>
                </g>
                <g transform="matrix(79.6835,0,0,159.644,1569.34,3388.81)">
                    <path d="M0.291,0L0.205,0C0.162,0 0.128,-0.013 0.103,-0.038C0.078,-0.063 0.065,-0.098 0.065,-0.142L0.065,-0.368C0.065,-0.412 0.078,-0.447 0.103,-0.472C0.128,-0.497 0.162,-0.51 0.205,-0.51L0.291,-0.51C0.334,-0.51 0.369,-0.497 0.394,-0.472C0.419,-0.447 0.432,-0.412 0.432,-0.368L0.432,-0.142C0.432,-0.098 0.419,-0.063 0.394,-0.038C0.369,-0.013 0.334,0 0.291,0ZM0.209,-0.045L0.287,-0.045C0.318,-0.045 0.341,-0.054 0.358,-0.071C0.374,-0.088 0.382,-0.112 0.382,-0.143L0.382,-0.367C0.382,-0.398 0.374,-0.423 0.358,-0.44C0.341,-0.456 0.318,-0.465 0.287,-0.465L0.209,-0.465C0.178,-0.465 0.155,-0.456 0.139,-0.44C0.123,-0.423 0.115,-0.398 0.115,-0.367L0.115,-0.143C0.115,-0.112 0.123,-0.088 0.139,-0.071C0.155,-0.054 0.178,-0.045 0.209,-0.045Z" style="fill:white;fill-rule:nonzero;"/>
                </g>
                <g transform="matrix(79.6835,0,0,159.644,1630.13,3388.81)">
                    <path d="M0.14,-0.631L0.14,-0.012C0.14,-0.004 0.136,0 0.129,0L0.1,0C0.093,0 0.09,-0.004 0.09,-0.012L0.09,-0.631C0.09,-0.639 0.093,-0.643 0.1,-0.643L0.129,-0.643C0.136,-0.643 0.14,-0.639 0.14,-0.631Z" style="fill:white;fill-rule:nonzero;"/>
                </g>
                <g transform="matrix(79.6835,0,0,159.644,1648.46,3388.81)">
                    <path d="M0.114,0L0.085,0C0.078,0 0.075,-0.004 0.075,-0.012L0.075,-0.498C0.075,-0.506 0.078,-0.51 0.085,-0.51L0.114,-0.51C0.121,-0.51 0.125,-0.506 0.125,-0.498L0.125,-0.458L0.129,-0.458C0.148,-0.493 0.182,-0.51 0.233,-0.51L0.299,-0.51C0.342,-0.51 0.375,-0.497 0.4,-0.472C0.425,-0.447 0.437,-0.412 0.437,-0.368L0.437,-0.012C0.437,-0.004 0.434,0 0.427,0L0.398,0C0.391,0 0.387,-0.004 0.387,-0.012L0.387,-0.366C0.387,-0.397 0.379,-0.422 0.363,-0.439C0.347,-0.456 0.324,-0.465 0.293,-0.465L0.228,-0.465C0.196,-0.465 0.171,-0.456 0.153,-0.44C0.134,-0.423 0.125,-0.398 0.125,-0.367L0.125,-0.012C0.125,-0.004 0.121,0 0.114,0Z" style="fill:white;fill-rule:nonzero;"/>
                </g>
                <g transform="matrix(79.6835,0,0,159.644,1688.86,3388.81)">
                    <path d="M0.24,0L0.066,0C0.059,0 0.055,-0.004 0.055,-0.011L0.055,-0.034C0.055,-0.041 0.059,-0.044 0.066,-0.044L0.235,-0.044C0.295,-0.044 0.325,-0.067 0.325,-0.114L0.325,-0.138C0.325,-0.181 0.306,-0.21 0.269,-0.223L0.144,-0.271C0.11,-0.284 0.086,-0.3 0.072,-0.318C0.057,-0.336 0.05,-0.361 0.05,-0.393C0.05,-0.471 0.093,-0.51 0.179,-0.51L0.341,-0.51C0.348,-0.51 0.352,-0.506 0.352,-0.499L0.352,-0.476C0.352,-0.469 0.348,-0.466 0.341,-0.466L0.184,-0.466C0.157,-0.466 0.136,-0.46 0.123,-0.448C0.109,-0.436 0.102,-0.422 0.102,-0.406L0.102,-0.383C0.102,-0.364 0.107,-0.35 0.118,-0.339C0.128,-0.328 0.144,-0.319 0.165,-0.312L0.29,-0.262C0.325,-0.251 0.348,-0.234 0.36,-0.212C0.371,-0.189 0.377,-0.158 0.377,-0.118C0.377,-0.078 0.366,-0.048 0.344,-0.029C0.321,-0.01 0.287,0 0.24,0Z" style="fill:white;fill-rule:nonzero;"/>
                </g>
                <g transform="matrix(79.6835,0,0,159.644,1723.21,3388.81)">
                    <path d="M0.097,-0.465L0.036,-0.465C0.029,-0.465 0.025,-0.468 0.025,-0.475L0.025,-0.499C0.025,-0.506 0.029,-0.51 0.036,-0.51L0.097,-0.51C0.103,-0.51 0.106,-0.513 0.106,-0.519L0.106,-0.6C0.106,-0.608 0.11,-0.612 0.117,-0.612L0.146,-0.612C0.153,-0.612 0.157,-0.608 0.157,-0.6L0.157,-0.519C0.157,-0.513 0.16,-0.51 0.166,-0.51L0.285,-0.51C0.292,-0.51 0.296,-0.506 0.296,-0.499L0.296,-0.475C0.296,-0.468 0.292,-0.465 0.285,-0.465L0.166,-0.465C0.16,-0.465 0.157,-0.462 0.157,-0.456L0.157,-0.141C0.157,-0.11 0.166,-0.087 0.183,-0.07C0.2,-0.053 0.225,-0.045 0.256,-0.045L0.295,-0.045C0.302,-0.045 0.306,-0.041 0.306,-0.034L0.306,-0.011C0.306,-0.004 0.302,0 0.295,0L0.252,0C0.208,0 0.173,-0.012 0.146,-0.037C0.119,-0.062 0.106,-0.096 0.106,-0.139L0.106,-0.456C0.106,-0.462 0.103,-0.465 0.097,-0.465Z" style="fill:white;fill-rule:nonzero;"/>
                </g>
                <g transform="matrix(79.6835,0,0,159.644,1750.86,3388.81)">
                    <path d="M0.08,-0.594L0.08,-0.69C0.08,-0.697 0.083,-0.701 0.09,-0.701L0.12,-0.701C0.127,-0.701 0.13,-0.697 0.13,-0.69L0.13,-0.594C0.13,-0.586 0.127,-0.582 0.12,-0.582L0.09,-0.582C0.083,-0.582 0.08,-0.586 0.08,-0.594ZM0.08,-0.012L0.08,-0.498C0.08,-0.506 0.083,-0.51 0.09,-0.51L0.119,-0.51C0.126,-0.51 0.13,-0.506 0.13,-0.498L0.13,-0.012C0.13,-0.004 0.127,0 0.12,0L0.09,0C0.083,0 0.08,-0.004 0.08,-0.012Z" style="fill:white;fill-rule:nonzero;"/>
                </g>
                <g transform="matrix(79.6835,0,0,159.644,1767.59,3388.81)">
                    <path d="M0.097,-0.465L0.036,-0.465C0.029,-0.465 0.025,-0.468 0.025,-0.475L0.025,-0.499C0.025,-0.506 0.029,-0.51 0.036,-0.51L0.097,-0.51C0.103,-0.51 0.106,-0.513 0.106,-0.519L0.106,-0.6C0.106,-0.608 0.11,-0.612 0.117,-0.612L0.146,-0.612C0.153,-0.612 0.157,-0.608 0.157,-0.6L0.157,-0.519C0.157,-0.513 0.16,-0.51 0.166,-0.51L0.285,-0.51C0.292,-0.51 0.296,-0.506 0.296,-0.499L0.296,-0.475C0.296,-0.468 0.292,-0.465 0.285,-0.465L0.166,-0.465C0.16,-0.465 0.157,-0.462 0.157,-0.456L0.157,-0.141C0.157,-0.11 0.166,-0.087 0.183,-0.07C0.2,-0.053 0.225,-0.045 0.256,-0.045L0.295,-0.045C0.302,-0.045 0.306,-0.041 0.306,-0.034L0.306,-0.011C0.306,-0.004 0.302,0 0.295,0L0.252,0C0.208,0 0.173,-0.012 0.146,-0.037C0.119,-0.062 0.106,-0.096 0.106,-0.139L0.106,-0.456C0.106,-0.462 0.103,-0.465 0.097,-0.465Z" style="fill:white;fill-rule:nonzero;"/>
                </g>
                <g transform="matrix(79.6835,0,0,159.644,1795.24,3388.81)">
                    <path d="M0.274,0L0.208,0C0.165,0 0.132,-0.013 0.107,-0.038C0.082,-0.063 0.07,-0.098 0.07,-0.142L0.07,-0.498C0.07,-0.506 0.073,-0.51 0.08,-0.51L0.109,-0.51C0.116,-0.51 0.12,-0.506 0.12,-0.498L0.12,-0.144C0.12,-0.113 0.128,-0.088 0.144,-0.071C0.16,-0.054 0.183,-0.045 0.214,-0.045L0.279,-0.045C0.311,-0.045 0.336,-0.054 0.355,-0.071C0.373,-0.088 0.382,-0.112 0.382,-0.143L0.382,-0.498C0.382,-0.506 0.386,-0.51 0.393,-0.51L0.422,-0.51C0.429,-0.51 0.432,-0.506 0.432,-0.498L0.432,-0.012C0.432,-0.004 0.429,0 0.422,0L0.393,0C0.386,0 0.382,-0.004 0.382,-0.012L0.382,-0.052L0.378,-0.052C0.361,-0.017 0.326,0 0.274,0Z" style="fill:white;fill-rule:nonzero;"/>
                </g>
                <g transform="matrix(79.6835,0,0,159.644,1835.64,3388.81)">
                    <path d="M0.097,-0.465L0.036,-0.465C0.029,-0.465 0.025,-0.468 0.025,-0.475L0.025,-0.499C0.025,-0.506 0.029,-0.51 0.036,-0.51L0.097,-0.51C0.103,-0.51 0.106,-0.513 0.106,-0.519L0.106,-0.6C0.106,-0.608 0.11,-0.612 0.117,-0.612L0.146,-0.612C0.153,-0.612 0.157,-0.608 0.157,-0.6L0.157,-0.519C0.157,-0.513 0.16,-0.51 0.166,-0.51L0.285,-0.51C0.292,-0.51 0.296,-0.506 0.296,-0.499L0.296,-0.475C0.296,-0.468 0.292,-0.465 0.285,-0.465L0.166,-0.465C0.16,-0.465 0.157,-0.462 0.157,-0.456L0.157,-0.141C0.157,-0.11 0.166,-0.087 0.183,-0.07C0.2,-0.053 0.225,-0.045 0.256,-0.045L0.295,-0.045C0.302,-0.045 0.306,-0.041 0.306,-0.034L0.306,-0.011C0.306,-0.004 0.302,0 0.295,0L0.252,0C0.208,0 0.173,-0.012 0.146,-0.037C0.119,-0.062 0.106,-0.096 0.106,-0.139L0.106,-0.456C0.106,-0.462 0.103,-0.465 0.097,-0.465Z" style="fill:white;fill-rule:nonzero;"/>
                </g>
                <g transform="matrix(79.6835,0,0,159.644,1863.29,3388.81)">
                    <path d="M0.414,0L0.205,0C0.162,0 0.128,-0.013 0.103,-0.038C0.078,-0.063 0.065,-0.098 0.065,-0.142L0.065,-0.368C0.065,-0.412 0.078,-0.447 0.103,-0.472C0.128,-0.497 0.162,-0.51 0.205,-0.51L0.291,-0.51C0.334,-0.51 0.369,-0.497 0.394,-0.472C0.419,-0.447 0.432,-0.412 0.432,-0.368L0.432,-0.241C0.432,-0.233 0.428,-0.229 0.42,-0.229L0.124,-0.229C0.118,-0.229 0.115,-0.226 0.115,-0.22L0.115,-0.143C0.115,-0.112 0.123,-0.088 0.139,-0.071C0.155,-0.054 0.178,-0.045 0.209,-0.045L0.414,-0.045C0.421,-0.045 0.425,-0.041 0.425,-0.034L0.425,-0.011C0.425,-0.004 0.421,0 0.414,0ZM0.124,-0.269L0.373,-0.269C0.379,-0.269 0.382,-0.272 0.382,-0.278L0.382,-0.367C0.382,-0.398 0.374,-0.423 0.358,-0.44C0.342,-0.456 0.319,-0.465 0.288,-0.465L0.209,-0.465C0.178,-0.465 0.155,-0.456 0.139,-0.44C0.123,-0.423 0.115,-0.398 0.115,-0.367L0.115,-0.278C0.115,-0.272 0.118,-0.269 0.124,-0.269Z" style="fill:white;fill-rule:nonzero;"/>
                </g>
                <g transform="matrix(79.6835,0,0,159.644,1923.77,3388.81)">
                    <path d="M0.291,0L0.205,0C0.162,0 0.128,-0.013 0.103,-0.038C0.078,-0.063 0.065,-0.098 0.065,-0.142L0.065,-0.368C0.065,-0.412 0.078,-0.447 0.103,-0.472C0.128,-0.497 0.162,-0.51 0.205,-0.51L0.291,-0.51C0.334,-0.51 0.369,-0.497 0.394,-0.472C0.419,-0.447 0.432,-0.412 0.432,-0.368L0.432,-0.142C0.432,-0.098 0.419,-0.063 0.394,-0.038C0.369,-0.013 0.334,0 0.291,0ZM0.209,-0.045L0.287,-0.045C0.318,-0.045 0.341,-0.054 0.358,-0.071C0.374,-0.088 0.382,-0.112 0.382,-0.143L0.382,-0.367C0.382,-0.398 0.374,-0.423 0.358,-0.44C0.341,-0.456 0.318,-0.465 0.287,-0.465L0.209,-0.465C0.178,-0.465 0.155,-0.456 0.139,-0.44C0.123,-0.423 0.115,-0.398 0.115,-0.367L0.115,-0.143C0.115,-0.112 0.123,-0.088 0.139,-0.071C0.155,-0.054 0.178,-0.045 0.209,-0.045Z" style="fill:white;fill-rule:nonzero;"/>
                </g>
                <g transform="matrix(79.6835,0,0,159.644,1963.29,3388.81)">
                    <path d="M0.18,-0.51L0.271,-0.51C0.279,-0.51 0.283,-0.506 0.283,-0.499L0.283,-0.476C0.283,-0.469 0.279,-0.465 0.271,-0.465L0.18,-0.465C0.174,-0.465 0.171,-0.462 0.171,-0.456L0.171,-0.012C0.171,-0.004 0.167,0 0.16,0L0.131,0C0.124,0 0.12,-0.004 0.12,-0.012L0.12,-0.456C0.12,-0.462 0.117,-0.465 0.111,-0.465L0.047,-0.465C0.04,-0.465 0.036,-0.469 0.036,-0.476L0.036,-0.499C0.036,-0.506 0.04,-0.51 0.047,-0.51L0.111,-0.51C0.117,-0.51 0.12,-0.513 0.12,-0.519L0.12,-0.563C0.12,-0.656 0.162,-0.703 0.247,-0.703L0.271,-0.703C0.279,-0.703 0.283,-0.699 0.283,-0.692L0.283,-0.669C0.283,-0.662 0.279,-0.658 0.271,-0.658L0.252,-0.658C0.222,-0.658 0.201,-0.65 0.189,-0.634C0.177,-0.618 0.171,-0.594 0.171,-0.561L0.171,-0.519C0.171,-0.513 0.174,-0.51 0.18,-0.51Z" style="fill:white;fill-rule:nonzero;"/>
                </g>
                <g transform="matrix(79.6835,0,0,159.644,2008.71,3388.81)">
                    <path d="M0.225,0L0.196,0C0.189,0 0.185,-0.004 0.185,-0.012L0.185,-0.589C0.185,-0.595 0.182,-0.598 0.175,-0.598L0.03,-0.598C0.022,-0.598 0.018,-0.602 0.018,-0.609L0.018,-0.632C0.018,-0.639 0.022,-0.643 0.03,-0.643L0.39,-0.643C0.398,-0.643 0.402,-0.639 0.402,-0.632L0.402,-0.609C0.402,-0.602 0.398,-0.598 0.39,-0.598L0.245,-0.598C0.238,-0.598 0.235,-0.595 0.235,-0.589L0.235,-0.012C0.235,-0.004 0.232,0 0.225,0Z" style="fill:white;fill-rule:nonzero;"/>
                </g>
                <g transform="matrix(79.6835,0,0,159.644,2042.18,3388.81)">
                    <path d="M0.414,0L0.205,0C0.162,0 0.128,-0.013 0.103,-0.038C0.078,-0.063 0.065,-0.098 0.065,-0.142L0.065,-0.368C0.065,-0.412 0.078,-0.447 0.103,-0.472C0.128,-0.497 0.162,-0.51 0.205,-0.51L0.291,-0.51C0.334,-0.51 0.369,-0.497 0.394,-0.472C0.419,-0.447 0.432,-0.412 0.432,-0.368L0.432,-0.241C0.432,-0.233 0.428,-0.229 0.42,-0.229L0.124,-0.229C0.118,-0.229 0.115,-0.226 0.115,-0.22L0.115,-0.143C0.115,-0.112 0.123,-0.088 0.139,-0.071C0.155,-0.054 0.178,-0.045 0.209,-0.045L0.414,-0.045C0.421,-0.045 0.425,-0.041 0.425,-0.034L0.425,-0.011C0.425,-0.004 0.421,0 0.414,0ZM0.124,-0.269L0.373,-0.269C0.379,-0.269 0.382,-0.272 0.382,-0.278L0.382,-0.367C0.382,-0.398 0.374,-0.423 0.358,-0.44C0.342,-0.456 0.319,-0.465 0.288,-0.465L0.209,-0.465C0.178,-0.465 0.155,-0.456 0.139,-0.44C0.123,-0.423 0.115,-0.398 0.115,-0.367L0.115,-0.278C0.115,-0.272 0.118,-0.269 0.124,-0.269Z" style="fill:white;fill-rule:nonzero;"/>
                </g>
                <g transform="matrix(79.6835,0,0,159.644,2081.38,3388.81)">
                    <path d="M0.36,-0.034L0.36,-0.011C0.36,-0.004 0.356,0 0.349,0L0.205,0C0.162,0 0.128,-0.013 0.103,-0.038C0.078,-0.063 0.065,-0.098 0.065,-0.142L0.065,-0.368C0.065,-0.412 0.078,-0.447 0.103,-0.472C0.128,-0.497 0.162,-0.51 0.205,-0.51L0.349,-0.51C0.356,-0.51 0.36,-0.506 0.36,-0.499L0.36,-0.475C0.36,-0.468 0.356,-0.465 0.349,-0.465L0.209,-0.465C0.178,-0.465 0.155,-0.456 0.139,-0.439C0.123,-0.422 0.115,-0.397 0.115,-0.366L0.115,-0.144C0.115,-0.113 0.123,-0.088 0.139,-0.071C0.155,-0.054 0.178,-0.045 0.209,-0.045L0.349,-0.045C0.356,-0.045 0.36,-0.041 0.36,-0.034Z" style="fill:white;fill-rule:nonzero;"/>
                </g>
                <g transform="matrix(79.6835,0,0,159.644,2112.78,3388.81)">
                    <path d="M0.114,0L0.085,0C0.078,0 0.075,-0.004 0.075,-0.012L0.075,-0.691C0.075,-0.699 0.078,-0.703 0.085,-0.703L0.114,-0.703C0.121,-0.703 0.125,-0.699 0.125,-0.691L0.125,-0.458L0.129,-0.458C0.148,-0.493 0.182,-0.51 0.233,-0.51L0.299,-0.51C0.342,-0.51 0.375,-0.497 0.4,-0.472C0.425,-0.447 0.437,-0.412 0.437,-0.368L0.437,-0.012C0.437,-0.004 0.434,0 0.427,0L0.398,0C0.391,0 0.387,-0.004 0.387,-0.012L0.387,-0.366C0.387,-0.397 0.379,-0.422 0.363,-0.439C0.347,-0.456 0.324,-0.465 0.293,-0.465L0.228,-0.465C0.196,-0.465 0.171,-0.456 0.153,-0.44C0.134,-0.423 0.125,-0.398 0.125,-0.367L0.125,-0.012C0.125,-0.004 0.121,0 0.114,0Z" style="fill:white;fill-rule:nonzero;"/>
                </g>
                <g transform="matrix(79.6835,0,0,159.644,2153.18,3388.81)">
                    <path d="M0.114,0L0.085,0C0.078,0 0.075,-0.004 0.075,-0.012L0.075,-0.498C0.075,-0.506 0.078,-0.51 0.085,-0.51L0.114,-0.51C0.121,-0.51 0.125,-0.506 0.125,-0.498L0.125,-0.458L0.129,-0.458C0.148,-0.493 0.182,-0.51 0.233,-0.51L0.299,-0.51C0.342,-0.51 0.375,-0.497 0.4,-0.472C0.425,-0.447 0.437,-0.412 0.437,-0.368L0.437,-0.012C0.437,-0.004 0.434,0 0.427,0L0.398,0C0.391,0 0.387,-0.004 0.387,-0.012L0.387,-0.366C0.387,-0.397 0.379,-0.422 0.363,-0.439C0.347,-0.456 0.324,-0.465 0.293,-0.465L0.228,-0.465C0.196,-0.465 0.171,-0.456 0.153,-0.44C0.134,-0.423 0.125,-0.398 0.125,-0.367L0.125,-0.012C0.125,-0.004 0.121,0 0.114,0Z" style="fill:white;fill-rule:nonzero;"/>
                </g>
                <g transform="matrix(79.6835,0,0,159.644,2193.58,3388.81)">
                    <path d="M0.291,0L0.205,0C0.162,0 0.128,-0.013 0.103,-0.038C0.078,-0.063 0.065,-0.098 0.065,-0.142L0.065,-0.368C0.065,-0.412 0.078,-0.447 0.103,-0.472C0.128,-0.497 0.162,-0.51 0.205,-0.51L0.291,-0.51C0.334,-0.51 0.369,-0.497 0.394,-0.472C0.419,-0.447 0.432,-0.412 0.432,-0.368L0.432,-0.142C0.432,-0.098 0.419,-0.063 0.394,-0.038C0.369,-0.013 0.334,0 0.291,0ZM0.209,-0.045L0.287,-0.045C0.318,-0.045 0.341,-0.054 0.358,-0.071C0.374,-0.088 0.382,-0.112 0.382,-0.143L0.382,-0.367C0.382,-0.398 0.374,-0.423 0.358,-0.44C0.341,-0.456 0.318,-0.465 0.287,-0.465L0.209,-0.465C0.178,-0.465 0.155,-0.456 0.139,-0.44C0.123,-0.423 0.115,-0.398 0.115,-0.367L0.115,-0.143C0.115,-0.112 0.123,-0.088 0.139,-0.071C0.155,-0.054 0.178,-0.045 0.209,-0.045Z" style="fill:white;fill-rule:nonzero;"/>
                </g>
                <g transform="matrix(79.6835,0,0,159.644,2233.1,3388.81)">
                    <path d="M0.119,0L0.09,0C0.083,0 0.08,-0.004 0.08,-0.012L0.08,-0.691C0.08,-0.699 0.083,-0.703 0.09,-0.703L0.119,-0.703C0.126,-0.703 0.13,-0.699 0.13,-0.691L0.13,-0.012C0.13,-0.004 0.126,0 0.119,0Z" style="fill:white;fill-rule:nonzero;"/>
                </g>
                <g transform="matrix(79.6835,0,0,159.644,2249.83,3388.81)">
                    <path d="M0.291,0L0.205,0C0.162,0 0.128,-0.013 0.103,-0.038C0.078,-0.063 0.065,-0.098 0.065,-0.142L0.065,-0.368C0.065,-0.412 0.078,-0.447 0.103,-0.472C0.128,-0.497 0.162,-0.51 0.205,-0.51L0.291,-0.51C0.334,-0.51 0.369,-0.497 0.394,-0.472C0.419,-0.447 0.432,-0.412 0.432,-0.368L0.432,-0.142C0.432,-0.098 0.419,-0.063 0.394,-0.038C0.369,-0.013 0.334,0 0.291,0ZM0.209,-0.045L0.287,-0.045C0.318,-0.045 0.341,-0.054 0.358,-0.071C0.374,-0.088 0.382,-0.112 0.382,-0.143L0.382,-0.367C0.382,-0.398 0.374,-0.423 0.358,-0.44C0.341,-0.456 0.318,-0.465 0.287,-0.465L0.209,-0.465C0.178,-0.465 0.155,-0.456 0.139,-0.44C0.123,-0.423 0.115,-0.398 0.115,-0.367L0.115,-0.143C0.115,-0.112 0.123,-0.088 0.139,-0.071C0.155,-0.054 0.178,-0.045 0.209,-0.045Z" style="fill:white;fill-rule:nonzero;"/>
                </g>
                <g transform="matrix(79.6835,0,0,159.644,2289.36,3388.81)">
                    <path d="M0.273,-0.029L0.208,-0.029C0.165,-0.029 0.132,-0.042 0.107,-0.067C0.082,-0.092 0.069,-0.127 0.069,-0.17L0.069,-0.368C0.069,-0.412 0.082,-0.447 0.107,-0.472C0.132,-0.497 0.166,-0.51 0.209,-0.51L0.421,-0.51C0.428,-0.51 0.432,-0.506 0.432,-0.498L0.432,-0.002C0.432,0.042 0.419,0.077 0.394,0.102C0.369,0.127 0.334,0.14 0.291,0.14L0.109,0.14C0.102,0.14 0.098,0.136 0.098,0.129L0.098,0.105C0.098,0.098 0.102,0.095 0.109,0.095L0.287,0.095C0.318,0.095 0.341,0.087 0.357,0.07C0.373,0.053 0.381,0.028 0.381,-0.004L0.381,-0.081L0.377,-0.081C0.36,-0.046 0.326,-0.029 0.273,-0.029ZM0.381,-0.172L0.381,-0.456C0.381,-0.462 0.378,-0.465 0.372,-0.465L0.214,-0.465C0.183,-0.465 0.16,-0.456 0.144,-0.44C0.127,-0.423 0.119,-0.398 0.119,-0.366L0.119,-0.172C0.119,-0.141 0.127,-0.117 0.144,-0.1C0.16,-0.083 0.183,-0.074 0.214,-0.074L0.278,-0.074C0.31,-0.074 0.335,-0.083 0.354,-0.1C0.372,-0.117 0.381,-0.141 0.381,-0.172Z" style="fill:white;fill-rule:nonzero;"/>
                </g>
                <g transform="matrix(79.6835,0,0,159.644,2329.68,3388.81)">
                    <path d="M0.099,0.152L0.062,0.152C0.055,0.152 0.051,0.148 0.051,0.141L0.051,0.117C0.051,0.11 0.055,0.106 0.062,0.106L0.089,0.106C0.109,0.106 0.126,0.103 0.14,0.098C0.154,0.092 0.166,0.081 0.177,0.066C0.188,0.051 0.195,0.039 0.198,0.03C0.207,0.009 0.215,-0.01 0.221,-0.027L0.202,-0.027C0.195,-0.027 0.19,-0.031 0.188,-0.039L0.029,-0.498C0.026,-0.506 0.029,-0.51 0.037,-0.51L0.068,-0.51C0.075,-0.51 0.079,-0.506 0.081,-0.498L0.228,-0.069L0.232,-0.069L0.379,-0.498C0.381,-0.506 0.385,-0.51 0.392,-0.51L0.422,-0.51C0.43,-0.51 0.433,-0.506 0.431,-0.498C0.312,-0.149 0.249,0.032 0.245,0.044C0.24,0.056 0.23,0.072 0.217,0.093C0.192,0.132 0.152,0.152 0.099,0.152Z" style="fill:white;fill-rule:nonzero;"/>
                </g>
            </g>
            <g transform="matrix(0.460705,0,0,0.264838,-0.741239,256.18)">
                <text x="415.298px" y="1917.36px" style="font-family:'Rajdhani-Medium', 'Rajdhani';font-weight:500;font-size:150px;fill:white;">m<tspan x="536.348px 617.648px 738.698px 819.698px 900.248px 937.898px 1019.2px 1099.75px 1164.1px 1235.05px 1315.6px 1372.45px 1453.75px 1533.25px 1614.55px 1648.15px 1685.8px " y="1917.36px 1917.36px 1917.36px 1917.36px 1917.36px 1917.36px 1917.36px 1917.36px 1917.36px 1917.36px 1917.36px 1917.36px 1917.36px 1917.36px 1917.36px 1917.36px 1917.36px ">umbaihackathon.in</tspan></text>
            </g>
            <g transform="matrix(1.48339,0,0,1.04886,-921.411,-1006.24)">
                <g transform="matrix(1.23,0,0,1,-172.029,0)">
                    <text x="747.954px" y="1290.03px" style="font-family:'Rajdhani-Medium', 'Rajdhani';font-weight:500;font-size:150px;fill:rgb(255,243,0);">H<tspan x="838.254px 923.754px 1009.4px " y="1290.03px 1290.03px 1290.03px ">ACK</tspan></text>
                </g>
                <g transform="matrix(1.23,0,0,1,-172.029,0)">
                    <text x="747.954px" y="1440.03px" style="font-family:'Rajdhani-Medium', 'Rajdhani';font-weight:500;font-size:150px;fill:white;">W<tspan x="872.004px 912.654px 981.204px " y="1440.03px 1440.03px 1440.03px ">ITH</tspan></text>
                </g>
                <g transform="matrix(1.23,0,0,1,-172.029,0)">
                    <text x="747.954px" y="1590.03px" style="font-family:'Rajdhani-Medium', 'Rajdhani';font-weight:500;font-size:150px;fill:white;">U<tspan x="835.554px " y="1590.03px ">S</tspan></text>
                </g>
            </g>
        </g>
    </g>
</svg>
