<?xml version="1.0" encoding="UTF-8" standalone="no"?>
<svg
   xmlns:dc="http://purl.org/dc/elements/1.1/"
   xmlns:cc="http://creativecommons.org/ns#"
   xmlns:rdf="http://www.w3.org/1999/02/22-rdf-syntax-ns#"
   xmlns:svg="http://www.w3.org/2000/svg"
   xmlns="http://www.w3.org/2000/svg"
   xmlns:sodipodi="http://sodipodi.sourceforge.net/DTD/sodipodi-0.dtd"
   xmlns:inkscape="http://www.inkscape.org/namespaces/inkscape"
   xml:space="preserve"
   enable-background="new 0 0 512 512"
   viewBox="0 0 512 512"
   height="512px"
   width="512px"
   y="0px"
   x="0px"
   id="Layer_1"
   version="1.1"
   sodipodi:docname="ERPNext-logo-grey.svg"
   inkscape:version="0.92.2 5c3e80d, 2017-08-06"><sodipodi:namedview
     pagecolor="#ffffff"
     bordercolor="#666666"
     borderopacity="1"
     objecttolerance="10"
     gridtolerance="10"
     guidetolerance="10"
     inkscape:pageopacity="0"
     inkscape:pageshadow="2"
     inkscape:window-width="1920"
     inkscape:window-height="1029"
     id="namedview9"
     showgrid="false"
     inkscape:zoom="0.76072693"
     inkscape:cx="395.44652"
     inkscape:cy="222.91091"
     inkscape:window-x="0"
     inkscape:window-y="24"
     inkscape:window-maximized="1"
     inkscape:current-layer="Layer_1" /><metadata
     id="metadata15"><rdf:RDF><cc:Work
         rdf:about=""><dc:format>image/svg+xml</dc:format><dc:type
           rdf:resource="http://purl.org/dc/dcmitype/StillImage" /><dc:title></dc:title></cc:Work></rdf:RDF></metadata><defs
     id="defs13" /><g
     id="g3"
     style="fill:#b8c2cc;fill-opacity:1"><path
       id="path5"
       d="M512,448c0,35.2-28.8,64-64,64H64c-35.2,0-64-28.8-64-64V64C0,28.8,28.8,0,64,0h384c35.2,0,64,28.8,64,64   V448z"
       style="fill:#b8c2cc;fill-opacity:1"
       fill="#7574FF" /></g><g
     id="g7"><path
       id="path9"
       d="M150.483,371.684V141.15c0-15.167,9.534-25.133,23.833-25.133h162.5c13.866,0,20.8,6.933,20.8,18.633v2.6   c0,12.133-6.934,18.633-20.8,18.633h-141.7v78.434h109.634c14.3,0,20.8,6.066,20.8,17.767v1.3c0,12.133-6.934,18.633-20.8,18.633   H195.117v84.934h144.3c13.867,0,20.367,6.066,20.367,17.767v2.167c0,12.566-6.5,19.5-20.367,19.5h-165.1   C160.017,396.384,150.483,386.851,150.483,371.684z"
       fill="#FFFFFF" /></g></svg>