<?xml version="1.0" encoding="UTF-8" standalone="no"?>
<svg
   xmlns:dc="http://purl.org/dc/elements/1.1/"
   xmlns:cc="http://creativecommons.org/ns#"
   xmlns:rdf="http://www.w3.org/1999/02/22-rdf-syntax-ns#"
   xmlns:svg="http://www.w3.org/2000/svg"
   xmlns="http://www.w3.org/2000/svg"
   xmlns:sodipodi="http://sodipodi.sourceforge.net/DTD/sodipodi-0.dtd"
   xmlns:inkscape="http://www.inkscape.org/namespaces/inkscape"
   width="220.22417"
   height="166.86334"
   viewBox="0 0 220.22417 166.86334"
   version="1.1"
   xml:space="preserve"
   style="clip-rule:evenodd;fill-rule:evenodd;stroke-linejoin:round;stroke-miterlimit:1.41420996"
   id="svg16"
   sodipodi:docname="frappe-bird-grey.svg"
   inkscape:version="0.92.2 5c3e80d, 2017-08-06"><metadata
     id="metadata22"><rdf:RDF><cc:Work
         rdf:about=""><dc:format>image/svg+xml</dc:format><dc:type
           rdf:resource="http://purl.org/dc/dcmitype/StillImage" /></cc:Work></rdf:RDF></metadata><defs
     id="defs20" /><sodipodi:namedview
     pagecolor="#ffffff"
     bordercolor="#666666"
     borderopacity="1"
     objecttolerance="10"
     gridtolerance="10"
     guidetolerance="10"
     inkscape:pageopacity="0"
     inkscape:pageshadow="2"
     inkscape:window-width="1920"
     inkscape:window-height="1029"
     id="namedview18"
     showgrid="false"
     inkscape:zoom="1.7482243"
     inkscape:cx="41.146539"
     inkscape:cy="3.6548966"
     inkscape:window-x="0"
     inkscape:window-y="24"
     inkscape:window-maximized="1"
     inkscape:current-layer="g12" /><g
     id="g14"
     transform="translate(-19.887919,-47.466793)"><g
       id="g12"><path
         style="fill:#8d99a6;fill-rule:nonzero"
         d="m 59.73948,47.466797 c -0.0111,-1.05e-4 -0.0221,0.002 -0.0332,0.002 -0.0026,-5e-6 -0.0052,0 -0.0078,0 -0.03878,0 -0.07475,0.01068 -0.113282,0.01172 -0.09944,0.0027 -0.197768,0.01574 -0.296874,0.02539 -1.275303,-0.131267 -2.593532,0.300441 -3.535157,1.310547 l -9.232422,9.90625 -25.496093,27.363282 c -1.148,1.231999 -1.458157,3.029171 -0.785157,4.576171 0.672,1.546 2.198766,2.542969 3.884766,2.542969 H 55.46409 v 40.753904 c -0.380195,1.30779 -0.123206,2.77488 0.814453,3.89844 0.288811,0.34642 0.629051,0.61624 0.990234,0.8457 l 74.828123,74.39649 c 0.809,0.805 1.89028,1.23047 2.98828,1.23047 0.547,0 1.09905,-0.10522 1.62305,-0.32422 1.58,-0.657 2.60937,-2.19916 2.60937,-3.91016 v -60.47656 l 99.27149,-82.804689 c 1.37,-1.141 1.87653,-3.019312 1.26953,-4.695312 -0.606,-1.676 -2.19847,-2.792969 -3.98047,-2.792969 h -90.52539 c -0.991,0 -1.94894,0.348422 -2.71094,0.982422 L 104.9426,91.751953 62.721902,48.736328 c -0.0066,-0.0068 -0.01482,-0.01087 -0.02148,-0.01758 -0.110194,-0.110824 -0.237535,-0.202629 -0.359375,-0.300781 -0.311149,-0.250382 -0.639237,-0.467625 -0.994141,-0.617188 0,0 -0.002,0 -0.002,0 -0.51195,-0.2155 -1.058467,-0.328811 -1.605469,-0.333984 z m -4.27539,14.082031 v 23.1875 H 33.858621 Z m 8.470703,0.515625 34.482418,35.130859 -34.482418,28.761718 z m 82.953127,5.732422 h 77.30273 L 101.16917,170.4043 65.903543,135.34375 106.87425,101.16992 c 0.27951,-0.16794 0.5496,-0.3593 0.79296,-0.59765 0.0644,-0.0632 0.11046,-0.13699 0.16993,-0.20313 z M 130.8469,156.68359 v 43.22852 L 107.20432,176.4043 Z"
         id="path2"
         inkscape:connector-curvature="0" /></g></g></svg>