<?xml version="1.0" encoding="UTF-8" standalone="no"?>
<!-- Created with Inkscape (http://www.inkscape.org/) -->

<svg
   xmlns:dc="http://purl.org/dc/elements/1.1/"
   xmlns:cc="http://creativecommons.org/ns#"
   xmlns:rdf="http://www.w3.org/1999/02/22-rdf-syntax-ns#"
   xmlns:svg="http://www.w3.org/2000/svg"
   xmlns="http://www.w3.org/2000/svg"
   xmlns:sodipodi="http://sodipodi.sourceforge.net/DTD/sodipodi-0.dtd"
   xmlns:inkscape="http://www.inkscape.org/namespaces/inkscape"
   version="1.1"
   id="svg2"
   xml:space="preserve"
   width="241.73599"
   height="311.76587"
   viewBox="0 0 241.736 311.76587"
   sodipodi:docname="hub-logo.svg"
   inkscape:version="0.92.2 5c3e80d, 2017-08-06"><metadata
     id="metadata8"><rdf:RDF><cc:Work
         rdf:about=""><dc:format>image/svg+xml</dc:format><dc:type
           rdf:resource="http://purl.org/dc/dcmitype/StillImage" /><dc:title /></cc:Work></rdf:RDF></metadata><defs
     id="defs6"><clipPath
       clipPathUnits="userSpaceOnUse"
       id="clipPath18"><path
         d="M 0,600 H 1000 V 0 H 0 Z"
         id="path16"
         inkscape:connector-curvature="0" /></clipPath></defs><sodipodi:namedview
     pagecolor="#ffffff"
     bordercolor="#666666"
     borderopacity="1"
     objecttolerance="10"
     gridtolerance="10"
     guidetolerance="10"
     inkscape:pageopacity="0"
     inkscape:pageshadow="2"
     inkscape:window-width="1920"
     inkscape:window-height="1029"
     id="namedview4"
     showgrid="false"
     inkscape:zoom="1.1031347"
     inkscape:cx="126.08252"
     inkscape:cy="110.38493"
     inkscape:window-x="0"
     inkscape:window-y="24"
     inkscape:window-maximized="1"
     inkscape:current-layer="g10" /><g
     id="g10"
     inkscape:groupmode="layer"
     inkscape:label="hub logo"
     transform="matrix(1.3333333,0,0,-1.3333333,-564.12005,532.69694)"><g
       id="g869"
       transform="translate(-3.4212205)"><g
         transform="translate(16.661871,-20.628983)"
         id="g12"><g
           clip-path="url(#clipPath18)"
           id="g14"><g
             transform="translate(591.1514,279.1377)"
             id="g20"><path
               inkscape:connector-curvature="0"
               id="path22"
               style="fill:#428b46;fill-opacity:1;fill-rule:nonzero;stroke:none"
               d="m 0,0 c 0,-22.25 -18.04,-40.289 -40.29,-40.289 h -100.723 c -22.25,0 -40.289,18.039 -40.289,40.289 v 100.725 c 0,22.251 18.039,40.289 40.289,40.289 H -40.29 C -18.04,141.014 0,122.976 0,100.725 Z" /></g><g
             transform="translate(469.3467,296.2959)"
             id="g24"><path
               inkscape:connector-curvature="0"
               id="path26"
               d="m 0,0 c -11.269396,0.12037628 -21.846538,5.3492179 -30.730282,11.937382 -1.255671,0.941999 -2.425703,1.989465 -3.625718,2.999618 4.339604,9.704846 10.816518,18.702701 19.541507,24.909541 5.6191304,3.931316 12.4877466,6.24367 19.3679153,6.034653 C 14.627801,45.422348 23.744186,37.472833 25.488695,27.524957 27.620938,17.47237 21.884545,6.5025059 12.444623,2.4682109 8.5284922,0.85586507 4.234112,0.03025159 0,0 Z"
               style="fill:#6be273;fill-opacity:1;fill-rule:nonzero;stroke:none" /></g><g
             transform="translate(519.9316,324.9663)"
             id="g28"><path
               inkscape:connector-curvature="0"
               id="path30"
               d="m 0,0 c -10.984373,-0.14654833 -21.589198,6.9869699 -25.552457,17.246766 -4.613839,11.047515 -0.886567,24.826687 8.723756,31.990231 9.9309017,8.4975 23.613456,10.79777 36.314132,10.199972 C 25.246886,59.165163 30.994121,58.365152 36.566,56.858 36.99124,44.327766 34.845296,31.485066 29.121535,20.248963 25.185025,12.612382 18.884605,6.0782229 11.114238,2.3443848 7.6275567,0.79618012 3.8142059,-0.00253189 0,0 Z"
               style="fill:#49c44c;fill-opacity:1;fill-rule:nonzero;stroke:none" /></g><g
             transform="translate(533.21,367.6562)"
             id="g32"><path
               inkscape:connector-curvature="0"
               id="path34"
               d="m 0,0 c -11.765195,-2.8360057 -24.493464,-7.2344788 -31.342153,-17.941169 -3.321407,-5.050153 -4.389316,-11.156548 -4.059847,-17.101977 0,-3.291618 0,-6.583236 0,-9.874854 -5.971185,6.312539 -15.354355,9.113179 -23.73702,6.618094 -6.749244,-1.783829 -12.643834,-5.757376 -18.12098,-9.950094 1.432,-1.895333 2.864,-3.790667 4.296,-5.686 6.79155,5.121709 14.92127,10.802563 23.888837,9.019356 6.063783,-1.462785 10.749378,-6.455916 13.673163,-11.676696 0,-11.099554 0,-22.199107 0,-33.29866 2.376,0 4.752,0 7.128,0 0,19.83 0,39.66 0,59.49 0.759313,9.02012 8.132902,15.772121 16.091861,19.039622 C -7.7189539,-9.3782148 -2.9925918,-8.0856747 1.736,-6.91 1.1573333,-4.6066667 0.57866667,-2.3033333 0,0 Z"
               style="fill:#cef6d1;fill-opacity:1;fill-rule:nonzero;stroke:none" /></g></g></g><text
         y="-166.14832"
         x="477.55057"
         id="text38"
         style="font-variant:normal;font-weight:normal;font-stretch:normal;font-size:45px;font-family:Rubik;-inkscape-font-specification:Rubik-Regular;writing-mode:lr-tb;fill:#428b46;fill-opacity:1;fill-rule:nonzero;stroke:none"
         transform="scale(1,-1)"><tspan
           id="tspan36"
           sodipodi:role="line"
           y="-166.14832"
           x="477.55057 504.86557 531.86554">hub</tspan></text>
</g></g></svg>