<?xml version="1.0" encoding="utf-8"?>
<!-- Generator: Adobe Illustrator 15.1.0, SVG Export Plug-In . SVG Version: 6.00 Build 0)  -->
<!DOCTYPE svg PUBLIC "-//W3C//DTD SVG 1.1//EN" "http://www.w3.org/Graphics/SVG/1.1/DTD/svg11.dtd">
<svg version="1.1" id="Layer_1" xmlns="http://www.w3.org/2000/svg" xmlns:xlink="http://www.w3.org/1999/xlink" x="0px" y="0px"
	 width="407.592px" height="338.589px" viewBox="0 0 407.592 338.589" enable-background="new 0 0 407.592 338.589"
	 xml:space="preserve">
<g>
	<g>
		<path d="M174.174,192.946c-6.341,1.568-12.854,1.493-19.191,3.162c-5.999,1.579-11.243,5.522-15.827,9.523
			c-9.75,8.503-17.081,21.315-20.775,33.56c-0.665,2.204,1.197,4.946,3.621,4.75c8.191-0.665,16.074-1.496,24.23,0.076
			c4.731,0.911,6.747-6.324,1.997-7.238c-8.831-1.704-17.318-1.065-26.227-0.345c1.205,1.583,2.412,3.167,3.617,4.75
			c3.514-11.641,10.393-21.616,18.845-30.247c8.938-9.127,20.404-7.959,31.708-10.754
			C180.868,199.022,178.873,191.782,174.174,192.946L174.174,192.946z"/>
	</g>
	<g>
		<path d="M149.763,202.908c-5.61,34.195-11.221,68.393-16.829,102.59c-0.777,4.734,6.456,6.764,7.238,1.994
			c5.611-34.195,11.221-68.393,16.829-102.59C157.778,200.169,150.545,198.138,149.763,202.908L149.763,202.908z"/>
	</g>
	<g>
		<path d="M249.526,197.442c2.432,36.351,4.863,72.703,7.292,109.054c0.323,4.805,7.829,4.836,7.507,0
			c-2.429-36.351-4.86-72.704-7.291-109.054C256.713,192.638,249.204,192.606,249.526,197.442L249.526,197.442z"/>
	</g>
	<g>
		<path d="M131.979,241.379c-0.105-0.522-0.207-1.043-0.312-1.564c-0.746-3.736-6.314-3.443-7.238,0
			c-6.048,22.52-12.093,45.04-18.141,67.56c-1.258,4.682,5.984,6.666,7.238,1.994c6.047-22.52,12.093-45.04,18.141-67.56
			c-2.412,0-4.826,0-7.238,0c0.105,0.523,0.208,1.043,0.313,1.563C125.689,248.119,132.925,246.105,131.979,241.379L131.979,241.379
			z"/>
	</g>
	<g>
		<path d="M228.238,196.225c12.836,2.615,23.605,0.445,34.42,9.877c8.743,7.629,15.521,19.243,18.843,30.247
			c1.205-1.583,2.411-3.167,3.619-4.75c-8.934-0.73-17.378-1.29-26.229,0.345c-4.755,0.877-2.734,8.113,1.999,7.238
			c8.206-1.515,16.008-0.748,24.23-0.076c2.424,0.198,4.283-2.548,3.619-4.75c-3.878-12.858-11.428-24.02-20.772-33.56
			c-11.319-11.556-23.424-8.895-37.729-11.807C225.511,188.024,223.498,195.26,228.238,196.225L228.238,196.225z"/>
	</g>
	<g>
		<path d="M282.378,238.538c0.107-0.521,0.21-1.041,0.313-1.564c-2.456-0.332-4.915-0.665-7.37-0.997
			c1.925,23.507,3.851,47.011,5.777,70.519c0.391,4.789,7.902,4.828,7.507,0c-1.926-23.508-3.851-47.012-5.777-70.519
			c-0.328-3.973-6.493-5.405-7.375-0.998c-0.103,0.521-0.208,1.042-0.312,1.564C274.197,241.27,281.43,243.283,282.378,238.538
			L282.378,238.538z"/>
	</g>
	<g>
		<path d="M169.544,201.403c0.334,14.043,16.191,22.906,28.829,24.149c18.459,1.816,32.883-11.484,36.302-29.2
			c0.914-4.729-6.321-6.744-7.237-1.994c-2.119,10.977-8.66,19.827-19.47,23.544c-9.691,3.331-30.628-4.335-30.916-16.499
			C176.933,196.569,169.427,196.56,169.544,201.403L169.544,201.403z"/>
	</g>
	<g>
		<path d="M111.157,312.543c57.966,0,115.938,0,173.903,0c4.841,0,4.841-7.506,0-7.506c-57.966,0-115.937,0-173.903,0
			C106.316,305.037,106.316,312.543,111.157,312.543L111.157,312.543z"/>
	</g>
	<g>
		<path d="M203.143,224.861c0,18.036,0,36.074,0,54.11c0,4.841,7.507,4.841,7.507,0c0-18.036,0-36.074,0-54.11
			C210.65,220.02,203.143,220.02,203.143,224.861L203.143,224.861z"/>
	</g>
	<g>
		<path d="M213.599,239.19c-0.75,2.165-0.523,4.499,0,6.686c0.691,2.896,4.254,3.448,6.272,1.657
			c1.486-1.32,2.307-3.323,2.224-5.305c-0.1-2.412-1.417-4.206-3.296-5.594c-1.65-1.219-4.186-0.276-5.134,1.347
			c-1.119,1.909-0.296,3.922,1.346,5.134c-0.171-0.125-0.618-0.765-0.249-0.144c-0.403-0.684-0.125,0.454-0.162-0.444
			c0.024-0.137,0.049-0.274,0.073-0.413c-0.117,0.405-0.09,0.383,0.081-0.061c-0.371,0.782,0.474-0.418-0.19,0.173
			c2.092,0.553,4.183,1.104,6.273,1.657c-0.057-0.225-0.105-0.45-0.152-0.675c-0.242-1.139,0.022,0.687-0.066-0.557
			c-0.015-0.276-0.012-0.552,0.005-0.831c-0.02,0.569,0.205-0.616,0.213-0.635c0.669-1.933-0.746-4.101-2.622-4.616
			C216.147,235.999,214.266,237.257,213.599,239.19L213.599,239.19z"/>
	</g>
	<g>
		<path d="M213.599,267.965c-0.755,1.955-1.261,4.296-0.589,6.351c0.836,2.539,3.201,4.083,5.86,3.514
			c1.958-0.42,3.37-2.202,3.861-4.056c0.64-2.409-0.173-4.917-1.334-7.018c-0.987-1.789-3.401-2.36-5.134-1.346
			c-1.796,1.05-2.336,3.343-1.347,5.133c0.154,0.282,0.298,0.562,0.436,0.853c-0.391-0.828-0.049-0.044,0.01,0.142
			c0.071,0.23,0.114,0.464,0.159,0.702c-0.21-1.148-0.066-0.305-0.083,0.02c0.051-1.104,0.107-0.672,0.015-0.325
			c-0.164,0.623,0.442-0.895,0.149-0.362c-0.283,0.523,0.669-0.765,0.273-0.361c0.625-0.445,0.787-0.574,0.492-0.381
			c0.745-0.281,0.945-0.369,0.608-0.259c1.004-0.315,1.798-0.027,2.717,0.73c-0.42-0.347,0.589,0.88,0.293,0.379
			c0.567,0.963,0.237,0.64,0.146,0.176c0.228,1.156,0.083,0.567,0.085,0.22c0.003-0.25,0.145-1.002-0.027,0.034
			c0.122-0.74,0.379-1.454,0.648-2.15c0.738-1.911-0.799-4.115-2.622-4.616C216.094,264.76,214.334,266.057,213.599,267.965
			L213.599,267.965z"/>
	</g>
	<g>
		<path d="M135.271,132.279c0.701-14.07-17.452-13.97-23.59-4.403c-4.315,6.729-3.199,15.815,1.96,21.591
			c4.357,4.878,13.818,8.071,18.967,2.981c3.446-3.406-1.862-8.713-5.307-5.307c-2.097,2.072-7.834-2.158-9.151-3.912
			c-2.488-3.313-1.83-8.114,0.012-11.564c2.067-3.867,9.892-5.189,9.604,0.614C127.524,137.12,135.031,137.096,135.271,132.279
			L135.271,132.279z"/>
	</g>
	<g>
		<path d="M128.389,149.794c1.261,34.503,36.964,43.503,65.634,45.367c34.765,2.263,73.421-9.285,79.985-48.122
			c-1.205,0.917-2.412,1.836-3.619,2.755c12.863-0.323,24.92-8.946,19.642-23.167c-3.988-10.739-18.092-6.606-24.172-0.755
			c-3.494,3.362,1.82,8.664,5.307,5.307c2.087-2.407,4.755-3.68,8.001-3.819c10.876-0.92-0.938,14.731-8.778,14.927
			c-1.544,0.039-3.34,1.104-3.619,2.755c-5.672,33.554-37.108,43.443-67.286,42.842c-25.137-0.503-62.436-6.493-63.589-38.09
			C135.72,144.968,128.213,144.952,128.389,149.794L128.389,149.794z"/>
	</g>
	<g>
		<path d="M134.975,135.833c18.146-8.475,29.614-19.704,30.635-40.775c-2.136,0.884-4.271,1.769-6.407,2.653
			c25.442,26.055,69.933,31.05,102.134,15.602c-1.837-1.414-3.675-2.826-5.513-4.239c-2.099,10.382,0.032,19.331,10.441,23.383
			c4.516,1.759,6.456-5.501,1.994-7.238c-6.465-2.518-6.36-8.391-5.197-14.149c0.677-3.344-2.48-5.695-5.513-4.24
			c-29.179,14-70.074,9.089-93.039-14.426c-2.382-2.441-6.253-0.521-6.407,2.654c-0.885,18.277-11.521,27.103-26.916,34.292
			C126.803,131.398,130.618,137.868,134.975,135.833L134.975,135.833z"/>
	</g>
	<g>
		<path d="M144.14,61.574c-9.146-13.178-32.973-3.488-28.128,12.588c1.205-1.584,2.412-3.168,3.619-4.751
			c-17.195,0.59-26.547,23.798-13.914,35.808c0-1.77,0-3.539,0-5.308c-6.321,7.146-17.413,23.297-1.784,26.603
			c-0.875-1.538-1.75-3.078-2.622-4.617c-2.46,8.517-2.143,19.812,9.249,19.139c4.809-0.283,4.838-7.792,0-7.506
			c-5.503,0.325-2.854-6.716-2.011-9.636c0.542-1.877-0.638-4.198-2.622-4.617c-6.138-1.299,3.978-12.792,5.098-14.058
			c1.329-1.5,1.549-3.835,0-5.308c-7.707-7.328-2.316-22.619,8.606-22.994c2.38-0.082,4.345-2.343,3.619-4.751
			c-2.314-7.685,9.967-13.2,14.41-6.804C140.397,69.309,146.909,65.562,144.14,61.574L144.14,61.574z"/>
	</g>
	<g>
		<path d="M116.191,147.605c-12.027,0.546-20.771,12.21-15.125,23.475c0.748-1.837,1.495-3.675,2.243-5.512
			c-11.023,2.604-16.24,15.292-9.437,24.592c0.748-1.837,1.495-3.675,2.243-5.513c-8.264,1.286-11.456,9.43-10.889,17.068
			c0.689,9.312,8.472,12.381,16.578,12.824c-1.251-1.251-2.502-2.502-3.753-3.753c-0.98,16.68,13.234,24.083,27.896,20.509
			c4.702-1.146,2.708-8.384-1.994-7.238c-10.146,2.473-19.036-2.37-18.396-13.271c0.125-2.124-1.806-3.648-3.753-3.754
			c-10.938-3.87-12.169-8.919-3.695-15.147c2.273-0.352,3.583-3.683,2.243-5.513c-3.895-6.214-2.246-10.734,4.951-13.566
			c2.488-0.587,3.289-3.428,2.244-5.513c-1.984-6.791,0.899-10.85,8.645-12.181C121.01,154.892,121.034,147.385,116.191,147.605
			L116.191,147.605z"/>
	</g>
	<g>
		<path d="M280.771,151.224c5.141-0.806,2.13,8.789,1.392,10.126c-1.129,2.043-0.181,4.96,2.243,5.513
			c11.204,2.561,15.332,11.769,4.733,19.414c-2.05,1.479-2.8,5.181,0,6.48c3.908,6.436,3.387,10.322-1.563,11.661
			c-1.831,0.85-2.338,3.512-1.347,5.134c1.05,6.123-0.796,9.73-5.535,10.817c-4.445,1.884-0.613,8.347,3.787,6.48
			c9.851-4.176,14.075-11.526,8.228-21.085c-0.45,1.71-0.897,3.423-1.346,5.134c11.218-5.217,13.799-18.936,1.563-24.622
			c0,2.161,0,4.32,0,6.48c15.659-11.297,12.702-28.739-6.527-33.132c0.748,1.837,1.496,3.675,2.243,5.513
			c5.004-9.046,2.639-23.112-9.867-21.152C274.004,144.734,276.037,151.967,280.771,151.224L280.771,151.224z"/>
	</g>
	<g>
		<path d="M147.156,64.719c-0.112-2.137-0.105-4.274,0.015-6.411c-0.21-8.301,5.166-10.954,16.138-7.96
			c1.647,2.759,6.019,2.283,6.859-0.896c3.841-14.523,19.792-13.389,28.133-3.974c1.383,1.56,3.895,1.344,5.307,0
			c5.029-4.78,25.281-22.511,26.748-2.654c0.205,2.789,3.044,4.739,5.647,3.241c8.785-5.056,17.687-6.782,21.386,5.264
			c0.716,2.331,3.36,3.462,5.513,2.243c3.067-2.038,6.463-3.277,10.197-3.716c8.514,3.205,10.806,8.779,6.876,16.722
			c-0.875,2.032-0.379,5.021,2.243,5.512c7.746,1.453,12.379,10.502,3.795,15.035c-2.412,1.272-2.483,5.229,0,6.482
			c9.016,4.55,5.969,12.715-0.447,17.876c-1.825,1.467-1.269,4.895,0.76,5.895c-0.432,1.675-0.862,3.351-1.293,5.025
			c-4.73,1.026-2.724,8.263,1.995,7.237c9.065-1.967,11.934-14.38,3.086-18.746c0.254,1.966,0.506,3.931,0.76,5.895
			c11.023-8.861,12.633-22.75-1.072-29.666c0,2.161,0,4.321,0,6.482c6.492-3.428,10.812-9.273,10.929-16.691
			c0.13-8.109-10.587-10.952-16.518-12.063c0.748,1.837,1.495,3.675,2.243,5.512c3.077-7.144,4.75-17.148-2.15-23.001
			c-8.171-6.931-16.294-5.313-25.191-0.275c1.838,0.748,3.675,1.496,5.513,2.243c-5.183-16.875-18.393-17.814-32.412-9.75
			c1.881,1.082,3.766,2.161,5.647,3.242c-0.557-7.548-3.79-14.976-12.418-15.687c-12.303-1.014-18.727,5.03-27.143,13.032
			c1.769,0,3.538,0,5.307,0c-12.222-13.797-35.473-12.393-40.678,7.286c2.285-0.298,4.572-0.598,6.859-0.896
			c-3.705-6.201-12.404-10.188-19.431-6.583c-9.625,4.937-10.957,14.808-10.708,24.741
			C139.771,69.552,147.278,69.562,147.156,64.719L147.156,64.719z"/>
	</g>
	<g>
		<path d="M166.413,94.061c-0.789-3.236-0.896-6.533-0.312-9.889c-1.837,0.748-3.675,1.496-5.512,2.243
			c30.987,18.826,74.683,34.776,109.818,18.141c4.374-2.071,0.562-8.542-3.788-6.483c-32.372,15.326-73.949-0.949-102.243-18.141
			c-2.061-1.251-4.905-0.078-5.513,2.243c-1.282,4.896-0.642,8.955,0.313,13.881C160.095,100.806,167.33,98.79,166.413,94.061
			L166.413,94.061z"/>
	</g>
	<g>
		<path d="M159.667,81.296c-10.319-0.192-8.494,6.243-11.92,13.862c-4.389,9.757-7.912,22.143-16.382,29.149
			c-3.733,3.087,1.608,8.368,5.308,5.308c6.165-5.1,9.528-12.449,12.594-19.668c1.96-4.611,4.11-9.107,6.163-13.674
			c1.227-2.725,0.904-7.532,4.237-7.47C164.51,88.894,164.5,81.387,159.667,81.296L159.667,81.296z"/>
	</g>
	<path d="M177.534,191.484c-0.503-0.139-0.972-0.071-1.407,0.076c-0.225-0.157-0.477-0.296-0.782-0.389
		c-6.971-2.106-14.211-2.988-21.171-5.112c-0.357-1.776-1.442-3.438-3.543-4.589c-3.26-1.786-5.476-4.191-8.176-6.645
		c-1.479-1.344-3.084-1.947-4.647-2.045c-1.76-3.533-3.605-7.128-6.197-9.251c1.534-4.206-0.711-10.446-6.661-11.233
		c-11.006-1.454-20.829,6.099-21.137,15.348c-6.236,4.217-9.077,13.554-6.631,20.988c-3.578,3.213-5.476,7.562-4.492,13.515
		c0.716,4.333,4.105,6.558,8.108,7.382c0.782,8.296,6.515,16.108,15.335,17.694c7.187,1.29,12.204-3.221,16.206-8.528
		c2.571-3.409,3.856-8.198,5.64-12.046c0.046-0.098,0.105-0.182,0.161-0.269c0.51-0.245,1.021-0.489,1.549-0.689
		c0.997-0.374,1.718-1.193,1.809-2.202c4.467-3.225,10.087-4.655,15.551-6.028c5.171,0.635,13.743,2.341,18.126-0.897
		c0.225,0.154,0.459,0.298,0.719,0.369c1.207,0.333,2.277-0.291,2.837-1.308c0.225-0.322,0.408-0.657,0.555-1.065
		C179.734,193.273,178.781,191.827,177.534,191.484z"/>
	<path d="M294.046,167.107c-3.545-2.957-6.678-3.983-9.291-3.699c2.348-5.341,2.659-11.121-2.529-15.368
		c-1.789-1.466-3.944-1.967-6.065-0.783c-5.828,3.258-7.551,12.009-10.718,17.526c-5.444,9.483-12.179,14.618-20.076,21.506
		c-1.652-0.118-3.316-0.2-5.004-0.213c-6.456-0.044-6.451,9.965,0,10.009c15.995,0.112,31.375,5.17,37.398,21.347
		c0.866,2.321,3.467,4.579,6.155,3.497c6.706-2.7,7.756-9.308,5.347-15.739c1.595-0.66,2.8-2.116,2.708-4.414
		c-0.162-3.291-0.895-5.686-2.593-8.354C298.471,189.725,301.624,173.421,294.046,167.107z"/>
	<path d="M291.302,92.452c1.49-2.449,2.475-5.074,2.511-7.825c0.088-6.27-2.888-9.519-6.651-13.162
		c1.476-7.795,3.827-12.958-4.012-19.82c-5.215-4.564-11.272-4.784-17.188-3.267c-6.383-8.412-16.761-12.081-26.951-9.287
		c-2.05-6.536-3.799-12.62-13.535-13.022c-9.982-0.413-19.208,4.568-24.768,12.367c-5.33-4.308-11.285-7.458-18.661-5.308
		c-6.253,1.823-11.057,5.698-13.978,10.769c-6.879-2.406-14.38-1.285-20.988,4.811c-4.186,3.858-4.511,8.411-2.947,12.866
		c-7.237-5.051-15.849-6.62-22.795,0.729c-2.617,2.769-3.531,6.195-3.326,9.704c-3.768,1.447-7.052,4.089-9.07,7.997
		c-4.464,8.638-4.232,15.587-0.757,22.522c-5.445,4.357-8.851,9.645-7.609,16.757c-0.899,2.293-1.48,4.617-1.887,7.18
		c-0.005,0.016-0.01,0.03-0.015,0.047l0.007,0.001c-0.12,0.755-0.227,1.524-0.32,2.328c-1.178,10.167,14.415,11.378,17.203,2.329
		c0.552-1.792,5.18-3.287,6.759-4.418c0.796-0.569,1.486-1.186,2.104-1.84c3.027,2.622,7.578,3.133,11.404-0.512
		c8.02-7.63,16.838-22.412,18.789-36.308c0.428-0.082,0.843-0.196,1.292-0.225c3.878-0.244,6.392-2.513,7.595-5.329
		c14.004,9.252,29.349,16.023,45.978,20.561c13.163,3.591,26.762,4.944,40.343,5.758c4.239,0.407,8.484,0.677,12.721,0.715
		c-1.388,2.743-1.962,5.535-2.169,8.947c-0.509,8.321,9.588,10.65,14.949,6.193c1.122,0.229,2.244,0.458,3.365,0.688
		c4.968,1.754,11.746-2.956,11.086-8.445c-0.161-1.339-0.406-2.589-0.704-3.794c2.561-2.772,4.286-6.563,4.579-10.705
		C293.956,98.233,293.012,94.923,291.302,92.452z"/>
</g>
</svg>
