<?xml version="1.0" encoding="utf-8"?>
<!-- Generator: Adobe Illustrator 15.1.0, SVG Export Plug-In . SVG Version: 6.00 Build 0)  -->
<!DOCTYPE svg PUBLIC "-//W3C//DTD SVG 1.1//EN" "http://www.w3.org/Graphics/SVG/1.1/DTD/svg11.dtd">
<svg version="1.1" id="Layer_1" xmlns="http://www.w3.org/2000/svg" xmlns:xlink="http://www.w3.org/1999/xlink" x="0px" y="0px"
	 width="407.592px" height="338.589px" viewBox="0 0 407.592 338.589" enable-background="new 0 0 407.592 338.589"
	 xml:space="preserve">
<g>
	<g>
		<path d="M158.244,86.628c6.979,17.588,31.378,26.61,48.255,30.459c20.257,4.622,43.04,3.912,59.685-9.735
			c3.741-3.066-1.596-8.339-5.3-5.3c-13.727,11.252-32.54,11.382-49.217,8.473c-14.461-2.523-40.104-10.544-46.195-25.891
			C163.713,80.197,156.46,82.13,158.244,86.628L158.244,86.628z"/>
	</g>
	<g>
		<path d="M254.075,107.133c-2.933,9.929,4.476,22.412,15.692,20.989c4.729-0.601,4.788-8.105,0-7.497
			c-6.355,0.806-10.147-5.794-8.463-11.498C262.681,104.48,255.445,102.509,254.075,107.133L254.075,107.133z"/>
	</g>
	<g>
		<path d="M273.212,126.473c1.362-2.213,3.634-2.812,5.994-1.693c3.226,1.526,4.388,5.452,3.641,8.716
			c-0.625,2.744-2.855,4.431-5.347,5.35c-1.289,0.475-2.614,0.84-3.949,1.168c-0.729,0.179-1.454,0.298-2.204,0.359
			c-1.062,0.088-0.917-0.248-0.51,0.196c-3.278-3.566-8.566,1.749-5.301,5.301c3.551,3.865,10.499,1.481,14.625-0.042
			c5.666-2.089,10.078-7.027,10.4-13.262c0.33-6.315-3.124-12.714-9.21-14.988c-5.676-2.12-11.472,0.002-14.612,5.113
			C264.201,126.821,270.687,130.583,273.212,126.473L273.212,126.473z"/>
	</g>
	<g>
		<path d="M136.191,124.98c-2.514-5.333-7.541-7.421-13.186-6.539c-5.94,0.927-10.081,6.578-11.177,12.103
			c-2.44,12.312,12.507,28.054,23.984,18.136c3.666-3.165-1.662-8.445-5.3-5.3c-2.463,2.128-5.686,0.08-7.746-1.663
			c-2.762-2.338-3.812-5.485-3.705-9.027c0.176-5.702,7.726-10.141,10.655-3.925C131.776,133.135,138.238,129.327,136.191,124.98
			L136.191,124.98z"/>
	</g>
	<g>
		<path d="M135.263,131.359c17.021-7.803,31.141-18.995,33.508-38.847c0.571-4.794-6.93-4.739-7.497,0
			c-2.031,17.029-15.608,25.869-29.796,32.372C127.088,126.898,130.903,133.357,135.263,131.359L135.263,131.359z"/>
	</g>
	<g>
		<path d="M130.249,148.026c2.05,37.479,38.967,50.092,71.248,49.678c34.78-0.447,66.177-25.999,71.47-60.256
			c0.729-4.729-6.494-6.76-7.228-1.994c-4.444,28.762-25.514,46.583-52.982,53.26c-29.519,7.175-73.071-5.212-75.011-40.687
			C137.481,143.219,129.982,143.193,130.249,148.026L130.249,148.026z"/>
	</g>
	<g>
		<path d="M159.562,85.583c10.557,10.843,32.764,15.407,46.776,18.69c10.176,2.386,20.592,3.255,31.02,3.209
			c8.953-0.041,19.495,0.317,27.992-2.819c4.495-1.658,2.553-8.906-1.991-7.229c-14.506,5.352-35.978,3.091-50.745,0.488
			c-8.573-1.512-16.916-4.084-25.092-7.028c-7.401-2.666-17.079-4.883-22.66-10.613C161.485,76.815,156.189,82.12,159.562,85.583
			L159.562,85.583z"/>
	</g>
	<g>
		<path d="M146.433,61.229c-14.301-13.455-28.718-1.197-34.844,13.406c-8.497,20.258-5.735,44.453-3.95,65.587
			c1.007,11.957,1.328,24.523-4.869,35.221c-4.437,7.655-14.781,12.446-8.453,22.768c9.517,15.53,29.342,25.384,46.842,16.868
			c4.346-2.113,0.544-8.578-3.785-6.472c-8.58,4.175-18.849,1.613-26.563-3.116c-4.575-2.804-13.953-11.724-8.539-18.256
			c1.64-1.977,3.705-3.521,5.228-5.615c7.433-10.208,8.399-22.325,8.053-34.599c-0.366-13-2.904-25.833-2.333-38.87
			c0.474-10.764,7.448-60.877,27.913-41.622C144.648,69.838,149.961,64.547,146.433,61.229L146.433,61.229z"/>
	</g>
	<g>
		<path d="M148.334,62.57c-6.306-18.425,46.986-25.317,56.584-26.132c20.394-1.732,47.41,2.075,63.448,16.002
			c5.729,4.978,3.672,12.554,8.331,17.213c1.64,1.639,14.515,1.46,9.161,7.033c-2.03,2.113-3.509,4.557-2.25,7.514
			c3.309,7.775,5.095,13.438,3.299,22.321c-0.917,4.537-4.505,8.807-6.176,13.211c-1.721,4.528,5.53,6.467,7.228,1.994
			c3.556-9.367,12.756-23.245,6.494-33.812c-2.899-4.896-3.69-4.435-1.108-8.813c1.792-3.042,0.344-7.012-0.701-9.972
			c-1.052-2.984-2.618-4.625-5.261-5.965c-1.774-0.899-5.345,0.791-5.669-0.563c-2.748-11.51-9.679-18.248-20.126-23.412
			c-24.098-11.917-51.856-12.485-77.7-7.233c-13.551,2.755-49.853,11.947-42.784,32.608C142.66,69.109,149.903,67.156,148.334,62.57
			L148.334,62.57z"/>
	</g>
	<g>
		<path d="M279.169,142.222c-4.043,17.218,10.33,33.507,26.67,37.097c-0.917-1.206-1.835-2.409-2.752-3.615
			c0.617,14.281-11.433,26.104-24.735,29.184c-4.71,1.091-2.713,8.316,1.991,7.228c16.448-3.807,30.997-18.939,30.241-36.412
			c-0.068-1.608-1.084-3.248-2.752-3.614c-12.055-2.65-24.57-14.525-21.434-27.875C287.503,139.513,280.275,137.517,279.169,142.222
			L279.169,142.222z"/>
	</g>
	<g>
		<path d="M180.686,190.312c-7.302,1.486-14.625,0.374-21.873,2.282c-5.991,1.576-11.228,5.515-15.806,9.51
			c-9.736,8.492-17.058,21.287-20.748,33.515c-0.664,2.201,1.196,4.942,3.617,4.745c8.209-0.671,16.003-1.438,24.198,0.075
			c4.725,0.874,6.743-6.353,1.994-7.228c-8.839-1.633-17.27-1.074-26.192-0.344c1.203,1.581,2.409,3.163,3.612,4.744
			c3.509-11.625,10.378-21.587,18.819-30.206c9.864-10.072,22.049-7.353,34.372-9.864
			C187.416,196.577,185.405,189.351,180.686,190.312L180.686,190.312z"/>
	</g>
	<g>
		<path d="M153.6,199.385c-5.603,34.15-11.206,68.303-16.807,102.455c-0.776,4.727,6.447,6.755,7.228,1.991
			c5.603-34.149,11.206-68.302,16.807-102.454C161.604,196.65,154.381,194.622,153.6,199.385L153.6,199.385z"/>
	</g>
	<g>
		<path d="M253.231,193.926c2.428,36.302,4.856,72.607,7.282,108.91c0.322,4.797,7.819,4.829,7.497,0
			c-2.425-36.302-4.854-72.607-7.282-108.91C260.408,189.129,252.909,189.097,253.231,193.926L253.231,193.926z"/>
	</g>
	<g>
		<path d="M135.839,237.806c-0.104-0.523-0.207-1.042-0.312-1.562c-0.744-3.731-6.306-3.438-7.228,0
			c-6.04,22.49-12.077,44.98-18.117,67.471c-1.257,4.675,5.977,6.656,7.228,1.99c6.04-22.49,12.078-44.98,18.117-67.47
			c-2.409,0-4.82,0-7.228,0c0.105,0.523,0.208,1.042,0.312,1.562C129.558,244.536,136.784,242.525,135.839,237.806L135.839,237.806z
			"/>
	</g>
	<g>
		<path d="M231.971,192.711c12.819,2.611,23.573,0.444,34.375,9.864c8.731,7.619,15.5,19.217,18.817,30.207
			c1.204-1.582,2.409-3.163,3.614-4.744c-8.921-0.729-17.355-1.289-26.194,0.344c-4.749,0.876-2.73,8.102,1.996,7.228
			c8.195-1.513,15.987-0.747,24.198-0.076c2.421,0.198,4.278-2.545,3.615-4.744c-3.874-12.841-11.414-23.988-20.746-33.515
			c-11.304-11.54-23.393-8.883-37.679-11.792C229.248,184.521,227.237,191.747,231.971,192.711L231.971,192.711z"/>
	</g>
	<g>
		<path d="M286.039,234.968c0.107-0.52,0.21-1.04,0.312-1.562c-2.453-0.332-4.908-0.665-7.36-0.996
			c1.923,23.476,3.846,46.949,5.769,70.426c0.39,4.783,7.892,4.822,7.497,0c-1.923-23.477-3.846-46.95-5.769-70.426
			c-0.327-3.968-6.484-5.397-7.365-0.995c-0.103,0.52-0.208,1.04-0.313,1.562C277.869,237.696,285.092,239.707,286.039,234.968
			L286.039,234.968z"/>
	</g>
	<g>
		<path d="M173.354,197.882c0.334,14.025,16.169,22.876,28.791,24.118c18.434,1.813,32.839-11.47,36.253-29.162
			c0.913-4.722-6.313-6.735-7.229-1.991c-2.115,10.962-8.648,19.801-19.444,23.512c-9.679,3.327-30.587-4.329-30.875-16.477
			C180.734,193.055,173.237,193.045,173.354,197.882L173.354,197.882z"/>
	</g>
	<g>
		<path d="M235.712,206.193c-0.688,1.016-1.168,1.604-2.12,2.575c-1.43,1.459-1.455,3.846,0,5.3c1.432,1.433,3.87,1.46,5.3,0
			c1.23-1.254,2.309-2.64,3.294-4.092c1.147-1.693,0.327-4.148-1.345-5.126C238.989,203.764,236.857,204.505,235.712,206.193
			L235.712,206.193z"/>
	</g>
	<g>
		<path d="M167.656,211.372c0.344,1.353,1.013,2.499,1.835,3.602c1.222,1.635,3.216,2.464,5.129,1.345
			c1.613-0.944,2.569-3.487,1.344-5.127c-0.234-0.312-0.461-0.628-0.681-0.947c-0.144-0.214-0.271-0.437-0.388-0.667
			c0.129,0.306,0.127,0.239-0.012-0.197c-0.503-1.981-2.672-3.153-4.61-2.619C168.276,207.312,167.151,209.394,167.656,211.372
			L167.656,211.372z"/>
	</g>
	<g>
		<path d="M115.045,308.875c57.889,0,115.784,0,173.673,0c4.834,0,4.834-7.496,0-7.496c-57.889,0-115.784,0-173.673,0
			C110.211,301.379,110.211,308.875,115.045,308.875L115.045,308.875z"/>
	</g>
	<path d="M156.277,181.015c-11.069-0.727-15.457-10.979-18.361-20.199c-2.138-6.801-5.383-10.476-10.391-14.449
		c-3.707-8.365-18.209-3.599-16.228,6.674c0.092,0.485,0.224,0.959,0.329,1.442c-0.003,0.205-0.029,0.39-0.017,0.605
		c0.317,5.38,0.107,9.876-1.459,15.101c-1.689,5.632-6.447,8.37-9.737,12.831c-5.695,7.73-2.601,15.986,3.688,22.209
		c7.099,7.025,16.514,9.944,26.182,8.536c4.317-0.63,8.165-4.12,11.25-6.889c5.3-4.753,9.973-7.541,17.07-8.683
		C168.869,196.542,165.55,181.622,156.277,181.015z"/>
	<path d="M310.525,166.468c-14.959,2.828-18.712-16.165-18.961-27.847c0.847-7.495,1.857-14.991,2.489-22.538
		c0.559-3.327,1.093-6.66,1.513-10.004c3.697-8.659,5.701-17.979,3.863-27.134c-2.794-13.917-9.186-24.769-23.878-24.94
		c-0.659-0.156-1.284-0.133-1.862,0.043c-0.701,0.099-1.296,0.346-1.764,0.719c-4.659-6.893-9.249-13.737-18.181-17.208
		c-13.38-5.202-29.32-5.664-43.543-6.208c-19.281-0.735-62.604,4.405-65.893,30.051c-6.533-3.746-14.232-4.506-20.831,0.532
		c-17.387,13.278-9.803,37.7-17.178,55.219c-3.394,8.065,9.173,14.972,14.618,8.51c3.448-4.092,4.291-1.98,8.212-0.425
		c3.507,1.389,6.472,1.233,10.103,0.388c7.025-1.637,13.488-8.097,18.104-13.268c4.856-5.436,9.359-14.044,9.874-22.137
		c6.701,2.995,13.654,5.145,19.049,6.748c14.435,4.292,29.875,6.055,44.802,7.714c9.063,1.008,19.237,2.804,28.928,2.449
		c-2.6,3.08-3.131,7.468,0.993,10.723c0.271,0.214,0.542,0.429,0.815,0.642c3.046,2.407,6.599,3.168,9.84,1.673
		c2.172,1.125,4.759,1.347,7.197,0.156c-2.191,3.833,3.99,7.248,6.669,3.441c0.009-0.018,0.021-0.034,0.034-0.052
		c-0.688,4.732-1.235,9.464-1.381,14.217c-0.376,3.323-0.723,6.647-0.979,9.977c-3.419-6.198-14.205-7.267-16.011,1.417
		c-2.365,11.362-9.957,22.949-21.692,26.065c-10.891,2.892-6.264,19.764,4.652,16.868c1.798-0.479,3.541-1.111,5.239-1.83
		c0.273,0.212,0.515,0.441,0.827,0.637c4.268,2.663,13.732,4.207,15.347,9.454c2.07,6.716,9.547,8.006,14.618,3.858l10.308-8.434
		c1.308-1.069,2.099-2.274,2.499-3.521c1.015-0.173,1.886-0.534,2.67-0.995c-4.554,8.097-11.452,14.725-20.157,16.584
		c-4.729,1.007-2.724,8.236,1.991,7.228c19.254-4.112,31.29-26.766,31.802-45.158C315.342,167.488,312.833,166.031,310.525,166.468z
		 M283.762,68.509c-2.235-1.66-4.142-3.557-5.864-5.583c4.129,1.532,7.409,2.894,9.893,8.933c2.401,5.829,3.048,11.727,1.986,17.376
		c-1.325-2.972-3.602-7.656-2.879-8.76C289.729,76.171,287.425,71.228,283.762,68.509z M297.152,175.08
		c-2.601-0.043-5.168-2.169-7.392-4.905c0.583-0.597,0.935-1.454,0.833-2.591c-0.12-1.33-0.146-2.652-0.21-3.978
		c4.205,5.544,10.4,9.688,17.07,10.305c-0.359,2.862-1.018,5.803-1.965,8.712C304.971,178.733,302.208,175.163,297.152,175.08z"/>
</g>
</svg>
