<?xml version="1.0" encoding="utf-8"?>
<!-- Generator: Adobe Illustrator 15.1.0, SVG Export Plug-In . SVG Version: 6.00 Build 0)  -->
<!DOCTYPE svg PUBLIC "-//W3C//DTD SVG 1.1//EN" "http://www.w3.org/Graphics/SVG/1.1/DTD/svg11.dtd">
<svg version="1.1" id="Layer_1" xmlns="http://www.w3.org/2000/svg" xmlns:xlink="http://www.w3.org/1999/xlink" x="0px" y="0px"
	 width="407.592px" height="338.589px" viewBox="0 0 407.592 338.589" enable-background="new 0 0 407.592 338.589"
	 xml:space="preserve">
<g>
	<g>
		<g>
			<path d="M78.977,76.188c-0.631-2.023-2.465-2.725-4.442-2.326c-2.025,0.411-3.184,2.181-3.368,4.121
				c-0.343,3.599,3.195,7.865,6.686,5.1c0.821-0.652-0.337-1.795-1.151-1.151c-2.186,1.731-3.792-1.597-3.913-3.395
				c-0.076-1.12,0.338-2.142,1.295-2.755c1.152-0.738,2.876-0.599,3.323,0.839C77.718,77.62,79.29,77.192,78.977,76.188
				L78.977,76.188z"/>
		</g>
		<g>
			<path d="M119.5,68.535c-0.706,4.345,2.835,10.238,7.816,8.324c0.97-0.372,0.549-1.946-0.432-1.569
				c-3.699,1.42-6.344-3.068-5.814-6.323C121.236,67.941,119.668,67.5,119.5,68.535L119.5,68.535z"/>
		</g>
		<g>
			<path d="M125.768,77.807c1.686-2.323,5.202,0.542,4.136,2.873c-0.868,1.897-4.185,4.144-5.992,2.245
				c-0.725-0.761-1.874,0.391-1.15,1.151c2.9,3.046,8.05-0.264,8.943-3.633c0.505-1.91-0.93-3.792-2.516-4.651
				c-1.777-0.963-3.684-0.378-4.825,1.195C123.745,77.837,125.158,78.647,125.768,77.807L125.768,77.807z"/>
		</g>
		<g>
			<path d="M77.083,79.316c-0.793,5.627,0.072,11.791,3.031,16.703c3.16,5.245,10.453,8.271,16.247,8.992
				c7.203,0.897,14.086,0.004,19.58-5.049c5.439-5.004,8.514-13.229,8.525-20.497c0.002-1.05-1.626-1.05-1.627,0
				c-0.009,6.869-2.826,13.177-7.159,18.412c-4.207,5.084-10.738,6.117-16.945,5.761c-6.233-0.358-11.771-2.848-16.229-7.185
				c-3.951-3.845-4.576-11.581-3.853-16.705C78.799,78.723,77.23,78.282,77.083,79.316L77.083,79.316z"/>
		</g>
		<g>
			<path d="M78.409,77.295c4.541-0.466,8.133-5.695,7.025-10.116c-0.256-1.018-1.824-0.586-1.57,0.432
				c0.832,3.318-1.976,7.7-5.455,8.057C77.376,75.774,77.365,77.402,78.409,77.295L78.409,77.295z"/>
		</g>
		<g>
			<path d="M84.932,69.061c3.632-0.576,7.217-0.897,10.115-3.414c2.549-2.215,4.265-4.963,5.374-8.14
				c0.346-0.994-1.228-1.417-1.571-0.433c-1.084,3.106-2.835,5.802-5.469,7.813c-2.573,1.965-5.815,2.118-8.882,2.604
				C83.465,67.656,83.905,69.223,84.932,69.061L84.932,69.061z"/>
		</g>
		<g>
			<path d="M98.075,54.442c0.768,6.339,8.465,10.339,13.704,12.527c5.445,2.273,12.982,3.729,17.118-1.577
				c0.637-0.817-0.505-1.979-1.15-1.151c-3.401,4.363-9.009,3.341-13.651,1.855c-5.013-1.605-13.675-5.746-14.392-11.655
				C99.578,53.414,97.949,53.402,98.075,54.442L98.075,54.442z"/>
		</g>
		<g>
			<path d="M88.853,81.5c2.78,0,5.562,0,8.341,0c1.048,0,1.048-1.628,0-1.628c-2.78,0-5.562,0-8.341,0
				C87.804,79.872,87.804,81.5,88.853,81.5L88.853,81.5z"/>
		</g>
		<g>
			<path d="M104.98,81.47c2.705,0.405,5.414,0.686,8.15,0.708c1.051,0.008,1.049-1.62,0-1.628c-2.591-0.02-5.156-0.265-7.718-0.648
				C104.386,79.748,103.946,81.315,104.98,81.47L104.98,81.47z"/>
		</g>
		<g>
			<path d="M92.108,80.347c0-1.547-0.142-3.928,0.969-5.153c0.827-0.911,0.98,1.206,0.989,1.576c0.02,0.936-0.092,1.923-0.37,2.819
				c0.532,0.072,1.066,0.144,1.599,0.215c0.041-1.66,0.564-3.514-0.382-5.022c-0.235-0.375-0.721-0.521-1.112-0.292
				c-1.772,1.034-1.852,3.666-1.596,5.462c0.087,0.604,0.985,0.783,1.36,0.359c0.976-1.099,0.951-2.816,0.684-4.182
				c-0.147-0.757-1.119-0.713-1.488-0.194c-0.818,1.148-0.911,2.707-0.925,4.073c-0.011,1.05,1.617,1.049,1.628,0
				c0.011-1.098,0.044-2.326,0.703-3.251c-0.496-0.065-0.992-0.129-1.488-0.194c0.143,0.726,0.269,1.999-0.264,2.599
				c0.454,0.12,0.906,0.239,1.361,0.359c-0.146-1.024-0.18-3.025,0.845-3.625c-0.37-0.097-0.742-0.194-1.112-0.292
				c0.733,1.168,0.19,2.904,0.159,4.2c-0.023,0.942,1.333,1.078,1.599,0.216c0.546-1.77,1.138-7.378-2.241-6.583
				c-2.629,0.619-2.543,4.832-2.545,6.909C90.48,81.396,92.108,81.396,92.108,80.347L92.108,80.347z"/>
		</g>
		<g>
			<path d="M107.908,80.008c-0.025-1.318-0.293-2.644,0.086-3.933c0.109-0.375,0.477-1.052,0.89-1.202
				c-0.266,0.096-0.098,0.087,0.028,0.483c0.414,1.316,0.475,3.266-0.025,4.57c0.533,0.073,1.066,0.144,1.599,0.216
				c0.028-1.149,1.06-6.089-1.189-5.891c-1.162,0.103-1.484,1.591-1.668,2.514c-0.213,1.067-0.507,2.606-0.099,3.662
				c0.247,0.636,1.098,0.842,1.488,0.195c0.763-1.27,1.168-3.566,0.145-4.784c-0.264-0.315-0.888-0.325-1.15,0
				c-1.095,1.358-1.211,3.236-1.053,4.916c0.097,1.035,1.726,1.045,1.628,0c-0.11-1.165-0.207-2.795,0.575-3.765
				c-0.383,0-0.768,0-1.15,0c0.472,0.562-0.072,2.266-0.399,2.812c0.496,0.065,0.992,0.129,1.488,0.195
				c-0.229-0.592-0.077-1.399-0.018-2.011c0.039-0.425,0.121-0.845,0.216-1.261c0.048-0.215,0.116-0.423,0.188-0.631
				c0.021-0.05,0.043-0.1,0.065-0.15c0.224-0.289,0.019-0.385-0.612-0.29c0.369,0.487,0.114,1.806,0.081,2.366
				c-0.042,0.708-0.145,1.416-0.162,2.125c-0.023,0.976,1.286,1.03,1.599,0.216c0.694-1.81,0.65-5.08-0.596-6.64
				c-0.836-1.047-2.099-0.147-2.716,0.597c-1.353,1.633-0.901,3.756-0.865,5.692C106.3,81.056,107.927,81.058,107.908,80.008
				L107.908,80.008z"/>
		</g>
		<g>
			<path d="M107.097,72.233c1.129-0.541,2.622-0.412,3.783-0.054c1.006,0.31,1.432-1.261,0.432-1.569
				c-1.607-0.496-3.501-0.519-5.035,0.218C105.33,71.283,106.157,72.685,107.097,72.233L107.097,72.233z"/>
		</g>
		<g>
			<path d="M91.782,71.501c1.138-0.451,2.475-0.716,3.646-0.218c0.954,0.407,1.783-0.995,0.82-1.405
				c-1.591-0.679-3.303-0.58-4.898,0.054C90.387,70.315,90.807,71.89,91.782,71.501L91.782,71.501z"/>
		</g>
		<g>
			<path d="M101.22,86.116c0.247-0.561,1.542-1.823,1.879-0.731c0.219,0.712,0.33,2.297-0.628,2.451
				c-1.035,0.165-0.594,1.733,0.433,1.569c2.201-0.35,2.233-3.409,1.552-5.005c-0.933-2.185-3.968-0.639-4.641,0.894
				C99.397,86.245,100.799,87.075,101.22,86.116L101.22,86.116z"/>
		</g>
		<g>
			<path d="M92.083,90.659c3.403,6.335,14.573,5.667,19.491,1.919c0.823-0.626,0.014-2.042-0.82-1.405
				c-4.144,3.157-14.274,4.235-17.266-1.335C92.992,88.912,91.586,89.734,92.083,90.659L92.083,90.659z"/>
		</g>
		<g>
			<path d="M72.714,59.528c-4.774,0.342-9.18,6.283-6.399,10.718c0.163-0.399,0.325-0.797,0.486-1.195
				c-5.815,0.836-8.025,9.581-2.907,12.745c-0.055-0.426-0.109-0.852-0.165-1.278c-1.918,2.25-3.198,4.084-3.032,7.142
				c0.129,2.378,2.206,3.468,4.287,3.334c-0.137-0.505-0.273-1.01-0.41-1.516c-4.765,3.567-6.761,14.524,2.119,11.659
				c-0.307-0.398-0.612-0.796-0.918-1.195c-1.204,1.636-2.006,4.272-0.297,5.954c1.573,1.55,3.292,1.524,4.693-0.22
				c-0.453-0.264-0.906-0.528-1.361-0.792c-0.925,5.695,7.091,6.54,9.762,2.525c0.583-0.876-0.826-1.69-1.405-0.821
				c-1.4,2.104-7.462,2.886-6.787-1.272c0.115-0.704-0.792-1.5-1.36-0.792c-2.962-0.799-3.576-2.053-1.84-3.761
				c0.429-0.582-0.276-1.403-0.919-1.195c-6.955,2.244-4.022-6.321-0.866-8.685c0.583-0.436,0.483-1.574-0.41-1.516
				c-2.806-1.223-3.459-3.001-1.96-5.337c0.569-0.826,1.187-1.613,1.856-2.361c0.344-0.402,0.307-0.986-0.165-1.277
				c-4.061-2.512-1.771-9.153,2.519-9.771c0.52-0.075,0.741-0.789,0.486-1.195c-2.098-3.346,1.418-8.012,4.994-8.269
				C73.755,61.081,73.762,59.453,72.714,59.528L72.714,59.528z"/>
		</g>
		<g>
			<path d="M71.938,60.091c-0.613-4.127,0.922-14.471,7.96-11.084c0.359,0.173,0.928,0.138,1.112-0.292
				c2.259-5.267,9.7-6,12.938-1.221c0.585,0.863,1.997,0.05,1.405-0.821c-3.833-5.659-12.964-5.267-15.748,1.221
				c0.371-0.097,0.742-0.195,1.113-0.292c-2.907-1.399-5.504-0.506-7.852,1.559c-3.096,2.725-3.043,7.689-2.499,11.363
				C70.522,61.559,72.091,61.117,71.938,60.091L71.938,60.091z"/>
		</g>
		<g>
			<path d="M94.209,46.541c3.355-2.821,7.653-3.821,11.056-0.61c0.257,0.244,0.674,0.328,0.985,0.127
				c2.648-1.704,6.322-2.831,8.551,0.42c0.589,0.86,2,0.047,1.405-0.821c-1.163-1.698-2.39-2.526-4.447-2.849
				c-1.188-0.185-5.655,1.678-6.108,1.25c-3.66-3.455-9.214-1.511-12.593,1.332C92.254,46.066,93.412,47.211,94.209,46.541
				L94.209,46.541z"/>
		</g>
		<g>
			<path d="M114.083,47.787c2.667-1.549,10.218-2.748,10.271,1.942c0.005,0.443,0.367,0.813,0.814,0.813
				c1.462-0.001,2.854-0.137,3.977,1.327c0.825,1.077,0.298,3.346-0.725,4.074c-0.518,0.368-0.564,1.341,0.194,1.487
				c1.172,0.225,3.967,2.857,0.419,2.979c-1.045,0.036-1.05,1.665,0,1.628c4.487-0.155,3.969-5.417,0.013-6.176
				c0.065,0.495,0.13,0.991,0.194,1.487c1.835-1.304,2.168-3.512,1.624-5.607c-0.666-2.567-3.554-2.827-5.696-2.826
				c0.272,0.271,0.542,0.543,0.813,0.814c-0.068-6.21-8.912-5.559-12.718-3.348C112.355,46.909,113.174,48.315,114.083,47.787
				L114.083,47.787z"/>
		</g>
		<g>
			<path d="M130.444,61.906c3.821,1.201,5.544,4.223,3.888,7.96c-0.172,0.388-0.133,0.893,0.292,1.113
				c1.93,1,2.25,3.178,0.305,4.494c-0.394,0.266-0.601,0.929-0.165,1.278c1.621,0.97,1.47,2.517-0.455,4.642
				c-1.025,0.227-0.59,1.796,0.432,1.569c3.851-0.855,3.985-5.105,1.173-7.362c-0.054,0.426-0.11,0.852-0.166,1.278
				c3.191-2.158,3.506-5.332-0.306-7.305c0.099,0.371,0.196,0.742,0.293,1.113c2.099-4.737,0.044-8.808-4.86-10.35
				C129.872,60.021,129.446,61.592,130.444,61.906L130.444,61.906z"/>
		</g>
		<g>
			<path d="M135.428,83.471c2.333,0.57,1.273,5.452-1.195,4.941c-1.023-0.212-1.46,1.356-0.432,1.569
				c4.54,0.939,6.448-7.009,2.06-8.079C134.842,81.653,134.41,83.223,135.428,83.471L135.428,83.471z"/>
		</g>
		<g>
			<path d="M134.656,90.023c0.781,2.468,0.479,4.808-2.572,4.972c-0.445,0.023-0.812,0.352-0.813,0.813
				c-0.006,1.346,0.314,2.716,0.016,4.047c-0.465,2.075-4.958,2.294-4.796-0.181c0.068-1.048-1.56-1.042-1.628,0
				c-0.188,2.861,2.624,3.653,4.984,3.245c3.737-0.647,3.04-4.382,3.052-7.11c-0.272,0.271-0.542,0.543-0.814,0.813
				c4.101-0.219,5.283-3.416,4.142-7.031C135.912,88.593,134.339,89.02,134.656,90.023L134.656,90.023z"/>
		</g>
		<g>
			<path d="M126.083,102.42c-0.001,1.028-0.613,1.575-1.626,1.521c-1.138-0.061-1.685-1.117-1.629-2.13
				c0.058-1.049-1.57-1.044-1.627,0c-0.105,1.906,1.176,3.53,3.101,3.741c1.954,0.214,3.406-1.208,3.41-3.131
				C127.712,101.37,126.084,101.37,126.083,102.42L126.083,102.42z"/>
		</g>
		<g>
			<path d="M121.797,103.06c-0.415,0.168-0.697,0.192-1.103-0.02c-0.927-0.488-1.75,0.916-0.82,1.405
				c0.764,0.402,1.54,0.516,2.355,0.184C123.188,104.238,122.771,102.663,121.797,103.06L121.797,103.06z"/>
		</g>
		<g>
			<path d="M91.796,103.458c-3.013,11.142,22.259,11.626,20.994-1.072c-0.103-1.034-1.731-1.044-1.627,0
				c1.079,10.83-19.969,9.536-17.796,1.504C93.64,102.876,92.072,102.446,91.796,103.458L91.796,103.458z"/>
		</g>
		<g>
			<path d="M112.045,103.437c3.061-0.108,5.407-0.143,8.175,1.622c2.227,1.419,4.235,3.377,6.184,5.152
				c3.671,3.342,7.097,6.954,10.636,10.433c5.674,5.575,12.521,12.457,20.665,13.89c1.026,0.181,1.466-1.387,0.432-1.569
				c-9.938-1.75-17.949-11.445-24.751-18.253c-3.535-3.536-7.13-7.002-11.051-10.112c-3.444-2.731-6.027-2.942-10.29-2.791
				C111,101.847,110.995,103.474,112.045,103.437L112.045,103.437z"/>
		</g>
		<g>
			<path d="M123.854,129.075c0.885,1.202,2.203,1.852,3.481,2.585c3.072,1.766,6.043,3.716,9.101,5.509
				c5.854,3.433,11.982,6.333,18.625,7.843c1.022,0.233,1.456-1.336,0.432-1.568c-6.054-1.376-11.586-3.946-16.984-6.961
				c-2.501-1.397-4.938-2.91-7.379-4.407c-1.64-1.005-4.702-2.236-5.869-3.822C124.645,127.418,123.231,128.229,123.854,129.075
				L123.854,129.075z"/>
		</g>
		<g>
			<path d="M123.033,122.188c0.717,9.505,0.863,19.032,1.158,28.556c0.279,8.963,0.075,18.292,1.146,27.187
				c0.124,1.029,1.753,1.041,1.628,0c-1.071-8.901-0.847-18.218-1.146-27.187c-0.319-9.523-0.442-19.049-1.159-28.556
				C124.582,121.149,122.953,121.141,123.033,122.188L123.033,122.188z"/>
		</g>
		<g>
			<path d="M84.136,121.565c-2.895,8.409-4.886,17.059-6.729,25.749c-0.924,4.347-1.812,8.7-2.764,13.041
				c-0.842,3.847-0.653,7.848-1.115,11.744c-0.124,1.041,1.506,1.029,1.628,0c0.505-4.271,0.445-8.522,1.37-12.747
				c0.954-4.347,1.834-8.71,2.759-13.064c1.74-8.202,3.689-16.356,6.421-24.291C86.048,121.002,84.476,120.579,84.136,121.565
				L84.136,121.565z"/>
		</g>
		<g>
			<path d="M73.774,172.509c1.895,3.098,5.242,4.264,8.582,5.228c5.183,1.497,10.444,2.405,15.801,2.977
				c6.214,0.664,12.458,0.764,18.701,0.645c3.535-0.068,7.413-0.104,10.005-2.852c0.72-0.763-0.429-1.916-1.151-1.151
				c-2.835,3.005-7.967,2.374-11.73,2.42c-4.801,0.06-9.587-0.141-14.371-0.55c-4.794-0.411-9.543-1.145-14.203-2.35
				c-3.624-0.938-8.13-1.754-10.229-5.188C74.632,170.795,73.224,171.611,73.774,172.509L73.774,172.509z"/>
		</g>
		<g>
			<path d="M84.375,120.943c-1.494,0.98-2.532,3.171-3.439,4.625c-2.572,4.115-4.717,8.497-6.659,12.938
				c-5.9,13.484-9.182,28.09-9.293,42.816c0.271-0.271,0.542-0.543,0.813-0.814c-4.685-0.026-10.897-0.35-11.121-6.375
				c-0.04-1.045-1.667-1.049-1.627,0c0.263,7.037,6.978,7.971,12.749,8.002c0.447,0.002,0.811-0.372,0.814-0.813
				c0.104-13.895,3.134-27.462,8.358-40.306c1.82-4.479,3.978-8.833,6.402-13.015c0.931-1.606,2.225-4.603,3.824-5.652
				C86.07,121.775,85.254,120.365,84.375,120.943L84.375,120.943z"/>
		</g>
		<g>
			<path d="M77.293,107.236c-4.53,3.81-7.434,9.44-10.271,14.537c-3.122,5.609-5.722,11.5-8.023,17.486
				c-2.513,6.533-4.296,13.22-5.313,20.146c-0.772,5.261-1.733,11.779-0.202,16.979c0.297,1.004,1.868,0.577,1.571-0.433
				c-1.695-5.749-0.283-13.359,0.67-19.126c0.975-5.888,2.764-11.554,4.843-17.133c2.193-5.885,4.872-11.579,7.859-17.098
				c2.697-4.979,5.638-10.524,10.017-14.208C79.248,107.71,78.091,106.565,77.293,107.236L77.293,107.236z"/>
		</g>
		<g>
			<path d="M78.007,108.107c3.755-2.223,8.879-5.191,13.343-3.58c0.99,0.357,1.411-1.216,0.432-1.569
				c-4.896-1.768-10.474,1.303-14.596,3.744C76.284,107.236,77.103,108.643,78.007,108.107L78.007,108.107z"/>
		</g>
		<g>
			<path d="M65.011,181.402c0.321,1.691,1.544,3.367,1.085,5.128c-0.41,1.577-2.059-0.743-2.295-1.356
				c-0.375-0.968-1.949-0.548-1.57,0.432c0.629,1.624,2.42,3.838,4.373,2.867c1.036-0.515,1.274-2.056,1.227-3.065
				c-0.075-1.55-0.963-2.932-1.249-4.438C66.386,179.939,64.817,180.377,65.011,181.402L65.011,181.402z"/>
		</g>
		<g>
			<path d="M64.944,188.59c0.423,1.232,2.721,6.012-0.438,6.29c-2.124,0.186-4.065-2.234-5.182-3.695
				c-2.625-3.438-4.41-8.17-3.457-12.495c0.226-1.022-1.344-1.458-1.57-0.432c-1.233,5.593,1.618,13.608,6.537,16.848
				c1.447,0.952,3.848,2.156,5.479,0.891c2.627-2.038,1.078-5.277,0.202-7.837C66.176,187.171,64.604,187.594,64.944,188.59
				L64.944,188.59z"/>
		</g>
		<g>
			<path d="M73.624,172.493c-2.093,10.888-5.211,21.521-7.607,32.339c-2.325,10.498-3.127,21.098-2.341,31.825
				c0.076,1.04,1.704,1.047,1.627,0c-0.809-11.037,0.156-21.789,2.547-32.581c2.308-10.424,5.326-20.659,7.344-31.152
				C75.391,171.9,73.822,171.463,73.624,172.493L73.624,172.493z"/>
		</g>
		<g>
			<path d="M64.076,237.36c8.285,4.707,17.939,5.602,27.234,6.816c10.108,1.32,19.646,1.084,29.394-2.123
				c0.992-0.326,0.567-1.898-0.432-1.569c-8.685,2.856-17.281,3.393-26.324,2.396c-9.739-1.073-20.398-2.011-29.052-6.927
				C63.982,235.436,63.164,236.841,64.076,237.36L64.076,237.36z"/>
		</g>
		<g>
			<path d="M121.273,241.18c0.901-2.586,1.904-5.112,3.376-7.435c-0.505-0.136-1.011-0.274-1.516-0.411
				c-0.01,1.594-0.091,3.187-0.103,4.781c-0.003,0.482,0.375,0.764,0.814,0.814c1.499,0.17,3.103-0.343,4.136-1.459
				c0.712-0.769-0.437-1.923-1.15-1.151c-0.77,0.832-1.885,1.107-2.985,0.982c0.272,0.271,0.542,0.543,0.814,0.814
				c0.011-1.594,0.092-3.187,0.102-4.781c0.005-0.833-1.092-1.081-1.516-0.411c-1.545,2.438-2.594,5.108-3.542,7.824
				C119.356,241.741,120.93,242.165,121.273,241.18L121.273,241.18z"/>
		</g>
		<g>
			<path d="M124.01,179.368c0.769,2.723,0.666,5.898,0.866,8.698c0.376,5.251,0.663,10.51,0.923,15.768
				c0.545,10.995,0.399,21.829,0.353,32.825c-0.005,1.05,1.623,1.049,1.627,0c0.046-10.996,0.181-21.83-0.353-32.825
				c-0.267-5.505-0.582-11.01-0.976-16.507c-0.194-2.709-0.127-5.754-0.871-8.391C125.296,177.927,123.724,178.356,124.01,179.368
				L124.01,179.368z"/>
		</g>
		<g>
			<path d="M118.149,243.1c-0.811,8.808-3.098,17.331-5.147,25.907c-1.034,4.332-1.931,8.688-2.571,13.096
				c-0.175,1.213-0.275,2.401-0.326,3.622c-0.018,0.68-0.053,1.357-0.104,2.035c-0.083,1.29-2.452,7.117-4.539,4.097
				c-1.233-1.785-0.726-5.11-0.661-7.167c0.127-4.089-0.024-8.197-0.062-12.287c-0.086-9.181,0.817-18.414,0.492-27.573
				c-0.037-1.047-1.666-1.05-1.628,0c0.194,5.457-0.328,10.932-0.459,16.389c-0.156,6.389-0.006,12.783,0.042,19.171
				c0.023,3.181-1.737,12.875,2.964,13.752c1.976,0.369,4.239-1.537,4.833-3.306c1.48-4.392,1.135-9.576,2-14.145
				c2.13-11.249,5.743-22.143,6.794-33.591C119.872,242.055,118.244,242.063,118.149,243.1L118.149,243.1z"/>
		</g>
		<g>
			<path d="M103.123,290.895c-0.871,5.673-0.208,6.535,5.192,7.527c5.032,0.923,10.426,1.845,15.57,1.458
				c1.136-0.084,4.791-1.27,2.977-3.139c-1.089-1.122-2.692-1.348-4.123-1.837c-3.638-1.242-8.661-2.379-11.136-5.487
				c-0.652-0.821-1.797,0.339-1.15,1.15c1.706,2.143,4.163,3.055,6.666,3.974c1.897,0.696,3.77,1.448,5.685,2.102
				c1.693,0.579,3.128,1.457,0.354,1.665c-2.499,0.188-5.119-0.184-7.599-0.438c-2.755-0.283-5.49-0.773-8.211-1.273
				c-3.314-0.609-3.153-2.037-2.656-5.269C104.85,290.301,103.281,289.861,103.123,290.895L103.123,290.895z"/>
		</g>
		<g>
			<path d="M75.596,241.287c1.052,6.225,2.062,12.457,3.048,18.691c0.806,5.091,1.584,10.187,2.317,15.289
				c0.694,4.827,0.718,9.917,1.691,14.669c0.447,2.181,3.374,5.292,5.837,4.028c2.652-1.36,2.355-5.426,2.314-7.924
				c-0.229-14.003-0.666-28.24,0.048-42.228c0.054-1.05-1.573-1.044-1.627,0c-0.62,12.16-0.008,24.4-0.099,36.577
				c-0.025,3.433,0.461,7.167-0.294,10.542c-0.741,3.312-4.083,0.14-4.611-1.426c-0.386-1.151-0.342-2.57-0.388-3.78
				c-0.08-2.023-0.363-4.02-0.629-6.026c-1.718-12.987-3.856-25.927-6.038-38.843C76.991,239.822,75.423,240.261,75.596,241.287
				L75.596,241.287z"/>
		</g>
		<g>
			<path d="M89.245,291.328c0.275,1.784,1.044,4.441-1.262,5.001c-2.293,0.556-4.679,0.858-7.011,1.21
				c-3.099,0.466-6.297,0.787-9.439,0.794c-1.63,0.003-3.876-0.622-1.103-1.481c1.72-0.534,3.407-1.158,5.093-1.794
				c2.876-1.082,5.984-2.002,7.963-4.489c0.647-0.812-0.498-1.972-1.151-1.15c-2.278,2.861-6.52,3.828-9.838,5.028
				c-1.415,0.511-3.96,0.792-5.049,1.913c-1.984,2.045,0.698,3.379,2.607,3.522c4.696,0.354,9.548-0.461,14.164-1.214
				c2-0.326,4.796-0.323,6.396-1.731c1.344-1.187,0.43-4.549,0.202-6.04C90.657,289.861,89.088,290.301,89.245,291.328
				L89.245,291.328z"/>
		</g>
		<g>
			<path d="M159.244,123.883c-0.634,4.991-2.104,9.821-3.418,14.664c-1.328,4.883-2.195,9.878-3.139,14.847
				c-0.961,5.064-1.739,10.166-2.806,15.209c-0.518,2.453-2.233,7.872-0.494,10.195c1.537,2.053,4.457,2.422,6.793,2.968
				c5.071,1.183,10.338,1.797,15.509,2.403c5.118,0.599,10.358,0.896,15.495,0.397c4.962-0.48,9.778-2.145,14.593-3.343
				c1.019-0.252,0.586-1.822-0.433-1.569c-3.81,0.948-7.574,2.056-11.419,2.849c-4.955,1.021-10.119,0.728-15.126,0.343
				c-4.568-0.35-9.08-1.131-13.608-1.786c-2.055-0.296-4.083-0.749-6.103-1.22c-0.858-0.167-1.691-0.415-2.5-0.74
				c-2.503-0.899-2.116-2.496-2.036-4.528c0.166-4.283,1.556-8.703,2.283-12.924c0.809-4.687,1.707-9.359,2.621-14.026
				c1.557-7.961,4.395-15.684,5.418-23.74C161.003,122.844,159.374,122.856,159.244,123.883L159.244,123.883z"/>
		</g>
		<g>
			<path d="M199.617,121.41c0.377,19.428,0.751,38.856,1.128,58.284c0.021,1.048,1.648,1.05,1.628,0
				c-0.377-19.428-0.752-38.855-1.128-58.284C201.224,120.362,199.596,120.36,199.617,121.41L199.617,121.41z"/>
		</g>
		<g>
			<path d="M124.741,108.189c14.444-5.196,31.982-5.544,46.901-2.442c1.023,0.213,1.459-1.355,0.433-1.569
				c-15.236-3.169-33.004-2.869-47.766,2.442C123.328,106.972,123.751,108.545,124.741,108.189L124.741,108.189z"/>
		</g>
		<g>
			<path d="M192.203,106.184c9.974-0.024,19.998-0.442,29.756,2.005c1.019,0.255,1.45-1.314,0.433-1.569
				c-9.9-2.483-20.066-2.089-30.189-2.064C191.154,104.559,191.154,106.186,192.203,106.184L192.203,106.184z"/>
		</g>
		<g>
			<path d="M171.552,105.268c0.202,4.752,3.088,10.722,8.515,11.083c5.946,0.398,11.779-4.614,11.728-10.676
				c-0.009-1.049-1.637-1.05-1.627,0c0.042,4.89-4.412,8.828-9.141,9.113c-4.995,0.302-7.671-5.381-7.846-9.521
				C173.135,104.222,171.507,104.218,171.552,105.268L171.552,105.268z"/>
		</g>
		<g>
			<path d="M168.326,111.079c0.308,0.911,0.853,1.637,1.697,2.114c0.914,0.517,1.734-0.889,0.82-1.405
				c-0.469-0.267-0.774-0.628-0.948-1.141C169.562,109.658,167.989,110.082,168.326,111.079L168.326,111.079z"/>
		</g>
		<g>
			<path d="M191.702,110.96c-0.23,0.533-0.517,1.029-0.814,1.526c-0.54,0.902,0.868,1.721,1.405,0.821
				c0.297-0.498,0.585-0.994,0.813-1.525C193.519,110.829,192.117,109.999,191.702,110.96L191.702,110.96z"/>
		</g>
		<g>
			<path d="M190.968,105.951c0.238,0.096,0.467,0.126,0.725,0.131c1.051,0.022,1.048-1.605,0-1.628
				c-0.105,0.013-0.202-0.011-0.292-0.072C190.427,103.988,190.008,105.563,190.968,105.951L190.968,105.951z"/>
		</g>
		<g>
			<path d="M200.949,122.357c7.335-0.638,14.693-1.293,22.048-1.627c1.046-0.048,1.049-1.675,0-1.628
				c-7.355,0.335-14.713,0.99-22.048,1.628C199.911,120.82,199.903,122.448,200.949,122.357L200.949,122.357z"/>
		</g>
		<g>
			<path d="M137.577,120.12c4.307-0.023,8.449,0.116,12.667,1.104c3.442,0.806,6.771,2.098,10.161,3.092
				c1.009,0.296,1.437-1.274,0.433-1.569c-7.976-2.34-14.867-4.3-23.261-4.255C136.528,118.498,136.528,120.125,137.577,120.12
				L137.577,120.12z"/>
		</g>
		<g>
			<path d="M200.747,128.292c8.553-0.446,17.102-3.23,23.882-8.573c7.858-6.194,12.313-17.163,24.049-15.547
				c1.025,0.141,1.469-1.427,0.433-1.569c-8.254-1.137-13.78,3.027-18.766,9.164c-7.355,9.052-17.961,14.291-29.598,14.898
				C199.703,126.719,199.698,128.346,200.747,128.292L200.747,128.292z"/>
		</g>
		<g>
			<path d="M200.475,139.82c6.987,0.036,13.984-1.187,20.627-3.325c4.476-1.439,9.123-3.333,11.812-7.387
				c0.582-0.877-0.828-1.691-1.405-0.821c-2.804,4.227-8.073,5.776-12.669,7.221c-5.876,1.846-12.224,2.715-18.366,2.684
				C199.426,138.187,199.426,139.814,200.475,139.82L200.475,139.82z"/>
		</g>
		<g>
			<path d="M238.02,110.384c-8.621,18.794-10.875,40.429-11.791,60.833c-0.047,1.05,1.581,1.045,1.628,0
				c0.901-20.081,3.079-41.502,11.567-60.011C239.858,110.259,238.457,109.432,238.02,110.384L238.02,110.384z"/>
		</g>
		<g>
			<path d="M273.986,112.151c2.017,20.124,4.388,40.295,5.56,60.49c0.061,1.043,1.688,1.049,1.627,0
				c-1.171-20.195-3.542-40.366-5.56-60.49C275.51,111.117,273.881,111.107,273.986,112.151L273.986,112.151z"/>
		</g>
		<g>
			<path d="M226.379,171.905c6.91,5.47,17.473,5.939,25.927,6.513c10.142,0.688,19.3-0.552,28.464-5.07
				c0.943-0.464,0.118-1.867-0.82-1.405c-8.491,4.185-16.808,5.318-26.191,4.927c-8.171-0.34-19.518-0.804-26.229-6.116
				C226.716,170.11,225.556,171.253,226.379,171.905L226.379,171.905z"/>
		</g>
		<g>
			<path d="M248.854,103.17c-1.045,4.994,2.238,8.627,7.133,9.168c4.731,0.522,10.411-4.267,8.188-9.147
				c-0.434-0.954-1.836-0.126-1.405,0.821c1.845,4.054-3.585,6.812-6.784,6.699c-3.851-0.136-6.333-3.434-5.563-7.108
				C250.64,102.579,249.071,102.143,248.854,103.17L248.854,103.17z"/>
		</g>
		<g>
			<path d="M275.852,123.787c3.636,4.266,8.721,6.4,13.732,8.619c5.603,2.481,10.836,5.296,17.154,4.701
				c1.037-0.098,1.046-1.726,0-1.628c-5.99,0.565-11.042-2.047-16.333-4.478c-4.883-2.244-9.816-4.157-13.403-8.365
				C276.321,121.836,275.175,122.993,275.852,123.787L275.852,123.787z"/>
		</g>
		<g>
			<path d="M264.185,104.171c5.177-1.507,10.239-1.096,14.068,3.021c2.553,2.749,4.836,5.858,7.885,8.103
				c3.655,2.693,7.999,4.588,12.092,6.523c3.128,1.478,6.459,3.007,9.934,3.285c1.047,0.083,1.039-1.543,0-1.627
				c-4.959-0.397-9.834-3.347-14.184-5.57c-4.759-2.432-8.509-5.04-12.078-9.046c-2.318-2.605-4.239-4.986-7.5-6.362
				c-3.309-1.396-7.319-0.866-10.649,0.104C262.746,102.894,263.175,104.465,264.185,104.171L264.185,104.171z"/>
		</g>
		<g>
			<path d="M309.31,121.124c-3.333,16.566-8.343,33.812-8.058,50.838c0.087,5.193,1.521,9.079,6.675,10.768
				c3.061,1.003,6.559,1.164,9.735,1.523c5.078,0.576,10.181,0.867,15.29,0.905c5.962,0.044,12.779,0.518,18.437-1.641
				c4.774-1.821,4.36-7.449,4.217-11.68c-0.305-8.989-0.884-17.941-1.42-26.922c-0.567-9.488-2.266-18.871-2.894-28.355
				c-0.068-1.042-1.698-1.048-1.628,0c0.496,7.483,1.582,14.906,2.376,22.361c0.822,7.723,1.165,15.536,1.641,23.288
				c0.197,3.209,0.197,6.417,0.297,9.628c0.102,3.22,0.73,7.784-2.401,9.792c-4.487,2.879-11.963,1.793-17.086,1.893
				c-7.761,0.15-15.643-0.523-23.303-1.741c-2.72-0.433-5.438-1.146-7.081-3.545c-2.095-3.059-1.305-8.493-1.076-11.99
				c0.985-15.069,4.881-29.937,7.85-44.69C311.086,120.532,309.517,120.096,309.31,121.124L309.31,121.124z"/>
		</g>
		<g>
			<path d="M338.956,129.567c-0.245-0.624-0.775-1.134-1.498-0.882c-0.682,0.239-1.093,0.945-1.344,1.582
				c-0.571,1.444-0.065,3.388,1.829,3.206c1.518-0.146,1.706-1.855,1.254-3.017c-0.202-0.519-0.557-1.129-1.154-1.242
				c-0.803-0.151-1.264,0.481-1.472,1.168c-0.304,1.006,1.267,1.434,1.57,0.432c0.041-0.14,0.022-0.104,0.084-0.213
				c-0.125,0.22-0.522,0.296-0.712,0.121c0.05,0.045,0.134,0.215,0.185,0.36c0.073,0.214,0.102,0.402,0.103,0.618
				c0,0.159-0.102,0.197,0.022,0.154c-0.421,0.144-0.361-0.391-0.305-0.648c0.059-0.276,0.171-0.522,0.314-0.764
				c0.059-0.1,0.127-0.174,0.211-0.256c-0.175,0.169-0.601-0.036-0.659-0.185C337.763,130.965,339.338,130.545,338.956,129.567
				L338.956,129.567z"/>
		</g>
		<g>
			<path d="M338.263,131.305c0.131,0.285,0.031-0.056,0-0.16c-0.121-0.383-0.582-0.743-1.001-0.568
				c-0.293,0.122-0.447,0.252-0.607,0.524c-0.534,0.906,0.873,1.725,1.405,0.822c0.027-0.045,0.053-0.089,0.08-0.134
				c-0.163,0.125-0.325,0.25-0.486,0.374c0.013-0.006,0.027-0.012,0.041-0.018c-0.334-0.189-0.667-0.379-1.001-0.568
				c-0.006-0.023,0.105,0.417,0.166,0.548C337.296,133.079,338.699,132.251,338.263,131.305L338.263,131.305z"/>
		</g>
		<g>
			<path d="M337.258,151.663c-0.618-0.451-1.378-0.308-1.791,0.329c-0.35,0.54-0.316,1.338-0.256,1.948
				c0.118,1.221,0.604,3.398,2.255,3.113c0.776-0.134,1.356-1.248,1.512-1.924c0.23-1.008-0.081-2.371-0.718-3.176
				c-0.739-0.935-2.102-0.724-2.575,0.357c-0.422,0.965-0.286,2.38,0.652,2.995c0.448,0.295,1.054-0.002,1.195-0.486
				c0.143-0.489,0.291-0.919,0.232-1.437c-0.098-0.866-1.343-1.164-1.599-0.216c-0.073,0.271-0.131,0.543-0.204,0.814
				c-0.273,1.015,1.297,1.445,1.57,0.433c0.073-0.271,0.13-0.543,0.204-0.814c-0.534-0.073-1.067-0.144-1.599-0.216
				c0.043,0.374-0.071,0.651-0.175,1.004c0.399-0.162,0.798-0.324,1.195-0.486c0.106,0.069-0.052-0.239-0.065-0.393
				c-0.018-0.215,0.143-0.561-0.018-0.545c-0.142,0.014,0.053,0.203,0.105,0.337c0.118,0.296,0.185,0.621,0.216,0.937
				c0.049,0.492-0.095,0.826-0.372,1.232c-0.032,0.045-0.106,0.052,0.01,0.016c0.192-0.061,0.443,0.172,0.271-0.012
				c0.089,0.095-0.102-0.182-0.131-0.242c-0.056-0.11-0.108-0.279-0.159-0.449c-0.103-0.345-0.166-0.696-0.194-1.052
				c-0.026-0.332-0.008-0.685,0.038-0.87c0.022-0.086,0.008-0.019-0.138,0.092c-0.178,0.134-0.534-0.067-0.282,0.116
				C337.288,153.686,338.099,152.272,337.258,151.663L337.258,151.663z"/>
		</g>
		<g>
			<path d="M336.428,173.145c-1.828,0.664-1.982,3.491-0.412,4.501c1.769,1.137,2.979-1.58,2.761-2.941
				c-0.121-0.761-0.845-1.89-1.751-1.794c-1.116,0.117-1.577,1.116-1.569,2.149c0.006,0.885,0.631,2.037,1.665,1.742
				c0.995-0.285,1.023-1.664,0.531-2.368c-0.307-0.438-0.87-0.54-1.278-0.164c-0.484,0.446-0.618,1.058-0.645,1.694
				c-0.045,1.05,1.583,1.046,1.627,0c0.01-0.211,0.003-0.391,0.168-0.543c-0.426-0.055-0.852-0.109-1.278-0.165
				c0.242,0.346,0.896,0.324,0.838-0.196c-0.013-0.125-0.003-0.25,0.026-0.371c0.043-0.218-0.337-0.313-0.025,0.019
				c0.248,0.266,0.083,0.882-0.045,1.159c-0.178,0.39-0.19,0.417-0.41,0.187c-0.195-0.205-0.055-1.236,0.229-1.34
				C337.84,174.359,337.417,172.786,336.428,173.145L336.428,173.145z"/>
		</g>
		<g>
			<path d="M332.577,119.747c-0.066,21.283-2.781,42.46-2.713,63.745c0.003,1.049,1.63,1.05,1.627,0
				c-0.068-21.284,2.646-42.462,2.713-63.745C334.208,118.697,332.581,118.698,332.577,119.747L332.577,119.747z"/>
		</g>
		<g>
			<path d="M334.135,119.543c-0.189-2.335-1.716-4.347-2.959-6.244c-0.572-0.874-1.982-0.058-1.405,0.822
				c1.049,1.601,2.577,3.446,2.737,5.421C332.591,120.582,334.22,120.59,334.135,119.543L334.135,119.543z"/>
		</g>
		<g>
			<path d="M334.446,119.895c0.51-1.92,1.664-3.548,2.562-5.298c0.479-0.932-0.926-1.755-1.405-0.822
				c-0.963,1.877-2.179,3.625-2.728,5.688C332.605,120.479,334.176,120.908,334.446,119.895L334.446,119.895z"/>
		</g>
		<g>
			<path d="M337.498,113.86c0.545-2.901,1.354-5.501,1.385-8.49c0.011-1.05-1.617-1.049-1.627,0
				c-0.029,2.828-0.811,5.316-1.328,8.058C335.735,114.453,337.304,114.891,337.498,113.86L337.498,113.86z"/>
		</g>
		<g>
			<path d="M337.064,114.495c2.352-0.4,4.476-1.136,6.904-1.258c0.743-0.038,1.818-0.051,2.063-0.943
				c0.315-1.145-1.03-2.68-1.572-3.524c-1.102-1.719-2.397-3.312-3.646-4.923c-0.643-0.829-1.785,0.332-1.151,1.151
				c0.899,1.16,1.797,2.319,2.655,3.512c0.384,0.537,1.746,3.111,2.08,3.076c-1.102,0.116-2.208,0.103-3.306,0.274
				c-1.525,0.239-2.948,0.811-4.46,1.068C335.599,113.102,336.037,114.67,337.064,114.495L337.064,114.495z"/>
		</g>
		<g>
			<path d="M329.456,106.32c-0.03,2.785,0.24,5.557,0.272,8.341c0.542,0,1.085,0,1.627,0c-0.204-1.91-2.677-2.201-4.199-2.38
				c-2.655-0.312-5.34-0.297-8.007-0.197c0.263,0.343,0.523,0.687,0.785,1.03c1.059-2.981,2.91-5.608,3.525-8.748
				c0.2-1.025-1.369-1.462-1.57-0.432c-0.612,3.125-2.469,5.774-3.525,8.748c-0.175,0.491,0.281,1.049,0.785,1.03
				c1.564-0.059,3.129-0.074,4.695-0.037c0.688,0.016,5.78,0.016,5.884,0.986c0.108,1.02,1.64,1.071,1.627,0
				c-0.032-2.784-0.302-5.556-0.271-8.341C331.094,105.27,329.466,105.271,329.456,106.32L329.456,106.32z"/>
		</g>
		<g>
			<path d="M286.272,113.546c5.44-1.613,10.864-3.292,16.328-4.826c2.975-0.835,5.974-1.581,8.988-2.269
				c2.926-0.667,7.615-2.295,10.271-0.583c0.883,0.571,1.699-0.838,0.82-1.405c-4.023-2.596-10.324,0.116-14.535,1.122
				c-7.521,1.797-14.894,4.193-22.304,6.392C284.835,112.275,285.263,113.846,286.272,113.546L286.272,113.546z"/>
		</g>
		<g>
			<path d="M343.371,107.782c12.658-3.03,14.833,13.961,16.27,22.75c1.316,8.047,2.837,16.035,3.654,24.156
				c0.44,4.373,0.594,8.765,0.48,13.159c-0.062,2.401-0.12,4.708-1.316,6.843c-1.435,2.561-4.528,4.773-7.133,2.124
				c-0.738-0.75-1.887,0.402-1.151,1.151c5.102,5.189,10.635-2.183,11.072-7.272c1.09-12.702-1.402-25.62-3.608-38.072
				c-1.794-10.129-3.769-29.98-18.701-26.406C341.918,106.458,342.351,108.027,343.371,107.782L343.371,107.782z"/>
		</g>
		<g>
			<path d="M356.782,176.26c0.795,0.456,1.577,0.535,2.457,0.285c1.008-0.285,0.579-1.855-0.432-1.569
				c-0.466,0.132-0.775,0.124-1.205-0.122C356.691,174.331,355.871,175.738,356.782,176.26L356.782,176.26z"/>
		</g>
		<g>
			<path d="M354.344,184.305c0.019,1.29,1.333,1.706,2.401,1.348c1.426-0.478,1.995-1.96,1.504-3.327
				c-0.353-0.98-1.926-0.558-1.57,0.432c0.17,0.473,0.233,0.939-0.23,1.247c-0.145,0.095-0.309,0.15-0.477,0.159
				c-0.318,0.017-0.003-0.102,0,0.141C355.956,183.257,354.328,183.255,354.344,184.305L354.344,184.305z"/>
		</g>
		<g>
			<path d="M354.331,192.007c7.591,2.905,10.068-9.502,8.19-14.428c-0.37-0.971-1.944-0.55-1.57,0.432
				c1.431,3.749,0.081,14.825-6.187,12.427C353.781,190.062,353.361,191.635,354.331,192.007L354.331,192.007z"/>
		</g>
		<g>
			<path d="M162.667,72.143c-3.176-3.503-8.743-0.76-8.506,3.845c0.161,3.137,4.413,7.815,7.006,4.058
				c0.598-0.866-0.813-1.679-1.405-0.822c-1.489,2.157-3.797-1.869-3.973-3.236c-0.169-1.3,0.711-2.675,1.729-3.396
				c1.394-0.987,2.936-0.473,3.999,0.701C162.222,74.073,163.37,72.918,162.667,72.143L162.667,72.143z"/>
		</g>
		<g>
			<path d="M159.272,80.538c-2.023,5.791-0.202,13.976,3.769,18.669c4.127,4.878,10.714,7.719,17.021,8.334
				c6.55,0.64,12.815-0.804,18.042-4.882c6.396-4.989,9.399-12.556,9.355-20.38c-0.007-1.049-1.634-1.05-1.628,0
				c0.019,3.453-0.046,6.501-1.616,9.667c-1.44,2.905-3.433,5.548-5.571,7.965c-4.047,4.575-10.366,6.226-16.253,6.178
				c-5.887-0.049-12.256-2.425-16.643-6.323c-4.712-4.188-6.96-12.92-4.906-18.797C161.189,79.977,159.617,79.553,159.272,80.538
				L159.272,80.538z"/>
		</g>
		<g>
			<path d="M207.243,85.403c4.013,0.804,8.571-2.275,7.476-6.729c-0.88-3.589-5.97-5.207-7.658-1.384
				c-0.419,0.951,0.982,1.78,1.405,0.822c1.221-2.765,4.194-1.001,4.752,1.272c0.759,3.092-3.042,4.95-5.544,4.45
				C206.65,83.63,206.214,85.197,207.243,85.403L207.243,85.403z"/>
		</g>
		<g>
			<path d="M161.799,73.4c4.873-1.071,8.812-3.63,12.561-6.838c4.455-3.813,6.901-8.266,9.795-13.269
				c-0.505-0.137-1.01-0.274-1.516-0.411c-0.319,6.667,7.474,9.474,12.413,5.687c-0.397-0.306-0.796-0.613-1.195-0.918
				c-2.56,8.024,5.829,14.212,13.208,11.274c-0.264-0.453-0.528-0.907-0.792-1.359c-2.287,2.347-4.779,6.028-2.692,9.248
				c1.804,2.785,4.463,1.784,6.326-0.271c0.702-0.776-0.445-1.93-1.151-1.151c-4.215,4.648-4.458-1.833-3.615-3.668
				c0.526-1.147,1.412-2.114,2.283-3.007c0.528-0.542,0.003-1.676-0.792-1.359c-6.181,2.46-13.429-2.307-11.205-9.273
				c0.202-0.633-0.617-1.363-1.195-0.918c-3.894,2.983-10.234,1.335-9.965-4.282c0.04-0.824-1.122-1.092-1.517-0.411
				c-5.003,8.65-10.938,17.064-21.383,19.36C160.342,72.057,160.777,73.625,161.799,73.4L161.799,73.4z"/>
		</g>
		<g>
			<path d="M158.936,84.323c-3.095,2.104-6.96-0.323-9.237-2.547c-1.509-1.473-2.14-3.964-2.341-5.982
				c-0.294-2.955,2.333-3.299,4.057-4.104c0.414-0.192,0.488-0.75,0.293-1.113c-0.634-1.088-1.162-2.227-1.583-3.417
				c-2.185-6.032,2.983-5.847,5.547-5.153c0.603,0.164,1.159-0.4,1.002-1.001c-1.366-5.164-1.151-9.088,2.333-13.348
				c3.576-4.372,9.158-4.242,12.455,0.04c0.631,0.819,2.045,0.01,1.405-0.822c-3.623-4.704-7.852-5.426-13.082-2.097
				c-5.876,3.739-6.253,10.709-4.681,16.66c0.333-0.333,0.667-0.667,1.001-1c-2.542-0.688-4.825-0.666-6.61,1.47
				c-2.422,2.898-0.694,6.695,0.809,9.49c0.097-0.371,0.194-0.742,0.292-1.113c-2.487,1.162-3.974,1.329-4.768,4.191
				c-0.681,2.453,0.738,5.629,2.047,7.635c2.283,3.496,8.155,6.152,11.882,3.617C160.618,85.142,159.805,83.731,158.936,84.323
				L158.936,84.323z"/>
		</g>
		<g>
			<path d="M170.506,44.63c-0.502-3.257,2.592-5.896,5.275-6.872c3.541-1.288,5.504,2.938,6.48,5.372
				c0.219,0.545,0.893,0.835,1.36,0.359c2.991-3.046,7.019-3.706,10.75-1.638c3.405,1.887,5.042,6.614,2.619,9.807
				c-0.636,0.837,0.779,1.646,1.405,0.821c2.775-3.657,1.21-8.864-2.396-11.453c-4.378-3.147-9.802-2.485-13.53,1.312
				c0.453,0.12,0.906,0.239,1.361,0.359c-1.526-3.8-3.888-7.399-8.482-6.508c-3.802,0.737-6.992,5.121-6.414,8.873
				C169.096,46.097,170.664,45.656,170.506,44.63L170.506,44.63z"/>
		</g>
		<g>
			<path d="M199.02,50.634c4.313-3.012,8.929-0.116,7.451,5.083c-0.132,0.468,0.253,1.087,0.785,1.03
				c1.03-0.112,2.037-0.181,3.074-0.193c4.275-0.053,8.029,6.229,2.609,7.75c-0.721,0.202-0.832,1.442,0,1.568
				c3.704,0.564,7.297,4.703,1.526,6.976c-0.873,0.344-0.712,1.496,0.216,1.598c1.734,1.718,1.526,3.118-0.623,4.2
				c-0.996,0.318-0.571,1.889,0.432,1.569c3.517-1.125,4.577-6.912,0.19-7.396c0.072,0.532,0.145,1.065,0.216,1.598
				c6.292-2.478,4.625-9.176-1.526-10.113c0,0.523,0,1.046,0,1.568c3.463-0.971,5.228-3.666,3.824-7.104
				c-1.596-3.911-6.446-4.026-9.94-3.649c0.262,0.343,0.523,0.687,0.785,1.03c1.864-6.566-4.293-10.796-9.841-6.92
				C197.344,49.826,198.158,51.237,199.02,50.634L199.02,50.634z"/>
		</g>
		<g>
			<path d="M184.679,84.934c-1.968-1.225-4.538,0.773-4.446,2.901c0.099,2.311,2.646,3.517,4.581,2.505
				c0.932-0.487,0.108-1.892-0.82-1.406c-0.889,0.464-1.815-0.028-2.1-0.957c-0.302-0.983,1.054-2.206,1.964-1.64
				C184.752,86.895,185.568,85.487,184.679,84.934L184.679,84.934z"/>
		</g>
		<g>
			<path d="M173.243,90.871c1.067,3.476,5.511,4.645,8.707,5.111c4.263,0.624,9.673-1.651,11.308-5.857
				c0.38-0.979-1.193-1.399-1.57-0.432c-1.423,3.66-6.376,5.149-9.875,4.637c-2.376-0.347-6.205-1.295-6.999-3.891
				C174.506,89.438,172.935,89.865,173.243,90.871L173.243,90.871z"/>
		</g>
		<g>
			<path d="M172.4,81.364c1.99,0.123,3.986,0.092,5.968,0.339c1.04,0.129,1.027-1.5,0-1.627c-1.982-0.247-3.978-0.217-5.968-0.339
				C171.352,79.672,171.358,81.299,172.4,81.364L172.4,81.364z"/>
		</g>
		<g>
			<path d="M188.337,81.432c2.193,0,4.385,0,6.578,0c1.049,0,1.049-1.628,0-1.628c-2.193,0-4.385,0-6.578,0
				C187.288,79.804,187.288,81.432,188.337,81.432L188.337,81.432z"/>
		</g>
		<g>
			<path d="M174.543,79.724c-0.456-1.284-0.849-5.984,1.627-5.507c1.381,0.267,0.215,4.343-0.132,5.108
				c0.496,0.209,0.992,0.418,1.488,0.627c0.292-1.683,0.528-4.062-0.218-5.654c-1.036-2.21-2.848,0.537-3.206,1.673
				c-0.301,0.962-0.621,2.143-0.411,3.154c0.189,0.915,1.112,1.651,2.046,1.142c1.591-0.866,1.571-4.286,0.824-5.689
				c-0.19-0.36-0.766-0.549-1.112-0.292c-1.498,1.116-2.594,4.072-1.704,5.807c0.458,0.892,1.721,0.985,2.302,0.202
				c0.534-0.72,0.65-1.881,0.462-2.742c-0.225-1.024-1.794-0.59-1.57,0.433c0.063,0.288,0.001,0.635-0.049,0.919
				c-0.13,0.717-0.167,0.02,0.248,0.345c-0.13-0.102-0.075-0.5-0.072-0.631c0.021-0.835,0.497-2.4,1.203-2.927
				c-0.371-0.097-0.742-0.195-1.112-0.292c0.421,0.792,0.268,2.496-0.082,3.283c-0.098,0.222,0.199,0.268,0.189-0.185
				c-0.008-0.329,0.057-0.656,0.12-0.976c0.104-0.541,0.264-1.073,0.444-1.591c0.083-0.239,0.258-0.486,0.412-0.686
				c0.369-0.477-0.054,0.312-0.393-0.243c0.22,0.358,0.197,0.969,0.223,1.37c0.066,1.028,0.063,2.128-0.115,3.147
				c-0.146,0.84,1.081,1.527,1.488,0.627c0.902-1.998,1.991-6.541-0.841-7.499c-1.562-0.529-3.082,0.794-3.594,2.152
				c-0.624,1.653-0.626,3.69-0.036,5.356C173.321,81.138,174.894,80.715,174.543,79.724L174.543,79.724z"/>
		</g>
		<g>
			<path d="M191.074,79.936c-0.459-0.853-0.712-5.042,0.721-5.15c1.301-0.098,0.66,4.352,0.611,5.086c0.542,0,1.085,0,1.627,0
				c0.032-1.101,0.75-5.289-1.413-5.206c-1.567,0.061-1.865,2.275-2.076,3.473c-0.189,1.073-0.367,3.133,1.326,2.814
				c1.715-0.323,1.579-3.493,1.321-4.688c-0.18-0.828-1.337-0.725-1.571,0c-0.322,1.007-0.364,2.018-0.232,3.064
				c0.129,1.027,1.758,1.04,1.628,0c-0.114-0.911-0.11-1.748,0.175-2.632c-0.523,0-1.047,0-1.571,0
				c0.175,0.807,0.151,1.912-0.208,2.666c0.486,0.452,0.693,0.482,0.62,0.093c0.001-0.146,0.008-0.291,0.022-0.436
				c0.023-0.331,0.093-0.659,0.161-0.983c0.053-0.262,0.103-0.523,0.17-0.784c0.046-0.172,0.1-0.342,0.16-0.51
				c0.041-0.095,0.083-0.189,0.124-0.284c0.226-0.277,0.124-0.315-0.305-0.113c0.557,0.882,0.07,2.54,0.042,3.524
				c-0.031,1.057,1.558,1.038,1.627,0c0.119-1.786,0.799-7.475-2.64-6.67c-2.692,0.629-2.769,5.619-1.725,7.556
				C190.167,81.682,191.572,80.86,191.074,79.936L191.074,79.936z"/>
		</g>
		<g>
			<path d="M190.822,74.308c-0.634,1.191-0.859,2.493-0.557,3.814c0.234,1.023,1.803,0.59,1.57-0.432
				c-0.202-0.886-0.032-1.766,0.391-2.56C192.719,74.204,191.314,73.381,190.822,74.308L190.822,74.308z"/>
		</g>
		<g>
			<path d="M190.307,71.827c0.696-0.346,1.472-0.23,2.165,0.068c0.952,0.41,1.784-0.992,0.82-1.405
				c-1.269-0.546-2.535-0.701-3.804-0.067C188.547,70.89,189.37,72.294,190.307,71.827L190.307,71.827z"/>
		</g>
		<g>
			<path d="M175.274,71.128c0.375-0.618,1.888,0.2,2.277,0.496c0.836,0.636,1.645-0.779,0.82-1.405
				c-1.214-0.924-3.561-1.463-4.503,0.088C173.323,71.206,174.731,72.024,175.274,71.128L175.274,71.128z"/>
		</g>
		<g>
			<path d="M244.282,61.426c-0.054,3.541-0.711,6.662-2.723,9.61c-1.965,2.878-5.435,5.747-9.064,4.356
				c-0.983-0.377-1.402,1.197-0.433,1.569c3.584,1.373,6.812-0.627,9.301-3.143c3.325-3.361,4.474-7.781,4.545-12.392
				C245.926,60.377,244.298,60.378,244.282,61.426L244.282,61.426z"/>
		</g>
		<g>
			<path d="M233.668,76.72c-2.463-1.986-5.685,0.528-5.978,3.261c-0.276,2.587,1.28,5.194,4.08,5.147
				c1.049-0.018,1.05-1.645,0-1.627c-1.564,0.026-2.375-1.213-2.491-2.662c-0.111-1.391,1.526-4.348,3.237-2.968
				C233.326,78.523,234.485,77.378,233.668,76.72L233.668,76.72z"/>
		</g>
		<g>
			<path d="M231.567,80.855c0.124,6.534,2.035,12.745,6.841,17.348c4.843,4.638,12.863,5.864,19.289,5.997
				c15.201,0.313,23.08-14.333,23.612-27.821c0.042-1.05-1.586-1.046-1.628,0c-0.515,13.028-7.678,25.882-21.984,26.193
				c-6.097,0.133-13.414-1.532-18.138-5.52c-4.655-3.931-6.252-10.369-6.363-16.197C233.174,79.807,231.546,79.806,231.567,80.855
				L231.567,80.855z"/>
		</g>
		<g>
			<path d="M281.401,78.011c0.329-0.472,1.157-1.558,1.876-1.217c0.789,0.372,0.715,1.848,0.678,2.547
				c-0.051,0.938-0.39,1.949-1.168,2.527c-0.247,0.183-1.413,0.896-1.478,0.309c-0.113-1.032-1.742-1.042-1.628,0
				c0.192,1.744,1.68,2.163,3.157,1.518c1.604-0.7,2.468-2.162,2.689-3.861c0.201-1.531,0.042-3.751-1.562-4.51
				c-1.61-0.76-3.115,0.643-3.969,1.865C279.394,78.052,280.805,78.864,281.401,78.011L281.401,78.011z"/>
		</g>
		<g>
			<path d="M273.606,64.567c-2.165,6.006,3.888,15.801,10.655,11.396c0.875-0.57,0.062-1.979-0.82-1.406
				c-5.558,3.618-9.932-4.933-8.265-9.558C275.533,64.01,273.959,63.587,273.606,64.567L273.606,64.567z"/>
		</g>
		<g>
			<path d="M277.776,72.019c0.199,0.474,0.415,0.844,0.82,1.172c0.808,0.655,1.966-0.489,1.151-1.151
				c-0.178-0.11-0.312-0.262-0.401-0.454C278.946,70.633,277.372,71.051,277.776,72.019L277.776,72.019z"/>
		</g>
		<g>
			<path d="M241.265,58.645c6.256,6.179,13.995,8.525,22.602,9.02c5.862,0.337,13.822-0.675,14.972-7.649
				c0.169-1.026-1.4-1.467-1.57-0.433c-1.135,6.897-9.678,6.757-15.107,6.34c-7.555-0.581-14.282-3.034-19.745-8.428
				C241.669,56.756,240.519,57.907,241.265,58.645L241.265,58.645z"/>
		</g>
		<g>
			<path d="M238.349,53.527c-2.955-2.497-6.445,1.79-8.083,3.994c-4.881,6.562-7.174,15.463-8.439,23.391
				c-1.259,7.889-1.047,17.112,0.354,24.985c0.585,3.292,4.683,10.388,8.815,7.363c0.837-0.613,0.026-2.027-0.821-1.406
				c-5.219,3.819-6.924-10.466-7.006-12.602c-0.249-6.51-0.561-12.971,0.471-19.437c0.831-5.207,2.427-10.374,4.542-15.195
				c0.583-1.329,6.03-12.467,9.016-9.943C237.994,55.351,239.151,54.206,238.349,53.527L238.349,53.527z"/>
		</g>
		<g>
			<path d="M237.933,54.242c2.446-3.65,9.382-5.168,13.295-6.352c4.772-1.445,9.767-2.177,14.735-2.45
				c4.564-0.251,9.172,0.288,13.295,2.34c6.994,3.479,4.814,9.63,0.933,14.427c-0.653,0.808,0.492,1.966,1.151,1.15
				c2.427-3,5.882-7.672,3.934-11.784c-2.409-5.084-8.251-6.907-13.431-7.596c-6.453-0.858-13.379,0.378-19.624,1.948
				c-4.719,1.188-12.78,3.145-15.693,7.495C235.941,54.296,237.353,55.11,237.933,54.242L237.933,54.242z"/>
		</g>
		<g>
			<path d="M284.293,58.171c4.325,0.137,2.143,5.298,0.925,7.32c-0.181,0.299-0.142,0.747,0.127,0.986
				c6.265,5.586,8.479,14.25,8.919,22.352c0.248,4.567-0.356,9.031-2.274,13.207c-0.995,2.164-6.521,9.175-9.563,6.556
				c-0.792-0.681-1.947,0.465-1.15,1.15c3.028,2.606,7.936-1.135,9.967-3.526c4.788-5.633,5.111-13.724,4.385-20.71
				c-0.673-6.476-2.829-12.885-6.939-17.987c-1.527-1.896-1.654-1.759-0.407-3.95c0.356-0.626,0.657-1.667,0.52-2.392
				c-0.463-2.453-1.906-4.551-4.509-4.633C283.243,56.511,283.246,58.138,284.293,58.171L284.293,58.171z"/>
		</g>
		<g>
			<path d="M254.929,85.907c-0.24,3.469,5.59,3.902,5.833,0.407c0.073-1.048-1.554-1.041-1.627,0
				c-0.094,1.341-2.675,1.003-2.578-0.407C256.63,84.859,255.001,84.866,254.929,85.907L254.929,85.907z"/>
		</g>
		<g>
			<path d="M248.388,90.959c5.271,4.284,16.372,3.66,19.857-2.809c0.498-0.924-0.907-1.746-1.405-0.822
				c-2.939,5.453-12.847,6.1-17.302,2.48C248.73,89.153,247.572,90.297,248.388,90.959L248.388,90.959z"/>
		</g>
		<g>
			<path d="M245.64,81.5c3.073,0,6.149,0,9.223,0c1.049,0,1.049-1.628,0-1.628c-3.074,0-6.15,0-9.223,0
				C244.591,79.872,244.591,81.5,245.64,81.5L245.64,81.5z"/>
		</g>
		<g>
			<path d="M261.304,81.432c2.554,0,5.108,0,7.663,0c1.049,0,1.049-1.628,0-1.628c-2.554,0-5.108,0-7.663,0
				C260.255,79.804,260.255,81.432,261.304,81.432L261.304,81.432z"/>
		</g>
		<g>
			<path d="M247.588,80.092c-0.121-1.206-0.322-5.264,1.834-4.958c1.372,0.194,0.925,3.737,0.636,4.589
				c0.534,0.072,1.066,0.144,1.599,0.216c0.135-1.409,0.278-3.176-0.62-4.378c-0.75-1.006-1.991-0.94-2.771-0.021
				c-0.736,0.866-1.103,2.163-1.06,3.286c0.035,0.944,1.168,2.334,2.109,1.307c0.687-0.75,0.973-2.201,0.76-3.189
				c-0.314-1.464-1.764-1.44-2.381-0.192c-0.547,1.104-0.427,2.853,0.808,3.445c1.397,0.672,2.136-0.846,2.19-1.987
				c-0.542,0-1.085,0-1.627,0c0.001,0.377,0.016,0.744,0.051,1.119c0.095,1.037,1.723,1.046,1.627,0
				c-0.035-0.375-0.049-0.742-0.051-1.119c-0.006-1.055-1.577-1.042-1.627,0c-0.01,0.118-0.019,0.235-0.027,0.353
				c-0.144,0.225-0.093,0.279,0.149,0.164c-0.142-0.068-0.167-0.405-0.176-0.519c-0.022-0.283,0.065-0.585,0.189-0.835
				c-0.232,0.042-0.463,0.083-0.695,0.125c-0.002,0.083-0.006,0.166-0.014,0.248c-0.03,0.379-0.11,0.806-0.271,1.153
				c0.48-1.047,0.667,0.38,0.614-0.073c-0.021-0.178-0.01-0.375,0.014-0.553c0.041-0.304,0.579-1.947,0.784-1.848
				c0.847,0.411,0.469,2.781,0.399,3.514c-0.092,0.959,1.319,1.041,1.599,0.216c0.655-1.938,0.68-5.892-1.774-6.591
				c-1.442-0.411-2.833,0.77-3.395,1.981c-0.644,1.389-0.648,3.052-0.499,4.546C246.064,81.126,247.693,81.137,247.588,80.092
				L247.588,80.092z"/>
		</g>
		<g>
			<path d="M263.1,79.991c-0.121-1.027,0.104-2.046,0.458-3.007c0.178-0.484,0.474-1,0.918-1.275c0.271-0.167,0.21-0.17,0.334,0.025
				c0.648,1.031,0.464,3.068,0.149,4.192c0.534,0.073,1.066,0.144,1.599,0.216c0.114-1.508,0.782-4.61-1.412-4.897
				c-1.713-0.224-2.543,3.359-2.069,4.503c0.178,0.427,0.733,0.84,1.195,0.486c0.741-0.566,1.046-1.404,1.014-2.33
				c-0.027-0.759-1.141-1.176-1.517-0.411c-0.586,1.195-0.666,2.458,0.496,3.3c0.851,0.618,1.661-0.795,0.82-1.405
				c-0.322-0.234-0.035-0.822,0.089-1.073c-0.505-0.137-1.01-0.274-1.516-0.411c0.008,0.248,0.021,0.751-0.207,0.925
				c0.397,0.162,0.796,0.324,1.195,0.486c-0.162-0.393-0.028-0.861,0.068-1.258c0.065-0.271,0.162-0.533,0.281-0.784
				c0.056-0.112,0.12-0.219,0.188-0.322c0.17-0.269-0.094,0.08-0.214-0.112c0.494,0.778,0.025,2.436-0.04,3.303
				c-0.071,0.936,1.357,1.08,1.599,0.216c0.474-1.698,0.7-5.086-1.023-6.176c-1.135-0.718-2.421,0.416-3.007,1.298
				c-0.815,1.228-1.197,3.054-1.026,4.509C261.594,81.021,263.221,81.032,263.1,79.991L263.1,79.991z"/>
		</g>
		<g>
			<path d="M266.886,79.851c0.305-1.262,0.395-2.566,0.086-3.837c-0.294-1.212-1.513-2.569-2.894-2.228
				c-2.834,0.701-2.14,4.208-1.813,6.318c0.161,1.035,1.729,0.594,1.57-0.432c-0.186-1.196-0.61-2.706-0.014-3.842
				c0.717-1.364,1.616,0.533,1.698,1.193c0.097,0.799-0.013,1.619-0.202,2.395C265.069,80.438,266.638,80.87,266.886,79.851
				L266.886,79.851z"/>
		</g>
		<g>
			<path d="M263.914,76.634c-0.057,0.729-0.14,1.455-0.152,2.187c-0.018,1.05,1.61,1.048,1.627,0
				c0.012-0.732,0.095-1.458,0.153-2.187C265.625,75.586,263.995,75.595,263.914,76.634L263.914,76.634z"/>
		</g>
		<g>
			<path d="M262.35,72.027c1.213-0.398,2.454-0.287,3.379,0.655c0.735,0.75,1.887-0.402,1.151-1.151
				c-1.315-1.338-3.211-1.648-4.963-1.073C260.925,70.783,261.351,72.355,262.35,72.027L262.35,72.027z"/>
		</g>
		<g>
			<path d="M247.248,72.123c1.038-0.896,2.692-0.571,3.795,0.025c0.922,0.5,1.744-0.906,0.82-1.405
				c-1.8-0.975-4.137-1.178-5.766,0.229C245.301,71.66,246.458,72.806,247.248,72.123L247.248,72.123z"/>
		</g>
		<g>
			<path d="M309.456,80.905c-0.437-2.161-2.547-3.291-4.642-3.062c-2.514,0.275-3.656,2.516-3.843,4.816
				c-0.205,2.499,1.122,4.866,3.482,5.721c2.195,0.795,4.792,0.057,5.716-2.161c0.404-0.969-1.173-1.387-1.57-0.433
				c-0.599,1.441-2.462,1.391-3.713,1.024c-1.639-0.479-2.238-2.231-2.297-3.775c-0.057-1.538,0.593-3.123,2.162-3.542
				c1.391-0.372,2.853,0.443,3.136,1.844C308.094,82.366,309.663,81.93,309.456,80.905L309.456,80.905z"/>
		</g>
		<g>
			<path d="M357.904,78.782c-0.003,0.03,0.834-0.604,1.032-0.727c0.883-0.554,2.033-0.22,2.733,0.43
				c0.994,0.919,0.674,2.458,0.183,3.529c-0.596,1.3-3.334,4.605-4.466,2.155c-0.439-0.952-1.843-0.125-1.406,0.821
				c0.801,1.735,2.454,2.016,4.082,1.257c1.812-0.844,3.147-2.852,3.694-4.712c0.646-2.207-0.407-4.349-2.527-5.19
				c-1.627-0.644-4.76,0.467-4.952,2.437C356.174,79.826,357.804,79.816,357.904,78.782L357.904,78.782z"/>
		</g>
		<g>
			<path d="M307.886,87.949c1.879,5.273,4.274,9.763,8.826,13.184c4.884,3.672,11.609,4.901,17.567,4.28
				c11.073-1.153,21.512-9.588,23.154-20.83c0.149-1.026-1.419-1.468-1.57-0.433c-1.567,10.742-10.595,17.322-20.656,19.48
				c-5.269,1.13-10.988-0.225-15.681-2.657c-5.393-2.795-8.117-7.976-10.071-13.457C309.107,86.536,307.533,86.958,307.886,87.949
				L307.886,87.949z"/>
		</g>
		<g>
			<path d="M309.59,81.456c3.189-2.104,5.387-3.915,6.929-7.559c0.766-1.813,1.324-5.006,0.077-6.71
				c-0.614-0.837-2.027-0.027-1.406,0.822c1.104,1.507,0.208,4.393-0.435,5.913c-1.229,2.904-3.473,4.473-5.986,6.13
				C307.897,80.625,308.711,82.036,309.59,81.456L309.59,81.456z"/>
		</g>
		<g>
			<path d="M311.957,66.334c5.87,3.518,13.854,2.224,20.275,1.309c8.751-1.246,15.363-5.334,21.874-11.066
				c0.79-0.694-0.366-1.841-1.151-1.15c-5.534,4.872-10.994,8.458-18.267,10.121c-6.324,1.446-16.034,2.904-21.911-0.619
				C311.875,64.388,311.057,65.795,311.957,66.334L311.957,66.334z"/>
		</g>
		<g>
			<path d="M345.775,61.965c-2.252,4.758,5.072,7.335,8.571,5.725c0.954-0.438,0.126-1.841-0.82-1.405
				c-1.976,0.908-7.778-0.471-6.347-3.498C347.627,61.844,346.224,61.017,345.775,61.965L345.775,61.965z"/>
		</g>
		<g>
			<path d="M351.085,68.639c4.536,2.401,4.951,8.426,4.032,12.848c-0.212,1.023,1.355,1.46,1.57,0.433
				c1.063-5.119,0.423-11.931-4.782-14.685C350.979,66.743,350.157,68.148,351.085,68.639L351.085,68.639z"/>
		</g>
		<g>
			<path d="M353.881,60.652c4.102-1.711,8.255-0.417,9.49,4.054c1.173,4.254-0.725,8.406-2.882,11.975
				c-0.545,0.901,0.863,1.718,1.405,0.822c2.656-4.396,4.905-10.119,2.408-15.14c-2.033-4.089-6.799-4.971-10.854-3.279
				C352.495,59.48,352.914,61.056,353.881,60.652L353.881,60.652z"/>
		</g>
		<g>
			<path d="M357.224,59.019c0.919-0.965,1.466-2.206,1.192-3.545c-0.278-1.365-1.672-1.944-2.919-1.981
				c-1.05-0.032-1.048,1.597,0,1.628c1.81,0.054,1.548,1.727,0.577,2.748C355.35,58.627,356.499,59.781,357.224,59.019
				L357.224,59.019z"/>
		</g>
		<g>
			<path d="M356.199,54.175c7.605-12.65-25.346-6.831-29.713-6.019c-3.92,0.728-25.988,9.08-17.174,15.736
				c0.838,0.633,1.647-0.781,0.82-1.405c-3.697-2.793,3.074-6.884,5.094-8.169c3.607-2.297,7.514-3.7,11.691-4.593
				c5.713-1.221,11.791-1.88,17.622-2.177c3.33-0.168,13.853-0.181,10.255,5.804C354.252,54.255,355.658,55.073,356.199,54.175
				L356.199,54.175z"/>
		</g>
		<g>
			<path d="M308.572,61.47c-4.51-2.38-7.883,2.234-8.687,6.271c-0.742,3.717,1.71,10.33,5.755,11.355
				c1.017,0.258,1.449-1.311,0.432-1.569c-2.324-0.589-3.73-4.046-4.38-6.009c-0.975-2.938,1.004-11.311,6.06-8.643
				C308.679,63.365,309.502,61.96,308.572,61.47L308.572,61.47z"/>
		</g>
		<g>
			<path d="M328.739,86.056c0.96,2.781,5.646,2.858,6.384-0.136c0.251-1.019-1.319-1.451-1.57-0.433
				c-0.332,1.347-2.789,1.457-3.243,0.136C329.969,84.637,328.396,85.061,328.739,86.056L328.739,86.056z"/>
		</g>
		<g>
			<path d="M322.507,91.23c4.455,4.023,16.991,4.352,20.129-1.725c0.482-0.931-0.923-1.754-1.405-0.821
				c-2.613,5.055-13.94,4.676-17.574,1.395C322.88,89.377,321.727,90.525,322.507,91.23L322.507,91.23z"/>
		</g>
		<g>
			<path d="M320.369,81.296c2.215,0,4.43,0,6.646,0c1.048,0,1.048-1.627,0-1.627c-2.216,0-4.43,0-6.646,0
				C319.32,79.669,319.32,81.296,320.369,81.296L320.369,81.296z"/>
		</g>
		<g>
			<path d="M336.916,80.821c2.373,0,4.748,0,7.121,0c1.049,0,1.049-1.627,0-1.627c-2.373,0-4.748,0-7.121,0
				C335.867,79.194,335.867,80.821,336.916,80.821L336.916,80.821z"/>
		</g>
		<g>
			<path d="M322.353,79.787c-0.015-1.31-0.463-3.522,0.446-4.615c0.59-0.709,0.852,1.216,0.871,1.459
				c0.067,0.851,0.014,1.749-0.17,2.583c0.523,0,1.048,0,1.57,0c-0.314-0.959-0.359-1.94-0.409-2.94
				c-0.027-0.564-0.135-1.26-0.672-1.575c-1.247-0.73-1.942,0.838-2.176,1.75c-0.199,0.774-0.639,2.794,0.396,3.239
				c1.433,0.619,1.882-0.924,1.872-2.037c-0.007-1.061-1.551-1.036-1.627,0c-0.039,0.531-0.039,1.045,0,1.576
				c0.076,1.041,1.704,1.048,1.627,0c-0.038-0.531-0.038-1.045,0-1.576c-0.542,0-1.085,0-1.627,0c0.001,0.143,0,0.285-0.005,0.428
				c-0.016,0.468,0.775,0.688,0.758,0.101c-0.019-0.574,0.127-1.155,0.285-1.702c0.03-0.097,0.063-0.194,0.099-0.29
				c0.183-0.266-0.011-0.31-0.577-0.133c0.067,0.258,0.035,0.567,0.051,0.832c0.056,0.938,0.143,1.862,0.436,2.759
				c0.237,0.723,1.388,0.829,1.57,0c0.385-1.74,0.704-6.86-2.409-6.187c-2.511,0.543-1.957,4.478-1.936,6.327
				C320.738,80.836,322.365,80.837,322.353,79.787L322.353,79.787z"/>
		</g>
		<g>
			<path d="M338.984,79.431c-0.005-0.486-0.288-3.424,0.623-3.225c0.422,0.092,0.044,2.607,0.038,2.97
				c-0.019,1.055,1.574,1.041,1.628,0c0.051-0.966-0.145-2.979-1.366-3.19c-1.611-0.278-2.08,2.007-1.708,3.152
				c0.324,0.994,1.895,0.568,1.57-0.432c-0.081-0.249-0.081-0.511-0.039-0.769c0.024-0.15,0.07-0.283,0.142-0.414
				c-0.103,0.187-0.615-0.217-0.493-0.015c0.269,0.439,0.293,1.166,0.266,1.668c0.542,0,1.086,0,1.628,0
				c0.026-1.446,0.636-4.414-1.566-4.594c-2.587-0.212-2.367,3.167-2.351,4.848C337.366,80.48,338.993,80.481,338.984,79.431
				L338.984,79.431z"/>
		</g>
		<g>
			<path d="M339.187,78.974c0.016-0.545-0.386-2.959,0.272-3.2c1.154-0.423,0.694,3.098,0.644,3.607
				c-0.103,1.044,1.526,1.035,1.628,0c0.186-1.896,0.504-5.199-2.22-5.248c-2.418-0.043-1.906,3.34-1.95,4.841
				C337.528,80.023,339.157,80.021,339.187,78.974L339.187,78.974z"/>
		</g>
		<g>
			<path d="M337.767,70.419c1.033-0.516,2.018-0.122,2.893,0.509c0.852,0.616,1.662-0.797,0.82-1.405
				c-1.379-0.998-2.981-1.285-4.532-0.509C336.007,69.483,336.832,70.887,337.767,70.419L337.767,70.419z"/>
		</g>
		<g>
			<path d="M321.847,71.437c0.792-0.384,1.691-0.752,2.486-0.204c0.865,0.599,1.679-0.813,0.82-1.405
				c-1.3-0.898-2.822-0.43-4.125,0.204C320.083,70.49,320.908,71.894,321.847,71.437L321.847,71.437z"/>
		</g>
		<g>
			<path d="M152.559,180.224c-1.235,4.865-1.637,10.026-2.21,14.998c-1.065,9.208-1.873,18.448-2.55,27.693
				c-1.411,19.263-2.828,39.104-0.688,58.364c0.114,1.032,1.744,1.043,1.627,0c-2.103-18.928-0.722-38.39,0.613-57.325
				c0.639-9.076,1.448-18.142,2.449-27.185c0.592-5.341,1.001-10.887,2.329-16.113C154.386,179.638,152.817,179.206,152.559,180.224
				L152.559,180.224z"/>
		</g>
		<g>
			<path d="M147.441,281.947c5.35,3.21,12.004,4.907,17.909,2.238c0.955-0.432,0.127-1.834-0.82-1.405
				c-5.343,2.415-11.482,0.634-16.269-2.238C147.359,280,146.542,281.409,147.441,281.947L147.441,281.947z"/>
		</g>
		<g>
			<path d="M170.937,197.32c-1.014,3.439-1.066,7.383-1.452,10.922c-0.847,7.777-1.562,15.568-2.236,23.361
				c-1.492,17.202-2.991,34.509-3.122,51.785c-0.007,1.05,1.62,1.049,1.628,0c0.125-16.61,1.551-33.241,2.95-49.783
				c0.676-7.994,1.417-15.983,2.259-23.961c0.405-3.851,0.442-8.154,1.544-11.892C172.804,196.744,171.234,196.316,170.937,197.32
				L170.937,197.32z"/>
		</g>
		<g>
			<path d="M197.664,181.231c-2.428,33.107-3.967,66.504-3.752,99.702c0.007,1.049,1.634,1.05,1.628,0
				c-0.215-33.198,1.324-66.595,3.752-99.702C199.368,180.184,197.74,180.191,197.664,181.231L197.664,181.231z"/>
		</g>
		<g>
			<path d="M176.571,195.842c0.767,3.58,0.487,7.628,0.601,11.263c0.248,7.92,0.367,15.845,0.443,23.769
				c0.166,16.934,0.329,33.967-0.83,50.871c-0.071,1.048,1.556,1.041,1.628,0c1.159-16.906,0.984-33.937,0.829-50.871
				c-0.071-7.923-0.205-15.848-0.443-23.769c-0.115-3.79,0.141-7.962-0.658-11.696C177.922,194.383,176.352,194.818,176.571,195.842
				L176.571,195.842z"/>
		</g>
		<g>
			<path d="M177.144,282.863c3.875,2.493,16.523,4.615,18.284-1.774c0.278-1.013-1.291-1.443-1.571-0.433
				c-0.718,2.611-4.981,2.745-7.093,2.833c-3.035,0.127-6.218-0.37-8.8-2.032C177.078,280.888,176.263,282.297,177.144,282.863
				L177.144,282.863z"/>
		</g>
		<g>
			<path d="M172.628,198.008c0.513-0.767,3.428-3.363,3.937-1.688c0.305,1.001,1.875,0.575,1.57-0.432
				c-1.117-3.676-5.596-0.667-6.912,1.298C170.636,198.061,172.048,198.875,172.628,198.008L172.628,198.008z"/>
		</g>
		<g>
			<path d="M190.505,183.831c0.337,4.266,0.75,10.927,5.752,12.312c1.012,0.281,1.443-1.289,0.432-1.569
				c-4.085-1.131-4.287-7.315-4.557-10.743C192.05,182.792,190.422,182.784,190.505,183.831L190.505,183.831z"/>
		</g>
		<g>
			<path d="M159.204,181.919c-0.618,1.915-1.013,3.84-2.104,5.565c-1.216,1.924-3.421,3.434-5.533,4.174
				c-0.984,0.344-0.561,1.917,0.433,1.568c2.189-0.766,4.025-2.085,5.607-3.771c1.868-1.991,2.358-4.596,3.168-7.104
				C161.097,181.35,159.525,180.925,159.204,181.919L159.204,181.919z"/>
		</g>
		<g>
			<path d="M148.191,282.195c-1.685,1.6-23.094,9.608-12.807,13.11c4.896,1.667,11.278,0.501,16.247-0.203
				c3.846-0.545,9.711-0.858,12.664-3.72c0.755-0.731-0.397-1.882-1.15-1.151c-2.133,2.066-6.197,2.275-9.012,2.811
				c-4.879,0.927-9.805,1.369-14.767,1.144c-0.335-0.016-6.45-0.287-4.752-2.464c1.276-1.637,3.943-2.769,5.688-3.76
				c2.915-1.654,6.579-2.278,9.041-4.615C150.104,282.622,148.953,281.473,148.191,282.195L148.191,282.195z"/>
		</g>
		<g>
			<path d="M164.533,290.705c0.006-1.969,0.081-3.936-0.102-5.899c-0.097-1.036-1.725-1.045-1.628,0
				c0.183,1.963,0.108,3.931,0.102,5.899C162.903,291.754,164.53,291.753,164.533,290.705L164.533,290.705z"/>
		</g>
		<g>
			<path d="M151.217,283.784c-1.318,1.809-0.768,3.682,1.54,4.003c1.928,0.269,4.404-0.126,5.942-1.39
				c0.812-0.667-0.346-1.812-1.15-1.151c-0.96,0.788-2.579,0.959-3.766,0.983c-0.563,0.012-1.174-0.031-1.662-0.336
				c-0.359-0.223,0.381-1.126,0.501-1.289C153.24,283.755,151.828,282.944,151.217,283.784L151.217,283.784z"/>
		</g>
		<g>
			<path d="M193.036,283.346c2.117,2.009,5.135,2.657,7.71,3.914c1.796,0.875,3.494,1.946,5.17,3.029
				c0.646,0.439,1.263,0.917,1.849,1.433c2.017,1.768-3.096,2.324-3.269,2.34c-4.96,0.473-9.886,0.019-14.792-0.764
				c-3.088-0.493-8.141-0.811-10.469-3.066c-0.753-0.73-1.906,0.42-1.151,1.151c2.99,2.896,8.788,3.102,12.665,3.72
				c5.276,0.842,10.978,1.337,16.247,0.203c2.635-0.567,3.528-2.674,1.921-4.734c-3.563-4.569-10.776-4.625-14.729-8.376
				C193.425,281.473,192.272,282.622,193.036,283.346L193.036,283.346z"/>
		</g>
		<g>
			<path d="M179.472,290.806c-0.002-2.469-0.067-4.956,0.166-7.417c0.098-1.045-1.531-1.035-1.628,0
				c-0.231,2.461-0.167,4.949-0.165,7.417C177.846,291.856,179.473,291.856,179.472,290.806L179.472,290.806z"/>
		</g>
		<g>
			<path d="M191.312,284.605c0.167,0.229,0.731,0.942,0.48,1.114c-0.475,0.325-1.264,0.237-1.801,0.208
				c-1.275-0.068-3.045-0.386-4.064-1.223c-0.805-0.661-1.963,0.484-1.151,1.15c1.59,1.305,4.077,1.781,6.086,1.709
				c2.365-0.085,3.252-1.859,1.855-3.781C192.107,282.944,190.694,283.754,191.312,284.605L191.312,284.605z"/>
		</g>
		<g>
			<path d="M233.565,175.375c-1.663,16.61-3.191,33.233-4.323,49.888c-1.284,18.873-2.478,38.033-1.022,56.93
				c0.08,1.04,1.708,1.047,1.627,0c-1.456-18.902-0.24-38.052,1.022-56.93c1.113-16.656,2.661-33.278,4.323-49.888
				C235.297,174.331,233.668,174.341,233.565,175.375L233.565,175.375z"/>
		</g>
		<g>
			<path d="M229.672,283.493c3.277,1.318,8.572,1.226,10.455-2.293c0.496-0.925-0.909-1.748-1.405-0.821
				c-1.531,2.86-6.04,2.582-8.618,1.546C229.131,281.533,228.711,283.107,229.672,283.493L229.672,283.493z"/>
		</g>
		<g>
			<path d="M251.275,192.732c-3.295,8.504-3.649,17.878-5.552,26.745c-1.599,7.454-3.08,14.934-4.226,22.472
				c-2.178,14.319-2.452,28.784-2.527,43.241c-0.005,1.05,1.623,1.049,1.627,0c0.075-14.323,0.385-28.615,2.468-42.808
				c1.108-7.542,2.644-15.018,4.227-22.472c1.885-8.868,2.26-18.247,5.553-26.746C253.226,192.185,251.651,191.764,251.275,192.732
				L251.275,192.732z"/>
		</g>
		<g>
			<path d="M238.971,176.981c-0.248,2.386-2.548,5.593-4.873,6.314c-1,0.309-0.573,1.88,0.432,1.568
				c3.083-0.955,5.741-4.743,6.068-7.882C240.706,175.938,239.079,175.948,238.971,176.981L238.971,176.981z"/>
		</g>
		<g>
			<path d="M228.665,282.682c-4.534,3.642-10.197,3.66-14.983,6.455c-2.692,1.572,0.66,3.504,2.322,3.616
				c2.432,0.167,4.789-0.245,7.198-0.49c3.621-0.37,7.27-0.308,10.883-0.799c2.019-0.273,3.797-0.64,5.296-2.065
				c1.781-1.693,0.79-5.104,1.18-7.194c0.191-1.025-1.376-1.463-1.57-0.433c-0.283,1.515-0.234,2.984-0.223,4.523
				c0.027,3.729-5.074,3.597-7.31,3.819c-4.172,0.415-8.366,0.613-12.542,1.011c-1.149,0.108-5.998-0.121-2.73-1.372
				c1.365-0.521,2.81-0.841,4.214-1.236c3.339-0.941,6.715-2.515,9.415-4.684C230.634,283.176,229.475,282.032,228.665,282.682
				L228.665,282.682z"/>
		</g>
		<g>
			<path d="M274.539,175.269c1.014,16.187,1.93,32.378,2.435,48.59c0.579,18.58,1.003,37.425-1.14,55.925
				c-0.121,1.042,1.508,1.029,1.627,0c2.143-18.505,1.696-37.341,1.14-55.925c-0.485-16.212-1.421-32.404-2.435-48.59
				C276.102,174.226,274.474,174.22,274.539,175.269L274.539,175.269z"/>
		</g>
		<g>
			<path d="M275.555,279.482c-2.632,0.943-7.114,1.008-8.535-1.911c-0.459-0.943-1.863-0.118-1.405,0.821
				c1.745,3.585,7.065,3.843,10.372,2.658C276.968,280.701,276.545,279.127,275.555,279.482L275.555,279.482z"/>
		</g>
		<g>
			<path d="M257.364,193.473c8.417,27.873,8.858,57.644,7.85,86.484c-0.037,1.05,1.591,1.047,1.627,0
				c1.012-28.964,0.547-58.922-7.907-86.917C258.631,192.038,257.061,192.466,257.364,193.473L257.364,193.473z"/>
		</g>
		<g>
			<path d="M268.331,178.028c0.415,2.923,4.013,5.673,6.718,6.264c1.023,0.225,1.458-1.344,0.433-1.569
				c-2.211-0.484-5.24-2.724-5.581-5.128C269.753,176.56,268.187,177.002,268.331,178.028L268.331,178.028z"/>
		</g>
		<g>
			<path d="M275.825,281.415c2.612,2.27,5.697,3.58,8.863,4.894c0.964,0.402,2.007,0.652,2.999,0.977
				c0.92,0.3,1.812,0.659,2.675,1.094c0.669,0.336-2.57,0.835-2.982,0.816c-3.994-0.179-8.136-1.026-12.122-1.431
				c-2.302-0.233-4.848-0.455-6.988-1.418c-2.302-1.037-1.271-5.417-1.566-7.398c-0.154-1.035-1.723-0.594-1.57,0.433
				c0.367,2.462-0.502,4.815,0.792,7.062c0.987,1.714,3.63,2.117,5.348,2.42c3.131,0.549,6.324,0.749,9.485,1.057
				c2.864,0.279,5.638,1.005,8.532,0.919c1.73-0.051,5.013-1.877,2.403-3.541c-4.662-2.971-10.347-3.237-14.718-7.034
				C276.188,279.579,275.032,280.725,275.825,281.415L275.825,281.415z"/>
		</g>
		<g>
			<path d="M252.968,193.167c0.405-1.019,1.435-1.686,2.516-1.71c1.335-0.028,1.597,1.665,1.88,2.624
				c0.297,1.005,1.868,0.577,1.57-0.432c-0.498-1.683-1.1-3.602-3.164-3.792c-1.951-0.18-3.67,1.12-4.373,2.878
				C251.008,193.709,252.583,194.129,252.968,193.167L252.968,193.167z"/>
		</g>
		<g>
			<path d="M308.436,182.948c-0.498,16.539-2.782,33.012-3.621,49.548c-0.734,14.5-0.747,28.963,0.092,43.459
				c0.061,1.043,1.688,1.049,1.628,0c-0.839-14.5-0.803-28.956-0.092-43.459c0.811-16.541,3.123-33.006,3.621-49.548
				C310.095,181.898,308.468,181.901,308.436,182.948L308.436,182.948z"/>
		</g>
		<g>
			<path d="M329.384,199.735c-2.821,10.222-3.274,21.517-4.336,32.012c-1.551,15.341-2.905,30.805-2.931,46.235
				c-0.001,1.05,1.626,1.05,1.627,0c0.024-14.722,1.299-29.46,2.72-44.102c1.073-11.056,1.52-22.954,4.49-33.712
				C331.234,199.154,329.664,198.724,329.384,199.735L329.384,199.735z"/>
		</g>
		<g>
			<path d="M305.146,276.531c4.339,4.224,11.963,6.008,17.26,2.568c0.878-0.569,0.062-1.979-0.82-1.405
				c-4.689,3.043-11.456,1.418-15.29-2.314C305.545,274.648,304.393,275.798,305.146,276.531L305.146,276.531z"/>
		</g>
		<g>
			<path d="M316.402,183.797c-0.452,3.912-3.537,9.557-7.642,10.506c-1.022,0.236-0.59,1.805,0.432,1.569
				c4.891-1.129,8.303-7.448,8.837-12.075C318.15,182.754,316.521,182.767,316.402,183.797L316.402,183.797z"/>
		</g>
		<g>
			<path d="M311.431,197.296c0.388-0.132,0.756-0.28,1.109-0.488c0.903-0.533,0.085-1.94-0.821-1.406
				c-0.235,0.138-0.463,0.237-0.721,0.325C310.01,196.063,310.434,197.636,311.431,197.296L311.431,197.296z"/>
		</g>
		<g>
			<path d="M350.688,183.565c0.498,16.539,2.782,33.012,3.621,49.548c0.735,14.5,0.747,28.963-0.092,43.459
				c-0.061,1.049,1.567,1.043,1.627,0c0.839-14.5,0.803-28.956,0.092-43.459c-0.811-16.541-3.124-33.006-3.621-49.548
				C352.284,182.518,350.656,182.515,350.688,183.565L350.688,183.565z"/>
		</g>
		<g>
			<path d="M329.797,200.784c2.878,10.429,3.315,21.929,4.384,32.643c1.497,14.99,2.8,30.097,2.826,45.172
				c0.001,1.049,1.629,1.049,1.627,0c-0.025-15.079-1.35-30.177-2.826-45.172c-1.064-10.835-1.529-22.523-4.441-33.075
				C331.088,199.341,329.518,199.771,329.797,200.784L329.797,200.784z"/>
		</g>
		<g>
			<path d="M342.723,184.414c0.533,4.626,3.946,10.946,8.837,12.075c1.022,0.236,1.454-1.333,0.432-1.569
				c-4.105-0.949-7.19-6.594-7.642-10.506C344.23,183.383,342.601,183.371,342.723,184.414L342.723,184.414z"/>
		</g>
		<g>
			<path d="M349.753,196.344c-0.257-0.088-0.486-0.187-0.721-0.325c-0.906-0.535-1.723,0.873-0.82,1.405
				c0.353,0.209,0.722,0.357,1.109,0.489C350.318,198.251,350.742,196.68,349.753,196.344L349.753,196.344z"/>
		</g>
		<g>
			<path d="M337.706,278.435c3.625,4.877,15.63,3.854,17.832-2.162c0.36-0.988-1.213-1.41-1.57-0.433
				c-1.677,4.586-12.133,5.433-14.856,1.772C338.493,276.781,337.078,277.591,337.706,278.435L337.706,278.435z"/>
		</g>
		<g>
			<path d="M337.487,278.825c-0.832,2.082-0.514,4.347,0,6.468c0.248,1.02,1.817,0.587,1.57-0.432c-0.452-1.863-0.731-3.775,0-5.603
				C339.447,278.282,337.871,277.862,337.487,278.825L337.487,278.825z"/>
		</g>
		<g>
			<path d="M338.056,285.996c3.275,1.235,31.082,10.934,29.415,1.237c-0.178-1.033-1.747-0.594-1.57,0.433
				c0.783,4.551-13.123,0.992-15.091,0.508c-4.177-1.023-8.297-2.23-12.321-3.747C337.504,284.057,337.083,285.63,338.056,285.996
				L338.056,285.996z"/>
		</g>
		<g>
			<path d="M352.916,279.269c2.271,1.387,4.785,2.353,7.08,3.718c1.493,0.887,5.283,2.711,5.905,4.408
				c0.359,0.977,1.933,0.556,1.57-0.432c-0.712-1.94-2.669-2.76-4.308-3.81c-3.058-1.959-6.343-3.408-9.426-5.29
				C352.839,277.315,352.021,278.723,352.916,279.269L352.916,279.269z"/>
		</g>
		<g>
			<path d="M322.497,278.369c0.731,1.829,0.452,3.74,0,5.603c-0.246,1.02,1.322,1.452,1.57,0.432c0.514-2.12,0.832-4.386,0-6.467
				C323.683,276.974,322.107,277.394,322.497,278.369L322.497,278.369z"/>
		</g>
		<g>
			<path d="M323.066,283.54c-4.029,1.519-8.147,2.694-12.321,3.747c-1.973,0.498-15.872,4.029-15.091-0.509
				c0.176-1.026-1.393-1.465-1.571-0.432c-1.667,9.697,26.14-0.002,29.415-1.238C324.471,284.742,324.05,283.168,323.066,283.54
				L323.066,283.54z"/>
		</g>
		<g>
			<path d="M307.817,276.975c-3.096,1.89-6.443,3.167-9.426,5.29c-1.615,1.147-3.576,1.815-4.308,3.809
				c-0.362,0.988,1.211,1.409,1.571,0.433c0.639-1.744,4.399-3.459,5.905-4.408c2.265-1.427,4.803-2.328,7.079-3.718
				C309.533,277.834,308.716,276.426,307.817,276.975L307.817,276.975z"/>
		</g>
	</g>
	<path d="M135.417,81.707c0.24-0.87,0.365-1.767,0.43-2.784c0.145-2.267,1.277-3.3,1.618-5.372c0.183-1.104-0.106-2.153-1.122-2.757
		c-0.261-0.155-0.534-0.271-0.812-0.369c0.835-2.847-0.221-6.313-2.942-8.487c-0.495-0.395-1.155-0.618-1.802-0.634
		c0.57-0.61,0.907-1.425,0.626-2.273c-0.491-1.481-1.208-2.489-2.174-3.149c0.577-1.365,0.779-2.849-0.032-4.23
		c-0.469-0.802-1.418-1.724-2.344-1.979c-0.903-0.249-1.348-0.323-1.541-0.285c-1.525-3.682-5.926-4.943-9.471-3.459
		c-2.205-2.529-5.413-3.952-8.802-1.765c-0.496,0.32-0.996,0.55-1.499,0.734c-0.871-0.528-1.894-0.842-2.983-0.998
		c-0.904-0.356-1.875-0.519-2.971-0.288c-0.644,0.137-1.2,0.323-1.718,0.534c-1.416,0.321-2.773,0.836-3.931,1.504
		c-4.707-2.746-10.954-2.994-13.329,1.992c-3.681-0.534-6.424,0.248-8.846,4.136c-1.572,2.522-1.589,5.668-0.838,8.549
		c-0.281,0.152-0.563,0.307-0.842,0.513c-3.182,2.354-3.383,6.008-3.242,9.585c-1.356,0.311-2.618,1.387-3.883,2.731
		c-2.385,2.533-0.945,5.673,1.001,8.005c-3.126,3.346-3.028,8.028,0.775,9.881c-1.948,1.763-3.893,4.103-3.171,6.295
		c0.016,0.047,0.042,0.082,0.059,0.128c-0.035,0.057-0.08,0.104-0.115,0.162c-1.203,2.011,1.278,4.778,3.34,3.34
		c0.617-0.43,1.133-0.697,1.581-0.84c0.188,0.005,0.199,0.169-0.08,0.806c-0.285,0.652-0.322,1.431-0.132,2.122
		c0.383,1.397,1.559,1.814,2.808,1.967c1.501,0.184,0.697-1.007,0.933,0.843c0.097,0.761,0.504,1.431,1.051,1.978
		c1.169,1.17,3.353,1.008,4.688,0.265c2.394-1.333,4.181-2.737,6.431-3.556c1.212,0.358,2.21,0.031,2.9-0.634
		c0.316-0.028,0.623-0.068,0.965-0.074c1.756-0.028,2.039-2.097,0.822-3.033c-0.258-0.198-0.538-0.273-0.834-0.302
		c-0.24-0.984-0.932-1.859-2.174-2.246c-4.59-1.426-5.29-8.729-5.34-12.729c-0.008-0.651-0.186-1.19-0.458-1.64
		c-0.462-0.976-1.387-1.716-2.797-1.716c-0.856,0-1.523,0.285-2.027,0.718c-0.461-0.896-1.05-1.751-1.553-2.631
		c0.666-0.354,1.125-1.034,1.036-2.054c-0.188-2.129,0.58-3.718,2.72-4.341c0.405-0.119,0.79-0.034,1.167,0.136
		c-0.03,0.291-0.016,0.591,0.067,0.888c0.35,1.273,1.723,2.069,3.002,1.705c0.601-0.171,1.125-0.54,1.563-0.996
		c2.444-0.709,3.806-4.034,3.863-6.372c0.013-0.542-0.063-1.009-0.183-1.438c4.236-1.074,8.276-1.642,11.912-4.825
		c1.565-1.371,2.521-3.05,2.983-4.838c4.038,3.826,9.235,6.257,14.59,7.759c3.471,0.973,8.498,1.686,12.356,0.341
		c-0.262,0.365-0.515,0.735-0.749,1.109c-0.923-0.34-1.991-0.204-2.611,0.587c-0.411-0.005-0.825,0.006-1.282,0.099
		c-0.745,0.151-1.587,0.934-1.705,1.704c-0.708,4.651,3.748,7.299,8.025,6.568c0.359,0.901,1.227,1.372,2.126,1.416
		c0.091,1.363,0.294,2.793-0.237,3.73c-0.232,0.167-0.444,0.369-0.615,0.622c-1.3,0.566-2.602,1.133-3.903,1.7
		c-1.114-0.13-2.247,0.381-2.446,1.731c-0.753,5.142-2.739,9.728-7.219,12.68c-0.804,0.53-1.127,1.298-1.118,2.056
		c-0.136,0.024-0.273,0.048-0.41,0.082c-0.156,0.038-0.265,0.12-0.358,0.215c-0.098,0.062-0.167,0.146-0.219,0.237
		c-0.741,0.314-0.656,1.607,0.285,1.553c0.546-0.032,1.087-0.065,1.625-0.087c0.431,0.386,0.987,0.583,1.589,0.527
		c0.226,0.602,0.741,1.079,1.63,1.201c0.872,0.12,1.615,0.06,2.265-0.138c1.232,1.124,2.88,1.654,4.499,0.707
		c0.741-0.434,1.195-0.992,1.441-1.621c0.625,0.035,1.27-0.027,1.942-0.27c2.587-0.935,2.802-3.622,2.649-6.04
		c1.813-0.826,3.201-2.202,3.773-4.321c0.283-1.045,0.329-2.124,0.145-3.136C138.831,87.142,137.692,83.679,135.417,81.707z"/>
	<path d="M218.954,68.649c0.177-2.049-1.472-3.297-3.354-4.127c1.245-2.065,1.516-4.63-0.104-6.713
		c-1.887-2.425-5.189-3.059-8.007-2.164c0.167-2.896-0.552-5.656-3.172-7.007c-1.858-0.958-3.652-0.578-5.075,0.493
		c-0.187-0.186-0.392-0.356-0.619-0.489c0.116-2.616-0.731-5.253-2.677-7.268c-3.576-3.705-9.867-2.648-13.143,0.841
		c-0.008,0.009-0.015,0.019-0.022,0.027c-1.176-2.571-3.18-4.608-6.207-5.141c-4.039-0.712-6.644,3.071-6.882,6.688
		c-4.991-0.024-10.425-0.39-13.286,4.668c-2.259,3.994-2.632,8.065-1.827,12.307c-0.687,0.129-1.307,0.314-1.869,0.542
		c-0.081-0.034-0.162-0.075-0.245-0.098c-1.398-0.386-2.499,0.474-3.002,1.704c0.167-0.409-0.272,0.347-0.262,0.333
		c-0.538,0.814-0.405,1.877,0.135,2.643c-0.037,1.368,0.371,2.976,1.298,4.813c-0.057,0.131-0.114,0.263-0.163,0.399
		c-8.346,4.4-0.156,18.737,7.988,13.938c1.146-0.676,1.55-2.189,0.876-3.34c-0.4-0.687-0.68-1.168-1.321-1.637
		c-1.987-1.457-2.815-3.048-2.782-4.414c0.194-0.214,0.354-0.466,0.464-0.756c0.245-0.648,0.562-1.223,0.933-1.75
		c1.042-0.741,2.597-1.089,4.477-0.757c1.935,0.341,3.519-0.754,4.992-1.895c0.477,0.283,1.056,0.425,1.726,0.309
		c2.963-0.511,4.693-3.014,6.342-5.292c0.763-1.055,1.461-2.145,2.134-3.248c2.801-2.638,5.355-5.588,6.724-8.54
		c0.345,2.195,1.924,3.748,4.111,4.424c0.266,0.28,0.609,0.512,1.059,0.653c2.378,0.745,4.144,0.04,5.822-1.034
		c-0.234,1.931-0.241,3.854,0.599,5.653c0.653,1.398,1.785,2.476,3.138,3.186c0.251,0.567,0.742,1.039,1.529,1.248
		c2.5,0.663,4.96,0.621,7.135-0.223c-0.005,0.104-0.013,0.205-0.014,0.311c-0.01,1.363,0.167,1.409-0.725,2.289
		c-0.91,0.896-1.485,1.87-1.866,3.077c-0.587,1.855,1.174,4.258,3.104,4.258c2.407,0,4.169-4.33,5.512-0.023
		c0.811,2.597,4.816,2.167,4.795-0.649c-0.002-0.178-0.048-0.403-0.113-0.645c0.008-0.002,0.018-0.003,0.026-0.004
		c-0.385-1.236-0.867-2.271-1.524-3.129l-0.005-0.007C217.461,72.56,218.753,70.984,218.954,68.649z"/>
	<path d="M294.239,84.991c0.17-1.984,0.016-4.005-0.608-5.903c-0.234-0.71-0.684-1.171-1.213-1.431
		c-0.335-1.508-0.715-3.015-1.007-4.524c0.283-1.346-0.471-3.061-2.257-3.26c-0.106-0.35-0.3-0.696-0.626-1.017
		c-0.96-0.943-1.806-1.916-2.524-3.058c-0.014-0.022-0.022-0.047-0.037-0.07c0.431-0.487,0.875-0.941,1.111-1.34
		c1.162-1.95,1.823-6.319-1.675-6.326c-1.405-0.002-2.537,0.715-3.374,1.734c0.111-0.183,0.251-0.341,0.351-0.533
		c0.397-0.185,0.76-0.498,1.037-0.979c0.583-1.01,1.044-2.099,1.147-3.267c0.065-0.736-0.318-1.398-0.877-1.85
		c-0.006-0.358-0.008-0.713-0.038-1.089c-0.62-7.583-10.977-8.341-16.491-8.233c-11.019,0.214-20.614,4.624-30.314,9.331
		c-0.958,0.162-1.885,0.587-2.704,1.364c-1.672,1.585-2.913,3.431-3.903,5.419c-4.251,3.865-6.208,9.694-6.243,15.466
		c-0.569,1.275-0.865,2.665-0.866,4.051c-0.262,0.27-0.49,0.599-0.626,1.035c-2.704,8.641-1.527,20.309,1.747,28.77
		c1.006,2.6,2.629,3.81,5.364,3.402c1.259-0.188,2.089-1.848,2.594-2.826c0.049-0.095,0.123-0.18,0.177-0.273
		c0.047-0.012,0.094-0.013,0.14-0.028c1.602-0.54,2.291-1.742,3.188-3.055c0.013-0.018,0.018-0.037,0.028-0.056
		c1.445-0.867,3.045-1.516,4.413-1.975c0.389-0.131,0.701-0.328,0.95-0.564c0.078,0.009,0.152,0.033,0.232,0.041
		c0.921,0.096,1.562-0.266,1.938-0.824c0.508-0.009,1.015-0.028,1.521-0.092c0.706-0.089,1.232-1.127,0.41-1.517
		c-0.428-0.203-0.855-0.367-1.312-0.488c-0.118-0.031-0.226-0.033-0.326-0.02c-0.256-0.959-0.995-1.814-2.229-1.942
		c-2.5-0.26-4.004-3.451-5.061-5.342c-1.419-2.54-2.385-5.187-2.919-8.04c-0.013-0.079-0.034-0.154-0.054-0.228
		c-0.286-1.462-1.51-1.913-2.645-1.646c-0.219,0.023-0.432,0.081-0.637,0.155c-0.294-0.555-0.693-1.101-1.108-1.633
		c-0.06-0.254-0.154-0.511-0.319-0.773c-0.048-0.075-0.073-0.161-0.116-0.239c0.531-0.535,0.842-1.299,0.667-2.229
		c-0.102-0.542-0.173-1.099-0.228-1.665c0.34-0.191,0.613-0.509,0.842-0.888c0.412,0.014,0.835-0.077,1.24-0.317
		c0.038-0.001,0.07-0.011,0.108-0.011c1.472-0.011,2.902,0.343,4.374,0.039c2.774-0.572,4.883-1.847,6.948-3.753
		c2.854-2.635,4.04-6.244,3.743-9.812c7.397,3.579,19.562,5.465,28.034,2.769c-0.285,2.544,0.691,5.475,1.744,7.458
		c0.833,1.57,2.354,3.256,4.127,3.743c1.102,0.302,2.146,0.27,3.244-0.04c0.396-0.111,0.775-0.321,1.138-0.54
		c0.032,0.072,0.043,0.157,0.082,0.222c0.405,0.721,1.43,6.352-1.357,5.973c-1.407-0.192-2.5,0.323-3.003,1.704
		c-0.551,1.519-1.036,3.244-1.597,4.968c-0.288,0.276-0.518,0.645-0.641,1.136c-0.224,0.902-0.577,1.749-1.014,2.547
		c-0.469,0.093-0.922,0.313-1.308,0.648c-0.529,0.458-0.942,1.022-1.424,1.525c-0.464,0.486-0.703,1.119-0.701,1.75
		c-1.075,0.82-2.26,1.503-3.511,1.996c-2.896,1.14-1.635,5.863,1.297,4.708c0.089-0.035,0.175-0.082,0.264-0.119
		c0.374,0.085,0.793,0.077,1.262-0.085c0.472-0.164,0.906-0.359,1.333-0.558c0.175,0.058,0.347,0.121,0.515,0.186
		c0.162,0.483,0.521,0.928,1.154,1.246c2.395,1.202,3.772,4.001,6.4,4.738c1.262,1.857,3.138,2.467,5.713-0.441
		c0.179-0.203,0.305-0.416,0.406-0.631c1.067-0.659,2.014-1.54,2.758-2.613C294.697,99.745,295.568,91.569,294.239,84.991z"/>
	<path d="M356.847,58.992c0.522-0.755,0.891-1.649,0.956-2.855c0.054-0.999-0.751-2.06-1.739-2.357
		c0.162-0.383,0.31-0.779,0.431-1.198c0.391-1.351-0.327-2.35-1.321-2.782c-0.261-0.676-0.818-1.261-1.605-1.578
		c-0.176-0.071-0.365-0.122-0.547-0.185c-0.387-0.355-0.912-0.587-1.594-0.581c-0.162,0.001-0.34,0.005-0.503,0.006
		c-3.931-0.778-8.573-0.29-13.063,0.538c-11.887,1.01-24.912,3.972-30.856,13.007c-0.218,0.332-0.32,0.674-0.345,1.011
		c-3.058,0.229-4.836,2.921-5.449,6.174c-0.399,2.115-0.456,4.437,0.431,6.438c1.09,2.456,3.476,3.11,5.066,5.067
		c0.87,1.07,2.545,0.821,3.452,0c0.571-0.516,1.094-1.103,1.591-1.716c3.947-1.774,5.984-7.571,3.625-11.161
		c0.254-0.005,0.516-0.017,0.774-0.024c0.364,0.669,1.044,1.154,2.047,1.138c8.67-0.145,17.542-1.321,25.534-4.878
		c1.025-0.456,2.077-0.913,3.122-1.396c-0.003,0.019-0.003,0.04-0.005,0.06c-0.321,0.587-0.508,1.221-0.438,1.874
		c0.168,1.592,0.756,3.176,2.482,3.66c0.636,0.179,3.096,0.312,3.948,0.114c0.075,0.629,0.329,1.237,0.732,1.688
		c1.878,2.093,2.314,3.647,2.33,6.473c0.009,1.586,1.553,2.778,3.09,2.354C367.378,75.581,365.9,59.035,356.847,58.992z"/>
</g>
</svg>
