<?xml version="1.0" encoding="utf-8"?>
<!-- Generator: Adobe Illustrator 15.1.0, SVG Export Plug-In . SVG Version: 6.00 Build 0)  -->
<!DOCTYPE svg PUBLIC "-//W3C//DTD SVG 1.1//EN" "http://www.w3.org/Graphics/SVG/1.1/DTD/svg11.dtd">
<svg version="1.1" id="Layer_1" xmlns="http://www.w3.org/2000/svg" xmlns:xlink="http://www.w3.org/1999/xlink" x="0px" y="0px"
	 width="407.592px" height="338.589px" viewBox="0 0 407.592 338.589" enable-background="new 0 0 407.592 338.589"
	 xml:space="preserve">
<g>
	<g>
		<path d="M325.943,124.302c0.083,0.651,0.142,1.364-0.13,1.981c-0.343,0.771,0.796,1.445,1.142,0.667
			c0.378-0.854,0.428-1.729,0.311-2.648C327.16,123.468,325.836,123.458,325.943,124.302L325.943,124.302z"/>
	</g>
	<g>
		<g>
			<path d="M151.741,70.369c0.812,2.154,3.76,2.71,4.963,0.583c1.027-1.816,0.631-4.739-0.054-6.609
				c-0.289-0.794-1.567-0.452-1.273,0.351c0.429,1.174,0.563,2.438,0.55,3.681c-0.005,0.646-0.097,1.316-0.364,1.91
				c-0.517,1.146-2.144,0.803-2.549-0.267C152.717,69.228,151.438,69.569,151.741,70.369L151.741,70.369z"/>
		</g>
		<g>
			<path d="M146.732,64.838c1.869,0.415,3.772,0.597,5.672,0.809c0.847,0.095,0.837-1.229,0-1.322
				c-1.782-0.2-3.567-0.373-5.32-0.761C146.252,63.379,145.901,64.654,146.732,64.838L146.732,64.838z"/>
		</g>
		<g>
			<path d="M157.973,66.657c1.679,0.467,3.399,0.711,5.135,0.85c0.85,0.069,0.844-1.254,0-1.322c-1.62-0.13-3.215-0.367-4.784-0.803
				C157.501,65.153,157.151,66.429,157.973,66.657L157.973,66.657z"/>
		</g>
		<g>
			<path d="M149.405,64.129c0.207-1.44,0.584-2.817,1.39-4.043c0.32-0.486,2.013-2.283,2.134-1.063
				c0.16,1.609-0.509,3.477-1.08,4.962c-0.306,0.797,0.974,1.139,1.275,0.351c0.433-1.126,0.755-2.306,0.974-3.493
				c0.191-1.031,0.39-2.359-0.366-3.214c-0.94-1.062-2.663,0.26-3.363,0.919c-1.398,1.316-1.976,3.396-2.239,5.23
				C148.011,64.611,149.284,64.97,149.405,64.129L149.405,64.129z"/>
		</g>
		<g>
			<path d="M152.236,58.713c-0.961,0.427-1.255,1.604-1.684,2.468c-0.469,0.944-1.116,1.803-0.935,2.906
				c0.075,0.455,0.624,0.559,0.971,0.396c1.328-0.622,1.531-3.114,1.444-4.373c-0.034-0.479-0.542-0.853-0.995-0.571
				c-1.099,0.683-2.572,3.288-1.767,4.541c0.191,0.296,0.589,0.433,0.904,0.237c1.601-0.995,1.818-3.288,1.939-4.992
				c0.044-0.614-0.733-0.823-1.129-0.468c-0.866,0.777-3.207,5.704-0.653,5.616c1.082-0.038,1.699-1.562,2.062-2.372
				c0.422-0.943,0.878-1.989,1.001-3.025c0.064-0.552-0.785-0.907-1.129-0.467c-1.131,1.449-2.262,3.952-1.425,5.76
				c0.142,0.305,0.632,0.435,0.904,0.237c0.555-0.402,0.749-0.92,0.879-1.581c0.192-0.966,0.426-1.932,0.748-2.864
				c-0.427-0.117-0.85-0.234-1.276-0.352c-0.287,1.309-1.078,2.516-0.932,3.895c0.049,0.459,0.537,0.876,0.994,0.571
				c0.083-0.055,0.166-0.109,0.249-0.165c0.706-0.47,0.045-1.616-0.667-1.142c-0.083,0.055-0.166,0.11-0.249,0.165
				c0.331,0.19,0.663,0.38,0.995,0.571c-0.131-1.236,0.627-2.363,0.886-3.543c0.183-0.837-0.999-1.156-1.276-0.352
				c-0.235,0.684-0.407,1.381-0.573,2.084c-0.085,0.357-0.129,1.342-0.444,1.571c0.301,0.079,0.602,0.158,0.904,0.237
				c-0.536-1.158,0.512-3.252,1.22-4.158c-0.377-0.155-0.752-0.312-1.129-0.468c-0.035,0.296-0.347,1.144-0.517,1.602
				c-0.29,0.783-0.625,1.649-1.161,2.301c-0.341,0.415,0.094,0.141,0.098,0.205c-0.022-0.417,0.163-0.867,0.296-1.254
				c0.234-0.679,0.578-1.643,1.131-2.138c-0.377-0.156-0.751-0.312-1.129-0.467c-0.083,1.167-0.17,3.159-1.284,3.851
				c0.301,0.079,0.602,0.158,0.904,0.237c-0.349-0.543,0.815-2.435,1.292-2.732c-0.331-0.19-0.662-0.38-0.994-0.571
				c0.054,0.762,0.021,2.852-0.788,3.231c0.322,0.131,0.647,0.263,0.971,0.395c-0.106-0.648,0.606-1.498,0.885-2.058
				c0.288-0.582,0.483-1.539,1.124-1.824C153.682,59.508,153.008,58.369,152.236,58.713L152.236,58.713z"/>
		</g>
		<g>
			<path d="M161.689,66.282c-0.01-1.809-0.356-4.363,0.962-5.813c0.77-0.847,0.66,1.135,0.645,1.553
				c-0.057,1.559-0.803,3.022-1.307,4.47c0.423,0.117,0.85,0.234,1.273,0.351c0.412-1.266,0.664-2.528,0.886-3.835
				c0.155-0.903,0.387-1.964-0.125-2.79c-0.223-0.358-0.732-0.444-1.038-0.134c-1.481,1.503-2.37,4.623-1.426,6.587
				c0.182,0.38,0.763,0.428,1.038,0.134c1.111-1.186,1.262-3.339,1.076-4.875c-0.062-0.513-0.705-0.953-1.128-0.468
				c-1.201,1.375-1.576,3.463-1.163,5.217c0.195,0.83,1.47,0.478,1.275-0.351c-0.298-1.267-0.055-2.927,0.822-3.93
				c-0.377-0.156-0.753-0.312-1.128-0.467c0.14,1.157,0.16,3.034-0.688,3.94c0.347,0.044,0.692,0.089,1.039,0.133
				c-0.667-1.388,0.2-3.95,1.219-4.984c-0.346-0.045-0.692-0.089-1.038-0.134c0.38,0.612,0.007,1.657-0.097,2.313
				c-0.181,1.127-0.444,2.207-0.795,3.293c-0.267,0.817,0.997,1.148,1.273,0.351c0.496-1.422,3.089-7.626-0.167-7.982
				c-1.264-0.139-2.088,1.569-2.385,2.511c-0.491,1.559-0.354,3.301-0.344,4.911C160.371,67.134,161.693,67.134,161.689,66.282
				L161.689,66.282z"/>
		</g>
		<g>
			<path d="M161.138,57.465c0.671-0.003,1.321-0.038,1.926,0.296c0.747,0.412,1.413-0.73,0.667-1.142
				c-0.822-0.453-1.674-0.48-2.592-0.476C160.286,56.146,160.285,57.469,161.138,57.465L161.138,57.465z"/>
		</g>
		<g>
			<path d="M152.222,55.844c0.882-0.184,1.613,0.064,2.276,0.656c0.634,0.565,1.573-0.366,0.935-0.935
				c-1.033-0.922-2.198-1.281-3.562-0.996C151.035,54.743,151.39,56.018,152.222,55.844L152.222,55.844z"/>
		</g>
		<g>
			<path d="M143.312,51.184c7.626,0.733,17.088-0.631,23.287-5.543c3.851-3.05,7.95-9.891,2.023-13.013
				c-5.055-2.663-12.449-1.615-17.726-0.319c-8.709,2.137-16.304,7.686-21.296,15.07c-0.479,0.709,0.666,1.369,1.142,0.667
				c7.314-10.817,20.725-17.196,33.762-15.26c2.313,0.343,5.515,1.195,5.845,3.94c0.45,3.737-3.149,6.995-5.913,8.815
				c-5.937,3.912-14.217,4.982-21.124,4.319C142.463,49.78,142.472,51.103,143.312,51.184L143.312,51.184z"/>
		</g>
		<g>
			<path d="M130.892,47.867c-0.532-1.449-2.02-1.779-3.062-0.594c-1.127,1.28-0.849,3.126,0.386,4.213
				c0.639,0.561,1.576-0.371,0.936-0.935c-0.678-0.598-0.948-1.389-0.478-2.206c0.279-0.484,0.718-0.738,0.943-0.127
				C129.908,49.012,131.187,48.669,130.892,47.867L130.892,47.867z"/>
		</g>
		<g>
			<path d="M128.271,49.696c-2.627,0.074-4.223,3.392-5.082,5.506c-1.813,4.464-2.018,9.122-0.763,13.762
				c0.222,0.823,1.498,0.474,1.276-0.351c-0.913-3.376-0.999-6.639-0.258-10.056c0.403-1.848,2.247-7.465,4.827-7.538
				C129.122,50.995,129.123,49.672,128.271,49.696L128.271,49.696z"/>
		</g>
		<g>
			<path d="M144.883,51.432c0.547,5.434-3.376,12.368-8.937,13.579c-0.833,0.181-0.481,1.456,0.351,1.274
				c6.103-1.328,10.512-8.858,9.908-14.853C146.12,50.592,144.798,50.583,144.883,51.432L144.883,51.432z"/>
		</g>
		<g>
			<path d="M138.956,64.562c-0.519,1.635-1.416,3.221-2.557,4.502c-0.477,0.535-1.139,1.007-1.803,1.274
				c-1.653,0.665-0.659-1.938-0.382-2.539c0.354-0.77-0.785-1.441-1.142-0.668c-0.583,1.264-1.112,2.43-0.434,3.764
				c0.499,0.98,1.701,0.963,2.573,0.612c2.571-1.034,4.228-4.102,5.021-6.594C140.49,64.1,139.213,63.753,138.956,64.562
				L138.956,64.562z"/>
		</g>
		<g>
			<path d="M132.32,69.863c-0.162,1.687-1.909,1.44-2.542,0.361c-0.395-0.671-0.446-1.563-0.483-2.317
				c-0.067-1.356,0.111-2.752,0.439-4.066c0.207-0.828-1.069-1.179-1.276-0.352c-0.582,2.332-0.891,5.174,0.178,7.403
				c1.229,2.569,4.751,1.637,5.005-1.028C133.724,69.014,132.4,69.021,132.32,69.863L132.32,69.863z"/>
		</g>
		<g>
			<path d="M167.859,45.398c0.853,0,0.853-1.323,0-1.323C167.007,44.076,167.007,45.398,167.859,45.398L167.859,45.398z"/>
		</g>
		<g>
			<path d="M167.694,45.398c5.114,0.387,5.458,7.773,5.32,11.519c-0.209,5.741-3.543,10.633-8.216,13.78
				c-0.704,0.473-0.042,1.619,0.667,1.142c5.758-3.878,8.859-9.602,8.907-16.514c0.03-4.322-1.362-10.847-6.678-11.249
				C166.843,44.011,166.85,45.334,167.694,45.398L167.694,45.398z"/>
		</g>
		<g>
			<path d="M163.75,47.227c2.779,8.256,1.749,17.492-0.617,25.739c-2.186,7.624-6.597,14.583-13.811,18.243
				c-0.762,0.386-0.091,1.527,0.667,1.142c7.02-3.56,11.276-9.979,13.849-17.242c3.096-8.744,4.173-19.366,1.188-28.233
				C164.755,46.072,163.478,46.417,163.75,47.227L163.75,47.227z"/>
		</g>
		<g>
			<path d="M128.107,66.895c-2.208-1.331-5.48,0.41-5.679,2.95c-0.248,3.145,1.919,4.957,4.933,4.894
				c0.852-0.018,0.852-1.34,0-1.322c-1.958,0.041-3.464-0.726-3.638-2.839c-0.149-1.812,2-3.575,3.718-2.541
				C128.173,68.478,128.837,67.334,128.107,66.895L128.107,66.895z"/>
		</g>
		<g>
			<path d="M126.558,74.563c-1.843,6.548,2.196,12.507,7.591,15.876c4.863,3.038,12.821,4.278,17.762,0.822
				c0.693-0.484,0.033-1.632-0.667-1.141c-9.347,6.534-26.687-3.564-23.411-15.206C128.065,74.092,126.79,73.744,126.558,74.563
				L126.558,74.563z"/>
		</g>
		<g>
			<path d="M132.762,89.919c0.053,4.42,1.405,11.566,6.68,12.614c1.985,0.395,3.597-1.465,4.342-3.046
				c0.957-2.03,0.875-4.517,0.415-6.658c-0.181-0.833-1.454-0.48-1.276,0.352c0.58,2.69-0.309,10.841-5.021,7.186
				c-3.102-2.406-3.773-6.803-3.817-10.447C134.074,89.066,132.751,89.066,132.762,89.919L132.762,89.919z"/>
		</g>
		<g>
			<path d="M142.923,74.171c1.457,5.113,9.9,7.004,13.921,4.308c0.702-0.472,0.042-1.618-0.669-1.142
				c-3.213,2.155-10.75,0.792-11.976-3.517C143.965,73,142.688,73.349,142.923,74.171L142.923,74.171z"/>
		</g>
		<g>
			<path d="M148.721,82.263c0.509,1.137,1.76,1.233,2.84,1.021c0.837-0.164,0.481-1.438-0.352-1.275
				c-0.535,0.105-1.096,0.148-1.347-0.413C149.514,80.819,148.375,81.492,148.721,82.263L148.721,82.263z"/>
		</g>
		<g>
			<path d="M144.046,94.91c2.073,0.297,3.987,0.169,5.674,1.729c1.502,1.392,2.07,3.769,2.735,5.632
				c1.385,3.887,1.511,8.24,1.519,12.333c0.002,0.853,1.325,0.853,1.323,0c-0.011-5.217-0.574-10.094-2.402-14.992
				c-0.637-1.708-1.497-3.22-2.839-4.462c-1.509-1.397-3.779-1.247-5.659-1.515C143.563,93.515,143.204,94.79,144.046,94.91
				L144.046,94.91z"/>
		</g>
		<g>
			<path d="M153.93,116.288c8.766-1.461,10.97,6.997,9.862,13.844c-0.135,0.834,1.139,1.191,1.275,0.351
				c0.622-3.844,0.674-7.742-1.206-11.254c-1.99-3.715-6.408-4.862-10.283-4.215C152.739,115.153,153.097,116.428,153.93,116.288
				L153.93,116.288z"/>
		</g>
		<g>
			<path d="M154.082,117.946c-0.432,0.207-1.404-0.494-1.786-0.676c-0.47-0.225-0.94-0.386-1.462-0.406
				c-1.252-0.049-2.292,0.836-2.588,2.001c-0.648,2.552,2.672,4.122,4.683,4.334c0.847,0.09,0.838-1.234,0-1.323
				c-1.218-0.128-5.083-2.065-2.83-3.503c1.455-0.927,3.021,1.495,4.651,0.713C155.518,118.719,154.848,117.579,154.082,117.946
				L154.082,117.946z"/>
		</g>
		<g>
			<path d="M152.075,122.402c-1.151,1.136-2.065,2.484-2.579,4.023c-0.278,0.831-0.468,2.658,0.728,2.936
				c1.299,0.302,2.505-0.79,3.35-1.642c1.211-1.218,2.102-2.791,2.789-4.351c0.341-0.773-0.798-1.446-1.142-0.667
				c-0.791,1.799-1.852,3.638-3.435,4.853c-0.163,0.125-1.111,0.866-1.175,0.294c-0.07-0.629,0.221-1.323,0.475-1.879
				c0.452-0.993,1.152-1.87,1.923-2.632C153.617,122.737,152.682,121.802,152.075,122.402L152.075,122.402z"/>
		</g>
		<g>
			<path d="M153.688,125.485c-0.854,1.193-1.826,3.328-1.102,4.784c0.545,1.096,1.748,1.585,2.874,1.066
				c2.273-1.048,3.795-4.078,4.762-6.259c0.342-0.772-0.797-1.446-1.142-0.668c-0.746,1.685-1.716,3.364-2.943,4.74
				c-0.455,0.509-1.384,1.491-2.103,0.893c-1.03-0.859,0.212-3.073,0.795-3.888C155.328,125.458,154.18,124.799,153.688,125.485
				L153.688,125.485z"/>
		</g>
		<g>
			<path d="M156.699,128.645c-0.493,1.189-0.598,2.616,0.058,3.764c0.474,0.827,1.53,1.296,2.411,0.845
				c1.559-0.799,2.245-3.087,2.717-4.644c0.248-0.818-1.029-1.166-1.276-0.351c-0.351,1.164-0.79,2.339-1.505,3.331
				c-0.306,0.423-0.655,0.697-1.079,0.3c-0.739-0.691-0.382-2.098-0.053-2.894C158.301,128.208,157.02,127.868,156.699,128.645
				L156.699,128.645z"/>
		</g>
		<g>
			<path d="M159.793,130.431c-0.306,0.963-0.383,2.213,0.327,3.03c0.629,0.722,1.734,1.04,2.638,0.702
				c1.719-0.642,2.268-3.017,2.457-4.627c0.098-0.846-1.224-0.837-1.323,0c-0.124,1.06-0.438,2.3-1.18,3.101
				c-0.401,0.431-0.875,0.39-1.369,0.152c-0.69-0.33-0.45-1.455-0.275-2.007C161.328,129.967,160.049,129.621,159.793,130.431
				L159.793,130.431z"/>
		</g>
		<g>
			<path d="M150.834,107.055c0-0.11,0-0.22,0-0.331c0-0.853-1.323-0.853-1.323,0c0,0.11,0,0.22,0,0.331
				C149.511,107.908,150.834,107.908,150.834,107.055L150.834,107.055z"/>
		</g>
		<g>
			<path d="M149.567,106.284c-0.026,3.802-0.318,7.588,0.298,11.361c0.137,0.84,1.412,0.482,1.276-0.352
				c-0.596-3.646-0.276-7.336-0.252-11.009C150.896,105.431,149.573,105.432,149.567,106.284L149.567,106.284z"/>
		</g>
		<g>
			<path d="M146.647,102.978c0.006,0.218,0.031,0.404,0.078,0.616c0.182,0.833,1.457,0.48,1.276-0.352
				c-0.01-0.088-0.021-0.176-0.031-0.265C147.942,102.128,146.62,102.125,146.647,102.978L146.647,102.978z"/>
		</g>
		<g>
			<path d="M139.346,107.634c-0.072,0.66-0.083,1.32-0.083,1.983c0,0.853,1.323,0.853,1.323,0c0-0.664,0.01-1.323,0.083-1.983
				C140.761,106.787,139.438,106.796,139.346,107.634L139.346,107.634z"/>
		</g>
		<g>
			<path d="M122.934,118.574c3.249,4.861,7.497,8.821,11.964,12.549c4.3,3.591,8.702,7.28,13.671,9.91
				c3.865,2.045,9.121,3.22,13.353,1.689c4.091-1.479,4.625-6.301,2.817-9.634c-0.408-0.75-1.549-0.082-1.141,0.667
				c4.401,8.116-5.668,8.837-10.547,7.638c-4.408-1.084-8.298-4.129-11.817-6.852c-6.271-4.853-12.711-9.983-17.158-16.634
				C123.604,117.202,122.458,117.863,122.934,118.574L122.934,118.574z"/>
		</g>
		<g>
			<path d="M130.869,101.053c4.853,7.35,10.201,14.175,17.868,18.751c0.734,0.438,1.399-0.706,0.668-1.142
				c-7.482-4.465-12.661-11.107-17.395-18.277C131.543,99.677,130.396,100.339,130.869,101.053L130.869,101.053z"/>
		</g>
		<g>
			<path d="M148.52,141.272c-0.106,13.828,1.741,27.472,5.462,40.787c0.229,0.82,1.504,0.472,1.274-0.351
				c-3.688-13.203-5.519-26.725-5.414-40.436C149.849,140.419,148.526,140.42,148.52,141.272L148.52,141.272z"/>
		</g>
		<g>
			<path d="M116.633,92.921c-3.475,3.188-3.747,9.471-4.374,13.812c-1.142,7.913-2.973,15.713-4.104,23.638
				c-2.579,18.078-3.365,36.392-2.509,54.627c0.04,0.849,1.363,0.854,1.322,0c-0.814-17.35-0.085-34.709,2.144-51.935
				c1.043-8.063,2.84-15.961,4.127-23.976c0.737-4.581,0.661-11.868,4.329-15.233C118.197,93.278,117.26,92.346,116.633,92.921
				L116.633,92.921z"/>
		</g>
		<g>
			<path d="M133.48,89.624c-2.375-1.525-6.008-1.259-8.695-0.89c-3.963,0.544-7.184,2.482-9.344,5.865
				c-0.461,0.721,0.684,1.384,1.141,0.668c1.81-2.835,4.39-4.443,7.65-5.134c2.432-0.515,6.457-0.731,8.582,0.632
				C133.533,91.228,134.195,90.083,133.48,89.624L133.48,89.624z"/>
		</g>
		<g>
			<path d="M105.972,185.571c7.468,3.483,16.658,3.863,24.763,3.466c8.458-0.413,16.682-2.767,24.219-6.583
				c0.76-0.386,0.091-1.525-0.668-1.142c-7.404,3.75-15.275,5.85-23.55,6.402c-7.804,0.521-16.924,0.059-24.095-3.286
				C105.873,184.071,105.199,185.21,105.972,185.571L105.972,185.571z"/>
		</g>
		<g>
			<path d="M136.532,194.655c-6.896,37.992-15.255,76.874-12.882,115.662c0.051,0.847,1.374,0.852,1.322,0
				c-2.366-38.681,5.958-77.423,12.834-115.31C137.958,194.173,136.683,193.817,136.532,194.655L136.532,194.655z"/>
		</g>
		<g>
			<path d="M152.156,182.487c-1.099,10.504-2.965,20.9-4.56,31.335c-1.556,10.18-2.495,20.413-3.189,30.685
				c-1.399,20.674-1.291,41.391,0.009,62.066c0.054,0.848,1.377,0.852,1.323,0c-1.274-20.268-1.361-40.547-0.091-60.817
				c0.689-11,1.751-21.945,3.416-32.841c1.548-10.134,3.349-20.227,4.415-30.428C153.566,181.639,152.244,181.647,152.156,182.487
				L152.156,182.487z"/>
		</g>
		<g>
			<path d="M132.382,217.752c-0.671,29.866-4.665,59.592,2.703,88.997c0.207,0.826,1.481,0.477,1.275-0.352
				c-7.338-29.293-3.324-58.899-2.655-88.646C133.724,216.898,132.402,216.9,132.382,217.752L132.382,217.752z"/>
		</g>
		<g>
			<path d="M110.722,187.116c-5.512,41.507-5.372,83.297,5.092,124.042c0.212,0.825,1.487,0.475,1.276-0.352
				c-10.438-40.638-10.543-82.299-5.045-123.69C112.156,186.272,110.831,186.283,110.722,187.116L110.722,187.116z"/>
		</g>
		<g>
			<path d="M135.458,307.198c1.394,1.036,3.142,0.929,4.797,0.971c1.809,0.047,3.547-0.031,4.984-1.239
				c0.655-0.549-0.287-1.48-0.935-0.935c-1.128,0.948-2.66,0.896-4.049,0.853c-1.426-0.045-2.921,0.105-4.13-0.79
				C135.44,305.548,134.782,306.696,135.458,307.198L135.458,307.198z"/>
		</g>
		<g>
			<path d="M137.056,305.435c0.42,0.278,0.885,0.354,1.381,0.367c0.852,0.022,0.851-1.3,0-1.323
				c-0.274-0.008-0.483-0.032-0.713-0.186C137.011,303.818,136.35,304.966,137.056,305.435L137.056,305.435z"/>
		</g>
		<g>
			<path d="M116.095,311.446c2.229,2.197,6.791,1.761,8.531-0.85c0.475-0.71-0.671-1.372-1.142-0.665
				c-1.266,1.896-4.861,2.149-6.454,0.581C116.421,309.913,115.485,310.849,116.095,311.446L116.095,311.446z"/>
		</g>
		<g>
			<path d="M119.251,310.681c0.4,0.116,0.778,0.135,1.178,0c0.803-0.271,0.459-1.548-0.351-1.275c-0.158,0.08-0.315,0.08-0.476,0
				C118.781,309.17,118.432,310.445,119.251,310.681L119.251,310.681z"/>
		</g>
		<g>
			<path d="M121.875,188.483c-0.937,3.499-6.708,10.847-10.93,8.751c-0.762-0.378-1.431,0.762-0.667,1.142
				c5.182,2.572,11.688-5.118,12.873-9.542C123.371,188.009,122.095,187.659,121.875,188.483L121.875,188.483z"/>
		</g>
		<g>
			<path d="M109.951,199.679c-0.081,1.508,1.829,1.064,2.647,0.681c0.772-0.361,0.101-1.501-0.667-1.142
				c-0.141,0.065-0.284,0.114-0.434,0.159c-0.092,0.027-0.184,0.047-0.277,0.063c-0.222-0.028-0.205,0.051,0.054,0.239
				C111.317,198.826,109.994,198.831,109.951,199.679L109.951,199.679z"/>
		</g>
		<g>
			<path d="M136.476,309.206c-0.36,2.37-0.783,4.798-0.342,7.183c0.364,1.973,2.859,2.038,4.424,2.221
				c6.709,0.784,13.326,2.063,20.112,1.597c2.369-0.162,6.781-1.8,3.105-4.306c-6.537-4.461-14.772-6.654-22.271-8.809
				c-0.822-0.236-1.17,1.04-0.352,1.275c6.145,1.765,12.006,3.716,17.791,6.46c0.548,0.26,6.077,2.823,4.248,3.596
				c-1.518,0.641-3.46,0.542-5.077,0.559c-4.771,0.058-9.479-0.528-14.182-1.277c-1.596-0.256-5.912,0.049-6.524-1.667
				c-0.663-1.863,0.058-4.608,0.343-6.479C137.878,308.724,136.605,308.366,136.476,309.206L136.476,309.206z"/>
		</g>
		<g>
			<path d="M136.453,309.051c0.075,3.653,5.6,2.826,7.183,0.747c0.517-0.678-0.633-1.335-1.142-0.666
				c-0.818,1.074-4.677,1.979-4.719-0.081C137.757,308.201,136.435,308.198,136.453,309.051L136.453,309.051z"/>
		</g>
		<g>
			<path d="M117.271,314.021c-0.658,2.097-1.805,4.806-1.375,7.05c0.413,2.149,2.861,2.479,4.686,2.94
				c6.182,1.564,12.055,3.732,18.438,4.414c2.578,0.274,7.341-0.28,4.305-3.695c-1.835-2.064-4.875-3.659-7.153-5.148
				c-4.241-2.77-8.924-4.836-13.511-6.951c-0.77-0.355-1.441,0.785-0.667,1.142c5.691,2.626,11.337,5.273,16.434,8.963
				c0.51,0.369,5.477,3.749,4.196,4.27c-1.504,0.612-3.802,0.103-5.337-0.117c-4.046-0.573-8.006-1.57-11.9-2.795
				c-2.242-0.706-4.516-1.294-6.751-2.006c-2.854-0.909-0.656-5.896-0.088-7.716C118.802,313.556,117.526,313.208,117.271,314.021
				L117.271,314.021z"/>
		</g>
		<g>
			<path d="M117.298,313.869c-0.471,3.507,5.153,3.514,6.948,1.779c0.613-0.594-0.323-1.527-0.935-0.937
				c-1.049,1.015-4.982,1.327-4.69-0.843C118.733,313.025,117.41,313.037,117.298,313.869L117.298,313.869z"/>
		</g>
		<g>
			<path d="M204.533,65.245c0.386-1.524,2.893-2.002,3.115-0.162c0.115,0.955-0.444,2.577-1.604,2.548
				c-0.854-0.021-0.851,1.302,0,1.323c2.247,0.055,3.395-2.878,2.745-4.73c-0.957-2.734-4.908-1.793-5.532,0.67
				C203.048,65.721,204.324,66.071,204.533,65.245L204.533,65.245z"/>
		</g>
		<g>
			<path d="M195.372,60.665c2.395,0.619,4.848,0.231,7.284,0.437c0.85,0.072,0.843-1.25,0-1.322
				c-2.312-0.197-4.661,0.196-6.932-0.39C194.896,59.177,194.546,60.452,195.372,60.665L195.372,60.665z"/>
		</g>
		<g>
			<path d="M209.339,60.665c2.189,0.358,4.413,0.277,6.623,0.272c0.853-0.002,0.853-1.324,0-1.322
				c-2.083,0.004-4.207,0.113-6.271-0.224C208.857,59.253,208.499,60.528,209.339,60.665L209.339,60.665z"/>
		</g>
		<g>
			<path d="M198.908,59.477c-0.501-0.611-0.273-1.792-0.111-2.478c0.044-0.186,0.635-1.873,1.075-1.51
				c0.438,0.36,0.338,1.393,0.318,1.88c-0.027,0.661-0.126,1.458-0.502,2.021c0.411,0.111,0.821,0.223,1.231,0.334
				c-0.018-1.358,0.273-2.677,0.088-4.033c-0.047-0.345-0.505-0.565-0.813-0.461c-1.633,0.543-2.489,3.319-1.34,4.631
				c0.251,0.286,0.677,0.223,0.935,0c0.944-0.811,0.991-2.328,0.722-3.453c-0.101-0.418-0.612-0.604-0.971-0.395
				c-0.943,0.547-1.085,1.724-1.1,2.72c-0.014,0.853,1.308,0.852,1.322,0c0.008-0.47-0.023-1.306,0.444-1.578
				c-0.323-0.132-0.647-0.263-0.971-0.396c0.164,0.684,0.198,1.67-0.381,2.167c0.311,0,0.624,0,0.935,0
				c-0.461-0.527,0.122-2.211,0.756-2.422c-0.271-0.153-0.542-0.307-0.814-0.461c0.167,1.22-0.151,2.458-0.134,3.682
				c0.009,0.681,0.873,0.871,1.232,0.334c0.858-1.287,1.41-5.44-0.725-5.872c-2.795-0.564-3.393,4.687-2.132,6.225
				C198.514,61.072,199.444,60.131,198.908,59.477L198.908,59.477z"/>
		</g>
		<g>
			<path d="M212.218,59.098c-0.5-0.371-0.427-1.495-0.388-2.021c0.015-0.213,0.378-1.652,0.789-1.254
				c0.361,0.348,0.163,1.488,0.13,1.919c-0.05,0.661-0.188,1.32-0.203,1.983c-0.018,0.732,1.181,0.922,1.299,0.176
				c0.226-1.419,0.496-3.369-0.611-4.5c-0.229-0.235-0.713-0.282-0.935,0c-0.555,0.705-0.808,1.643-0.905,2.525
				c-0.077,0.689-0.061,2.057,0.875,2.226c1.721,0.309,1.138-2.724,0.738-3.57c-0.221-0.467-0.901-0.392-1.142,0
				c-0.236,0.386-0.331,0.768-0.367,1.215c-0.068,0.85,1.254,0.844,1.323,0c0-0.204,0.062-0.387,0.186-0.548
				c-0.381,0-0.761,0-1.142,0c0.195,0.412,0.317,1.376,0.196,1.897c0.541,0.074,0.759-0.02,0.657-0.284
				c-0.031-0.109-0.045-0.221-0.041-0.335c-0.013-0.283,0.033-0.568,0.085-0.846c0.08-0.424,0.198-0.997,0.471-1.346
				c-0.311,0-0.624,0-0.935,0c0.703,0.719,0.412,2.322,0.271,3.214c0.434,0.059,0.866,0.117,1.299,0.176
				c0.033-1.399,1.081-5.32-1.401-5.257c-2.52,0.065-2.49,4.608-0.916,5.772C212.237,60.748,212.896,59.6,212.218,59.098
				L212.218,59.098z"/>
		</g>
		<g>
			<path d="M210.628,53.144c0.941-0.314,1.957-0.218,2.797,0.319c0.721,0.461,1.383-0.684,0.667-1.142
				c-1.116-0.714-2.562-0.87-3.814-0.452C209.473,52.137,209.818,53.415,210.628,53.144L210.628,53.144z"/>
		</g>
		<g>
			<path d="M198.562,52.152c1.107-0.414,2.374-0.219,3.505,0c0.833,0.161,1.188-1.113,0.352-1.274c-1.353-0.262-2.883-0.497-4.208,0
				C197.418,51.173,197.761,52.451,198.562,52.152L198.562,52.152z"/>
		</g>
		<g>
			<path d="M194.969,42.588c0.519,3.956-1.253,7.71-3.015,11.149c-1.518,2.962-3.6,7.222-7.078,8.132
				c-0.824,0.215-0.475,1.491,0.351,1.274c3.463-0.905,5.542-4.555,7.184-7.459c2.2-3.89,4.481-8.522,3.881-13.097
				C196.182,41.755,194.857,41.745,194.969,42.588L194.969,42.588z"/>
		</g>
		<g>
			<path d="M186.861,59.535c0.178-0.269,0.346-0.541,0.496-0.827c0.395-0.754-0.746-1.423-1.142-0.667
				c-0.15,0.286-0.318,0.557-0.496,0.826C185.248,59.58,186.393,60.241,186.861,59.535L186.861,59.535z"/>
		</g>
		<g>
			<path d="M194.646,41.93c2.547,4.701,8.696,5.179,13.436,6.054c5.048,0.932,10.785,1.13,14.364-3.146
				c0.543-0.648-0.388-1.589-0.935-0.935c-3.304,3.948-8.464,3.585-13.078,2.805c-4.286-0.725-10.375-1.258-12.646-5.447
				C195.381,40.513,194.239,41.181,194.646,41.93L194.646,41.93z"/>
		</g>
		<g>
			<path d="M217.886,47.454c-0.296,2.173-0.17,4.367,1.333,6.102c1.636,1.887,4.051,2.872,6.505,2.15
				c0.816-0.24,0.469-1.517-0.351-1.275c-1.884,0.554-3.626-0.152-4.963-1.514c-1.351-1.377-1.495-3.298-1.249-5.112
				C219.276,46.972,218.001,46.612,217.886,47.454L217.886,47.454z"/>
		</g>
		<g>
			<path d="M222.68,56.05c-0.159,0.804-0.187,1.593-0.106,2.407c0.082,0.841,1.406,0.849,1.322,0
				c-0.069-0.693-0.077-1.37,0.059-2.056C224.12,55.568,222.845,55.213,222.68,56.05L222.68,56.05z"/>
		</g>
		<g>
			<path d="M188.524,39.952c-3.14-2.273-5.811,1.668-6.836,4.289c-2.087,5.336-1.857,12.381-0.333,17.781
				c0.232,0.82,1.508,0.471,1.276-0.351c-1.104-3.909-1.161-7.72-0.721-11.726c0.241-2.192,1.811-11.844,5.948-8.851
				C188.551,41.594,189.209,40.446,188.524,39.952L188.524,39.952z"/>
		</g>
		<g>
			<path d="M188.003,39.954c1.354-3.508,5.69-5.746,8.867-7.261c3.931-1.875,8.29-2.929,12.618-3.224
				c4.174-0.284,8.376,0.463,12.153,2.252c2.477,1.173,4.941,3.021,5.176,5.961c0.19,2.387-1.854,4.488-3.471,5.926
				c-0.638,0.568,0.3,1.5,0.935,0.935c3.028-2.693,5.044-6.304,2.823-10.148c-2.246-3.889-8.541-5.679-12.642-6.093
				c-5.645-0.57-11.042,0.409-16.317,2.421c-4.146,1.581-9.714,4.462-11.418,8.879C186.419,40.399,187.698,40.741,188.003,39.954
				L188.003,39.954z"/>
		</g>
		<g>
			<path d="M225.374,43.391c3.368,0.467,3.562,5.138,3.513,7.603c-0.057,2.824-1.086,5.708-3.061,7.74
				c-0.594,0.611,0.34,1.548,0.935,0.935c2.503-2.576,3.395-6.014,3.464-9.532c0.062-3.046-0.947-7.529-4.5-8.021
				C224.892,42,224.532,43.274,225.374,43.391L225.374,43.391z"/>
		</g>
		<g>
			<path d="M223.641,60.389c0.849-1.099,2.314-0.587,2.703,0.613c0.249,0.767,0.063,1.713-0.122,2.468
				c-0.392,1.608-1.512,3.389-3.363,2.614c-0.787-0.33-1.126,0.951-0.352,1.275c3.144,1.317,4.894-2.257,5.217-4.813
				c0.185-1.462-0.206-2.84-1.456-3.692c-1.313-0.895-2.896-0.265-3.77,0.867C221.977,60.396,223.128,61.054,223.641,60.389
				L223.641,60.389z"/>
		</g>
		<g>
			<path d="M185.771,63.24c-0.864-3.295-4.858-1.539-5.806,0.734c-1.075,2.573,1.593,6.659,4.427,4.806
				c0.71-0.464,0.049-1.61-0.666-1.142c-1.844,1.206-2.894-1.699-2.542-3.144c0.309-1.265,2.826-2.756,3.311-0.903
				C184.712,64.417,185.987,64.066,185.771,63.24L185.771,63.24z"/>
		</g>
		<g>
			<path d="M184.224,67.631c-0.801,11.765,12.992,21.382,23.979,19.185c11.101-2.218,14.638-13.642,15.28-23.62
				c0.054-0.852-1.269-0.847-1.323,0c-0.562,8.724-3.22,18.755-12.408,21.898c-10.515,3.596-24.981-6.08-24.206-17.463
				C185.604,66.78,184.281,66.785,184.224,67.631L184.224,67.631z"/>
		</g>
		<g>
			<path d="M195.323,70.782c0.963,2.472,4.571,3.129,6.913,3.401c3.629,0.422,7.882,0.12,10.392-2.861
				c0.545-0.648-0.385-1.588-0.935-0.935c-1.997,2.371-5.095,2.699-8.012,2.61c-1.857-0.057-6.313-0.591-7.082-2.566
				C196.292,69.645,195.013,69.987,195.323,70.782L195.323,70.782z"/>
		</g>
		<g>
			<path d="M193.977,83.661c-0.097,3.09,2.115,5.232,4.072,7.42c1.534,1.715,3.127,3.443,4.5,5.291
				c1.258,1.695,0.671,4.104,0.602,6.055c-0.031,0.853,1.292,0.85,1.322,0c0.104-2.9,0.513-5.287-1.478-7.652
				c-2.47-2.936-7.823-7.052-7.697-11.113C195.327,82.809,194.004,82.811,193.977,83.661L193.977,83.661z"/>
		</g>
		<g>
			<path d="M213.573,83.328c-4.394,5.847-8.973,11.695-10.233,19.006c-0.144,0.834,1.131,1.191,1.276,0.352
				c0.674-3.917,2.03-6.797,4.164-10.132c1.871-2.926,3.85-5.782,5.935-8.558C215.228,83.313,214.078,82.655,213.573,83.328
				L213.573,83.328z"/>
		</g>
		<g>
			<path d="M204.391,162.431c0-18.955,0-37.909,0-56.863c0-0.853-1.323-0.853-1.323,0c0,18.955,0,37.909,0,56.863
				C203.068,163.284,204.391,163.284,204.391,162.431L204.391,162.431z"/>
		</g>
		<g>
			<path d="M205.207,99.179c2.814,1.154,5.121,3.317,8.183,3.885c0.36,0.067,0.703-0.094,0.813-0.461
				c1.197-4.013,2.549-7.979,3.771-11.984c0.426-1.401,0.902-2.72,0.789-4.188c-0.119-1.533-1.204-2.75-1.313-4.335
				c-0.058-0.845-1.381-0.852-1.322,0c0.062,0.906,0.213,1.589,0.554,2.443c0.865,2.173,0.657,3.556,0.017,5.729
				c-1.184,4.017-2.572,7.971-3.771,11.984c0.271-0.154,0.543-0.308,0.814-0.461c-3.041-0.564-5.379-2.737-8.183-3.885
				C204.77,97.581,204.43,98.861,205.207,99.179L205.207,99.179z"/>
		</g>
		<g>
			<path d="M192.249,82.257c-0.672,1.436-1.246,2.894-1.774,4.389c-0.56,1.582-0.101,2.025,0.512,3.649
				c1.569,4.16,2.633,8.509,3.758,12.803c0.128,0.486,0.754,0.636,1.105,0.292c1.272-1.25,5.115-6.546,7.33-3.967
				c0.557,0.648,1.488-0.292,0.935-0.935c-2.951-3.437-7.312,2.113-9.2,3.968c0.368,0.097,0.736,0.194,1.105,0.292
				c-0.821-3.134-1.647-6.263-2.596-9.361c-0.473-1.542-1.018-3.059-1.587-4.568c-0.675-1.792,0.839-4.369,1.554-5.894
				C193.75,82.157,192.611,81.485,192.249,82.257L192.249,82.257z"/>
		</g>
		<g>
			<path d="M211.251,113.088c2.669,0.033,5.384,0.43,8.027-0.106c0.835-0.169,0.482-1.443-0.352-1.274
				c-2.513,0.509-5.137,0.09-7.676,0.059C210.397,111.756,210.399,113.078,211.251,113.088L211.251,113.088z"/>
		</g>
		<g>
			<path d="M213.4,116.146c1.241,0,2.48-0.006,3.719-0.083c0.847-0.052,0.853-1.375,0-1.322c-1.238,0.076-2.478,0.083-3.719,0.083
				C212.548,114.824,212.548,116.146,213.4,116.146L213.4,116.146z"/>
		</g>
		<g>
			<path d="M179.231,111.474c-3.867,5.045-8.329,10.239-9.31,16.729c-0.126,0.834,1.148,1.193,1.274,0.351
				c0.963-6.372,5.38-11.46,9.177-16.413C180.893,111.464,179.743,110.807,179.231,111.474L179.231,111.474z"/>
		</g>
		<g>
			<path d="M168.6,125.138c1.578,5.277,4.247,10.384,6.124,15.589c2.24,6.219,4.136,12.558,5.557,19.015
				c0.184,0.833,1.459,0.479,1.276-0.351c-1.333-6.059-3.107-11.984-5.143-17.841c-1.952-5.623-4.842-11.09-6.54-16.763
				C169.632,123.972,168.354,124.319,168.6,125.138L168.6,125.138z"/>
		</g>
		<g>
			<path d="M160.666,142.771c2.571,8.646,6.92,16.521,11.417,24.292c0.426,0.737,1.57,0.071,1.142-0.667
				c-4.438-7.671-8.745-15.438-11.284-23.976C161.697,141.604,160.421,141.951,160.666,142.771L160.666,142.771z"/>
		</g>
		<g>
			<path d="M159.45,115.93c4.69-11.075,12.811-19.831,22.684-26.542c0.701-0.476,0.04-1.623-0.668-1.142
				c-10.052,6.833-18.379,15.734-23.157,27.015C157.979,116.038,159.118,116.712,159.45,115.93L159.45,115.93z"/>
		</g>
		<g>
			<path d="M182.354,89.278c2.565-1.159,5.365-1.515,8.151-1.232c0.849,0.086,0.84-1.237,0-1.322
				c-3.034-0.308-6.038,0.155-8.819,1.413C180.911,88.487,181.583,89.626,182.354,89.278L182.354,89.278z"/>
		</g>
		<g>
			<path d="M179.266,107.441c0,8.401-0.047,16.816,0.239,25.213c0.295,8.649,1.122,17.271,1.414,25.919
				c0.028,0.851,1.351,0.853,1.322,0c-0.292-8.649-1.068-17.272-1.414-25.919c-0.334-8.392-0.239-16.815-0.239-25.213
				C180.588,106.588,179.266,106.588,179.266,107.441L179.266,107.441z"/>
		</g>
		<g>
			<path d="M172.589,167.641c1.738,0.271,3.639-1.012,4.917-2.066c2.012-1.657,3.803-3.599,4.491-6.164
				c0.22-0.825-1.055-1.174-1.275-0.351c-0.532,1.98-1.786,3.398-3.233,4.791c-0.896,0.865-3.125,2.736-4.549,2.516
				C172.105,166.237,171.747,167.512,172.589,167.641L172.589,167.641z"/>
		</g>
		<g>
			<path d="M174.618,166.897c0.755,1.26,1.626,2.443,2.479,3.637c0.492,0.687,1.639,0.027,1.142-0.667
				c-0.854-1.193-1.724-2.377-2.48-3.637C175.321,165.499,174.177,166.164,174.618,166.897L174.618,166.897z"/>
		</g>
		<g>
			<path d="M178.552,176.061c4.965-3.132,8.097-8.738,7.546-14.787c-0.076-0.842-1.4-0.85-1.322,0
				c0.504,5.526-2.336,10.771-6.891,13.645C177.166,175.372,177.83,176.517,178.552,176.061L178.552,176.061z"/>
		</g>
		<g>
			<path d="M186.704,163.147c-0.005,1.769-0.811,3.318-1.507,4.9c-0.339,0.773,0.799,1.447,1.142,0.667
				c0.792-1.802,1.683-3.555,1.688-5.568C188.029,162.294,186.706,162.295,186.704,163.147L186.704,163.147z"/>
		</g>
		<g>
			<path d="M181.504,158.632c1.086,2.52,4.648,3.556,7.039,4.374c4.358,1.493,9.24,1.811,13.806,1.813
				c4.631,0.001,9.322-0.702,13.779-1.93c3.346-0.922,7.708-2.432,9.971-5.198c0.535-0.654-0.396-1.595-0.935-0.935
				c-2.14,2.614-6.297,3.905-9.387,4.857c-3.553,1.094-7.318,1.564-11.015,1.803c-3.962,0.257-7.946-0.022-11.85-0.714
				c-2.983-0.53-8.895-1.558-10.267-4.738C182.311,157.183,181.172,157.858,181.504,158.632L181.504,158.632z"/>
		</g>
		<g>
			<path d="M226.21,157.141c0.008-14.496,0.259-29.032,2.038-43.435c0.104-0.845-1.219-0.835-1.322,0
				c-1.78,14.403-2.03,28.939-2.038,43.435C224.888,157.994,226.21,157.994,226.21,157.141L226.21,157.141z"/>
		</g>
		<g>
			<path d="M218.718,87.164c3.953,0.021,7.226,1.342,10.423,3.592c1.777,1.25,3.332,2.712,4.858,4.245
				c1.571,1.574,3.433,2.858,4.534,4.839c0.414,0.745,1.556,0.078,1.142-0.667c-0.978-1.758-2.475-2.996-3.959-4.322
				c-1.724-1.539-3.228-3.234-5.093-4.621c-3.637-2.704-7.32-4.363-11.904-4.388C217.866,85.837,217.866,87.16,218.718,87.164
				L218.718,87.164z"/>
		</g>
		<g>
			<path d="M226.349,157.169c-1.662,1.625-3.324,3.251-4.986,4.876c-0.611,0.597,0.326,1.531,0.936,0.935
				c1.662-1.625,3.324-3.251,4.985-4.877C227.895,157.507,226.958,156.573,226.349,157.169L226.349,157.169z"/>
		</g>
		<g>
			<path d="M218.851,164.479c0.039,0.161,0.076,0.321,0.086,0.486c0.054,0.847,1.377,0.852,1.322,0
				c-0.018-0.282-0.067-0.562-0.133-0.837C219.927,163.299,218.651,163.651,218.851,164.479L218.851,164.479z"/>
		</g>
		<g>
			<path d="M177.25,170.541c0.224,1.433,0.699,3.453,2.281,3.933c0.817,0.249,1.165-1.027,0.351-1.275
				c-0.99-0.301-1.225-2.157-1.357-3.009C178.395,169.349,177.12,169.707,177.25,170.541L177.25,170.541z"/>
		</g>
		<g>
			<path d="M227.632,115.072c3.464,4.436,8.045,8.247,8.904,14.108c0.124,0.841,1.397,0.482,1.276-0.351
				c-0.894-6.091-5.646-10.083-9.245-14.692C228.043,113.465,227.115,114.408,227.632,115.072L227.632,115.072z"/>
		</g>
		<g>
			<path d="M236.537,128.829c-0.955,3.433-2.863,6.815-4.193,10.117c-2.427,6.021-4.749,12.167-6.165,18.516
				c-0.185,0.83,1.09,1.184,1.276,0.351c1.355-6.075,3.56-11.939,5.845-17.717c1.42-3.591,3.479-7.193,4.513-10.916
				C238.042,128.357,236.765,128.008,236.537,128.829L236.537,128.829z"/>
		</g>
		<g>
			<path d="M248.714,134.484c-3.285,11.217-8.397,22.403-14.204,32.536c-0.425,0.741,0.718,1.407,1.142,0.667
				c5.854-10.216,11.023-21.539,14.338-32.853C250.23,134.016,248.955,133.668,248.714,134.484L248.714,134.484z"/>
		</g>
		<g>
			<path d="M234.794,166.993c-2.157,0.294-5.181-2.85-6.263-4.352c-0.949-1.317-0.771-3.638-1.077-5.179
				c-0.167-0.836-1.442-0.481-1.276,0.351c0.447,2.253,0.344,4.57,1.931,6.375c1.575,1.791,4.414,4.438,7.037,4.081
				C235.988,168.153,235.627,166.878,234.794,166.993L234.794,166.993z"/>
		</g>
		<g>
			<path d="M231.974,166.855c-0.755,1.26-1.626,2.443-2.479,3.637c-0.498,0.695,0.649,1.355,1.142,0.667
				c0.855-1.193,1.725-2.377,2.479-3.637C233.555,166.789,232.412,166.125,231.974,166.855L231.974,166.855z"/>
		</g>
		<g>
			<path d="M229.849,175.544c-4.558-2.875-7.391-8.118-6.891-13.645c0.076-0.85-1.246-0.842-1.322,0
				c-0.548,6.051,2.579,11.653,7.547,14.787C229.905,177.143,230.568,175.998,229.849,175.544L229.849,175.544z"/>
		</g>
		<g>
			<path d="M229.208,170.815c-0.133,0.852-0.367,2.709-1.356,3.01c-0.814,0.248-0.466,1.523,0.351,1.275
				c1.581-0.481,2.056-2.501,2.281-3.934C230.614,170.333,229.34,169.975,229.208,170.815L229.208,170.815z"/>
		</g>
		<g>
			<path d="M177.612,173.341c0.501,32.986,1.002,65.973,1.503,98.959c0.106,6.906,0.21,13.811,0.315,20.718
				c0.013,0.852,1.335,0.854,1.322,0c-0.501-32.986-1.002-65.973-1.503-98.959c-0.106-6.906-0.211-13.812-0.315-20.717
				C178.922,172.489,177.599,172.487,177.612,173.341L177.612,173.341z"/>
		</g>
		<g>
			<path d="M230.232,170.365c-0.524,32.907-1.05,65.814-1.574,98.72c-0.128,7.977-0.254,15.955-0.382,23.932
				c-0.014,0.854,1.309,0.852,1.322,0c0.525-32.906,1.05-65.814,1.575-98.72c0.127-7.977,0.254-15.955,0.382-23.932
				C231.568,169.512,230.246,169.513,230.232,170.365L230.232,170.365z"/>
		</g>
		<g>
			<path d="M179.924,293.836c3.249,1.947,9.361,1.635,12.906,1.142c3.124-0.435,6.811-2.194,8.887-4.592
				c0.556-0.642-0.375-1.581-0.935-0.935c-1.885,2.177-5.007,3.536-7.76,4.176c-2.116,0.492-4.625,0.166-6.773,0.05
				c-1.838-0.099-4.042-0.014-5.659-0.982C179.856,292.256,179.193,293.399,179.924,293.836L179.924,293.836z"/>
		</g>
		<g>
			<path d="M207.364,290.117c3.806,2.145,8.247,3.033,12.525,3.671c2.713,0.405,6.648,1.368,9.051-0.365
				c0.686-0.493,0.026-1.641-0.666-1.142c-2.333,1.683-7.201,0.385-9.813-0.049c-3.561-0.59-7.267-1.473-10.431-3.256
				C207.287,288.556,206.62,289.699,207.364,290.117L207.364,290.117z"/>
		</g>
		<g>
			<path d="M201.912,289.546c0.006-35.486,0.883-70.968,0.936-106.453c0.001-0.854-1.321-0.854-1.322,0
				c-0.053,35.485-0.93,70.967-0.936,106.453C200.589,290.398,201.912,290.398,201.912,289.546L201.912,289.546z"/>
		</g>
		<g>
			<path d="M208.358,289.546c-0.013-35.697-1.873-71.372-1.984-107.06c-0.002-0.853-1.325-0.853-1.323,0
				c0.111,35.688,1.971,71.362,1.984,107.06C207.036,290.398,208.358,290.398,208.358,289.546L208.358,289.546z"/>
		</g>
		<g>
			<path d="M199.422,182.904c3.324,0.815,7.078-0.443,9.848-2.298c0.705-0.472,0.044-1.618-0.667-1.142
				c-2.465,1.65-5.855,2.893-8.831,2.165C198.945,181.426,198.594,182.701,199.422,182.904L199.422,182.904z"/>
		</g>
		<g>
			<path d="M209.185,291.255c0.257,2.071-0.094,4.321,0.752,6.284c0.573,1.333,2.266,1.307,3.439,0.733
				c0.767-0.373,0.097-1.514-0.667-1.142c-1.811,0.884-1.925-1.198-2.015-2.417c-0.083-1.153-0.045-2.308-0.187-3.458
				C210.404,290.42,209.08,290.41,209.185,291.255L209.185,291.255z"/>
		</g>
		<g>
			<path d="M212.961,298.115c2.883,3.18,7.497,5.172,11.421,6.727c4.127,1.636,9.271,2.275,13.604,1.157
				c1.958-0.507,3.915-3.104,2.274-4.954c-1.011-1.141-2.27-1.776-3.633-2.425c-3.031-1.442-5.783-3.067-8.24-5.352
				c-0.624-0.58-1.562,0.354-0.936,0.935c2.325,2.162,4.648,3.517,7.457,5.017c0.952,0.509,1.933,0.951,2.881,1.47
				c1.815,0.777,1.764,2.123-0.155,4.033c-0.891,0.366-1.936,0.358-2.882,0.418c-4.148,0.267-8.278-0.734-12.042-2.43
				c-3.022-1.362-6.568-3.053-8.813-5.531C213.322,296.547,212.39,297.485,212.961,298.115L212.961,298.115z"/>
		</g>
		<g>
			<path d="M180.42,293.384c-1.524,0.689-21.032,8.872-13.815,12.747c4.243,2.281,9.804-0.176,14.13-1.137
				c2.655-0.59,5.295-1.229,7.906-1.988c2.905-0.848,5.517-2.321,8.378-3.233c-0.271-0.153-0.543-0.309-0.813-0.462
				c0.653,2.183,3.113,0.906,4.554,0.163c2.475-1.277,1.518-7.198,1.263-9.209c-0.106-0.834-1.43-0.845-1.323,0
				c0.184,1.453,0.221,2.871,0.188,4.333c-0.03,0.896-0.102,1.788-0.218,2.676c0.156-1.063-2.673,3.411-3.188,1.686
				c-0.101-0.335-0.465-0.573-0.813-0.462c-3.226,1.029-6.218,2.603-9.493,3.558c-3.72,1.085-7.542,1.815-11.318,2.68
				c-1.93,0.442-3.729,0.932-5.728,1.013c-3.247-2.025-3.736-3.605-1.471-4.741c0.609-0.43,1.273-0.794,1.906-1.19
				c3.327-2.085,6.955-3.671,10.522-5.29C181.862,294.175,181.189,293.034,180.42,293.384L180.42,293.384z"/>
		</g>
		<g>
			<path d="M217.638,164.15c0.832,4.74,3.547,8.665,6.563,12.303c0.545,0.657,1.475-0.284,0.935-0.936
				c-2.877-3.471-5.429-7.198-6.222-11.72C218.767,162.959,217.493,163.316,217.638,164.15L217.638,164.15z"/>
		</g>
		<g>
			<path d="M300.485,60.275c0.311-2.946,3.91-3.947,5.595-1.438c1.839,2.739-1.36,8.06-4.711,6.377
				c-0.759-0.381-1.43,0.759-0.667,1.142c4.693,2.357,8.779-4.216,6.519-8.187c-0.881-1.547-2.866-2.388-4.593-2.035
				c-2.092,0.426-3.25,2.094-3.465,4.141C299.074,61.123,300.398,61.115,300.485,60.275L300.485,60.275z"/>
		</g>
		<g>
			<path d="M275.79,34.76c-8.429,2.667-12.525,14.725-13.891,22.428c-1.521,8.579-0.839,17.839,4.927,24.739
				c4.768,5.707,13.729,8.042,20.593,5.037c3.767-1.649,6.682-4.281,9.093-7.581c2.933-4.014,3.34-8.455,5.134-12.898
				c0.319-0.791-0.961-1.131-1.275-0.351c-1.382,3.422-1.783,6.929-3.549,10.259c-1.791,3.375-4.472,6.208-7.691,8.24
				c-6.935,4.377-16.07,2.172-21.369-3.641c-5.253-5.76-5.62-14.021-4.879-21.351c0.491-4.843,1.952-9.551,4.152-13.879
				c1.914-3.763,4.891-8.393,9.107-9.727C276.951,35.778,276.605,34.502,275.79,34.76L275.79,34.76z"/>
		</g>
		<g>
			<path d="M268.14,70.93c5.418,4.069,15.813,1.226,19.362-4.094c0.476-0.711-0.672-1.373-1.142-0.667
				c-3.141,4.708-12.758,7.222-17.554,3.62C268.124,69.275,267.466,70.424,268.14,70.93L268.14,70.93z"/>
		</g>
		<g>
			<path d="M279.577,76.335c1.584,1.237,4.015,0.325,4.411-1.668c0.166-0.833-1.109-1.188-1.276-0.351
				c-0.177,0.895-1.344,1.753-2.2,1.085C279.848,74.883,278.905,75.812,279.577,76.335L279.577,76.335z"/>
		</g>
		<g>
			<path d="M277.409,62.724c-2.463-0.931-4.978,2.218-3.256,4.326c1.41,1.727,4.322,1.722,5.207-0.482
				c0.317-0.792-0.962-1.133-1.276-0.352c-0.434,1.084-1.89,0.878-2.641,0.275c-1.35-1.085,0.142-3.049,1.615-2.492
				C277.858,64.301,278.2,63.022,277.409,62.724L277.409,62.724z"/>
		</g>
		<g>
			<path d="M278.942,59.835c2.061,0.142,4.116,0.543,6.126-0.134c0.803-0.271,0.458-1.548-0.351-1.274
				c-1.888,0.636-3.841,0.219-5.775,0.086C278.091,58.454,278.096,59.777,278.942,59.835L278.942,59.835z"/>
		</g>
		<g>
			<path d="M268.462,60.086c2.251,0.455,4.489,0.644,6.744,0.111c0.831-0.196,0.479-1.471-0.351-1.274
				c-2.021,0.477-4.024,0.296-6.041-0.111C267.981,58.643,267.627,59.918,268.462,60.086L268.462,60.086z"/>
		</g>
		<g>
			<path d="M270.875,59.108c-0.518-1.465-0.523-3.715,0.602-4.913c0.791-0.841,0.966,0.928,1.006,1.364
				c0.119,1.329-0.283,2.585-0.944,3.721c0.403,0.169,0.806,0.339,1.208,0.509c0.279-1.084,1.835-5.79-0.358-6.011
				c-1.457-0.146-1.828,2.479-1.862,3.495c-0.035,1.102,0.752,3.482,2.2,2.054c0.912-0.899,0.711-3.47,0.174-4.51
				c-0.215-0.416-0.722-0.379-1.038-0.134c-1.122,0.871-2.038,6.012,0.304,4.73c0.749-0.41,0.082-1.551-0.666-1.142
				c0.364,0.119,0.51,0.042,0.439-0.233c-0.005-0.295,0.063-0.589,0.121-0.877c0.111-0.542,0.283-1.191,0.736-1.544
				c-0.346-0.044-0.692-0.089-1.038-0.133c0.31,0.601,0.203,1.566,0.16,2.213c-0.014,0.172-0.044,0.342-0.088,0.508
				c-0.067,0.301,0.178,0.303,0.09,0.005c-0.126-0.427-0.079-0.928-0.052-1.367c0.017-0.283,0.078-0.539,0.159-0.81
				c0.057-0.185,0.127-0.364,0.207-0.539c0.037-0.073,0.075-0.146,0.112-0.218c0.251-0.283,0.161-0.322-0.27-0.117
				c0.462,1.28-0.285,3.031-0.607,4.277c-0.186,0.725,0.828,1.164,1.209,0.509c0.895-1.536,1.322-3.246,1.053-5.019
				c-0.162-1.07-0.577-2.324-1.855-2.325c-1.314-0.002-2.073,1.55-2.38,2.599c-0.39,1.333-0.362,2.948,0.101,4.256
				C269.882,60.257,271.159,59.914,270.875,59.108L270.875,59.108z"/>
		</g>
		<g>
			<path d="M281.366,58.622c-0.128-1.445-0.289-3.486,1.106-4.407c0.639-0.422,0.285,1.767,0.226,1.994
				c-0.212,0.805-0.568,1.573-0.867,2.349c0.425,0.117,0.852,0.234,1.276,0.351c0.323-0.88,0.564-1.773,0.63-2.712
				c0.047-0.658-0.133-1.793-0.895-2.003c-1.287-0.354-1.707,1.954-1.877,2.803c-0.116,0.581-0.196,1.197,0.071,1.746
				c0.267,0.548,1.024,0.528,1.438,0.2c0.845-0.669,0.856-2.585,0.576-3.526c-0.132-0.438-0.582-0.573-0.971-0.395
				c-1.306,0.597-1.676,2.621-1.406,3.887c0.178,0.834,1.453,0.481,1.276-0.351c-0.155-0.721,0.056-2.055,0.797-2.394
				c-0.323-0.132-0.647-0.264-0.971-0.395c0.152,0.509,0.085,1.151,0,1.667c-0.024,0.146-0.06,0.307-0.12,0.443
				c-0.112,0.254,0.535,0.369,0.521,0.091c-0.016-0.322,0.067-0.65,0.136-0.961c0.063-0.287,0.144-0.571,0.228-0.853
				c0.022-0.075,0.047-0.148,0.071-0.223c0.04-0.094,0.081-0.188,0.123-0.281c0.225-0.27,0.074-0.372-0.451-0.306
				c0.563,0.758-0.173,2.452-0.452,3.211c-0.294,0.806,0.975,1.136,1.276,0.351c0.486-1.268,1.048-2.5,1.109-3.878
				c0.039-0.867-0.402-2.202-1.463-2.211c-0.952-0.008-1.665,0.741-2.123,1.502c-0.771,1.281-0.711,2.872-0.586,4.301
				C280.118,59.465,281.441,59.472,281.366,58.622L281.366,58.622z"/>
		</g>
		<g>
			<path d="M281.267,51.105c0.929-0.261,2.068,0.242,2.615,1.019c0.487,0.692,1.633,0.031,1.142-0.668
				c-0.887-1.261-2.579-2.056-4.108-1.625C280.096,50.061,280.444,51.337,281.267,51.105L281.267,51.105z"/>
		</g>
		<g>
			<path d="M270.294,50.433c1.222-0.54,2.428-0.3,3.466,0.495c0.677,0.52,1.334-0.63,0.667-1.141
				c-1.439-1.103-3.166-1.218-4.799-0.496C268.849,49.634,269.521,50.774,270.294,50.433L270.294,50.433z"/>
		</g>
		<g>
			<path d="M275.635,32.753c0.133,5.882,2.104,11.79,6.756,15.616c4.251,3.496,10.265,4.196,14.9,1.155
				c0.71-0.466,0.049-1.612-0.666-1.142c-4.63,3.037-9.959,1.798-14.041-1.557c-4.01-3.297-5.517-9.11-5.628-14.071
				C276.938,31.901,275.616,31.9,275.635,32.753L275.635,32.753z"/>
		</g>
		<g>
			<path d="M271.861,38.014c1.328,1.388,3.744,1.271,5.264,0.269c0.709-0.467,0.048-1.612-0.666-1.142
				c-1.03,0.678-2.736,0.907-3.663-0.062C272.207,36.462,271.273,37.398,271.861,38.014L271.861,38.014z"/>
		</g>
		<g>
			<path d="M292.441,51.047c-1.476,1.844-1.869,5.253-0.499,7.27c1.438,2.116,4.473,1.711,5.504-0.518
				c0.357-0.768-0.784-1.44-1.142-0.667c-0.868,1.873-3.063,1.504-3.63-0.384c-0.438-1.458-0.273-3.546,0.702-4.765
				C293.903,51.323,292.975,50.381,292.441,51.047L292.441,51.047z"/>
		</g>
		<g>
			<path d="M295.495,58.281c-0.427,1.395-0.045,3.119,1.336,3.832c1.577,0.814,2.809-0.604,3.246-1.993
				c0.255-0.815-1.022-1.163-1.276-0.351c-0.21,0.67-0.678,1.583-1.484,1.101c-0.745-0.446-0.77-1.512-0.546-2.237
				C297.021,57.815,295.744,57.468,295.495,58.281L295.495,58.281z"/>
		</g>
		<g>
			<path d="M263.992,50.712c-3.652-1.171-2.611-9.704-2.049-12.606c1.186-6.122,8.626-13.213,14.548-8.191
				c0.646,0.548,1.585-0.383,0.935-0.935c-6.552-5.557-13.777,0.909-16.333,7.354c-1.474,3.712-2.33,14.091,2.548,15.653
				C264.456,52.248,264.8,50.971,263.992,50.712L263.992,50.712z"/>
		</g>
		<g>
			<path d="M277.838,29.832c6.608-6.125,17.48-3.408,24.087,1.208c6.318,4.416,12.849,16.565,6.137,23.312
				c-0.602,0.605,0.333,1.54,0.935,0.935c6.875-6.912,1.244-18.746-4.755-24.088c-6.917-6.161-19.905-9.194-27.339-2.303
				C276.277,29.478,277.214,30.41,277.838,29.832L277.838,29.832z"/>
		</g>
		<g>
			<path d="M310.172,53.226c3.576,0.707,1.993,6.368,1.108,8.692c-0.166,0.433,0.248,0.802,0.638,0.836
				c2.175,0.191,2.058,3.004,1.875,4.352c-0.229,1.691-2.018,2.976-3.252,3.941c-0.428,0.336-0.119,0.954,0.292,1.104
				c2.916,1.069,5.637,2.064,5.878,5.644c0.253,3.761-4.361,5.892-7.438,5.869c0.221,0.22,0.44,0.44,0.662,0.661
				c0-0.027,0-0.055,0-0.083c-0.333,0.19-0.664,0.38-0.995,0.571c1.795,2.03,1.518,3.584-0.834,4.661
				c-0.802,0.275-0.457,1.552,0.352,1.274c3.321-1.143,4.017-4.997,1.149-7.076c-0.417-0.304-0.995,0.107-0.995,0.57
				c0,0.028,0,0.055,0,0.083c0,0.362,0.301,0.659,0.661,0.662c3.894,0.029,7.761-2.265,8.685-6.198
				c1.08-4.587-3.322-6.646-6.773-7.911c0.097,0.368,0.195,0.737,0.292,1.104c2.438-1.91,4.026-3.867,3.66-7.088
				c-0.218-1.926-1.293-3.293-3.218-3.462c0.213,0.279,0.425,0.558,0.638,0.837c1.166-3.065,2.506-9.421-2.033-10.318
				C309.691,51.787,309.335,53.062,310.172,53.226L310.172,53.226z"/>
		</g>
		<g>
			<path d="M263.651,74.987c-9.741-0.139-10.877,15.369-0.909,16.117c-0.19-0.332-0.381-0.663-0.571-0.995
				c-1.361,2.047-2.767,4.133-1.757,6.629c0.638,1.577,2.393,1.725,3.827,1.451c-0.271-0.271-0.543-0.542-0.814-0.813
				c-0.703,2.731,0.298,3.887,2.859,4.615c0.821,0.234,1.17-1.042,0.351-1.275c-1.312-0.209-1.957-1.206-1.935-2.989
				c0.133-0.516-0.324-0.907-0.813-0.813c-4.736,0.902-1.568-4.644-0.576-6.136c0.298-0.449-0.105-0.96-0.571-0.995
				c-8.285-0.622-7.13-13.587,0.909-13.472C264.505,76.322,264.503,74.999,263.651,74.987L263.651,74.987z"/>
		</g>
		<g>
			<path d="M270.601,89.2c-9.424,17.101-4.024,38.569,2.908,55.554c0.318,0.779,1.598,0.438,1.276-0.352
				c-6.793-16.642-12.287-37.762-3.043-54.535C272.155,89.12,271.013,88.453,270.601,89.2L270.601,89.2z"/>
		</g>
		<g>
			<path d="M273.246,143.914c-2.699,4.547-4.015,10.27-5.46,15.315c-1.796,6.276-3.428,12.631-4.782,19.016
				c-1.399,6.611-2.478,13.288-3.378,19.983c-0.839,6.225-1.785,12.552-1.516,18.843c0.037,0.85,1.359,0.854,1.323,0
				c-0.25-5.831,0.599-11.64,1.328-17.415c0.838-6.646,1.943-13.256,3.263-19.823c1.211-6.023,2.789-11.971,4.386-17.901
				c1.527-5.668,2.961-12.269,5.978-17.351C274.824,143.846,273.681,143.182,273.246,143.914L273.246,143.914z"/>
		</g>
		<g>
			<path d="M258.217,217.992c6.787,4.055,15.087,5.535,22.771,6.913c8.305,1.49,16.775,1.866,25.155,0.83
				c0.835-0.104,0.845-1.427,0-1.322c-8.304,1.025-16.566,0.598-24.804-0.783c-7.524-1.261-15.841-2.828-22.457-6.78
				C258.149,216.411,257.484,217.555,258.217,217.992L258.217,217.992z"/>
		</g>
		<g>
			<path d="M306.744,224.649c2.145-6.292,1.358-13.063,3.306-19.396c-0.434-0.058-0.867-0.117-1.299-0.175
				c0.042,5.025,1.272,10.234,0.992,15.208c-0.017,0.309,0.218,0.54,0.486,0.638c4.237,1.552,8.567-0.763,12.143-2.942
				c0.727-0.443,0.063-1.587-0.666-1.142c-1.87,1.139-3.753,2.123-5.833,2.831c-0.907,0.287-1.836,0.448-2.791,0.483
				c-2.001,0.143-1.93-0.451-2.012-2.022c-0.226-4.369-0.96-8.654-0.996-13.054c-0.007-0.758-1.081-0.887-1.299-0.176
				c-1.948,6.333-1.163,13.109-3.306,19.396C305.193,225.108,306.47,225.451,306.744,224.649L306.744,224.649z"/>
		</g>
		<g>
			<path d="M311.566,156.197c1.69,10.088,3.564,20.146,5.291,30.228c1.752,10.23,3.869,20.608,4.52,30.984
				c0.053,0.847,1.375,0.853,1.322,0c-0.641-10.218-2.709-20.432-4.424-30.505c-1.764-10.361-3.698-20.692-5.433-31.057
				C312.701,155.006,311.427,155.364,311.566,156.197L311.566,156.197z"/>
		</g>
		<g>
			<path d="M308.357,136.902c0.852,0,0.852-1.323,0-1.323C307.504,135.579,307.504,136.902,308.357,136.902L308.357,136.902z"/>
		</g>
		<g>
			<path d="M308.223,120.6c-1.697,7.065-0.934,13.703,0.13,20.794c0.127,0.841,1.402,0.483,1.276-0.351
				c-1.033-6.885-1.778-13.232-0.13-20.092C309.697,120.123,308.421,119.77,308.223,120.6L308.223,120.6z"/>
		</g>
		<g>
			<path d="M276.552,87.216c-1.606,3.744-2.562,12.143,4.083,11.248c6.288-0.848,10.277-8.813,11.589-14.292
				c0.198-0.83-1.077-1.181-1.276-0.352c-0.96,4.014-2.936,7.791-5.845,10.726c-1.845,1.862-4.395,3.395-6.983,2.06
				c-3.036-1.565-1.404-6.441-0.427-8.722C278.026,87.109,276.888,86.435,276.552,87.216L276.552,87.216z"/>
		</g>
		<g>
			<path d="M291.362,88.862c-0.087,0.293-0.21,0.56-0.346,0.833c-0.379,0.761,0.762,1.432,1.142,0.668
				c0.186-0.375,0.361-0.749,0.48-1.15C292.881,88.394,291.604,88.046,291.362,88.862L291.362,88.862z"/>
		</g>
		<g>
			<path d="M300.686,111.025c2.855,3.922,5.739,7.816,8.869,11.525c2.296,2.723,4.736,6.429,8.563,6.655c0-0.441,0-0.882,0-1.322
				c-1.073,0.139-2.101,0.267-3.151,0.52c-0.32,0.077-0.595,0.486-0.462,0.813c0.428,1.044,0.883,1.881,1.555,2.803
				c0.496,0.682,1.645,0.023,1.142-0.667c-0.613-0.744-1.087-1.573-1.42-2.487c-0.155,0.271-0.309,0.543-0.462,0.813
				c0.925-0.212,1.858-0.37,2.8-0.472c0.828-0.107,0.873-1.271,0-1.322c-3.453-0.204-6.332-4.729-8.395-7.176
				c-2.796-3.316-5.343-6.844-7.895-10.35C301.332,109.676,300.183,110.334,300.686,111.025L300.686,111.025z"/>
		</g>
		<g>
			<path d="M314.285,128.094c-1.723,5.615-4.975,10.904-7.827,16c-2.028,3.624-4.021,7.938-6.549,11.148
				c-0.522,0.662,0.408,1.605,0.935,0.935c2.68-3.401,4.643-7.659,6.757-11.416c2.92-5.189,6.203-10.588,7.96-16.316
				C315.811,127.627,314.533,127.281,314.285,128.094L314.285,128.094z"/>
		</g>
		<g>
			<path d="M294.312,81.895c4.811,2.221,9.342,4.817,13.259,8.423c4.44,4.087,7.56,9.695,10.849,14.697
				c3.12,4.744,6.439,9.449,8.958,14.549c2.843,5.757-0.265,10.072-3.119,14.984c-3.272,5.634-6.632,11.217-9.997,16.795
				c-1.684,2.794-3.377,5.583-5.089,8.36c-0.699,1.132-1.813,3.681-2.739,4.359c-0.681,0.498-0.022,1.646,0.667,1.142
				c1.047-0.766,1.746-2.473,2.411-3.538c1.868-2.994,3.693-6.014,5.518-9.035c3.749-6.205,7.505-12.412,11.114-18.7
				c2.497-4.35,4.971-7.938,3.223-13.057c-1.897-5.555-5.935-10.603-9.106-15.463c-3.418-5.236-6.683-10.824-11.047-15.342
				c-3.973-4.11-9.097-6.947-14.234-9.319C294.211,80.397,293.539,81.537,294.312,81.895L294.312,81.895z"/>
		</g>
		<g>
			<path d="M297.952,149.537c-0.504,3.781,1.512,7.319,3.523,10.365c1.874,2.837,4.407,6.74,7.872,7.574
				c0.83,0.2,1.181-1.075,0.352-1.275c-3.045-0.734-5.378-4.528-7.081-6.966c-1.953-2.796-3.811-6.19-3.344-9.698
				C299.387,148.694,298.063,148.705,297.952,149.537L297.952,149.537z"/>
		</g>
		<g>
			<path d="M301.562,165.763c0.645,0.623,1.375,1.147,2.118,1.647c0.709,0.477,1.37-0.669,0.667-1.142
				c-0.65-0.438-1.284-0.894-1.85-1.44C301.883,164.236,300.947,165.17,301.562,165.763L301.562,165.763z"/>
		</g>
		<g>
			<path d="M237.947,123.502c4.411-0.112,12.257-3.224,11.217-8.771c-0.157-0.837-1.432-0.481-1.275,0.352
				c0.843,4.499-6.507,7.01-9.941,7.097C237.096,122.202,237.093,123.524,237.947,123.502L237.947,123.502z"/>
		</g>
		<g>
			<path d="M248.121,115.571c1.074,1.41,2.261,2.683,3.564,3.884c0.784,0.722,1.612,1.395,2.438,2.068
				c0.215,0.176,2.338,1.691,2.338,1.648c0.221-0.22,0.44-0.441,0.661-0.661c-0.634,0.032-1.21,0.119-1.829,0.272
				c-0.731,0.18-0.567,1.302,0.176,1.299c0.694-0.004,1.374-0.022,2.066-0.083c-0.221-0.22-0.44-0.441-0.661-0.662
				c0.05,0.469,0.105,0.938,0.165,1.405c0.103,0.835,1.427,0.845,1.322,0c-0.06-0.467-0.115-0.936-0.165-1.405
				c-0.038-0.332-0.274-0.695-0.662-0.661c-0.692,0.061-1.372,0.079-2.066,0.083c0.058,0.433,0.117,0.866,0.176,1.298
				c0.48-0.148,0.972-0.222,1.477-0.224c0.36-0.018,0.662-0.287,0.662-0.661c0-1.073-2.457-2.365-3.225-2.99
				c-1.939-1.582-3.775-3.282-5.296-5.278C248.753,114.234,247.604,114.893,248.121,115.571L248.121,115.571z"/>
		</g>
		<g>
			<path d="M267.835,94.923c-3.375,9.48-6.967,18.845-10.525,28.239c-0.302,0.799,0.977,1.141,1.276,0.351
				c3.557-9.393,7.148-18.759,10.525-28.239C269.398,94.469,268.119,94.125,267.835,94.923L267.835,94.923z"/>
		</g>
		<g>
			<path d="M237.975,123.887c0.229,0.212,0.913,0.632,0.917,0.864c0.004,0.267-0.141,0.556-0.166,0.828
				c-0.091,1.014,0.897,1.238,1.7,1.146c0.837-0.095,0.847-1.418,0-1.322c-0.18,0.021-0.353,0.034-0.533,0.032
				c-0.213-0.002,0.169,0.096,0.146,0.233c0.047-0.279,0.146-0.542,0.168-0.828c0.07-0.899-0.719-1.352-1.296-1.889
				C238.288,122.372,237.35,123.305,237.975,123.887L237.975,123.887z"/>
		</g>
		<g>
			<path d="M240.341,126.718c3.614,2.095,6.724,5.754,9.615,8.749c1.5,1.553,3.773,5.923,6.51,5.369
				c3.062-0.619,5.091-4.131,6.783-6.507c1.774-2.494,4.81-5.295,5.337-8.418c0.139-0.833-1.134-1.19-1.276-0.351
				c-0.421,2.498-2.576,4.366-3.982,6.371c-1.774,2.53-5.802,9.956-9.541,5.982c-3.94-4.187-7.724-9.406-12.78-12.335
				C240.269,125.147,239.604,126.291,240.341,126.718L240.341,126.718z"/>
		</g>
		<g>
			<path d="M248.443,114.137c-2.534-2.934-4.26-6.082-4.091-9.949c0.078-1.768,0.32-4.152-1.041-5.526
				c-2.992-3.017-5.685,5.389-4.006,7.626c0.505,0.672,1.654,0.015,1.142-0.667c-0.688-0.916-0.455-2.127-0.275-3.137
				c0.198-1.102,2.296-3.648,2.771-1.68c0.387,1.611,0.07,3.486,0.018,5.124c-0.107,3.341,2.465,6.734,4.548,9.145
				C248.066,115.718,248.998,114.778,248.443,114.137L248.443,114.137z"/>
		</g>
		<g>
			<path d="M230.95,110.802c-1.707-0.042-6.363-1.047-7.637,0.78c-1.04,1.492,0.443,2.39,1.784,2.687
				c1.625,0.36,3.3-0.047,4.944,0.192c1.486,0.216,2.601,2.7,3.638,3.696c1.936,1.86,5.012,2.132,7.421,1.272
				c0.796-0.284,0.453-1.563-0.352-1.274c-3.091,1.104-5.717-0.128-7.615-2.631c-0.808-1.065-1.525-1.826-2.74-2.338
				c-1.458-0.614-3.411,0.061-4.943-0.192c-1.943-0.321,0.737-0.978,1.087-1.003c1.454-0.104,2.958,0.099,4.414,0.134
				C231.803,112.145,231.801,110.823,230.95,110.802L230.95,110.802z"/>
		</g>
		<g>
			<path d="M237.897,120.251c0.644,0.826,1.286,1.653,1.928,2.479c0.523,0.673,1.452-0.271,0.936-0.935
				c-0.644-0.826-1.286-1.653-1.929-2.48C238.31,118.643,237.381,119.586,237.897,120.251L237.897,120.251z"/>
		</g>
		<g>
			<path d="M231.567,107.74c-2.261-0.529-4.384-1.524-6.609-2.184c-1.388-0.413-2.965-0.677-3.653,0.846
				c-1.655,3.655,7.281,5.211,9.139,5.533c0.834,0.146,1.191-1.129,0.351-1.274c-1.628-0.283-3.214-0.678-4.778-1.212
				c-0.795-0.272-1.585-0.601-2.317-1.015c-0.19-0.108-2.446-1.801-0.579-1.882c1.148-0.051,2.432,0.574,3.499,0.935
				c1.534,0.52,3.014,1.16,4.596,1.528C232.045,109.209,232.398,107.934,231.567,107.74L231.567,107.74z"/>
		</g>
		<g>
			<path d="M231.417,107.738c-1.691-0.932-3.013-2.372-4.268-3.812c-0.385-0.44-2.989-4.138-1.037-3.314
				c2.964,1.251,4.975,4.132,7.292,6.195c0.634,0.565,1.573-0.368,0.935-0.935c-1.806-1.606-3.324-3.436-5.259-4.909
				c-1.146-0.873-2.988-2.445-4.524-1.641c-3.432,1.795,4.952,8.874,6.194,9.559C231.496,109.292,232.164,108.15,231.417,107.738
				L231.417,107.738z"/>
		</g>
		<g>
			<path d="M234.091,109.37c0.151-2.356,2.665-4.425,4.959-4.463c0.852-0.014,0.854-1.336,0-1.323
				c-3.048,0.051-6.084,2.701-6.281,5.786C232.714,110.221,234.036,110.216,234.091,109.37L234.091,109.37z"/>
		</g>
		<g>
			<path d="M234.339,105.32c-2.038-1.688-3.544-4.255-4.466-6.726c-0.239-0.64-0.824-2.562,0.309-1.802
				c0.626,0.42,1.165,1,1.692,1.534c1.99,2.014,3.507,4.65,5.606,6.523c0.634,0.565,1.573-0.367,0.935-0.935
				c-2.87-2.561-4.528-6.473-7.938-8.5c-1.548-0.921-2.428,0.734-2.209,2.151c0.485,3.143,2.725,6.692,5.136,8.69
				C234.055,106.795,234.996,105.865,234.339,105.32L234.339,105.32z"/>
		</g>
		<g>
			<path d="M239.591,125.93c3.184,1.245,6.617-1.011,8.743-3.255c0.586-0.619-0.347-1.555-0.935-0.935
				c-1.816,1.917-4.717,3.986-7.457,2.916C239.146,124.344,238.806,125.624,239.591,125.93L239.591,125.93z"/>
		</g>
		<g>
			<path d="M238.298,122.479c-0.208-0.378,0.293-0.864,0.558-1.072c0.671-0.525-0.271-1.454-0.935-0.935
				c-0.788,0.616-1.278,1.742-0.765,2.674C237.567,123.895,238.71,123.228,238.298,122.479L238.298,122.479z"/>
		</g>
		<g>
			<path d="M296.959,226.071c-0.019,22.159-1.195,44.307-1.147,66.466c0.005,2.255-0.448,4.874,2,6.001
				c1.023,0.472,2.426,0.141,3.476,0.02c1.371-0.158,2.771,0.037,4.132-0.212c2.702-0.495,3.552-1.889,3.938-4.503
				c0.406-2.753,0.242-5.593,0.403-8.368c0.304-5.213,0.446-10.435,0.778-15.647c0.316-4.965,0.662-9.93,1.018-14.894
				c0.501-7.01,1.029-14.018,1.633-21.02c0.238-2.759,0.491-5.518,0.788-8.27c0.152-1.411,0.105-3.242,0.667-4.574
				c0.328-0.775-0.811-1.451-1.142-0.667c-1.042,2.468-0.918,5.813-1.173,8.428c-0.575,5.896-1.029,11.806-1.479,17.714
				c-1.018,13.393-1.705,26.783-2.486,40.189c-0.168,2.895,0.122,5.88-0.687,8.698c-0.623,2.167-10.289,2.898-10.472,0.426
				c-0.233-3.148-0.069-6.355-0.03-9.507c0.151-12.214,0.48-24.428,0.74-36.641c0.167-7.878,0.358-15.76,0.365-23.64
				C298.283,225.219,296.96,225.219,296.959,226.071L296.959,226.071z"/>
		</g>
		<g>
			<path d="M273.982,223.757c-0.017,22.301-1.024,44.592-1.101,66.892c-0.005,1.563-0.582,4.724,0.249,6.173
				c1.43,2.492,3.664,1.875,6.191,1.65c2.36-0.211,4.981,0.279,6.434-2.038c1.211-1.931,0.901-5.242,0.938-7.393
				c0.078-4.587,0.413-9.18,0.626-13.763c0.294-6.385,0.771-12.763,1.223-19.139c0.728-10.238,1.418-20.496,2.531-30.701
				c0.093-0.847-1.23-0.838-1.322,0c-1.444,13.237-2.269,26.556-3.164,39.838c-0.517,7.672-1.058,15.388-1.206,23.075
				c-0.078,3.981,0.605,8.609-4.693,8.799c-1.997,0.071-6.31,1.064-6.435-1.833c-0.396-9.137,0.114-18.372,0.294-27.508
				c0.243-12.311,0.537-24.621,0.7-36.933c0.031-2.374,0.056-4.748,0.057-7.121C275.305,222.905,273.982,222.905,273.982,223.757
				L273.982,223.757z"/>
		</g>
		<g>
			<path d="M298.196,297.654c-5.155,3.856-10.163,7.862-15.471,11.508c-3.164,2.176,1.844,3.066,3.426,2.805
				c6.01-0.995,12.197-2.595,18.006-4.419c5.049-1.583,4.228-5.679,4.125-10.15c-0.02-0.851-1.342-0.854-1.323,0
				c0.035,1.502,0.086,3.001,0.11,4.503c0.052,3.307-2.447,4.162-4.979,4.887c-4.105,1.18-8.303,1.951-12.428,3.041
				c-0.632,0.173-1.266,0.336-1.902,0.488c-0.328,0.07-0.656,0.143-0.984,0.213c-1.157,0.578-2.088,0.369-2.796-0.63
				c1.5-1.029,3.008-2.034,4.476-3.112c3.526-2.589,6.904-5.373,10.406-7.993C299.537,298.292,298.879,297.142,298.196,297.654
				L298.196,297.654z"/>
		</g>
		<g>
			<path d="M274.222,297.52c-2.474,1.631-4.896,3.334-7.341,5.011c-2.253,1.545-4.981,2.724-7.083,4.437
				c-3.159,2.57,2.823,2.942,4.268,2.79c5.779-0.604,11.797-1.851,17.431-3.253c5.094-1.27,4.524-5.506,4.686-9.918
				c0.031-0.854-1.292-0.85-1.323,0c-0.055,1.5-0.093,3.001-0.159,4.501c-0.138,3.124-2.754,3.984-5.298,4.553
				c-3.874,0.866-7.8,1.409-11.703,2.113c-1.862,0.337-3.664,0.753-5.565,0.816c-1.161-0.578-1.267-0.998-0.319-1.259
				c1.045-0.562,2.045-1.229,3.046-1.861c3.415-2.151,6.659-4.567,10.028-6.788C275.598,298.194,274.937,297.048,274.222,297.52
				L274.222,297.52z"/>
		</g>
	</g>
	<path d="M169.935,45.503c-0.212-0.102-0.418-0.154-0.623-0.184c-0.481-0.442-1.006-0.859-1.609-1.221
		c-0.165-0.1-0.329-0.164-0.489-0.212c2.44-2.226,4.389-5.058,3.429-8.29c-1.724-5.8-13.507-3.92-17.5-3.377
		c-4.613,0.626-8.885,2.472-12.794,4.916c-1.417,0.885-9.606,10.182-9.981,10.069c-1.178-0.356-2.596,0.635-2.51,1.912
		c0.133,1.975-2.5,3.229-3.703,4.972c-2.32,3.361-2.437,7.823-2.331,11.724c0.041,1.556,1.639,2.402,2.985,1.713
		c0.687-0.605,1.396-0.925,2.129-0.978c0.142,0.101,0.295,0.195,0.475,0.268c0.671,0.176,1.36,2.888,1.728,3.54
		c0.472,0.838,1.357,1.048,2.239,0.912c0.491-0.076,0.899-0.261,1.255-0.506c0.521,0.464,1.177,0.676,2,0.387
		c3.414-1.203,4.336-3.754,4.791-7.051c2.15-1.145,3.42-3.145,4.2-5.454c0.181-0.144,0.349-0.313,0.491-0.509
		c0.768-1.046,1.206-2.279,1.459-3.542c0.208-1.036,0.569-2.155,0.28-3.192c2.259-0.353,4.833-0.388,6.828-0.784
		c3.78-0.749,7.88-1.876,11.101-4.071c0.132-0.089,0.268-0.184,0.402-0.278c-0.031,0.482,0.118,0.99,0.536,1.442
		c1.822,1.976,1.361,6.947,1.329,9.347c-0.047,3.502-1.008,6.864-1.166,10.326c-0.002,0.074,0.008,0.14,0.01,0.209
		c-0.298,0.708-0.142,1.375,0.236,1.878c-0.068,0.088-0.134,0.18-0.218,0.255c-0.598,0.609,0.337,1.545,0.935,0.935
		c0.129-0.131,0.234-0.276,0.344-0.418c0.785,0.27,1.7,0.083,2.224-0.867c0.239-0.432,0.478-0.891,0.715-1.373
		c0.009-0.012,0.021-0.02,0.028-0.032C172.612,63.353,177.391,49.107,169.935,45.503z"/>
	<path d="M229.063,50.851c0.691-2.861-0.478-6.494-2.779-8.207c0.484-0.916,0.709-1.86,0.689-2.809
		c1.069-4.242-2.06-8.704-6.731-8.813c-1.135-0.611-2.33-1.08-3.513-1.361c-8.742-2.073-25.482,0.672-29.633,9.963
		c-0.168,0.012-0.332,0.019-0.506,0.041c-2.317,0.291-3.664,2.264-4.646,4.173c-2.562,4.969-2.764,12.989-0.349,17.932
		c0.499,1.022,1.663,0.755,2.172,0.019c0.426,0.18,0.852,0.358,1.277,0.538c0.979,0.691,2.013-0.319,1.944-1.305
		c0.61-0.155,1.193-0.425,1.726-0.968c2.128-2.167,3.511-4.658,4.835-7.375c1.396-2.868,3.084-6.198,2.823-9.422
		c4.704,2.936,15.967,6.014,22.478,3.757c-0.083,0.574-0.076,1.154-0.001,1.727c-0.447,2.008,0.239,4.084,2.377,5.132
		c0.413,0.203,0.851,0.387,1.295,0.556c0.385,0.444,0.904,0.76,1.487,0.854c-0.11,0.05-0.204,0.139-0.268,0.279
		c-0.01,0.022-0.017,0.046-0.027,0.069c-0.196-0.417-0.777-0.46-1.084-0.151c-0.268,0.269-0.291,0.741-0.339,1.091
		c-0.133,0.948-0.314,2.002-0.209,2.96c0.091,0.838,1.415,0.847,1.322,0c-0.019-0.183-0.009-0.372-0.005-0.559
		c0.168,0.183,0.451,0.276,0.677,0.205c0.469-0.148,0.899-0.26,1.395-0.225c0.234,0.017,0.512-0.167,0.602-0.398
		c1.604-0.689,2.407-3.581,2.752-4.999C229.404,52.782,229.477,51.717,229.063,50.851z"/>
	<path d="M273.615,86.05c0.02-0.613-4.042-3.229-5.466-4.212c-1.221-0.844-3.217-2.285-3.258-3.93
		c-0.038-1.461-1.351-2.084-2.456-1.874c-0.32-0.086-0.672-0.109-1.046-0.039c-3.594,0.671-5.659,4.424-5.126,7.926
		c0.524,3.441,2.791,5.941,5.786,7.035c-0.801,1.244-1.342,2.574-1.207,4.081c0.172,1.889,1.558,2.628,2.928,2.358
		c-0.081,0.42-0.159,0.84-0.239,1.254c-0.485,2.499,3.337,3.565,3.826,1.055c0.457-2.352,0.825-4.716,1.939-6.865
		c1.002-1.934,2.712-3.505,4.031-5.225C273.75,87.061,273.793,86.516,273.615,86.05z"/>
	<path d="M311.598,71.041c1.738-1.344,3.079-3.145,2.742-5.036c0.18-0.944,0.177-1.912-0.15-2.841
		c-0.357-1.019-1.343-1.687-2.439-1.385l-0.004,0.002c0.085-0.377,0.13-0.764,0.195-1.146c0.354-0.25,0.625-0.604,0.706-1.044
		c0.245-1.347,0.167-2.642-0.382-3.798c-0.022-0.452-0.044-0.904-0.097-1.358c-0.114-0.979-1.04-1.838-1.97-1.997
		c0.347-0.432,0.552-0.995,0.51-1.574c4.041-7.393-3.812-16.967-9.262-21.132c-1.318-1.007-3.904-2.44-6.059-2.406
		c-0.788-0.379-1.595-0.721-2.432-0.996c-4.414-1.453-12.416-1.028-15.625,3.112c-2.302-1.631-5.101-2.107-8.447-1.275
		c-5.194,1.293-7.849,6.879-8.29,11.721c-0.045,0.5,0.069,0.896,0.279,1.197c-0.887,3.135-0.711,6.612,1.294,9.021
		c1.228,1.476,3.232,0.123,3.385-1.403c0.558-5.521,4.629-11.819,10.32-13.014c0.094,9.145,8.478,16.21,17.382,15.669
		c-1.109,1.438-1.868,3.33-1.104,4.765c-0.044,0.191-0.071,0.381-0.068,0.572c0.021,1.631,1.438,2.85,3.098,2.374
		c0.247-0.071,0.47-0.156,0.682-0.25c-0.012,0.053-0.034,0.102-0.044,0.156c-0.481,2.5,3.341,3.565,3.826,1.055
		c0.671-3.485,4.739-4.653,7.281-2.27c0.081,0.076,0.17,0.14,0.254,0.211c1.849,3.448-0.758,6.873-3.721,8.554
		c-1.029-0.541-2.462-0.3-2.791,1.154c-0.788,3.494-1.487,8.7-4.599,10.937c-1.641,1.18-1.014,3.51,1.001,3.696
		c0.54,0.05,1.242,0.186,2.017,0.389c0.013,0.622,0.293,1.218,0.949,1.545c0.293,0.146,0.587,0.293,0.882,0.44
		c0.155,0.078,0.323,0.129,0.496,0.167c0.202,0.091,0.404,0.183,0.605,0.273c0.264,0.128,0.52,0.193,0.766,0.223
		c0.688,0.545,1.362,1.111,1.98,1.779c1.127,1.218,2.238,1.939,3.875,2.126c1.396,0.158,2.105-1.377,1.912-2.511
		c-0.163-0.964-0.599-1.851-1.224-2.658c3.142,0.062,6.374-1.343,8.138-3.89C320.312,76.093,316.413,72.802,311.598,71.041z"/>
</g>
</svg>
