<?xml version="1.0" encoding="utf-8"?>
<!-- Generator: Adobe Illustrator 15.1.0, SVG Export Plug-In . SVG Version: 6.00 Build 0)  -->
<!DOCTYPE svg PUBLIC "-//W3C//DTD SVG 1.1//EN" "http://www.w3.org/Graphics/SVG/1.1/DTD/svg11.dtd">
<svg version="1.1" id="Layer_1" xmlns="http://www.w3.org/2000/svg" xmlns:xlink="http://www.w3.org/1999/xlink" x="0px" y="0px"
	 width="407.592px" height="338.589px" viewBox="0 0 407.592 338.589" enable-background="new 0 0 407.592 338.589"
	 xml:space="preserve">
<path d="M238.797,72.837c-0.707-0.169-1.381-0.157-2-0.015c-0.318-0.062-0.637-0.124-0.977-0.15
	c-0.566-0.043-1.061-0.014-1.517,0.056c-0.969-1.412-3.194-2.182-5.702-2.645c-0.321-0.189-0.667-0.36-1.042-0.516
	c-0.333-0.459-0.849-0.808-1.594-0.93c-1.273-0.208-2.67-0.341-4.001-0.232c-0.829-0.061-1.682-0.103-2.569-0.106
	c-0.415-0.002-0.774,0.072-1.094,0.191c-2.441-0.325-5.549-0.486-7.498,0.934c-9.988,0.95-21.251,4.418-23.572,13.42
	c-0.663,2.572,0.983,4.272,3.038,4.825c-0.313,0.627-0.529,1.292-0.529,1.98c0,1.643,1.299,2.727,2.847,2.848
	c2.362,0.185,4.666,0.186,6.936,0.048c0.473,0.475,1.101,0.816,1.843,0.901c4.873,0.556,10.236-0.786,15.084-3.25
	c4.854-1.336,9.513-3.232,12.874-6.353c0.496,1.797,1.212,3.466,2.226,4.844c0.013,0.859,0.371,1.728,1.237,2.353
	c2.392,1.671,4.526,2.208,7.107,1.292c1.228,0.573,3.087,0.202,3.667-1.125c0.306-0.699,0.45-1.351,0.506-1.977
	C247.456,84.082,245.408,74.426,238.797,72.837z"/>
<g>
	<g>
		<g>
			<path d="M84.842,161.429c9.085,25.621,20.448,53.13,17.858,80.86c-0.085,0.915,1.339,0.906,1.423,0
				c2.603-27.861-8.783-55.503-17.907-81.239C85.911,160.191,84.535,160.561,84.842,161.429L84.842,161.429z"/>
		</g>
		<g>
			<path d="M125.945,135.273c1.553,4.457,4.666,8.54,6.752,12.789c1.895,3.86,3.509,7.881,5.313,11.789
				c4.241,9.182,6.637,18.337,6.416,28.524c-0.02,0.919,1.404,0.916,1.423,0c0.199-9.14-1.582-17.641-5.167-26.027
				c-1.652-3.862-3.473-7.653-5.157-11.5c-1.2-2.737-2.518-5.405-3.926-8.039c-1.389-2.597-3.31-5.125-4.28-7.914
				C127.019,134.033,125.642,134.404,125.945,135.273L125.945,135.273z"/>
		</g>
		<g>
			<path d="M98.756,200.445c17.103-0.188,34.835-9.825,46.305-22.212c0.623-0.673-0.382-1.682-1.007-1.007
				c-11.211,12.108-28.575,21.613-45.298,21.796C97.838,199.031,97.837,200.455,98.756,200.445L98.756,200.445z"/>
		</g>
		<g>
			<path d="M98.378,200.33c3.802,5.114,14.759,2.696,20.023,1.81c9.955-1.674,20.039-5.722,27.381-12.796
				c0.662-0.638-0.346-1.643-1.006-1.006c-6.49,6.253-14.951,9.762-23.62,11.798c-3.52,0.829-7.112,1.258-10.715,1.509
				c-3.117,0.216-8.713,0.821-10.834-2.031C99.066,198.884,97.829,199.593,98.378,200.33L98.378,200.33z"/>
		</g>
		<g>
			<path d="M115.543,131.666c2.733-2.096,4.798-4.53,6.785-7.323c2.168-3.052,4.584-6.279,5.702-9.888
				c0.272-0.879-1.102-1.253-1.374-0.379c-0.97,3.133-3.052,5.893-4.882,8.578c-2.004,2.94-4.113,5.606-6.949,7.783
				C114.107,130.987,114.814,132.225,115.543,131.666L115.543,131.666z"/>
		</g>
		<g>
			<path d="M126.781,114.827c1.208,0.969,1.746,2.659,2.691,3.881c1.285,1.66,2.865,3.068,4.51,4.356
				c2.092,1.638,4.597,3.038,7.291,3.27c1.383,0.118,3.168,0.128,3.517-1.522c0.488-2.305-2.978-2.989-4.388-3.582
				c-0.845-0.356-1.21,1.022-0.378,1.373c0,0,4.393,2.176,2.415,2.365c-0.701,0.067-1.425-0.089-2.109-0.22
				c-1.696-0.321-3.199-1.271-4.628-2.189c-2.006-1.292-3.697-3.044-5.224-4.857c-1.04-1.237-1.413-2.854-2.691-3.881
				C127.079,113.252,126.065,114.253,126.781,114.827L126.781,114.827z"/>
		</g>
		<g>
			<path d="M142.907,124.871c-1.636,4.25-3.996,8.244-6.187,12.233c-1.361,2.48-2.637,5.662-4.602,7.737
				c-0.631,0.666,0.374,1.674,1.007,1.006c2.066-2.182,3.388-5.424,4.824-8.025c2.261-4.097,4.648-8.203,6.332-12.574
				C144.611,124.391,143.234,124.023,142.907,124.871L142.907,124.871z"/>
		</g>
		<g>
			<path d="M74.049,137.21c5.822,4.299,11.658,5.375,18.775,4.545c0.9-0.106,0.91-1.529,0-1.424
				c-6.836,0.796-12.446-0.207-18.058-4.351C74.027,135.435,73.319,136.67,74.049,137.21L74.049,137.21z"/>
		</g>
		<g>
			<path d="M74.219,137.282c2.466,0.385,1.682,10.16,1.633,11.944c-0.04,1.5-0.115,3.002-0.261,4.496
				c-0.081,0.821-0.12,1.657-0.249,2.472c-2.904,1.315-4.27,1.084-4.093-0.694c-0.01-0.583,0.004-1.151-0.044-1.733
				c-0.077-0.908-1.501-0.915-1.424,0c0.244,2.881-0.139,5.719,3.648,5.516c3.446-0.185,3.421-3.62,3.644-6.203
				c0.317-3.681,0.354-7.423,0.077-11.105c-0.128-1.713-0.256-5.705-2.552-6.065C73.699,135.769,73.313,137.14,74.219,137.282
				L74.219,137.282z"/>
		</g>
		<g>
			<path d="M72.459,158.395c0.881,1.647,2.983,2.079,4.597,2.729c3.025,1.221,6.211,1.942,9.451,2.25
				c0.914,0.088,0.905-1.337,0-1.423c-2.502-0.239-4.889-0.784-7.278-1.55c-1.46-0.468-4.76-1.264-5.542-2.724
				C73.254,156.868,72.025,157.586,72.459,158.395L72.459,158.395z"/>
		</g>
		<g>
			<path d="M93.205,138.453c-0.498,1.39-0.862,2.813-1.423,4.181c-0.142,0.345,0.151,0.801,0.498,0.876
				c3.963,0.854,7.621,2.549,11.218,4.376c0.397,0.203,0.929,0.042,1.045-0.425c0.417-1.677,0.729-4.766,2.616-5.463
				c0.854-0.315,0.485-1.692-0.378-1.373c-2.587,0.956-3.022,4.093-3.611,6.458c0.348-0.142,0.698-0.284,1.045-0.426
				c-3.703-1.881-7.476-3.64-11.558-4.521c0.166,0.292,0.331,0.584,0.498,0.875c0.56-1.366,0.926-2.791,1.423-4.181
				C94.889,137.964,93.513,137.595,93.205,138.453L93.205,138.453z"/>
		</g>
		<g>
			<path d="M93.892,139.086c4.424,0.113,8.739,0.613,12.978,1.932c0.879,0.272,1.251-1.101,0.378-1.373
				c-4.362-1.357-8.802-1.866-13.356-1.982C92.973,137.639,92.976,139.062,93.892,139.086L93.892,139.086z"/>
		</g>
		<g>
			<path d="M106.711,141.046c1.882,3.27,4.129,6.232,5.8,9.635c1.763,3.592,2.965,7.454,4.093,11.28
				c0.26,0.879,1.633,0.505,1.373-0.378c-1.055-3.579-2.244-7.091-3.728-10.516c-1.677-3.872-4.222-7.113-6.309-10.739
				C107.483,139.534,106.253,140.25,106.711,141.046L106.711,141.046z"/>
		</g>
		<g>
			<path d="M111.162,133.143c-1.434,4.923-0.524,10.165,0.46,15.089c0.181,0.899,1.553,0.519,1.374-0.378
				c-0.934-4.669-1.821-9.659-0.46-14.332C112.792,132.639,111.419,132.264,111.162,133.143L111.162,133.143z"/>
		</g>
		<g>
			<path d="M111.858,140.876c-0.141-0.718,2.062-1.781,2.57-1.98c1.213-0.479,2.962-0.909,4.148-0.181
				c0.784,0.482,1.499-0.749,0.718-1.229c-1.677-1.031-4.068-0.511-5.757,0.244c-1.258,0.562-3.368,1.906-3.053,3.525
				C110.661,142.156,112.032,141.773,111.858,140.876L111.858,140.876z"/>
		</g>
		<g>
			<path d="M113.761,132.652c1.228,0.08,2.24,1.673,2.858,2.571c0.674,0.981,1.256,2.041,1.748,3.125
				c0.377,0.835,1.604,0.111,1.229-0.717c-1.028-2.271-2.968-6.215-5.834-6.403C112.844,131.168,112.851,132.591,113.761,132.652
				L113.761,132.652z"/>
		</g>
		<g>
			<path d="M144.959,188.997c-0.438,3.416-0.182,6.917-0.373,10.358c-0.226,4.092-0.645,8.171-1.152,12.236
				c-0.966,7.736-2.462,15.444-4.006,23.084c-1.468,7.257-3.453,14.407-6.609,21.125c-1.386,2.948-3.014,5.791-5.317,8.118
				c-1.355,1.368-3.036,2.204-4.874,2.693c-3.729,0.994-5.48-1.583-5.427-4.838c0.016-0.919-1.408-0.917-1.423,0
				c-0.101,6.249,5.082,7.669,10.186,5.069c6.636-3.384,9.654-13.197,11.775-19.716c3.005-9.232,4.505-19.038,6.104-28.591
				c0.761-4.548,1.323-9.129,1.757-13.719c0.496-5.246,0.117-10.618,0.783-15.818C146.5,188.088,145.075,188.099,144.959,188.997
				L144.959,188.997z"/>
		</g>
		<g>
			<path d="M124.853,211.239c0.137,10.954-1.291,21.676-4.084,32.259c-1.251,4.74-2.583,9.454-4.222,14.077
				c-1.818,5.135-4.693,11.288-10.911,11.671c-8.748,0.54-15.557-11.239-19.46-17.551c-3.963-6.407-7.907-12.976-15.226-15.875
				c-0.853-0.338-1.22,1.038-0.378,1.374c9.46,3.748,13.461,14.535,19.099,22.238c4.236,5.787,10.962,13.193,18.971,10.698
				c8.298-2.586,10.607-15.725,12.548-22.717c3.301-11.892,5.242-23.803,5.086-36.173
				C126.265,210.322,124.841,210.32,124.853,211.239L124.853,211.239z"/>
		</g>
		<g>
			<path d="M80.484,219.803c4.242,2.238,6.93,6.518,10.071,10.015c3.753,4.178,7.564,8.288,11.374,12.412
				c0.624,0.675,1.627-0.333,1.006-1.007c-3.811-4.123-7.604-8.249-11.373-12.411c-3.269-3.608-5.963-7.919-10.362-10.238
				C80.391,218.146,79.671,219.374,80.484,219.803L80.484,219.803z"/>
		</g>
		<g>
			<path d="M101.718,241.229c-1.479,0.74-2.487,2.176-2.73,3.807c-0.134,0.898,1.238,1.283,1.373,0.378
				c0.195-1.303,0.884-2.36,2.074-2.956C103.257,242.049,102.536,240.821,101.718,241.229L101.718,241.229z"/>
		</g>
		<g>
			<path d="M101.721,214.264c0.918,0,0.918-1.423,0-1.423C100.804,212.841,100.804,214.264,101.721,214.264L101.721,214.264z"/>
		</g>
		<g>
			<path d="M86.032,222.419c0.567-0.72,4.539-5.266,5.234-3.67c0.656,1.506,1.582,2.768,2.62,4.028
				c2.651,3.213,6.011,6.259,9.289,8.806c0.716,0.556,1.731-0.443,1.007-1.006c-2.408-1.871-4.472-4.065-6.705-6.128
				c-2.093-1.937-4.32-4.187-5.123-6.992c-0.079-0.275-0.375-0.563-0.686-0.522c-3.011,0.39-4.81,2.154-6.642,4.479
				C84.464,222.124,85.463,223.139,86.032,222.419L86.032,222.419z"/>
		</g>
		<g>
			<path d="M80.755,218.743c-5.252,4.51-9.688,10.585-10.682,17.574c-0.128,0.896,1.244,1.284,1.373,0.378
				c0.963-6.778,5.223-12.572,10.314-16.946C82.459,219.151,81.447,218.148,80.755,218.743L80.755,218.743z"/>
		</g>
		<g>
			<path d="M74.38,225.475c-5.419-0.054-9.899,11.997-3.203,11.863c0.916-0.019,0.919-1.442,0-1.424
				c-4.341,0.087-0.559-9.052,3.203-9.015C75.299,226.909,75.298,225.485,74.38,225.475L74.38,225.475z"/>
		</g>
		<g>
			<path d="M78.236,221.301c-3.183-1.359-6.314-2.167-9.786-2.255c-2.621-0.065-3.726,2.634-4.744,4.564
				c-4.134,7.831-7.721,16.17-7.64,25.177c0.026,3.069,2.089,13.449,7.277,9.891c1.931-1.326,2.52-4.778,3.057-6.827
				c1.095-4.183,1.9-11.242,5.963-13.662c0.788-0.469,0.073-1.7-0.717-1.229c-3.572,2.127-4.736,7.241-5.738,10.968
				c-0.708,2.634-1.175,5.349-2.245,7.871c-1.597,3.759-4.311,0.96-5.213-1.27c-0.563-1.394-0.747-3.026-0.894-4.5
				c-0.701-6.939,1.81-13.926,4.619-20.14c1.143-2.526,2.444-4.983,3.751-7.429c2.059-3.856,8.606-1.205,11.592,0.069
				C78.353,222.886,79.079,221.66,78.236,221.301L78.236,221.301z"/>
		</g>
		<g>
			<path d="M67.671,242.812c-0.427,2.475,1.263,4.767,3.887,4.637c3.592-0.176,3.522-5.119,5.155-7.292
				c0.552-0.734-0.686-1.443-1.229-0.717c-1.331,1.771-1.29,4.248-2.712,5.926c-1.568,1.848-4.07-0.193-3.727-2.176
				C69.199,242.292,67.829,241.909,67.671,242.812L67.671,242.812z"/>
		</g>
		<g>
			<path d="M75.734,220.762c1.295-1.705,2.168-3.683,3.505-5.365c2.934-3.692,6.824,0.794,8.789,3.407
				c0.544,0.724,1.78,0.017,1.228-0.717c-1.788-2.38-5.238-6.639-8.688-5.531c-3.026,0.973-4.323,5.197-6.063,7.489
				C73.949,220.775,75.187,221.483,75.734,220.762L75.734,220.762z"/>
		</g>
		<g>
			<path d="M75.823,216.135c0.542-1.002,1.49-1.654,2.292-2.436c0.659-0.642-0.349-1.647-1.007-1.006
				c-0.894,0.87-1.907,1.606-2.513,2.725C74.158,216.224,75.386,216.943,75.823,216.135L75.823,216.135z"/>
		</g>
		<g>
			<path d="M62.016,224.952c0.245-0.665,0.697-1.202,1.151-1.732c0.594-0.694-0.408-1.706-1.006-1.007
				c-0.625,0.73-1.182,1.451-1.519,2.361C60.325,225.437,61.701,225.805,62.016,224.952L62.016,224.952z"/>
		</g>
		<g>
			<path d="M104.899,115.817c0.428-1.885,3.161-1.458,3.766,0.078c0.907,2.308-2.246,3.647-4.037,3.412
				c-0.908-0.119-0.896,1.306,0,1.423c2.975,0.389,6.827-2.357,5.241-5.627c-1.232-2.54-5.648-2.725-6.343,0.336
				C103.322,116.333,104.694,116.712,104.899,115.817L104.899,115.817z"/>
		</g>
		<g>
			<path d="M105.395,120.174c-2.427,1.13-7.877,0.87-9.469,3.307c-1.234,1.889-0.729,4.042-0.12,6.076
				c0.591,1.976,0.835,5.274,2.434,6.747c2.369,2.183,5.658,0.976,8.328-0.005c3.216-1.182,6.172-2.954,8.567-5.412
				c2.414-2.477,2.447-4.734,1.205-7.775c-0.434-1.064-0.937-6.029-2.509-6.271c-3.218-0.493-5.898,2.557-8.682,3.677
				c-0.841,0.339-0.474,1.715,0.378,1.374c1.598-0.644,2.941-1.607,4.407-2.502c0.641-0.392,3.282-1.7,3.741-0.427
				c0.265,0.74,0.31,1.733,0.506,2.495c0.86,3.333,2.672,5.112-0.053,8.423c-1.587,1.93-3.915,3.185-6.118,4.271
				c-2.782,1.371-8.16,3.528-9.626-0.66c-0.49-1.403-0.741-2.895-1.208-4.311c-1.026-3.119-0.737-5.184,3.051-6.047
				c2.048-0.467,3.972-0.838,5.883-1.729C106.945,121.016,106.221,119.789,105.395,120.174L105.395,120.174z"/>
		</g>
		<g>
			<path d="M103.204,127.609c2.759,0.346,6.007-0.662,7.495-3.14c0.474-0.789-0.758-1.504-1.229-0.717
				c-1.24,2.064-4.015,2.718-6.266,2.434C102.295,126.072,102.307,127.497,103.204,127.609L103.204,127.609z"/>
		</g>
		<g>
			<path d="M99.526,136.21c3.697,0.338,7.118-2.38,8.721-5.594c0.482-0.966,4.343-0.61,5.33-1.057
				c1.386-0.625,2.434-1.372,2.949-2.829c0.305-0.867-1.069-1.237-1.374-0.378c-0.796,2.256-3.992,2.524-5.957,2.242
				c-0.419-0.061-0.934-0.05-1.275,0.231c-0.915,0.753-1.302,1.901-2.046,2.825c-1.581,1.963-3.752,3.373-6.348,3.136
				C98.612,134.703,98.62,136.126,99.526,136.21L99.526,136.21z"/>
		</g>
		<g>
			<path d="M114.926,127.606c-1.635,2.258-4.676,1.219-6.802,2.413c-0.666,0.373-1.113,1.137-1.523,1.752
				c-1.186,1.778-2.472,2.918-4.535,3.574c0.182,0.434,0.365,0.867,0.548,1.301c2.957-1.568,5.927-2.93,8.211-5.449
				c0.52-0.574-0.168-1.598-0.862-1.118c-1.311,0.902-2.589,1.833-3.822,2.838c0.334,0.335,0.671,0.671,1.006,1.007
				c1.303-1.139,2.624-1.935,4.312-2.366c-0.231-0.397-0.462-0.793-0.693-1.189c-1.742,1.371-3.773,2.26-5.667,3.388
				c-0.588,0.348-0.367,1.362,0.358,1.326c3.67-0.185,6.65-2.787,9.4-4.953c0.633-0.499-0.222-1.608-0.862-1.118
				c-0.55,0.494-1.186,0.846-1.905,1.054c-0.842,0.338-0.475,1.714,0.377,1.374c0.832-0.334,1.528-0.648,2.246-1.199
				c-0.287-0.373-0.574-0.745-0.862-1.118c-2.401,1.891-5.165,4.374-8.394,4.536c0.12,0.442,0.239,0.884,0.359,1.326
				c2.007-1.194,4.113-2.16,5.957-3.61c0.591-0.465-0.056-1.353-0.692-1.19c-1.911,0.488-3.462,1.44-4.94,2.733
				c-0.7,0.612,0.307,1.577,1.006,1.007c1.142-0.93,2.323-1.782,3.534-2.616c-0.286-0.372-0.574-0.745-0.861-1.118
				c-2.205,2.432-5.077,3.717-7.922,5.227c-0.713,0.378-0.223,1.545,0.547,1.301c1.255-0.398,2.676-0.973,3.635-1.904
				c1.232-1.196,1.849-3.397,3.596-3.907c2.417-0.706,4.799-0.262,6.479-2.583C116.694,127.579,115.458,126.87,114.926,127.606
				L114.926,127.606z"/>
		</g>
		<g>
			<path d="M93.24,116.104c2.145-0.266,4.041-1.282,5.815-2.471c0.758-0.509,0.047-1.742-0.717-1.229
				c-1.537,1.029-3.229,2.045-5.098,2.276C92.34,114.791,92.331,116.216,93.24,116.104L93.24,116.104z"/>
		</g>
		<g>
			<path d="M108.672,109.969c1.855-0.334,3.491-1.45,4.88-2.675c0.689-0.607-0.321-1.611-1.006-1.006
				c-1.216,1.071-2.633,2.017-4.252,2.307C107.391,108.758,107.775,110.13,108.672,109.969L108.672,109.969z"/>
		</g>
		<g>
			<path d="M97.284,112.688c-0.598-0.245-1.158-2.063-0.709-2.558c0.193-0.212,0.51,0.862,0.545,0.992
				c0.144,0.538,0.206,1.103,0.213,1.659c0.011,0.918,1.42,0.919,1.423,0c0.004-1.154-0.023-3.948-1.927-3.401
				c-1.505,0.432-0.194,2.907,0.534,3.49c0.708,0.569,1.722-0.432,1.006-1.006c-0.283-0.228-0.871-1.082-0.809-1.435
				c-0.141,0.784-0.54,0.01-0.388,0.441c0.071,0.199,0.101,0.416,0.123,0.626c0.046,0.425,0.039,0.856,0.038,1.284
				c0.474,0,0.949,0,1.423,0c-0.017-1.413-0.706-5.253-2.954-3.844c-1.754,1.1-0.455,4.485,1.104,5.125
				C97.755,114.409,98.121,113.031,97.284,112.688L97.284,112.688z"/>
		</g>
		<g>
			<path d="M111.625,106.613c-0.717-0.014-1.528-1.745-0.85-2.214c-0.031,0.022-0.044-0.043,0.109,0.089
				c0.2,0.171,0.333,0.4,0.464,0.625c0.221,0.384,0.438,0.873,0.455,1.322c0.465-0.062,0.933-0.126,1.398-0.189
				c-0.193-0.694-0.389-1.397-0.754-2.024c-0.367-0.63-1.249-1.085-1.856-0.455c-1,1.037,0.016,3.434,1.379,3.65
				c0.897,0.142,1.283-1.23,0.378-1.374c-0.299-0.047-0.44-0.361-0.569-0.607c-0.083-0.16-0.123-0.341-0.161-0.516
				c-0.005-0.063-0.007-0.128-0.004-0.191c0.085-0.169-0.065-0.128-0.448,0.125c0.196,0.097,0.335,0.687,0.4,0.879
				c0.101,0.293,0.179,0.593,0.261,0.891c0.213,0.765,1.429,0.626,1.398-0.189c-0.053-1.371-1.494-4.426-3.268-3.197
				c-1.835,1.272-0.406,4.757,1.667,4.799C112.544,108.054,112.542,106.631,111.625,106.613L111.625,106.613z"/>
		</g>
		<g>
			<path d="M94.564,106.794c0.453-1.033,1.764-1.204,2.767-1.308c0.904-0.095,0.912-1.52,0-1.424
				c-1.48,0.154-3.325,0.486-3.996,2.015C92.97,106.908,94.196,107.633,94.564,106.794L94.564,106.794z"/>
		</g>
		<g>
			<path d="M106.139,101.778c0.743-0.708,1.828-1.28,2.878-1.156c0.91,0.107,0.9-1.318,0-1.424
				c-1.404-0.166-2.896,0.633-3.884,1.574C104.466,101.405,105.474,102.411,106.139,101.778L106.139,101.778z"/>
		</g>
		<g>
			<path d="M85.5,101.6c2.152,2.283,2.754,4.842,2.58,7.92c-0.167,2.962-1.852,8.852-4.935,10.107
				c-0.838,0.342-0.473,1.719,0.378,1.373c3.396-1.383,4.62-5.684,5.551-8.932c1.184-4.124,0.367-8.362-2.567-11.475
				C85.875,99.925,84.87,100.933,85.5,101.6L85.5,101.6z"/>
		</g>
		<g>
			<path d="M83.75,120.254c-0.178-2.369-3.046-3.829-5.208-3.446c-2.537,0.449-3.933,2.51-3.831,5.02
				c0.089,2.227,1.638,3.745,3.72,4.235c1.835,0.433,3.857-0.169,4.404-2.12c0.248-0.886-1.126-1.261-1.374-0.378
				c-0.337,1.208-1.582,1.32-2.651,1.126c-1.353-0.246-2.263-1.059-2.606-2.394c-0.378-1.475,0.238-3.017,1.539-3.767
				c1.36-0.784,4.438-0.202,4.583,1.724C82.395,121.164,83.819,121.17,83.75,120.254L83.75,120.254z"/>
		</g>
		<g>
			<path d="M81.139,125.593c-0.016,4.578,4.296,8.96,7.883,11.283c4.165,2.695,11.208,2.694,15.371,0.007
				c0.769-0.496,0.056-1.728-0.717-1.229c-3.702,2.388-9.121,2.135-13.019,0.479c-3.56-1.51-8.109-6.499-8.095-10.541
				C82.565,124.675,81.142,124.675,81.139,125.593L81.139,125.593z"/>
		</g>
		<g>
			<path d="M79.361,120.848c0.116-0.073,0.174-0.073,0.178,0c0.099,0.902,1.523,0.912,1.423,0c-0.093-0.846-0.684-1.543-1.602-1.423
				C78.464,119.542,78.453,120.966,79.361,120.848L79.361,120.848z"/>
		</g>
		<g>
			<path d="M84.639,99.762c-0.018,1.161-0.262,2.263-0.598,3.37c-0.266,0.881,1.107,1.255,1.374,0.378
				c0.37-1.225,0.628-2.464,0.648-3.748C86.077,98.843,84.653,98.845,84.639,99.762L84.639,99.762z"/>
		</g>
		<g>
			<path d="M85.518,102.139c7.473,1.382,16.896-2.714,22.597-7.463c4.176-3.477,10.731-14.003,5.497-18.993
				c-0.665-0.632-1.672,0.373-1.006,1.007c5.139,4.901-3.147,15.294-7.048,18.207c-4.932,3.682-13.513,7.007-19.662,5.87
				C85,100.601,84.616,101.973,85.518,102.139L85.518,102.139z"/>
		</g>
		<g>
			<path d="M113.109,75.474c-9.329-0.195-18.576,3.851-26.772,7.91c-4.998,2.474-9.871,5.431-14.423,8.646
				c-2.252,1.589-3.692,3.086-2.124,5.688c0.204-0.356,0.41-0.713,0.614-1.071c-3.221,0.27-3.029,1.907-1.326,4.185
				c0.542,0.727,1.779,0.018,1.229-0.717c-0.526-0.704-1.262-1.93,0.097-2.043c0.519-0.043,0.912-0.577,0.615-1.07
				c-2.43-4.036,16.512-12.667,19.509-14.05c6.968-3.215,14.787-6.216,22.581-6.054C114.028,76.917,114.025,75.494,113.109,75.474
				L113.109,75.474z"/>
		</g>
		<g>
			<path d="M68.561,100.908c-1.868,6.27-3.008,13.717-0.212,19.909c2.482,5.5,8.857,11.184,15.312,10.617
				c0.908-0.079,0.915-1.504,0-1.423c-6.26,0.548-12.276-5.244-14.36-10.643c-2.208-5.725-1.061-12.397,0.634-18.083
				C70.197,100.405,68.822,100.03,68.561,100.908L68.561,100.908z"/>
		</g>
		<g>
			<path d="M109.995,91.132c0.043,4.407,3.728,7.595,7.918,8.097c0.91,0.108,0.899-1.315,0-1.424
				c-3.418-0.41-6.46-3.103-6.495-6.673C111.41,90.215,109.987,90.214,109.995,91.132L109.995,91.132z"/>
		</g>
		<g>
			<path d="M113.468,87.655c7.682-5.085,7.182,11.667,5.716,15.655c-0.317,0.863,1.06,1.233,1.374,0.378
				c1.852-5.044,1.623-23.504-7.807-17.262C111.988,86.931,112.7,88.164,113.468,87.655L113.468,87.655z"/>
		</g>
		<g>
			<path d="M116.765,99.231c1.524,2.073,2.265,5.786,2.779,8.271c1.024,4.946,1.192,13.89-3.413,17.268
				c-0.733,0.537-0.024,1.772,0.717,1.229c4.198-3.077,4.561-9.124,4.551-13.883c-0.009-3.981-0.922-10.227-3.406-13.602
				C117.456,97.783,116.22,98.492,116.765,99.231L116.765,99.231z"/>
		</g>
		<g>
			<path d="M138.045,69.235c-0.816,3.7-1.03,7.512-1.629,11.25c-0.699,4.369-1.621,8.7-2.625,13.009
				c-2.113,9.07-4.846,17.995-7.846,26.808c-0.296,0.872,1.079,1.243,1.374,0.378c2.858-8.397,5.417-16.886,7.532-25.502
				c1.058-4.308,1.952-8.656,2.722-13.023c0.733-4.16,0.938-8.421,1.846-12.542C139.616,68.72,138.243,68.338,138.045,69.235
				L138.045,69.235z"/>
		</g>
		<g>
			<path d="M139.324,68.565c-1.17-1.507-2.481-2.896-3.632-4.418c-0.499-0.659-2.345-5.682-0.623-4.087
				c1.167,1.082,1.96,2.702,3.304,3.573c0.455,0.295,1.077-0.092,1.07-0.614c-0.022-1.577-0.216-3.073-0.47-4.626
				c-0.228-1.394-0.399-2.77-0.42-4.182c0.277-0.349,0.555-0.698,0.832-1.047c0.123,0.521,0.2,1.048,0.236,1.581
				c0.085,0.906,1.508,0.915,1.423,0c-0.138-1.48-0.628-4.584-2.85-3.283c-2.757,1.614-0.207,9.344-0.175,11.558
				c0.357-0.205,0.715-0.41,1.07-0.615c-1.451-0.941-3.458-5.619-5.725-4.256c-1.194,0.717-0.598,2.991-0.345,3.989
				c0.729,2.875,3.55,5.187,5.297,7.434C138.88,70.296,139.88,69.281,139.324,68.565L139.324,68.565z"/>
		</g>
		<g>
			<path d="M139.622,55.279c0.274,2.085,0.564,4.166,0.915,6.238c0.125,0.736,1.18,0.622,1.373,0
				c0.887-2.87-0.813-9.406,2.431-10.874c-0.324-0.084-0.65-0.17-0.974-0.255c1.582,3.322-0.352,7.177,0.284,10.684
				c0.11,0.604,1.031,0.695,1.301,0.169c1.112-2.161,1.29-4.66,2.565-6.746c1.874-3.064,0.937,1.624,0.653,2.528
				c-0.562,1.795-1.462,3.44-1.938,5.271c-0.231,0.89,1.142,1.266,1.373,0.378c0.407-1.565,4.729-9.928,1.585-10.794
				c-1.336-0.367-2.647,1.482-3.212,2.408c-1.16,1.896-1.24,4.269-2.254,6.237c0.434,0.056,0.867,0.112,1.301,0.169
				c-0.677-3.733,1.289-7.419-0.428-11.024c-0.179-0.376-0.645-0.404-0.973-0.255c-4.045,1.829-2.052,8.382-3.086,11.724
				c0.457,0,0.916,0,1.373,0c-0.329-1.949-0.607-3.902-0.864-5.86C140.927,54.382,139.502,54.371,139.622,55.279L139.622,55.279z"/>
		</g>
		<g>
			<path d="M147.798,62.755c0.312-0.585,0.661-1.078,1.082-1.602c0.281-0.332,0.58-0.647,0.898-0.945
				c0.695-0.962,1.511-0.941,2.449,0.059c-0.588,1.009-1.712,1.774-2.525,2.594c-2.272,2.298,0.418,6.142-2.433,8.263
				c-0.728,0.541-0.02,1.778,0.717,1.229c2.187-1.626,2.165-3.727,2.161-6.278c-0.006-2.812,2.701-3.295,3.592-5.623
				c0.489-1.276-0.449-2.961-2.015-2.761c-2.304,0.295-4.115,2.39-5.156,4.348C146.138,62.846,147.367,63.565,147.798,62.755
				L147.798,62.755z"/>
		</g>
		<g>
			<path d="M147.628,71.827c0.453,3.709,0.081,7.59-0.127,11.303c-0.304,5.451-0.781,10.905-1.521,16.314
				c-0.581,4.243-1.699,8.153-3.246,12.146c-1.559,4.023-3.147,8.869-5.773,12.369c-0.552,0.735,0.686,1.443,1.229,0.717
				c2.384-3.174,3.763-7.425,5.26-11.065c1.756-4.266,3.103-8.479,3.795-13.041c0.788-5.198,1.221-10.457,1.573-15.7
				c0.287-4.267,0.755-8.776,0.234-13.043C148.942,70.927,147.517,70.917,147.628,71.827L147.628,71.827z"/>
		</g>
		<g>
			<path d="M143.002,65.866c0.619-0.051,1.098,0.062,1.599,0.437c0.734,0.552,1.442-0.685,0.717-1.229
				c-0.676-0.507-1.479-0.701-2.316-0.631C142.094,64.517,142.087,65.942,143.002,65.866L143.002,65.866z"/>
		</g>
		<g>
			<path d="M36.694,110.175c4.255,6.401,10.398,11.211,16.492,15.768c6.977,5.217,14.501,9.686,22.388,13.377
				c0.826,0.386,1.549-0.84,0.717-1.229c-7.155-3.349-13.926-7.356-20.375-11.915c-6.604-4.667-13.47-9.914-17.994-16.719
				C37.417,108.697,36.184,109.409,36.694,110.175L36.694,110.175z"/>
		</g>
		<g>
			<path d="M30.822,118.004c1.979,3.048,3.774,6.262,6.154,9.021c3.662,4.246,7.955,7.995,12.165,11.677
				c7.852,6.869,16.455,14.882,26.604,18.12c0.877,0.279,1.25-1.096,0.378-1.374c-9.934-3.167-18.272-11.061-25.975-17.751
				c-3.944-3.425-7.825-6.962-11.375-10.797c-2.67-2.882-4.59-6.332-6.721-9.612C31.553,116.519,30.32,117.232,30.822,118.004
				L30.822,118.004z"/>
		</g>
		<g>
			<path d="M38.14,109.283c0.002-1.658,0.067-3.216,0.523-4.826c0.395-1.395,0.904-2.685,1.127-4.127
				c0.225-1.448-0.128-2.507-1.639-2.825c-3.114-0.656-4.261,4.323-4.459,6.44c-0.087,0.915,1.339,0.906,1.423,0
				c0.089-0.944,0.324-1.846,0.628-2.742c0.213-0.625,0.544-1.214,0.958-1.727c0.803-0.996,1.804-0.089,1.642,0.957
				c-0.234,1.512-0.85,2.925-1.264,4.389c-0.405,1.432-0.36,2.99-0.363,4.461C36.714,110.201,38.138,110.201,38.14,109.283
				L38.14,109.283z"/>
		</g>
		<g>
			<path d="M35.374,101.57c-1.146-2.715-1.116-5.721-1.826-8.55c-0.268-1.07-1.372-2.766-2.63-2.766
				c-3.769,0-0.496,9.51-0.226,10.974c0.167,0.902,1.539,0.518,1.373-0.378c-0.315-1.707-0.808-3.371-1.161-5.068
				c-0.133-0.637-0.672-5.438,0.866-3.203c0.905,1.313,0.911,3.349,1.126,4.877c0.237,1.678,0.589,3.27,1.249,4.831
				C34.5,103.13,35.726,102.403,35.374,101.57L35.374,101.57z"/>
		</g>
		<g>
			<path d="M30.583,95.985c-0.625-1.574-3.324-5.49-5.441-3.736c-0.948,0.784-0.713,1.939-0.381,2.988
				c0.772,2.438,1.919,4.731,2.669,7.176c0.268,0.876,1.643,0.502,1.374-0.378c-0.683-2.225-1.695-4.322-2.464-6.517
				c-0.213-0.615-0.744-2.763,0.786-1.834c0.915,0.555,1.695,1.698,2.084,2.679C29.544,97.206,30.92,96.839,30.583,95.985
				L30.583,95.985z"/>
		</g>
		<g>
			<path d="M26.663,97.926c-1.115-1.341-2.342-2.523-4.193-2.083c-1.02,0.243-1.502,1.251-1.464,2.215
				c0.11,2.639,2.579,4.755,3.827,6.897c0.462,0.792,1.692,0.077,1.229-0.717c-0.778-1.336-1.816-2.517-2.627-3.837
				c-0.473-0.77-0.976-1.65-1.013-2.573c-0.032-0.766,1.016-0.75,1.512-0.536c0.703,0.301,1.249,1.07,1.722,1.64
				C26.243,99.639,27.245,98.627,26.663,97.926L26.663,97.926z"/>
		</g>
		<g>
			<path d="M24.332,102.369c-1.612-0.559-3.153-1.56-4.842-0.622c-0.839,0.467-1.045,1.362-0.631,2.188
				c0.88,1.756,3.279,2.412,4.747,3.53c0.73,0.556,1.438-0.681,0.717-1.229c-1.091-0.831-2.394-1.35-3.471-2.213
				c-0.256-0.204-0.516-0.432-0.702-0.702c-0.161-0.232-0.145-0.172-0.024-0.291c0.929-0.913,2.881,0.382,3.827,0.711
				C24.822,104.044,25.193,102.667,24.332,102.369L24.332,102.369z"/>
		</g>
		<g>
			<path d="M23.49,106.792c0.225,5.386,4.775,11.452,10.321,11.982c0.913,0.087,0.905-1.337,0-1.423
				c-4.693-0.449-8.708-6.042-8.897-10.559C24.875,105.878,23.451,105.873,23.49,106.792L23.49,106.792z"/>
		</g>
		<g>
			<path d="M28.85,107.389c0.563-0.813,1.479-1.333,2.47-1.368c0.915-0.032,0.918-1.456,0-1.424
				c-1.518,0.053-2.842,0.833-3.699,2.074C27.096,107.428,28.331,108.138,28.85,107.389L28.85,107.389z"/>
		</g>
		<g>
			<path d="M50.975,240.945c-1.732,9.261-1.664,18.991-1.444,28.381c0.236,10.021,1.537,19.998,3.105,29.886
				c0.145,0.905,1.515,0.52,1.374-0.378c-1.553-9.782-2.737-19.602-3.055-29.508c-0.296-9.219-0.306-18.917,1.394-28.003
				C52.515,240.426,51.144,240.042,50.975,240.945L50.975,240.945z"/>
		</g>
		<g>
			<path d="M41.604,260.874c-0.234,1.637-0.264,3.286-0.381,4.934c-0.065,0.916,1.357,0.91,1.423,0
				c0.108-1.519,0.115-3.047,0.331-4.556C43.105,260.355,41.733,259.967,41.604,260.874L41.604,260.874z"/>
		</g>
		<g>
			<path d="M151.009,226.72c-3.474,26.101-10.321,52.467-25.169,74.552c-0.515,0.764,0.72,1.476,1.229,0.718
				c14.995-22.301,21.856-48.918,25.364-75.27C152.554,225.812,151.129,225.823,151.009,226.72L151.009,226.72z"/>
		</g>
		<g>
			<path d="M155.813,255.367c-0.45,3.798-1.942,7.324-3.355,10.843c-0.342,0.853,1.035,1.219,1.374,0.378
				c1.468-3.659,2.938-7.277,3.405-11.221C157.346,254.457,155.921,254.468,155.813,255.367L155.813,255.367z"/>
		</g>
		<g>
			<path d="M194.748,117.102c-4.212,10.274-4.705,21.801-6.23,32.686c-1.682,11.989-2.935,24.041-3.125,36.153
				c-0.014,0.919,1.41,0.917,1.424,0c0.194-12.447,1.536-24.814,3.264-37.13c1.471-10.485,1.985-21.436,6.042-31.331
				C196.469,116.63,195.092,116.265,194.748,117.102L194.748,117.102z"/>
		</g>
		<g>
			<path d="M171.497,135.271c0.653,2.551,2.182,4.766,4.098,6.542c0.671,0.623,1.68-0.381,1.006-1.007
				c-1.745-1.618-3.136-3.586-3.731-5.914C172.642,134.005,171.269,134.382,171.497,135.271L171.497,135.271z"/>
		</g>
		<g>
			<path d="M168.9,140.246c0.72,1.04,1.621,1.85,2.602,2.636c0.709,0.567,1.724-0.432,1.006-1.007
				c-0.877-0.702-1.735-1.416-2.379-2.346C169.61,138.779,168.376,139.49,168.9,140.246L168.9,140.246z"/>
		</g>
		<g>
			<path d="M233.216,117.823c-0.259,22.16,2.962,44.184,8.057,65.709c0.211,0.894,1.584,0.514,1.373-0.378
				c-5.067-21.408-8.264-43.293-8.007-65.331C234.65,116.904,233.227,116.905,233.216,117.823L233.216,117.823z"/>
		</g>
		<g>
			<path d="M185.648,186.512c17.948,7.823,39.512,6.528,56.672-2.552c0.812-0.43,0.093-1.659-0.717-1.229
				c-16.67,8.821-37.78,10.16-55.238,2.552C185.533,184.92,184.809,186.146,185.648,186.512L185.648,186.512z"/>
		</g>
		<g>
			<path d="M201.272,119.969c0.42,3.121,1.475,6.209,2.411,9.204c0.812,2.601,1.562,5.737,3.178,7.989
				c0.322,0.451,1.176,0.497,1.301-0.169c0.484-2.572,2.64-3.711,4.594-5.09c0.403-0.284,0.448-0.741,0.145-1.118
				c-2.388-2.964-3.988-6.44-6.205-9.524c-0.531-0.738-1.766-0.029-1.229,0.717c2.29,3.185,3.96,6.752,6.428,9.813
				c0.047-0.373,0.096-0.745,0.144-1.118c-2.324,1.637-4.687,2.955-5.25,5.941c0.434-0.057,0.867-0.114,1.301-0.17
				c-1.69-2.358-2.418-5.68-3.272-8.412c-0.856-2.741-1.788-5.585-2.171-8.442C202.523,118.685,201.153,119.073,201.272,119.969
				L201.272,119.969z"/>
		</g>
		<g>
			<path d="M211.888,131.336c-0.416,1.998-0.44,4.03-0.499,6.061c-0.026,0.919,1.397,0.917,1.424,0
				c0.054-1.901,0.06-3.812,0.449-5.683C213.448,130.819,212.076,130.438,211.888,131.336L211.888,131.336z"/>
		</g>
		<g>
			<path d="M212.952,134.612c0.693-1.111,2.175-1.443,3.303-1.938c0.839-0.368,0.114-1.594-0.717-1.229
				c-1.421,0.624-2.946,1.056-3.814,2.45C211.235,134.675,212.467,135.389,212.952,134.612L212.952,134.612z"/>
		</g>
		<g>
			<path d="M215.956,133.007c2.038,0.258,4.793,5.512,6.306,1.998c1.939-4.506,4.05-9.368,5.138-14.161
				c0.202-0.894-1.17-1.273-1.373-0.378c-0.986,4.353-3.301,8.156-4.538,12.395c-0.188,0.643-0.394,1.28-0.659,1.897
				c-0.015,0.036-1.43-1.331-1.583-1.482c-0.953-0.945-1.978-1.526-3.29-1.691C215.047,131.469,215.058,132.894,215.956,133.007
				L215.956,133.007z"/>
		</g>
		<g>
			<path d="M221.865,122.21c-2.231,3.128-4.352,6.341-6.828,9.286c-0.587,0.698,0.416,1.71,1.006,1.007
				c2.554-3.039,4.749-6.346,7.051-9.576C223.628,122.178,222.394,121.469,221.865,122.21L221.865,122.21z"/>
		</g>
		<g>
			<path d="M211.33,137.1c-0.649,17.88-3.32,35.722-1.543,53.619c0.09,0.905,1.514,0.913,1.423,0
				c-1.777-17.896,0.894-35.739,1.543-53.619C212.787,136.181,211.363,136.185,211.33,137.1L211.33,137.1z"/>
		</g>
		<g>
			<path d="M235.765,137.81c6.881-7.534,12.687-15.159,17.282-24.344c0.41-0.817-0.819-1.539-1.229-0.717
				c-4.533,9.058-10.262,16.611-17.06,24.055C234.142,137.479,235.145,138.49,235.765,137.81L235.765,137.81z"/>
		</g>
		<g>
			<path d="M240.892,102.798c1.664,4.68,5.769,8.73,10.557,10.174c1.016,0.306,2.562,0.573,3.31-0.404
				c1.06-1.383-0.421-3.531-1.138-4.685c-0.484-0.778-1.715-0.064-1.229,0.718c0.353,0.569,2.171,3.157,0.726,3.22
				c-0.99,0.044-2.091-0.452-2.974-0.846c-3.51-1.566-6.6-4.958-7.878-8.555C241.96,101.562,240.583,101.931,240.892,102.798
				L240.892,102.798z"/>
		</g>
		<g>
			<path d="M240.728,102.25c-1.082,1.404-1.952,2.954-2.564,4.618c-0.316,0.864,1.06,1.232,1.374,0.378
				c0.567-1.543,1.418-2.978,2.419-4.279C242.517,102.241,241.28,101.533,240.728,102.25L240.728,102.25z"/>
		</g>
		<g>
			<path d="M173.868,109.175c4.144,10.675,9.649,20.684,16.207,30.063c0.521,0.747,1.757,0.036,1.229-0.717
				c-6.484-9.275-11.963-19.166-16.062-29.724C174.913,107.951,173.537,108.318,173.868,109.175L173.868,109.175z"/>
		</g>
		<g>
			<path d="M174.794,106.644c-1.099,1.225-1.901,3.634,0.681,3.617c2.913-0.018,5.305-2.369,7.736-3.68
				c2.462-1.328,5.05-3.079,6.055-5.797c0.68-1.833-0.976-2.102-2.228-1.369c-0.792,0.463-0.077,1.693,0.717,1.229
				c0.567-0.331-0.156,0.443-0.314,0.732c-0.275,0.506-0.702,0.884-1.105,1.284c-1.292,1.286-2.956,2.211-4.547,3.071
				c-1.019,0.55-1.96,1.274-2.953,1.872c-0.703,0.424-4.839,2.057-3.036,0.047C176.413,106.969,175.409,105.958,174.794,106.644
				L174.794,106.644z"/>
		</g>
		<g>
			<path d="M188.312,99.863c1.386,3.299,2.915,6.511,4.877,9.511c0.5,0.766,1.733,0.053,1.229-0.717
				c-1.892-2.894-3.395-5.989-4.732-9.172C189.335,98.652,187.958,99.018,188.312,99.863L188.312,99.863z"/>
		</g>
		<g>
			<path d="M255.911,126.185c-1.646,3.164-3.35,6.288-5.338,9.252c-0.513,0.765,0.72,1.477,1.229,0.717
				c1.989-2.963,3.692-6.087,5.338-9.252C257.562,126.089,256.334,125.37,255.911,126.185L255.911,126.185z"/>
		</g>
		<g>
			<path d="M257.144,132.048c-0.232,1.006-0.543,1.982-0.996,2.914c-0.399,0.821,0.829,1.542,1.229,0.717
				c0.506-1.041,0.879-2.125,1.14-3.253C258.723,131.532,257.351,131.154,257.144,132.048L257.144,132.048z"/>
		</g>
		<g>
			<path d="M240.155,253.944c-0.359,9.724-0.684,19.452-0.356,29.182c0.03,0.916,1.454,0.919,1.424,0
				c-0.329-9.729-0.003-19.458,0.355-29.182C241.612,253.025,240.188,253.029,240.155,253.944L240.155,253.944z"/>
		</g>
		<g>
			<path d="M233.927,258.926c-0.182,1.835-0.343,3.671-0.355,5.516c-0.007,0.919,1.416,0.917,1.423,0
				c0.013-1.845,0.174-3.681,0.356-5.516C235.441,258.013,234.016,258.021,233.927,258.926L233.927,258.926z"/>
		</g>
		<g>
			<path d="M257.382,64.787c-1.218,5.612-2.842,11.145-4.693,16.579c-2.597,7.615-5.797,15.67-11.232,21.743
				c-0.61,0.681,0.394,1.691,1.007,1.006c5.229-5.843,8.339-13.356,10.989-20.642c2.167-5.96,3.958-12.109,5.304-18.308
				C258.948,64.27,257.576,63.89,257.382,64.787L257.382,64.787z"/>
		</g>
		<g>
			<path d="M269.245,65.735c-1.97,8.164-3.775,16.094-7.102,23.843c-3.297,7.685-7.33,15.063-12.211,21.858
				c-0.537,0.746,0.699,1.457,1.229,0.717c4.895-6.813,8.842-14.185,12.212-21.857c3.438-7.831,5.248-15.908,7.245-24.184
				C270.833,65.221,269.46,64.842,269.245,65.735L269.245,65.735z"/>
		</g>
		<g>
			<path d="M270.574,66.402c0.998-1.821,6.307-3.219,5.166-6.235c-1.06-2.797-3.384-0.789-4.86,0.48
				c0.396,0.231,0.793,0.462,1.19,0.693c0.456-1.577,4.65-10.047,1.482-10.918c-3.079-0.847-4.343,7.613-4.813,9.205
				c-0.26,0.883,1.113,1.257,1.374,0.378c0.313-1.063,0.57-2.14,0.83-3.217c0.133-0.556,0.287-1.106,0.457-1.651
				c-0.114,0.384,1.677-3.367,1.763-2.706c0.35,2.711-1.73,5.989-2.466,8.53c-0.21,0.726,0.674,1.136,1.19,0.692
				c-0.103,0.087,3.286-2.313,2.174,0.028c-0.352,0.738-1.47,1.23-2.169,1.612c-1.104,0.602-1.939,1.283-2.546,2.391
				C268.903,66.49,270.133,67.208,270.574,66.402L270.574,66.402z"/>
		</g>
		<g>
			<path d="M269.667,60.094c0.323-1.474,1.907-11.903-1.298-11.511c-1.748,0.214-2.546,2.048-2.992,3.56
				c-0.841,2.861-1.383,5.949-1.646,8.917c-0.081,0.915,1.343,0.907,1.424,0c0.277-3.137,0.721-7.275,2.213-10.104
				c0.963-1.826,1.317,0.607,1.365,0.843c0.196,0.994,0.179,2.042,0.169,3.052c-0.017,1.636-0.26,3.268-0.608,4.864
				C268.1,60.611,269.472,60.991,269.667,60.094L269.667,60.094z"/>
		</g>
		<g>
			<path d="M265.194,60.613c-0.238-3.093,0.06-8.108-2.794-10.13c-4.511-3.198-2.316,10-2.138,11.379
				c0.115,0.897,1.54,0.909,1.424,0c-0.243-1.894-0.589-3.771-0.788-5.672c-0.101-0.954-0.096-1.906-0.043-2.864
				c0.082-1.445,0.589-2.312,1.515-0.824c1.397,2.243,1.206,5.563,1.401,8.11C263.84,61.522,265.265,61.529,265.194,60.613
				L265.194,60.613z"/>
		</g>
		<g>
			<path d="M260.876,59.724c-0.692-0.904-1.524-1.765-2.701-1.937c-1.065-0.155-2.202,0.675-2.48,1.706
				c-0.634,2.347,1.389,4.376,2.529,6.197c0.485,0.777,1.718,0.062,1.229-0.717c-0.634-1.014-1.385-1.939-1.958-2.991
				c-0.334-0.618-0.698-1.477-0.4-2.173c0.613-1.435,2.049-0.023,2.553,0.633C260.198,61.16,261.436,60.453,260.876,59.724
				L260.876,59.724z"/>
		</g>
		<g>
			<path d="M263.823,64.345c0.838-0.4,1.858-0.617,2.608,0.067c0.676,0.617,1.686-0.387,1.007-1.006
				c-1.262-1.152-2.882-0.983-4.332-0.289C262.277,63.512,263,64.738,263.823,64.345L263.823,64.345z"/>
		</g>
		<g>
			<path d="M195.663,92.5c-2.632,7.294-4.401,15.747,0.306,22.59c3.968,5.768,11.753,8.07,18.353,8.709
				c7.403,0.717,15.539-2.585,20.161-8.404c5.524-6.958,4.517-15.831,2.679-23.829c-0.207-0.895-1.58-0.516-1.374,0.378
				c1.753,7.622,2.45,14.688-1.798,21.688c-3.874,6.383-12.579,9.197-19.667,8.744c-6.119-0.392-12.497-2.783-16.641-7.398
				c-5.431-6.048-3.093-15.314-0.644-22.101C197.348,92.011,195.973,91.643,195.663,92.5L195.663,92.5z"/>
		</g>
		<g>
			<path d="M237.995,95.236c0.257-1.451,2.225-2.987,3.623-1.845c0.924,0.756,1.514,2.324,1.497,3.485
				c-0.026,1.956-2.044,5.203-4.291,4.051c-0.815-0.419-1.535,0.809-0.717,1.229c3.436,1.765,7.144-2.796,6.383-6.142
				c-0.37-1.626-1.452-4.297-3.444-4.437c-1.979-0.139-4.068,1.281-4.423,3.28C236.463,95.755,237.833,96.14,237.995,95.236
				L237.995,95.236z"/>
		</g>
		<g>
			<path d="M196.18,93.346c-0.704-4.347-7.153-1.379-7.784,1.623c-0.662,3.151,1.583,9.311,5.676,7.099
				c0.809-0.437,0.089-1.666-0.717-1.229c-2.667,1.44-3.642-3.112-3.633-4.906c0.004-1.319,0.812-2.049,1.886-2.692
				c1.101-0.661,2.919-1.245,3.199,0.483C194.954,94.629,196.325,94.244,196.18,93.346L196.18,93.346z"/>
		</g>
		<g>
			<path d="M196.194,92.976c7.435,1.884,15.697-0.07,22.665-2.879c5.631-2.27,11.306-6.017,13.621-11.854
				c0.337-0.854-1.039-1.22-1.373-0.378c-2.361,5.954-8.632,9.379-14.329,11.522c-6.251,2.354-13.63,3.882-20.205,2.214
				C195.682,91.377,195.304,92.751,196.194,92.976L196.194,92.976z"/>
		</g>
		<g>
			<path d="M228.525,82.669c-0.759,5.099,5.643,13.844,11.188,10.145c0.761-0.506,0.049-1.741-0.717-1.229
				c-4.33,2.888-9.69-4.557-9.097-8.538C230.032,82.149,228.661,81.765,228.525,82.669L228.525,82.669z"/>
		</g>
		<g>
			<path d="M232.857,94.505c0.521,0.249,1.022,0.417,1.604,0.453c0.917,0.058,0.912-1.367,0-1.424
				c-0.32-0.021-0.599-0.122-0.887-0.258C232.751,92.883,232.029,94.11,232.857,94.505L232.857,94.505z"/>
		</g>
		<g>
			<path d="M232.595,75.11c11.219-7.226,13.663,10.301,9.881,17.266c-0.438,0.806,0.791,1.525,1.229,0.717
				c2.641-4.863,2.597-11.595,0.488-16.659c-2.154-5.174-8.127-5.25-12.316-2.553C231.11,74.376,231.823,75.609,232.595,75.11
				L232.595,75.11z"/>
		</g>
		<g>
			<path d="M190.342,86.148c-1.427,1.895-1.571,4.954-0.267,6.945c0.5,0.764,1.733,0.053,1.229-0.717
				c-1.054-1.611-0.876-3.991,0.267-5.51C192.124,86.131,190.886,85.423,190.342,86.148L190.342,86.148z"/>
		</g>
		<g>
			<path d="M174.23,66.311c0.437,6.536,2.408,13.317,4.74,19.406c2.128,5.555,4.534,12.082,8.369,16.685
				c0.588,0.706,1.59-0.308,1.007-1.007c-3.904-4.684-6.308-11.631-8.457-17.242c-2.122-5.537-3.84-11.909-4.236-17.842
				C175.592,65.4,174.168,65.393,174.23,66.311L174.23,66.311z"/>
		</g>
		<g>
			<path d="M173.493,62.474c-0.78-3.625,0.753-6.684,0.919-10.218c0.064-1.398-1.004-3.521-2.697-2.598
				c-4.355,2.375-3.552,9.125-2.888,13.193c0.149,0.905,1.52,0.52,1.374-0.377c-0.538-3.287-1.117-7.885,1.073-10.702
				c0.464-0.7,1.036-0.539,1.714,0.484c-0.01,0.594-0.083,1.179-0.224,1.754c-0.202,1.021-0.534,2.013-0.734,3.036
				c-0.372,1.915-0.319,3.906,0.089,5.805C172.313,63.75,173.685,63.369,173.493,62.474L173.493,62.474z"/>
		</g>
		<g>
			<path d="M173.696,62.663c-0.106-1.047,1.294-2.313,1.82-0.859c0.529,1.471-0.446,3.285-1.189,4.504
				c-0.479,0.785,0.752,1.5,1.229,0.717c1.083-1.779,2.614-5.316,0.454-6.947c-1.689-1.278-3.921,0.763-3.738,2.585
				C172.363,63.568,173.788,63.576,173.696,62.663L173.696,62.663z"/>
		</g>
		<g>
			<path d="M169.489,54.377c-0.228-1.258-1.383-4.104-3.088-3.903c-1.279,0.15-1.882,1.01-2.194,2.205
				c-0.792,3.049,0.114,7.341,1.151,10.262c0.306,0.859,1.681,0.489,1.374-0.378c-0.625-1.757-0.923-3.695-1.15-5.537
				c-0.141-1.144-0.189-2.298-0.09-3.446c0.243-2.855,2.313-0.548,2.625,1.176C168.28,55.658,169.652,55.274,169.489,54.377
				L169.489,54.377z"/>
		</g>
		<g>
			<path d="M165.041,55.979c-0.415-1.092-1.29-2.974-2.677-3.057c-1.31-0.079-2.167,1.111-2.269,2.333
				c-0.292,3.48,2.162,6.943,3.823,9.812c0.458,0.795,1.69,0.078,1.228-0.717c-1.034-1.787-2.093-3.552-2.889-5.462
				c-0.432-1.04-0.758-2.136-0.77-3.267c-0.004-0.307,0.202-1.507,0.853-1.232c0.623,0.266,1.101,1.372,1.328,1.967
				C163.992,57.207,165.368,56.838,165.041,55.979L165.041,55.979z"/>
		</g>
		<g>
			<path d="M162.222,59.824c-1.993-0.919-4.028,0.335-3.611,2.693c0.447,2.525,2.682,4.255,4.151,6.198
				c0.544,0.723,1.782,0.016,1.229-0.717c-0.759-1.008-1.635-1.92-2.434-2.894c-0.469-0.571-0.872-1.185-1.22-1.835
				c-0.506-0.948-0.454-2.963,1.168-2.215C162.332,61.436,163.056,60.208,162.222,59.824L162.222,59.824z"/>
		</g>
		<g>
			<path d="M162.842,68.801c0.097,14.547,6.66,28.459,14.026,40.656c0.474,0.785,1.704,0.069,1.229-0.717
				c-7.231-11.976-13.735-25.652-13.832-39.939C164.26,67.884,162.836,67.882,162.842,68.801L162.842,68.801z"/>
		</g>
		<g>
			<path d="M167.082,66.992c0.878-0.698,2.174-0.948,3.086-0.178c0.696,0.588,1.708-0.414,1.006-1.007
				c-1.558-1.314-3.571-1.036-5.099,0.178C165.357,66.557,166.372,67.556,167.082,66.992L167.082,66.992z"/>
		</g>
		<g>
			<path d="M190.404,86.827c-2.958-1.027-1.642-4.79-0.815-6.749c0.83-1.964,2.506-3.428,4.162-4.693
				c3.517-2.685,7.947-4.097,12.196-5.107c5.065-1.206,10.277-1.464,15.455-1.098c3.56,0.251,11.046,0.588,13.159,4.103
				c0.471,0.787,1.703,0.07,1.229-0.718c-2.418-4.022-8.961-4.207-13.083-4.686c-7.408-0.86-15.064,0.059-22.114,2.457
				c-4.689,1.596-9.972,4.39-12.233,9.026c-1.457,2.986-2.149,7.515,1.667,8.84C190.895,88.502,191.266,87.126,190.404,86.827
				L190.404,86.827z"/>
		</g>
		<g>
			<path d="M217.164,105.307c-0.416-0.981-1.667-1.296-2.632-1.11c-1.011,0.195-1.677,0.958-1.783,1.967
				c-0.196,1.896,2.301,3.457,3.863,2.369c0.749-0.52,0.038-1.755-0.717-1.229c-0.734,0.51-1.539-0.206-1.718-0.948
				c-0.222-0.917,1.457-1.042,1.758-0.332C216.292,106.867,217.519,106.14,217.164,105.307L217.164,105.307z"/>
		</g>
		<g>
			<path d="M207.276,111.065c2.913,4.703,13.53,4.105,16.709-0.06c0.558-0.73-0.68-1.438-1.229-0.717
				c-2.527,3.308-12.036,3.636-14.251,0.06C208.022,109.57,206.791,110.283,207.276,111.065L207.276,111.065z"/>
		</g>
		<g>
			<path d="M220.494,103.143c1.648-0.027,3.29,0.124,4.938,0.178c0.919,0.03,0.916-1.393,0-1.424
				c-1.647-0.054-3.29-0.206-4.938-0.177C219.576,101.735,219.575,103.159,220.494,103.143L220.494,103.143z"/>
		</g>
		<g>
			<path d="M204.079,103.455c1.795,0,3.588,0,5.383,0c0.917,0,0.917-1.423,0-1.423c-1.794,0-3.588,0-5.383,0
				C203.161,102.031,203.161,103.455,204.079,103.455L204.079,103.455z"/>
		</g>
		<g>
			<path d="M206.856,102.155c-0.348-0.927-0.188-2.26,0.084-3.183c0.036-0.124,0.101-0.337,0.215-0.416
				c-0.163,0.113-0.331-0.304-0.22,0.026c0.06,0.178,0.067,0.37,0.08,0.554c0.069,1.037-0.146,2.074-0.375,3.078
				c0.467,0.062,0.933,0.126,1.398,0.189c0.054-1.194,0.234-2.407-0.364-3.502c-0.12-0.218-0.37-0.353-0.615-0.353
				c-0.01,0-0.02,0-0.029,0c-0.231,0-0.515,0.13-0.614,0.353c-0.341,0.747-0.363,1.506-0.395,2.316
				c-0.038,0.919,1.386,0.915,1.423,0c0.021-0.523-0.021-1.109,0.201-1.598c-0.205,0.118-0.41,0.235-0.615,0.353
				c0.01,0,0.02,0,0.029,0c-0.204-0.118-0.41-0.235-0.614-0.353c0.447,0.818,0.209,1.895,0.169,2.784
				c-0.036,0.802,1.219,0.972,1.398,0.189c0.316-1.382,0.567-2.798,0.336-4.213c-0.157-0.965-1.13-1.593-2-0.99
				c-0.792,0.548-0.933,1.68-1.024,2.561c-0.083,0.799-0.129,1.815,0.159,2.584C205.803,103.385,207.179,103.017,206.856,102.155
				L206.856,102.155z"/>
		</g>
		<g>
			<path d="M223.272,101.599c-0.296-0.552-0.19-1.384-0.097-1.988c0.044-0.286,0.104-0.592,0.221-0.857
				c0.171-0.39-0.377,0.01-0.465-0.204c0.049,0.119,0.073,0.25,0.098,0.373c0.225,1.063,0.089,2.287-0.015,3.361
				c-0.078,0.802,1.23,0.967,1.398,0.189c0.194-0.898,0.099-1.783,0.035-2.691c-0.055-0.76-0.236-1.5-0.81-2.034
				c-0.672-0.624-1.681,0.381-1.007,1.006c0.399,0.372,0.392,0.943,0.42,1.454c0.035,0.637,0.125,1.254-0.011,1.887
				c0.466,0.062,0.933,0.126,1.398,0.189c0.083-0.857,0.116-1.723,0.087-2.583c-0.026-0.782-0.069-1.842-0.803-2.308
				c-0.991-0.631-1.663,0.744-1.846,1.472c-0.27,1.072-0.369,2.457,0.168,3.451C222.478,103.125,223.707,102.406,223.272,101.599
				L223.272,101.599z"/>
		</g>
		<g>
			<path d="M221.771,95.188c0.862-0.45,1.906,0.049,2.694,0.445c0.817,0.413,1.537-0.816,0.717-1.229
				c-1.296-0.654-2.752-1.167-4.129-0.445C220.239,94.384,220.958,95.613,221.771,95.188L221.771,95.188z"/>
		</g>
		<g>
			<path d="M206.201,95.899c1.007-0.465,1.812-0.814,2.812-0.147c0.766,0.512,1.478-0.723,0.717-1.229
				c-1.449-0.966-2.786-0.529-4.247,0.148C204.651,95.056,205.374,96.283,206.201,95.899L206.201,95.899z"/>
		</g>
		<g>
			<path d="M235.648,187.397c0.917,0,0.917-1.424,0-1.424S234.731,187.397,235.648,187.397L235.648,187.397z"/>
		</g>
		<g>
			<path d="M234.844,186.259c-1.66,7.366-2.159,14.986-2.836,22.491c-0.783,8.677-1.143,17.386-0.986,26.097
				c0.017,0.917,1.44,0.918,1.423,0c-0.14-7.797,0.159-15.577,0.756-23.349c0.634-8.269,1.188-16.76,3.015-24.861
				C236.418,185.743,235.045,185.364,234.844,186.259L234.844,186.259z"/>
		</g>
		<g>
			<path d="M232.746,221.749c0.479-2.72,2.433-4.879,4.02-7.037c0.545-0.74-0.691-1.449-1.229-0.717
				c-1.666,2.262-3.662,4.523-4.166,7.375C231.214,222.269,232.585,222.652,232.746,221.749L232.746,221.749z"/>
		</g>
		<g>
			<path d="M236.074,215.04c4.875-0.905,6.228,4.154,6.775,7.954c0.13,0.906,1.503,0.52,1.374-0.378
				c-0.687-4.767-2.773-10.017-8.527-8.95C234.793,213.834,235.177,215.205,236.074,215.04L236.074,215.04z"/>
		</g>
		<g>
			<path d="M210.237,198.191c0.365,7.948,1.318,15.866,2.67,23.702c1.275,7.39,2.843,15.08,6.176,21.854
				c2.357,4.792,6.27,6.979,11.444,4.319c3.873-1.99,6.257-7.151,8.148-10.796c2.354-4.536,3.976-9.43,5.547-14.276
				c0.284-0.875-1.091-1.248-1.374-0.378c-1.423,4.392-2.929,8.734-4.898,12.917c-1.909,4.055-4.319,8.786-8.141,11.304
				c-6.689,4.408-9.93-4.167-11.551-8.833c-4.371-12.58-5.991-26.57-6.599-39.813C211.619,197.277,210.195,197.274,210.237,198.191
				L210.237,198.191z"/>
		</g>
		<g>
			<path d="M189.384,188.109c0.185,17.308-0.117,34.222,7.03,50.391c2.227,5.04,5.786,8.897,11.574,8.847
				c5.373-0.047,8.672-5.092,9.456-9.85c0.147-0.898-1.223-1.282-1.374-0.378c-1.051,6.375-6.644,11.05-13.059,7.696
				c-4.975-2.601-7.073-10.821-8.563-15.675c-4.089-13.332-3.493-27.265-3.641-41.03
				C190.797,187.191,189.374,187.19,189.384,188.109L189.384,188.109z"/>
		</g>
		<g>
			<path d="M226.099,189.353c0.039,3.504,3.41,8.248,7.117,8.452c0.917,0.05,0.913-1.373,0-1.423
				c-2.893-0.16-5.665-4.346-5.694-7.029C227.512,188.436,226.089,188.435,226.099,189.353L226.099,189.353z"/>
		</g>
		<g>
			<path d="M194.895,189.542c0.462,2.145-2.88,4.599-4.573,5.263c-0.844,0.333-0.477,1.71,0.378,1.374
				c2.501-0.982,6.228-3.945,5.569-7.015C196.076,188.266,194.704,188.647,194.895,189.542L194.895,189.542z"/>
		</g>
		<g>
			<path d="M239.146,214.5c3.241-2.7,4.89,4.836,4.593,6.959c-0.125,0.897,1.247,1.285,1.374,0.378
				c0.492-3.546-2.158-12.357-6.973-8.344C237.433,214.082,238.447,215.084,239.146,214.5L239.146,214.5z"/>
		</g>
		<g>
			<path d="M238.111,214.611c7.781-4.737,9.24,10.191,10.02,15.124c0.529,3.339,1.061,7.225,0.25,10.555
				c-2.391,1.09-3.982,0.747-4.776-1.028c-0.565-0.94-1.039-1.926-1.417-2.958c-0.499-1.249-0.713-2.579-0.902-3.901
				c-0.129-0.906-1.501-0.52-1.373,0.378c0.526,3.681,2.309,9.748,6.442,10.86c4.139,1.113,3.8-7.193,3.725-8.949
				c-0.27-6.313-2.048-27.789-12.687-21.309C236.612,213.86,237.326,215.091,238.111,214.611L238.111,214.611z"/>
		</g>
		<g>
			<path d="M276.632,82.948c-1.586,15.156,2.393,30.233,11.819,42.272c0.565,0.723,1.565-0.293,1.006-1.007
				c-9.194-11.74-12.945-26.513-11.402-41.265C278.151,82.036,276.727,82.044,276.632,82.948L276.632,82.948z"/>
		</g>
		<g>
			<path d="M277.907,83.095c0.994-1.252,3.51-2.893,2.015-4.719c-1.607-1.966-4.398-0.196-5.162,1.654
				c-0.35,0.848,1.029,1.215,1.374,0.378c0.316-0.767,2.348-2.362,2.802-0.909c0.134,0.429-0.53,1.034-0.777,1.296
				c-0.413,0.438-0.884,0.822-1.258,1.294C276.336,82.8,277.337,83.814,277.907,83.095L277.907,83.095z"/>
		</g>
		<g>
			<path d="M275.98,79.922c0.317-2.664,0.598-5.235-0.203-7.84c-0.404-1.315-1.699-2.254-2.91-1.144
				c-2.292,2.099-1.155,6.267-0.802,8.924c0.12,0.897,1.544,0.908,1.424,0c-0.271-2.042-0.71-4.127-0.43-6.193
				c0.074-0.542,0.245-1.092,0.592-1.521c0.75-0.923,1.243,2.753,1.234,2.674c0.167,1.689-0.13,3.427-0.329,5.1
				C274.448,80.833,275.873,80.822,275.98,79.922L275.98,79.922z"/>
		</g>
		<g>
			<path d="M272.659,74.763c-0.043-2.509-2.876-3.164-3.64-0.688c-0.667,2.167,0.188,4.922,0.7,7.044
				c0.215,0.893,1.587,0.515,1.374-0.378c-0.264-1.093-0.507-2.188-0.677-3.3c-0.12-0.786-0.163-1.584-0.122-2.375
				c0.047-0.915,0.916-1.809,0.942-0.303C271.25,75.68,272.674,75.681,272.659,74.763L272.659,74.763z"/>
		</g>
		<g>
			<path d="M269.697,75.038c-2.444-1.099-2.734,2.347-2.469,3.946c0.151,0.904,1.522,0.521,1.374-0.378
				c-0.002-0.007-0.025-0.298-0.032-0.468c-0.014-0.322,0-0.646,0.027-0.969c0.022-0.252,0.109-1.026,0.383-0.902
				C269.809,76.641,270.533,75.413,269.697,75.038L269.697,75.038z"/>
		</g>
		<g>
			<path d="M266.726,86.921c-1.24,9.822,0.524,19.924,2.596,29.523c1.875,8.684,5.521,16.306,11.967,22.51
				c0.662,0.636,1.669-0.369,1.006-1.007c-6.328-6.088-9.674-13.417-11.601-21.882c-2.148-9.434-3.765-19.481-2.545-29.145
				C268.265,86.012,266.84,86.022,266.726,86.921L266.726,86.921z"/>
		</g>
		<g>
			<path d="M288.317,124.526c-4.714,3.97-6.829,9.779-7.237,15.806c-0.171,2.524,1.901,4.257,3.547,5.878
				c2.826,2.784,6.253,4.985,9.528,7.192c0.764,0.515,1.475-0.718,0.718-1.229c-2.228-1.501-4.439-3.012-6.562-4.66
				c-2.163-1.678-5.716-4.24-5.808-7.182c-0.169-5.47,2.712-11.34,6.82-14.799C290.027,124.94,289.015,123.94,288.317,124.526
				L288.317,124.526z"/>
		</g>
		<g>
			<path d="M265.689,80.011c0.037,1.204,0.275,2.315,0.666,3.454c0.249,0.726,0.488,1.345,0.457,2.132
				c-0.03,0.76-0.239,1.474-0.233,2.244c0.005,0.917,1.429,0.919,1.423,0c-0.007-1.082,0.439-2.253,0.184-3.329
				c-0.367-1.55-1.023-2.869-1.073-4.5C267.085,79.096,265.661,79.093,265.689,80.011L265.689,80.011z"/>
		</g>
		<g>
			<path d="M288.94,125.444c4.327,3.414,9.472,5.221,14.468,7.407c0.832,0.364,1.557-0.862,0.717-1.229
				c-4.86-2.127-9.965-3.86-14.179-7.185C289.235,123.875,288.22,124.875,288.94,125.444L288.94,125.444z"/>
		</g>
		<g>
			<path d="M322.017,132.122c2.997-0.41,5.978-2.383,8.728-3.534c3.153-1.319,5.981-3.208,8.702-5.257
				c-0.348-0.268-0.697-0.535-1.045-0.804c-0.652,4.638,1.811,13.338,7.537,13.534c0.919,0.032,0.915-1.393,0-1.423
				c-4.583-0.157-6.682-8.052-6.164-11.733c0.073-0.525-0.477-1.233-1.045-0.804c-2.32,1.748-4.702,3.311-7.294,4.626
				c-2.733,1.384-6.801,3.612-9.795,4.021C320.733,130.872,321.12,132.244,322.017,132.122L322.017,132.122z"/>
		</g>
		<g>
			<path d="M346.036,134.991c-4.207,6.572-13.404,10.69-20.394,13.462c-0.842,0.335-0.476,1.711,0.379,1.373
				c7.374-2.925,16.796-7.17,21.243-14.118C347.761,134.933,346.529,134.22,346.036,134.991L346.036,134.991z"/>
		</g>
		<g>
			<path d="M292.113,152.521c0.169,21.591,1.473,43.459,9.061,63.886c0.317,0.852,1.693,0.484,1.374-0.378
				c-7.547-20.313-8.841-42.034-9.011-63.508C293.529,151.603,292.105,151.602,292.113,152.521L292.113,152.521z"/>
		</g>
		<g>
			<path d="M329.479,148.072c-0.783,7.735,2.128,15.881,4.951,22.968c2.818,7.076,6.786,13.626,11.806,19.351
				c0.606,0.69,1.608-0.32,1.006-1.007c-4.886-5.572-8.601-11.893-11.439-18.722c-2.853-6.867-5.657-15.092-4.9-22.59
				C330.994,147.159,329.571,147.168,329.479,148.072L329.479,148.072z"/>
		</g>
		<g>
			<path d="M302.434,216.815c5.405-0.594,10.361-1.176,15.553-2.866c4.446-1.449,8.797-3.176,12.943-5.344
				c7.681-4.015,13.852-10.156,16.496-18.529c0.277-0.877-1.098-1.25-1.374-0.378c-2.675,8.476-9.021,14.114-16.706,18.131
				c-3.745,1.956-7.738,3.411-11.737,4.746c-5.015,1.674-9.945,2.243-15.175,2.816C301.532,215.49,301.522,216.915,302.434,216.815
				L302.434,216.815z"/>
		</g>
		<g>
			<path d="M303.864,132.322c-2.395,4.119-2.479,10.959,2.597,13.067c2.736,1.134,6.446-0.673,8.497-2.388
				c3.316-2.775,5.153-6.53,5.866-10.754c0.151-0.898-1.22-1.282-1.373-0.377c-0.956,5.659-4.677,11.942-11.038,12.388
				c-5.772,0.405-5.18-8.019-3.32-11.218C305.556,132.244,304.326,131.528,303.864,132.322L303.864,132.322z"/>
		</g>
		<g>
			<path d="M339.208,124.665c7.9-5.797,12.988-14.595,18.917-22.216c1.483-1.908,2.808-3.899,4.151-5.906
				c0.995-1.487,2.677-3.126,2.688-5.056c0.006-0.924-0.066-1.821-0.15-2.741c-0.111-1.194,1.079-3.506,1.122-1.172
				c0.022,1.09-0.117,2.174-0.16,3.263c-0.024,0.633,0.787,0.924,1.215,0.503c2.445-2.406,3.26-7.106,6.685-8.357
				c-0.3-0.229-0.6-0.458-0.9-0.687c0.329,3.219-2.439,5.038-3.06,7.997c-0.148,0.71,0.646,1.168,1.19,0.692
				c1.66-1.457,3.303-4.277,5.784-4.182c-0.229-0.3-0.458-0.601-0.686-0.901c-0.565,2.689-3.413,3.919-3.915,6.644
				c-0.081,0.438,0.191,0.917,0.687,0.901c1.743-0.053,3.334-1.316,4.962-1.812c0.61,0.402,0.465,0.731-0.436,0.988
				c-0.557,0.38-1.182,0.676-1.779,0.984c-0.719,0.37-1.482,0.674-2.158,1.122c-0.551,0.366-0.396,1.066,0.17,1.302
				c0.801,0.331,6.023,0.061,3.343,1.143c-1.809,0.728-3.791,0.923-5.597,1.636c-0.844,0.333-0.477,1.711,0.378,1.373
				c2.35-0.93,6.54-0.857,8.001-3.246c1.695-2.769-5.156-2.035-5.748-2.28c0.057,0.434,0.114,0.868,0.17,1.301
				c1.701-1.126,5.627-1.942,5.749-4.449c0.156-3.246-6.325,0.492-7.056,0.514c0.23,0.3,0.457,0.601,0.687,0.901
				c0.485-2.644,3.346-3.938,3.914-6.644c0.098-0.463-0.206-0.883-0.687-0.901c-3.029-0.119-4.753,2.808-6.791,4.599
				c0.396,0.23,0.792,0.461,1.19,0.692c0.667-3.186,3.464-4.883,3.11-8.374c-0.043-0.423-0.428-0.859-0.902-0.687
				c-3.923,1.434-4.569,6.024-7.312,8.725c0.404,0.168,0.81,0.335,1.215,0.504c0.06-1.548,0.965-5.542-0.757-6.55
				c-2.89-1.694-3.079,4.196-2.967,5.406c0.319,3.445-2.545,6.376-4.373,9.065c-1.938,2.85-4.203,5.484-6.244,8.265
				c-4.311,5.873-8.424,12.049-14.371,16.414C337.758,123.973,338.468,125.209,339.208,124.665L339.208,124.665z"/>
		</g>
		<g>
			<path d="M370.429,99.187c-4.574,13.643-11.542,27.729-24.068,35.677c-0.773,0.491-0.06,1.723,0.717,1.229
				c12.859-8.159,20.025-22.511,24.726-36.528C372.095,98.692,370.72,98.321,370.429,99.187L370.429,99.187z"/>
		</g>
		<g>
			<path d="M329.599,152.134c6.068,4.973,17.065-0.048,17.584-7.798c0.062-0.917-1.362-0.911-1.423,0
				c-0.433,6.44-10.067,10.961-15.155,6.792C329.902,150.55,328.888,151.551,329.599,152.134L329.599,152.134z"/>
		</g>
		<g>
			<path d="M345.316,148.606c3.582-0.014,6.927-1.583,9.185-4.353c1.861-2.278,2.59-5.347,0.771-7.839
				c-0.535-0.734-1.771-0.025-1.229,0.717c3.82,5.234-4.414,10.034-8.727,10.05C344.398,147.187,344.398,148.61,345.316,148.606
				L345.316,148.606z"/>
		</g>
		<g>
			<path d="M354.835,143.357c5.885,0.225,9.976-7.019,7.376-12.103c-0.419-0.819-1.646-0.098-1.229,0.717
				c2.13,4.17-1.392,10.144-6.147,9.961C353.917,141.898,353.919,143.322,354.835,143.357L354.835,143.357z"/>
		</g>
		<g>
			<path d="M354.577,129.48c1.287,2.241,4.067,3.443,6.586,2.997c0.904-0.161,0.519-1.532-0.378-1.374
				c-1.889,0.336-4.029-0.689-4.979-2.341C355.347,127.967,354.117,128.684,354.577,129.48L354.577,129.48z"/>
		</g>
		<g>
			<path d="M288.02,149.317c0.035,2.922,1.105,6.335,4.448,6.673c0.914,0.092,0.904-1.332,0-1.424
				c-2.456-0.249-3.001-3.241-3.025-5.249C289.433,148.4,288.009,148.398,288.02,149.317L288.02,149.317z"/>
		</g>
		<g>
			<path d="M291.85,125.761c-1.197-5.839-1.46-12.158-1.551-18.122c-0.083-5.405,1.678-10.005,4.4-14.606
				c0.468-0.791-0.762-1.507-1.229-0.717c-2.529,4.273-4.268,8.547-4.562,13.54c-0.387,6.55,0.255,13.875,1.569,20.283
				C290.661,127.038,292.034,126.656,291.85,125.761L291.85,125.761z"/>
		</g>
		<g>
			<path d="M303.452,76.984c-3.889-0.786-7.061,1.585-9.825,4.048c-2.088,1.86-6.054,5.277-4.973,8.567
				c2.441,7.435,11.646,2.085,15.561-0.875c0.723-0.546,0.015-1.783-0.717-1.229c-3.014,2.278-9.058,6.631-12.613,3.336
				c-2.948-2.733,1.332-6.521,3.196-8.282c2.398-2.268,5.45-4.907,8.993-4.191C303.97,78.538,304.351,77.166,303.452,76.984
				L303.452,76.984z"/>
		</g>
		<g>
			<path d="M303.856,85.854c0.128,6.445,5.765,11.441,10.74,14.775c5.659,3.792,13.102,6.336,19.63,3.396
				c0.837-0.377,0.113-1.603-0.718-1.229c-5.837,2.629-12.169,0.192-17.329-2.851c-4.864-2.871-10.779-8.021-10.9-14.092
				C305.262,84.938,303.838,84.936,303.856,85.854L303.856,85.854z"/>
		</g>
		<g>
			<path d="M317.833,94.636c1.349,1.791,3.254,2.712,5.288,3.531c0.853,0.342,1.219-1.035,0.378-1.373
				c-1.645-0.662-3.34-1.42-4.437-2.875C318.516,93.194,317.279,93.903,317.833,94.636L317.833,94.636z"/>
		</g>
		<g>
			<path d="M304.39,77.698c-0.047,0.394,0.019,0.273,0.409,0.519c0.324,0.203,0.635,0.499,0.845,0.819
				c0.365,0.56,1.363,0.388,1.326-0.359c-0.086-1.729,2.297-2.423,2.694-0.522c0.188,0.898,1.56,0.518,1.374-0.378
				c-0.725-3.466-5.657-2.43-5.491,0.9c0.442-0.119,0.884-0.239,1.327-0.358c-0.756-1.155-3.611-3.112-3.906-0.62
				C302.858,78.609,304.283,78.598,304.39,77.698L304.39,77.698z"/>
		</g>
		<g>
			<path d="M310.621,78.312c7.217-3.977,16.369-3.408,22.685,1.981c5.229,4.463,7.372,11.655,7.384,18.312
				c0.001,0.918,1.424,0.918,1.423,0c-0.015-7.822-2.856-15.527-9.16-20.425c-6.493-5.046-16.049-4.956-23.05-1.097
				C309.098,77.528,309.817,78.756,310.621,78.312L310.621,78.312z"/>
		</g>
		<g>
			<path d="M340.716,98.599c0.01,3.453,0.891,6.948,1.696,10.283c0.62,2.562,1.163,6.288,2.997,8.341
				c0.612,0.686,1.616-0.324,1.006-1.006c-1.612-1.805-2.061-5.457-2.63-7.714c-0.805-3.198-1.636-6.589-1.646-9.904
				C342.136,97.682,340.712,97.682,340.716,98.599L340.716,98.599z"/>
		</g>
		<g>
			<path d="M328.802,108.263c-0.271-1.867,3.122-1.621,3.933-1.259c1.486,0.661,2.055,2.502,1.811,3.983
				c-0.204,1.24-1.117,2.257-2.111,2.948c-0.785,0.544-2.635,1.246-3.461,0.42c-0.649-0.649-1.655,0.357-1.006,1.006
				c1.491,1.491,4.082,0.569,5.579-0.471c1.894-1.316,2.738-3.564,2.372-5.791c-0.39-2.366-2.63-3.859-4.893-3.869
				c-1.894-0.007-3.883,1.425-3.596,3.412C327.559,109.547,328.931,109.161,328.802,108.263L328.802,108.263z"/>
		</g>
		<g>
			<path d="M328.616,115.854c-1.573,5.591-3.185,10.807-8.251,14.288c-4.706,3.232-11.538,4.041-16.642,1.301
				c-0.808-0.434-1.526,0.795-0.717,1.229c5.433,2.918,11.886,2.068,17.16-0.746c6.055-3.229,8.103-9.579,9.824-15.694
				C330.238,115.347,328.865,114.972,328.616,115.854L328.616,115.854z"/>
		</g>
		<g>
			<path d="M293.812,93.176c-4.16,6.528-3.812,16.201-2.474,23.5c1.457,7.946,6.646,13.697,13.967,16.915
				c0.832,0.365,1.557-0.861,0.717-1.229c-7.156-3.147-11.68-8.425-13.312-16.064c-1.451-6.8-1.526-16.351,2.33-22.405
				C295.535,93.118,294.303,92.405,293.812,93.176L293.812,93.176z"/>
		</g>
		<g>
			<path d="M305.961,111.848c-1.705-1.452-3.543-0.006-4.239,1.717c-0.327,0.809-0.331,1.768,0.093,2.54
				c0.549,1.002,1.806,1.217,2.841,1.14c0.909-0.068,0.916-1.493,0-1.423c-1.311,0.099-2.038-0.442-1.601-1.769
				c0.226-0.691,1.106-1.872,1.899-1.198C305.649,113.447,306.66,112.444,305.961,111.848L305.961,111.848z"/>
		</g>
		<g>
			<path d="M299.255,118.635c0.772,3.105,5.343,3.366,7.937,3.414c3.797,0.068,7.111-2.1,8.934-5.336
				c0.451-0.8-0.779-1.518-1.229-0.717c-1.492,2.647-3.819,4.188-6.833,4.59c-1.933,0.258-6.834,0.093-7.436-2.33
				C300.406,117.365,299.034,117.744,299.255,118.635L299.255,118.635z"/>
		</g>
		<g>
			<path d="M308.305,109.875c1.939,0.017,3.877,0.214,5.812,0c0.901-0.1,0.912-1.523,0-1.424c-1.936,0.214-3.873,0.018-5.812,0
				C307.386,108.444,307.387,109.868,308.305,109.875L308.305,109.875z"/>
		</g>
		<g>
			<path d="M310.355,108.759c0.208-0.671,0.087-1.444,0.077-2.134c-0.005-0.399,0.01-0.791,0.115-1.177
				c0.116-0.431,0.239-0.062,0.03-0.352c0.283,0.391,0.098,1.257,0.036,1.689c-0.082,0.554-0.188,1.13-0.386,1.656
				c0.466,0.062,0.933,0.126,1.399,0.189c0.086-1.155,0.386-2.542-0.334-3.561c-0.319-0.453-0.91-0.46-1.229,0
				c-0.654,0.941-0.796,2.083-0.809,3.206c-0.01,0.919,1.414,0.917,1.423,0c0.01-0.889,0.096-1.742,0.614-2.488
				c-0.41,0-0.819,0-1.229,0c0.538,0.76,0.204,1.98,0.139,2.844c-0.063,0.855,1.135,0.893,1.399,0.189
				c0.489-1.303,1.079-3.902-0.23-4.881c-0.896-0.671-1.921,0.348-2.196,1.131c-0.377,1.07,0.133,2.267-0.193,3.312
				C308.708,109.26,310.082,109.633,310.355,108.759L310.355,108.759z"/>
		</g>
		<g>
			<path d="M296.846,109.435c0.972,0.278,1.947,0.252,2.949,0.289c1.005,0.037,1.992,0.295,2.993,0.389
				c0.915,0.084,0.906-1.341,0-1.424c-0.875-0.081-1.733-0.274-2.609-0.356c-0.995-0.093-1.982,0.008-2.955-0.271
				C296.34,107.809,295.964,109.182,296.846,109.435L296.846,109.435z"/>
		</g>
		<g>
			<path d="M299.377,107.889c-0.659-0.583-0.351-1.678-0.038-2.374c0.131-0.291,0.303-0.57,0.535-0.79
				c-0.205,0.195-0.447,0.028-0.565-0.126c0.05,0.063,0.056,0.114,0.088,0.228c0.25,0.92,0.185,2.58-0.248,3.385
				c0.434,0.182,0.867,0.365,1.301,0.547c0.189-1.336,0.923-3.279-0.243-4.369c-0.347-0.322-0.863-0.249-1.118,0.145
				c-0.707,1.087-0.808,2.439-0.606,3.691c0.147,0.905,1.518,0.52,1.374-0.378c-0.144-0.88-0.029-1.839,0.461-2.596
				c-0.372,0.049-0.745,0.096-1.117,0.145c0.621,0.582-0.021,2.261-0.124,2.985c-0.104,0.741,0.885,1.319,1.301,0.548
				c0.438-0.812,0.495-1.848,0.528-2.75c0.032-0.826,0.062-2.118-0.708-2.651c-0.975-0.674-1.838,0.713-2.162,1.432
				c-0.553,1.228-0.784,2.946,0.333,3.936C299.055,109.501,300.065,108.5,299.377,107.889L299.377,107.889z"/>
		</g>
		<g>
			<path d="M299.715,100.954c1.098-0.308,2.184-0.317,3.311-0.213c0.915,0.085,0.906-1.34,0-1.423
				c-1.25-0.116-2.475-0.077-3.69,0.262C298.454,99.828,298.83,101.202,299.715,100.954L299.715,100.954z"/>
		</g>
		<g>
			<path d="M309.562,100.894c1.216-0.246,2.482-0.257,3.544,0.461c0.761,0.518,1.474-0.717,0.716-1.229
				c-1.377-0.933-3.064-0.924-4.64-0.606C308.284,99.703,308.665,101.075,309.562,100.894L309.562,100.894z"/>
		</g>
		<g>
			<path d="M322.125,220.729c0.036,4.417,1.23,8.587,2.332,12.834c1.007,3.891,1.923,7.688,3.629,11.352
				c2.75,5.901,8.428,11.012,15.224,8.768c12.434-4.108,18.271-19.861,21.851-31.103c0.279-0.877-1.096-1.25-1.374-0.378
				c-3.279,10.298-7.728,21.706-16.971,28.081c-3.195,2.204-6.772,3.384-10.506,1.763c-3.903-1.697-6.313-6.11-7.873-9.826
				c-1.215-2.897-1.86-5.997-2.607-9.035c-1.021-4.142-2.246-8.147-2.28-12.456C323.542,219.812,322.118,219.811,322.125,220.729
				L322.125,220.729z"/>
		</g>
		<g>
			<path d="M364.711,222.509c4.662-0.039,1.468-8.144,0.516-10.35c-1.06-2.457-3.027-4.965-5.672-5.768
				c-2.793-0.846-4.71,1.817-5.66,4.015c-0.362,0.833,0.864,1.559,1.229,0.717c0.942-2.174,2.457-4.279,5.018-2.968
				c1.817,0.929,3.01,2.95,3.856,4.723c0.613,1.283,3.121,8.188,0.713,8.207C363.794,221.092,363.793,222.516,364.711,222.509
				L364.711,222.509z"/>
		</g>
		<g>
			<path d="M353.896,210.407c-4.122,5.822-7.562,13.169-9.681,19.98c-0.272,0.878,1.102,1.252,1.374,0.378
				c2.067-6.647,5.5-13.94,9.537-19.641C355.656,210.373,354.42,209.663,353.896,210.407L353.896,210.407z"/>
		</g>
		<g>
			<path d="M339.681,201.276c-0.083,11.323,2.183,23.822,5.957,34.471c0.305,0.859,1.682,0.489,1.374-0.378
				c-3.748-10.575-5.989-22.871-5.906-34.093C341.112,200.357,339.688,200.359,339.681,201.276L339.681,201.276z"/>
		</g>
		<g>
			<path d="M361.53,207.922c0.584-1.112,1.583-0.88,2.348-0.067c1.037,1.105,0.532,2.917-0.255,3.976
				c-0.549,0.737,0.688,1.446,1.229,0.717c1.316-1.769,1.433-4.414-0.259-5.989c-1.39-1.294-3.401-1.049-4.292,0.645
				C359.874,208.016,361.102,208.735,361.53,207.922L361.53,207.922z"/>
		</g>
		<g>
			<path d="M365.283,216.582c1.768,3.896,6.209,6.186,9.88,7.939c1.806,0.863,6.599,2.837,8.278,0.814
				c2.238-2.7-1.317-6.114-3.059-8.031c-4.525-4.98-8.873-10.176-12.208-16.03c-0.455-0.798-1.684-0.081-1.229,0.717
				c4.034,7.083,9.823,12.548,14.678,18.987c1.683,2.231,0.401,3.906-2.174,3.482c-1.536-0.252-2.948-0.873-4.343-1.539
				c-3.235-1.546-7.054-3.665-8.594-7.058C366.134,215.029,364.906,215.753,365.283,216.582L365.283,216.582z"/>
		</g>
		<g>
			<path d="M367.083,201.018c-2.167,1.259-4.062,3.057-5.477,5.12c-0.521,0.759,0.713,1.47,1.229,0.717
				c1.276-1.857,3.016-3.475,4.964-4.608C368.593,201.785,367.877,200.555,367.083,201.018L367.083,201.018z"/>
		</g>
		<g>
			<path d="M343.097,221.75c0.979-2.552,3.323-4.317,4.86-6.535c0.559-0.806,1.765-1.789,2.021-2.717
				c0.074-0.273-0.052-0.64-0.102-0.887c-0.376-1.907,2.241-3.758,2.998-0.537c0.211,0.894,1.584,0.515,1.374-0.378
				c-0.672-2.85-5.296-4.288-5.926-0.683c-0.113,0.645,0.062,1.341,0.183,1.976c0.093,0.485-1.976,2.794-2.243,3.18
				c-1.514,2.184-3.561,3.655-4.538,6.203C341.394,222.229,342.771,222.598,343.097,221.75L343.097,221.75z"/>
		</g>
		<g>
			<path d="M352.871,209.108c0.967-1.586,2.058-3.088,3.354-4.425c0.711-0.732,2.051-2.057,3.161-1.195
				c0.737,0.574,1.166,1.625,1.626,2.417c0.461,0.794,1.692,0.078,1.229-0.717c-1.209-2.083-2.518-4.291-5.171-2.974
				c-2.349,1.165-4.11,4.011-5.428,6.176C351.162,209.176,352.393,209.891,352.871,209.108L352.871,209.108z"/>
		</g>
		<g>
			<path d="M362.792,225.953c1.647,2.346,5.687,7.549,9.042,5.363c4.614-3.005-1.741-9.868-3.069-12.842
				c-0.372-0.837-1.6-0.113-1.228,0.717c1.243,2.786,6.267,7.688,3.696,10.771c-1.882,2.259-6.271-3.385-7.214-4.726
				C363.498,224.49,362.262,225.2,362.792,225.953L362.792,225.953z"/>
		</g>
		<g>
			<path d="M303.502,216.223c0.099,10.401,2.768,22.088,9.416,30.343c4.114,5.106,15.368,12.432,20.735,5.008
				c0.54-0.745-0.696-1.454-1.229-0.717c-2.792,3.862-8.384,2.018-11.905,0.345c-3.835-1.82-6.513-5.221-8.707-8.751
				c-4.763-7.662-6.802-17.296-6.887-26.229C304.917,215.305,303.493,215.304,303.502,216.223L303.502,216.223z"/>
		</g>
		<g>
			<path d="M284.548,205.24c-1.596,5.349,0.299,10.968,2.799,15.73c0.427,0.813,1.656,0.095,1.229-0.717
				c-2.32-4.422-4.142-9.66-2.655-14.635C286.184,204.736,284.81,204.362,284.548,205.24L284.548,205.24z"/>
		</g>
		<g>
			<path d="M280.844,215.749c0.054,1.368,0.724,2.49,1.521,3.562c0.541,0.728,1.777,0.021,1.229-0.718
				c-0.628-0.848-1.283-1.752-1.326-2.844C282.231,214.834,280.808,214.83,280.844,215.749L280.844,215.749z"/>
		</g>
		<g>
			<path d="M349.315,189.343c-0.782,3.285-2.582,6.099-4.679,8.701c-0.57,0.708,0.43,1.721,1.006,1.006
				c2.252-2.793,4.206-5.801,5.045-9.33C350.901,188.829,349.527,188.451,349.315,189.343L349.315,189.343z"/>
		</g>
		<g>
			<path d="M349.507,197.121c-0.215,0.412-0.456,0.801-0.712,1.187c-0.509,0.768,0.725,1.479,1.229,0.718
				c0.256-0.386,0.497-0.776,0.712-1.188C351.16,197.027,349.931,196.307,349.507,197.121L349.507,197.121z"/>
		</g>
	</g>
	<path d="M120.684,97.861c-1.066-3.123,0.407-8.392-2.363-10.871c-1.272-1.137-3.337-1.62-4.683-0.274
		c-0.044,0.044-0.072,0.097-0.113,0.143c-0.486,0.22-0.954,0.531-1.378,0.905c0.061-0.238,0.126-0.475,0.18-0.716
		c2.109-3.097,3.387-6.664,1.708-9.53c-3.423-5.845-17.306,1.886-21.304,3.672c-5.731,2.559-11.234,5.517-16.79,8.428
		c-2.661,1.393-5.308,2.964-6.394,5.873c-0.25,0.667,0.029,1.475,0.485,1.991c-0.729,0.425-1.216,1.252-0.975,2.313
		c0.555,2.441-0.293,5.359-0.729,8.071c-0.125,0.51-0.229,0.983-0.266,1.341c-0.042,0.413-0.067,0.829-0.078,1.246
		c-0.416,2.908-0.228,6.036,1.164,8.629c0.029,0.125,0.058,0.251,0.087,0.375c1.209,5.019,6.381,10.062,11.367,11.189
		c1.952,0.442,3.165-1.44,2.41-3.136c-0.236-0.534-0.474-1.068-0.711-1.601c-0.317-0.713-1.142-0.988-1.843-1.059
		c-1.757-0.04-3.181-0.721-4.273-2.043c-0.195-0.185-0.402-0.311-0.612-0.409c-0.081-0.111-0.169-0.216-0.246-0.332
		c-0.007-0.062-0.004-0.121-0.017-0.185c-0.794-4.168,2.89-3.873,5.559-4.325c0.238-0.041,0.428-0.118,0.638-0.18
		c0.17,1.747,2.841,2.822,3.997,0.899c2.853-4.741,4.407-11.998,1.068-16.829c0.437-0.045,0.863-0.127,1.294-0.191
		c0.289,0.144,0.631,0.226,1.044,0.196c6.228-0.432,13.675-2.686,18.731-6.417c1.119-0.827,1.983-1.812,2.674-2.895
		c0.503,2.801,3.666,5.619,6.052,6.209c0.013,0.003,0.026,0,0.039,0.003c0.056,0.214,0.087,0.43,0.16,0.641
		c0.37,1.08,1.301,1.51,2.198,1.463c0.019,0.215,0.02,0.432,0.064,0.65c0.008,0.043,0.032,0.069,0.045,0.105
		c0.003,0.051,0.017,0.101,0.019,0.15c0.03,0.916,1.454,0.919,1.423,0c-0.017-0.477-0.089-0.955-0.173-1.426
		C120.695,99.484,120.994,98.766,120.684,97.861z"/>
	<path d="M345.105,114.712c-0.407-0.367-0.746-0.775-1.057-1.204c-0.065-1.542-0.402-3.032-0.885-4.497
		c-0.193-0.585-0.595-1.054-1.102-1.322c-0.396-3.439-0.053-7.203-0.358-10.176c-0.563-5.498-2.663-10.398-5.635-14.991l0,0
		c-0.051-0.196-0.12-0.394-0.238-0.594c-0.908-1.55-2.306-2.57-4.004-3.116c-0.217-0.07-0.438-0.086-0.656-0.075
		c-3.695-2.593-8.302-3.866-12.792-3.545c-1.192,0.085-2.388,0.516-3.375,1.187c-1.484,0.284-2.947,0.709-4.361,1.264
		c-0.023,0.001-0.046,0.007-0.069,0.009c0.002,0.005,0.003,0.011,0.007,0.017c-0.01,0.003-0.02,0.007-0.027,0.011
		c-0.625-0.685-1.555-1.098-2.708-0.857c-1.04,0.217-1.7,0.692-2.211,1.347c-0.442-0.375-1.03-0.619-1.777-0.619
		c-0.375,0-0.702,0.073-1,0.178c-3.562,0.056-7.565,2.658-9.889,5.092c-0.667,0.699-1.212,1.511-1.569,2.354
		c-0.976,0.141-1.885,0.738-2.27,1.939c-1.073,3.345,1.036,6.24,4.565,6.357c3.722,0.122,7.252-1.864,10.223-4.133
		c3.553,8.381,11.451,13.43,20.219,14.696c0.889,1.442,1.773,2.844,2.044,4.547c0.119,0.737,1.185,0.622,1.374,0
		c0.259-0.859,0.549-1.688,1.076-2.402c0.149,0.181,0.383,0.281,0.681,0.171c0.558-0.206,1.113-0.317,1.708-0.332
		c0.086-0.001,0.156-0.026,0.227-0.051c0.974,0.143,2.131,0.454,3.288,0.685c0.494,1.808,0.829,3.553,0.389,5.434
		c-0.623,2.644-3.538,2.002-5.036,3.455c-2.908,2.82-2.705,7.299-5.479,10.32c-0.717,0.782-0.704,1.711-0.314,2.442
		c-0.698,0.473-1.476,0.838-2.119,1.411c-0.462,0.41-0.101,1.242,0.503,1.215c1.804-0.078,3.378-0.827,4.884-1.729
		c0.487,0.136,1.023,0.091,1.532-0.224c3.493-2.166,7.301-3.55,10.228-6.397c0.577,0.035,1.15-0.123,1.592-0.579
		c1.436-1.486,2.995-2.745,4.389-4.271C345.859,116.907,345.998,115.518,345.105,114.712z M326.712,104.949
		c-0.133-0.091-0.299-0.117-0.465-0.088c-0.112-0.206-0.2-0.423-0.322-0.624c0.495,0.042,0.993,0.054,1.489,0.075
		C327.162,104.504,326.922,104.713,326.712,104.949z"/>
	<path d="M297.694,127.448c-0.319-0.188-0.615-0.259-0.966-0.296c-0.056-0.192-0.142-0.379-0.288-0.55
		c-1.349-1.582-1.892-3.659-2.98-5.406c-0.082-0.132-0.188-0.214-0.288-0.306c-0.167-0.689-0.361-1.374-0.57-2.055
		c-0.006-0.121-0.009-0.242-0.016-0.361c-0.02-0.366-0.168-0.638-0.363-0.857c-0.222-0.717-0.443-1.437-0.638-2.167
		c-0.975-3.656-0.856-7.961-0.423-11.685c0.106-0.911-1.319-0.901-1.423,0c-0.421,3.611-0.235,7.196,0.238,10.794
		c0.118,0.9,0.332,1.773,0.58,2.634c-0.482,0.175-0.854,0.599-0.817,1.28c0.112,2.104,0.161,4.222,0.714,6.267
		c0.651,2.402,2.341,2.917,4.261,4.097c0.199,0.123,0.392,0.182,0.58,0.206c0.154,0.414,0.496,0.701,0.923,0.838
		c0.012,0.008,0.026,0.015,0.039,0.024C297.841,130.841,299.273,128.379,297.694,127.448z"/>
	<path d="M291.548,150.769c-0.16-0.288-0.378-0.489-0.645-0.592c-0.072-0.061-0.131-0.132-0.208-0.19
		c-0.617-0.474-1.593-0.096-1.947,0.51c-0.387,0.659-0.147,1.315,0.349,1.786c0.281,0.93,0.624,1.81,1.297,2.548
		c0.827,0.909,2.479,0.213,2.43-1.006C292.775,152.627,292.303,151.607,291.548,150.769z"/>
	<path d="M362.008,134.981c0.104-0.254,0.101-0.541,0.032-0.814c0.104-0.272,0.171-0.548,0.179-0.863
		c0.026-0.899-0.643-1.352-1.34-1.369c-0.187-0.104-0.409-0.173-0.676-0.173c-0.896,0-1.789-0.018-2.681-0.08
		c-0.04-0.054-0.086-0.116-0.123-0.165c-0.311-0.407-0.764-0.666-1.228-0.689c0.652-1.197-1.081-2.698-2.313-1.615
		c-1.685,1.479-3.153,3.151-4.62,4.832c-0.221-0.007-0.458,0.066-0.696,0.228c-0.003,0-0.004,0.001-0.006,0.003
		c-0.03,0.02-0.057,0.03-0.085,0.053c-2.483,1.917-4.72,4.726-7.098,7.351c-3.077,2.411-6.411,4.471-10.117,5.793
		c-0.727,0.258-0.995,0.899-0.951,1.508c-0.285,0.37-0.403,0.896-0.282,1.309c0.734,2.508,3.193,2.874,5.506,2.67
		c1.65,0.618,3.976-0.212,5.32-0.766c2.55-1.048,3.837-2.733,5.002-4.85c2.771,2.039,7.036-1.562,8.929-4.924
		c1.389-0.063,2.733-0.632,3.818-1.502c0.288-0.019,0.579-0.099,0.85-0.32c1.578-1.405,3.265-3.196,2.639-5.482
		C362.054,135.065,362.024,135.03,362.008,134.981z"/>
</g>
</svg>
