<?xml version="1.0" encoding="utf-8"?>
<!-- Generator: Adobe Illustrator 15.1.0, SVG Export Plug-In . SVG Version: 6.00 Build 0)  -->
<!DOCTYPE svg PUBLIC "-//W3C//DTD SVG 1.1//EN" "http://www.w3.org/Graphics/SVG/1.1/DTD/svg11.dtd">
<svg version="1.1" id="Layer_1" xmlns="http://www.w3.org/2000/svg" xmlns:xlink="http://www.w3.org/1999/xlink" x="0px" y="0px"
	 width="407.592px" height="338.589px" viewBox="0 0 407.592 338.589" enable-background="new 0 0 407.592 338.589"
	 xml:space="preserve">
<g>
	<path d="M254.141,80.875h-42.913c-0.23,1.911-0.557,3.809-0.886,5.705h43.798c12.583,0,22.817,10.234,22.817,22.813v169.615
		c0,12.581-10.234,22.816-22.817,22.816H153.352c-12.58,0-22.816-10.235-22.816-22.816V109.393c0-12.58,10.236-22.813,22.816-22.813
		h42.33c0.119-1.9,0.178-3.802,0.188-5.705h-42.517c-15.726,0-28.521,12.793-28.521,28.519v169.615
		c0,15.726,12.795,28.521,28.521,28.521h100.789c15.728,0,28.522-12.795,28.522-28.521V109.393
		C282.663,93.667,269.868,80.875,254.141,80.875z"/>
</g>
<g>
	<path d="M197.252,41.364c-1.434,11.016-2.841,22.016-3.543,33.107c-0.292,4.593-2.841,16.678,1.088,20.606
		c2.715,2.715,8.854,3.09,12.186,1.595c5.289-2.373,6.007-8.763,6.793-13.909c1.516-9.946,2.329-19.982,3.911-29.912
		c0.668-4.204,3.454-13.306-0.996-16.372c-4.275-2.945-11.458-4.158-16.301-2.139c-3.779,1.573-3.358,7.339-3.298,10.537
		c0.044,2.45,3.85,2.453,3.803,0c-0.106-5.66,2.637-8.171,8.487-7.144c8.81,1.547,5.04,11.581,4.1,17.477
		c-1.4,8.79-2.188,17.718-3.376,26.541c-0.643,4.797-1.151,11.618-8.379,11.816c-6.858,0.189-4.466-11.958-4.383-15.419
		c0.301-12.314,2.123-24.589,3.71-36.785C201.371,38.937,197.564,38.966,197.252,41.364L197.252,41.364z"/>
</g>
<g>
	<path d="M203.657,50.757c-0.387,2.111-7.293,26.569-0.279,26.448c4.121-0.073,5.192-5.677,5.62-8.79
		c0.837-6.091,0.993-12.949,0.614-19.055c-0.119-1.883-2.501-2.602-3.543-0.96c-1.627,2.559-2.019,5.348-2.347,8.312
		c-0.531,4.758-1.566,9.436-2.036,14.201c-0.239,2.44,3.565,2.418,3.803,0c0.368-3.736,1.196-7.383,1.664-11.103
		c0.409-3.237,0.401-6.661,2.199-9.49c-1.181-0.319-2.362-0.641-3.543-0.96c0.25,4.048-0.126,8.115-0.212,12.169
		c-0.078,3.695,0.056,7.748-1.655,11.129c0.515,1.209,0.622,1.157,0.321-0.158c-0.033-0.57-0.042-1.142-0.032-1.714
		c0.002-0.91,0.076-1.82,0.151-2.726c0.438-5.5,1.952-10.88,2.941-16.294C207.763,49.37,204.097,48.347,203.657,50.757
		L203.657,50.757z"/>
</g>
<g>
	<path d="M202.797,49.678c-0.141,1.688-0.283,3.37-0.566,5.042c1.246,0.169,2.49,0.336,3.734,0.505
		c-0.007-1.597-0.379-4.323,0.928-5.506c-0.312,0.28-1.547-0.438-1.367-0.278c-0.442-0.392-0.278-0.578-0.162-0.063
		c0.069,0.293,0.032,1.146,0.01,1.632c-0.112,2.32-0.617,4.611-1.085,6.879c-0.492,2.394,3.174,3.411,3.67,1.01
		c0.692-3.367,1.818-7.306,1.029-10.73c-0.531-2.299-2.934-2.605-4.583-1.298c-2.41,1.911-2.254,5.583-2.243,8.355
		c0.011,2.085,3.369,2.67,3.736,0.505c0.34-2.005,0.531-4.026,0.702-6.052C206.805,47.232,203.001,47.252,202.797,49.678
		L202.797,49.678z"/>
</g>
<g>
	<path d="M203.182,49.173c-1.092,3.049-0.897,6.275-1.324,9.454c-0.486,3.623-1.081,7.206-1.277,10.86
		c-0.134,2.451,3.669,2.438,3.803,0c0.178-3.31,0.668-6.57,1.142-9.848c0.451-3.131,0.254-6.472,1.324-9.456
		C207.678,47.869,204.002,46.881,203.182,49.173L203.182,49.173z"/>
</g>
<g>
	<path d="M202.481,49.678c-0.828,6.815-1.987,13.581-2.377,20.442c-0.141,2.452,3.664,2.438,3.803,0
		c0.39-6.86,1.549-13.628,2.377-20.442C206.578,47.247,202.771,47.275,202.481,49.678L202.481,49.678z"/>
</g>
<g>
	<path d="M217.702,54.49c2.827-1.341,1.608,7.149,1.415,8.414c-0.967,6.372-2.258,12.7-3.257,19.072
		c-0.375,2.397,3.287,3.428,3.668,1.01c0.481-3.071,9.93-38.27-3.746-31.779C213.568,52.257,215.5,55.535,217.702,54.49
		L217.702,54.49z"/>
</g>
<g>
	<path d="M179.345,85.807c0,4.86,0,9.72,0,14.58c0,2.454,3.803,2.454,3.803,0c0-4.86,0-9.72,0-14.58
		C183.148,83.354,179.345,83.354,179.345,85.807L179.345,85.807z"/>
</g>
<g>
	<path d="M181.722,102.446c13.944,0,27.891,0,41.835,0c2.453,0,2.453-3.803,0-3.803c-13.945,0-27.891,0-41.835,0
		C179.269,98.643,179.269,102.446,181.722,102.446L181.722,102.446z"/>
</g>
<g>
	<path d="M225.459,100.229c0-5.071,0-10.141,0-15.213c0-2.453-3.804-2.453-3.804,0c0,5.072,0,10.142,0,15.213
		C221.655,102.682,225.459,102.682,225.459,100.229L225.459,100.229z"/>
</g>
<g>
	<path d="M131.862,272.81c7.165-11.934,17.141-21.603,26.326-31.943c9.708-10.932,20.68-21.029,32.405-29.75
		c8.15-6.062,16.821-10.838,26.574-13.737c5.005-1.489,12.32-2.904,15.909,2.178c3.5,4.955-3.827,14.866-5.931,19.353
		c-2.37,5.055-6.397,13.035-4.817,18.776c1.415,5.144,8.039,4.737,11.802,2.923c9.771-4.708,16.602-13.533,23.974-21.215
		c8.075-8.412,18.856-15.976,24.302-26.453c1.129-2.173-2.152-4.097-3.283-1.92c-6.078,11.696-19.396,21.176-28.465,30.647
		c-4.145,4.331-8.112,8.947-12.957,12.511c-2.145,1.577-4.455,2.749-6.966,3.642c-7.653,2.719-3.991-6.964-3.267-9.289
		c3.143-10.072,18.779-29.243,2.845-35.598c-13.683-5.458-34.799,9.516-44.577,17.094c-10.936,8.478-20.782,18.069-30.238,28.149
		c-9.625,10.258-19.647,20.599-26.919,32.712C127.312,272.997,130.601,274.908,131.862,272.81L131.862,272.81z"/>
</g>
<g>
	<path d="M136.298,297.213c11.109-16.872,22.806-33.438,36.504-48.33c6.916-7.523,14.715-15.148,24.097-19.501
		c3.989-1.85,9.478-2.793,12.007,1.649c4.88,8.574-9.155,24.806-8.657,34.981c0.436,8.951,10.604,11.669,17.831,10.03
		c10.359-2.349,19.543-11.029,27.05-18.019c13.857-12.897,26.203-27.871,37.275-43.214c1.438-1.993-1.863-3.889-3.283-1.92
		c-11.291,15.644-23.99,30.634-38.114,43.78c-7.181,6.686-18.935,17.855-29.817,16.026c-16.427-2.763,2.986-31.748,2.065-40.604
		c-1.147-11.033-14.719-8.002-21.055-4.6c-9.084,4.88-16.661,12.798-23.555,20.295c-13.393,14.563-24.777,31.018-35.631,47.505
		C131.661,297.348,134.956,299.252,136.298,297.213L136.298,297.213z"/>
</g>
<g>
	<path d="M150.027,121.78c0,16.164,0,32.327,0,48.491c0,1.84,2.853,1.84,2.853,0c0-16.164,0-32.328,0-48.491
		C152.88,119.939,150.027,119.939,150.027,121.78L150.027,121.78z"/>
</g>
<g>
	<path d="M151.929,172.33c13.1,0,26.199,0,39.299,0c1.841,0,1.841-2.852,0-2.852c-13.1,0-26.199,0-39.299,0
		C150.09,169.478,150.09,172.33,151.929,172.33L151.929,172.33z"/>
</g>
<g>
	<path d="M192.974,171.222c0-16.23,0-32.459,0-48.69c0-1.84-2.853-1.84-2.853,0c0,0.171,0,0.344,0,0.515c0,1.84,2.853,1.84,2.853,0
		c0-0.171,0-0.344,0-0.515c0-1.84-2.853-1.84-2.853,0c0,16.23,0,32.459,0,48.69C190.121,173.062,192.974,173.062,192.974,171.222
		L192.974,171.222z"/>
</g>
<g>
	<path d="M151.454,123.206c13.363,0,26.729,0,40.094,0c1.838,0,1.838-2.853,0-2.853c-13.365,0-26.73,0-40.094,0
		C149.615,120.354,149.615,123.206,151.454,123.206L151.454,123.206z"/>
</g>
<g>
	<path d="M198.994,138.261c19.861,0,39.722,0,59.583,0c2.453,0,2.453-3.803,0-3.803c-19.861,0-39.722,0-59.583,0
		C196.542,134.458,196.542,138.261,198.994,138.261L198.994,138.261z"/>
</g>
<g>
	<path d="M201.975,145.957c2.731,0.418,5.528,0.013,8.24,0.476c2.399,0.41,3.424-3.254,1.01-3.666
		c-2.734-0.468-5.508-0.062-8.24-0.476C200.587,141.925,199.555,145.589,201.975,145.957L201.975,145.957z"/>
</g>
<g>
	<path d="M200.205,157.901c-2.477,4.14-1.879,12.478,4.568,11.978c4.899-0.377,7.9-6.381,10.125-10.058
		c1.274-2.104-2.017-4.015-3.283-1.92c-1.603,2.646-3.129,5.382-5.512,7.419c-1.043,0.894-2.692,1.207-3.298-0.356
		c-0.613-1.58-0.16-3.734,0.683-5.142C204.751,157.711,201.462,155.799,200.205,157.901L200.205,157.901z"/>
</g>
<g>
	<path d="M215.503,152.432c-6.607-0.943-7.859,11.359-4.191,14.949c6.452,6.312,13.6-7.285,16.422-11.363
		c-1.096-0.641-2.188-1.28-3.283-1.92c-1.445,2.693-2.867,6.077-1.619,9.072c1.094,2.619,3.569,2.914,5.816,1.667
		c1.324-0.733,2.343-2.178,3.324-3.292c1.241-1.409-0.711-1.185,1.148,0.093c3.465,2.381,6.24-0.247,8.895-2.54
		c1.861-1.604-0.841-4.283-2.689-2.689c-1.068,1.124-2.421,1.756-4.056,1.897c-0.338-0.544-0.405-0.867-0.895-1.3
		c-0.472-0.416-1.215-0.747-1.852-0.488c-1.608,0.648-2.739,1.768-3.881,3.066c-3.124,3.553-1.996-1.538-0.908-3.565
		c1.174-2.186-1.901-3.918-3.283-1.92c-2.107,3.046-3.965,6.205-6.481,8.947c-6.615,7.209-4.353-7.071-3.477-6.947
		C216.892,156.441,217.925,152.777,215.503,152.432L215.503,152.432z"/>
</g>
<g>
	<path d="M159.673,141.15c0.019-1.339-0.88-2.254-2.191-2.373c-1.259-0.113-2.158,1.016-2.474,2.095
		c-0.643,2.197,1.014,4.943,3.488,3.996c0.851-0.325,0.483-1.703-0.379-1.374c-1.151,0.44-1.746-0.42-1.809-1.514
		c-0.03-0.542,0.121-1.105,0.482-1.513c0.602-0.684,1.467-0.052,1.456,0.683C158.235,142.07,159.662,142.07,159.673,141.15
		L159.673,141.15z"/>
</g>
<g>
	<path d="M182.574,141.15c-0.011-0.694,0.546-1.157,1.222-0.847c0.535,0.243,0.691,0.969,0.717,1.491
		c0.06,1.144-0.609,2.158-1.809,1.699c-0.862-0.329-1.229,1.049-0.379,1.374c2.511,0.96,3.885-1.666,3.528-3.816
		c-0.186-1.125-1.11-2.221-2.309-2.266c-1.395-0.052-2.416,0.982-2.397,2.364C181.159,142.07,182.585,142.07,182.574,141.15
		L182.574,141.15z"/>
</g>
<g>
	<path d="M157.976,144.905c1.138,4.359,6.158,7.296,10.453,7.687c7.061,0.639,11.129-1.608,14.739-7.456
		c0.485-0.786-0.75-1.5-1.231-0.721c-2.587,4.193-4.958,6.334-10.082,6.886c-4.539,0.488-11.202-1.787-12.503-6.774
		C159.12,143.637,157.743,144.014,157.976,144.905L157.976,144.905z"/>
</g>
<g>
	<path d="M159.933,141.629c1.356-1.887,2.397-4.05,2.496-6.408c0.085-2.021-1.854-3.492-3.465-4.255
		c-4.476-2.117-2.362,5.974-3.068,8.034c-0.297,0.873,1.081,1.244,1.376,0.379c0.34-0.996,0.333-2.026,0.307-3.068
		c-0.013-0.529-0.481-4.626,0.665-4.111c1.699,0.759,3.004,1.948,2.659,3.968c-0.301,1.753-1.178,3.319-2.201,4.741
		C158.163,141.658,159.402,142.369,159.933,141.629L159.933,141.629z"/>
</g>
<g>
	<path d="M160.358,132.742c5.49,4.73,15.737,5.009,21.094,0.06c0.676-0.626-0.334-1.632-1.008-1.01
		c-4.711,4.353-14.214,4.134-19.077-0.06C160.674,131.135,159.66,132.14,160.358,132.742L160.358,132.742z"/>
</g>
<g>
	<path d="M159.848,131.902c2.604,1.458,5.623,1.634,8.537,2.017c4.213,0.556,8.214,0.804,12.217-0.817
		c0.843-0.34,0.476-1.72-0.378-1.374c-2.988,1.209-5.941,1.337-9.117,1.094c-3.296-0.253-7.58-0.496-10.539-2.152
		C159.766,130.22,159.045,131.453,159.848,131.902L159.848,131.902z"/>
</g>
<g>
	<path d="M160.627,130.253c-1.261-0.609,4.862-2.884,4.264-2.686c1.486-0.496,3.096-0.68,4.635-0.936
		c2.123-0.353,4.214-0.535,6.362-0.539c4.15-0.009,7.203,3.32,3.664,6.529c-0.682,0.62,0.329,1.625,1.008,1.01
		c1.838-1.669,2.557-4.073,1.601-6.405c-1.248-3.051-6.375-2.625-8.91-2.486c-4.338,0.238-8.59,1.19-12.527,3.008
		c-1.463,0.678-2.65,2.849-0.817,3.736C160.731,131.884,161.456,130.654,160.627,130.253L160.627,130.253z"/>
</g>
<g>
	<path d="M167.636,152.564c1.029,1.487,2.381,2.711,3.406,4.199c0.52,0.75,1.757,0.039,1.233-0.721
		c-1.029-1.487-2.381-2.711-3.408-4.199C168.349,151.093,167.112,151.804,167.636,152.564L167.636,152.564z"/>
</g>
<g>
	<path d="M171.183,156.72c0,4.49,0,8.979,0,13.469c0,0.919,1.426,0.919,1.426,0c0-4.49,0-8.979,0-13.469
		C172.609,155.801,171.183,155.801,171.183,156.72L171.183,156.72z"/>
</g>
<g>
	<path d="M174.529,151.605c-1.144,1.636-2.26,3.291-3.17,5.072c-0.418,0.817,0.812,1.54,1.231,0.721
		c0.91-1.781,2.026-3.436,3.17-5.072C176.29,151.57,175.053,150.857,174.529,151.605L174.529,151.605z"/>
</g>
<g>
	<path d="M173.133,156.061c1.01,0.312,1.654,1.081,2.458,1.72c0.392,0.31,1.059,0.258,1.192-0.315
		c0.483-2.082,0.947-4.151,1.055-6.292c0.046-0.919-1.381-0.916-1.426,0c-0.1,2.013-0.551,3.956-1.004,5.913
		c0.397-0.106,0.795-0.21,1.192-0.316c-1.016-0.806-1.811-1.692-3.088-2.083C172.631,154.416,172.256,155.792,173.133,156.061
		L173.133,156.061z"/>
</g>
<g>
	<path d="M165.187,152.014c-0.314,2.13,0.418,4.282,1.188,6.242c0.25,0.637,1.153,0.719,1.376,0
		c0.338-1.098,1.163-2.453,2.273-2.908c0.839-0.344,0.474-1.723-0.379-1.375c-1.612,0.66-2.767,2.271-3.27,3.904
		c0.458,0,0.917,0,1.376,0c-0.657-1.666-1.458-3.662-1.188-5.484C166.694,151.494,165.322,151.106,165.187,152.014L165.187,152.014z
		"/>
</g>
<g>
	<path d="M177.411,151.385c1.649,0.229,3.473,0.455,4.676,1.72c0.637,0.667,1.644-0.344,1.01-1.01
		c-1.393-1.46-3.391-1.82-5.308-2.084C176.892,149.886,176.503,151.26,177.411,151.385L177.411,151.385z"/>
</g>
<g>
	<path d="M182.063,153.501c1.131,5.332,0.999,10.99,1.901,16.402c0.15,0.906,1.524,0.52,1.376-0.379
		c-0.906-5.426-0.765-11.044-1.901-16.401C183.248,152.224,181.872,152.605,182.063,153.501L182.063,153.501z"/>
</g>
<g>
	<path d="M182.405,153.104c2.303,2.57,3.549,5.762,3.991,9.161c0.301-0.229,0.602-0.458,0.903-0.687
		c-1.029-0.175-2.043-0.186-3.083-0.236c-0.919-0.045-0.914,1.381,0,1.426c0.91,0.042,1.801,0.031,2.704,0.184
		c0.401,0.069,0.967-0.186,0.902-0.687c-0.494-3.801-1.831-7.292-4.409-10.171C182.799,151.409,181.794,152.421,182.405,153.104
		L182.405,153.104z"/>
</g>
<g>
	<path d="M186.104,162.534c0.711,2.429,1.224,4.91,1.558,7.417c0.123,0.896,1.549,0.91,1.426,0
		c-0.353-2.637-0.862-5.241-1.608-7.796C187.222,161.275,185.846,161.65,186.104,162.534L186.104,162.534z"/>
</g>
<g>
	<path d="M159.479,153.68c-0.923,5.149-1.846,10.301-2.771,15.45c-0.162,0.899,1.213,1.283,1.374,0.379
		c0.925-5.149,1.85-10.301,2.774-15.451C161.018,153.16,159.643,152.775,159.479,153.68L159.479,153.68z"/>
</g>
<g>
	<path d="M164.765,150.937c-6.715-0.165-9.5,6.537-11.543,11.854c-0.136,0.355,0.148,0.793,0.498,0.876
		c1.177,0.284,2.372,0.362,3.565,0.556c0.901,0.146,1.285-1.228,0.379-1.375c-1.188-0.193-2.392-0.275-3.565-0.555
		c0.167,0.292,0.334,0.585,0.5,0.876c1.794-4.672,4.195-10.953,10.167-10.806C165.686,152.386,165.682,150.959,164.765,150.937
		L164.765,150.937z"/>
</g>
<g>
	<path d="M154.332,163.266c-0.533,2.078-1.452,4.05-1.612,6.212c-0.067,0.917,1.359,0.912,1.426,0
		c0.148-2.015,1.062-3.893,1.56-5.833C155.937,162.753,154.559,162.375,154.332,163.266L154.332,163.266z"/>
</g>
<path d="M158.934,131.867c-0.306-0.095-0.546,0.015-0.698,0.202c-0.427-0.141-0.962,0.073-0.917,0.643
	c0.107,1.386-0.048,2.801-0.264,4.169c-0.071,0.447-0.154,1.092,0.122,1.5c0.338,0.501,0.992,0.741,1.267,1.266
	c0.338,0.639,1.33,0.331,1.33-0.36c0-0.054,0-0.106,0-0.16C162.503,138.396,161.303,132.603,158.934,131.867z"/>
<path d="M182.195,129.916c-0.18-0.758-0.747-1.352-1.396-1.907c-0.06-0.052-0.13-0.071-0.197-0.102
	c-0.003-0.019-0.009-0.039-0.015-0.058c-0.069-0.219-0.234-0.344-0.42-0.422c-0.003-0.176-0.048-0.349-0.186-0.484
	c-2.91-2.862-10.288-1.12-13.82-0.464c-0.416,0.076-0.557,0.444-0.494,0.784c-0.375,0.104-0.75,0.21-1.122,0.315
	c-0.182-0.082-0.394-0.1-0.617,0.002c-0.657,0.268-1.311,0.533-1.968,0.8c-0.253,0.089-0.39,0.273-0.45,0.479
	c-0.539,0.29-1.084,0.564-1.623,0.859c-0.715,0.394-0.227,1.52,0.55,1.304c0.117-0.033,0.234-0.063,0.349-0.095
	c2.236,2.689,7.889,2.531,11.031,2.736c2.529,0.165,5.467,0.388,7.622-0.96c-0.037,0.082-0.093,0.15-0.097,0.247
	c-0.004,0.095-0.007,0.188-0.011,0.28c-0.431,1.116-0.349,2.299,0.072,3.4c0.24,1.514,0.949,2.765,2.813,3.423
	c0.006,0.003,0.011,0.007,0.015,0.011c0,0,0-0.002,0.002-0.003c0.061,0.022,0.104,0.054,0.169,0.074
	c0.542,0.173,0.906-0.308,0.869-0.763c0.23,0.061,0.488,0.035,0.694-0.132C186.905,136.877,185.664,131.059,182.195,129.916z"/>
</svg>
