<?xml version="1.0" encoding="utf-8"?>
<!-- Generator: Adobe Illustrator 15.1.0, SVG Export Plug-In . SVG Version: 6.00 Build 0)  -->
<!DOCTYPE svg PUBLIC "-//W3C//DTD SVG 1.1//EN" "http://www.w3.org/Graphics/SVG/1.1/DTD/svg11.dtd">
<svg version="1.1" id="Layer_1" xmlns="http://www.w3.org/2000/svg" xmlns:xlink="http://www.w3.org/1999/xlink" x="0px" y="0px"
	 width="407.592px" height="338.589px" viewBox="0 0 407.592 338.589" enable-background="new 0 0 407.592 338.589"
	 xml:space="preserve">
<g>
	<path d="M295.541,102.552h-71.879c-0.655,2.065-1.258,4.14-1.993,6.171h73.872c13.608,0,24.68,11.071,24.68,24.682v109.032
		c0,13.611-11.071,24.684-24.68,24.684H112.054c-13.608,0-24.682-11.073-24.682-24.684V133.405c0-13.61,11.073-24.682,24.682-24.682
		h94.801c-0.062-2.067-0.018-4.118,0.229-6.171h-95.03c-17.012,0-30.853,13.841-30.853,30.853v109.032
		c0,17.014,13.841,30.855,30.853,30.855h183.487c17.011,0,30.851-13.841,30.851-30.855V133.405
		C326.391,116.394,312.551,102.552,295.541,102.552z"/>
</g>
<g>
	<path d="M208.659,60.106c-1.551,11.917-3.074,23.817-3.833,35.815c-0.313,4.968-3.07,18.042,1.179,22.291
		c2.935,2.937,9.581,3.343,13.184,1.726c5.722-2.567,6.497-9.48,7.345-15.047c1.64-10.76,2.521-21.616,4.233-32.357
		c0.725-4.548,3.737-14.394-1.077-17.711c-4.623-3.186-12.393-4.496-17.634-2.314c-4.088,1.701-3.634,7.939-3.568,11.398
		c0.05,2.65,4.165,2.654,4.114,0c-0.115-6.123,2.851-8.839,9.179-7.729c9.53,1.674,5.454,12.528,4.438,18.906
		c-1.515,9.508-2.368,19.167-3.65,28.711c-0.699,5.189-1.248,12.568-9.066,12.783c-7.419,0.205-4.832-12.936-4.739-16.68
		c0.323-13.321,2.294-26.6,4.01-39.792C213.114,57.48,208.996,57.514,208.659,60.106L208.659,60.106z"/>
</g>
<g>
	<path d="M215.589,70.267c-0.418,2.284-7.891,28.744-0.301,28.611c4.458-0.078,5.617-6.141,6.079-9.508
		c0.904-6.589,1.075-14.008,0.663-20.613c-0.125-2.037-2.704-2.814-3.833-1.039c-1.758,2.768-2.182,5.786-2.539,8.992
		c-0.571,5.147-1.691,10.208-2.198,15.362c-0.261,2.64,3.857,2.616,4.114,0c0.397-4.042,1.292-7.987,1.798-12.011
		c0.44-3.501,0.434-7.206,2.376-10.266c-1.277-0.346-2.555-0.693-3.833-1.039c0.273,4.379-0.137,8.779-0.227,13.162
		c-0.083,4,0.058,8.383-1.79,12.042c0.555,1.308,0.671,1.252,0.35-0.17c-0.036-0.617-0.048-1.236-0.036-1.854
		c0.002-0.984,0.084-1.969,0.161-2.949c0.479-5.95,2.113-11.77,3.185-17.626C220.031,68.766,216.067,67.659,215.589,70.267
		L215.589,70.267z"/>
</g>
<g>
	<path d="M214.659,73.214c-0.153,1.826-0.308,3.646-0.613,5.455c1.346,0.183,2.694,0.363,4.042,0.546
		c-0.008-1.728-0.412-4.677,1.002-5.957c-0.335,0.303-1.673-0.474-1.477-0.301c-0.48-0.424-0.305-0.625-0.177-0.068
		c0.072,0.317,0.032,1.239,0.008,1.766c-0.118,2.509-0.665,4.988-1.169,7.441c-0.535,2.59,3.431,3.69,3.965,1.093
		c0.751-3.643,1.969-7.903,1.113-11.608c-0.575-2.487-3.17-2.818-4.956-1.404c-2.61,2.067-2.441,6.039-2.425,9.038
		c0.008,2.256,3.644,2.889,4.04,0.546c0.368-2.17,0.576-4.355,0.759-6.547C218.997,70.568,214.878,70.59,214.659,73.214
		L214.659,73.214z"/>
</g>
<g>
	<path d="M215.075,72.667c-1.181,3.299-0.968,6.788-1.432,10.228c-0.528,3.919-1.169,7.794-1.384,11.748
		c-0.143,2.652,3.972,2.638,4.114,0c0.195-3.58,0.726-7.107,1.238-10.653c0.488-3.387,0.277-7.001,1.432-10.229
		C219.938,71.257,215.963,70.188,215.075,72.667L215.075,72.667z"/>
</g>
<g>
	<path d="M214.315,73.214c-0.892,7.371-2.149,14.691-2.571,22.114c-0.148,2.652,3.966,2.638,4.114,0
		c0.422-7.421,1.68-14.743,2.571-22.114C218.751,70.584,214.633,70.614,214.315,73.214L214.315,73.214z"/>
</g>
<g>
	<path d="M230.785,74.305c3.058-1.45,1.738,7.734,1.531,9.103c-1.048,6.893-2.443,13.739-3.525,20.632
		c-0.408,2.593,3.558,3.708,3.967,1.093c0.522-3.323,10.744-41.4-4.05-34.379C226.311,71.89,228.4,75.436,230.785,74.305
		L230.785,74.305z"/>
</g>
<g>
	<path d="M189.289,108.183c0,5.257,0,10.515,0,15.772c0,2.654,4.114,2.654,4.114,0c0-5.257,0-10.515,0-15.772
		C193.403,105.529,189.289,105.529,189.289,108.183L189.289,108.183z"/>
</g>
<g>
	<path d="M191.86,126.183c15.087,0,30.17,0,45.257,0c2.652,0,2.652-4.114,0-4.114c-15.087,0-30.17,0-45.257,0
		C189.208,122.069,189.208,126.183,191.86,126.183L191.86,126.183z"/>
</g>
<g>
	<path d="M239.174,123.785c0-5.486,0-10.971,0-16.457c0-2.654-4.114-2.654-4.114,0c0,5.486,0,10.971,0,16.457
		C235.06,126.438,239.174,126.438,239.174,123.785L239.174,123.785z"/>
</g>
<g>
	<path d="M321.998,130.729c-37.583,9.241-80.742,17.568-111.828,42.273c-8.996,7.15-19.208,16.15-20.706,28.211
		c-1.689,13.596,15.137,16.037,24.68,16.505c6.677,0.327,44.771-0.521,39.495,11.099c-4.359,9.601-23.008,12.809-32.09,15.965
		c-20.877,7.254-41.629,14.89-62.357,22.56c-2.467,0.912-1.402,4.89,1.093,3.966c20.113-7.439,40.259-14.808,60.497-21.91
		c9.41-3.3,19.177-5.792,27.882-10.77c5.539-3.168,15.72-14.044,6.169-19.25c-9.506-5.179-22.646-5.571-33.3-5.661
		c-8.578-0.074-20.853,1.135-26.528-6.678c-5.75-7.915,4.574-18.697,9.677-23.838c29.953-30.182,78.804-38.768,118.41-48.509
		C325.666,134.062,324.573,130.095,321.998,130.729L321.998,130.729z"/>
</g>
<g>
	<path d="M323.524,152.833c-10.526,1.679-111.74,17.476-86.73,48.642c13.823,17.226,46.862-0.609,60.021,17.598
		c11.636,16.102-18.783,29.32-28.977,33.501c-16.909,6.935-34.947,11.258-52.765,15.107c-2.593,0.559-1.492,4.526,1.093,3.966
		c16.963-3.663,33.784-7.976,50.06-14.048c11.157-4.163,24.75-9.633,32.154-19.499c4.817-6.417,6.676-16.513,0.619-22.966
		c-6.427-6.846-15.942-8.062-24.862-8.714c-10.258-0.753-49.516-2.975-32.824-21.656c6.971-7.803,18.412-11.885,27.948-15.248
		c17.85-6.292,36.722-9.741,55.356-12.717C327.233,156.383,326.12,152.417,323.524,152.833L323.524,152.833z"/>
</g>
<g>
	<path d="M99.566,131.328c0,17.485,0,34.971,0,52.457c0,1.991,3.085,1.991,3.085,0c0-17.485,0-34.971,0-52.457
		C102.652,129.337,99.566,129.337,99.566,131.328L99.566,131.328z"/>
</g>
<g>
	<path d="M101.624,186.013c14.171,0,28.342,0,42.513,0c1.989,0,1.989-3.085,0-3.085c-14.171,0-28.342,0-42.513,0
		C99.632,182.927,99.632,186.013,101.624,186.013L101.624,186.013z"/>
</g>
<g>
	<path d="M146.022,184.813c0-17.558,0-35.114,0-52.672c0-1.991-3.085-1.991-3.085,0c0,0.185,0,0.372,0,0.557
		c0,1.991,3.085,1.991,3.085,0c0-0.185,0-0.372,0-0.557c0-1.991-3.085-1.991-3.085,0c0,17.558,0,35.114,0,52.672
		C142.937,186.804,146.022,186.804,146.022,184.813L146.022,184.813z"/>
</g>
<g>
	<path d="M101.109,132.871c14.457,0,28.913,0,43.371,0c1.991,0,1.991-3.086,0-3.086c-14.458,0-28.914,0-43.371,0
		C99.118,129.785,99.118,132.871,101.109,132.871L101.109,132.871z"/>
</g>
<g>
	<path d="M152.538,149.157c21.483,0,42.971,0,64.454,0c2.653,0,2.653-4.114,0-4.114c-21.483,0-42.971,0-64.454,0
		C149.883,145.043,149.883,149.157,152.538,149.157L152.538,149.157z"/>
</g>
<g>
	<path d="M155.76,157.482c2.957,0.452,5.982,0.014,8.916,0.515c2.593,0.444,3.705-3.52,1.093-3.966
		c-2.957-0.506-5.96-0.064-8.916-0.514C154.259,153.121,153.144,157.084,155.76,157.482L155.76,157.482z"/>
</g>
<g>
	<path d="M153.847,170.403c-2.68,4.478-2.033,13.498,4.94,12.958c5.301-0.41,8.546-6.902,10.955-10.88
		c1.378-2.276-2.182-4.343-3.552-2.077c-1.736,2.863-3.387,5.822-5.962,8.026c-1.129,0.966-2.913,1.306-3.568-0.386
		c-0.663-1.709-0.173-4.04,0.739-5.563C158.765,170.199,155.205,168.129,153.847,170.403L153.847,170.403z"/>
</g>
<g>
	<path d="M170.396,164.487c-7.147-1.021-8.503,12.289-4.536,16.172c6.979,6.828,14.713-7.881,17.767-12.293
		c-1.186-0.693-2.369-1.384-3.552-2.077c-1.565,2.913-3.104,6.573-1.752,9.813c1.181,2.833,3.861,3.152,6.292,1.804
		c1.43-0.793,2.535-2.356,3.596-3.562c1.34-1.524-0.771-1.281,1.241,0.101c3.747,2.576,6.748-0.267,9.623-2.748
		c2.013-1.736-0.912-4.633-2.909-2.909c-1.157,1.216-2.62,1.9-4.387,2.053c-0.366-0.588-0.44-0.938-0.971-1.406
		c-0.51-0.45-1.312-0.808-2.001-0.528c-1.741,0.701-2.963,1.913-4.2,3.317c-3.379,3.841-2.158-1.664-0.98-3.857
		c1.27-2.364-2.057-4.239-3.552-2.077c-2.282,3.295-4.291,6.712-7.013,9.679c-7.156,7.798-4.707-7.65-3.759-7.516
		C171.897,168.824,173.016,164.861,170.396,164.487L170.396,164.487z"/>
</g>
<g>
	<path d="M110,152.283c0.02-1.449-0.954-2.439-2.371-2.567c-1.364-0.123-2.334,1.099-2.676,2.266
		c-0.695,2.377,1.095,5.348,3.773,4.323c0.92-0.352,0.522-1.842-0.41-1.486c-1.248,0.476-1.89-0.454-1.957-1.637
		c-0.032-0.587,0.128-1.195,0.522-1.637c0.651-0.739,1.585-0.057,1.575,0.739C108.446,153.279,109.988,153.277,110,152.283
		L110,152.283z"/>
</g>
<g>
	<path d="M134.772,152.283c-0.01-0.751,0.591-1.252,1.324-0.916c0.577,0.263,0.746,1.048,0.775,1.613
		c0.064,1.238-0.659,2.334-1.958,1.838c-0.93-0.355-1.33,1.135-0.41,1.486c2.716,1.039,4.205-1.802,3.819-4.128
		c-0.203-1.218-1.204-2.403-2.499-2.453c-1.507-0.056-2.614,1.065-2.594,2.56C133.244,153.277,134.787,153.279,134.772,152.283
		L134.772,152.283z"/>
</g>
<g>
	<path d="M108.165,156.345c1.229,4.715,6.661,7.893,11.306,8.315c7.638,0.691,12.042-1.738,15.947-8.066
		c0.522-0.85-0.812-1.624-1.334-0.78c-2.798,4.536-5.364,6.853-10.904,7.449c-4.912,0.528-12.118-1.933-13.528-7.329
		C109.402,154.973,107.911,155.381,108.165,156.345L108.165,156.345z"/>
</g>
<g>
	<path d="M110.282,152.801c1.467-2.041,2.592-4.381,2.7-6.933c0.09-2.186-2.005-3.777-3.749-4.603
		c-4.841-2.29-2.555,6.463-3.318,8.69c-0.324,0.944,1.167,1.346,1.486,0.41c0.37-1.077,0.362-2.192,0.333-3.319
		c-0.016-0.573-0.522-5.004,0.719-4.448c1.836,0.822,3.249,2.107,2.875,4.293c-0.324,1.896-1.272,3.59-2.381,5.129
		C108.365,152.832,109.705,153.601,110.282,152.801L110.282,152.801z"/>
</g>
<g>
	<path d="M110.74,143.187c5.938,5.117,17.025,5.418,22.821,0.064c0.731-0.677-0.361-1.766-1.093-1.093
		c-5.095,4.709-15.376,4.472-20.636-0.064C111.082,141.449,109.984,142.536,110.74,143.187L110.74,143.187z"/>
</g>
<g>
	<path d="M110.189,142.279c2.816,1.577,6.081,1.768,9.233,2.182c4.56,0.601,8.888,0.868,13.219-0.884
		c0.91-0.367,0.514-1.86-0.41-1.486c-3.234,1.308-6.428,1.446-9.863,1.183c-3.564-0.273-8.201-0.536-11.399-2.328
		C110.099,140.458,109.322,141.792,110.189,142.279L110.189,142.279z"/>
</g>
<g>
	<path d="M111.033,140.495c-1.366-0.659,5.259-3.12,4.612-2.905c1.607-0.537,3.347-0.735,5.012-1.013
		c2.296-0.381,4.559-0.579,6.885-0.583c4.488-0.01,7.791,3.592,3.961,7.063c-0.737,0.671,0.358,1.758,1.093,1.093
		c1.989-1.806,2.764-4.406,1.732-6.929c-1.352-3.301-6.899-2.841-9.639-2.69c-4.693,0.257-9.295,1.288-13.552,3.254
		c-1.585,0.733-2.869,3.082-0.884,4.042C111.146,142.258,111.929,140.929,111.033,140.495L111.033,140.495z"/>
</g>
<g>
	<path d="M118.615,164.63c1.111,1.609,2.573,2.933,3.685,4.542c0.562,0.812,1.9,0.042,1.332-0.779
		c-1.111-1.609-2.573-2.933-3.686-4.542C119.384,163.039,118.046,163.808,118.615,164.63L118.615,164.63z"/>
</g>
<g>
	<path d="M122.452,169.126c0,4.857,0,9.713,0,14.57c0,0.995,1.543,0.995,1.543,0c0-4.857,0-9.713,0-14.57
		C123.995,168.131,122.452,168.131,122.452,169.126L122.452,169.126z"/>
</g>
<g>
	<path d="M126.072,163.593c-1.237,1.77-2.447,3.56-3.431,5.486c-0.45,0.884,0.88,1.666,1.334,0.779
		c0.984-1.926,2.19-3.716,3.427-5.486C127.974,163.555,126.636,162.786,126.072,163.593L126.072,163.593z"/>
</g>
<g>
	<path d="M124.561,168.413c1.093,0.337,1.788,1.169,2.66,1.858c0.422,0.337,1.145,0.281,1.29-0.34
		c0.52-2.252,1.024-4.49,1.141-6.806c0.048-0.994-1.495-0.99-1.543,0c-0.11,2.178-0.597,4.279-1.089,6.396
		c0.43-0.114,0.86-0.227,1.29-0.339c-1.099-0.874-1.959-1.832-3.339-2.256C124.017,166.633,123.613,168.121,124.561,168.413
		L124.561,168.413z"/>
</g>
<g>
	<path d="M115.963,164.035c-0.337,2.304,0.452,4.633,1.286,6.752c0.273,0.689,1.25,0.777,1.491,0
		c0.366-1.187,1.258-2.654,2.459-3.146c0.908-0.372,0.51-1.864-0.41-1.486c-1.744,0.713-2.994,2.457-3.54,4.223
		c0.499,0,0.993,0,1.491,0c-0.711-1.802-1.579-3.962-1.286-5.933C117.594,163.473,116.11,163.053,115.963,164.035L115.963,164.035z"
		/>
</g>
<g>
	<path d="M129.19,163.354c1.782,0.247,3.754,0.492,5.058,1.86c0.687,0.721,1.776-0.372,1.091-1.093
		c-1.506-1.579-3.666-1.969-5.739-2.254C128.627,161.733,128.206,163.22,129.19,163.354L129.19,163.354z"/>
</g>
<g>
	<path d="M134.22,165.645c1.225,5.768,1.081,11.889,2.057,17.743c0.165,0.98,1.651,0.562,1.491-0.41
		c-0.98-5.868-0.828-11.947-2.058-17.743C135.501,164.262,134.015,164.674,134.22,165.645L134.22,165.645z"/>
</g>
<g>
	<path d="M134.59,165.214c2.491,2.78,3.841,6.234,4.319,9.91c0.326-0.247,0.651-0.496,0.977-0.744
		c-1.113-0.188-2.21-0.201-3.335-0.255c-0.996-0.048-0.99,1.495,0,1.543c0.984,0.046,1.949,0.034,2.925,0.199
		c0.434,0.074,1.045-0.201,0.977-0.743c-0.534-4.11-1.981-7.889-4.769-11.003C135.016,163.38,133.929,164.475,134.59,165.214
		L134.59,165.214z"/>
</g>
<g>
	<path d="M138.591,175.416c0.77,2.628,1.324,5.312,1.688,8.024c0.131,0.97,1.676,0.984,1.543,0c-0.382-2.853-0.932-5.669-1.74-8.434
		C139.801,174.054,138.314,174.459,138.591,175.416L138.591,175.416z"/>
</g>
<g>
	<path d="M109.792,165.837c-1,5.57-1.999,11.143-2.999,16.714c-0.175,0.972,1.312,1.388,1.488,0.41c1-5.57,1.999-11.143,3-16.714
		C111.455,165.275,109.968,164.859,109.792,165.837L109.792,165.837z"/>
</g>
<g>
	<path d="M115.509,162.87c-7.264-0.179-10.279,7.071-12.487,12.823c-0.148,0.384,0.159,0.858,0.539,0.948
		c1.273,0.308,2.563,0.392,3.857,0.601c0.972,0.159,1.39-1.328,0.41-1.486c-1.286-0.209-2.589-0.297-3.857-0.601
		c0.181,0.315,0.36,0.633,0.539,0.948c1.94-5.054,4.54-11.849,11-11.689C116.503,164.437,116.501,162.894,115.509,162.87
		L115.509,162.87z"/>
</g>
<g>
	<path d="M104.221,176.207c-0.577,2.248-1.571,4.382-1.742,6.72c-0.072,0.992,1.471,0.986,1.543,0
		c0.161-2.18,1.149-4.211,1.688-6.31C105.957,175.653,104.468,175.243,104.221,176.207L104.221,176.207z"/>
</g>
<path d="M109.199,142.24c-0.331-0.102-0.588,0.016-0.753,0.219c-0.464-0.153-1.043,0.078-0.995,0.695
	c0.119,1.499-0.05,3.03-0.283,4.51c-0.076,0.484-0.169,1.181,0.132,1.623c0.366,0.542,1.071,0.802,1.37,1.37
	c0.366,0.691,1.438,0.358,1.438-0.39c0-0.058-0.002-0.115-0.002-0.173C113.062,149.304,111.762,143.036,109.199,142.24z"/>
<path d="M134.363,140.129c-0.195-0.819-0.808-1.462-1.509-2.063c-0.066-0.056-0.141-0.076-0.213-0.11
	c-0.006-0.02-0.012-0.042-0.016-0.062c-0.076-0.237-0.255-0.372-0.456-0.456c-0.002-0.191-0.052-0.377-0.201-0.524
	c-3.148-3.096-11.127-1.211-14.951-0.502c-0.448,0.083-0.603,0.48-0.534,0.848c-0.404,0.112-0.81,0.227-1.213,0.341
	c-0.195-0.088-0.424-0.108-0.665,0.002c-0.711,0.289-1.42,0.576-2.129,0.866c-0.275,0.096-0.422,0.295-0.486,0.518
	c-0.583,0.313-1.173,0.611-1.756,0.93c-0.775,0.426-0.245,1.644,0.595,1.41c0.125-0.036,0.251-0.068,0.378-0.102
	c2.417,2.909,8.532,2.738,11.931,2.959c2.738,0.179,5.917,0.42,8.247-1.039c-0.04,0.088-0.1,0.163-0.104,0.267
	c-0.004,0.103-0.008,0.203-0.012,0.303c-0.466,1.208-0.38,2.487,0.076,3.679c0.259,1.637,1.028,2.991,3.045,3.702
	c0.004,0.004,0.01,0.008,0.016,0.012c0-0.002,0-0.002,0-0.004c0.068,0.024,0.112,0.058,0.185,0.08
	c0.586,0.187,0.98-0.333,0.94-0.826c0.247,0.066,0.526,0.038,0.751-0.143C139.459,147.661,138.117,141.367,134.363,140.129z"/>
</svg>
