<?xml version="1.0" encoding="utf-8"?>
<!-- Generator: Adobe Illustrator 15.1.0, SVG Export Plug-In . SVG Version: 6.00 Build 0)  -->
<!DOCTYPE svg PUBLIC "-//W3C//DTD SVG 1.1//EN" "http://www.w3.org/Graphics/SVG/1.1/DTD/svg11.dtd">
<svg version="1.1" id="Layer_1" xmlns="http://www.w3.org/2000/svg" xmlns:xlink="http://www.w3.org/1999/xlink" x="0px" y="0px"
	 width="407.592px" height="338.589px" viewBox="0 0 407.592 338.589" enable-background="new 0 0 407.592 338.589"
	 xml:space="preserve">
<g>
	<g>
		<path d="M142.113,83.082c16.675,14.011,38.137,16.733,59.267,17.237c21.384,0.51,42.131-5.23,58.622-19.084
			c3.653-3.068-1.602-8.267-5.223-5.223c-15.266,12.824-33.861,16.833-53.398,16.92c-18.722,0.083-39.306-2.691-54.043-15.073
			C143.715,74.815,138.46,80.014,142.113,83.082L142.113,83.082z"/>
	</g>
	<g>
		<path d="M243.362,85.952c-2.403,8.955-2.951,16.942,3.234,24.491c6.229,7.604,14.661,13.197,23.397,17.545
			c4.25,2.115,7.994-4.257,3.728-6.38c-5.784-2.877-11.221-6.268-16.178-10.426c-7.958-6.675-9.749-13.234-7.058-23.264
			C251.722,83.308,244.596,81.355,243.362,85.952L243.362,85.952z"/>
	</g>
	<g>
		<path d="M263.181,68.333c9.259,1.435,12.419,13.65,13.294,21.68c1.193,10.937-1.763,23.684-8.114,32.613
			c-2.771,3.891,3.641,7.576,6.378,3.728c10.577-14.865,17.077-61.015-9.596-65.144C260.485,60.487,258.482,67.606,263.181,68.333
			L263.181,68.333z"/>
	</g>
	<g>
		<path d="M135.973,72.407c-5.245-26.158,61.606-33.9,77.376-35.619c17.659-1.925,66.147-4.621,46.393,28.273
			c-2.46,4.094,3.929,7.807,6.378,3.728c5.914-9.846,7.489-27.222-3.454-34.627c-12.698-8.593-30.234-6.249-44.63-5.186
			c-21.971,1.621-44.587,6.333-65.045,14.559c-13.364,5.374-27.349,14.838-24.141,30.837
			C129.786,79.041,136.906,77.06,135.973,72.407L135.973,72.407z"/>
	</g>
	<g>
		<path d="M133.085,70.443c-7.787-2.782-17.2-5.1-22.236,3.225c-3.131,5.18-1.693,13.687-1.296,19.285
			c0.627,8.9,2.056,17.674,2.234,26.61c0.096,4.758,7.484,4.767,7.388,0c-0.2-10.025-1.763-19.922-2.467-29.913
			c-0.265-3.746-1.944-13.826,3.934-14.519c3.439-0.407,7.304,1.3,10.48,2.435C135.62,79.175,137.539,72.034,133.085,70.443
			L133.085,70.443z"/>
	</g>
	<g>
		<path d="M141.031,83.24c-1.695,15.157-3.843,31.905-14.617,43.562c1.934,0.249,3.867,0.498,5.801,0.748
			c-6.301-12.876-23.244-9.811-25.835,3.652c-2.104,10.928,10.035,26.138,21.125,18.949c3.98-2.582,0.281-8.98-3.728-6.38
			c-4.125,0.839-6.905-0.597-8.338-4.309c-0.538-1.316-1.077-2.632-1.616-3.948c-1.409-7.615,2.598-9.027,12.015-4.235
			c1.029,2.105,4.262,2.414,5.801,0.748c12.256-13.261,14.848-31.493,16.782-48.786C148.948,78.51,141.555,78.56,141.031,83.24
			L141.031,83.24z"/>
	</g>
	<g>
		<path d="M268.529,132.361c4.377-1.651,6.412,0.104,5.467,4.814c-1.094,5.453-5.852,8.707-11.315,7.763
			c-4.656-0.806-6.652,6.313-1.962,7.123c9.783,1.691,18.978-3.861,20.601-14.014c1.489-9.323-5.469-16.314-14.751-12.81
			C262.151,126.902,264.066,134.046,268.529,132.361L268.529,132.361z"/>
	</g>
	<g>
		<path d="M121.462,151.021c16.981,62.885,126.948,59.523,144.723-1.539c1.334-4.585-5.793-6.529-7.124-1.965
			c-15.73,54.031-115.434,57.246-130.476,1.539C127.345,144.462,120.219,146.415,121.462,151.021L121.462,151.021z"/>
	</g>
	<g>
		<path d="M180.322,198.693c3.944,5.547,9.526,8.48,14.506,12.95c5.248,4.706,7.263,13.963,8.208,20.645
			c0.519,3.675,6.373,3.396,7.123,0c3.446-15.588,10.914-29.154,17.789-43.446c2.057-4.271-4.314-8.02-6.377-3.728
			c-7.167,14.894-14.944,28.969-18.535,45.208c2.373,0,4.749,0,7.123,0c-0.994-7.014-3.391-13.853-6.972-19.964
			c-3.939-6.728-12.043-9.149-16.488-15.394C183.963,191.119,177.552,194.802,180.322,198.693L180.322,198.693z"/>
	</g>
	<g>
		<path d="M212.39,217.629c4.261,1.143,7.099,4.417,10.507,7.016c1.691,1.291,4.016,0.166,5.052-1.326
			c8.67-12.462,14.945-25.498,17.304-40.591c0.728-4.66-6.39-6.661-7.124-1.965c-2.266,14.497-8.235,26.862-16.558,38.828
			c1.683-0.442,3.367-0.883,5.052-1.326c-4.134-3.154-7.106-6.375-12.272-7.759C209.744,209.27,207.792,216.396,212.39,217.629
			L212.39,217.629z"/>
	</g>
	<g>
		<path d="M195.192,208.107c-7.01,3.553-11.801,9.056-17.063,14.738c1.742,0,3.482,0,5.224,0
			c-7.628-8.155-15.855-19.69-13.826-31.498c0.801-4.658-6.318-6.653-7.124-1.965c-2.537,14.752,6.015,28.308,15.726,38.687
			c1.337,1.43,3.889,1.442,5.224,0c4.824-5.209,9.12-10.314,15.567-13.582C203.169,212.332,199.432,205.959,195.192,208.107
			L195.192,208.107z"/>
	</g>
	<g>
		<path d="M209.677,303.953c0-24.523,0-49.047,0-73.571c0-4.764-7.388-4.764-7.388,0c0,24.524,0,49.047,0,73.571
			C202.289,308.718,209.677,308.718,209.677,303.953L209.677,303.953z"/>
	</g>
	<g>
		<path d="M241.674,190.168c6.369,3.838,16.205,3.743,20.839,10.064c2.785,3.8,9.201,0.12,6.378-3.728
			c-6.008-8.195-15.454-7.874-23.489-12.716C241.311,181.323,237.598,187.713,241.674,190.168L241.674,190.168z"/>
	</g>
	<g>
		<path d="M263.371,199.966c6.025,35,8.15,71.315,10.334,106.758c0.293,4.73,7.682,4.76,7.388,0
			c-2.227-36.128-4.456-73.036-10.598-108.723C269.689,193.313,262.57,195.308,263.371,199.966L263.371,199.966z"/>
	</g>
	<g>
		<path d="M159.135,185.572c-10.048,2.258-20.615,2.328-27.796,10.8c-3.059,3.61,2.14,8.863,5.223,5.224
			c6.176-7.285,15.906-6.961,24.535-8.901C165.746,191.651,163.774,184.528,159.135,185.572L159.135,185.572z"/>
	</g>
	<g>
		<path d="M131.005,197.693c-6.167,36.116-7.501,72.692-11.784,109.031c-0.555,4.725,6.837,4.671,7.388,0
			c4.206-35.68,5.466-71.605,11.52-107.066C138.924,194.999,131.806,193.005,131.005,197.693L131.005,197.693z"/>
	</g>
	<g>
		<path d="M264.014,200.057c15.044,13.129,20.588,32.476,22.928,51.566c0.573,4.665,7.965,4.722,7.388,0
			c-2.578-21.028-8.484-42.294-25.093-56.79C265.663,191.715,260.416,196.918,264.014,200.057L264.014,200.057z"/>
	</g>
	<g>
		<path d="M291.559,249.775c-5.132,0-10.259,0-15.392,0c-4.764,0-4.764,7.388,0,7.388c5.132,0,10.259,0,15.392,0
			C296.323,257.164,296.323,249.775,291.559,249.775L291.559,249.775z"/>
	</g>
	<g>
		<path d="M129.846,198.065c-16.611,14.496-22.518,35.762-25.093,56.789c-0.58,4.723,6.815,4.666,7.388,0
			c2.34-19.09,7.886-38.436,22.929-51.566C138.665,200.15,133.417,194.947,129.846,198.065L129.846,198.065z"/>
	</g>
	<g>
		<path d="M107.523,260.396c5.13,0,10.262,0,15.391,0c4.764,0,4.764-7.388,0-7.388c-5.129,0-10.261,0-15.391,0
			C102.759,253.008,102.759,260.396,107.523,260.396L107.523,260.396z"/>
	</g>
	<g>
		<path d="M107.302,257.72c-2.771,16.007-5.541,32.014-8.311,48.021c-0.806,4.659,6.313,6.652,7.123,1.966
			c2.771-16.008,5.541-32.015,8.312-48.022C115.231,255.027,108.112,253.033,107.302,257.72L107.302,257.72z"/>
	</g>
	<g>
		<path d="M285.535,255.837c2.922,17.289,5.846,34.579,8.771,51.87c0.793,4.688,7.912,2.694,7.123-1.966
			c-2.924-17.289-5.846-34.579-8.771-51.869C291.867,249.183,284.748,251.178,285.535,255.837L285.535,255.837z"/>
	</g>
	<g>
		<path d="M102.552,310.725c65.106-0.006,130.212-0.3,195.315-0.307c4.764,0,4.764-7.389,0-7.389
			c-65.103,0.009-130.209,0.301-195.315,0.309C97.789,303.338,97.789,310.725,102.552,310.725L102.552,310.725z"/>
	</g>
	<path d="M269.9,67.141c-1.943-1.683-4.416-2.169-6.667-1.753c5.19-9.685,3.449-21.774-6.866-28.385
		c-12.051-7.723-33.272-3.752-46.638-3.011c-18.364,1.016-36.483,3.985-53.452,11.247c-9.379,4.015-29.496,16.304-21.933,29.214
		c0.185,0.319,0.39,0.603,0.594,0.89c-3.672-0.723-7.246-2.327-11.043-2.156c-5.688,0.256-9.305,5.354-10.094,10.55
		c-0.877,5.769,0.231,11.585,1.236,17.271c0.693,3.898,0.44,7.304,0.404,11.34c-0.036,4.076,0.529,10.807,4.968,12.747
		c5.642,2.464,10.036,0.178,13.634-4.411c6.825-8.703,7.222-20.949,7.991-31.863c2.222-2.091,2.65-5.792,1.309-8.761
		c0.808,0.818,1.844,1.498,3.212,1.891c34.853,9.996,77.01,12.004,108.063-10.524c-1.107,2.693-3.307,10.119-3.555,12.918
		c-2.107,5.585-3.583,11.592-2.876,17.461c0.856,7.12,5.64,11.724,11.793,12.608c0.392,0.641,0.784,1.281,1.188,1.902
		c3.55,5.493,11.457,4.388,13.501-1.765C278.823,102.072,281.025,76.792,269.9,67.141z"/>
</g>
</svg>
