<?xml version="1.0" encoding="utf-8"?>
<!-- Generator: Adobe Illustrator 15.1.0, SVG Export Plug-In . SVG Version: 6.00 Build 0)  -->
<!DOCTYPE svg PUBLIC "-//W3C//DTD SVG 1.1//EN" "http://www.w3.org/Graphics/SVG/1.1/DTD/svg11.dtd">
<svg version="1.1" id="Layer_1" xmlns="http://www.w3.org/2000/svg" xmlns:xlink="http://www.w3.org/1999/xlink" x="0px" y="0px"
	 width="407.592px" height="338.589px" viewBox="0 0 407.592 338.589" enable-background="new 0 0 407.592 338.589"
	 xml:space="preserve">
<g>
	<g>
		<path d="M151.3,97.297c16.12,13.544,36.865,16.175,57.29,16.662c20.671,0.493,40.727-5.056,56.667-18.448
			c3.532-2.966-1.548-7.991-5.049-5.049c-14.757,12.396-32.732,16.272-51.618,16.355c-18.098,0.08-37.995-2.602-52.241-14.57
			C152.849,89.306,147.769,94.331,151.3,97.297L151.3,97.297z"/>
	</g>
	<g>
		<path d="M249.172,100.071c-2.323,8.656-2.852,16.376,3.127,23.674c6.02,7.35,14.171,12.756,22.616,16.959
			c4.108,2.044,7.728-4.115,3.603-6.167c-5.591-2.782-10.847-6.06-15.638-10.079c-7.693-6.452-9.424-12.793-6.823-22.488
			C257.253,97.515,250.365,95.627,249.172,100.071L249.172,100.071z"/>
	</g>
	<g>
		<path d="M268.331,83.04c8.95,1.387,12.004,13.194,12.851,20.957c1.153,10.573-1.705,22.894-7.844,31.525
			c-2.678,3.761,3.52,7.323,6.166,3.604c10.224-14.369,16.508-58.98-9.276-62.971C265.725,75.456,263.788,82.337,268.331,83.04
			L268.331,83.04z"/>
	</g>
	<g>
		<path d="M145.365,86.979c-5.07-25.287,59.552-32.771,74.795-34.432c17.07-1.861,63.94-4.466,44.846,27.33
			c-2.378,3.958,3.799,7.546,6.166,3.604c5.716-9.518,7.238-26.315-3.339-33.473c-12.274-8.307-29.226-6.04-43.142-5.012
			c-21.238,1.566-43.099,6.122-62.876,14.073c-12.917,5.194-26.437,14.344-23.335,29.808
			C139.384,93.392,146.267,91.476,145.365,86.979L145.365,86.979z"/>
	</g>
	<g>
		<path d="M142.573,85.081c-7.527-2.689-16.626-4.931-21.494,3.117c-3.027,5.008-1.637,13.23-1.253,18.642
			c0.607,8.603,1.988,17.084,2.16,25.723c0.093,4.599,7.234,4.608,7.141,0c-0.192-9.69-1.704-19.258-2.385-28.915
			c-0.255-3.622-1.878-13.365,3.804-14.035c3.325-0.394,7.06,1.256,10.131,2.354C145.023,93.521,146.879,86.618,142.573,85.081
			L142.573,85.081z"/>
	</g>
	<g>
		<path d="M150.253,97.451c-1.638,14.65-3.714,30.84-14.128,42.109c1.868,0.241,3.738,0.481,5.606,0.723
			c-6.09-12.446-22.468-9.483-24.974,3.531c-2.034,10.563,9.701,25.266,20.42,18.316c3.848-2.495,0.272-8.68-3.603-6.167
			c-3.986,0.811-6.674-0.577-8.06-4.165c-0.52-1.272-1.042-2.544-1.562-3.817c-1.363-7.361,2.51-8.726,11.614-4.094
			c0.995,2.035,4.12,2.333,5.607,0.723c11.847-12.818,14.353-30.443,16.222-47.158C157.907,92.877,150.761,92.926,150.253,97.451
			L150.253,97.451z"/>
	</g>
	<g>
		<path d="M273.5,144.932c4.231-1.596,6.198,0.1,5.284,4.654c-1.058,5.271-5.656,8.417-10.938,7.504
			c-4.501-0.778-6.43,6.103-1.897,6.886c9.458,1.634,18.345-3.732,19.914-13.547c1.439-9.012-5.287-15.77-14.26-12.383
			C267.336,139.656,269.186,146.562,273.5,144.932L273.5,144.932z"/>
	</g>
	<g>
		<path d="M131.338,162.971c16.415,60.787,122.714,57.537,139.896-1.488c1.29-4.433-5.601-6.312-6.886-1.9
			c-15.207,52.229-111.583,55.337-126.125,1.488C137.024,156.63,130.136,158.518,131.338,162.971L131.338,162.971z"/>
	</g>
	<g>
		<path d="M188.235,209.052c3.812,5.364,9.208,8.198,14.022,12.52c5.072,4.548,7.021,13.497,7.934,19.956
			c0.502,3.552,6.161,3.282,6.886,0c3.332-15.069,10.549-28.183,17.195-41.997c1.988-4.129-4.17-7.754-6.165-3.604
			c-6.928,14.396-14.446,28.001-17.917,43.701c2.294,0,4.591,0,6.886,0c-0.96-6.78-3.278-13.392-6.739-19.299
			c-3.808-6.503-11.643-8.844-15.938-14.88C191.754,201.73,185.557,205.291,188.235,209.052L188.235,209.052z"/>
	</g>
	<g>
		<path d="M219.232,227.357c4.119,1.105,6.862,4.27,10.157,6.783c1.634,1.247,3.882,0.16,4.883-1.283
			c8.381-12.046,14.446-24.647,16.727-39.237c0.705-4.504-6.177-6.438-6.886-1.899c-2.189,14.013-7.96,25.965-16.005,37.533
			c1.627-0.428,3.255-0.854,4.885-1.283c-3.997-3.048-6.871-6.163-11.864-7.5C216.675,219.276,214.788,226.166,219.232,227.357
			L219.232,227.357z"/>
	</g>
	<g>
		<path d="M202.609,218.153c-6.777,3.435-11.408,8.753-16.494,14.247c1.683,0,3.366,0,5.049,0
			c-7.374-7.883-15.326-19.034-13.364-30.448c0.773-4.503-6.107-6.432-6.886-1.899c-2.453,14.261,5.813,27.364,15.201,37.396
			c1.292,1.383,3.759,1.394,5.049,0c4.663-5.035,8.815-9.971,15.048-13.128C210.32,222.236,206.707,216.076,202.609,218.153
			L202.609,218.153z"/>
	</g>
	<g>
		<path d="M216.61,310.802c0-23.706,0-47.411,0-71.117c0-4.605-7.141-4.605-7.141,0c0,23.706,0,47.411,0,71.117
			C209.469,315.407,216.61,315.407,216.61,310.802L216.61,310.802z"/>
	</g>
	<g>
		<path d="M247.541,200.812c6.155,3.71,15.664,3.619,20.143,9.728c2.692,3.673,8.895,0.117,6.165-3.604
			c-5.807-7.921-14.938-7.611-22.706-12.292C247.189,192.262,243.601,198.439,247.541,200.812L247.541,200.812z"/>
	</g>
	<g>
		<path d="M268.514,210.283c5.823,33.833,7.878,68.937,9.989,103.197c0.284,4.573,7.426,4.602,7.142,0
			c-2.152-34.923-4.308-70.599-10.245-105.097C274.621,203.852,267.74,205.78,268.514,210.283L268.514,210.283z"/>
	</g>
	<g>
		<path d="M167.754,196.369c-9.712,2.182-19.928,2.25-26.869,10.439c-2.957,3.49,2.069,8.568,5.05,5.05
			c5.97-7.042,15.375-6.729,23.717-8.604C174.145,202.246,172.239,195.36,167.754,196.369L167.754,196.369z"/>
	</g>
	<g>
		<path d="M140.562,208.086c-5.961,34.911-7.25,70.268-11.391,105.394c-0.537,4.568,6.609,4.516,7.142,0
			c4.066-34.489,5.284-69.218,11.135-103.495C148.218,205.481,141.336,203.554,140.562,208.086L140.562,208.086z"/>
	</g>
	<g>
		<path d="M269.134,210.37c14.544,12.692,19.902,31.393,22.164,49.847c0.554,4.51,7.7,4.564,7.142,0
			c-2.492-20.326-8.201-40.883-24.256-54.896C270.729,202.307,265.657,207.337,269.134,210.37L269.134,210.37z"/>
	</g>
	<g>
		<path d="M295.762,258.431c-4.96,0-9.917,0-14.878,0c-4.605,0-4.605,7.142,0,7.142c4.96,0,9.917,0,14.878,0
			C300.367,265.573,300.367,258.431,295.762,258.431L295.762,258.431z"/>
	</g>
	<g>
		<path d="M139.442,208.445c-16.057,14.012-21.766,34.569-24.256,54.896c-0.56,4.564,6.589,4.51,7.142,0
			c2.262-18.454,7.622-37.154,22.164-49.846C147.967,210.46,142.894,205.432,139.442,208.445L139.442,208.445z"/>
	</g>
	<g>
		<path d="M117.864,268.697c4.958,0,9.92,0,14.878,0c4.605,0,4.605-7.142,0-7.142c-4.958,0-9.92,0-14.878,0
			C113.259,261.555,113.259,268.697,117.864,268.697L117.864,268.697z"/>
	</g>
	<g>
		<path d="M117.65,266.111c-2.678,15.474-5.356,30.946-8.034,46.42c-0.778,4.502,6.103,6.43,6.886,1.898
			c2.678-15.473,5.356-30.946,8.034-46.419C125.315,263.507,118.434,261.58,117.65,266.111L117.65,266.111z"/>
	</g>
	<g>
		<path d="M289.938,264.291c2.824,16.712,5.651,33.425,8.479,50.139c0.767,4.533,7.648,2.605,6.886-1.898
			c-2.827-16.713-5.651-33.426-8.479-50.14C296.06,257.858,289.179,259.787,289.938,264.291L289.938,264.291z"/>
	</g>
	<g>
		<path d="M113.059,317.349c62.934-0.008,125.868-0.291,188.801-0.298c4.605,0,4.605-7.141,0-7.141
			c-62.933,0.007-125.867,0.29-188.801,0.297C108.454,310.207,108.454,317.349,113.059,317.349L113.059,317.349z"/>
	</g>
	<g>
		<path d="M187.691,151.14c-8.067,3.369-15.699,11.72-18.166,20.148c-1.297,4.431,5.594,6.309,6.886,1.899
			c1.695-5.793,7.539-12.805,13.176-15.161C193.772,156.277,191.938,149.364,187.691,151.14L187.691,151.14z"/>
	</g>
	<g>
		<path d="M173.761,176.602c18.384,0,36.766,0,55.147,0c4.607,0,4.607-7.141,0-7.141c-18.381,0-36.763,0-55.147,0
			C169.156,169.46,169.156,176.602,173.761,176.602L173.761,176.602z"/>
	</g>
	<g>
		<path d="M234.761,173.031c0.328-9.706-8.713-19.838-17.797-22.289c-4.452-1.202-6.34,5.688-1.897,6.886
			c6.114,1.649,12.777,8.833,12.554,15.403C227.464,177.638,234.606,177.624,234.761,173.031L234.761,173.031z"/>
	</g>
	<g>
		<path d="M190.225,157.756c8.597,0,17.194,0,25.791,0c4.605,0,4.605-7.141,0-7.141c-8.597,0-17.193,0-25.791,0
			C185.622,150.615,185.622,157.756,190.225,157.756L190.225,157.756z"/>
	</g>
	<path d="M227.697,165.308c-0.179-0.397-0.44-0.786-0.825-1.149c-2.413-2.281-5.212-4.044-8.062-5.718
		c-0.81-0.474-1.726-0.52-2.582-0.288c-0.411-0.204-0.864-0.358-1.403-0.396c-0.684-0.05-1.367-0.099-2.051-0.148
		c-6.897-1.583-13.89-2.338-21.006-2.222c-0.4-0.076-0.842-0.063-1.312,0.036c-0.446,0.061-0.85,0.2-1.213,0.408
		c-4.705,1.657-8.68,4.435-12.256,7.931c-2.208,2.161-0.583,6.148,2.525,6.095c0.679-0.011,1.353-0.059,2.032-0.077
		c0.256,0.312,0.548,0.591,0.927,0.781c4.554,2.282,9.317,2.146,14.323,1.898c8.027-0.399,15.975,0.571,23.981,1.168
		c1.302,0.098,2.274-0.56,2.859-1.503c0.305-0.027,0.605-0.044,0.911-0.083c0.479-0.062,0.926-0.235,1.352-0.451
		C229.08,171.35,230.01,167.247,227.697,165.308z"/>
	<path d="M274.825,81.887c-1.877-1.626-4.268-2.097-6.444-1.694c5.017-9.362,3.334-21.048-6.637-27.439
		c-11.649-7.466-32.163-3.627-45.083-2.911c-17.752,0.982-35.266,3.852-51.669,10.872c-9.066,3.881-28.512,15.76-21.201,28.239
		c0.179,0.309,0.376,0.583,0.574,0.861c-3.55-0.699-7.004-2.249-10.675-2.084c-5.498,0.247-8.995,5.174-9.757,10.198
		c-0.849,5.576,0.223,11.198,1.195,16.695c0.669,3.768,0.425,7.06,0.39,10.962c-0.035,3.94,0.512,10.447,4.803,12.322
		c5.454,2.381,9.702,0.171,13.179-4.263c6.598-8.414,6.981-20.251,7.726-30.8c2.147-2.021,2.561-5.599,1.265-8.469
		c0.78,0.792,1.783,1.448,3.105,1.828c33.689,9.663,72.933,16.109,102.952-5.667c-1.071,2.604-1.69,5.275-1.929,7.981
		c-2.037,5.399-3.464,11.205-2.78,16.879c0.828,6.882,5.451,11.333,11.4,12.187c0.379,0.62,0.758,1.238,1.148,1.839
		c3.432,5.31,11.075,4.241,13.051-1.706C283.45,115.654,285.58,91.216,274.825,81.887z"/>
</g>
</svg>
