<?xml version="1.0" encoding="UTF-8" standalone="no"?>
<!-- Created with Inkscape (http://www.inkscape.org/) -->

<svg
   xmlns:dc="http://purl.org/dc/elements/1.1/"
   xmlns:cc="http://creativecommons.org/ns#"
   xmlns:rdf="http://www.w3.org/1999/02/22-rdf-syntax-ns#"
   xmlns:svg="http://www.w3.org/2000/svg"
   xmlns="http://www.w3.org/2000/svg"
   xmlns:sodipodi="http://sodipodi.sourceforge.net/DTD/sodipodi-0.dtd"
   xmlns:inkscape="http://www.inkscape.org/namespaces/inkscape"
   version="1.1"
   id="svg2"
   xml:space="preserve"
   width="995.96002"
   height="212.92"
   viewBox="0 0 995.96002 212.92"
   sodipodi:docname="logo.svg"
   inkscape:version="0.92.2 5c3e80d, 2017-08-06"><metadata
     id="metadata8"><rdf:RDF><cc:Work
         rdf:about=""><dc:format>image/svg+xml</dc:format><dc:type
           rdf:resource="http://purl.org/dc/dcmitype/StillImage" /><dc:title></dc:title></cc:Work></rdf:RDF></metadata><defs
     id="defs6" /><sodipodi:namedview
     pagecolor="#ffffff"
     bordercolor="#666666"
     borderopacity="1"
     objecttolerance="10"
     gridtolerance="10"
     guidetolerance="10"
     inkscape:pageopacity="0"
     inkscape:pageshadow="2"
     inkscape:window-width="1920"
     inkscape:window-height="1149"
     id="namedview4"
     showgrid="false"
     inkscape:zoom="0.31828587"
     inkscape:cx="497.98001"
     inkscape:cy="106.46"
     inkscape:window-x="0"
     inkscape:window-y="24"
     inkscape:window-maximized="1"
     inkscape:current-layer="g10" /><g
     id="g10"
     inkscape:groupmode="layer"
     inkscape:label="ink_ext_XXXXXX"
     transform="matrix(1.3333333,0,0,-1.3333333,0,212.92)"><g
       id="g12"
       transform="scale(0.1)"><path
         d="m 454.246,1174.98 c 0,-17.95 -14.461,-32.31 -32.312,-32.31 H 32.3398 C 14.4648,1142.67 0,1157.03 0,1174.98 v 389.6 c 0,17.8 14.4648,32.36 32.3398,32.36 H 421.934 c 17.851,0 32.312,-14.56 32.312,-32.36 v -389.6"
         style="fill:#231f20;fill-opacity:1;fill-rule:nonzero;stroke:none"
         id="path14"
         inkscape:connector-curvature="0" /><path
         d="m 957.395,1174.98 c 0,-17.95 -14.543,-32.31 -32.36,-32.31 H 535.43 c -17.875,0 -32.387,14.36 -32.387,32.31 v 389.6 c 0,17.8 14.512,32.36 32.387,32.36 h 389.605 c 17.817,0 32.36,-14.56 32.36,-32.36 v -389.6"
         style="fill:#231f20;fill-opacity:1;fill-rule:nonzero;stroke:none"
         id="path16"
         inkscape:connector-curvature="0" /><path
         d="m 1460.44,1174.98 c 0,-17.95 -14.49,-32.31 -32.33,-32.31 h -389.64 c -17.85,0 -32.36,14.36 -32.36,32.31 v 389.6 c 0,17.8 14.51,32.36 32.36,32.36 h 389.64 c 17.84,0 32.33,-14.56 32.33,-32.36 v -389.6"
         style="fill:#231f20;fill-opacity:1;fill-rule:nonzero;stroke:none"
         id="path18"
         inkscape:connector-curvature="0" /><path
         d="m 454.246,677.473 c 0,-17.805 -14.461,-32.317 -32.312,-32.317 H 32.3398 C 14.4648,645.156 0,659.668 0,677.473 v 389.657 c 0,17.8 14.4648,32.36 32.3398,32.36 H 421.934 c 17.851,0 32.312,-14.56 32.312,-32.36 V 677.473"
         style="fill:#231f20;fill-opacity:1;fill-rule:nonzero;stroke:none"
         id="path20"
         inkscape:connector-curvature="0" /><path
         d="m 957.395,677.473 c 0,-17.805 -14.543,-32.317 -32.36,-32.317 H 535.43 c -17.875,0 -32.387,14.512 -32.387,32.317 v 389.657 c 0,17.8 14.512,32.36 32.387,32.36 h 389.605 c 17.817,0 32.36,-14.56 32.36,-32.36 V 677.473"
         style="fill:#231f20;fill-opacity:1;fill-rule:nonzero;stroke:none"
         id="path22"
         inkscape:connector-curvature="0" /><path
         d="m 1460.44,677.473 c 0,-17.805 -14.49,-32.317 -32.33,-32.317 h -389.64 c -17.85,0 -32.36,14.512 -32.36,32.317 v 389.657 c 0,17.8 14.51,32.36 32.36,32.36 h 389.64 c 17.84,0 32.33,-14.56 32.33,-32.36 V 677.473"
         style="fill:#231f20;fill-opacity:1;fill-rule:nonzero;stroke:none"
         id="path24"
         inkscape:connector-curvature="0" /><path
         d="m 454.246,180.012 c 0,-17.793 -14.461,-32.301 -32.312,-32.301 H 32.3398 C 14.4648,147.711 0,162.219 0,180.012 v 389.66 c 0,17.789 14.4648,32.359 32.3398,32.359 H 421.934 c 17.851,0 32.312,-14.57 32.312,-32.359 v -389.66"
         style="fill:#231f20;fill-opacity:1;fill-rule:nonzero;stroke:none"
         id="path26"
         inkscape:connector-curvature="0" /><path
         d="m 957.395,180.012 c 0,-17.793 -14.543,-32.301 -32.36,-32.301 H 535.43 c -17.875,0 -32.387,14.508 -32.387,32.301 v 389.66 c 0,17.789 14.512,32.359 32.387,32.359 h 389.605 c 17.817,0 32.36,-14.57 32.36,-32.359 v -389.66"
         style="fill:#231f20;fill-opacity:1;fill-rule:nonzero;stroke:none"
         id="path28"
         inkscape:connector-curvature="0" /><path
         d="m 2355.28,872.355 c 1.8,98.598 -41.24,254.435 -218.56,254.435 -161.26,0 -229.29,-145.114 -241.8,-254.435 z M 1893.06,759.59 c 3.65,-213.231 137.98,-301.012 297.43,-301.012 112.88,0 182.76,19.774 240.06,44.75 l 28.64,-112.859 c -55.55,-25.028 -152.32,-55.481 -290.23,-55.481 -266.94,0 -426.37,177.34 -426.37,438.86 0,261.572 154.12,465.812 406.69,465.812 284.86,0 358.22,-247.269 358.22,-406.652 0,-32.207 -1.74,-55.516 -5.33,-73.418 h -609.11"
         style="fill:#231f20;fill-opacity:1;fill-rule:nonzero;stroke:none"
         id="path30"
         inkscape:connector-curvature="0" /><path
         d="m 2702.84,951.23 c 0,102.15 -1.8,189.86 -7.18,270.47 h 137.84 l 7.18,-171.92 h 5.38 c 39.45,116.45 136.18,189.88 241.87,189.88 16.19,0 28.66,-1.83 43.04,-3.6 v -148.71 c -16.18,3.65 -32.23,3.65 -53.8,3.65 -110.99,0 -189.87,-82.43 -211.33,-200.699 -3.6,-21.492 -5.39,-48.336 -5.39,-73.473 V 354.672 H 2702.84 V 951.23"
         style="fill:#231f20;fill-opacity:1;fill-rule:nonzero;stroke:none"
         id="path32"
         inkscape:connector-curvature="0" /><path
         d="m 3451.6,707.609 c 0,-23.261 1.79,-44.796 7.18,-64.511 28.68,-109.227 123.57,-184.52 236.39,-184.52 166.71,0 263.44,136.172 263.44,334.988 0,172.028 -91.42,320.684 -258.05,320.684 -107.41,0 -209.52,-75.25 -238.16,-193.457 -5.41,-19.723 -10.8,-42.984 -10.8,-62.707 z m -155.81,231.082 c 0,111.089 -3.6,200.639 -7.18,283.009 h 139.62 l 8.99,-148.71 h 3.61 c 62.67,105.78 166.59,166.67 308.14,166.67 211.31,0 369.02,-177.39 369.02,-438.859 0,-311.742 -191.64,-465.813 -395.87,-465.813 -114.7,0 -215.03,50.172 -266.92,136.133 h -3.6 V 0 h -155.81 v 938.691"
         style="fill:#231f20;fill-opacity:1;fill-rule:nonzero;stroke:none"
         id="path34"
         inkscape:connector-curvature="0" /><path
         d="m 4315.1,987.027 c 0,91.423 -1.82,163.023 -7.18,234.673 h 139.75 l 8.95,-143.25 h 3.5 c 43.02,80.6 143.35,161.21 286.7,161.21 119.94,0 306.22,-71.7 306.22,-369.027 V 354.672 h -157.61 v 499.82 c 0,139.715 -51.88,256.118 -200.64,256.118 -102.09,0 -182.69,-73.42 -211.31,-161.102 -7.18,-19.77 -10.82,-46.621 -10.82,-73.52 V 354.672 H 4315.1 v 632.355"
         style="fill:#231f20;fill-opacity:1;fill-rule:nonzero;stroke:none"
         id="path36"
         inkscape:connector-curvature="0" /><path
         d="m 5859.24,872.355 c 1.81,98.598 -41.26,254.435 -218.54,254.435 -161.2,0 -229.26,-145.114 -241.85,-254.435 z M 5397.08,759.59 c 3.55,-213.231 137.94,-301.012 297.32,-301.012 112.81,0 182.85,19.774 240.08,44.75 l 28.67,-112.859 c -55.46,-25.028 -152.35,-55.481 -290.19,-55.481 -266.92,0 -426.36,177.34 -426.36,438.86 0,261.572 154.03,465.812 406.59,465.812 284.94,0 358.35,-247.269 358.35,-406.652 0,-32.207 -1.92,-55.516 -5.36,-73.418 h -609.1"
         style="fill:#231f20;fill-opacity:1;fill-rule:nonzero;stroke:none"
         id="path38"
         inkscape:connector-curvature="0" /><path
         d="m 6274.88,1221.7 123.58,-186.28 c 34.08,-48.393 60.89,-91.365 89.55,-139.709 h 3.58 c 28.63,50.16 57.31,94.961 87.79,141.479 l 120.04,184.51 h 172.03 L 6575.75,802.57 6878.53,354.672 H 6701.24 L 6572.3,549.949 c -34.08,50.16 -62.8,98.547 -93.13,150.473 h -3.64 c -28.64,-51.926 -57.4,-98.496 -91.43,-150.473 L 6258.7,354.672 H 6085.06 L 6393.1,797.109 6099.33,1221.7 h 175.55"
         style="fill:#231f20;fill-opacity:1;fill-rule:nonzero;stroke:none"
         id="path40"
         inkscape:connector-curvature="0" /><path
         d="M 7244,1429.57 V 1221.7 h 225.68 V 1101.71 H 7244 V 634.133 c 0,-107.453 30.44,-168.324 118.27,-168.324 43.04,0 68.07,3.543 91.32,10.711 l 7.24,-119.981 c -30.49,-10.777 -78.88,-21.551 -139.76,-21.551 -73.52,0 -132.57,25.141 -170.2,66.25 -43.08,48.383 -60.89,125.442 -60.89,227.485 v 472.987 h -134.4 v 119.99 h 134.4 v 161.25 l 154.02,46.62"
         style="fill:#231f20;fill-opacity:1;fill-rule:nonzero;stroke:none"
         id="path42"
         inkscape:connector-curvature="0" /></g></g></svg>