<?xml version="1.0" encoding="utf-8"?>
<!-- Generator: Adobe Illustrator 15.1.0, SVG Export Plug-In . SVG Version: 6.00 Build 0)  -->
<!DOCTYPE svg PUBLIC "-//W3C//DTD SVG 1.1//EN" "http://www.w3.org/Graphics/SVG/1.1/DTD/svg11.dtd">
<svg version="1.1" id="Layer_1" xmlns="http://www.w3.org/2000/svg" xmlns:xlink="http://www.w3.org/1999/xlink" x="0px" y="0px"
	 width="416.591px" height="358.088px" viewBox="0 0 416.591 358.088" enable-background="new 0 0 416.591 358.088"
	 xml:space="preserve">
<g>
	<g>
		<path d="M204.662,313.611c41.766-26.511,83.533-53.024,125.3-79.536c2.4-1.523,0.184-5.353-2.234-3.819
			c-41.766,26.511-83.533,53.022-125.301,79.535C200.028,311.315,202.245,315.146,204.662,313.611L204.662,313.611z"/>
	</g>
	<g>
		<path d="M205.282,272.015c21.613-14.427,43.225-28.851,64.839-43.277c2.36-1.575,0.147-5.41-2.234-3.82
			c-21.613,14.424-43.226,28.851-64.839,43.277C200.688,269.771,202.901,273.605,205.282,272.015L205.282,272.015z"/>
	</g>
	<g>
		<path d="M291.918,152.329c12.681-7.859,25.362-15.718,38.044-23.578c2.418-1.499,0.198-5.328-2.234-3.82
			c-12.681,7.859-25.362,15.719-38.044,23.578C287.266,150.008,289.485,153.836,291.918,152.329L291.918,152.329z"/>
	</g>
	<g>
		<path d="M201.462,270.933c0,13.273,0,26.546,0,39.819c0,2.853,4.424,2.853,4.424,0c0-13.273,0-26.546,0-39.819
			C205.887,268.079,201.462,268.079,201.462,270.933L201.462,270.933z"/>
	</g>
	<g>
		<path d="M288.668,149.831c-6.766,25.613-14.542,50.936-21.797,76.41c-0.784,2.75,3.485,3.915,4.266,1.176
			c7.257-25.474,15.032-50.798,21.797-76.41C293.664,148.245,289.396,147.075,288.668,149.831L288.668,149.831z"/>
	</g>
	<g>
		<path d="M326.633,128.665c0,33.858,0,67.716,0,101.575c0,2.854,4.424,2.854,4.424,0c0-33.859,0-67.717,0-101.575
			C331.058,125.811,326.633,125.811,326.633,128.665L326.633,128.665z"/>
	</g>
	<g>
		<path d="M65.242,234.076c22.25-13.489,44.5-26.976,66.751-40.464c2.435-1.475,0.213-5.304-2.233-3.819
			c-22.25,13.486-44.501,26.976-66.752,40.464C60.573,231.732,62.795,235.56,65.242,234.076L65.242,234.076z"/>
	</g>
	<g>
		<path d="M153.262,123.607c12.682-5.039,25.363-10.078,38.043-15.118c2.62-1.039,1.479-5.321-1.175-4.265
			c-12.682,5.038-25.362,10.078-38.044,15.118C149.468,120.382,150.608,124.664,153.262,123.607L153.262,123.607z"/>
	</g>
	<g>
		<path d="M150.541,120.887c-6.335,23.701-15.004,46.663-21.797,70.227c-0.792,2.748,3.478,3.912,4.266,1.175
			c6.793-23.565,15.461-46.524,21.798-70.227C155.545,119.304,151.278,118.133,150.541,120.887L150.541,120.887z"/>
	</g>
	<g>
		<path d="M151.655,123.977c46.14,9.726,92.273,19.561,138.559,28.574c2.787,0.544,3.975-3.72,1.175-4.265
			c-46.284-9.015-92.418-18.85-138.559-28.574C150.047,119.125,148.863,123.389,151.655,123.977L151.655,123.977z"/>
	</g>
	<g>
		<path d="M292.494,123.667c11.92,1.77,23.842,3.539,35.764,5.306c2.789,0.415,3.99-3.847,1.175-4.264
			c-11.92-1.77-23.842-3.539-35.764-5.306C290.88,118.989,289.679,123.251,292.494,123.667L292.494,123.667z"/>
	</g>
	<g>
		<path d="M189.218,108.349c29.325,4.351,58.649,8.701,87.975,13.05c2.79,0.415,3.99-3.847,1.175-4.265
			c-29.325-4.351-58.65-8.702-87.974-13.05C187.604,103.67,186.403,107.932,189.218,108.349L189.218,108.349z"/>
	</g>
	<g>
		<path d="M131.008,192.553c45.449,13.251,92.469,21.346,138.255,33.431c2.761,0.73,3.932-3.539,1.175-4.265
			c-45.787-12.087-92.805-20.182-138.255-33.431C129.438,187.487,128.274,191.758,131.008,192.553L131.008,192.553z"/>
	</g>
	<g>
		<path d="M64.275,234.298c45.958,13.573,92.802,24.044,138.682,37.939c2.737,0.83,3.899-3.441,1.176-4.264
			c-45.879-13.897-92.723-24.366-138.683-37.939C62.708,229.224,61.544,233.493,64.275,234.298L64.275,234.298z"/>
	</g>
	<g>
		<path d="M63.722,271.821c46.432,13.936,92.859,27.892,139.235,42.014c2.736,0.833,3.897-3.438,1.176-4.266
			c-46.375-14.124-92.802-28.079-139.236-42.013C62.158,266.733,60.996,271.004,63.722,271.821L63.722,271.821z"/>
	</g>
	<g>
		<g>
			<path d="M188.19,273.664c0,8.693,0,17.386,0,26.079c0,2.854,4.423,2.854,4.423,0c0-8.692,0-17.386,0-26.079
				C192.613,270.81,188.19,270.81,188.19,273.664L188.19,273.664z"/>
		</g>
		<g>
			<path d="M74.599,244.169c38.592,9.458,76.5,21.633,115.108,31.084c2.771,0.681,3.946-3.588,1.175-4.265
				c-38.606-9.453-76.515-21.626-115.108-31.084C73.004,239.224,71.828,243.491,74.599,244.169L74.599,244.169z"/>
		</g>
		<g>
			<path d="M74.599,267.396c38.866,9.788,76.144,25.466,115.108,35.101c2.77,0.687,3.945-3.582,1.175-4.265
				c-38.963-9.635-76.241-25.314-115.108-35.101C73.007,262.434,71.833,266.701,74.599,267.396L74.599,267.396z"/>
		</g>
	</g>
	<g>
		<path d="M62.098,233.188c0,12.167,0,24.333,0,36.5c0,2.854,4.424,2.854,4.424,0c0-12.167,0-24.333,0-36.5
			C66.522,230.334,62.098,230.334,62.098,233.188L62.098,233.188z"/>
	</g>
	<g>
		<path d="M72.975,242.037c-0.246,7.619-0.491,15.238-0.738,22.857c-0.092,2.854,4.333,2.845,4.424,0
			c0.247-7.619,0.492-15.238,0.738-22.857C77.491,239.183,73.066,239.191,72.975,242.037L72.975,242.037z"/>
	</g>
	<g>
		<path d="M130.95,262.361c-7.446-0.525-9.121,10.939-2.847,13.8c4.282,1.951,8.644-1.056,9.344-5.468
			c0.861-5.422-3.028-8.505-8.156-8.194c-2.835,0.17-2.851,4.597,0,4.425c2.364-0.143,4.258,0.273,3.813,3.08
			c-0.256,1.609-2.027,3.208-3.486,1.927c-1.787-1.566-1.245-5.327,1.332-5.146C133.799,266.986,133.779,262.559,130.95,262.361
			L130.95,262.361z"/>
	</g>
	<g>
		<path d="M275.569,101.935c0,10.201,0,20.4,0,30.601c0,2.854,4.424,2.854,4.424,0c0-10.201,0-20.4,0-30.601
			C279.994,99.082,275.569,99.082,275.569,101.935L275.569,101.935z"/>
	</g>
	<g>
		<path d="M276.85,134.445c5.396,2.863,13.367,3.796,17.796-1.268c1.87-2.139-1.247-5.28-3.128-3.128
			c-3.074,3.515-8.734,2.541-12.435,0.577C276.564,129.289,274.328,133.108,276.85,134.445L276.85,134.445z"/>
	</g>
	<g>
		<path d="M295.294,131.001c0-9.647,0-19.295,0-28.943c0-2.854-4.425-2.854-4.425,0c0,9.648,0,19.296,0,28.943
			C290.869,133.855,295.294,133.855,295.294,131.001L295.294,131.001z"/>
	</g>
	<g>
		<g>
			<path d="M231.004,60.181c36.137-0.004,72.276-0.175,108.414-0.18c3.21,0,3.21-4.977,0-4.977
				c-36.137,0.004-72.276,0.175-108.414,0.179C227.794,55.204,227.794,60.181,231.004,60.181L231.004,60.181z"/>
		</g>
		<g>
			<g>
				<path d="M344.926,61.527c-0.01,11.493-0.227,22.985-0.237,34.478c-0.002,3.21,4.975,3.21,4.977,0
					c0.01-11.493,0.227-22.985,0.236-34.478C349.905,58.317,344.927,58.317,344.926,61.527L344.926,61.527z"/>
			</g>
			<g>
				<path d="M223.96,96.722c0-11.067,0-22.132,0-33.199c0-3.21-4.978-3.21-4.978,0c0,11.067,0,22.132,0,33.199
					C218.982,99.933,223.96,99.933,223.96,96.722L223.96,96.722z"/>
			</g>
			<g>
				<path d="M227.901,102.536c36.654,0,73.31,0,109.964,0c3.21,0,3.21-4.977,0-4.977c-36.655,0-73.31,0-109.964,0
					C224.691,97.559,224.691,102.536,227.901,102.536L227.901,102.536z"/>
			</g>
			<g>
				<path d="M334.374,60.001c2.908,0.058,5.813-0.024,8.719,0.13c0.592,0.033,1.192,0.069,1.779,0.156
					c1.767,0.263,0.164,0.555,0.015-0.778c0.28,2.502-0.068,5.079,0.04,7.594c0.136,3.197,5.113,3.21,4.977,0
					c-0.172-4.077,1.714-10.618-3.708-11.614c-3.875-0.713-7.903-0.387-11.821-0.464C331.162,54.959,331.167,59.939,334.374,60.001
					L334.374,60.001z"/>
			</g>
			<g>
				<path d="M234.423,55.19c-3.948,0.082-7.898-0.116-11.819,0.464c-5.437,0.808-3.541,7.707-3.707,11.616
					c-0.137,3.21,4.842,3.197,4.978,0c0.097-2.277-0.058-4.547-0.008-6.827c0.037-1.765-1.811,0.423-0.331,0.082
					c0.708-0.162,1.451-0.179,2.171-0.227c2.903-0.19,5.813-0.072,8.717-0.132C237.628,60.103,237.634,55.124,234.423,55.19
					L234.423,55.19z"/>
			</g>
			<g>
				<path d="M344.689,94.02c-0.063,1.067,0.037,2.139-0.152,3.197c-0.111,0.622-4.02,0.337-4.784,0.341
					c-4.453,0.019-8.907-0.057-13.36-0.011c-3.208,0.033-3.211,5.01,0,4.978c6.222-0.063,12.733,0.581,18.919-0.154
					c4.289-0.507,4.161-5.087,4.354-8.351C349.856,90.812,344.878,90.831,344.689,94.02L344.689,94.02z"/>
			</g>
			<g>
				<path d="M218.871,94.02c0.182,3.063-0.061,7.23,3.692,8.263c2.635,0.726,5.94,0.256,8.648,0.248
					c3.646-0.013,7.29-0.043,10.935-0.006c3.211,0.033,3.208-4.945,0-4.978c-4.454-0.045-8.908,0.011-13.362,0.011
					c-0.84,0-4.569,0.32-4.783-0.341c-0.317-0.977-0.092-2.182-0.153-3.197C223.661,90.831,218.682,90.812,218.871,94.02
					L218.871,94.02z"/>
			</g>
		</g>
	</g>
	<g>
		<g>
			<path d="M238.566,67.692c31.072-0.002,62.143-0.097,93.213-0.099c2.14,0,2.14-3.319,0-3.319
				c-31.071,0.002-62.142,0.098-93.213,0.1C236.427,64.374,236.427,67.692,238.566,67.692L238.566,67.692z"/>
		</g>
		<g>
			<g>
				<path d="M336.995,68.148c-0.008,6.338-0.195,12.674-0.203,19.013c-0.003,2.141,3.314,2.141,3.318,0
					c0.007-6.338,0.195-12.675,0.203-19.013C340.316,66.007,336.998,66.009,336.995,68.148L336.995,68.148z"/>
			</g>
			<g>
				<path d="M232.03,87.556c0-6.103,0-12.206,0-18.308c0-2.141-3.318-2.141-3.318,0c0,6.102,0,12.205,0,18.308
					C228.711,89.695,232.03,89.695,232.03,87.556L232.03,87.556z"/>
			</g>
			<g>
				<path d="M235.898,91.049c31.516,0,63.031,0,94.546,0c2.14,0,2.14-3.318,0-3.318c-31.515,0-63.031,0-94.546,0
					C233.759,87.731,233.759,91.049,235.898,91.049L235.898,91.049z"/>
			</g>
			<g>
				<path d="M327.442,67.593c2.339,0.03,4.678-0.009,7.017,0.056c1.006,0.026,2.044,0.037,3.036,0.227
					c0.573,0.188,0.391-0.086-0.549-0.823c0.068,0.46,0.089,0.924,0.062,1.389c-0.013,0.934-0.065,1.846-0.013,2.781
					c0.119,2.128,3.438,2.139,3.318,0c-0.09-1.62,0.514-4.049-0.352-5.528c-0.591-1.009-1.893-1.091-2.923-1.211
					c-3.168-0.376-6.412-0.167-9.595-0.208C325.301,64.249,325.303,67.567,327.442,67.593L327.442,67.593z"/>
			</g>
			<g>
				<path d="M241.506,64.368c-3.074,0.039-6.155-0.067-9.224,0.173c-1.019,0.078-2.268,0.14-3.034,0.912
					c-1.263,1.27-0.521,4.282-0.61,5.863c-0.122,2.139,3.197,2.128,3.318,0c0.053-0.933,0.028-1.849-0.012-2.78
					c-0.027-0.464-0.007-0.927,0.06-1.389c-0.94,0.736-1.122,1.011-0.548,0.823c0.963-0.244,2.05-0.194,3.036-0.227
					c2.337-0.081,4.676-0.026,7.015-0.057C243.645,67.66,243.646,64.341,241.506,64.368L241.506,64.368z"/>
			</g>
			<g>
				<path d="M336.792,86.065c-0.206,2.614-3.612,1.666-5.761,1.666c-3.484,0-6.967-0.028-10.451-0.004
					c-2.139,0.015-2.141,3.333,0,3.318c5.194-0.034,10.389,0.054,15.583-0.034c3.194-0.055,3.738-2.292,3.947-4.945
					C340.278,83.931,336.958,83.947,336.792,86.065L336.792,86.065z"/>
			</g>
			<g>
				<path d="M228.615,86.065c0.167,2.16,0.413,4.604,3.131,4.865c5.395,0.522,10.983,0.078,16.399,0.114
					c2.141,0.016,2.139-3.303,0-3.318c-3.484-0.024-6.968-0.002-10.453,0.004c-2.147,0.004-5.56,0.946-5.76-1.666
					C231.77,83.947,228.451,83.931,228.615,86.065L228.615,86.065z"/>
			</g>
		</g>
	</g>
	<g>
		<g>
			<path d="M218.111,149.721c17.414,3.999,34.87,7.813,52.287,11.812c2.083,0.478,2.967-2.722,0.881-3.202
				c-17.415-3.996-34.871-7.812-52.287-11.812C216.91,146.042,216.025,149.241,218.111,149.721L218.111,149.721z"/>
		</g>
		<g>
			<g>
				<path d="M272.053,165.173c-2.978,13.729-6.056,27.436-9.036,41.165c-0.452,2.087,2.746,2.973,3.2,0.881
					c2.979-13.728,6.057-27.436,9.036-41.164C275.705,163.97,272.507,163.083,272.053,165.173L272.053,165.173z"/>
			</g>
			<g>
				<path d="M205.459,194.13c2.865-13.219,5.728-26.44,8.591-39.659c0.452-2.084-2.747-2.972-3.199-0.881
					c-2.864,13.219-5.728,26.439-8.592,39.659C201.807,195.333,205.006,196.221,205.459,194.13L205.459,194.13z"/>
			</g>
			<g>
				<path d="M205.658,199.98c17.663,4.064,35.325,8.132,52.988,12.197c2.082,0.478,2.967-2.719,0.881-3.201
					c-17.663-4.064-35.324-8.131-52.988-12.197C204.457,196.301,203.572,199.498,205.658,199.98L205.658,199.98z"/>
			</g>
			<g>
				<path d="M267.965,160.974c0.75,0.201,4.761,0.782,4.619,1.633c-0.521,3.1-1.365,6.146-1.974,9.229
					c-0.414,2.089,2.785,2.979,3.199,0.882c0.458-2.316,0.999-4.614,1.511-6.92c0.288-1.296,1.239-3.715,0.358-4.981
					c-1.517-2.18-4.463-2.405-6.833-3.044C266.778,157.215,265.9,160.416,267.965,160.974L267.965,160.974z"/>
			</g>
			<g>
				<path d="M220.642,146.885c-2.316-0.428-5.633-1.811-7.732-0.139c-1.141,0.907-1.252,2.875-1.543,4.195
					c-0.524,2.37-0.969,4.753-1.528,7.116c-0.494,2.08,2.706,2.964,3.199,0.881c0.741-3.124,1.28-6.293,2.071-9.404
					c0.304-1.194-0.242-0.201,0.204-0.224c0.546-0.028,1.098,0.071,1.632,0.166c0.947,0.167,1.871,0.435,2.816,0.609
					C221.851,150.473,222.744,147.275,220.642,146.885L220.642,146.885z"/>
			</g>
			<g>
				<path d="M263.533,203.966c-0.456,1.804-0.662,3.737-1.441,5.444c-0.215,0.471,0.209,0.151-0.695-0.02
					c-0.682-0.127-1.357-0.293-2.032-0.453c-1.788-0.422-3.564-0.873-5.366-1.24c-2.088-0.423-2.978,2.773-0.881,3.202
					c2.255,0.458,4.479,1.047,6.725,1.553c1.321,0.295,3.188,0.937,4.293-0.231c1.803-1.903,1.983-4.945,2.597-7.373
					C267.258,202.771,264.057,201.892,263.533,203.966L263.533,203.966z"/>
			</g>
			<g>
				<path d="M202.906,190.008c-0.446,2.478-1.736,5.667-0.661,8.119c0.618,1.407,2.362,1.588,3.683,1.915
					c2.191,0.538,4.41,0.946,6.596,1.512c2.072,0.536,2.952-2.664,0.881-3.202c-1.641-0.423-3.295-0.784-4.953-1.141
					c-0.728-0.157-1.454-0.324-2.178-0.501c-0.354-0.091-0.709-0.186-1.06-0.288c-0.708-0.283-0.711-0.201-0.009,0.247
					c-0.327-0.45,0.16-2.137,0.25-2.64c0.189-1.05,0.46-2.087,0.649-3.139C206.481,188.798,203.284,187.904,202.906,190.008
					L202.906,190.008z"/>
			</g>
		</g>
	</g>
	<g>
		<g>
			<path d="M222.169,154.817c14.137,3.247,28.308,6.345,42.446,9.587c1.042,0.24,1.483-1.358,0.44-1.599
				c-14.137-3.245-28.308-6.343-42.446-9.587C221.568,152.979,221.126,154.577,222.169,154.817L222.169,154.817z"/>
		</g>
		<g>
			<g>
				<path d="M266.32,168c-2.417,11.145-4.916,22.27-7.334,33.415c-0.226,1.043,1.374,1.486,1.602,0.441
					c2.418-11.146,4.916-22.271,7.333-33.416C268.146,167.396,266.547,166.954,266.32,168L266.32,168z"/>
			</g>
			<g>
				<path d="M211.262,191.23c2.325-10.732,4.649-21.462,6.975-32.194c0.225-1.043-1.374-1.486-1.601-0.44
					c-2.324,10.732-4.649,21.462-6.975,32.194C209.436,191.833,211.036,192.276,211.262,191.23L211.262,191.23z"/>
			</g>
			<g>
				<path d="M212.06,195.617c14.338,3.301,28.677,6.602,43.015,9.902c1.042,0.24,1.483-1.359,0.441-1.599
					c-14.338-3.303-28.676-6.604-43.015-9.903C211.459,193.778,211.018,195.376,212.06,195.617L212.06,195.617z"/>
			</g>
			<g>
				<path d="M262.64,163.951c0.959,0.259,4.351,0.536,4.111,1.964c-0.423,2.517-1.107,4.988-1.602,7.492
					c-0.207,1.046,1.394,1.491,1.601,0.44c0.372-1.881,0.81-3.746,1.226-5.616c0.198-0.893,0.958-2.763,0.342-3.647
					c-1.125-1.618-3.486-1.758-5.237-2.231C262.046,162.071,261.608,163.672,262.64,163.951L262.64,163.951z"/>
			</g>
			<g>
				<path d="M223.949,153.515c-1.621-0.303-4.288-1.431-5.773-0.249c-0.844,0.672-0.904,2.204-1.12,3.178
					c-0.426,1.925-0.787,3.861-1.241,5.779c-0.247,1.039,1.353,1.482,1.601,0.441c0.6-2.537,1.038-5.109,1.68-7.635
					c0.33-1.305,3.401-0.104,4.414,0.084C224.554,155.308,225,153.708,223.949,153.515L223.949,153.515z"/>
			</g>
			<g>
				<path d="M259.404,199.489c-0.382,1.513-0.568,3.111-1.222,4.543c-0.44,0.961-6.173-0.953-7.154-1.151
					c-1.045-0.215-1.488,1.386-0.441,1.598c1.831,0.374,3.636,0.851,5.459,1.261c0.849,0.19,2.247,0.724,2.982-0.054
					c1.385-1.465,1.503-3.893,1.976-5.757C261.267,198.894,259.666,198.453,259.404,199.489L259.404,199.489z"/>
			</g>
			<g>
				<path d="M210.187,188.159c-0.328,1.827-1.384,4.379-0.587,6.191c0.438,0.996,1.749,1.087,2.68,1.316
					c1.779,0.436,3.58,0.769,5.354,1.227c1.037,0.27,1.476-1.331,0.441-1.599c-1.332-0.346-2.676-0.64-4.021-0.927
					c-0.592-0.127-1.181-0.263-1.768-0.408c-0.273-0.067-1.316-0.463-1.176-0.271c-0.382-0.522,0.051-1.985,0.151-2.541
					c0.153-0.853,0.373-1.696,0.527-2.549C211.976,187.554,210.377,187.107,210.187,188.159L210.187,188.159z"/>
			</g>
		</g>
	</g>
	<g>
		<g>
			<path d="M161.994,138.278c12.274,3.033,24.578,5.952,36.852,8.982c1.039,0.257,1.479-1.342,0.44-1.599
				c-12.274-3.033-24.577-5.952-36.852-8.983C161.396,136.422,160.956,138.023,161.994,138.278L161.994,138.278z"/>
		</g>
		<g>
			<g>
				<path d="M200.114,149.881c-2.485,8.496-5.041,16.974-7.528,25.47c-0.301,1.028,1.301,1.464,1.601,0.44
					c2.486-8.497,5.042-16.974,7.529-25.47C202.016,149.293,200.415,148.856,200.114,149.881L200.114,149.881z"/>
			</g>
			<g>
				<path d="M151.894,163.744c2.196-7.514,4.427-15.019,6.625-22.532c0.3-1.029-1.301-1.465-1.601-0.441
					c-2.197,7.514-4.428,15.019-6.625,22.532C149.993,164.331,151.594,164.767,151.894,163.744L151.894,163.744z"/>
			</g>
			<g>
				<path d="M182.263,176.875c2.29,0.568,4.579,1.134,6.869,1.703c1.038,0.259,1.479-1.342,0.441-1.599
					c-2.289-0.568-4.579-1.136-6.869-1.702C181.666,175.02,181.225,176.618,182.263,176.875L182.263,176.875z"/>
			</g>
			<g>
				<path d="M197.131,146.837c0.423,0.121,3.553,0.896,3.542,0.972c-0.292,2.085-1.213,4.165-1.764,6.194
					c-0.279,1.035,1.321,1.473,1.601,0.44c0.389-1.437,0.835-2.856,1.261-4.282c0.219-0.737,0.9-2.16,0.399-2.921
					c-0.94-1.419-3.096-1.575-4.599-2.002C196.541,144.944,196.104,146.545,197.131,146.837L197.131,146.837z"/>
			</g>
			<g>
				<path d="M163.598,136.958c-1.332-0.276-3.715-1.319-4.997-0.447c-0.765,0.521-0.911,1.517-1.167,2.355
					c-0.474,1.549-0.869,3.12-1.357,4.664c-0.323,1.024,1.279,1.458,1.601,0.441c0.646-2.046,1.135-4.141,1.848-6.168
					c-0.102,0.288,0.207,0.108,0.565,0.121c0.402,0.015,0.801,0.11,1.194,0.19c0.627,0.131,1.243,0.313,1.871,0.443
					C164.201,138.772,164.646,137.174,163.598,136.958L163.598,136.958z"/>
			</g>
			<g>
				<path d="M193.016,173.879c-0.381,1.156-0.617,2.37-1.231,3.433c-0.311,0.54-5.479-1.162-6.107-1.303
					c-1.042-0.233-1.485,1.366-0.441,1.599c1.431,0.32,2.843,0.703,4.263,1.061c0.741,0.188,2.174,0.799,2.918,0.296
					c1.437-0.974,1.692-3.113,2.199-4.645C194.953,173.303,193.351,172.869,193.016,173.879L193.016,173.879z"/>
			</g>
			<g>
				<path d="M151.094,164.353c1.07,0,1.07-1.659,0-1.659S150.024,164.353,151.094,164.353L151.094,164.353z"/>
			</g>
		</g>
	</g>
	<path d="M257.023,169.831c-0.351-0.508-1.039-0.922-1.678-0.709c-0.839,0.281-1.19,0.955-1.488,1.741
		c-0.048,0.13-0.054,0.242-0.057,0.356c-0.165,0.439-0.272,0.897-0.245,1.316c0.106,1.646,1.774,1.729,2.85,0.909
		C257.484,172.624,257.812,170.972,257.023,169.831z"/>
	<path d="M253.332,179.63c-0.387-0.268-0.9-0.311-1.311,0.147c-0.013,0.016-0.022,0.035-0.036,0.05
		c-0.037,0.02-0.073,0.03-0.109,0.054c-0.318,0.212-0.459,0.506-0.49,0.806c-0.441,0.771-0.749,1.673-0.808,2.496
		c-0.112,1.551,1.244,2.121,2.505,1.467c1.059-0.549,1.388-2.253,1.371-3.32C254.441,180.468,253.97,179.838,253.332,179.63z"/>
	<path d="M249.56,190.459c-0.702,0.184-0.892,0.825-0.729,1.365c-0.436,0.599-0.763,1.296-0.863,1.981
		c-0.219,1.512,1.087,2.357,2.444,1.717C252.477,194.551,252.583,189.673,249.56,190.459z"/>
	<path d="M247.013,170.276c-8.077-1.51-15.896-4.119-24.074-5.109c-1.414-0.171-1.398,2.043,0,2.212
		c7.975,0.966,15.608,3.556,23.487,5.031C247.819,172.669,248.415,170.539,247.013,170.276z"/>
	<path d="M235.953,175.713c-3.816-0.922-7.649-1.765-11.337-3.135c-1.34-0.497-1.913,1.642-0.587,2.134
		c3.688,1.37,7.521,2.212,11.337,3.135C236.75,178.183,237.339,176.049,235.953,175.713z"/>
	<g>
		<path d="M154.916,154.566c7.934,0.263,16.046,2.163,23.724,4.107c3.95,1,8.149,2.065,11.391,4.648
			c4.185,3.333,0.515,9.843-0.51,13.718c-0.367,1.38,1.768,1.966,2.132,0.587c1.982-7.481,4.872-14.716-4.187-18.444
			c-9.854-4.059-21.882-6.477-32.55-6.829C153.489,152.307,153.493,154.519,154.916,154.566L154.916,154.566z"/>
	</g>
	<g>
		<path d="M196.578,148.943c1.933,0.229,0.778,2.971,0.167,3.96c-0.375,0.609,0.582,1.164,0.955,0.558
			c1.152-1.867,1.876-5.269-1.123-5.623C195.87,147.753,195.878,148.861,196.578,148.943L196.578,148.943z"/>
	</g>
	<g>
		<path d="M191.779,164.856c-4.338,1.927-7.142,6.589-9.945,10.25c-4.093,5.349-7.031,11.586-8.075,18.248
			c-0.219,1.396,1.912,1.994,2.132,0.588c0.844-5.38,2.946-10.137,5.799-14.751c2.541-4.109,6.641-10.397,11.206-12.426
			C194.197,166.187,193.07,164.281,191.779,164.856L191.779,164.856z"/>
	</g>
	<g>
		<path d="M160.071,153.242c-10.521,5.265-15.305,20.407-17.098,31.079c-0.235,1.396,1.896,1.992,2.132,0.587
			c1.708-10.149,6.079-24.75,16.084-29.756C162.464,154.514,161.344,152.604,160.071,153.242L160.071,153.242z"/>
	</g>
	<g>
		<path d="M143.665,185.478c9.345,5.738,19.766,8.766,30.699,9.317c1.428,0.071,1.419-2.141,0-2.212
			c-10.564-0.534-20.553-3.469-29.582-9.015C143.562,182.819,142.452,184.732,143.665,185.478L143.665,185.478z"/>
	</g>
	<path d="M192.425,168.427c0.464-0.687-0.572-1.613-1.319-0.989c-2.255,1.877-7.231,4.057-7.248,7.498
		c-0.006,1.329,1.157,2.096,2.205,1.333c0.117,0.026,0.235,0.043,0.376,0.05c0.065,0.004,0.115-0.018,0.173-0.026
		c0.155,0.577,0.821,0.965,1.333,0.432c0.163,0.5,0.831,0.756,1.282,0.409c0.025,0.004,0.043,0.015,0.069,0.015h0.185
		c0.817,0,1.005-0.961,0.575-1.418c1.009-2.113,1.642-4.401,2.529-6.563C192.705,168.872,192.608,168.615,192.425,168.427z"/>
	<path d="M157.901,154.32c-0.968-0.186-2.904-1.182-3.756-0.246c-0.841,0.92-0.599,2.314-1.043,3.407
		c-0.015,0.037-0.01,0.071-0.019,0.106c-0.292,0.44-0.541,0.896-0.719,1.368c-0.379,1.002,1.225,1.432,1.601,0.44
		c0.596-1.575,2.322-3.048,3.937-3.476C158.661,155.718,158.729,154.478,157.901,154.32z"/>
	<path d="M181.048,168.984c-6.406-3.945-13.115-7.613-20.787-7.965c-0.356-0.015-0.355,0.538,0,0.553
		c7.572,0.346,14.191,3.999,20.508,7.887C181.074,169.647,181.351,169.17,181.048,168.984z"/>
	<path d="M166.234,158.449c-0.218-0.052-0.434-0.113-0.646-0.184c-0.341-0.108-0.486,0.426-0.147,0.532
		c0.211,0.073,0.427,0.134,0.646,0.183C166.433,159.07,166.579,158.537,166.234,158.449z"/>
	<path d="M176.588,173.175c-5.036-5.06-12.839-7.155-19.828-6.996c-0.356,0.009-0.356,0.562,0,0.553
		c6.84-0.157,14.504,1.877,19.437,6.831C176.448,173.819,176.84,173.428,176.588,173.175z"/>
	<path d="M177.637,174.972c-0.161-0.091-0.233-0.112-0.416-0.127c-0.355-0.027-0.353,0.525,0,0.553
		c0.045,0.017,0.091,0.035,0.138,0.054C177.669,175.629,177.947,175.15,177.637,174.972z"/>
	<path d="M172.937,177.094c-5.748-2.692-12.094-5.025-18.224-6.662c-0.345-0.093-0.492,0.441-0.147,0.532
		c6.062,1.62,12.416,3.951,18.092,6.61C172.979,177.722,173.259,177.245,172.937,177.094z"/>
	<path d="M173.811,178.53c-0.357,0-0.357,0.553,0,0.553C174.167,179.083,174.167,178.53,173.811,178.53z"/>
	<path d="M169.552,182.598c-6.228-1.896-11.849-5.36-18.25-6.729c-0.347-0.076-0.496,0.458-0.146,0.531
		c6.396,1.372,12.024,4.835,18.25,6.729C169.748,183.235,169.893,182.702,169.552,182.598z"/>
	<path d="M170.862,183.324h-0.093c-0.356,0-0.356,0.553,0,0.553h0.093C171.218,183.877,171.218,183.324,170.862,183.324z"/>
	<path d="M167.709,187.299c-5.904-1.354-11.116-4.646-17.052-5.899c-0.348-0.076-0.496,0.458-0.147,0.532
		c5.935,1.254,11.148,4.547,17.052,5.899C167.909,187.91,168.057,187.376,167.709,187.299z"/>
	<path d="M169.386,187.932c-0.356,0-0.356,0.553,0,0.553C169.743,188.485,169.743,187.932,169.386,187.932z"/>
	<path d="M183.471,163.333c-5.766-2.303-11.944-5.954-18.232-6.371c-0.356-0.024-0.354,0.529,0,0.552
		c6.259,0.415,12.351,4.06,18.085,6.35C183.655,163.998,183.798,163.462,183.471,163.333z"/>
	<path d="M184.964,164.245v0.092c0,0.357,0.553,0.357,0.553,0v-0.092C185.518,163.888,184.964,163.888,184.964,164.245z"/>
	<g>
		<path d="M279.605,107.455c4.118-1.612,8.052-3.569,12.443-4.334c0.306-0.052,0.236-0.582-0.074-0.542
			c-3.368,0.423-6.746,2.113-10.027,3.052c-0.347,0.098-0.2,0.601,0.146,0.532c3.378-0.659,6.77-1.462,9.744-3.251
			c0.279-0.168,0.088-0.566-0.213-0.505c-2.93,0.572-5.456,2.002-8.136,3.26c-5.083,2.382,1.521-0.525,2.269-0.828
			c1.754-0.711,3.532-1.354,5.278-2.085c0.33-0.136,0.208-0.583-0.147-0.531c-3.674,0.523-7.08,1.936-10.601,3.042
			c-0.342,0.106-0.201,0.604,0.147,0.531c3.515-0.726,7.007-1.583,10.114-3.437c0.218-0.132,0.148-0.553-0.14-0.517
			c-2.38,0.303-4.552,1.091-6.75,2.029c-1.2,0.511-5.633,3.007-0.603,0.894c1.917-0.806,3.85-1.574,5.767-2.38
			c0.319-0.132,0.197-0.652-0.147-0.531c-2.324,0.81-4.602,1.73-6.96,2.435c-0.632,0.19-2.448,1.043-0.65,0.069
			c1.442-0.783,3.121-1.178,4.711-1.532c-1.422,0.317-2.802,0.626-4.218,0.985c-0.646,0.397-0.515,0.33,0.393-0.201
			c0.822-0.385,1.67-0.693,2.545-0.923c-1.265,0.374-2.511,0.59-3.786,1.024c1.251-0.428,2.462-1.076,3.661-1.629
			c0.289-0.134,0.082-0.59-0.213-0.505c-1.167,0.33-2.317,0.702-3.486,1.024c1.083-0.298,2.03-0.618,3.055-1.072
			c0.303-0.136,0.076-0.563-0.213-0.505c-1.855,0.37-3.354,1.137-4.951,2.147c-0.214,0.134-0.151,0.546,0.139,0.514
			c1.343-0.146,0.892-0.058,2.218-0.425c0.558-0.156,4.42-2.087,2.512-0.651c-1.698,1.279-3.565,2.275-5.202,3.647
			c-0.229,0.19,0.022,0.512,0.27,0.46c2.584-0.536,4.879-1.678,7.255-2.793c0.282-0.132,0.081-0.611-0.213-0.503
			c-2.235,0.816-4.331,1.769-6.333,3.069c-0.261,0.168-0.098,0.588,0.212,0.503c2.152-0.568,4.163-1.499,6.267-2.212
			c0.335-0.112,0.194-0.642-0.147-0.531c-1.494,0.477-2.932,1.047-4.367,1.672c-1.96,0.855-0.525,0.823,0.503,0.372
			c1.174-0.514,2.357-1.007,3.524-1.541c0.244-0.11,0.13-0.544-0.14-0.514c-1.719,0.194-3.348,0.625-5.031,1.022
			c0.504-0.119,2.577-1.556,3.512-2.167c0.265-0.172,0.096-0.572-0.213-0.503c-0.744,0.117-1.462,0.327-2.153,0.623
			c-1.721,0.616-0.919,0.724,0.258,0.125c1.586-0.806,1.139-1.154-0.252-0.368c-1.08,0.611-2.124,1.292-3.172,1.951
			c-0.273,0.173-0.092,0.566,0.213,0.505c2.058-0.401,4.009-1.017,5.979-1.728c1.195-0.43,2.378-0.896,3.568-1.341
			c1.2-0.447,1.834-1.098,0.182-0.167c-3.329,1.871-6.815,3.31-9.813,5.725c-0.225,0.179,0.018,0.529,0.269,0.46
			c5.121-1.39,9.583-4.284,14.47-6.267c0.321-0.129,0.2-0.646-0.146-0.531c-2.272,0.736-4.364,1.788-6.5,2.851
			c-2.563,1.275-5.258,2.079-7.576,3.811c-0.235,0.177-0.109,0.605,0.212,0.506c4.351-1.344,8.311-3.884,12.627-5.438
			c0.332-0.119,0.195-0.644-0.147-0.531c-4.798,1.564-9.463,3.403-13.892,5.835c-0.27,0.147-0.081,0.624,0.213,0.503
			c5.101-2.078,10.053-4.502,15.208-6.453c0.328-0.123,0.199-0.64-0.146-0.532c-5.344,1.66-10.45,4.567-14.316,8.642
			c-0.18,0.19-0.004,0.561,0.269,0.462c5.495-1.99,10.847-4.316,16.196-6.662c0.287-0.127,0.081-0.612-0.213-0.506
			c-4.669,1.681-9.05,3.969-13.463,6.22c-1.219,0.62-1.561,1.312,0.048,0.456c1.636-0.866,3.453-1.454,5.191-2.086
			c2.137-0.778,4.181-1.618,6.133-2.795c0.222-0.134,0.146-0.538-0.14-0.515c-3.3,0.268-6.291,2.865-9.125,4.388
			c0.467-0.25-6.12,2.822-2.407,0.307c0.796-0.54,1.738-0.916,2.607-1.322c2.346-1.095,4.68-2.146,7.156-2.921
			c0.347-0.108,0.199-0.589-0.147-0.531c-4.206,0.685-7.783,2.763-11.403,4.91c-0.308,0.184-0.036,0.644,0.279,0.479
			c3.604-1.901,7.04-4.117,10.985-5.262c1.333-0.458,1.399-0.394,0.195,0.197c-1.145,0.65-2.504,1.054-3.748,1.49
			c-1.444,0.508-2.8,1.104-4.187,1.752c-1.108,0.529-2.235,1.02-3.38,1.467c0.686-0.274,1.319-0.689,1.984-1.015
			c1.717-0.849,3.644-1.342,5.492-1.821c-0.511-0.462-1.056-0.399-1.637,0.188c-1.151,0.471-2.297,0.951-3.452,1.413
			c-0.758,0.298-1.524,0.575-2.3,0.83c-2.774,0.953,0.087-0.393,0.509-0.62c0.299-0.162,0.076-0.548-0.213-0.506
			c-1.765,0.251-0.482,0.175,0.466-0.311c1.448-0.741,2.862-1.551,4.283-2.341c0.355-0.195,0.711-0.391,1.067-0.587
			c1.021-0.095,1.31-0.458,0.864-1.087c-1.378,0.734-2.766,1.438-4.181,2.1c0.32-0.149-3.044,1.268-3.097,1.307
			c1.255-0.92,2.664-1.635,4.042-2.346c2.418-1.246,4.941-2.279,7.369-3.512c0.239-0.122,0.133-0.536-0.14-0.515
			c-3.103,0.246-5.869,1.501-8.771,2.539c-3.979,1.421-0.752,0.097,1.39-0.657c1.571-0.555,3.132-1.074,4.663-1.735
			c0.252-0.108,0.127-0.536-0.139-0.514c-1.887,0.16-3.655,0.64-5.479,1.149c-0.854,0.238-3.499,0.789-0.151-0.501
			c0.787-0.303,1.596-0.547,2.385-0.845c0.331-0.123,0.188-0.659-0.146-0.531c-1.92,0.721-3.886,1.194-5.467,2.56
			c-0.174,0.149-0.042,0.497,0.195,0.471c2.245-0.254,4.364-0.946,6.554-1.473c-2.442,0.587-4.958,1.679-7.155,2.895
			c-0.293,0.163-0.08,0.551,0.213,0.504c1.902-0.309,3.653-0.903,5.451-1.588c1.661-0.633,3.733-0.923,5.293-1.715
			c-3.844,1.95-7.821,3.458-11.326,6.027c-0.243,0.177-0.108,0.589,0.212,0.503c3.406-0.9,6.465-2.528,9.56-4.176
			c0.315-0.167,0.037-0.641-0.279-0.475c-3.239,1.698-6.388,3.56-9.678,5.159c-0.308,0.151-0.07,0.546,0.213,0.505
			c2.019-0.287-0.115,0.326-0.914,1.015c-0.22,0.188,0.016,0.523,0.269,0.46c3.579-0.884,6.901-2.443,10.324-3.781
			c0.326-0.127,0.206-0.618-0.147-0.531c-3.292,0.793-6.862,1.707-9.432,4.034c-0.202,0.183,0.008,0.553,0.269,0.462
			c2.688-0.916,5.159-2.283,7.808-3.288c2.259-0.855,4.466-1.499,6.453-2.916c0.198-0.141,0.162-0.549-0.139-0.515
			c-2.664,0.31-5.03,1.301-7.411,2.491c-1.674,0.836-3.286,1.8-4.925,2.698c0.455,0.565,0.954,0.469,1.495-0.294
			c1.096-0.64,2.218-1.22,3.354-1.787c1.11-0.542,2.254-0.987,3.437-1.337c0.975,0.175,1.351-0.052,1.127-0.678
			c-1.493,0.466-2.935,1.125-4.358,1.765c-2.331,1.048-4.94,1.992-6.506,4.101c-0.158,0.214,0.102,0.449,0.312,0.406
			c4.15-0.832,7.501-3.379,11.17-5.332c3.699-1.968-1.715,0.812-1.627,0.776c-1.045,0.434-2.122,0.801-3.185,1.188
			c-2.167,0.787-4.231,1.659-6.202,2.865c-0.307,0.186-0.039,0.635,0.279,0.476c4.757-2.359,9.41-4.917,14.368-6.842
			c-0.095-0.127-0.19-0.257-0.286-0.385c-0.816,0.359-1.632,0.715-2.449,1.071c-1.624,0.707-3.253,1.4-4.887,2.085
			c-1.243,0.521-2.496,1.018-3.75,1.513c-0.725,0.287-3.844,2.14-2.126,0.499c1.793-1.715,3.939-3.055,6.08-4.289
			c0.944-0.544,1.933-1.006,2.919-1.464c0.914-0.413,1.845-0.778,2.794-1.094c-0.448-0.583-0.994-0.544-1.636,0.113
			c-1.996,0.791-3.955,1.674-5.917,2.547c-1.156,0.514-2.312,1.03-3.469,1.538c-4.467,1.963-1.414,0.97,0.094,0.231
			c2.625-1.287,5.374-2.318,8.128-3.292c1.685-0.594,1.334-1.002-0.212-0.445c-1.215,0.44-2.394,0.939-3.569,1.469
			c-1.141,0.512-2.231,1.147-3.331,1.739c-0.29,0.158-3.958,2.273-1.427,0.73c2.146-1.307,4.674-2.068,6.928-3.189
			c1.395-0.693,2.769-1.348,4.222-1.92c-0.049-0.146-0.101-0.296-0.151-0.442c-0.392,0.166-0.781,0.337-1.167,0.516
			c-2.971,1.316-5.792,2.93-8.792,4.191c-0.382,0.163-3.561,1.8-1.436,0.288c0.916-0.652,1.926-1.182,2.91-1.722
			c2.336-1.283,4.756-2.383,7.038-3.768c0.263-0.16,0.092-0.607-0.212-0.505c-2.796,0.916-5.516,2.04-8.305,2.977
			c-0.17,0.057-2.383,0.776-2.32,0.737c1.401-0.882,2.828-1.705,4.295-2.474c0.318-0.165,0.039-0.631-0.279-0.476
			c-1.459,0.713-2.915,1.415-4.333,2.212c-0.271,0.151-0.088,0.605,0.213,0.504c1.027-0.339,2.375-0.808,3.124-1.299
			c-1.193,0.78-2.437,1.463-3.613,2.269c-0.27,0.186-0.094,0.553,0.212,0.505c1.577-0.24,3.329-0.501,4.792-1.169
			c-1.537,0.703-3.108,1.323-4.636,2.046c-0.324,0.155-0.042,0.624,0.279,0.479c1.364-0.624,2.724-1.236,4.113-1.804
			c1.197-0.488,1.656-1.188-0.062-0.525c-1.04,0.4-2.063,0.815-3.119,1.176c1.072-0.368,3.045-1.337,4.29-1.839
			c-0.037-0.149-0.074-0.296-0.11-0.443c-0.675,0.322-1.352,0.637-2.035,0.944c0.387-0.177-4.792,2.411-2.271,0.562
			c1.707-1.251,3.547-2.249,5.15-3.645c0.222-0.194-0.018-0.518-0.269-0.462c-1.632,0.354-3.94,0.895-5.36,1.792
			c0.591-0.374,4.771-2.39,1.764-1.227c-1.021,0.395-1.114,0.451-2.093,0.939c-0.306,0.151-0.072,0.544,0.212,0.503
			c0.815-0.065,1.611-0.231,2.385-0.494c0.873,0.112,1.266-0.149,1.182-0.782c-1.352,0.624-2.57,1.192-3.743,2.104
			c-0.225,0.177,0.019,0.54,0.269,0.462c1.952-0.593,3.832-1.304,5.688-2.147c0.294-0.132,0.082-0.579-0.212-0.503
			c-1.809,0.456-3.459,0.995-4.951,2.145c-0.245,0.19-0.11,0.57,0.212,0.505c2.204-0.44,4.27-1.086,6.334-1.961
			c0.309-0.132,0.072-0.558-0.212-0.506c-2.624,0.465-5.119,1.21-7.347,2.7c-0.269,0.18-0.095,0.558,0.212,0.504
			c1.655-0.292,3.214-0.726,4.805-1.267c0.773-0.278,1.543-0.565,2.312-0.857c1.04,0.047,1.372-0.246,0.994-0.877
			c-2.714,1.138-5.451,2.218-8.139,3.417c-0.286,0.127-0.076,0.629,0.212,0.506c2.883-1.214,5.679-2.621,8.693-3.496
			c1.43-0.538,1.5-0.51,0.209,0.084c-0.974,0.438-1.97,0.814-2.989,1.127c-0.708,0.22-1.424,0.419-2.143,0.601
			c-0.354,0.083-0.708,0.17-1.061,0.255c-1.066-0.089-1.312,0.114-0.733,0.609c1.583-0.497,3.139-1.08,4.715-1.597
			c0.786-0.252,1.579-0.477,2.381-0.669c1.398-0.367,1.695-0.724,0.127-0.1c-2.863,1.137-5.71,2.169-8.398,3.694
			c-0.275,0.153-0.09,0.589,0.213,0.503c3.189-0.9,5.986-2.674,9.081-3.826c3.149-1.171-1.633,0.626-1.708,0.655
			c-1.656,0.611-3.404,0.987-5.125,1.352c0.373,0.587,0.889,0.603,1.549,0.045c0.778-0.229,1.551-0.462,2.324-0.704
			c0.756-0.236,5.87-2.439,2.765-1.715c-3.468,0.806-6.75,2.555-10.046,3.847C279.13,107.05,279.273,107.586,279.605,107.455
			L279.605,107.455z"/>
	</g>
	<g>
		<path d="M161.165,143.192c0.367-1.315,0.898-2.045,2.321-1.421c0.646,0.285,1.209-0.669,0.557-0.955
			c-0.752-0.33-1.724-0.687-2.509-0.227c-0.847,0.499-1.184,1.407-1.437,2.31C159.905,143.585,160.972,143.879,161.165,143.192
			L161.165,143.192z"/>
	</g>
	<g>
		<g>
			<g>
				<path d="M191.881,214.798c-2.794,2.3-5.588,4.599-8.382,6.9c-0.551,0.453,0.236,1.231,0.782,0.782
					c2.794-2.3,5.587-4.599,8.382-6.9C193.214,215.126,192.427,214.348,191.881,214.798L191.881,214.798z"/>
			</g>
			<g>
				<path d="M178.257,211.125c-2.69,2.212-5.376,4.429-8.066,6.639c-0.552,0.454,0.235,1.231,0.781,0.782
					c2.691-2.21,5.377-4.427,8.067-6.639C179.589,211.454,178.803,210.675,178.257,211.125L178.257,211.125z"/>
			</g>
			<g>
				<path d="M170.163,219.125c4.417,1.246,8.833,2.493,13.25,3.742c0.688,0.195,0.979-0.873,0.294-1.067
					c-4.417-1.246-8.833-2.493-13.25-3.741C169.769,217.863,169.477,218.93,170.163,219.125L170.163,219.125z"/>
			</g>
			<g>
				<path d="M178.85,211.955c4.566,1.167,9.132,2.333,13.698,3.5c0.691,0.177,0.985-0.89,0.293-1.067
					c-4.565-1.167-9.131-2.333-13.697-3.5C178.453,210.71,178.159,211.777,178.85,211.955L178.85,211.955z"/>
			</g>
		</g>
		<g>
			<g>
				<path d="M216.205,221.663c-2.795,2.298-5.588,4.599-8.381,6.9c-0.551,0.454,0.237,1.231,0.782,0.782
					c2.793-2.301,5.586-4.602,8.381-6.9C217.537,221.991,216.751,221.214,216.205,221.663L216.205,221.663z"/>
			</g>
			<g>
				<path d="M202.58,217.988c-2.69,2.212-5.377,4.429-8.066,6.643c-0.551,0.454,0.237,1.231,0.782,0.783
					c2.69-2.215,5.377-4.431,8.067-6.644C203.914,218.317,203.127,217.539,202.58,217.988L202.58,217.988z"/>
			</g>
			<g>
				<path d="M194.488,225.99c4.417,1.247,8.832,2.494,13.249,3.742c0.688,0.194,0.98-0.873,0.294-1.067
					c-4.416-1.247-8.832-2.495-13.249-3.742C194.094,224.729,193.802,225.795,194.488,225.99L194.488,225.99z"/>
			</g>
			<g>
				<path d="M203.175,218.818c4.566,1.167,9.132,2.331,13.696,3.502c0.692,0.177,0.984-0.891,0.294-1.067
					c-4.564-1.171-9.13-2.335-13.696-3.502C202.778,217.574,202.484,218.641,203.175,218.818L203.175,218.818z"/>
			</g>
		</g>
		<g>
			<g>
				<path d="M237.45,228.23c-2.793,2.299-5.585,4.602-8.381,6.898c-0.552,0.453,0.235,1.231,0.782,0.782
					c2.795-2.296,5.588-4.599,8.381-6.897C238.783,228.559,237.995,227.781,237.45,228.23L237.45,228.23z"/>
			</g>
			<g>
				<path d="M223.826,224.556c-2.689,2.214-5.379,4.429-8.067,6.643c-0.551,0.454,0.237,1.231,0.782,0.782
					c2.688-2.214,5.378-4.428,8.068-6.643C225.159,224.884,224.372,224.106,223.826,224.556L223.826,224.556z"/>
			</g>
			<g>
				<path d="M215.731,232.56c4.417,1.244,8.834,2.491,13.25,3.741c0.688,0.195,0.979-0.872,0.294-1.067
					c-4.416-1.249-8.834-2.496-13.25-3.742C215.337,231.297,215.045,232.365,215.731,232.56L215.731,232.56z"/>
			</g>
			<g>
				<path d="M224.421,225.387c4.566,1.165,9.131,2.331,13.695,3.5c0.691,0.177,0.984-0.89,0.293-1.067
					c-4.564-1.169-9.129-2.335-13.695-3.5C224.023,224.143,223.73,225.21,224.421,225.387L224.421,225.387z"/>
			</g>
		</g>
		<g>
			<g>
				<path d="M170.162,209.162c-2.604,2.214-5.163,4.482-7.766,6.697c-0.545,0.462,0.242,1.242,0.782,0.782
					c2.603-2.215,5.162-4.483,7.766-6.697C171.488,209.481,170.702,208.701,170.162,209.162L170.162,209.162z"/>
			</g>
			<g>
				<path d="M156.726,205.465c-2.508,2.109-5.146,4.053-7.654,6.161c-0.546,0.46,0.24,1.238,0.782,0.783
					c2.508-2.109,5.146-4.053,7.654-6.161C158.055,205.787,157.268,205.009,156.726,205.465L156.726,205.465z"/>
			</g>
			<g>
				<path d="M149.04,212.823c4.422,1.257,8.786,2.707,13.206,3.968c0.688,0.197,0.979-0.87,0.294-1.067
					c-4.421-1.261-8.785-2.711-13.207-3.968C148.646,211.561,148.355,212.628,149.04,212.823L149.04,212.823z"/>
			</g>
			<g>
				<path d="M157.146,206.21c4.538,1.162,9.055,2.407,13.592,3.571c0.692,0.177,0.985-0.89,0.294-1.067
					c-4.538-1.163-9.054-2.409-13.593-3.571C156.749,204.966,156.456,206.033,157.146,206.21L157.146,206.21z"/>
			</g>
		</g>
		<g>
			<g>
				<path d="M148.246,203.283c-2.769,1.994-5.61,3.885-8.38,5.879c-0.573,0.412-0.022,1.372,0.558,0.955
					c2.771-1.992,5.611-3.882,8.379-5.878C149.377,203.826,148.825,202.864,148.246,203.283L148.246,203.283z"/>
			</g>
			<g>
				<path d="M134.704,198.954c-2.729,1.97-5.452,3.946-8.178,5.919c-0.572,0.415-0.021,1.375,0.558,0.955
					c2.728-1.972,5.451-3.949,8.178-5.919C135.833,199.496,135.283,198.535,134.704,198.954L134.704,198.954z"/>
			</g>
			<g>
				<path d="M126.658,205.884c4.439,1.452,8.899,2.839,13.34,4.288c0.679,0.223,0.969-0.847,0.294-1.067
					c-4.441-1.45-8.901-2.836-13.34-4.289C126.272,204.595,125.982,205.664,126.658,205.884L126.658,205.884z"/>
			</g>
			<g>
				<path d="M134.835,199.965c4.517,1.357,9.033,2.711,13.55,4.068c0.685,0.205,0.975-0.862,0.293-1.067
					c-4.516-1.354-9.033-2.71-13.549-4.068C134.445,198.692,134.154,199.76,134.835,199.965L134.835,199.965z"/>
			</g>
		</g>
	</g>
	<g>
		<g>
			<g>
				<path d="M176.527,227.617c-2.792,2.3-5.587,4.597-8.381,6.896c-0.552,0.453,0.235,1.231,0.782,0.782
					c2.795-2.296,5.589-4.595,8.381-6.896C177.86,227.945,177.072,227.167,176.527,227.617L176.527,227.617z"/>
			</g>
			<g>
				<path d="M162.903,223.944c-2.689,2.212-5.377,4.426-8.067,6.638c-0.551,0.454,0.236,1.231,0.782,0.783
					c2.689-2.212,5.378-4.427,8.068-6.639C164.237,224.272,163.45,223.495,162.903,223.944L162.903,223.944z"/>
			</g>
			<g>
				<path d="M154.809,231.946c4.417,1.244,8.833,2.491,13.25,3.739c0.688,0.195,0.979-0.872,0.293-1.067
					c-4.417-1.246-8.833-2.493-13.25-3.74C154.415,230.685,154.123,231.751,154.809,231.946L154.809,231.946z"/>
			</g>
			<g>
				<path d="M163.497,224.771c4.566,1.167,9.132,2.331,13.697,3.502c0.691,0.177,0.984-0.891,0.293-1.067
					c-4.565-1.171-9.13-2.335-13.696-3.502C163.1,223.527,162.806,224.594,163.497,224.771L163.497,224.771z"/>
			</g>
		</g>
		<g>
			<g>
				<path d="M200.851,234.482c-2.793,2.301-5.587,4.6-8.382,6.896c-0.552,0.454,0.236,1.231,0.783,0.782
					c2.795-2.297,5.589-4.595,8.382-6.896C202.184,234.811,201.396,234.033,200.851,234.482L200.851,234.482z"/>
			</g>
			<g>
				<path d="M187.226,230.81c-2.689,2.212-5.378,4.424-8.068,6.636c-0.552,0.454,0.235,1.231,0.783,0.782
					c2.689-2.212,5.377-4.424,8.067-6.636C188.559,231.138,187.772,230.36,187.226,230.81L187.226,230.81z"/>
			</g>
			<g>
				<path d="M179.131,238.807c4.417,1.249,8.835,2.493,13.251,3.741c0.688,0.195,0.98-0.872,0.294-1.067
					c-4.417-1.249-8.835-2.493-13.252-3.742C178.737,237.545,178.445,238.612,179.131,238.807L179.131,238.807z"/>
			</g>
			<g>
				<path d="M187.822,231.64c4.564,1.164,9.13,2.329,13.694,3.499c0.692,0.177,0.984-0.89,0.294-1.067
					c-4.563-1.171-9.128-2.335-13.694-3.5C187.425,230.395,187.131,231.462,187.822,231.64L187.822,231.64z"/>
			</g>
		</g>
		<g>
			<g>
				<path d="M222.097,241.049c-2.795,2.299-5.589,4.6-8.383,6.9c-0.551,0.454,0.237,1.231,0.782,0.782
					c2.795-2.298,5.589-4.6,8.383-6.9C223.429,241.378,222.643,240.6,222.097,241.049L222.097,241.049z"/>
			</g>
			<g>
				<path d="M208.471,237.375c-2.689,2.214-5.377,4.429-8.067,6.643c-0.551,0.454,0.236,1.231,0.782,0.782
					c2.689-2.212,5.378-4.429,8.066-6.643C209.803,237.703,209.016,236.925,208.471,237.375L208.471,237.375z"/>
			</g>
			<g>
				<path d="M200.378,245.379c4.417,1.249,8.833,2.493,13.25,3.741c0.688,0.195,0.979-0.873,0.294-1.067
					c-4.416-1.249-8.833-2.493-13.25-3.741C199.983,244.117,199.692,245.184,200.378,245.379L200.378,245.379z"/>
			</g>
			<g>
				<path d="M209.064,238.204c4.566,1.169,9.132,2.333,13.698,3.502c0.691,0.177,0.984-0.89,0.293-1.067
					c-4.566-1.168-9.131-2.333-13.697-3.501C208.667,236.96,208.375,238.027,209.064,238.204L209.064,238.204z"/>
			</g>
		</g>
		<g>
			<g>
				<path d="M154.808,221.981c-2.605,2.211-5.163,4.48-7.766,6.695c-0.544,0.462,0.242,1.242,0.782,0.782
					c2.604-2.214,5.161-4.483,7.766-6.695C156.134,222.3,155.348,221.522,154.808,221.981L154.808,221.981z"/>
			</g>
			<g>
				<path d="M141.373,218.284c-2.508,2.109-5.146,4.053-7.654,6.161c-0.546,0.46,0.24,1.238,0.782,0.782
					c2.508-2.108,5.146-4.053,7.654-6.161C142.701,218.606,141.915,217.829,141.373,218.284L141.373,218.284z"/>
			</g>
			<g>
				<path d="M133.685,225.643c4.421,1.261,8.786,2.707,13.208,3.963c0.687,0.195,0.979-0.872,0.294-1.067
					c-4.423-1.257-8.788-2.703-13.208-3.964C133.292,224.378,133,225.448,133.685,225.643L133.685,225.643z"/>
			</g>
			<g>
				<path d="M141.792,219.027c4.538,1.165,9.055,2.409,13.592,3.573c0.692,0.177,0.984-0.89,0.294-1.067
					c-4.538-1.165-9.055-2.409-13.593-3.574C141.395,217.783,141.102,218.85,141.792,219.027L141.792,219.027z"/>
			</g>
		</g>
		<g>
			<g>
				<path d="M132.891,216.102c-2.77,1.994-5.612,3.885-8.378,5.88c-0.573,0.413-0.022,1.375,0.558,0.955
					c2.767-1.996,5.609-3.886,8.377-5.88C134.021,216.645,133.471,215.686,132.891,216.102L132.891,216.102z"/>
			</g>
			<g>
				<path d="M119.35,211.773c-2.726,1.974-5.452,3.944-8.178,5.919c-0.572,0.415-0.021,1.374,0.557,0.955
					c2.727-1.972,5.453-3.945,8.178-5.919C120.479,212.313,119.927,211.354,119.35,211.773L119.35,211.773z"/>
			</g>
			<g>
				<path d="M111.304,218.703c4.44,1.452,8.9,2.839,13.341,4.291c0.68,0.223,0.969-0.847,0.293-1.067
					c-4.44-1.451-8.9-2.838-13.34-4.29C110.918,217.414,110.628,218.483,111.304,218.703L111.304,218.703z"/>
			</g>
			<g>
				<path d="M119.481,212.784c4.516,1.354,9.032,2.711,13.548,4.07c0.685,0.205,0.975-0.862,0.294-1.067
					c-4.515-1.357-9.031-2.716-13.549-4.07C119.09,211.512,118.799,212.579,119.481,212.784L119.481,212.784z"/>
			</g>
		</g>
	</g>
	<g>
		<g>
			<g>
				<path d="M162.917,239.03c-2.793,2.301-5.586,4.601-8.382,6.9c-0.552,0.454,0.235,1.231,0.782,0.782
					c2.795-2.299,5.589-4.6,8.382-6.9C164.249,239.358,163.462,238.581,162.917,239.03L162.917,239.03z"/>
			</g>
			<g>
				<path d="M149.291,235.355c-2.688,2.214-5.377,4.429-8.066,6.645c-0.551,0.454,0.236,1.231,0.782,0.782
					c2.688-2.216,5.378-4.429,8.066-6.645C150.624,235.684,149.837,234.905,149.291,235.355L149.291,235.355z"/>
			</g>
			<g>
				<path d="M141.198,243.359c4.416,1.249,8.833,2.495,13.25,3.741c0.688,0.195,0.979-0.872,0.293-1.067
					c-4.417-1.246-8.834-2.491-13.25-3.741C140.804,242.097,140.513,243.164,141.198,243.359L141.198,243.359z"/>
			</g>
			<g>
				<path d="M149.887,236.189c4.564,1.167,9.131,2.329,13.696,3.497c0.691,0.177,0.984-0.89,0.294-1.067
					c-4.564-1.169-9.13-2.331-13.696-3.498C149.489,234.944,149.195,236.012,149.887,236.189L149.887,236.189z"/>
			</g>
		</g>
		<g>
			<g>
				<path d="M187.24,245.895c-2.793,2.301-5.586,4.599-8.382,6.898c-0.551,0.454,0.235,1.231,0.782,0.782
					c2.795-2.299,5.589-4.597,8.382-6.898C188.573,246.224,187.786,245.445,187.24,245.895L187.24,245.895z"/>
			</g>
			<g>
				<path d="M173.614,242.22c-2.689,2.214-5.377,4.429-8.066,6.643c-0.551,0.454,0.236,1.231,0.782,0.782
					c2.689-2.214,5.378-4.429,8.066-6.643C174.947,242.548,174.159,241.771,173.614,242.22L173.614,242.22z"/>
			</g>
			<g>
				<path d="M165.521,250.222c4.417,1.249,8.833,2.495,13.25,3.744c0.688,0.194,0.979-0.873,0.293-1.067
					c-4.417-1.247-8.833-2.496-13.25-3.744C165.127,248.96,164.836,250.027,165.521,250.222L165.521,250.222z"/>
			</g>
			<g>
				<path d="M174.211,243.052c4.565,1.167,9.129,2.333,13.694,3.501c0.691,0.177,0.984-0.89,0.293-1.067
					c-4.564-1.169-9.129-2.335-13.694-3.502C173.814,241.808,173.52,242.875,174.211,243.052L174.211,243.052z"/>
			</g>
		</g>
		<g>
			<g>
				<path d="M208.484,252.462c-2.794,2.301-5.588,4.602-8.382,6.902c-0.551,0.454,0.237,1.231,0.783,0.782
					c2.793-2.301,5.587-4.601,8.382-6.902C209.817,252.791,209.03,252.013,208.484,252.462L208.484,252.462z"/>
			</g>
			<g>
				<path d="M194.861,248.792c-2.691,2.212-5.38,4.427-8.069,6.639c-0.55,0.454,0.236,1.231,0.783,0.782
					c2.689-2.212,5.377-4.426,8.068-6.638C196.194,249.12,195.407,248.343,194.861,248.792L194.861,248.792z"/>
			</g>
			<g>
				<path d="M186.766,256.792c4.417,1.247,8.834,2.491,13.25,3.742c0.688,0.194,0.979-0.873,0.294-1.067
					c-4.416-1.249-8.833-2.496-13.25-3.742C186.372,255.53,186.08,256.597,186.766,256.792L186.766,256.792z"/>
			</g>
			<g>
				<path d="M195.455,249.619c4.564,1.167,9.13,2.331,13.694,3.502c0.692,0.177,0.984-0.89,0.294-1.067
					c-4.564-1.17-9.129-2.335-13.695-3.501C195.057,248.375,194.763,249.442,195.455,249.619L195.455,249.619z"/>
			</g>
		</g>
		<g>
			<g>
				<path d="M141.196,233.394c-2.605,2.212-5.161,4.482-7.766,6.695c-0.544,0.462,0.242,1.24,0.782,0.781
					c2.605-2.212,5.161-4.482,7.767-6.694C142.523,233.713,141.737,232.935,141.196,233.394L141.196,233.394z"/>
			</g>
			<g>
				<path d="M127.761,229.699c-2.508,2.109-5.146,4.055-7.653,6.163c-0.547,0.46,0.24,1.238,0.782,0.782
					c2.507-2.108,5.145-4.055,7.653-6.164C129.089,230.021,128.303,229.244,127.761,229.699L127.761,229.699z"/>
			</g>
			<g>
				<path d="M120.076,237.058c4.42,1.254,8.784,2.707,13.206,3.962c0.687,0.194,0.979-0.873,0.293-1.067
					c-4.422-1.253-8.783-2.705-13.206-3.962C119.682,235.795,119.391,236.863,120.076,237.058L120.076,237.058z"/>
			</g>
			<g>
				<path d="M128.182,230.445c4.538,1.16,9.054,2.406,13.591,3.568c0.691,0.177,0.984-0.89,0.293-1.067
					c-4.538-1.162-9.053-2.409-13.591-3.569C127.784,229.2,127.491,230.267,128.182,230.445L128.182,230.445z"/>
			</g>
		</g>
		<g>
			<g>
				<path d="M119.279,227.52c-2.77,1.994-5.612,3.88-8.379,5.875c-0.573,0.413-0.021,1.373,0.558,0.955
					c2.768-1.994,5.61-3.882,8.379-5.875C120.41,228.062,119.859,227.103,119.279,227.52L119.279,227.52z"/>
			</g>
			<g>
				<path d="M105.738,223.188c-2.728,1.97-5.453,3.946-8.177,5.921c-0.573,0.415-0.021,1.374,0.557,0.955
					c2.726-1.975,5.449-3.949,8.176-5.922C106.868,223.73,106.317,222.769,105.738,223.188L105.738,223.188z"/>
			</g>
			<g>
				<path d="M97.693,230.121c4.44,1.447,8.899,2.836,13.34,4.286c0.68,0.222,0.969-0.847,0.293-1.067
					c-4.44-1.447-8.899-2.839-13.34-4.286C97.306,228.831,97.018,229.9,97.693,230.121L97.693,230.121z"/>
			</g>
			<g>
				<path d="M105.87,224.199c4.517,1.354,9.033,2.709,13.549,4.07c0.684,0.205,0.975-0.862,0.293-1.067
					c-4.515-1.359-9.032-2.716-13.549-4.07C105.479,222.927,105.188,223.994,105.87,224.199L105.87,224.199z"/>
			</g>
		</g>
	</g>
</g>
</svg>
