<?xml version="1.0" encoding="utf-8"?>
<!-- Generator: Adobe Illustrator 15.1.0, SVG Export Plug-In . SVG Version: 6.00 Build 0)  -->
<!DOCTYPE svg PUBLIC "-//W3C//DTD SVG 1.1//EN" "http://www.w3.org/Graphics/SVG/1.1/DTD/svg11.dtd">
<svg version="1.1" id="Layer_1" xmlns="http://www.w3.org/2000/svg" xmlns:xlink="http://www.w3.org/1999/xlink" x="0px" y="0px"
	 width="416.592px" height="358.088px" viewBox="0 0 416.592 358.088" enable-background="new 0 0 416.592 358.088"
	 xml:space="preserve">
<g>
	<g>
		<g>
			<path d="M106.238,344.09c0-108.501,0-217.003,0-325.504c0-1.67-2.589-1.67-2.589,0c0,108.501,0,217.003,0,325.504
				C103.649,345.759,106.238,345.759,106.238,344.09L106.238,344.09z"/>
		</g>
		<g>
			<path d="M104.836,19.665c2.732,0,5.464,0,8.196,0c1.67,0,1.67-2.588,0-2.588c-2.732,0-5.464,0-8.196,0
				C103.167,17.076,103.167,19.665,104.836,19.665L104.836,19.665z"/>
		</g>
		<g>
			<path d="M114.651,344.09c0-108.575-0.04-217.149-0.324-325.719c-0.004-1.668-2.592-1.67-2.588,0
				c0.284,108.569,0.323,217.145,0.323,325.719C112.062,345.759,114.651,345.759,114.651,344.09L114.651,344.09z"/>
		</g>
		<g>
			<path d="M104.944,345.384c2.805-0.026,5.608-0.056,8.413-0.081c1.668-0.018,1.669-2.604,0-2.588
				c-2.805,0.025-5.608,0.054-8.413,0.08C103.275,342.812,103.274,345.4,104.944,345.384L104.944,345.384z"/>
		</g>
	</g>
	<g>
		<g>
			<path d="M304.906,344.09c0-108.501,0-217.003,0-325.504c0-1.67-2.588-1.67-2.588,0c0,108.501,0,217.003,0,325.504
				C302.317,345.759,304.906,345.759,304.906,344.09L304.906,344.09z"/>
		</g>
		<g>
			<path d="M303.504,19.665c2.732,0,5.464,0,8.197,0c1.669,0,1.669-2.588,0-2.588c-2.733,0-5.464,0-8.197,0
				C301.834,17.076,301.834,19.665,303.504,19.665L303.504,19.665z"/>
		</g>
		<g>
			<path d="M313.318,344.09c0-108.575-0.039-217.149-0.324-325.719c-0.004-1.668-2.592-1.67-2.588,0
				c0.284,108.569,0.324,217.145,0.324,325.719C310.73,345.759,313.318,345.759,313.318,344.09L313.318,344.09z"/>
		</g>
		<g>
			<path d="M303.611,345.384c2.805-0.026,5.608-0.056,8.413-0.081c1.668-0.018,1.67-2.604,0-2.588
				c-2.805,0.025-5.608,0.054-8.413,0.08C301.943,342.812,301.942,345.4,303.611,345.384L303.611,345.384z"/>
		</g>
	</g>
	<g>
		<path d="M114.005,85.886c62.844,0,125.686,0,188.528,0c1.67,0,1.67-2.588,0-2.588c-62.843,0-125.685,0-188.528,0
			C112.335,83.298,112.335,85.886,114.005,85.886L114.005,85.886z"/>
	</g>
	<g>
		<path d="M114.005,93.868c62.844,0,125.686,0,188.528,0c1.67,0,1.67-2.59,0-2.59c-62.843,0-125.685,0-188.528,0
			C112.335,91.279,112.335,93.868,114.005,93.868L114.005,93.868z"/>
	</g>
	<g>
		<path d="M114.005,166.13c62.844,0,125.686,0,188.528,0c1.67,0,1.67-2.588,0-2.588c-62.843,0-125.685,0-188.528,0
			C112.335,163.542,112.335,166.13,114.005,166.13L114.005,166.13z"/>
	</g>
	<g>
		<path d="M114.005,174.112c62.844,0,125.686,0,188.528,0c1.67,0,1.67-2.589,0-2.589c-62.843,0-125.685,0-188.528,0
			C112.335,171.523,112.335,174.112,114.005,174.112L114.005,174.112z"/>
	</g>
	<g>
		<path d="M114.005,249.043c62.844,0,125.686,0,188.528,0c1.67,0,1.67-2.588,0-2.588c-62.843,0-125.685,0-188.528,0
			C112.335,246.455,112.335,249.043,114.005,249.043L114.005,249.043z"/>
	</g>
	<g>
		<path d="M114.005,257.024c62.844,0,125.686,0,188.528,0c1.67,0,1.67-2.588,0-2.588c-62.843,0-125.685,0-188.528,0
			C112.335,254.436,112.335,257.024,114.005,257.024L114.005,257.024z"/>
	</g>
	<g>
		<path d="M114.005,327.695c62.844,0,125.686,0,188.528,0c1.67,0,1.67-2.589,0-2.589c-62.843,0-125.685,0-188.528,0
			C112.335,325.106,112.335,327.695,114.005,327.695L114.005,327.695z"/>
	</g>
	<g>
		<path d="M114.005,335.677c62.844,0,125.686,0,188.528,0c1.67,0,1.67-2.589,0-2.589c-62.843,0-125.685,0-188.528,0
			C112.335,333.088,112.335,335.677,114.005,335.677L114.005,335.677z"/>
	</g>
	<g>
		<g>
			<path d="M142.315,83.459c0-14.453,0-28.904,0-43.357c0-1.669-2.588-1.669-2.588,0c0,14.453,0,28.905,0,43.357
				C139.727,85.129,142.315,85.129,142.315,83.459L142.315,83.459z"/>
		</g>
		<g>
			<path d="M141.668,41.073c5.501,0,11.001,0,16.502,0c1.669,0,1.669-2.588,0-2.588c-5.5,0-11.001,0-16.502,0
				C139.999,38.484,139.999,41.073,141.668,41.073L141.668,41.073z"/>
		</g>
		<g>
			<path d="M157.199,40.426c0,14.668,0,29.337,0,44.004c0,1.67,2.588,1.67,2.588,0c0-14.667,0-29.336,0-44.004
				C159.788,38.756,157.199,38.756,157.199,40.426L157.199,40.426z"/>
		</g>
	</g>
	<g>
		<g>
			<path d="M190.526,83.136c0-14.453,0-28.905,0-43.357c0-1.67-2.589-1.67-2.589,0c0,14.453,0,28.904,0,43.357
				C187.938,84.806,190.526,84.806,190.526,83.136L190.526,83.136z"/>
		</g>
		<g>
			<path d="M189.879,40.75c5.501,0,11.001,0,16.502,0c1.669,0,1.669-2.589,0-2.589c-5.5,0-11.001,0-16.502,0
				C188.209,38.161,188.209,40.75,189.879,40.75L189.879,40.75z"/>
		</g>
		<g>
			<path d="M205.41,40.102c0,14.668,0,29.337,0,44.005c0,1.669,2.588,1.669,2.588,0c0-14.668,0-29.337,0-44.005
				C207.999,38.433,205.41,38.433,205.41,40.102L205.41,40.102z"/>
		</g>
	</g>
	<g>
		<g>
			<path d="M233.236,82.416c0-15.553,0-31.104,0-46.656c0-1.669-2.588-1.669-2.588,0c0,15.553,0,31.104,0,46.656
				C230.648,84.085,233.236,84.085,233.236,82.416L233.236,82.416z"/>
		</g>
		<g>
			<path d="M232.589,36.705c5.5,0,11.001,0,16.501,0c1.671,0,1.671-2.588,0-2.588c-5.5,0-11.001,0-16.501,0
				C230.92,34.116,230.92,36.705,232.589,36.705L232.589,36.705z"/>
		</g>
		<g>
			<path d="M248.121,36.107c0,15.784,0,31.569,0,47.354c0,1.67,2.588,1.67,2.588,0c0-15.784,0-31.569,0-47.354
				C250.709,34.438,248.121,34.438,248.121,36.107L248.121,36.107z"/>
		</g>
	</g>
	<g>
		<g>
			<path d="M216.411,163.746c0-16.232,0-32.467,0-48.699c0-1.669-2.588-1.669-2.588,0c0,16.231,0,32.466,0,48.699
				C213.823,165.416,216.411,165.416,216.411,163.746L216.411,163.746z"/>
		</g>
		<g>
			<path d="M215.938,115.978c6.978,0,13.955,0,20.933,0c1.67,0,1.67-2.588,0-2.588c-6.978,0-13.955,0-20.933,0
				C214.268,113.389,214.268,115.978,215.938,115.978L215.938,115.978z"/>
		</g>
		<g>
			<path d="M235.987,115.41c0,16.475,0,32.949,0,49.426c0,1.669,2.588,1.669,2.588,0c0-16.477,0-32.951,0-49.426
				C238.575,113.741,235.987,113.741,235.987,115.41L235.987,115.41z"/>
		</g>
	</g>
	<g>
		<g>
			<path d="M207.999,245.708c0-20.763,0-41.525,0-62.287c0-1.67-2.588-1.67-2.588,0c0,20.762,0,41.524,0,62.287
				C205.41,247.377,207.999,247.377,207.999,245.708L207.999,245.708z"/>
		</g>
		<g>
			<path d="M207.524,184.25c6.979,0,13.955,0,20.933,0c1.67,0,1.67-2.588,0-2.588c-6.978,0-13.955,0-20.933,0
				C205.855,181.661,205.855,184.25,207.524,184.25L207.524,184.25z"/>
		</g>
		<g>
			<path d="M227.574,183.884c0,21.072,0,42.145,0,63.217c0,1.669,2.588,1.669,2.588,0c0-21.072,0-42.146,0-63.217
				C230.163,182.214,227.574,182.214,227.574,183.884L227.574,183.884z"/>
		</g>
	</g>
	<g>
		<g>
			<path d="M230.314,246.673c0-13.303,0-26.604,0-39.907c0-1.669-2.589-1.669-2.589,0c0,13.303,0,26.604,0,39.907
				C227.726,248.343,230.314,248.343,230.314,246.673L230.314,246.673z"/>
		</g>
		<g>
			<path d="M229.562,207.762c4.603,0,9.208,0,13.811,0c1.67,0,1.67-2.588,0-2.588c-4.603,0-9.208,0-13.811,0
				C227.893,205.174,227.893,207.762,229.562,207.762L229.562,207.762z"/>
		</g>
		<g>
			<path d="M242.351,207.063c0,13.501,0,27.002,0,40.504c0,1.669,2.588,1.669,2.588,0c0-13.501,0-27.002,0-40.504
				C244.939,205.394,242.351,205.394,242.351,207.063L242.351,207.063z"/>
		</g>
	</g>
	<g>
		<g>
			<path d="M184.885,246.616c-5.881-10.139-11.763-20.276-17.646-30.414c-0.836-1.442-3.074-0.141-2.234,1.307
				c5.883,10.138,11.764,20.276,17.646,30.414C183.487,249.365,185.725,248.063,184.885,246.616L184.885,246.616z"/>
		</g>
		<g>
			<path d="M167.12,217.459c3.927-2.031,7.854-4.065,11.78-6.098c1.481-0.767,0.173-3-1.308-2.234
				c-3.926,2.033-7.853,4.064-11.779,6.097C164.33,215.992,165.64,218.225,167.12,217.459L167.12,217.459z"/>
		</g>
		<g>
			<path d="M177.614,211.051c6.833,12.202,13.664,24.404,20.497,36.604c0.814,1.456,3.051,0.152,2.235-1.307
				c-6.832-12.202-13.665-24.404-20.497-36.604C179.033,208.288,176.797,209.592,177.614,211.051L177.614,211.051z"/>
		</g>
	</g>
	<g>
		<g>
			<path d="M168.094,245.791c-6.182-10.714-12.361-21.431-18.544-32.146c-0.833-1.443-3.069-0.142-2.234,1.308
				c6.181,10.715,12.363,21.43,18.543,32.145C166.692,248.542,168.93,247.239,168.094,245.791L168.094,245.791z"/>
		</g>
		<g>
			<path d="M149.424,214.887c3.928-2.032,7.854-4.064,11.779-6.097c1.483-0.768,0.173-3-1.307-2.234
				c-3.926,2.032-7.854,4.064-11.78,6.097C146.634,213.419,147.943,215.653,149.424,214.887L149.424,214.887z"/>
		</g>
		<g>
			<path d="M159.927,208.497c7.188,12.891,14.378,25.78,21.566,38.673c0.813,1.457,3.049,0.152,2.235-1.308
				c-7.189-12.891-14.378-25.78-21.568-38.673C161.349,205.732,159.113,207.037,159.927,208.497L159.927,208.497z"/>
		</g>
	</g>
	<g>
		<g>
			<path d="M151.931,245.725c-6.375-11.091-12.751-22.183-19.128-33.273c-0.832-1.446-3.069-0.144-2.235,1.307
				c6.375,11.091,12.752,22.183,19.128,33.274C150.528,248.478,152.766,247.175,151.931,245.725L151.931,245.725z"/>
		</g>
		<g>
			<path d="M132.67,213.682c3.928-2.031,7.854-4.063,11.78-6.097c1.482-0.768,0.173-3-1.307-2.234
				c-3.927,2.032-7.854,4.065-11.78,6.097C129.881,212.215,131.19,214.448,132.67,213.682L132.67,213.682z"/>
		</g>
		<g>
			<path d="M143.18,207.303c7.422,13.341,14.844,26.681,22.265,40.022c0.812,1.458,3.047,0.152,2.235-1.308
				c-7.423-13.341-14.845-26.682-22.266-40.021C144.603,204.538,142.367,205.844,143.18,207.303L143.18,207.303z"/>
		</g>
	</g>
	<g>
		<g>
			<path d="M135.72,245.863c-6.676-11.604-13.351-23.209-20.024-34.813c-0.832-1.446-3.069-0.144-2.234,1.307
				c6.676,11.604,13.351,23.209,20.024,34.815C134.317,248.616,136.554,247.312,135.72,245.863L135.72,245.863z"/>
		</g>
		<g>
			<path d="M115.563,212.279c3.927-2.03,7.853-4.063,11.778-6.097c1.483-0.767,0.174-3-1.307-2.234
				c-3.926,2.032-7.853,4.064-11.78,6.098C112.774,210.812,114.083,213.045,115.563,212.279L115.563,212.279z"/>
		</g>
		<g>
			<path d="M126.073,205.9c7.422,13.342,14.843,26.682,22.265,40.022c0.812,1.458,3.047,0.153,2.234-1.308
				c-7.421-13.34-14.843-26.681-22.265-40.021C127.496,203.135,125.26,204.44,126.073,205.9L126.073,205.9z"/>
		</g>
	</g>
	<g>
		<g>
			<path d="M185.898,220.597c0-8.109,0-16.219,0-24.328c0-1.67-2.589-1.67-2.589,0c0,8.109,0,16.218,0,24.328
				C183.309,222.267,185.898,222.267,185.898,220.597L185.898,220.597z"/>
		</g>
		<g>
			<path d="M185.146,197.192c4.604,0,9.208,0,13.811,0c1.669,0,1.669-2.588,0-2.588c-4.603,0-9.208,0-13.811,0
				C183.476,194.604,183.476,197.192,185.146,197.192L185.146,197.192z"/>
		</g>
		<g>
			<path d="M197.934,196.638c0,16.789,0,33.576,0,50.365c0,1.67,2.588,1.67,2.588,0c0-16.789,0-33.576,0-50.365
				C200.522,194.969,197.934,194.969,197.934,196.638L197.934,196.638z"/>
		</g>
	</g>
	<g>
		<g>
			<path d="M151.958,212.832c0-7.816,0-15.632,0-23.448c0-1.669-2.589-1.669-2.589,0c0,7.816,0,15.632,0,23.448
				C149.369,214.501,151.958,214.501,151.958,212.832L151.958,212.832z"/>
		</g>
		<g>
			<path d="M151.326,190.306c5.622,0,11.244,0,16.866,0c1.67,0,1.67-2.588,0-2.588c-5.622,0-11.244,0-16.866,0
				C149.656,187.718,149.656,190.306,151.326,190.306L151.326,190.306z"/>
		</g>
		<g>
			<path d="M167.229,189.752c0,7.979,0,15.959,0,23.939c0,1.67,2.589,1.67,2.589,0c0-7.979,0-15.959,0-23.939
				C169.818,188.083,167.229,188.083,167.229,189.752L167.229,189.752z"/>
		</g>
	</g>
	<g>
		<g>
			<path d="M139.337,209.517c0-4.539,0-9.078,0-13.616c0-1.67-2.588-1.67-2.588,0c0,4.539,0,9.077,0,13.616
				C136.749,211.186,139.337,211.186,139.337,209.517L139.337,209.517z"/>
		</g>
		<g>
			<path d="M138.511,196.823c3.973,0,7.944,0,11.917,0c1.67,0,1.67-2.588,0-2.588c-3.973,0-7.945,0-11.917,0
				C136.841,194.234,136.841,196.823,138.511,196.823L138.511,196.823z"/>
		</g>
		<g>
			<path d="M149.369,196.27c0,5.521,0,11.042,0,16.562c0,1.67,2.589,1.67,2.589,0c0-5.521,0-11.042,0-16.562
				C151.958,194.6,149.369,194.6,149.369,196.27L149.369,196.27z"/>
		</g>
	</g>
	<g>
		<g>
			<path d="M250.677,246.505c0-11.391,0-22.782,0-34.172c0-1.67-2.589-1.67-2.589,0c0,11.39,0,22.781,0,34.172
				C248.089,248.175,250.677,248.175,250.677,246.505L250.677,246.505z"/>
		</g>
		<g>
			<path d="M249.925,213.372c4.604,0,9.208,0,13.812,0c1.669,0,1.669-2.589,0-2.589c-4.604,0-9.208,0-13.812,0
				C248.256,210.783,248.256,213.372,249.925,213.372L249.925,213.372z"/>
		</g>
		<g>
			<path d="M262.713,212.586c0,11.561,0,23.122,0,34.683c0,1.67,2.59,1.67,2.59,0c0-11.561,0-23.122,0-34.683
				C265.302,210.917,262.713,210.917,262.713,212.586L262.713,212.586z"/>
		</g>
	</g>
	<g>
		<g>
			<path d="M187.345,304.835c0-12.492,0-24.981,0-37.474c0-1.67-2.589-1.67-2.589,0c0,12.491,0,24.981,0,37.474
				C184.756,306.504,187.345,306.504,187.345,304.835L187.345,304.835z"/>
		</g>
		<g>
			<path d="M186.593,268.377c4.604,0,9.208,0,13.812,0c1.669,0,1.669-2.588,0-2.588c-4.604,0-9.208,0-13.812,0
				C184.923,265.789,184.923,268.377,186.593,268.377L186.593,268.377z"/>
		</g>
		<g>
			<path d="M199.381,267.642c0,12.677,0,25.354,0,38.031c0,1.669,2.589,1.669,2.589,0c0-12.677,0-25.354,0-38.031
				C201.97,265.972,199.381,265.972,199.381,267.642L199.381,267.642z"/>
		</g>
	</g>
	<g>
		<g>
			<path d="M172.589,278.569c0-5.316,0-10.636,0-15.952c0-1.671-2.589-1.671-2.589,0c0,5.316,0,10.636,0,15.952
				C170,280.239,172.589,280.239,172.589,278.569L172.589,278.569z"/>
		</g>
		<g>
			<path d="M172.073,263.631c6.614,0,13.228,0,19.842,0c1.67,0,1.67-2.588,0-2.588c-6.614,0-13.228,0-19.842,0
				C170.403,261.042,170.403,263.631,172.073,263.631L172.073,263.631z"/>
		</g>
		<g>
			<path d="M191.012,262.896c0,1.396,0,2.792,0,4.188c0,1.67,2.588,1.67,2.588,0c0-1.396,0-2.792,0-4.188
				C193.6,261.226,191.012,261.226,191.012,262.896L191.012,262.896z"/>
		</g>
	</g>
	<g>
		<g>
			<path d="M165.547,305.631c0-8.955,0-17.908,0-26.863c0-1.669-2.588-1.669-2.588,0c0,8.955,0,17.909,0,26.863
				C162.959,307.301,165.547,307.301,165.547,305.631L165.547,305.631z"/>
		</g>
		<g>
			<path d="M164.795,279.862c4.604,0,9.208,0,13.812,0c1.669,0,1.669-2.588,0-2.588c-4.604,0-9.208,0-13.812,0
				C163.126,277.274,163.126,279.862,164.795,279.862L164.795,279.862z"/>
		</g>
		<g>
			<path d="M177.583,278.969c0,9.087,0,18.175,0,27.263c0,1.669,2.589,1.669,2.589,0c0-9.087,0-18.175,0-27.263
				C180.172,277.299,177.583,277.299,177.583,278.969L177.583,278.969z"/>
		</g>
	</g>
	<g>
		<g>
			<path d="M223.545,296.045c0-9.583,0-19.166,0-28.749c0-1.669-2.589-1.669-2.589,0c0,9.583,0,19.166,0,28.749
				C220.956,297.715,223.545,297.715,223.545,296.045L223.545,296.045z"/>
		</g>
		<g>
			<path d="M223.148,268.377c7.616,0,15.233,0,22.85,0c1.67,0,1.67-2.588,0-2.588c-7.616,0-15.233,0-22.85,0
				C221.479,265.789,221.479,268.377,223.148,268.377L223.148,268.377z"/>
		</g>
		<g>
			<path d="M245.154,267.511c0,9.726,0,19.451,0,29.176c0,1.67,2.589,1.67,2.589,0c0-9.726,0-19.45,0-29.176
				C247.743,265.842,245.154,265.842,245.154,267.511L245.154,267.511z"/>
		</g>
	</g>
	<g>
		<g>
			<path d="M218.758,325.652c0-9.583,0-19.166,0-28.749c0-1.67-2.588-1.67-2.588,0c0,9.583,0,19.166,0,28.749
				C216.17,327.322,218.758,327.322,218.758,325.652L218.758,325.652z"/>
		</g>
		<g>
			<path d="M217.464,298.198c25.122,0.005,50.244,0.104,75.365,0.107c1.669,0,1.669-2.588,0-2.588
				c-25.122-0.004-50.243-0.104-75.365-0.107C215.794,295.609,215.794,298.198,217.464,298.198L217.464,298.198z"/>
		</g>
		<g>
			<path d="M292.396,297.119c0,9.725,0,19.45,0,29.176c0,1.67,2.588,1.67,2.588,0c0-9.727,0-19.451,0-29.176
				C294.984,295.449,292.396,295.449,292.396,297.119L292.396,297.119z"/>
		</g>
	</g>
	<g>
		<g>
			<path d="M129.64,326.084c0-6.454,0-12.906,0-19.359c0-1.67-2.59-1.67-2.59,0c0,6.453,0,12.905,0,19.359
				C127.051,327.753,129.64,327.753,129.64,326.084L129.64,326.084z"/>
		</g>
		<g>
			<path d="M128.345,308.019c27.005,0.003,54.011,0.069,81.016,0.072c1.669,0,1.669-2.589,0-2.589
				c-27.005-0.002-54.011-0.069-81.016-0.072C126.676,305.43,126.676,308.019,128.345,308.019L128.345,308.019z"/>
		</g>
		<g>
			<path d="M208.992,306.868c0,6.55,0,13.1,0,19.646c0,1.67,2.588,1.67,2.588,0c0-6.548,0-13.098,0-19.646
				C211.581,305.2,208.992,305.2,208.992,306.868L208.992,306.868z"/>
		</g>
	</g>
	<g>
		<g>
			<path d="M247.743,295.559c0-11.278,0-22.555,0-33.833c0-1.67-2.589-1.67-2.589,0c0,11.278,0,22.554,0,33.833
				C245.154,297.229,247.743,297.229,247.743,295.559L247.743,295.559z"/>
		</g>
		<g>
			<path d="M247.021,262.769c4.854,0,9.71,0,14.564,0c1.67,0,1.67-2.588,0-2.588c-4.854,0-9.71,0-14.564,0
				C245.351,260.181,245.351,262.769,247.021,262.769L247.021,262.769z"/>
		</g>
		<g>
			<path d="M260.579,261.979c0,11.445,0,22.892,0,34.335c0,1.67,2.589,1.67,2.589,0c0-11.443,0-22.891,0-34.335
				C263.167,260.31,260.579,260.31,260.579,261.979L260.579,261.979z"/>
		</g>
	</g>
	<g>
		<g>
			<path d="M267.695,296.266c0-6.337,0-12.673,0-19.011c0-1.67-2.589-1.67-2.589,0c0,6.337,0,12.673,0,19.011
				C265.106,297.935,267.695,297.935,267.695,296.266L267.695,296.266z"/>
		</g>
		<g>
			<path d="M266.917,278.408c4.379,0,8.761,0,13.141,0c1.669,0,1.669-2.59,0-2.59c-4.379,0-8.761,0-13.141,0
				C265.248,275.819,265.248,278.408,266.917,278.408L266.917,278.408z"/>
		</g>
		<g>
			<path d="M279.022,277.396c0,6.432,0,12.863,0,19.293c0,1.67,2.588,1.67,2.588,0c0-6.431,0-12.862,0-19.293
				C281.61,275.727,279.022,275.727,279.022,277.396L279.022,277.396z"/>
		</g>
	</g>
	<g>
		<g>
			<path d="M228.909,295.461c0-6.337,0-12.673,0-19.01c0-1.671-2.588-1.671-2.588,0c0,6.337,0,12.673,0,19.01
				C226.32,297.131,228.909,297.131,228.909,295.461L228.909,295.461z"/>
		</g>
		<g>
			<path d="M228.131,277.604c4.381,0,8.761,0,13.141,0c1.67,0,1.67-2.588,0-2.588c-4.379,0-8.76,0-13.141,0
				C226.462,275.015,226.462,277.604,228.131,277.604L228.131,277.604z"/>
		</g>
		<g>
			<path d="M240.236,276.593c0,6.431,0,12.863,0,19.293c0,1.669,2.588,1.669,2.588,0c0-6.431,0-12.863,0-19.293
				C242.825,274.923,240.236,274.923,240.236,276.593L240.236,276.593z"/>
		</g>
	</g>
	<g>
		<g>
			<path d="M276.538,277.115c0-3.194,0-6.392,0-9.587c0-1.67-2.588-1.67-2.588,0c0,3.195,0,6.393,0,9.587
				C273.95,278.784,276.538,278.784,276.538,277.115L276.538,277.115z"/>
		</g>
		<g>
			<path d="M275.761,268.619c4.38,0,8.76,0,13.14,0c1.669,0,1.669-2.59,0-2.59c-4.38,0-8.76,0-13.14,0
				C274.091,266.03,274.091,268.619,275.761,268.619L275.761,268.619z"/>
		</g>
		<g>
			<path d="M287.866,267.732c0,9.268,0,18.533,0,27.8c0,1.671,2.588,1.671,2.588,0c0-9.267,0-18.532,0-27.8
				C290.454,266.063,287.866,266.063,287.866,267.732L287.866,267.732z"/>
		</g>
	</g>
	<g>
		<g>
			<path d="M148.948,305.594c0-12.063,0-24.126,0-36.189c0-1.67-2.588-1.67-2.588,0c0,12.062,0,24.125,0,36.189
				C146.36,307.263,148.948,307.263,148.948,305.594L148.948,305.594z"/>
		</g>
		<g>
			<path d="M148.146,270.43c4.176,0,8.352,0,12.527,0c1.669,0,1.669-2.588,0-2.588c-4.176,0-8.352,0-12.527,0
				C146.476,267.841,146.476,270.43,148.146,270.43L148.146,270.43z"/>
		</g>
		<g>
			<path d="M159.626,269.675c0,12.242,0,24.484,0,36.727c0,1.67,2.588,1.67,2.588,0c0-12.242,0-24.484,0-36.727
				C162.214,268.005,159.626,268.005,159.626,269.675L159.626,269.675z"/>
		</g>
	</g>
	<g>
		<g>
			<path d="M132.123,306.113c0-9.112,0-18.229,0-27.343c0-1.67-2.588-1.67-2.588,0c0,9.114,0,18.229,0,27.343
				C129.535,307.782,132.123,307.782,132.123,306.113L132.123,306.113z"/>
		</g>
		<g>
			<path d="M131.312,279.862c4.099,0,8.196,0,12.295,0c1.67,0,1.67-2.588,0-2.588c-4.1,0-8.196,0-12.295,0
				C129.642,277.274,129.642,279.862,131.312,279.862L131.312,279.862z"/>
		</g>
		<g>
			<path d="M142.554,278.976c0,9.25,0,18.499,0,27.749c0,1.669,2.588,1.669,2.588,0c0-9.25,0-18.499,0-27.749
				C145.143,277.307,142.554,277.307,142.554,278.976L142.554,278.976z"/>
		</g>
	</g>
	<g>
		<g>
			<path d="M265.03,246.505c0-11.391,0-22.782,0-34.172c0-1.67-2.588-1.67-2.588,0c0,11.39,0,22.781,0,34.172
				C262.442,248.175,265.03,248.175,265.03,246.505L265.03,246.505z"/>
		</g>
		<g>
			<path d="M264.278,213.372c4.603,0,9.208,0,13.811,0c1.669,0,1.669-2.589,0-2.589c-4.604,0-9.208,0-13.811,0
				C262.609,210.783,262.609,213.372,264.278,213.372L264.278,213.372z"/>
		</g>
		<g>
			<path d="M277.066,212.586c0,11.561,0,23.122,0,34.683c0,1.67,2.589,1.67,2.589,0c0-11.561,0-23.122,0-34.683
				C279.655,210.917,277.066,210.917,277.066,212.586L277.066,212.586z"/>
		</g>
	</g>
	<g>
		<g>
			<path d="M279.383,246.505c0-11.391,0-22.782,0-34.172c0-1.67-2.588-1.67-2.588,0c0,11.39,0,22.781,0,34.172
				C276.795,248.175,279.383,248.175,279.383,246.505L279.383,246.505z"/>
		</g>
		<g>
			<path d="M278.631,213.372c4.604,0,9.208,0,13.812,0c1.669,0,1.669-2.589,0-2.589c-4.604,0-9.208,0-13.812,0
				C276.962,210.783,276.962,213.372,278.631,213.372L278.631,213.372z"/>
		</g>
		<g>
			<path d="M291.42,212.586c0,11.561,0,23.122,0,34.683c0,1.67,2.588,1.67,2.588,0c0-11.561,0-23.122,0-34.683
				C294.008,210.917,291.42,210.917,291.42,212.586L291.42,212.586z"/>
		</g>
	</g>
	<g>
		<g>
			<path d="M122.416,163.62c0-12.711,0-25.424,0-38.136c0-1.669-2.588-1.669-2.588,0c0,12.711,0,25.425,0,38.136
				C119.828,165.29,122.416,165.29,122.416,163.62L122.416,163.62z"/>
		</g>
		<g>
			<path d="M121.701,126.494c4.922,0,9.842,0,14.764,0c1.669,0,1.669-2.59,0-2.59c-4.922,0-9.842,0-14.764,0
				C120.031,123.905,120.031,126.494,121.701,126.494L121.701,126.494z"/>
		</g>
		<g>
			<path d="M135.461,125.768c0,12.902,0,25.803,0,38.705c0,1.669,2.589,1.669,2.589,0c0-12.902,0-25.803,0-38.705
				C138.05,124.098,135.461,124.098,135.461,125.768L135.461,125.768z"/>
		</g>
	</g>
	<g>
		<g>
			<path d="M139.337,163.62c0-12.711,0-25.424,0-38.136c0-1.669-2.588-1.669-2.588,0c0,12.711,0,25.425,0,38.136
				C136.749,165.29,139.337,165.29,139.337,163.62L139.337,163.62z"/>
		</g>
		<g>
			<path d="M138.622,126.494c4.922,0,9.842,0,14.765,0c1.67,0,1.67-2.59,0-2.59c-4.922,0-9.843,0-14.765,0
				C136.953,123.905,136.953,126.494,138.622,126.494L138.622,126.494z"/>
		</g>
		<g>
			<path d="M152.382,125.768c0,12.902,0,25.803,0,38.705c0,1.669,2.589,1.669,2.589,0c0-12.902,0-25.803,0-38.705
				C154.971,124.098,152.382,124.098,152.382,125.768L152.382,125.768z"/>
		</g>
	</g>
	<g>
		<g>
			<path d="M156.259,163.62c0-12.711,0-25.424,0-38.136c0-1.669-2.588-1.669-2.588,0c0,12.711,0,25.425,0,38.136
				C153.67,165.29,156.259,165.29,156.259,163.62L156.259,163.62z"/>
		</g>
		<g>
			<path d="M155.543,126.494c4.922,0,9.842,0,14.765,0c1.67,0,1.67-2.59,0-2.59c-4.921,0-9.843,0-14.765,0
				C153.874,123.905,153.874,126.494,155.543,126.494L155.543,126.494z"/>
		</g>
		<g>
			<path d="M169.304,125.768c0,12.902,0,25.803,0,38.705c0,1.669,2.588,1.669,2.588,0c0-12.902,0-25.803,0-38.705
				C171.892,124.098,169.304,124.098,169.304,125.768L169.304,125.768z"/>
		</g>
	</g>
	<g>
		<g>
			<path d="M173.179,163.62c0-12.711,0-25.424,0-38.136c0-1.669-2.589-1.669-2.589,0c0,12.711,0,25.425,0,38.136
				C170.59,165.29,173.179,165.29,173.179,163.62L173.179,163.62z"/>
		</g>
		<g>
			<path d="M172.463,126.494c4.922,0,9.845,0,14.766,0c1.67,0,1.67-2.59,0-2.59c-4.921,0-9.844,0-14.766,0
				C170.794,123.905,170.794,126.494,172.463,126.494L172.463,126.494z"/>
		</g>
		<g>
			<path d="M186.224,125.768c0,12.902,0,25.803,0,38.705c0,1.669,2.589,1.669,2.589,0c0-12.902,0-25.803,0-38.705
				C188.812,124.098,186.224,124.098,186.224,125.768L186.224,125.768z"/>
		</g>
	</g>
	<g>
		<g>
			<path d="M190.1,163.62c0-12.711,0-25.424,0-38.136c0-1.669-2.588-1.669-2.588,0c0,12.711,0,25.425,0,38.136
				C187.512,165.29,190.1,165.29,190.1,163.62L190.1,163.62z"/>
		</g>
		<g>
			<path d="M189.385,126.494c4.923,0,9.843,0,14.765,0c1.669,0,1.669-2.59,0-2.59c-4.922,0-9.842,0-14.765,0
				C187.715,123.905,187.715,126.494,189.385,126.494L189.385,126.494z"/>
		</g>
		<g>
			<path d="M203.145,125.768c0,12.902,0,25.803,0,38.705c0,1.669,2.588,1.669,2.588,0c0-12.902,0-25.803,0-38.705
				C205.733,124.098,203.145,124.098,203.145,125.768L203.145,125.768z"/>
		</g>
	</g>
	<g>
		<g>
			<path d="M243.267,163.834c0-9.518,0-19.036,0-28.554c0-1.67-2.589-1.67-2.589,0c0,9.518,0,19.036,0,28.554
				C240.678,165.504,243.267,165.504,243.267,163.834L243.267,163.834z"/>
		</g>
		<g>
			<path d="M242.518,136.362c4.635,0,9.27,0,13.903,0c1.669,0,1.669-2.589,0-2.589c-4.635,0-9.27,0-13.903,0
				C240.848,133.773,240.848,136.362,242.518,136.362L242.518,136.362z"/>
		</g>
		<g>
			<path d="M255.4,135.494c0,9.659,0,19.318,0,28.979c0,1.669,2.589,1.669,2.589,0c0-9.66,0-19.319,0-28.979
				C257.989,133.824,255.4,133.824,255.4,135.494L255.4,135.494z"/>
		</g>
	</g>
	<g>
		<g>
			<path d="M287.353,163.267c0-9.517,0-19.036,0-28.553c0-1.669-2.589-1.669-2.589,0c0,9.518,0,19.036,0,28.553
				C284.764,164.937,287.353,164.937,287.353,163.267L287.353,163.267z"/>
		</g>
		<g>
			<path d="M286.397,135.794c2.878,0,5.754,0,8.632,0c1.67,0,1.67-2.588,0-2.588c-2.878,0-5.754,0-8.632,0
				C284.727,133.206,284.727,135.794,286.397,135.794L286.397,135.794z"/>
		</g>
		<g>
			<path d="M293.904,134.926c0,9.66,0,19.319,0,28.979c0,1.671,2.589,1.671,2.589,0c0-9.659,0-19.318,0-28.979
				C296.493,133.257,293.904,133.257,293.904,134.926L293.904,134.926z"/>
		</g>
	</g>
	<g>
		<g>
			<path d="M263.975,162.738c0-17.397,0-34.796,0-52.193c0-1.669-2.588-1.669-2.588,0c0,17.397,0,34.796,0,52.193
				C261.387,164.406,263.975,164.406,263.975,162.738L263.975,162.738z"/>
		</g>
		<g>
			<path d="M263.381,111.448c5.959,0,11.917,0,17.877,0c1.67,0,1.67-2.588,0-2.588c-5.959,0-11.917,0-17.877,0
				C261.711,108.859,261.711,111.448,263.381,111.448L263.381,111.448z"/>
		</g>
		<g>
			<path d="M280.315,110.932c0,17.658,0,35.315,0,52.973c0,1.671,2.588,1.671,2.588,0c0-17.657,0-35.314,0-52.973
				C282.903,109.263,280.315,109.263,280.315,110.932L280.315,110.932z"/>
		</g>
	</g>
	<g>
		<g>
			<path d="M277.241,82.765c0-15.553,0-31.104,0-46.656c0-1.67-2.589-1.67-2.589,0c0,15.553,0,31.104,0,46.656
				C274.652,84.434,277.241,84.434,277.241,82.765L277.241,82.765z"/>
		</g>
		<g>
			<path d="M276.594,37.054c5.501,0,11.001,0,16.502,0c1.669,0,1.669-2.588,0-2.588c-5.5,0-11.001,0-16.502,0
				C274.924,34.465,274.924,37.054,276.594,37.054L276.594,37.054z"/>
		</g>
		<g>
			<path d="M292.125,36.456c0,15.783,0,31.568,0,47.353c0,1.669,2.588,1.669,2.588,0c0-15.784,0-31.569,0-47.353
				C294.713,34.786,292.125,34.786,292.125,36.456L292.125,36.456z"/>
		</g>
	</g>
	<g>
		<g>
			<path d="M123.71,84.304c0-6.702,0-13.405,0-20.107c0-1.669-2.588-1.669-2.588,0c0,6.703,0,13.405,0,20.107
				C121.122,85.974,123.71,85.974,123.71,84.304L123.71,84.304z"/>
		</g>
		<g>
			<path d="M122.919,65.34c4.278,0,8.558,0,12.835,0c1.669,0,1.669-2.589,0-2.589c-4.277,0-8.557,0-12.835,0
				C121.25,62.751,121.25,65.34,122.919,65.34L122.919,65.34z"/>
		</g>
		<g>
			<path d="M134.711,64.345c0,6.803,0,13.606,0,20.409c0,1.669,2.589,1.669,2.589,0c0-6.802,0-13.606,0-20.409
				C137.3,62.676,134.711,62.676,134.711,64.345L134.711,64.345z"/>
		</g>
	</g>
	<g>
		<g>
			<path d="M166.421,83.446c0-10.379,0-20.76,0-31.139c0-1.67-2.589-1.67-2.589,0c0,10.379,0,20.76,0,31.139
				C163.832,85.115,166.421,85.115,166.421,83.446L166.421,83.446z"/>
		</g>
		<g>
			<path d="M165.803,53.368c5.756,0,11.51,0,17.267,0c1.669,0,1.669-2.589,0-2.589c-5.756,0-11.511,0-17.267,0
				C164.133,50.78,164.133,53.368,165.803,53.368L165.803,53.368z"/>
		</g>
		<g>
			<path d="M182.114,52.538c0,10.534,0,21.068,0,31.604c0,1.67,2.588,1.67,2.588,0c0-10.535,0-21.069,0-31.604
				C184.702,50.868,182.114,50.868,182.114,52.538L182.114,52.538z"/>
		</g>
	</g>
	<g>
		<g>
			<path d="M213.823,84.318c0-9.438,0-18.874,0-28.312c0-1.669-2.588-1.669-2.588,0c0,9.438,0,18.875,0,28.312
				C211.234,85.987,213.823,85.987,213.823,84.318L213.823,84.318z"/>
		</g>
		<g>
			<path d="M213.061,57.089c4.534,0,9.065,0,13.6,0c1.67,0,1.67-2.588,0-2.588c-4.534,0-9.065,0-13.6,0
				C211.391,54.501,211.391,57.089,213.061,57.089L213.061,57.089z"/>
		</g>
		<g>
			<path d="M225.633,56.217c0,9.578,0,19.156,0,28.734c0,1.669,2.589,1.669,2.589,0c0-9.578,0-19.156,0-28.734
				C228.221,54.547,225.633,54.547,225.633,56.217L225.633,56.217z"/>
		</g>
	</g>
	<g>
		<g>
			<path d="M258.475,83.175c0-9.438,0-18.874,0-28.312c0-1.669-2.589-1.669-2.589,0c0,9.438,0,18.875,0,28.312
				C255.886,84.845,258.475,84.845,258.475,83.175L258.475,83.175z"/>
		</g>
		<g>
			<path d="M257.702,55.947c4.449,0,8.899,0,13.348,0c1.671,0,1.671-2.588,0-2.588c-4.448,0-8.898,0-13.348,0
				C256.033,53.358,256.033,55.947,257.702,55.947L257.702,55.947z"/>
		</g>
		<g>
			<path d="M270.018,55.075c0,9.577,0,19.155,0,28.733c0,1.669,2.589,1.669,2.589,0c0-9.578,0-19.156,0-28.733
				C272.606,53.405,270.018,53.405,270.018,55.075L270.018,55.075z"/>
		</g>
	</g>
	<g>
		<path d="M121.554,131.617c3.738,0,7.479,0,11.217,0c0.834,0,0.834-1.295,0-1.295c-3.739,0-7.479,0-11.217,0
			C120.72,130.323,120.72,131.617,121.554,131.617L121.554,131.617z"/>
	</g>
	<g>
		<path d="M139.35,131.617c3.486,0,6.975,0,10.461,0c0.834,0,0.834-1.295,0-1.295c-3.487,0-6.975,0-10.461,0
			C138.516,130.323,138.516,131.617,139.35,131.617L139.35,131.617z"/>
	</g>
	<g>
		<path d="M155.312,131.941c3.596-0.015,7.188-0.192,10.787-0.106c0.835,0.021,0.833-1.274,0-1.294
			c-3.598-0.086-7.19,0.092-10.787,0.106C154.478,130.65,154.477,131.945,155.312,131.941L155.312,131.941z"/>
	</g>
	<g>
		<path d="M172.893,132.372c2.912,0,5.823,0,8.735,0c0.834,0,0.834-1.294,0-1.294c-2.912,0-5.823,0-8.735,0
			C172.059,131.078,172.059,132.372,172.893,132.372L172.893,132.372z"/>
	</g>
	<g>
		<path d="M189.826,132.05c3.272,0,6.543,0,9.815,0c0.834,0,0.834-1.294,0-1.294c-3.272,0-6.543,0-9.815,0
			C188.992,130.755,188.992,132.05,189.826,132.05L189.826,132.05z"/>
	</g>
	<g>
		<path d="M210.749,188.86c4.718,0,9.438,0,14.156,0c0.834,0,0.834-1.294,0-1.294c-4.718,0-9.438,0-14.156,0
			C209.915,187.566,209.915,188.86,210.749,188.86L210.749,188.86z"/>
	</g>
</g>
</svg>
