<?xml version="1.0" encoding="utf-8"?>
<!-- Generator: Adobe Illustrator 15.1.0, SVG Export Plug-In . SVG Version: 6.00 Build 0)  -->
<!DOCTYPE svg PUBLIC "-//W3C//DTD SVG 1.1//EN" "http://www.w3.org/Graphics/SVG/1.1/DTD/svg11.dtd">
<svg version="1.1" id="Layer_1" xmlns="http://www.w3.org/2000/svg" xmlns:xlink="http://www.w3.org/1999/xlink" x="0px" y="0px"
	 width="416.592px" height="358.088px" viewBox="0 0 416.592 358.088" enable-background="new 0 0 416.592 358.088"
	 xml:space="preserve">
<g>
	<g>
		<g>
			<g>
				<path d="M83.766,47.965c0,93.661,0,187.323,0,280.983c0,2.331,3.613,2.331,3.613,0c0-93.66,0-187.322,0-280.983
					C87.379,45.634,83.766,45.634,83.766,47.965L83.766,47.965z"/>
			</g>
			<g>
				<path d="M85.572,330.756c81.815,0,163.631,0,245.446,0c2.331,0,2.331-3.614,0-3.614c-81.815,0-163.631,0-245.446,0
					C83.241,327.142,83.241,330.756,85.572,330.756L85.572,330.756z"/>
			</g>
			<g>
				<path d="M329.211,47.965c0,93.624,0,187.247,0,280.871c0,2.331,3.614,2.331,3.614,0c0-93.624,0-187.247,0-280.871
					C332.825,45.634,329.211,45.634,329.211,47.965L329.211,47.965z"/>
			</g>
			<g>
				<path d="M85.572,49.772c81.815,0,163.631,0,245.446,0c2.331,0,2.331-3.613,0-3.613c-81.815,0-163.631,0-245.446,0
					C83.241,46.158,83.241,49.772,85.572,49.772L85.572,49.772z"/>
			</g>
		</g>
		<g>
			<g>
				<path d="M92.199,55.193c0,88.393,0,176.781,0,265.172c0,2.332,3.614,2.332,3.614,0c0-88.391,0-176.78,0-265.172
					C95.812,52.862,92.199,52.862,92.199,55.193L92.199,55.193z"/>
			</g>
			<g>
				<path d="M94.005,322.173c76.145,0,152.287,0,228.431,0c2.332,0,2.332-3.614,0-3.614c-76.144,0-152.286,0-228.431,0
					C91.674,318.559,91.674,322.173,94.005,322.173L94.005,322.173z"/>
			</g>
			<g>
				<path d="M320.628,55.193c0,88.354,0,176.711,0,265.065c0,2.331,3.614,2.331,3.614,0c0-88.354,0-176.71,0-265.065
					C324.242,52.862,320.628,52.862,320.628,55.193L320.628,55.193z"/>
			</g>
			<g>
				<path d="M94.005,57c76.145,0,152.287,0,228.431,0c2.332,0,2.332-3.614,0-3.614c-76.144,0-152.286,0-228.431,0
					C91.674,53.386,91.674,57,94.005,57L94.005,57z"/>
			</g>
		</g>
		<g>
			<path d="M284.639,113.47c0-18.873,0-37.747,0-56.62c0-1.165-1.808-1.165-1.808,0c0,18.873,0,37.747,0,56.62
				C282.832,114.634,284.639,114.634,284.639,113.47L284.639,113.47z"/>
		</g>
		<g>
			<path d="M282.532,139.369c0,21.382,0,42.765,0,64.146c0,1.165,1.807,1.165,1.807,0c0-21.382,0-42.765,0-64.146
				C284.339,138.204,282.532,138.204,282.532,139.369L282.532,139.369z"/>
		</g>
		<g>
			<path d="M284.037,291.154c0-20.276,0-40.556,0-60.833c0-1.165-1.807-1.165-1.807,0c0,20.277,0,40.557,0,60.833
				C282.23,292.319,284.037,292.319,284.037,291.154L284.037,291.154z"/>
		</g>
		<g>
			<path d="M141.287,290.251c0-20.277,0-40.558,0-60.833c0-1.165-1.807-1.165-1.807,0c0,20.276,0,40.556,0,60.833
				C139.48,291.415,141.287,291.415,141.287,290.251L141.287,290.251z"/>
		</g>
		<g>
			<path d="M141.287,203.064c0-21.333,0-42.665,0-63.997c0-1.165-1.807-1.165-1.807,0c0,21.332,0,42.665,0,63.997
				C139.48,204.229,141.287,204.229,141.287,203.064L141.287,203.064z"/>
		</g>
		<g>
			<path d="M139.782,58.055c0,18.372,0,36.741,0,55.113c0,1.165,1.807,1.165,1.807,0c0-18.372,0-36.741,0-55.113
				C141.588,56.891,139.782,56.891,139.782,58.055L139.782,58.055z"/>
		</g>
		<g>
			<path d="M282.456,290.099c-47.356,0-94.716,0-142.073,0c-1.165,0-1.165,1.809,0,1.809c47.357,0,94.717,0,142.073,0
				C283.621,291.906,283.621,290.099,282.456,290.099L282.456,290.099z"/>
		</g>
		<g>
			<path d="M94.611,319.792c15.41-9.337,30.819-18.673,46.228-28.011c0.995-0.604,0.089-2.164-0.91-1.56
				c-15.41,9.337-30.819,18.673-46.229,28.01C92.705,318.834,93.612,320.397,94.611,319.792L94.611,319.792z"/>
		</g>
		<g>
			<path d="M281.927,291.935c13.351,9.336,26.701,18.671,40.053,28.008c0.957,0.671,1.857-0.897,0.911-1.56
				c-13.352-9.337-26.702-18.672-40.054-28.009C281.881,289.704,280.979,291.272,281.927,291.935L281.927,291.935z"/>
		</g>
		<g>
			<path d="M94.607,218.874c75.291,0,150.58,0,225.871,0c1.165,0,1.165-1.808,0-1.808c-75.291,0-150.58,0-225.871,0
				C93.443,217.067,93.443,218.874,94.607,218.874L94.607,218.874z"/>
		</g>
		<g>
			<path d="M94.607,230.017c75.69,0,151.383,0,227.074,0c1.165,0,1.165-1.807,0-1.807c-75.691,0-151.384,0-227.074,0
				C93.443,228.21,93.443,230.017,94.607,230.017L94.607,230.017z"/>
		</g>
		<g>
			<path d="M96.414,138.464c75.19,0,150.379,0,225.569,0c1.165,0,1.165-1.808,0-1.808c-75.19,0-150.379,0-225.569,0
				C95.25,136.656,95.25,138.464,96.414,138.464L96.414,138.464z"/>
		</g>
		<g>
			<path d="M95.209,128.827c75.291,0,150.58,0,225.871,0c1.165,0,1.165-1.808,0-1.808c-75.291,0-150.58,0-225.871,0
				C94.044,127.02,94.044,128.827,95.209,128.827L95.209,128.827z"/>
		</g>
		<g>
			<path d="M140.685,114.373c47.684,0,95.367,0,143.05,0c1.165,0,1.165-1.808,0-1.808c-47.685,0-95.367,0-143.05,0
				C139.521,112.566,139.521,114.373,140.685,114.373L140.685,114.373z"/>
		</g>
		<g>
			<path d="M140.609,204.42c47.608,0,95.217,0,142.827,0c1.165,0,1.165-1.808,0-1.808c-47.609,0-95.218,0-142.827,0
				C139.444,202.613,139.444,204.42,140.609,204.42L140.609,204.42z"/>
		</g>
		<g>
			<path d="M95.979,218.09c14.957-4.569,29.914-9.135,44.871-13.702c1.111-0.341,0.637-2.084-0.48-1.744
				c-14.957,4.569-29.914,9.135-44.871,13.702C94.387,216.688,94.861,218.431,95.979,218.09L95.979,218.09z"/>
		</g>
		<g>
			<path d="M96.654,128.386c14.757-4.782,29.513-9.564,44.271-14.346c1.105-0.358,0.633-2.104-0.479-1.744
				c-14.757,4.782-29.513,9.563-44.271,14.347C95.07,127,95.542,128.746,96.654,128.386L96.654,128.386z"/>
		</g>
		<g>
			<path d="M283.12,114.114c12.875,4.692,25.75,9.387,38.624,14.08c1.098,0.399,1.565-1.346,0.48-1.742
				c-12.875-4.692-25.75-9.387-38.624-14.08C282.502,111.972,282.034,113.718,283.12,114.114L283.12,114.114z"/>
		</g>
		<g>
			<path d="M283.12,204.388c12.875,4.692,25.75,9.386,38.624,14.08c1.098,0.399,1.565-1.346,0.48-1.743
				c-12.875-4.691-25.75-9.386-38.624-14.08C282.502,202.246,282.034,203.993,283.12,204.388L283.12,204.388z"/>
		</g>
	</g>
	<g>
		<g>
			<path d="M83.766,47.965c0,93.661,0,187.323,0,280.983c0,2.331,3.613,2.331,3.613,0c0-93.66,0-187.322,0-280.983
				C87.379,45.634,83.766,45.634,83.766,47.965L83.766,47.965z"/>
		</g>
		<g>
			<path d="M85.572,330.756c81.815,0,163.631,0,245.446,0c2.331,0,2.331-3.614,0-3.614c-81.815,0-163.631,0-245.446,0
				C83.241,327.142,83.241,330.756,85.572,330.756L85.572,330.756z"/>
		</g>
		<g>
			<path d="M329.211,47.965c0,93.624,0,187.247,0,280.871c0,2.331,3.614,2.331,3.614,0c0-93.624,0-187.247,0-280.871
				C332.825,45.634,329.211,45.634,329.211,47.965L329.211,47.965z"/>
		</g>
		<g>
			<path d="M85.572,49.772c81.815,0,163.631,0,245.446,0c2.331,0,2.331-3.613,0-3.613c-81.815,0-163.631,0-245.446,0
				C83.241,46.158,83.241,49.772,85.572,49.772L85.572,49.772z"/>
		</g>
	</g>
</g>
</svg>
