<?xml version="1.0" encoding="utf-8"?>
<!-- Generator: Adobe Illustrator 15.1.0, SVG Export Plug-In . SVG Version: 6.00 Build 0)  -->
<!DOCTYPE svg PUBLIC "-//W3C//DTD SVG 1.1//EN" "http://www.w3.org/Graphics/SVG/1.1/DTD/svg11.dtd">
<svg version="1.1" id="Layer_1" xmlns="http://www.w3.org/2000/svg" xmlns:xlink="http://www.w3.org/1999/xlink" x="0px" y="0px"
	 width="416.592px" height="358.088px" viewBox="0 0 416.592 358.088" enable-background="new 0 0 416.592 358.088"
	 xml:space="preserve">
<g>
	<g>
		<path d="M362.332,116.854c-6.886,30.495-13.771,60.99-20.658,91.484c-0.558,2.471,3.235,3.52,3.795,1.045
			c6.886-30.495,13.771-60.99,20.656-91.484C366.685,115.428,362.891,114.379,362.332,116.854L362.332,116.854z"/>
	</g>
	<g>
		<path d="M351.975,124.016c-5.893,25.32-11.786,50.639-17.679,75.96c-0.574,2.469,3.22,3.518,3.794,1.046
			c5.894-25.32,11.786-50.64,17.68-75.96C356.344,122.592,352.551,121.545,351.975,124.016L351.975,124.016z"/>
	</g>
	<g>
		<path d="M101.917,61.828c17.673,56.781,35.346,113.563,53.019,170.346c0.751,2.416,4.551,1.383,3.794-1.045
			c-17.673-56.782-35.346-113.564-53.019-170.346C104.959,58.367,101.16,59.399,101.917,61.828L101.917,61.828z"/>
	</g>
	<g>
		<path d="M156.832,233.618c62.247-7.597,124.494-15.193,186.74-22.79c2.485-0.305,2.515-4.243,0-3.936
			c-62.246,7.597-124.493,15.194-186.74,22.791C154.347,229.987,154.316,233.926,156.832,233.618L156.832,233.618z"/>
	</g>
	<g>
		<path d="M125.62,103.758c79.537,5.195,159.072,10.39,238.61,15.585c2.535,0.165,2.519-3.771,0-3.935
			c-79.538-5.195-159.073-10.392-238.61-15.586C123.084,99.658,123.1,103.593,125.62,103.758L125.62,103.758z"/>
	</g>
	<g>
		<path d="M128.371,111.551c75.167,4.986,150.334,9.97,225.501,14.956c2.535,0.167,2.519-3.769,0-3.936
			c-75.167-4.985-150.334-9.969-225.501-14.954C125.836,107.449,125.853,111.383,128.371,111.551L128.371,111.551z"/>
	</g>
	<g>
		<path d="M159.156,220.033c59.013-5.581,118.024-11.163,177.038-16.744c2.503-0.236,2.526-4.173,0-3.936
			c-59.013,5.582-118.025,11.163-177.038,16.744C156.653,216.334,156.63,220.271,159.156,220.033L159.156,220.033z"/>
	</g>
	<g>
		<path d="M108.856,54.778c16.134,54.604,32.269,109.207,48.402,163.811c0.719,2.429,4.517,1.395,3.796-1.045
			c-16.136-54.604-32.271-109.206-48.403-163.811C111.933,51.305,108.135,52.338,108.856,54.778L108.856,54.778z"/>
	</g>
	<g>
		<path d="M282.171,217.55c0.014,3.199,0.226,6.395,0.246,9.591c0.017,2.537,3.951,2.538,3.936,0
			c-0.021-3.197-0.233-6.392-0.246-9.591C286.097,215.015,282.162,215.013,282.171,217.55L282.171,217.55z"/>
	</g>
	<g>
		<path d="M161.422,238.946c40.988-2.787,81.976-5.573,122.964-8.361c2.518-0.171,2.533-4.107,0-3.936
			c-40.988,2.788-81.976,5.574-122.964,8.362C158.904,235.183,158.887,239.119,161.422,238.946L161.422,238.946z"/>
	</g>
	<g>
		<path d="M159.853,233.259c-5.138,18.635-10.274,37.269-15.412,55.906c-0.675,2.45,3.121,3.487,3.795,1.045
			c5.137-18.634,10.273-37.27,15.411-55.906C164.323,231.854,160.526,230.815,159.853,233.259L159.853,233.259z"/>
	</g>
	<g>
		<path d="M154.114,231.128c-6.12,21.476-12.242,42.955-18.362,64.431c-0.695,2.446,3.102,3.482,3.795,1.045
			c6.12-21.476,12.242-42.952,18.361-64.431C158.605,229.728,154.809,228.692,154.114,231.128L154.114,231.128z"/>
	</g>
	<g>
		<path d="M147.978,291.985c57.711,0,115.421,0,173.132,0c2.537,0,2.537-3.935,0-3.935c-57.711,0-115.421,0-173.132,0
			C145.44,288.051,145.44,291.985,147.978,291.985L147.978,291.985z"/>
	</g>
	<g>
		<path d="M300.445,298.216c7.763,0,15.525,0,23.288,0c2.537,0,2.537-3.936,0-3.936c-7.763,0-15.525,0-23.288,0
			C297.908,294.282,297.908,298.216,300.445,298.216L300.445,298.216z"/>
	</g>
	<g>
		<path d="M177.153,298.216c36.988,0,73.975,0,110.963,0c2.537,0,2.537-3.936,0-3.936c-36.988,0-73.975,0-110.963,0
			C174.616,294.282,174.616,298.216,177.153,298.216L177.153,298.216z"/>
	</g>
	<g>
		<path d="M138.796,298.216c8.677,0,17.353,0,26.028,0c2.537,0,2.537-3.936,0-3.936c-8.676,0-17.352,0-26.028,0
			C136.259,294.282,136.259,298.216,138.796,298.216L138.796,298.216z"/>
	</g>
	<g>
		<path d="M320.936,291.811c0.761,0.14,1.528,0.488,1.821,1.271c0.132,0.352,0.16,0.612,0.162,0.99
			c0.06,0.086,0.045,0.185-0.042,0.292c0.021-0.088,0.532-0.316-0.015-0.06c-0.973,0.45-1.209,1.831-0.706,2.691
			c0.579,0.987,1.72,1.158,2.692,0.705c1.979-0.922,2.189-3.337,1.832-5.223c-0.427-2.237-2.512-4.064-4.701-4.458
			C319.5,287.571,318.441,291.361,320.936,291.811L320.936,291.811z"/>
	</g>
	<g>
		<path d="M107.895,52.233c3.272,3.302-3.668,6.43-6.142,7.041c-2.462,0.609-1.417,4.404,1.046,3.793
			c5.657-1.398,13.765-7.68,7.878-13.615C108.888,47.646,106.106,50.43,107.895,52.233L107.895,52.233z"/>
	</g>
	<g>
		<path d="M59.362,52.656c16.6,0,33.2,0,49.8,0c2.537,0,2.537-3.935,0-3.935c-16.601,0-33.2,0-49.8,0
			C56.825,48.723,56.825,52.656,59.362,52.656L59.362,52.656z"/>
	</g>
	<g>
		<path d="M101.785,59.337c-15.493,0-30.986,0-46.479,0c-2.537,0-2.537,3.935,0,3.935c15.493,0,30.986,0,46.479,0
			C104.322,63.272,104.322,59.337,101.785,59.337L101.785,59.337z"/>
	</g>
	<g>
		<path d="M59.362,48.723c-3.891,0.197-7.771,2.761-9.152,6.482c-1.365,3.681,1.169,7.088,4.695,7.93
			c2.466,0.59,3.513-3.203,1.045-3.793c-5.229-1.25,0.455-6.535,3.412-6.684C61.887,52.528,61.899,48.594,59.362,48.723
			L59.362,48.723z"/>
	</g>
	<g>
		<path d="M108.209,57.549c-0.644,2.312-2.516,4.05-3.818,6.004c-1.073,1.608,0.687,3.11,2.222,2.89
			c2.486-0.355,4.33-2.185,5.438-4.347c-1.197-0.505-2.396-1.01-3.596-1.516c-0.473,1.979-2.453,3.198-3.839,4.542
			c-1.825,1.768,0.96,4.548,2.782,2.781c1.94-1.88,4.188-3.506,4.851-6.277c0.503-2.107-2.546-3.564-3.596-1.517
			c-0.699,1.361-1.517,2.313-3.088,2.54c0.74,0.962,1.48,1.926,2.222,2.891c1.528-2.292,3.459-4.225,4.216-6.946
			C112.684,56.144,108.888,55.106,108.209,57.549L108.209,57.549z"/>
	</g>
	<g>
		<path d="M319.06,123.361c-3.143,26.696-6.285,53.396-9.427,80.092c-0.147,1.258,1.821,1.244,1.968,0
			c3.142-26.697,6.285-53.396,9.426-80.092C321.176,122.103,319.206,122.116,319.06,123.361L319.06,123.361z"/>
	</g>
	<g>
		<path d="M323.774,123.361c-3.144,26.696-6.285,53.396-9.427,80.092c-0.147,1.258,1.821,1.244,1.967,0
			c3.143-26.697,6.285-53.396,9.427-80.092C325.89,122.103,323.92,122.116,323.774,123.361L323.774,123.361z"/>
	</g>
	<g>
		<path d="M284.388,121.223c-0.533,27.962-1.067,55.923-1.602,83.886c-0.023,1.271,1.943,1.269,1.967,0
			c0.533-27.962,1.067-55.923,1.602-83.886C286.379,119.953,284.412,119.956,284.388,121.223L284.388,121.223z"/>
	</g>
	<g>
		<path d="M289.081,120.781c-0.533,27.964-1.066,55.925-1.6,83.887c-0.024,1.27,1.942,1.266,1.967,0
			c0.533-27.962,1.067-55.923,1.6-83.887C291.073,119.512,289.105,119.515,289.081,120.781L289.081,120.781z"/>
	</g>
	<g>
		<path d="M251.234,120.192c0.879,29.281,1.758,58.56,2.637,87.84c0.038,1.267,2.006,1.271,1.967,0
			c-0.879-29.28-1.758-58.56-2.637-87.84C253.163,118.926,251.195,118.922,251.234,120.192L251.234,120.192z"/>
	</g>
	<g>
		<path d="M255.904,119.547c0.879,29.279,1.757,58.56,2.636,87.838c0.039,1.266,2.006,1.27,1.968,0
			c-0.879-29.279-1.757-58.559-2.636-87.838C257.833,118.281,255.866,118.277,255.904,119.547L255.904,119.547z"/>
	</g>
	<g>
		<path d="M217.832,116.921c2.991,31.763,5.983,63.525,8.975,95.289c0.117,1.252,2.087,1.264,1.967,0
			c-2.991-31.764-5.983-63.526-8.975-95.289C219.681,115.668,217.713,115.656,217.832,116.921L217.832,116.921z"/>
	</g>
	<g>
		<path d="M222.46,116.018c2.99,31.763,5.982,63.525,8.974,95.289c0.118,1.252,2.086,1.264,1.967,0
			c-2.991-31.763-5.982-63.526-8.973-95.289C224.31,114.765,222.341,114.753,222.46,116.018L222.46,116.018z"/>
	</g>
	<g>
		<path d="M188.096,114.957c3.147,32.567,6.297,65.136,9.444,97.704c0.121,1.251,2.09,1.263,1.968,0
			c-3.147-32.568-6.297-65.136-9.444-97.704C189.942,113.707,187.974,113.695,188.096,114.957L188.096,114.957z"/>
	</g>
	<g>
		<path d="M192.724,114.054c3.147,32.568,6.295,65.136,9.443,97.704c0.121,1.251,2.089,1.263,1.967,0
			c-3.147-32.568-6.295-65.135-9.443-97.704C194.571,112.803,192.603,112.792,192.724,114.054L192.724,114.054z"/>
	</g>
	<g>
		<path d="M156.526,112.035c5.756,34.516,11.513,69.034,17.271,103.55c0.208,1.249,2.104,0.719,1.896-0.522
			c-5.757-34.516-11.513-69.034-17.271-103.55C158.215,110.264,156.319,110.794,156.526,112.035L156.526,112.035z"/>
	</g>
	<g>
		<path d="M161.089,110.843c5.757,34.519,11.514,69.035,17.27,103.553c0.208,1.249,2.104,0.718,1.896-0.522
			c-5.756-34.519-11.512-69.036-17.269-103.553C162.778,109.072,160.882,109.603,161.089,110.843L161.089,110.843z"/>
	</g>
	<g>
		<path d="M140.108,149.02c48.027,2.604,96.054,5.208,144.082,7.812c20.282,1.099,40.562,2.197,60.843,3.297
			c1.268,0.068,1.261-1.898,0-1.967c-48.028-2.604-96.054-5.207-144.082-7.811c-20.282-1.099-40.562-2.198-60.843-3.297
			C138.84,146.983,138.847,148.951,140.108,149.02L140.108,149.02z"/>
	</g>
	<g>
		<path d="M137.649,145.249c47.665,2.219,95.331,4.438,142.997,6.656c22.343,1.039,44.685,2.081,67.027,3.12
			c1.27,0.06,1.264-1.907,0-1.967c-47.666-2.219-95.33-4.438-142.996-6.657c-22.344-1.04-44.687-2.081-67.028-3.121
			C136.38,143.222,136.387,145.189,137.649,145.249L137.649,145.249z"/>
	</g>
	<g>
		<path d="M152.957,194.926c48.936-2.166,97.869-4.333,146.806-6.498c12.819-0.567,25.639-1.135,38.459-1.703
			c1.263-0.055,1.269-2.022,0-1.967c-48.936,2.166-97.869,4.333-146.805,6.498c-12.819,0.565-25.639,1.135-38.46,1.702
			C151.694,193.014,151.688,194.981,152.957,194.926L152.957,194.926z"/>
	</g>
	<g>
		<path d="M150.356,191.405c48.746-2.569,97.491-5.139,146.234-7.71c14.491-0.765,28.983-1.526,43.475-2.292
			c1.262-0.066,1.268-2.034,0-1.968c-48.746,2.571-97.491,5.141-146.235,7.71c-14.491,0.766-28.982,1.528-43.474,2.292
			C149.094,189.505,149.088,191.473,150.356,191.405L150.356,191.405z"/>
	</g>
	<g>
		<g>
			<path d="M171.022,319.968c-2.669,0-5.597-1.655-5.76-4.724l-0.001-25.557h10.82v25.505
				C176.033,318.495,173.506,319.968,171.022,319.968z M167.229,291.655v23.539c0.095,1.736,2.003,2.808,3.794,2.808
				c0.715,0,3.054-0.204,3.092-2.823v-23.522L167.229,291.655L167.229,291.655z"/>
		</g>
		<path d="M175.099,295.093v4.057c7.35,1.962,12.788,8.659,12.788,16.618c0,9.493-7.724,17.215-17.216,17.215
			c-9.491,0-17.215-7.722-17.215-17.215c0-7.959,5.438-14.656,12.789-16.618v-4.057c-9.543,2.04-16.724,10.53-16.724,20.675
			c0,11.662,9.486,21.148,21.149,21.148c11.662,0,21.149-9.486,21.149-21.148C191.821,305.623,184.641,297.132,175.099,295.093z"/>
		<path d="M175.099,303.684v11.51c-0.082,5.494-8.607,4.594-8.854,0v-11.51c-4.929,1.81-8.454,6.529-8.454,12.084
			c0,7.112,5.768,12.881,12.88,12.881c7.113,0,12.881-5.769,12.881-12.881C183.552,310.213,180.028,305.492,175.099,303.684z"/>
	</g>
	<g>
		<g>
			<path d="M294.532,319.968c-2.669,0-5.596-1.655-5.76-4.724v-25.557h10.819v25.505
				C299.542,318.495,297.015,319.968,294.532,319.968z M290.738,291.655v23.539c0.095,1.736,2.003,2.808,3.794,2.808
				c0.715,0,3.054-0.204,3.092-2.823v-23.522L290.738,291.655L290.738,291.655z"/>
		</g>
		<path d="M298.608,295.093v1.158v2.897c7.35,1.962,12.788,8.659,12.788,16.618c0,9.493-7.724,17.215-17.214,17.215
			c-9.493,0-17.216-7.722-17.216-17.215c0-7.959,5.438-14.656,12.788-16.618v-2.412v-1.645c-9.542,2.04-16.723,10.53-16.723,20.675
			c0,11.662,9.487,21.148,21.15,21.148c11.662,0,21.148-9.486,21.148-21.148C315.331,305.623,308.151,297.132,298.608,295.093z"/>
		<path d="M298.608,303.684v11.51c-0.082,5.494-8.608,4.594-8.854,0v-11.51c-4.928,1.81-8.453,6.529-8.453,12.084
			c0,7.112,5.768,12.881,12.881,12.881c7.112,0,12.88-5.769,12.88-12.881C307.062,310.213,303.537,305.492,298.608,303.684z"/>
	</g>
</g>
</svg>
